<svg xmlns="http://www.w3.org/2000/svg">
<defs>
<font id="UntitledSerif-RegularItalic" horiz-adv-x="1120" >
  <font-face 
    font-family="Untitled Serif"
    font-weight="400"
    font-style="italic"
    font-stretch="normal"
    units-per-em="2048"
    panose-1="2 2 5 3 6 3 3 13 4 3"
    ascent="1638"
    descent="-410"
    x-height="940"
    cap-height="1320"
    bbox="-518 -492 2426 1960.66"
    underline-thickness="100"
    underline-position="-300"
    slope="-22"
    unicode-range="U+0020-FB02"
  />
<missing-glyph horiz-adv-x="2614" 
d="M2138 950q-72 -82 -168 -82q-60 0 -99 32t-39 88v286h-58v56h58v116l138 40v-156h134v-56h-134v-266q0 -31 16 -47.5t42 -16.5q34 0 78 44zM1246 1104q0 101 68.5 168.5t167.5 67.5t168.5 -67.5t69.5 -168.5t-69.5 -168.5t-168.5 -67.5t-167.5 67.5t-68.5 168.5zM900 920
v-42h-238v42q33 0 41.5 3.5t8.5 16.5v270q0 25 -22 36l-32 18v28l164 48h28v-88q69 88 158 88q64 0 99 -42t35 -108v-250q0 -13 8.5 -16.5t41.5 -3.5v-42h-236v42q33 0 41.5 3.5t8.5 16.5v222q0 90 -72 90q-48 0 -84 -36v-276q0 -14 8 -17t42 -3zM1574 1104q0 86 -23.5 133
t-68.5 47t-68.5 -47t-23.5 -133q0 -180 92 -180t92 180zM496 872q-37 0 -63.5 27t-26.5 63t26.5 63t63.5 27q36 0 62 -27t26 -63t-26 -63t-62 -27zM1032 -10h-26v84q-19 -31 -57.5 -57.5t-88.5 -26.5q-76 0 -128 64t-52 156q0 109 65.5 180.5t160.5 71.5q57 0 100 -38v154
q0 25 -22 36l-32 18v28l166 48h24v-608q0 -14 4.5 -21t17.5 -13l34 -18v-28zM1760 0v42q33 0 40.5 3t7.5 17v334h-62v56h62v18q0 99 70.5 168.5t175.5 69.5q50 0 82 -18t32 -50q0 -28 -18 -42t-42 -14q-19 0 -34 10.5t-23.5 23.5t-19.5 23.5t-23 10.5q-25 0 -43.5 -26
t-18.5 -74v-100h104v-56h-104v-334q0 -13 12.5 -16.5t65.5 -3.5v-42h-264zM1674 110q-27 -56 -80 -88t-120 -32q-94 0 -161 61.5t-67 164.5q0 102 67.5 174t164.5 72q96 0 147 -60.5t51 -151.5v-24h-296q4 -75 40.5 -116.5t95.5 -41.5q37 0 63.5 17t54.5 55zM926 74
q52 0 80 42v240q-26 50 -82 50q-47 0 -77.5 -46t-30.5 -122q0 -71 31 -117.5t79 -46.5zM1474 404q-39 0 -62.5 -33.5t-29.5 -94.5h166q-4 128 -74 128z" />
    <glyph glyph-name="fi" unicode="fi" horiz-adv-x="1198" 
d="M582 1112l-62 -172h458l126 10l42 -18l-286 -652q-38 -85 -47 -109t-9 -41q0 -28 32 -28q83 0 216 160l48 -48q-83 -108 -185 -171t-183 -63q-47 0 -76.5 24.5t-29.5 65.5t36 124l274 648h-452l-298 -814q-77 -211 -219.5 -341.5t-322.5 -130.5q-70 0 -116 34t-46 80
q0 42 26 69t68 27q28 0 53 -16t40.5 -35t38 -35t46.5 -16q54 0 99 32.5t94.5 122.5t100.5 243l258 780h-136l38 98h132l24 74q67 203 244 344.5t370 141.5q87 0 137.5 -35t50.5 -85q0 -45 -30 -71.5t-72 -26.5q-24 0 -49.5 16t-44.5 36t-50.5 36t-67.5 16q-90 0 -155 -67.5
t-115 -206.5z" />
    <glyph glyph-name="fl" unicode="fl" horiz-adv-x="1198" 
d="M186 28q-77 -211 -219.5 -341.5t-322.5 -130.5q-70 0 -116 34t-46 80q0 42 26 69t68 27q28 0 53 -16t40.5 -35t38 -35t46.5 -16q54 0 99 32.5t94.5 122.5t100.5 243l258 780h-136l38 98h132l24 74q43 132 138 244t215 177t235 65q144 0 230 -82l134 82l40 -18l-498 -1202
q-5 -12 -14 -34q-39 -97 -40 -116q0 -28 32 -28q79 0 212 160l48 -48q-84 -109 -183 -171.5t-179 -62.5q-47 0 -76.5 24.5t-29.5 65.5q0 34 36 124l446 1092q-35 43 -93 71.5t-131 28.5q-109 0 -181 -67t-123 -207l-62 -172h236l-38 -98h-234z" />
    <glyph glyph-name="f_b" unicode="fb" horiz-adv-x="1676" 
d="M186 28q-77 -211 -219.5 -341.5t-322.5 -130.5q-70 0 -116 34t-46 80q0 42 26 69t68 27q28 0 53 -16t40.5 -35t38 -35t46.5 -16q54 0 99 32.5t94.5 122.5t100.5 243l258 780h-136l38 98h132l24 74q43 132 138 244t215 177t235 65q144 0 230 -82l136 82l40 -18l-412 -948
h8q52 75 111 145t128.5 136t143.5 105.5t137 39.5q81 0 128.5 -55.5t47.5 -152.5q0 -116 -66 -252t-170.5 -251t-248 -192t-285.5 -77q-99 0 -158.5 46.5t-59.5 121.5q0 53 26 118l422 1020q-36 44 -93.5 72t-130.5 28q-109 0 -181 -67t-123 -207l-62 -172h236l-38 -98h-234
zM1466 708q0 59 -21 87.5t-67 28.5q-67 0 -163 -79.5t-177.5 -186.5t-139.5 -219.5t-58 -174.5q0 -96 96 -96q79 0 160 43.5t145.5 113.5t116 154.5t80 171t28.5 157.5z" />
    <glyph glyph-name="f_f_b" unicode="ffb" horiz-adv-x="2268" 
d="M186 28q-77 -211 -219.5 -341.5t-322.5 -130.5q-70 0 -116 34t-46 80q0 42 26 69t68 27q28 0 53 -16t40.5 -35t38 -35t46.5 -16q54 0 98.5 31.5t94.5 121.5t101 245l260 780h-138l38 98h132l18 54q68 203 230.5 344.5t333.5 141.5q87 0 165 -38.5t115 -81.5
q173 140 344 140q75 0 134.5 -23t93.5 -59l136 82l40 -18l-412 -948h8q52 75 111 145t128.5 136t143.5 105.5t137 39.5q81 0 128.5 -55.5t47.5 -152.5q0 -116 -66 -252t-170.5 -251t-248 -192t-285.5 -77q-99 0 -158.5 46.5t-59.5 121.5q0 53 26 118l422 1022
q-35 43 -92 70.5t-130 27.5q-109 0 -181 -67t-123 -207l-64 -172h238l-38 -98h-234l-292 -794q-76 -208 -214 -340t-296 -132q-67 0 -110.5 31.5t-43.5 76.5q0 40 25 66t65 26q33 0 60.5 -22.5t53.5 -45t54 -22.5q42 0 81 31.5t88 122.5t99 242l252 760h-416zM576 1092
l-56 -152h414l24 74q45 136 142 248q-35 46 -98.5 75t-141.5 29q-106 0 -169 -65t-115 -209zM2058 708q0 59 -21 87.5t-67 28.5q-67 0 -163 -79.5t-177.5 -186.5t-139.5 -219.5t-58 -174.5q0 -96 96 -96q79 0 160 43.5t145.5 113.5t116 154.5t80 171t28.5 157.5z" />
    <glyph glyph-name="f_f" unicode="ff" horiz-adv-x="1198" 
d="M186 28q-77 -211 -219.5 -341.5t-322.5 -130.5q-70 0 -116 34t-46 80q0 42 26 69t68 27q28 0 53 -16t40.5 -35t38 -35t46.5 -16q54 0 99 32.5t94.5 122.5t100.5 243l260 780h-138l38 98h132l18 54q68 203 230.5 344.5t333.5 141.5q85 0 161 -35.5t115 -78.5
q170 134 354 134q85 0 134.5 -33.5t49.5 -82.5q0 -44 -29 -70t-71 -26q-24 0 -48.5 15.5t-42 33.5t-46.5 33.5t-63 15.5q-87 0 -147 -63.5t-109 -198.5l-68 -184h238l-38 -98h-236l-290 -794q-76 -208 -214 -340t-296 -132q-67 0 -110.5 31.5t-43.5 76.5q0 40 25 66t65 26
q33 0 60.5 -22.5t53.5 -45t54 -22.5q42 0 81 31.5t88 122.5t99 242l252 760h-416zM576 1092l-56 -152h412l30 88q40 127 134 240q-35 42 -96.5 70t-139.5 28q-106 0 -169 -65t-115 -209z" />
    <glyph glyph-name="f_h" unicode="fh" horiz-adv-x="1742" 
d="M186 28q-77 -211 -219.5 -341.5t-322.5 -130.5q-70 0 -116 34t-46 80q0 42 26 69t68 27q28 0 53 -16t40.5 -35t38 -35t46.5 -16q54 0 99 32.5t94.5 122.5t100.5 243l258 780h-136l38 98h132l24 74q43 132 138 244t215 177t235 65q144 0 230 -82l134 82l40 -18l-400 -940
h8q147 190 298 304t266 114q58 0 89 -29.5t31 -82.5q0 -54 -36 -136l-200 -432q-55 -119 -59 -136q-1 -7 -1 -14q0 -28 32 -28q83 0 216 160l48 -48q-83 -108 -186 -171t-184 -63q-47 0 -76.5 24.5t-29.5 65.5q0 47 36 124l170 380q32 71 44.5 100t23 62t10.5 52
q0 44 -44 44q-59 0 -174 -94.5t-217 -216.5t-135 -201l-132 -320h-170l526 1286q-35 43 -93 71.5t-131 28.5q-109 0 -181 -67t-123 -207l-62 -172h236l-38 -98h-234z" />
    <glyph glyph-name="f_f_h" unicode="ffh" horiz-adv-x="2336" 
d="M186 28q-77 -211 -219.5 -341.5t-322.5 -130.5q-70 0 -116 34t-46 80q0 42 26 69t68 27q28 0 53 -16t40.5 -35t38 -35t46.5 -16q54 0 98.5 31.5t94.5 121.5t101 245l260 780h-138l38 98h132l18 54q68 203 230.5 344.5t333.5 141.5q87 0 165 -38.5t115 -81.5
q173 140 344 140q144 0 230 -82l134 82l40 -18l-400 -940h8q147 190 298 304t266 114q58 0 89 -29.5t31 -82.5q0 -54 -36 -136l-200 -432q-55 -119 -59 -136q-1 -7 -1 -14q0 -28 32 -28q83 0 216 160l48 -48q-83 -108 -186 -171t-184 -63q-47 0 -76.5 24.5t-29.5 65.5
q0 47 36 124l170 380q32 71 44.5 100t23 62t10.5 52q0 44 -44 44q-59 0 -174 -94.5t-217 -216.5t-135 -201l-132 -320h-170l526 1286q-35 43 -93 71.5t-131 28.5q-109 0 -181 -67t-123 -207l-64 -172h238l-38 -98h-234l-292 -794q-76 -208 -214 -340t-296 -132
q-67 0 -110.5 31.5t-43.5 76.5q0 40 25 66t65 26q33 0 60.5 -22.5t53.5 -45t54 -22.5q42 0 81 31.5t88 122.5t99 242l252 760h-416zM576 1092l-56 -152h414l24 74q45 136 142 248q-35 46 -98.5 75t-141.5 29q-106 0 -169 -65t-115 -209z" />
    <glyph glyph-name="f_idieresis" unicode="f&#xef;" horiz-adv-x="1198" 
d="M586 1124l-68 -184h460l126 10l42 -18l-286 -652q-38 -85 -47 -109t-9 -41q0 -28 32 -28q83 0 216 160l48 -48q-83 -108 -185 -171t-183 -63q-47 0 -76.5 24.5t-29.5 65.5t36 124l274 648h-452l-298 -814q-77 -211 -219.5 -341.5t-322.5 -130.5q-70 0 -116 34t-46 80
q0 42 26 69t68 27q28 0 53 -16t40.5 -35t38 -35t46.5 -16q54 0 98.5 32.5t94 122t101.5 243.5l258 780h-136l38 98h130l30 88q67 199 219.5 335.5t320.5 136.5q83 0 128.5 -33.5t45.5 -82.5q0 -44 -29 -70t-71 -26q-24 0 -45 15.5t-35 33.5t-40 33.5t-60 15.5
q-121 0 -216 -262zM1174 1252q0 48 36 83t84 35q49 0 84.5 -35t35.5 -83q0 -52 -35 -86t-85 -34q-49 0 -84.5 34.5t-35.5 85.5z" />
    <glyph glyph-name="f_f_i" unicode="ffi" horiz-adv-x="1794" 
d="M1176 1112l-64 -172h460l126 10l42 -18l-286 -652q-38 -86 -47 -109.5t-9 -40.5q0 -28 32 -28q83 0 216 160l48 -48q-83 -108 -185 -171t-183 -63q-47 0 -76.5 24.5t-29.5 65.5t36 124l274 648h-452l-292 -794q-76 -208 -214 -340t-296 -132q-67 0 -110.5 31.5
t-43.5 76.5q0 40 25 66t65 26q33 0 60.5 -22.5t53.5 -45t54 -22.5q42 0 81 31.5t88 122.5t99 242l252 760h-416l-298 -814q-77 -211 -219.5 -341.5t-322.5 -130.5q-70 0 -116 34t-46 80q0 42 26 69t68 27q28 0 53 -16t40.5 -35t38 -35t46.5 -16q54 0 98.5 31.5t94.5 121.5
t101 245l260 780h-138l38 98h132l18 54q68 203 230.5 344.5t333.5 141.5q85 0 163.5 -37.5t118.5 -82.5q176 140 368 140q87 0 137.5 -35t50.5 -85q0 -45 -30 -71.5t-72 -26.5q-24 0 -49.5 16t-44.5 36t-50.5 36t-67.5 16q-90 0 -155 -67.5t-115 -206.5zM576 1092l-56 -152
h414l24 74q47 136 140 242q-93 110 -238 110q-106 0 -169 -65t-115 -209z" />
    <glyph glyph-name="f_f_idieresis" unicode="ff&#xef;" horiz-adv-x="1794" 
d="M1180 1124l-68 -184h460l126 10l42 -18l-286 -652q-38 -86 -47 -109.5t-9 -40.5q0 -28 32 -28q83 0 216 160l48 -48q-83 -108 -185 -171t-183 -63q-47 0 -76.5 24.5t-29.5 65.5t36 124l274 648h-454l-290 -794q-77 -209 -214.5 -340.5t-295.5 -131.5q-67 0 -110.5 31.5
t-43.5 76.5q0 40 25 66t65 26q33 0 60.5 -22.5t53.5 -45t54 -22.5q42 0 81 31.5t88 122.5t99 242l252 760h-416l-298 -814q-77 -211 -219.5 -341.5t-322.5 -130.5q-70 0 -116 34t-46 80q0 42 26 69t68 27q28 0 53 -16t40.5 -35t38 -35t46.5 -16q54 0 98.5 31.5t94.5 121.5
t101 245l260 780h-138l38 98h132l18 54q68 203 230.5 344.5t333.5 141.5q79 0 152 -32.5t118 -75.5q147 128 310 128q83 0 128.5 -33.5t45.5 -82.5q0 -44 -29 -70t-71 -26q-24 0 -45 15.5t-35 33.5t-40 33.5t-60 15.5q-121 0 -216 -262zM1768 1252q0 48 36 83t84 35
q49 0 84.5 -35t35.5 -83q0 -52 -35 -86t-85 -34q-49 0 -84.5 34.5t-35.5 85.5zM576 1092l-56 -152h412l30 88q46 132 128 238q-92 100 -230 100q-106 0 -169 -65t-115 -209z" />
    <glyph glyph-name="f_j" unicode="fj" horiz-adv-x="1130" 
d="M582 1112l-62 -172h450l134 10l42 -18l-360 -884q-85 -210 -219.5 -341t-290.5 -131q-67 0 -110.5 31.5t-43.5 76.5q0 40 25 66t65 26q33 0 60.5 -22.5t53.5 -45t54 -22.5q62 0 123.5 86.5t144.5 309.5l286 760h-450l-298 -814q-77 -211 -219.5 -341.5t-322.5 -130.5
q-70 0 -116 34t-46 80q0 42 26 69t68 27q28 0 53 -16t40.5 -35t38 -35t46.5 -16q54 0 99 32.5t94.5 122.5t100.5 243l258 780h-136l38 98h132l24 74q67 203 244 344.5t370 141.5q87 0 137.5 -35t50.5 -85q0 -45 -30 -71.5t-72 -26.5q-24 0 -49.5 16t-44.5 36t-50.5 36
t-67.5 16q-90 0 -155 -67.5t-115 -206.5z" />
    <glyph glyph-name="f_f_j" unicode="ffj" horiz-adv-x="1720" 
d="M1176 1112l-64 -172h450l134 10l42 -18l-360 -884q-85 -210 -219.5 -341t-290.5 -131q-67 0 -110.5 31.5t-43.5 76.5q0 40 25 66t65 26q33 0 60.5 -22.5t53.5 -45t54 -22.5q62 0 123.5 86.5t144.5 309.5l286 760h-448l-292 -794q-76 -208 -214 -340t-296 -132
q-67 0 -110.5 31.5t-43.5 76.5q0 40 25 66t65 26q33 0 60.5 -22.5t53.5 -45t54 -22.5q42 0 81 31.5t88 122.5t99 242l252 760h-416l-298 -814q-77 -211 -219.5 -341.5t-322.5 -130.5q-70 0 -116 34t-46 80q0 42 26 69t68 27q28 0 53 -16t40.5 -35t38 -35t46.5 -16
q54 0 98.5 31.5t94.5 121.5t101 245l260 780h-138l38 98h132l18 54q68 203 230.5 344.5t333.5 141.5q85 0 163.5 -37.5t118.5 -82.5q176 140 368 140q87 0 137.5 -35t50.5 -85q0 -45 -30 -71.5t-72 -26.5q-24 0 -49.5 16t-44.5 36t-50.5 36t-67.5 16q-90 0 -155 -67.5
t-115 -206.5zM576 1092l-56 -152h414l24 74q47 136 140 242q-93 110 -238 110q-106 0 -169 -65t-115 -209z" />
    <glyph glyph-name="f_k" unicode="fk" horiz-adv-x="1722" 
d="M186 28q-77 -211 -219.5 -341.5t-322.5 -130.5q-70 0 -116 34t-46 80q0 42 26 69t68 27q28 0 53 -16t40.5 -35t38 -35t46.5 -16q54 0 99 32.5t94.5 122.5t100.5 243l258 780h-136l38 98h132l24 74q43 132 138 244t215 177t235 65q144 0 230 -82l134 82l40 -18l-332 -770
h8q66 59 112 95.5t106.5 75.5t120 58t119.5 19q74 0 122 -44t48 -114q0 -84 -63.5 -159.5t-162 -129t-222.5 -87.5l46 -258q7 -37 20.5 -52.5t37.5 -15.5q87 0 244 180l48 -48q-97 -121 -200 -186.5t-182 -65.5q-48 0 -78.5 36.5t-37.5 107.5l-24 272q-115 -18 -188 -18
l-144 -378h-170l526 1286q-35 43 -93 71.5t-131 28.5q-109 0 -181 -67t-123 -207l-62 -172h236l-38 -98h-234zM1380 838q-81 0 -199 -76t-203 -174l-56 -146q148 5 279.5 47t212 111t80.5 146q0 92 -114 92z" />
    <glyph glyph-name="f_f_k" unicode="ffk" horiz-adv-x="2316" 
d="M186 28q-77 -211 -219.5 -341.5t-322.5 -130.5q-70 0 -116 34t-46 80q0 42 26 69t68 27q28 0 53 -16t40.5 -35t38 -35t46.5 -16q54 0 98.5 31.5t94.5 121.5t101 245l260 780h-138l38 98h132l18 54q68 203 230.5 344.5t333.5 141.5q87 0 165 -38.5t115 -81.5
q173 140 344 140q144 0 230 -82l134 82l40 -18l-332 -770h8q66 59 112 95.5t106.5 75.5t120 58t119.5 19q74 0 122 -44t48 -114q0 -84 -63.5 -159.5t-162 -129t-222.5 -87.5l46 -258q7 -37 20.5 -52.5t37.5 -15.5q87 0 244 180l48 -48q-97 -121 -200 -186.5t-182 -65.5
q-48 0 -78.5 36.5t-37.5 107.5l-24 272q-115 -18 -188 -18l-144 -378h-170l526 1286q-35 43 -93 71.5t-131 28.5q-109 0 -181 -67t-123 -207l-64 -172h238l-38 -98h-234l-292 -794q-76 -208 -214 -340t-296 -132q-67 0 -110.5 31.5t-43.5 76.5q0 40 25 66t65 26
q33 0 60.5 -22.5t53.5 -45t54 -22.5q42 0 81 31.5t88 122.5t99 242l252 760h-416zM576 1092l-56 -152h414l24 74q45 136 142 248q-35 46 -98.5 75t-141.5 29q-106 0 -169 -65t-115 -209zM1974 838q-79 0 -195.5 -74.5t-206.5 -175.5l-56 -146q148 5 279.5 47t212 111
t80.5 146q0 92 -114 92z" />
    <glyph glyph-name="f_f_l" unicode="ffl" horiz-adv-x="1798" 
d="M186 28q-77 -211 -219.5 -341.5t-322.5 -130.5q-70 0 -116 34t-46 80q0 42 26 69t68 27q28 0 53 -16t40.5 -35t38 -35t46.5 -16q54 0 98.5 31.5t94.5 121.5t101 245l260 780h-138l38 98h132l18 54q68 203 230.5 344.5t333.5 141.5q87 0 165 -38.5t115 -81.5
q173 140 344 140q144 0 230 -82l134 82l40 -18l-498 -1202q-5 -12 -14 -34q-39 -97 -40 -116q0 -28 32 -28q79 0 212 160l48 -48q-84 -109 -183 -171.5t-179 -62.5q-47 0 -76.5 24.5t-29.5 65.5q0 34 36 124l446 1092q-35 43 -93 71.5t-131 28.5q-109 0 -181 -67t-123 -207
l-64 -172h238l-38 -98h-234l-292 -794q-76 -208 -214 -340t-296 -132q-67 0 -110.5 31.5t-43.5 76.5q0 40 25 66t65 26q33 0 60.5 -22.5t53.5 -45t54 -22.5q42 0 81 31.5t88 122.5t99 242l252 760h-416zM576 1092l-56 -152h414l24 74q45 136 142 248q-35 46 -98.5 75
t-141.5 29q-106 0 -169 -65t-115 -209z" />
    <glyph glyph-name=".notdef" horiz-adv-x="2614" 
d="M2138 950q-72 -82 -168 -82q-60 0 -99 32t-39 88v286h-58v56h58v116l138 40v-156h134v-56h-134v-266q0 -31 16 -47.5t42 -16.5q34 0 78 44zM1246 1104q0 101 68.5 168.5t167.5 67.5t168.5 -67.5t69.5 -168.5t-69.5 -168.5t-168.5 -67.5t-167.5 67.5t-68.5 168.5zM900 920
v-42h-238v42q33 0 41.5 3.5t8.5 16.5v270q0 25 -22 36l-32 18v28l164 48h28v-88q69 88 158 88q64 0 99 -42t35 -108v-250q0 -13 8.5 -16.5t41.5 -3.5v-42h-236v42q33 0 41.5 3.5t8.5 16.5v222q0 90 -72 90q-48 0 -84 -36v-276q0 -14 8 -17t42 -3zM1574 1104q0 86 -23.5 133
t-68.5 47t-68.5 -47t-23.5 -133q0 -180 92 -180t92 180zM496 872q-37 0 -63.5 27t-26.5 63t26.5 63t63.5 27q36 0 62 -27t26 -63t-26 -63t-62 -27zM1032 -10h-26v84q-19 -31 -57.5 -57.5t-88.5 -26.5q-76 0 -128 64t-52 156q0 109 65.5 180.5t160.5 71.5q57 0 100 -38v154
q0 25 -22 36l-32 18v28l166 48h24v-608q0 -14 4.5 -21t17.5 -13l34 -18v-28zM1760 0v42q33 0 40.5 3t7.5 17v334h-62v56h62v18q0 99 70.5 168.5t175.5 69.5q50 0 82 -18t32 -50q0 -28 -18 -42t-42 -14q-19 0 -34 10.5t-23.5 23.5t-19.5 23.5t-23 10.5q-25 0 -43.5 -26
t-18.5 -74v-100h104v-56h-104v-334q0 -13 12.5 -16.5t65.5 -3.5v-42h-264zM1674 110q-27 -56 -80 -88t-120 -32q-94 0 -161 61.5t-67 164.5q0 102 67.5 174t164.5 72q96 0 147 -60.5t51 -151.5v-24h-296q4 -75 40.5 -116.5t95.5 -41.5q37 0 63.5 17t54.5 55zM926 74
q52 0 80 42v240q-26 50 -82 50q-47 0 -77.5 -46t-30.5 -122q0 -71 31 -117.5t79 -46.5zM1474 404q-39 0 -62.5 -33.5t-29.5 -94.5h166q-4 128 -74 128z" />
    <glyph glyph-name=".null" horiz-adv-x="0" 
 />
    <glyph glyph-name="nonmarkingreturn" horiz-adv-x="682" 
 />
    <glyph glyph-name="space" unicode=" " horiz-adv-x="440" 
 />
    <glyph glyph-name="exclam" unicode="!" horiz-adv-x="644" 
d="M304 394h-68l250 798q47 148 158 148q33 0 58 -16.5t33.5 -50.5t-19.5 -87zM322 118q0 -57 -41.5 -97.5t-100.5 -40.5t-100.5 40.5t-41.5 97.5t42 99.5t100 42.5t100 -42.5t42 -99.5z" />
    <glyph glyph-name="quotedbl" unicode="&#x22;" horiz-adv-x="796" 
d="M404 840h-56l106 406q12 47 20.5 74.5t23.5 62t30.5 53t39 31.5t52.5 13q35 0 55.5 -20.5t20.5 -51.5q0 -21 -10 -50t-18 -45.5t-28 -52t-22 -38.5zM744 840h-56l106 406q12 47 20.5 74.5t23.5 62t30.5 53t39 31.5t52.5 13q35 0 55.5 -20.5t20.5 -51.5q0 -21 -10 -50
t-18 -45.5t-28 -52t-22 -38.5z" />
    <glyph glyph-name="numbersign" unicode="#" horiz-adv-x="1290" 
d="M474 0l244 396h-320l-244 -396h-116l244 396h-208l26 98h244l204 332h-246l24 100h284l244 394h116l-244 -394h320l244 394h116l-244 -394h206l-24 -100h-244l-204 -332h246l-26 -98h-282l-244 -396h-116zM460 494h320l204 332h-320z" />
    <glyph glyph-name="dollar" unicode="$" horiz-adv-x="1086" 
d="M466 0q-40 0 -60 2l-86 -212h-102l92 228q-95 23 -169.5 68.5t-110.5 97.5l78 308h78q-17 -166 25.5 -255t140.5 -117l206 514q-59 31 -93 53t-74.5 58t-59.5 80.5t-19 100.5q0 112 64 202.5t172.5 141t237.5 50.5q34 0 50 -2l78 196h102l-84 -210q164 -34 250 -134
l-74 -282h-78q19 144 -17.5 218t-122.5 98l-182 -456q44 -23 69 -37t64 -38.5t61 -47.5t45.5 -54t34 -68.5t10.5 -80.5q0 -110 -71 -207.5t-193 -156t-262 -58.5zM472 982q0 -60 39.5 -103.5t112.5 -84.5l170 424h-34q-131 0 -209.5 -68t-78.5 -168zM816 362q0 76 -45 127.5
t-129 98.5l-194 -484h30q149 0 243.5 73t94.5 185z" />
    <glyph glyph-name="percent" unicode="%" horiz-adv-x="1774" 
d="M682 1340q101 0 172.5 -72t71.5 -194q0 -102 -57 -203t-155 -168t-206 -67q-101 0 -172.5 72t-71.5 194q0 102 57 203t155 168t206 67zM314 0h-138l1440 1320h138zM522 716q69 0 131 68t95.5 160.5t33.5 173.5q0 67 -31.5 104.5t-82.5 37.5q-69 0 -131 -68t-95.5 -160.5
t-33.5 -173.5q0 -67 31.5 -104.5t82.5 -37.5zM1248 -20q-101 0 -172.5 72t-71.5 194q0 102 57 203t155 168t206 67q101 0 172.5 -72t71.5 -194q0 -102 -57 -203t-155 -168t-206 -67zM1408 604q-69 0 -131 -68t-95.5 -160.5t-33.5 -173.5q0 -67 31.5 -104.5t82.5 -37.5
q69 0 131 68t95.5 160.5t33.5 173.5q0 67 -31.5 104.5t-82.5 37.5z" />
    <glyph glyph-name="ampersand" unicode="&#x26;" horiz-adv-x="1456" 
d="M908 0l-60 114q-207 -134 -422 -134q-157 0 -261.5 89.5t-104.5 228.5q0 86 34.5 160t97.5 129.5t142.5 97t177.5 71.5q-40 84 -40 176q0 75 31.5 148t87 131t140.5 93.5t183 35.5q132 0 207 -58t75 -152q0 -129 -115 -222.5t-363 -161.5l232 -448q91 84 147.5 177
t56.5 159q0 33 -28 47.5t-88 14.5l30 78h442l-30 -78q-104 0 -152 -26.5t-88 -109.5q-103 -197 -252 -334l16 -32q30 -59 65 -79t117 -23l96 -4l-36 -88h-338zM634 994q0 -88 54 -192q350 98 350 314q0 61 -42 95.5t-112 34.5q-108 0 -179 -74.5t-71 -177.5zM246 326
q0 -104 68 -169t192 -65q148 0 302 98l-266 506q-64 -22 -114.5 -52t-93 -73.5t-65.5 -105.5t-23 -139z" />
    <glyph glyph-name="quotesingle" unicode="'" horiz-adv-x="456" 
d="M404 840h-56l106 406q12 47 20.5 74.5t23.5 62t30.5 53t39 31.5t52.5 13q35 0 55.5 -20.5t20.5 -51.5q0 -21 -10 -50t-18 -45.5t-28 -52t-22 -38.5z" />
    <glyph glyph-name="parenleft" unicode="(" horiz-adv-x="820" 
d="M1110 1436q-244 -150 -433.5 -375.5t-290 -470.5t-100.5 -468q0 -243 128 -398l-64 -60q-105 99 -163.5 237t-58.5 303q0 240 117 486t335 459.5t500 350.5z" />
    <glyph glyph-name="parenright" unicode=")" horiz-adv-x="820" 
d="M-200 -272q244 150 433.5 375.5t290 470.5t100.5 468q0 243 -128 398l64 60q105 -99 163.5 -237t58.5 -303q0 -240 -117 -486t-335 -459.5t-500 -350.5z" />
    <glyph glyph-name="asterisk" unicode="*" horiz-adv-x="950" 
d="M720 954q-13 -78 -31.5 -114t-56.5 -36q-25 0 -43.5 17.5t-18.5 46.5q0 5 0.5 10t2.5 11l3.5 10.5t5.5 11.5t6.5 12t8.5 14.5t10 15t12 18t13 19.5l82 124l-144 -46q-11 -4 -30.5 -10.5t-30.5 -10t-24.5 -6.5t-24.5 -3q-31 0 -50.5 17t-19.5 43q0 32 21 51t61 19
q28 0 236 -14l-120 108q-35 31 -47.5 43t-25.5 31.5t-13 37.5q0 27 19 45.5t45 18.5q8 0 15.5 -1.5t14 -6t12 -8t12 -12.5t10 -14.5t10.5 -18t10 -18.5l11 -22t11 -23l68 -136l32 150q13 78 31.5 114t56.5 36q25 0 43.5 -17.5t18.5 -46.5q0 -5 -0.5 -10t-2.5 -11l-3.5 -10.5
t-5.5 -11.5t-6.5 -12t-8.5 -14.5t-10 -15t-12 -18t-13 -19.5l-84 -130l146 48q11 4 30.5 10.5t30.5 10t24.5 6.5t24.5 3q31 0 50.5 -17t19.5 -43q0 -32 -21 -51t-61 -19q-28 0 -236 14l118 -106q35 -31 47.5 -43t25.5 -31.5t13 -37.5q0 -27 -19 -45.5t-45 -18.5
q-8 0 -15.5 1.5t-14 6t-12 8t-12 12.5t-10 14.5t-10.5 18t-10 18.5l-11 22t-11 23l-68 134z" />
    <glyph glyph-name="plus" unicode="+" 
d="M1054 554h-396l-162 -400h-128l162 400h-396l48 120h396l162 400h128l-162 -400h396z" />
    <glyph glyph-name="comma" unicode="," horiz-adv-x="664" 
d="M-80 -232q120 33 183 87.5t63 114.5q0 17 -12 31t-29 25t-34 22.5t-29 31.5t-12 46q0 58 36.5 95t95.5 37q58 0 97 -43t39 -111q0 -149 -113 -263t-279 -143z" />
    <glyph glyph-name="hyphen" unicode="-" horiz-adv-x="820" 
d="M690 474h-556l54 136h556z" />
    <glyph glyph-name="period" unicode="." horiz-adv-x="664" 
d="M332 118q0 -57 -41.5 -97.5t-100.5 -40.5t-100.5 40.5t-41.5 97.5t42 99.5t100 42.5t100 -42.5t42 -99.5z" />
    <glyph glyph-name="slash" unicode="/" horiz-adv-x="842" 
d="M1170 1480l-1278 -1796h-130l1278 1796h130z" />
    <glyph glyph-name="zero" unicode="0" horiz-adv-x="1164" 
d="M118 316q0 129 41 272.5t116.5 276t172 239.5t217.5 171.5t243 64.5q134 0 214 -89t80 -247q0 -129 -41 -272.5t-116.5 -276t-172 -239.5t-217.5 -171.5t-243 -64.5q-134 0 -214 89t-80 247zM1026 1026q0 202 -158 202q-101 0 -208 -99.5t-185.5 -243.5t-129.5 -307.5
t-51 -289.5q0 -196 158 -196q101 0 208 99.5t185.5 243t129.5 305.5t51 286z" />
    <glyph glyph-name="one" unicode="1" horiz-adv-x="908" 
d="M712 108l-44 -108h-768l44 108h126q118 0 152.5 9t47.5 43l364 898h-296l44 110q88 0 150.5 6.5t104 16.5t78.5 35t60.5 47t64.5 67h84l-468 -1158q-12 -32 -12 -44q0 -18 32 -24t130 -6h106z" />
    <glyph glyph-name="two" unicode="2" horiz-adv-x="1086" 
d="M352 948l-78 48q249 344 556 344q76 0 133.5 -21.5t90.5 -58.5t48.5 -80.5t15.5 -93.5q0 -56 -20 -114.5t-51.5 -112t-83 -112t-102.5 -108t-122.5 -106t-130.5 -100t-139 -96t-135.5 -87.5t-131.5 -82v-8h408q66 0 118.5 35t155.5 145l70 -34l-212 -306h-848l34 88
q510 314 745 537t235 401q0 72 -39.5 118t-120.5 46q-108 0 -203.5 -60t-192.5 -182z" />
    <glyph glyph-name="three" unicode="3" horiz-adv-x="1036" 
d="M1094 1142q0 -58 -30 -115.5t-74.5 -102.5t-104 -87.5t-111 -70.5t-102.5 -50q120 -21 192 -83.5t72 -168.5q0 -98 -61 -189.5t-156.5 -155t-214.5 -101.5t-234 -38q-140 0 -226 48.5t-86 121.5q0 44 30.5 74t77.5 30q27 0 50 -12.5t38 -32t33.5 -41.5t36.5 -41.5t47 -32
t65 -12.5q170 0 285 93.5t115 240.5q0 208 -272 208l-4 54q238 122 338 208.5t100 183.5q0 57 -36 90.5t-108 33.5q-193 0 -374 -198l-64 60q250 284 542 284q108 0 172 -54t64 -144z" />
    <glyph glyph-name="four" unicode="4" horiz-adv-x="1228" 
d="M856 0h-532l36 88q118 0 153.5 9.5t50.5 46.5l110 274h-636l30 70l976 832h170l-324 -798h322l-42 -104h-324l-104 -258q-10 -27 -10 -42q0 -20 28.5 -25t131.5 -5zM254 522h464l248 610h-8l-704 -602v-8z" />
    <glyph glyph-name="five" unicode="5" horiz-adv-x="996" 
d="M316 82q172 0 294 107t122 271q0 236 -410 236l-32 24l320 600h582l-76 -186h-506l-150 -288q210 -11 328 -92.5t118 -235.5q0 -108 -58.5 -208.5t-151 -172t-211 -114.5t-235.5 -43q-139 0 -225.5 48.5t-86.5 121.5q0 44 30.5 74t77.5 30q27 0 50 -12.5t38 -32
t33.5 -41.5t36.5 -41.5t47 -32t65 -12.5z" />
    <glyph glyph-name="six" unicode="6" horiz-adv-x="1130" 
d="M1052 540q0 -135 -81 -265t-215.5 -212.5t-279.5 -82.5q-169 0 -265.5 109t-96.5 279q0 111 41 228.5t130 237t214.5 219.5t309.5 177.5t401 109.5v-88q-161 -34 -299.5 -95.5t-241 -141t-177 -167.5t-122.5 -186q185 160 400 160q121 0 201.5 -76.5t80.5 -205.5z
M290 340q0 -120 55 -189t147 -69q109 0 197.5 61.5t135.5 155.5t47 197q0 93 -53 150.5t-157 57.5q-159 0 -320 -104q-52 -138 -52 -260z" />
    <glyph glyph-name="seven" unicode="7" horiz-adv-x="1116" 
d="M698 1160q-46 0 -72.5 -3t-54 -12t-48 -29.5t-46 -52t-57 -82t-73.5 -117.5q-5 -8 -7 -12h-88l212 468h890l-36 -88l-994 -1232h-186v22l1000 1138h-440z" />
    <glyph glyph-name="eight" unicode="8" 
d="M992 414q0 -81 -39.5 -158.5t-108.5 -139t-173.5 -99t-224.5 -37.5q-162 0 -277 79t-115 203q0 293 458 422q-72 55 -112 112t-40 128q0 73 35.5 146.5t98 134t158.5 98t206 37.5q158 0 250 -72.5t92 -181.5q0 -126 -100 -223.5t-306 -172.5q94 -67 146 -130.5t52 -145.5
zM532 972q0 -36 15.5 -68.5t48.5 -64.5t61.5 -53.5t78.5 -55.5q302 117 302 344q0 74 -50 118t-144 44q-142 0 -227 -76.5t-85 -187.5zM230 280q0 -86 62.5 -141t161.5 -55q155 0 254.5 81t99.5 197q0 20 -4 39t-14 37.5t-18.5 33t-27 33t-29.5 29t-36 29.5t-36 27
t-40.5 28.5t-38.5 27.5q-157 -50 -245.5 -148.5t-88.5 -217.5z" />
    <glyph glyph-name="nine" unicode="9" horiz-adv-x="1130" 
d="M1170 952q0 -111 -41 -228.5t-130 -237t-214.5 -219.5t-309.5 -177.5t-401 -109.5v88q161 34 299.5 95.5t241 141t177 167.5t122.5 186q-185 -160 -400 -160q-121 0 -201.5 76.5t-80.5 205.5q0 135 81 265t215.5 212.5t279.5 82.5q169 0 265.5 -109t96.5 -279zM412 824
q0 -93 53 -150.5t157 -57.5q159 0 320 104q52 138 52 260q0 120 -55 189t-147 69q-109 0 -197.5 -61.5t-135.5 -155.5t-47 -197z" />
    <glyph glyph-name="colon" unicode=":" horiz-adv-x="664" 
d="M576 722q0 -57 -41.5 -97.5t-100.5 -40.5t-100.5 40.5t-41.5 97.5t42 99.5t100 42.5t100 -42.5t42 -99.5zM332 118q0 -57 -41.5 -97.5t-100.5 -40.5t-100.5 40.5t-41.5 97.5t42 99.5t100 42.5t100 -42.5t42 -99.5z" />
    <glyph glyph-name="semicolon" unicode=";" horiz-adv-x="664" 
d="M576 722q0 -57 -41.5 -97.5t-100.5 -40.5t-100.5 40.5t-41.5 97.5t42 99.5t100 42.5t100 -42.5t42 -99.5zM-80 -232q120 33 183 87.5t63 114.5q0 17 -12 31t-29 25t-34 22.5t-29 31.5t-12 46q0 58 36.5 95t95.5 37q58 0 97 -43t39 -111q0 -149 -113 -263t-279 -143z" />
    <glyph glyph-name="less" unicode="&#x3c;" 
d="M148 564l44 106l1076 444l-66 -164l-876 -354l592 -350l-54 -130z" />
    <glyph glyph-name="equal" unicode="=" 
d="M210 742l48 120h920l-48 -120h-920zM66 382l48 120h920l-48 -120h-920z" />
    <glyph glyph-name="greater" unicode="&#x3e;" 
d="M1090 666l-44 -106l-1076 -444l66 164l876 354l-592 350l54 130z" />
    <glyph glyph-name="question" unicode="?" horiz-adv-x="862" 
d="M442 806q195 0 320.5 58t125.5 168q0 41 -18.5 71t-51 46t-69.5 23.5t-81 7.5q-48 0 -115 -28t-101 -28q-36 0 -55 19t-19 47q0 64 70 107t180 43q157 0 255.5 -88.5t98.5 -221.5q0 -80 -33 -146t-86 -110.5t-126.5 -77.5t-148.5 -50.5t-158 -25.5l-114 -226h-78l100 342
q20 70 104 70zM356 118q0 -57 -41.5 -97.5t-100.5 -40.5t-100.5 40.5t-41.5 97.5t42 99.5t100 42.5t100 -42.5t42 -99.5z" />
    <glyph glyph-name="at" unicode="@" horiz-adv-x="1888" 
d="M1160 122q95 0 192.5 56t173.5 145.5t124 209t48 239.5q0 197 -126.5 310.5t-369.5 113.5q-148 0 -294 -53t-266 -147t-212.5 -214t-144 -261.5t-51.5 -282.5q0 -163 77.5 -284t215 -183.5t317.5 -62.5q299 0 574 156l24 -72q-116 -83 -290 -133.5t-348 -50.5
q-211 0 -372.5 70t-254.5 208.5t-93 327.5q0 129 41.5 260.5t115.5 249t180.5 221t230.5 178.5t272 118t300 43q291 0 456.5 -137t165.5 -371q0 -132 -63 -267.5t-166 -241t-246 -172.5t-291 -67q-114 0 -114 74q0 31 21.5 80t92.5 192h-10q-47 -66 -95 -122.5
t-104.5 -109.5t-115 -83.5t-109.5 -30.5q-71 0 -114.5 48t-43.5 130q0 154 95 321t242 278t287 111q59 0 100.5 -27t55.5 -69l68 96h134l-290 -634q-48 -108 -48 -134t28 -26zM734 140q48 0 128.5 68t154.5 160.5t128.5 197t54.5 170.5q0 46 -26 73t-76 27q-66 0 -143.5 -58
t-141 -145t-106.5 -196t-43 -203t70 -94z" />
    <glyph glyph-name="A" unicode="A" horiz-adv-x="1440" 
d="M356 88l-36 -88h-490l36 88q93 0 129 11t67 49l960 1182h140l-44 -1182q-1 -39 26.5 -49.5t121.5 -10.5l-36 -88h-532l36 88q100 0 138.5 5t52 19t15.5 52l20 324h-490l-260 -324q-26 -32 -26 -46q0 -20 33 -25t139 -5zM990 1134l-446 -554h420l34 554h-8z" />
    <glyph glyph-name="B" unicode="B" horiz-adv-x="1248" 
d="M406 1320h548q112 0 192.5 -23t130 -79t49.5 -142q0 -94 -62 -179t-163.5 -140t-216.5 -67v-8q116 -11 188 -72.5t72 -155.5q0 -92 -46.5 -174t-131 -144.5t-213 -99t-281.5 -36.5h-602l36 88q118 0 153.5 9t48.5 43l412 1020q12 33 12 42q0 20 -29.5 25t-132.5 5z
M528 720h156q194 0 324 99t130 247q0 162 -234 162h-170zM276 92h226q210 0 332 102.5t122 259.5q0 84 -68 129t-198 45h-198z" />
    <glyph glyph-name="C" unicode="C" horiz-adv-x="1198" 
d="M1172 906q14 326 -246 326q-108 0 -219 -71t-196.5 -184t-140 -264t-54.5 -301q0 -148 74 -227t198 -79q227 0 416 222l58 -60q-115 -140 -243.5 -214t-294.5 -74q-80 0 -151 25t-128.5 75t-91 133t-33.5 189q0 168 71 339t184.5 302.5t266.5 214t308 82.5
q177 0 262 -112l106 100h72l-152 -422h-66z" />
    <glyph glyph-name="D" unicode="D" horiz-adv-x="1388" 
d="M406 1320h462q249 0 395.5 -121.5t146.5 -318.5q0 -116 -32.5 -227t-92.5 -208.5t-150 -179.5t-200.5 -140.5t-248 -91.5t-288.5 -33h-528l36 88q118 0 153.5 9t48.5 43l412 1020q12 33 12 42q0 20 -29.5 25t-132.5 5zM276 92h150q153 0 284.5 48.5t222 129t155 185.5
t94.5 217t30 224q0 172 -92 252t-274 80h-112z" />
    <glyph glyph-name="E" unicode="E" horiz-adv-x="1264" 
d="M406 1320h1024l-146 -402h-70q16 123 12.5 192t-38.5 93.5t-128 24.5h-326l-206 -508h128q49 0 75.5 1t55 10t42.5 18.5t35.5 37t36.5 55t43 82.5h82l-202 -500h-72q28 94 28 126q0 52 -30 65t-130 13h-128l-216 -536h270q96 0 162.5 14.5t130 55.5t119.5 107.5
t128 176.5h88l-222 -446h-1082l36 88q118 0 153.5 9t48.5 43l412 1020q12 33 12 42q0 20 -29.5 25t-132.5 5z" />
    <glyph glyph-name="F" unicode="F" horiz-adv-x="1180" 
d="M1060 1228h-326l-206 -508h128q49 0 75.5 1t55 10t42.5 18.5t35.5 37t36.5 55t43 82.5h80l-202 -500h-72q30 90 30 130q0 50 -29.5 62t-130.5 12h-126l-190 -468q-12 -33 -12 -40q0 -19 26 -25.5t110 -6.5h110l-36 -88h-632l36 88q118 0 153.5 9t48.5 43l412 1020
q12 33 12 42q0 20 -29.5 25t-132.5 5l36 88h1024l-146 -402h-66q16 123 11 192t-40 93.5t-129 24.5z" />
    <glyph glyph-name="G" unicode="G" horiz-adv-x="1370" 
d="M614 88q147 0 244 68l124 308q10 28 10 42q0 20 -32.5 25t-139.5 5l36 88h548l-36 -88q-113 0 -145 -9t-45 -43l-138 -340q-133 -89 -234.5 -126.5t-229.5 -37.5q-195 0 -320.5 122t-125.5 324q0 176 73.5 345.5t191 293t272.5 199.5t311 76q89 0 165.5 -31t114.5 -81
l106 100h72l-152 -422h-66q7 153 -67 239.5t-193 86.5q-91 0 -184 -41t-172.5 -117t-142.5 -174t-99 -221.5t-36 -250.5q0 -164 76 -252t214 -88z" />
    <glyph glyph-name="H" unicode="H" horiz-adv-x="1510" 
d="M454 88l-36 -88h-548l36 88q118 0 153.5 9t48.5 43l412 1020q12 33 12 42q0 20 -29.5 25t-132.5 5l36 88h548l-36 -88q-118 0 -153.5 -9t-48.5 -43l-186 -460h652l178 440q12 33 12 42q0 20 -29 25t-133 5l36 88h548l-36 -88q-118 0 -153.5 -9t-48.5 -43l-412 -1020
q-12 -33 -12 -42q0 -20 29 -25t133 -5l-36 -88h-548l36 88q118 0 153.5 9t48.5 43l198 488h-652l-190 -468q-12 -33 -12 -42q0 -20 29 -25t133 -5z" />
    <glyph glyph-name="I" unicode="I" horiz-adv-x="670" 
d="M454 88l-36 -88h-548l36 88q118 0 153.5 9t48.5 43l412 1020q12 33 12 42q0 20 -29.5 25t-132.5 5l36 88h548l-36 -88q-118 0 -153.5 -9t-48.5 -43l-412 -1020q-12 -33 -12 -42q0 -20 29 -25t133 -5z" />
    <glyph glyph-name="J" unicode="J" horiz-adv-x="668" 
d="M714 1180l-468 -1158q-39 -97 -92.5 -179.5t-120.5 -147.5t-150.5 -102t-172.5 -37q-76 0 -122 36.5t-46 87.5q0 49 34 80.5t80 31.5q31 0 55.5 -20t37.5 -44t34.5 -44t46.5 -20q49 0 93 65t101 209l494 1222q12 33 12 42q0 20 -29 25t-133 5l36 88h548l-36 -88
q-118 0 -153.5 -9t-48.5 -43z" />
    <glyph glyph-name="K" unicode="K" horiz-adv-x="1396" 
d="M454 88l-36 -88h-548l36 88q118 0 153.5 9t48.5 43l412 1020q12 33 12 42q0 20 -29.5 25t-132.5 5l36 88h548l-36 -88q-118 0 -153.5 -9t-48.5 -43l-216 -534l710 508q36 26 36 46q0 19 -33 25.5t-125 6.5l36 88h548l-36 -88q-102 0 -145 -12.5t-95 -47.5l-580 -406
l256 -612q9 -22 22 -33t52.5 -20t113.5 -13l-36 -88h-540l36 88q88 0 124 9t36 35q0 17 -8 36l-200 496l-230 -162l-138 -342q-12 -33 -12 -42q0 -20 29 -25t133 -5z" />
    <glyph glyph-name="L" unicode="L" horiz-adv-x="1206" 
d="M912 0h-1042l36 88q118 0 153.5 9t48.5 43l412 1020q12 33 12 42q0 20 -29.5 25t-132.5 5l36 88h546l-36 -88q-82 0 -118.5 -3.5t-53.5 -14t-28 -34.5l-438 -1088h228q186 0 297.5 72.5t242.5 281.5h88z" />
    <glyph glyph-name="M" unicode="M" horiz-adv-x="1758" 
d="M406 1320h438l-56 -1024h8l782 1024h464l-36 -88q-118 0 -153.5 -9t-48.5 -43l-412 -1020q-12 -33 -12 -42q0 -20 29 -25t133 -5l-36 -88h-548l36 88q118 0 153.5 9t48.5 43l436 1078h-8l-950 -1230h-66l58 1230h-8l-428 -1058q-12 -33 -12 -42q0 -20 29 -25t133 -5
l-36 -88h-474l36 88q118 0 153.5 9t48.5 43l412 1020q12 33 12 42q0 20 -29.5 25t-132.5 5z" />
    <glyph glyph-name="N" unicode="N" horiz-adv-x="1436" 
d="M1502 1180l-482 -1196h-98l-282 1170h-8l-402 -994q-12 -33 -12 -42q0 -20 29 -25t133 -5l-36 -88h-474l36 88q118 0 153.5 9t48.5 43l412 1020q12 33 12 42q0 20 -29.5 25t-132.5 5l36 88h380l234 -1032h8l352 872q12 33 12 42q0 20 -29 25t-133 5l36 88h474l-36 -88
q-118 0 -153.5 -9t-48.5 -43z" />
    <glyph glyph-name="O" unicode="O" horiz-adv-x="1322" 
d="M940 1340q186 0 300 -118.5t114 -323.5q0 -113 -39 -240t-114 -246.5t-173 -216.5t-227 -156t-265 -59q-186 0 -300 118.5t-114 323.5q0 113 39 240t114 246.5t173 216.5t227 156t265 59zM926 1232q-115 0 -228 -78.5t-196 -201t-134.5 -277.5t-51.5 -303
q0 -284 234 -284q115 0 228 78.5t196 201t134.5 277.5t51.5 303q0 284 -234 284z" />
    <glyph glyph-name="P" unicode="P" horiz-adv-x="1236" 
d="M304 160q-12 -33 -12 -40q0 -19 26 -25.5t110 -6.5h110l-36 -88h-632l36 88q118 0 153.5 9t48.5 43l412 1020q12 33 12 42q0 20 -29.5 25t-132.5 5l36 88h540q193 0 300.5 -74.5t107.5 -201.5q0 -205 -181.5 -338.5t-476.5 -133.5h-224zM508 664h216q198 0 314 109
t116 271q0 184 -258 184h-160z" />
    <glyph glyph-name="Q" unicode="Q" horiz-adv-x="1322" 
d="M978 -328q-251 -66 -397 26t-135 290q-148 28 -236 142t-88 292q0 113 39 240t114 246.5t173 216.5t227 156t265 59q186 0 300 -118.5t114 -323.5q0 -107 -35 -226t-101.5 -232.5t-154.5 -209.5t-204 -161.5t-239 -82.5q-6 -134 90 -206t276 -36zM926 1232
q-115 0 -228 -78.5t-196 -201t-134.5 -277.5t-51.5 -303q0 -284 234 -284q115 0 228 78.5t196 201t134.5 277.5t51.5 303q0 284 -234 284z" />
    <glyph glyph-name="R" unicode="R" horiz-adv-x="1318" 
d="M452 88l-36 -88h-546l36 88q118 0 153.5 9t48.5 43l412 1020q12 33 12 42q0 20 -29.5 25t-132.5 5l36 88h546q199 0 306.5 -64.5t107.5 -193.5q0 -166 -146 -284t-374 -154l108 -430q14 -62 45.5 -79.5t116.5 -22.5l76 -4l-36 -88h-338l-116 550q-7 36 -26.5 49t-57.5 13
h-132l-184 -452q-12 -33 -12 -42q0 -20 29 -25t133 -5zM524 704h186q199 0 329.5 98.5t130.5 257.5q0 92 -62.5 130t-187.5 38h-184z" />
    <glyph glyph-name="S" unicode="S" horiz-adv-x="1100" 
d="M1238 1320l-128 -408h-70q-2 139 -73.5 229.5t-202.5 90.5q-124 0 -195 -67t-71 -169q0 -52 27 -94.5t69.5 -73t94.5 -59t104 -60.5t94.5 -69t69.5 -93.5t27 -126.5q0 -113 -70 -215t-189 -163.5t-255 -61.5q-108 0 -195 42t-137 102l-104 -124h-80l158 446h72
q0 -92 24.5 -163t66.5 -113t93.5 -63t109.5 -21q145 0 233.5 79.5t88.5 196.5q0 59 -26 106t-67.5 79t-91.5 60.5t-100 58t-91.5 64t-67.5 86.5t-26 118q0 164 127.5 285t310.5 121q93 0 176.5 -37t125.5 -91l96 108h72z" />
    <glyph glyph-name="T" unicode="T" horiz-adv-x="1412" 
d="M1284 1228h-178l-436 -1078q-8 -19 -8 -30q0 -19 33.5 -25.5t130.5 -6.5h34l-36 -88h-616l36 88h34q118 0 152.5 9t47.5 43l440 1088h-170q-46 0 -79 -4.5t-66 -21.5t-56 -34.5t-57.5 -59t-62 -79.5t-77.5 -111h-86l182 402h1208l-146 -402h-70q16 123 12.5 192
t-38.5 93.5t-128 24.5z" />
    <glyph glyph-name="U" unicode="U" horiz-adv-x="1464" 
d="M1398 1160q12 33 12 42q0 20 -29 25t-133 5l36 88h474l-36 -88q-118 0 -153.5 -9t-48.5 -43l-282 -700q-98 -242 -260.5 -371t-383.5 -129q-176 0 -284 88.5t-108 243.5q0 93 44 202l260 646q12 33 12 42q0 20 -29 25t-133 5l36 88h552l-36 -88q-118 0 -153.5 -9
t-48.5 -43l-274 -678q-42 -108 -42 -186q0 -104 67.5 -157t190.5 -53q169 0 286 98.5t198 297.5z" />
    <glyph glyph-name="V" unicode="V" horiz-adv-x="1412" 
d="M576 196h8l768 960q26 32 26 46q0 19 -35.5 24.5t-138.5 5.5l36 88h496l-36 -88q-94 0 -129 -10t-67 -50l-956 -1182h-140l68 1182q3 39 -25 49.5t-123 10.5l36 88h522l-36 -88q-52 0 -80.5 -0.5t-54 -4t-36 -7t-19 -14t-10.5 -20.5t-4 -30z" />
    <glyph glyph-name="W" unicode="W" horiz-adv-x="1954" 
d="M1190 1010l-720 -1020h-128l136 1182q4 38 -29.5 49t-120.5 11l36 88h528l-36 -88q-91 0 -131.5 -6.5t-54.5 -20.5t-18 -49l-118 -906h8l744 1070h108l-140 -1074h8l636 908q20 30 20 46q0 22 -31.5 27t-136.5 5l36 88h492l-36 -88q-93 0 -130 -11t-66 -49l-856 -1182
h-128l136 1020h-8z" />
    <glyph glyph-name="X" unicode="X" horiz-adv-x="1406" 
d="M370 88l-36 -88h-504l36 88q88 0 129.5 12t82.5 48l624 550l-164 474q-12 37 -42.5 48.5t-117.5 11.5l36 88h528l-36 -88q-113 0 -150.5 -7t-37.5 -29q0 -14 8 -38l128 -372l418 372l8 8t9.5 9t7 8t5.5 9t2 8q0 20 -34 26t-134 6l40 88h498l-36 -88q-86 0 -122.5 -11.5
t-79.5 -48.5l-550 -480l184 -540q14 -39 44 -51.5t118 -12.5l-36 -88h-528l36 88q116 0 153 6.5t37 29.5q0 10 -8 38l-152 442l-494 -442q-30 -26 -30 -42q0 -20 30.5 -26t129.5 -6z" />
    <glyph glyph-name="Y" unicode="Y" horiz-adv-x="1400" 
d="M852 88l-36 -88h-612l36 88h34q118 0 152.5 9t47.5 43l168 412l-166 620q-8 27 -18.5 38.5t-39 16.5t-90.5 5l36 88h536l-36 -88q-121 0 -163.5 -12.5t-42.5 -41.5q0 -13 6 -34l124 -494h8l532 508q28 28 28 42q0 20 -34 26t-142 6l36 88h508l-36 -88q-88 0 -119 -10.5
t-77 -49.5l-668 -624l-162 -398q-8 -19 -8 -30q0 -19 33.5 -25.5t130.5 -6.5h34z" />
    <glyph glyph-name="Z" unicode="Z" horiz-adv-x="1254" 
d="M500 1320h984l-26 -64l-1274 -1164h358q186 0 297.5 72.5t242.5 281.5h88l-222 -446h-1050l24 62l1274 1166h-394q-46 0 -79 -4.5t-66 -21.5t-56 -34.5t-57.5 -59t-62 -79.5t-77.5 -111h-86z" />
    <glyph glyph-name="bracketleft" unicode="[" horiz-adv-x="798" 
d="M412 -238l-32 -78h-498l726 1796h498l-32 -78l-226 -10q-75 -3 -104 -17.5t-48 -62.5l-590 -1460q-10 -27 -10 -40q0 -22 22.5 -30t75.5 -10z" />
    <glyph glyph-name="backslash" unicode="\" horiz-adv-x="824" 
d="M318 -316l170 1796h110l-170 -1796h-110z" />
    <glyph glyph-name="bracketright" unicode="]" horiz-adv-x="798" 
d="M476 1402l32 78h498l-726 -1796h-498l32 78l226 10q75 3 104 17.5t48 62.5l590 1460q10 27 10 40q0 22 -22.5 30t-75.5 10z" />
    <glyph glyph-name="asciicircum" unicode="^" horiz-adv-x="964" 
d="M752 1320h144l76 -580h-122l-58 470l-438 -470h-146z" />
    <glyph glyph-name="underscore" unicode="_" horiz-adv-x="964" 
d="M536 -260h-700l52 128h700z" />
    <glyph glyph-name="grave" unicode="`" horiz-adv-x="1000" 
d="M830 1400l108 -296l-48 -26l-210 250q-45 54 -17 106q22 41 67 46q57 6 90 -58q6 -10 10 -22z" />
    <glyph glyph-name="a" unicode="a" horiz-adv-x="1110" 
d="M680 362h-8q-50 -71 -105 -135t-118 -121.5t-128 -91.5t-121 -34q-77 0 -123.5 53t-46.5 143q0 128 63.5 269.5t161 254t222 186.5t237.5 74q66 0 111 -29.5t61 -76.5l76 106h130l-312 -680q-52 -116 -52 -148q0 -28 32 -28q79 0 210 158l48 -48q-84 -109 -187 -171.5
t-189 -62.5q-39 0 -63.5 20.5t-24.5 59.5q0 34 25 92.5t101 209.5zM280 98q53 0 144.5 76.5t176.5 180.5t148 221t63 190q0 51 -29.5 81.5t-86.5 30.5q-99 0 -216.5 -106.5t-198.5 -265.5t-81 -298q0 -53 21 -81.5t59 -28.5z" />
    <glyph glyph-name="b" unicode="b" horiz-adv-x="1076" 
d="M88 266l400 970q22 57 22 82q0 22 -28.5 38.5t-139.5 57.5l16 48l360 38l40 -18l-412 -948h8q52 75 111 145t128.5 136t143.5 105.5t137 39.5q81 0 128.5 -55.5t47.5 -152.5q0 -116 -66 -252t-170.5 -251t-248 -192t-285.5 -77q-99 0 -158.5 46.5t-59.5 121.5
q0 53 26 118zM778 824q-67 0 -163 -79.5t-177.5 -186.5t-139.5 -219.5t-58 -174.5q0 -96 96 -96q79 0 160 43.5t145.5 113.5t116 154.5t80 171t28.5 157.5q0 59 -21 87.5t-67 28.5z" />
    <glyph glyph-name="c" unicode="c" horiz-adv-x="828" 
d="M604 874q-84 0 -176 -99t-152 -242t-60 -265q0 -90 32.5 -137t91.5 -47q136 0 304 194l56 -52q-94 -117 -199.5 -181.5t-200.5 -64.5q-118 0 -185 73.5t-67 212.5q0 111 52.5 235.5t135 225t192 167t214.5 66.5q95 0 147.5 -45.5t52.5 -116.5q0 -50 -28.5 -83t-71.5 -33
q-35 0 -54.5 20t-25.5 48t-10 56t-15 48t-33 20z" />
    <glyph glyph-name="d" unicode="d" horiz-adv-x="1146" 
d="M672 -20q-39 0 -63.5 22.5t-24.5 61.5q0 37 23.5 101.5t88.5 202.5h-8q-290 -388 -480 -388q-78 0 -127 53.5t-49 142.5q0 132 64.5 275t163.5 254t224 183t238 72q62 0 107.5 -28t60.5 -66l150 370q22 57 22 82q0 22 -28.5 38.5t-139.5 57.5l16 48l356 38l40 -18
l-498 -1202q-32 -77 -41 -103t-9 -45q0 -28 32 -28q79 0 210 158l48 -48q-84 -109 -187 -171.5t-189 -62.5zM290 98q71 0 202.5 125.5t235.5 286t104 250.5q0 57 -32.5 87.5t-95.5 30.5q-101 0 -220 -106.5t-200.5 -265.5t-81.5 -298q0 -53 23.5 -81.5t64.5 -28.5z" />
    <glyph glyph-name="e" unicode="e" horiz-adv-x="860" 
d="M738 244q-90 -113 -214.5 -188.5t-245.5 -75.5q-107 0 -173.5 63.5t-66.5 178.5q0 86 33 186.5t95 197t141.5 176.5t182.5 129t208 49q77 0 126.5 -39.5t49.5 -108.5q0 -68 -43 -131t-110.5 -110t-156 -86.5t-173.5 -65t-169 -41.5q-14 -56 -14 -114q0 -81 38.5 -121.5
t107.5 -40.5q159 0 330 192zM618 866q-102 0 -210.5 -125t-163.5 -287q127 30 230 77.5t167.5 113t64.5 135.5q0 86 -88 86z" />
    <glyph glyph-name="f" unicode="f" horiz-adv-x="600" 
d="M186 28q-77 -211 -219.5 -341.5t-322.5 -130.5q-70 0 -116 34t-46 80q0 42 26 69t68 27q28 0 53 -16t40.5 -35t38 -35t46.5 -16q54 0 98.5 32.5t94 122t101.5 243.5l258 780h-136l38 98h130l30 88q67 199 233.5 335.5t356.5 136.5q85 0 134.5 -33.5t49.5 -82.5
q0 -44 -29 -70t-71 -26q-24 0 -48.5 15.5t-42 33.5t-46.5 33.5t-63 15.5q-87 0 -147 -63.5t-109 -198.5l-68 -184h238l-38 -98h-234z" />
    <glyph glyph-name="g" unicode="g" horiz-adv-x="1028" 
d="M776 -94q0 -60 -38 -121.5t-105.5 -112.5t-173 -83.5t-229.5 -32.5q-197 0 -323.5 75.5t-126.5 182.5q0 213 400 268q-68 42 -68 104q0 61 47.5 102.5t134.5 75.5q-49 35 -76.5 88.5t-27.5 115.5q0 70 33 140t88.5 126t136.5 91t170 35q72 0 130 -33.5t90 -90.5
q122 142 216 142q47 0 77.5 -26.5t30.5 -73.5q0 -51 -31 -85.5t-71 -34.5q-26 0 -45 12t-27 26t-18.5 26t-21.5 12q-35 0 -88 -50q10 -40 10 -72q0 -70 -33 -140t-88.5 -126t-136.5 -91t-170 -35q-48 0 -96 16q-56 -26 -81 -46.5t-25 -45.5q0 -28 39 -49t177 -59
q182 -51 251 -95.5t69 -134.5zM610 884q-70 0 -133 -58.5t-98 -141.5t-35 -160q0 -59 29.5 -93.5t76.5 -34.5q70 0 133 58.5t98 141.5t35 160q0 59 -29.5 93.5t-76.5 34.5zM-70 -172q0 -82 89 -132t219 -50q174 0 273 55t99 143q0 52 -53 85t-187 77l-114 38
q-129 -12 -227.5 -69.5t-98.5 -146.5z" />
    <glyph glyph-name="h" unicode="h" horiz-adv-x="1158" 
d="M772 1482l-400 -940h8q147 190 298 304t266 114q58 0 89 -29.5t31 -82.5q0 -54 -36 -136l-200 -432q-55 -119 -59 -136q-1 -7 -1 -14q0 -28 32 -28q83 0 216 160l48 -48q-83 -108 -186 -171t-184 -63q-47 0 -76.5 24.5t-29.5 65.5q0 47 36 124l170 380q32 71 44.5 100
t23 62t10.5 52q0 44 -44 44q-59 0 -174 -94.5t-217 -216.5t-135 -201l-132 -320h-170l506 1236q22 57 22 82q0 22 -28.5 38.5t-139.5 57.5l16 48l356 38z" />
    <glyph glyph-name="i" unicode="i" horiz-adv-x="636" 
d="M460 1294q0 52 37 89t89 37t89 -37t37 -89t-37 -89t-89 -37t-89 37t-37 89zM590 932l-286 -652q-38 -85 -47 -109t-9 -41q0 -28 32 -28q83 0 216 160l48 -48q-83 -108 -185 -171t-183 -63q-47 0 -76.5 24.5t-29.5 65.5t36 124l208 492q22 52 22 84q0 14 -10 24t-45.5 26
t-112.5 44l16 48l364 38z" />
    <glyph glyph-name="j" unicode="j" horiz-adv-x="588" 
d="M494 1294q0 52 37 89t89 37t89 -37t37 -89t-37 -89t-89 -37t-89 37t-37 89zM608 932l-386 -904q-44 -103 -98.5 -186t-121.5 -148.5t-149.5 -101.5t-172.5 -36q-70 0 -116 34t-46 82q0 42 26 68t68 26q28 0 53 -16t40.5 -35t38 -35t46.5 -16q75 0 138.5 87.5t155.5 310.5
l254 624q22 52 22 84q-1 15 -11 25t-44 25t-113 44l16 48l358 38z" />
    <glyph glyph-name="k" unicode="k" horiz-adv-x="1140" 
d="M1026 232q-97 -121 -200 -186.5t-182 -65.5q-48 0 -78.5 36.5t-37.5 107.5l-24 272q-115 -18 -188 -18l-144 -378h-170l506 1236q22 57 22 82q0 22 -28.5 38.5t-139.5 57.5l16 48l356 38l40 -18l-332 -770h8q66 59 112 95.5t106.5 75.5t120 58t119.5 19q74 0 122 -44
t48 -114q0 -84 -63.5 -159.5t-162 -129t-222.5 -87.5l46 -258q7 -37 20.5 -52.5t37.5 -15.5q87 0 244 180zM798 838q-81 0 -199 -76t-203 -174l-56 -146q148 5 279.5 47t212 111t80.5 146q0 92 -114 92z" />
    <glyph glyph-name="l" unicode="l" horiz-adv-x="610" 
d="M770 1482l-498 -1202q-5 -12 -14 -34q-39 -97 -40 -116q0 -28 32 -28q79 0 212 160l48 -48q-84 -109 -183 -171.5t-179 -62.5q-47 0 -76.5 24.5t-29.5 65.5q0 34 36 124l426 1042q22 57 22 82q0 22 -28.5 38.5t-139.5 57.5l16 48l356 38z" />
    <glyph glyph-name="m" unicode="m" horiz-adv-x="1692" 
d="M928 542h8q83 107 172 196.5t192 155.5t180 66q57 0 88.5 -29.5t31.5 -80.5q0 -56 -36 -138l-200 -432q-55 -119 -59 -136q-1 -7 -1 -14q0 -28 32 -28q83 0 216 160l48 -48q-83 -108 -186 -171t-184 -63q-47 0 -76.5 24.5t-29.5 65.5q0 47 36 124l172 380q76 164 76 214
q0 44 -44 44q-58 0 -168 -94.5t-207 -216t-131 -201.5l-132 -320h-170l242 574q6 13 15 34.5t13.5 32.5t11.5 28.5t10.5 27t8.5 22.5t7.5 21.5t5 17.5t3.5 16.5t1 13.5q0 44 -44 44q-58 0 -168 -94.5t-207 -216t-131 -201.5l-132 -320h-170l288 686q22 52 22 84q0 14 -10 24
t-45.5 26t-112.5 44l16 48l334 38l42 -18l-162 -390h8q84 108 171 197t188 155t177 66q108 0 108 -102q0 -66 -118 -316z" />
    <glyph glyph-name="n" unicode="n" horiz-adv-x="1178" 
d="M556 932l-162 -390h8q147 190 298 304t266 114q58 0 89 -29.5t31 -82.5q0 -57 -36 -136l-200 -432q-55 -119 -59 -136q-1 -7 -1 -14q0 -28 32 -28q83 0 216 160l48 -48q-83 -108 -186 -171t-184 -63q-47 0 -76.5 24.5t-29.5 65.5q0 47 36 124l174 388q43 97 58.5 137.5
t15.5 68.5q0 44 -44 44q-59 0 -174 -94.5t-217 -216.5t-135 -201l-132 -320h-170l288 686q22 52 22 84q0 14 -10 24t-45.5 26t-112.5 44l16 48l334 38z" />
    <glyph glyph-name="o" unicode="o" horiz-adv-x="956" 
d="M330 -20q-120 0 -197 89.5t-77 228.5q0 86 30.5 180t85.5 178.5t125 153.5t156.5 109.5t172.5 40.5q120 0 197 -89.5t77 -228.5q0 -86 -30.5 -180t-85.5 -178.5t-125 -153.5t-156.5 -109.5t-172.5 -40.5zM624 872q-96 0 -193.5 -103.5t-158 -253t-60.5 -283.5
q0 -164 120 -164q96 0 193.5 103.5t158 253t60.5 283.5q0 164 -120 164z" />
    <glyph glyph-name="p" unicode="p" horiz-adv-x="1132" 
d="M-76 -300l394 986q22 52 22 84q0 14 -10 24t-45.5 26t-112.5 44l16 48l334 38l42 -18l-168 -398h8q52 75 111 145t128.5 136t143.5 105.5t137 39.5q83 0 129.5 -54t46.5 -160q0 -90 -37.5 -196t-106.5 -205.5t-156 -182t-197 -132.5t-219 -50q-97 0 -158 58l-132 -334
q-9 -24 7 -31q27 -11 207 -11l-34 -86h-528l34 86q89 0 112 6t32 32zM834 822q-67 0 -164.5 -79t-180.5 -186t-143 -219.5t-60 -175.5q0 -45 33 -69.5t85 -24.5q84 0 166 43.5t144 113.5t110 154t73 169t25 154q0 62 -21 91t-67 29z" />
    <glyph glyph-name="q" unicode="q" horiz-adv-x="1052" 
d="M888 854l76 106h134l-530 -1260q-9 -24 6 -31q18 -7 110 -7l-34 -86h-532l34 86q116 0 161 3t60.5 10.5t24.5 28.5l302 668h-8q-54 -74 -109.5 -137.5t-120 -124t-131.5 -95.5t-125 -35q-78 0 -126 53.5t-48 142.5q0 132 64.5 275t163.5 254t224 183t238 72q66 0 108 -29
t58 -77zM290 98q71 0 202.5 125.5t235.5 286t104 250.5q0 57 -32.5 87.5t-95.5 30.5q-101 0 -220 -106.5t-200.5 -265.5t-81.5 -298q0 -53 23.5 -81.5t64.5 -28.5z" />
    <glyph glyph-name="r" unicode="r" horiz-adv-x="890" 
d="M556 932l-188 -438h8q5 8 17 24q38 54 59.5 83.5t62 83.5t68 85.5t66.5 72.5t69.5 63t64.5 38t63 16q55 0 80.5 -34t25.5 -84q0 -61 -39.5 -106.5t-88.5 -45.5q-28 0 -43 14t-18 30t-12 30t-25 14q-62 0 -193.5 -162t-230.5 -348l-110 -268h-170l288 686q22 52 22 84
q0 14 -10 24t-45.5 26t-112.5 44l16 48l334 38z" />
    <glyph glyph-name="s" unicode="s" horiz-adv-x="758" 
d="M580 288q0 -130 -97.5 -219t-252.5 -89q-110 0 -187 53.5t-77 120.5q0 38 23 63t65 25q32 0 52.5 -19t32.5 -46t26 -54t43 -46t74 -19q70 0 111 41t41 107q0 48 -21.5 95.5t-52.5 88.5t-62 83t-52.5 94t-21.5 105q0 114 91 201t225 87q108 0 165 -49.5t57 -114.5
q0 -34 -22 -58t-62 -24q-27 0 -46.5 16t-32 39t-25.5 46t-36 39t-56 16q-53 0 -84.5 -36.5t-31.5 -91.5q0 -37 22 -82t53.5 -89t63 -89t53.5 -96.5t22 -97.5z" />
    <glyph glyph-name="t" unicode="t" horiz-adv-x="730" 
d="M622 282q-90 -117 -227 -209.5t-239 -92.5q-42 0 -70 24.5t-28 65.5q0 44 32 124l266 648h-152l38 98h154l104 256l148 38h30l-120 -294h242l-38 -98h-244l-228 -554q-50 -119 -50 -146q0 -30 32 -30q47 0 141 68.5t161 149.5z" />
    <glyph glyph-name="u" unicode="u" horiz-adv-x="1162" 
d="M586 932l-258 -574q-25 -56 -33.5 -76t-22 -53.5t-18 -51t-4.5 -31.5q0 -44 44 -44q58 0 170.5 96t211.5 219t132 203l136 320h168l-280 -660q-34 -78 -43 -103.5t-9 -44.5q0 -28 32 -28q79 0 210 158l48 -48q-84 -109 -187 -171.5t-189 -62.5q-39 0 -63.5 20.5
t-24.5 59.5q0 38 31 112.5t107 231.5h-8q-77 -106 -169.5 -199t-197 -159t-183.5 -66q-58 0 -89 30t-31 82q0 50 38 136l208 458q20 45 20 80q0 22 -29 40.5t-137 57.5l16 48l362 38z" />
    <glyph glyph-name="v" unicode="v" horiz-adv-x="994" 
d="M488 932q-15 -168 -78 -398t-126 -398h8q163 110 322.5 270t181.5 238q12 41 16 78.5t2.5 61t1.5 58.5q5 50 35 84t75 34q46 0 70 -32t24 -84q0 -109 -120 -266.5t-302 -310.5t-388 -279h-100q190 651 190 776q0 25 -29.5 41t-150.5 59l16 48l310 38z" />
    <glyph glyph-name="w" unicode="w" horiz-adv-x="1462" 
d="M814 660h-8q-97 -165 -275.5 -366.5t-324.5 -305.5h-96q190 651 190 776q0 25 -29.5 41t-150.5 59l16 48l310 38l42 -18q-13 -156 -72.5 -370.5t-125.5 -401.5h8q115 97 309 355t281 425h116q-19 -183 -73.5 -407t-108.5 -379h8q161 107 296.5 267t151.5 249q7 29 4.5 86
t-0.5 82q3 49 36 85.5t78 36.5q47 0 73 -33.5t23 -82.5q-10 -111 -114.5 -265.5t-276 -312.5t-367.5 -278h-94q37 107 93.5 322.5t80.5 349.5z" />
    <glyph glyph-name="x" unicode="x" horiz-adv-x="1064" 
d="M988 220q-194 -240 -354 -240q-97 0 -118 144l-40 252l-176 -224q-64 -83 -122.5 -127.5t-127.5 -44.5q-59 0 -96.5 34t-37.5 88q0 46 29 75t71 29q29 0 47 -14.5t24 -31.5t16.5 -31.5t26.5 -14.5q51 0 128 100l204 256l-46 296q-4 26 -31.5 39.5t-154.5 58.5l16 48
l262 38l42 -18l50 -338l154 202q64 83 121 123.5t123 40.5q61 0 93.5 -31.5t32.5 -82.5q0 -45 -31.5 -74.5t-68.5 -29.5q-21 0 -37 12.5t-23.5 27.5t-21 27.5t-30.5 12.5q-20 0 -42.5 -17.5t-61.5 -62.5l-196 -228l52 -346q6 -37 19.5 -52.5t38.5 -15.5q40 0 88.5 37
t129.5 131z" />
    <glyph glyph-name="y" unicode="y" horiz-adv-x="988" 
d="M978 822q0 -93 -65.5 -226.5t-171.5 -272.5t-246 -278t-282 -246.5t-286 -175t-253 -67.5q-57 0 -96.5 29.5t-39.5 76.5q0 50 32 81t74 31q41 0 97 -39t85 -39q70 0 174.5 58t223.5 156q33 223 53 474.5t15 385.5q-1 21 -31 36.5t-149 57.5l16 48l298 38l42 -18
q8 -366 -92 -878h6q173 168 290.5 337t117.5 263q0 45 -6 100.5t-6 83.5q0 48 28 85t74 37q98 0 98 -138z" />
    <glyph glyph-name="z" unicode="z" horiz-adv-x="1020" 
d="M820 790v8h-286q-103 0 -155.5 -29.5t-110.5 -128.5h-70l134 300h720l-52 -126l-746 -560q124 -48 201 -71t108 -27t75 -4q55 0 106.5 44t111.5 142l58 -32q-168 -326 -350 -326q-42 0 -103.5 29t-113.5 63t-109 63t-90 29q-27 0 -36.5 -20.5t-9.5 -71.5q0 -37 -20 -59.5
t-54 -22.5q-30 0 -50 19t-20 49q0 47 42.5 92t149.5 128z" />
    <glyph glyph-name="braceleft" unicode="{" horiz-adv-x="872" 
d="M122 574l20 52q115 16 194 70t122 160l112 276q79 194 230 281t388 87l-30 -70q-72 -5 -130 -20.5t-115.5 -49t-104.5 -93t-82 -145.5l-104 -258q-80 -202 -344 -272q74 -25 114 -61t40 -95q0 -43 -39.5 -140t-79 -201t-39.5 -163q0 -80 53 -118.5t161 -43.5l-28 -70
q-156 0 -244 66.5t-88 183.5q0 62 38 163.5t76 194t38 132.5q0 111 -158 134z" />
    <glyph glyph-name="bar" unicode="|" horiz-adv-x="594" 
d="M762 1480l-726 -1796h-114l726 1796h114z" />
    <glyph glyph-name="braceright" unicode="}" horiz-adv-x="872" 
d="M862 646l-20 -52q-115 -16 -194 -70t-122 -160l-112 -276q-79 -194 -230 -281t-388 -87l30 70q72 5 130 20.5t115.5 49t104.5 93t82 145.5l104 258q80 202 344 272q-74 25 -114 61t-40 95q0 43 39.5 140t79 201t39.5 163q0 80 -53 118.5t-161 43.5l28 70q156 0 244 -66.5
t88 -183.5q0 -62 -38 -163.5t-76 -194t-38 -132.5q0 -111 158 -134z" />
    <glyph glyph-name="asciitilde" unicode="~" horiz-adv-x="1044" 
d="M436 716q42 0 88 -19t79 -42t76 -42t79 -19q92 0 176 126l68 -28q-66 -127 -137.5 -186.5t-164.5 -59.5q-42 0 -88 19t-80 42t-77 42t-79 19q-92 0 -176 -126l-68 28q65 126 138 186t166 60z" />
    <glyph glyph-name="uni00A0" unicode="&#xa0;" horiz-adv-x="440" 
 />
    <glyph glyph-name="exclamdown" unicode="&#xa1;" horiz-adv-x="644" 
d="M474 1202q0 57 41.5 97.5t100.5 40.5t100.5 -40.5t41.5 -97.5t-42 -99.5t-100 -42.5t-100 42.5t-42 99.5zM492 926h68l-250 -798q-47 -148 -158 -148q-33 0 -58 16.5t-33.5 50.5t19.5 87z" />
    <glyph glyph-name="cent" unicode="&#xa2;" horiz-adv-x="970" 
d="M792 230q-100 -115 -212.5 -181t-213.5 -69l-76 -190h-102l82 202q-94 25 -148 99t-54 187q0 152 80.5 303.5t219.5 259t296 127.5l82 204h102l-82 -202q92 -9 150 -55.5t58 -110.5q0 -49 -31 -79.5t-77 -30.5q-34 0 -53.5 23.5t-25.5 53.5t-20.5 61.5t-38.5 43.5
l-316 -786q148 6 320 192zM234 280q0 -129 82 -170l312 768q-100 -24 -192 -119.5t-147 -225.5t-55 -253z" />
    <glyph glyph-name="sterling" unicode="&#xa3;" horiz-adv-x="1258" 
d="M1174 332q-75 -167 -186.5 -259.5t-247.5 -92.5q-40 0 -78.5 9.5t-63 18t-63 34.5t-50.5 34.5t-54 45t-47 40.5q-150 -182 -320 -182q-76 0 -122 40.5t-46 105.5q0 94 76.5 159t193.5 65q85 0 186 -42q24 55 46 126q25 95 42 194h-224l36 92h204q18 95 38 164
q56 196 217 326t355 130q139 0 207.5 -54.5t68.5 -127.5q0 -55 -33 -86.5t-83 -31.5q-36 0 -58 21.5t-32.5 52t-21.5 61t-35.5 52t-64.5 21.5q-107 0 -190.5 -96.5t-131.5 -265.5l-46 -166h300l-36 -92h-292q-69 -216 -164 -368q64 -30 104.5 -46.5t109.5 -32t138 -15.5
q98 0 165.5 42.5t130.5 149.5zM6 140q0 -32 18.5 -51t49.5 -19q128 0 228 150q-68 42 -148 42q-65 0 -106.5 -31.5t-41.5 -90.5z" />
    <glyph glyph-name="yen" unicode="&#xa5;" horiz-adv-x="1312" 
d="M798 88l-36 -88h-600l36 88h34q118 0 153.5 9t48.5 43l132 324h-380l36 92h380l30 72l-32 110h-308l38 92h242l-98 342q-8 29 -18.5 40t-37 15.5t-90.5 4.5l36 88h528l-36 -88q-91 0 -136.5 -5.5t-60.5 -17t-15 -33.5q0 -13 8 -42l126 -412h8l444 422q44 44 44 58
q0 17 -39.5 23.5t-138.5 6.5l36 88h504l-36 -88q-91 0 -122.5 -9.5t-75.5 -50.5l-374 -342h234l-38 -92h-296l-126 -116l-28 -66h380l-36 -92h-380l-128 -314q-10 -23 -10 -32q0 -19 33 -24.5t131 -5.5h34z" />
    <glyph glyph-name="section" unicode="&#xa7;" horiz-adv-x="1122" 
d="M718 -28q0 -171 -139 -293.5t-341 -122.5q-139 0 -235.5 69.5t-96.5 170.5q0 61 36.5 104.5t97.5 43.5q39 0 65.5 -24.5t26.5 -61.5q0 -27 -10.5 -46.5t-23.5 -28t-23.5 -20t-10.5 -25.5q0 -44 53.5 -72t126.5 -28q144 0 231 79t87 187q0 85 -92 180l-220 234
q-90 97 -90 206q0 92 66.5 169t179.5 133q-20 50 -20 98q0 171 139 293.5t341 122.5q139 0 235.5 -69.5t96.5 -170.5q0 -61 -36.5 -104.5t-97.5 -43.5q-39 0 -65.5 24.5t-26.5 61.5q0 27 10.5 46.5t23.5 28t23.5 20t10.5 25.5q0 44 -53.5 72t-126.5 28q-144 0 -231 -79
t-87 -187q0 -85 92 -180l220 -234q90 -97 90 -206q0 -92 -66.5 -169t-179.5 -133q20 -50 20 -98zM612 196q44 -52 62 -80q126 79 126 190q0 58 -64 128l-244 266q-44 52 -62 80q-126 -79 -126 -190q0 -58 64 -128z" />
    <glyph glyph-name="dieresis" unicode="&#xa8;" horiz-adv-x="998" 
d="M514 1252q0 48 35.5 83t84.5 35q48 0 84 -35t36 -83q0 -51 -35.5 -85.5t-84.5 -34.5q-50 0 -85 34t-35 86zM872 1252q0 48 36 83t84 35q49 0 84.5 -35t35.5 -83q0 -52 -35 -86t-85 -34q-49 0 -84.5 34.5t-35.5 85.5z" />
    <glyph glyph-name="copyright" unicode="&#xa9;" horiz-adv-x="1770" 
d="M962 1340q182 0 337 -92t245 -248.5t90 -339.5t-90 -339.5t-245 -248.5t-337 -92t-337 92t-245 248.5t-90 339.5t90 339.5t245 248.5t337 92zM962 54q121 0 231.5 48.5t190 130t127 193.5t47.5 234t-47.5 234t-127 193.5t-190 130t-231.5 48.5t-231.5 -48.5t-190 -130
t-127 -193.5t-47.5 -234t47.5 -234t127 -193.5t190 -130t231.5 -48.5zM1212 792q-92 206 -230 206q-101 0 -162.5 -87.5t-61.5 -242.5q0 -143 65.5 -229.5t168.5 -86.5q140 0 222 130l54 -38q-45 -82 -123 -130t-179 -48q-155 0 -266.5 109.5t-111.5 282.5q0 121 56 216
t144 144.5t188 49.5q104 0 184 -68l38 60h48l12 -268h-46z" />
    <glyph glyph-name="ordfeminine" unicode="&#xaa;" horiz-adv-x="904" 
d="M728 888h-6q-85 -119 -178.5 -200.5t-175.5 -81.5q-58 0 -93 39.5t-35 106.5q0 125 78 262t198.5 228.5t233.5 91.5q49 0 84 -23t46 -59l56 78h122l-226 -502q-34 -78 -34 -96q0 -22 24 -22q58 0 156 120l36 -36q-64 -84 -146 -136t-154 -52q-35 0 -54.5 16.5t-19.5 47.5
q0 27 18 71t70 147zM454 712q49 0 139.5 89.5t162.5 205t72 181.5q0 37 -20.5 58.5t-59.5 21.5q-69 0 -152 -77.5t-140.5 -191.5t-57.5 -211q0 -76 56 -76zM140 378l36 88h534l-36 -88h-534z" />
    <glyph glyph-name="guillemotleft" unicode="&#xab;" horiz-adv-x="996" 
d="M86 458l8 20l472 380h98l-388 -412l72 -368h-74zM486 458l8 20l472 380h98l-388 -412l72 -368h-74z" />
    <glyph glyph-name="registered" unicode="&#xae;" horiz-adv-x="1298" 
d="M818 436q-197 0 -324.5 131t-127.5 321t127.5 321t324.5 131t324.5 -131t127.5 -321t-127.5 -321t-324.5 -131zM818 1268q-164 0 -271 -110t-107 -270t107 -270t271 -110t271 110t107 270t-107 270t-271 110zM798 724v-44h-210v44h66v342h-66v44h214q85 0 136.5 -31
t51.5 -93q0 -42 -29.5 -70.5t-78.5 -41.5l88 -112q18 -23 36.5 -32.5t57.5 -15.5v-34h-140l-126 184h-52v-140h52zM746 1066v-164h46q108 0 108 84q0 39 -29.5 59.5t-78.5 20.5h-46z" />
    <glyph glyph-name="macron" unicode="&#xaf;" horiz-adv-x="1000" 
d="M530 1172l46 116h508l-46 -116h-508z" />
    <glyph glyph-name="degree" unicode="&#xb0;" horiz-adv-x="746" 
d="M664 1340q109 0 177.5 -73.5t68.5 -180.5q0 -92 -50 -180.5t-139.5 -146t-192.5 -57.5q-109 0 -177.5 73.5t-68.5 180.5q0 92 50 180.5t139.5 146t192.5 57.5zM654 1234q-108 0 -181 -82t-73 -196q0 -60 37.5 -104t100.5 -44q108 0 181 82t73 196q0 60 -37.5 104
t-100.5 44z" />
    <glyph glyph-name="twosuperior" unicode="&#xb2;" horiz-adv-x="770" 
d="M412 1088l-50 32q77 103 166 156.5t180 53.5q86 0 130 -42.5t44 -105.5q0 -40 -17.5 -82t-43 -78t-70 -78t-82 -72t-98 -71t-98 -65t-99.5 -62v-4h220q39 0 64.5 18.5t89.5 87.5l44 -18l-138 -214h-518l24 58q302 193 432 313t130 213q0 38 -24.5 61t-73.5 23
q-58 0 -108 -30t-104 -94z" />
    <glyph glyph-name="threesuperior" unicode="&#xb3;" horiz-adv-x="742" 
d="M864 1214q0 -134 -242 -238q68 -12 111 -47.5t43 -98.5q0 -83 -66 -154t-159.5 -108.5t-184.5 -37.5q-84 0 -136 30.5t-52 79.5q0 29 20.5 48.5t51.5 19.5q25 0 43.5 -17.5t29.5 -38.5t32 -38.5t49 -17.5q85 0 150.5 57.5t65.5 140.5q0 116 -156 116v42q126 63 181 108
t55 98q0 62 -76 62q-90 0 -188 -98l-40 40q147 168 320 168q68 0 108 -32t40 -84z" />
    <glyph glyph-name="acute" unicode="&#xb4;" horiz-adv-x="1000" 
d="M840 1414q43 66 98 66q35 0 55.5 -19.5t20.5 -56.5q0 -49 -52 -92l-282 -234l-36 30z" />
    <glyph glyph-name="paragraph" unicode="&#xb6;" horiz-adv-x="1378" 
d="M1546 1232q-118 0 -153.5 -9t-48.5 -43l-648 -1604h-116l666 1648h-186l-666 -1648h-116l388 960q-74 8 -143 33.5t-126.5 67.5t-92 106.5t-34.5 140.5q0 109 53 194t146 137t213 78.5t260 26.5h638z" />
    <glyph glyph-name="periodcentered" unicode="&#xb7;" horiz-adv-x="568" 
d="M450 530q0 -57 -41.5 -97.5t-100.5 -40.5t-100.5 40.5t-41.5 97.5t42 99.5t100 42.5t100 -42.5t42 -99.5z" />
    <glyph glyph-name="cedilla" unicode="&#xb8;" horiz-adv-x="1000" 
d="M-2 -444l28 70q113 -19 184.5 14t71.5 90q0 40 -41.5 59t-122.5 25l136 202h72l-72 -106q74 -9 118 -43.5t44 -90.5q0 -114 -121.5 -183.5t-296.5 -36.5z" />
    <glyph glyph-name="onesuperior" unicode="&#xb9;" horiz-adv-x="676" 
d="M666 616l-30 -72h-506l30 72h74q69 0 89 5.5t29 26.5l202 498h-174l30 74q115 0 183 25t125 85h60l-272 -672q-6 -15 -6 -24q0 -11 19.5 -14.5t76.5 -3.5h70z" />
    <glyph glyph-name="ordmasculine" unicode="&#xba;" horiz-adv-x="790" 
d="M488 606q-97 0 -159.5 69t-62.5 177q0 80 35 165.5t92.5 155.5t139.5 115.5t169 45.5q98 0 161 -69t63 -177q0 -80 -35.5 -165.5t-93 -155.5t-140 -115.5t-169.5 -45.5zM494 676q68 0 136.5 77.5t110 186.5t41.5 204q0 120 -86 120q-68 0 -136 -78t-109 -187.5
t-41 -204.5q0 -118 84 -118zM98 378l36 88h534l-36 -88h-534z" />
    <glyph glyph-name="guillemotright" unicode="&#xbb;" horiz-adv-x="996" 
d="M910 478l-8 -20l-472 -380h-98l388 412l-72 368h74zM510 478l-8 -20l-472 -380h-98l388 412l-72 368h74z" />
    <glyph glyph-name="onequarter" unicode="&#xbc;" horiz-adv-x="1854" 
d="M666 616l-30 -72h-506l30 72h74q69 0 89 5.5t29 26.5l202 498h-174l30 74q115 0 183 25t125 85h60l-272 -672q-6 -15 -6 -24q0 -11 19.5 -14.5t76.5 -3.5h70zM372 0h-138l1440 1320h138zM1484 0h-354l22 54q69 0 90 5.5t30 26.5l64 156h-364l24 62l584 472h114l-188 -464
h202l-28 -70h-202l-56 -140q-10 -23 -10 -30q0 -12 17.5 -15t76.5 -3zM1114 312h250l122 302h-4l-368 -298v-4z" />
    <glyph glyph-name="onehalf" unicode="&#xbd;" horiz-adv-x="1876" 
d="M666 616l-30 -72h-506l30 72h74q69 0 89 5.5t29 26.5l202 498h-174l30 74q115 0 183 25t125 85h60l-272 -672q-6 -15 -6 -24q0 -11 19.5 -14.5t76.5 -3.5h70zM372 0h-138l1440 1320h138zM1300 544l-50 32q77 103 166 156.5t180 53.5q86 0 130 -42.5t44 -105.5
q0 -40 -17.5 -82t-43 -78t-70 -78t-82 -72t-98 -71t-98 -65t-99.5 -62v-4h220q39 0 64.5 18.5t89.5 87.5l44 -18l-138 -214h-518l24 58q302 193 432 313t130 213q0 38 -24.5 61t-73.5 23q-58 0 -108 -30t-104 -94z" />
    <glyph glyph-name="threequarters" unicode="&#xbe;" horiz-adv-x="1792" 
d="M864 1214q0 -134 -242 -238q68 -12 111 -47.5t43 -98.5q0 -83 -66 -154t-159.5 -108.5t-184.5 -37.5q-84 0 -136 30.5t-52 79.5q0 29 20.5 48.5t51.5 19.5q25 0 43.5 -17.5t29.5 -38.5t32 -38.5t49 -17.5q85 0 150.5 57.5t65.5 140.5q0 116 -156 116v42q126 63 181 108
t55 98q0 62 -76 62q-90 0 -188 -98l-40 40q147 168 320 168q68 0 108 -32t40 -84zM310 0h-138l1440 1320h138zM1422 0h-354l22 54q69 0 90 5.5t30 26.5l64 156h-364l24 62l584 472h114l-188 -464h202l-28 -70h-202l-56 -140q-10 -23 -10 -30q0 -12 17.5 -15t76.5 -3z
M1052 312h250l122 302h-4l-368 -298v-4z" />
    <glyph glyph-name="questiondown" unicode="&#xbf;" horiz-adv-x="862" 
d="M660 1202q0 57 41.5 97.5t100.5 40.5t100.5 -40.5t41.5 -97.5t-42 -99.5t-100 -42.5t-100 42.5t-42 99.5zM574 514q-195 0 -320.5 -58t-125.5 -168q0 -41 18.5 -71t51 -46t69.5 -23.5t81 -7.5q48 0 115 28t101 28q36 0 55 -19t19 -47q0 -64 -70 -107t-180 -43
q-157 0 -255.5 88.5t-98.5 221.5q0 80 33 146t86 110.5t126.5 77.5t148.5 50.5t158 25.5l114 226h78l-100 -342q-20 -70 -104 -70z" />
    <glyph glyph-name="Agrave" unicode="&#xc0;" horiz-adv-x="1440" 
d="M906 1748l280 -266l-32 -50l-358 178q-72 36 -72 100q0 36 24.5 59t63.5 23q47 0 94 -44zM356 88l-36 -88h-490l36 88q93 0 129 11t67 49l960 1182h140l-44 -1182q-1 -39 26.5 -49.5t121.5 -10.5l-36 -88h-532l36 88q100 0 138.5 5t52 19t15.5 52l20 324h-490l-260 -324
q-26 -32 -26 -46q0 -20 33 -25t139 -5zM990 1134l-446 -554h420l34 554h-8z" />
    <glyph glyph-name="Aacute" unicode="&#xc1;" horiz-adv-x="1440" 
d="M988 1482l280 266q47 44 94 44q39 0 63.5 -23t24.5 -59q0 -64 -72 -100l-358 -178zM356 88l-36 -88h-490l36 88q93 0 129 11t67 49l960 1182h140l-44 -1182q-1 -39 26.5 -49.5t121.5 -10.5l-36 -88h-532l36 88q100 0 138.5 5t52 19t15.5 52l20 324h-490l-260 -324
q-26 -32 -26 -46q0 -20 33 -25t139 -5zM990 1134l-446 -554h420l34 554h-8z" />
    <glyph glyph-name="Acircumflex" unicode="&#xc2;" horiz-adv-x="1440" 
d="M1270 1758l146 -286l-50 -40l-194 200l-398 -200l-42 40l404 304q43 30 80 23.5t54 -41.5zM356 88l-36 -88h-490l36 88q93 0 129 11t67 49l960 1182h140l-44 -1182q-1 -39 26.5 -49.5t121.5 -10.5l-36 -88h-532l36 88q100 0 138.5 5t52 19t15.5 52l20 324h-490l-260 -324
q-26 -32 -26 -46q0 -20 33 -25t139 -5zM990 1134l-446 -554h420l34 554h-8z" />
    <glyph glyph-name="Atilde" unicode="&#xc3;" horiz-adv-x="1440" 
d="M1504 1728q-84 -140 -150 -202t-132 -62q-32 0 -64 24t-54.5 52t-53.5 52t-62 24q-21 0 -41 -10.5t-44 -37t-39 -46t-46 -62.5l-60 36q84 140 150 202t132 62q32 0 64 -24t54.5 -52t53.5 -52t62 -24q21 0 41 10.5t44 37t39 46t46 62.5zM356 88l-36 -88h-490l36 88
q93 0 129 11t67 49l960 1182h140l-44 -1182q-1 -39 26.5 -49.5t121.5 -10.5l-36 -88h-532l36 88q100 0 138.5 5t52 19t15.5 52l20 324h-490l-260 -324q-26 -32 -26 -46q0 -20 33 -25t139 -5zM990 1134l-446 -554h420l34 554h-8z" />
    <glyph glyph-name="Adieresis" unicode="&#xc4;" horiz-adv-x="1440" 
d="M816 1596q0 51 36.5 86.5t87.5 35.5t87.5 -35.5t36.5 -86.5q0 -52 -36.5 -88t-87.5 -36t-87.5 36t-36.5 88zM1188 1596q0 51 36.5 86.5t87.5 35.5t87.5 -35.5t36.5 -86.5q0 -52 -36.5 -88t-87.5 -36t-87.5 36t-36.5 88zM356 88l-36 -88h-490l36 88q93 0 129 11t67 49
l960 1182h140l-44 -1182q-1 -39 26.5 -49.5t121.5 -10.5l-36 -88h-532l36 88q100 0 138.5 5t52 19t15.5 52l20 324h-490l-260 -324q-26 -32 -26 -46q0 -20 33 -25t139 -5zM990 1134l-446 -554h420l34 554h-8z" />
    <glyph glyph-name="Aring" unicode="&#xc5;" horiz-adv-x="1440" 
d="M1374 1652q0 -106 -78.5 -180t-187.5 -74q-86 0 -140 57.5t-54 142.5q0 106 78 180t188 74q85 0 139.5 -57.5t54.5 -142.5zM1286 1654q0 50 -31 82t-81 32q-76 0 -124 -49t-48 -123q0 -50 31 -82t81 -32q76 0 124 49t48 123zM356 88l-36 -88h-490l36 88q93 0 129 11
t67 49l960 1182h140l-44 -1182q-1 -39 26.5 -49.5t121.5 -10.5l-36 -88h-532l36 88q100 0 138.5 5t52 19t15.5 52l20 324h-490l-260 -324q-26 -32 -26 -46q0 -20 33 -25t139 -5zM990 1134l-446 -554h420l34 554h-8z" />
    <glyph glyph-name="AE" unicode="&#xc6;" horiz-adv-x="2064" 
d="M370 88l-36 -88h-504l36 88q88 0 123 11.5t73 48.5l1146 1078q-93 6 -218 6l36 88h1204l-146 -402h-70q16 123 12.5 192t-38.5 93.5t-128 24.5h-326l-206 -508h128q49 0 75.5 1t55 10t42.5 18.5t35.5 37t36.5 55t43 82.5h82l-202 -500h-72q28 94 28 126q0 52 -30 65
t-130 13h-128l-216 -536h270q96 0 162.5 14.5t130 55.5t119.5 107.5t128 176.5h88l-222 -446h-1082l36 88q118 0 153.5 9t48.5 43l140 348h-476l-340 -318q-34 -31 -34 -52q0 -20 33 -25t139 -5zM670 580h416l254 626z" />
    <glyph glyph-name="Ccedilla" unicode="&#xc7;" horiz-adv-x="1198" 
d="M580 -224q0 -114 -121.5 -183.5t-296.5 -36.5l28 70q113 -19 184.5 14t71.5 90q0 40 -41.5 59t-122.5 25l122 182q-127 32 -205.5 135t-78.5 271t71 339t184.5 302.5t266.5 214t308 82.5q177 0 262 -112l106 100h72l-152 -422h-66q14 326 -246 326q-108 0 -219 -71
t-196.5 -184t-140 -264t-54.5 -301q0 -148 74 -227t198 -79q227 0 416 222l58 -60q-115 -140 -243.5 -214t-294.5 -74q-20 0 -56 4l-50 -74q74 -9 118 -43.5t44 -90.5z" />
    <glyph glyph-name="Egrave" unicode="&#xc8;" horiz-adv-x="1264" 
d="M808 1748l280 -266l-32 -50l-358 178q-72 36 -72 100q0 36 24.5 59t63.5 23q47 0 94 -44zM406 1320h1024l-146 -402h-70q16 123 12.5 192t-38.5 93.5t-128 24.5h-326l-206 -508h128q49 0 75.5 1t55 10t42.5 18.5t35.5 37t36.5 55t43 82.5h82l-202 -500h-72q28 94 28 126
q0 52 -30 65t-130 13h-128l-216 -536h270q96 0 162.5 14.5t130 55.5t119.5 107.5t128 176.5h88l-222 -446h-1082l36 88q118 0 153.5 9t48.5 43l412 1020q12 33 12 42q0 20 -29.5 25t-132.5 5z" />
    <glyph glyph-name="Eacute" unicode="&#xc9;" horiz-adv-x="1264" 
d="M882 1482l280 266q47 44 94 44q39 0 63.5 -23t24.5 -59q0 -64 -72 -100l-358 -178zM406 1320h1024l-146 -402h-70q16 123 12.5 192t-38.5 93.5t-128 24.5h-326l-206 -508h128q49 0 75.5 1t55 10t42.5 18.5t35.5 37t36.5 55t43 82.5h82l-202 -500h-72q28 94 28 126
q0 52 -30 65t-130 13h-128l-216 -536h270q96 0 162.5 14.5t130 55.5t119.5 107.5t128 176.5h88l-222 -446h-1082l36 88q118 0 153.5 9t48.5 43l412 1020q12 33 12 42q0 20 -29.5 25t-132.5 5z" />
    <glyph glyph-name="Ecircumflex" unicode="&#xca;" horiz-adv-x="1264" 
d="M1198 1758l146 -286l-50 -40l-194 200l-398 -200l-42 40l404 304q43 30 80 23.5t54 -41.5zM406 1320h1024l-146 -402h-70q16 123 12.5 192t-38.5 93.5t-128 24.5h-326l-206 -508h128q49 0 75.5 1t55 10t42.5 18.5t35.5 37t36.5 55t43 82.5h82l-202 -500h-72q28 94 28 126
q0 52 -30 65t-130 13h-128l-216 -536h270q96 0 162.5 14.5t130 55.5t119.5 107.5t128 176.5h88l-222 -446h-1082l36 88q118 0 153.5 9t48.5 43l412 1020q12 33 12 42q0 20 -29.5 25t-132.5 5z" />
    <glyph glyph-name="Edieresis" unicode="&#xcb;" horiz-adv-x="1264" 
d="M722 1596q0 51 36.5 86.5t87.5 35.5t87.5 -35.5t36.5 -86.5q0 -52 -36.5 -88t-87.5 -36t-87.5 36t-36.5 88zM1094 1596q0 51 36.5 86.5t87.5 35.5t87.5 -35.5t36.5 -86.5q0 -52 -36.5 -88t-87.5 -36t-87.5 36t-36.5 88zM406 1320h1024l-146 -402h-70q16 123 12.5 192
t-38.5 93.5t-128 24.5h-326l-206 -508h128q49 0 75.5 1t55 10t42.5 18.5t35.5 37t36.5 55t43 82.5h82l-202 -500h-72q28 94 28 126q0 52 -30 65t-130 13h-128l-216 -536h270q96 0 162.5 14.5t130 55.5t119.5 107.5t128 176.5h88l-222 -446h-1082l36 88q118 0 153.5 9
t48.5 43l412 1020q12 33 12 42q0 20 -29.5 25t-132.5 5z" />
    <glyph glyph-name="Igrave" unicode="&#xcc;" horiz-adv-x="670" 
d="M680 1748l280 -266l-32 -50l-358 178q-72 36 -72 100q0 36 24.5 59t63.5 23q47 0 94 -44zM454 88l-36 -88h-548l36 88q118 0 153.5 9t48.5 43l412 1020q12 33 12 42q0 20 -29.5 25t-132.5 5l36 88h548l-36 -88q-118 0 -153.5 -9t-48.5 -43l-412 -1020q-12 -33 -12 -42
q0 -20 29 -25t133 -5z" />
    <glyph glyph-name="Iacute" unicode="&#xcd;" horiz-adv-x="670" 
d="M622 1482l280 266q47 44 94 44q39 0 63.5 -23t24.5 -59q0 -64 -72 -100l-358 -178zM454 88l-36 -88h-548l36 88q118 0 153.5 9t48.5 43l412 1020q12 33 12 42q0 20 -29.5 25t-132.5 5l36 88h548l-36 -88q-118 0 -153.5 -9t-48.5 -43l-412 -1020q-12 -33 -12 -42
q0 -20 29 -25t133 -5z" />
    <glyph glyph-name="Icircumflex" unicode="&#xce;" horiz-adv-x="670" 
d="M934 1758l146 -286l-50 -40l-194 200l-398 -200l-42 40l404 304q43 30 80 23.5t54 -41.5zM454 88l-36 -88h-548l36 88q118 0 153.5 9t48.5 43l412 1020q12 33 12 42q0 20 -29.5 25t-132.5 5l36 88h548l-36 -88q-118 0 -153.5 -9t-48.5 -43l-412 -1020q-12 -33 -12 -42
q0 -20 29 -25t133 -5z" />
    <glyph glyph-name="Idieresis" unicode="&#xcf;" horiz-adv-x="670" 
d="M458 1596q0 51 36.5 86.5t87.5 35.5t87.5 -35.5t36.5 -86.5q0 -52 -36.5 -88t-87.5 -36t-87.5 36t-36.5 88zM830 1596q0 51 36.5 86.5t87.5 35.5t87.5 -35.5t36.5 -86.5q0 -52 -36.5 -88t-87.5 -36t-87.5 36t-36.5 88zM454 88l-36 -88h-548l36 88q118 0 153.5 9t48.5 43
l412 1020q12 33 12 42q0 20 -29.5 25t-132.5 5l36 88h548l-36 -88q-118 0 -153.5 -9t-48.5 -43l-412 -1020q-12 -33 -12 -42q0 -20 29 -25t133 -5z" />
    <glyph glyph-name="Eth" unicode="&#xd0;" horiz-adv-x="1408" 
d="M1430 880q0 -116 -32.5 -227t-92.5 -208.5t-150 -179.5t-200.5 -140.5t-248 -91.5t-288.5 -33h-528l36 88q118 0 153.5 9t48.5 43l198 488h-162l36 92h162l178 440q12 33 12 42q0 20 -29 25t-133 5l36 88h462q249 0 395.5 -121.5t146.5 -318.5zM296 92h150
q153 0 284.5 48.5t222 129t155 185.5t94.5 217t30 224q0 172 -92 252t-274 80h-112l-204 -508h312l-36 -92h-314z" />
    <glyph glyph-name="Ntilde" unicode="&#xd1;" horiz-adv-x="1436" 
d="M1540 1728q-84 -140 -150 -202t-132 -62q-32 0 -64 24t-54.5 52t-53.5 52t-62 24q-21 0 -41 -10.5t-44 -37t-39 -46t-46 -62.5l-60 36q84 140 150 202t132 62q32 0 64 -24t54.5 -52t53.5 -52t62 -24q21 0 41 10.5t44 37t39 46t46 62.5zM1502 1180l-482 -1196h-98
l-282 1170h-8l-402 -994q-12 -33 -12 -42q0 -20 29 -25t133 -5l-36 -88h-474l36 88q118 0 153.5 9t48.5 43l412 1020q12 33 12 42q0 20 -29.5 25t-132.5 5l36 88h380l234 -1032h8l352 872q12 33 12 42q0 20 -29 25t-133 5l36 88h474l-36 -88q-118 0 -153.5 -9t-48.5 -43z
" />
    <glyph glyph-name="Ograve" unicode="&#xd2;" horiz-adv-x="1322" 
d="M954 1748l280 -266l-32 -50l-358 178q-72 36 -72 100q0 36 24.5 59t63.5 23q47 0 94 -44zM940 1340q186 0 300 -118.5t114 -323.5q0 -113 -39 -240t-114 -246.5t-173 -216.5t-227 -156t-265 -59q-186 0 -300 118.5t-114 323.5q0 113 39 240t114 246.5t173 216.5t227 156
t265 59zM926 1232q-115 0 -228 -78.5t-196 -201t-134.5 -277.5t-51.5 -303q0 -284 234 -284q115 0 228 78.5t196 201t134.5 277.5t51.5 303q0 284 -234 284z" />
    <glyph glyph-name="Oacute" unicode="&#xd3;" horiz-adv-x="1322" 
d="M906 1482l280 266q47 44 94 44q39 0 63.5 -23t24.5 -59q0 -64 -72 -100l-358 -178zM940 1340q186 0 300 -118.5t114 -323.5q0 -113 -39 -240t-114 -246.5t-173 -216.5t-227 -156t-265 -59q-186 0 -300 118.5t-114 323.5q0 113 39 240t114 246.5t173 216.5t227 156t265 59
zM926 1232q-115 0 -228 -78.5t-196 -201t-134.5 -277.5t-51.5 -303q0 -284 234 -284q115 0 228 78.5t196 201t134.5 277.5t51.5 303q0 284 -234 284z" />
    <glyph glyph-name="Ocircumflex" unicode="&#xd4;" horiz-adv-x="1322" 
d="M1206 1758l146 -286l-50 -40l-194 200l-398 -200l-42 40l404 304q43 30 80 23.5t54 -41.5zM940 1340q186 0 300 -118.5t114 -323.5q0 -113 -39 -240t-114 -246.5t-173 -216.5t-227 -156t-265 -59q-186 0 -300 118.5t-114 323.5q0 113 39 240t114 246.5t173 216.5t227 156
t265 59zM926 1232q-115 0 -228 -78.5t-196 -201t-134.5 -277.5t-51.5 -303q0 -284 234 -284q115 0 228 78.5t196 201t134.5 277.5t51.5 303q0 284 -234 284z" />
    <glyph glyph-name="Otilde" unicode="&#xd5;" horiz-adv-x="1322" 
d="M1430 1728q-84 -140 -150 -202t-132 -62q-32 0 -64 24t-54.5 52t-53.5 52t-62 24q-21 0 -41 -10.5t-44 -37t-39 -46t-46 -62.5l-60 36q84 140 150 202t132 62q32 0 64 -24t54.5 -52t53.5 -52t62 -24q21 0 41 10.5t44 37t39 46t46 62.5zM940 1340q186 0 300 -118.5
t114 -323.5q0 -113 -39 -240t-114 -246.5t-173 -216.5t-227 -156t-265 -59q-186 0 -300 118.5t-114 323.5q0 113 39 240t114 246.5t173 216.5t227 156t265 59zM926 1232q-115 0 -228 -78.5t-196 -201t-134.5 -277.5t-51.5 -303q0 -284 234 -284q115 0 228 78.5t196 201
t134.5 277.5t51.5 303q0 284 -234 284z" />
    <glyph glyph-name="Odieresis" unicode="&#xd6;" horiz-adv-x="1322" 
d="M730 1596q0 51 36.5 86.5t87.5 35.5t87.5 -35.5t36.5 -86.5q0 -52 -36.5 -88t-87.5 -36t-87.5 36t-36.5 88zM1102 1596q0 51 36.5 86.5t87.5 35.5t87.5 -35.5t36.5 -86.5q0 -52 -36.5 -88t-87.5 -36t-87.5 36t-36.5 88zM940 1340q186 0 300 -118.5t114 -323.5
q0 -113 -39 -240t-114 -246.5t-173 -216.5t-227 -156t-265 -59q-186 0 -300 118.5t-114 323.5q0 113 39 240t114 246.5t173 216.5t227 156t265 59zM926 1232q-115 0 -228 -78.5t-196 -201t-134.5 -277.5t-51.5 -303q0 -284 234 -284q115 0 228 78.5t196 201t134.5 277.5
t51.5 303q0 284 -234 284z" />
    <glyph glyph-name="multiply" unicode="&#xd7;" 
d="M914 234l-108 -72l-212 364l-494 -364l-62 98l498 368l-216 370l106 70l214 -364l490 362l64 -96l-496 -366z" />
    <glyph glyph-name="Oslash" unicode="&#xd8;" horiz-adv-x="1322" 
d="M536 -20q-167 0 -278 96l-176 -180l-70 64l184 188q-74 111 -74 274q0 113 39 240t114 246.5t173 216.5t227 156t265 59q188 0 302 -120l152 156l70 -64l-166 -170q56 -103 56 -244q0 -113 -39 -240t-114 -246.5t-173 -216.5t-227 -156t-265 -59zM306 372q0 -53 10 -100
l822 842q-59 118 -212 118q-115 0 -229.5 -78.5t-199.5 -201t-138 -278t-53 -302.5zM1170 948q0 24 -4 60l-810 -832q62 -88 194 -88q115 0 229.5 78.5t199.5 201t138 278t53 302.5z" />
    <glyph glyph-name="Ugrave" unicode="&#xd9;" horiz-adv-x="1464" 
d="M1052 1748l280 -266l-32 -50l-358 178q-72 36 -72 100q0 36 24.5 59t63.5 23q47 0 94 -44zM1398 1160q12 33 12 42q0 20 -29 25t-133 5l36 88h474l-36 -88q-118 0 -153.5 -9t-48.5 -43l-282 -700q-98 -242 -260.5 -371t-383.5 -129q-176 0 -284 88.5t-108 243.5
q0 93 44 202l260 646q12 33 12 42q0 20 -29 25t-133 5l36 88h552l-36 -88q-118 0 -153.5 -9t-48.5 -43l-274 -678q-42 -108 -42 -186q0 -104 67.5 -157t190.5 -53q169 0 286 98.5t198 297.5z" />
    <glyph glyph-name="Uacute" unicode="&#xda;" horiz-adv-x="1464" 
d="M1014 1482l280 266q47 44 94 44q39 0 63.5 -23t24.5 -59q0 -64 -72 -100l-358 -178zM1398 1160q12 33 12 42q0 20 -29 25t-133 5l36 88h474l-36 -88q-118 0 -153.5 -9t-48.5 -43l-282 -700q-98 -242 -260.5 -371t-383.5 -129q-176 0 -284 88.5t-108 243.5q0 93 44 202
l260 646q12 33 12 42q0 20 -29 25t-133 5l36 88h552l-36 -88q-118 0 -153.5 -9t-48.5 -43l-274 -678q-42 -108 -42 -186q0 -104 67.5 -157t190.5 -53q169 0 286 98.5t198 297.5z" />
    <glyph glyph-name="Ucircumflex" unicode="&#xdb;" horiz-adv-x="1464" 
d="M1370 1758l146 -286l-50 -40l-194 200l-398 -200l-42 40l404 304q43 30 80 23.5t54 -41.5zM1398 1160q12 33 12 42q0 20 -29 25t-133 5l36 88h474l-36 -88q-118 0 -153.5 -9t-48.5 -43l-282 -700q-98 -242 -260.5 -371t-383.5 -129q-176 0 -284 88.5t-108 243.5
q0 93 44 202l260 646q12 33 12 42q0 20 -29 25t-133 5l36 88h552l-36 -88q-118 0 -153.5 -9t-48.5 -43l-274 -678q-42 -108 -42 -186q0 -104 67.5 -157t190.5 -53q169 0 286 98.5t198 297.5z" />
    <glyph glyph-name="Udieresis" unicode="&#xdc;" horiz-adv-x="1464" 
d="M914 1596q0 51 36.5 86.5t87.5 35.5t87.5 -35.5t36.5 -86.5q0 -52 -36.5 -88t-87.5 -36t-87.5 36t-36.5 88zM1286 1596q0 51 36.5 86.5t87.5 35.5t87.5 -35.5t36.5 -86.5q0 -52 -36.5 -88t-87.5 -36t-87.5 36t-36.5 88zM1398 1160q12 33 12 42q0 20 -29 25t-133 5l36 88
h474l-36 -88q-118 0 -153.5 -9t-48.5 -43l-282 -700q-98 -242 -260.5 -371t-383.5 -129q-176 0 -284 88.5t-108 243.5q0 93 44 202l260 646q12 33 12 42q0 20 -29 25t-133 5l36 88h552l-36 -88q-118 0 -153.5 -9t-48.5 -43l-274 -678q-42 -108 -42 -186q0 -104 67.5 -157
t190.5 -53q169 0 286 98.5t198 297.5z" />
    <glyph glyph-name="Yacute" unicode="&#xdd;" horiz-adv-x="1400" 
d="M1044 1482l280 266q47 44 94 44q39 0 63.5 -23t24.5 -59q0 -64 -72 -100l-358 -178zM852 88l-36 -88h-612l36 88h34q118 0 152.5 9t47.5 43l168 412l-166 620q-8 27 -18.5 38.5t-39 16.5t-90.5 5l36 88h536l-36 -88q-121 0 -163.5 -12.5t-42.5 -41.5q0 -13 6 -34
l124 -494h8l532 508q28 28 28 42q0 20 -34 26t-142 6l36 88h508l-36 -88q-88 0 -119 -10.5t-77 -49.5l-668 -624l-162 -398q-8 -19 -8 -30q0 -19 33.5 -25.5t130.5 -6.5h34z" />
    <glyph glyph-name="Thorn" unicode="&#xde;" horiz-adv-x="1234" 
d="M716 1180l-54 -134h172q193 0 300.5 -74.5t107.5 -201.5q0 -205 -181.5 -338.5t-476.5 -133.5h-224l-56 -138q-12 -33 -12 -40q0 -19 26 -25.5t110 -6.5h110l-36 -88h-632l36 88q118 0 153.5 9t48.5 43l412 1020q12 33 12 42q0 20 -29.5 25t-132.5 5l36 88h548l-36 -88
q-118 0 -153.5 -9t-48.5 -43zM784 954h-160l-228 -564h216q198 0 314 109t116 271q0 184 -258 184z" />
    <glyph glyph-name="germandbls" unicode="&#xdf;" horiz-adv-x="1136" 
d="M186 28q-77 -211 -219.5 -341.5t-322.5 -130.5q-70 0 -116 34t-46 80q0 42 26 69t68 27q28 0 53 -16t40.5 -35t38 -35t46.5 -16q54 0 98.5 32.5t94 122t101.5 243.5l258 780h-136l38 98h130l30 88q63 206 222 339t360 133q131 0 215.5 -61.5t84.5 -168.5q0 -63 -33 -120
t-82 -96.5t-107 -79.5t-107 -72t-82 -72t-33 -80q0 -45 33.5 -106t73.5 -113t73.5 -119.5t33.5 -123.5q0 -130 -97.5 -219t-252.5 -89q-110 0 -187 53.5t-77 120.5q0 38 23 63t65 25q32 0 52.5 -19t32.5 -46t26 -54t43 -46t74 -19q70 0 111 41t41 107q0 48 -21.5 96.5
t-52.5 90.5t-62 85t-52.5 96t-21.5 106q0 56 31.5 108t78.5 91t102 83.5t102 84.5t78.5 94.5t31.5 112.5q0 69 -44.5 114.5t-121.5 45.5q-119 0 -204 -83.5t-152 -266.5z" />
    <glyph glyph-name="agrave" unicode="&#xe0;" horiz-adv-x="1112" 
d="M796 1400l108 -296l-48 -26l-210 250q-45 54 -17 106q22 41 67 46q57 6 90 -58q6 -10 10 -22zM680 362h-8q-50 -71 -105 -135t-118 -121.5t-128 -91.5t-121 -34q-77 0 -123.5 53t-46.5 143q0 128 63.5 269.5t161 254t222 186.5t237.5 74q66 0 111 -29.5t61 -76.5l76 106
h130l-312 -680q-52 -116 -52 -148q0 -28 32 -28q79 0 210 158l48 -48q-84 -109 -187 -171.5t-189 -62.5q-39 0 -63.5 20.5t-24.5 59.5q0 34 25 92.5t101 209.5zM280 98q53 0 144.5 76.5t176.5 180.5t148 221t63 190q0 51 -29.5 81.5t-86.5 30.5q-99 0 -216.5 -106.5
t-198.5 -265.5t-81 -298q0 -53 21 -81.5t59 -28.5z" />
    <glyph glyph-name="aacute" unicode="&#xe1;" horiz-adv-x="1112" 
d="M900 1414q43 66 98 66q35 0 55.5 -19.5t20.5 -56.5q0 -49 -52 -92l-282 -234l-36 30zM680 362h-8q-50 -71 -105 -135t-118 -121.5t-128 -91.5t-121 -34q-77 0 -123.5 53t-46.5 143q0 128 63.5 269.5t161 254t222 186.5t237.5 74q66 0 111 -29.5t61 -76.5l76 106h130
l-312 -680q-52 -116 -52 -148q0 -28 32 -28q79 0 210 158l48 -48q-84 -109 -187 -171.5t-189 -62.5q-39 0 -63.5 20.5t-24.5 59.5q0 34 25 92.5t101 209.5zM280 98q53 0 144.5 76.5t176.5 180.5t148 221t63 190q0 51 -29.5 81.5t-86.5 30.5q-99 0 -216.5 -106.5
t-198.5 -265.5t-81 -298q0 -53 21 -81.5t59 -28.5z" />
    <glyph glyph-name="acircumflex" unicode="&#xe2;" horiz-adv-x="1112" 
d="M1000 1436l72 -340l-50 -18l-128 252l-340 -252l-36 38l342 338q42 41 86 36t54 -54zM680 362h-8q-50 -71 -105 -135t-118 -121.5t-128 -91.5t-121 -34q-77 0 -123.5 53t-46.5 143q0 128 63.5 269.5t161 254t222 186.5t237.5 74q66 0 111 -29.5t61 -76.5l76 106h130
l-312 -680q-52 -116 -52 -148q0 -28 32 -28q79 0 210 158l48 -48q-84 -109 -187 -171.5t-189 -62.5q-39 0 -63.5 20.5t-24.5 59.5q0 34 25 92.5t101 209.5zM280 98q53 0 144.5 76.5t176.5 180.5t148 221t63 190q0 51 -29.5 81.5t-86.5 30.5q-99 0 -216.5 -106.5
t-198.5 -265.5t-81 -298q0 -53 21 -81.5t59 -28.5z" />
    <glyph glyph-name="atilde" unicode="&#xe3;" horiz-adv-x="1112" 
d="M754 1380q34 0 66 -22t53.5 -48t50 -48t54.5 -22q40 0 75.5 34t90.5 110l56 -36q-86 -138 -145.5 -191t-124.5 -53q-34 0 -66 22t-53 48t-49.5 48t-55.5 22q-38 0 -75 -34.5t-93 -109.5l-56 36q85 137 146.5 190.5t125.5 53.5zM680 362h-8q-50 -71 -105 -135t-118 -121.5
t-128 -91.5t-121 -34q-77 0 -123.5 53t-46.5 143q0 128 63.5 269.5t161 254t222 186.5t237.5 74q66 0 111 -29.5t61 -76.5l76 106h130l-312 -680q-52 -116 -52 -148q0 -28 32 -28q79 0 210 158l48 -48q-84 -109 -187 -171.5t-189 -62.5q-39 0 -63.5 20.5t-24.5 59.5
q0 34 25 92.5t101 209.5zM280 98q53 0 144.5 76.5t176.5 180.5t148 221t63 190q0 51 -29.5 81.5t-86.5 30.5q-99 0 -216.5 -106.5t-198.5 -265.5t-81 -298q0 -53 21 -81.5t59 -28.5z" />
    <glyph glyph-name="adieresis" unicode="&#xe4;" horiz-adv-x="1112" 
d="M538 1252q0 48 35.5 83t84.5 35q48 0 84 -35t36 -83q0 -51 -35.5 -85.5t-84.5 -34.5q-50 0 -85 34t-35 86zM896 1252q0 48 36 83t84 35q49 0 84.5 -35t35.5 -83q0 -52 -35 -86t-85 -34q-49 0 -84.5 34.5t-35.5 85.5zM680 362h-8q-50 -71 -105 -135t-118 -121.5
t-128 -91.5t-121 -34q-77 0 -123.5 53t-46.5 143q0 128 63.5 269.5t161 254t222 186.5t237.5 74q66 0 111 -29.5t61 -76.5l76 106h130l-312 -680q-52 -116 -52 -148q0 -28 32 -28q79 0 210 158l48 -48q-84 -109 -187 -171.5t-189 -62.5q-39 0 -63.5 20.5t-24.5 59.5
q0 34 25 92.5t101 209.5zM280 98q53 0 144.5 76.5t176.5 180.5t148 221t63 190q0 51 -29.5 81.5t-86.5 30.5q-99 0 -216.5 -106.5t-198.5 -265.5t-81 -298q0 -53 21 -81.5t59 -28.5z" />
    <glyph glyph-name="aring" unicode="&#xe5;" horiz-adv-x="1112" 
d="M1072 1328q0 -96 -71.5 -163t-170.5 -67q-77 0 -126.5 52.5t-49.5 129.5q0 96 71.5 163t170.5 67q77 0 126.5 -52.5t49.5 -129.5zM986 1328q0 44 -27 72t-71 28q-65 0 -106.5 -42t-41.5 -106q0 -44 27 -72t71 -28q65 0 106.5 42t41.5 106zM680 362h-8q-50 -71 -105 -135
t-118 -121.5t-128 -91.5t-121 -34q-77 0 -123.5 53t-46.5 143q0 128 63.5 269.5t161 254t222 186.5t237.5 74q66 0 111 -29.5t61 -76.5l76 106h130l-312 -680q-52 -116 -52 -148q0 -28 32 -28q79 0 210 158l48 -48q-84 -109 -187 -171.5t-189 -62.5q-39 0 -63.5 20.5
t-24.5 59.5q0 34 25 92.5t101 209.5zM280 98q53 0 144.5 76.5t176.5 180.5t148 221t63 190q0 51 -29.5 81.5t-86.5 30.5q-99 0 -216.5 -106.5t-198.5 -265.5t-81 -298q0 -53 21 -81.5t59 -28.5z" />
    <glyph glyph-name="ae" unicode="&#xe6;" horiz-adv-x="1420" 
d="M1292 244q-90 -113 -214.5 -188.5t-245.5 -75.5q-107 0 -173.5 63.5t-66.5 178.5v4q-94 -106 -200.5 -176t-191.5 -70q-77 0 -123.5 53t-46.5 143q0 128 63.5 269.5t161 254t222 186.5t237.5 74q79 0 132.5 -34t79.5 -88q158 122 326 122q77 0 126.5 -39.5t49.5 -108.5
q0 -68 -43 -131t-110.5 -110t-156 -86.5t-173.5 -65t-169 -41.5q-14 -56 -14 -114q0 -81 38.5 -121.5t107.5 -40.5q159 0 330 192zM200 208q0 -53 21 -81.5t59 -28.5q60 0 149 71.5t181 182.5q24 100 80.5 204t135.5 190q-17 132 -130 132q-99 0 -216.5 -106.5
t-198.5 -265.5t-81 -298zM1172 866q-102 0 -210.5 -125t-163.5 -287q127 30 230 77.5t167.5 113t64.5 135.5q0 86 -88 86z" />
    <glyph glyph-name="ccedilla" unicode="&#xe7;" horiz-adv-x="828" 
d="M392 -224q0 -114 -121.5 -183.5t-296.5 -36.5l28 70q113 -19 184.5 14t71.5 90q0 40 -41.5 59t-122.5 25l120 178q-79 24 -122.5 93.5t-43.5 180.5t52.5 235.5t135 225t192 167t214.5 66.5q95 0 147.5 -45.5t52.5 -116.5q0 -50 -28.5 -83t-71.5 -33q-35 0 -54.5 20
t-25.5 48t-10 56t-15 48t-33 20q-84 0 -176 -99t-152 -242t-60 -265q0 -90 32.5 -137t91.5 -47q136 0 304 194l56 -52q-94 -117 -199.5 -181.5t-200.5 -64.5h-22l-48 -70q74 -9 118 -43.5t44 -90.5z" />
    <glyph glyph-name="egrave" unicode="&#xe8;" horiz-adv-x="862" 
d="M628 1400l108 -296l-48 -26l-210 250q-45 54 -17 106q22 41 67 46q57 6 90 -58q6 -10 10 -22zM738 244q-90 -113 -214.5 -188.5t-245.5 -75.5q-107 0 -173.5 63.5t-66.5 178.5q0 86 33 186.5t95 197t141.5 176.5t182.5 129t208 49q77 0 126.5 -39.5t49.5 -108.5
q0 -68 -43 -131t-110.5 -110t-156 -86.5t-173.5 -65t-169 -41.5q-14 -56 -14 -114q0 -81 38.5 -121.5t107.5 -40.5q159 0 330 192zM618 866q-102 0 -210.5 -125t-163.5 -287q127 30 230 77.5t167.5 113t64.5 135.5q0 86 -88 86z" />
    <glyph glyph-name="eacute" unicode="&#xe9;" horiz-adv-x="858" 
d="M792 1414q43 66 98 66q35 0 55.5 -19.5t20.5 -56.5q0 -49 -52 -92l-282 -234l-36 30zM738 244q-90 -113 -214.5 -188.5t-245.5 -75.5q-107 0 -173.5 63.5t-66.5 178.5q0 86 33 186.5t95 197t141.5 176.5t182.5 129t208 49q77 0 126.5 -39.5t49.5 -108.5q0 -68 -43 -131
t-110.5 -110t-156 -86.5t-173.5 -65t-169 -41.5q-14 -56 -14 -114q0 -81 38.5 -121.5t107.5 -40.5q159 0 330 192zM618 866q-102 0 -210.5 -125t-163.5 -287q127 30 230 77.5t167.5 113t64.5 135.5q0 86 -88 86z" />
    <glyph glyph-name="ecircumflex" unicode="&#xea;" horiz-adv-x="862" 
d="M858 1436l72 -340l-50 -18l-128 252l-340 -252l-36 38l342 338q42 41 86 36t54 -54zM738 244q-90 -113 -214.5 -188.5t-245.5 -75.5q-107 0 -173.5 63.5t-66.5 178.5q0 86 33 186.5t95 197t141.5 176.5t182.5 129t208 49q77 0 126.5 -39.5t49.5 -108.5q0 -68 -43 -131
t-110.5 -110t-156 -86.5t-173.5 -65t-169 -41.5q-14 -56 -14 -114q0 -81 38.5 -121.5t107.5 -40.5q159 0 330 192zM618 866q-102 0 -210.5 -125t-163.5 -287q127 30 230 77.5t167.5 113t64.5 135.5q0 86 -88 86z" />
    <glyph glyph-name="edieresis" unicode="&#xeb;" horiz-adv-x="862" 
d="M430 1252q0 48 35.5 83t84.5 35q48 0 84 -35t36 -83q0 -51 -35.5 -85.5t-84.5 -34.5q-50 0 -85 34t-35 86zM788 1252q0 48 36 83t84 35q49 0 84.5 -35t35.5 -83q0 -52 -35 -86t-85 -34q-49 0 -84.5 34.5t-35.5 85.5zM738 244q-90 -113 -214.5 -188.5t-245.5 -75.5
q-107 0 -173.5 63.5t-66.5 178.5q0 86 33 186.5t95 197t141.5 176.5t182.5 129t208 49q77 0 126.5 -39.5t49.5 -108.5q0 -68 -43 -131t-110.5 -110t-156 -86.5t-173.5 -65t-169 -41.5q-14 -56 -14 -114q0 -81 38.5 -121.5t107.5 -40.5q159 0 330 192zM618 866
q-102 0 -210.5 -125t-163.5 -287q127 30 230 77.5t167.5 113t64.5 135.5q0 86 -88 86z" />
    <glyph glyph-name="igrave" unicode="&#xec;" horiz-adv-x="636" 
d="M476 1400l108 -296l-48 -26l-210 250q-45 54 -17 106q22 41 67 46q57 6 90 -58q6 -10 10 -22zM590 932l-286 -652q-38 -85 -47 -109t-9 -41q0 -28 32 -28q83 0 216 160l48 -48q-83 -108 -185 -171t-183 -63q-47 0 -76.5 24.5t-29.5 65.5t36 124l208 492q22 52 22 84
q0 14 -10 24t-45.5 26t-112.5 44l16 48l364 38z" />
    <glyph glyph-name="iacute" unicode="&#xed;" horiz-adv-x="636" 
d="M642 1414q43 66 98 66q35 0 55.5 -19.5t20.5 -56.5q0 -49 -52 -92l-282 -234l-36 30zM590 932l-286 -652q-38 -85 -47 -109t-9 -41q0 -28 32 -28q83 0 216 160l48 -48q-83 -108 -185 -171t-183 -63q-47 0 -76.5 24.5t-29.5 65.5t36 124l208 492q22 52 22 84q0 14 -10 24
t-45.5 26t-112.5 44l16 48l364 38z" />
    <glyph glyph-name="icircumflex" unicode="&#xee;" horiz-adv-x="636" 
d="M722 1436l72 -340l-50 -18l-128 252l-340 -252l-36 38l342 338q42 41 86 36t54 -54zM590 932l-286 -652q-38 -85 -47 -109t-9 -41q0 -28 32 -28q83 0 216 160l48 -48q-83 -108 -185 -171t-183 -63q-47 0 -76.5 24.5t-29.5 65.5t36 124l208 492q22 52 22 84q0 14 -10 24
t-45.5 26t-112.5 44l16 48l364 38z" />
    <glyph glyph-name="idieresis" unicode="&#xef;" horiz-adv-x="636" 
d="M260 1252q0 48 35.5 83t84.5 35q48 0 84 -35t36 -83q0 -51 -35.5 -85.5t-84.5 -34.5q-50 0 -85 34t-35 86zM618 1252q0 48 36 83t84 35q49 0 84.5 -35t35.5 -83q0 -52 -35 -86t-85 -34q-49 0 -84.5 34.5t-35.5 85.5zM590 932l-286 -652q-38 -85 -47 -109t-9 -41
q0 -28 32 -28q83 0 216 160l48 -48q-83 -108 -185 -171t-183 -63q-47 0 -76.5 24.5t-29.5 65.5t36 124l208 492q22 52 22 84q0 14 -10 24t-45.5 26t-112.5 44l16 48l364 38z" />
    <glyph glyph-name="eth" unicode="&#xf0;" horiz-adv-x="956" 
d="M906 744q0 -201 -79.5 -378.5t-210 -281.5t-276.5 -104q-122 0 -202 92.5t-80 235.5q0 84 29 176.5t82.5 176t121.5 151.5t153.5 108t171.5 40q91 0 132 -48q-9 134 -84 272l-240 -72v84l196 60q-77 109 -174 186l60 58q140 -97 226 -210l228 70l-2 -86l-176 -54
q124 -201 124 -476zM342 68q95 0 189 100.5t151.5 247.5t57.5 282q0 174 -126 174q-95 0 -189 -100.5t-151.5 -247.5t-57.5 -282q0 -174 126 -174z" />
    <glyph glyph-name="ntilde" unicode="&#xf1;" horiz-adv-x="1180" 
d="M742 1380q34 0 66 -22t53.5 -48t50 -48t54.5 -22q40 0 75.5 34t90.5 110l56 -36q-86 -138 -145.5 -191t-124.5 -53q-34 0 -66 22t-53 48t-49.5 48t-55.5 22q-38 0 -75 -34.5t-93 -109.5l-56 36q85 137 146.5 190.5t125.5 53.5zM556 932l-162 -390h8q147 190 298 304
t266 114q58 0 89 -29.5t31 -82.5q0 -57 -36 -136l-200 -432q-55 -119 -59 -136q-1 -7 -1 -14q0 -28 32 -28q83 0 216 160l48 -48q-83 -108 -186 -171t-184 -63q-47 0 -76.5 24.5t-29.5 65.5q0 47 36 124l174 388q43 97 58.5 137.5t15.5 68.5q0 44 -44 44q-59 0 -174 -94.5
t-217 -216.5t-135 -201l-132 -320h-170l288 686q22 52 22 84q0 14 -10 24t-45.5 26t-112.5 44l16 48l334 38z" />
    <glyph glyph-name="ograve" unicode="&#xf2;" horiz-adv-x="956" 
d="M686 1400l108 -296l-48 -26l-210 250q-45 54 -17 106q22 41 67 46q57 6 90 -58q6 -10 10 -22zM330 -20q-120 0 -197 89.5t-77 228.5q0 86 30.5 180t85.5 178.5t125 153.5t156.5 109.5t172.5 40.5q120 0 197 -89.5t77 -228.5q0 -86 -30.5 -180t-85.5 -178.5t-125 -153.5
t-156.5 -109.5t-172.5 -40.5zM624 872q-96 0 -193.5 -103.5t-158 -253t-60.5 -283.5q0 -164 120 -164q96 0 193.5 103.5t158 253t60.5 283.5q0 164 -120 164z" />
    <glyph glyph-name="oacute" unicode="&#xf3;" horiz-adv-x="956" 
d="M816 1414q43 66 98 66q35 0 55.5 -19.5t20.5 -56.5q0 -49 -52 -92l-282 -234l-36 30zM330 -20q-120 0 -197 89.5t-77 228.5q0 86 30.5 180t85.5 178.5t125 153.5t156.5 109.5t172.5 40.5q120 0 197 -89.5t77 -228.5q0 -86 -30.5 -180t-85.5 -178.5t-125 -153.5
t-156.5 -109.5t-172.5 -40.5zM624 872q-96 0 -193.5 -103.5t-158 -253t-60.5 -283.5q0 -164 120 -164q96 0 193.5 103.5t158 253t60.5 283.5q0 164 -120 164z" />
    <glyph glyph-name="ocircumflex" unicode="&#xf4;" horiz-adv-x="956" 
d="M882 1436l72 -340l-50 -18l-128 252l-340 -252l-36 38l342 338q42 41 86 36t54 -54zM330 -20q-120 0 -197 89.5t-77 228.5q0 86 30.5 180t85.5 178.5t125 153.5t156.5 109.5t172.5 40.5q120 0 197 -89.5t77 -228.5q0 -86 -30.5 -180t-85.5 -178.5t-125 -153.5
t-156.5 -109.5t-172.5 -40.5zM624 872q-96 0 -193.5 -103.5t-158 -253t-60.5 -283.5q0 -164 120 -164q96 0 193.5 103.5t158 253t60.5 283.5q0 164 -120 164z" />
    <glyph glyph-name="otilde" unicode="&#xf5;" horiz-adv-x="956" 
d="M624 1380q34 0 66 -22t53.5 -48t50 -48t54.5 -22q40 0 75.5 34t90.5 110l56 -36q-86 -138 -145.5 -191t-124.5 -53q-34 0 -66 22t-53 48t-49.5 48t-55.5 22q-38 0 -75 -34.5t-93 -109.5l-56 36q85 137 146.5 190.5t125.5 53.5zM330 -20q-120 0 -197 89.5t-77 228.5
q0 86 30.5 180t85.5 178.5t125 153.5t156.5 109.5t172.5 40.5q120 0 197 -89.5t77 -228.5q0 -86 -30.5 -180t-85.5 -178.5t-125 -153.5t-156.5 -109.5t-172.5 -40.5zM624 872q-96 0 -193.5 -103.5t-158 -253t-60.5 -283.5q0 -164 120 -164q96 0 193.5 103.5t158 253
t60.5 283.5q0 164 -120 164z" />
    <glyph glyph-name="odieresis" unicode="&#xf6;" horiz-adv-x="956" 
d="M432 1252q0 48 35.5 83t84.5 35q48 0 84 -35t36 -83q0 -51 -35.5 -85.5t-84.5 -34.5q-50 0 -85 34t-35 86zM790 1252q0 48 36 83t84 35q49 0 84.5 -35t35.5 -83q0 -52 -35 -86t-85 -34q-49 0 -84.5 34.5t-35.5 85.5zM330 -20q-120 0 -197 89.5t-77 228.5q0 86 30.5 180
t85.5 178.5t125 153.5t156.5 109.5t172.5 40.5q120 0 197 -89.5t77 -228.5q0 -86 -30.5 -180t-85.5 -178.5t-125 -153.5t-156.5 -109.5t-172.5 -40.5zM624 872q-96 0 -193.5 -103.5t-158 -253t-60.5 -283.5q0 -164 120 -164q96 0 193.5 103.5t158 253t60.5 283.5
q0 164 -120 164z" />
    <glyph glyph-name="divide" unicode="&#xf7;" 
d="M652 1002q0 54 38 92t92 38q53 0 90.5 -38t37.5 -92t-37.5 -92t-90.5 -38q-54 0 -92 38t-38 92zM134 554l48 120h920l-48 -120h-920zM334 226q0 54 38 92t92 38q53 0 90.5 -38t37.5 -92t-37.5 -92t-90.5 -38q-54 0 -92 38t-38 92z" />
    <glyph glyph-name="oslash" unicode="&#xf8;" horiz-adv-x="956" 
d="M330 -20q-121 0 -196 88l-156 -162l-64 58l172 178q-30 69 -30 156q0 86 30.5 180t85.5 178.5t125 153.5t156.5 109.5t172.5 40.5q108 0 180 -72l132 136l64 -58l-144 -148q42 -75 42 -176q0 -86 -30.5 -180t-85.5 -178.5t-125 -153.5t-156.5 -109.5t-172.5 -40.5z
M624 872q-95 0 -190.5 -95.5t-156.5 -235.5t-69 -273l524 542q-30 62 -108 62zM332 68q99 0 198 103.5t159.5 252.5t60.5 282l-534 -554q24 -84 116 -84z" />
    <glyph glyph-name="ugrave" unicode="&#xf9;" horiz-adv-x="1164" 
d="M762 1400l108 -296l-48 -26l-210 250q-45 54 -17 106q22 41 67 46q57 6 90 -58q6 -10 10 -22zM586 932l-258 -574q-25 -56 -33.5 -76t-22 -53.5t-18 -51t-4.5 -31.5q0 -44 44 -44q58 0 170.5 96t211.5 219t132 203l136 320h168l-280 -660q-34 -78 -43 -103.5t-9 -44.5
q0 -28 32 -28q79 0 210 158l48 -48q-84 -109 -187 -171.5t-189 -62.5q-39 0 -63.5 20.5t-24.5 59.5q0 38 31 112.5t107 231.5h-8q-77 -106 -169.5 -199t-197 -159t-183.5 -66q-58 0 -89 30t-31 82q0 50 38 136l208 458q20 45 20 80q0 22 -29 40.5t-137 57.5l16 48l362 38z
" />
    <glyph glyph-name="uacute" unicode="&#xfa;" horiz-adv-x="1164" 
d="M908 1414q43 66 98 66q35 0 55.5 -19.5t20.5 -56.5q0 -49 -52 -92l-282 -234l-36 30zM586 932l-258 -574q-25 -56 -33.5 -76t-22 -53.5t-18 -51t-4.5 -31.5q0 -44 44 -44q58 0 170.5 96t211.5 219t132 203l136 320h168l-280 -660q-34 -78 -43 -103.5t-9 -44.5
q0 -28 32 -28q79 0 210 158l48 -48q-84 -109 -187 -171.5t-189 -62.5q-39 0 -63.5 20.5t-24.5 59.5q0 38 31 112.5t107 231.5h-8q-77 -106 -169.5 -199t-197 -159t-183.5 -66q-58 0 -89 30t-31 82q0 50 38 136l208 458q20 45 20 80q0 22 -29 40.5t-137 57.5l16 48l362 38z
" />
    <glyph glyph-name="ucircumflex" unicode="&#xfb;" horiz-adv-x="1164" 
d="M974 1436l72 -340l-50 -18l-128 252l-340 -252l-36 38l342 338q42 41 86 36t54 -54zM586 932l-258 -574q-25 -56 -33.5 -76t-22 -53.5t-18 -51t-4.5 -31.5q0 -44 44 -44q58 0 170.5 96t211.5 219t132 203l136 320h168l-280 -660q-34 -78 -43 -103.5t-9 -44.5
q0 -28 32 -28q79 0 210 158l48 -48q-84 -109 -187 -171.5t-189 -62.5q-39 0 -63.5 20.5t-24.5 59.5q0 38 31 112.5t107 231.5h-8q-77 -106 -169.5 -199t-197 -159t-183.5 -66q-58 0 -89 30t-31 82q0 50 38 136l208 458q20 45 20 80q0 22 -29 40.5t-137 57.5l16 48l362 38z
" />
    <glyph glyph-name="udieresis" unicode="&#xfc;" horiz-adv-x="1164" 
d="M546 1252q0 48 35.5 83t84.5 35q48 0 84 -35t36 -83q0 -51 -35.5 -85.5t-84.5 -34.5q-50 0 -85 34t-35 86zM904 1252q0 48 36 83t84 35q49 0 84.5 -35t35.5 -83q0 -52 -35 -86t-85 -34q-49 0 -84.5 34.5t-35.5 85.5zM586 932l-258 -574q-25 -56 -33.5 -76t-22 -53.5
t-18 -51t-4.5 -31.5q0 -44 44 -44q58 0 170.5 96t211.5 219t132 203l136 320h168l-280 -660q-34 -78 -43 -103.5t-9 -44.5q0 -28 32 -28q79 0 210 158l48 -48q-84 -109 -187 -171.5t-189 -62.5q-39 0 -63.5 20.5t-24.5 59.5q0 38 31 112.5t107 231.5h-8
q-77 -106 -169.5 -199t-197 -159t-183.5 -66q-58 0 -89 30t-31 82q0 50 38 136l208 458q20 45 20 80q0 22 -29 40.5t-137 57.5l16 48l362 38z" />
    <glyph glyph-name="yacute" unicode="&#xfd;" horiz-adv-x="988" 
d="M812 1414q43 66 98 66q35 0 55.5 -19.5t20.5 -56.5q0 -49 -52 -92l-282 -234l-36 30zM978 822q0 -93 -65.5 -226.5t-171.5 -272.5t-246 -278t-282 -246.5t-286 -175t-253 -67.5q-57 0 -96.5 29.5t-39.5 76.5q0 50 32 81t74 31q41 0 97 -39t85 -39q70 0 174.5 58
t223.5 156q33 223 53 474.5t15 385.5q-1 21 -31 36.5t-149 57.5l16 48l298 38l42 -18q8 -366 -92 -878h6q173 168 290.5 337t117.5 263q0 45 -6 100.5t-6 83.5q0 48 28 85t74 37q98 0 98 -138z" />
    <glyph glyph-name="thorn" unicode="&#xfe;" horiz-adv-x="1126" 
d="M544 1236q22 57 22 82q0 22 -28.5 38.5t-139.5 57.5l16 48l356 38l40 -18l-414 -948h8q52 75 111 145t128.5 136t143.5 105.5t137 39.5q83 0 129.5 -54t46.5 -160q0 -90 -37.5 -196t-106.5 -205.5t-156 -182t-197 -132.5t-219 -50q-97 0 -158 58l-132 -334q-9 -24 7 -31
q27 -11 207 -11l-34 -86h-528l34 86q48 0 71.5 1t40 5.5t21.5 11t11 20.5zM834 822q-67 0 -164.5 -79t-180.5 -186t-143 -219.5t-60 -175.5q0 -45 33 -69.5t85 -24.5q84 0 166 43.5t144 113.5t110 154t73 169t25 154q0 62 -21 91t-67 29z" />
    <glyph glyph-name="ydieresis" unicode="&#xff;" horiz-adv-x="988" 
d="M430 1252q0 48 35.5 83t84.5 35q48 0 84 -35t36 -83q0 -51 -35.5 -85.5t-84.5 -34.5q-50 0 -85 34t-35 86zM788 1252q0 48 36 83t84 35q49 0 84.5 -35t35.5 -83q0 -52 -35 -86t-85 -34q-49 0 -84.5 34.5t-35.5 85.5zM978 822q0 -93 -65.5 -226.5t-171.5 -272.5t-246 -278
t-282 -246.5t-286 -175t-253 -67.5q-57 0 -96.5 29.5t-39.5 76.5q0 50 32 81t74 31q41 0 97 -39t85 -39q70 0 174.5 58t223.5 156q33 223 53 474.5t15 385.5q-1 21 -31 36.5t-149 57.5l16 48l298 38l42 -18q8 -366 -92 -878h6q173 168 290.5 337t117.5 263q0 45 -6 100.5
t-6 83.5q0 48 28 85t74 37q98 0 98 -138z" />
    <glyph glyph-name="Amacron" unicode="&#x100;" horiz-adv-x="1440" 
d="M780 1492l50 120h628l-50 -120h-628zM356 88l-36 -88h-490l36 88q93 0 129 11t67 49l960 1182h140l-44 -1182q-1 -39 26.5 -49.5t121.5 -10.5l-36 -88h-532l36 88q100 0 138.5 5t52 19t15.5 52l20 324h-490l-260 -324q-26 -32 -26 -46q0 -20 33 -25t139 -5zM990 1134
l-446 -554h420l34 554h-8z" />
    <glyph glyph-name="amacron" unicode="&#x101;" horiz-adv-x="1112" 
d="M558 1172l46 116h508l-46 -116h-508zM680 362h-8q-50 -71 -105 -135t-118 -121.5t-128 -91.5t-121 -34q-77 0 -123.5 53t-46.5 143q0 128 63.5 269.5t161 254t222 186.5t237.5 74q66 0 111 -29.5t61 -76.5l76 106h130l-312 -680q-52 -116 -52 -148q0 -28 32 -28
q79 0 210 158l48 -48q-84 -109 -187 -171.5t-189 -62.5q-39 0 -63.5 20.5t-24.5 59.5q0 34 25 92.5t101 209.5zM280 98q53 0 144.5 76.5t176.5 180.5t148 221t63 190q0 51 -29.5 81.5t-86.5 30.5q-99 0 -216.5 -106.5t-198.5 -265.5t-81 -298q0 -53 21 -81.5t59 -28.5z" />
    <glyph glyph-name="Abreve" unicode="&#x102;" horiz-adv-x="1440" 
d="M1134 1570q96 0 187 64t161 182l84 -20q-94 -177 -214 -270.5t-260 -93.5q-124 0 -176 97t-2 267l84 20q-29 -119 5.5 -182.5t130.5 -63.5zM356 88l-36 -88h-490l36 88q93 0 129 11t67 49l960 1182h140l-44 -1182q-1 -39 26.5 -49.5t121.5 -10.5l-36 -88h-532l36 88
q100 0 138.5 5t52 19t15.5 52l20 324h-490l-260 -324q-26 -32 -26 -46q0 -20 33 -25t139 -5zM990 1134l-446 -554h420l34 554h-8z" />
    <glyph glyph-name="abreve" unicode="&#x103;" horiz-adv-x="1112" 
d="M818 1214q74 0 150.5 65t139.5 183l68 -20q-79 -177 -185.5 -270.5t-216.5 -93.5q-105 0 -136.5 99.5t16.5 264.5l74 20q-50 -248 90 -248zM680 362h-8q-50 -71 -105 -135t-118 -121.5t-128 -91.5t-121 -34q-77 0 -123.5 53t-46.5 143q0 128 63.5 269.5t161 254
t222 186.5t237.5 74q66 0 111 -29.5t61 -76.5l76 106h130l-312 -680q-52 -116 -52 -148q0 -28 32 -28q79 0 210 158l48 -48q-84 -109 -187 -171.5t-189 -62.5q-39 0 -63.5 20.5t-24.5 59.5q0 34 25 92.5t101 209.5zM280 98q53 0 144.5 76.5t176.5 180.5t148 221t63 190
q0 51 -29.5 81.5t-86.5 30.5q-99 0 -216.5 -106.5t-198.5 -265.5t-81 -298q0 -53 21 -81.5t59 -28.5z" />
    <glyph glyph-name="Aogonek" unicode="&#x104;" horiz-adv-x="1440" 
d="M766 -280q-55 -69 -133.5 -116.5t-154.5 -47.5q-62 0 -99 33.5t-37 92.5q0 94 101 184.5t271 169.5l20 52q100 0 138.5 5t52 19t15.5 52l20 324h-490l-260 -324q-26 -32 -26 -46q0 -20 33 -25t139 -5l-36 -88h-490l36 88q93 0 129 11t67 49l960 1182h140l-44 -1182
q-1 -39 26.5 -49.5t121.5 -10.5l-36 -88h-478q-50 -27 -86.5 -49t-76.5 -50.5t-65 -54t-41.5 -55.5t-16.5 -59q0 -72 80 -72q85 0 180 98zM990 1134l-446 -554h420l34 554h-8z" />
    <glyph glyph-name="aogonek" unicode="&#x105;" horiz-adv-x="1106" 
d="M744 -280q-55 -69 -133.5 -116.5t-154.5 -47.5q-62 0 -99 33.5t-37 92.5q0 156 276 306q-42 19 -42 72q0 34 25 92.5t101 209.5h-8q-50 -71 -105 -135t-118 -121.5t-128 -91.5t-121 -34q-77 0 -123.5 53t-46.5 143q0 128 63.5 269.5t161 254t222 186.5t237.5 74
q66 0 111 -29.5t61 -76.5l76 106h130l-312 -680q-52 -116 -52 -148q0 -28 32 -28q79 0 210 158l48 -48q-111 -145 -306 -232q-115 -52 -191.5 -119t-76.5 -131q0 -72 80 -72q85 0 180 98zM280 98q53 0 144.5 76.5t176.5 180.5t148 221t63 190q0 51 -29.5 81.5t-86.5 30.5
q-99 0 -216.5 -106.5t-198.5 -265.5t-81 -298q0 -53 21 -81.5t59 -28.5z" />
    <glyph glyph-name="Cacute" unicode="&#x106;" horiz-adv-x="1198" 
d="M960 1482l280 266q47 44 94 44q39 0 63.5 -23t24.5 -59q0 -64 -72 -100l-358 -178zM1172 906q14 326 -246 326q-108 0 -219 -71t-196.5 -184t-140 -264t-54.5 -301q0 -148 74 -227t198 -79q227 0 416 222l58 -60q-115 -140 -243.5 -214t-294.5 -74q-80 0 -151 25
t-128.5 75t-91 133t-33.5 189q0 168 71 339t184.5 302.5t266.5 214t308 82.5q177 0 262 -112l106 100h72l-152 -422h-66z" />
    <glyph glyph-name="cacute" unicode="&#x107;" horiz-adv-x="828" 
d="M848 1414q43 66 98 66q35 0 55.5 -19.5t20.5 -56.5q0 -49 -52 -92l-282 -234l-36 30zM604 874q-84 0 -176 -99t-152 -242t-60 -265q0 -90 32.5 -137t91.5 -47q136 0 304 194l56 -52q-94 -117 -199.5 -181.5t-200.5 -64.5q-118 0 -185 73.5t-67 212.5q0 111 52.5 235.5
t135 225t192 167t214.5 66.5q95 0 147.5 -45.5t52.5 -116.5q0 -50 -28.5 -83t-71.5 -33q-35 0 -54.5 20t-25.5 48t-10 56t-15 48t-33 20z" />
    <glyph glyph-name="Ccircumflex" unicode="&#x108;" horiz-adv-x="1198" 
d="M1256 1758l146 -286l-50 -40l-194 200l-398 -200l-42 40l404 304q43 30 80 23.5t54 -41.5zM1172 906q14 326 -246 326q-108 0 -219 -71t-196.5 -184t-140 -264t-54.5 -301q0 -148 74 -227t198 -79q227 0 416 222l58 -60q-115 -140 -243.5 -214t-294.5 -74q-80 0 -151 25
t-128.5 75t-91 133t-33.5 189q0 168 71 339t184.5 302.5t266.5 214t308 82.5q177 0 262 -112l106 100h72l-152 -422h-66z" />
    <glyph glyph-name="ccircumflex" unicode="&#x109;" horiz-adv-x="828" 
d="M900 1436l72 -340l-50 -18l-128 252l-340 -252l-36 38l342 338q42 41 86 36t54 -54zM604 874q-84 0 -176 -99t-152 -242t-60 -265q0 -90 32.5 -137t91.5 -47q136 0 304 194l56 -52q-94 -117 -199.5 -181.5t-200.5 -64.5q-118 0 -185 73.5t-67 212.5q0 111 52.5 235.5
t135 225t192 167t214.5 66.5q95 0 147.5 -45.5t52.5 -116.5q0 -50 -28.5 -83t-71.5 -33q-35 0 -54.5 20t-25.5 48t-10 56t-15 48t-33 20z" />
    <glyph glyph-name="Cdotaccent" unicode="&#x10a;" horiz-adv-x="1198" 
d="M998 1598q0 52 37 89t89 37t89 -37t37 -89t-37 -89t-89 -37t-89 37t-37 89zM1172 906q14 326 -246 326q-108 0 -219 -71t-196.5 -184t-140 -264t-54.5 -301q0 -148 74 -227t198 -79q227 0 416 222l58 -60q-115 -140 -243.5 -214t-294.5 -74q-80 0 -151 25t-128.5 75
t-91 133t-33.5 189q0 168 71 339t184.5 302.5t266.5 214t308 82.5q177 0 262 -112l106 100h72l-152 -422h-66z" />
    <glyph glyph-name="cdotaccent" unicode="&#x10b;" horiz-adv-x="828" 
d="M660 1294q0 52 37 89t89 37t89 -37t37 -89t-37 -89t-89 -37t-89 37t-37 89zM604 874q-84 0 -176 -99t-152 -242t-60 -265q0 -90 32.5 -137t91.5 -47q136 0 304 194l56 -52q-94 -117 -199.5 -181.5t-200.5 -64.5q-118 0 -185 73.5t-67 212.5q0 111 52.5 235.5t135 225
t192 167t214.5 66.5q95 0 147.5 -45.5t52.5 -116.5q0 -50 -28.5 -83t-71.5 -33q-35 0 -54.5 20t-25.5 48t-10 56t-15 48t-33 20z" />
    <glyph glyph-name="Ccaron" unicode="&#x10c;" horiz-adv-x="1198" 
d="M996 1466l-146 286l50 40l194 -200l398 200l42 -40l-404 -304q-43 -30 -80 -23.5t-54 41.5zM1172 906q14 326 -246 326q-108 0 -219 -71t-196.5 -184t-140 -264t-54.5 -301q0 -148 74 -227t198 -79q227 0 416 222l58 -60q-115 -140 -243.5 -214t-294.5 -74q-80 0 -151 25
t-128.5 75t-91 133t-33.5 189q0 168 71 339t184.5 302.5t266.5 214t308 82.5q177 0 262 -112l106 100h72l-152 -422h-66z" />
    <glyph glyph-name="ccaron" unicode="&#x10d;" horiz-adv-x="828" 
d="M656 1132l-72 340l50 18l128 -252l340 252l36 -38l-342 -338q-42 -41 -86 -36t-54 54zM604 874q-84 0 -176 -99t-152 -242t-60 -265q0 -90 32.5 -137t91.5 -47q136 0 304 194l56 -52q-94 -117 -199.5 -181.5t-200.5 -64.5q-118 0 -185 73.5t-67 212.5q0 111 52.5 235.5
t135 225t192 167t214.5 66.5q95 0 147.5 -45.5t52.5 -116.5q0 -50 -28.5 -83t-71.5 -33q-35 0 -54.5 20t-25.5 48t-10 56t-15 48t-33 20z" />
    <glyph glyph-name="Dcaron" unicode="&#x10e;" horiz-adv-x="1396" 
d="M944 1466l-146 286l50 40l194 -200l398 200l42 -40l-404 -304q-43 -30 -80 -23.5t-54 41.5zM406 1320h462q249 0 395.5 -121.5t146.5 -318.5q0 -116 -32.5 -227t-92.5 -208.5t-150 -179.5t-200.5 -140.5t-248 -91.5t-288.5 -33h-528l36 88q118 0 153.5 9t48.5 43
l412 1020q12 33 12 42q0 20 -29.5 25t-132.5 5zM276 92h150q153 0 284.5 48.5t222 129t155 185.5t94.5 217t30 224q0 172 -92 252t-274 80h-112z" />
    <glyph glyph-name="dcaron" unicode="&#x10f;" horiz-adv-x="1424" 
d="M672 -20q-39 0 -63.5 22.5t-24.5 61.5q0 37 23.5 101.5t88.5 202.5h-8q-290 -388 -480 -388q-78 0 -127 53.5t-49 142.5q0 132 64.5 275t163.5 254t224 183t238 72q62 0 107.5 -28t60.5 -66l150 370q22 57 22 82q0 22 -28.5 38.5t-139.5 57.5l16 48l356 38l40 -18
l-498 -1202q-32 -77 -41 -103t-9 -45q0 -28 32 -28q79 0 210 158l48 -48q-84 -109 -187 -171.5t-189 -62.5zM1346 1064l184 358q40 78 100 78q33 0 55.5 -22.5t22.5 -55.5q0 -34 -30 -70l-282 -316zM290 98q71 0 202.5 125.5t235.5 286t104 250.5q0 57 -32.5 87.5
t-95.5 30.5q-101 0 -220 -106.5t-200.5 -265.5t-81.5 -298q0 -53 23.5 -81.5t64.5 -28.5z" />
    <glyph glyph-name="Dcroat" unicode="&#x110;" horiz-adv-x="1408" 
d="M1430 880q0 -116 -32.5 -227t-92.5 -208.5t-150 -179.5t-200.5 -140.5t-248 -91.5t-288.5 -33h-528l36 88q118 0 153.5 9t48.5 43l198 488h-162l36 92h162l178 440q12 33 12 42q0 20 -29 25t-133 5l36 88h462q249 0 395.5 -121.5t146.5 -318.5zM296 92h150
q153 0 284.5 48.5t222 129t155 185.5t94.5 217t30 224q0 172 -92 252t-274 80h-112l-204 -508h312l-36 -92h-314z" />
    <glyph glyph-name="dcroat" unicode="&#x111;" horiz-adv-x="1160" 
d="M1048 214q-84 -109 -187 -171.5t-189 -62.5q-39 0 -63.5 22.5t-24.5 61.5q0 37 23.5 101.5t88.5 202.5h-8q-290 -388 -480 -388q-78 0 -127 53.5t-49 142.5q0 132 64.5 275t163.5 254t224 183t238 72q62 0 107.5 -28t60.5 -66l96 236h-290l34 86h290l20 48q22 57 22 82
q0 22 -28.5 38.5t-139.5 57.5l16 48l356 38l40 -18l-122 -294h154l-34 -86h-156l-340 -822q-32 -77 -41 -103t-9 -45q0 -28 32 -28q79 0 210 158zM290 98q71 0 202.5 125.5t235.5 286t104 250.5q0 57 -32.5 87.5t-95.5 30.5q-101 0 -220 -106.5t-200.5 -265.5t-81.5 -298
q0 -53 23.5 -81.5t64.5 -28.5z" />
    <glyph glyph-name="Emacron" unicode="&#x112;" horiz-adv-x="1264" 
d="M696 1492l50 120h628l-50 -120h-628zM406 1320h1024l-146 -402h-70q16 123 12.5 192t-38.5 93.5t-128 24.5h-326l-206 -508h128q49 0 75.5 1t55 10t42.5 18.5t35.5 37t36.5 55t43 82.5h82l-202 -500h-72q28 94 28 126q0 52 -30 65t-130 13h-128l-216 -536h270
q96 0 162.5 14.5t130 55.5t119.5 107.5t128 176.5h88l-222 -446h-1082l36 88q118 0 153.5 9t48.5 43l412 1020q12 33 12 42q0 20 -29.5 25t-132.5 5z" />
    <glyph glyph-name="emacron" unicode="&#x113;" horiz-adv-x="862" 
d="M426 1172l46 116h508l-46 -116h-508zM738 244q-90 -113 -214.5 -188.5t-245.5 -75.5q-107 0 -173.5 63.5t-66.5 178.5q0 86 33 186.5t95 197t141.5 176.5t182.5 129t208 49q77 0 126.5 -39.5t49.5 -108.5q0 -68 -43 -131t-110.5 -110t-156 -86.5t-173.5 -65t-169 -41.5
q-14 -56 -14 -114q0 -81 38.5 -121.5t107.5 -40.5q159 0 330 192zM618 866q-102 0 -210.5 -125t-163.5 -287q127 30 230 77.5t167.5 113t64.5 135.5q0 86 -88 86z" />
    <glyph glyph-name="Ebreve" unicode="&#x114;" horiz-adv-x="1264" 
d="M1028 1570q96 0 187 64t161 182l84 -20q-94 -177 -214 -270.5t-260 -93.5q-124 0 -176 97t-2 267l84 20q-29 -119 5.5 -182.5t130.5 -63.5zM406 1320h1024l-146 -402h-70q16 123 12.5 192t-38.5 93.5t-128 24.5h-326l-206 -508h128q49 0 75.5 1t55 10t42.5 18.5t35.5 37
t36.5 55t43 82.5h82l-202 -500h-72q28 94 28 126q0 52 -30 65t-130 13h-128l-216 -536h270q96 0 162.5 14.5t130 55.5t119.5 107.5t128 176.5h88l-222 -446h-1082l36 88q118 0 153.5 9t48.5 43l412 1020q12 33 12 42q0 20 -29.5 25t-132.5 5z" />
    <glyph glyph-name="ebreve" unicode="&#x115;" horiz-adv-x="862" 
d="M710 1214q74 0 150.5 65t139.5 183l68 -20q-79 -177 -185.5 -270.5t-216.5 -93.5q-105 0 -136.5 99.5t16.5 264.5l74 20q-50 -248 90 -248zM738 244q-90 -113 -214.5 -188.5t-245.5 -75.5q-107 0 -173.5 63.5t-66.5 178.5q0 86 33 186.5t95 197t141.5 176.5t182.5 129
t208 49q77 0 126.5 -39.5t49.5 -108.5q0 -68 -43 -131t-110.5 -110t-156 -86.5t-173.5 -65t-169 -41.5q-14 -56 -14 -114q0 -81 38.5 -121.5t107.5 -40.5q159 0 330 192zM618 866q-102 0 -210.5 -125t-163.5 -287q127 30 230 77.5t167.5 113t64.5 135.5q0 86 -88 86z" />
    <glyph glyph-name="Edotaccent" unicode="&#x116;" horiz-adv-x="1264" 
d="M908 1598q0 52 37 89t89 37t89 -37t37 -89t-37 -89t-89 -37t-89 37t-37 89zM406 1320h1024l-146 -402h-70q16 123 12.5 192t-38.5 93.5t-128 24.5h-326l-206 -508h128q49 0 75.5 1t55 10t42.5 18.5t35.5 37t36.5 55t43 82.5h82l-202 -500h-72q28 94 28 126q0 52 -30 65
t-130 13h-128l-216 -536h270q96 0 162.5 14.5t130 55.5t119.5 107.5t128 176.5h88l-222 -446h-1082l36 88q118 0 153.5 9t48.5 43l412 1020q12 33 12 42q0 20 -29.5 25t-132.5 5z" />
    <glyph glyph-name="edotaccent" unicode="&#x117;" horiz-adv-x="862" 
d="M622 1294q0 52 37 89t89 37t89 -37t37 -89t-37 -89t-89 -37t-89 37t-37 89zM738 244q-90 -113 -214.5 -188.5t-245.5 -75.5q-107 0 -173.5 63.5t-66.5 178.5q0 86 33 186.5t95 197t141.5 176.5t182.5 129t208 49q77 0 126.5 -39.5t49.5 -108.5q0 -68 -43 -131
t-110.5 -110t-156 -86.5t-173.5 -65t-169 -41.5q-14 -56 -14 -114q0 -81 38.5 -121.5t107.5 -40.5q159 0 330 192zM618 866q-102 0 -210.5 -125t-163.5 -287q127 30 230 77.5t167.5 113t64.5 135.5q0 86 -88 86z" />
    <glyph glyph-name="Eogonek" unicode="&#x118;" horiz-adv-x="1264" 
d="M720 -280q-55 -69 -133.5 -116.5t-154.5 -47.5q-62 0 -99 33.5t-37 92.5q0 160 298 318h-724l36 88q118 0 153.5 9t48.5 43l412 1020q12 33 12 42q0 20 -29.5 25t-132.5 5l36 88h1024l-146 -402h-70q16 123 12.5 192t-38.5 93.5t-128 24.5h-326l-206 -508h128
q49 0 75.5 1t55 10t42.5 18.5t35.5 37t36.5 55t43 82.5h82l-202 -500h-72q28 94 28 126q0 52 -30 65t-130 13h-128l-216 -536h270q96 0 162.5 14.5t130 55.5t119.5 107.5t128 176.5h88l-222 -446h-246q-50 -27 -86.5 -49t-76.5 -50.5t-65 -54t-41.5 -55.5t-16.5 -59
q0 -72 80 -72q85 0 180 98z" />
    <glyph glyph-name="eogonek" unicode="&#x119;" horiz-adv-x="862" 
d="M416 -280q-55 -69 -133.5 -116.5t-154.5 -47.5q-62 0 -99 33.5t-37 92.5q0 78 70 154t192 144q-98 8 -157 71t-59 171q0 86 33 186.5t95 197t141.5 176.5t182.5 129t208 49q77 0 126.5 -39.5t49.5 -108.5q0 -68 -43 -131t-110.5 -110t-156 -86.5t-173.5 -65t-169 -41.5
q-14 -56 -14 -114q0 -81 38.5 -121.5t107.5 -40.5q159 0 330 192l54 -50q-63 -79 -151 -143.5t-183 -104.5q-120 -52 -204 -123t-84 -141q0 -72 80 -72q85 0 180 98zM618 866q-102 0 -210.5 -125t-163.5 -287q127 30 230 77.5t167.5 113t64.5 135.5q0 86 -88 86z" />
    <glyph glyph-name="Ecaron" unicode="&#x11a;" horiz-adv-x="1264" 
d="M920 1466l-146 286l50 40l194 -200l398 200l42 -40l-404 -304q-43 -30 -80 -23.5t-54 41.5zM406 1320h1024l-146 -402h-70q16 123 12.5 192t-38.5 93.5t-128 24.5h-326l-206 -508h128q49 0 75.5 1t55 10t42.5 18.5t35.5 37t36.5 55t43 82.5h82l-202 -500h-72
q28 94 28 126q0 52 -30 65t-130 13h-128l-216 -536h270q96 0 162.5 14.5t130 55.5t119.5 107.5t128 176.5h88l-222 -446h-1082l36 88q118 0 153.5 9t48.5 43l412 1020q12 33 12 42q0 20 -29.5 25t-132.5 5z" />
    <glyph glyph-name="ecaron" unicode="&#x11b;" horiz-adv-x="862" 
d="M590 1132l-72 340l50 18l128 -252l340 252l36 -38l-342 -338q-42 -41 -86 -36t-54 54zM738 244q-90 -113 -214.5 -188.5t-245.5 -75.5q-107 0 -173.5 63.5t-66.5 178.5q0 86 33 186.5t95 197t141.5 176.5t182.5 129t208 49q77 0 126.5 -39.5t49.5 -108.5q0 -68 -43 -131
t-110.5 -110t-156 -86.5t-173.5 -65t-169 -41.5q-14 -56 -14 -114q0 -81 38.5 -121.5t107.5 -40.5q159 0 330 192zM618 866q-102 0 -210.5 -125t-163.5 -287q127 30 230 77.5t167.5 113t64.5 135.5q0 86 -88 86z" />
    <glyph glyph-name="Gcircumflex" unicode="&#x11c;" horiz-adv-x="1370" 
d="M1276 1758l146 -286l-50 -40l-194 200l-398 -200l-42 40l404 304q43 30 80 23.5t54 -41.5zM614 88q147 0 244 68l124 308q10 28 10 42q0 20 -32.5 25t-139.5 5l36 88h548l-36 -88q-113 0 -145 -9t-45 -43l-138 -340q-133 -89 -234.5 -126.5t-229.5 -37.5
q-195 0 -320.5 122t-125.5 324q0 176 73.5 345.5t191 293t272.5 199.5t311 76q89 0 165.5 -31t114.5 -81l106 100h72l-152 -422h-66q7 153 -67 239.5t-193 86.5q-91 0 -184 -41t-172.5 -117t-142.5 -174t-99 -221.5t-36 -250.5q0 -164 76 -252t214 -88z" />
    <glyph glyph-name="gcircumflex" unicode="&#x11d;" horiz-adv-x="1028" 
d="M962 1436l72 -340l-50 -18l-128 252l-340 -252l-36 38l342 338q42 41 86 36t54 -54zM776 -94q0 -60 -38 -121.5t-105.5 -112.5t-173 -83.5t-229.5 -32.5q-197 0 -323.5 75.5t-126.5 182.5q0 213 400 268q-68 42 -68 104q0 61 47.5 102.5t134.5 75.5q-49 35 -76.5 88.5
t-27.5 115.5q0 70 33 140t88.5 126t136.5 91t170 35q72 0 130 -33.5t90 -90.5q122 142 216 142q47 0 77.5 -26.5t30.5 -73.5q0 -51 -31 -85.5t-71 -34.5q-26 0 -45 12t-27 26t-18.5 26t-21.5 12q-35 0 -88 -50q10 -40 10 -72q0 -70 -33 -140t-88.5 -126t-136.5 -91t-170 -35
q-48 0 -96 16q-56 -26 -81 -46.5t-25 -45.5q0 -28 39 -49t177 -59q182 -51 251 -95.5t69 -134.5zM610 884q-70 0 -133 -58.5t-98 -141.5t-35 -160q0 -59 29.5 -93.5t76.5 -34.5q70 0 133 58.5t98 141.5t35 160q0 59 -29.5 93.5t-76.5 34.5zM-70 -172q0 -82 89 -132t219 -50
q174 0 273 55t99 143q0 52 -53 85t-187 77l-114 38q-129 -12 -227.5 -69.5t-98.5 -146.5z" />
    <glyph glyph-name="Gbreve" unicode="&#x11e;" horiz-adv-x="1370" 
d="M1132 1570q96 0 187 64t161 182l84 -20q-94 -177 -214 -270.5t-260 -93.5q-124 0 -176 97t-2 267l84 20q-29 -119 5.5 -182.5t130.5 -63.5zM614 88q147 0 244 68l124 308q10 28 10 42q0 20 -32.5 25t-139.5 5l36 88h548l-36 -88q-113 0 -145 -9t-45 -43l-138 -340
q-133 -89 -234.5 -126.5t-229.5 -37.5q-195 0 -320.5 122t-125.5 324q0 176 73.5 345.5t191 293t272.5 199.5t311 76q89 0 165.5 -31t114.5 -81l106 100h72l-152 -422h-66q7 153 -67 239.5t-193 86.5q-91 0 -184 -41t-172.5 -117t-142.5 -174t-99 -221.5t-36 -250.5
q0 -164 76 -252t214 -88z" />
    <glyph glyph-name="gbreve" unicode="&#x11f;" horiz-adv-x="1028" 
d="M794 1214q74 0 150.5 65t139.5 183l68 -20q-79 -177 -185.5 -270.5t-216.5 -93.5q-105 0 -136.5 99.5t16.5 264.5l74 20q-50 -248 90 -248zM776 -94q0 -60 -38 -121.5t-105.5 -112.5t-173 -83.5t-229.5 -32.5q-197 0 -323.5 75.5t-126.5 182.5q0 213 400 268
q-68 42 -68 104q0 61 47.5 102.5t134.5 75.5q-49 35 -76.5 88.5t-27.5 115.5q0 70 33 140t88.5 126t136.5 91t170 35q72 0 130 -33.5t90 -90.5q122 142 216 142q47 0 77.5 -26.5t30.5 -73.5q0 -51 -31 -85.5t-71 -34.5q-26 0 -45 12t-27 26t-18.5 26t-21.5 12q-35 0 -88 -50
q10 -40 10 -72q0 -70 -33 -140t-88.5 -126t-136.5 -91t-170 -35q-48 0 -96 16q-56 -26 -81 -46.5t-25 -45.5q0 -28 39 -49t177 -59q182 -51 251 -95.5t69 -134.5zM610 884q-70 0 -133 -58.5t-98 -141.5t-35 -160q0 -59 29.5 -93.5t76.5 -34.5q70 0 133 58.5t98 141.5t35 160
q0 59 -29.5 93.5t-76.5 34.5zM-70 -172q0 -82 89 -132t219 -50q174 0 273 55t99 143q0 52 -53 85t-187 77l-114 38q-129 -12 -227.5 -69.5t-98.5 -146.5z" />
    <glyph glyph-name="Gdotaccent" unicode="&#x120;" horiz-adv-x="1370" 
d="M998 1598q0 52 37 89t89 37t89 -37t37 -89t-37 -89t-89 -37t-89 37t-37 89zM614 88q147 0 244 68l124 308q10 28 10 42q0 20 -32.5 25t-139.5 5l36 88h548l-36 -88q-113 0 -145 -9t-45 -43l-138 -340q-133 -89 -234.5 -126.5t-229.5 -37.5q-195 0 -320.5 122t-125.5 324
q0 176 73.5 345.5t191 293t272.5 199.5t311 76q89 0 165.5 -31t114.5 -81l106 100h72l-152 -422h-66q7 153 -67 239.5t-193 86.5q-91 0 -184 -41t-172.5 -117t-142.5 -174t-99 -221.5t-36 -250.5q0 -164 76 -252t214 -88z" />
    <glyph glyph-name="gdotaccent" unicode="&#x121;" horiz-adv-x="1028" 
d="M706 1294q0 52 37 89t89 37t89 -37t37 -89t-37 -89t-89 -37t-89 37t-37 89zM776 -94q0 -60 -38 -121.5t-105.5 -112.5t-173 -83.5t-229.5 -32.5q-197 0 -323.5 75.5t-126.5 182.5q0 213 400 268q-68 42 -68 104q0 61 47.5 102.5t134.5 75.5q-49 35 -76.5 88.5
t-27.5 115.5q0 70 33 140t88.5 126t136.5 91t170 35q72 0 130 -33.5t90 -90.5q122 142 216 142q47 0 77.5 -26.5t30.5 -73.5q0 -51 -31 -85.5t-71 -34.5q-26 0 -45 12t-27 26t-18.5 26t-21.5 12q-35 0 -88 -50q10 -40 10 -72q0 -70 -33 -140t-88.5 -126t-136.5 -91t-170 -35
q-48 0 -96 16q-56 -26 -81 -46.5t-25 -45.5q0 -28 39 -49t177 -59q182 -51 251 -95.5t69 -134.5zM610 884q-70 0 -133 -58.5t-98 -141.5t-35 -160q0 -59 29.5 -93.5t76.5 -34.5q70 0 133 58.5t98 141.5t35 160q0 59 -29.5 93.5t-76.5 34.5zM-70 -172q0 -82 89 -132t219 -50
q174 0 273 55t99 143q0 52 -53 85t-187 77l-114 38q-129 -12 -227.5 -69.5t-98.5 -146.5z" />
    <glyph glyph-name="uni0122" unicode="&#x122;" horiz-adv-x="1370" 
d="M614 88q147 0 244 68l124 308q10 28 10 42q0 20 -32.5 25t-139.5 5l36 88h548l-36 -88q-113 0 -145 -9t-45 -43l-138 -340q-133 -89 -234.5 -126.5t-229.5 -37.5q-195 0 -320.5 122t-125.5 324q0 176 73.5 345.5t191 293t272.5 199.5t311 76q89 0 165.5 -31t114.5 -81
l106 100h72l-152 -422h-66q7 153 -67 239.5t-193 86.5q-91 0 -184 -41t-172.5 -117t-142.5 -174t-99 -221.5t-36 -250.5q0 -164 76 -252t214 -88zM210 -422q94 7 150 35t56 65q0 14 -15.5 24t-34.5 17t-34.5 26t-15.5 47q0 45 34.5 74.5t87.5 29.5q52 0 88 -34t36 -88
q0 -111 -101 -188.5t-245 -77.5z" />
    <glyph glyph-name="uni0123" unicode="&#x123;" horiz-adv-x="1028" 
d="M1034 1416q-94 -7 -150 -35t-56 -65q0 -14 15.5 -24t34.5 -17t34.5 -26t15.5 -47q0 -45 -34.5 -74.5t-87.5 -29.5q-52 0 -88 34t-36 88q0 111 101 188.5t245 77.5zM776 -94q0 -60 -38 -121.5t-105.5 -112.5t-173 -83.5t-229.5 -32.5q-197 0 -323.5 75.5t-126.5 182.5
q0 213 400 268q-68 42 -68 104q0 61 47.5 102.5t134.5 75.5q-49 35 -76.5 88.5t-27.5 115.5q0 70 33 140t88.5 126t136.5 91t170 35q72 0 130 -33.5t90 -90.5q122 142 216 142q47 0 77.5 -26.5t30.5 -73.5q0 -51 -31 -85.5t-71 -34.5q-26 0 -45 12t-27 26t-18.5 26t-21.5 12
q-35 0 -88 -50q10 -40 10 -72q0 -70 -33 -140t-88.5 -126t-136.5 -91t-170 -35q-48 0 -96 16q-56 -26 -81 -46.5t-25 -45.5q0 -28 39 -49t177 -59q182 -51 251 -95.5t69 -134.5zM610 884q-70 0 -133 -58.5t-98 -141.5t-35 -160q0 -59 29.5 -93.5t76.5 -34.5q70 0 133 58.5
t98 141.5t35 160q0 59 -29.5 93.5t-76.5 34.5zM-70 -172q0 -82 89 -132t219 -50q174 0 273 55t99 143q0 52 -53 85t-187 77l-114 38q-129 -12 -227.5 -69.5t-98.5 -146.5z" />
    <glyph glyph-name="Hcircumflex" unicode="&#x124;" horiz-adv-x="1510" 
d="M1336 1758l146 -286l-50 -40l-194 200l-398 -200l-42 40l404 304q43 30 80 23.5t54 -41.5zM454 88l-36 -88h-548l36 88q118 0 153.5 9t48.5 43l412 1020q12 33 12 42q0 20 -29.5 25t-132.5 5l36 88h548l-36 -88q-118 0 -153.5 -9t-48.5 -43l-186 -460h652l178 440
q12 33 12 42q0 20 -29 25t-133 5l36 88h548l-36 -88q-118 0 -153.5 -9t-48.5 -43l-412 -1020q-12 -33 -12 -42q0 -20 29 -25t133 -5l-36 -88h-548l36 88q118 0 153.5 9t48.5 43l198 488h-652l-190 -468q-12 -33 -12 -42q0 -20 29 -25t133 -5z" />
    <glyph glyph-name="hcircumflex" unicode="&#x125;" horiz-adv-x="1156" 
d="M1130 1918l146 -286l-50 -40l-194 200l-398 -200l-42 40l404 304q43 30 80 23.5t54 -41.5zM772 1482l-400 -940h8q147 190 298 304t266 114q58 0 89 -29.5t31 -82.5q0 -54 -36 -136l-200 -432q-55 -119 -59 -136q-1 -7 -1 -14q0 -28 32 -28q83 0 216 160l48 -48
q-83 -108 -186 -171t-184 -63q-47 0 -76.5 24.5t-29.5 65.5q0 47 36 124l170 380q32 71 44.5 100t23 62t10.5 52q0 44 -44 44q-59 0 -174 -94.5t-217 -216.5t-135 -201l-132 -320h-170l506 1236q22 57 22 82q0 22 -28.5 38.5t-139.5 57.5l16 48l356 38z" />
    <glyph glyph-name="Hbar" unicode="&#x126;" horiz-adv-x="1550" 
d="M474 88l-36 -88h-548l36 88q118 0 153.5 9t48.5 43l302 748h-162l38 92h162l72 180q12 33 12 42q0 20 -29 25t-133 5l36 88h548l-36 -88q-118 0 -153.5 -9t-48.5 -43l-80 -200h652l72 180q12 33 12 42q0 20 -29 25t-133 5l36 88h548l-36 -88q-118 0 -153.5 -9t-48.5 -43
l-80 -200h160l-38 -92h-160l-294 -728q-12 -33 -12 -42q0 -20 29 -25t133 -5l-36 -88h-548l36 88q118 0 153.5 9t48.5 43l172 428h-652l-164 -408q-12 -33 -12 -42q0 -20 29 -25t133 -5zM526 660h652l92 228h-652z" />
    <glyph glyph-name="hbar" unicode="&#x127;" horiz-adv-x="1158" 
d="M1064 214q-83 -108 -186 -171t-184 -63q-47 0 -76.5 24.5t-29.5 65.5q0 47 36 124l170 380q32 71 44.5 100t23 62t10.5 52q0 44 -44 44q-59 0 -174 -94.5t-217 -216.5t-135 -201l-132 -320h-170l452 1102h-162l34 86h162l20 48q22 57 22 82q0 22 -28.5 38.5t-139.5 57.5
l16 48l356 38l40 -18l-126 -294h286l-34 -86h-288l-238 -560h8q147 190 298 304t266 114q58 0 89 -29.5t31 -82.5q0 -54 -36 -136l-200 -432q-55 -119 -59 -136q-1 -7 -1 -14q0 -28 32 -28q83 0 216 160z" />
    <glyph glyph-name="Itilde" unicode="&#x128;" horiz-adv-x="670" 
d="M1138 1728q-84 -140 -150 -202t-132 -62q-32 0 -64 24t-54.5 52t-53.5 52t-62 24q-21 0 -41 -10.5t-44 -37t-39 -46t-46 -62.5l-60 36q84 140 150 202t132 62q32 0 64 -24t54.5 -52t53.5 -52t62 -24q21 0 41 10.5t44 37t39 46t46 62.5zM454 88l-36 -88h-548l36 88
q118 0 153.5 9t48.5 43l412 1020q12 33 12 42q0 20 -29.5 25t-132.5 5l36 88h548l-36 -88q-118 0 -153.5 -9t-48.5 -43l-412 -1020q-12 -33 -12 -42q0 -20 29 -25t133 -5z" />
    <glyph glyph-name="itilde" unicode="&#x129;" horiz-adv-x="636" 
d="M484 1380q34 0 66 -22t53.5 -48t50 -48t54.5 -22q40 0 75.5 34t90.5 110l56 -36q-86 -138 -145.5 -191t-124.5 -53q-34 0 -66 22t-53 48t-49.5 48t-55.5 22q-38 0 -75 -34.5t-93 -109.5l-56 36q85 137 146.5 190.5t125.5 53.5zM590 932l-286 -652q-38 -85 -47 -109
t-9 -41q0 -28 32 -28q83 0 216 160l48 -48q-83 -108 -185 -171t-183 -63q-47 0 -76.5 24.5t-29.5 65.5t36 124l208 492q22 52 22 84q0 14 -10 24t-45.5 26t-112.5 44l16 48l364 38z" />
    <glyph glyph-name="Imacron" unicode="&#x12a;" horiz-adv-x="670" 
d="M432 1492l50 120h628l-50 -120h-628zM454 88l-36 -88h-548l36 88q118 0 153.5 9t48.5 43l412 1020q12 33 12 42q0 20 -29.5 25t-132.5 5l36 88h548l-36 -88q-118 0 -153.5 -9t-48.5 -43l-412 -1020q-12 -33 -12 -42q0 -20 29 -25t133 -5z" />
    <glyph glyph-name="imacron" unicode="&#x12b;" horiz-adv-x="636" 
d="M270 1172l46 116h508l-46 -116h-508zM590 932l-286 -652q-38 -85 -47 -109t-9 -41q0 -28 32 -28q83 0 216 160l48 -48q-83 -108 -185 -171t-183 -63q-47 0 -76.5 24.5t-29.5 65.5t36 124l208 492q22 52 22 84q0 14 -10 24t-45.5 26t-112.5 44l16 48l364 38z" />
    <glyph glyph-name="Ibreve" unicode="&#x12c;" horiz-adv-x="670" 
d="M764 1570q96 0 187 64t161 182l84 -20q-94 -177 -214 -270.5t-260 -93.5q-124 0 -176 97t-2 267l84 20q-29 -119 5.5 -182.5t130.5 -63.5zM454 88l-36 -88h-548l36 88q118 0 153.5 9t48.5 43l412 1020q12 33 12 42q0 20 -29.5 25t-132.5 5l36 88h548l-36 -88
q-118 0 -153.5 -9t-48.5 -43l-412 -1020q-12 -33 -12 -42q0 -20 29 -25t133 -5z" />
    <glyph glyph-name="ibreve" unicode="&#x12d;" horiz-adv-x="636" 
d="M550 1214q74 0 150.5 65t139.5 183l68 -20q-79 -177 -185.5 -270.5t-216.5 -93.5q-105 0 -136.5 99.5t16.5 264.5l74 20q-50 -248 90 -248zM590 932l-286 -652q-38 -85 -47 -109t-9 -41q0 -28 32 -28q83 0 216 160l48 -48q-83 -108 -185 -171t-183 -63q-47 0 -76.5 24.5
t-29.5 65.5t36 124l208 492q22 52 22 84q0 14 -10 24t-45.5 26t-112.5 44l16 48l364 38z" />
    <glyph glyph-name="Iogonek" unicode="&#x12e;" horiz-adv-x="670" 
d="M280 -280q-55 -69 -133.5 -116.5t-154.5 -47.5q-62 0 -99 33.5t-37 92.5q0 160 298 318h-284l36 88q118 0 153.5 9t48.5 43l412 1020q12 33 12 42q0 20 -29.5 25t-132.5 5l36 88h548l-36 -88q-118 0 -153.5 -9t-48.5 -43l-412 -1020q-12 -33 -12 -42q0 -20 29 -25t133 -5
l-36 -88h-152q-50 -27 -86.5 -49t-76.5 -50.5t-65 -54t-41.5 -55.5t-16.5 -59q0 -72 80 -72q85 0 180 98z" />
    <glyph glyph-name="iogonek" unicode="&#x12f;" horiz-adv-x="636" 
d="M460 1294q0 52 37 89t89 37t89 -37t37 -89t-37 -89t-89 -37t-89 37t-37 89zM70 70q0 41 36 124l208 492q22 52 22 84q0 14 -10 24t-45.5 26t-112.5 44l16 48l364 38l42 -18l-286 -652q-38 -85 -47 -109t-9 -41q0 -28 32 -28q83 0 216 160l48 -48q-106 -138 -306 -232
q-112 -52 -187 -119t-75 -131q0 -72 80 -72q85 0 180 98l40 -38q-55 -69 -133.5 -116.5t-154.5 -47.5q-62 0 -99 33.5t-37 92.5q0 156 276 306q-23 11 -40.5 32t-17.5 50z" />
    <glyph glyph-name="Idotaccent" unicode="&#x130;" horiz-adv-x="670" 
d="M644 1598q0 52 37 89t89 37t89 -37t37 -89t-37 -89t-89 -37t-89 37t-37 89zM454 88l-36 -88h-548l36 88q118 0 153.5 9t48.5 43l412 1020q12 33 12 42q0 20 -29.5 25t-132.5 5l36 88h548l-36 -88q-118 0 -153.5 -9t-48.5 -43l-412 -1020q-12 -33 -12 -42q0 -20 29 -25
t133 -5z" />
    <glyph glyph-name="dotlessi" unicode="&#x131;" horiz-adv-x="636" 
d="M590 932l-286 -652q-38 -85 -47 -109t-9 -41q0 -28 32 -28q83 0 216 160l48 -48q-83 -108 -185 -171t-183 -63q-47 0 -76.5 24.5t-29.5 65.5t36 124l208 492q22 52 22 84q0 14 -10 24t-45.5 26t-112.5 44l16 48l364 38z" />
    <glyph glyph-name="Jcircumflex" unicode="&#x134;" horiz-adv-x="668" 
d="M936 1758l146 -286l-50 -40l-194 200l-398 -200l-42 40l404 304q43 30 80 23.5t54 -41.5zM714 1180l-468 -1158q-39 -97 -92.5 -179.5t-120.5 -147.5t-150.5 -102t-172.5 -37q-76 0 -122 36.5t-46 87.5q0 49 34 80.5t80 31.5q31 0 55.5 -20t37.5 -44t34.5 -44t46.5 -20
q49 0 93 65t101 209l494 1222q12 33 12 42q0 20 -29 25t-133 5l36 88h548l-36 -88q-118 0 -153.5 -9t-48.5 -43z" />
    <glyph glyph-name="jcircumflex" unicode="&#x135;" horiz-adv-x="588" 
d="M732 1436l72 -340l-50 -18l-128 252l-340 -252l-36 38l342 338q42 41 86 36t54 -54zM608 932l-386 -904q-44 -103 -98.5 -186t-121.5 -148.5t-149.5 -101.5t-172.5 -36q-70 0 -116 34t-46 82q0 42 26 68t68 26q28 0 53 -16t40.5 -35t38 -35t46.5 -16q75 0 138.5 87.5
t155.5 310.5l254 624q22 52 22 84q-1 15 -11 25t-44 25t-113 44l16 48l358 38z" />
    <glyph glyph-name="uni0136" unicode="&#x136;" horiz-adv-x="1396" 
d="M454 88l-36 -88h-548l36 88q118 0 153.5 9t48.5 43l412 1020q12 33 12 42q0 20 -29.5 25t-132.5 5l36 88h548l-36 -88q-118 0 -153.5 -9t-48.5 -43l-216 -534l710 508q36 26 36 46q0 19 -33 25.5t-125 6.5l36 88h548l-36 -88q-102 0 -145 -12.5t-95 -47.5l-580 -406
l256 -612q9 -22 22 -33t52.5 -20t113.5 -13l-36 -88h-540l36 88q88 0 124 9t36 35q0 17 -8 36l-200 496l-230 -162l-138 -342q-12 -33 -12 -42q0 -20 29 -25t133 -5zM174 -422q94 7 150 35t56 65q0 14 -15.5 24t-34.5 17t-34.5 26t-15.5 47q0 45 34.5 74.5t87.5 29.5
q52 0 88 -34t36 -88q0 -111 -101 -188.5t-245 -77.5z" />
    <glyph glyph-name="uni0137" unicode="&#x137;" horiz-adv-x="1140" 
d="M1026 232q-97 -121 -200 -186.5t-182 -65.5q-48 0 -78.5 36.5t-37.5 107.5l-24 272q-115 -18 -188 -18l-144 -378h-170l506 1236q22 57 22 82q0 22 -28.5 38.5t-139.5 57.5l16 48l356 38l40 -18l-332 -770h8q66 59 112 95.5t106.5 75.5t120 58t119.5 19q74 0 122 -44
t48 -114q0 -84 -63.5 -159.5t-162 -129t-222.5 -87.5l46 -258q7 -37 20.5 -52.5t37.5 -15.5q87 0 244 180zM798 838q-81 0 -199 -76t-203 -174l-56 -146q148 5 279.5 47t212 111t80.5 146q0 92 -114 92zM94 -422q94 7 150 35t56 65q0 14 -15.5 24t-34.5 17t-34.5 26
t-15.5 47q0 45 34.5 74.5t87.5 29.5q52 0 88 -34t36 -88q0 -111 -101 -188.5t-245 -77.5z" />
    <glyph glyph-name="kgreenlandic" unicode="&#x138;" horiz-adv-x="1168" 
d="M1054 232q-97 -121 -200 -186.5t-182 -65.5q-48 0 -78.5 36.5t-37.5 107.5l-24 272q-115 -18 -188 -18l-144 -378h-170l268 686q22 57 22 82q0 22 -25 38.5t-123 57.5l16 48l336 38l40 -18l-94 -220h8q66 59 112 95.5t106.5 75.5t120 58t119.5 19q74 0 122 -44t48 -114
q0 -84 -63.5 -159.5t-162 -129t-222.5 -87.5l46 -258q7 -37 20.5 -52.5t37.5 -15.5q87 0 244 180zM826 838q-81 0 -199 -76t-203 -174l-56 -146q148 5 279.5 47t212 111t80.5 146q0 92 -114 92z" />
    <glyph glyph-name="Lacute" unicode="&#x139;" horiz-adv-x="1206" 
d="M736 1482l280 266q47 44 94 44q39 0 63.5 -23t24.5 -59q0 -64 -72 -100l-358 -178zM912 0h-1042l36 88q118 0 153.5 9t48.5 43l412 1020q12 33 12 42q0 20 -29.5 25t-132.5 5l36 88h546l-36 -88q-82 0 -118.5 -3.5t-53.5 -14t-28 -34.5l-438 -1088h228q186 0 297.5 72.5
t242.5 281.5h88z" />
    <glyph glyph-name="lacute" unicode="&#x13a;" horiz-adv-x="612" 
d="M606 1622l280 266q47 44 94 44q39 0 63.5 -23t24.5 -59q0 -64 -72 -100l-358 -178zM770 1482l-498 -1202q-5 -12 -14 -34q-39 -97 -40 -116q0 -28 32 -28q79 0 212 160l48 -48q-84 -109 -183 -171.5t-179 -62.5q-47 0 -76.5 24.5t-29.5 65.5q0 34 36 124l426 1042
q22 57 22 82q0 22 -28.5 38.5t-139.5 57.5l16 48l356 38z" />
    <glyph glyph-name="uni013B" unicode="&#x13b;" horiz-adv-x="1206" 
d="M912 0h-1042l36 88q118 0 153.5 9t48.5 43l412 1020q12 33 12 42q0 20 -29.5 25t-132.5 5l36 88h546l-36 -88q-82 0 -118.5 -3.5t-53.5 -14t-28 -34.5l-438 -1088h228q186 0 297.5 72.5t242.5 281.5h88zM168 -422q94 7 150 35t56 65q0 14 -15.5 24t-34.5 17t-34.5 26
t-15.5 47q0 45 34.5 74.5t87.5 29.5q52 0 88 -34t36 -88q0 -111 -101 -188.5t-245 -77.5z" />
    <glyph glyph-name="uni013C" unicode="&#x13c;" horiz-adv-x="612" 
d="M770 1482l-498 -1202q-5 -12 -14 -34q-39 -97 -40 -116q0 -28 32 -28q79 0 212 160l48 -48q-84 -109 -183 -171.5t-179 -62.5q-47 0 -76.5 24.5t-29.5 65.5q0 34 36 124l426 1042q22 57 22 82q0 22 -28.5 38.5t-139.5 57.5l16 48l356 38zM-182 -422q94 7 150 35t56 65
q0 14 -15.5 24t-34.5 17t-34.5 26t-15.5 47q0 45 34.5 74.5t87.5 29.5q52 0 88 -34t36 -88q0 -111 -101 -188.5t-245 -77.5z" />
    <glyph glyph-name="Lcaron" unicode="&#x13d;" horiz-adv-x="1206" 
d="M1020 904l184 358q40 78 100 78q33 0 55.5 -22.5t22.5 -55.5q0 -34 -30 -70l-282 -316zM912 0h-1042l36 88q118 0 153.5 9t48.5 43l412 1020q12 33 12 42q0 20 -29.5 25t-132.5 5l36 88h546l-36 -88q-82 0 -118.5 -3.5t-53.5 -14t-28 -34.5l-438 -1088h228
q186 0 297.5 72.5t242.5 281.5h88z" />
    <glyph glyph-name="lcaron" unicode="&#x13e;" horiz-adv-x="892" 
d="M770 1482l-498 -1202q-5 -12 -14 -34q-39 -97 -40 -116q0 -28 32 -28q79 0 212 160l48 -48q-84 -109 -183 -171.5t-179 -62.5q-47 0 -76.5 24.5t-29.5 65.5q0 34 36 124l426 1042q22 57 22 82q0 22 -28.5 38.5t-139.5 57.5l16 48l356 38zM794 1064l184 358q40 78 100 78
q33 0 55.5 -22.5t22.5 -55.5q0 -34 -30 -70l-282 -316z" />
    <glyph glyph-name="Ldot" unicode="&#x13f;" horiz-adv-x="1206" 
d="M912 0h-1042l36 88q118 0 153.5 9t48.5 43l412 1020q12 33 12 42q0 20 -29.5 25t-132.5 5l36 88h546l-36 -88q-82 0 -118.5 -3.5t-53.5 -14t-28 -34.5l-438 -1088h228q186 0 297.5 72.5t242.5 281.5h88zM836 778q0 52 37 89t89 37t89 -37t37 -89t-37 -89t-89 -37t-89 37
t-37 89z" />
    <glyph glyph-name="ldot" unicode="&#x140;" horiz-adv-x="858" 
d="M770 1482l-498 -1202q-5 -12 -14 -34q-39 -97 -40 -116q0 -28 32 -28q79 0 212 160l48 -48q-84 -109 -183 -171.5t-179 -62.5q-47 0 -76.5 24.5t-29.5 65.5q0 34 36 124l426 1042q22 57 22 82q0 22 -28.5 38.5t-139.5 57.5l16 48l356 38zM682 674q0 52 37 89t89 37
t89 -37t37 -89t-37 -89t-89 -37t-89 37t-37 89z" />
    <glyph glyph-name="Lslash" unicode="&#x141;" horiz-adv-x="1224" 
d="M1154 446l-222 -446h-1042l36 88q118 0 153.5 9t48.5 43l166 408l-208 -82v100l256 102l198 492q12 33 12 42q0 20 -29 25t-133 5l36 88h546l-36 -88q-82 0 -118.5 -3.5t-53.5 -14t-28 -34.5l-170 -422l306 122v-100l-354 -142l-220 -546h228q186 0 297.5 72.5
t242.5 281.5h88z" />
    <glyph glyph-name="lslash" unicode="&#x142;" horiz-adv-x="700" 
d="M556 214q-84 -109 -183 -171.5t-179 -62.5q-47 0 -76.5 24.5t-29.5 65.5q0 34 36 124l174 428l-222 -118v96l272 144l202 492q22 57 22 82q0 22 -28.5 38.5t-139.5 57.5l16 48l356 38l40 -18l-268 -646l238 124v-96l-288 -150l-180 -434q-5 -12 -14 -34q-39 -97 -40 -116
q0 -28 32 -28q79 0 212 160z" />
    <glyph glyph-name="Nacute" unicode="&#x143;" horiz-adv-x="1436" 
d="M962 1482l280 266q47 44 94 44q39 0 63.5 -23t24.5 -59q0 -64 -72 -100l-358 -178zM1502 1180l-482 -1196h-98l-282 1170h-8l-402 -994q-12 -33 -12 -42q0 -20 29 -25t133 -5l-36 -88h-474l36 88q118 0 153.5 9t48.5 43l412 1020q12 33 12 42q0 20 -29.5 25t-132.5 5
l36 88h380l234 -1032h8l352 872q12 33 12 42q0 20 -29 25t-133 5l36 88h474l-36 -88q-118 0 -153.5 -9t-48.5 -43z" />
    <glyph glyph-name="nacute" unicode="&#x144;" horiz-adv-x="1180" 
d="M954 1414q43 66 98 66q35 0 55.5 -19.5t20.5 -56.5q0 -49 -52 -92l-282 -234l-36 30zM556 932l-162 -390h8q147 190 298 304t266 114q58 0 89 -29.5t31 -82.5q0 -57 -36 -136l-200 -432q-55 -119 -59 -136q-1 -7 -1 -14q0 -28 32 -28q83 0 216 160l48 -48
q-83 -108 -186 -171t-184 -63q-47 0 -76.5 24.5t-29.5 65.5q0 47 36 124l174 388q43 97 58.5 137.5t15.5 68.5q0 44 -44 44q-59 0 -174 -94.5t-217 -216.5t-135 -201l-132 -320h-170l288 686q22 52 22 84q0 14 -10 24t-45.5 26t-112.5 44l16 48l334 38z" />
    <glyph glyph-name="uni0145" unicode="&#x145;" horiz-adv-x="1436" 
d="M1502 1180l-482 -1196h-98l-282 1170h-8l-402 -994q-12 -33 -12 -42q0 -20 29 -25t133 -5l-36 -88h-474l36 88q118 0 153.5 9t48.5 43l412 1020q12 33 12 42q0 20 -29.5 25t-132.5 5l36 88h380l234 -1032h8l352 872q12 33 12 42q0 20 -29 25t-133 5l36 88h474l-36 -88
q-118 0 -153.5 -9t-48.5 -43zM314 -422q94 7 150 35t56 65q0 14 -15.5 24t-34.5 17t-34.5 26t-15.5 47q0 45 34.5 74.5t87.5 29.5q52 0 88 -34t36 -88q0 -111 -101 -188.5t-245 -77.5z" />
    <glyph glyph-name="uni0146" unicode="&#x146;" horiz-adv-x="1180" 
d="M556 932l-162 -390h8q147 190 298 304t266 114q58 0 89 -29.5t31 -82.5q0 -57 -36 -136l-200 -432q-55 -119 -59 -136q-1 -7 -1 -14q0 -28 32 -28q83 0 216 160l48 -48q-83 -108 -186 -171t-184 -63q-47 0 -76.5 24.5t-29.5 65.5q0 47 36 124l174 388q43 97 58.5 137.5
t15.5 68.5q0 44 -44 44q-59 0 -174 -94.5t-217 -216.5t-135 -201l-132 -320h-170l288 686q22 52 22 84q0 14 -10 24t-45.5 26t-112.5 44l16 48l334 38zM134 -422q94 7 150 35t56 65q0 14 -15.5 24t-34.5 17t-34.5 26t-15.5 47q0 45 34.5 74.5t87.5 29.5q52 0 88 -34t36 -88
q0 -111 -101 -188.5t-245 -77.5z" />
    <glyph glyph-name="Ncaron" unicode="&#x147;" horiz-adv-x="1436" 
d="M1008 1466l-146 286l50 40l194 -200l398 200l42 -40l-404 -304q-43 -30 -80 -23.5t-54 41.5zM1502 1180l-482 -1196h-98l-282 1170h-8l-402 -994q-12 -33 -12 -42q0 -20 29 -25t133 -5l-36 -88h-474l36 88q118 0 153.5 9t48.5 43l412 1020q12 33 12 42q0 20 -29.5 25
t-132.5 5l36 88h380l234 -1032h8l352 872q12 33 12 42q0 20 -29 25t-133 5l36 88h474l-36 -88q-118 0 -153.5 -9t-48.5 -43z" />
    <glyph glyph-name="ncaron" unicode="&#x148;" horiz-adv-x="1180" 
d="M712 1132l-72 340l50 18l128 -252l340 252l36 -38l-342 -338q-42 -41 -86 -36t-54 54zM556 932l-162 -390h8q147 190 298 304t266 114q58 0 89 -29.5t31 -82.5q0 -57 -36 -136l-200 -432q-55 -119 -59 -136q-1 -7 -1 -14q0 -28 32 -28q83 0 216 160l48 -48
q-83 -108 -186 -171t-184 -63q-47 0 -76.5 24.5t-29.5 65.5q0 47 36 124l174 388q43 97 58.5 137.5t15.5 68.5q0 44 -44 44q-59 0 -174 -94.5t-217 -216.5t-135 -201l-132 -320h-170l288 686q22 52 22 84q0 14 -10 24t-45.5 26t-112.5 44l16 48l334 38z" />
    <glyph glyph-name="Eng" unicode="&#x14a;" horiz-adv-x="1436" 
d="M1038 28q-87 -214 -222.5 -343t-311.5 -129q-70 0 -116 34t-46 82q0 42 26 68t68 26q28 0 53 -16t40.5 -35t38 -35t46.5 -16q77 0 148 79.5t152 270.5l-274 1140h-8l-402 -994q-12 -33 -12 -42q0 -20 29 -25t133 -5l-36 -88h-474l36 88q118 0 153.5 9t48.5 43l412 1020
q12 33 12 42q0 20 -29.5 25t-132.5 5l36 88h380l234 -1032h8l352 872q12 33 12 42q0 20 -29 25t-133 5l36 88h474l-36 -88q-118 0 -153.5 -9t-48.5 -43z" />
    <glyph glyph-name="eng" unicode="&#x14b;" horiz-adv-x="1114" 
d="M730 28q-221 -472 -546 -472q-70 0 -116 34t-46 82q0 42 26 68t68 26q28 0 53 -16t40.5 -35t38 -35t46.5 -16q74 0 137 86.5t161 311.5l226 520q4 9 11 25q57 130 62 166q1 8 1 15q0 44 -44 44q-59 0 -174 -94.5t-217 -216.5t-135 -201l-132 -320h-170l288 686
q22 52 22 84q0 14 -10 24t-45.5 26t-112.5 44l16 48l334 38l42 -18l-162 -390h8q147 190 298 304t266 114q58 0 89 -29.5t31 -82.5q0 -57 -36 -136z" />
    <glyph glyph-name="Omacron" unicode="&#x14c;" horiz-adv-x="1322" 
d="M664 1492l50 120h628l-50 -120h-628zM940 1340q186 0 300 -118.5t114 -323.5q0 -113 -39 -240t-114 -246.5t-173 -216.5t-227 -156t-265 -59q-186 0 -300 118.5t-114 323.5q0 113 39 240t114 246.5t173 216.5t227 156t265 59zM926 1232q-115 0 -228 -78.5t-196 -201
t-134.5 -277.5t-51.5 -303q0 -284 234 -284q115 0 228 78.5t196 201t134.5 277.5t51.5 303q0 284 -234 284z" />
    <glyph glyph-name="omacron" unicode="&#x14d;" horiz-adv-x="956" 
d="M448 1172l46 116h508l-46 -116h-508zM330 -20q-120 0 -197 89.5t-77 228.5q0 86 30.5 180t85.5 178.5t125 153.5t156.5 109.5t172.5 40.5q120 0 197 -89.5t77 -228.5q0 -86 -30.5 -180t-85.5 -178.5t-125 -153.5t-156.5 -109.5t-172.5 -40.5zM624 872
q-96 0 -193.5 -103.5t-158 -253t-60.5 -283.5q0 -164 120 -164q96 0 193.5 103.5t158 253t60.5 283.5q0 164 -120 164z" />
    <glyph glyph-name="Obreve" unicode="&#x14e;" horiz-adv-x="1322" 
d="M1036 1570q96 0 187 64t161 182l84 -20q-94 -177 -214 -270.5t-260 -93.5q-124 0 -176 97t-2 267l84 20q-29 -119 5.5 -182.5t130.5 -63.5zM940 1340q186 0 300 -118.5t114 -323.5q0 -113 -39 -240t-114 -246.5t-173 -216.5t-227 -156t-265 -59q-186 0 -300 118.5
t-114 323.5q0 113 39 240t114 246.5t173 216.5t227 156t265 59zM926 1232q-115 0 -228 -78.5t-196 -201t-134.5 -277.5t-51.5 -303q0 -284 234 -284q115 0 228 78.5t196 201t134.5 277.5t51.5 303q0 284 -234 284z" />
    <glyph glyph-name="obreve" unicode="&#x14f;" horiz-adv-x="956" 
d="M734 1214q74 0 150.5 65t139.5 183l68 -20q-79 -177 -185.5 -270.5t-216.5 -93.5q-105 0 -136.5 99.5t16.5 264.5l74 20q-50 -248 90 -248zM330 -20q-120 0 -197 89.5t-77 228.5q0 86 30.5 180t85.5 178.5t125 153.5t156.5 109.5t172.5 40.5q120 0 197 -89.5t77 -228.5
q0 -86 -30.5 -180t-85.5 -178.5t-125 -153.5t-156.5 -109.5t-172.5 -40.5zM624 872q-96 0 -193.5 -103.5t-158 -253t-60.5 -283.5q0 -164 120 -164q96 0 193.5 103.5t158 253t60.5 283.5q0 164 -120 164z" />
    <glyph glyph-name="Ohungarumlaut" unicode="&#x150;" horiz-adv-x="1322" 
d="M962 1730q44 66 100 66q33 0 55.5 -22t22.5 -54q0 -53 -58 -94l-264 -194l-38 32zM1324 1730q44 66 100 66q33 0 55.5 -22t22.5 -54q0 -53 -58 -94l-264 -194l-38 32zM940 1340q186 0 300 -118.5t114 -323.5q0 -113 -39 -240t-114 -246.5t-173 -216.5t-227 -156t-265 -59
q-186 0 -300 118.5t-114 323.5q0 113 39 240t114 246.5t173 216.5t227 156t265 59zM926 1232q-115 0 -228 -78.5t-196 -201t-134.5 -277.5t-51.5 -303q0 -284 234 -284q115 0 228 78.5t196 201t134.5 277.5t51.5 303q0 284 -234 284z" />
    <glyph glyph-name="ohungarumlaut" unicode="&#x151;" horiz-adv-x="956" 
d="M682 1414q43 66 98 66q33 0 51.5 -20.5t18.5 -51.5q0 -49 -52 -92l-276 -238l-36 30zM1012 1414q43 66 98 66q33 0 51.5 -20.5t18.5 -51.5q0 -49 -52 -92l-276 -238l-36 30zM330 -20q-120 0 -197 89.5t-77 228.5q0 86 30.5 180t85.5 178.5t125 153.5t156.5 109.5
t172.5 40.5q120 0 197 -89.5t77 -228.5q0 -86 -30.5 -180t-85.5 -178.5t-125 -153.5t-156.5 -109.5t-172.5 -40.5zM624 872q-96 0 -193.5 -103.5t-158 -253t-60.5 -283.5q0 -164 120 -164q96 0 193.5 103.5t158 253t60.5 283.5q0 164 -120 164z" />
    <glyph glyph-name="OE" unicode="&#x152;" horiz-adv-x="1984" 
d="M132 440q0 116 32.5 227t92.5 208.5t150 179.5t200.5 140.5t248 91.5t288.5 33h1006l-146 -402h-70q16 123 12.5 192t-38.5 93.5t-128 24.5h-326l-206 -508h128q49 0 75.5 1t55 10t42.5 18.5t35.5 37t36.5 55t43 82.5h82l-202 -500h-72q28 94 28 126q0 52 -30 65t-130 13
h-128l-216 -536h270q96 0 162.5 14.5t130 55.5t119.5 107.5t128 176.5h88l-222 -446h-998q-249 0 -395.5 121.5t-146.5 318.5zM1266 1228h-150q-153 0 -284.5 -48.5t-222 -129t-155 -185.5t-94.5 -217t-30 -224q0 -172 92 -252t274 -80h112z" />
    <glyph glyph-name="oe" unicode="&#x153;" horiz-adv-x="1462" 
d="M1338 244q-90 -113 -214.5 -188.5t-245.5 -75.5q-78 0 -136 50t-72 128q-76 -81 -162 -129.5t-168 -48.5q-122 0 -202 92.5t-80 235.5q0 84 29 176.5t82.5 176t121.5 151.5t153.5 108t171.5 40q92 0 157.5 -58t88.5 -158q178 216 430 216q81 0 131.5 -39.5t50.5 -108.5
q0 -68 -43 -131t-110.5 -110t-156 -86.5t-173.5 -65t-169 -41.5q-14 -56 -14 -114q0 -81 38.5 -121.5t107.5 -40.5q159 0 330 192zM342 68q95 0 189 100.5t151.5 247.5t57.5 282q0 174 -126 174q-95 0 -189 -100.5t-151.5 -247.5t-57.5 -282q0 -174 126 -174zM1218 866
q-102 0 -210.5 -125t-163.5 -287q127 30 230 77.5t167.5 113t64.5 135.5q0 86 -88 86z" />
    <glyph glyph-name="Racute" unicode="&#x154;" horiz-adv-x="1318" 
d="M936 1482l280 266q47 44 94 44q39 0 63.5 -23t24.5 -59q0 -64 -72 -100l-358 -178zM452 88l-36 -88h-546l36 88q118 0 153.5 9t48.5 43l412 1020q12 33 12 42q0 20 -29.5 25t-132.5 5l36 88h546q199 0 306.5 -64.5t107.5 -193.5q0 -166 -146 -284t-374 -154l108 -430
q14 -62 45.5 -79.5t116.5 -22.5l76 -4l-36 -88h-338l-116 550q-7 36 -26.5 49t-57.5 13h-132l-184 -452q-12 -33 -12 -42q0 -20 29 -25t133 -5zM524 704h186q199 0 329.5 98.5t130.5 257.5q0 92 -62.5 130t-187.5 38h-184z" />
    <glyph glyph-name="racute" unicode="&#x155;" horiz-adv-x="890" 
d="M856 1414q43 66 98 66q35 0 55.5 -19.5t20.5 -56.5q0 -49 -52 -92l-282 -234l-36 30zM556 932l-188 -438h8q5 8 17 24q38 54 59.5 83.5t62 83.5t68 85.5t66.5 72.5t69.5 63t64.5 38t63 16q55 0 80.5 -34t25.5 -84q0 -61 -39.5 -106.5t-88.5 -45.5q-28 0 -43 14t-18 30
t-12 30t-25 14q-62 0 -193.5 -162t-230.5 -348l-110 -268h-170l288 686q22 52 22 84q0 14 -10 24t-45.5 26t-112.5 44l16 48l334 38z" />
    <glyph glyph-name="uni0156" unicode="&#x156;" horiz-adv-x="1318" 
d="M452 88l-36 -88h-546l36 88q118 0 153.5 9t48.5 43l412 1020q12 33 12 42q0 20 -29.5 25t-132.5 5l36 88h546q199 0 306.5 -64.5t107.5 -193.5q0 -166 -146 -284t-374 -154l108 -430q14 -62 45.5 -79.5t116.5 -22.5l76 -4l-36 -88h-338l-116 550q-7 36 -26.5 49t-57.5 13
h-132l-184 -452q-12 -33 -12 -42q0 -20 29 -25t133 -5zM524 704h186q199 0 329.5 98.5t130.5 257.5q0 92 -62.5 130t-187.5 38h-184zM268 -422q94 7 150 35t56 65q0 14 -15.5 24t-34.5 17t-34.5 26t-15.5 47q0 45 34.5 74.5t87.5 29.5q52 0 88 -34t36 -88
q0 -111 -101 -188.5t-245 -77.5z" />
    <glyph glyph-name="uni0157" unicode="&#x157;" horiz-adv-x="890" 
d="M556 932l-188 -438h8q5 8 17 24q38 54 59.5 83.5t62 83.5t68 85.5t66.5 72.5t69.5 63t64.5 38t63 16q55 0 80.5 -34t25.5 -84q0 -61 -39.5 -106.5t-88.5 -45.5q-28 0 -43 14t-18 30t-12 30t-25 14q-62 0 -193.5 -162t-230.5 -348l-110 -268h-170l288 686q22 52 22 84
q0 14 -10 24t-45.5 26t-112.5 44l16 48l334 38zM-186 -422q94 7 150 35t56 65q0 14 -15.5 24t-34.5 17t-34.5 26t-15.5 47q0 45 34.5 74.5t87.5 29.5q52 0 88 -34t36 -88q0 -111 -101 -188.5t-245 -77.5z" />
    <glyph glyph-name="Rcaron" unicode="&#x158;" horiz-adv-x="1318" 
d="M934 1466l-146 286l50 40l194 -200l398 200l42 -40l-404 -304q-43 -30 -80 -23.5t-54 41.5zM452 88l-36 -88h-546l36 88q118 0 153.5 9t48.5 43l412 1020q12 33 12 42q0 20 -29.5 25t-132.5 5l36 88h546q199 0 306.5 -64.5t107.5 -193.5q0 -166 -146 -284t-374 -154
l108 -430q14 -62 45.5 -79.5t116.5 -22.5l76 -4l-36 -88h-338l-116 550q-7 36 -26.5 49t-57.5 13h-132l-184 -452q-12 -33 -12 -42q0 -20 29 -25t133 -5zM524 704h186q199 0 329.5 98.5t130.5 257.5q0 92 -62.5 130t-187.5 38h-184z" />
    <glyph glyph-name="rcaron" unicode="&#x159;" horiz-adv-x="890" 
d="M612 1132l-72 340l50 18l128 -252l340 252l36 -38l-342 -338q-42 -41 -86 -36t-54 54zM556 932l-188 -438h8q5 8 17 24q38 54 59.5 83.5t62 83.5t68 85.5t66.5 72.5t69.5 63t64.5 38t63 16q55 0 80.5 -34t25.5 -84q0 -61 -39.5 -106.5t-88.5 -45.5q-28 0 -43 14t-18 30
t-12 30t-25 14q-62 0 -193.5 -162t-230.5 -348l-110 -268h-170l288 686q22 52 22 84q0 14 -10 24t-45.5 26t-112.5 44l16 48l334 38z" />
    <glyph glyph-name="Sacute" unicode="&#x15a;" horiz-adv-x="1102" 
d="M742 1482l280 266q47 44 94 44q39 0 63.5 -23t24.5 -59q0 -64 -72 -100l-358 -178zM1238 1320l-128 -408h-70q-2 139 -73.5 229.5t-202.5 90.5q-124 0 -195 -67t-71 -169q0 -52 27 -94.5t69.5 -73t94.5 -59t104 -60.5t94.5 -69t69.5 -93.5t27 -126.5q0 -113 -70 -215
t-189 -163.5t-255 -61.5q-108 0 -195 42t-137 102l-104 -124h-80l158 446h72q0 -92 24.5 -163t66.5 -113t93.5 -63t109.5 -21q145 0 233.5 79.5t88.5 196.5q0 59 -26 106t-67.5 79t-91.5 60.5t-100 58t-91.5 64t-67.5 86.5t-26 118q0 164 127.5 285t310.5 121
q93 0 176.5 -37t125.5 -91l96 108h72z" />
    <glyph glyph-name="sacute" unicode="&#x15b;" horiz-adv-x="758" 
d="M778 1414q43 66 98 66q35 0 55.5 -19.5t20.5 -56.5q0 -49 -52 -92l-282 -234l-36 30zM580 288q0 -130 -97.5 -219t-252.5 -89q-110 0 -187 53.5t-77 120.5q0 38 23 63t65 25q32 0 52.5 -19t32.5 -46t26 -54t43 -46t74 -19q70 0 111 41t41 107q0 48 -21.5 95.5t-52.5 88.5
t-62 83t-52.5 94t-21.5 105q0 114 91 201t225 87q108 0 165 -49.5t57 -114.5q0 -34 -22 -58t-62 -24q-27 0 -46.5 16t-32 39t-25.5 46t-36 39t-56 16q-53 0 -84.5 -36.5t-31.5 -91.5q0 -37 22 -82t53.5 -89t63 -89t53.5 -96.5t22 -97.5z" />
    <glyph glyph-name="Scircumflex" unicode="&#x15c;" horiz-adv-x="1102" 
d="M1098 1758l146 -286l-50 -40l-194 200l-398 -200l-42 40l404 304q43 30 80 23.5t54 -41.5zM1238 1320l-128 -408h-70q-2 139 -73.5 229.5t-202.5 90.5q-124 0 -195 -67t-71 -169q0 -52 27 -94.5t69.5 -73t94.5 -59t104 -60.5t94.5 -69t69.5 -93.5t27 -126.5
q0 -113 -70 -215t-189 -163.5t-255 -61.5q-108 0 -195 42t-137 102l-104 -124h-80l158 446h72q0 -92 24.5 -163t66.5 -113t93.5 -63t109.5 -21q145 0 233.5 79.5t88.5 196.5q0 59 -26 106t-67.5 79t-91.5 60.5t-100 58t-91.5 64t-67.5 86.5t-26 118q0 164 127.5 285
t310.5 121q93 0 176.5 -37t125.5 -91l96 108h72z" />
    <glyph glyph-name="scircumflex" unicode="&#x15d;" horiz-adv-x="758" 
d="M804 1436l72 -340l-50 -18l-128 252l-340 -252l-36 38l342 338q42 41 86 36t54 -54zM580 288q0 -130 -97.5 -219t-252.5 -89q-110 0 -187 53.5t-77 120.5q0 38 23 63t65 25q32 0 52.5 -19t32.5 -46t26 -54t43 -46t74 -19q70 0 111 41t41 107q0 48 -21.5 95.5t-52.5 88.5
t-62 83t-52.5 94t-21.5 105q0 114 91 201t225 87q108 0 165 -49.5t57 -114.5q0 -34 -22 -58t-62 -24q-27 0 -46.5 16t-32 39t-25.5 46t-36 39t-56 16q-53 0 -84.5 -36.5t-31.5 -91.5q0 -37 22 -82t53.5 -89t63 -89t53.5 -96.5t22 -97.5z" />
    <glyph glyph-name="uni015E" unicode="&#x15e;" horiz-adv-x="1102" 
d="M522 -224q0 -114 -121.5 -183.5t-296.5 -36.5l28 70q113 -19 184.5 14t71.5 90q0 40 -41.5 59t-122.5 25l122 182q-135 37 -208 128l-104 -124h-80l158 446h72q0 -92 24.5 -163t66.5 -113t93.5 -63t109.5 -21q145 0 233.5 79.5t88.5 196.5q0 59 -26 106t-67.5 79
t-91.5 60.5t-100 58t-91.5 64t-67.5 86.5t-26 118q0 164 127.5 285t310.5 121q93 0 176.5 -37t125.5 -91l96 108h72l-128 -408h-70q-2 139 -73.5 229.5t-202.5 90.5q-124 0 -195 -67t-71 -169q0 -52 27 -94.5t69.5 -73t94.5 -59t104 -60.5t94.5 -69t69.5 -93.5t27 -126.5
q0 -113 -70 -215t-189 -163.5t-255 -61.5q-20 0 -60 4l-50 -74q74 -9 118 -43.5t44 -90.5z" />
    <glyph glyph-name="uni015F" unicode="&#x15f;" horiz-adv-x="758" 
d="M328 -224q0 -114 -121.5 -183.5t-296.5 -36.5l28 70q113 -19 184.5 14t71.5 90q0 40 -41.5 59t-122.5 25l118 176q-80 18 -131 64.5t-51 99.5q0 38 23 63t65 25q32 0 52.5 -19t32.5 -46t26 -54t43 -46t74 -19q70 0 111 41t41 107q0 48 -21.5 95.5t-52.5 88.5t-62 83
t-52.5 94t-21.5 105q0 114 91 201t225 87q108 0 165 -49.5t57 -114.5q0 -34 -22 -58t-62 -24q-27 0 -46.5 16t-32 39t-25.5 46t-36 39t-56 16q-53 0 -84.5 -36.5t-31.5 -91.5q0 -37 22 -82t53.5 -89t63 -89t53.5 -96.5t22 -97.5q0 -130 -97.5 -219t-252.5 -89h-16l-48 -70
q74 -9 118 -43.5t44 -90.5z" />
    <glyph glyph-name="Scaron" unicode="&#x160;" horiz-adv-x="1102" 
d="M840 1466l-146 286l50 40l194 -200l398 200l42 -40l-404 -304q-43 -30 -80 -23.5t-54 41.5zM1238 1320l-128 -408h-70q-2 139 -73.5 229.5t-202.5 90.5q-124 0 -195 -67t-71 -169q0 -52 27 -94.5t69.5 -73t94.5 -59t104 -60.5t94.5 -69t69.5 -93.5t27 -126.5
q0 -113 -70 -215t-189 -163.5t-255 -61.5q-108 0 -195 42t-137 102l-104 -124h-80l158 446h72q0 -92 24.5 -163t66.5 -113t93.5 -63t109.5 -21q145 0 233.5 79.5t88.5 196.5q0 59 -26 106t-67.5 79t-91.5 60.5t-100 58t-91.5 64t-67.5 86.5t-26 118q0 164 127.5 285
t310.5 121q93 0 176.5 -37t125.5 -91l96 108h72z" />
    <glyph glyph-name="scaron" unicode="&#x161;" horiz-adv-x="758" 
d="M552 1132l-72 340l50 18l128 -252l340 252l36 -38l-342 -338q-42 -41 -86 -36t-54 54zM580 288q0 -130 -97.5 -219t-252.5 -89q-110 0 -187 53.5t-77 120.5q0 38 23 63t65 25q32 0 52.5 -19t32.5 -46t26 -54t43 -46t74 -19q70 0 111 41t41 107q0 48 -21.5 95.5
t-52.5 88.5t-62 83t-52.5 94t-21.5 105q0 114 91 201t225 87q108 0 165 -49.5t57 -114.5q0 -34 -22 -58t-62 -24q-27 0 -46.5 16t-32 39t-25.5 46t-36 39t-56 16q-53 0 -84.5 -36.5t-31.5 -91.5q0 -37 22 -82t53.5 -89t63 -89t53.5 -96.5t22 -97.5z" />
    <glyph glyph-name="Tcommaaccent" unicode="&#x162;" horiz-adv-x="1412" 
d="M642 -224q0 -114 -121.5 -183.5t-296.5 -36.5l28 70q113 -19 184.5 14t71.5 90q0 40 -41.5 59t-122.5 25l126 186h-262l36 88h34q118 0 152.5 9t47.5 43l440 1088h-170q-46 0 -79 -4.5t-66 -21.5t-56 -34.5t-57.5 -59t-62 -79.5t-77.5 -111h-86l182 402h1208l-146 -402
h-70q16 123 12.5 192t-38.5 93.5t-128 24.5h-178l-436 -1078q-8 -19 -8 -30q0 -19 33.5 -25.5t130.5 -6.5h34l-36 -88h-282l-62 -90q74 -9 118 -43.5t44 -90.5z" />
    <glyph glyph-name="tcommaaccent" unicode="&#x163;" horiz-adv-x="730" 
d="M292 -224q0 -114 -121.5 -183.5t-296.5 -36.5l28 70q113 -19 184.5 14t71.5 90q0 40 -41.5 59t-122.5 25l118 174q-54 24 -54 82q0 44 32 124l266 648h-152l38 98h154l104 256l148 38h30l-120 -294h242l-38 -98h-244l-228 -554q-50 -119 -50 -146q0 -30 32 -30
q47 0 141 68.5t161 149.5l48 -48q-85 -111 -213.5 -200.5t-230.5 -99.5l-48 -72q74 -9 118 -43.5t44 -90.5z" />
    <glyph glyph-name="Tcaron" unicode="&#x164;" horiz-adv-x="1412" 
d="M1012 1466l-146 286l50 40l194 -200l398 200l42 -40l-404 -304q-43 -30 -80 -23.5t-54 41.5zM1284 1228h-178l-436 -1078q-8 -19 -8 -30q0 -19 33.5 -25.5t130.5 -6.5h34l-36 -88h-616l36 88h34q118 0 152.5 9t47.5 43l440 1088h-170q-46 0 -79 -4.5t-66 -21.5t-56 -34.5
t-57.5 -59t-62 -79.5t-77.5 -111h-86l182 402h1208l-146 -402h-70q16 123 12.5 192t-38.5 93.5t-128 24.5z" />
    <glyph glyph-name="tcaron" unicode="&#x165;" horiz-adv-x="730" 
d="M736 1104l184 358q40 78 100 78q33 0 55.5 -22.5t22.5 -55.5q0 -34 -30 -70l-282 -316zM622 282q-90 -117 -227 -209.5t-239 -92.5q-42 0 -70 24.5t-28 65.5q0 44 32 124l266 648h-152l38 98h154l104 256l148 38h30l-120 -294h242l-38 -98h-244l-228 -554
q-50 -119 -50 -146q0 -30 32 -30q47 0 141 68.5t161 149.5z" />
    <glyph glyph-name="Tbar" unicode="&#x166;" horiz-adv-x="1412" 
d="M860 88l-36 -88h-616l36 88h34q118 0 152.5 9t47.5 43l198 488h-260l36 92h260l206 508h-170q-46 0 -79 -4.5t-66 -21.5t-56 -34.5t-57.5 -59t-62 -79.5t-77.5 -111h-86l182 402h1208l-146 -402h-70q16 123 12.5 192t-38.5 93.5t-128 24.5h-178l-206 -508h260l-36 -92
h-260l-194 -478q-8 -19 -8 -30q0 -19 33.5 -25.5t130.5 -6.5h34z" />
    <glyph glyph-name="tbar" unicode="&#x167;" horiz-adv-x="770" 
d="M642 282q-90 -117 -227 -209.5t-239 -92.5q-42 0 -70 24.5t-28 65.5q0 44 32 124l126 306h-150l36 90h150l104 252h-152l38 98h154l104 256l148 38h30l-120 -294h242l-38 -98h-244l-104 -252h242l-36 -90h-244l-86 -212q-50 -119 -50 -146q0 -30 32 -30q47 0 141 68.5
t161 149.5z" />
    <glyph glyph-name="Utilde" unicode="&#x168;" horiz-adv-x="1464" 
d="M1592 1728q-84 -140 -150 -202t-132 -62q-32 0 -64 24t-54.5 52t-53.5 52t-62 24q-21 0 -41 -10.5t-44 -37t-39 -46t-46 -62.5l-60 36q84 140 150 202t132 62q32 0 64 -24t54.5 -52t53.5 -52t62 -24q21 0 41 10.5t44 37t39 46t46 62.5zM1398 1160q12 33 12 42
q0 20 -29 25t-133 5l36 88h474l-36 -88q-118 0 -153.5 -9t-48.5 -43l-282 -700q-98 -242 -260.5 -371t-383.5 -129q-176 0 -284 88.5t-108 243.5q0 93 44 202l260 646q12 33 12 42q0 20 -29 25t-133 5l36 88h552l-36 -88q-118 0 -153.5 -9t-48.5 -43l-274 -678
q-42 -108 -42 -186q0 -104 67.5 -157t190.5 -53q169 0 286 98.5t198 297.5z" />
    <glyph glyph-name="utilde" unicode="&#x169;" horiz-adv-x="1164" 
d="M736 1380q34 0 66 -22t53.5 -48t50 -48t54.5 -22q40 0 75.5 34t90.5 110l56 -36q-86 -138 -145.5 -191t-124.5 -53q-34 0 -66 22t-53 48t-49.5 48t-55.5 22q-38 0 -75 -34.5t-93 -109.5l-56 36q85 137 146.5 190.5t125.5 53.5zM586 932l-258 -574q-25 -56 -33.5 -76
t-22 -53.5t-18 -51t-4.5 -31.5q0 -44 44 -44q58 0 170.5 96t211.5 219t132 203l136 320h168l-280 -660q-34 -78 -43 -103.5t-9 -44.5q0 -28 32 -28q79 0 210 158l48 -48q-84 -109 -187 -171.5t-189 -62.5q-39 0 -63.5 20.5t-24.5 59.5q0 38 31 112.5t107 231.5h-8
q-77 -106 -169.5 -199t-197 -159t-183.5 -66q-58 0 -89 30t-31 82q0 50 38 136l208 458q20 45 20 80q0 22 -29 40.5t-137 57.5l16 48l362 38z" />
    <glyph glyph-name="Umacron" unicode="&#x16a;" horiz-adv-x="1464" 
d="M868 1492l50 120h628l-50 -120h-628zM1398 1160q12 33 12 42q0 20 -29 25t-133 5l36 88h474l-36 -88q-118 0 -153.5 -9t-48.5 -43l-282 -700q-98 -242 -260.5 -371t-383.5 -129q-176 0 -284 88.5t-108 243.5q0 93 44 202l260 646q12 33 12 42q0 20 -29 25t-133 5l36 88
h552l-36 -88q-118 0 -153.5 -9t-48.5 -43l-274 -678q-42 -108 -42 -186q0 -104 67.5 -157t190.5 -53q169 0 286 98.5t198 297.5z" />
    <glyph glyph-name="umacron" unicode="&#x16b;" horiz-adv-x="1164" 
d="M562 1172l46 116h508l-46 -116h-508zM586 932l-258 -574q-25 -56 -33.5 -76t-22 -53.5t-18 -51t-4.5 -31.5q0 -44 44 -44q58 0 170.5 96t211.5 219t132 203l136 320h168l-280 -660q-34 -78 -43 -103.5t-9 -44.5q0 -28 32 -28q79 0 210 158l48 -48q-84 -109 -187 -171.5
t-189 -62.5q-39 0 -63.5 20.5t-24.5 59.5q0 38 31 112.5t107 231.5h-8q-77 -106 -169.5 -199t-197 -159t-183.5 -66q-58 0 -89 30t-31 82q0 50 38 136l208 458q20 45 20 80q0 22 -29 40.5t-137 57.5l16 48l362 38z" />
    <glyph glyph-name="Ubreve" unicode="&#x16c;" horiz-adv-x="1464" 
d="M1214 1570q96 0 187 64t161 182l84 -20q-94 -177 -214 -270.5t-260 -93.5q-124 0 -176 97t-2 267l84 20q-29 -119 5.5 -182.5t130.5 -63.5zM1398 1160q12 33 12 42q0 20 -29 25t-133 5l36 88h474l-36 -88q-118 0 -153.5 -9t-48.5 -43l-282 -700q-98 -242 -260.5 -371
t-383.5 -129q-176 0 -284 88.5t-108 243.5q0 93 44 202l260 646q12 33 12 42q0 20 -29 25t-133 5l36 88h552l-36 -88q-118 0 -153.5 -9t-48.5 -43l-274 -678q-42 -108 -42 -186q0 -104 67.5 -157t190.5 -53q169 0 286 98.5t198 297.5z" />
    <glyph glyph-name="ubreve" unicode="&#x16d;" horiz-adv-x="1164" 
d="M806 1214q74 0 150.5 65t139.5 183l68 -20q-79 -177 -185.5 -270.5t-216.5 -93.5q-105 0 -136.5 99.5t16.5 264.5l74 20q-50 -248 90 -248zM586 932l-258 -574q-25 -56 -33.5 -76t-22 -53.5t-18 -51t-4.5 -31.5q0 -44 44 -44q58 0 170.5 96t211.5 219t132 203l136 320
h168l-280 -660q-34 -78 -43 -103.5t-9 -44.5q0 -28 32 -28q79 0 210 158l48 -48q-84 -109 -187 -171.5t-189 -62.5q-39 0 -63.5 20.5t-24.5 59.5q0 38 31 112.5t107 231.5h-8q-77 -106 -169.5 -199t-197 -159t-183.5 -66q-58 0 -89 30t-31 82q0 50 38 136l208 458
q20 45 20 80q0 22 -29 40.5t-137 57.5l16 48l362 38z" />
    <glyph glyph-name="Uring" unicode="&#x16e;" horiz-adv-x="1464" 
d="M1412 1652q0 -106 -78.5 -180t-187.5 -74q-86 0 -140 57.5t-54 142.5q0 106 78 180t188 74q85 0 139.5 -57.5t54.5 -142.5zM1324 1654q0 50 -31 82t-81 32q-76 0 -124 -49t-48 -123q0 -50 31 -82t81 -32q76 0 124 49t48 123zM1398 1160q12 33 12 42q0 20 -29 25t-133 5
l36 88h474l-36 -88q-118 0 -153.5 -9t-48.5 -43l-282 -700q-98 -242 -260.5 -371t-383.5 -129q-176 0 -284 88.5t-108 243.5q0 93 44 202l260 646q12 33 12 42q0 20 -29 25t-133 5l36 88h552l-36 -88q-118 0 -153.5 -9t-48.5 -43l-274 -678q-42 -108 -42 -186
q0 -104 67.5 -157t190.5 -53q169 0 286 98.5t198 297.5z" />
    <glyph glyph-name="uring" unicode="&#x16f;" horiz-adv-x="1164" 
d="M1016 1328q0 -96 -71.5 -163t-170.5 -67q-77 0 -126.5 52.5t-49.5 129.5q0 96 71.5 163t170.5 67q77 0 126.5 -52.5t49.5 -129.5zM930 1328q0 44 -27 72t-71 28q-65 0 -106.5 -42t-41.5 -106q0 -44 27 -72t71 -28q65 0 106.5 42t41.5 106zM586 932l-258 -574
q-25 -56 -33.5 -76t-22 -53.5t-18 -51t-4.5 -31.5q0 -44 44 -44q58 0 170.5 96t211.5 219t132 203l136 320h168l-280 -660q-34 -78 -43 -103.5t-9 -44.5q0 -28 32 -28q79 0 210 158l48 -48q-84 -109 -187 -171.5t-189 -62.5q-39 0 -63.5 20.5t-24.5 59.5q0 38 31 112.5
t107 231.5h-8q-77 -106 -169.5 -199t-197 -159t-183.5 -66q-58 0 -89 30t-31 82q0 50 38 136l208 458q20 45 20 80q0 22 -29 40.5t-137 57.5l16 48l362 38z" />
    <glyph glyph-name="Uhungarumlaut" unicode="&#x170;" horiz-adv-x="1464" 
d="M1104 1730q44 66 100 66q33 0 55.5 -22t22.5 -54q0 -53 -58 -94l-264 -194l-38 32zM1466 1730q44 66 100 66q33 0 55.5 -22t22.5 -54q0 -53 -58 -94l-264 -194l-38 32zM1398 1160q12 33 12 42q0 20 -29 25t-133 5l36 88h474l-36 -88q-118 0 -153.5 -9t-48.5 -43
l-282 -700q-98 -242 -260.5 -371t-383.5 -129q-176 0 -284 88.5t-108 243.5q0 93 44 202l260 646q12 33 12 42q0 20 -29 25t-133 5l36 88h552l-36 -88q-118 0 -153.5 -9t-48.5 -43l-274 -678q-42 -108 -42 -186q0 -104 67.5 -157t190.5 -53q169 0 286 98.5t198 297.5z" />
    <glyph glyph-name="uhungarumlaut" unicode="&#x171;" horiz-adv-x="1164" 
d="M734 1414q43 66 98 66q33 0 51.5 -20.5t18.5 -51.5q0 -49 -52 -92l-276 -238l-36 30zM1064 1414q43 66 98 66q33 0 51.5 -20.5t18.5 -51.5q0 -49 -52 -92l-276 -238l-36 30zM586 932l-258 -574q-25 -56 -33.5 -76t-22 -53.5t-18 -51t-4.5 -31.5q0 -44 44 -44
q58 0 170.5 96t211.5 219t132 203l136 320h168l-280 -660q-34 -78 -43 -103.5t-9 -44.5q0 -28 32 -28q79 0 210 158l48 -48q-84 -109 -187 -171.5t-189 -62.5q-39 0 -63.5 20.5t-24.5 59.5q0 38 31 112.5t107 231.5h-8q-77 -106 -169.5 -199t-197 -159t-183.5 -66
q-58 0 -89 30t-31 82q0 50 38 136l208 458q20 45 20 80q0 22 -29 40.5t-137 57.5l16 48l362 38z" />
    <glyph glyph-name="Uogonek" unicode="&#x172;" horiz-adv-x="1464" 
d="M764 -280q-55 -69 -133.5 -116.5t-154.5 -47.5q-62 0 -99 33.5t-37 92.5q0 147 260 298h-6q-176 0 -284 88.5t-108 243.5q0 93 44 202l260 646q12 33 12 42q0 20 -29 25t-133 5l36 88h552l-36 -88q-118 0 -153.5 -9t-48.5 -43l-274 -678q-42 -108 -42 -186
q0 -104 67.5 -157t190.5 -53q169 0 286 98.5t198 297.5l266 658q12 33 12 42q0 20 -29 25t-133 5l36 88h474l-36 -88q-118 0 -153.5 -9t-48.5 -43l-282 -700q-166 -408 -494 -484q-61 -33 -105.5 -61t-87 -62.5t-65 -70t-22.5 -70.5q0 -72 80 -72q85 0 180 98z" />
    <glyph glyph-name="uogonek" unicode="&#x173;" horiz-adv-x="1164" 
d="M1070 214q-111 -145 -306 -232q-115 -52 -191.5 -119t-76.5 -131q0 -72 80 -72q85 0 180 98l40 -38q-55 -69 -133.5 -116.5t-154.5 -47.5q-62 0 -99 33.5t-37 92.5q0 156 276 306q-42 19 -42 72q0 38 31 112.5t107 231.5h-8q-77 -106 -169.5 -199t-197 -159t-183.5 -66
q-58 0 -89 30t-31 82q0 50 38 136l208 458q20 45 20 80q0 22 -29 40.5t-137 57.5l16 48l362 38l42 -18l-258 -574q-25 -56 -33.5 -76t-22 -53.5t-18 -51t-4.5 -31.5q0 -44 44 -44q58 0 170.5 96t211.5 219t132 203l136 320h168l-280 -660q-34 -78 -43 -103.5t-9 -44.5
q0 -28 32 -28q79 0 210 158z" />
    <glyph glyph-name="Wcircumflex" unicode="&#x174;" horiz-adv-x="1954" 
d="M1596 1758l146 -286l-50 -40l-194 200l-398 -200l-42 40l404 304q43 30 80 23.5t54 -41.5zM1190 1010l-720 -1020h-128l136 1182q4 38 -29.5 49t-120.5 11l36 88h528l-36 -88q-91 0 -131.5 -6.5t-54.5 -20.5t-18 -49l-118 -906h8l744 1070h108l-140 -1074h8l636 908
q20 30 20 46q0 22 -31.5 27t-136.5 5l36 88h492l-36 -88q-93 0 -130 -11t-66 -49l-856 -1182h-128l136 1020h-8z" />
    <glyph glyph-name="wcircumflex" unicode="&#x175;" horiz-adv-x="1462" 
d="M1210 1436l72 -340l-50 -18l-128 252l-340 -252l-36 38l342 338q42 41 86 36t54 -54zM814 660h-8q-97 -165 -275.5 -366.5t-324.5 -305.5h-96q190 651 190 776q0 25 -29.5 41t-150.5 59l16 48l310 38l42 -18q-13 -156 -72.5 -370.5t-125.5 -401.5h8q115 97 309 355
t281 425h116q-19 -183 -73.5 -407t-108.5 -379h8q161 107 296.5 267t151.5 249q7 29 4.5 86t-0.5 82q3 49 36 85.5t78 36.5q47 0 73 -33.5t23 -82.5q-10 -111 -114.5 -265.5t-276 -312.5t-367.5 -278h-94q37 107 93.5 322.5t80.5 349.5z" />
    <glyph glyph-name="Ycircumflex" unicode="&#x176;" horiz-adv-x="1400" 
d="M1334 1758l146 -286l-50 -40l-194 200l-398 -200l-42 40l404 304q43 30 80 23.5t54 -41.5zM852 88l-36 -88h-612l36 88h34q118 0 152.5 9t47.5 43l168 412l-166 620q-8 27 -18.5 38.5t-39 16.5t-90.5 5l36 88h536l-36 -88q-121 0 -163.5 -12.5t-42.5 -41.5q0 -13 6 -34
l124 -494h8l532 508q28 28 28 42q0 20 -34 26t-142 6l36 88h508l-36 -88q-88 0 -119 -10.5t-77 -49.5l-668 -624l-162 -398q-8 -19 -8 -30q0 -19 33.5 -25.5t130.5 -6.5h34z" />
    <glyph glyph-name="ycircumflex" unicode="&#x177;" horiz-adv-x="988" 
d="M918 1436l72 -340l-50 -18l-128 252l-340 -252l-36 38l342 338q42 41 86 36t54 -54zM978 822q0 -93 -65.5 -226.5t-171.5 -272.5t-246 -278t-282 -246.5t-286 -175t-253 -67.5q-57 0 -96.5 29.5t-39.5 76.5q0 50 32 81t74 31q41 0 97 -39t85 -39q70 0 174.5 58t223.5 156
q33 223 53 474.5t15 385.5q-1 21 -31 36.5t-149 57.5l16 48l298 38l42 -18q8 -366 -92 -878h6q173 168 290.5 337t117.5 263q0 45 -6 100.5t-6 83.5q0 48 28 85t74 37q98 0 98 -138z" />
    <glyph glyph-name="Ydieresis" unicode="&#x178;" horiz-adv-x="1400" 
d="M804 1596q0 51 36.5 86.5t87.5 35.5t87.5 -35.5t36.5 -86.5q0 -52 -36.5 -88t-87.5 -36t-87.5 36t-36.5 88zM1176 1596q0 51 36.5 86.5t87.5 35.5t87.5 -35.5t36.5 -86.5q0 -52 -36.5 -88t-87.5 -36t-87.5 36t-36.5 88zM852 88l-36 -88h-612l36 88h34q118 0 152.5 9
t47.5 43l168 412l-166 620q-8 27 -18.5 38.5t-39 16.5t-90.5 5l36 88h536l-36 -88q-121 0 -163.5 -12.5t-42.5 -41.5q0 -13 6 -34l124 -494h8l532 508q28 28 28 42q0 20 -34 26t-142 6l36 88h508l-36 -88q-88 0 -119 -10.5t-77 -49.5l-668 -624l-162 -398q-8 -19 -8 -30
q0 -19 33.5 -25.5t130.5 -6.5h34z" />
    <glyph glyph-name="Zacute" unicode="&#x179;" horiz-adv-x="1254" 
d="M910 1482l280 266q47 44 94 44q39 0 63.5 -23t24.5 -59q0 -64 -72 -100l-358 -178zM500 1320h984l-26 -64l-1274 -1164h358q186 0 297.5 72.5t242.5 281.5h88l-222 -446h-1050l24 62l1274 1166h-394q-46 0 -79 -4.5t-66 -21.5t-56 -34.5t-57.5 -59t-62 -79.5t-77.5 -111
h-86z" />
    <glyph glyph-name="zacute" unicode="&#x17a;" horiz-adv-x="1020" 
d="M860 1414q43 66 98 66q35 0 55.5 -19.5t20.5 -56.5q0 -49 -52 -92l-282 -234l-36 30zM820 790v8h-286q-103 0 -155.5 -29.5t-110.5 -128.5h-70l134 300h720l-52 -126l-746 -560q124 -48 201 -71t108 -27t75 -4q55 0 106.5 44t111.5 142l58 -32q-168 -326 -350 -326
q-42 0 -103.5 29t-113.5 63t-109 63t-90 29q-27 0 -36.5 -20.5t-9.5 -71.5q0 -37 -20 -59.5t-54 -22.5q-30 0 -50 19t-20 49q0 47 42.5 92t149.5 128z" />
    <glyph glyph-name="Zdotaccent" unicode="&#x17b;" horiz-adv-x="1254" 
d="M896 1598q0 52 37 89t89 37t89 -37t37 -89t-37 -89t-89 -37t-89 37t-37 89zM500 1320h984l-26 -64l-1274 -1164h358q186 0 297.5 72.5t242.5 281.5h88l-222 -446h-1050l24 62l1274 1166h-394q-46 0 -79 -4.5t-66 -21.5t-56 -34.5t-57.5 -59t-62 -79.5t-77.5 -111h-86z
" />
    <glyph glyph-name="zdotaccent" unicode="&#x17c;" horiz-adv-x="1020" 
d="M690 1294q0 52 37 89t89 37t89 -37t37 -89t-37 -89t-89 -37t-89 37t-37 89zM820 790v8h-286q-103 0 -155.5 -29.5t-110.5 -128.5h-70l134 300h720l-52 -126l-746 -560q124 -48 201 -71t108 -27t75 -4q55 0 106.5 44t111.5 142l58 -32q-168 -326 -350 -326
q-42 0 -103.5 29t-113.5 63t-109 63t-90 29q-27 0 -36.5 -20.5t-9.5 -71.5q0 -37 -20 -59.5t-54 -22.5q-30 0 -50 19t-20 49q0 47 42.5 92t149.5 128z" />
    <glyph glyph-name="Zcaron" unicode="&#x17d;" horiz-adv-x="1254" 
d="M928 1466l-146 286l50 40l194 -200l398 200l42 -40l-404 -304q-43 -30 -80 -23.5t-54 41.5zM500 1320h984l-26 -64l-1274 -1164h358q186 0 297.5 72.5t242.5 281.5h88l-222 -446h-1050l24 62l1274 1166h-394q-46 0 -79 -4.5t-66 -21.5t-56 -34.5t-57.5 -59t-62 -79.5
t-77.5 -111h-86z" />
    <glyph glyph-name="zcaron" unicode="&#x17e;" horiz-adv-x="1020" 
d="M678 1132l-72 340l50 18l128 -252l340 252l36 -38l-342 -338q-42 -41 -86 -36t-54 54zM820 790v8h-286q-103 0 -155.5 -29.5t-110.5 -128.5h-70l134 300h720l-52 -126l-746 -560q124 -48 201 -71t108 -27t75 -4q55 0 106.5 44t111.5 142l58 -32q-168 -326 -350 -326
q-42 0 -103.5 29t-113.5 63t-109 63t-90 29q-27 0 -36.5 -20.5t-9.5 -71.5q0 -37 -20 -59.5t-54 -22.5q-30 0 -50 19t-20 49q0 47 42.5 92t149.5 128z" />
    <glyph glyph-name="uni0192" unicode="&#x192;" horiz-adv-x="1034" 
d="M340 28q-89 -212 -239.5 -342t-330.5 -130q-70 0 -112 33t-42 81q0 42 28 69t70 27q28 0 52 -16t38.5 -35t36 -35t45.5 -16q41 0 76.5 18t75 61.5t81 123t85.5 195.5l216 566h-202l36 90h200l58 150q75 199 250 335.5t366 136.5q84 0 129 -32.5t45 -81.5q0 -44 -30 -71
t-72 -27q-24 0 -47.5 15.5t-40 33.5t-44.5 33.5t-62 15.5q-86 0 -149.5 -63t-122.5 -199l-104 -246h232l-36 -90h-234z" />
    <glyph glyph-name="AEacute" unicode="&#x1fc;" horiz-adv-x="2064" 
d="M1506 1482l280 266q47 44 94 44q39 0 63.5 -23t24.5 -59q0 -64 -72 -100l-358 -178zM370 88l-36 -88h-504l36 88q88 0 123 11.5t73 48.5l1146 1078q-93 6 -218 6l36 88h1204l-146 -402h-70q16 123 12.5 192t-38.5 93.5t-128 24.5h-326l-206 -508h128q49 0 75.5 1t55 10
t42.5 18.5t35.5 37t36.5 55t43 82.5h82l-202 -500h-72q28 94 28 126q0 52 -30 65t-130 13h-128l-216 -536h270q96 0 162.5 14.5t130 55.5t119.5 107.5t128 176.5h88l-222 -446h-1082l36 88q118 0 153.5 9t48.5 43l140 348h-476l-340 -318q-34 -31 -34 -52q0 -20 33 -25
t139 -5zM670 580h416l254 626z" />
    <glyph glyph-name="aeacute" unicode="&#x1fd;" horiz-adv-x="1420" 
d="M1196 1414q43 66 98 66q35 0 55.5 -19.5t20.5 -56.5q0 -49 -52 -92l-282 -234l-36 30zM1292 244q-90 -113 -214.5 -188.5t-245.5 -75.5q-107 0 -173.5 63.5t-66.5 178.5v4q-94 -106 -200.5 -176t-191.5 -70q-77 0 -123.5 53t-46.5 143q0 128 63.5 269.5t161 254
t222 186.5t237.5 74q79 0 132.5 -34t79.5 -88q158 122 326 122q77 0 126.5 -39.5t49.5 -108.5q0 -68 -43 -131t-110.5 -110t-156 -86.5t-173.5 -65t-169 -41.5q-14 -56 -14 -114q0 -81 38.5 -121.5t107.5 -40.5q159 0 330 192zM200 208q0 -53 21 -81.5t59 -28.5
q60 0 149 71.5t181 182.5q24 100 80.5 204t135.5 190q-17 132 -130 132q-99 0 -216.5 -106.5t-198.5 -265.5t-81 -298zM1172 866q-102 0 -210.5 -125t-163.5 -287q127 30 230 77.5t167.5 113t64.5 135.5q0 86 -88 86z" />
    <glyph glyph-name="Oslashacute" unicode="&#x1fe;" horiz-adv-x="1322" 
d="M906 1482l280 266q47 44 94 44q39 0 63.5 -23t24.5 -59q0 -64 -72 -100l-358 -178zM536 -20q-167 0 -278 96l-176 -180l-70 64l184 188q-74 111 -74 274q0 113 39 240t114 246.5t173 216.5t227 156t265 59q188 0 302 -120l152 156l70 -64l-166 -170q56 -103 56 -244
q0 -113 -39 -240t-114 -246.5t-173 -216.5t-227 -156t-265 -59zM306 372q0 -53 10 -100l822 842q-59 118 -212 118q-115 0 -229.5 -78.5t-199.5 -201t-138 -278t-53 -302.5zM1170 948q0 24 -4 60l-810 -832q62 -88 194 -88q115 0 229.5 78.5t199.5 201t138 278t53 302.5z
" />
    <glyph glyph-name="oslashacute" unicode="&#x1ff;" horiz-adv-x="956" 
d="M816 1414q43 66 98 66q35 0 55.5 -19.5t20.5 -56.5q0 -49 -52 -92l-282 -234l-36 30zM330 -20q-121 0 -196 88l-156 -162l-64 58l172 178q-30 69 -30 156q0 86 30.5 180t85.5 178.5t125 153.5t156.5 109.5t172.5 40.5q108 0 180 -72l132 136l64 -58l-144 -148
q42 -75 42 -176q0 -86 -30.5 -180t-85.5 -178.5t-125 -153.5t-156.5 -109.5t-172.5 -40.5zM624 872q-95 0 -190.5 -95.5t-156.5 -235.5t-69 -273l524 542q-30 62 -108 62zM332 68q99 0 198 103.5t159.5 252.5t60.5 282l-534 -554q24 -84 116 -84z" />
    <glyph glyph-name="uni0218" unicode="&#x218;" horiz-adv-x="1102" 
d="M1238 1320l-128 -408h-70q-2 139 -73.5 229.5t-202.5 90.5q-124 0 -195 -67t-71 -169q0 -52 27 -94.5t69.5 -73t94.5 -59t104 -60.5t94.5 -69t69.5 -93.5t27 -126.5q0 -113 -70 -215t-189 -163.5t-255 -61.5q-108 0 -195 42t-137 102l-104 -124h-80l158 446h72
q0 -92 24.5 -163t66.5 -113t93.5 -63t109.5 -21q145 0 233.5 79.5t88.5 196.5q0 59 -26 106t-67.5 79t-91.5 60.5t-100 58t-91.5 64t-67.5 86.5t-26 118q0 164 127.5 285t310.5 121q93 0 176.5 -37t125.5 -91l96 108h72zM94 -422q94 7 150 35t56 65q0 14 -15.5 24t-34.5 17
t-34.5 26t-15.5 47q0 45 34.5 74.5t87.5 29.5q52 0 88 -34t36 -88q0 -111 -101 -188.5t-245 -77.5z" />
    <glyph glyph-name="uni0219" unicode="&#x219;" horiz-adv-x="758" 
d="M580 288q0 -130 -97.5 -219t-252.5 -89q-110 0 -187 53.5t-77 120.5q0 38 23 63t65 25q32 0 52.5 -19t32.5 -46t26 -54t43 -46t74 -19q70 0 111 41t41 107q0 48 -21.5 95.5t-52.5 88.5t-62 83t-52.5 94t-21.5 105q0 114 91 201t225 87q108 0 165 -49.5t57 -114.5
q0 -34 -22 -58t-62 -24q-27 0 -46.5 16t-32 39t-25.5 46t-36 39t-56 16q-53 0 -84.5 -36.5t-31.5 -91.5q0 -37 22 -82t53.5 -89t63 -89t53.5 -96.5t22 -97.5zM-102 -422q94 7 150 35t56 65q0 14 -15.5 24t-34.5 17t-34.5 26t-15.5 47q0 45 34.5 74.5t87.5 29.5q52 0 88 -34
t36 -88q0 -111 -101 -188.5t-245 -77.5z" />
    <glyph glyph-name="uni021A" unicode="&#x21a;" horiz-adv-x="1410" 
d="M1284 1228h-178l-436 -1078q-8 -19 -8 -30q0 -19 33.5 -25.5t130.5 -6.5h34l-36 -88h-616l36 88h34q118 0 152.5 9t47.5 43l440 1088h-170q-46 0 -79 -4.5t-66 -21.5t-56 -34.5t-57.5 -59t-62 -79.5t-77.5 -111h-86l182 402h1208l-146 -402h-70q16 123 12.5 192
t-38.5 93.5t-128 24.5zM260 -422q94 7 150 35t56 65q0 14 -15.5 24t-34.5 17t-34.5 26t-15.5 47q0 45 34.5 74.5t87.5 29.5q52 0 88 -34t36 -88q0 -111 -101 -188.5t-245 -77.5z" />
    <glyph glyph-name="uni021B" unicode="&#x21b;" horiz-adv-x="730" 
d="M622 282q-90 -117 -227 -209.5t-239 -92.5q-42 0 -70 24.5t-28 65.5q0 44 32 124l266 648h-152l38 98h154l104 256l148 38h30l-120 -294h242l-38 -98h-244l-228 -554q-50 -119 -50 -146q0 -30 32 -30q47 0 141 68.5t161 149.5zM-96 -422q94 7 150 35t56 65q0 14 -15.5 24
t-34.5 17t-34.5 26t-15.5 47q0 45 34.5 74.5t87.5 29.5q52 0 88 -34t36 -88q0 -111 -101 -188.5t-245 -77.5z" />
    <glyph glyph-name="uni0237" unicode="&#x237;" horiz-adv-x="588" 
d="M608 932l-386 -904q-44 -103 -98.5 -186t-121.5 -148.5t-149.5 -101.5t-172.5 -36q-70 0 -116 34t-46 82q0 42 26 68t68 26q28 0 53 -16t40.5 -35t38 -35t46.5 -16q75 0 138.5 87.5t155.5 310.5l254 624q22 52 22 84q-1 15 -11 25t-44 25t-113 44l16 48l358 38z" />
    <glyph glyph-name="circumflex" unicode="&#x2c6;" horiz-adv-x="1000" 
d="M962 1436l72 -340l-50 -18l-128 252l-340 -252l-36 38l342 338q42 41 86 36t54 -54z" />
    <glyph glyph-name="caron" unicode="&#x2c7;" horiz-adv-x="1000" 
d="M694 1132l-72 340l50 18l128 -252l340 252l36 -38l-342 -338q-42 -41 -86 -36t-54 54z" />
    <glyph glyph-name="breve" unicode="&#x2d8;" horiz-adv-x="1000" 
d="M794 1214q74 0 150.5 65t139.5 183l68 -20q-79 -177 -185.5 -270.5t-216.5 -93.5q-105 0 -136.5 99.5t16.5 264.5l74 20q-50 -248 90 -248z" />
    <glyph glyph-name="dotaccent" unicode="&#x2d9;" horiz-adv-x="1000" 
d="M706 1294q0 52 37 89t89 37t89 -37t37 -89t-37 -89t-89 -37t-89 37t-37 89z" />
    <glyph glyph-name="ring" unicode="&#x2da;" horiz-adv-x="1000" 
d="M1044 1328q0 -96 -71.5 -163t-170.5 -67q-77 0 -126.5 52.5t-49.5 129.5q0 96 71.5 163t170.5 67q77 0 126.5 -52.5t49.5 -129.5zM958 1328q0 44 -27 72t-71 28q-65 0 -106.5 -42t-41.5 -106q0 -44 27 -72t71 -28q65 0 106.5 42t41.5 106z" />
    <glyph glyph-name="ogonek" unicode="&#x2db;" horiz-adv-x="998" 
d="M398 50l14 -48q-64 -34 -109.5 -62.5t-90 -64t-67.5 -71.5t-23 -72q0 -72 80 -72q85 0 180 98l40 -38q-55 -69 -133.5 -116.5t-154.5 -47.5q-62 0 -99 33.5t-37 92.5q0 98 109.5 192.5t290.5 175.5z" />
    <glyph glyph-name="tilde" unicode="&#x2dc;" horiz-adv-x="1000" 
d="M724 1380q34 0 66 -22t53.5 -48t50 -48t54.5 -22q40 0 75.5 34t90.5 110l56 -36q-86 -138 -145.5 -191t-124.5 -53q-34 0 -66 22t-53 48t-49.5 48t-55.5 22q-38 0 -75 -34.5t-93 -109.5l-56 36q85 137 146.5 190.5t125.5 53.5z" />
    <glyph glyph-name="hungarumlaut" unicode="&#x2dd;" horiz-adv-x="1000" 
d="M664 1414q43 66 98 66q33 0 51.5 -20.5t18.5 -51.5q0 -49 -52 -92l-276 -238l-36 30zM994 1414q43 66 98 66q33 0 51.5 -20.5t18.5 -51.5q0 -49 -52 -92l-276 -238l-36 30z" />
    <glyph glyph-name="Wgrave" unicode="&#x1e80;" horiz-adv-x="1954" 
d="M1174 1748l280 -266l-32 -50l-358 178q-72 36 -72 100q0 36 24.5 59t63.5 23q47 0 94 -44zM1190 1010l-720 -1020h-128l136 1182q4 38 -29.5 49t-120.5 11l36 88h528l-36 -88q-91 0 -131.5 -6.5t-54.5 -20.5t-18 -49l-118 -906h8l744 1070h108l-140 -1074h8l636 908
q20 30 20 46q0 22 -31.5 27t-136.5 5l36 88h492l-36 -88q-93 0 -130 -11t-66 -49l-856 -1182h-128l136 1020h-8z" />
    <glyph glyph-name="wgrave" unicode="&#x1e81;" horiz-adv-x="1462" 
d="M938 1400l108 -296l-48 -26l-210 250q-45 54 -17 106q22 41 67 46q57 6 90 -58q6 -10 10 -22zM814 660h-8q-97 -165 -275.5 -366.5t-324.5 -305.5h-96q190 651 190 776q0 25 -29.5 41t-150.5 59l16 48l310 38l42 -18q-13 -156 -72.5 -370.5t-125.5 -401.5h8
q115 97 309 355t281 425h116q-19 -183 -73.5 -407t-108.5 -379h8q161 107 296.5 267t151.5 249q7 29 4.5 86t-0.5 82q3 49 36 85.5t78 36.5q47 0 73 -33.5t23 -82.5q-10 -111 -114.5 -265.5t-276 -312.5t-367.5 -278h-94q37 107 93.5 322.5t80.5 349.5z" />
    <glyph glyph-name="Wacute" unicode="&#x1e82;" horiz-adv-x="1954" 
d="M1316 1482l280 266q47 44 94 44q39 0 63.5 -23t24.5 -59q0 -64 -72 -100l-358 -178zM1190 1010l-720 -1020h-128l136 1182q4 38 -29.5 49t-120.5 11l36 88h528l-36 -88q-91 0 -131.5 -6.5t-54.5 -20.5t-18 -49l-118 -906h8l744 1070h108l-140 -1074h8l636 908
q20 30 20 46q0 22 -31.5 27t-136.5 5l36 88h492l-36 -88q-93 0 -130 -11t-66 -49l-856 -1182h-128l136 1020h-8z" />
    <glyph glyph-name="wacute" unicode="&#x1e83;" horiz-adv-x="1462" 
d="M1184 1414q43 66 98 66q35 0 55.5 -19.5t20.5 -56.5q0 -49 -52 -92l-282 -234l-36 30zM814 660h-8q-97 -165 -275.5 -366.5t-324.5 -305.5h-96q190 651 190 776q0 25 -29.5 41t-150.5 59l16 48l310 38l42 -18q-13 -156 -72.5 -370.5t-125.5 -401.5h8q115 97 309 355
t281 425h116q-19 -183 -73.5 -407t-108.5 -379h8q161 107 296.5 267t151.5 249q7 29 4.5 86t-0.5 82q3 49 36 85.5t78 36.5q47 0 73 -33.5t23 -82.5q-10 -111 -114.5 -265.5t-276 -312.5t-367.5 -278h-94q37 107 93.5 322.5t80.5 349.5z" />
    <glyph glyph-name="Wdieresis" unicode="&#x1e84;" horiz-adv-x="1954" 
d="M1084 1596q0 51 36.5 86.5t87.5 35.5t87.5 -35.5t36.5 -86.5q0 -52 -36.5 -88t-87.5 -36t-87.5 36t-36.5 88zM1456 1596q0 51 36.5 86.5t87.5 35.5t87.5 -35.5t36.5 -86.5q0 -52 -36.5 -88t-87.5 -36t-87.5 36t-36.5 88zM1190 1010l-720 -1020h-128l136 1182
q4 38 -29.5 49t-120.5 11l36 88h528l-36 -88q-91 0 -131.5 -6.5t-54.5 -20.5t-18 -49l-118 -906h8l744 1070h108l-140 -1074h8l636 908q20 30 20 46q0 22 -31.5 27t-136.5 5l36 88h492l-36 -88q-93 0 -130 -11t-66 -49l-856 -1182h-128l136 1020h-8z" />
    <glyph glyph-name="wdieresis" unicode="&#x1e85;" horiz-adv-x="1462" 
d="M722 1252q0 48 35.5 83t84.5 35q48 0 84 -35t36 -83q0 -51 -35.5 -85.5t-84.5 -34.5q-50 0 -85 34t-35 86zM1080 1252q0 48 36 83t84 35q49 0 84.5 -35t35.5 -83q0 -52 -35 -86t-85 -34q-49 0 -84.5 34.5t-35.5 85.5zM814 660h-8q-97 -165 -275.5 -366.5t-324.5 -305.5
h-96q190 651 190 776q0 25 -29.5 41t-150.5 59l16 48l310 38l42 -18q-13 -156 -72.5 -370.5t-125.5 -401.5h8q115 97 309 355t281 425h116q-19 -183 -73.5 -407t-108.5 -379h8q161 107 296.5 267t151.5 249q7 29 4.5 86t-0.5 82q3 49 36 85.5t78 36.5q47 0 73 -33.5
t23 -82.5q-10 -111 -114.5 -265.5t-276 -312.5t-367.5 -278h-94q37 107 93.5 322.5t80.5 349.5z" />
    <glyph glyph-name="Ygrave" unicode="&#x1ef2;" horiz-adv-x="1400" 
d="M1022 1748l280 -266l-32 -50l-358 178q-72 36 -72 100q0 36 24.5 59t63.5 23q47 0 94 -44zM852 88l-36 -88h-612l36 88h34q118 0 152.5 9t47.5 43l168 412l-166 620q-8 27 -18.5 38.5t-39 16.5t-90.5 5l36 88h536l-36 -88q-121 0 -163.5 -12.5t-42.5 -41.5q0 -13 6 -34
l124 -494h8l532 508q28 28 28 42q0 20 -34 26t-142 6l36 88h508l-36 -88q-88 0 -119 -10.5t-77 -49.5l-668 -624l-162 -398q-8 -19 -8 -30q0 -19 33.5 -25.5t130.5 -6.5h34z" />
    <glyph glyph-name="ygrave" unicode="&#x1ef3;" horiz-adv-x="988" 
d="M626 1400l108 -296l-48 -26l-210 250q-45 54 -17 106q22 41 67 46q57 6 90 -58q6 -10 10 -22zM978 822q0 -93 -65.5 -226.5t-171.5 -272.5t-246 -278t-282 -246.5t-286 -175t-253 -67.5q-57 0 -96.5 29.5t-39.5 76.5q0 50 32 81t74 31q41 0 97 -39t85 -39q70 0 174.5 58
t223.5 156q33 223 53 474.5t15 385.5q-1 21 -31 36.5t-149 57.5l16 48l298 38l42 -18q8 -366 -92 -878h6q173 168 290.5 337t117.5 263q0 45 -6 100.5t-6 83.5q0 48 28 85t74 37q98 0 98 -138z" />
    <glyph glyph-name="endash" unicode="&#x2013;" horiz-adv-x="1160" 
d="M1034 486h-896l48 116h896z" />
    <glyph glyph-name="emdash" unicode="&#x2014;" horiz-adv-x="2282" 
d="M2156 486h-2018l48 116h2018z" />
    <glyph glyph-name="quoteleft" unicode="&#x2018;" horiz-adv-x="592" 
d="M818 1432q-121 -34 -183.5 -85.5t-62.5 -110.5q0 -17 12 -31t29 -25t34 -22.5t29 -31.5t12 -46q0 -58 -36.5 -95t-95.5 -37q-58 0 -97 43t-39 111q0 148 112.5 259.5t279.5 140.5z" />
    <glyph glyph-name="quoteright" unicode="&#x2019;" horiz-adv-x="592" 
d="M362 1016q121 34 183.5 85.5t62.5 110.5q0 17 -12 31t-29 25t-34 22.5t-29 31.5t-12 46q0 58 36.5 95t95.5 37q58 0 97 -43t39 -111q0 -148 -112.5 -259.5t-279.5 -140.5z" />
    <glyph glyph-name="quotesinglbase" unicode="&#x201a;" horiz-adv-x="592" 
d="M-96 -170q121 34 183.5 85.5t62.5 110.5q0 17 -12 31t-29 25t-34 22.5t-29 31.5t-12 46q0 58 36.5 95t95.5 37q58 0 97 -43t39 -111q0 -148 -112.5 -259.5t-279.5 -140.5z" />
    <glyph glyph-name="quotedblleft" unicode="&#x201c;" horiz-adv-x="1040" 
d="M1266 1430q-121 -34 -183.5 -85.5t-62.5 -110.5q0 -17 12 -31t29 -25t34 -22.5t29 -31.5t12 -46q0 -58 -36.5 -95t-95.5 -37q-58 0 -97 43t-39 111q0 148 112.5 259.5t279.5 140.5zM818 1430q-121 -34 -183.5 -85.5t-62.5 -110.5q0 -17 12 -31t29 -25t34 -22.5t29 -31.5
t12 -46q0 -58 -36.5 -95t-95.5 -37q-58 0 -97 43t-39 111q0 148 112.5 259.5t279.5 140.5z" />
    <glyph glyph-name="quotedblright" unicode="&#x201d;" horiz-adv-x="1040" 
d="M810 1016q121 34 183.5 85.5t62.5 110.5q0 17 -12 31t-29 25t-34 22.5t-29 31.5t-12 46q0 58 36.5 95t95.5 37q58 0 97 -43t39 -111q0 -148 -112.5 -259.5t-279.5 -140.5zM362 1016q121 34 183.5 85.5t62.5 110.5q0 17 -12 31t-29 25t-34 22.5t-29 31.5t-12 46
q0 58 36.5 95t95.5 37q58 0 97 -43t39 -111q0 -148 -112.5 -259.5t-279.5 -140.5z" />
    <glyph glyph-name="quotedblbase" unicode="&#x201e;" horiz-adv-x="1040" 
d="M332 -170q121 34 183.5 85.5t62.5 110.5q0 17 -12 31t-29 25t-34 22.5t-29 31.5t-12 46q0 58 36.5 95t95.5 37q58 0 97 -43t39 -111q0 -148 -112.5 -259.5t-279.5 -140.5zM-116 -170q121 34 183.5 85.5t62.5 110.5q0 17 -12 31t-29 25t-34 22.5t-29 31.5t-12 46
q0 58 36.5 95t95.5 37q58 0 97 -43t39 -111q0 -148 -112.5 -259.5t-279.5 -140.5z" />
    <glyph glyph-name="dagger" unicode="&#x2020;" horiz-adv-x="944" 
d="M1048 1126h-256l-214 -530h-112l214 530h-256l42 104h256l102 250h112l-102 -250h256z" />
    <glyph glyph-name="daggerdbl" unicode="&#x2021;" horiz-adv-x="944" 
d="M928 826h-254l-94 -230h-112l94 230h-258l42 104h258l86 216h-256l42 104h256l94 230h112l-94 -230h256l-42 -104h-256l-86 -216h254z" />
    <glyph glyph-name="bullet" unicode="&#x2022;" horiz-adv-x="936" 
d="M496 224q-129 0 -220.5 92t-91.5 220q0 130 91.5 222t220.5 92t220.5 -92t91.5 -222q0 -128 -91.5 -220t-220.5 -92z" />
    <glyph glyph-name="ellipsis" unicode="&#x2026;" horiz-adv-x="1664" 
d="M332 118q0 -57 -41.5 -97.5t-100.5 -40.5t-100.5 40.5t-41.5 97.5t42 99.5t100 42.5t100 -42.5t42 -99.5zM832 118q0 -57 -41.5 -97.5t-100.5 -40.5t-100.5 40.5t-41.5 97.5t42 99.5t100 42.5t100 -42.5t42 -99.5zM1332 118q0 -57 -41.5 -97.5t-100.5 -40.5t-100.5 40.5
t-41.5 97.5t42 99.5t100 42.5t100 -42.5t42 -99.5z" />
    <glyph glyph-name="perthousand" unicode="&#x2030;" horiz-adv-x="2534" 
d="M682 1340q101 0 172.5 -72t71.5 -194q0 -102 -57 -203t-155 -168t-206 -67q-101 0 -172.5 72t-71.5 194q0 102 57 203t155 168t206 67zM314 0h-138l1440 1320h138zM522 716q69 0 131 68t95.5 160.5t33.5 173.5q0 67 -31.5 104.5t-82.5 37.5q-69 0 -131 -68t-95.5 -160.5
t-33.5 -173.5q0 -67 31.5 -104.5t82.5 -37.5zM2008 -20q-101 0 -172.5 72t-71.5 194q0 102 57 203t155 168t206 67q101 0 172.5 -72t71.5 -194q0 -102 -57 -203t-155 -168t-206 -67zM1248 -20q-101 0 -172.5 72t-71.5 194q0 102 57 203t155 168t206 67q101 0 172.5 -72
t71.5 -194q0 -102 -57 -203t-155 -168t-206 -67zM2168 604q-69 0 -131 -68t-95.5 -160.5t-33.5 -173.5q0 -67 31.5 -104.5t82.5 -37.5q69 0 131 68t95.5 160.5t33.5 173.5q0 67 -31.5 104.5t-82.5 37.5zM1408 604q-69 0 -131 -68t-95.5 -160.5t-33.5 -173.5
q0 -67 31.5 -104.5t82.5 -37.5q69 0 131 68t95.5 160.5t33.5 173.5q0 67 -31.5 104.5t-82.5 37.5z" />
    <glyph glyph-name="guilsinglleft" unicode="&#x2039;" horiz-adv-x="596" 
d="M86 458l8 20l472 380h98l-388 -412l72 -368h-74z" />
    <glyph glyph-name="guilsinglright" unicode="&#x203a;" horiz-adv-x="596" 
d="M510 478l-8 -20l-472 -380h-98l388 412l-72 368h74z" />
    <glyph glyph-name="fraction" unicode="&#x2044;" horiz-adv-x="404" 
d="M-372 0h-138l1440 1320h138z" />
    <glyph glyph-name="uni2070" unicode="&#x2070;" horiz-adv-x="868" 
d="M276 766q0 93 40.5 194t105.5 182.5t155 134.5t181 53q89 0 147.5 -62.5t58.5 -171.5q0 -93 -40.5 -194t-105.5 -182.5t-155 -134.5t-181 -53q-90 0 -148 62.5t-58 171.5zM824 1148q0 114 -82 114q-73 0 -151.5 -98.5t-127.5 -227t-49 -222.5q0 -114 84 -114
q73 0 151 98.5t126.5 227t48.5 222.5z" />
    <glyph glyph-name="uni2074" unicode="&#x2074;" horiz-adv-x="874" 
d="M724 544h-354l22 54q69 0 90 5.5t30 26.5l64 156h-364l24 62l584 472h114l-188 -464h202l-28 -70h-202l-56 -140q-10 -23 -10 -30q0 -12 17.5 -15t76.5 -3zM354 856h250l122 302h-4l-368 -298v-4z" />
    <glyph glyph-name="uni2075" unicode="&#x2075;" horiz-adv-x="724" 
d="M396 596q90 0 156 56t66 140q0 71 -64.5 104.5t-175.5 33.5l-18 12l196 376h360l-54 -134h-308l-68 -134q127 -6 197.5 -54.5t70.5 -139.5q0 -131 -117 -228.5t-277 -97.5q-84 0 -136 30.5t-52 79.5q0 29 19.5 48.5t50.5 19.5q25 0 43.5 -17.5t29 -38.5t31.5 -38.5
t50 -17.5z" />
    <glyph glyph-name="uni2076" unicode="&#x2076;" horiz-adv-x="822" 
d="M860 858q0 -126 -110.5 -227t-251.5 -101q-107 0 -169.5 65.5t-62.5 168.5q0 91 46.5 182t131.5 169.5t216 136.5t288 78l-2 -60q-166 -31 -287 -117t-187 -201q104 74 218 74q76 0 123 -47t47 -121zM408 726q0 -64 25.5 -98t70.5 -34q82 0 143 78.5t61 169.5
q0 50 -27.5 78t-80.5 28q-75 0 -152 -46q-40 -92 -40 -176z" />
    <glyph glyph-name="uni2077" unicode="&#x2077;" horiz-adv-x="776" 
d="M590 1192q-72 0 -99.5 -22.5t-102.5 -139.5h-58l130 290h560l-24 -56l-590 -720h-144l4 16l576 632h-252z" />
    <glyph glyph-name="uni2078" unicode="&#x2078;" horiz-adv-x="810" 
d="M820 794q0 -104 -98 -184t-242 -80q-105 0 -179.5 49t-74.5 125q0 80 69 140t193 92q-88 63 -88 140q0 97 86.5 175.5t221.5 78.5q97 0 157.5 -44.5t60.5 -113.5q0 -71 -58.5 -125.5t-165.5 -86.5q57 -40 87.5 -78t30.5 -88zM532 1128q0 -21 9.5 -39.5t31 -37.5t38.5 -31
t49 -32q150 65 150 176q0 49 -31 75.5t-83 26.5q-74 0 -119 -40t-45 -98zM354 718q0 -55 37.5 -89.5t94.5 -34.5q85 0 139.5 44t54.5 110q0 15 -4 28t-14.5 26.5t-18.5 22.5t-26.5 22.5t-27.5 20t-33 22t-32 20.5q-78 -29 -124 -80t-46 -112z" />
    <glyph glyph-name="uni2079" unicode="&#x2079;" horiz-adv-x="822" 
d="M928 1096q0 -91 -46.5 -182t-131.5 -169.5t-216 -136.5t-288 -78l2 60q166 31 287 117t187 201q-104 -74 -218 -74q-76 0 -123 47t-47 121q0 126 110.5 227t251.5 101q107 0 169.5 -65.5t62.5 -168.5zM486 1018q0 -50 27.5 -78t80.5 -28q75 0 152 46q40 92 40 176
q0 64 -25.5 98t-70.5 34q-82 0 -143 -78.5t-61 -169.5z" />
    <glyph glyph-name="uni2080" unicode="&#x2080;" horiz-adv-x="868" 
d="M-56 -58q0 93 40.5 194t105.5 182.5t155 134.5t181 53q89 0 147.5 -62.5t58.5 -171.5q0 -93 -40.5 -194t-105.5 -182.5t-155 -134.5t-181 -53q-90 0 -148 62.5t-58 171.5zM492 324q0 114 -82 114q-73 0 -151.5 -98.5t-127.5 -227t-49 -222.5q0 -114 84 -114
q73 0 151 98.5t126.5 227t48.5 222.5z" />
    <glyph glyph-name="uni2081" unicode="&#x2081;" horiz-adv-x="676" 
d="M336 -208l-30 -72h-506l30 72h74q69 0 89 5.5t29 26.5l202 498h-174l30 74q115 0 183 25t125 85h60l-272 -672q-6 -15 -6 -24q0 -11 19.5 -14.5t76.5 -3.5h70z" />
    <glyph glyph-name="uni2082" unicode="&#x2082;" horiz-adv-x="770" 
d="M82 264l-50 32q77 103 166 156.5t180 53.5q86 0 130 -42.5t44 -105.5q0 -40 -17.5 -82t-43 -78t-70 -78t-82 -72t-98 -71t-98 -65t-99.5 -62v-4h220q39 0 64.5 18.5t89.5 87.5l44 -18l-138 -214h-518l24 58q302 193 432 313t130 213q0 38 -24.5 61t-73.5 23
q-58 0 -108 -30t-104 -94z" />
    <glyph glyph-name="uni2083" unicode="&#x2083;" horiz-adv-x="742" 
d="M534 390q0 -134 -242 -238q68 -12 111 -47.5t43 -98.5q0 -83 -66 -154t-159.5 -108.5t-184.5 -37.5q-84 0 -136 30.5t-52 79.5q0 29 20.5 48.5t51.5 19.5q25 0 43.5 -17.5t29.5 -38.5t32 -38.5t49 -17.5q85 0 150.5 57.5t65.5 140.5q0 116 -156 116v42q126 63 181 108
t55 98q0 62 -76 62q-90 0 -188 -98l-40 40q147 168 320 168q68 0 108 -32t40 -84z" />
    <glyph glyph-name="uni2084" unicode="&#x2084;" horiz-adv-x="874" 
d="M394 -280h-354l22 54q69 0 90 5.5t30 26.5l64 156h-364l24 62l584 472h114l-188 -464h202l-28 -70h-202l-56 -140q-10 -23 -10 -30q0 -12 17.5 -15t76.5 -3zM24 32h250l122 302h-4l-368 -298v-4z" />
    <glyph glyph-name="uni2085" unicode="&#x2085;" horiz-adv-x="724" 
d="M66 -228q90 0 156 56t66 140q0 71 -64.5 104.5t-175.5 33.5l-18 12l196 376h360l-54 -134h-308l-68 -134q127 -6 197.5 -54.5t70.5 -139.5q0 -131 -117 -228.5t-277 -97.5q-84 0 -136 30.5t-52 79.5q0 29 19.5 48.5t50.5 19.5q25 0 43.5 -17.5t29 -38.5t31.5 -38.5
t50 -17.5z" />
    <glyph glyph-name="uni2086" unicode="&#x2086;" horiz-adv-x="822" 
d="M530 34q0 -126 -110.5 -227t-251.5 -101q-107 0 -169.5 65.5t-62.5 168.5q0 91 46.5 182t131.5 169.5t216 136.5t288 78l-2 -60q-166 -31 -287 -117t-187 -201q104 74 218 74q76 0 123 -47t47 -121zM78 -98q0 -64 25.5 -98t70.5 -34q82 0 143 78.5t61 169.5
q0 50 -27.5 78t-80.5 28q-75 0 -152 -46q-40 -92 -40 -176z" />
    <glyph glyph-name="uni2087" unicode="&#x2087;" horiz-adv-x="776" 
d="M260 368q-72 0 -99.5 -22.5t-102.5 -139.5h-58l130 290h560l-24 -56l-590 -720h-144l4 16l576 632h-252z" />
    <glyph glyph-name="uni2088" unicode="&#x2088;" horiz-adv-x="810" 
d="M490 -30q0 -104 -98 -184t-242 -80q-105 0 -179.5 49t-74.5 125q0 80 69 140t193 92q-88 63 -88 140q0 97 86.5 175.5t221.5 78.5q97 0 157.5 -44.5t60.5 -113.5q0 -71 -58.5 -125.5t-165.5 -86.5q57 -40 87.5 -78t30.5 -88zM202 304q0 -21 9.5 -39.5t31 -37.5t38.5 -31
t49 -32q150 65 150 176q0 49 -31 75.5t-83 26.5q-74 0 -119 -40t-45 -98zM24 -106q0 -55 37.5 -89.5t94.5 -34.5q85 0 139.5 44t54.5 110q0 15 -4 28t-14.5 26.5t-18.5 22.5t-26.5 22.5t-27.5 20t-33 22t-32 20.5q-78 -29 -124 -80t-46 -112z" />
    <glyph glyph-name="uni2089" unicode="&#x2089;" horiz-adv-x="822" 
d="M598 272q0 -91 -46.5 -182t-131.5 -169.5t-216 -136.5t-288 -78l2 60q166 31 287 117t187 201q-104 -74 -218 -74q-76 0 -123 47t-47 121q0 126 110.5 227t251.5 101q107 0 169.5 -65.5t62.5 -168.5zM156 194q0 -50 27.5 -78t80.5 -28q75 0 152 46q40 92 40 176
q0 64 -25.5 98t-70.5 34q-82 0 -143 -78.5t-61 -169.5z" />
    <glyph glyph-name="Euro" unicode="&#x20ac;" horiz-adv-x="1168" 
d="M1054 248q-222 -268 -490 -268q-160 0 -256 103t-96 291q0 58 8 106h-160l38 92h138q21 91 60 182h-128l38 92h136q117 216 299 355t381 139q141 0 208.5 -57t67.5 -133q0 -58 -34 -91t-84 -33q-37 0 -58.5 22t-30.5 53t-19 62t-33 53t-63 22q-129 0 -251 -109.5
t-209 -282.5h466l-64 -92h-444q-32 -81 -56 -182h392l-64 -92h-344q-6 -48 -6 -96q0 -135 60 -208.5t168 -73.5q186 0 372 208z" />
    <glyph glyph-name="trademark" unicode="&#x2122;" horiz-adv-x="1816" 
d="M682 658h-324l22 56q64 0 83 5t25 21l214 528h-58q-22 0 -39.5 -3t-35.5 -15.5t-27.5 -20t-30 -35t-29 -40t-36.5 -54.5h-52l96 220h594l-80 -220h-50q10 100 6 122q-7 39 -51 45q-10 1 -23 1h-56l-214 -528q-7 -16 9 -21q17 -5 79 -5zM1982 1320l-22 -54
q-53 0 -68.5 -4.5t-21.5 -21.5l-202 -500q-2 -8 -3 -13t7.5 -8t23 -4t42.5 -1l-22 -56h-290l22 56q53 0 68.5 4.5t23.5 21.5l210 516h-8l-448 -604h-34l48 604h-8l-210 -516q-8 -18 8 -22q14 -4 68 -4l-22 -56h-248l22 56q56 0 72 4.5t24 21.5l202 500q2 6 2.5 9.5t-2 7
t-7 5t-14.5 2.5t-22.5 1.5t-32.5 0.5l22 54h268l-42 -440h8l320 440h266z" />
    <glyph glyph-name="uni2153" unicode="&#x2153;" horiz-adv-x="1866" 
d="M666 616l-30 -72h-506l30 72h74q69 0 89 5.5t29 26.5l202 498h-174l30 74q115 0 183 25t125 85h60l-272 -672q-6 -15 -6 -24q0 -11 19.5 -14.5t76.5 -3.5h70zM392 0h-138l1440 1320h138zM1770 670q0 -134 -242 -238q68 -12 111 -47.5t43 -98.5q0 -83 -66 -154
t-159.5 -108.5t-184.5 -37.5q-84 0 -136 30.5t-52 79.5q0 29 20.5 48.5t51.5 19.5q25 0 43.5 -17.5t29.5 -38.5t32 -38.5t49 -17.5q85 0 150.5 57.5t65.5 140.5q0 116 -156 116v42q126 63 181 108t55 98q0 62 -76 62q-90 0 -188 -98l-40 40q147 168 320 168q68 0 108 -32
t40 -84z" />
    <glyph glyph-name="uni2154" unicode="&#x2154;" horiz-adv-x="1864" 
d="M412 1088l-50 32q77 103 166 156.5t180 53.5q86 0 130 -42.5t44 -105.5q0 -40 -17.5 -82t-43 -78t-70 -78t-82 -72t-98 -71t-98 -65t-99.5 -62v-4h220q39 0 64.5 18.5t89.5 87.5l44 -18l-138 -214h-518l24 58q302 193 432 313t130 213q0 38 -24.5 61t-73.5 23
q-58 0 -108 -30t-104 -94zM390 0h-138l1440 1320h138zM1768 670q0 -134 -242 -238q68 -12 111 -47.5t43 -98.5q0 -83 -66 -154t-159.5 -108.5t-184.5 -37.5q-84 0 -136 30.5t-52 79.5q0 29 20.5 48.5t51.5 19.5q25 0 43.5 -17.5t29.5 -38.5t32 -38.5t49 -17.5
q85 0 150.5 57.5t65.5 140.5q0 116 -156 116v42q126 63 181 108t55 98q0 62 -76 62q-90 0 -188 -98l-40 40q147 168 320 168q68 0 108 -32t40 -84z" />
    <glyph glyph-name="uni215B" unicode="&#x215b;" horiz-adv-x="1916" 
d="M666 616l-30 -72h-506l30 72h74q69 0 89 5.5t29 26.5l202 498h-174l30 74q115 0 183 25t125 85h60l-272 -672q-6 -15 -6 -24q0 -11 19.5 -14.5t76.5 -3.5h70zM392 0h-138l1440 1320h138zM1706 250q0 -104 -98 -184t-242 -80q-105 0 -179.5 49t-74.5 125q0 80 69 140
t193 92q-88 63 -88 140q0 97 86.5 175.5t221.5 78.5q97 0 157.5 -44.5t60.5 -113.5q0 -71 -58.5 -125.5t-165.5 -86.5q57 -40 87.5 -78t30.5 -88zM1418 584q0 -21 9.5 -39.5t31 -37.5t38.5 -31t49 -32q150 65 150 176q0 49 -31 75.5t-83 26.5q-74 0 -119 -40t-45 -98z
M1240 174q0 -55 37.5 -89.5t94.5 -34.5q85 0 139.5 44t54.5 110q0 15 -4 28t-14.5 26.5t-18.5 22.5t-26.5 22.5t-27.5 20t-33 22t-32 20.5q-78 -29 -124 -80t-46 -112z" />
    <glyph glyph-name="uni215C" unicode="&#x215c;" horiz-adv-x="1834" 
d="M864 1214q0 -134 -242 -238q68 -12 111 -47.5t43 -98.5q0 -83 -66 -154t-159.5 -108.5t-184.5 -37.5q-84 0 -136 30.5t-52 79.5q0 29 20.5 48.5t51.5 19.5q25 0 43.5 -17.5t29.5 -38.5t32 -38.5t49 -17.5q85 0 150.5 57.5t65.5 140.5q0 116 -156 116v42q126 63 181 108
t55 98q0 62 -76 62q-90 0 -188 -98l-40 40q147 168 320 168q68 0 108 -32t40 -84zM310 0h-138l1440 1320h138zM1624 250q0 -104 -98 -184t-242 -80q-105 0 -179.5 49t-74.5 125q0 80 69 140t193 92q-88 63 -88 140q0 97 86.5 175.5t221.5 78.5q97 0 157.5 -44.5t60.5 -113.5
q0 -71 -58.5 -125.5t-165.5 -86.5q57 -40 87.5 -78t30.5 -88zM1336 584q0 -21 9.5 -39.5t31 -37.5t38.5 -31t49 -32q150 65 150 176q0 49 -31 75.5t-83 26.5q-74 0 -119 -40t-45 -98zM1158 174q0 -55 37.5 -89.5t94.5 -34.5q85 0 139.5 44t54.5 110q0 15 -4 28t-14.5 26.5
t-18.5 22.5t-26.5 22.5t-27.5 20t-33 22t-32 20.5q-78 -29 -124 -80t-46 -112z" />
    <glyph glyph-name="uni215D" unicode="&#x215d;" horiz-adv-x="1806" 
d="M282 0h-138l1440 1320h138zM396 596q90 0 156 56t66 140q0 71 -64.5 104.5t-175.5 33.5l-18 12l196 376h360l-54 -134h-308l-68 -134q127 -6 197.5 -54.5t70.5 -139.5q0 -131 -117 -228.5t-277 -97.5q-84 0 -136 30.5t-52 79.5q0 29 19.5 48.5t50.5 19.5q25 0 43.5 -17.5
t29 -38.5t31.5 -38.5t50 -17.5zM1596 250q0 -104 -98 -184t-242 -80q-105 0 -179.5 49t-74.5 125q0 80 69 140t193 92q-88 63 -88 140q0 97 86.5 175.5t221.5 78.5q97 0 157.5 -44.5t60.5 -113.5q0 -71 -58.5 -125.5t-165.5 -86.5q57 -40 87.5 -78t30.5 -88zM1308 584
q0 -21 9.5 -39.5t31 -37.5t38.5 -31t49 -32q150 65 150 176q0 49 -31 75.5t-83 26.5q-74 0 -119 -40t-45 -98zM1130 174q0 -55 37.5 -89.5t94.5 -34.5q85 0 139.5 44t54.5 110q0 15 -4 28t-14.5 26.5t-18.5 22.5t-26.5 22.5t-27.5 20t-33 22t-32 20.5q-78 -29 -124 -80
t-46 -112z" />
    <glyph glyph-name="uni215E" unicode="&#x215e;" horiz-adv-x="1776" 
d="M252 0h-138l1440 1320h138zM590 1192q-72 0 -99.5 -22.5t-102.5 -139.5h-58l130 290h560l-24 -56l-590 -720h-144l4 16l576 632h-252zM1566 250q0 -104 -98 -184t-242 -80q-105 0 -179.5 49t-74.5 125q0 80 69 140t193 92q-88 63 -88 140q0 97 86.5 175.5t221.5 78.5
q97 0 157.5 -44.5t60.5 -113.5q0 -71 -58.5 -125.5t-165.5 -86.5q57 -40 87.5 -78t30.5 -88zM1278 584q0 -21 9.5 -39.5t31 -37.5t38.5 -31t49 -32q150 65 150 176q0 49 -31 75.5t-83 26.5q-74 0 -119 -40t-45 -98zM1100 174q0 -55 37.5 -89.5t94.5 -34.5q85 0 139.5 44
t54.5 110q0 15 -4 28t-14.5 26.5t-18.5 22.5t-26.5 22.5t-27.5 20t-33 22t-32 20.5q-78 -29 -124 -80t-46 -112z" />
    <glyph glyph-name="minus" unicode="&#x2212;" 
d="M134 554l48 120h920l-48 -120h-920z" />
    <glyph glyph-name="i.dot" horiz-adv-x="636" 
d="M460 1294q0 52 37 89t89 37t89 -37t37 -89t-37 -89t-89 -37t-89 37t-37 89zM590 932l-286 -652q-38 -85 -47 -109t-9 -41q0 -28 32 -28q83 0 216 160l48 -48q-83 -108 -185 -171t-183 -63q-47 0 -76.5 24.5t-29.5 65.5t36 124l208 492q22 52 22 84q0 14 -10 24t-45.5 26
t-112.5 44l16 48l364 38z" />
    <glyph glyph-name="a.ord" horiz-adv-x="906" 
d="M728 888h-6q-85 -119 -178.5 -200.5t-175.5 -81.5q-58 0 -93 39.5t-35 106.5q0 125 78 262t198.5 228.5t233.5 91.5q49 0 84 -23t46 -59l56 78h122l-226 -502q-34 -78 -34 -96q0 -22 24 -22q58 0 156 120l36 -36q-64 -84 -146 -136t-154 -52q-35 0 -54.5 16.5t-19.5 47.5
q0 27 18 71t70 147zM454 712q49 0 139.5 89.5t162.5 205t72 181.5q0 37 -20.5 58.5t-59.5 21.5q-69 0 -152 -77.5t-140.5 -191.5t-57.5 -211q0 -76 56 -76z" />
    <glyph glyph-name="b.ord" horiz-adv-x="860" 
d="M284 834l288 696q16 38 16 60q0 15 -19.5 27t-96.5 43l12 38l282 32l32 -14l-298 -692h6q37 55 81 106t95.5 98.5t106.5 76.5t103 29q62 0 97 -41t35 -115q0 -85 -49.5 -185.5t-128 -186t-188 -143t-218.5 -57.5q-81 0 -128.5 37.5t-47.5 98.5q0 41 20 92zM798 1218
q-60 0 -154.5 -93.5t-164 -208t-69.5 -174.5q0 -33 17.5 -51.5t50.5 -18.5q89 0 180 81t145.5 189t54.5 194q0 42 -14 62t-46 20z" />
    <glyph glyph-name="c.ord" horiz-adv-x="680" 
d="M680 1264q-58 0 -122.5 -71.5t-107 -175t-42.5 -191.5q0 -128 90 -128q98 0 224 144l42 -40q-73 -93 -155.5 -144.5t-162.5 -51.5q-90 0 -141 54.5t-51 153.5q0 111 66 232.5t175 204.5t219 83q73 0 113.5 -34.5t40.5 -87.5q0 -39 -22.5 -64.5t-57.5 -25.5
q-32 0 -48.5 22t-19 49t-11.5 49t-29 22z" />
    <glyph glyph-name="d.ord" horiz-adv-x="926" 
d="M730 606q-33 0 -53.5 18.5t-20.5 49.5q0 45 80 216h-4q-212 -284 -362 -284q-58 0 -95 40t-37 108q0 96 48 201.5t121 188t166.5 136.5t178.5 54q46 0 80.5 -21t47.5 -49l110 266q16 48 16 60q0 15 -19.5 27t-96.5 43l12 38l280 32l32 -14l-366 -888q-32 -74 -32 -96
t22 -22q56 0 158 120l34 -36q-64 -84 -146 -136t-154 -52zM458 712q50 0 142 90.5t165 206t73 177.5q0 39 -22 60.5t-64 21.5q-54 0 -118.5 -47t-116 -116.5t-86.5 -155.5t-35 -159q0 -78 62 -78z" />
    <glyph glyph-name="e.ord" horiz-adv-x="706" 
d="M788 808q-70 -87 -167 -144.5t-193 -57.5q-83 0 -133.5 47.5t-50.5 134.5q0 65 25 139.5t72 146t108 130t139.5 94.5t159.5 36q66 0 105 -33t39 -87q0 -62 -45.5 -115t-122 -90t-154 -61.5t-162.5 -41.5q-10 -47 -10 -84q0 -56 27.5 -85t76.5 -29q120 0 244 138z
M690 1262q-68 0 -146 -90.5t-118 -207.5q142 36 233 99.5t91 138.5q0 60 -60 60z" />
    <glyph glyph-name="f.ord" horiz-adv-x="506" 
d="M386 648q-58 -157 -169.5 -256.5t-248.5 -99.5q-56 0 -93 26t-37 64q0 33 21.5 54.5t54.5 21.5q29 0 51 -21.5t42 -43t43 -21.5q38 0 68 24t66 94.5t78 197.5l184 554h-96l30 76h92l18 56q51 150 178 253t274 103q66 0 105 -26t39 -66q0 -34 -22 -55t-56 -21
q-21 0 -40 13t-31 29t-32 29t-43 13q-57 0 -96.5 -45t-75.5 -141l-54 -142h168l-30 -76h-166z" />
    <glyph glyph-name="g.ord" horiz-adv-x="818" 
d="M812 562q0 -103 -120 -186.5t-304 -83.5q-149 0 -241.5 55.5t-92.5 134.5q0 150 286 196q-46 31 -46 78q0 85 142 138q-42 24 -65 64t-23 88q0 109 96.5 198.5t237.5 89.5q56 0 100.5 -23t69.5 -61q92 100 164 100q36 0 59 -20t23 -56q0 -38 -24.5 -65t-55.5 -27
q-20 0 -34.5 9.5t-21 20.5t-14.5 20.5t-16 9.5q-28 0 -60 -32q10 -30 10 -60q0 -107 -96 -196.5t-236 -89.5q-39 0 -72 12q-39 -17 -56.5 -32t-17.5 -32q0 -20 29.5 -34.5t136.5 -43.5q58 -16 90 -26t66 -25t49.5 -30.5t26 -38t10.5 -52.5zM674 1272q-74 0 -131 -84.5
t-57 -171.5q0 -41 19.5 -66.5t52.5 -25.5q73 0 130.5 85t57.5 171q0 42 -19.5 67t-52.5 25zM178 498q0 -60 64.5 -97t159.5 -37q124 0 194 39.5t70 102.5q0 36 -38 58.5t-134 51.5q-67 20 -104 36q-90 -15 -151 -55t-61 -99z" />
    <glyph glyph-name="h.ord" horiz-adv-x="928" 
d="M816 1716l-294 -686h6q106 136 216 220t198 84q44 0 68 -23t24 -63t-26 -98l-146 -322q-4 -10 -10 -22.5t-8.5 -18.5t-6.5 -14t-5.5 -12t-3.5 -9t-2.5 -8.5l-1 -7t-0.5 -6.5q0 -20 22 -20q62 0 160 120l36 -36q-64 -83 -145 -135.5t-149 -52.5q-39 0 -62.5 19.5
t-23.5 52.5q0 37 24 90l122 274q52 116 52 146t-30 30q-62 0 -193.5 -135.5t-172.5 -232.5l-94 -230h-154l374 910q16 38 16 60q0 15 -19.5 27t-96.5 43l14 38l278 32z" />
    <glyph glyph-name="i.ord" horiz-adv-x="540" 
d="M568 1576q0 45 30 75.5t74 30.5t74 -30.5t30 -75.5q0 -44 -30 -74t-74 -30t-74 30t-30 74zM676 1314l-210 -486q-36 -79 -36 -98q0 -20 24 -20q58 0 160 120l34 -36q-64 -83 -145 -135.5t-149 -52.5q-39 0 -62.5 19.5t-23.5 52.5q0 37 24 90l154 360q16 42 16 62
q0 14 -20 26.5t-92 41.5l12 38l280 32z" />
    <glyph glyph-name="j.ord" horiz-adv-x="490" 
d="M576 1576q0 45 30 75.5t74 30.5t74 -30.5t30 -75.5q0 -44 -30 -74t-74 -30t-74 30t-30 74zM686 1314l-282 -666q-68 -159 -175.5 -257.5t-242.5 -98.5q-56 0 -93 26t-37 64q0 34 21.5 55t54.5 21q29 0 51 -21.5t42 -43t43 -21.5q51 0 94.5 65.5t117.5 250.5l178 440
q14 36 14 62q0 15 -19 26.5t-93 41.5l14 38l278 32z" />
    <glyph glyph-name="k.ord" horiz-adv-x="894" 
d="M1010 800q-70 -92 -151 -143t-143 -51q-82 0 -94 110l-18 194q-69 -12 -128 -12l-106 -278h-152l374 910q16 48 16 60q0 15 -19.5 27t-96.5 43l12 38l280 32l32 -14l-246 -570h8q100 91 179.5 139.5t164.5 48.5q56 0 91 -33t35 -85q0 -89 -93.5 -163.5t-232.5 -116.5
l36 -182q11 -50 42 -50q62 0 176 132zM824 1232q-56 0 -142.5 -55.5t-147.5 -126.5l-38 -102q103 3 196 34t150.5 81.5t57.5 106.5q0 62 -76 62z" />
    <glyph glyph-name="l.ord" horiz-adv-x="520" 
d="M808 1716l-366 -888q-34 -80 -34 -98q0 -20 22 -20q60 0 158 120l36 -36q-64 -84 -143.5 -136t-148.5 -52q-40 0 -63 19t-23 53q0 29 26 90l312 762q16 38 16 60q0 15 -19.5 27t-96.5 43l14 38l278 32z" />
    <glyph glyph-name="m.ord" horiz-adv-x="1332" 
d="M942 1030h6q98 126 205.5 215t192.5 89q45 0 68.5 -22.5t23.5 -61.5q0 -42 -26 -100l-146 -322q-4 -10 -10 -22.5t-8.5 -18.5t-6.5 -14t-5.5 -12t-3.5 -9t-2.5 -8.5l-1 -7t-0.5 -6.5q0 -20 24 -20q58 0 160 120l34 -36q-64 -84 -144.5 -136t-149.5 -52q-39 0 -62.5 19.5
t-23.5 52.5q0 38 26 90l122 274q52 113 52 148q0 28 -30 28q-60 0 -185.5 -135t-166.5 -233l-94 -230h-154l178 422q3 8 10 24t9.5 22.5t8 19t7.5 18.5t5.5 15.5t5 15t3.5 12t2.5 11.5t0.5 10q0 28 -30 28q-60 0 -185.5 -135t-166.5 -233l-94 -230h-154l214 508q16 42 16 62
q0 14 -20 26.5t-92 41.5l12 38l264 32l34 -14l-122 -284h6q62 80 125 144t137.5 112t131.5 48q82 0 82 -78q0 -54 -82 -226z" />
    <glyph glyph-name="n.ord" horiz-adv-x="948" 
d="M664 1314l-122 -284h6q106 136 216 220t198 84q44 0 67 -23t23 -63t-24 -98l-148 -322q-36 -79 -36 -98q0 -20 22 -20q62 0 160 120l36 -36q-64 -84 -145 -136t-151 -52q-39 0 -61.5 19.5t-22.5 52.5q0 37 24 90l124 278q50 112 50 142t-30 30q-62 0 -193.5 -135.5
t-172.5 -232.5l-94 -230h-154l214 508q16 42 16 62q0 14 -20 26.5t-92 41.5l12 38l264 32z" />
    <glyph glyph-name="o.ord" horiz-adv-x="790" 
d="M488 606q-97 0 -159.5 69t-62.5 177q0 80 35 165.5t92.5 155.5t139.5 115.5t169 45.5q98 0 161 -69t63 -177q0 -80 -35.5 -165.5t-93 -155.5t-140 -115.5t-169.5 -45.5zM494 676q68 0 136.5 77.5t110 186.5t41.5 204q0 120 -86 120q-68 0 -136 -78t-109 -187.5
t-41 -204.5q0 -118 84 -118z" />
    <glyph glyph-name="p.ord" horiz-adv-x="904" 
d="M156 400l294 728q16 42 16 62q0 14 -20 26.5t-92 41.5l12 38l264 32l34 -14l-126 -290h6q53 76 112.5 141t136 117t139.5 52q62 0 97 -40t35 -118q0 -84 -45.5 -184t-118 -185.5t-174 -143t-202.5 -57.5q-74 0 -118 44l-98 -248q-8 -20 8 -25q21 -7 136 -7l-24 -64h-400
l26 64q61 0 77.5 5t24.5 25zM840 1216q-60 0 -155 -93.5t-165 -208.5t-70 -176q0 -32 22 -50t58 -18q93 0 181.5 81.5t138.5 189t50 193.5q0 42 -14 62t-46 20z" />
    <glyph glyph-name="q.ord" horiz-adv-x="856" 
d="M886 1252l56 78h126l-398 -930q-6 -20 7 -25t73 -5l-24 -64h-404l26 64q109 0 135 5t35 27l226 490h-6q-86 -117 -183 -201.5t-181 -84.5q-60 0 -96 39.5t-36 108.5q0 96 48 201.5t121 188t166.5 136.5t178.5 54q99 0 130 -82zM462 712q50 0 142 90.5t165 206t73 177.5
q0 39 -22 60.5t-64 21.5q-54 0 -118.5 -47t-117 -116.5t-87.5 -155.5t-35 -159q0 -38 17.5 -58t46.5 -20z" />
    <glyph glyph-name="r.ord" horiz-adv-x="744" 
d="M664 1314l-140 -318h6q127 170 183 228q104 109 175 110q44 0 65 -27t21 -65q0 -47 -31 -82.5t-69 -35.5q-22 0 -35 10.5t-17.5 22.5t-12 22.5t-19.5 10.5q-45 0 -147.5 -119.5t-170.5 -250.5l-82 -200h-154l214 508q16 42 16 62q0 14 -20 26.5t-92 41.5l12 38l264 32z
" />
    <glyph glyph-name="s.ord" horiz-adv-x="632" 
d="M682 836q0 -96 -79 -163t-199 -67q-87 0 -146.5 40t-59.5 94q0 30 20 52t56 22q32 0 50 -23.5t25 -51.5t29 -51.5t60 -23.5q48 0 78 30t30 78q0 40 -25 85.5t-55 80t-55 83.5t-25 97q0 86 73.5 151t180.5 65q85 0 135.5 -36.5t50.5 -85.5q0 -27 -18.5 -46.5t-51.5 -19.5
q-28 0 -48.5 18.5t-30.5 40.5t-30.5 40.5t-48.5 18.5q-38 0 -60 -23t-22 -61q0 -32 26 -77t57 -84t57 -90t26 -93z" />
    <glyph glyph-name="t.ord" horiz-adv-x="606" 
d="M708 840q-69 -90 -175 -162t-191 -72q-35 0 -57.5 19.5t-22.5 52.5q0 35 22 90l196 474h-108l30 76h108l78 188l136 36h26l-92 -224h178l-30 -76h-178l-168 -408q-32 -74 -32 -96q0 -20 22 -20q35 0 103 50t119 110z" />
    <glyph glyph-name="u.ord" horiz-adv-x="938" 
d="M674 1314l-190 -426q-52 -120 -52 -146q0 -30 30 -30q40 0 117.5 68t148 157.5t96.5 150.5l96 230h152l-208 -490q-32 -80 -32 -96q0 -22 22 -22q56 0 158 120l34 -36q-64 -84 -146 -136t-154 -52q-34 0 -54 16.5t-20 47.5q0 30 22 81.5t74 158.5h-6
q-93 -123 -205.5 -213.5t-198.5 -90.5q-44 0 -68 23t-24 61q0 40 26 98l152 340q16 35 16 58q0 16 -20 30t-92 42l14 38l278 32z" />
    <glyph glyph-name="v.ord" horiz-adv-x="794" 
d="M600 1314q-14 -126 -58 -294t-86 -282h6q114 78 224 189t128 169q13 40 14 90.5t2 55.5q5 39 28.5 65.5t59.5 26.5q37 0 56.5 -25t19.5 -65q0 -80 -91.5 -196.5t-228.5 -229t-292 -206.5h-88q44 139 92 324.5t48 245.5q0 19 -21.5 32.5t-100.5 43.5l14 38l240 32z" />
    <glyph glyph-name="w.ord" horiz-adv-x="1152" 
d="M822 1098h-6q-73 -121 -200 -264t-236 -222h-86q44 139 92 324.5t48 245.5q0 19 -21.5 32.5t-100.5 43.5l14 38l240 32l34 -14q-23 -224 -140 -556h6q85 78 216.5 253.5t205.5 306.5h100q-15 -136 -52.5 -297.5t-73.5 -268.5h6q112 74 205 183t107 175q8 24 6 69t0 61
q3 39 28.5 66.5t63.5 27.5q36 0 57 -26t19 -64q-7 -123 -179.5 -309t-396.5 -323h-86q31 83 69.5 229.5t60.5 256.5z" />
    <glyph glyph-name="x.ord" horiz-adv-x="880" 
d="M464 736q-100 -132 -190 -132q-45 0 -73.5 27t-28.5 69q0 36 23.5 60t56.5 24q22 0 36 -10.5t19 -23.5t12.5 -23.5t18.5 -10.5q40 0 96 74l138 174l-36 220q-4 21 -23.5 31.5t-110.5 42.5l12 38l214 32l34 -14l38 -242l100 134q48 65 91 96.5t93 31.5q46 0 71 -25t25 -65
q0 -36 -24.5 -60t-55.5 -24q-22 0 -35.5 15t-23.5 30t-25 15t-31 -13t-47 -49l-128 -150l38 -254q8 -50 42 -50q28 0 64 28.5t96 95.5l36 -36q-73 -91 -146 -138.5t-132 -47.5q-78 0 -96 110l-28 174z" />
    <glyph glyph-name="y.ord" horiz-adv-x="786" 
d="M956 1224q0 -71 -48.5 -170t-127 -201.5t-183 -204t-212.5 -180t-219.5 -127.5t-199.5 -49q-45 0 -75.5 24t-30.5 62q0 39 25 62.5t57 23.5q34 0 76.5 -32t69.5 -32q108 0 296 148q20 154 31.5 349t6.5 289q0 17 -21 29.5t-99 42.5l12 38l230 32l34 -14
q3 -136 -14.5 -313t-43.5 -329h6q121 117 200.5 236.5t79.5 193.5q0 29 -6 71t-6 65q0 38 22.5 67t59.5 29q80 0 80 -110z" />
    <glyph glyph-name="z.ord" horiz-adv-x="810" 
d="M816 1186v6h-202q-78 0 -117 -21t-81 -91h-54l106 238h548l-44 -104l-538 -386q124 -48 175 -61t97 -13q43 0 82.5 31t83.5 103l44 -24q-134 -258 -276 -258q-34 0 -81.5 21.5t-86 47.5t-78.5 47.5t-62 21.5q-20 0 -27 -14.5t-7 -49.5q0 -28 -15.5 -47t-42.5 -19
q-24 0 -39 14.5t-15 37.5q0 36 31 69t105 89z" />
    <glyph glyph-name="caron.Slovak" horiz-adv-x="998" 
d="M628 1064l184 358q40 78 100 78q33 0 55.5 -22.5t22.5 -55.5q0 -34 -30 -70l-282 -316z" />
    <glyph glyph-name="commaturn" horiz-adv-x="998" 
d="M1034 1416q-94 -7 -150 -35t-56 -65q0 -14 15.5 -24t34.5 -17t34.5 -26t15.5 -47q0 -45 -34.5 -74.5t-87.5 -29.5q-52 0 -88 34t-36 88q0 111 101 188.5t245 77.5z" />
    <glyph glyph-name="uni00200326" horiz-adv-x="998" 
d="M-8 -422q94 7 150 35t56 65q0 14 -15.5 24t-34.5 17t-34.5 26t-15.5 47q0 45 34.5 74.5t87.5 29.5q52 0 88 -34t36 -88q0 -111 -101 -188.5t-245 -77.5z" />
    <glyph glyph-name="guilsinglleft.cap" horiz-adv-x="596" 
d="M158 638l8 20l472 380h98l-388 -412l72 -368h-74z" />
    <glyph glyph-name="guilsinglright.cap" horiz-adv-x="596" 
d="M582 658l-8 -20l-472 -380h-98l388 412l-72 368h74z" />
    <glyph glyph-name="guillemotleft.cap" horiz-adv-x="996" 
d="M158 638l8 20l472 380h98l-388 -412l72 -368h-74zM558 638l8 20l472 380h98l-388 -412l72 -368h-74z" />
    <glyph glyph-name="guillemotright.cap" horiz-adv-x="996" 
d="M982 658l-8 -20l-472 -380h-98l388 412l-72 368h74zM582 658l-8 -20l-472 -380h-98l388 412l-72 368h74z" />
    <glyph glyph-name="slash.cap" horiz-adv-x="842" 
d="M1194 1540l-1278 -1796h-130l1278 1796h130z" />
    <glyph glyph-name="backslash.cap" horiz-adv-x="824" 
d="M342 -256l170 1796h110l-170 -1796h-110z" />
    <glyph glyph-name="bar.cap" horiz-adv-x="594" 
d="M786 1540l-726 -1796h-114l726 1796h114z" />
    <glyph glyph-name="periodcentered.cap" horiz-adv-x="568" 
d="M500 654q0 -57 -41.5 -97.5t-100.5 -40.5t-100.5 40.5t-41.5 97.5t42 99.5t100 42.5t100 -42.5t42 -99.5z" />
    <glyph glyph-name="bullet.cap" horiz-adv-x="938" 
d="M544 344q-129 0 -220.5 92t-91.5 220q0 130 91.5 222t220.5 92t220.5 -92t91.5 -222q0 -128 -91.5 -220t-220.5 -92z" />
    <glyph glyph-name="hyphen.cap" horiz-adv-x="820" 
d="M740 594h-556l54 136h556z" />
    <glyph glyph-name="endash.cap" horiz-adv-x="1160" 
d="M1082 606h-896l48 116h896z" />
    <glyph glyph-name="emdash.cap" horiz-adv-x="2282" 
d="M2204 606h-2018l48 116h2018z" />
    <glyph glyph-name="parenleft.cap" horiz-adv-x="820" 
d="M1134 1496q-244 -150 -433.5 -375.5t-290 -470.5t-100.5 -468q0 -243 128 -398l-64 -60q-105 99 -163.5 237t-58.5 303q0 240 117 486t335 459.5t500 350.5z" />
    <glyph glyph-name="parenright.cap" horiz-adv-x="820" 
d="M-176 -212q244 150 433.5 375.5t290 470.5t100.5 468q0 243 -128 398l64 60q105 -99 163.5 -237t58.5 -303q0 -240 -117 -486t-335 -459.5t-500 -350.5z" />
    <glyph glyph-name="bracketleft.cap" horiz-adv-x="798" 
d="M436 -178l-32 -78h-498l726 1796h498l-32 -78l-226 -10q-75 -3 -104 -17.5t-48 -62.5l-590 -1460q-10 -27 -10 -40q0 -22 22.5 -30t75.5 -10z" />
    <glyph glyph-name="bracketright.cap" horiz-adv-x="798" 
d="M500 1462l32 78h498l-726 -1796h-498l32 78l226 10q75 3 104 17.5t48 62.5l590 1460q10 27 10 40q0 22 -22.5 30t-75.5 10z" />
    <glyph glyph-name="braceleft.cap" horiz-adv-x="872" 
d="M146 634l20 52q115 16 194 70t122 160l112 276q79 194 230 281t388 87l-30 -70q-72 -5 -130 -20.5t-115.5 -49t-104.5 -93t-82 -145.5l-104 -258q-80 -202 -344 -272q74 -25 114 -61t40 -95q0 -43 -39.5 -140t-79 -201t-39.5 -163q0 -80 53 -118.5t161 -43.5l-28 -70
q-156 0 -244 66.5t-88 183.5q0 62 38 163.5t76 194t38 132.5q0 111 -158 134z" />
    <glyph glyph-name="braceright.cap" horiz-adv-x="872" 
d="M886 706l-20 -52q-115 -16 -194 -70t-122 -160l-112 -276q-79 -194 -230 -281t-388 -87l30 70q72 5 130 20.5t115.5 49t104.5 93t82 145.5l104 258q80 202 344 272q-74 25 -114 61t-40 95q0 43 39.5 140t79 201t39.5 163q0 80 -53 118.5t-161 43.5l28 70q156 0 244 -66.5
t88 -183.5q0 -62 -38 -163.5t-76 -194t-38 -132.5q0 -111 158 -134z" />
    <glyph glyph-name="at.cap" horiz-adv-x="1888" 
d="M1224 282q95 0 192.5 56t173.5 145.5t124 209t48 239.5q0 197 -126.5 310.5t-369.5 113.5q-148 0 -294 -53t-266 -147t-212.5 -214t-144 -261.5t-51.5 -282.5q0 -163 77.5 -284t215 -183.5t317.5 -62.5q299 0 574 156l24 -72q-116 -83 -290 -133.5t-348 -50.5
q-211 0 -372.5 70t-254.5 208.5t-93 327.5q0 129 41.5 260.5t115.5 249t180.5 221t230.5 178.5t272 118t300 43q291 0 456.5 -137t165.5 -371q0 -132 -63 -267.5t-166 -241t-246 -172.5t-291 -67q-114 0 -114 74q0 31 21.5 80t92.5 192h-10q-47 -66 -95 -122.5
t-104.5 -109.5t-115 -83.5t-109.5 -30.5q-71 0 -114.5 48t-43.5 130q0 154 95 321t242 278t287 111q59 0 100.5 -27t55.5 -69l68 96h134l-290 -634q-48 -108 -48 -134t28 -26zM798 300q48 0 128.5 68t154.5 160.5t128.5 197t54.5 170.5q0 46 -26 73t-76 27q-66 0 -143.5 -58
t-141 -145t-106.5 -196t-43 -203t70 -94z" />
    <glyph glyph-name="uni0192.lt" 
d="M400 28q-89 -212 -239.5 -342t-330.5 -130q-70 0 -112 33t-42 81q0 42 28 69t70 27q28 0 52 -16t38.5 -35t36 -35t45.5 -16q41 0 76.5 18t75 61.5t81 123t85.5 195.5l216 566h-202l36 90h200l58 150q75 199 250 335.5t366 136.5q84 0 129 -32.5t45 -81.5q0 -44 -30 -71
t-72 -27q-24 0 -47.5 15.5t-40 33.5t-44.5 33.5t-62 15.5q-86 0 -149.5 -63t-122.5 -199l-104 -246h232l-36 -90h-234z" />
    <glyph glyph-name="Euro.lt" 
d="M1006 248q-212 -268 -472 -268q-154 0 -246 103t-92 291q0 52 6 106h-158l38 92h138q23 101 58 182h-126l38 92h130q113 216 289.5 355t366.5 139q135 0 200.5 -57t65.5 -133q0 -58 -32.5 -91t-81.5 -33q-37 0 -58.5 22t-31 53t-18.5 62t-30.5 53t-57.5 22
q-125 0 -241 -109.5t-199 -282.5h454l-64 -92h-428q-32 -87 -54 -182h374l-64 -92h-324q-6 -48 -6 -96q0 -136 54.5 -209t157.5 -73q176 0 356 208z" />
    </font>
</defs>
</svg>
