<?xml version="1.0" standalone="no"?>
<!DOCTYPE svg PUBLIC "-//W3C//DTD SVG 1.1//EN" "http://www.w3.org/Graphics/SVG/1.1/DTD/svg11.dtd" >
<svg xmlns="http://www.w3.org/2000/svg" xmlns:xlink="http://www.w3.org/1999/xlink" version="1.1">
<metadata>
Created by FontForge 20170731 at Mon May  9 08:32:43 2022
 By Aleksey,,,
Copyright 2022, Kris Sowersby, Klim Type Foundry.
</metadata>
<defs>
<font id="UntitledSans-BlackItalic" horiz-adv-x="1351" >
  <font-face 
    font-family="Untitled Sans Black"
    font-weight="900"
    font-style="italic"
    font-stretch="normal"
    units-per-em="2048"
    panose-1="2 11 10 3 3 2 2 13 2 3"
    ascent="1638"
    descent="-410"
    x-height="1057"
    cap-height="1462"
    bbox="-543 -506 2421 2032"
    underline-thickness="102"
    underline-position="-307"
    slope="-9"
    unicode-range="U+0020-2212"
  />
<missing-glyph horiz-adv-x="2523" 
d="M2111 969v-113q-49 -16 -108 -16q-172 0 -172 172v256h-74v106h74v133h151v-133h117v-106h-117v-238q0 -69 62 -69q28 0 67 8zM735 1374v-82q20 43 62 70t100 27q92 0 143.5 -54t51.5 -149v-338h-154v303q0 121 -96 121q-49 0 -78 -34.5t-29 -104.5v-285h-153v526h153z
M1171 1114q0 126 76 200.5t199 74.5q121 0 196.5 -74.5t75.5 -200.5q0 -127 -75 -201.5t-197 -74.5q-123 0 -199 74.5t-76 201.5zM1323 1114q0 -80 31.5 -124t91.5 -44q57 0 88 44.5t31 123.5q0 77 -31 120.5t-88 43.5q-61 0 -92 -43t-31 -121zM285 848v174h174v-174h-174z
M2111 621q-39 8 -67 8q-62 0 -62 -70v-31h117v-106h-117v-422h-151v422h-74v106h74v50q0 172 172 172q56 0 108 -17v-112zM940 0v84q-20 -42 -64 -69t-100 -27q-105 0 -168 76t-63 200q0 123 63 200t168 77q54 0 97 -27t65 -68v297h154v-743h-152zM1706 166
q-24 -85 -89.5 -131.5t-166.5 -46.5q-123 0 -201 74t-78 200q0 125 80 201t199 76q127 0 195.5 -77.5t68.5 -189.5v-47h-395q15 -129 131 -129q85 0 109 70h147zM1450 432q-52 0 -84 -30t-43 -85h242q-2 48 -31 81.5t-84 33.5zM942 254v18q0 74 -32.5 116t-90.5 42
t-90.5 -45t-32.5 -121q0 -77 32.5 -122.5t90.5 -45.5t90.5 42.5t32.5 115.5z" />
    <glyph glyph-name="f_idieresis" unicode="f&#xef;" horiz-adv-x="1456" 
d="M662 1077l-3 -20h197l-47 -289h-197l-120 -768h-418l121 768h-134l48 289h133l4 28q21 131 106 230.5t209 150t268 50.5q107 0 234 -23l-49 -313q-62 20 -162 20q-81 0 -131 -33.5t-59 -89.5zM1262 1171l53 336h356l-53 -336h-356zM1001 1057h418l-168 -1057h-417z" />
    <glyph glyph-name=".notdef" horiz-adv-x="2523" 
d="M2111 969v-113q-49 -16 -108 -16q-172 0 -172 172v256h-74v106h74v133h151v-133h117v-106h-117v-238q0 -69 62 -69q28 0 67 8zM735 1374v-82q20 43 62 70t100 27q92 0 143.5 -54t51.5 -149v-338h-154v303q0 121 -96 121q-49 0 -78 -34.5t-29 -104.5v-285h-153v526h153z
M1171 1114q0 126 76 200.5t199 74.5q121 0 196.5 -74.5t75.5 -200.5q0 -127 -75 -201.5t-197 -74.5q-123 0 -199 74.5t-76 201.5zM1323 1114q0 -80 31.5 -124t91.5 -44q57 0 88 44.5t31 123.5q0 77 -31 120.5t-88 43.5q-61 0 -92 -43t-31 -121zM285 848v174h174v-174h-174z
M2111 621q-39 8 -67 8q-62 0 -62 -70v-31h117v-106h-117v-422h-151v422h-74v106h74v50q0 172 172 172q56 0 108 -17v-112zM940 0v84q-20 -42 -64 -69t-100 -27q-105 0 -168 76t-63 200q0 123 63 200t168 77q54 0 97 -27t65 -68v297h154v-743h-152zM1706 166
q-24 -85 -89.5 -131.5t-166.5 -46.5q-123 0 -201 74t-78 200q0 125 80 201t199 76q127 0 195.5 -77.5t68.5 -189.5v-47h-395q15 -129 131 -129q85 0 109 70h147zM1450 432q-52 0 -84 -30t-43 -85h242q-2 48 -31 81.5t-84 33.5zM942 254v18q0 74 -32.5 116t-90.5 42
t-90.5 -45t-32.5 -121q0 -77 32.5 -122.5t90.5 -45.5t90.5 42.5t32.5 115.5z" />
    <glyph glyph-name=".null" horiz-adv-x="0" 
 />
    <glyph glyph-name="nonmarkingreturn" horiz-adv-x="682" 
 />
    <glyph glyph-name="space" unicode=" " horiz-adv-x="409" 
 />
    <glyph glyph-name="exclam" unicode="!" horiz-adv-x="735" 
d="M279 1462h477l-213 -921h-342zM63 0l68 424h444l-67 -424h-445z" />
    <glyph glyph-name="quotedbl" unicode="&#x22;" horiz-adv-x="1112" 
d="M723 842l49 665h387l-182 -665h-254zM217 842l51 665h389l-184 -665h-256z" />
    <glyph glyph-name="numbersign" unicode="#" horiz-adv-x="1546" 
d="M655 82l133 326h-233l-133 -326h-270l133 326h-213l94 243h219l76 185h-219l92 245h229l133 326h269l-134 -326h234l133 326h270l-133 -326h213l-94 -245h-221l-76 -185h221l-92 -243h-229l-133 -326h-269zM655 651h234l76 185h-234z" />
    <glyph glyph-name="dollar" unicode="$" horiz-adv-x="1415" 
d="M1358 508q0 -155 -84.5 -274t-227.5 -184t-323 -73l-35 -202h-196l36 211q-235 30 -367 149.5t-136 319.5h399q9 -138 156 -170l49 288l-121 21q-92 16 -169 62.5t-127 128t-50 182.5q0 153 83 269.5t222.5 178.5t316.5 68l33 192h195l-35 -202q218 -33 330.5 -153.5
t117.5 -301.5h-374q-3 106 -125 147l-47 -272l137 -25q164 -31 253 -129t89 -231zM553 1042q0 -46 31.5 -71t105.5 -43l43 252q-80 -9 -130 -46.5t-50 -91.5zM971 430q0 46 -34.5 71t-117.5 40l-45 -265q197 20 197 154z" />
    <glyph glyph-name="percent" unicode="%" horiz-adv-x="1794" 
d="M496 762q-137 0 -226.5 89t-89.5 222q0 169 126 291.5t296 122.5q137 0 226.5 -89t89.5 -222q0 -169 -126 -291.5t-296 -122.5zM1425 1462h265l-1252 -1462h-264zM526 969q70 0 123 53.5t53 124.5q0 59 -36.5 96t-96.5 37q-69 0 -121.5 -53.5t-52.5 -124.5
q0 -59 36.5 -96t94.5 -37zM1260 -25q-137 0 -226.5 89.5t-89.5 222.5q0 169 126 291t296 122q137 0 226 -89t89 -222q0 -169 -125.5 -291.5t-295.5 -122.5zM1290 182q70 0 123 53.5t53 124.5q0 59 -36.5 96.5t-96.5 37.5q-69 0 -121.5 -54t-52.5 -125q0 -59 36.5 -96
t94.5 -37z" />
    <glyph glyph-name="ampersand" unicode="&#x26;" horiz-adv-x="1650" 
d="M1098 0l-86 94q-227 -119 -463 -119q-226 0 -364 103t-138 272q0 140 84.5 245t259.5 193q-96 126 -96 246q0 140 78 244.5t204 156.5t281 52q201 0 325 -96t124 -236q0 -135 -89.5 -230t-291.5 -188l174 -196q89 121 141 262h363q-79 -272 -299 -492l276 -311h-483z
M668 1081q0 -35 19 -65.5t63 -79.5q113 45 151.5 84t38.5 96q0 44 -32.5 75.5t-88.5 31.5q-64 0 -107.5 -40.5t-43.5 -101.5zM453 414q0 -66 47.5 -103t128.5 -37q101 0 188 37l-246 275q-60 -35 -89 -75.5t-29 -96.5z" />
    <glyph glyph-name="quotesingle" unicode="'" horiz-adv-x="618" 
d="M219 842l49 665h398l-181 -665h-266z" />
    <glyph glyph-name="parenleft" unicode="(" horiz-adv-x="976" 
d="M1067 1507q-479 -537 -479 -1042q0 -354 207 -686h-383q-226 315 -226 700q0 553 494 1028h387z" />
    <glyph glyph-name="parenright" unicode=")" horiz-adv-x="976" 
d="M-49 -221q479 537 479 1042q0 354 -207 686h383q225 -314 225 -700q0 -554 -493 -1028h-387z" />
    <glyph glyph-name="asterisk" unicode="*" horiz-adv-x="942" 
d="M512 1487l217 -37l-35 -225l226 35l38 -218l-229 -36l105 -207l-195 -101l-107 207l-163 -162l-156 152l164 166l-207 104l98 197l209 -107z" />
    <glyph glyph-name="plus" unicode="+" 
d="M1233 537h-414l-63 -410h-285l64 410h-412l47 286h412l63 410h285l-64 -410h414z" />
    <glyph glyph-name="comma" unicode="," horiz-adv-x="739" 
d="M68 16l67 428h445l-70 -440q-30 -191 -165.5 -286t-346.5 -95l31 205q51 1 86.5 7.5t70.5 24t56.5 53t29.5 89.5l4 14h-208z" />
    <glyph glyph-name="hyphen" unicode="-" horiz-adv-x="942" 
d="M164 430l53 336h586l-55 -336h-584z" />
    <glyph glyph-name="period" unicode="." horiz-adv-x="739" 
d="M66 0l69 444h445l-70 -444h-444z" />
    <glyph glyph-name="slash" unicode="/" horiz-adv-x="1196" 
d="M-49 -221l940 1728h395l-940 -1728h-395z" />
    <glyph glyph-name="zero" unicode="0" horiz-adv-x="1503" 
d="M700 -25q-279 0 -443.5 174t-164.5 455q0 134 32 262t97.5 240.5t157 197.5t218.5 134t273 49q279 0 444 -174.5t165 -454.5q0 -134 -32.5 -262t-98 -240.5t-157 -197.5t-218.5 -134t-273 -49zM725 291q229 0 301 409q21 113 21 195q0 134 -52 205t-149 71
q-229 0 -301 -409q-21 -113 -21 -195q0 -134 52 -205t149 -71z" />
    <glyph glyph-name="one" unicode="1" horiz-adv-x="970" 
d="M145 965l43 282q186 0 287.5 50.5t145.5 164.5h319l-231 -1462h-433l154 965h-285z" />
    <glyph glyph-name="two" unicode="2" horiz-adv-x="1304" 
d="M1317 1075q0 -84 -26 -155t-68.5 -125.5t-112.5 -106t-143 -90.5t-174 -84q-149 -66 -205.5 -104t-75.5 -82h688l-51 -328h-1176l23 145q63 389 567 635q220 107 281 153t61 118q0 56 -34.5 86t-100.5 30q-81 0 -139 -57t-76 -145h-418q24 111 79.5 205.5t138.5 165.5
t198.5 111t251.5 40q227 0 369.5 -111t142.5 -301z" />
    <glyph glyph-name="three" unicode="3" horiz-adv-x="1308" 
d="M1237 438q0 -84 -39 -164.5t-112.5 -148t-195.5 -109t-274 -41.5q-282 0 -437.5 133.5t-155.5 344.5h409q0 -164 213 -164q90 0 144.5 45.5t54.5 111.5q0 132 -187 132h-137l47 296h135q98 0 153.5 46t55.5 122q0 57 -39 93t-108 36q-81 0 -136.5 -43.5t-72.5 -119.5
h-395q23 98 75 182.5t130 152t190 106t244 38.5q124 0 222.5 -31.5t160 -86.5t93.5 -126t32 -153q0 -130 -89.5 -230.5t-226.5 -128.5q114 -23 180 -101t66 -192z" />
    <glyph glyph-name="four" unicode="4" horiz-adv-x="1476" 
d="M1327 1462l-133 -835h254l-49 -322h-254l-49 -305h-412l49 305h-721l51 324l805 833h459zM856 1085l-436 -458h362z" />
    <glyph glyph-name="five" unicode="5" horiz-adv-x="1347" 
d="M702 694q-112 0 -186 -82h-391l223 850h1000l-52 -327h-686l-55 -209q45 31 119.5 54.5t163.5 23.5q201 0 321.5 -116t120.5 -308q0 -124 -47.5 -234.5t-132.5 -192.5t-212.5 -130t-279.5 -48q-280 0 -424.5 132t-144.5 352h434q0 -80 42 -127t122 -47q100 0 160.5 69.5
t60.5 175.5q0 74 -39 119t-117 45z" />
    <glyph glyph-name="six" unicode="6" horiz-adv-x="1368" 
d="M840 1171q-112 0 -203.5 -90.5t-114.5 -220.5q134 117 324 117q83 0 163.5 -28.5t147 -81.5t107.5 -137t41 -185q0 -115 -49 -219.5t-133.5 -181.5t-206 -123t-259.5 -46q-163 0 -292 69t-204 202t-75 309q0 185 58 354.5t160 297.5t250.5 204t319.5 76q215 0 360.5 -116
t151.5 -318h-382q-14 118 -164 118zM676 274q100 0 165.5 69.5t65.5 168.5q0 84 -55 130t-133 46q-100 0 -166 -69.5t-66 -167.5q0 -84 55.5 -130.5t133.5 -46.5z" />
    <glyph glyph-name="seven" unicode="7" horiz-adv-x="1245" 
d="M877 1135h-725l51 327h1140l-55 -344q-194 -199 -312 -375t-179.5 -345.5t-100.5 -397.5h-440q28 166 85 321t140.5 295.5t178.5 264t217 254.5z" />
    <glyph glyph-name="eight" unicode="8" horiz-adv-x="1376" 
d="M641 -25q-269 0 -433.5 107t-164.5 293q0 140 106 249t242 130q-178 90 -178 266q0 138 78 245t214.5 164.5t309.5 57.5q153 0 272.5 -43t190 -129.5t70.5 -204.5q0 -129 -78.5 -230.5t-204.5 -146.5q100 -26 166.5 -106t66.5 -189q0 -138 -85 -244t-234 -162.5
t-338 -56.5zM764 885q96 0 152.5 47.5t56.5 134.5q0 69 -50 101t-128 32q-94 0 -151.5 -48t-57.5 -134q0 -69 50.5 -101t127.5 -32zM686 600q-114 0 -174.5 -53t-60.5 -133q0 -67 57.5 -105.5t163.5 -38.5q114 0 174.5 54.5t60.5 134.5q0 67 -57.5 104t-163.5 37z" />
    <glyph glyph-name="nine" unicode="9" horiz-adv-x="1366" 
d="M596 291q112 0 203 90.5t114 220.5q-134 -117 -323 -117q-83 0 -163.5 29t-147 81.5t-107.5 137t-41 185.5q0 115 48.5 219t133 181.5t206 123t259.5 45.5q163 0 292.5 -69t204.5 -202t75 -309q0 -185 -58.5 -355t-160.5 -297.5t-250.5 -203.5t-319.5 -76
q-140 0 -253.5 49.5t-184 150t-74.5 235.5h383q7 -54 46.5 -86.5t117.5 -32.5zM760 1188q-100 0 -166 -70t-66 -168q0 -84 55.5 -130t133.5 -46q100 0 165.5 69.5t65.5 168.5q0 84 -55 130t-133 46z" />
    <glyph glyph-name="colon" unicode=":" horiz-adv-x="739" 
d="M162 612l69 445h445l-70 -445h-444zM66 0l69 444h445l-70 -444h-444z" />
    <glyph glyph-name="semicolon" unicode=";" horiz-adv-x="739" 
d="M162 612l69 445h445l-70 -445h-444zM68 16l67 428h445l-70 -440q-30 -191 -165.5 -286t-346.5 -95l31 205q51 1 86.5 7.5t70.5 24t56.5 53t29.5 89.5l4 14h-208z" />
    <glyph glyph-name="less" unicode="&#x3c;" 
d="M170 483l63 383l1053 359l-51 -328l-733 -227l661 -228l-51 -317z" />
    <glyph glyph-name="equal" unicode="=" 
d="M160 768l41 258h1108l-41 -258h-1108zM88 313l41 258h1108l-39 -258h-1110z" />
    <glyph glyph-name="greater" unicode="&#x3e;" 
d="M1169 483l-1054 -358l51 328l733 227l-661 227l51 318l942 -359z" />
    <glyph glyph-name="question" unicode="?" horiz-adv-x="1280" 
d="M1309 1090q0 -142 -82.5 -255t-257.5 -210q-115 -60 -131 -119h-406q25 157 285 319q103 63 143.5 110t40.5 114q0 56 -37.5 88t-101.5 32q-85 0 -142 -56.5t-75 -145.5h-418q27 111 85 205t141.5 164.5t198.5 110.5t247 40q230 0 370 -104.5t140 -292.5zM332 0l63 401
h445l-64 -401h-444z" />
    <glyph glyph-name="at" unicode="@" horiz-adv-x="1873" 
d="M1479 950l-160 -592q-8 -24 -8 -45q0 -55 63 -55q117 0 191.5 128t74.5 337q0 224 -156.5 349.5t-414.5 125.5q-226 0 -410.5 -104t-291.5 -291.5t-107 -421.5q0 -129 41 -230t107 -164t157 -104t183 -57t194 -16q246 0 479 94l60 -160q-105 -53 -251.5 -87t-303.5 -34
q-139 0 -266.5 28.5t-239.5 89.5t-194 149t-129.5 215t-47.5 280q0 200 79 383.5t215.5 319.5t331 217t412.5 81q168 0 309 -50.5t238 -138.5t151 -210.5t54 -263.5q0 -124 -31 -230.5t-84.5 -183.5t-125.5 -132t-155 -82t-171 -27q-179 0 -260 122q-43 -55 -116 -84.5
t-146 -29.5q-143 0 -221 92t-78 240q0 79 21 158.5t63.5 152t101 128.5t140.5 89t175 33q67 0 121.5 -28t73.5 -71l24 80h308zM1040 477q23 89 23 117q0 48 -25 78t-67 30q-61 0 -106.5 -42t-66 -98t-20.5 -113q0 -55 26.5 -85t76.5 -30q51 0 95.5 36t63.5 107z" />
    <glyph glyph-name="A" unicode="A" horiz-adv-x="1650" 
d="M1130 0l-53 272h-575l-146 -272h-434l817 1462h486l340 -1462h-435zM922 1053l-244 -455h336l-88 455h-4z" />
    <glyph glyph-name="B" unicode="B" horiz-adv-x="1503" 
d="M788 0h-745l231 1462h715q488 0 488 -358q0 -127 -76.5 -224t-181.5 -128q89 -31 146.5 -107t57.5 -182q0 -95 -40 -178t-117 -147t-200 -101t-278 -37zM606 887h268q98 0 144.5 43.5t46.5 111.5q0 121 -147 121h-269zM561 596l-47 -297h283q105 0 156 47.5t51 124.5
q0 63 -38.5 94t-123.5 31h-281z" />
    <glyph glyph-name="C" unicode="C" horiz-adv-x="1521" 
d="M760 -25q-316 0 -496 171.5t-180 459.5q0 179 61 339.5t169.5 280.5t268.5 190.5t347 70.5q292 0 448 -145.5t164 -395.5h-420q-2 99 -58 157t-153 58q-95 0 -171.5 -48.5t-122.5 -129t-70.5 -179.5t-24.5 -206q0 -141 67 -219t187 -78q103 0 173.5 57t105.5 158h418
q-36 -121 -96 -218t-146.5 -170.5t-206 -113t-264.5 -39.5z" />
    <glyph glyph-name="D" unicode="D" horiz-adv-x="1581" 
d="M274 1462h619q326 0 499 -166.5t173 -449.5q0 -182 -61.5 -337.5t-173 -268t-276 -176.5t-362.5 -64h-649zM829 1135h-182l-129 -807h207q184 0 293.5 136t109.5 376q0 153 -71 224t-228 71z" />
    <glyph glyph-name="E" unicode="E" horiz-adv-x="1384" 
d="M43 0l231 1462h1160l-52 -327h-737l-37 -236h643l-53 -328h-641l-39 -243h754l-51 -328h-1178z" />
    <glyph glyph-name="F" unicode="F" horiz-adv-x="1343" 
d="M43 0l231 1462h1137l-51 -327h-705l-49 -301h613l-52 -328h-612l-80 -506h-432z" />
    <glyph glyph-name="G" unicode="G" horiz-adv-x="1622" 
d="M698 -25q-130 0 -242.5 43t-195 122t-129.5 196.5t-47 259.5q0 146 38 280.5t112 245t175.5 192.5t234.5 127.5t284 45.5q292 0 452.5 -145.5t171.5 -385.5h-417q-5 93 -64.5 149t-159.5 56q-77 0 -141.5 -31.5t-109.5 -85t-76.5 -126t-46.5 -153.5t-15 -167
q0 -137 65 -217t187 -80q118 0 193 47.5t96 130.5h-176l47 295h614l-123 -774h-331l2 147q-52 -76 -160 -124t-238 -48z" />
    <glyph glyph-name="H" unicode="H" horiz-adv-x="1683" 
d="M43 0l231 1462h433l-89 -559h570l88 559h432l-231 -1462h-433l93 578h-570l-92 -578h-432z" />
    <glyph glyph-name="I" unicode="I" horiz-adv-x="681" 
d="M274 1462h433l-232 -1462h-432z" />
    <glyph glyph-name="J" unicode="J" horiz-adv-x="1368" 
d="M825 524l148 938h432l-145 -921q-42 -263 -222.5 -414.5t-470.5 -151.5q-171 0 -298 64.5t-190 186.5t-46 282h405q-9 -225 166 -225q96 0 148.5 58t72.5 183z" />
    <glyph glyph-name="K" unicode="K" horiz-adv-x="1595" 
d="M1051 0l-324 532l-197 -186l-55 -346h-432l231 1462h433l-97 -614l604 614h492l-668 -633l500 -829h-487z" />
    <glyph glyph-name="L" unicode="L" horiz-adv-x="1341" 
d="M43 0l231 1462h433l-181 -1134h703l-51 -328h-1135z" />
    <glyph glyph-name="M" unicode="M" horiz-adv-x="1980" 
d="M1040 0h-288l-168 948h-4l-150 -948h-389l231 1462h574l155 -897h5l432 897h567l-231 -1462h-412l149 948h-6z" />
    <glyph glyph-name="N" unicode="N" horiz-adv-x="1667" 
d="M752 1462l395 -825h4l131 825h410l-232 -1462h-387l-467 948h-4l-149 -948h-410l231 1462h478z" />
    <glyph glyph-name="O" unicode="O" horiz-adv-x="1613" 
d="M926 1487q315 0 494 -172.5t179 -460.5q0 -173 -60.5 -332.5t-167.5 -280.5t-266.5 -193.5t-346.5 -72.5q-315 0 -494.5 172.5t-179.5 460.5q0 173 60.5 332.5t167.5 280.5t267 193.5t347 72.5zM907 1161q-77 0 -141 -32t-108.5 -86t-75.5 -126.5t-45.5 -153
t-14.5 -165.5q0 -142 65 -219.5t189 -77.5q77 0 141 32t108.5 86t75.5 126.5t45.5 153t14.5 165.5q0 142 -65 219.5t-189 77.5z" />
    <glyph glyph-name="P" unicode="P" horiz-adv-x="1470" 
d="M827 453h-288l-72 -453h-424l231 1462h701q251 0 393.5 -112t142.5 -320q0 -277 -185 -427t-499 -150zM590 778h233q262 0 262 207q0 75 -47.5 112.5t-156.5 37.5h-234z" />
    <glyph glyph-name="Q" unicode="Q" horiz-adv-x="1613" 
d="M1362 55l-240 -176l-102 135q-125 -39 -262 -39q-315 0 -494.5 172.5t-179.5 460.5q0 173 60.5 332.5t167.5 280.5t267 193.5t347 72.5q315 0 494 -172.5t179 -460.5q0 -205 -82.5 -388.5t-232.5 -305.5zM522 598q0 -142 65 -219.5t189 -77.5q21 0 31 2l-96 129l241 178
l107 -145q102 154 102 399q0 142 -65 219.5t-189 77.5q-77 0 -141 -32t-108.5 -86t-75.5 -126.5t-45.5 -153t-14.5 -165.5z" />
    <glyph glyph-name="R" unicode="R" horiz-adv-x="1517" 
d="M467 0h-424l231 1462h734q247 0 380.5 -113.5t133.5 -314.5q0 -179 -94 -308t-248 -194l219 -532h-449l-184 467h-225zM592 795h246q143 0 201.5 52t58.5 146q0 71 -48 106.5t-157 35.5h-246z" />
    <glyph glyph-name="S" unicode="S" horiz-adv-x="1404" 
d="M14 457h416q4 -90 77 -135.5t175 -45.5q117 0 180.5 40.5t63.5 115.5q0 44 -40 67t-141 44l-247 51q-155 33 -250.5 128t-95.5 245q0 120 50.5 219t139 164.5t208 101t257.5 35.5q294 0 448 -127.5t160 -341.5h-399q-5 77 -65 121.5t-167 44.5q-98 0 -155.5 -37.5
t-57.5 -102.5q0 -50 39 -75t131 -45l265 -56q169 -35 255.5 -125.5t86.5 -232.5q0 -161 -90.5 -284t-244 -187t-343.5 -64q-301 0 -476.5 126.5t-179.5 355.5z" />
    <glyph glyph-name="T" unicode="T" horiz-adv-x="1550" 
d="M477 0l180 1135h-489l51 327h1411l-51 -327h-489l-181 -1135h-432z" />
    <glyph glyph-name="U" unicode="U" horiz-adv-x="1581" 
d="M1481 584q-47 -297 -246.5 -453t-521.5 -156q-285 0 -442.5 127.5t-157.5 360.5q0 51 10 123l139 876h432l-135 -854q-8 -44 -8 -94q0 -207 207 -207q73 0 126.5 23t86.5 66t52 94t30 118l135 854h432z" />
    <glyph glyph-name="V" unicode="V" horiz-adv-x="1597" 
d="M446 0l-292 1462h450l158 -979h6l520 979h455l-842 -1462h-455z" />
    <glyph glyph-name="W" unicode="W" horiz-adv-x="2136" 
d="M1141 0l-27 958h-4l-401 -958h-447l-108 1462h436l37 -934h4l383 934h422l8 -934h4l412 934h424l-691 -1462h-452z" />
    <glyph glyph-name="X" unicode="X" horiz-adv-x="1597" 
d="M1040 0l-252 455l-405 -455h-461l678 748l-401 714h471l219 -395l348 395h461l-625 -690l438 -772h-471z" />
    <glyph glyph-name="Y" unicode="Y" horiz-adv-x="1572" 
d="M922 0h-435l95 590l-432 872h464l238 -506h6l395 506h471l-708 -872z" />
    <glyph glyph-name="Z" unicode="Z" horiz-adv-x="1431" 
d="M1438 1147l-848 -819h739l-51 -328h-1286l47 303l860 832h-709l52 327h1245z" />
    <glyph glyph-name="bracketleft" unicode="[" horiz-adv-x="901" 
d="M692 1229l-186 -1172h233l-43 -278h-635l275 1728h633l-45 -278h-232z" />
    <glyph glyph-name="backslash" unicode="\" horiz-adv-x="1163" 
d="M225 1507h359l395 -1728h-358z" />
    <glyph glyph-name="bracketright" unicode="]" horiz-adv-x="901" 
d="M250 57l186 1172h-233l43 278h635l-275 -1728h-633l45 278h232z" />
    <glyph glyph-name="asciicircum" unicode="^" horiz-adv-x="1085" 
d="M504 1487h383l190 -600h-336l-82 309l-180 -309h-354z" />
    <glyph glyph-name="underscore" unicode="_" horiz-adv-x="894" 
d="M-63 -309l43 274h759l-45 -274h-757z" />
    <glyph glyph-name="grave" unicode="`" horiz-adv-x="1153" 
d="M950 1171h-278l-211 336h422z" />
    <glyph glyph-name="a" unicode="a" horiz-adv-x="1249" 
d="M686 0q3 74 14 147q-114 -172 -354 -172q-151 0 -240.5 76.5t-89.5 202.5q0 86 33.5 152t95.5 108.5t142 66.5t182 33l285 25q8 47 8 63q0 41 -26 65t-77 24q-55 0 -90.5 -30.5t-46.5 -78.5h-399q48 191 194.5 295t382.5 104q227 0 347 -93t120 -273q0 -58 -12 -129
l-41 -248q-35 -201 -45 -338h-383zM715 395l6 39l-148 -18q-143 -15 -143 -111q0 -36 24 -56t68 -20q71 0 126 44.5t67 121.5z" />
    <glyph glyph-name="b" unicode="b" horiz-adv-x="1361" 
d="M479 152l-24 -152h-414l240 1507h417l-94 -594q52 80 132 125t179 45q190 0 293 -127t103 -333q0 -174 -63.5 -320.5t-187 -237t-282.5 -90.5q-105 0 -188 50t-111 127zM745 788q-80 0 -134.5 -60.5t-71.5 -172.5q-11 -87 -11 -106q0 -86 38 -133.5t102 -47.5
q104 0 164.5 91t60.5 245q0 89 -37.5 136.5t-110.5 47.5z" />
    <glyph glyph-name="c" unicode="c" horiz-adv-x="1204" 
d="M55 442q0 146 52.5 267.5t141.5 202t207.5 125t250.5 44.5q236 0 361 -118.5t114 -311.5h-394q5 57 -22 96t-86 39q-92 0 -150.5 -102t-58.5 -242q0 -82 33 -126t94 -44q59 0 98.5 40.5t51.5 95.5h397q-53 -196 -204.5 -314.5t-377.5 -118.5q-144 0 -258 53.5t-182 161
t-68 252.5z" />
    <glyph glyph-name="d" unicode="d" horiz-adv-x="1363" 
d="M889 913l94 594h418l-240 -1507h-416l23 147q-52 -80 -134 -126t-181 -46q-185 0 -292.5 123.5t-107.5 319.5q0 177 63.5 326.5t188 243t285.5 93.5q104 0 187 -46t112 -122zM621 268q82 0 136.5 61t71.5 173q11 84 11 106q0 86 -38 133t-102 47q-104 0 -164.5 -96.5
t-60.5 -251.5q0 -79 38.5 -125.5t107.5 -46.5z" />
    <glyph glyph-name="e" unicode="e" horiz-adv-x="1245" 
d="M1155 360q-60 -179 -206 -282t-361 -103q-240 0 -386.5 129t-146.5 347q0 280 180.5 455t471.5 175q232 0 361.5 -120t129.5 -330q0 -87 -24 -189h-721q6 -178 157 -178q118 0 162 96h383zM686 799q-74 0 -127 -44t-80 -120h342q2 10 2 31q0 57 -35.5 95t-101.5 38z" />
    <glyph glyph-name="f" unicode="f" horiz-adv-x="788" 
d="M195 766h-134l48 291h133l10 69q27 189 154.5 289.5t330.5 100.5q89 0 191 -23l-47 -303q-52 14 -97 14q-57 0 -86 -24t-36 -78l-7 -45h197l-47 -291h-197l-121 -766h-413z" />
    <glyph glyph-name="g" unicode="g" horiz-adv-x="1366" 
d="M758 74l22 147q-57 -89 -135 -133.5t-188 -44.5q-184 0 -287.5 123t-103.5 323q0 111 35.5 217t98.5 189.5t160 134.5t211 51q115 0 205.5 -48.5t116.5 -127.5l25 152h411l-145 -916q-42 -264 -213 -397t-449 -133q-239 0 -381.5 101t-156.5 263h411q15 -88 150 -88
q85 0 142 44.5t71 142.5zM836 539q10 66 10 88q0 79 -39.5 122.5t-108.5 43.5q-101 0 -160 -77.5t-59 -205.5q0 -87 39 -133.5t111 -46.5q81 0 135.5 54t71.5 155z" />
    <glyph glyph-name="h" unicode="h" horiz-adv-x="1361" 
d="M698 1507l-96 -602q54 78 141.5 127t192.5 49q159 0 252.5 -90t93.5 -243q0 -28 -8 -86l-105 -662h-417l90 573q4 28 4 58q0 131 -123 131q-144 0 -176 -203l-88 -559h-418l240 1507h417z" />
    <glyph glyph-name="i" unicode="i" horiz-adv-x="663" 
d="M223 1171l53 336h422l-53 -336h-422zM209 1057h418l-168 -1057h-418z" />
    <glyph glyph-name="j" unicode="j" horiz-adv-x="663" 
d="M223 1171l53 336h422l-53 -336h-422zM-6 -379q-103 0 -193 19l47 290q40 -6 76 -6q56 0 83 24t36 79l164 1030h420l-168 -1055q-59 -381 -465 -381z" />
    <glyph glyph-name="k" unicode="k" horiz-adv-x="1347" 
d="M817 0l-190 377l-125 -111l-43 -266h-418l240 1507h417l-131 -817l394 367h460l-481 -426l328 -631h-451z" />
    <glyph glyph-name="l" unicode="l" horiz-adv-x="663" 
d="M459 0h-418l240 1507h417z" />
    <glyph glyph-name="m" unicode="m" horiz-adv-x="2037" 
d="M936 1081q231 0 311 -174q70 80 166 127t209 47q156 0 245 -91t89 -240q0 -38 -6 -82l-107 -668h-418l93 580q4 36 4 51q0 65 -31 98t-88 33q-128 0 -162 -199l-90 -563h-418l92 580q4 36 4 51q0 65 -31 98t-87 33q-128 0 -162 -199l-90 -563h-418l168 1057h414l-25 -152
q51 76 143.5 126t194.5 50z" />
    <glyph glyph-name="n" unicode="n" horiz-adv-x="1361" 
d="M623 1057l-25 -152q54 78 143 127t195 49q159 0 252.5 -90t93.5 -243q0 -28 -8 -86l-105 -662h-417l90 573q4 28 4 58q0 131 -123 131q-144 0 -176 -203l-88 -559h-418l168 1057h414z" />
    <glyph glyph-name="o" unicode="o" horiz-adv-x="1290" 
d="M588 -25q-240 0 -386.5 129t-146.5 347q0 280 179.5 455t470.5 175q240 0 386 -128.5t146 -346.5q0 -281 -179 -456t-470 -175zM612 268q70 0 118 53.5t67.5 130.5t19.5 171q0 81 -35.5 123t-101.5 42q-70 0 -118 -53t-67.5 -130.5t-19.5 -170.5q0 -81 35.5 -123.5
t101.5 -42.5z" />
    <glyph glyph-name="p" unicode="p" horiz-adv-x="1363" 
d="M483 145l-80 -510h-417l225 1422h414l-25 -146q52 79 135 124.5t183 45.5q189 0 292 -126.5t103 -331.5q0 -174 -63.5 -320.5t-187 -237t-282.5 -90.5q-103 0 -183 46t-114 124zM748 788q-80 0 -135 -61t-72 -172q-11 -87 -11 -106q0 -86 38 -133.5t102 -47.5
q104 0 164.5 91t60.5 245q0 89 -37 136.5t-110 47.5z" />
    <glyph glyph-name="q" unicode="q" horiz-adv-x="1363" 
d="M891 911l24 146h412l-225 -1422h-418l80 510q-54 -80 -133 -125t-178 -45q-184 0 -292 123.5t-108 319.5q0 131 37.5 250.5t105 211.5t170 146.5t224.5 54.5q104 0 188 -47t113 -123zM621 268q82 0 136.5 61t71.5 173q11 84 11 106q0 86 -38 133t-102 47
q-104 0 -164.5 -96.5t-60.5 -251.5q0 -79 38.5 -125.5t107.5 -46.5z" />
    <glyph glyph-name="r" unicode="r" horiz-adv-x="968" 
d="M1001 1059l-61 -383q-55 8 -119 8q-118 0 -195.5 -62t-97.5 -184l-69 -438h-418l168 1057h414l-35 -215q58 112 146.5 170.5t197.5 58.5q51 0 69 -12z" />
    <glyph glyph-name="s" unicode="s" horiz-adv-x="1161" 
d="M12 334h383q3 -50 46.5 -74t103.5 -24q127 0 127 69q0 26 -24 37.5t-91 24.5l-180 36q-125 26 -196.5 93.5t-71.5 179.5q0 182 148 293.5t382 111.5q120 0 212.5 -28t149 -78t86.5 -112t35 -136h-364q-5 44 -42 71t-98 27q-51 0 -80.5 -18.5t-29.5 -52.5q0 -25 24.5 -38
t83.5 -24l193 -39q129 -26 193.5 -97t64.5 -179q0 -129 -72 -221.5t-189.5 -136.5t-266.5 -44q-240 0 -381.5 94t-145.5 265z" />
    <glyph glyph-name="t" unicode="t" horiz-adv-x="851" 
d="M745 315l-47 -299q-131 -32 -254 -32q-156 0 -243.5 63t-87.5 193q0 34 6 77l69 451h-127l48 289h137l41 258h399l-41 -258h213l-47 -289h-213l-59 -336q-7 -40 -7 -55q0 -41 22.5 -56.5t74.5 -15.5q55 0 116 10z" />
    <glyph glyph-name="u" unicode="u" horiz-adv-x="1345" 
d="M725 0l25 152q-54 -78 -141 -127.5t-191 -49.5q-159 0 -246.5 90t-87.5 244q0 32 8 94l105 654h417l-92 -580q-6 -35 -6 -59q0 -121 113 -121q63 0 108.5 49t59.5 152l90 559h418l-168 -1057h-412z" />
    <glyph glyph-name="v" unicode="v" horiz-adv-x="1290" 
d="M289 0l-191 1057h408l78 -649h4l360 649h416l-645 -1057h-430z" />
    <glyph glyph-name="w" unicode="w" horiz-adv-x="1830" 
d="M1180 1057l8 -633h4l301 633h412l-572 -1057h-399l-33 610h-4l-289 -610h-399l-111 1057h412l25 -633h4l278 633h363z" />
    <glyph glyph-name="x" unicode="x" horiz-adv-x="1296" 
d="M377 0h-455l510 545l-295 512h453l121 -238l200 238h457l-471 -504l313 -553h-452l-142 272z" />
    <glyph glyph-name="y" unicode="y" horiz-adv-x="1290" 
d="M285 20l-187 1037h412l84 -672h4l354 672h412l-604 -1051q-123 -213 -262.5 -300t-356.5 -87q-82 0 -161 23l47 295q59 -13 79 -13q66 0 107 20t72 76z" />
    <glyph glyph-name="z" unicode="z" horiz-adv-x="1146" 
d="M1092 778l-535 -479h479l-47 -299h-991l43 270l534 490h-448l47 297h963z" />
    <glyph glyph-name="braceleft" unicode="{" horiz-adv-x="925" 
d="M66 502l45 282h69q54 0 92.5 34.5t46.5 88.5l54 330q21 128 115.5 199t254.5 71h252l-45 -274h-121q-45 0 -69 -19t-31 -63l-47 -301q-15 -91 -88.5 -146t-175.5 -61q90 -6 145 -52t55 -122q0 -24 -26.5 -178t-26.5 -176q0 -62 78 -62h121l-43 -274h-252
q-142 0 -215.5 57t-73.5 160q0 29 29 210.5t29 196.5q0 45 -28 72t-75 27h-69z" />
    <glyph glyph-name="bar" unicode="|" horiz-adv-x="757" 
d="M358 1507h357l-275 -1728h-356z" />
    <glyph glyph-name="braceright" unicode="}" horiz-adv-x="925" 
d="M901 784l-45 -282h-70q-54 0 -92.5 -34.5t-46.5 -88.5l-53 -330q-21 -128 -116 -199t-255 -71h-252l45 274h121q45 0 69.5 19t31.5 63l47 301q15 91 88.5 146t175.5 61q-90 6 -145.5 52t-55.5 122q0 24 26.5 178t26.5 176q0 33 -19 47.5t-58 14.5h-121l43 274h252
q142 0 215 -57t73 -160q0 -29 -28.5 -210.5t-28.5 -196.5q0 -45 27.5 -72t74.5 -27h70z" />
    <glyph glyph-name="asciitilde" unicode="~" horiz-adv-x="1269" 
d="M500 549q-29 0 -57.5 -30t-41.5 -85h-235q32 191 119 306.5t196 115.5q48 0 98.5 -19t86 -41.5t75 -41.5t66.5 -19q30 0 57 27.5t43 83.5h236q-32 -190 -120 -305t-198 -115q-48 0 -98 19t-85 42.5t-74.5 42.5t-67.5 19z" />
    <glyph glyph-name="uni00A0" unicode="&#xa0;" horiz-adv-x="409" 
 />
    <glyph glyph-name="exclamdown" unicode="&#xa1;" horiz-adv-x="735" 
d="M739 1462l-67 -424h-445l68 424h444zM524 0h-477l213 922h342z" />
    <glyph glyph-name="cent" unicode="&#xa2;" horiz-adv-x="1222" 
d="M1155 424q-47 -182 -180 -299.5t-334 -138.5l-37 -203h-194l36 209q-175 34 -282 163t-107 312q0 129 45.5 244t124 199.5t187 138t231.5 65.5l37 213h197l-39 -221q176 -32 265 -144.5t89 -287.5h-320q0 47 -21 88t-65 61l-96 -544q92 35 129 145h334zM416 475
q0 -128 84 -182l92 522q-49 -19 -84.5 -55.5t-54.5 -83.5t-28 -96.5t-9 -104.5z" />
    <glyph glyph-name="sterling" unicode="&#xa3;" horiz-adv-x="1363" 
d="M1272 328l-51 -328h-1225l51 328h35q65 0 115.5 53.5t64.5 153.5h-176l45 278h117q-8 82 -8 129q0 152 79.5 276.5t221.5 196.5t317 72q127 0 227 -35.5t163.5 -99.5t96.5 -149t33 -187q0 -33 -2 -49h-403q2 16 2 45q0 72 -35 114.5t-109 42.5q-82 0 -132 -59t-50 -152
q0 -21 2.5 -43t8.5 -55.5t8 -46.5h264l-45 -278h-242q-38 -116 -139 -207h766z" />
    <glyph glyph-name="yen" unicode="&#xa5;" horiz-adv-x="1591" 
d="M1384 352h-399l-55 -352h-434l55 352h-397l34 215h398l14 97h-397l35 215h251l-317 583h459l241 -477h5l372 477h469l-504 -583h254l-34 -215h-400l-14 -97h399z" />
    <glyph glyph-name="section" unicode="&#xa7;" horiz-adv-x="1363" 
d="M1085 139q0 -124 -77 -222.5t-202 -150t-271 -51.5q-230 0 -345.5 98t-115.5 261h364q0 -44 36 -73.5t95 -29.5q56 0 89.5 27.5t33.5 71.5q0 28 -21 47t-69 43l-268 129q-134 66 -191 138t-57 175q0 127 63.5 218.5t174.5 146.5q-19 46 -19 98q0 124 77 222t202 149
t272 51q230 0 345.5 -98t115.5 -261h-367q0 45 -36 74t-95 29q-57 0 -90 -26.5t-33 -71.5q0 -27 22 -47t70 -44l267 -129q134 -66 192 -138t58 -173q0 -246 -238 -364q18 -44 18 -99zM823 436q7 -4 22.5 -11t22.5 -11q32 16 53 45.5t21 66.5q0 29 -21 51.5t-77 51.5
l-279 137q-7 4 -21.5 11t-21.5 11q-32 -16 -52.5 -45t-20.5 -65q0 -30 21 -53t77 -50z" />
    <glyph glyph-name="dieresis" unicode="&#xa8;" horiz-adv-x="1153" 
d="M737 1171l54 336h356l-53 -336h-357zM268 1171l54 336h356l-53 -336h-357z" />
    <glyph glyph-name="copyright" unicode="&#xa9;" horiz-adv-x="1800" 
d="M1690 729q0 -153 -60 -292.5t-161 -240.5t-241 -161t-294 -60t-294.5 60t-242 161t-161.5 240.5t-60 292.5q0 155 60 295.5t161.5 242.5t242 162t294.5 60t294 -60t241 -162t161 -242.5t60 -295.5zM266 729q0 -181 89.5 -334t243.5 -242.5t335 -89.5t335 89.5
t243.5 242.5t89.5 334q0 182 -89.5 337t-243.5 245t-335 90t-335 -90t-243.5 -245t-89.5 -337zM778 733q0 -113 41 -180t121 -70q105 5 127 121h279q-29 -149 -127.5 -234.5t-272.5 -88.5q-204 3 -323 128.5t-119 325.5q0 199 119.5 324t322.5 125q174 0 272.5 -86
t127.5 -236h-279q-22 119 -127 119q-80 0 -121 -66t-41 -182z" />
    <glyph glyph-name="ordfeminine" unicode="&#xaa;" horiz-adv-x="872" 
d="M561 770q2 21 6 50t6 42q-74 -110 -231 -110q-103 0 -162 50.5t-59 133.5q0 113 82 172.5t221 69.5l184 12q4 31 4 39q0 53 -59 53q-69 0 -82 -63h-281q31 128 131 198t261 70q153 0 234 -64t81 -186q0 -31 -6 -68l-27 -168q-27 -157 -33 -231h-270zM582 1030l4 21
l-88 -13q-86 -9 -86 -65q0 -21 14.5 -33t40.5 -12q42 0 75 27t40 75zM96 446l33 205h657l-32 -205h-658z" />
    <glyph glyph-name="guillemotleft" unicode="&#xab;" horiz-adv-x="1241" 
d="M1083 86h-268l-233 444l362 447h281l-297 -447zM592 86h-266l-234 444l363 447h280l-297 -447z" />
    <glyph glyph-name="registered" unicode="&#xae;" horiz-adv-x="1179" 
d="M668 1487q197 0 335 -135t138 -338q0 -204 -137.5 -339.5t-335.5 -135.5q-129 0 -236.5 60.5t-171 170t-63.5 244.5q0 203 137 338t334 135zM668 600q171 0 288 117.5t117 296.5q0 178 -117 294.5t-288 116.5q-170 0 -288 -116.5t-118 -294.5q0 -179 118 -296.5
t288 -117.5zM600 770h-145v502h252q96 0 149 -44t53 -128q0 -101 -92 -148l105 -182h-158l-88 160h-76v-160zM600 1042h86q42 0 60 14t18 44t-18 43.5t-60 13.5h-86v-115z" />
    <glyph glyph-name="macron" unicode="&#xaf;" horiz-adv-x="1153" 
d="M330 1171l39 254h700l-39 -254h-700z" />
    <glyph glyph-name="degree" unicode="&#xb0;" horiz-adv-x="811" 
d="M193 1145q0 149 102.5 245.5t247.5 96.5q127 0 206.5 -77.5t79.5 -199.5q0 -149 -102 -245.5t-246 -96.5q-127 0 -207.5 78t-80.5 199zM381 1165q0 -53 31.5 -84.5t85.5 -31.5q62 0 103.5 38.5t41.5 104.5q0 51 -32.5 83t-86.5 32q-62 0 -102.5 -38.5t-40.5 -103.5z" />
    <glyph glyph-name="twosuperior" unicode="&#xb2;" horiz-adv-x="800" 
d="M846 1245q0 -109 -69 -175.5t-216 -129.5q-85 -36 -110 -50t-35 -32h370l-32 -199h-666l14 86q9 54 33.5 102t52.5 81t72 66t76 52t80 44q131 65 149 79q29 28 31 60q0 53 -61 53q-38 0 -66.5 -27.5t-34.5 -68.5h-258q29 129 128 210t251 81q129 0 210 -61.5t81 -170.5z
" />
    <glyph glyph-name="threesuperior" unicode="&#xb3;" horiz-adv-x="796" 
d="M795 901q0 -101 -90.5 -178.5t-255.5 -77.5q-162 0 -250 75.5t-88 188.5h249q0 -73 105 -73q40 0 65 20.5t25 50.5q0 62 -92 62h-74l29 180h71q51 0 77 21.5t26 56.5q0 25 -19 42t-49 17q-38 0 -64 -19t-32 -53h-244q28 114 121 187.5t240 73.5q138 0 213.5 -63.5
t75.5 -158.5q0 -70 -48 -124.5t-124 -69.5q62 -14 97.5 -55t35.5 -103z" />
    <glyph glyph-name="acute" unicode="&#xb4;" horiz-adv-x="1153" 
d="M410 1171l151 336h445l-322 -336h-274z" />
    <glyph glyph-name="paragraph" unicode="&#xb6;" horiz-adv-x="1542" 
d="M510 -260l135 852q-214 0 -346.5 102.5t-132.5 274.5q0 213 169.5 353t448.5 140h750l-274 -1722h-275l234 1472h-199l-234 -1472h-276z" />
    <glyph glyph-name="periodcentered" unicode="&#xb7;" horiz-adv-x="800" 
d="M158 383l69 444h445l-70 -444h-444z" />
    <glyph glyph-name="cedilla" unicode="&#xb8;" horiz-adv-x="1894" 
d="M1069 -209q0 -69 -48 -121t-120.5 -77t-155.5 -25q-117 0 -200 37l24 151q119 -43 193 -43q43 0 69.5 16t26.5 42q0 47 -80 47q-30 0 -67 -11l-49 54l124 157h138l-72 -92q20 2 31 2q78 0 132 -35t54 -102z" />
    <glyph glyph-name="onesuperior" unicode="&#xb9;" horiz-adv-x="751" 
d="M729 827l-27 -168h-602l27 168h184l58 357h-187l25 159q128 0 177 25t75 92h196l-100 -633h174z" />
    <glyph glyph-name="ordmasculine" unicode="&#xba;" horiz-adv-x="903" 
d="M510 754q-161 0 -259.5 85.5t-98.5 229.5q0 187 120 303.5t316 116.5q161 0 259.5 -86.5t98.5 -231.5q0 -186 -120 -301.5t-316 -115.5zM569 1282q-42 0 -71 -34t-41.5 -82.5t-12.5 -106.5q0 -101 84 -101q43 0 72 34.5t41 84t12 107.5q0 98 -84 98zM117 446l33 205h657
l-33 -205h-657z" />
    <glyph glyph-name="guillemotright" unicode="&#xbb;" horiz-adv-x="1241" 
d="M164 977h268l234 -445l-363 -446h-280l296 446zM655 977h267l233 -445l-362 -446h-281l297 446z" />
    <glyph glyph-name="onequarter" unicode="&#xbc;" horiz-adv-x="1859" 
d="M432 -25h-233l1296 1514h234zM729 827l-27 -168h-602l27 168h184l58 357h-187l25 159q128 0 177 25t75 92h196l-100 -633h174zM1698 801l-76 -479h147l-28 -175h-150l-22 -147h-236l23 147h-395l28 175l445 479h264zM1423 571l-223 -249h184z" />
    <glyph glyph-name="onehalf" unicode="&#xbd;" horiz-adv-x="1871" 
d="M432 -25h-233l1296 1514h234zM729 827l-27 -168h-602l27 168h184l58 357h-187l25 159q128 0 177 25t75 92h196l-100 -633h174zM1815 586q0 -109 -69 -175.5t-216 -129.5q-86 -37 -111 -50.5t-35 -31.5h371l-33 -199h-665l14 86q9 54 33 102t52 80.5t72 65.5t76 52t80 44
q132 66 149 78q30 29 32 61q0 54 -62 54q-38 0 -66 -27.5t-34 -69.5h-258q29 129 128 210t251 81q129 0 210 -61t81 -170z" />
    <glyph glyph-name="threequarters" unicode="&#xbe;" horiz-adv-x="1898" 
d="M451 -25h-234l1296 1514h234zM795 901q0 -101 -90.5 -178.5t-255.5 -77.5q-162 0 -250 75.5t-88 188.5h249q0 -73 105 -73q40 0 65 20.5t25 50.5q0 62 -92 62h-74l29 180h71q51 0 77 21.5t26 56.5q0 25 -19 42t-49 17q-38 0 -64 -19t-32 -53h-244q28 114 121 187.5
t240 73.5q138 0 213.5 -63.5t75.5 -158.5q0 -70 -48 -124.5t-124 -69.5q62 -14 97.5 -55t35.5 -103zM1737 801l-76 -479h147l-28 -175h-150l-22 -147h-236l23 147h-396l29 175l445 479h264zM1462 571l-223 -249h184z" />
    <glyph glyph-name="questiondown" unicode="&#xbf;" horiz-adv-x="1277" 
d="M1016 1462l-64 -401h-444l63 401h445zM39 373q0 142 82.5 255t257.5 210q115 61 131 118h405q-25 -158 -284 -319q-103 -63 -144 -110t-41 -113q0 -56 38 -88.5t102 -32.5q84 0 141.5 57t75.5 146h418q-27 -111 -85 -205t-141.5 -165t-198.5 -111t-247 -40
q-230 0 -370 105t-140 293z" />
    <glyph glyph-name="Agrave" unicode="&#xc0;" horiz-adv-x="1650" 
d="M1153 1552h-279l-231 336h442zM1130 0l-53 272h-575l-146 -272h-434l817 1462h486l340 -1462h-435zM922 1053l-244 -455h336l-88 455h-4z" />
    <glyph glyph-name="Aacute" unicode="&#xc1;" horiz-adv-x="1650" 
d="M860 1552l152 336h467l-344 -336h-275zM1130 0l-53 272h-575l-146 -272h-434l817 1462h486l340 -1462h-435zM922 1053l-244 -455h336l-88 455h-4z" />
    <glyph glyph-name="Acircumflex" unicode="&#xc2;" horiz-adv-x="1650" 
d="M885 1888h338l159 -336h-215l-137 121l-176 -121h-238zM1130 0l-53 272h-575l-146 -272h-434l817 1462h486l340 -1462h-435zM922 1053l-244 -455h336l-88 455h-4z" />
    <glyph glyph-name="Atilde" unicode="&#xc3;" horiz-adv-x="1650" 
d="M895 1667q-27 0 -51.5 -25.5t-34.5 -74.5h-219q26 169 104.5 272t177.5 103q42 0 85.5 -17t73.5 -37.5t63.5 -37.5t58.5 -17q27 0 51.5 25.5t34.5 74.5h219q-26 -169 -104.5 -271.5t-177.5 -102.5q-42 0 -85.5 17t-73.5 37t-63.5 37t-58.5 17zM1130 0l-53 272h-575
l-146 -272h-434l817 1462h486l340 -1462h-435zM922 1053l-244 -455h336l-88 455h-4z" />
    <glyph glyph-name="Adieresis" unicode="&#xc4;" horiz-adv-x="1650" 
d="M1061 1552l53 336h356l-53 -336h-356zM594 1552l53 336h357l-54 -336h-356zM1130 0l-53 272h-575l-146 -272h-434l817 1462h486l340 -1462h-435zM922 1053l-244 -455h336l-88 455h-4z" />
    <glyph glyph-name="Aring" unicode="&#xc5;" horiz-adv-x="1650" 
d="M502 272l-146 -272h-434l813 1456q-24 52 -24 117q0 132 92 223.5t229 91.5q110 0 181 -75t71 -183q0 -101 -57 -180l338 -1450h-435l-53 272h-575zM1014 1716q-55 0 -92 -35.5t-37 -91.5q0 -44 29 -73t67 -29q55 0 92 35.5t37 91.5q0 44 -29 73t-67 29zM922 1053
l-244 -455h336l-88 455h-4z" />
    <glyph glyph-name="AE" unicode="&#xc6;" horiz-adv-x="2371" 
d="M1030 0l47 293h-497l-209 -293h-453l1065 1462h1438l-51 -327h-738l-37 -236h643l-53 -328h-641l-39 -243h754l-51 -328h-1178zM1217 1182l-402 -561h313z" />
    <glyph glyph-name="Ccedilla" unicode="&#xc7;" horiz-adv-x="1523" 
d="M928 -209q0 -69 -48 -121t-120.5 -77t-155.5 -25q-118 0 -201 37l25 151q119 -43 193 -43q43 0 69.5 16t26.5 42q0 47 -80 47q-31 0 -68 -11l-49 54l98 125q-253 36 -393.5 201t-140.5 419q0 179 61 339.5t169.5 280.5t268.5 190.5t347 70.5q292 0 448 -145.5t164 -395.5
h-420q-2 99 -58 157t-153 58q-95 0 -171.5 -48.5t-122.5 -129t-70.5 -179.5t-24.5 -206q0 -141 67 -219t187 -78q103 0 173.5 57t105.5 158h418q-36 -121 -96 -218t-146.5 -170.5t-206 -113t-264.5 -39.5h-10l-39 -49q20 2 30 2q78 0 132.5 -35t54.5 -102z" />
    <glyph glyph-name="Egrave" unicode="&#xc8;" horiz-adv-x="1384" 
d="M1059 1552h-279l-231 336h442zM43 0l231 1462h1160l-52 -327h-737l-37 -236h643l-53 -328h-641l-39 -243h754l-51 -328h-1178z" />
    <glyph glyph-name="Eacute" unicode="&#xc9;" horiz-adv-x="1384" 
d="M707 1552l151 336h467l-344 -336h-274zM43 0l231 1462h1160l-52 -327h-737l-37 -236h643l-53 -328h-641l-39 -243h754l-51 -328h-1178z" />
    <glyph glyph-name="Ecircumflex" unicode="&#xca;" horiz-adv-x="1384" 
d="M752 1888h338l159 -336h-215l-137 121l-176 -121h-238zM43 0l231 1462h1160l-52 -327h-737l-37 -236h643l-53 -328h-641l-39 -243h754l-51 -328h-1178z" />
    <glyph glyph-name="Edieresis" unicode="&#xcb;" horiz-adv-x="1384" 
d="M934 1552l53 336h356l-53 -336h-356zM467 1552l53 336h357l-54 -336h-356zM43 0l231 1462h1160l-52 -327h-737l-37 -236h643l-53 -328h-641l-39 -243h754l-51 -328h-1178z" />
    <glyph glyph-name="Igrave" unicode="&#xcc;" horiz-adv-x="681" 
d="M670 1552h-279l-231 336h442zM274 1462h433l-232 -1462h-432z" />
    <glyph glyph-name="Iacute" unicode="&#xcd;" horiz-adv-x="681" 
d="M358 1552l152 336h467l-344 -336h-275zM274 1462h433l-232 -1462h-432z" />
    <glyph glyph-name="Icircumflex" unicode="&#xce;" horiz-adv-x="681" 
d="M397 1888h338l160 -336h-215l-137 121l-176 -121h-238zM274 1462h433l-232 -1462h-432z" />
    <glyph glyph-name="Idieresis" unicode="&#xcf;" horiz-adv-x="681" 
d="M559 1552l53 336h357l-54 -336h-356zM92 1552l53 336h357l-53 -336h-357zM274 1462h433l-232 -1462h-432z" />
    <glyph glyph-name="Eth" unicode="&#xd0;" horiz-adv-x="1642" 
d="M1626 846q0 -182 -61.5 -337.5t-172.5 -268t-275.5 -176.5t-362.5 -64h-650l93 586h-123l49 309h123l90 567h618q326 0 499 -166.5t173 -449.5zM580 328h206q184 0 294 136t110 376q0 153 -71 224t-228 71h-182l-39 -240h161l-49 -309h-161z" />
    <glyph glyph-name="Ntilde" unicode="&#xd1;" horiz-adv-x="1667" 
d="M891 1667q-27 0 -51.5 -25.5t-34.5 -74.5h-219q26 169 104.5 272t177.5 103q42 0 85.5 -17t73.5 -37.5t63.5 -37.5t58.5 -17q27 0 51.5 25.5t34.5 74.5h219q-26 -169 -105 -271.5t-178 -102.5q-42 0 -85.5 17t-73 37t-63 37t-58.5 17zM752 1462l395 -825h4l131 825h410
l-232 -1462h-387l-467 948h-4l-149 -948h-410l231 1462h478z" />
    <glyph glyph-name="Ograve" unicode="&#xd2;" horiz-adv-x="1615" 
d="M1102 1552h-279l-231 336h442zM926 1487q315 0 494 -172.5t179 -460.5q0 -173 -60.5 -332.5t-167.5 -280.5t-266.5 -193.5t-346.5 -72.5q-315 0 -494.5 172.5t-179.5 460.5q0 173 60.5 332.5t167.5 280.5t267 193.5t347 72.5zM907 1161q-77 0 -141 -32t-108.5 -86
t-75.5 -126.5t-45.5 -153t-14.5 -165.5q0 -142 65 -219.5t189 -77.5q77 0 141 32t108.5 86t75.5 126.5t45.5 153t14.5 165.5q0 142 -65 219.5t-189 77.5z" />
    <glyph glyph-name="Oacute" unicode="&#xd3;" horiz-adv-x="1615" 
d="M831 1552l152 336h467l-344 -336h-275zM926 1487q315 0 494 -172.5t179 -460.5q0 -173 -60.5 -332.5t-167.5 -280.5t-266.5 -193.5t-346.5 -72.5q-315 0 -494.5 172.5t-179.5 460.5q0 173 60.5 332.5t167.5 280.5t267 193.5t347 72.5zM907 1161q-77 0 -141 -32
t-108.5 -86t-75.5 -126.5t-45.5 -153t-14.5 -165.5q0 -142 65 -219.5t189 -77.5q77 0 141 32t108.5 86t75.5 126.5t45.5 153t14.5 165.5q0 142 -65 219.5t-189 77.5z" />
    <glyph glyph-name="Ocircumflex" unicode="&#xd4;" horiz-adv-x="1615" 
d="M877 1888h337l160 -336h-215l-137 121l-176 -121h-238zM926 1487q315 0 494 -172.5t179 -460.5q0 -173 -60.5 -332.5t-167.5 -280.5t-266.5 -193.5t-346.5 -72.5q-315 0 -494.5 172.5t-179.5 460.5q0 173 60.5 332.5t167.5 280.5t267 193.5t347 72.5zM907 1161
q-77 0 -141 -32t-108.5 -86t-75.5 -126.5t-45.5 -153t-14.5 -165.5q0 -142 65 -219.5t189 -77.5q77 0 141 32t108.5 86t75.5 126.5t45.5 153t14.5 165.5q0 142 -65 219.5t-189 77.5z" />
    <glyph glyph-name="Otilde" unicode="&#xd5;" horiz-adv-x="1615" 
d="M864 1667q-27 0 -51.5 -25.5t-34.5 -74.5h-219q26 169 105 272t178 103q42 0 85.5 -17t73 -37.5t63 -37.5t58.5 -17q27 0 51.5 25.5t34.5 74.5h219q-26 -169 -104.5 -271.5t-177.5 -102.5q-42 0 -85.5 17t-73.5 37t-63.5 37t-58.5 17zM926 1487q315 0 494 -172.5
t179 -460.5q0 -173 -60.5 -332.5t-167.5 -280.5t-266.5 -193.5t-346.5 -72.5q-315 0 -494.5 172.5t-179.5 460.5q0 173 60.5 332.5t167.5 280.5t267 193.5t347 72.5zM907 1161q-77 0 -141 -32t-108.5 -86t-75.5 -126.5t-45.5 -153t-14.5 -165.5q0 -142 65 -219.5t189 -77.5
q77 0 141 32t108.5 86t75.5 126.5t45.5 153t14.5 165.5q0 142 -65 219.5t-189 77.5z" />
    <glyph glyph-name="Odieresis" unicode="&#xd6;" horiz-adv-x="1615" 
d="M1057 1552l53 336h356l-53 -336h-356zM590 1552l53 336h356l-53 -336h-356zM926 1487q315 0 494 -172.5t179 -460.5q0 -173 -60.5 -332.5t-167.5 -280.5t-266.5 -193.5t-346.5 -72.5q-315 0 -494.5 172.5t-179.5 460.5q0 173 60.5 332.5t167.5 280.5t267 193.5t347 72.5z
M907 1161q-77 0 -141 -32t-108.5 -86t-75.5 -126.5t-45.5 -153t-14.5 -165.5q0 -142 65 -219.5t189 -77.5q77 0 141 32t108.5 86t75.5 126.5t45.5 153t14.5 165.5q0 142 -65 219.5t-189 77.5z" />
    <glyph glyph-name="multiply" unicode="&#xd7;" 
d="M942 168l-268 319l-377 -325l-164 198l375 324l-270 324l221 184l268 -320l379 328l166 -196l-379 -328l272 -324z" />
    <glyph glyph-name="Oslash" unicode="&#xd8;" horiz-adv-x="1613" 
d="M758 -25q-244 0 -408 105l-135 -139l-160 120l148 154q-119 159 -119 393q0 173 60.5 332.5t167.5 280.5t267 193.5t347 72.5q238 0 403 -103l109 115l159 -121l-120 -127q122 -159 122 -397q0 -173 -60.5 -332.5t-167.5 -280.5t-266.5 -193.5t-346.5 -72.5zM522 598
q0 -33 2 -49l543 563q-61 49 -160 49q-77 0 -141 -32t-108.5 -86t-75.5 -126.5t-45.5 -153t-14.5 -165.5zM1161 864q0 40 -2 58l-547 -568q62 -53 164 -53q77 0 141 32t108.5 86t75.5 126.5t45.5 153t14.5 165.5z" />
    <glyph glyph-name="Ugrave" unicode="&#xd9;" horiz-adv-x="1583" 
d="M1104 1552h-279l-231 336h442zM1481 584q-47 -297 -246.5 -453t-521.5 -156q-285 0 -442.5 127.5t-157.5 360.5q0 51 10 123l139 876h432l-135 -854q-8 -44 -8 -94q0 -207 207 -207q73 0 126.5 23t86.5 66t52 94t30 118l135 854h432z" />
    <glyph glyph-name="Uacute" unicode="&#xda;" horiz-adv-x="1583" 
d="M811 1552l152 336h467l-345 -336h-274zM1481 584q-47 -297 -246.5 -453t-521.5 -156q-285 0 -442.5 127.5t-157.5 360.5q0 51 10 123l139 876h432l-135 -854q-8 -44 -8 -94q0 -207 207 -207q73 0 126.5 23t86.5 66t52 94t30 118l135 854h432z" />
    <glyph glyph-name="Ucircumflex" unicode="&#xdb;" horiz-adv-x="1583" 
d="M838 1888h338l159 -336h-215l-137 121l-176 -121h-238zM1481 584q-47 -297 -246.5 -453t-521.5 -156q-285 0 -442.5 127.5t-157.5 360.5q0 51 10 123l139 876h432l-135 -854q-8 -44 -8 -94q0 -207 207 -207q73 0 126.5 23t86.5 66t52 94t30 118l135 854h432z" />
    <glyph glyph-name="Udieresis" unicode="&#xdc;" horiz-adv-x="1583" 
d="M1018 1552l53 336h356l-53 -336h-356zM551 1552l53 336h357l-54 -336h-356zM1481 584q-47 -297 -246.5 -453t-521.5 -156q-285 0 -442.5 127.5t-157.5 360.5q0 51 10 123l139 876h432l-135 -854q-8 -44 -8 -94q0 -207 207 -207q73 0 126.5 23t86.5 66t52 94t30 118
l135 854h432z" />
    <glyph glyph-name="Yacute" unicode="&#xdd;" horiz-adv-x="1572" 
d="M780 1552l152 336h467l-344 -336h-275zM922 0h-435l95 590l-432 872h464l238 -506h6l395 506h471l-708 -872z" />
    <glyph glyph-name="Thorn" unicode="&#xde;" horiz-adv-x="1470" 
d="M795 242h-289l-39 -242h-424l231 1462h422l-32 -211h278q251 0 394 -112t143 -320q0 -277 -185 -427t-499 -150zM557 567h234q262 0 262 207q0 75 -48 112.5t-157 37.5h-236z" />
    <glyph glyph-name="germandbls" unicode="&#xdf;" horiz-adv-x="1363" 
d="M1071 815q98 -36 162.5 -119.5t64.5 -193.5q0 -155 -77.5 -272.5t-208.5 -178.5t-295 -61q-74 0 -150 20l49 312q50 -11 86 -11q104 0 162 45t58 129q0 146 -199 146h-43l47 305h29q78 0 121 45.5t43 120.5q0 57 -33 89t-90 32q-144 0 -174 -187l-164 -1036h-418
l160 1010q38 245 204 383.5t426 138.5q219 0 344 -105t125 -258q0 -69 -21 -129t-56 -103t-72.5 -72.5t-79.5 -49.5z" />
    <glyph glyph-name="agrave" unicode="&#xe0;" horiz-adv-x="1249" 
d="M872 1171h-278l-211 336h422zM686 0q3 74 14 147q-114 -172 -354 -172q-151 0 -240.5 76.5t-89.5 202.5q0 86 33.5 152t95.5 108.5t142 66.5t182 33l285 25q8 47 8 63q0 41 -26 65t-77 24q-55 0 -90.5 -30.5t-46.5 -78.5h-399q48 191 194.5 295t382.5 104q227 0 347 -93
t120 -273q0 -58 -12 -129l-41 -248q-35 -201 -45 -338h-383zM715 395l6 39l-148 -18q-143 -15 -143 -111q0 -36 24 -56t68 -20q71 0 126 44.5t67 121.5z" />
    <glyph glyph-name="aacute" unicode="&#xe1;" horiz-adv-x="1249" 
d="M578 1171l151 336h445l-322 -336h-274zM686 0q3 74 14 147q-114 -172 -354 -172q-151 0 -240.5 76.5t-89.5 202.5q0 86 33.5 152t95.5 108.5t142 66.5t182 33l285 25q8 47 8 63q0 41 -26 65t-77 24q-55 0 -90.5 -30.5t-46.5 -78.5h-399q48 191 194.5 295t382.5 104
q227 0 347 -93t120 -273q0 -58 -12 -129l-41 -248q-35 -201 -45 -338h-383zM715 395l6 39l-148 -18q-143 -15 -143 -111q0 -36 24 -56t68 -20q71 0 126 44.5t67 121.5z" />
    <glyph glyph-name="acircumflex" unicode="&#xe2;" horiz-adv-x="1249" 
d="M666 1507h338l122 -336h-215l-108 121l-203 -121h-238zM686 0q3 74 14 147q-114 -172 -354 -172q-151 0 -240.5 76.5t-89.5 202.5q0 86 33.5 152t95.5 108.5t142 66.5t182 33l285 25q8 47 8 63q0 41 -26 65t-77 24q-55 0 -90.5 -30.5t-46.5 -78.5h-399q48 191 194.5 295
t382.5 104q227 0 347 -93t120 -273q0 -58 -12 -129l-41 -248q-35 -201 -45 -338h-383zM715 395l6 39l-148 -18q-143 -15 -143 -111q0 -36 24 -56t68 -20q71 0 126 44.5t67 121.5z" />
    <glyph glyph-name="atilde" unicode="&#xe3;" horiz-adv-x="1249" 
d="M633 1245q-27 0 -51 -25.5t-35 -74.5h-219q28 169 105.5 272t176.5 103q42 0 85.5 -17t73.5 -37.5t63.5 -37.5t58.5 -17q28 0 52.5 25t35.5 75h217q-26 -169 -105 -271.5t-178 -102.5q-42 0 -85.5 17t-73 37t-63 37t-58.5 17zM686 0q3 74 14 147q-114 -172 -354 -172
q-151 0 -240.5 76.5t-89.5 202.5q0 86 33.5 152t95.5 108.5t142 66.5t182 33l285 25q8 47 8 63q0 41 -26 65t-77 24q-55 0 -90.5 -30.5t-46.5 -78.5h-399q48 191 194.5 295t382.5 104q227 0 347 -93t120 -273q0 -58 -12 -129l-41 -248q-35 -201 -45 -338h-383zM715 395l6 39
l-148 -18q-143 -15 -143 -111q0 -36 24 -56t68 -20q71 0 126 44.5t67 121.5z" />
    <glyph glyph-name="adieresis" unicode="&#xe4;" horiz-adv-x="1249" 
d="M803 1171l53 336h356l-53 -336h-356zM334 1171l53 336h356l-53 -336h-356zM686 0q3 74 14 147q-114 -172 -354 -172q-151 0 -240.5 76.5t-89.5 202.5q0 86 33.5 152t95.5 108.5t142 66.5t182 33l285 25q8 47 8 63q0 41 -26 65t-77 24q-55 0 -90.5 -30.5t-46.5 -78.5h-399
q48 191 194.5 295t382.5 104q227 0 347 -93t120 -273q0 -58 -12 -129l-41 -248q-35 -201 -45 -338h-383zM715 395l6 39l-148 -18q-143 -15 -143 -111q0 -36 24 -56t68 -20q71 0 126 44.5t67 121.5z" />
    <glyph glyph-name="aring" unicode="&#xe5;" horiz-adv-x="1249" 
d="M813 1667q101 0 167.5 -68.5t66.5 -168.5q0 -121 -85 -205t-212 -84q-102 0 -168 68t-66 167q0 121 85.5 206t211.5 85zM768 1296q53 0 87 33.5t34 85.5q0 40 -27 67t-67 27q-52 0 -85.5 -32t-33.5 -84q0 -40 26.5 -68.5t65.5 -28.5zM686 0q3 74 14 147
q-114 -172 -354 -172q-151 0 -240.5 76.5t-89.5 202.5q0 86 33.5 152t95.5 108.5t142 66.5t182 33l285 25q8 47 8 63q0 41 -26 65t-77 24q-55 0 -90.5 -30.5t-46.5 -78.5h-399q48 191 194.5 295t382.5 104q227 0 347 -93t120 -273q0 -58 -12 -129l-41 -248
q-35 -201 -45 -338h-383zM715 395l6 39l-148 -18q-143 -15 -143 -111q0 -36 24 -56t68 -20q71 0 126 44.5t67 121.5z" />
    <glyph glyph-name="ae" unicode="&#xe6;" horiz-adv-x="1894" 
d="M1804 360q-60 -178 -206.5 -281.5t-360.5 -103.5q-129 0 -234.5 39.5t-175.5 112.5q-163 -152 -385 -152q-193 0 -307.5 86.5t-114.5 231.5q0 157 121 249.5t330 92.5h281l4 31q4 24 4 36q0 84 -103 84q-55 0 -90.5 -28.5t-46.5 -75.5h-399q48 189 190.5 294t360.5 105
q210 0 313 -114q71 55 169 84.5t202 29.5q232 0 361.5 -120t129.5 -330q0 -87 -24 -189h-723v-8q5 -81 45 -125.5t115 -44.5q117 0 161 96h383zM1335 799q-74 0 -127 -44t-80 -120h342q3 15 3 31q0 57 -36 95t-102 38zM537 248q80 0 124 41.5t52 105.5l8 47h-150
q-145 0 -145 -106q0 -42 32 -65t79 -23z" />
    <glyph glyph-name="ccedilla" unicode="&#xe7;" horiz-adv-x="1204" 
d="M768 -209q0 -69 -48 -121t-120.5 -77t-155.5 -25q-117 0 -200 37l24 151q119 -43 193 -43q43 0 69.5 16t26.5 42q0 47 -80 47q-30 0 -67 -11l-50 54l99 123q-181 29 -292.5 149t-111.5 309q0 146 52.5 267.5t141.5 202t207.5 125t250.5 44.5q236 0 361 -118.5t114 -311.5
h-394q5 57 -22 96t-86 39q-92 0 -150.5 -102t-58.5 -242q0 -82 33 -126t94 -44q59 0 98.5 40.5t51.5 95.5h397q-51 -191 -195 -308.5t-360 -124.5l-39 -49q20 2 31 2q78 0 132 -35t54 -102z" />
    <glyph glyph-name="egrave" unicode="&#xe8;" horiz-adv-x="1245" 
d="M893 1171h-279l-211 336h422zM1155 360q-60 -179 -206 -282t-361 -103q-240 0 -386.5 129t-146.5 347q0 280 180.5 455t471.5 175q232 0 361.5 -120t129.5 -330q0 -87 -24 -189h-721q6 -178 157 -178q118 0 162 96h383zM686 799q-74 0 -127 -44t-80 -120h342q2 10 2 31
q0 57 -35.5 95t-101.5 38z" />
    <glyph glyph-name="eacute" unicode="&#xe9;" horiz-adv-x="1245" 
d="M578 1171l151 336h445l-322 -336h-274zM1155 360q-60 -179 -206 -282t-361 -103q-240 0 -386.5 129t-146.5 347q0 280 180.5 455t471.5 175q232 0 361.5 -120t129.5 -330q0 -87 -24 -189h-721q6 -178 157 -178q118 0 162 96h383zM686 799q-74 0 -127 -44t-80 -120h342
q2 10 2 31q0 57 -35.5 95t-101.5 38z" />
    <glyph glyph-name="ecircumflex" unicode="&#xea;" horiz-adv-x="1245" 
d="M657 1507h338l123 -336h-215l-108 121l-203 -121h-238zM1155 360q-60 -179 -206 -282t-361 -103q-240 0 -386.5 129t-146.5 347q0 280 180.5 455t471.5 175q232 0 361.5 -120t129.5 -330q0 -87 -24 -189h-721q6 -178 157 -178q118 0 162 96h383zM686 799q-74 0 -127 -44
t-80 -120h342q2 10 2 31q0 57 -35.5 95t-101.5 38z" />
    <glyph glyph-name="edieresis" unicode="&#xeb;" horiz-adv-x="1245" 
d="M797 1171l53 336h356l-53 -336h-356zM328 1171l53 336h356l-53 -336h-356zM1155 360q-60 -179 -206 -282t-361 -103q-240 0 -386.5 129t-146.5 347q0 280 180.5 455t471.5 175q232 0 361.5 -120t129.5 -330q0 -87 -24 -189h-721q6 -178 157 -178q118 0 162 96h383z
M686 799q-74 0 -127 -44t-80 -120h342q2 10 2 31q0 57 -35.5 95t-101.5 38z" />
    <glyph glyph-name="igrave" unicode="&#xec;" horiz-adv-x="663" 
d="M612 1171h-278l-211 336h422zM209 1057h418l-168 -1057h-418z" />
    <glyph glyph-name="iacute" unicode="&#xed;" horiz-adv-x="663" 
d="M297 1171l152 336h444l-322 -336h-274zM209 1057h418l-168 -1057h-418z" />
    <glyph glyph-name="icircumflex" unicode="&#xee;" horiz-adv-x="663" 
d="M358 1507h338l123 -336h-215l-108 121l-203 -121h-238zM209 1057h418l-168 -1057h-418z" />
    <glyph glyph-name="idieresis" unicode="&#xef;" horiz-adv-x="663" 
d="M494 1171l53 336h356l-53 -336h-356zM25 1171l53 336h356l-53 -336h-356zM209 1057h418l-168 -1057h-418z" />
    <glyph glyph-name="eth" unicode="&#xf0;" horiz-adv-x="1282" 
d="M1239 682q0 -112 -25 -214.5t-78.5 -192.5t-129.5 -156.5t-184 -105t-236 -38.5q-240 0 -386.5 129t-146.5 347q0 183 80.5 322t219.5 212.5t315 73.5q64 0 104 -12q-29 72 -96 157l-287 -92l-55 133l235 74q-107 102 -227 176v12h463q56 -38 104 -80l203 64l55 -131
l-147 -47q219 -259 219 -631zM680 774q-70 0 -118.5 -52t-68.5 -127t-20 -165q0 -79 35.5 -120.5t101.5 -41.5q70 0 118.5 52.5t68.5 128t20 165.5q0 79 -35 119.5t-102 40.5z" />
    <glyph glyph-name="ntilde" unicode="&#xf1;" horiz-adv-x="1361" 
d="M690 1245q-27 0 -51 -25.5t-35 -74.5h-219q28 169 106 272t177 103q42 0 85.5 -17t73 -37.5t63 -37.5t58.5 -17q28 0 52.5 25t35.5 75h217q-26 -169 -104.5 -271.5t-177.5 -102.5q-42 0 -85.5 17t-73.5 37t-63.5 37t-58.5 17zM623 1057l-25 -152q54 78 143 127t195 49
q159 0 252.5 -90t93.5 -243q0 -28 -8 -86l-105 -662h-417l90 573q4 28 4 58q0 131 -123 131q-144 0 -176 -203l-88 -559h-418l168 1057h414z" />
    <glyph glyph-name="ograve" unicode="&#xf2;" horiz-adv-x="1290" 
d="M881 1171h-279l-211 336h422zM588 -25q-240 0 -386.5 129t-146.5 347q0 280 179.5 455t470.5 175q240 0 386 -128.5t146 -346.5q0 -281 -179 -456t-470 -175zM612 268q70 0 118 53.5t67.5 130.5t19.5 171q0 81 -35.5 123t-101.5 42q-70 0 -118 -53t-67.5 -130.5
t-19.5 -170.5q0 -81 35.5 -123.5t101.5 -42.5z" />
    <glyph glyph-name="oacute" unicode="&#xf3;" horiz-adv-x="1290" 
d="M606 1171l152 336h444l-321 -336h-275zM588 -25q-240 0 -386.5 129t-146.5 347q0 280 179.5 455t470.5 175q240 0 386 -128.5t146 -346.5q0 -281 -179 -456t-470 -175zM612 268q70 0 118 53.5t67.5 130.5t19.5 171q0 81 -35.5 123t-101.5 42q-70 0 -118 -53t-67.5 -130.5
t-19.5 -170.5q0 -81 35.5 -123.5t101.5 -42.5z" />
    <glyph glyph-name="ocircumflex" unicode="&#xf4;" horiz-adv-x="1290" 
d="M670 1507h338l122 -336h-215l-108 121l-203 -121h-237zM588 -25q-240 0 -386.5 129t-146.5 347q0 280 179.5 455t470.5 175q240 0 386 -128.5t146 -346.5q0 -281 -179 -456t-470 -175zM612 268q70 0 118 53.5t67.5 130.5t19.5 171q0 81 -35.5 123t-101.5 42
q-70 0 -118 -53t-67.5 -130.5t-19.5 -170.5q0 -81 35.5 -123.5t101.5 -42.5z" />
    <glyph glyph-name="otilde" unicode="&#xf5;" horiz-adv-x="1290" 
d="M643 1245q-27 0 -51 -25.5t-35 -74.5h-219q28 169 106 272t177 103q42 0 85.5 -17t73 -37.5t63 -37.5t58.5 -17q28 0 52.5 25t35.5 75h217q-26 -169 -104.5 -271.5t-177.5 -102.5q-42 0 -85.5 17t-73.5 37t-63.5 37t-58.5 17zM588 -25q-240 0 -386.5 129t-146.5 347
q0 280 179.5 455t470.5 175q240 0 386 -128.5t146 -346.5q0 -281 -179 -456t-470 -175zM612 268q70 0 118 53.5t67.5 130.5t19.5 171q0 81 -35.5 123t-101.5 42q-70 0 -118 -53t-67.5 -130.5t-19.5 -170.5q0 -81 35.5 -123.5t101.5 -42.5z" />
    <glyph glyph-name="odieresis" unicode="&#xf6;" horiz-adv-x="1290" 
d="M821 1171l53 336h357l-53 -336h-357zM352 1171l54 336h356l-53 -336h-357zM588 -25q-240 0 -386.5 129t-146.5 347q0 280 179.5 455t470.5 175q240 0 386 -128.5t146 -346.5q0 -281 -179 -456t-470 -175zM612 268q70 0 118 53.5t67.5 130.5t19.5 171q0 81 -35.5 123
t-101.5 42q-70 0 -118 -53t-67.5 -130.5t-19.5 -170.5q0 -81 35.5 -123.5t101.5 -42.5z" />
    <glyph glyph-name="divide" unicode="&#xf7;" 
d="M592 975l51 319h336l-51 -319h-336zM123 537l47 286h1110l-47 -286h-1110zM449 63l51 322h336l-52 -322h-335z" />
    <glyph glyph-name="oslash" unicode="&#xf8;" horiz-adv-x="1290" 
d="M588 -25q-173 0 -297 68l-109 -111l-123 123l97 97q-101 119 -101 299q0 280 179.5 455t470.5 175q171 0 299 -67l94 94l121 -125l-80 -80q98 -121 98 -297q0 -281 -179 -456t-470 -175zM684 807q-60 0 -105.5 -29t-72.5 -80.5t-41 -113t-16 -133.5l329 333
q-41 23 -94 23zM608 250q79 0 133 51.5t77 127.5t26 173l-328 -332q36 -20 92 -20z" />
    <glyph glyph-name="ugrave" unicode="&#xf9;" horiz-adv-x="1345" 
d="M920 1171h-279l-211 336h422zM725 0l25 152q-54 -78 -141 -127.5t-191 -49.5q-159 0 -246.5 90t-87.5 244q0 32 8 94l105 654h417l-92 -580q-6 -35 -6 -59q0 -121 113 -121q63 0 108.5 49t59.5 152l90 559h418l-168 -1057h-412z" />
    <glyph glyph-name="uacute" unicode="&#xfa;" horiz-adv-x="1345" 
d="M604 1171l152 336h444l-321 -336h-275zM725 0l25 152q-54 -78 -141 -127.5t-191 -49.5q-159 0 -246.5 90t-87.5 244q0 32 8 94l105 654h417l-92 -580q-6 -35 -6 -59q0 -121 113 -121q63 0 108.5 49t59.5 152l90 559h418l-168 -1057h-412z" />
    <glyph glyph-name="ucircumflex" unicode="&#xfb;" horiz-adv-x="1345" 
d="M684 1507h338l123 -336h-215l-109 121l-203 -121h-237zM725 0l25 152q-54 -78 -141 -127.5t-191 -49.5q-159 0 -246.5 90t-87.5 244q0 32 8 94l105 654h417l-92 -580q-6 -35 -6 -59q0 -121 113 -121q63 0 108.5 49t59.5 152l90 559h418l-168 -1057h-412z" />
    <glyph glyph-name="udieresis" unicode="&#xfc;" horiz-adv-x="1345" 
d="M823 1171l54 336h356l-53 -336h-357zM354 1171l54 336h356l-53 -336h-357zM725 0l25 152q-54 -78 -141 -127.5t-191 -49.5q-159 0 -246.5 90t-87.5 244q0 32 8 94l105 654h417l-92 -580q-6 -35 -6 -59q0 -121 113 -121q63 0 108.5 49t59.5 152l90 559h418l-168 -1057
h-412z" />
    <glyph glyph-name="yacute" unicode="&#xfd;" horiz-adv-x="1290" 
d="M602 1171l152 336h444l-321 -336h-275zM285 20l-187 1037h412l84 -672h4l354 672h412l-604 -1051q-123 -213 -262.5 -300t-356.5 -87q-82 0 -161 23l47 295q59 -13 79 -13q66 0 107 20t72 76z" />
    <glyph glyph-name="thorn" unicode="&#xfe;" horiz-adv-x="1361" 
d="M481 145l-80 -510h-417l297 1872h417l-96 -596q52 80 133 125t180 45q189 0 292.5 -126.5t103.5 -331.5q0 -174 -63.5 -320.5t-187 -237t-282.5 -90.5q-103 0 -183 46t-114 124zM745 788q-80 0 -134.5 -60.5t-71.5 -172.5q-11 -87 -11 -106q0 -86 38 -133.5t102 -47.5
q104 0 164.5 91t60.5 245q0 89 -37.5 136.5t-110.5 47.5z" />
    <glyph glyph-name="ydieresis" unicode="&#xff;" horiz-adv-x="1290" 
d="M801 1171l53 336h356l-53 -336h-356zM332 1171l53 336h356l-53 -336h-356zM285 20l-187 1037h412l84 -672h4l354 672h412l-604 -1051q-123 -213 -262.5 -300t-356.5 -87q-82 0 -161 23l47 295q59 -13 79 -13q66 0 107 20t72 76z" />
    <glyph glyph-name="Amacron" unicode="&#x100;" horiz-adv-x="1650" 
d="M604 1573l39 254h784l-38 -254h-785zM1130 0l-53 272h-575l-146 -272h-434l817 1462h486l340 -1462h-435zM922 1053l-244 -455h336l-88 455h-4z" />
    <glyph glyph-name="amacron" unicode="&#x101;" horiz-adv-x="1249" 
d="M387 1171l39 254h700l-39 -254h-700zM686 0q3 74 14 147q-114 -172 -354 -172q-151 0 -240.5 76.5t-89.5 202.5q0 86 33.5 152t95.5 108.5t142 66.5t182 33l285 25q8 47 8 63q0 41 -26 65t-77 24q-55 0 -90.5 -30.5t-46.5 -78.5h-399q48 191 194.5 295t382.5 104
q227 0 347 -93t120 -273q0 -58 -12 -129l-41 -248q-35 -201 -45 -338h-383zM715 395l6 39l-148 -18q-143 -15 -143 -111q0 -36 24 -56t68 -20q71 0 126 44.5t67 121.5z" />
    <glyph glyph-name="Abreve" unicode="&#x102;" horiz-adv-x="1650" 
d="M1415 1905q-25 -161 -131 -259t-262 -98q-136 0 -210.5 75.5t-74.5 205.5q0 36 6 76h230q-2 -12 -2 -33q0 -42 22.5 -67t63.5 -25q50 0 83 34t42 91h233zM1130 0l-53 272h-575l-146 -272h-434l817 1462h486l340 -1462h-435zM922 1053l-244 -455h336l-88 455h-4z" />
    <glyph glyph-name="abreve" unicode="&#x103;" horiz-adv-x="1249" 
d="M756 1151q-137 0 -212 75.5t-75 205.5q0 39 8 75h230q-2 -12 -2 -30q0 -42 23 -68.5t63 -26.5q49 0 81 33.5t43 91.5h234q-25 -159 -131 -257.5t-262 -98.5zM686 0q3 74 14 147q-114 -172 -354 -172q-151 0 -240.5 76.5t-89.5 202.5q0 86 33.5 152t95.5 108.5t142 66.5
t182 33l285 25q8 47 8 63q0 41 -26 65t-77 24q-55 0 -90.5 -30.5t-46.5 -78.5h-399q48 191 194.5 295t382.5 104q227 0 347 -93t120 -273q0 -58 -12 -129l-41 -248q-35 -201 -45 -338h-383zM715 395l6 39l-148 -18q-143 -15 -143 -111q0 -36 24 -56t68 -20q71 0 126 44.5
t67 121.5z" />
    <glyph glyph-name="Aogonek" unicode="&#x104;" horiz-adv-x="1650" 
d="M1364 -360q-91 -29 -174 -29q-89 0 -144 40.5t-55 112.5q0 60 34 115.5t103 126.5l-51 266h-575l-146 -272h-434l817 1462h486l340 -1462h-234q-62 -67 -79 -91.5t-17 -51.5q0 -41 51 -41q42 0 109 14zM922 1053l-244 -455h336l-88 455h-4z" />
    <glyph glyph-name="aogonek" unicode="&#x105;" horiz-adv-x="1249" 
d="M903 -360q-91 -29 -174 -29q-89 0 -144 40.5t-55 112.5q0 64 39 123.5t119 137.5q2 53 12 122q-114 -172 -354 -172q-151 0 -240.5 76.5t-89.5 202.5q0 86 33.5 152t95.5 108.5t142 66.5t182 33l285 25q8 47 8 63q0 41 -26 65t-77 24q-55 0 -90.5 -30.5t-46.5 -78.5h-399
q48 191 194.5 295t382.5 104q227 0 347 -93t120 -273q0 -58 -12 -129l-41 -248q-35 -201 -45 -338h-199q-62 -67 -79 -91.5t-17 -51.5q0 -41 51 -41q43 0 109 14zM715 395l6 39l-148 -18q-143 -15 -143 -111q0 -36 24 -56t68 -20q71 0 126 44.5t67 121.5z" />
    <glyph glyph-name="Cacute" unicode="&#x106;" horiz-adv-x="1523" 
d="M803 1552l151 336h467l-344 -336h-274zM760 -25q-316 0 -496 171.5t-180 459.5q0 179 61 339.5t169.5 280.5t268.5 190.5t347 70.5q292 0 448 -145.5t164 -395.5h-420q-2 99 -58 157t-153 58q-95 0 -171.5 -48.5t-122.5 -129t-70.5 -179.5t-24.5 -206q0 -141 67 -219
t187 -78q103 0 173.5 57t105.5 158h418q-36 -121 -96 -218t-146.5 -170.5t-206 -113t-264.5 -39.5z" />
    <glyph glyph-name="cacute" unicode="&#x107;" horiz-adv-x="1204" 
d="M604 1171l152 336h444l-321 -336h-275zM55 442q0 146 52.5 267.5t141.5 202t207.5 125t250.5 44.5q236 0 361 -118.5t114 -311.5h-394q5 57 -22 96t-86 39q-92 0 -150.5 -102t-58.5 -242q0 -82 33 -126t94 -44q59 0 98.5 40.5t51.5 95.5h397q-53 -196 -204.5 -314.5
t-377.5 -118.5q-144 0 -258 53.5t-182 161t-68 252.5z" />
    <glyph glyph-name="Ccircumflex" unicode="&#x108;" horiz-adv-x="1523" 
d="M848 1888h338l160 -336h-216l-137 121l-176 -121h-237zM760 -25q-316 0 -496 171.5t-180 459.5q0 179 61 339.5t169.5 280.5t268.5 190.5t347 70.5q292 0 448 -145.5t164 -395.5h-420q-2 99 -58 157t-153 58q-95 0 -171.5 -48.5t-122.5 -129t-70.5 -179.5t-24.5 -206
q0 -141 67 -219t187 -78q103 0 173.5 57t105.5 158h418q-36 -121 -96 -218t-146.5 -170.5t-206 -113t-264.5 -39.5z" />
    <glyph glyph-name="ccircumflex" unicode="&#x109;" horiz-adv-x="1204" 
d="M649 1507h338l123 -336h-215l-109 121l-202 -121h-238zM55 442q0 146 52.5 267.5t141.5 202t207.5 125t250.5 44.5q236 0 361 -118.5t114 -311.5h-394q5 57 -22 96t-86 39q-92 0 -150.5 -102t-58.5 -242q0 -82 33 -126t94 -44q59 0 98.5 40.5t51.5 95.5h397
q-53 -196 -204.5 -314.5t-377.5 -118.5q-144 0 -258 53.5t-182 161t-68 252.5z" />
    <glyph glyph-name="Cdotaccent" unicode="&#x10a;" horiz-adv-x="1523" 
d="M758 1552l53 336h422l-53 -336h-422zM760 -25q-316 0 -496 171.5t-180 459.5q0 179 61 339.5t169.5 280.5t268.5 190.5t347 70.5q292 0 448 -145.5t164 -395.5h-420q-2 99 -58 157t-153 58q-95 0 -171.5 -48.5t-122.5 -129t-70.5 -179.5t-24.5 -206q0 -141 67 -219
t187 -78q103 0 173.5 57t105.5 158h418q-36 -121 -96 -218t-146.5 -170.5t-206 -113t-264.5 -39.5z" />
    <glyph glyph-name="cdotaccent" unicode="&#x10b;" horiz-adv-x="1204" 
d="M535 1171l53 336h424l-54 -336h-423zM55 442q0 146 52.5 267.5t141.5 202t207.5 125t250.5 44.5q236 0 361 -118.5t114 -311.5h-394q5 57 -22 96t-86 39q-92 0 -150.5 -102t-58.5 -242q0 -82 33 -126t94 -44q59 0 98.5 40.5t51.5 95.5h397q-53 -196 -204.5 -314.5
t-377.5 -118.5q-144 0 -258 53.5t-182 161t-68 252.5z" />
    <glyph glyph-name="Ccaron" unicode="&#x10c;" horiz-adv-x="1523" 
d="M1126 1552h-338l-159 336h215l137 -121l176 121h238zM760 -25q-316 0 -496 171.5t-180 459.5q0 179 61 339.5t169.5 280.5t268.5 190.5t347 70.5q292 0 448 -145.5t164 -395.5h-420q-2 99 -58 157t-153 58q-95 0 -171.5 -48.5t-122.5 -129t-70.5 -179.5t-24.5 -206
q0 -141 67 -219t187 -78q103 0 173.5 57t105.5 158h418q-36 -121 -96 -218t-146.5 -170.5t-206 -113t-264.5 -39.5z" />
    <glyph glyph-name="ccaron" unicode="&#x10d;" horiz-adv-x="1204" 
d="M911 1171h-338l-122 336h215l108 -121l203 121h237zM55 442q0 146 52.5 267.5t141.5 202t207.5 125t250.5 44.5q236 0 361 -118.5t114 -311.5h-394q5 57 -22 96t-86 39q-92 0 -150.5 -102t-58.5 -242q0 -82 33 -126t94 -44q59 0 98.5 40.5t51.5 95.5h397
q-53 -196 -204.5 -314.5t-377.5 -118.5q-144 0 -258 53.5t-182 161t-68 252.5z" />
    <glyph glyph-name="Dcaron" unicode="&#x10e;" horiz-adv-x="1583" 
d="M1042 1552h-337l-160 336h215l137 -121l176 121h238zM274 1462h619q326 0 499 -166.5t173 -449.5q0 -182 -61.5 -337.5t-173 -268t-276 -176.5t-362.5 -64h-649zM829 1135h-182l-129 -807h207q184 0 293.5 136t109.5 376q0 153 -71 224t-228 71z" />
    <glyph glyph-name="dcaron" unicode="&#x10f;" horiz-adv-x="1425" 
d="M889 913l94 594h418l-240 -1507h-416l23 147q-52 -80 -134 -126t-181 -46q-185 0 -292.5 123.5t-107.5 319.5q0 177 63.5 326.5t188 243t285.5 93.5q104 0 187 -46t112 -122zM1679 1106h-196l102 401h408zM621 268q82 0 136.5 61t71.5 173q11 84 11 106q0 86 -38 133
t-102 47q-104 0 -164.5 -96.5t-60.5 -251.5q0 -79 38.5 -125.5t107.5 -46.5z" />
    <glyph glyph-name="Dcroat" unicode="&#x110;" horiz-adv-x="1642" 
d="M1626 846q0 -182 -61.5 -337.5t-172.5 -268t-275.5 -176.5t-362.5 -64h-650l93 586h-123l49 309h123l90 567h618q326 0 499 -166.5t173 -449.5zM580 328h206q184 0 294 136t110 376q0 153 -71 224t-228 71h-182l-39 -240h161l-49 -309h-161z" />
    <glyph glyph-name="dcroat" unicode="&#x111;" horiz-adv-x="1406" 
d="M768 147q-52 -80 -134 -126t-181 -46q-185 0 -292.5 123.5t-107.5 319.5q0 177 63.5 326.5t188 243t285.5 93.5q104 0 187 -46t112 -122l37 234h-207l35 227h209l20 133h418l-21 -133h121l-35 -227h-123l-182 -1147h-416zM621 268q82 0 136.5 61t71.5 173q11 84 11 106
q0 86 -38 133t-102 47q-104 0 -164.5 -96.5t-60.5 -251.5q0 -79 38.5 -125.5t107.5 -46.5z" />
    <glyph glyph-name="Emacron" unicode="&#x112;" horiz-adv-x="1384" 
d="M489 1573l39 254h785l-39 -254h-785zM43 0l231 1462h1160l-52 -327h-737l-37 -236h643l-53 -328h-641l-39 -243h754l-51 -328h-1178z" />
    <glyph glyph-name="emacron" unicode="&#x113;" horiz-adv-x="1245" 
d="M387 1171l39 254h700l-39 -254h-700zM1155 360q-60 -179 -206 -282t-361 -103q-240 0 -386.5 129t-146.5 347q0 280 180.5 455t471.5 175q232 0 361.5 -120t129.5 -330q0 -87 -24 -189h-721q6 -178 157 -178q118 0 162 96h383zM686 799q-74 0 -127 -44t-80 -120h342
q2 10 2 31q0 57 -35.5 95t-101.5 38z" />
    <glyph glyph-name="Ebreve" unicode="&#x114;" horiz-adv-x="1384" 
d="M1272 1905q-25 -161 -131 -259t-262 -98q-136 0 -210.5 75.5t-74.5 205.5q0 36 6 76h229q-2 -12 -2 -33q0 -42 22.5 -67t63.5 -25q50 0 83 34t42 91h234zM43 0l231 1462h1160l-52 -327h-737l-37 -236h643l-53 -328h-641l-39 -243h754l-51 -328h-1178z" />
    <glyph glyph-name="ebreve" unicode="&#x115;" horiz-adv-x="1245" 
d="M745 1151q-137 0 -211.5 75.5t-74.5 205.5q0 39 8 75h229q-2 -12 -2 -30q0 -42 23 -68.5t63 -26.5q50 0 82 34t43 91h234q-25 -159 -131.5 -257.5t-262.5 -98.5zM1155 360q-60 -179 -206 -282t-361 -103q-240 0 -386.5 129t-146.5 347q0 280 180.5 455t471.5 175
q232 0 361.5 -120t129.5 -330q0 -87 -24 -189h-721q6 -178 157 -178q118 0 162 96h383zM686 799q-74 0 -127 -44t-80 -120h342q2 10 2 31q0 57 -35.5 95t-101.5 38z" />
    <glyph glyph-name="Edotaccent" unicode="&#x116;" horiz-adv-x="1384" 
d="M666 1552l53 336h422l-54 -336h-421zM43 0l231 1462h1160l-52 -327h-737l-37 -236h643l-53 -328h-641l-39 -243h754l-51 -328h-1178z" />
    <glyph glyph-name="edotaccent" unicode="&#x117;" horiz-adv-x="1245" 
d="M524 1171l54 336h423l-53 -336h-424zM1155 360q-60 -179 -206 -282t-361 -103q-240 0 -386.5 129t-146.5 347q0 280 180.5 455t471.5 175q232 0 361.5 -120t129.5 -330q0 -87 -24 -189h-721q6 -178 157 -178q118 0 162 96h383zM686 799q-74 0 -127 -44t-80 -120h342
q2 10 2 31q0 57 -35.5 95t-101.5 38z" />
    <glyph glyph-name="Eogonek" unicode="&#x118;" horiz-adv-x="1384" 
d="M1106 -360q-91 -29 -174 -29q-89 0 -144 40.5t-55 112.5q0 59 33 114t98 122h-821l231 1462h1160l-52 -327h-737l-37 -236h643l-53 -328h-641l-39 -243h754l-51 -328h-148q-62 -67 -79 -91.5t-17 -51.5q0 -41 51 -41q42 0 109 14z" />
    <glyph glyph-name="eogonek" unicode="&#x119;" horiz-adv-x="1245" 
d="M885 -360q-91 -29 -174 -29q-89 0 -144 40.5t-55 112.5q0 53 27 102t82 109h-33q-240 0 -386.5 129t-146.5 347q0 280 180.5 455t471.5 175q232 0 361.5 -120t129.5 -330q0 -87 -24 -189h-721v-6q10 -172 157 -172q118 0 162 96h383q-65 -190 -252 -319q-79 -55 -113 -97
t-34 -83q0 -20 14 -32.5t37 -12.5q41 0 108 14zM686 799q-74 0 -127 -44t-80 -120h342q2 10 2 31q0 57 -35.5 95t-101.5 38z" />
    <glyph glyph-name="Ecaron" unicode="&#x11a;" horiz-adv-x="1384" 
d="M1051 1552h-338l-160 336h215l137 -121l176 121h238zM43 0l231 1462h1160l-52 -327h-737l-37 -236h643l-53 -328h-641l-39 -243h754l-51 -328h-1178z" />
    <glyph glyph-name="ecaron" unicode="&#x11b;" horiz-adv-x="1245" 
d="M891 1171h-338l-123 336h215l109 -121l202 121h238zM1155 360q-60 -179 -206 -282t-361 -103q-240 0 -386.5 129t-146.5 347q0 280 180.5 455t471.5 175q232 0 361.5 -120t129.5 -330q0 -87 -24 -189h-721q6 -178 157 -178q118 0 162 96h383zM686 799q-74 0 -127 -44
t-80 -120h342q2 10 2 31q0 57 -35.5 95t-101.5 38z" />
    <glyph glyph-name="Gcircumflex" unicode="&#x11c;" horiz-adv-x="1622" 
d="M844 1888h338l159 -336h-215l-137 121l-176 -121h-238zM698 -25q-130 0 -242.5 43t-195 122t-129.5 196.5t-47 259.5q0 146 38 280.5t112 245t175.5 192.5t234.5 127.5t284 45.5q292 0 452.5 -145.5t171.5 -385.5h-417q-5 93 -64.5 149t-159.5 56q-77 0 -141.5 -31.5
t-109.5 -85t-76.5 -126t-46.5 -153.5t-15 -167q0 -137 65 -217t187 -80q118 0 193 47.5t96 130.5h-176l47 295h614l-123 -774h-331l2 147q-52 -76 -160 -124t-238 -48z" />
    <glyph glyph-name="gcircumflex" unicode="&#x11d;" horiz-adv-x="1366" 
d="M705 1507h337l123 -336h-215l-108 121l-203 -121h-238zM758 74l22 147q-57 -89 -135 -133.5t-188 -44.5q-184 0 -287.5 123t-103.5 323q0 111 35.5 217t98.5 189.5t160 134.5t211 51q115 0 205.5 -48.5t116.5 -127.5l25 152h411l-145 -916q-42 -264 -213 -397t-449 -133
q-239 0 -381.5 101t-156.5 263h411q15 -88 150 -88q85 0 142 44.5t71 142.5zM836 539q10 66 10 88q0 79 -39.5 122.5t-108.5 43.5q-101 0 -160 -77.5t-59 -205.5q0 -87 39 -133.5t111 -46.5q81 0 135.5 54t71.5 155z" />
    <glyph glyph-name="Gbreve" unicode="&#x11e;" horiz-adv-x="1622" 
d="M1364 1905q-25 -161 -131 -259t-262 -98q-136 0 -210.5 75.5t-74.5 205.5q0 36 6 76h230q-2 -12 -2 -33q0 -42 22.5 -67t63.5 -25q50 0 82.5 34t41.5 91h234zM698 -25q-130 0 -242.5 43t-195 122t-129.5 196.5t-47 259.5q0 146 38 280.5t112 245t175.5 192.5t234.5 127.5
t284 45.5q292 0 452.5 -145.5t171.5 -385.5h-417q-5 93 -64.5 149t-159.5 56q-77 0 -141.5 -31.5t-109.5 -85t-76.5 -126t-46.5 -153.5t-15 -167q0 -137 65 -217t187 -80q118 0 193 47.5t96 130.5h-176l47 295h614l-123 -774h-331l2 147q-52 -76 -160 -124t-238 -48z" />
    <glyph glyph-name="gbreve" unicode="&#x11f;" horiz-adv-x="1366" 
d="M803 1151q-137 0 -212 75.5t-75 205.5q0 39 8 75h230q-2 -12 -2 -30q0 -42 23 -68.5t63 -26.5q50 0 82 34t43 91h233q-25 -159 -131 -257.5t-262 -98.5zM758 74l22 147q-57 -89 -135 -133.5t-188 -44.5q-184 0 -287.5 123t-103.5 323q0 111 35.5 217t98.5 189.5
t160 134.5t211 51q115 0 205.5 -48.5t116.5 -127.5l25 152h411l-145 -916q-42 -264 -213 -397t-449 -133q-239 0 -381.5 101t-156.5 263h411q15 -88 150 -88q85 0 142 44.5t71 142.5zM836 539q10 66 10 88q0 79 -39.5 122.5t-108.5 43.5q-101 0 -160 -77.5t-59 -205.5
q0 -87 39 -133.5t111 -46.5q81 0 135.5 54t71.5 155z" />
    <glyph glyph-name="Gdotaccent" unicode="&#x120;" horiz-adv-x="1622" 
d="M758 1552l53 336h422l-53 -336h-422zM698 -25q-130 0 -242.5 43t-195 122t-129.5 196.5t-47 259.5q0 146 38 280.5t112 245t175.5 192.5t234.5 127.5t284 45.5q292 0 452.5 -145.5t171.5 -385.5h-417q-5 93 -64.5 149t-159.5 56q-77 0 -141.5 -31.5t-109.5 -85
t-76.5 -126t-46.5 -153.5t-15 -167q0 -137 65 -217t187 -80q118 0 193 47.5t96 130.5h-176l47 295h614l-123 -774h-331l2 147q-52 -76 -160 -124t-238 -48z" />
    <glyph glyph-name="gdotaccent" unicode="&#x121;" horiz-adv-x="1366" 
d="M575 1171l54 336h424l-54 -336h-424zM758 74l22 147q-57 -89 -135 -133.5t-188 -44.5q-184 0 -287.5 123t-103.5 323q0 111 35.5 217t98.5 189.5t160 134.5t211 51q115 0 205.5 -48.5t116.5 -127.5l25 152h411l-145 -916q-42 -264 -213 -397t-449 -133q-239 0 -381.5 101
t-156.5 263h411q15 -88 150 -88q85 0 142 44.5t71 142.5zM836 539q10 66 10 88q0 79 -39.5 122.5t-108.5 43.5q-101 0 -160 -77.5t-59 -205.5q0 -87 39 -133.5t111 -46.5q81 0 135.5 54t71.5 155z" />
    <glyph glyph-name="uni0122" unicode="&#x122;" horiz-adv-x="1622" 
d="M698 -25q-130 0 -242.5 43t-195 122t-129.5 196.5t-47 259.5q0 146 38 280.5t112 245t175.5 192.5t234.5 127.5t284 45.5q292 0 452.5 -145.5t171.5 -385.5h-417q-5 93 -64.5 149t-159.5 56q-77 0 -141.5 -31.5t-109.5 -85t-76.5 -126t-46.5 -153.5t-15 -167
q0 -137 65 -217t187 -80q118 0 193 47.5t96 130.5h-176l47 295h614l-123 -774h-331l2 147q-52 -76 -160 -124t-238 -48zM498 -295l32 211h361l-19 -125q-25 -164 -122.5 -230.5t-282.5 -66.5l20 129q63 0 95.5 19.5t38.5 62.5h-123z" />
    <glyph glyph-name="uni0123" unicode="&#x123;" horiz-adv-x="1366" 
d="M1014 1382l-33 -211h-360l18 125q25 164 122.5 230.5t282.5 66.5l-20 -129q-63 0 -95 -19t-38 -63h123zM758 74l22 147q-57 -89 -135 -133.5t-188 -44.5q-184 0 -287.5 123t-103.5 323q0 111 35.5 217t98.5 189.5t160 134.5t211 51q115 0 205.5 -48.5t116.5 -127.5
l25 152h411l-145 -916q-42 -264 -213 -397t-449 -133q-239 0 -381.5 101t-156.5 263h411q15 -88 150 -88q85 0 142 44.5t71 142.5zM836 539q10 66 10 88q0 79 -39.5 122.5t-108.5 43.5q-101 0 -160 -77.5t-59 -205.5q0 -87 39 -133.5t111 -46.5q81 0 135.5 54t71.5 155z" />
    <glyph glyph-name="Hcircumflex" unicode="&#x124;" horiz-adv-x="1683" 
d="M864 1888h338l160 -336h-215l-137 121l-176 -121h-238zM43 0l231 1462h433l-89 -559h570l88 559h432l-231 -1462h-433l93 578h-570l-92 -578h-432z" />
    <glyph glyph-name="hcircumflex" unicode="&#x125;" horiz-adv-x="1361" 
d="M655 1929h338l160 -336h-215l-137 121l-176 -121h-238zM698 1507l-96 -602q54 78 141.5 127t192.5 49q159 0 252.5 -90t93.5 -243q0 -28 -8 -86l-105 -662h-417l90 573q4 28 4 58q0 131 -123 131q-144 0 -176 -203l-88 -559h-418l240 1507h417z" />
    <glyph glyph-name="Hbar" unicode="&#x126;" horiz-adv-x="1806" 
d="M600 393l-61 -393h-433l146 913h-125l49 310h123l39 239h432l-37 -239h570l36 239h433l-39 -239h122l-49 -310h-120l-146 -913h-432l61 393h-569zM653 719h570l30 194h-569z" />
    <glyph glyph-name="hbar" unicode="&#x127;" horiz-adv-x="1402" 
d="M588 559l-88 -559h-418l182 1147h-123l35 227h125l21 133h417l-20 -133h205l-35 -227h-207l-39 -242q54 78 141.5 127t192.5 49q159 0 252.5 -90t93.5 -243q0 -28 -8 -86l-105 -662h-417l90 573q4 28 4 58q0 131 -123 131q-144 0 -176 -203z" />
    <glyph glyph-name="Itilde" unicode="&#x128;" horiz-adv-x="681" 
d="M412 1667q-27 0 -51.5 -25.5t-34.5 -74.5h-220q26 169 105 272t178 103q42 0 85.5 -17t73.5 -37.5t63.5 -37.5t58.5 -17q27 0 51.5 25.5t34.5 74.5h219q-26 -169 -105 -271.5t-178 -102.5q-42 0 -85.5 17t-73 37t-63 37t-58.5 17zM274 1462h433l-232 -1462h-432z" />
    <glyph glyph-name="itilde" unicode="&#x129;" horiz-adv-x="663" 
d="M367 1245q-28 0 -52 -25t-34 -75h-211q26 169 103.5 272t176.5 103q35 0 61.5 -11t43 -27t31 -32.5t31.5 -27.5t38 -11q28 0 53 25.5t35 74.5h211q-28 -169 -105 -271.5t-176 -102.5q-42 0 -74 17t-47.5 37t-37.5 37t-47 17zM209 1057h418l-168 -1057h-418z" />
    <glyph glyph-name="Imacron" unicode="&#x12a;" horiz-adv-x="681" 
d="M115 1573l39 254h784l-39 -254h-784zM274 1462h433l-232 -1462h-432z" />
    <glyph glyph-name="imacron" unicode="&#x12b;" horiz-adv-x="663" 
d="M127 1171l39 254h618l-39 -254h-618zM209 1057h418l-168 -1057h-418z" />
    <glyph glyph-name="Ibreve" unicode="&#x12c;" horiz-adv-x="681" 
d="M897 1905q-25 -161 -131 -259t-262 -98q-136 0 -210.5 75.5t-74.5 205.5q0 36 6 76h230q-2 -12 -2 -33q0 -42 22.5 -67t63.5 -25q50 0 83 34t42 91h233zM274 1462h433l-232 -1462h-432z" />
    <glyph glyph-name="ibreve" unicode="&#x12d;" horiz-adv-x="663" 
d="M430 1151q-137 0 -212 75.5t-75 205.5q0 34 9 75h229q-2 -12 -2 -30q0 -42 23 -68.5t63 -26.5q50 0 82 34t43 91h233q-25 -159 -131 -257.5t-262 -98.5zM209 1057h418l-168 -1057h-418z" />
    <glyph glyph-name="Iogonek" unicode="&#x12e;" horiz-adv-x="681" 
d="M414 -360q-91 -29 -174 -29q-89 0 -144 40.5t-55 112.5q0 59 33 113t100 123h-131l231 1462h433l-232 -1462q-83 -15 -136.5 -57t-53.5 -86q0 -41 51 -41q42 0 108 14z" />
    <glyph glyph-name="iogonek" unicode="&#x12f;" horiz-adv-x="663" 
d="M223 1171l53 336h422l-53 -336h-422zM158 0h-117l168 1057h418l-168 -1057q-84 -15 -137.5 -57t-53.5 -86q0 -41 51 -41q42 0 109 14l-31 -190q-91 -29 -174 -29q-88 0 -143 40.5t-55 112.5q0 59 33 113t100 123z" />
    <glyph glyph-name="Idotaccent" unicode="&#x130;" horiz-adv-x="681" 
d="M295 1552l53 336h422l-53 -336h-422zM274 1462h433l-232 -1462h-432z" />
    <glyph glyph-name="dotlessi" unicode="&#x131;" horiz-adv-x="663" 
d="M209 1057h418l-168 -1057h-418z" />
    <glyph glyph-name="Jcircumflex" unicode="&#x134;" horiz-adv-x="1368" 
d="M1069 1888h338l160 -336h-215l-138 121l-176 -121h-237zM825 524l148 938h432l-145 -921q-42 -263 -222.5 -414.5t-470.5 -151.5q-171 0 -298 64.5t-190 186.5t-46 282h405q-9 -225 166 -225q96 0 148.5 58t72.5 183z" />
    <glyph glyph-name="jcircumflex" unicode="&#x135;" horiz-adv-x="663" 
d="M352 1507h338l123 -336h-215l-109 121l-202 -121h-238zM-6 -379q-103 0 -193 19l47 290q40 -6 76 -6q56 0 83 24t36 79l164 1030h420l-168 -1055q-59 -381 -465 -381z" />
    <glyph glyph-name="uni0136" unicode="&#x136;" horiz-adv-x="1595" 
d="M1051 0l-324 532l-197 -186l-55 -346h-432l231 1462h433l-97 -614l604 614h492l-668 -633l500 -829h-487zM510 -295l33 211h360l-18 -125q-25 -164 -123 -230.5t-283 -66.5l21 129q63 0 95 19t38 63h-123z" />
    <glyph glyph-name="uni0137" unicode="&#x137;" horiz-adv-x="1347" 
d="M817 0l-190 377l-125 -111l-43 -266h-418l240 1507h417l-131 -817l394 367h460l-481 -426l328 -631h-451zM395 -295l33 211h360l-18 -125q-25 -164 -122.5 -230.5t-282.5 -66.5l20 129q63 0 95 19t38 63h-123z" />
    <glyph glyph-name="kgreenlandic" unicode="&#x138;" horiz-adv-x="1347" 
d="M817 0l-190 377l-125 -111l-43 -266h-418l168 1057h418l-60 -369l394 369h460l-481 -426l328 -631h-451z" />
    <glyph glyph-name="Lacute" unicode="&#x139;" horiz-adv-x="1341" 
d="M365 1552l151 336h467l-344 -336h-274zM43 0l231 1462h433l-181 -1134h703l-51 -328h-1135z" />
    <glyph glyph-name="lacute" unicode="&#x13a;" horiz-adv-x="663" 
d="M360 1593l152 336h467l-344 -336h-275zM459 0h-418l240 1507h417z" />
    <glyph glyph-name="uni013B" unicode="&#x13b;" horiz-adv-x="1341" 
d="M43 0l231 1462h433l-181 -1134h703l-51 -328h-1135zM414 -295l32 211h361l-19 -125q-25 -164 -122.5 -230.5t-282.5 -66.5l20 129q63 0 95.5 19.5t38.5 62.5h-123z" />
    <glyph glyph-name="uni013C" unicode="&#x13c;" horiz-adv-x="663" 
d="M459 0h-418l240 1507h417zM18 -295l33 211h361l-19 -125q-25 -164 -122.5 -230.5t-282.5 -66.5l20 129q63 0 95 19t38 63h-123z" />
    <glyph glyph-name="Lcaron" unicode="&#x13d;" horiz-adv-x="1341" 
d="M997 1061h-196l102 401h408zM43 0l231 1462h433l-181 -1134h703l-51 -328h-1135z" />
    <glyph glyph-name="lcaron" unicode="&#x13e;" horiz-adv-x="722" 
d="M975 1106h-197l103 401h407zM459 0h-418l240 1507h417z" />
    <glyph glyph-name="Ldot" unicode="&#x13f;" horiz-adv-x="1341" 
d="M43 0l231 1462h433l-181 -1134h703l-51 -328h-1135zM793 614l53 336h424l-53 -336h-424z" />
    <glyph glyph-name="ldot" unicode="&#x140;" horiz-adv-x="1155" 
d="M459 0h-418l240 1507h417zM694 573l54 336h423l-53 -336h-424z" />
    <glyph glyph-name="Lslash" unicode="&#x141;" horiz-adv-x="1411" 
d="M1298 328l-51 -328h-1134l82 518l-138 -45l62 322l127 43l98 624h432l-78 -495l299 98l-49 -320l-301 -98l-51 -319h702z" />
    <glyph glyph-name="lslash" unicode="&#x142;" horiz-adv-x="788" 
d="M813 799l-172 -58l-119 -741h-418l99 616l-174 -57l45 283l174 57l96 608h418l-76 -483l172 57z" />
    <glyph glyph-name="Nacute" unicode="&#x143;" horiz-adv-x="1667" 
d="M817 1552l152 336h467l-344 -336h-275zM752 1462l395 -825h4l131 825h410l-232 -1462h-387l-467 948h-4l-149 -948h-410l231 1462h478z" />
    <glyph glyph-name="nacute" unicode="&#x144;" horiz-adv-x="1361" 
d="M627 1171l151 336h445l-322 -336h-274zM623 1057l-25 -152q54 78 143 127t195 49q159 0 252.5 -90t93.5 -243q0 -28 -8 -86l-105 -662h-417l90 573q4 28 4 58q0 131 -123 131q-144 0 -176 -203l-88 -559h-418l168 1057h414z" />
    <glyph glyph-name="uni0145" unicode="&#x145;" horiz-adv-x="1667" 
d="M752 1462l395 -825h4l131 825h410l-232 -1462h-387l-467 948h-4l-149 -948h-410l231 1462h478zM557 -295l33 211h360l-18 -125q-25 -164 -123 -230.5t-283 -66.5l21 129q63 0 95 19t38 63h-123z" />
    <glyph glyph-name="uni0146" unicode="&#x146;" horiz-adv-x="1361" 
d="M623 1057l-25 -152q54 78 143 127t195 49q159 0 252.5 -90t93.5 -243q0 -28 -8 -86l-105 -662h-417l90 573q4 28 4 58q0 131 -123 131q-144 0 -176 -203l-88 -559h-418l168 1057h414zM371 -295l32 211h361l-19 -125q-25 -164 -122.5 -230.5t-282.5 -66.5l20 129
q63 0 95.5 19.5t38.5 62.5h-123z" />
    <glyph glyph-name="Ncaron" unicode="&#x147;" horiz-adv-x="1667" 
d="M1161 1552h-338l-159 336h215l137 -121l176 121h238zM752 1462l395 -825h4l131 825h410l-232 -1462h-387l-467 948h-4l-149 -948h-410l231 1462h478z" />
    <glyph glyph-name="ncaron" unicode="&#x148;" horiz-adv-x="1361" 
d="M940 1171h-338l-123 336h215l109 -121l203 121h237zM623 1057l-25 -152q54 78 143 127t195 49q159 0 252.5 -90t93.5 -243q0 -28 -8 -86l-105 -662h-417l90 573q4 28 4 58q0 131 -123 131q-144 0 -176 -203l-88 -559h-418l168 1057h414z" />
    <glyph glyph-name="Eng" unicode="&#x14a;" horiz-adv-x="1667" 
d="M995 -379q-102 0 -192 19l47 290q40 -6 76 -6q57 0 88.5 24.5t40.5 78.5l4 28l-453 893h-4l-149 -948h-410l231 1462h478l395 -825h4l131 825h410l-232 -1460q-58 -381 -465 -381z" />
    <glyph glyph-name="eng" unicode="&#x14b;" horiz-adv-x="1361" 
d="M705 -379q-103 0 -193 19l47 290q41 -6 76 -6q56 0 83 24t36 79l88 546q4 28 4 58q0 131 -123 131q-144 0 -176 -203l-88 -559h-418l168 1057h414l-25 -152q54 78 143 127t195 49q159 0 252.5 -90t93.5 -243q0 -28 -8 -86l-105 -660q-59 -381 -464 -381z" />
    <glyph glyph-name="Omacron" unicode="&#x14c;" horiz-adv-x="1615" 
d="M614 1573l39 254h785l-39 -254h-785zM926 1487q315 0 494 -172.5t179 -460.5q0 -173 -60.5 -332.5t-167.5 -280.5t-266.5 -193.5t-346.5 -72.5q-315 0 -494.5 172.5t-179.5 460.5q0 173 60.5 332.5t167.5 280.5t267 193.5t347 72.5zM907 1161q-77 0 -141 -32t-108.5 -86
t-75.5 -126.5t-45.5 -153t-14.5 -165.5q0 -142 65 -219.5t189 -77.5q77 0 141 32t108.5 86t75.5 126.5t45.5 153t14.5 165.5q0 142 -65 219.5t-189 77.5z" />
    <glyph glyph-name="omacron" unicode="&#x14d;" horiz-adv-x="1290" 
d="M401 1171l39 254h701l-39 -254h-701zM588 -25q-240 0 -386.5 129t-146.5 347q0 280 179.5 455t470.5 175q240 0 386 -128.5t146 -346.5q0 -281 -179 -456t-470 -175zM612 268q70 0 118 53.5t67.5 130.5t19.5 171q0 81 -35.5 123t-101.5 42q-70 0 -118 -53t-67.5 -130.5
t-19.5 -170.5q0 -81 35.5 -123.5t101.5 -42.5z" />
    <glyph glyph-name="Obreve" unicode="&#x14e;" horiz-adv-x="1615" 
d="M1397 1905q-25 -161 -131 -259t-262 -98q-136 0 -210.5 75.5t-74.5 205.5q0 36 6 76h229q-2 -12 -2 -33q0 -42 22.5 -67t63.5 -25q50 0 83 34t42 91h234zM926 1487q315 0 494 -172.5t179 -460.5q0 -173 -60.5 -332.5t-167.5 -280.5t-266.5 -193.5t-346.5 -72.5
q-315 0 -494.5 172.5t-179.5 460.5q0 173 60.5 332.5t167.5 280.5t267 193.5t347 72.5zM907 1161q-77 0 -141 -32t-108.5 -86t-75.5 -126.5t-45.5 -153t-14.5 -165.5q0 -142 65 -219.5t189 -77.5q77 0 141 32t108.5 86t75.5 126.5t45.5 153t14.5 165.5q0 142 -65 219.5
t-189 77.5z" />
    <glyph glyph-name="obreve" unicode="&#x14f;" horiz-adv-x="1290" 
d="M768 1151q-137 0 -212 75.5t-75 205.5q0 39 8 75h230q-2 -12 -2 -30q0 -42 23 -68.5t63 -26.5q50 0 82 34t43 91h233q-25 -159 -131 -257.5t-262 -98.5zM588 -25q-240 0 -386.5 129t-146.5 347q0 280 179.5 455t470.5 175q240 0 386 -128.5t146 -346.5q0 -281 -179 -456
t-470 -175zM612 268q70 0 118 53.5t67.5 130.5t19.5 171q0 81 -35.5 123t-101.5 42q-70 0 -118 -53t-67.5 -130.5t-19.5 -170.5q0 -81 35.5 -123.5t101.5 -42.5z" />
    <glyph glyph-name="Ohungarumlaut" unicode="&#x150;" horiz-adv-x="1615" 
d="M1065 1552l156 336h378l-294 -336h-240zM621 1552l155 336h379l-297 -336h-237zM926 1487q315 0 494 -172.5t179 -460.5q0 -173 -60.5 -332.5t-167.5 -280.5t-266.5 -193.5t-346.5 -72.5q-315 0 -494.5 172.5t-179.5 460.5q0 173 60.5 332.5t167.5 280.5t267 193.5
t347 72.5zM907 1161q-77 0 -141 -32t-108.5 -86t-75.5 -126.5t-45.5 -153t-14.5 -165.5q0 -142 65 -219.5t189 -77.5q77 0 141 32t108.5 86t75.5 126.5t45.5 153t14.5 165.5q0 142 -65 219.5t-189 77.5z" />
    <glyph glyph-name="ohungarumlaut" unicode="&#x151;" horiz-adv-x="1290" 
d="M807 1171l156 336h378l-297 -336h-237zM360 1171l156 336h379l-295 -336h-240zM588 -25q-240 0 -386.5 129t-146.5 347q0 280 179.5 455t470.5 175q240 0 386 -128.5t146 -346.5q0 -281 -179 -456t-470 -175zM612 268q70 0 118 53.5t67.5 130.5t19.5 171q0 81 -35.5 123
t-101.5 42q-70 0 -118 -53t-67.5 -130.5t-19.5 -170.5q0 -81 35.5 -123.5t101.5 -42.5z" />
    <glyph glyph-name="OE" unicode="&#x152;" horiz-adv-x="2304" 
d="M758 0q-326 0 -499 166.5t-173 449.5q0 182 61.5 337.5t172.5 268t275.5 176.5t362.5 64h1395l-51 -327h-737l-37 -236h643l-53 -328h-641l-39 -243h753l-51 -328h-1382zM821 328h183l129 807h-207q-184 0 -294 -136t-110 -376q0 -153 71 -224t228 -71z" />
    <glyph glyph-name="oe" unicode="&#x153;" horiz-adv-x="1986" 
d="M1898 360q-60 -179 -206 -282t-361 -103q-203 0 -358 148q-76 -65 -177.5 -106.5t-207.5 -41.5q-240 0 -386.5 129t-146.5 347q0 280 179.5 455t470.5 175q205 0 352 -147q190 147 393 147q232 0 362 -120t130 -330q0 -83 -25 -189h-721v-10q5 -80 44 -124t114 -44
q118 0 162 96h382zM1430 799q-74 0 -127 -44t-80 -120h342q2 10 2 31q0 57 -35.5 95t-101.5 38zM612 268q70 0 118 53.5t67.5 130.5t19.5 171q0 81 -35.5 123t-101.5 42q-70 0 -118 -53t-67.5 -130.5t-19.5 -170.5q0 -81 35.5 -123.5t101.5 -42.5z" />
    <glyph glyph-name="Racute" unicode="&#x154;" horiz-adv-x="1517" 
d="M702 1552l152 336h467l-344 -336h-275zM467 0h-424l231 1462h734q247 0 380.5 -113.5t133.5 -314.5q0 -179 -94 -308t-248 -194l219 -532h-449l-184 467h-225zM592 795h246q143 0 201.5 52t58.5 146q0 71 -48 106.5t-157 35.5h-246z" />
    <glyph glyph-name="racute" unicode="&#x155;" horiz-adv-x="968" 
d="M471 1171l152 336h444l-322 -336h-274zM1001 1059l-61 -383q-55 8 -119 8q-118 0 -195.5 -62t-97.5 -184l-69 -438h-418l168 1057h414l-35 -215q58 112 146.5 170.5t197.5 58.5q51 0 69 -12z" />
    <glyph glyph-name="uni0156" unicode="&#x156;" horiz-adv-x="1517" 
d="M467 0h-424l231 1462h734q247 0 380.5 -113.5t133.5 -314.5q0 -179 -94 -308t-248 -194l219 -532h-449l-184 467h-225zM592 795h246q143 0 201.5 52t58.5 146q0 71 -48 106.5t-157 35.5h-246zM485 -295l33 211h361l-19 -125q-25 -164 -122.5 -230.5t-282.5 -66.5l20 129
q63 0 95 19t38 63h-123z" />
    <glyph glyph-name="uni0157" unicode="&#x157;" horiz-adv-x="968" 
d="M1001 1059l-61 -383q-55 8 -119 8q-118 0 -195.5 -62t-97.5 -184l-69 -438h-418l168 1057h414l-35 -215q58 112 146.5 170.5t197.5 58.5q51 0 69 -12zM23 -295l32 211h361l-19 -125q-25 -164 -122.5 -230.5t-282.5 -66.5l20 129q63 0 95 19t38 63h-122z" />
    <glyph glyph-name="Rcaron" unicode="&#x158;" horiz-adv-x="1517" 
d="M1047 1552h-338l-160 336h215l137 -121l176 121h238zM467 0h-424l231 1462h734q247 0 380.5 -113.5t133.5 -314.5q0 -179 -94 -308t-248 -194l219 -532h-449l-184 467h-225zM592 795h246q143 0 201.5 52t58.5 146q0 71 -48 106.5t-157 35.5h-246z" />
    <glyph glyph-name="rcaron" unicode="&#x159;" horiz-adv-x="968" 
d="M784 1171h-338l-122 336h215l108 -121l203 121h237zM1001 1059l-61 -383q-55 8 -119 8q-118 0 -195.5 -62t-97.5 -184l-69 -438h-418l168 1057h414l-35 -215q58 112 146.5 170.5t197.5 58.5q51 0 69 -12z" />
    <glyph glyph-name="Sacute" unicode="&#x15a;" horiz-adv-x="1404" 
d="M702 1552l152 336h467l-344 -336h-275zM14 457h416q4 -90 77 -135.5t175 -45.5q117 0 180.5 40.5t63.5 115.5q0 44 -40 67t-141 44l-247 51q-155 33 -250.5 128t-95.5 245q0 120 50.5 219t139 164.5t208 101t257.5 35.5q294 0 448 -127.5t160 -341.5h-399
q-5 77 -65 121.5t-167 44.5q-98 0 -155.5 -37.5t-57.5 -102.5q0 -50 39 -75t131 -45l265 -56q169 -35 255.5 -125.5t86.5 -232.5q0 -161 -90.5 -284t-244 -187t-343.5 -64q-301 0 -476.5 126.5t-179.5 355.5z" />
    <glyph glyph-name="sacute" unicode="&#x15b;" horiz-adv-x="1161" 
d="M535 1171l151 336h444l-321 -336h-274zM12 334h383q3 -50 46.5 -74t103.5 -24q127 0 127 69q0 26 -24 37.5t-91 24.5l-180 36q-125 26 -196.5 93.5t-71.5 179.5q0 182 148 293.5t382 111.5q120 0 212.5 -28t149 -78t86.5 -112t35 -136h-364q-5 44 -42 71t-98 27
q-51 0 -80.5 -18.5t-29.5 -52.5q0 -25 24.5 -38t83.5 -24l193 -39q129 -26 193.5 -97t64.5 -179q0 -129 -72 -221.5t-189.5 -136.5t-266.5 -44q-240 0 -381.5 94t-145.5 265z" />
    <glyph glyph-name="Scircumflex" unicode="&#x15c;" horiz-adv-x="1404" 
d="M748 1888h337l160 -336h-215l-137 121l-176 -121h-238zM14 457h416q4 -90 77 -135.5t175 -45.5q117 0 180.5 40.5t63.5 115.5q0 44 -40 67t-141 44l-247 51q-155 33 -250.5 128t-95.5 245q0 120 50.5 219t139 164.5t208 101t257.5 35.5q294 0 448 -127.5t160 -341.5h-399
q-5 77 -65 121.5t-167 44.5q-98 0 -155.5 -37.5t-57.5 -102.5q0 -50 39 -75t131 -45l265 -56q169 -35 255.5 -125.5t86.5 -232.5q0 -161 -90.5 -284t-244 -187t-343.5 -64q-301 0 -476.5 126.5t-179.5 355.5z" />
    <glyph glyph-name="scircumflex" unicode="&#x15d;" horiz-adv-x="1161" 
d="M614 1507h338l123 -336h-215l-108 121l-203 -121h-238zM12 334h383q3 -50 46.5 -74t103.5 -24q127 0 127 69q0 26 -24 37.5t-91 24.5l-180 36q-125 26 -196.5 93.5t-71.5 179.5q0 182 148 293.5t382 111.5q120 0 212.5 -28t149 -78t86.5 -112t35 -136h-364q-5 44 -42 71
t-98 27q-51 0 -80.5 -18.5t-29.5 -52.5q0 -25 24.5 -38t83.5 -24l193 -39q129 -26 193.5 -97t64.5 -179q0 -129 -72 -221.5t-189.5 -136.5t-266.5 -44q-240 0 -381.5 94t-145.5 265z" />
    <glyph glyph-name="uni015E" unicode="&#x15e;" horiz-adv-x="1404" 
d="M864 -209q0 -103 -96.5 -163t-226.5 -60q-118 0 -201 37l25 151q68 -25 107.5 -34t84.5 -9q43 0 69.5 16t26.5 42q0 47 -80 47q-30 0 -67 -11l-49 54l94 121q-249 24 -391 147t-146 328h416q4 -90 77 -135.5t175 -45.5q117 0 180.5 40.5t63.5 115.5q0 44 -40 67t-141 44
l-247 51q-155 33 -250.5 128t-95.5 245q0 120 50.5 219t139 164.5t208 101t257.5 35.5q294 0 448 -127.5t160 -341.5h-399q-5 77 -65 121.5t-167 44.5q-98 0 -155.5 -37.5t-57.5 -102.5q0 -50 39 -75t131 -45l265 -56q169 -35 255.5 -125.5t86.5 -232.5q0 -159 -88.5 -281
t-238 -186.5t-335.5 -67.5l-39 -49q20 2 31 2q78 0 132 -35t54 -102z" />
    <glyph glyph-name="uni015F" unicode="&#x15f;" horiz-adv-x="1161" 
d="M694 -209q0 -103 -96.5 -163t-226.5 -60q-118 0 -201 37l25 151q68 -25 107.5 -34t84.5 -9q43 0 69.5 16t26.5 42q0 47 -80 47q-30 0 -67 -11l-49 54l100 125q-174 28 -273 117t-102 231h383q3 -50 46.5 -74t103.5 -24q127 0 127 69q0 26 -24 37.5t-91 24.5l-180 36
q-125 26 -196.5 93.5t-71.5 179.5q0 182 148 293.5t382 111.5q120 0 212.5 -28t149 -78t86.5 -112t35 -136h-364q-5 44 -42 71t-98 27q-51 0 -80.5 -18.5t-29.5 -52.5q0 -25 24.5 -38t83.5 -24l193 -39q129 -26 193.5 -97t64.5 -179q0 -129 -72 -221.5t-189.5 -136.5
t-266.5 -44h-23l-39 -49q20 2 31 2q78 0 132 -35t54 -102z" />
    <glyph glyph-name="Scaron" unicode="&#x160;" horiz-adv-x="1404" 
d="M1026 1552h-338l-160 336h215l138 -121l176 121h237zM14 457h416q4 -90 77 -135.5t175 -45.5q117 0 180.5 40.5t63.5 115.5q0 44 -40 67t-141 44l-247 51q-155 33 -250.5 128t-95.5 245q0 120 50.5 219t139 164.5t208 101t257.5 35.5q294 0 448 -127.5t160 -341.5h-399
q-5 77 -65 121.5t-167 44.5q-98 0 -155.5 -37.5t-57.5 -102.5q0 -50 39 -75t131 -45l265 -56q169 -35 255.5 -125.5t86.5 -232.5q0 -161 -90.5 -284t-244 -187t-343.5 -64q-301 0 -476.5 126.5t-179.5 355.5z" />
    <glyph glyph-name="scaron" unicode="&#x161;" horiz-adv-x="1161" 
d="M848 1171h-338l-123 336h215l109 -121l202 121h238zM12 334h383q3 -50 46.5 -74t103.5 -24q127 0 127 69q0 26 -24 37.5t-91 24.5l-180 36q-125 26 -196.5 93.5t-71.5 179.5q0 182 148 293.5t382 111.5q120 0 212.5 -28t149 -78t86.5 -112t35 -136h-364q-5 44 -42 71
t-98 27q-51 0 -80.5 -18.5t-29.5 -52.5q0 -25 24.5 -38t83.5 -24l193 -39q129 -26 193.5 -97t64.5 -179q0 -129 -72 -221.5t-189.5 -136.5t-266.5 -44q-240 0 -381.5 94t-145.5 265z" />
    <glyph glyph-name="Tcommaaccent" unicode="&#x162;" horiz-adv-x="1550" 
d="M926 -209q0 -69 -48 -121t-120.5 -77t-155.5 -25q-118 0 -201 37l25 151q68 -25 107.5 -34t84.5 -9q43 0 70 16t27 42q0 47 -80 47q-31 0 -68 -11l-49 54l111 139h-152l180 1135h-489l51 327h1411l-51 -327h-489l-181 -1135h-143l-57 -74q20 2 30 2q78 0 132.5 -35
t54.5 -102z" />
    <glyph glyph-name="tcommaaccent" unicode="&#x163;" horiz-adv-x="851" 
d="M598 -209q0 -69 -48 -121t-120.5 -77t-155.5 -25q-117 0 -200 37l24 151q119 -43 193 -43q43 0 69.5 16t26.5 42q0 47 -80 47q-30 0 -67 -11l-50 54l111 139q-188 50 -188 240q0 34 6 77l69 451h-127l48 289h137l41 258h399l-41 -258h213l-47 -289h-213l-59 -336
q-7 -40 -7 -55q0 -41 22.5 -56.5t74.5 -15.5q55 0 116 10l-47 -299q-131 -32 -254 -32h-18l-45 -58q20 2 31 2q78 0 132 -35t54 -102z" />
    <glyph glyph-name="Tcaron" unicode="&#x164;" horiz-adv-x="1550" 
d="M1100 1552h-338l-160 336h215l137 -121l176 121h238zM477 0l180 1135h-489l51 327h1411l-51 -327h-489l-181 -1135h-432z" />
    <glyph glyph-name="tcaron" unicode="&#x165;" horiz-adv-x="851" 
d="M965 1147h-197l102 401h408zM745 315l-47 -299q-131 -32 -254 -32q-156 0 -243.5 63t-87.5 193q0 34 6 77l69 451h-127l48 289h137l41 258h399l-41 -258h213l-47 -289h-213l-59 -336q-7 -40 -7 -55q0 -41 22.5 -56.5t74.5 -15.5q55 0 116 10z" />
    <glyph glyph-name="Tbar" unicode="&#x166;" horiz-adv-x="1550" 
d="M1196 586h-195l-92 -586h-432l92 586h-194l49 309h194l39 240h-489l51 327h1411l-51 -327h-489l-39 -240h194z" />
    <glyph glyph-name="tbar" unicode="&#x167;" horiz-adv-x="917" 
d="M735 16q-131 -32 -254 -32q-156 0 -243.5 63t-87.5 193q0 34 6 77l18 121h-129l41 254h127l16 103h-127l43 262h138l41 258h399l-41 -258h213l-43 -262h-219l-17 -103h226l-41 -254h-226v-6q-6 -35 -6 -55q0 -41 22.5 -56.5t74.5 -15.5q55 0 116 10z" />
    <glyph glyph-name="Utilde" unicode="&#x168;" horiz-adv-x="1583" 
d="M846 1667q-27 0 -51.5 -25.5t-34.5 -74.5h-219q26 169 104.5 272t177.5 103q42 0 85.5 -17t73.5 -37.5t63.5 -37.5t58.5 -17q27 0 51.5 25.5t34.5 74.5h219q-26 -169 -105 -271.5t-178 -102.5q-42 0 -85.5 17t-73 37t-63 37t-58.5 17zM1481 584q-47 -297 -246.5 -453
t-521.5 -156q-285 0 -442.5 127.5t-157.5 360.5q0 51 10 123l139 876h432l-135 -854q-8 -44 -8 -94q0 -207 207 -207q73 0 126.5 23t86.5 66t52 94t30 118l135 854h432z" />
    <glyph glyph-name="utilde" unicode="&#x169;" horiz-adv-x="1345" 
d="M639 1245q-27 0 -51 -25.5t-35 -74.5h-219q28 169 105.5 272t176.5 103q42 0 85.5 -17t73.5 -37.5t63.5 -37.5t58.5 -17q28 0 52.5 25t35.5 75h217q-26 -169 -104.5 -271.5t-177.5 -102.5q-42 0 -85.5 17t-73.5 37t-63.5 37t-58.5 17zM725 0l25 152q-54 -78 -141 -127.5
t-191 -49.5q-159 0 -246.5 90t-87.5 244q0 32 8 94l105 654h417l-92 -580q-6 -35 -6 -59q0 -121 113 -121q63 0 108.5 49t59.5 152l90 559h418l-168 -1057h-412z" />
    <glyph glyph-name="Umacron" unicode="&#x16a;" horiz-adv-x="1583" 
d="M573 1573l39 254h785l-39 -254h-785zM1481 584q-47 -297 -246.5 -453t-521.5 -156q-285 0 -442.5 127.5t-157.5 360.5q0 51 10 123l139 876h432l-135 -854q-8 -44 -8 -94q0 -207 207 -207q73 0 126.5 23t86.5 66t52 94t30 118l135 854h432z" />
    <glyph glyph-name="umacron" unicode="&#x16b;" horiz-adv-x="1345" 
d="M414 1171l39 254h700l-39 -254h-700zM725 0l25 152q-54 -78 -141 -127.5t-191 -49.5q-159 0 -246.5 90t-87.5 244q0 32 8 94l105 654h417l-92 -580q-6 -35 -6 -59q0 -121 113 -121q63 0 108.5 49t59.5 152l90 559h418l-168 -1057h-412z" />
    <glyph glyph-name="Ubreve" unicode="&#x16c;" horiz-adv-x="1583" 
d="M1358 1905q-25 -161 -131 -259t-262 -98q-136 0 -210.5 75.5t-74.5 205.5q0 36 6 76h229q-2 -12 -2 -33q0 -42 22.5 -67t63.5 -25q50 0 83 34t42 91h234zM1481 584q-47 -297 -246.5 -453t-521.5 -156q-285 0 -442.5 127.5t-157.5 360.5q0 51 10 123l139 876h432
l-135 -854q-8 -44 -8 -94q0 -207 207 -207q73 0 126.5 23t86.5 66t52 94t30 118l135 854h432z" />
    <glyph glyph-name="ubreve" unicode="&#x16d;" horiz-adv-x="1345" 
d="M782 1151q-137 0 -211.5 75.5t-74.5 205.5q0 39 8 75h229q-2 -12 -2 -30q0 -42 23 -68.5t63 -26.5q50 0 82 34t43 91h234q-25 -159 -131.5 -257.5t-262.5 -98.5zM725 0l25 152q-54 -78 -141 -127.5t-191 -49.5q-159 0 -246.5 90t-87.5 244q0 32 8 94l105 654h417
l-92 -580q-6 -35 -6 -59q0 -121 113 -121q63 0 108.5 49t59.5 152l90 559h418l-168 -1057h-412z" />
    <glyph glyph-name="Uring" unicode="&#x16e;" horiz-adv-x="1583" 
d="M936 1458q-110 0 -181 75t-71 183q0 132 92.5 224t229.5 92q110 0 180.5 -75t70.5 -183q0 -132 -92 -224t-229 -92zM987 1860q-55 0 -92 -35.5t-37 -91.5q0 -44 29 -73.5t67 -29.5q55 0 92 35.5t37 91.5q0 44 -29 73.5t-67 29.5zM1481 584q-47 -297 -246.5 -453
t-521.5 -156q-285 0 -442.5 127.5t-157.5 360.5q0 51 10 123l139 876h432l-135 -854q-8 -44 -8 -94q0 -207 207 -207q73 0 126.5 23t86.5 66t52 94t30 118l135 854h432z" />
    <glyph glyph-name="uring" unicode="&#x16f;" horiz-adv-x="1345" 
d="M840 1667q101 0 167 -68.5t66 -168.5q0 -121 -85 -205t-212 -84q-102 0 -167.5 67.5t-65.5 167.5q0 121 85.5 206t211.5 85zM795 1296q53 0 86.5 33.5t33.5 85.5q0 40 -27 67t-67 27q-52 0 -85.5 -32t-33.5 -84q0 -40 27 -68.5t66 -28.5zM725 0l25 152
q-54 -78 -141 -127.5t-191 -49.5q-159 0 -246.5 90t-87.5 244q0 32 8 94l105 654h417l-92 -580q-6 -35 -6 -59q0 -121 113 -121q63 0 108.5 49t59.5 152l90 559h418l-168 -1057h-412z" />
    <glyph glyph-name="Uhungarumlaut" unicode="&#x170;" horiz-adv-x="1583" 
d="M1047 1552l155 336h379l-295 -336h-239zM602 1552l156 336h379l-297 -336h-238zM1481 584q-47 -297 -246.5 -453t-521.5 -156q-285 0 -442.5 127.5t-157.5 360.5q0 51 10 123l139 876h432l-135 -854q-8 -44 -8 -94q0 -207 207 -207q73 0 126.5 23t86.5 66t52 94t30 118
l135 854h432z" />
    <glyph glyph-name="uhungarumlaut" unicode="&#x171;" horiz-adv-x="1345" 
d="M842 1171l155 336h379l-297 -336h-237zM395 1171l156 336h379l-295 -336h-240zM725 0l25 152q-54 -78 -141 -127.5t-191 -49.5q-159 0 -246.5 90t-87.5 244q0 32 8 94l105 654h417l-92 -580q-6 -35 -6 -59q0 -121 113 -121q63 0 108.5 49t59.5 152l90 559h418l-168 -1057
h-412z" />
    <glyph glyph-name="Uogonek" unicode="&#x172;" horiz-adv-x="1583" 
d="M1085 -360q-91 -29 -174 -29q-88 0 -143 40.5t-55 112.5q0 101 114 218q-65 -7 -114 -7q-285 0 -442.5 127.5t-157.5 360.5q0 51 10 123l139 876h432l-135 -854q-8 -44 -8 -94q0 -207 207 -207q73 0 126.5 23t86.5 66t52 94t30 118l135 854h432l-139 -878
q-30 -195 -128.5 -330.5t-256.5 -206.5q-140 -97 -140 -186q0 -20 14.5 -32.5t37.5 -12.5q42 0 108 14z" />
    <glyph glyph-name="uogonek" unicode="&#x173;" horiz-adv-x="1345" 
d="M940 -360q-91 -29 -174 -29q-89 0 -144 40.5t-55 112.5q0 65 40 126t122 141l21 121q-54 -78 -141 -127.5t-191 -49.5q-159 0 -246.5 90t-87.5 244q0 32 8 94l105 654h417l-92 -580q-6 -35 -6 -59q0 -121 113 -121q63 0 108.5 49t59.5 152l90 559h418l-168 -1057h-230
q-62 -67 -79 -91.5t-17 -51.5q0 -41 51 -41q42 0 109 14z" />
    <glyph glyph-name="Wcircumflex" unicode="&#x174;" horiz-adv-x="2136" 
d="M1141 1888h338l159 -336h-215l-137 121l-176 -121h-238zM1141 0l-27 958h-4l-401 -958h-447l-108 1462h436l37 -934h4l383 934h422l8 -934h4l412 934h424l-691 -1462h-452z" />
    <glyph glyph-name="wcircumflex" unicode="&#x175;" horiz-adv-x="1830" 
d="M952 1507h338l123 -336h-215l-108 121l-203 -121h-238zM1180 1057l8 -633h4l301 633h412l-572 -1057h-399l-33 610h-4l-289 -610h-399l-111 1057h412l25 -633h4l278 633h363z" />
    <glyph glyph-name="Ycircumflex" unicode="&#x176;" horiz-adv-x="1572" 
d="M827 1888h338l160 -336h-215l-137 121l-176 -121h-238zM922 0h-435l95 590l-432 872h464l238 -506h6l395 506h471l-708 -872z" />
    <glyph glyph-name="ycircumflex" unicode="&#x177;" horiz-adv-x="1290" 
d="M662 1507h337l123 -336h-215l-108 121l-203 -121h-238zM285 20l-187 1037h412l84 -672h4l354 672h412l-604 -1051q-123 -213 -262.5 -300t-356.5 -87q-82 0 -161 23l47 295q59 -13 79 -13q66 0 107 20t72 76z" />
    <glyph glyph-name="Ydieresis" unicode="&#x178;" horiz-adv-x="1572" 
d="M1008 1552l53 336h356l-53 -336h-356zM541 1552l53 336h356l-53 -336h-356zM922 0h-435l95 590l-432 872h464l238 -506h6l395 506h471l-708 -872z" />
    <glyph glyph-name="Zacute" unicode="&#x179;" horiz-adv-x="1431" 
d="M694 1552l152 336h467l-344 -336h-275zM1438 1147l-848 -819h739l-51 -328h-1286l47 303l860 832h-709l52 327h1245z" />
    <glyph glyph-name="zacute" unicode="&#x17a;" horiz-adv-x="1146" 
d="M532 1171l152 336h444l-321 -336h-275zM1092 778l-535 -479h479l-47 -299h-991l43 270l534 490h-448l47 297h963z" />
    <glyph glyph-name="Zdotaccent" unicode="&#x17b;" horiz-adv-x="1431" 
d="M653 1552l54 336h421l-53 -336h-422zM1438 1147l-848 -819h739l-51 -328h-1286l47 303l860 832h-709l52 327h1245z" />
    <glyph glyph-name="zdotaccent" unicode="&#x17c;" horiz-adv-x="1146" 
d="M481 1171l54 336h423l-53 -336h-424zM1092 778l-535 -479h479l-47 -299h-991l43 270l534 490h-448l47 297h963z" />
    <glyph glyph-name="Zcaron" unicode="&#x17d;" horiz-adv-x="1431" 
d="M1038 1552h-338l-159 336h215l137 -121l176 121h238zM1438 1147l-848 -819h739l-51 -328h-1286l47 303l860 832h-709l52 327h1245z" />
    <glyph glyph-name="zcaron" unicode="&#x17e;" horiz-adv-x="1146" 
d="M846 1171h-338l-123 336h215l109 -121l202 121h238zM1092 778l-535 -479h479l-47 -299h-991l43 270l534 490h-448l47 297h963z" />
    <glyph glyph-name="uni0192" unicode="&#x192;" horiz-adv-x="1054" 
d="M874 514h-243l-244 -737h-401l247 737h-143l49 315h201l94 279q50 149 137.5 245.5t192 137.5t231.5 41q103 0 166 -25l-59 -372q-52 16 -107 16q-80 0 -129.5 -37t-81.5 -133l-49 -152h189z" />
    <glyph glyph-name="AEacute" unicode="&#x1fc;" horiz-adv-x="2371" 
d="M1518 1552l151 336h467l-344 -336h-274zM1030 0l47 293h-497l-209 -293h-453l1065 1462h1438l-51 -327h-738l-37 -236h643l-53 -328h-641l-39 -243h754l-51 -328h-1178zM1217 1182l-402 -561h313z" />
    <glyph glyph-name="aeacute" unicode="&#x1fd;" horiz-adv-x="1894" 
d="M930 1171l151 336h445l-322 -336h-274zM1804 360q-60 -178 -206.5 -281.5t-360.5 -103.5q-129 0 -234.5 39.5t-175.5 112.5q-163 -152 -385 -152q-193 0 -307.5 86.5t-114.5 231.5q0 157 121 249.5t330 92.5h281l4 31q4 24 4 36q0 84 -103 84q-55 0 -90.5 -28.5
t-46.5 -75.5h-399q48 189 190.5 294t360.5 105q210 0 313 -114q71 55 169 84.5t202 29.5q232 0 361.5 -120t129.5 -330q0 -87 -24 -189h-723v-8q5 -81 45 -125.5t115 -44.5q117 0 161 96h383zM1335 799q-74 0 -127 -44t-80 -120h342q3 15 3 31q0 57 -36 95t-102 38zM537 248
q80 0 124 41.5t52 105.5l8 47h-150q-145 0 -145 -106q0 -42 32 -65t79 -23z" />
    <glyph glyph-name="Oslashacute" unicode="&#x1fe;" horiz-adv-x="1615" 
d="M782 1552l152 336h467l-344 -336h-275zM758 -25q-244 0 -408 105l-135 -139l-160 120l148 154q-119 159 -119 393q0 173 60.5 332.5t167.5 280.5t267 193.5t347 72.5q238 0 403 -103l109 115l159 -121l-120 -127q122 -159 122 -397q0 -173 -60.5 -332.5t-167.5 -280.5
t-266.5 -193.5t-346.5 -72.5zM522 598q0 -33 2 -49l543 563q-61 49 -160 49q-77 0 -141 -32t-108.5 -86t-75.5 -126.5t-45.5 -153t-14.5 -165.5zM1161 864q0 40 -2 58l-547 -568q62 -53 164 -53q77 0 141 32t108.5 86t75.5 126.5t45.5 153t14.5 165.5z" />
    <glyph glyph-name="oslashacute" unicode="&#x1ff;" horiz-adv-x="1290" 
d="M586 1171l151 336h445l-322 -336h-274zM588 -25q-173 0 -297 68l-109 -111l-123 123l97 97q-101 119 -101 299q0 280 179.5 455t470.5 175q171 0 299 -67l94 94l121 -125l-80 -80q98 -121 98 -297q0 -281 -179 -456t-470 -175zM684 807q-60 0 -105.5 -29t-72.5 -80.5
t-41 -113t-16 -133.5l329 333q-41 23 -94 23zM608 250q79 0 133 51.5t77 127.5t26 173l-328 -332q36 -20 92 -20z" />
    <glyph glyph-name="uni0218" unicode="&#x218;" horiz-adv-x="1404" 
d="M14 457h416q4 -90 77 -135.5t175 -45.5q117 0 180.5 40.5t63.5 115.5q0 44 -40 67t-141 44l-247 51q-155 33 -250.5 128t-95.5 245q0 120 50.5 219t139 164.5t208 101t257.5 35.5q294 0 448 -127.5t160 -341.5h-399q-5 77 -65 121.5t-167 44.5q-98 0 -155.5 -37.5
t-57.5 -102.5q0 -50 39 -75t131 -45l265 -56q169 -35 255.5 -125.5t86.5 -232.5q0 -161 -90.5 -284t-244 -187t-343.5 -64q-301 0 -476.5 126.5t-179.5 355.5zM434 -295l33 211h360l-18 -125q-25 -164 -123 -230.5t-283 -66.5l21 129q63 0 95 19t38 63h-123z" />
    <glyph glyph-name="uni0219" unicode="&#x219;" horiz-adv-x="1161" 
d="M12 334h383q3 -50 46.5 -74t103.5 -24q127 0 127 69q0 26 -24 37.5t-91 24.5l-180 36q-125 26 -196.5 93.5t-71.5 179.5q0 182 148 293.5t382 111.5q120 0 212.5 -28t149 -78t86.5 -112t35 -136h-364q-5 44 -42 71t-98 27q-51 0 -80.5 -18.5t-29.5 -52.5q0 -25 24.5 -38
t83.5 -24l193 -39q129 -26 193.5 -97t64.5 -179q0 -129 -72 -221.5t-189.5 -136.5t-266.5 -44q-240 0 -381.5 94t-145.5 265zM279 -295l32 211h361l-19 -125q-25 -164 -122.5 -230.5t-282.5 -66.5l20 129q63 0 95 19t38 63h-122z" />
    <glyph glyph-name="uni021A" unicode="&#x21a;" horiz-adv-x="1550" 
d="M477 0l180 1135h-489l51 327h1411l-51 -327h-489l-181 -1135h-432zM467 -295l33 211h360l-18 -125q-25 -164 -123 -230.5t-283 -66.5l21 129q63 0 95 19t38 63h-123z" />
    <glyph glyph-name="uni021B" unicode="&#x21b;" horiz-adv-x="849" 
d="M745 315l-47 -299q-131 -32 -254 -32q-156 0 -243.5 63t-87.5 193q0 34 6 77l69 451h-127l48 289h137l41 258h399l-41 -258h213l-47 -289h-213l-59 -336q-7 -40 -7 -55q0 -41 22.5 -56.5t74.5 -15.5q55 0 116 10zM176 -295l33 211h360l-18 -125q-25 -164 -123 -230.5
t-283 -66.5l21 129q63 0 95 19t38 63h-123z" />
    <glyph glyph-name="uni0237" unicode="&#x237;" horiz-adv-x="663" 
d="M-6 -379q-103 0 -193 19l47 290q40 -6 76 -6q56 0 83 24t36 79l164 1030h420l-168 -1055q-59 -381 -465 -381z" />
    <glyph glyph-name="circumflex" unicode="&#x2c6;" horiz-adv-x="1153" 
d="M602 1507h338l123 -336h-215l-109 121l-202 -121h-238z" />
    <glyph glyph-name="caron" unicode="&#x2c7;" horiz-adv-x="1153" 
d="M813 1171h-338l-123 336h215l109 -121l203 121h237z" />
    <glyph glyph-name="breve" unicode="&#x2d8;" horiz-adv-x="1153" 
d="M676 1151q-137 0 -212 75.5t-75 205.5q0 39 8 75h230q-2 -12 -2 -30q0 -42 23 -68.5t63 -26.5q50 0 82 34t43 91h233q-25 -159 -131 -257.5t-262 -98.5z" />
    <glyph glyph-name="dotaccent" unicode="&#x2d9;" horiz-adv-x="1153" 
d="M469 1171l53 336h424l-53 -336h-424z" />
    <glyph glyph-name="ring" unicode="&#x2da;" horiz-adv-x="1153" 
d="M748 1667q101 0 167 -68.5t66 -168.5q0 -121 -85 -205t-212 -84q-102 0 -167.5 67.5t-65.5 167.5q0 121 85.5 206t211.5 85zM702 1296q53 0 87 33.5t34 85.5q0 40 -27 67t-67 27q-52 0 -85.5 -32t-33.5 -84q0 -40 26.5 -68.5t65.5 -28.5z" />
    <glyph glyph-name="ogonek" unicode="&#x2db;" horiz-adv-x="1153" 
d="M541 55h204q-102 -107 -125.5 -137t-23.5 -61q0 -41 51 -41q43 0 109 14l-31 -190q-91 -29 -174 -29q-89 0 -144 40.5t-55 112.5q0 70 45.5 133.5t143.5 157.5z" />
    <glyph glyph-name="tilde" unicode="&#x2dc;" horiz-adv-x="1153" 
d="M575 1245q-27 0 -51 -25.5t-35 -74.5h-219q28 169 106 272t177 103q42 0 85.5 -17t73.5 -37.5t63.5 -37.5t58.5 -17q28 0 52.5 25t35.5 75h217q-26 -169 -105 -271.5t-178 -102.5q-42 0 -85.5 17t-73.5 37t-63.5 37t-58.5 17z" />
    <glyph glyph-name="hungarumlaut" unicode="&#x2dd;" horiz-adv-x="1153" 
d="M655 1171l156 336h379l-297 -336h-238zM209 1171l156 336h378l-294 -336h-240z" />
    <glyph glyph-name="Wgrave" unicode="&#x1e80;" horiz-adv-x="2136" 
d="M1386 1552h-278l-231 336h442zM1141 0l-27 958h-4l-401 -958h-447l-108 1462h436l37 -934h4l383 934h422l8 -934h4l412 934h424l-691 -1462h-452z" />
    <glyph glyph-name="wgrave" unicode="&#x1e81;" horiz-adv-x="1830" 
d="M1147 1171h-279l-211 336h422zM1180 1057l8 -633h4l301 633h412l-572 -1057h-399l-33 610h-4l-289 -610h-399l-111 1057h412l25 -633h4l278 633h363z" />
    <glyph glyph-name="Wacute" unicode="&#x1e82;" horiz-adv-x="2136" 
d="M1116 1552l152 336h467l-344 -336h-275zM1141 0l-27 958h-4l-401 -958h-447l-108 1462h436l37 -934h4l383 934h422l8 -934h4l412 934h424l-691 -1462h-452z" />
    <glyph glyph-name="wacute" unicode="&#x1e83;" horiz-adv-x="1830" 
d="M893 1171l151 336h445l-322 -336h-274zM1180 1057l8 -633h4l301 633h412l-572 -1057h-399l-33 610h-4l-289 -610h-399l-111 1057h412l25 -633h4l278 633h363z" />
    <glyph glyph-name="Wdieresis" unicode="&#x1e84;" horiz-adv-x="2136" 
d="M1294 1552l54 336h356l-53 -336h-357zM827 1552l54 336h356l-53 -336h-357zM1141 0l-27 958h-4l-401 -958h-447l-108 1462h436l37 -934h4l383 934h422l8 -934h4l412 934h424l-691 -1462h-452z" />
    <glyph glyph-name="wdieresis" unicode="&#x1e85;" horiz-adv-x="1830" 
d="M1087 1171l54 336h356l-53 -336h-357zM618 1171l54 336h356l-53 -336h-357zM1180 1057l8 -633h4l301 633h412l-572 -1057h-399l-33 610h-4l-289 -610h-399l-111 1057h412l25 -633h4l278 633h363z" />
    <glyph glyph-name="Ygrave" unicode="&#x1ef2;" horiz-adv-x="1572" 
d="M1073 1552h-278l-232 336h443zM922 0h-435l95 590l-432 872h464l238 -506h6l395 506h471l-708 -872z" />
    <glyph glyph-name="ygrave" unicode="&#x1ef3;" horiz-adv-x="1290" 
d="M897 1171h-279l-210 336h421zM285 20l-187 1037h412l84 -672h4l354 672h412l-604 -1051q-123 -213 -262.5 -300t-356.5 -87q-82 0 -161 23l47 295q59 -13 79 -13q66 0 107 20t72 76z" />
    <glyph glyph-name="endash" unicode="&#x2013;" horiz-adv-x="1386" 
d="M168 451l43 290h1032l-45 -290h-1030z" />
    <glyph glyph-name="emdash" unicode="&#x2014;" horiz-adv-x="2054" 
d="M168 451l45 290h1698l-45 -290h-1698z" />
    <glyph glyph-name="quoteleft" unicode="&#x2018;" horiz-adv-x="745" 
d="M692 1139l-61 -383h-447l64 395q31 193 165 287t345 94l-31 -205q-51 -1 -86.5 -7.5t-70.5 -24t-56.5 -52.5t-30.5 -88l-2 -16h211z" />
    <glyph glyph-name="quoteright" unicode="&#x2019;" horiz-adv-x="745" 
d="M248 1124l61 383h447l-64 -395q-31 -193 -165 -287t-345 -94l31 205q51 1 86.5 7.5t70.5 24t56.5 52.5t30.5 88l2 16h-211z" />
    <glyph glyph-name="quotesinglbase" unicode="&#x201a;" horiz-adv-x="747" 
d="M76 31l61 383h447l-64 -396q-31 -193 -165 -286.5t-345 -93.5l31 204q51 1 86.5 7.5t70.5 24t56.5 52.5t30.5 88l2 17h-211z" />
    <glyph glyph-name="quotedblleft" unicode="&#x201c;" horiz-adv-x="1302" 
d="M692 1139l-61 -383h-447l64 395q31 193 165 287t345 94l-31 -205q-51 -1 -86.5 -7.5t-70.5 -24t-56.5 -52.5t-30.5 -88l-2 -16h211zM1249 1139l-61 -383h-447l64 395q31 193 165 287t345 94l-31 -205q-51 -1 -86.5 -7.5t-70.5 -24t-56.5 -52.5t-30.5 -88l-2 -16h211z" />
    <glyph glyph-name="quotedblright" unicode="&#x201d;" horiz-adv-x="1302" 
d="M248 1124l61 383h447l-64 -395q-31 -193 -165 -287t-345 -94l31 205q51 1 86.5 7.5t70.5 24t56.5 52.5t30.5 88l2 16h-211zM805 1124l61 383h447l-64 -395q-31 -193 -165 -287t-345 -94l31 205q51 1 86.5 7.5t70.5 24t56.5 52.5t30.5 88l2 16h-211z" />
    <glyph glyph-name="quotedblbase" unicode="&#x201e;" horiz-adv-x="1304" 
d="M76 31l61 383h447l-64 -396q-31 -193 -165 -286.5t-345 -93.5l31 204q51 1 86.5 7.5t70.5 24t56.5 52.5t30.5 88l2 17h-211zM633 31l61 383h447l-64 -396q-31 -193 -165 -286.5t-345 -93.5l31 204q51 1 86.5 7.5t70.5 24t56.5 52.5t30.5 88l2 17h-211z" />
    <glyph glyph-name="dagger" unicode="&#x2020;" horiz-adv-x="856" 
d="M877 1061h-250l-66 -404h-221l66 404h-252l34 215h250l35 211h223l-34 -211h247z" />
    <glyph glyph-name="daggerdbl" unicode="&#x2021;" horiz-adv-x="856" 
d="M836 803h-250l-25 -146h-221l22 146h-247l30 205h250l23 131h-250l31 204h252l22 144h223l-22 -144h246l-31 -204h-250l-21 -131h248z" />
    <glyph glyph-name="bullet" unicode="&#x2022;" horiz-adv-x="1142" 
d="M203 643q0 158 115.5 271.5t275.5 113.5q161 0 274 -113t113 -272q0 -160 -113 -274.5t-274 -114.5q-160 0 -275.5 114.5t-115.5 274.5z" />
    <glyph glyph-name="ellipsis" unicode="&#x2026;" horiz-adv-x="1968" 
d="M1294 0l70 444h444l-69 -444h-445zM680 0l70 444h444l-70 -444h-444zM66 0l69 444h445l-70 -444h-444z" />
    <glyph glyph-name="guilsinglleft" unicode="&#x2039;" horiz-adv-x="761" 
d="M604 86h-282l-230 444l363 447h290l-307 -447z" />
    <glyph glyph-name="guilsinglright" unicode="&#x203a;" horiz-adv-x="761" 
d="M164 977h282l230 -445l-363 -446h-290l307 446z" />
    <glyph glyph-name="fraction" unicode="&#x2044;" horiz-adv-x="376" 
d="M-309 -25h-234l1297 1514h233z" />
    <glyph glyph-name="uni2070" unicode="&#x2070;" horiz-adv-x="915" 
d="M500 645q-159 0 -253.5 97.5t-94.5 252.5q0 73 17.5 142.5t54 131.5t88 108.5t123 74t155.5 27.5q159 0 252.5 -97.5t93.5 -253.5q0 -92 -28.5 -177.5t-82 -154.5t-138 -110t-187.5 -41zM575 1288q-59 0 -93 -53t-54 -156q-12 -56 -12 -106q0 -68 25.5 -103.5t70.5 -35.5
q57 0 92 53.5t55 156.5q11 65 11 107q0 137 -95 137z" />
    <glyph glyph-name="uni2074" unicode="&#x2074;" horiz-adv-x="894" 
d="M840 1462l-76 -479h147l-28 -174h-150l-22 -147h-236l23 147h-396l29 174l444 479h265zM565 1233l-223 -250h184z" />
    <glyph glyph-name="uni2075" unicode="&#x2075;" horiz-adv-x="821" 
d="M489 1026q-57 0 -86 -37h-237l121 473h569l-33 -198h-381l-24 -95q62 35 155 35q110 0 178 -61t68 -164q0 -142 -104 -238t-275 -96q-160 0 -240.5 74t-80.5 196h264q0 -38 19.5 -59.5t56.5 -21.5q45 0 73.5 32t28.5 84q0 35 -18 55.5t-54 20.5z" />
    <glyph glyph-name="uni2076" unicode="&#x2076;" horiz-adv-x="829" 
d="M563 1286q-52 0 -94.5 -39.5t-54.5 -97.5q65 43 168 43q60 0 116 -24.5t97 -79.5t41 -130q0 -128 -105 -220.5t-262 -92.5q-143 0 -232.5 87t-89.5 235q0 128 53.5 244t156 192t229.5 76q120 0 202.5 -66.5t85.5 -179.5h-233q-8 53 -78 53zM481 825q47 0 79 33.5t32 79.5
q0 41 -27.5 62.5t-62.5 21.5q-49 0 -80 -33.5t-31 -81.5q0 -40 27 -61t63 -21z" />
    <glyph glyph-name="uni2077" unicode="&#x2077;" horiz-adv-x="761" 
d="M569 1266h-387l31 196h639l-35 -211q-153 -157 -218 -283t-95 -306h-271q30 170 114.5 313.5t221.5 290.5z" />
    <glyph glyph-name="uni2078" unicode="&#x2078;" horiz-adv-x="833" 
d="M463 645q-152 0 -245 59.5t-93 163.5q0 75 57.5 134.5t128.5 72.5q-94 48 -94 142q0 117 94 189.5t244 72.5q132 0 217.5 -56.5t85.5 -156.5q0 -68 -42 -123t-109 -82q52 -12 88 -56.5t36 -103.5q0 -115 -103.5 -185.5t-264.5 -70.5zM530 1153q45 0 73 23t28 63
q0 34 -25 50t-63 16q-45 0 -73 -23t-28 -65q0 -64 88 -64zM485 983q-56 0 -83 -26t-27 -64q0 -70 106 -70q55 0 83 26t28 66q0 31 -27.5 49.5t-79.5 18.5z" />
    <glyph glyph-name="uni2079" unicode="&#x2079;" horiz-adv-x="829" 
d="M438 836q52 0 95 40.5t55 98.5q-68 -45 -164 -45q-98 0 -177 61.5t-79 171.5q0 131 104 223.5t260 92.5q144 0 234 -87t90 -235q0 -129 -53 -245t-155.5 -191.5t-231.5 -75.5q-121 0 -203.5 66t-85.5 180h233q9 -55 78 -55zM520 1296q-47 0 -77.5 -32.5t-30.5 -79.5
q0 -40 27 -61t63 -21q48 0 79 33t31 79q0 41 -27 61.5t-65 20.5z" />
    <glyph glyph-name="uni2080" unicode="&#x2080;" horiz-adv-x="915" 
d="M350 -301q-159 0 -253.5 97.5t-94.5 252.5q0 92 28.5 177t82 154t138.5 110.5t189 41.5q159 0 252.5 -97t93.5 -253q0 -92 -28.5 -177.5t-82 -154.5t-138 -110t-187.5 -41zM426 342q-59 0 -93 -53t-54 -156q-13 -61 -13 -106q0 -68 25.5 -104t70.5 -36q107 0 148 211
q10 59 10 107q0 137 -94 137z" />
    <glyph glyph-name="uni2081" unicode="&#x2081;" horiz-adv-x="751" 
d="M580 -119l-27 -168h-602l26 168h185l57 357h-186l24 159q128 0 177 25t75 92h197l-100 -633h174z" />
    <glyph glyph-name="uni2082" unicode="&#x2082;" horiz-adv-x="800" 
d="M696 299q0 -109 -68.5 -175.5t-215.5 -129.5q-86 -37 -111 -50.5t-35 -31.5h371l-33 -199h-665l14 86q9 54 33 102t52 80.5t72 65.5t76 52t80 44q131 66 151 80q28 27 29 60q0 53 -61 53q-38 0 -66 -27t-34 -69h-258q29 129 128 209.5t251 80.5q129 0 209.5 -61
t80.5 -170z" />
    <glyph glyph-name="uni2083" unicode="&#x2083;" horiz-adv-x="796" 
d="M645 -45q0 -101 -90.5 -178.5t-255.5 -77.5q-162 0 -250 75.5t-88 188.5h250q0 -74 104 -74q40 0 65.5 21t25.5 51q0 62 -93 62h-73l28 180h72q51 0 76.5 21.5t25.5 56.5q0 25 -18.5 42t-48.5 17q-38 0 -64 -19t-32 -53h-244q28 114 120.5 187t239.5 73q138 0 213.5 -63
t75.5 -158q0 -70 -48 -124.5t-124 -69.5q62 -14 97.5 -55t35.5 -103z" />
    <glyph glyph-name="uni2084" unicode="&#x2084;" horiz-adv-x="894" 
d="M690 514l-76 -479h148l-29 -174h-149l-23 -148h-235l22 148h-395l29 174l444 479h264zM416 285l-223 -250h184z" />
    <glyph glyph-name="uni2085" unicode="&#x2085;" horiz-adv-x="821" 
d="M340 80q-57 0 -86 -37h-238l121 473h570l-33 -199h-381l-25 -94q62 35 156 35q110 0 178 -61t68 -164q0 -142 -104 -238t-275 -96q-160 0 -241 74t-81 196h264q0 -38 19.5 -60t56.5 -22q45 0 74 32.5t29 84.5q0 35 -18 55.5t-54 20.5z" />
    <glyph glyph-name="uni2086" unicode="&#x2086;" horiz-adv-x="829" 
d="M414 340q-52 0 -95 -39.5t-55 -97.5q65 43 168 43q60 0 116 -24.5t97 -79.5t41 -130q0 -128 -105 -220.5t-262 -92.5q-143 0 -232 86.5t-89 234.5q0 95 32 186.5t87.5 164t139 117t179.5 44.5q120 0 203 -66t86 -179h-233q-8 53 -78 53zM332 -121q47 0 78.5 33.5
t31.5 79.5q0 41 -27.5 62.5t-62.5 21.5q-49 0 -79.5 -33.5t-30.5 -81.5q0 -40 27 -61t63 -21z" />
    <glyph glyph-name="uni2087" unicode="&#x2087;" horiz-adv-x="761" 
d="M420 317h-387l30 197h639l-34 -211q-153 -158 -218.5 -284t-95.5 -306h-270q30 170 114.5 313.5t221.5 290.5z" />
    <glyph glyph-name="uni2088" unicode="&#x2088;" horiz-adv-x="833" 
d="M313 -301q-152 0 -245 59.5t-93 163.5q0 75 58 134.5t129 72.5q-94 48 -94 141q0 117 94 189.5t244 72.5q132 0 217.5 -56.5t85.5 -156.5q0 -67 -42 -122t-110 -82q53 -12 89 -57t36 -103q0 -115 -104 -185.5t-265 -70.5zM381 207q45 0 72.5 23t27.5 63q0 34 -25 49.5
t-63 15.5q-45 0 -72.5 -23t-27.5 -65q0 -63 88 -63zM336 37q-56 0 -83.5 -26t-27.5 -64q0 -70 107 -70q55 0 82.5 26t27.5 66q0 31 -27.5 49.5t-78.5 18.5z" />
    <glyph glyph-name="uni2089" unicode="&#x2089;" horiz-adv-x="829" 
d="M289 -111q52 0 94.5 41t54.5 99q-68 -45 -164 -45q-98 0 -177 61.5t-79 171.5q0 131 104.5 223t260.5 92q144 0 234 -86.5t90 -234.5q0 -96 -32 -187.5t-87.5 -164t-140 -116.5t-181.5 -44q-121 0 -203.5 66t-85.5 180h234q9 -56 78 -56zM371 350q-47 0 -78 -33t-31 -79
q0 -40 27 -61t63 -21q48 0 79.5 33t31.5 79q0 41 -27 61.5t-65 20.5z" />
    <glyph glyph-name="Euro" unicode="&#x20ac;" horiz-adv-x="1505" 
d="M1450 516q-78 -250 -249 -395.5t-423 -145.5q-238 0 -380.5 133t-170.5 363h-166l35 217h129q6 50 15 96h-127l32 215h156q93 224 274.5 356t415.5 132q254 0 382.5 -145t133.5 -396h-387q0 104 -39 159.5t-129 55.5q-144 0 -241 -162h286l-55 -215h-307q-12 -62 -14 -96
h297l-58 -217h-231q22 -83 73 -126.5t127 -43.5q167 0 234 215h387z" />
    <glyph glyph-name="trademark" unicode="&#x2122;" horiz-adv-x="1947" 
d="M584 768h-230l78 494h-225l35 200h682l-33 -200h-229zM1417 768h-157l-48 463h-6l-71 -463h-215l112 694h340l23 -411h6l174 411h307l-113 -694h-225l72 463h-4z" />
    <glyph glyph-name="uni2153" unicode="&#x2153;" horiz-adv-x="1867" 
d="M432 -25h-233l1296 1514h234zM729 827l-27 -168h-602l27 168h184l58 357h-187l25 159q128 0 177 25t75 92h196l-100 -633h174zM1761 242q0 -101 -90.5 -178.5t-255.5 -77.5q-162 0 -250 75.5t-88 188.5h250q0 -74 105 -74q40 0 65 21t25 51q0 61 -92 61h-74l28 180h72
q51 0 77 21.5t26 56.5q0 25 -19 42.5t-49 17.5q-38 0 -64 -19t-32 -53h-244q28 114 120.5 187t239.5 73q138 0 213.5 -63t75.5 -158q0 -70 -48 -125t-124 -70q63 -14 98 -54.5t35 -102.5z" />
    <glyph glyph-name="uni2154" unicode="&#x2154;" horiz-adv-x="1927" 
d="M492 -25h-234l1296 1514h234zM846 1245q0 -109 -69 -175.5t-216 -129.5q-85 -36 -110 -50t-35 -32h370l-32 -199h-666l14 86q9 54 33.5 102t52.5 81t72 66t76 52t80 44q131 65 149 79q29 28 31 60q0 53 -61 53q-38 0 -66.5 -27.5t-34.5 -68.5h-258q29 129 128 210t251 81
q129 0 210 -61.5t81 -170.5zM1821 242q0 -101 -90.5 -178.5t-255.5 -77.5q-162 0 -250 75.5t-88 188.5h249q0 -74 105 -74q40 0 65 21t25 51q0 61 -92 61h-74l29 180h72q51 0 76.5 21.5t25.5 56.5q0 25 -19 42.5t-49 17.5q-38 0 -64 -19t-32 -53h-244q28 114 121 187t240 73
q138 0 213.5 -63t75.5 -158q0 -70 -48 -125t-124 -70q63 -14 98 -54.5t35 -102.5z" />
    <glyph glyph-name="uni215B" unicode="&#x215b;" horiz-adv-x="1902" 
d="M432 -25h-233l1296 1514h234zM729 827l-27 -168h-602l27 168h184l58 357h-187l25 159q128 0 177 25t75 92h196l-100 -633h174zM1430 -14q-152 0 -245 59.5t-93 163.5q0 75 57.5 134.5t128.5 72.5q-94 48 -94 141q0 117 94 189.5t244 72.5q132 0 217.5 -56.5t85.5 -156.5
q0 -68 -42 -123t-110 -82q53 -12 89 -56.5t36 -102.5q0 -115 -103.5 -185.5t-264.5 -70.5zM1497 494q45 0 72.5 23t27.5 63q0 34 -25 49.5t-63 15.5q-45 0 -72.5 -23t-27.5 -65q0 -63 88 -63zM1452 324q-56 0 -83.5 -26.5t-27.5 -64.5q0 -69 107 -69q55 0 83 26t28 66
q0 31 -27.5 49.5t-79.5 18.5z" />
    <glyph glyph-name="uni215C" unicode="&#x215c;" horiz-adv-x="1921" 
d="M451 -25h-234l1296 1514h234zM795 901q0 -101 -90.5 -178.5t-255.5 -77.5q-162 0 -250 75.5t-88 188.5h249q0 -73 105 -73q40 0 65 20.5t25 50.5q0 62 -92 62h-74l29 180h71q51 0 77 21.5t26 56.5q0 25 -19 42t-49 17q-38 0 -64 -19t-32 -53h-244q28 114 121 187.5
t240 73.5q138 0 213.5 -63.5t75.5 -158.5q0 -70 -48 -124.5t-124 -69.5q62 -14 97.5 -55t35.5 -103zM1448 -14q-152 0 -245 59.5t-93 163.5q0 75 57.5 134.5t128.5 72.5q-94 48 -94 141q0 117 94 189.5t244 72.5q132 0 217.5 -56.5t85.5 -156.5q0 -68 -42 -123t-109 -82
q53 -12 89 -56.5t36 -102.5q0 -115 -104 -185.5t-265 -70.5zM1516 494q45 0 72.5 23t27.5 63q0 34 -25 49.5t-63 15.5q-45 0 -73 -23t-28 -65q0 -63 89 -63zM1470 324q-56 0 -83 -26.5t-27 -64.5q0 -69 106 -69q55 0 83 26t28 66q0 31 -27.5 49.5t-79.5 18.5z" />
    <glyph glyph-name="uni215D" unicode="&#x215d;" horiz-adv-x="1912" 
d="M442 -25h-233l1296 1514h234zM489 1026q-57 0 -86 -37h-237l121 473h569l-33 -198h-381l-24 -95q62 35 155 35q110 0 178 -61t68 -164q0 -142 -104 -238t-275 -96q-160 0 -240.5 74t-80.5 196h264q0 -38 19.5 -59.5t56.5 -21.5q45 0 73.5 32t28.5 84q0 35 -18 55.5
t-54 20.5zM1440 -14q-152 0 -245 59.5t-93 163.5q0 75 57.5 134.5t128.5 72.5q-94 48 -94 141q0 117 94 189.5t244 72.5q132 0 217.5 -56.5t85.5 -156.5q0 -68 -42 -123t-110 -82q53 -12 89 -56.5t36 -102.5q0 -115 -103.5 -185.5t-264.5 -70.5zM1507 494q45 0 73 23t28 63
q0 34 -25 49.5t-63 15.5q-45 0 -73 -23t-28 -65q0 -63 88 -63zM1462 324q-56 0 -83 -26.5t-27 -64.5q0 -69 106 -69q55 0 83 26t28 66q0 31 -27.5 49.5t-79.5 18.5z" />
    <glyph glyph-name="uni215E" unicode="&#x215e;" horiz-adv-x="1779" 
d="M309 -25h-233l1296 1514h234zM569 1266h-387l31 196h639l-35 -211q-153 -157 -218 -283t-95 -306h-271q30 170 114.5 313.5t221.5 290.5zM1307 -14q-152 0 -245 59.5t-93 163.5q0 75 57.5 134.5t128.5 72.5q-94 48 -94 141q0 117 94 189.5t244 72.5q132 0 217.5 -56.5
t85.5 -156.5q0 -68 -42 -123t-110 -82q53 -12 89 -56.5t36 -102.5q0 -115 -103.5 -185.5t-264.5 -70.5zM1374 494q45 0 73 23t28 63q0 34 -25.5 49.5t-63.5 15.5q-45 0 -72.5 -23t-27.5 -65q0 -63 88 -63zM1329 324q-56 0 -83 -26.5t-27 -64.5q0 -69 106 -69q55 0 83 26
t28 66q0 31 -27.5 49.5t-79.5 18.5z" />
    <glyph glyph-name="minus" unicode="&#x2212;" 
d="M123 537l47 286h1110l-47 -286h-1110z" />
    <glyph glyph-name="i.dot" horiz-adv-x="663" 
d="M223 1171l53 336h424l-53 -336h-424zM209 1057h418l-168 -1057h-418z" />
    <glyph glyph-name="a.ord" horiz-adv-x="878" 
d="M549 647q2 21 6 50t6 42q-74 -110 -231 -110q-103 0 -162 50.5t-59 133.5q0 113 82 172.5t221 69.5l184 12q4 31 4 39q0 53 -59 53q-69 0 -82 -63h-281q31 128 131 198t260 70q153 0 234.5 -64t81.5 -186q0 -30 -6 -67l-27 -168q-27 -156 -33 -232h-270zM569 907l4 21
l-88 -13q-86 -9 -86 -65q0 -20 15 -32.5t41 -12.5q42 0 74.5 27t39.5 75z" />
    <glyph glyph-name="b.ord" horiz-adv-x="970" 
d="M422 737l-12 -90h-291l157 991h293l-61 -387q76 113 203 113q125 0 193.5 -85t68.5 -222q0 -115 -42.5 -211.5t-124.5 -156.5t-188 -60q-65 0 -120 29.5t-76 78.5zM590 1157q-50 0 -82.5 -36.5t-42.5 -106.5q-6 -41 -6 -70q0 -52 22.5 -81t59.5 -29q63 0 100 56t37 154
q0 113 -88 113z" />
    <glyph glyph-name="c.ord" horiz-adv-x="847" 
d="M129 946q0 130 60.5 227t158 145t217.5 48q161 0 245.5 -81.5t78.5 -211.5h-279q5 34 -11.5 60t-53.5 26q-55 0 -90 -64.5t-35 -154.5q0 -48 20 -75t56 -27q35 0 58 25.5t32 58.5h278q-35 -131 -137 -211t-256 -80q-147 0 -244.5 85t-97.5 230z" />
    <glyph glyph-name="d.ord" horiz-adv-x="950" 
d="M676 1251l61 387h293l-158 -991h-288l12 90q-75 -108 -205 -108q-124 0 -193 81.5t-69 211.5q0 118 41 217.5t123 162t190 62.5q65 0 119 -31t74 -82zM512 834q48 0 81.5 38t43.5 107q6 39 6 68q0 53 -22 81.5t-60 28.5q-63 0 -101 -60.5t-38 -156.5q0 -48 24 -77t66 -29
z" />
    <glyph glyph-name="e.ord" horiz-adv-x="868" 
d="M870 889q-40 -119 -138 -188.5t-245 -69.5q-161 0 -259.5 85.5t-98.5 229.5q0 187 120 303.5t316 116.5q160 0 246 -83.5t86 -213.5q0 -54 -14 -117h-475v-6q3 -112 96 -112q72 0 96 55h270zM553 1165q-90 0 -129 -100h211v14q0 35 -21.5 60.5t-60.5 25.5z" />
    <glyph glyph-name="f.ord" horiz-adv-x="573" 
d="M217 1143h-86l33 203h88l6 38q42 265 317 265q71 0 144 -13l-33 -215q-9 1 -29 6t-34 5q-37 0 -54.5 -16t-23.5 -50l-2 -20h127l-33 -203h-127l-78 -496h-293z" />
    <glyph glyph-name="g.ord" horiz-adv-x="950" 
d="M588 696l16 97q-74 -115 -209 -115q-123 0 -191.5 82t-68.5 215q0 97 39 185t116.5 146t176.5 58q75 0 134.5 -31.5t76.5 -83.5l14 97h293l-94 -601q-30 -178 -145 -267t-304 -89q-166 0 -261 67.5t-103 174.5h289q16 -51 92 -51q50 0 85.5 27.5t43.5 88.5zM641 1004
q6 52 6 55q0 50 -23 76t-65 26q-61 0 -97 -46.5t-36 -127.5q0 -108 90 -108q49 0 82.5 32t42.5 93z" />
    <glyph glyph-name="h.ord" horiz-adv-x="952" 
d="M569 1640l-61 -389q36 49 93 81t124 32q106 0 167.5 -60.5t61.5 -162.5q0 -38 -4 -58l-69 -436h-293l59 377q4 24 4 35q0 80 -76 80q-85 0 -104 -125l-59 -367h-293l157 993h293z" />
    <glyph glyph-name="i.ord" horiz-adv-x="489" 
d="M238 1413l38 232h293l-34 -232h-297zM229 1346h293l-110 -699h-293z" />
    <glyph glyph-name="j.ord" horiz-adv-x="489" 
d="M238 1413l38 232h293l-34 -232h-297zM80 395q-48 0 -119 11l35 204q32 -4 49 -4q36 0 54 15.5t24 50.5l106 674h293l-108 -693q-21 -127 -107.5 -192.5t-226.5 -65.5z" />
    <glyph glyph-name="k.ord" horiz-adv-x="946" 
d="M635 647l-117 238l-80 -70l-26 -168h-293l157 993h293l-84 -528l244 234h324l-316 -281l213 -418h-315z" />
    <glyph glyph-name="l.ord" horiz-adv-x="489" 
d="M412 647h-293l157 993h293z" />
    <glyph glyph-name="m.ord" horiz-adv-x="1400" 
d="M725 1364q151 0 209 -111q107 111 246 111q104 0 164.5 -62.5t60.5 -162.5q0 -16 -4 -52l-72 -440h-295l62 379q2 12 2 33q0 40 -19.5 60t-52.5 20q-77 0 -96 -119l-60 -373h-295l62 379q2 12 2 33q0 40 -19.5 60t-52.5 20q-77 0 -96 -119l-59 -373h-293l110 699h291
l-16 -95q34 48 95 80.5t126 32.5z" />
    <glyph glyph-name="n.ord" horiz-adv-x="952" 
d="M520 1346l-16 -95q36 49 95 81t126 32q106 0 167.5 -60.5t61.5 -162.5q0 -38 -4 -58l-69 -436h-293l59 377q4 24 4 35q0 80 -76 80q-85 0 -104 -125l-59 -367h-293l110 699h291z" />
    <glyph glyph-name="o.ord" horiz-adv-x="903" 
d="M489 631q-161 0 -259.5 85.5t-98.5 229.5q0 187 120 303.5t316 116.5q161 0 260 -86t99 -231q0 -186 -120.5 -302t-316.5 -116zM549 1159q-42 0 -71 -34t-41.5 -82.5t-12.5 -106.5q0 -100 84 -100q43 0 72 34.5t41 83.5t12 107q0 98 -84 98z" />
    <glyph glyph-name="p.ord" horiz-adv-x="952" 
d="M428 737l-53 -331h-295l149 940h291l-14 -95q75 111 205 111q125 0 193.5 -85t68.5 -222q0 -114 -42 -210t-124.5 -156t-188.5 -60q-66 0 -119 29t-71 79zM590 1155q-50 0 -82.5 -36t-42.5 -105q-6 -41 -6 -70q0 -53 22 -81.5t60 -28.5q63 0 100 56t37 154q0 111 -88 111
z" />
    <glyph glyph-name="q.ord" horiz-adv-x="952" 
d="M676 1251l16 95h291l-147 -940h-295l53 333q-74 -110 -203 -110q-124 0 -193 81.5t-69 211.5q0 117 41 216t123 161.5t190 62.5q66 0 120.5 -30.5t72.5 -80.5zM512 834q48 0 81.5 37.5t43.5 105.5q6 41 6 70q0 53 -22 80.5t-60 27.5q-63 0 -101 -59.5t-38 -155.5
q0 -50 23.5 -78t66.5 -28z" />
    <glyph glyph-name="r.ord" horiz-adv-x="696" 
d="M768 1348l-41 -269q-58 4 -80 4q-77 0 -127.5 -38.5t-62.5 -112.5l-45 -285h-293l110 699h291l-22 -140q78 150 225 150q37 0 45 -8z" />
    <glyph glyph-name="s.ord" horiz-adv-x="821" 
d="M102 868h269q3 -28 30 -43.5t60 -15.5q76 0 76 43q0 17 -14.5 22.5t-61.5 12.5l-119 22q-85 16 -134.5 61.5t-49.5 119.5q0 122 100.5 199t257.5 77q164 0 246 -66t82 -174h-256q-2 27 -25.5 44.5t-60.5 17.5q-31 0 -48.5 -11.5t-17.5 -31.5q0 -14 16.5 -22.5t53.5 -14.5
l127 -23q178 -37 178 -184q0 -131 -99 -200.5t-255 -69.5q-164 0 -259.5 61t-95.5 176z" />
    <glyph glyph-name="t.ord" horiz-adv-x="614" 
d="M600 864l-33 -207q-84 -22 -174 -22q-111 0 -167 40t-56 128q0 35 4 55l45 285h-86l35 203h88l29 167h280l-26 -167h135l-35 -203h-135l-39 -221q-2 -8 -2 -21q0 -24 14.5 -32.5t46.5 -8.5q45 0 76 4z" />
    <glyph glyph-name="u.ord" horiz-adv-x="942" 
d="M573 647l17 94q-36 -49 -93.5 -80.5t-125.5 -31.5q-104 0 -161.5 60t-57.5 163q0 41 4 61l67 433h295l-59 -381q-4 -28 -4 -39q0 -72 67 -72q37 0 64 29.5t37 93.5l57 369h295l-111 -699h-291z" />
    <glyph glyph-name="v.ord" horiz-adv-x="921" 
d="M303 647l-139 699h287l57 -412h2l215 412h293l-412 -699h-303z" />
    <glyph glyph-name="w.ord" horiz-adv-x="1284" 
d="M897 1346l16 -402h5l174 402h288l-352 -699h-280l-33 387h-2l-170 -387h-279l-100 699h291l26 -402h4l160 402h252z" />
    <glyph glyph-name="x.ord" horiz-adv-x="937" 
d="M373 647h-320l336 359l-194 340h323l72 -138l119 138h321l-309 -330l205 -369h-324l-84 160z" />
    <glyph glyph-name="y.ord" horiz-adv-x="921" 
d="M285 659l-121 687h291l49 -433h2l223 433h289l-397 -695q-80 -138 -180 -197t-242 -59q-59 0 -113 15l35 206q19 -8 53 -8q42 0 67.5 10.5t43.5 40.5z" />
    <glyph glyph-name="z.ord" horiz-adv-x="804" 
d="M823 1151l-336 -295h306l-33 -209h-664l29 189l336 301h-285l33 209h645z" />
    <glyph glyph-name="caron.Slovak" horiz-adv-x="1153" 
d="M678 1106h-197l103 401h407z" />
    <glyph glyph-name="commaturn" horiz-adv-x="1153" 
d="M897 1382l-33 -211h-360l18 125q25 164 123 230.5t283 66.5l-21 -129q-63 0 -95 -19t-38 -63h123z" />
    <glyph glyph-name="uni00200326" horiz-adv-x="1153" 
d="M268 -295l33 211h361l-19 -125q-25 -164 -122.5 -230.5t-282.5 -66.5l20 129q63 0 95 19t38 63h-123z" />
    <glyph glyph-name="guilsinglleft.cap" horiz-adv-x="761" 
d="M631 250h-283l-229 444l362 447h291l-307 -447z" />
    <glyph glyph-name="guilsinglright.cap" horiz-adv-x="761" 
d="M188 1141h283l229 -445l-362 -446h-291l307 446z" />
    <glyph glyph-name="guillemotleft.cap" horiz-adv-x="1241" 
d="M1110 250h-268l-234 444l363 447h280l-297 -447zM618 250h-266l-233 444l362 447h281l-297 -447z" />
    <glyph glyph-name="guillemotright.cap" horiz-adv-x="1241" 
d="M188 1141h269l233 -445l-362 -446h-281l297 446zM680 1141h266l234 -445l-363 -446h-280l297 446z" />
    <glyph glyph-name="slash.cap" horiz-adv-x="1198" 
d="M-39 -154l942 1729h395l-942 -1729h-395z" />
    <glyph glyph-name="backslash.cap" horiz-adv-x="1173" 
d="M236 1575h372l393 -1729h-370z" />
    <glyph glyph-name="bar.cap" horiz-adv-x="757" 
d="M369 1575h356l-274 -1729h-357z" />
    <glyph glyph-name="periodcentered.cap" horiz-adv-x="798" 
d="M176 506l70 444h444l-69 -444h-445z" />
    <glyph glyph-name="bullet.cap" horiz-adv-x="1144" 
d="M223 766q0 158 115.5 271.5t275.5 113.5q161 0 274 -113t113 -272q0 -160 -113 -274.5t-274 -114.5q-160 0 -275.5 114.5t-115.5 274.5z" />
    <glyph glyph-name="hyphen.cap" horiz-adv-x="942" 
d="M184 553l56 336h583l-53 -336h-586z" />
    <glyph glyph-name="endash.cap" horiz-adv-x="1388" 
d="M190 573l43 291h1033l-45 -291h-1031z" />
    <glyph glyph-name="emdash.cap" horiz-adv-x="2056" 
d="M190 573l43 291h1700l-45 -291h-1698z" />
    <glyph glyph-name="parenleft.cap" horiz-adv-x="976" 
d="M1079 1575q-479 -537 -479 -1043q0 -354 207 -686h-383q-225 314 -225 701q0 554 493 1028h387z" />
    <glyph glyph-name="parenright.cap" horiz-adv-x="978" 
d="M-39 -154q479 537 479 1043q0 354 -207 686h383q226 -315 226 -701q0 -553 -494 -1028h-387z" />
    <glyph glyph-name="bracketleft.cap" horiz-adv-x="899" 
d="M702 1296l-186 -1171h234l-43 -279h-635l274 1729h633l-45 -279h-232z" />
    <glyph glyph-name="bracketright.cap" horiz-adv-x="901" 
d="M260 125l186 1171h-233l43 279h635l-275 -1729h-632l45 279h231z" />
    <glyph glyph-name="braceleft.cap" horiz-adv-x="925" 
d="M76 569l45 283h69q54 0 93 34.5t47 88.5l53 330q21 128 116 199t255 71h252l-45 -275h-121q-45 0 -69.5 -19t-31.5 -62l-47 -301q-15 -91 -88.5 -146t-175.5 -61q90 -6 145.5 -52t55.5 -122q0 -24 -27 -178.5t-27 -176.5q0 -33 19 -47t59 -14h121l-43 -275h-252
q-142 0 -215.5 57t-73.5 160q0 29 29 211t29 197q0 44 -28 71t-75 27h-69z" />
    <glyph glyph-name="braceright.cap" horiz-adv-x="925" 
d="M911 852l-45 -283h-69q-54 0 -93 -34.5t-47 -88.5l-53 -329q-21 -128 -116 -199.5t-255 -71.5h-251l45 275h120q45 0 69.5 19t31.5 63l47 301q15 91 88.5 146t175.5 61q-90 6 -145.5 52t-55.5 122q0 24 27 178t27 176q0 33 -19 47t-59 14h-121l43 275h252
q142 0 215.5 -57t73.5 -160q0 -29 -29 -211t-29 -197q0 -44 28 -71t75 -27h69z" />
    <glyph glyph-name="at.cap" horiz-adv-x="1875" 
d="M1509 1151l-159 -592q-9 -27 -9 -45q0 -55 64 -55q117 0 191.5 128t74.5 337q0 224 -156.5 349.5t-414.5 125.5q-226 0 -410.5 -104t-291.5 -291.5t-107 -421.5q0 -129 41 -230.5t107 -164t157 -104t183 -57.5t194 -16q246 0 479 94l59 -159q-105 -53 -251.5 -87
t-303.5 -34q-139 0 -266.5 28.5t-239 89.5t-193.5 149t-129.5 215t-47.5 280q0 200 79 383.5t215.5 319.5t331 217t412.5 81q168 0 309 -50.5t238 -138.5t151 -210.5t54 -263.5q0 -124 -31 -230.5t-84.5 -184t-125.5 -132.5t-155 -82t-171 -27q-85 0 -153.5 31.5
t-107.5 91.5q-43 -55 -116 -85t-146 -30q-143 0 -221 92t-78 240q0 79 21 158.5t63.5 152t101.5 128.5t141 89t175 33q67 0 121.5 -27.5t73.5 -70.5l24 80h307zM1071 678q23 89 23 117q0 48 -25.5 78t-67.5 30q-61 0 -106.5 -42.5t-65.5 -98.5t-20 -113q0 -55 26 -84.5
t76 -29.5q51 0 96 36t64 107z" />
    <glyph glyph-name="uni0192.lt" 
d="M1020 514h-244l-244 -737h-401l248 737h-143l49 315h200l95 279q50 149 137.5 245.5t192 137.5t231.5 41q103 0 166 -25l-60 -372q-52 16 -106 16q-80 0 -129.5 -37t-81.5 -133l-49 -152h188z" />
    <glyph glyph-name="Euro.lt" 
d="M1325 516q-74 -251 -235 -396t-402 -145q-225 0 -348.5 131.5t-146.5 364.5h-162l35 217h124q3 42 13 96h-121l33 215h141q82 225 247.5 356.5t389.5 131.5q242 0 362 -144.5t125 -396.5h-370q0 105 -34.5 160t-117.5 55q-138 0 -219 -162h272l-57 -215h-279
q-6 -31 -10 -96h264l-57 -217h-203q28 -170 168 -170q161 0 219 215h369z" />
    <glyph glyph-name="dollar.lt" 
d="M1311 508q0 -154 -82 -273.5t-220 -184.5t-311 -73l-34 -202h-197l37 213q-226 30 -353 149.5t-131 317.5h388q6 -133 147 -170l49 288l-117 21q-139 25 -236 124t-97 249q0 153 81 269.5t217 178.5t308 68l33 192h196l-35 -205q205 -34 312 -153.5t112 -298.5h-362
q-3 102 -115 143l-47 -268l127 -25q160 -31 245 -129t85 -231zM535 1042q0 -46 30 -71t101 -43l43 252q-77 -9 -125.5 -46t-48.5 -92zM938 430q0 43 -32 67.5t-111 41.5l-45 -263q188 23 188 154z" />
    <glyph glyph-name="cent.lt" 
d="M1219 424q-47 -182 -180 -299.5t-334 -138.5l-37 -203h-195l37 209q-175 34 -282 163t-107 312q0 129 45.5 244t124 199.5t187 138t231.5 65.5l36 213h197l-39 -221q176 -32 265 -144.5t89 -287.5h-319q0 47 -21 88t-65 61l-96 -544q92 35 129 145h334zM479 475
q0 -128 84 -182l92 522q-49 -19 -84.5 -55.5t-54.5 -83.5t-28 -96.5t-9 -104.5z" />
    <glyph glyph-name="sterling.lt" 
d="M1257 328l-51 -328h-1224l51 328h35q65 0 115.5 53.5t64.5 153.5h-176l45 278h116q-8 82 -8 129q0 152 80 276.5t222 196.5t317 72q127 0 227 -35.5t163.5 -99.5t96.5 -149t33 -187q0 -33 -2 -49h-404q3 24 3 45q0 72 -35 114.5t-109 42.5q-82 0 -132 -59t-50 -152
q0 -26 18 -145h265l-46 -278h-241q-38 -116 -139 -207h765z" />
    <glyph glyph-name="yen.lt" 
d="M1182 352h-326l-55 -352h-410l55 352h-325l35 215h325l15 97h-324l35 215h205l-240 583h438l160 -461h2l283 461h424l-422 -583h211l-35 -215h-328l-14 -97h326z" />
    <glyph glyph-name="zero.lt" 
d="M631 -25q-166 0 -291.5 80t-191.5 222.5t-66 326.5q0 134 30 262.5t90.5 241t144 197.5t198.5 134.5t246 49.5q249 0 397.5 -174.5t150.5 -454.5q-1 -134 -31 -262.5t-90.5 -241t-143.5 -197.5t-197.5 -134.5t-245.5 -49.5zM645 291q95 0 159.5 108t94.5 303
q15 106 19 213q-3 256 -142 256q-96 0 -161 -107t-93 -302q-18 -129 -18 -213q0 -258 141 -258z" />
    <glyph glyph-name="one.lt" 
d="M1251 326l-51 -326h-1149l51 326h385l103 639h-352l45 282q130 0 216 11.5t142 39t86.5 64.5t54.5 98h318l-180 -1134h331z" />
    <glyph glyph-name="two.lt" 
d="M1337 1075q0 -84 -26 -155t-68.5 -125.5t-112.5 -106t-143 -90.5t-174 -84q-149 -66 -205.5 -104t-75.5 -82h689l-52 -328h-1175l22 145q63 389 568 635q220 107 281 153t61 118q0 56 -34.5 86t-100.5 30q-81 0 -139.5 -57t-76.5 -145h-417q24 111 79.5 205.5t138 165.5
t198 111t251.5 40q227 0 369.5 -111t142.5 -301z" />
    <glyph glyph-name="three.lt" 
d="M1249 438q0 -84 -38.5 -164.5t-112 -148t-195.5 -109t-274 -41.5q-282 0 -438 134t-156 344h409q0 -164 213 -164q90 0 144.5 45.5t54.5 111.5q0 132 -186 132h-138l48 296h135q98 0 153.5 46t55.5 122q0 57 -39.5 93t-108.5 36q-81 0 -136.5 -43.5t-72.5 -119.5h-395
q23 98 75 182.5t130 152t190 106t244 38.5q124 0 222.5 -31.5t160 -86.5t93.5 -126t32 -153q0 -130 -89 -230.5t-226 -128.5q114 -23 179.5 -101t65.5 -192z" />
    <glyph glyph-name="four.lt" 
d="M1264 1462l-134 -835h213l-49 -322h-211l-49 -305h-411l49 305h-680l51 324l733 833h488zM795 1085l-410 -458h336z" />
    <glyph glyph-name="five.lt" 
d="M711 694q-113 0 -187 -82h-391l223 850h1000l-51 -327h-687l-55 -209q45 31 119.5 54.5t163.5 23.5q201 0 321.5 -116t120.5 -308q0 -124 -47.5 -234.5t-132.5 -192.5t-212.5 -130t-279.5 -48q-280 0 -424.5 132t-144.5 352h434q0 -80 42 -127t122 -47q100 0 160.5 69.5
t60.5 175.5q0 75 -38.5 119.5t-116.5 44.5z" />
    <glyph glyph-name="six.lt" 
d="M834 1171q-112 0 -203.5 -90.5t-114.5 -220.5q134 117 324 117q83 0 163.5 -28.5t146.5 -81.5t107 -137t41 -185q0 -115 -48.5 -219.5t-133 -181.5t-206 -123t-259.5 -46q-163 0 -292 69t-204 202t-75 309q0 185 58 354.5t160 297.5t250.5 204t319.5 76q215 0 360.5 -116
t151.5 -318h-383q-14 118 -163 118zM670 274q100 0 165.5 69.5t65.5 168.5q0 84 -55 130t-133 46q-100 0 -166 -69.5t-66 -167.5q0 -84 55.5 -130.5t133.5 -46.5z" />
    <glyph glyph-name="seven.lt" 
d="M903 1135h-764l51 327h1178l-55 -344q-296 -304 -436 -550t-195 -568h-440q23 132 70.5 262t106.5 238.5t142.5 224.5t161.5 208t180 202z" />
    <glyph glyph-name="eight.lt" 
d="M629 -25q-269 0 -433.5 107t-164.5 293q0 140 106 249t242 130q-178 90 -178 266q0 138 78 245t214.5 164.5t309.5 57.5q153 0 272.5 -43t189.5 -129.5t70 -204.5q0 -129 -78 -230.5t-204 -146.5q100 -26 166.5 -106t66.5 -189q0 -138 -85 -244t-234 -162.5t-338 -56.5z
M752 885q96 0 152.5 47.5t56.5 134.5q0 69 -50.5 101t-128.5 32q-94 0 -151.5 -48t-57.5 -134q0 -69 51 -101t128 -32zM674 600q-114 0 -175 -53t-61 -133q0 -67 57.5 -105.5t163.5 -38.5q114 0 175 54.5t61 134.5q0 67 -57.5 104t-163.5 37z" />
    <glyph glyph-name="nine.lt" 
d="M586 291q112 0 203 90.5t114 220.5q-134 -117 -323 -117q-83 0 -163.5 29t-147 81.5t-107.5 137t-41 185.5q0 115 48.5 219t133 181.5t206 123t259.5 45.5q163 0 292 -69t204 -202t75 -309q0 -185 -58 -354.5t-160 -297.5t-250.5 -204t-319.5 -76q-140 0 -253.5 49.5
t-184 150t-74.5 235.5h383q7 -54 46.5 -86.5t117.5 -32.5zM750 1188q-100 0 -166 -70t-66 -168q0 -84 55.5 -130t133.5 -46q100 0 165.5 69.5t65.5 168.5q0 84 -55 130t-133 46z" />
    <glyph glyph-name="zero.dnom" horiz-adv-x="915" 
d="M395 -14q-159 0 -253.5 97.5t-94.5 252.5q0 92 28.5 177t82 154t138.5 110.5t189 41.5q159 0 252.5 -97t93.5 -253q0 -92 -28.5 -177.5t-82 -154.5t-138 -110t-187.5 -41zM471 629q-59 0 -93 -53t-54 -156q-13 -61 -13 -107q0 -68 26 -103.5t71 -35.5q57 0 92 54t55 157
q10 59 10 107q0 137 -94 137z" />
    <glyph glyph-name="one.dnom" horiz-adv-x="751" 
d="M625 168l-27 -168h-602l27 168h184l57 356h-186l24 160q128 0 177 25t75 92h197l-100 -633h174z" />
    <glyph glyph-name="two.dnom" horiz-adv-x="800" 
d="M741 586q0 -109 -68.5 -175.5t-215.5 -129.5q-86 -37 -111 -50.5t-35 -31.5h371l-33 -199h-665l14 86q9 54 33 102t52 80.5t72 65.5t76 52t80 44q132 66 149 78q30 29 32 61q0 54 -62 54q-38 0 -66 -27.5t-34 -69.5h-258q29 129 128 210t251 81q129 0 209.5 -61
t80.5 -170z" />
    <glyph glyph-name="three.dnom" horiz-adv-x="796" 
d="M690 242q0 -101 -90.5 -178.5t-255.5 -77.5q-162 0 -250 75.5t-88 188.5h250q0 -74 104 -74q40 0 65.5 21t25.5 51q0 61 -93 61h-73l28 180h72q51 0 76.5 21.5t25.5 56.5q0 25 -18.5 42.5t-48.5 17.5q-38 0 -64 -19t-32 -53h-244q28 114 120.5 187t239.5 73
q138 0 213.5 -63t75.5 -158q0 -70 -48 -125t-124 -70q63 -14 98 -54.5t35 -102.5z" />
    <glyph glyph-name="four.dnom" horiz-adv-x="894" 
d="M735 801l-76 -479h148l-29 -175h-149l-23 -147h-235l22 147h-395l29 175l444 479h264zM461 571l-223 -249h184z" />
    <glyph glyph-name="five.dnom" horiz-adv-x="821" 
d="M385 367q-57 0 -86 -37h-238l121 473h570l-33 -199h-381l-25 -94q63 35 156 35q110 0 178 -61.5t68 -164.5q0 -142 -104 -237.5t-275 -95.5q-160 0 -241 74t-81 196h265q0 -38 19 -60t56 -22q45 0 74 32.5t29 84.5q0 35 -18 55.5t-54 20.5z" />
    <glyph glyph-name="six.dnom" horiz-adv-x="829" 
d="M459 627q-52 0 -95 -40t-55 -98q65 43 168 43q60 0 116 -24t97 -79t41 -130q0 -128 -104.5 -220.5t-261.5 -92.5q-143 0 -232.5 86.5t-89.5 234.5q0 95 32 186.5t87.5 164t139 117t179.5 44.5q120 0 203 -66.5t86 -179.5h-233q-8 54 -78 54zM377 166q47 0 78.5 33.5
t31.5 79.5q0 41 -27.5 62t-62.5 21q-49 0 -79.5 -33t-30.5 -81q0 -40 27 -61t63 -21z" />
    <glyph glyph-name="seven.dnom" horiz-adv-x="761" 
d="M465 604h-387l31 197h639l-35 -211q-153 -158 -218.5 -284t-95.5 -306h-270q30 170 114.5 313.5t221.5 290.5z" />
    <glyph glyph-name="eight.dnom" horiz-adv-x="833" 
d="M358 -14q-152 0 -245 59.5t-93 163.5q0 75 58 134.5t129 72.5q-94 48 -94 141q0 117 94 189.5t244 72.5q132 0 217.5 -56.5t85.5 -156.5q0 -68 -42 -123t-110 -82q53 -12 89 -56.5t36 -102.5q0 -115 -104 -185.5t-265 -70.5zM426 494q45 0 72.5 23t27.5 63q0 34 -25 49.5
t-63 15.5q-45 0 -72.5 -23t-27.5 -65q0 -63 88 -63zM381 324q-56 0 -83.5 -26.5t-27.5 -64.5q0 -69 107 -69q55 0 82.5 26t27.5 66q0 31 -27.5 49.5t-78.5 18.5z" />
    <glyph glyph-name="nine.dnom" horiz-adv-x="829" 
d="M334 176q52 0 94.5 40.5t54.5 98.5q-68 -45 -164 -45q-98 0 -177 62t-79 172q0 131 104.5 223t260.5 92q144 0 234 -86.5t90 -234.5q0 -96 -32 -187.5t-87.5 -164t-140 -116.5t-181.5 -44q-121 0 -203 65.5t-85 179.5h233q9 -55 78 -55zM416 637q-47 0 -78 -33t-31 -80
q0 -40 27 -61t63 -21q48 0 79.5 33.5t31.5 79.5q0 41 -27 61.5t-65 20.5z" />
    <glyph glyph-name="percent.lt" 
d="M393 825q-126 0 -207.5 81t-81.5 202q0 102 53 190t142 138.5t190 50.5q125 0 207 -81.5t82 -203.5q0 -154 -115 -265.5t-270 -111.5zM1221 1462h227l-1251 -1462h-228zM420 1014q64 0 113 49t49 113q0 54 -33.5 88t-87.5 34q-64 0 -112 -49t-48 -114q0 -53 33.5 -87
t85.5 -34zM928 -25q-125 0 -207 81.5t-82 203.5q0 154 115 265.5t270 111.5q126 0 207.5 -81t81.5 -202q0 -102 -53 -190t-142 -138.5t-190 -50.5zM956 164q64 0 112 49.5t48 114.5q0 53 -33.5 87t-85.5 34q-64 0 -112.5 -48.5t-48.5 -113.5q0 -54 33 -88.5t87 -34.5z" />
    <glyph glyph-name="period.tab" horiz-adv-x="675" 
d="M35 0l69 444h445l-70 -444h-444z" />
    <glyph glyph-name="comma.tab" horiz-adv-x="675" 
d="M37 16l67 428h445l-70 -440q-30 -191 -165.5 -286t-346.5 -95l31 205q51 1 87 7.5t71 24t56.5 53t29.5 89.5l4 14h-209z" />
    <glyph glyph-name="colon.tab" horiz-adv-x="675" 
d="M131 612l70 445h444l-70 -445h-444zM35 0l69 444h445l-70 -444h-444z" />
    <glyph glyph-name="semicolon.tab" horiz-adv-x="675" 
d="M131 612l70 445h444l-70 -445h-444zM37 16l67 428h445l-70 -440q-30 -191 -165.5 -286t-346.5 -95l31 205q51 1 87 7.5t71 24t56.5 53t29.5 89.5l4 14h-209z" />
    <glyph glyph-name="space.tab" horiz-adv-x="675" 
 />
    <glyph glyph-name="thinspace" horiz-adv-x="122" 
 />
    <glyph glyph-name="zero.slash" horiz-adv-x="1503" 
d="M700 -25q-279 0 -443.5 174t-164.5 455q0 134 32 262t97.5 240.5t157 197.5t218.5 134t273 49q279 0 444 -174.5t165 -454.5q0 -134 -32.5 -262t-98 -240.5t-157 -197.5t-218.5 -134t-273 -49zM504 561q0 -71 16 -133l408 754q-35 14 -80 14q-123 0 -205.5 -114
t-118.5 -318q-20 -113 -20 -203zM1067 901q0 57 -8 96l-391 -725q27 -6 55 -6q123 0 205.5 114t118.5 318q20 112 20 203z" />
    <glyph glyph-name="zero.slashlt" 
d="M631 -25q-166 0 -291.5 80t-191.5 222.5t-66 326.5q0 134 30 262.5t90.5 241t144 197.5t198.5 134.5t246 49.5q249 0 397.5 -174.5t150.5 -454.5q-1 -134 -31 -262.5t-90.5 -241t-143.5 -197.5t-197.5 -134.5t-245.5 -49.5zM502 764q-19 -142 -19 -221l385 614
q-40 37 -90 37q-107 0 -176.5 -113t-99.5 -317zM938 924v4l-387 -621q36 -39 92 -39q106 0 175.5 113.5t101.5 318.5q13 100 18 224z" />
    <glyph glyph-name="CR" horiz-adv-x="452" 
 />
    </font>
</defs>
</svg>
