<svg width="1440" height="383" viewBox="0 0 1440 383" fill="none" xmlns="http://www.w3.org/2000/svg">
<mask id="mask0_1756_7732" style="mask-type:alpha" maskUnits="userSpaceOnUse" x="0" y="0" width="1440" height="383">
<rect width="1440" height="383" fill="#F9F4F1"/>
</mask>
<g mask="url(#mask0_1756_7732)">
<g opacity="0.2">
<path d="M311.28 964.926C223.025 1005.04 123.674 959.561 59.3674 895.343C9.34963 845.395 -24.0832 780.44 -43.2102 712.4C-89.4587 547.813 -54.1149 351.108 66.9937 226.142C115.258 176.335 176.023 140.623 241.819 119.217C289.681 103.649 338.752 90.6227 389.19 87.73C430.337 85.3632 475.99 84.136 516.242 93.8134" stroke="#B2ABA5" stroke-width="2" stroke-miterlimit="10" stroke-linecap="round"/>
<path d="M509.159 90.2893C449.71 77.0354 397.079 74.6686 337.787 81.5585C279.442 88.3258 220.904 103.438 171.237 124.546C100.865 154.455 35.4541 204.666 -10.7418 266.009C-14.2656 270.69 -17.7018 275.441 -21.0153 280.28C-41.615 310.329 -57.4636 341.676 -69.5429 372.461C-104.729 462.96 -106.885 546.252 -106.5 564.626C-105.991 590.011 -102.835 721.131 -27.4319 838.61C10.2787 897.376 65.2579 946.71 127.18 978.881C163.33 997.657 215.907 1009.37 256.861 996.43" stroke="#B2ABA5" stroke-width="2" stroke-miterlimit="10" stroke-linecap="round"/>
<path d="M205.143 1018.96C123.814 1026.13 -13.5995 925.918 -65.9841 845.483C-138.776 733.701 -147.313 606.701 -148.365 564.766C-149.102 535.277 -143.509 452.809 -109.428 366.991C-96.7171 334.943 -79.9393 302.895 -58.5507 272.496C-5.74536 198.004 76.1801 132.365 183.702 99.5108C244.256 80.6467 306.371 70.566 370.081 69.6193C417.381 69.1635 472.588 78.613 516.207 93.8305" stroke="#B2ABA5" stroke-width="2" stroke-miterlimit="10" stroke-linecap="round"/>
<path d="M516.207 93.8134C449.656 64.6232 365.487 51.2465 290.89 53.9639C290.872 53.9464 290.837 53.9639 290.837 53.9639C234.438 56.208 179.616 64.3427 125.601 79.8056C17.9045 110.591 -74.2418 174.722 -135.112 256.647C-158.043 287.731 -176.592 321.269 -190.74 355.754C-222.139 432.314 -235.112 513.013 -233.604 564.766C-231.571 639.802 -211.62 758.21 -144.596 858.965C-84.3926 949.428 10.6639 1011.03 124.637 1043.54" stroke="#B2ABA5" stroke-width="2" stroke-miterlimit="10" stroke-linecap="round"/>
<path d="M87.9786 1051.23C-26.2577 1019.62 -119.614 961.034 -183.902 865.714C-247.84 770.342 -273.647 656.369 -276.224 564.766C-278.065 501.932 -261.322 422.163 -231.395 350.161C-216.441 314.449 -197.139 280.174 -173.418 248.74C-114.968 171.268 -27.9056 110.749 63.6271 80.1733C167.327 45.5483 278.898 35.38 386.963 52.6662C431.336 59.7665 475.025 75.7378 516.207 93.7954" stroke="#B2ABA5" stroke-width="2" stroke-miterlimit="10" stroke-linecap="round"/>
<path d="M516.206 93.7957C479.478 75.0543 434.649 55.6117 394.361 47.9679C353.513 40.2189 314.224 35.5555 272.692 35.0646C157.228 33.6972 45.2537 53.8761 -56.6753 109.925C-116.3 142.726 -170.017 186.854 -211.673 240.834C-236.182 272.618 -256.378 307.647 -272.034 344.568C-300.628 411.942 -321 490.835 -318.844 564.783C-315.67 672.954 -284.289 782.632 -223.191 872.499C-154.993 972.797 -64.5645 1028.23 49.9522 1058.93" stroke="#B2ABA5" stroke-width="2" stroke-miterlimit="10" stroke-linecap="round"/>
<path d="M516.206 93.8133C462.401 72.4773 394.589 60.9766 335.139 61.9057C312.909 62.2388 290.749 63.7816 269.167 66.3413C269.15 66.3237 269.115 66.3237 269.097 66.3413C245.061 69.1463 221.604 73.1085 198.357 78.2102C184.156 81.0503 168.623 85.6611 154.651 89.6583C47.0414 121.461 -39.9858 186.363 -96.8234 264.572C-119.001 295.305 -136.673 328.089 -150.085 361.381C-182.851 442.535 -192.073 524.163 -191.003 564.766C-189.426 623.269 -175.242 745.991 -105.291 852.232C-49.0496 937.682 42.5883 1001.11 156.281 1034.53" stroke="#B2ABA5" stroke-width="2" stroke-miterlimit="10" stroke-linecap="round"/>
<path d="M733.966 303.825C861.544 114.711 1001.15 56.8044 1115.93 46.6711C1143.05 42.6389 1176.89 38.817 1211.37 38.3085C1283.72 37.2566 1353.71 47.1971 1419.8 66.9202" stroke="#B2ABA5" stroke-width="2" stroke-linecap="round" stroke-linejoin="round"/>
<path d="M756.215 338.38C879.62 142.008 1016.81 79.9635 1130.74 60.5033C1157.08 55.9802 1188.74 50.6506 1221.07 48.8974C1289.93 45.093 1356.53 51.6849 1419.79 66.9199" stroke="#B2ABA5" stroke-width="2" stroke-linecap="round" stroke-linejoin="round"/>
<path d="M778.111 375.635C897.239 170.269 1031.65 100.3 1145.59 74.3536C1171.01 68.5506 1200.62 62.5022 1230.76 59.4692C1296.19 52.8948 1359.43 56.1908 1419.8 66.9202" stroke="#B2ABA5" stroke-width="2" stroke-linecap="round" stroke-linejoin="round"/>
<path d="M800.079 414.344C805.479 404.229 810.23 396.497 812.965 391.799C924.326 195.97 1050.83 119.953 1160.42 88.1856C1184.9 81.0853 1212.49 74.283 1240.46 70.0229C1302.4 60.6084 1362.27 60.6785 1419.81 66.9197" stroke="#B2ABA5" stroke-width="2" stroke-linecap="round" stroke-linejoin="round"/>
<path d="M820.766 460.102C824.517 452.388 827.498 446.848 831.267 439.432C834.107 433.962 849.254 405.456 852.147 400.424C955.023 218.13 1070.85 139.325 1175.26 102C1198.77 93.5853 1224.34 86.0116 1250.13 80.5593C1308.6 68.2345 1365.11 65.1489 1419.8 66.8846" stroke="#B2ABA5" stroke-width="2" stroke-linecap="round" stroke-linejoin="round"/>
<path d="M842.189 507.999C852.13 485.506 861.457 466.238 871.713 446.059C873.115 443.342 889.928 411.592 891.383 409.12C985.774 240.36 1090.82 158.698 1190.11 115.851C1212.67 106.103 1236.23 97.758 1259.86 91.1661C1314.84 75.8084 1368 69.6548 1419.82 66.9023" stroke="#B2ABA5" stroke-width="2" stroke-linecap="round" stroke-linejoin="round"/>
<path d="M863.543 560.348C879.549 520.481 895.258 486.031 912.141 452.704L930.567 417.763C1048.92 203.912 1182.44 124.862 1310.48 89.2201H1310.49C1321.94 85.9943 1333.32 83.1717 1344.66 80.5946C1356.99 77.8246 1369.28 75.3526 1381.46 73.1611C1394.35 70.8119 1407.13 68.7607 1419.79 66.9023" stroke="#B2ABA5" stroke-width="2" stroke-linecap="round" stroke-linejoin="round"/>
<path d="M1303.45 970.992C1159.2 1032.65 995.486 840.065 912.088 670.99C879.146 608.367 851.815 529.071 820.784 462.697C736.719 260.346 565.54 67.6734 372.973 45.04" stroke="#B2ABA5" stroke-width="2" stroke-miterlimit="10" stroke-linecap="round"/>
<path d="M1229.97 1003.76C1095.32 999.115 1004.61 878.938 914.841 745.29C869.796 674.841 832.353 580.85 796.573 504.935C727.396 358.239 582.193 123.804 429.215 84.5854" stroke="#B2ABA5" stroke-width="2" stroke-miterlimit="10" stroke-linecap="round"/>
<path d="M1182.06 1017.68C1060.04 1001.46 991.314 910.894 897.783 783.702C840.174 701.706 800.29 603.634 754.146 512.715C681.846 360.067 534.808 134.137 390.803 88.2036" stroke="#B2ABA5" stroke-width="2" stroke-miterlimit="10" stroke-linecap="round"/>
<path d="M1132.37 1029.83C1040.7 1026.99 932.582 897.166 858.441 790.837C812.21 726.233 765.576 626.653 730.25 557.035C692.451 482.508 654.18 400.074 607.177 333.436C533.001 227.089 413.312 98.9678 334.438 95.3037" stroke="#B2ABA5" stroke-width="2" stroke-miterlimit="10" stroke-linecap="round"/>
<path d="M1075.87 1037.14C918.664 991.031 783.88 764.329 711.474 611.575C665.699 521.533 625.254 422.111 567.82 340.606C473.956 213.099 406.582 123.705 284.105 107.172" stroke="#B2ABA5" stroke-width="2" stroke-miterlimit="10" stroke-linecap="round"/>
<path d="M1037.6 1040.75C871.555 999.902 738.998 766.731 669.854 620.026C632.02 539.977 597.939 452.616 551.462 379.474C460.964 245.129 372.324 127.106 236.664 121.882" stroke="#B2ABA5" stroke-width="2" stroke-miterlimit="10" stroke-linecap="round"/>
<path d="M1080.64 1072.97C913.701 1063.47 729.303 864.329 644.853 661.593C613.682 595.411 586.543 515.818 553.548 453.317C470.15 284.277 306.422 91.6394 162.189 153.316" stroke="#B2ABA5" stroke-width="2" stroke-miterlimit="10" stroke-linecap="round"/>
<path d="M1154.52 159.68C1242.77 119.568 1342.12 165.045 1406.43 229.263C1456.45 279.211 1489.88 344.165 1509.01 412.206C1555.25 576.793 1519.91 773.498 1398.8 898.464C1350.54 948.271 1289.77 983.983 1223.98 1005.39C1176.12 1020.96 1127.04 1033.98 1076.61 1036.88C1035.46 1039.24 989.806 1040.47 949.554 1030.79" stroke="#B2ABA5" stroke-width="2" stroke-miterlimit="10" stroke-linecap="round"/>
<path d="M956.637 1034.32C1016.09 1047.57 1068.72 1049.94 1128.01 1043.05C1186.35 1036.28 1244.89 1021.17 1294.56 1000.06C1364.93 970.15 1430.34 919.94 1476.54 858.596C1480.06 853.915 1483.5 849.164 1486.81 844.326C1507.41 814.276 1523.26 782.93 1535.34 752.144C1570.52 661.646 1572.68 578.353 1572.3 559.98C1571.79 534.594 1568.63 403.475 1493.23 285.995C1455.52 227.229 1400.54 177.895 1338.62 145.724C1302.47 126.948 1249.89 115.237 1208.93 128.175" stroke="#B2ABA5" stroke-width="2" stroke-miterlimit="10" stroke-linecap="round"/>
<path d="M1260.65 105.647C1341.98 98.4763 1479.4 198.687 1531.78 279.122C1604.57 390.904 1613.11 517.903 1614.16 559.839C1614.9 589.327 1609.3 671.796 1575.22 757.614C1562.51 789.662 1545.74 821.709 1524.35 852.109C1471.54 926.601 1389.62 992.24 1282.09 1025.09C1221.54 1043.96 1159.43 1054.04 1095.72 1054.99C1048.41 1055.44 993.208 1045.99 949.589 1030.77" stroke="#B2ABA5" stroke-width="2" stroke-miterlimit="10" stroke-linecap="round"/>
<path d="M949.589 1030.77C1016.14 1059.97 1100.31 1073.34 1174.91 1070.62C1174.92 1070.64 1174.96 1070.62 1174.96 1070.62C1231.36 1068.38 1286.18 1060.25 1340.19 1044.78C1447.89 1014 1540.04 949.866 1600.91 867.941C1623.84 836.857 1642.39 803.319 1656.54 768.834C1687.93 692.274 1700.91 611.576 1699.4 559.822C1697.37 484.787 1677.42 366.378 1610.39 265.623C1550.19 175.16 1455.13 113.554 1341.16 81.0503" stroke="#B2ABA5" stroke-width="2" stroke-miterlimit="10" stroke-linecap="round"/>
<path d="M1377.82 73.354C1492.05 104.964 1585.41 163.554 1649.7 258.874C1713.64 354.246 1739.44 468.219 1742.02 559.822C1743.86 622.656 1727.12 702.425 1697.19 774.427C1682.24 810.139 1662.93 844.413 1639.21 875.848C1580.78 953.32 1493.72 1013.84 1402.19 1044.41C1298.49 1079.04 1186.91 1089.21 1078.85 1071.92C1034.48 1064.82 990.788 1048.85 949.606 1030.79" stroke="#B2ABA5" stroke-width="2" stroke-miterlimit="10" stroke-linecap="round"/>
<path d="M949.589 1030.81C986.318 1049.55 1031.15 1068.99 1071.43 1076.64C1112.28 1084.39 1151.57 1089.05 1193.1 1089.54C1308.57 1090.91 1420.54 1070.73 1522.47 1014.68C1582.1 981.879 1635.81 937.752 1677.47 883.772C1701.98 851.987 1722.17 816.959 1737.83 780.037C1766.42 712.663 1786.78 633.77 1784.64 559.822C1781.47 451.652 1750.08 341.974 1688.99 252.106C1620.79 151.808 1530.36 96.3727 1415.84 65.6748" stroke="#B2ABA5" stroke-width="2" stroke-miterlimit="10" stroke-linecap="round"/>
<path d="M949.589 1030.77C1003.39 1052.11 1071.21 1063.61 1130.66 1062.68C1152.89 1062.35 1175.05 1060.81 1196.63 1058.25C1196.64 1058.26 1196.68 1058.26 1196.7 1058.25C1220.73 1055.44 1244.19 1051.48 1267.44 1046.38C1281.64 1043.54 1297.17 1038.93 1311.14 1034.93C1418.75 1003.13 1505.78 938.225 1562.62 860.016C1584.8 829.283 1602.47 796.499 1615.88 763.207C1648.65 682.053 1657.87 600.425 1656.8 559.822C1655.22 501.319 1641.04 378.597 1571.09 272.356C1514.84 186.906 1423.21 123.477 1309.51 90.0615" stroke="#B2ABA5" stroke-width="2" stroke-miterlimit="10" stroke-linecap="round"/>
</g>
</g>
</svg>
