<svg width="326" height="164" viewBox="0 0 326 164" fill="none" xmlns="http://www.w3.org/2000/svg">
<path d="M98.0895 144.248C84.4961 150.427 69.1922 143.421 59.2842 133.53C51.5787 125.834 46.4272 115.833 43.4816 105.349C36.3585 79.9963 41.8012 49.6932 60.4557 30.4428C67.8901 22.7708 77.2525 17.2678 87.3848 13.9707C94.7556 11.5741 102.317 9.5657 110.086 9.1205C116.423 8.75565 123.455 8.5682 129.658 10.0577" stroke="#4A5C76" stroke-miterlimit="10" stroke-linecap="round"/>
<path d="M128.573 9.51557C119.415 7.47371 111.308 7.10885 102.177 8.16995C93.189 9.21431 84.1714 11.5407 76.5228 14.7909C65.6842 19.3968 55.6055 27.1324 48.4891 36.5819C47.9468 37.3015 47.418 38.0346 46.9058 38.7777C43.7326 43.407 41.289 48.2338 39.4313 52.977C34.0087 66.9185 33.6806 79.7487 33.7375 82.5805C33.8145 86.4935 34.3032 106.688 45.915 124.783C51.7259 133.834 60.1946 141.433 69.7311 146.39C75.301 149.282 83.3981 151.086 89.7078 149.095" stroke="#4A5C76" stroke-miterlimit="10" stroke-linecap="round"/>
<path d="M81.7411 152.573C69.2122 153.677 48.0438 138.239 39.9768 125.848C28.7633 108.629 27.4479 89.0642 27.2872 82.6039C27.1734 78.0616 28.037 65.3552 33.2856 52.1367C35.2437 47.1994 37.8278 42.2655 41.1216 37.5826C49.2555 26.1081 61.8782 15.9959 78.4373 10.9347C87.7663 8.02928 97.3328 6.47613 107.147 6.32885C114.434 6.25856 122.936 7.71464 129.658 10.0577" stroke="#4A5C76" stroke-miterlimit="10" stroke-linecap="round"/>
<path d="M129.658 10.0611C119.408 5.56563 106.441 3.50369 94.9494 3.92211C94.9461 3.91876 94.9427 3.92211 94.9427 3.92211C86.2531 4.26688 77.8112 5.51877 69.4898 7.90205C52.9006 12.6452 38.7047 22.5231 29.3289 35.1424C25.7941 39.9324 22.9389 45.0939 20.7598 50.4095C15.9229 62.202 13.9246 74.6339 14.1556 82.6038C14.4669 94.1621 17.543 112.402 27.8661 127.923C37.1415 141.858 51.7826 151.347 69.3392 156.355" stroke="#4A5C76" stroke-miterlimit="10" stroke-linecap="round"/>
<path d="M63.4912 157.483C45.9982 152.599 31.6717 143.585 21.8139 128.964C11.9628 114.273 7.98955 96.716 7.59457 82.6072C7.3134 72.9301 9.89082 60.6388 14.5001 49.5492C16.803 44.0462 19.7788 38.7709 23.4307 33.924C32.4316 21.9908 45.8442 12.6686 59.943 7.95895C75.913 2.62669 93.1014 1.06016 109.748 3.72126C116.583 4.81583 123.311 7.2761 129.657 10.0577" stroke="#4A5C76" stroke-miterlimit="10" stroke-linecap="round"/>
<path d="M129.658 10.0577C124.001 7.17236 117.095 4.17318 110.889 2.99827C104.6 1.80663 98.5443 1.08696 92.1476 1.00998C74.3634 0.799095 57.1114 3.90874 41.4126 12.5414C32.2276 17.5925 23.953 24.3909 17.5362 32.7056C13.7605 37.6027 10.6508 42.9952 8.23743 48.6856C3.82904 59.0656 0.692612 71.2197 1.024 82.6072C1.5127 99.2701 6.34621 116.164 15.7588 130.008C26.1723 145.326 39.6552 153.788 57.0712 158.541" stroke="#4A5C76" stroke-miterlimit="10" stroke-linecap="round"/>
<path d="M129.658 10.0612C121.37 6.77414 110.923 5.00342 101.768 5.14401C98.344 5.19422 94.9298 5.43522 91.6059 5.82686C91.6026 5.82351 91.5992 5.82351 91.5959 5.82686C87.8937 6.25866 84.2787 6.86787 80.7004 7.65448C78.5113 8.09298 76.1213 8.80261 73.969 9.41851C57.3931 14.319 43.9872 24.3174 35.2306 36.361C31.8164 41.094 29.095 46.1451 27.0264 51.2732C21.9786 63.7754 20.5594 76.3478 20.7234 82.6006C20.9644 91.6149 23.1502 110.517 33.9285 126.882C42.5913 140.044 56.7069 149.814 74.2234 154.963" stroke="#4A5C76" stroke-miterlimit="10" stroke-linecap="round"/>
<path d="M57.0747 158.542C67.2539 161.574 78.1058 163.148 89.249 162.984C94.5645 162.907 99.7763 162.318 103.954 161.698C121.644 160.135 143.15 151.232 162.812 122.053" stroke="url(#paint0_linear_3612_10001)" stroke-linecap="round" stroke-linejoin="round"/>
<path d="M57.0376 158.649C66.7797 160.99 77.1144 162.048 87.7237 161.462C92.7052 161.191 97.583 160.367 101.637 159.674C119.21 156.673 140.398 147.143 159.417 116.83" stroke="url(#paint1_linear_3612_10001)" stroke-linecap="round" stroke-linejoin="round"/>
<path d="M57.0747 158.542C66.3769 160.195 76.1878 160.741 86.2632 159.727C90.9092 159.258 95.4683 158.327 99.388 157.434C116.958 153.434 137.662 142.796 156.022 111.084" stroke="url(#paint2_linear_3612_10001)" stroke-linecap="round" stroke-linejoin="round"/>
<path d="M152.707 104.717C151.867 106.284 151.044 107.8 150.622 108.533C133.467 138.699 113.979 150.411 97.0984 155.302C93.326 156.396 89.0783 157.444 84.7703 158.1C75.2271 159.549 65.9384 159.503 57.0747 158.542" stroke="url(#paint3_linear_3612_10001)" stroke-linecap="round" stroke-linejoin="round"/>
<path d="M57.0747 158.542C65.4965 158.809 74.2698 158.371 83.2807 156.473C87.254 155.633 91.1904 154.468 94.8122 153.173C110.893 147.422 128.737 135.281 144.58 107.201C145.028 106.428 147.362 102.036 147.8 101.192C148.389 100.041 148.901 99.0133 149.487 97.8149" stroke="url(#paint4_linear_3612_10001)" stroke-linecap="round" stroke-linejoin="round"/>
<path d="M57.0747 158.542C65.058 158.12 73.3158 157.21 81.7878 154.843C85.4264 153.826 89.0548 152.544 92.5293 151.041C107.82 144.44 124.007 131.861 138.548 105.865C138.772 105.484 141.356 100.593 141.577 100.175C143.161 97.0653 144.72 93.7783 146.257 90.3071" stroke="url(#paint5_linear_3612_10001)" stroke-linecap="round" stroke-linejoin="round"/>
<path d="M57.0747 158.542C59.1065 158.24 61.1584 157.912 63.227 157.534H63.2337C69.6204 156.369 76.1577 154.759 82.7485 152.189C99.7227 145.571 116.978 132.593 132.51 104.533L135.348 99.1505C137.946 94.0124 140.493 88.3956 142.96 82.25" stroke="url(#paint6_linear_3612_10001)" stroke-linecap="round" stroke-linejoin="round"/>
<path d="M142.953 82.2322C142.953 82.2322 142.949 82.2425 142.946 82.2459" stroke="url(#paint7_linear_3612_10001)" stroke-linecap="round" stroke-linejoin="round"/>
<path d="M163.275 42.2854C182.924 13.1572 204.36 4.3571 222.04 2.79726C226.218 2.17466 231.429 1.58553 236.742 1.50854C247.888 1.34787 258.666 2.87759 268.849 5.9136" stroke="url(#paint8_linear_3612_10001)" stroke-linecap="round" stroke-linejoin="round"/>
<path d="M166.702 47.6078C185.711 17.3582 206.773 7.92552 224.323 4.92968C228.38 4.23344 233.257 3.41336 238.237 3.14222C248.845 2.55645 259.104 3.57403 268.848 5.91714" stroke="url(#paint9_linear_3612_10001)" stroke-linecap="round" stroke-linejoin="round"/>
<path d="M170.072 53.3482C188.422 21.7128 209.055 11.0583 226.608 7.06166C230.525 6.16793 235.087 5.23738 239.726 4.76876C249.805 3.75788 259.546 4.26332 268.848 5.91689" stroke="url(#paint10_linear_3612_10001)" stroke-linecap="round" stroke-linejoin="round"/>
<path d="M173.272 59.5675C174.106 58.011 174.949 56.6855 175.371 55.9625C192.526 25.7966 212.014 14.0844 228.895 9.19395C232.664 8.09938 236.915 7.05167 241.223 6.3956C250.766 4.94622 259.984 4.95626 268.851 5.91694" stroke="url(#paint11_linear_3612_10001)" stroke-linecap="round" stroke-linejoin="round"/>
<path d="M176.472 66.6473C177.051 65.459 177.607 64.4414 178.189 63.3C178.628 62.4564 180.961 58.0648 181.406 57.2915C197.252 29.211 215.097 17.0704 231.18 11.3197C234.802 10.0243 238.742 8.85607 242.712 8.01925C251.72 6.12133 260.423 5.64601 268.848 5.91379" stroke="url(#paint12_linear_3612_10001)" stroke-linecap="round" stroke-linejoin="round"/>
<path d="M179.746 74.0781C181.276 70.6137 182.839 67.427 184.419 64.3207C184.637 63.9023 187.224 59.0119 187.448 58.6303C201.989 32.6352 218.17 20.056 233.464 13.4551C236.938 11.9522 240.567 10.6668 244.208 9.65258C252.677 7.28604 260.865 6.33875 268.851 5.91699" stroke="url(#paint13_linear_3612_10001)" stroke-linecap="round" stroke-linejoin="round"/>
<path d="M183.053 82.0681C185.52 75.9292 188.051 70.4798 190.648 65.345L193.487 59.9626C211.72 27.0184 232.285 14.8443 252.011 9.35467H252.014C253.778 8.85927 255.529 8.42412 257.28 8.02579C259.178 7.59734 261.072 7.21909 262.95 6.88102C264.935 6.51951 266.903 6.20486 268.855 5.91699" stroke="url(#paint14_linear_3612_10001)" stroke-linecap="round" stroke-linejoin="round"/>
<path d="M250.924 145.182C228.704 154.681 203.486 125.014 190.636 98.9688C185.561 89.3219 181.35 77.1076 176.57 66.8849C163.626 35.7148 137.259 6.03428 107.592 2.54639" stroke="url(#paint15_linear_3612_10001)" stroke-miterlimit="10" stroke-linecap="round"/>
<path d="M239.553 150.196C218.786 149.479 204.801 130.952 190.96 110.346C184.014 99.4841 178.24 84.9936 172.724 73.2881C162.237 51.0486 140.409 15.7279 117.256 8.80566" stroke="url(#paint16_linear_3612_10001)" stroke-miterlimit="10" stroke-linecap="round"/>
<path d="M232.401 152.392C213.606 149.891 202.844 135.923 188.437 116.331C179.564 103.702 173.418 88.5922 166.312 74.5904C155.175 51.0756 132.524 16.2737 110.341 9.19751" stroke="url(#paint17_linear_3612_10001)" stroke-miterlimit="10" stroke-linecap="round"/>
<path d="M224.575 154.246C210.456 153.808 193.796 133.811 182.378 117.432C175.255 107.481 168.075 92.1402 162.629 81.4188C156.805 69.9375 150.914 57.2379 143.67 46.975C132.246 30.5933 113.645 10.7706 101.498 10.2083" stroke="url(#paint18_linear_3612_10001)" stroke-miterlimit="10" stroke-linecap="round"/>
<path d="M215.753 155.337C191.536 148.234 170.889 113.349 159.736 89.8172C152.683 75.9493 146.454 60.632 137.607 48.0763C123.147 28.4343 112.539 14.6066 93.6738 12.0593" stroke="url(#paint19_linear_3612_10001)" stroke-miterlimit="10" stroke-linecap="round"/>
<path d="M208.684 155.585C183.71 148.429 163.797 113.335 153.326 91.1194C147.499 78.7879 142.25 65.3318 135.087 54.0648C121.145 33.3684 107.341 15.0888 86.4438 14.2854" stroke="url(#paint20_linear_3612_10001)" stroke-miterlimit="10" stroke-linecap="round"/>
<path d="M196.41 154.387C176.929 143.839 159.138 120.716 149.474 97.5193C144.671 87.3234 140.49 75.0622 135.409 65.4354C122.562 39.3967 97.4469 9.72287 75.2275 19.2259" stroke="url(#paint21_linear_3612_10001)" stroke-miterlimit="10" stroke-linecap="round"/>
<path d="M227.914 20.2436C241.507 14.0645 256.811 21.0704 266.719 30.9617C274.425 38.6571 279.576 48.6588 282.522 59.1426C289.645 84.4951 284.202 114.798 265.548 134.049C258.113 141.721 248.751 147.224 238.619 150.521C231.248 152.917 223.686 154.926 215.917 155.371C209.581 155.736 202.615 155.876 196.413 154.387" stroke="url(#paint22_linear_3612_10001)" stroke-miterlimit="10" stroke-linecap="round"/>
<path d="M196.409 154.387C204.098 156.867 214.695 157.379 223.827 156.322C232.814 155.277 241.832 152.951 249.481 149.701C260.319 145.095 270.398 137.359 277.514 127.91C278.057 127.19 278.585 126.457 279.098 125.714C282.271 121.085 284.714 116.258 286.572 111.515C291.995 97.5731 292.323 84.7429 292.266 81.9111C292.189 77.9981 291.7 57.8038 280.088 39.7083C274.277 30.6572 265.809 23.0588 256.272 18.1014C250.702 15.2094 242.605 13.4052 236.296 15.3968" stroke="url(#paint23_linear_3612_10001)" stroke-miterlimit="10" stroke-linecap="round"/>
<path d="M244.262 11.9189C256.791 10.8143 277.96 26.252 286.027 38.6437C297.24 55.8623 298.555 75.4272 298.716 81.8875C298.83 86.4298 297.966 99.1362 292.718 112.355C290.76 117.292 288.175 122.226 284.882 126.909C276.748 138.383 264.125 148.496 247.566 153.557C238.237 156.462 228.67 158.015 218.856 158.163C211.569 158.233 203.131 156.733 196.409 154.39" stroke="url(#paint24_linear_3612_10001)" stroke-miterlimit="10" stroke-linecap="round"/>
<path d="M196.409 154.387C206.659 158.882 219.562 160.988 231.054 160.569C231.057 160.573 231.06 160.569 231.06 160.569C239.75 160.225 248.192 158.973 256.513 156.589C273.103 151.846 287.298 141.968 296.674 129.349C300.209 124.559 303.064 119.397 305.243 114.082C310.08 102.289 312.079 89.8575 311.848 81.8876C311.536 70.3294 308.46 52.0899 298.137 36.5685C288.862 22.6336 274.221 13.144 256.664 8.13647" stroke="url(#paint25_linear_3612_10001)" stroke-miterlimit="10" stroke-linecap="round"/>
<path d="M262.512 7.0083C280.005 11.892 294.332 20.9063 304.189 35.5273C314.041 50.2186 318.014 67.7753 318.409 81.8841C318.69 91.5612 316.113 103.852 311.503 114.942C309.2 120.445 306.225 125.72 302.573 130.567C293.572 142.5 280.159 151.823 266.06 156.532C250.087 161.868 232.899 163.434 216.252 160.77C209.417 159.675 202.753 157.168 196.406 154.387" stroke="url(#paint26_linear_3612_10001)" stroke-miterlimit="10" stroke-linecap="round"/>
<path d="M196.409 154.387C202.066 157.272 208.908 160.315 215.114 161.493C221.403 162.685 227.459 163.404 233.855 163.481C251.64 163.692 268.892 160.583 284.591 151.95C293.776 146.899 302.05 140.101 308.467 131.786C312.243 126.889 315.352 121.496 317.766 115.806C322.171 105.426 325.307 93.2718 324.976 81.8843C324.487 65.2214 319.654 48.3275 310.241 34.4831C299.827 19.1658 286.345 10.7039 268.928 5.95068" stroke="url(#paint27_linear_3612_10001)" stroke-miterlimit="10" stroke-linecap="round"/>
<path d="M196.409 154.387C204.697 157.674 215.08 159.488 224.235 159.348C227.66 159.297 231.074 159.056 234.398 158.665C234.401 158.668 234.404 158.668 234.408 158.665C238.11 158.233 241.725 157.624 245.303 156.837C247.492 156.399 249.882 155.689 252.035 155.073C268.611 150.173 282.016 140.174 290.773 128.131C294.187 123.398 296.909 118.347 298.977 113.218C304.025 100.716 305.444 88.1438 305.28 81.8911C305.039 72.8768 302.853 53.9745 292.075 37.6096C283.412 24.448 269.297 14.6772 251.78 9.52905" stroke="url(#paint28_linear_3612_10001)" stroke-miterlimit="10" stroke-linecap="round"/>
<defs>
<linearGradient id="paint0_linear_3612_10001" x1="163.551" y1="142.523" x2="56.3405" y2="142.523" gradientUnits="userSpaceOnUse">
<stop stop-color="white"/>
<stop offset="1" stop-color="#9C9EB2"/>
</linearGradient>
<linearGradient id="paint1_linear_3612_10001" x1="160.132" y1="139.224" x2="56.3267" y2="139.224" gradientUnits="userSpaceOnUse">
<stop stop-color="white"/>
<stop offset="1" stop-color="#9C9EB2"/>
</linearGradient>
<linearGradient id="paint2_linear_3612_10001" x1="156.713" y1="135.66" x2="56.3877" y2="135.66" gradientUnits="userSpaceOnUse">
<stop stop-color="white"/>
<stop offset="1" stop-color="#9C9EB2"/>
</linearGradient>
<linearGradient id="paint3_linear_3612_10001" x1="153.375" y1="131.973" x2="56.4107" y2="131.973" gradientUnits="userSpaceOnUse">
<stop stop-color="white"/>
<stop offset="1" stop-color="#9C9EB2"/>
</linearGradient>
<linearGradient id="paint4_linear_3612_10001" x1="150.133" y1="128.213" x2="56.433" y2="128.213" gradientUnits="userSpaceOnUse">
<stop stop-color="white"/>
<stop offset="1" stop-color="#9C9EB2"/>
</linearGradient>
<linearGradient id="paint5_linear_3612_10001" x1="146.88" y1="124.423" x2="56.4555" y2="124.423" gradientUnits="userSpaceOnUse">
<stop stop-color="white"/>
<stop offset="1" stop-color="#9C9EB2"/>
</linearGradient>
<linearGradient id="paint6_linear_3612_10001" x1="143.56" y1="120.394" x2="56.4784" y2="120.394" gradientUnits="userSpaceOnUse">
<stop stop-color="white"/>
<stop offset="1" stop-color="#9C9EB2"/>
</linearGradient>
<linearGradient id="paint7_linear_3612_10001" x1="142.953" y1="82.2391" x2="142.946" y2="82.2391" gradientUnits="userSpaceOnUse">
<stop stop-color="#9C9EB2" stop-opacity="0.05"/>
<stop offset="1" stop-color="white"/>
</linearGradient>
<linearGradient id="paint8_linear_3612_10001" x1="269.586" y1="21.8902" x2="162.542" y2="21.8902" gradientUnits="userSpaceOnUse">
<stop stop-color="#9C9EB2" stop-opacity="0.05"/>
<stop offset="1" stop-color="white"/>
</linearGradient>
<linearGradient id="paint9_linear_3612_10001" x1="269.562" y1="25.2928" x2="165.993" y2="25.2928" gradientUnits="userSpaceOnUse">
<stop stop-color="#9C9EB2" stop-opacity="0.05"/>
<stop offset="1" stop-color="white"/>
</linearGradient>
<linearGradient id="paint10_linear_3612_10001" x1="269.538" y1="28.7973" x2="169.386" y2="28.7973" gradientUnits="userSpaceOnUse">
<stop stop-color="#9C9EB2" stop-opacity="0.05"/>
<stop offset="1" stop-color="white"/>
</linearGradient>
<linearGradient id="paint11_linear_3612_10001" x1="269.519" y1="32.4044" x2="172.609" y2="32.4044" gradientUnits="userSpaceOnUse">
<stop stop-color="#9C9EB2" stop-opacity="0.05"/>
<stop offset="1" stop-color="white"/>
</linearGradient>
<linearGradient id="paint12_linear_3612_10001" x1="269.493" y1="36.2446" x2="175.831" y2="36.2446" gradientUnits="userSpaceOnUse">
<stop stop-color="#9C9EB2" stop-opacity="0.05"/>
<stop offset="1" stop-color="white"/>
</linearGradient>
<linearGradient id="paint13_linear_3612_10001" x1="269.474" y1="39.9959" x2="179.127" y2="39.9959" gradientUnits="userSpaceOnUse">
<stop stop-color="#9C9EB2" stop-opacity="0.05"/>
<stop offset="1" stop-color="white"/>
</linearGradient>
<linearGradient id="paint14_linear_3612_10001" x1="269.454" y1="43.9907" x2="182.457" y2="43.9907" gradientUnits="userSpaceOnUse">
<stop stop-color="#9C9EB2" stop-opacity="0.05"/>
<stop offset="1" stop-color="white"/>
</linearGradient>
<linearGradient id="paint15_linear_3612_10001" x1="251.925" y1="74.7671" x2="106.597" y2="74.7671" gradientUnits="userSpaceOnUse">
<stop stop-color="white"/>
<stop offset="0.484375" stop-color="#9C9EB2"/>
<stop offset="1" stop-color="#4A5C76"/>
</linearGradient>
<linearGradient id="paint16_linear_3612_10001" x1="240.407" y1="79.4973" x2="116.407" y2="79.4973" gradientUnits="userSpaceOnUse">
<stop stop-color="white"/>
<stop offset="0.484375" stop-color="#9C9EB2"/>
<stop offset="1" stop-color="#4A5C76"/>
</linearGradient>
<linearGradient id="paint17_linear_3612_10001" x1="233.253" y1="80.7912" x2="109.494" y2="80.7912" gradientUnits="userSpaceOnUse">
<stop stop-color="white"/>
<stop offset="0.484375" stop-color="#9C9EB2"/>
<stop offset="1" stop-color="#4A5C76"/>
</linearGradient>
<linearGradient id="paint18_linear_3612_10001" x1="225.434" y1="82.2237" x2="100.643" y2="82.2237" gradientUnits="userSpaceOnUse">
<stop stop-color="white"/>
<stop offset="0.484375" stop-color="#9C9EB2"/>
<stop offset="1" stop-color="#4A5C76"/>
</linearGradient>
<linearGradient id="paint19_linear_3612_10001" x1="216.606" y1="83.6948" x2="92.8262" y2="83.6948" gradientUnits="userSpaceOnUse">
<stop stop-color="white"/>
<stop offset="0.484375" stop-color="#9C9EB2"/>
<stop offset="1" stop-color="#4A5C76"/>
</linearGradient>
<linearGradient id="paint20_linear_3612_10001" x1="209.538" y1="84.9318" x2="85.5951" y2="84.9318" gradientUnits="userSpaceOnUse">
<stop stop-color="white"/>
<stop offset="0.484375" stop-color="#9C9EB2"/>
<stop offset="1" stop-color="#4A5C76"/>
</linearGradient>
<linearGradient id="paint21_linear_3612_10001" x1="197.257" y1="85.8959" x2="74.3861" y2="85.8959" gradientUnits="userSpaceOnUse">
<stop stop-color="white"/>
<stop offset="0.484375" stop-color="#9C9EB2"/>
<stop offset="1" stop-color="#4A5C76"/>
</linearGradient>
<linearGradient id="paint22_linear_3612_10001" x1="286.158" y1="86.7613" x2="195.794" y2="86.7613" gradientUnits="userSpaceOnUse">
<stop stop-color="#DEDEE6"/>
<stop offset="0.90625" stop-color="white"/>
</linearGradient>
<linearGradient id="paint23_linear_3612_10001" x1="292.941" y1="85.6953" x2="195.744" y2="85.6953" gradientUnits="userSpaceOnUse">
<stop stop-color="#DEDEE6"/>
<stop offset="0.90625" stop-color="white"/>
</linearGradient>
<linearGradient id="paint24_linear_3612_10001" x1="299.44" y1="85.0103" x2="195.699" y2="85.0103" gradientUnits="userSpaceOnUse">
<stop stop-color="#DEDEE6"/>
<stop offset="0.90625" stop-color="white"/>
</linearGradient>
<linearGradient id="paint25_linear_3612_10001" x1="312.672" y1="84.3753" x2="195.608" y2="84.3753" gradientUnits="userSpaceOnUse">
<stop stop-color="#DEDEE6"/>
<stop offset="0.90625" stop-color="white"/>
</linearGradient>
<linearGradient id="paint26_linear_3612_10001" x1="319.282" y1="84.5221" x2="195.559" y2="84.5221" gradientUnits="userSpaceOnUse">
<stop stop-color="#DEDEE6"/>
<stop offset="0.90625" stop-color="white"/>
</linearGradient>
<linearGradient id="paint27_linear_3612_10001" x1="325.898" y1="84.7173" x2="195.516" y2="84.7173" gradientUnits="userSpaceOnUse">
<stop stop-color="#DEDEE6"/>
<stop offset="0.90625" stop-color="white"/>
</linearGradient>
<linearGradient id="paint28_linear_3612_10001" x1="306.053" y1="84.4385" x2="195.653" y2="84.4385" gradientUnits="userSpaceOnUse">
<stop stop-color="#DEDEE6"/>
<stop offset="0.90625" stop-color="white"/>
</linearGradient>
</defs>
</svg>
