<svg width="326" height="164" viewBox="0 0 326 164" fill="none" xmlns="http://www.w3.org/2000/svg">
<g id="APPROVED 7 Line ICON">
<g id="Left">
<path id="Vector" d="M98.0895 144.248C84.4961 150.427 69.1922 143.421 59.2842 133.53C51.5787 125.834 46.4272 115.833 43.4816 105.349C36.3585 79.9963 41.8012 49.6932 60.4557 30.4428C67.8901 22.7708 77.2525 17.2678 87.3848 13.9707C94.7556 11.5741 102.317 9.5657 110.086 9.1205C116.423 8.75565 123.455 8.5682 129.658 10.0577" stroke="url(#paint0_linear_3754_10716)" stroke-miterlimit="10" stroke-linecap="round"/>
<path id="Vector_2" d="M128.573 9.51557C119.415 7.47371 111.307 7.10885 102.176 8.16995C93.1885 9.21431 84.1708 11.5407 76.5223 14.7909C65.6837 19.3968 55.605 27.1324 48.4886 36.5819C47.9463 37.3015 47.4175 38.0346 46.9053 38.7777C43.7321 43.407 41.2886 48.2338 39.4308 52.9769C34.0082 66.9185 33.6801 79.7487 33.737 82.5805C33.814 86.4935 34.3027 106.688 45.9145 124.783C51.7254 133.834 60.1941 141.433 69.7306 146.39C75.3005 149.282 83.3976 151.086 89.7073 149.095" stroke="url(#paint1_linear_3754_10716)" stroke-miterlimit="10" stroke-linecap="round"/>
<path id="Vector_3" d="M81.7406 152.572C69.2117 153.677 48.0433 138.239 39.9763 125.848C28.7629 108.629 27.4474 89.0641 27.2867 82.6038C27.1729 78.0615 28.0365 65.3552 33.2851 52.1367C35.2432 47.1994 37.8274 42.2655 41.1211 37.5826C49.255 26.1081 61.8777 15.9959 78.4368 10.9347C87.7658 8.02928 97.3323 6.47613 107.147 6.32885C114.434 6.25856 122.936 7.71463 129.657 10.0577" stroke="url(#paint2_linear_3754_10716)" stroke-miterlimit="10" stroke-linecap="round"/>
<path id="Vector_4" d="M129.725 10.065C119.476 5.56954 106.509 3.5076 95.0173 3.92601C95.0139 3.92266 95.0106 3.92601 95.0106 3.92601C86.321 4.27078 77.8791 5.52268 69.5577 7.90595C52.9685 12.6491 38.7725 22.527 29.3968 35.1463C25.862 39.9363 23.0068 45.0978 20.8277 50.4134C15.9908 62.2059 13.9925 74.6378 14.2234 82.6077C14.5347 94.1659 17.6109 112.405 27.934 127.927C37.2094 141.862 51.6257 151.259 69.1823 156.267" stroke="url(#paint3_linear_3754_10716)" stroke-miterlimit="10" stroke-linecap="round"/>
<path id="Vector_5" d="M63.4907 157.483C45.9977 152.599 31.6712 143.585 21.8134 128.964C11.9623 114.273 7.98907 96.716 7.59408 82.6071C7.31291 72.9301 9.89033 60.6388 14.4996 49.5492C16.8025 44.0462 19.7783 38.7709 23.4302 33.924C32.4311 21.9908 45.8437 12.6686 59.9425 7.95895C75.9125 2.62669 93.1009 1.06016 109.747 3.72126C116.582 4.81583 123.31 7.2761 129.657 10.0577" stroke="url(#paint4_linear_3754_10716)" stroke-miterlimit="10" stroke-linecap="round"/>
<path id="Vector_6" d="M129.657 10.0577C124.001 7.17236 117.095 4.17318 110.889 2.99827C104.6 1.80663 98.5443 1.08696 92.1476 1.00998C74.3634 0.799095 57.1114 3.90874 41.4125 12.5414C32.2275 17.5925 23.953 24.3909 17.5362 32.7056C13.7605 37.6027 10.6508 42.9952 8.23743 48.6856C3.82904 59.0656 0.692612 71.2196 1.024 82.6072C1.5127 99.27 6.34621 116.164 15.7588 130.008C26.1723 145.326 39.6552 153.788 57.0712 158.541" stroke="url(#paint5_linear_3754_10716)" stroke-miterlimit="10" stroke-linecap="round"/>
<path id="Vector_7" d="M129.657 10.0612C121.369 6.77414 110.922 5.00342 101.767 5.14401C98.343 5.19422 94.9288 5.43522 91.6049 5.82686C91.6016 5.82351 91.5982 5.82351 91.5949 5.82686C87.8928 6.25866 84.2777 6.86787 80.6994 7.65448C78.5103 8.09298 76.1203 8.80261 73.968 9.41851C57.3921 14.319 43.9862 24.3174 35.2296 36.3609C31.8154 41.094 29.094 46.1451 27.0254 51.2732C21.9777 63.7754 20.5584 76.3478 20.7224 82.6006C20.9634 91.6149 23.1492 110.517 33.9275 126.882C42.5904 140.044 56.7059 149.814 74.2224 154.963" stroke="url(#paint6_linear_3754_10716)" stroke-miterlimit="10" stroke-linecap="round"/>
</g>
<g id="Middle">
<g id="Group">
<g id="Group_2">
<path id="Vector_8" d="M57.0747 158.542C67.2539 161.574 78.1058 163.148 89.249 162.984C94.5645 162.907 99.7762 162.318 103.954 161.698C121.644 160.135 143.15 151.232 162.812 122.053" stroke="#4A5C76" stroke-linecap="round" stroke-linejoin="round"/>
<path id="Vector_9" d="M57.0371 158.649C66.7792 160.99 77.1139 162.048 87.7232 161.462C92.7047 161.191 97.5825 160.367 101.637 159.674C119.209 156.673 140.398 147.143 159.417 116.83" stroke="#4A5C76" stroke-linecap="round" stroke-linejoin="round"/>
<path id="Vector_10" d="M57.0747 158.542C66.3769 160.195 76.1878 160.741 86.2632 159.727C90.9092 159.258 95.4683 158.327 99.388 157.434C116.958 153.434 137.662 142.796 156.022 111.084" stroke="#4A5C76" stroke-linecap="round" stroke-linejoin="round"/>
<path id="Vector_11" d="M152.707 104.717C151.867 106.284 151.044 107.8 150.622 108.533C133.467 138.699 113.979 150.411 97.0984 155.301C93.326 156.396 89.0783 157.444 84.7703 158.1C75.2271 159.549 65.9384 159.502 57.0747 158.542" stroke="#4A5C76" stroke-linecap="round" stroke-linejoin="round"/>
<path id="Vector_12" d="M57.0747 158.542C65.4965 158.809 74.2698 158.371 83.2807 156.473C87.254 155.633 91.1904 154.468 94.8122 153.173C110.893 147.422 128.737 135.281 144.58 107.201C145.028 106.428 147.361 102.036 147.8 101.192C148.389 100.041 148.901 99.0133 149.487 97.8149" stroke="#4A5C76" stroke-linecap="round" stroke-linejoin="round"/>
<path id="Vector_13" d="M57.0747 158.542C65.058 158.12 73.3158 157.209 81.7878 154.843C85.4264 153.825 89.0548 152.543 92.5293 151.04C107.82 144.439 124.007 131.86 138.548 105.865C138.772 105.484 141.356 100.593 141.577 100.175C143.161 97.0651 144.72 93.778 146.257 90.3069" stroke="#4A5C76" stroke-linecap="round" stroke-linejoin="round"/>
<path id="Vector_14" d="M57.0742 158.542C59.106 158.24 61.1579 157.912 63.2266 157.534H63.2333C69.6199 156.369 76.1572 154.759 82.748 152.189C99.7222 145.571 116.978 132.593 132.509 104.533L135.348 99.1505C137.945 94.0124 140.492 88.3956 142.959 82.25" stroke="#4A5C76" stroke-linecap="round" stroke-linejoin="round"/>
</g>
</g>
<g id="Group_3">
<path id="Vector_15" d="M250.923 145.182C228.704 154.681 203.485 125.014 190.635 98.9689C185.561 89.322 181.35 77.1077 176.57 66.885C166.912 43.6279 150.537 20.7183 128.991 9.74902" stroke="#4A5C76" stroke-miterlimit="10" stroke-linecap="round"/>
<path id="Vector_16" d="M239.553 150.196C218.786 149.48 204.801 130.952 190.96 110.346C184.014 99.4843 178.24 84.9938 172.724 73.2883C162.237 51.0488 140.783 15.7574 117.629 8.83521" stroke="#4A5C76" stroke-miterlimit="10" stroke-linecap="round"/>
<path id="Vector_17" d="M232.399 152.392C213.604 149.892 202.843 135.923 188.436 116.331C179.562 103.702 173.416 88.5924 166.31 74.5906C155.174 51.0758 132.238 16.1726 110.055 9.09644" stroke="#4A5C76" stroke-miterlimit="10" stroke-linecap="round"/>
<path id="Vector_18" d="M224.574 154.246C210.455 153.808 193.795 133.811 182.377 117.433C175.254 107.481 168.074 92.1404 162.628 81.419C156.804 69.9378 150.913 57.2381 143.669 46.9753C132.245 30.5936 113.644 10.7708 101.497 10.2085" stroke="#4A5C76" stroke-miterlimit="10" stroke-linecap="round"/>
<path id="Vector_19" d="M215.753 155.337C191.535 148.234 170.889 113.349 159.736 89.8172C152.683 75.9493 146.454 60.632 137.607 48.0763C123.146 28.4343 112.539 14.6066 93.6733 12.0593" stroke="#4A5C76" stroke-miterlimit="10" stroke-linecap="round"/>
<path id="Vector_20" d="M208.684 155.585C183.71 148.429 163.797 113.335 153.326 91.1194C147.499 78.7879 142.25 65.3318 135.087 54.0647C121.145 33.3684 107.341 15.0888 86.4438 14.2854" stroke="#4A5C76" stroke-miterlimit="10" stroke-linecap="round"/>
<path id="Vector_21" d="M196.409 154.387C176.928 143.839 159.137 120.716 149.474 97.5195C144.67 87.3236 140.489 75.0625 135.408 65.4356C122.561 39.397 97.4464 9.72311 75.2271 19.2261" stroke="#4A5C76" stroke-miterlimit="10" stroke-linecap="round"/>
</g>
</g>
<g id="Right">
<path id="Vector_22" d="M227.914 20.2436C241.507 14.0645 256.811 21.0704 266.719 30.9617C274.425 38.6571 279.576 48.6588 282.522 59.1426C289.645 84.4951 284.202 114.798 265.548 134.049C258.113 141.721 248.751 147.224 238.619 150.521C231.248 152.917 223.686 154.926 215.917 155.371C209.581 155.736 202.615 155.876 196.413 154.387" stroke="url(#paint7_linear_3754_10716)" stroke-miterlimit="10" stroke-linecap="round"/>
<path id="Vector_23" d="M196.409 154.387C204.098 156.867 214.695 157.379 223.827 156.321C232.814 155.277 241.832 152.951 249.481 149.7C260.319 145.095 270.398 137.359 277.514 127.909C278.057 127.19 278.585 126.457 279.098 125.714C282.271 121.084 284.714 116.258 286.572 111.514C291.995 97.5729 292.323 84.7426 292.266 81.9108C292.189 77.9978 291.7 57.8036 280.088 39.708C274.277 30.6569 265.809 23.0586 256.272 18.1012C250.702 15.2091 242.605 13.4049 236.296 15.3966" stroke="url(#paint8_linear_3754_10716)" stroke-miterlimit="10" stroke-linecap="round"/>
<path id="Vector_24" d="M244.262 11.9189C256.791 10.8143 277.959 26.252 286.026 38.6437C297.24 55.8623 298.555 75.4272 298.716 81.8875C298.83 86.4298 297.966 99.1362 292.718 112.355C290.76 117.292 288.175 122.226 284.882 126.909C276.748 138.383 264.125 148.496 247.566 153.557C238.237 156.462 228.67 158.015 218.856 158.163C211.569 158.233 203.131 156.733 196.409 154.39" stroke="url(#paint9_linear_3754_10716)" stroke-miterlimit="10" stroke-linecap="round"/>
<path id="Vector_25" d="M196.409 154.387C206.659 158.882 219.562 160.987 231.054 160.569C231.057 160.572 231.06 160.569 231.06 160.569C239.75 160.224 248.192 158.972 256.513 156.589C273.103 151.846 287.298 141.968 296.674 129.349C300.209 124.559 303.064 119.397 305.243 114.082C310.08 102.289 312.079 89.8573 311.848 81.8873C311.536 70.3291 308.46 52.0897 298.137 36.5682C288.862 22.6334 274.221 13.1438 256.664 8.13623" stroke="url(#paint10_linear_3754_10716)" stroke-miterlimit="10" stroke-linecap="round"/>
<path id="Vector_26" d="M262.512 7.0083C280.005 11.892 294.332 20.9063 304.189 35.5273C314.041 50.2186 318.014 67.7752 318.409 81.8841C318.69 91.5612 316.112 103.852 311.503 114.942C309.2 120.445 306.225 125.72 302.573 130.567C293.572 142.5 280.159 151.823 266.06 156.532C250.087 161.868 232.899 163.434 216.252 160.77C209.417 159.675 202.753 157.168 196.406 154.387" stroke="url(#paint11_linear_3754_10716)" stroke-miterlimit="10" stroke-linecap="round"/>
<path id="Vector_27" d="M196.409 154.387C202.066 157.272 208.908 160.315 215.114 161.493C221.403 162.685 227.459 163.404 233.855 163.481C251.64 163.692 268.892 160.582 284.591 151.95C293.776 146.899 302.05 140.1 308.467 131.786C312.243 126.888 315.352 121.496 317.766 115.806C322.171 105.426 325.307 93.2715 324.976 81.884C324.487 65.2211 319.653 48.3273 310.241 34.4828C299.827 19.1656 286.344 10.7036 268.928 5.95044" stroke="url(#paint12_linear_3754_10716)" stroke-miterlimit="10" stroke-linecap="round"/>
<path id="Vector_28" d="M196.409 154.387C204.697 157.674 215.08 159.488 224.235 159.347C227.66 159.297 231.074 159.056 234.398 158.665C234.401 158.668 234.404 158.668 234.408 158.665C238.11 158.233 241.725 157.624 245.303 156.837C247.492 156.398 249.882 155.689 252.035 155.073C268.61 150.172 282.016 140.174 290.773 128.13C294.187 123.397 296.909 118.346 298.977 113.218C304.025 100.716 305.444 88.1436 305.28 81.8908C305.039 72.8765 302.853 53.9743 292.075 37.6093C283.412 24.4477 269.297 14.677 251.78 9.52881" stroke="url(#paint13_linear_3754_10716)" stroke-miterlimit="10" stroke-linecap="round"/>
</g>
<g id="Group_4">
<path id="Vector_29" d="M142.952 82.2324C142.952 82.2324 142.949 82.2423 142.945 82.2456" stroke="#4A5C76" stroke-linecap="round" stroke-linejoin="round"/>
<path id="Vector_30" d="M163.465 42.004C183.114 12.8758 204.359 4.35734 222.039 2.7975C226.217 2.1749 231.428 1.58578 236.741 1.50879C247.887 1.34812 258.665 2.87784 268.848 5.91384" stroke="#4A5C76" stroke-linecap="round" stroke-linejoin="round"/>
<path id="Vector_31" d="M166.861 47.358C185.87 17.1085 206.772 7.92576 224.322 4.92993C228.379 4.23369 233.256 3.4136 238.237 3.14247C248.844 2.55669 259.104 3.57427 268.848 5.91738" stroke="#4A5C76" stroke-linecap="round" stroke-linejoin="round"/>
<path id="Vector_32" d="M170.125 53.104C188.475 21.4686 209.054 11.0588 226.607 7.06215C230.524 6.16842 235.086 5.23787 239.725 4.76925C249.804 3.75836 259.545 4.26381 268.847 5.91737" stroke="#4A5C76" stroke-linecap="round" stroke-linejoin="round"/>
<path id="Vector_33" d="M173.39 59.3718C174.224 57.8153 174.949 56.6857 175.371 55.9627C192.526 25.7968 212.014 14.0846 228.894 9.19419C232.664 8.09962 236.915 7.05192 241.223 6.39585C250.766 4.94646 259.984 4.95651 268.851 5.91718" stroke="#4A5C76" stroke-linecap="round" stroke-linejoin="round"/>
<path id="Vector_34" d="M176.472 66.6475C177.051 65.4592 177.607 64.4416 178.189 63.3002C178.628 62.4567 180.961 58.065 181.406 57.2918C197.252 29.2113 215.097 17.0706 231.18 11.3199C234.802 10.0245 238.742 8.85632 242.712 8.01949C251.72 6.12157 260.423 5.64625 268.848 5.91404" stroke="#4A5C76" stroke-linecap="round" stroke-linejoin="round"/>
<path id="Vector_35" d="M179.746 74.0786C181.275 70.6141 182.839 67.4275 184.418 64.3212C184.636 63.9028 187.223 59.0124 187.448 58.6308C201.988 32.6356 218.169 20.0565 233.463 13.4556C236.938 11.9527 240.566 10.6673 244.208 9.65307C252.677 7.28653 260.864 6.33924 268.851 5.91748" stroke="#4A5C76" stroke-linecap="round" stroke-linejoin="round"/>
<path id="Vector_36" d="M183.053 82.0943C185.52 75.9553 188.05 70.4802 190.647 65.3455L193.486 59.963C211.719 27.0189 232.284 14.8447 252.01 9.35516H252.013C253.777 8.85976 255.528 8.42461 257.279 8.02628C259.177 7.59783 261.071 7.21958 262.949 6.8815C264.934 6.51999 266.902 6.20535 268.854 5.91748" stroke="#4A5C76" stroke-linecap="round" stroke-linejoin="round"/>
</g>
</g>
<defs>
<linearGradient id="paint0_linear_3754_10716" x1="130.281" y1="77.7157" x2="39.8485" y2="77.7157" gradientUnits="userSpaceOnUse">
<stop stop-color="#4A5C76"/>
<stop offset="0.484375" stop-color="#9C9EB2"/>
<stop offset="1" stop-color="white"/>
</linearGradient>
<linearGradient id="paint1_linear_3754_10716" x1="129.235" y1="78.7596" x2="33.0734" y2="78.7596" gradientUnits="userSpaceOnUse">
<stop stop-color="#4A5C76"/>
<stop offset="0.484375" stop-color="#9C9EB2"/>
<stop offset="1" stop-color="white"/>
</linearGradient>
<linearGradient id="paint2_linear_3754_10716" x1="130.373" y1="79.474" x2="26.5665" y2="79.474" gradientUnits="userSpaceOnUse">
<stop stop-color="#4A5C76"/>
<stop offset="0.484375" stop-color="#9C9EB2"/>
<stop offset="1" stop-color="white"/>
</linearGradient>
<linearGradient id="paint3_linear_3754_10716" x1="130.533" y1="80.1122" x2="13.4034" y2="80.1122" gradientUnits="userSpaceOnUse">
<stop stop-color="#4A5C76"/>
<stop offset="0.484375" stop-color="#9C9EB2"/>
<stop offset="1" stop-color="white"/>
</linearGradient>
<linearGradient id="paint4_linear_3754_10716" x1="130.51" y1="79.9628" x2="6.72555" y2="79.9628" gradientUnits="userSpaceOnUse">
<stop stop-color="#4A5C76"/>
<stop offset="0.484375" stop-color="#9C9EB2"/>
<stop offset="1" stop-color="white"/>
</linearGradient>
<linearGradient id="paint5_linear_3754_10716" x1="130.556" y1="79.7666" x2="0.10666" y2="79.7666" gradientUnits="userSpaceOnUse">
<stop stop-color="#4A5C76"/>
<stop offset="0.484375" stop-color="#9C9EB2"/>
<stop offset="1" stop-color="white"/>
</linearGradient>
<linearGradient id="paint6_linear_3754_10716" x1="130.418" y1="80.0458" x2="19.9535" y2="80.0458" gradientUnits="userSpaceOnUse">
<stop stop-color="#4A5C76"/>
<stop offset="0.484375" stop-color="#9C9EB2"/>
<stop offset="1" stop-color="white"/>
</linearGradient>
<linearGradient id="paint7_linear_3754_10716" x1="286.158" y1="86.7613" x2="195.794" y2="86.7613" gradientUnits="userSpaceOnUse">
<stop stop-color="white"/>
<stop offset="0.484375" stop-color="#9C9EB2"/>
<stop offset="1" stop-color="#4A5C76"/>
</linearGradient>
<linearGradient id="paint8_linear_3754_10716" x1="292.941" y1="85.695" x2="195.744" y2="85.695" gradientUnits="userSpaceOnUse">
<stop stop-color="white"/>
<stop offset="0.484375" stop-color="#9C9EB2"/>
<stop offset="1" stop-color="#4A5C76"/>
</linearGradient>
<linearGradient id="paint9_linear_3754_10716" x1="299.44" y1="85.0103" x2="195.699" y2="85.0103" gradientUnits="userSpaceOnUse">
<stop stop-color="white"/>
<stop offset="0.484375" stop-color="#9C9EB2"/>
<stop offset="1" stop-color="#4A5C76"/>
</linearGradient>
<linearGradient id="paint10_linear_3754_10716" x1="312.672" y1="84.375" x2="195.608" y2="84.375" gradientUnits="userSpaceOnUse">
<stop stop-color="white"/>
<stop offset="0.484375" stop-color="#9C9EB2"/>
<stop offset="1" stop-color="#4A5C76"/>
</linearGradient>
<linearGradient id="paint11_linear_3754_10716" x1="319.282" y1="84.522" x2="195.559" y2="84.522" gradientUnits="userSpaceOnUse">
<stop stop-color="white"/>
<stop offset="0.484375" stop-color="#9C9EB2"/>
<stop offset="1" stop-color="#4A5C76"/>
</linearGradient>
<linearGradient id="paint12_linear_3754_10716" x1="325.898" y1="84.717" x2="195.516" y2="84.717" gradientUnits="userSpaceOnUse">
<stop stop-color="white"/>
<stop offset="0.484375" stop-color="#9C9EB2"/>
<stop offset="1" stop-color="#4A5C76"/>
</linearGradient>
<linearGradient id="paint13_linear_3754_10716" x1="306.053" y1="84.4383" x2="195.653" y2="84.4383" gradientUnits="userSpaceOnUse">
<stop stop-color="white"/>
<stop offset="0.484375" stop-color="#9C9EB2"/>
<stop offset="1" stop-color="#4A5C76"/>
</linearGradient>
</defs>
</svg>
