<svg width="1440" height="383" viewBox="0 0 1440 383" fill="none" xmlns="http://www.w3.org/2000/svg">
<mask id="mask0_3131_7382" style="mask-type:alpha" maskUnits="userSpaceOnUse" x="0" y="0" width="1440" height="383">
<rect width="1440" height="383" fill="#F9F4F1"/>
</mask>
<g mask="url(#mask0_3131_7382)">
<g opacity="0.2">
<path d="M292.731 973.4C203.302 1014.05 102.621 967.961 37.4381 902.888C-13.2549 852.261 -47.1456 786.462 -66.5244 717.491C-113.386 550.702 -77.5791 351.343 45.1455 224.699C94.0548 174.226 155.648 138.023 222.307 116.332C270.798 100.565 320.544 87.3521 371.655 84.4233C413.341 82.023 459.608 80.7898 500.414 90.5892" stroke="#B2ABA5" stroke-width="2" stroke-miterlimit="10" stroke-linecap="round"/>
<path d="M499.377 90.0003C438.877 74.5 379.695 71.1885 319.621 78.1693C260.494 85.0399 201.168 100.345 150.85 121.727C79.5446 152.029 13.2385 202.92 -33.5787 265.086C-37.1462 269.82 -40.6255 274.643 -43.9948 279.532C-64.871 309.987 -80.9465 341.742 -93.1683 372.946C-128.843 464.665 -131.001 549.072 -130.627 567.702C-130.12 593.445 -126.905 726.3 -50.5131 845.347C-12.2842 904.892 43.4297 954.881 106.168 987.494C142.812 1006.52 196.081 1018.39 237.591 1005.29" stroke="#B2ABA5" stroke-width="2" stroke-miterlimit="10" stroke-linecap="round"/>
<path d="M185.179 1028.17C102.753 1035.44 -36.5095 933.873 -89.5808 852.35C-163.352 739.073 -172.006 610.358 -173.063 567.857C-173.812 537.974 -168.131 454.382 -133.601 367.42C-120.719 334.938 -103.718 302.479 -82.0495 271.671C-28.5378 196.182 54.5044 129.656 163.444 96.3596C224.817 77.2451 287.754 67.0272 352.32 66.0583C400.261 65.5958 454.377 76 500.413 90.59" stroke="#B2ABA5" stroke-width="2" stroke-miterlimit="10" stroke-linecap="round"/>
<path d="M500.413 90.6114C434.877 60.9999 347.674 47.4718 272.075 50.2244C272.053 50.2024 272.031 50.2244 272.031 50.2244C214.864 52.4926 159.326 60.7286 104.581 76.4077C-4.55647 107.612 -97.9487 172.597 -159.63 255.617C-182.885 287.129 -201.669 321.086 -216.005 356.056C-247.826 433.637 -260.972 515.424 -259.453 567.857C-257.405 643.896 -237.167 763.89 -169.254 866.003C-108.233 957.677 -11.9116 1020.11 103.59 1053.05" stroke="#B2ABA5" stroke-width="2" stroke-miterlimit="10" stroke-linecap="round"/>
<path d="M65.1185 1060.47C-49.9647 1028.34 -144.216 969.04 -209.068 872.851C-273.877 776.2 -300.016 660.698 -302.615 567.878C-304.465 504.215 -287.508 423.353 -257.185 350.396C-242.034 314.193 -222.457 279.487 -198.432 247.601C-139.217 169.095 -50.9777 107.766 41.776 76.7816C146.84 41.7017 259.919 31.3957 369.431 48.9026C414.398 56.1036 459.877 71 500.413 90.5889" stroke="#B2ABA5" stroke-width="2" stroke-miterlimit="10" stroke-linecap="round"/>
<path d="M500.414 90.5891C463.198 71.6068 417.768 51.8757 376.94 44.1463C335.562 36.3067 295.726 31.5721 253.643 31.0656C136.644 29.6783 23.1465 50.1361 -80.1333 106.929C-140.56 140.159 -194.996 184.884 -237.211 239.585C-262.051 271.802 -282.509 307.279 -298.386 344.715C-327.388 413.003 -348.022 492.962 -345.842 567.878C-342.627 677.5 -310.828 788.642 -248.904 879.722C-180.396 980.491 -91.6946 1036.16 22.8822 1067.43" stroke="#B2ABA5" stroke-width="2" stroke-miterlimit="10" stroke-linecap="round"/>
<path d="M500.415 90.6115C448.377 70.0002 377.162 57.3374 316.933 58.2623C294.406 58.5926 271.944 60.1781 250.077 62.7546C250.055 62.7326 250.033 62.7326 250.011 62.7546C225.655 65.5954 201.872 69.6032 178.331 74.7782C163.929 77.663 148.206 82.3315 134.047 86.3835C24.9971 118.623 -63.1981 184.4 -120.806 263.633C-143.268 294.771 -161.171 328.001 -174.78 361.738C-207.988 443.987 -217.325 526.699 -216.246 567.835C-214.661 627.138 -200.281 751.492 -129.372 859.154C-72.381 945.742 20.4827 1010.02 135.72 1043.89" stroke="#B2ABA5" stroke-width="2" stroke-miterlimit="10" stroke-linecap="round"/>
<path d="M721.568 302.61C850.833 110.981 991.858 53.0866 1108.17 42.8247C1135.66 38.7287 1169.94 34.853 1204.89 34.3465C1278.22 33.2895 1349.13 43.3532 1416.12 63.3265" stroke="#B2ABA5" stroke-width="2" stroke-linecap="round" stroke-linejoin="round"/>
<path d="M744.117 337.623C869.176 138.617 1007.73 76.5612 1123.19 56.8521C1149.88 52.2717 1181.97 46.8765 1214.73 45.0928C1284.52 41.239 1352.01 47.9335 1416.12 63.3484" stroke="#B2ABA5" stroke-width="2" stroke-linecap="round" stroke-linejoin="round"/>
<path d="M766.289 375.39C887.01 167.267 1022.75 97.1734 1138.23 70.88C1163.99 65.0003 1194.01 58.8784 1224.53 55.7954C1290.84 49.1449 1354.92 52.4702 1416.12 63.3487" stroke="#B2ABA5" stroke-width="2" stroke-linecap="round" stroke-linejoin="round"/>
<path d="M787.344 416.306C792.827 406.066 798.376 397.345 801.151 392.589C914.01 194.133 1042.22 117.081 1153.27 84.9075C1178.07 77.7066 1206.03 70.8139 1234.38 66.4978C1297.16 56.9625 1357.81 57.0286 1416.14 63.3487" stroke="#B2ABA5" stroke-width="2" stroke-linecap="round" stroke-linejoin="round"/>
<path d="M808.395 462.881C812.204 455.063 815.86 448.369 819.691 440.86C822.576 435.31 837.925 406.418 840.854 401.332C945.103 216.595 1062.5 136.724 1168.31 98.8913C1192.14 90.3691 1218.06 82.6836 1244.17 77.1783C1303.43 64.6922 1360.69 61.5652 1416.12 63.3269" stroke="#B2ABA5" stroke-width="2" stroke-linecap="round" stroke-linejoin="round"/>
<path d="M829.934 511.768C839.997 488.976 850.281 468.012 860.675 447.576C862.107 444.823 879.129 412.65 880.605 410.14C976.265 239.122 1082.72 156.367 1183.33 112.941C1206.19 103.053 1230.06 94.5968 1254.02 87.9244C1309.73 72.3553 1363.6 66.1233 1416.14 63.3486" stroke="#B2ABA5" stroke-width="2" stroke-linecap="round" stroke-linejoin="round"/>
<path d="M851.691 564.333C867.921 523.946 884.569 488.095 901.658 454.314L920.332 418.904C1040.28 202.171 1175.58 122.079 1305.35 85.9645H1305.37C1316.98 82.7053 1328.5 79.8426 1340.01 77.222C1352.5 74.4033 1364.96 71.9149 1377.32 69.6908C1390.38 67.3125 1403.32 65.2425 1416.16 63.3486" stroke="#B2ABA5" stroke-width="2" stroke-linecap="round" stroke-linejoin="round"/>
<path d="M1298.2 979.544C1152.02 1042.04 986.114 846.866 901.574 675.518C868.19 612.053 840.487 531.698 809.041 464.445C745.073 310.405 630.877 156 495.377 87.9998" stroke="#B2ABA5" stroke-width="2" stroke-miterlimit="10" stroke-linecap="round"/>
<path d="M1223.39 1012.53C1086.77 1007.82 994.769 885.932 903.711 750.369C858.017 678.91 820.03 583.58 783.739 506.571C714.746 360.262 572.698 128.54 420.377 83.0002" stroke="#B2ABA5" stroke-width="2" stroke-miterlimit="10" stroke-linecap="round"/>
<path d="M1176.34 1026.98C1052.69 1010.53 981.888 918.633 887.109 789.743C828.73 706.657 788.299 607.253 741.548 515.138C668.283 360.438 519.312 131.053 373.377 84.5001" stroke="#B2ABA5" stroke-width="2" stroke-miterlimit="10" stroke-linecap="round"/>
<path d="M1124.85 1039.18C1031.96 1036.29 922.361 904.738 847.247 796.988C800.385 731.519 753.15 630.595 717.321 560.061C679.004 484.528 640.247 400.979 592.593 333.462C517.434 225.69 395.062 95.2798 315.146 91.5802" stroke="#B2ABA5" stroke-width="2" stroke-miterlimit="10" stroke-linecap="round"/>
<path d="M1066.82 1046.36C907.498 999.627 771.671 770.122 698.296 615.312C651.897 524.078 610.915 423.309 552.713 340.707C457.581 211.486 387.796 120.516 263.684 103.758" stroke="#B2ABA5" stroke-width="2" stroke-miterlimit="10" stroke-linecap="round"/>
<path d="M1020.31 1047.99C856.012 1000.9 725.007 770.034 656.124 623.878C617.785 542.752 583.256 454.226 536.13 380.103C444.412 243.945 353.596 123.687 216.117 118.402" stroke="#B2ABA5" stroke-width="2" stroke-miterlimit="10" stroke-linecap="round"/>
<path d="M939.561 1040.1C811.397 970.714 694.354 818.591 630.778 665.983C599.178 598.906 571.673 518.242 538.245 454.909C453.727 283.606 288.501 88.387 142.324 150.905" stroke="#B2ABA5" stroke-width="2" stroke-miterlimit="10" stroke-linecap="round"/>
<path d="M1146.83 157.6C1236.26 116.948 1336.94 163.039 1402.12 228.112C1452.82 278.739 1486.71 344.538 1506.09 413.509C1552.95 580.298 1517.14 779.657 1394.42 906.301C1345.51 956.774 1283.91 992.977 1217.25 1014.67C1168.76 1030.44 1119.02 1043.65 1067.91 1046.58C1026.22 1048.98 980.393 1049.9 939.588 1040.1" stroke="#B2ABA5" stroke-width="2" stroke-miterlimit="10" stroke-linecap="round"/>
<path d="M939.562 1040.1C990.145 1056.42 1059.86 1059.79 1119.94 1052.83C1179.07 1045.96 1238.39 1030.66 1288.71 1009.27C1360.01 978.971 1426.32 928.08 1473.14 865.914C1476.71 861.179 1480.18 856.357 1483.55 851.468C1504.43 821.013 1520.51 789.258 1532.73 758.054C1568.4 666.335 1570.56 581.928 1570.19 563.298C1569.68 537.555 1566.46 404.7 1490.07 285.653C1451.84 226.108 1396.13 176.119 1333.39 143.506C1296.75 124.479 1243.48 112.61 1201.97 125.713" stroke="#B2ABA5" stroke-width="2" stroke-miterlimit="10" stroke-linecap="round"/>
<path d="M1254.38 102.833C1336.8 95.566 1476.07 197.128 1529.14 278.651C1602.91 391.928 1611.56 520.643 1612.62 563.144C1613.37 593.027 1607.69 676.62 1573.16 763.582C1560.28 796.063 1543.28 828.522 1521.61 859.33C1468.1 934.819 1385.05 1001.35 1276.11 1034.64C1214.74 1053.76 1151.8 1063.97 1087.24 1064.94C1039.3 1065.41 983.781 1055.54 939.562 1040.12" stroke="#B2ABA5" stroke-width="2" stroke-miterlimit="10" stroke-linecap="round"/>
<path d="M939.562 1040.1C1006.99 1069.68 1091.88 1083.53 1167.48 1080.78C1167.5 1080.8 1167.53 1080.78 1167.53 1080.78C1224.69 1078.51 1280.23 1070.27 1334.98 1054.59C1444.11 1023.39 1537.51 958.404 1599.19 875.384C1622.44 843.871 1641.23 809.915 1655.56 774.945C1687.38 697.364 1700.53 615.577 1699.01 563.144C1696.96 487.105 1676.72 367.111 1608.81 264.998C1547.79 173.323 1451.47 110.893 1335.97 77.9492" stroke="#B2ABA5" stroke-width="2" stroke-miterlimit="10" stroke-linecap="round"/>
<path d="M1374.44 70.5273C1489.52 102.656 1583.78 161.96 1648.63 258.149C1713.44 354.8 1739.58 470.302 1742.17 563.121C1744.02 626.785 1727.07 707.647 1696.74 780.604C1681.59 816.807 1662.02 851.512 1637.99 883.399C1578.78 961.905 1490.54 1023.23 1397.78 1054.22C1292.7 1089.32 1179.62 1099.63 1070.11 1082.1C1025.14 1074.9 981.295 1058.4 939.543 1040.1" stroke="#B2ABA5" stroke-width="2" stroke-miterlimit="10" stroke-linecap="round"/>
<path d="M939.562 1040.1C976.778 1059.08 1021.79 1079.1 1062.62 1086.85C1104 1094.69 1143.83 1099.43 1185.91 1099.93C1302.91 1101.32 1416.41 1080.86 1519.69 1024.07C1580.12 990.841 1634.55 946.116 1676.77 891.415C1701.61 859.198 1722.07 823.721 1737.94 786.285C1766.92 717.997 1787.56 638.038 1785.38 563.122C1782.16 453.5 1750.36 342.358 1688.44 251.278C1619.93 150.509 1531.23 94.8391 1416.65 63.5688" stroke="#B2ABA5" stroke-width="2" stroke-miterlimit="10" stroke-linecap="round"/>
<path d="M939.562 1040.1C994.087 1061.73 1062.4 1073.66 1122.63 1072.74C1145.15 1072.41 1167.61 1070.82 1189.48 1068.25C1189.5 1068.27 1189.53 1068.27 1189.55 1068.25C1213.9 1065.4 1237.69 1061.4 1261.23 1056.22C1275.63 1053.34 1291.35 1048.67 1305.51 1044.62C1414.56 1012.38 1502.76 946.6 1560.36 867.367C1582.83 836.229 1600.73 802.999 1614.34 769.263C1647.55 687.013 1656.88 604.301 1655.8 563.166C1654.22 503.862 1639.84 379.508 1568.93 271.846C1511.94 185.258 1419.08 120.978 1303.84 87.1095" stroke="#B2ABA5" stroke-width="2" stroke-miterlimit="10" stroke-linecap="round"/>
</g>
</g>
</svg>
