<svg width="375" height="313" viewBox="0 0 375 313" fill="none" xmlns="http://www.w3.org/2000/svg">
<mask id="mask0_1756_7446" style="mask-type:alpha" maskUnits="userSpaceOnUse" x="0" y="0" width="375" height="313">
<rect width="375" height="313" fill="#F9F4F1"/>
</mask>
<g mask="url(#mask0_1756_7446)">
<rect y="-60" width="375" height="373" fill="#F9F4F1"/>
<g opacity="0.2">
<path d="M154.145 464.946C191.61 465.694 230.631 464.475 270.716 459.188C288.384 456.851 305.905 453.603 322.018 449.996C393.542 433.991 472.927 400.197 543.403 322.034C545.401 319.882 555.783 307.658 557.731 305.311C560.351 302.104 562.955 298.835 565.558 295.495" stroke="#B2ABA5" stroke-width="2" stroke-linecap="round" stroke-linejoin="round"/>
<path d="M154.145 464.946C189.661 463.768 226.39 461.237 264.068 454.648C280.246 451.82 296.391 448.244 311.849 444.063C379.87 425.691 451.869 390.677 516.549 318.314C517.548 317.249 529.043 303.641 530.025 302.473C537.066 293.814 544.009 284.664 550.838 275.001" stroke="#B2ABA5" stroke-width="2" stroke-linecap="round" stroke-linejoin="round"/>
<path d="M154.145 464.946C163.183 464.106 172.304 463.194 181.507 462.139H181.539C209.949 458.901 239.031 454.413 268.342 447.26C343.845 428.837 420.61 392.717 489.694 314.605L502.319 299.624C513.88 285.32 525.211 269.683 536.182 252.581" stroke="#B2ABA5" stroke-width="2" stroke-linecap="round" stroke-linejoin="round"/>
<path d="M816.714 463.512C814.994 463.122 813.275 462.733 811.572 462.323C809.853 461.924 808.15 461.514 806.463 461.083C804.76 460.663 803.09 460.233 801.403 459.792C799.733 459.352 798.047 458.901 796.393 458.44C794.722 457.989 793.069 457.517 791.431 457.036C789.777 456.565 788.14 456.073 786.502 455.581H786.486C784.849 455.089 783.227 454.577 781.606 454.064C730.272 437.71 676.399 409.388 625.506 362.314C620.496 357.673 615.502 352.846 610.556 347.836C610.442 347.723 610.344 347.61 610.229 347.487C605.431 342.415 600.437 337.036 595.328 331.41C592.102 327.875 588.844 324.237 585.552 320.518C583.8 318.448 582.048 316.358 580.312 314.236C575.334 308.191 570.422 301.961 565.559 295.495C560.581 288.906 555.685 282.082 550.838 275.001C546.728 269.007 542.667 262.818 538.655 256.455C537.836 255.153 537.018 253.862 536.183 252.581C536.183 252.571 536.183 252.551 536.166 252.54C525.195 235.449 513.864 219.822 502.32 205.528L489.695 190.547C426.57 119.178 356.913 82.925 287.664 63.1897" stroke="#B2ABA5" stroke-width="2" stroke-miterlimit="10" stroke-linecap="round"/>
<path d="M850.347 456.892H850.314C828.52 452.917 807.658 447.547 788.107 440.251C751.788 426.388 715.289 406.765 680.329 379.539C675.318 375.943 668.31 369.508 663.348 365.532C656.258 359.373 649.217 352.856 642.241 345.96C640.063 343.819 637.902 341.646 635.757 339.433C632.777 336.349 629.747 333.244 626.816 330.047L626.276 329.463C621.462 324.176 616.533 318.653 611.539 312.925C608.395 309.318 605.234 305.629 602.058 301.879C600.06 299.512 598.062 297.124 596.097 294.716C590.841 288.343 585.683 281.815 580.574 275.124C575.318 268.259 570.127 261.219 564.969 254.016C561.252 248.841 557.551 243.585 553.867 238.225C552.426 236.125 550.969 234.055 549.511 232.006C538.18 216.113 526.423 201.634 514.551 188.416C513.503 187.709 501.943 174.552 500.895 173.917C452.737 125.306 406.184 95.5797 356.421 76.3362C340.194 70.055 323.459 64.6651 306.609 60.218" stroke="#B2ABA5" stroke-width="2" stroke-miterlimit="10" stroke-linecap="round"/>
<path d="M878.773 453.849C878.773 453.849 824.704 440.989 794.623 426.449C760.236 409.829 724.982 389.581 692.92 362.284C688.925 359.404 680.918 351.063 676.938 347.877C670.601 341.872 664.297 335.56 658.058 328.92C655.684 326.399 653.326 323.827 650.968 321.214C648.168 318.089 645.319 314.954 642.568 311.746C642.372 311.531 642.191 311.306 641.995 311.08C637.083 305.352 632.072 299.45 627.012 293.415C624.212 290.064 621.379 286.672 618.546 283.25C616.041 280.227 613.552 277.184 611.096 274.12C605.643 267.398 600.239 260.604 594.885 253.729C589.498 246.822 584.127 239.834 578.756 232.774C575.546 228.542 572.321 224.279 569.095 219.996C567.179 217.445 565.247 214.945 563.298 212.475C551.459 197.392 539.162 183.743 526.783 171.314C524.703 169.889 514.19 158.556 512.095 157.276C460.121 110.202 413.191 82.9453 361.922 66.5401C350.362 62.841 338.343 59.4391 326.078 56.447" stroke="#B2ABA5" stroke-width="2" stroke-miterlimit="10" stroke-linecap="round"/>
<path d="M349.609 52.9939C355.684 54.3567 361.628 55.7913 367.376 57.2668C420.282 70.7926 467.507 95.098 523.296 140.645C526.44 142.551 535.888 152.07 539.015 154.212C552.099 166.098 565.117 179.235 577.676 193.857C579.919 196.449 582.13 199.083 584.324 201.767C587.271 205.364 590.203 208.95 593.117 212.557C598.423 219.074 603.679 225.612 608.952 232.17C614.388 238.932 619.841 245.726 625.31 252.53C625.31 252.53 625.343 252.561 625.343 252.581C628.568 256.588 631.811 260.604 635.053 264.621C637.296 267.388 639.523 270.144 641.734 272.89C647.088 279.51 652.377 286.078 657.568 292.533C657.617 292.585 657.65 292.646 657.699 292.697C660.483 296.161 663.348 299.573 666.181 302.995C668.473 305.762 670.766 308.477 673.091 311.142C678.839 317.802 684.668 324.155 690.53 330.231C693.51 332.619 702.533 342.866 705.529 345.028C734.676 372.397 766.82 394.827 801.125 412.636C835.741 429.974 865.281 443.377 908.133 451.595H908.15" stroke="#B2ABA5" stroke-width="2" stroke-miterlimit="10" stroke-linecap="round"/>
<path d="M286.814 442.168C73.7793 399.408 77.4473 259.027 77.7256 253.053C77.4473 246.782 74.0577 106.667 285.504 63.6303L287.665 63.1897L301.78 60.3001L303.483 59.9517C308.085 59.0705 312.932 58.1892 317.975 57.3285C324.427 56.2218 331.206 55.1459 338.247 54.1417H338.263C346.909 52.9019 355.948 51.7645 365.232 50.8115C377.955 49.5102 391.17 48.5367 404.499 48.1064H404.515C420.595 47.5838 436.871 47.8502 452.689 49.2438C452.689 49.2438 452.739 49.2438 452.755 49.2438C458.191 49.7254 463.579 50.3402 468.884 51.0984V51.0779" stroke="#B2ABA5" stroke-width="2" stroke-miterlimit="10" stroke-linecap="round"/>
<path d="M452.771 49.2539C452.771 49.2539 452.722 49.2539 452.705 49.2539C433.743 46.7844 413.995 45.852 394.362 45.9954H394.346C379.592 46.1184 364.904 46.8357 350.658 47.9935H350.642C341.046 48.7621 331.647 49.7253 322.559 50.8217H322.543C315.371 51.6824 308.395 52.6353 301.682 53.6395C296.032 54.4798 290.563 55.361 285.323 56.2627H285.307C284.93 56.3344 284.57 56.3959 284.193 56.4574C283.424 56.5599 276.759 57.8817 271.601 58.8961C268.539 59.5007 266.017 60.0028 265.559 60.0745C191.791 74.625 140.669 101.113 107.167 131.526C93.019 144.436 82.1298 157.911 73.8442 171.14C49.6752 210.037 48.2015 245.829 48.4635 253.729C48.8073 264.642 50.9852 320.989 102.762 371.475C136.166 403.824 190.727 432.095 268.343 447.271L268.49 447.301" stroke="#B2ABA5" stroke-width="2" stroke-miterlimit="10" stroke-linecap="round"/>
<path d="M250.151 451.082C172.257 436.306 111.736 408.281 75.7608 373.708C25.7689 325.671 19.9068 271.087 19.1863 253.063C18.6787 240.387 22.5267 204.944 45.9261 168.065C54.6538 154.294 66.1816 140.522 80.8697 127.457C117.14 95.4463 171.766 69.2862 245.599 55.1661C246.401 55.0329 248.481 54.6435 251.035 54.1619C255.358 53.3422 260.975 52.2765 263.66 51.8154H263.677C264.201 51.7232 264.61 51.6617 264.888 51.6207C269.572 50.8727 274.369 50.1452 279.282 49.4484H279.314C286.028 48.5057 292.938 47.6245 300.012 46.8252C309.231 45.78 318.712 44.8886 328.373 44.1713C343.143 43.0749 358.322 42.4089 373.583 42.3166C406.071 42.1219 438.918 44.5607 468.884 51.0981" stroke="#B2ABA5" stroke-width="2" stroke-miterlimit="10" stroke-linecap="round"/>
<path d="M468.9 51.0985C431.942 41.9276 390.433 38.6076 349.611 39.0072C349.594 39.0072 349.561 39.0072 349.545 39.0072C334.284 39.1507 319.104 39.8167 304.302 40.9131C304.285 40.9029 304.269 40.9029 304.253 40.9131C294.444 41.6202 284.8 42.5219 275.4 43.567C268.687 44.3048 262.104 45.1246 255.669 46.016C255.669 46.016 255.669 46.016 255.636 46.016C252.247 46.4771 248.906 46.9587 245.599 47.4608C244.665 47.5838 243.175 47.8297 241.39 48.1371C238.001 48.7109 233.563 49.5204 230.124 50.1455C228.225 50.4836 226.62 50.7808 225.654 50.9345C151.755 64.6037 93.6251 90.4462 54.5879 124.056C39.3594 137.264 27.2258 151.353 18.0069 165.658C-4.49195 200.538 -10.829 235.613 -10.0921 253.063C-9.01136 278.209 0.731571 330.949 48.7749 376.609C87.4028 413.333 150.331 440.59 228.422 454.956" stroke="#B2ABA5" stroke-width="2" stroke-miterlimit="10" stroke-linecap="round"/>
<path d="M468.9 51.0984C423.198 38.5563 370.455 34.4268 319.219 35.595C319.203 35.595 319.186 35.595 319.186 35.595C303.237 35.9536 287.436 36.8246 272.06 38.1157H272.044C262.808 38.8944 253.72 39.8166 244.845 40.8721C238.983 41.5688 233.219 42.3169 227.554 43.1264H227.537C227.111 43.1878 226.702 43.2391 226.293 43.3006C223.853 43.6285 219.939 44.2638 216.026 44.9298C212.735 45.4934 209.443 46.0672 207.036 46.4771H207.02C206.545 46.559 206.103 46.6308 205.71 46.7025C131.745 59.9311 70.0947 85.4457 28.2901 120.654C12.5377 134.016 -0.201809 148.423 -9.91199 163.25C-31.4774 196.152 -40.3853 230.838 -39.3537 253.073C-37.9618 285.32 -24.2562 336.206 21.773 379.509C63.1191 418.385 128.405 444.863 206.676 458.829" stroke="#B2ABA5" stroke-width="2" stroke-miterlimit="10" stroke-linecap="round"/>
<path d="M181.541 462.139H181.508C103.057 448.552 38.9338 423.375 -5.21231 382.409C-49.1292 341.421 -66.8466 292.442 -68.6151 253.073C-69.8759 226.073 -58.3809 191.787 -37.8307 160.842C-27.5637 145.492 -14.3003 130.767 1.99255 117.252C45.7293 81.1523 109.23 56.2218 181.508 43.2288C182.916 42.9624 184.325 42.7165 185.749 42.4706C186.077 42.4193 186.421 42.3578 186.764 42.2964C188.942 41.9377 191.431 41.5279 194.002 41.1077C197.801 40.4827 201.764 39.8576 205.12 39.3863C205.775 39.294 206.398 39.2121 207.004 39.1301C213.128 38.2899 219.35 37.5111 225.654 36.8041C239.966 35.1748 254.703 33.9042 269.669 33.0332C337.002 29.0882 409.034 33.2689 468.9 51.0881" stroke="#B2ABA5" stroke-width="2" stroke-miterlimit="10" stroke-linecap="round"/>
<path d="M468.916 51.0881C443.437 42.9624 415.747 37.1832 387.01 33.4226C356.176 29.3853 324.131 27.6536 292.282 27.8278C256.504 28.002 220.971 30.5842 187.73 34.9698C181.327 35.8203 174.941 36.7528 168.588 37.7775C167.72 37.9209 166.869 38.0644 166.001 38.2078C91.8399 50.5347 23.099 75.4242 -24.273 113.85C-41.1061 127.509 -54.9755 142.561 -65.7337 158.434C-85.3833 187.391 -99.3673 221.298 -97.8935 253.073C-95.7157 299.563 -74.1666 346.698 -32.1983 385.318C14.6333 428.427 77.7577 452.25 156.405 465.438" stroke="#B2ABA5" stroke-width="2" stroke-miterlimit="10" stroke-linecap="round"/>
</g>
</g>
</svg>
