<svg width="1440" height="611" viewBox="0 0 1440 611" fill="none" xmlns="http://www.w3.org/2000/svg">
<mask id="mask0_1754_7855" style="mask-type:alpha" maskUnits="userSpaceOnUse" x="0" y="-23" width="1440" height="634">
<rect y="-23" width="1440" height="634" fill="#F9F4F1"/>
</mask>
<g mask="url(#mask0_1754_7855)">
<g opacity="0.2">
<g opacity="0.8">
<path d="M525.643 890.222C406.392 924.381 272.146 885.654 185.255 830.966C117.67 788.432 72.4951 733.118 46.6503 675.176C-15.8414 535.017 31.9157 367.507 195.56 261.089C260.776 218.674 342.882 188.262 431.787 170.033C496.458 156.776 562.764 145.683 630.917 143.22C686.515 141.204 748.202 140.159 802.592 148.4" stroke="#B2ABA5" stroke-width="2" stroke-miterlimit="10" stroke-linecap="round"/>
<path d="M800.001 147.789C718.501 134.554 641.578 132.097 561.462 137.964C482.625 143.727 403.527 156.597 336.416 174.572C241.328 200.042 152.944 242.8 90.5236 295.039C85.7621 299.025 81.119 303.071 76.6418 307.191C48.8071 332.781 27.3922 359.475 11.0705 385.691C-36.4734 462.758 -39.3872 533.688 -38.8661 549.335C-38.1791 570.953 -33.915 682.611 67.9716 782.654C118.927 832.698 193.216 874.71 276.885 902.106C325.732 918.096 396.776 928.069 452.113 917.051" stroke="#B2ABA5" stroke-width="2" stroke-miterlimit="10" stroke-linecap="round"/>
<path d="M382.23 936.235C272.337 942.341 86.6619 857.004 15.879 788.507C-82.478 693.316 -94.0146 585.166 -95.4359 549.454C-96.4308 524.343 -88.874 454.114 -42.8225 381.033C-25.6479 353.742 -2.97751 326.451 25.9231 300.563C97.2746 237.127 207.974 181.23 353.259 153.252C435.081 137.188 519.011 128.604 605.097 127.797C669.01 127.409 743.5 136.13 802.545 148.415" stroke="#B2ABA5" stroke-width="2" stroke-miterlimit="10" stroke-linecap="round"/>
<path d="M802.546 148.401C712.622 123.543 598.891 112.151 498.094 114.466C498.071 114.451 498.023 114.466 498.023 114.466C421.816 116.377 347.74 123.304 274.754 136.472C129.232 162.688 4.72233 217.301 -77.5261 287.067C-108.511 313.537 -133.574 342.097 -152.691 371.464C-195.119 436.661 -212.648 505.382 -210.611 549.454C-207.863 613.353 -180.905 714.188 -90.3418 799.988C-8.99363 877.025 119.448 929.487 273.451 957.167" stroke="#B2ABA5" stroke-width="2" stroke-miterlimit="10" stroke-linecap="round"/>
<path d="M223.915 963.721C69.5575 936.803 -56.5867 886.908 -143.454 805.736C-229.848 724.519 -264.719 627.461 -268.201 549.454C-270.688 495.946 -248.065 428.017 -207.628 366.701C-187.421 336.289 -161.34 307.102 -129.288 280.333C-50.3091 214.359 67.3308 162.822 191.011 136.785C331.132 107.299 481.889 98.64 627.909 113.361C687.866 119.407 747 132.034 802.544 148.385" stroke="#B2ABA5" stroke-width="2" stroke-miterlimit="10" stroke-linecap="round"/>
<path d="M802.545 148.385C752.916 132.426 692.343 115.869 637.906 109.359C582.71 102.761 529.623 98.7892 473.504 98.3712C317.488 97.2067 166.186 114.391 28.4575 162.121C-52.109 190.054 -124.692 227.632 -180.977 273.6C-214.095 300.667 -241.385 330.497 -262.539 361.938C-301.176 419.313 -328.702 486.496 -325.789 549.469C-321.501 641.585 -279.098 734.984 -196.541 811.513C-104.391 896.926 17.7974 944.133 172.534 970.275" stroke="#B2ABA5" stroke-width="2" stroke-miterlimit="10" stroke-linecap="round"/>
<path d="M802.545 148.401C729.5 130.458 638.214 120.437 557.884 121.229C527.847 121.512 497.904 122.826 468.742 125.006C468.719 124.991 468.671 124.991 468.648 125.006C436.17 127.395 404.474 130.769 373.062 135.113C353.874 137.532 332.886 141.458 314.005 144.862C168.602 171.944 51.0095 227.214 -25.7904 293.815C-55.757 319.986 -79.6356 347.905 -97.7577 376.256C-142.033 445.365 -154.493 514.877 -153.048 549.454C-150.916 599.274 -131.752 703.782 -37.2322 794.255C38.7623 867.022 162.585 921.037 316.209 949.493" stroke="#B2ABA5" stroke-width="2" stroke-miterlimit="10" stroke-linecap="round"/>
<path d="M165.854 969.23C235.902 966.886 308.319 961.87 382.608 948.777C414.518 943.163 446.356 936.057 476.82 927.756C610.947 891.268 752.939 821.726 880.481 678.013C882.447 675.893 905.118 648.871 907.06 646.557C920.942 629.358 934.634 611.188 948.09 592.004" stroke="#B2ABA5" stroke-width="2" stroke-linecap="round" stroke-linejoin="round"/>
<path d="M165.854 969.23C183.668 967.557 201.671 965.751 219.817 963.661H219.888C275.913 957.226 333.264 948.313 391.065 934.115C539.951 897.523 691.324 825.786 827.56 670.667L852.457 640.913C875.246 612.502 897.608 581.448 919.237 547.483" stroke="#B2ABA5" stroke-width="2" stroke-linecap="round" stroke-linejoin="round"/>
<path d="M919.187 547.394C919.187 547.394 919.164 547.452 919.117 547.466" stroke="#B2ABA5" stroke-width="2" stroke-linecap="round" stroke-linejoin="round"/>
<path d="M1096.79 327.242C1269.17 166.196 1457.81 116.884 1612.9 108.255C1649.55 104.821 1695.27 101.566 1741.86 101.133C1839.63 100.237 1934.19 108.703 2023.5 125.498" stroke="#B2ABA5" stroke-width="2" stroke-linecap="round" stroke-linejoin="round"/>
<path d="M1126.85 356.668C1293.59 189.442 1478.96 136.606 1632.92 120.034C1668.5 116.182 1711.28 111.643 1754.96 110.15C1848.01 106.911 1938.01 112.524 2023.48 125.498" stroke="#B2ABA5" stroke-width="2" stroke-linecap="round" stroke-linejoin="round"/>
<path d="M1156.43 388.394C1317.4 213.508 1499.02 153.924 1652.98 131.829C1687.33 126.887 1727.34 121.736 1768.06 119.153C1856.47 113.555 1941.92 116.361 2023.5 125.498" stroke="#B2ABA5" stroke-width="2" stroke-linecap="round" stroke-linejoin="round"/>
<path d="M1186.12 421.358C1193.41 412.744 1199.83 406.16 1203.53 402.159C1354 235.395 1524.94 170.66 1673.02 143.608C1706.09 137.561 1743.38 131.769 1781.16 128.141C1864.86 120.124 1945.75 120.183 2023.5 125.498" stroke="#B2ABA5" stroke-width="2" stroke-linecap="round" stroke-linejoin="round"/>
<path d="M1214.07 460.324C1219.14 453.755 1223.17 449.038 1228.26 442.722C1232.1 438.064 1252.56 413.789 1256.47 409.504C1395.48 254.266 1551.99 187.157 1693.06 155.372C1724.83 148.206 1759.39 141.757 1794.24 137.113C1873.24 126.618 1949.59 123.99 2023.5 125.468" stroke="#B2ABA5" stroke-width="2" stroke-linecap="round" stroke-linejoin="round"/>
<path d="M1243.02 501.112C1256.45 481.957 1269.05 465.55 1282.91 448.366C1284.81 446.051 1307.52 419.014 1309.49 416.909C1437.03 273.197 1578.98 203.655 1713.13 167.167C1743.61 158.866 1775.45 151.759 1807.39 146.146C1881.67 133.067 1953.5 127.827 2023.52 125.483" stroke="#B2ABA5" stroke-width="2" stroke-linecap="round" stroke-linejoin="round"/>
<path d="M1271.87 545.692C1293.5 511.742 1314.72 482.405 1337.54 454.024L1362.43 424.269C1522.36 242.158 1702.77 174.84 1875.78 144.489H1875.8C1891.27 141.741 1906.64 139.338 1921.97 137.143C1938.62 134.784 1955.23 132.679 1971.69 130.813C1989.1 128.812 2006.37 127.066 2023.48 125.483" stroke="#B2ABA5" stroke-width="2" stroke-linecap="round" stroke-linejoin="round"/>
<path d="M1866.28 895.388C1671.36 947.895 1450.16 783.893 1337.47 639.912C1292.96 586.584 1256.02 519.057 1214.09 462.534C1129.13 333.641 975.5 204.195 793 145.268" stroke="#B2ABA5" stroke-width="2" stroke-miterlimit="10" stroke-linecap="round"/>
<path d="M1767 923.29C1585.05 919.337 1462.49 816.996 1341.19 703.185C1280.32 643.191 1229.73 563.15 1181.38 498.503C1088.74 374.687 897.681 177.809 693 141.802" stroke="#B2ABA5" stroke-width="2" stroke-miterlimit="10" stroke-linecap="round"/>
<path d="M1702.25 935.145C1537.38 921.335 1444.52 844.209 1318.14 735.895C1240.29 666.069 1186.4 582.553 1124.05 505.128C1026.36 375.136 825.082 182.178 630.5 143.062" stroke="#B2ABA5" stroke-width="2" stroke-miterlimit="10" stroke-linecap="round"/>
<path d="M1635.12 945.491C1511.25 943.072 1365.16 832.519 1264.98 741.971C1202.51 686.955 1139.5 602.155 1091.76 542.87C1040.69 479.404 988.978 409.205 925.467 352.457C825.239 261.895 661.577 152.17 555 149.05" stroke="#B2ABA5" stroke-width="2" stroke-miterlimit="10" stroke-linecap="round"/>
<path d="M1558.77 951.717C1346.35 912.452 1164.23 719.397 1066.39 589.316C1004.54 512.637 949.889 427.971 872.284 358.564C745.453 249.981 654.416 173.855 488.924 159.776" stroke="#B2ABA5" stroke-width="2" stroke-miterlimit="10" stroke-linecap="round"/>
<path d="M1507.06 954.793C1282.7 920.007 1103.58 721.443 1010.16 596.512C959.034 528.344 912.983 453.949 850.183 391.663C727.9 277.258 606.306 176.502 423 172.053" stroke="#B2ABA5" stroke-width="2" stroke-miterlimit="10" stroke-linecap="round"/>
<path d="M1565.21 982.233C1339.65 974.141 1090.48 804.556 976.375 631.91C934.256 575.55 897.585 507.77 853.002 454.546C740.313 310.595 517.39 147.261 322.5 199.783" stroke="#B2ABA5" stroke-width="2" stroke-miterlimit="10" stroke-linecap="round"/>
<path d="M1665.04 204.491C1784.29 170.332 1918.54 209.059 2005.43 263.747C2073.01 306.281 2118.19 361.595 2144.03 419.537C2206.52 559.696 2158.77 727.206 1995.12 833.624C1929.91 876.039 1847.8 906.451 1758.89 924.68C1694.22 937.937 1627.92 949.03 1559.76 951.493C1504.17 953.509 1442.48 954.554 1388.09 946.313" stroke="#B2ABA5" stroke-width="2" stroke-miterlimit="10" stroke-linecap="round"/>
<path d="M1397.66 949.313C1477.99 960.6 1549.1 962.615 1629.22 956.748C1708.06 950.985 1787.16 938.116 1854.27 920.141C1949.35 894.671 2037.74 851.913 2100.16 799.674C2104.92 795.688 2109.56 791.642 2114.04 787.521C2141.88 761.932 2163.29 735.238 2179.61 709.021C2227.16 631.955 2230.07 561.024 2229.55 545.378C2228.86 523.76 2224.6 412.101 2122.71 312.058C2071.76 262.014 1997.47 220.002 1913.8 192.606C1864.95 176.617 1793.91 166.644 1738.57 177.662" stroke="#B2ABA5" stroke-width="2" stroke-miterlimit="10" stroke-linecap="round"/>
<path d="M1808.45 158.478C1918.35 152.371 2104.02 237.709 2174.8 306.206C2273.16 401.397 2284.7 509.547 2286.12 545.259C2287.11 570.37 2279.56 640.599 2233.5 713.68C2216.33 740.971 2193.66 768.262 2164.76 794.15C2093.41 857.586 1982.71 913.482 1837.42 941.461C1755.6 957.525 1671.67 966.109 1585.58 966.915C1521.67 967.304 1447.08 959.257 1388.14 946.298" stroke="#B2ABA5" stroke-width="2" stroke-miterlimit="10" stroke-linecap="round"/>
<path d="M1388.14 946.298C1478.06 971.156 1591.79 982.547 1692.59 980.233C1692.61 980.248 1692.66 980.233 1692.66 980.233C1768.87 978.322 1842.94 971.394 1915.93 958.226C2061.45 932.01 2185.96 877.398 2268.21 807.632C2299.19 781.161 2324.26 752.601 2343.37 723.235C2385.8 658.037 2403.33 589.316 2401.29 545.244C2398.55 481.345 2371.59 380.511 2281.02 294.71C2199.68 217.674 2071.23 165.211 1917.23 137.531" stroke="#B2ABA5" stroke-width="2" stroke-miterlimit="10" stroke-linecap="round"/>
<path d="M1966.77 130.977C2121.12 157.895 2247.27 207.79 2334.14 288.962C2420.53 370.179 2455.4 467.237 2458.88 545.244C2461.37 598.752 2438.75 666.681 2398.31 727.997C2378.1 758.409 2352.02 787.596 2319.97 814.365C2241.01 880.339 2123.37 931.876 1999.69 957.913C1859.57 987.399 1708.82 996.058 1562.8 981.337C1502.84 975.291 1443.81 961.69 1388.16 946.313" stroke="#B2ABA5" stroke-width="2" stroke-miterlimit="10" stroke-linecap="round"/>
<path d="M1388.14 946.328C1437.77 962.287 1498.34 978.844 1552.78 985.354C1607.97 991.952 1661.06 995.924 1717.18 996.342C1873.19 997.506 2024.5 980.322 2162.22 932.592C2242.79 904.659 2315.37 867.081 2371.66 821.113C2404.78 794.046 2432.07 764.216 2453.22 732.775C2491.86 675.4 2519.36 608.217 2516.47 545.244C2512.18 453.128 2469.78 359.729 2387.22 283.2C2295.07 197.787 2172.88 150.58 2018.15 124.438" stroke="#B2ABA5" stroke-width="2" stroke-miterlimit="10" stroke-linecap="round"/>
<path d="M1388.14 946.298C1460.84 964.467 1552.47 974.261 1632.8 973.47C1662.84 973.186 1692.78 971.872 1721.94 969.692C1721.96 969.707 1722.01 969.707 1722.03 969.692C1754.51 967.304 1786.21 963.93 1817.62 959.585C1836.81 957.167 1857.8 953.24 1876.68 949.836C2022.08 922.754 2139.67 867.484 2216.47 800.883C2246.44 774.712 2270.32 746.794 2288.44 718.442C2332.71 649.333 2345.17 579.821 2343.73 545.244C2341.6 495.424 2322.43 390.917 2227.91 300.443C2151.92 227.676 2028.1 173.661 1874.47 145.205" stroke="#B2ABA5" stroke-width="2" stroke-miterlimit="10" stroke-linecap="round"/>
</g>
</g>
</g>
</svg>
