<svg width="27" height="26" viewBox="0 0 27 26" fill="none" xmlns="http://www.w3.org/2000/svg">
<ellipse cx="13.6571" cy="12.951" rx="12.951" ry="12.951" fill="#4A5C76"/>
<g clip-path="url(#clip0_1774_766)">
<path d="M13.7061 7.26175C15.5751 7.26175 15.7967 7.26875 16.5352 7.30258C18.4322 7.38892 19.3183 8.289 19.4046 10.172C19.4385 10.9099 19.4449 11.1316 19.4449 13.0006C19.4449 14.8702 19.4379 15.0912 19.4046 15.8292C19.3177 17.7104 18.434 18.6122 16.5352 18.6986C15.7967 18.7324 15.5762 18.7394 13.7061 18.7394C11.8371 18.7394 11.6154 18.7324 10.8775 18.6986C8.9758 18.6117 8.09439 17.7075 8.00805 15.8286C7.97422 15.0907 7.96722 14.8696 7.96722 13C7.96722 11.131 7.9748 10.9099 8.00805 10.1714C8.09497 8.289 8.97872 7.38833 10.8775 7.302C11.616 7.26875 11.8371 7.26175 13.7061 7.26175ZM13.7061 6C11.805 6 11.567 6.00817 10.8203 6.042C8.27814 6.15867 6.8653 7.56917 6.74864 10.1137C6.71422 10.8609 6.70605 11.0989 6.70605 13C6.70605 14.9011 6.71422 15.1397 6.74805 15.8863C6.86472 18.4285 8.27522 19.8413 10.8197 19.958C11.567 19.9918 11.805 20 13.7061 20C15.6071 20 15.8457 19.9918 16.5924 19.958C19.1322 19.8413 20.5486 18.4308 20.6635 15.8863C20.6979 15.1397 20.7061 14.9011 20.7061 13C20.7061 11.0989 20.6979 10.8609 20.6641 10.1142C20.5497 7.57442 19.1375 6.15925 16.593 6.04258C15.8457 6.00817 15.6071 6 13.7061 6V6ZM13.7061 9.4055C11.721 9.4055 10.1116 11.0149 10.1116 13C10.1116 14.9851 11.721 16.5951 13.7061 16.5951C15.6911 16.5951 17.3006 14.9857 17.3006 13C17.3006 11.0149 15.6911 9.4055 13.7061 9.4055ZM13.7061 15.3333C12.4175 15.3333 11.3727 14.2892 11.3727 13C11.3727 11.7114 12.4175 10.6667 13.7061 10.6667C14.9946 10.6667 16.0394 11.7114 16.0394 13C16.0394 14.2892 14.9946 15.3333 13.7061 15.3333ZM17.4429 8.42375C16.9786 8.42375 16.6023 8.8 16.6023 9.26375C16.6023 9.7275 16.9786 10.1037 17.4429 10.1037C17.9066 10.1037 18.2823 9.7275 18.2823 9.26375C18.2823 8.8 17.9066 8.42375 17.4429 8.42375Z" fill="white"/>
</g>
<defs>
<clipPath id="clip0_1774_766">
<rect width="15" height="15" fill="white" transform="translate(5.70605 6)"/>
</clipPath>
</defs>
</svg>
