<svg width="1237" height="907" viewBox="0 0 1237 907" fill="none" xmlns="http://www.w3.org/2000/svg">
<path d="M318.562 880.799C375.584 897.792 436.381 906.598 498.807 905.691C528.586 905.257 557.788 901.958 581.195 898.493C680.309 889.728 802.046 837.697 912.214 674.239" stroke="url(#paint0_linear_1752_6628)" stroke-width="2" stroke-linecap="round" stroke-linejoin="round"/>
<path d="M318.562 880.799C373.13 893.915 431.019 899.834 490.454 896.555C518.357 895.029 545.682 890.43 568.388 886.532C666.822 869.724 786.435 814.145 892.973 644.398" stroke="url(#paint1_linear_1752_6628)" stroke-width="2" stroke-linecap="round" stroke-linejoin="round"/>
<path d="M318.562 880.799C370.676 890.058 425.636 893.111 482.081 887.439C508.107 884.82 533.659 879.603 555.602 874.591C654.035 852.174 771.339 789.707 874.206 612.041" stroke="url(#paint2_linear_1752_6628)" stroke-width="2" stroke-linecap="round" stroke-linejoin="round"/>
<path d="M855.295 577.456C850.593 586.262 845.024 596.532 842.653 600.636C746.55 769.641 637.372 835.243 542.795 862.651C521.657 868.776 497.858 874.653 473.729 878.324C420.274 886.449 368.222 886.181 318.562 880.799" stroke="url(#paint3_linear_1752_6628)" stroke-width="2" stroke-linecap="round" stroke-linejoin="round"/>
<path d="M318.562 880.799C365.747 882.304 414.892 879.85 465.377 869.209C487.629 864.507 509.695 857.969 529.988 850.71C620.069 818.497 720.049 750.482 808.811 593.17C811.327 588.84 824.402 564.237 826.856 559.514C830.155 553.059 833.434 546.48 836.713 539.757" stroke="url(#paint4_linear_1752_6628)" stroke-width="2" stroke-linecap="round" stroke-linejoin="round"/>
<path d="M318.562 880.799C363.293 878.427 409.55 873.333 457.004 860.073C477.379 854.381 497.714 847.183 517.182 838.769C602.849 801.792 693.528 731.324 774.989 585.684C776.247 583.54 790.724 556.152 791.962 553.801C800.83 536.375 809.574 517.959 818.173 498.511" stroke="url(#paint5_linear_1752_6628)" stroke-width="2" stroke-linecap="round" stroke-linejoin="round"/>
<path d="M318.562 880.799C329.946 879.108 341.433 877.272 353.023 875.148H353.064C388.845 868.631 425.471 859.598 462.386 845.203C557.479 808.123 654.159 735.428 741.167 578.219L757.068 548.068C771.627 519.278 785.899 487.808 799.716 453.388" stroke="url(#paint6_linear_1752_6628)" stroke-width="2" stroke-linecap="round" stroke-linejoin="round"/>
<path d="M799.694 453.306C799.694 453.306 799.674 453.367 799.653 453.388" stroke="url(#paint7_linear_1752_6628)" stroke-width="2" stroke-linecap="round" stroke-linejoin="round"/>
<path d="M911.986 232.166C1022.07 68.9766 1143.71 17.0274 1242.76 8.28324C1266.16 4.79796 1295.37 1.49829 1325.13 1.06521C1387.57 0.157803 1447.96 8.73695 1505 25.7509" stroke="url(#paint8_linear_1752_6628)" stroke-width="2" stroke-linecap="round" stroke-linejoin="round"/>
<path d="M931.186 261.987C1037.68 92.5279 1157.21 37.011 1255.54 20.2239C1278.27 16.3262 1305.6 11.7273 1333.5 10.2012C1392.93 6.92213 1450.41 12.6141 1505 25.7509" stroke="url(#paint9_linear_1752_6628)" stroke-width="2" stroke-linecap="round" stroke-linejoin="round"/>
<path d="M950.077 294.138C1052.88 116.904 1170.02 54.5613 1268.35 32.1648C1290.29 27.1534 1315.85 21.9358 1341.85 19.3167C1398.32 13.6454 1452.89 16.4913 1505 25.751" stroke="url(#paint10_linear_1752_6628)" stroke-width="2" stroke-linecap="round" stroke-linejoin="round"/>
<path d="M968.803 329.011C973.464 320.288 978.949 310.183 981.3 306.12C1077.4 137.115 1186.58 71.5133 1281.16 44.1054C1302.28 37.9804 1326.1 32.1029 1350.22 28.432C1403.68 20.3065 1455.34 20.3684 1505 25.751" stroke="url(#paint11_linear_1752_6628)" stroke-width="2" stroke-linecap="round" stroke-linejoin="round"/>
<path d="M987.342 366.793C990.58 360.131 993.838 353.635 997.096 347.242C999.551 342.519 1012.63 317.916 1015.12 313.585C1103.9 156.274 1203.86 88.2591 1293.96 56.0461C1314.26 48.7868 1336.32 42.2493 1358.58 37.5473C1409.04 26.9059 1457.79 24.2455 1505 25.751" stroke="url(#paint12_linear_1752_6628)" stroke-width="2" stroke-linecap="round" stroke-linejoin="round"/>
<path d="M1005.82 408.121C1014.4 388.715 1023.14 370.36 1031.99 352.955C1033.21 350.604 1047.71 323.216 1048.96 321.072C1130.42 175.432 1221.08 104.964 1306.75 67.9868C1326.22 59.5726 1346.55 52.3752 1366.95 46.6833C1414.4 33.4227 1460.27 28.1226 1505 25.751" stroke="url(#paint13_linear_1752_6628)" stroke-width="2" stroke-linecap="round" stroke-linejoin="round"/>
<path d="M1024.24 453.368C1024.24 453.368 1024.26 453.326 1024.26 453.306C1038.07 418.907 1052.32 387.457 1066.88 358.688L1082.78 328.537C1184.93 143.982 1300.15 75.7616 1410.65 45.0128H1410.67C1420.55 42.2287 1430.36 39.7952 1440.16 37.5679C1450.8 35.1757 1461.4 33.0515 1471.92 31.1542C1483.03 29.1331 1494.07 27.3596 1505 25.751" stroke="url(#paint14_linear_1752_6628)" stroke-width="2" stroke-linecap="round" stroke-linejoin="round"/>
<path d="M1153.03 877.911C1150.86 877.128 1148.7 876.344 1146.55 875.519C1144.39 874.715 1142.24 873.89 1140.12 873.024C1137.97 872.178 1135.87 871.312 1133.75 870.425C1131.64 869.539 1129.52 868.631 1127.44 867.703C1125.33 866.796 1123.25 865.847 1121.19 864.878C1119.1 863.929 1117.04 862.939 1114.98 861.949H1114.96C1112.9 860.959 1110.85 859.928 1108.81 858.897C1044.16 825.983 976.31 768.981 912.214 674.239C905.904 664.897 899.614 655.184 893.385 645.099C893.241 644.872 893.117 644.645 892.973 644.398C886.931 634.189 880.641 623.363 874.206 612.041C870.143 604.926 866.039 597.604 861.894 590.118C859.688 585.952 857.481 581.745 855.295 577.476C849.026 565.309 842.839 552.77 836.714 539.757C830.444 526.497 824.278 512.762 818.174 498.511C812.997 486.447 807.883 473.991 802.83 461.184C801.799 458.565 800.768 455.966 799.716 453.388C799.716 453.368 799.716 453.326 799.695 453.306C785.878 418.907 771.607 387.457 757.068 358.688L741.168 328.537C661.666 184.898 573.936 111.934 486.722 72.2144" stroke="url(#paint15_linear_1752_6628)" stroke-width="2" stroke-miterlimit="10" stroke-linecap="round"/>
<path d="M1195.39 864.589H1195.35C1167.9 856.587 1141.62 845.781 1117 831.097C1071.26 803.195 1025.29 763.702 981.259 708.906C974.949 701.668 966.122 688.717 959.873 680.715C950.944 668.32 942.076 655.204 933.29 641.325C930.548 637.015 927.825 632.643 925.124 628.188C921.37 621.981 917.555 615.732 913.864 609.298L913.183 608.122C907.12 597.481 900.912 586.365 894.622 574.837C890.663 567.577 886.683 560.153 882.682 552.605C880.166 547.841 877.65 543.036 875.175 538.19C868.555 525.362 862.059 512.225 855.624 498.759C849.005 484.941 842.467 470.773 835.971 456.275C831.289 445.861 826.629 435.281 821.988 424.495C820.174 420.268 818.338 416.102 816.503 411.977C802.232 379.991 787.424 350.851 772.473 324.247C771.153 322.824 756.593 296.344 755.273 295.066C694.621 197.231 635.99 137.403 573.317 98.6735C552.88 86.0317 531.803 75.184 510.582 66.2336" stroke="url(#paint16_linear_1752_6628)" stroke-width="2" stroke-miterlimit="10" stroke-linecap="round"/>
<path d="M1231.19 858.464C1231.19 858.464 1163.09 832.582 1125.21 803.318C1081.9 769.868 1037.5 729.117 997.119 674.177C992.087 668.382 982.002 651.595 976.991 645.181C969.01 633.096 961.07 620.393 953.213 607.029C950.222 601.956 947.253 596.779 944.283 591.521C940.756 585.231 937.168 578.92 933.703 572.465C933.456 572.032 933.229 571.578 932.982 571.124C926.795 559.596 920.484 547.717 914.112 535.57C910.585 528.827 907.017 522.001 903.449 515.112C900.294 509.029 897.159 502.904 894.066 496.737C887.199 483.209 880.393 469.536 873.649 455.698C866.864 441.798 860.1 427.733 853.336 413.524C849.294 405.007 845.231 396.427 841.168 387.807C838.755 382.672 836.322 377.64 833.868 372.67C818.957 342.313 803.469 314.843 787.878 289.827C785.259 286.961 772.019 264.152 769.38 261.574C703.922 166.832 644.817 111.975 580.247 78.9579C565.687 71.513 550.55 64.6662 535.103 58.6443" stroke="url(#paint17_linear_1752_6628)" stroke-width="2" stroke-miterlimit="10" stroke-linecap="round"/>
<path d="M564.738 51.6943C572.389 54.4372 579.875 57.3244 587.114 60.2941C653.747 87.5164 713.223 136.434 783.486 228.103C787.445 231.939 799.345 251.098 803.284 255.408C819.762 279.33 836.157 305.769 851.975 335.198C854.8 340.416 857.584 345.716 860.348 351.119C864.06 358.357 867.751 365.576 871.422 372.835C878.104 385.951 884.724 399.108 891.364 412.307C898.211 425.918 905.079 439.591 911.967 453.285C911.967 453.285 912.008 453.347 912.008 453.388C916.071 461.452 920.154 469.536 924.237 477.62C927.063 483.188 929.867 488.736 932.652 494.263C939.395 507.585 946.056 520.804 952.594 533.797C952.656 533.9 952.697 534.024 952.759 534.127C956.265 541.097 959.874 547.965 963.442 554.853C966.329 560.421 969.216 565.886 972.144 571.248C979.383 584.653 986.725 597.439 994.108 609.669C997.861 614.474 1009.22 635.097 1013 639.448C1049.71 694.532 1090.19 739.676 1133.4 775.518C1176.99 810.412 1214.2 837.387 1268.17 853.927H1268.19" stroke="url(#paint18_linear_1752_6628)" stroke-width="2" stroke-miterlimit="10" stroke-linecap="round"/>
<path d="M598.436 45.5076C665.089 67.471 725.7 109.769 797.592 194.591C802.871 199.726 813.43 215.214 818.689 220.968C836.342 244.23 853.892 270.236 870.927 299.376C873.814 304.305 876.681 309.316 879.527 314.41C883.156 320.906 886.745 327.464 890.354 334.084C896.932 346.19 903.47 358.481 909.966 370.958C916.648 383.744 923.289 396.696 929.929 409.874C934.961 419.835 939.973 429.899 945.005 440.086C946.799 443.695 948.572 447.304 950.346 450.934C957.193 464.937 963.978 479.002 970.66 493.108C971.299 494.448 971.918 495.768 972.557 497.109C975.857 504.121 979.259 511.132 982.6 518.185C985.116 523.486 987.653 528.703 990.189 533.818C997.139 547.841 1004.15 561.267 1011.25 574.115C1013.74 577.311 1026.34 601.791 1028.88 604.678C1061.92 659.927 1099.66 707.875 1141.6 747.698C1188.58 790.986 1233.46 824.642 1294.6 846.626" stroke="url(#paint19_linear_1752_6628)" stroke-width="2" stroke-miterlimit="10" stroke-linecap="round"/>
<path d="M644.116 40.063C700.953 60.0672 751.891 97.0854 811.698 161.12C818.297 167.533 827.536 179.35 834.094 186.548C853.253 209.584 872.309 235.589 890.89 265.039C893.509 269.205 896.108 273.432 898.706 277.722C902.562 284.094 906.398 290.57 910.214 297.169C916.71 308.326 923.144 319.793 929.517 331.568C936.013 343.509 942.447 355.78 948.861 368.38C954.512 379.517 960.162 390.921 965.792 402.594C966.638 404.367 967.504 406.141 968.35 407.914C974.97 421.773 981.528 435.92 988.003 450.356C989.447 453.594 990.891 456.853 992.334 460.111C995.469 467.185 998.624 474.3 1001.74 481.518C1003.66 485.931 1005.57 490.303 1007.51 494.613C1014.38 509.915 1021.33 524.558 1028.36 538.602C1029.62 540.19 1043.48 568.505 1044.76 569.949C1074.1 625.363 1109.12 676.116 1149.79 719.898C1198.15 771.023 1248.41 813.856 1314.94 841.718" stroke="url(#paint20_linear_1752_6628)" stroke-width="2" stroke-miterlimit="10" stroke-linecap="round"/>
<path d="M1336.72 834.686H1336.7C1207.93 773.168 1117.91 659.081 1060.62 535.241L1045.48 503.09C1038.32 487.251 1031.25 470.691 1024.28 453.388C1024.28 453.368 1024.28 453.326 1024.26 453.306C1023.12 450.501 1022.01 447.696 1020.9 444.871C1015.93 432.27 1010.92 420.02 1005.82 408.121C999.738 393.87 993.593 380.094 987.344 366.792C981.24 353.759 975.073 341.158 968.804 329.011C962.638 316.967 956.389 305.336 950.078 294.138C943.85 283.022 937.54 272.298 931.188 261.987C924.815 251.655 918.422 241.714 911.988 232.166C812.977 85.4336 704.665 28.6381 611.821 12.3047" stroke="url(#paint21_linear_1752_6628)" stroke-width="2" stroke-miterlimit="10" stroke-linecap="round"/>
<path d="M485.649 834.954C217.345 748.894 221.965 466.36 222.315 454.337C221.965 441.715 217.696 159.717 484 73.101L486.722 72.2142L504.499 66.3985L506.644 65.6974C512.439 63.9238 518.543 62.1502 524.895 60.4179C533.02 58.1906 541.558 56.0252 550.426 54.0042H550.447C561.336 51.5088 572.72 49.2196 584.413 47.3017C600.437 44.6826 617.08 42.7234 633.867 41.8572H633.887C654.139 40.8055 674.638 41.3417 694.56 44.1464C694.56 44.1464 694.622 44.1464 694.642 44.1464C701.489 45.1157 708.274 46.353 714.956 47.8791V47.8379" stroke="url(#paint22_linear_1752_6628)" stroke-width="2" stroke-miterlimit="10" stroke-linecap="round"/>
<path d="M694.662 44.1673C694.662 44.1673 694.601 44.1673 694.58 44.1673C670.699 39.1971 645.827 37.3204 621.1 37.6092H621.08C602.498 37.8566 584 39.3003 566.058 41.6306H566.037C553.952 43.1774 542.115 45.1159 530.669 47.3226H530.648C521.615 49.0549 512.83 50.9728 504.375 52.9939C497.26 54.685 490.372 56.4585 483.772 58.2734H483.752C483.277 58.4177 482.824 58.5415 482.349 58.6652C481.38 58.8714 472.986 61.5318 466.49 63.5735C462.634 64.7902 459.458 65.8007 458.88 65.9451C365.974 95.2297 301.589 148.54 259.395 209.749C241.576 235.734 227.862 262.853 217.427 289.477C186.987 367.762 185.131 439.798 185.461 455.698C185.894 477.662 188.637 591.067 253.847 692.676C295.918 757.783 364.634 814.682 462.386 845.224L462.572 845.286" stroke="url(#paint23_linear_1752_6628)" stroke-width="2" stroke-miterlimit="10" stroke-linecap="round"/>
<path d="M439.475 852.896C341.372 823.158 265.149 766.754 219.84 697.172C156.879 600.492 149.496 490.633 148.588 454.357C147.949 428.847 152.795 357.512 182.265 283.29C193.258 255.573 207.776 227.856 226.275 201.561C271.955 137.135 340.753 84.485 433.742 56.0666C434.752 55.7985 437.371 55.0148 440.588 54.0455C446.033 52.3957 453.107 50.2509 456.489 49.3229H456.509C457.169 49.1373 457.685 49.0135 458.036 48.9311C463.934 47.4256 469.976 45.9613 476.163 44.559H476.204C484.66 42.6617 493.363 40.8881 502.272 39.2795C513.882 37.176 525.823 35.3818 537.991 33.9382C556.593 31.7315 575.71 30.391 594.931 30.2054C635.847 29.8136 677.216 34.7218 714.956 47.8793" stroke="url(#paint24_linear_1752_6628)" stroke-width="2" stroke-miterlimit="10" stroke-linecap="round"/>
<path d="M714.976 47.8792C668.43 29.4217 616.151 22.7398 564.738 23.5441C564.718 23.5441 564.676 23.5441 564.656 23.5441C545.435 23.8329 526.318 25.1734 507.675 27.38C507.654 27.3594 507.633 27.3594 507.613 27.38C495.26 28.803 483.113 30.6178 471.275 32.7213C462.82 34.2062 454.529 35.856 446.424 37.6502C446.424 37.6502 446.424 37.6502 446.383 37.6502C442.114 38.5783 437.907 39.5475 433.741 40.5581C432.566 40.8055 430.689 41.3005 428.441 41.9192C424.172 43.0741 418.583 44.7033 414.253 45.9613C411.86 46.6418 409.839 47.2399 408.623 47.5492C315.551 75.0603 242.34 127.071 193.175 194.715C173.995 221.298 158.714 249.654 147.103 278.444C118.767 348.644 110.786 419.237 111.714 454.357C113.075 504.966 125.346 611.112 185.854 703.008C234.503 776.921 313.757 831.778 412.108 860.691" stroke="url(#paint25_linear_1752_6628)" stroke-width="2" stroke-miterlimit="10" stroke-linecap="round"/>
<path d="M714.976 47.8792C657.418 22.6367 590.991 14.3257 526.462 16.6767C526.442 16.6767 526.421 16.6767 526.421 16.6767C506.334 17.3985 486.433 19.1514 467.068 21.7499H467.047C455.416 23.3173 443.97 25.1733 432.793 27.2975C425.41 28.6999 418.15 30.2053 411.015 31.8345H410.994C410.458 31.9583 409.942 32.0614 409.427 32.1851C406.354 32.8451 401.425 34.1237 396.496 35.4642C392.351 36.5984 388.206 37.7533 385.174 38.5783H385.154C384.556 38.7432 383.999 38.8876 383.504 39.032C290.35 65.6562 212.705 117.007 160.054 187.868C140.215 214.76 124.17 243.756 111.941 273.597C84.7806 339.818 73.5617 409.626 74.8609 454.378C76.6139 519.278 93.8753 621.692 151.846 708.844C203.919 787.088 286.143 840.378 384.721 868.487" stroke="url(#paint26_linear_1752_6628)" stroke-width="2" stroke-miterlimit="10" stroke-linecap="round"/>
<path d="M353.065 875.148H353.023C254.219 847.802 173.459 797.131 117.86 714.681C62.5492 632.189 40.2352 533.611 38.0079 454.378C36.42 400.037 50.8973 331.032 76.7791 268.751C89.7097 237.858 106.414 208.223 126.934 181.021C182.018 108.366 261.994 58.1907 353.023 32.0408C354.797 31.5046 356.571 31.0097 358.365 30.5147C358.777 30.4116 359.21 30.2879 359.643 30.1641C362.386 29.4423 365.521 28.6174 368.759 27.7719C373.543 26.5139 378.534 25.2559 382.762 24.3072C383.587 24.1216 384.37 23.9566 385.133 23.7916C392.846 22.1006 400.683 20.5332 408.623 19.1102C426.647 15.8312 445.208 13.2739 464.057 11.521C548.859 3.58115 639.579 11.9953 714.977 47.8586" stroke="url(#paint27_linear_1752_6628)" stroke-width="2" stroke-miterlimit="10" stroke-linecap="round"/>
<path d="M714.997 47.8588C682.908 31.5048 648.035 19.8735 611.841 12.3048C573.008 4.1794 532.649 0.694118 492.538 1.04471C447.476 1.3953 402.725 6.59228 360.86 15.4189C352.796 17.1306 344.754 19.0073 336.752 21.0696C335.659 21.3583 334.586 21.647 333.493 21.9357C240.092 46.7451 153.517 96.8383 93.8548 174.174C72.6544 201.665 55.1868 231.96 41.6375 263.905C16.89 322.185 -0.721981 390.426 1.13408 454.378C3.87694 547.945 31.0167 642.81 83.8733 720.538C142.855 807.299 222.356 855.247 321.408 881.789" stroke="url(#paint28_linear_1752_6628)" stroke-width="2" stroke-miterlimit="10" stroke-linecap="round"/>
<defs>
<linearGradient id="paint0_linear_1752_6628" x1="615.388" y1="674.239" x2="615.388" y2="905.754" gradientUnits="userSpaceOnUse">
<stop stop-color="#B9E9F9" stop-opacity="0"/>
<stop offset="1" stop-color="#B9E9F9"/>
</linearGradient>
<linearGradient id="paint1_linear_1752_6628" x1="605.767" y1="644.398" x2="605.767" y2="897.443" gradientUnits="userSpaceOnUse">
<stop stop-color="#B9E9F9" stop-opacity="0"/>
<stop offset="1" stop-color="#B9E9F9"/>
</linearGradient>
<linearGradient id="paint2_linear_1752_6628" x1="596.384" y1="612.041" x2="596.384" y2="890.298" gradientUnits="userSpaceOnUse">
<stop stop-color="#B9E9F9" stop-opacity="0"/>
<stop offset="1" stop-color="#B9E9F9"/>
</linearGradient>
<linearGradient id="paint3_linear_1752_6628" x1="586.928" y1="577.456" x2="586.928" y2="884.661" gradientUnits="userSpaceOnUse">
<stop stop-color="#B9E9F9" stop-opacity="0"/>
<stop offset="1" stop-color="#B9E9F9"/>
</linearGradient>
<linearGradient id="paint4_linear_1752_6628" x1="577.638" y1="539.757" x2="577.638" y2="881.203" gradientUnits="userSpaceOnUse">
<stop stop-color="#B9E9F9" stop-opacity="0"/>
<stop offset="1" stop-color="#B9E9F9"/>
</linearGradient>
<linearGradient id="paint5_linear_1752_6628" x1="568.368" y1="498.511" x2="568.368" y2="880.799" gradientUnits="userSpaceOnUse">
<stop stop-color="#B9E9F9" stop-opacity="0"/>
<stop offset="1" stop-color="#B9E9F9"/>
</linearGradient>
<linearGradient id="paint6_linear_1752_6628" x1="559.139" y1="453.388" x2="559.139" y2="880.799" gradientUnits="userSpaceOnUse">
<stop stop-color="#B9E9F9" stop-opacity="0"/>
<stop offset="1" stop-color="#B9E9F9"/>
</linearGradient>
<linearGradient id="paint7_linear_1752_6628" x1="799.674" y1="453.306" x2="799.674" y2="453.388" gradientUnits="userSpaceOnUse">
<stop stop-color="#B9E9F9" stop-opacity="0"/>
<stop offset="1" stop-color="#B9E9F9"/>
</linearGradient>
<linearGradient id="paint8_linear_1752_6628" x1="1208.49" y1="1" x2="1208.49" y2="232.166" gradientUnits="userSpaceOnUse">
<stop stop-color="#B9E9F9" stop-opacity="0"/>
<stop offset="1" stop-color="#B9E9F9"/>
</linearGradient>
<linearGradient id="paint9_linear_1752_6628" x1="1218.09" y1="9.29272" x2="1218.09" y2="261.987" gradientUnits="userSpaceOnUse">
<stop stop-color="#B9E9F9" stop-opacity="0"/>
<stop offset="1" stop-color="#B9E9F9"/>
</linearGradient>
<linearGradient id="paint10_linear_1752_6628" x1="1227.54" y1="16.4016" x2="1227.54" y2="294.138" gradientUnits="userSpaceOnUse">
<stop stop-color="#B9E9F9" stop-opacity="0"/>
<stop offset="1" stop-color="#B9E9F9"/>
</linearGradient>
<linearGradient id="paint11_linear_1752_6628" x1="1236.9" y1="21.978" x2="1236.9" y2="329.011" gradientUnits="userSpaceOnUse">
<stop stop-color="#B9E9F9" stop-opacity="0"/>
<stop offset="1" stop-color="#B9E9F9"/>
</linearGradient>
<linearGradient id="paint12_linear_1752_6628" x1="1246.17" y1="25.363" x2="1246.17" y2="366.793" gradientUnits="userSpaceOnUse">
<stop stop-color="#B9E9F9" stop-opacity="0"/>
<stop offset="1" stop-color="#B9E9F9"/>
</linearGradient>
<linearGradient id="paint13_linear_1752_6628" x1="1255.41" y1="25.751" x2="1255.41" y2="408.121" gradientUnits="userSpaceOnUse">
<stop stop-color="#B9E9F9" stop-opacity="0"/>
<stop offset="1" stop-color="#B9E9F9"/>
</linearGradient>
<linearGradient id="paint14_linear_1752_6628" x1="1264.62" y1="25.751" x2="1264.62" y2="453.368" gradientUnits="userSpaceOnUse">
<stop stop-color="#B9E9F9" stop-opacity="0"/>
<stop offset="1" stop-color="#B9E9F9"/>
</linearGradient>
<linearGradient id="paint15_linear_1752_6628" x1="819.875" y1="72.2144" x2="819.875" y2="877.911" gradientUnits="userSpaceOnUse">
<stop stop-color="#B9E9F9" stop-opacity="0"/>
<stop offset="1" stop-color="#B9E9F9"/>
</linearGradient>
<linearGradient id="paint16_linear_1752_6628" x1="852.985" y1="66.2336" x2="852.985" y2="864.589" gradientUnits="userSpaceOnUse">
<stop stop-color="#B9E9F9" stop-opacity="0"/>
<stop offset="1" stop-color="#B9E9F9"/>
</linearGradient>
<linearGradient id="paint17_linear_1752_6628" x1="883.146" y1="58.6443" x2="883.146" y2="858.464" gradientUnits="userSpaceOnUse">
<stop stop-color="#B9E9F9" stop-opacity="0"/>
<stop offset="1" stop-color="#B9E9F9"/>
</linearGradient>
<linearGradient id="paint18_linear_1752_6628" x1="916.463" y1="51.6943" x2="916.463" y2="853.927" gradientUnits="userSpaceOnUse">
<stop stop-color="#B9E9F9" stop-opacity="0"/>
<stop offset="1" stop-color="#B9E9F9"/>
</linearGradient>
<linearGradient id="paint19_linear_1752_6628" x1="946.52" y1="45.5076" x2="946.52" y2="846.626" gradientUnits="userSpaceOnUse">
<stop stop-color="#B9E9F9" stop-opacity="0"/>
<stop offset="1" stop-color="#B9E9F9"/>
</linearGradient>
<linearGradient id="paint20_linear_1752_6628" x1="979.527" y1="40.063" x2="979.527" y2="841.718" gradientUnits="userSpaceOnUse">
<stop stop-color="#B9E9F9" stop-opacity="0"/>
<stop offset="1" stop-color="#B9E9F9"/>
</linearGradient>
<linearGradient id="paint21_linear_1752_6628" x1="974.269" y1="12.3047" x2="974.269" y2="834.686" gradientUnits="userSpaceOnUse">
<stop stop-color="#B9E9F9" stop-opacity="0"/>
<stop offset="1" stop-color="#B9E9F9"/>
</linearGradient>
<linearGradient id="paint22_linear_1752_6628" x1="468.61" y1="41.3572" x2="468.61" y2="834.954" gradientUnits="userSpaceOnUse">
<stop stop-color="#B9E9F9" stop-opacity="0"/>
<stop offset="1" stop-color="#B9E9F9"/>
</linearGradient>
<linearGradient id="paint23_linear_1752_6628" x1="440.047" y1="37.5806" x2="440.047" y2="845.286" gradientUnits="userSpaceOnUse">
<stop stop-color="#B9E9F9" stop-opacity="0"/>
<stop offset="1" stop-color="#B9E9F9"/>
</linearGradient>
<linearGradient id="paint24_linear_1752_6628" x1="431.746" y1="30.1838" x2="431.746" y2="852.896" gradientUnits="userSpaceOnUse">
<stop stop-color="#B9E9F9" stop-opacity="0"/>
<stop offset="1" stop-color="#B9E9F9"/>
</linearGradient>
<linearGradient id="paint25_linear_1752_6628" x1="413.31" y1="23.48" x2="413.31" y2="860.691" gradientUnits="userSpaceOnUse">
<stop stop-color="#B9E9F9" stop-opacity="0"/>
<stop offset="1" stop-color="#B9E9F9"/>
</linearGradient>
<linearGradient id="paint26_linear_1752_6628" x1="394.868" y1="16.2959" x2="394.868" y2="868.487" gradientUnits="userSpaceOnUse">
<stop stop-color="#B9E9F9" stop-opacity="0"/>
<stop offset="1" stop-color="#B9E9F9"/>
</linearGradient>
<linearGradient id="paint27_linear_1752_6628" x1="376.433" y1="8.77173" x2="376.433" y2="875.148" gradientUnits="userSpaceOnUse">
<stop stop-color="#B9E9F9" stop-opacity="0"/>
<stop offset="1" stop-color="#B9E9F9"/>
</linearGradient>
<linearGradient id="paint28_linear_1752_6628" x1="357.999" y1="1.02075" x2="357.999" y2="881.789" gradientUnits="userSpaceOnUse">
<stop stop-color="#B9E9F9" stop-opacity="0"/>
<stop offset="1" stop-color="#B9E9F9"/>
</linearGradient>
</defs>
</svg>
