<svg width="200" height="33" viewBox="0 0 200 33" fill="none" xmlns="http://www.w3.org/2000/svg">
<path d="M15.9473 19.1821V21.1931C17.3407 21.1931 17.5003 21.2629 17.9475 21.4026C18.3925 21.5422 18.6172 21.8777 18.6172 22.4092V28.4444C18.143 28.807 17.5632 29.0727 16.8822 29.2416C16.3024 29.3835 15.6237 29.4623 14.8551 29.4826C14.7158 29.4871 14.5787 29.4916 14.4348 29.4916C12.0931 29.4916 10.1896 28.4084 8.72428 26.2443C7.26125 24.0801 6.5286 21.2764 6.5286 17.84C6.5286 14.4035 7.26125 11.539 8.72428 9.41538C10.1873 7.29179 12.0908 6.23112 14.4348 6.23112C14.5337 6.23112 14.6326 6.24012 14.7315 6.24463C16.2889 6.31444 17.7317 6.93373 19.0577 8.116C20.4668 9.3726 21.7837 11.3025 23.0108 13.9013H24.8514L24.3907 4.00843H22.5501L21.3927 5.61183L21.1275 5.9789C20.1499 5.16819 19.0779 4.56917 17.907 4.17733C16.8238 3.81702 15.6394 3.62785 14.3652 3.60083C12.6212 3.65488 10.9065 4.02645 9.2232 4.7223C7.39609 5.47671 5.78697 6.53963 4.39136 7.90882C2.96877 9.27801 1.88105 10.8566 1.12818 12.6447C0.37531 14.4327 0 16.3334 0 18.3444C0 20.3554 0.361826 22.166 1.08773 23.8572C1.81138 25.5484 2.85865 27.0212 4.22505 28.28C5.53527 29.5096 7.07022 30.4532 8.82541 31.1085C10.466 31.721 12.2055 32.0453 14.0416 32.0858C15.9406 32.0453 17.925 31.6872 19.9971 31.0049C22.1995 30.2775 23.467 29.3565 24.7772 28.2372V22.4114C24.7772 21.8822 24.9997 21.5467 25.4469 21.4048C25.8919 21.2652 25.6717 21.1954 27.0673 21.1954V19.1844H15.9496L15.9473 19.1821Z" fill="#5DBDF0"/>
<path d="M92.922 27.8117C92.7827 27.5752 92.713 27.2464 92.713 26.8276V0H91.459L84.818 2.22043V3.47702L86.1979 4.23143C86.5597 4.42735 86.8114 4.64354 86.9507 4.88224C87.0901 5.1187 87.1597 5.44749 87.1597 5.86635V12.7416C86.517 12.0998 85.8338 11.6314 85.1101 11.3364C84.3842 11.0436 83.5887 10.8972 82.7257 10.8972C81.3301 10.8972 79.9929 11.1967 78.7096 11.798C77.4264 12.3993 76.3117 13.2438 75.3633 14.3337C74.4419 15.3403 73.7452 16.5136 73.271 17.8535C72.7968 19.1957 72.5586 20.6054 72.5586 22.0872C72.5586 24.8526 73.3384 27.1721 74.9004 29.0458C76.4623 30.9194 78.386 31.8539 80.6738 31.8539C81.9841 31.8539 83.2381 31.4914 84.4382 30.764C85.636 30.0366 86.544 29.1583 87.1575 28.1224V31.8539H88.4115L95.0503 30.4712V29.2146L93.6704 28.4602C93.3085 28.2643 93.0568 28.0481 92.9175 27.8094L92.922 27.8117ZM87.1552 26.2803C87.1552 26.2803 86.6136 26.8996 85.7664 27.4739C84.2876 28.4783 81.8762 29.3453 79.7906 26.5348C78.1972 24.3887 77.7343 21.1391 78.4017 18.6417C79.0265 16.3042 80.7547 13.496 83.5999 13.496C84.3797 13.496 85.0697 13.6784 85.6697 14.041C86.2698 14.4035 86.7642 14.9215 87.1552 15.5926V26.2803Z" fill="#5DBDF0"/>
<path d="M127.74 13.3497V11.0527H119.751V13.352L119.976 13.3565C121.864 13.3948 122.376 13.4443 122.376 13.7213C122.376 13.8699 122.313 14.0568 122.248 14.255C122.221 14.3361 122.194 14.4194 122.174 14.4915L118.693 24.5059L113.906 11.0527H110.995L106.393 24.4406L103.287 14.5253C103.148 14.1649 103.087 13.915 103.087 13.7213C103.087 13.4443 103.597 13.3948 105.487 13.3565L105.712 13.352V11.0527H94.5806V13.3497L94.8053 13.3542C96.5313 13.397 96.6302 13.4353 96.9178 14.1739L103.341 31.7572H106.422L111.078 18.3738L115.85 31.6064L115.904 31.7572H118.982L125.403 14.1785C125.684 13.4578 125.707 13.397 127.518 13.3542L127.743 13.3497H127.74Z" fill="#5DBDF0"/>
<path d="M147.338 27.7508C146.729 28.3453 146.183 28.611 145.565 28.611C144.947 28.611 144.589 28.1246 144.589 27.2779V16.6239C144.589 12.7573 142.016 10.6292 137.346 10.6292C132.089 10.6292 127.651 13.2212 127.651 16.2861C127.651 18.234 129.13 19.1213 130.505 19.1213C132.161 19.1213 133.316 18.0403 133.316 16.4955C133.316 16.0856 133.218 15.7591 133.13 15.4709C133.069 15.2659 133.015 15.0903 133.015 14.9371C133.015 14.1782 134.04 13.3946 135.755 13.3946C137.8 13.3946 138.796 14.4642 138.796 16.6644V18.7655C131.716 20.6549 127.006 22.81 127.006 27.1495C127.006 29.9847 129.206 31.9642 132.357 31.9642C134.708 31.9642 137.117 30.8788 139.153 28.9038C139.984 30.8788 141.553 31.9642 143.585 31.9642C145.419 31.9642 147.223 31.0544 148.664 29.4015L148.781 29.2664L147.529 27.5594L147.338 27.7463V27.7508ZM138.793 21.2133V26.9221C137.526 27.9737 136.44 28.4421 135.281 28.4421C133.75 28.4421 132.8 27.4625 132.8 25.8884C132.8 24.3143 133.53 22.6118 138.793 21.2133Z" fill="#5DBDF0"/>
<path d="M161.269 26.9402C160.19 27.9648 159.269 28.4017 158.183 28.4017C156.5 28.4017 155.574 27.4491 155.574 25.7219V13.818H161.815V11.0526H155.574V4.28101L149.738 5.97223V11.0526H146.982V13.818H149.738V26.6474C149.738 29.8295 152.235 31.9688 155.947 31.9688C158.673 31.9688 160.959 30.9622 162.939 28.8927L163.008 28.8206L161.361 26.8546L161.271 26.9402H161.269Z" fill="#5DBDF0"/>
<path d="M179.39 25.3367C177.787 27.5391 176.381 28.3588 174.198 28.3588C170.695 28.3588 168.389 25.679 168.157 21.3552H181.572V19.9928C181.572 17.34 180.821 15.0588 179.399 13.3991C177.846 11.5862 175.558 10.6292 172.78 10.6292C166.933 10.6292 162.353 15.4641 162.353 21.6345C162.353 28.4174 167.555 31.9664 172.693 31.9664C176.572 31.9664 179.882 30.0478 181.545 26.832L181.633 26.6608L179.522 25.1498L179.388 25.3344L179.39 25.3367ZM168.261 18.7993C168.679 15.4664 170.299 13.4801 172.607 13.4801C174.915 13.4801 175.945 15.2704 175.99 18.7993H168.261Z" fill="#5DBDF0"/>
<path d="M196.498 10.6315C195.341 10.6315 194.08 11.3025 192.747 12.6244C191.768 13.5973 190.936 14.739 190.361 15.6195V10.6292H189.14L181.854 12.7078V14.1535L183.655 15.0115C184.347 15.3718 184.522 15.5632 184.522 16.3289V28.6246C184.522 29.1358 184.522 29.2416 182.299 29.2416H182.07V31.5454H194.105V29.2416H193.876C190.471 29.2416 190.363 29.138 190.363 28.5818V18.6259C191.316 17.1869 192.941 15.624 193.918 15.5835C194.312 15.5835 194.602 15.8312 194.968 16.1443C195.471 16.5721 196.042 17.0585 197.06 17.0585C198.505 17.0585 200 15.9191 200 14.0116C200 11.9871 198.593 10.627 196.501 10.627" fill="#5DBDF0"/>
<path d="M59.8001 10.7915C54.903 10.7915 52.6489 12.9354 50.8758 15.113C51.6691 15.98 53.0602 18.795 53.3119 19.448C54.1682 17.8852 55.9458 15.3247 57.8269 13.9623C58.9798 13.129 60.5349 13.1223 61.6789 13.9713C63.8655 15.5927 65.6544 18.849 64.7712 23.3259C64.1667 26.3931 62.8407 28.082 61.4878 28.9783C60.3372 29.7395 58.8269 29.6877 57.7325 28.8477C56.2717 27.724 53.9726 25.4675 52.2669 20.8105C48.6396 10.9154 42.1065 10.7915 40.2547 10.7915C31.9147 10.7915 28.7662 16.2322 28.8336 21.9455C28.8965 27.179 32.8721 32.1153 40.0345 32.1153C45.082 32.1153 47.1654 29.3566 48.5632 27.7082C47.1564 25.7535 46.4237 24.1253 46.1406 23.4182C45.2304 25.0824 43.5516 27.4943 41.8121 28.8297C40.7109 29.6742 39.1872 29.7215 38.0365 28.9468C36.378 27.8276 35.061 25.9066 34.6363 23.2246C33.8677 18.3716 35.9892 15.336 38.0343 13.906C39.2456 13.0592 40.875 13.1268 42.0009 14.0861C43.3898 15.2706 45.2506 17.3987 46.5496 20.5875C48.3272 24.9541 51.6399 32.1175 59.2247 32.0703C65.3533 32.032 70.6526 28.4671 70.6526 21.3937C70.6526 14.3203 64.3105 10.7915 59.8023 10.7915H59.8001Z" fill="#5DBDF0"/>
</svg>
