<svg width="519" height="83" viewBox="0 0 519 83" fill="none" xmlns="http://www.w3.org/2000/svg">
<path d="M41.3094 49.5755V54.7728C44.9182 54.7728 45.3315 54.9532 46.4898 55.314C47.6423 55.6749 48.2244 56.5421 48.2244 57.9156V73.5134C46.9962 74.4504 45.4945 75.1372 43.7308 75.5737C42.2291 75.9404 40.4712 76.1441 38.4806 76.1964C38.1197 76.2081 37.7646 76.2197 37.3921 76.2197C31.327 76.2197 26.3968 73.4203 22.6018 67.8272C18.8125 62.2341 16.9149 54.9881 16.9149 46.1067C16.9149 37.2253 18.8125 29.8221 22.6018 24.3338C26.391 18.8455 31.3211 16.1042 37.3921 16.1042C37.6482 16.1042 37.9043 16.1275 38.1604 16.1392C42.1942 16.3196 45.931 17.9201 49.3652 20.9756C53.0148 24.2232 56.4257 29.211 59.6038 35.9274H64.371L63.1777 10.3598H58.4106L55.4129 14.5037L54.7261 15.4524C52.1941 13.3572 49.4176 11.809 46.3851 10.7963C43.5795 9.86512 40.512 9.37624 37.2117 9.3064C32.6948 9.44608 28.2536 10.4064 23.8939 12.2048C19.1617 14.1545 14.9941 16.9016 11.3795 20.4402C7.69498 23.9788 4.87777 28.0587 2.92784 32.6798C0.977913 37.3009 0.00585938 42.2131 0.00585938 47.4104C0.00585938 52.6077 0.942989 57.287 2.82307 61.6579C4.69733 66.0288 7.40977 69.8351 10.9487 73.0885C14.3422 76.2663 18.3177 78.7049 22.8637 80.3985C27.1128 81.9816 31.618 82.8197 36.3735 82.9244C41.292 82.8197 46.4316 81.8943 51.7983 80.1308C57.5026 78.2509 60.7854 75.8705 64.1789 72.9779V57.9214C64.1789 56.5537 64.7551 55.6865 65.9134 55.3199C67.0659 54.959 66.4955 54.7786 70.1102 54.7786V49.5813H41.3152L41.3094 49.5755Z" fill="white"/>
<path d="M240.674 71.8779C240.313 71.2667 240.132 70.417 240.132 69.3345V0H236.885L219.684 5.73859V8.98619L223.258 10.9359C224.195 11.4423 224.847 12.001 225.208 12.6179C225.569 13.229 225.75 14.0787 225.75 15.1613V32.93C224.085 31.2712 222.315 30.0607 220.441 29.2982C218.561 28.5416 216.501 28.1633 214.265 28.1633C210.651 28.1633 207.187 28.9374 203.864 30.4913C200.54 32.0453 197.653 34.2278 195.197 37.0447C192.81 39.6463 191.006 42.6786 189.778 46.1415C188.55 49.6103 187.933 53.2536 187.933 57.0832C187.933 64.2303 189.952 70.225 193.998 75.0673C198.043 79.9095 203.026 82.3249 208.951 82.3249C212.345 82.3249 215.593 81.3878 218.701 79.508C221.803 77.6281 224.155 75.3583 225.744 72.681V82.3249H228.992L246.186 78.7514V75.5038L242.612 73.554C241.675 73.0477 241.023 72.489 240.662 71.872L240.674 71.8779ZM225.738 67.9202C225.738 67.9202 224.335 69.5207 222.141 71.0048C218.311 73.6006 212.065 75.8413 206.664 68.5779C202.537 63.0314 201.338 54.633 203.066 48.1785C204.685 42.1373 209.161 34.8797 216.53 34.8797C218.549 34.8797 220.336 35.3511 221.89 36.2881C223.445 37.2252 224.725 38.5638 225.738 40.2982V67.9202Z" fill="white"/>
<path d="M330.853 34.5014V28.5649H310.161V34.5072L310.743 34.5189C315.632 34.6178 316.959 34.7459 316.959 35.4617C316.959 35.8458 316.796 36.3289 316.628 36.8411C316.558 37.0506 316.488 37.2659 316.436 37.4522L307.419 63.334L295.021 28.5649H287.484L275.563 63.1652L267.519 37.5395C267.158 36.6083 267.001 35.9622 267.001 35.4617C267.001 34.7459 268.322 34.6178 273.217 34.5189L273.799 34.5072V28.5649H244.969V34.5014L245.551 34.5131C250.022 34.6236 250.278 34.7226 251.023 36.6316L267.658 82.0747H275.638L287.699 47.486L300.056 81.6847L300.196 82.0747H308.17L324.8 36.6432C325.527 34.7808 325.586 34.6236 330.277 34.5131L330.859 34.5014H330.853Z" fill="white"/>
<path d="M381.61 71.7207C380.032 73.2572 378.618 73.9439 377.017 73.9439C375.417 73.9439 374.491 72.6868 374.491 70.4985V42.9637C374.491 32.9707 367.827 27.4707 355.731 27.4707C342.117 27.4707 330.621 34.1696 330.621 42.0907C330.621 47.1251 334.451 49.4182 338.013 49.4182C342.303 49.4182 345.295 46.6245 345.295 42.632C345.295 41.5727 345.039 40.7288 344.812 39.9838C344.654 39.4542 344.515 39.0003 344.515 38.6045C344.515 36.6431 347.169 34.6177 351.61 34.6177C356.907 34.6177 359.485 37.3823 359.485 43.0685V48.4986C341.15 53.3816 328.95 58.9514 328.95 70.1667C328.95 77.4942 334.649 82.61 342.809 82.61C348.898 82.61 355.137 79.8048 360.411 74.7006C362.565 79.8048 366.627 82.61 371.889 82.61C376.639 82.61 381.313 80.2587 385.044 75.9868L385.347 75.6376L382.105 71.226L381.61 71.709V71.7207ZM359.48 54.825V69.5789C356.197 72.2969 353.385 73.5074 350.382 73.5074C346.418 73.5074 343.956 70.9757 343.956 66.9075C343.956 62.8392 345.848 58.4393 359.48 54.825Z" fill="white"/>
<path d="M417.692 69.6255C414.899 72.2736 412.512 73.4027 409.701 73.4027C405.341 73.4027 402.943 70.9408 402.943 66.4768V35.712H419.107V28.5649H402.943V11.064L387.827 15.4348V28.5649H380.69V35.712H387.827V68.8689C387.827 77.0926 394.293 82.6217 403.909 82.6217C410.97 82.6217 416.889 80.0201 422.017 74.6715L422.198 74.4853L417.931 69.4043L417.698 69.6255H417.692Z" fill="white"/>
<path d="M464.625 65.4816C460.474 71.1736 456.831 73.2921 451.179 73.2921C442.104 73.2921 436.132 66.3662 435.533 55.1917H470.277V51.6705C470.277 44.8145 468.332 38.9188 464.648 34.6294C460.626 29.9442 454.7 27.4707 447.506 27.4707C432.361 27.4707 420.498 39.9664 420.498 55.9134C420.498 73.4434 433.973 82.6158 447.279 82.6158C457.325 82.6158 465.899 77.6571 470.207 69.3461L470.434 68.9038L464.968 64.9985L464.619 65.4757L464.625 65.4816ZM435.801 48.5859C436.883 39.9722 441.08 34.8389 447.058 34.8389C453.036 34.8389 455.702 39.4659 455.818 48.5859H435.801Z" fill="white"/>
<path d="M508.937 27.4765C505.94 27.4765 502.674 29.2109 499.223 32.6272C496.685 35.1415 494.531 38.0923 493.041 40.3679V27.4707H489.88L471.01 32.8426V36.5791L475.672 38.7965C477.465 39.7277 477.919 40.2224 477.919 42.2013V73.9788C477.919 75.3 477.919 75.5735 472.162 75.5735H471.569V81.5275H502.738V75.5735H502.145C493.326 75.5735 493.047 75.3058 493.047 73.8682V48.1377C495.515 44.4187 499.723 40.3796 502.255 40.2748C503.274 40.2748 504.025 40.915 504.973 41.724C506.277 42.8298 507.756 44.087 510.392 44.087C514.135 44.087 518.006 41.142 518.006 36.2124C518.006 30.9802 514.362 27.4648 508.943 27.4648" fill="white"/>
<path d="M154.889 27.8896C142.205 27.8896 136.367 33.4304 131.775 39.0584C133.829 41.2991 137.432 48.5742 138.084 50.262C140.302 46.2229 144.906 39.6054 149.778 36.0843C152.764 33.9309 156.792 33.9134 159.755 36.1076C165.418 40.298 170.051 48.7139 167.764 60.2842C166.198 68.2111 162.764 72.5761 159.26 74.8925C156.28 76.8597 152.368 76.7258 149.534 74.555C145.75 71.6507 139.796 65.819 135.378 53.7831C125.983 28.2098 109.062 27.8896 104.266 27.8896C82.6655 27.8896 74.5107 41.9509 74.6854 56.7164C74.8483 70.2423 85.1451 82.9999 103.696 82.9999C116.769 82.9999 122.165 75.8703 125.785 71.61C122.141 66.5582 120.244 62.3503 119.51 60.5228C117.153 64.8238 112.805 71.0571 108.3 74.5084C105.448 76.6909 101.501 76.8131 98.5211 74.811C94.2254 71.9185 90.8145 66.9539 89.7144 60.0222C87.7237 47.48 93.2184 39.6345 98.5152 35.9388C101.653 33.7505 105.873 33.9251 108.789 36.4044C112.386 39.4658 117.205 44.9657 120.57 53.2069C125.174 64.4921 133.754 83.0057 153.398 82.8835C169.271 82.7845 182.997 73.5714 182.997 55.2905C182.997 37.0097 166.571 27.8896 154.894 27.8896H154.889Z" fill="white"/>
</svg>
