<svg width="298" height="848" viewBox="0 0 298 848" fill="none" xmlns="http://www.w3.org/2000/svg">
<mask id="mask0_1752_6847" style="mask-type:alpha" maskUnits="userSpaceOnUse" x="0" y="0" width="298" height="848">
<rect width="298" height="848" fill="#B9E9F9"/>
</mask>
<g mask="url(#mask0_1752_6847)">
<g style="mix-blend-mode:multiply" opacity="0.2">
<path d="M60.6945 126.564C51.3688 159.526 46.5362 194.669 47.0341 230.753C47.2718 247.967 49.0826 264.847 50.984 278.377C55.7939 335.67 84.3483 406.039 174.052 469.721" stroke="url(#paint0_linear_1752_6847)" stroke-width="3.25" stroke-linecap="round" stroke-linejoin="round"/>
<path d="M60.6959 126.564C53.4979 158.107 50.2497 191.569 52.0492 225.925C52.8867 242.054 55.4105 257.85 57.5496 270.975C66.7734 327.873 97.2744 397.015 190.43 458.598" stroke="url(#paint1_linear_1752_6847)" stroke-width="3.25" stroke-linecap="round" stroke-linejoin="round"/>
<path d="M60.6954 126.564C55.6138 156.688 53.9387 188.458 57.0511 221.085C58.4884 236.13 61.3518 250.9 64.1019 263.584C76.4042 320.482 110.685 388.289 208.187 447.75" stroke="url(#paint2_linear_1752_6847)" stroke-width="3.25" stroke-linecap="round" stroke-linejoin="round"/>
<path d="M227.166 436.819C222.333 434.101 216.697 430.882 214.445 429.511C121.697 373.96 85.6958 310.85 70.6547 256.181C67.2933 243.962 64.0678 230.205 62.0533 216.257C57.5941 185.358 57.7413 155.27 60.6952 126.564" stroke="url(#paint3_linear_1752_6847)" stroke-width="3.25" stroke-linecap="round" stroke-linejoin="round"/>
<path d="M60.696 126.564C59.8698 153.839 61.2166 182.247 67.0565 211.429C69.6369 224.292 73.2246 237.048 77.2084 248.778C94.8865 300.848 132.212 358.641 218.543 409.949C220.92 411.403 234.421 418.961 237.013 420.38C240.556 422.287 244.166 424.183 247.855 426.078" stroke="url(#paint4_linear_1752_6847)" stroke-width="3.25" stroke-linecap="round" stroke-linejoin="round"/>
<path d="M60.6956 126.564C61.9971 152.421 64.7925 179.159 72.0698 206.59C75.1934 218.367 79.1433 230.121 83.7609 241.375C104.053 290.894 142.726 343.311 222.651 390.399C223.828 391.126 238.857 399.494 240.148 400.21C249.711 405.336 259.818 410.39 270.49 415.361" stroke="url(#paint5_linear_1752_6847)" stroke-width="3.25" stroke-linecap="round" stroke-linejoin="round"/>
<path d="M60.6953 126.564C61.6234 133.145 62.6306 139.785 63.7964 146.484L63.7964 146.508C67.3727 167.191 72.3298 188.362 80.2295 209.701C100.579 264.668 140.473 320.554 226.747 370.848L243.294 380.039C259.093 388.456 276.364 396.705 295.253 404.692" stroke="url(#paint6_linear_1752_6847)" stroke-width="3.25" stroke-linecap="round" stroke-linejoin="round"/>
<path d="M295.265 534.476C295.265 534.476 295.287 534.488 295.299 534.488C314.177 542.475 331.436 550.712 347.224 559.129L363.77 568.32C465.052 627.364 502.49 693.966 519.365 757.839L519.365 757.851C520.893 763.561 522.228 769.235 523.451 774.898C524.763 781.049 525.929 787.176 526.97 793.256C528.079 799.681 529.053 806.059 529.936 812.377" stroke="url(#paint7_linear_1752_6847)" stroke-width="3.25" stroke-linecap="round" stroke-linejoin="round"/>
<path d="M190.044 458.837C190.169 458.754 190.293 458.682 190.429 458.599C196.031 455.106 201.973 451.47 208.187 447.751C212.091 445.402 216.109 443.03 220.217 440.634C222.503 439.358 224.812 438.083 227.155 436.819C233.832 433.195 240.713 429.619 247.855 426.078C255.132 422.454 262.67 418.89 270.49 415.361C277.111 412.369 283.947 409.413 290.975 406.492C292.412 405.896 293.838 405.3 295.253 404.692C295.264 404.692 295.287 404.692 295.298 404.68C314.176 396.693 331.435 388.444 347.223 380.04L363.77 370.848C442.597 324.893 482.639 274.182 504.437 223.768" stroke="url(#paint8_linear_1752_6847)" stroke-width="3.25" stroke-miterlimit="10" stroke-linecap="round"/>
<path d="M192.115 481.904C194.48 480.318 196.879 478.745 199.324 477.183C202.731 475.013 206.16 472.808 209.691 470.674L210.336 470.281C216.176 466.776 222.276 463.188 228.603 459.552C232.586 457.263 236.661 454.962 240.803 452.65C243.417 451.195 246.054 449.741 248.714 448.311C255.754 444.484 262.963 440.729 270.353 437.009C277.936 433.183 285.711 429.404 293.668 425.649C299.383 422.943 305.189 420.249 311.108 417.566C313.428 416.517 315.714 415.456 317.978 414.395C335.532 406.146 351.523 397.587 366.123 388.944C366.904 388.181 381.436 379.765 382.137 379.002C435.828 343.943 468.661 310.051 489.915 273.824C496.853 262.01 502.806 249.827 507.718 237.56" stroke="url(#paint9_linear_1752_6847)" stroke-width="3.25" stroke-miterlimit="10" stroke-linecap="round"/>
<path d="M210.938 493.419C213.722 491.691 216.563 489.974 219.449 488.258C222.901 486.219 226.364 484.145 229.906 482.142C230.144 481.999 230.393 481.868 230.642 481.725C236.969 478.149 243.487 474.501 250.154 470.817C253.854 468.779 257.601 466.717 261.381 464.654C264.719 462.83 268.081 461.018 271.465 459.23C278.889 455.261 286.393 451.327 293.987 447.428C301.615 443.506 309.333 439.596 317.131 435.686C321.805 433.35 326.513 431.001 331.244 428.653C334.062 427.258 336.824 425.852 339.551 424.433C356.211 415.814 371.286 406.861 385.014 397.849C386.587 396.335 399.105 388.682 400.519 387.156C452.513 349.319 482.617 315.154 500.737 277.829C504.823 269.413 508.58 260.663 511.885 251.734" stroke="url(#paint10_linear_1752_6847)" stroke-width="3.25" stroke-miterlimit="10" stroke-linecap="round"/>
<path d="M515.697 268.865C514.192 273.287 512.608 277.615 510.978 281.799C496.039 320.316 469.193 354.696 418.886 395.31C416.781 397.599 406.267 404.477 403.902 406.754C390.773 416.279 376.264 425.756 360.114 434.9C357.251 436.533 354.342 438.142 351.377 439.74C347.404 441.885 343.443 444.019 339.459 446.141C332.261 450.004 325.041 453.83 317.797 457.669C310.328 461.626 302.824 465.596 295.309 469.578C295.309 469.578 295.275 469.602 295.253 469.602C290.828 471.95 286.391 474.31 281.954 476.671C278.899 478.304 275.854 479.925 272.821 481.534C265.51 485.433 258.255 489.283 251.125 493.062C251.069 493.098 251.001 493.122 250.944 493.157" stroke="url(#paint11_linear_1752_6847)" stroke-width="3.25" stroke-miterlimit="10" stroke-linecap="round"/>
<path d="M519.093 288.343C507.04 326.872 483.827 361.907 437.278 403.464C434.46 406.516 425.96 412.619 422.802 415.659C410.036 425.863 395.765 436.008 379.773 445.855C377.068 447.524 374.318 449.181 371.522 450.826C367.957 452.924 364.358 454.998 360.725 457.084C354.082 460.887 347.337 464.666 340.489 468.421C333.473 472.283 326.365 476.122 319.133 479.961C313.667 482.869 308.144 485.766 302.553 488.675C300.572 489.712 298.592 490.737 296.6 491.762" stroke="url(#paint12_linear_1752_6847)" stroke-width="3.25" stroke-miterlimit="10" stroke-linecap="round"/>
<path d="M62.28 608.922C62.7101 607.671 63.1402 606.419 63.5929 605.179C64.0343 603.927 64.487 602.688 64.9623 601.46C65.4263 600.22 65.9017 599.004 66.3883 597.776C66.875 596.56 67.3729 595.332 67.8822 594.128C68.3802 592.912 68.9008 591.708 69.4328 590.516C69.9534 589.312 70.4966 588.12 71.0399 586.928L71.0399 586.916C71.5831 585.724 72.149 584.544 72.7149 583.364C90.7778 545.992 122.06 506.772 174.053 469.721C179.18 466.074 184.51 462.438 190.045 458.838C190.169 458.754 190.294 458.683 190.429 458.599C196.032 455.106 201.973 451.47 208.187 447.751C212.091 445.403 216.109 443.03 220.217 440.634C222.504 439.359 224.812 438.083 227.155 436.82C233.832 433.196 240.714 429.619 247.855 426.079C255.132 422.455 262.67 418.89 270.49 415.362" stroke="url(#paint13_linear_1752_6847)" stroke-width="3.25" stroke-linecap="round" stroke-linejoin="round"/>
<path d="M69.5913 633.408L69.5913 633.384C73.9825 617.517 79.9129 602.33 87.9711 588.096C103.284 561.656 124.957 535.084 155.028 509.633C159 505.985 166.108 500.883 170.499 497.271C177.301 492.109 184.499 486.983 192.116 481.905C194.481 480.319 196.881 478.746 199.325 477.184C202.732 475.014 206.161 472.809 209.692 470.675L210.337 470.282C216.177 466.777 222.277 463.189 228.604 459.553C232.588 457.264 236.662 454.963 240.804 452.651C243.419 451.196 246.056 449.742 248.715 448.311C255.755 444.485 262.964 440.73 270.354 437.01" stroke="url(#paint14_linear_1752_6847)" stroke-width="3.25" stroke-linecap="round" stroke-linejoin="round"/>
<path d="M72.9519 654.102C72.9519 654.102 87.1555 614.739 103.215 592.841C121.572 567.807 143.936 542.141 174.086 518.8C177.266 515.891 186.479 510.062 189.999 507.165C196.631 502.551 203.602 497.962 210.936 493.42C213.72 491.691 216.561 489.975 219.447 488.258C222.899 486.22 226.362 484.145 229.905 482.143C230.142 482 230.391 481.869 230.64 481.726C236.967 478.149 243.486 474.501 250.152 470.818C253.853 468.779 257.599 466.717 261.379 464.655C264.718 462.831 268.079 461.019 271.463 459.231" stroke="url(#paint15_linear_1752_6847)" stroke-width="3.25" stroke-linecap="round" stroke-linejoin="round"/>
<path d="M295.31 469.578C295.31 469.578 295.276 469.602 295.253 469.602C290.828 471.95 286.391 474.311 281.955 476.671C278.899 478.304 275.855 479.926 272.821 481.535C265.51 485.433 258.256 489.283 251.126 493.062C251.069 493.098 251.001 493.122 250.944 493.158C247.119 495.184 243.35 497.27 239.57 499.333C236.515 501.002 233.515 502.671 230.573 504.363C223.216 508.548 216.199 512.792 209.488 517.059C206.851 519.229 195.533 525.797 193.145 527.979C162.916 549.198 138.142 572.599 118.472 597.573C99.3224 622.774 84.5189 644.28 75.4422 675.477L75.4422 675.489" stroke="url(#paint16_linear_1752_6847)" stroke-width="3.25" stroke-linecap="round" stroke-linejoin="round"/>
<path d="M340.478 468.422C333.461 472.284 326.353 476.123 319.121 479.961C313.655 482.87 308.132 485.767 302.541 488.675C300.56 489.712 298.58 490.738 296.588 491.763C288.903 495.721 281.185 499.643 273.443 503.505C272.708 503.875 271.983 504.232 271.248 504.602C267.4 506.509 263.552 508.476 259.681 510.407C256.772 511.862 253.909 513.328 251.102 514.794C243.406 518.811 236.039 522.865 228.988 526.965C227.233 528.408 213.799 535.692 212.215 537.158C181.895 556.255 155.582 578.071 133.727 602.318C109.972 629.474 91.5013 655.414 79.4367 690.759" stroke="url(#paint17_linear_1752_6847)" stroke-width="3.25" stroke-linecap="round" stroke-linejoin="round"/>
<path d="M380.973 468.565C374.85 472.32 368.557 476.039 362.095 479.723C355.542 483.478 348.808 487.197 341.893 490.905C335.781 494.171 329.523 497.437 323.117 500.692C322.144 501.18 321.17 501.681 320.197 502.17C312.592 505.996 304.828 509.787 296.905 513.531C295.129 514.365 293.34 515.199 291.552 516.034C287.67 517.846 283.766 519.67 279.804 521.47C277.382 522.579 274.983 523.687 272.618 524.808C264.22 528.777 256.185 532.795 248.477 536.86C247.606 537.587 232.067 545.598 231.275 546.337C200.864 563.3 173.011 583.542 148.984 607.05C120.928 635.005 97.4211 664.056 82.131 702.513" stroke="url(#paint18_linear_1752_6847)" stroke-width="3.25" stroke-linecap="round" stroke-linejoin="round"/>
<path d="M86.0017 715.102L86.0017 715.09C119.762 640.656 182.371 588.621 250.334 555.505L267.978 546.755C276.67 542.618 285.758 538.529 295.253 534.5C295.264 534.5 295.287 534.5 295.298 534.488C296.838 533.832 298.377 533.189 299.927 532.545C306.842 529.672 313.565 526.775 320.095 523.831C327.916 520.314 335.476 516.762 342.776 513.149C349.929 509.621 356.844 506.057 363.51 502.433C370.119 498.868 376.502 495.256 382.648 491.608C388.748 488.008 394.633 484.36 400.292 480.689C405.962 477.005 411.417 473.31 416.657 469.59" stroke="url(#paint19_linear_1752_6847)" stroke-width="3.25" stroke-linecap="round" stroke-linejoin="round"/>
<path d="M85.8541 223.148C133.082 68.0566 288.134 70.7269 294.732 70.9296C301.658 70.7269 456.416 68.2593 503.949 222.194L504.436 223.768L507.628 234.044L508.013 235.284C508.986 238.633 509.959 242.162 510.91 245.834C512.132 250.531 513.32 255.466 514.43 260.592L514.43 260.604C515.799 266.898 517.055 273.478 518.108 280.238C519.545 289.5 520.62 299.12 521.096 308.824L521.096 308.836C521.673 320.542 521.379 332.392 519.839 343.907C519.839 343.907 519.839 343.943 519.839 343.955C519.307 347.913 518.628 351.835 517.791 355.697L517.814 355.697" stroke="#181C4B" stroke-width="3.25" stroke-miterlimit="10" stroke-linecap="round"/>
<path d="M519.829 343.967C519.829 343.967 519.829 343.931 519.829 343.919C522.556 330.115 523.586 315.738 523.428 301.445L523.428 301.433C523.292 290.692 522.5 279.999 521.221 269.628L521.221 269.616C520.372 262.63 519.308 255.788 518.097 249.172L518.097 249.16C517.146 243.938 516.094 238.86 514.985 233.972C514.057 229.86 513.083 225.878 512.087 222.063L512.087 222.051C512.008 221.777 511.94 221.515 511.872 221.241C511.759 220.681 510.299 215.829 509.179 212.074C508.511 209.844 507.956 208.009 507.877 207.675C491.806 153.971 462.55 116.754 428.96 92.3635C414.699 82.0637 399.817 74.1363 385.206 68.1043C342.244 50.509 302.712 49.4361 293.986 49.6268C281.932 49.8772 219.697 51.4627 163.935 89.1567C128.205 113.475 96.9799 153.196 80.2185 209.701L80.1845 209.809" stroke="#181C4B" stroke-width="3.25" stroke-miterlimit="10" stroke-linecap="round"/>
<path d="M76.0087 196.457C92.3287 139.749 123.282 95.6896 161.468 69.4992C214.525 33.1046 274.814 28.8369 294.722 28.3124C308.722 27.9428 347.869 30.7442 388.601 47.7793C403.812 54.1331 419.023 62.5255 433.453 73.2186C468.809 99.6235 497.703 139.392 513.299 193.143C513.446 193.727 513.876 195.241 514.408 197.101C515.313 200.248 516.49 204.337 517 206.292L517 206.304C517.102 206.686 517.169 206.984 517.215 207.186C518.041 210.596 518.844 214.088 519.614 217.665L519.614 217.689C520.655 222.576 521.629 227.607 522.511 232.757C523.666 239.468 524.65 246.37 525.443 253.404C526.654 264.156 527.389 275.207 527.491 286.317C527.706 309.969 525.013 333.882 517.792 355.697" stroke="#181C4B" stroke-width="3.25" stroke-miterlimit="10" stroke-linecap="round"/>
<path d="M517.792 355.709C527.921 328.803 531.588 298.584 531.146 268.865C531.146 268.853 531.146 268.829 531.146 268.817C530.988 257.707 530.252 246.656 529.041 235.88C529.053 235.868 529.053 235.856 529.041 235.844C528.26 228.703 527.264 221.682 526.11 214.839C525.295 209.951 524.39 205.159 523.405 200.474C523.405 200.474 523.405 200.474 523.405 200.45C522.896 197.983 522.364 195.551 521.809 193.143C521.674 192.463 521.402 191.379 521.062 190.079C520.429 187.612 519.535 184.381 518.844 181.878C518.471 180.495 518.142 179.327 517.973 178.623C502.875 124.824 474.332 82.5046 437.21 54.0851C422.622 42.9986 407.06 34.1652 391.261 27.4537C352.736 11.0743 313.995 6.46086 294.721 6.99731C266.948 7.78409 208.696 14.8771 158.265 49.8531C117.703 77.9746 87.5977 123.787 71.7304 180.638" stroke="#181C4B" stroke-width="3.25" stroke-miterlimit="10" stroke-linecap="round"/>
<path d="M517.791 355.709C531.644 322.438 536.205 284.04 534.915 246.74C534.915 246.728 534.915 246.716 534.915 246.716C534.519 235.105 533.557 223.601 532.131 212.407L532.131 212.395C531.271 205.672 530.252 199.056 529.086 192.595C528.317 188.327 527.491 184.131 526.597 180.006L526.597 179.994C526.529 179.684 526.472 179.386 526.404 179.088C526.042 177.312 525.34 174.463 524.605 171.614C523.982 169.218 523.348 166.822 522.896 165.069L522.896 165.057C522.805 164.712 522.726 164.39 522.647 164.104C508.036 110.257 479.855 65.3743 440.968 34.9401C426.209 23.4721 410.297 14.1976 393.92 7.12852C357.579 -8.57137 319.269 -15.0564 294.71 -14.3053C259.093 -13.2921 202.89 -3.31424 155.062 30.1955C112.123 60.2959 82.8781 107.825 67.4522 164.807" stroke="#181C4B" stroke-width="3.25" stroke-miterlimit="10" stroke-linecap="round"/>
<path d="M63.7963 146.508L63.7963 146.485C78.8034 89.3713 106.611 42.6889 151.859 10.55C197.129 -21.422 251.227 -34.3204 294.71 -35.6079C324.532 -36.5258 362.4 -28.1573 396.58 -13.1965C413.533 -5.72208 429.797 3.93389 444.725 15.7952C484.597 47.6361 512.132 93.8656 526.483 146.485C526.777 147.51 527.049 148.535 527.321 149.572C527.377 149.811 527.445 150.061 527.513 150.311C527.909 151.897 528.362 153.709 528.826 155.58C529.516 158.346 530.207 161.231 530.727 163.675C530.829 164.151 530.92 164.604 531.01 165.046C531.938 169.504 532.798 174.034 533.579 178.623C535.379 189.042 536.782 199.771 537.744 210.667C542.101 259.686 537.484 312.126 517.803 355.709" stroke="#181C4B" stroke-width="3.25" stroke-miterlimit="10" stroke-linecap="round"/>
<path d="M517.802 355.721C526.777 337.172 533.16 317.014 537.313 296.093C541.772 273.645 543.685 250.316 543.493 227.13C543.3 201.083 540.448 175.214 535.604 151.015C534.665 146.354 533.635 141.704 532.503 137.079C532.345 136.447 532.186 135.827 532.028 135.196C518.413 81.2055 490.922 31.1614 448.481 -3.32591C433.395 -15.5806 416.769 -25.6777 399.238 -33.5098C367.255 -47.8149 329.805 -57.9954 294.709 -56.9225C243.361 -55.337 191.3 -39.6491 148.644 -9.09566C101.031 24.9982 74.717 70.9535 60.1513 128.21" stroke="#181C4B" stroke-width="3.25" stroke-miterlimit="10" stroke-linecap="round"/>
<path d="M504.664 715.948C457.436 871.051 302.384 868.369 295.786 868.178C288.86 868.369 134.103 870.837 86.5687 716.902L86.0028 715.101L86.0028 715.09L83.5242 707.103L82.5057 703.824C82.3812 703.395 82.2567 702.954 82.1322 702.513C81.6116 700.677 81.0796 698.794 80.559 696.874C79.382 692.476 78.205 687.85 77.0959 683.022C76.53 680.555 75.9754 678.039 75.4435 675.488L75.4435 675.476C74.6286 671.542 73.859 667.513 73.1573 663.4C73.1573 663.4 70.2374 643.635 69.5923 633.407L69.5923 633.383C68.551 616.623 69.2188 599.504 72.7386 583.399L72.7159 583.399L72.7159 583.387" stroke="#181C4B" stroke-width="3.25" stroke-miterlimit="10" stroke-linecap="round"/>
<path d="M72.7375 583.399C67.3956 602.902 65.9357 623.966 66.7845 644.59L66.7845 644.625L66.7845 644.649C67.2372 655.724 68.3576 666.679 69.9081 677.181C70.8928 683.965 72.0698 690.569 73.3487 696.899C74.2881 701.5 75.2727 705.947 76.3026 710.226C76.6308 711.633 76.9703 713.016 77.3099 714.375C77.3778 714.852 78.0229 717.152 78.7698 719.787L78.7698 719.799C79.5168 722.41 80.3656 725.354 80.8749 727.154L80.8749 727.166C81.1013 727.965 81.2484 728.537 81.2936 728.752C97.874 785.96 129.314 824.942 165.27 849.749C179.225 859.286 193.666 866.689 207.813 872.256C249.394 888.635 287.15 889.649 295.785 889.47C307.838 889.208 370.085 887.622 425.836 849.928C461.599 825.597 493.311 785.603 510.062 729.026" stroke="#181C4B" stroke-width="3.25" stroke-miterlimit="10" stroke-linecap="round"/>
<path d="M514.714 743.617C498.405 800.325 467.236 843.419 429.051 869.609C375.983 905.992 315.705 910.272 295.797 910.796C281.865 911.166 244.144 908.376 204.509 892.355C189.672 886.346 174.778 878.431 160.631 868.31C122.479 840.999 91.684 798.394 76.0204 740.637C76.0204 740.565 75.9864 740.494 75.9751 740.41L75.9751 740.398C75.7148 739.218 75.0018 736.548 74.2548 733.734L74.2548 733.723C72.1611 725.521 70.4408 717.129 69.6825 713.052C68.5508 707.02 67.5209 700.761 66.6381 694.36L66.6381 694.336C65.1215 683.38 64.0463 671.984 63.6163 660.421C62.6203 634.421 64.8726 607.647 72.727 583.399" stroke="#181C4B" stroke-width="3.25" stroke-miterlimit="10" stroke-linecap="round"/>
<path d="M519.377 757.814C519.377 757.814 519.377 757.826 519.366 757.838L519.366 757.85C503.487 814.689 472.805 861.121 432.254 889.255C381.823 924.219 323.571 931.312 295.797 932.099C276.58 932.647 238.904 928.057 201.205 912.417C185.677 905.98 170.353 897.516 155.98 886.835C116.289 857.378 86.3762 812.162 71.403 755.073C71.1767 754.214 70.9617 753.368 70.7466 752.51C70.5882 751.723 70.3166 750.578 69.9997 749.231C69.4904 747.097 68.8453 744.475 68.2681 742.019L68.2681 741.995C67.6456 739.361 67.1023 736.941 66.9099 735.546C66.661 734.294 66.4233 733.043 66.1969 731.779C66.1969 731.779 66.1856 731.779 66.1969 731.755C65.2123 726.522 64.3295 721.134 63.5486 715.65C62.0773 705.458 60.9795 694.884 60.357 684.143C60.357 684.143 60.3457 684.131 60.357 684.119C60.357 684.119 60.3457 684.119 60.357 684.095C58.3764 650.24 61.1832 614.656 72.7272 583.411" stroke="#181C4B" stroke-width="3.25" stroke-miterlimit="10" stroke-linecap="round"/>
<path d="M523.598 774.361C523.552 774.54 523.496 774.719 523.451 774.897C507.968 831.653 478.259 878.908 435.456 908.901C387.628 942.423 331.424 952.4 295.808 953.414C271.283 954.165 233.674 947.704 197.888 932.492C181.692 925.602 165.938 916.578 151.339 905.372C110.686 874.187 81.7578 827.278 67.2487 771.595L67.2487 771.583C66.8412 770.046 66.4564 768.496 66.0717 766.934C65.8679 766.076 65.6642 765.23 65.4605 764.371C65.2681 763.394 65.0191 762.226 64.7361 760.938C64.2269 758.59 63.6044 755.848 63.0612 753.237C62.484 750.555 61.9747 748.004 61.703 746.12C61.4314 744.547 61.1598 742.961 60.8995 741.376L60.8995 741.352C59.6772 733.937 58.6473 726.332 57.8324 718.583L57.8324 718.571C53.1356 673.855 55.7387 624.729 72.7151 583.399" stroke="#181C4B" stroke-width="3.25" stroke-miterlimit="10" stroke-linecap="round"/>
<path d="M72.7149 583.387L72.7149 583.399C49.2648 635.684 47.5219 700.57 56.5081 756.694C56.5986 757.349 56.7118 758.029 56.825 758.72C57.3908 762.213 58.1718 766.207 58.9301 769.95C58.9301 769.962 58.9301 769.962 58.9301 769.974C59.3714 772.203 59.8128 774.337 60.1863 776.232C60.2655 776.614 60.3561 776.983 60.4353 777.365L60.4353 777.388C60.8314 779.165 61.2388 780.941 61.6689 782.705C62.0084 784.136 62.3593 785.554 62.7214 786.973C63.027 788.201 63.3439 789.429 63.6834 790.656C77.9663 844.17 105.875 891.543 146.687 923.897C161.547 935.615 177.72 945.2 194.583 952.543C228.468 967.313 265.997 975.622 295.808 974.704C339.29 973.417 393.388 960.518 438.659 928.546C483.329 896.801 511.838 849.415 526.97 793.243C527.174 792.516 527.366 791.801 527.559 791.074" stroke="#181C4B" stroke-width="3.25" stroke-miterlimit="10" stroke-linecap="round"/>
<path d="M72.7154 583.387L72.7154 583.399C72.1495 584.567 71.5949 585.735 71.0403 586.916L71.0403 586.927C70.4971 588.12 69.9539 589.312 69.4333 590.516C68.9013 591.708 68.392 592.912 67.8827 594.128C67.3734 595.332 66.8755 596.56 66.3888 597.776C65.9022 599.003 65.4268 600.231 64.9628 601.459C64.4988 602.699 64.0347 603.939 63.5934 605.178C63.1407 606.418 62.7106 607.67 62.2805 608.922C60.5716 613.94 59.021 619.042 57.6177 624.204C57.2895 625.42 56.9612 626.648 56.6443 627.876C56.2595 629.378 55.8861 630.88 55.5352 632.394C55.2749 633.443 55.0372 634.48 54.7996 635.529C54.5619 636.59 54.3242 637.663 54.0979 638.724C53.9507 639.368 53.8149 639.999 53.6904 640.643C53.5207 641.454 53.3509 642.265 53.2038 643.075C53.0454 643.826 52.8982 644.577 52.7624 645.328C52.3776 647.283 52.0267 649.25 51.6985 651.229C51.5967 651.789 51.5061 652.35 51.4156 652.922C51.3024 653.554 51.2006 654.185 51.11 654.829C50.9969 655.497 50.895 656.176 50.7931 656.856C50.3178 659.979 49.8877 663.114 49.5142 666.261C49.4124 667.072 49.3218 667.871 49.22 668.681C49.1181 669.647 49.0163 670.601 48.9144 671.566C48.7899 672.746 48.6654 673.927 48.5636 675.119C48.4957 675.786 48.4391 676.466 48.3825 677.133C48.3033 677.92 48.2354 678.707 48.1788 679.494C48.1335 680.078 48.0769 680.662 48.0429 681.246C47.9298 682.629 47.8392 684.024 47.7487 685.418C47.6808 686.42 47.6242 687.421 47.5676 688.422C47.4884 689.793 47.4205 691.164 47.3639 692.535C47.296 693.894 47.2507 695.265 47.2054 696.624C47.1602 697.995 47.1262 699.366 47.0923 700.737C47.0017 704.885 46.9791 709.034 47.0357 713.182C47.0244 713.623 47.0357 714.052 47.0357 714.482C47.047 715.626 47.0696 716.77 47.1036 717.915C47.0923 717.927 47.0923 717.939 47.1036 717.951C47.1036 718.523 47.1262 719.107 47.1489 719.679C47.1489 719.846 47.1488 720.013 47.1602 720.18C47.1828 721.312 47.2281 722.433 47.262 723.553C47.2847 724.006 47.296 724.448 47.3186 724.901C47.3526 725.83 47.3978 726.772 47.4544 727.702C47.5223 729.276 47.6016 730.849 47.7034 732.411C47.7826 733.746 47.8619 735.081 47.9637 736.416C48.0656 737.954 48.1788 739.48 48.3146 741.006C48.3938 742.091 48.4843 743.175 48.5862 744.26C48.8804 747.586 49.22 750.9 49.5935 754.202C49.967 757.492 50.3857 760.783 50.8384 764.037C51.0647 765.682 51.3024 767.303 51.5401 768.925C52.0268 772.167 52.5587 775.386 53.1132 778.581C53.6791 781.775 54.2676 784.946 54.9014 788.093C66.8981 848.044 95.4524 904.597 142.024 942.434C157.111 954.689 173.736 964.786 191.267 972.618C223.251 986.911 260.701 997.092 295.797 996.007C347.145 994.433 399.206 978.733 441.862 948.192C489.475 914.098 515.789 868.143 530.354 810.874" stroke="#181C4B" stroke-width="3.25" stroke-miterlimit="10" stroke-linecap="round"/>
</g>
</g>
<defs>
<linearGradient id="paint0_linear_1752_6847" x1="110.529" y1="472.118" x2="110.529" y2="124.181" gradientUnits="userSpaceOnUse">
<stop stop-color="white"/>
<stop offset="0.03" stop-color="#DDDEE5"/>
<stop offset="0.07" stop-color="#B4B6C4"/>
<stop offset="0.12" stop-color="#8F90A7"/>
<stop offset="0.18" stop-color="#6E718D"/>
<stop offset="0.24" stop-color="#535678"/>
<stop offset="0.31" stop-color="#3D4067"/>
<stop offset="0.39" stop-color="#2C305A"/>
<stop offset="0.48" stop-color="#202450"/>
<stop offset="0.62" stop-color="#191D4B"/>
<stop offset="1" stop-color="#181C4A"/>
</linearGradient>
<linearGradient id="paint1_linear_1752_6847" x1="120.999" y1="460.918" x2="120.999" y2="124.259" gradientUnits="userSpaceOnUse">
<stop stop-color="white"/>
<stop offset="0.03" stop-color="#DDDEE5"/>
<stop offset="0.07" stop-color="#B4B6C4"/>
<stop offset="0.12" stop-color="#8F90A7"/>
<stop offset="0.18" stop-color="#6E718D"/>
<stop offset="0.24" stop-color="#535678"/>
<stop offset="0.31" stop-color="#3D4067"/>
<stop offset="0.39" stop-color="#2C305A"/>
<stop offset="0.48" stop-color="#202450"/>
<stop offset="0.62" stop-color="#191D4B"/>
<stop offset="1" stop-color="#181C4A"/>
</linearGradient>
<linearGradient id="paint2_linear_1752_6847" x1="131.838" y1="449.994" x2="131.838" y2="124.334" gradientUnits="userSpaceOnUse">
<stop stop-color="white"/>
<stop offset="0.03" stop-color="#DDDEE5"/>
<stop offset="0.07" stop-color="#B4B6C4"/>
<stop offset="0.12" stop-color="#8F90A7"/>
<stop offset="0.18" stop-color="#6E718D"/>
<stop offset="0.24" stop-color="#535678"/>
<stop offset="0.31" stop-color="#3D4067"/>
<stop offset="0.39" stop-color="#2C305A"/>
<stop offset="0.48" stop-color="#202450"/>
<stop offset="0.62" stop-color="#191D4B"/>
<stop offset="1" stop-color="#181C4A"/>
</linearGradient>
<linearGradient id="paint3_linear_1752_6847" x1="142.875" y1="438.986" x2="142.875" y2="124.41" gradientUnits="userSpaceOnUse">
<stop stop-color="white"/>
<stop offset="0.03" stop-color="#DDDEE5"/>
<stop offset="0.07" stop-color="#B4B6C4"/>
<stop offset="0.12" stop-color="#8F90A7"/>
<stop offset="0.18" stop-color="#6E718D"/>
<stop offset="0.24" stop-color="#535678"/>
<stop offset="0.31" stop-color="#3D4067"/>
<stop offset="0.39" stop-color="#2C305A"/>
<stop offset="0.48" stop-color="#202450"/>
<stop offset="0.62" stop-color="#191D4B"/>
<stop offset="1" stop-color="#181C4A"/>
</linearGradient>
<linearGradient id="paint4_linear_1752_6847" x1="154.169" y1="428.171" x2="154.169" y2="124.485" gradientUnits="userSpaceOnUse">
<stop stop-color="white"/>
<stop offset="0.03" stop-color="#DDDEE5"/>
<stop offset="0.07" stop-color="#B4B6C4"/>
<stop offset="0.12" stop-color="#8F90A7"/>
<stop offset="0.18" stop-color="#6E718D"/>
<stop offset="0.24" stop-color="#535678"/>
<stop offset="0.31" stop-color="#3D4067"/>
<stop offset="0.39" stop-color="#2C305A"/>
<stop offset="0.48" stop-color="#202450"/>
<stop offset="0.62" stop-color="#191D4B"/>
<stop offset="1" stop-color="#181C4A"/>
</linearGradient>
<linearGradient id="paint5_linear_1752_6847" x1="165.598" y1="417.379" x2="165.598" y2="124.559" gradientUnits="userSpaceOnUse">
<stop stop-color="white"/>
<stop offset="0.03" stop-color="#DDDEE5"/>
<stop offset="0.07" stop-color="#B4B6C4"/>
<stop offset="0.12" stop-color="#8F90A7"/>
<stop offset="0.18" stop-color="#6E718D"/>
<stop offset="0.24" stop-color="#535678"/>
<stop offset="0.31" stop-color="#3D4067"/>
<stop offset="0.39" stop-color="#2C305A"/>
<stop offset="0.48" stop-color="#202450"/>
<stop offset="0.62" stop-color="#191D4B"/>
<stop offset="1" stop-color="#181C4A"/>
</linearGradient>
<linearGradient id="paint6_linear_1752_6847" x1="177.98" y1="406.635" x2="177.98" y2="124.633" gradientUnits="userSpaceOnUse">
<stop stop-color="white"/>
<stop offset="0.03" stop-color="#DDDEE5"/>
<stop offset="0.07" stop-color="#B4B6C4"/>
<stop offset="0.12" stop-color="#8F90A7"/>
<stop offset="0.18" stop-color="#6E718D"/>
<stop offset="0.24" stop-color="#535678"/>
<stop offset="0.31" stop-color="#3D4067"/>
<stop offset="0.39" stop-color="#2C305A"/>
<stop offset="0.48" stop-color="#202450"/>
<stop offset="0.62" stop-color="#191D4B"/>
<stop offset="1" stop-color="#181C4A"/>
</linearGradient>
<linearGradient id="paint7_linear_1752_6847" x1="412.606" y1="532.545" x2="412.606" y2="814.32" gradientUnits="userSpaceOnUse">
<stop stop-color="white"/>
<stop offset="0.03" stop-color="#DDDEE5"/>
<stop offset="0.07" stop-color="#B4B6C4"/>
<stop offset="0.12" stop-color="#8F90A7"/>
<stop offset="0.18" stop-color="#6E718D"/>
<stop offset="0.24" stop-color="#535678"/>
<stop offset="0.31" stop-color="#3D4067"/>
<stop offset="0.39" stop-color="#2C305A"/>
<stop offset="0.48" stop-color="#202450"/>
<stop offset="0.62" stop-color="#191D4B"/>
<stop offset="1" stop-color="#181C4A"/>
</linearGradient>
<linearGradient id="paint8_linear_1752_6847" x1="347.248" y1="222.134" x2="347.248" y2="460.481" gradientUnits="userSpaceOnUse">
<stop stop-color="white"/>
<stop offset="0.03" stop-color="#DDDEE5"/>
<stop offset="0.07" stop-color="#B4B6C4"/>
<stop offset="0.12" stop-color="#8F90A7"/>
<stop offset="0.18" stop-color="#6E718D"/>
<stop offset="0.24" stop-color="#535678"/>
<stop offset="0.31" stop-color="#3D4067"/>
<stop offset="0.39" stop-color="#2C305A"/>
<stop offset="0.48" stop-color="#202450"/>
<stop offset="0.62" stop-color="#191D4B"/>
<stop offset="1" stop-color="#181C4A"/>
</linearGradient>
<linearGradient id="paint9_linear_1752_6847" x1="349.924" y1="235.862" x2="349.924" y2="483.612" gradientUnits="userSpaceOnUse">
<stop stop-color="white"/>
<stop offset="0.03" stop-color="#DDDEE5"/>
<stop offset="0.07" stop-color="#B4B6C4"/>
<stop offset="0.12" stop-color="#8F90A7"/>
<stop offset="0.18" stop-color="#6E718D"/>
<stop offset="0.24" stop-color="#535678"/>
<stop offset="0.31" stop-color="#3D4067"/>
<stop offset="0.39" stop-color="#2C305A"/>
<stop offset="0.48" stop-color="#202450"/>
<stop offset="0.62" stop-color="#191D4B"/>
<stop offset="1" stop-color="#181C4A"/>
</linearGradient>
<linearGradient id="paint10_linear_1752_6847" x1="361.419" y1="250.055" x2="361.419" y2="495.109" gradientUnits="userSpaceOnUse">
<stop stop-color="white"/>
<stop offset="0.03" stop-color="#DDDEE5"/>
<stop offset="0.07" stop-color="#B4B6C4"/>
<stop offset="0.12" stop-color="#8F90A7"/>
<stop offset="0.18" stop-color="#6E718D"/>
<stop offset="0.24" stop-color="#535678"/>
<stop offset="0.31" stop-color="#3D4067"/>
<stop offset="0.39" stop-color="#2C305A"/>
<stop offset="0.48" stop-color="#202450"/>
<stop offset="0.62" stop-color="#191D4B"/>
<stop offset="1" stop-color="#181C4A"/>
</linearGradient>
<linearGradient id="paint11_linear_1752_6847" x1="383.327" y1="267.306" x2="383.327" y2="494.726" gradientUnits="userSpaceOnUse">
<stop stop-color="white"/>
<stop offset="0.03" stop-color="#DDDEE5"/>
<stop offset="0.07" stop-color="#B4B6C4"/>
<stop offset="0.12" stop-color="#8F90A7"/>
<stop offset="0.18" stop-color="#6E718D"/>
<stop offset="0.24" stop-color="#535678"/>
<stop offset="0.31" stop-color="#3D4067"/>
<stop offset="0.39" stop-color="#2C305A"/>
<stop offset="0.48" stop-color="#202450"/>
<stop offset="0.62" stop-color="#191D4B"/>
<stop offset="1" stop-color="#181C4A"/>
</linearGradient>
<linearGradient id="paint12_linear_1752_6847" x1="407.852" y1="286.93" x2="407.852" y2="493.185" gradientUnits="userSpaceOnUse">
<stop stop-color="white"/>
<stop offset="0.03" stop-color="#DDDEE5"/>
<stop offset="0.07" stop-color="#B4B6C4"/>
<stop offset="0.12" stop-color="#8F90A7"/>
<stop offset="0.18" stop-color="#6E718D"/>
<stop offset="0.24" stop-color="#535678"/>
<stop offset="0.31" stop-color="#3D4067"/>
<stop offset="0.39" stop-color="#2C305A"/>
<stop offset="0.48" stop-color="#202450"/>
<stop offset="0.62" stop-color="#191D4B"/>
<stop offset="1" stop-color="#181C4A"/>
</linearGradient>
<linearGradient id="paint13_linear_1752_6847" x1="61.0026" y1="512.147" x2="271.776" y2="512.147" gradientUnits="userSpaceOnUse">
<stop stop-color="white"/>
<stop offset="0.03" stop-color="#DDDEE5"/>
<stop offset="0.07" stop-color="#B4B6C4"/>
<stop offset="0.12" stop-color="#8F90A7"/>
<stop offset="0.18" stop-color="#6E718D"/>
<stop offset="0.24" stop-color="#535678"/>
<stop offset="0.31" stop-color="#3D4067"/>
<stop offset="0.39" stop-color="#2C305A"/>
<stop offset="0.48" stop-color="#202450"/>
<stop offset="0.62" stop-color="#191D4B"/>
<stop offset="1" stop-color="#181C4A"/>
</linearGradient>
<linearGradient id="paint14_linear_1752_6847" x1="68.3596" y1="535.214" x2="271.594" y2="535.214" gradientUnits="userSpaceOnUse">
<stop stop-color="white"/>
<stop offset="0.03" stop-color="#DDDEE5"/>
<stop offset="0.07" stop-color="#B4B6C4"/>
<stop offset="0.12" stop-color="#8F90A7"/>
<stop offset="0.18" stop-color="#6E718D"/>
<stop offset="0.24" stop-color="#535678"/>
<stop offset="0.31" stop-color="#3D4067"/>
<stop offset="0.39" stop-color="#2C305A"/>
<stop offset="0.48" stop-color="#202450"/>
<stop offset="0.62" stop-color="#191D4B"/>
<stop offset="1" stop-color="#181C4A"/>
</linearGradient>
<linearGradient id="paint15_linear_1752_6847" x1="71.734" y1="556.672" x2="272.688" y2="556.672" gradientUnits="userSpaceOnUse">
<stop stop-color="white"/>
<stop offset="0.03" stop-color="#DDDEE5"/>
<stop offset="0.07" stop-color="#B4B6C4"/>
<stop offset="0.12" stop-color="#8F90A7"/>
<stop offset="0.18" stop-color="#6E718D"/>
<stop offset="0.24" stop-color="#535678"/>
<stop offset="0.31" stop-color="#3D4067"/>
<stop offset="0.39" stop-color="#2C305A"/>
<stop offset="0.48" stop-color="#202450"/>
<stop offset="0.62" stop-color="#191D4B"/>
<stop offset="1" stop-color="#181C4A"/>
</linearGradient>
<linearGradient id="paint16_linear_1752_6847" x1="74.0933" y1="572.539" x2="296.667" y2="572.539" gradientUnits="userSpaceOnUse">
<stop stop-color="white"/>
<stop offset="0.03" stop-color="#DDDEE5"/>
<stop offset="0.07" stop-color="#B4B6C4"/>
<stop offset="0.12" stop-color="#8F90A7"/>
<stop offset="0.18" stop-color="#6E718D"/>
<stop offset="0.24" stop-color="#535678"/>
<stop offset="0.31" stop-color="#3D4067"/>
<stop offset="0.39" stop-color="#2C305A"/>
<stop offset="0.48" stop-color="#202450"/>
<stop offset="0.62" stop-color="#191D4B"/>
<stop offset="1" stop-color="#181C4A"/>
</linearGradient>
<linearGradient id="paint17_linear_1752_6847" x1="77.8352" y1="579.596" x2="342.089" y2="579.596" gradientUnits="userSpaceOnUse">
<stop stop-color="white"/>
<stop offset="0.03" stop-color="#DDDEE5"/>
<stop offset="0.07" stop-color="#B4B6C4"/>
<stop offset="0.12" stop-color="#8F90A7"/>
<stop offset="0.18" stop-color="#6E718D"/>
<stop offset="0.24" stop-color="#535678"/>
<stop offset="0.31" stop-color="#3D4067"/>
<stop offset="0.39" stop-color="#2C305A"/>
<stop offset="0.48" stop-color="#202450"/>
<stop offset="0.62" stop-color="#191D4B"/>
<stop offset="1" stop-color="#181C4A"/>
</linearGradient>
<linearGradient id="paint18_linear_1752_6847" x1="80.2975" y1="585.545" x2="382.817" y2="585.545" gradientUnits="userSpaceOnUse">
<stop stop-color="white"/>
<stop offset="0.03" stop-color="#DDDEE5"/>
<stop offset="0.07" stop-color="#B4B6C4"/>
<stop offset="0.12" stop-color="#8F90A7"/>
<stop offset="0.18" stop-color="#6E718D"/>
<stop offset="0.24" stop-color="#535678"/>
<stop offset="0.31" stop-color="#3D4067"/>
<stop offset="0.39" stop-color="#2C305A"/>
<stop offset="0.48" stop-color="#202450"/>
<stop offset="0.62" stop-color="#191D4B"/>
<stop offset="1" stop-color="#181C4A"/>
</linearGradient>
<linearGradient id="paint19_linear_1752_6847" x1="83.9731" y1="592.353" x2="418.698" y2="592.353" gradientUnits="userSpaceOnUse">
<stop stop-color="white"/>
<stop offset="0.03" stop-color="#DDDEE5"/>
<stop offset="0.07" stop-color="#B4B6C4"/>
<stop offset="0.12" stop-color="#8F90A7"/>
<stop offset="0.18" stop-color="#6E718D"/>
<stop offset="0.24" stop-color="#535678"/>
<stop offset="0.31" stop-color="#3D4067"/>
<stop offset="0.39" stop-color="#2C305A"/>
<stop offset="0.48" stop-color="#202450"/>
<stop offset="0.62" stop-color="#191D4B"/>
<stop offset="1" stop-color="#181C4A"/>
</linearGradient>
</defs>
</svg>
