<svg width="228" height="65" viewBox="0 0 228 65" fill="none" xmlns="http://www.w3.org/2000/svg">
<path d="M63.2533 35.9724C63.5239 39.7679 61.8821 43.0094 60.394 46.2883C58.2659 50.9772 56.1257 55.6611 53.9733 60.3399C51.7063 65.3033 47.5709 66.1417 43.5269 62.5034C39.1831 58.5957 34.799 54.729 30.4406 50.8362C27.5154 48.216 25.4203 45.0381 24.5903 41.1266C22.628 31.8662 20.7121 22.597 18.8424 13.3191C18.1111 9.75572 20.0381 6.80992 23.5007 6.03135C32.4736 4.03503 41.4562 2.0674 50.4485 0.128481C51.1843 -0.0326194 51.944 -0.0423183 52.6835 0.0999462C53.423 0.242211 54.1274 0.533594 54.7559 0.957153C55.3843 1.38071 55.9242 1.92797 56.3442 2.56711C56.7641 3.20625 57.0557 3.92451 57.2019 4.68008C59.2239 14.1052 61.1582 23.5453 63.0851 32.9891C63.2826 33.9511 63.2058 34.973 63.2533 35.9724Z" fill="#181C4B"/>
<path d="M89.5524 41.0967C90.759 40.393 91.0845 39.3375 91.5561 38.4354C94.8835 32.0422 97.9914 25.5516 99.5345 18.4136C99.8489 16.9537 100.211 15.5164 99.7173 14.0042C99.6049 13.5186 99.6264 13.0107 99.7794 12.5369C100.31 10.6653 103.114 8.97347 105.893 8.82C108.485 8.68151 109.853 9.50124 110.818 11.792C111.655 13.7759 111.882 15.8795 111.933 18.0093C112.098 24.7469 111.677 31.4845 111.473 38.222C111.425 39.753 111.261 41.3213 111.886 42.9196C112.899 42.4068 113.151 41.4673 113.546 40.6738C116.866 34.056 119.356 27.0901 121.776 20.0867C122.446 18.1516 123.202 16.2388 124.04 14.3673C125.601 10.8712 130.106 8.62537 133.795 9.41142C135.81 9.84561 136.596 10.8151 136.556 12.9374C136.516 15.0597 135.89 17.0024 135.06 18.8777C131.327 27.2735 127.437 35.5981 122.683 43.4586C119.484 48.7551 115.063 52.6516 109.041 54.3435C108.924 54.3772 108.803 54.4109 108.676 54.4371C102.218 55.8408 98.9385 52.5656 100.375 45.9852C101.074 42.6318 101.562 39.2361 101.838 35.8189C101.822 35.5176 101.781 35.2182 101.714 34.9243C100.982 35.5008 100.778 36.2195 100.471 36.8446C98.6423 40.5689 96.9311 44.3944 94.4374 47.7257C91.4099 51.772 87.5597 54.3622 82.3493 54.3024C80.2212 54.2799 78.9342 53.1794 78.276 51.2106C77.7201 49.4903 77.4603 47.6842 77.5082 45.8729C77.6361 38.7011 77.7275 31.5294 77.9213 24.3613C77.9908 21.8235 77.5886 19.66 75.669 17.7735C73.8225 15.9506 74.0163 14.2363 75.9067 12.4583C76.7948 11.5949 77.8496 10.9314 79.0032 10.5104C80.1569 10.0895 81.3839 9.92037 82.6052 10.014C85.5962 10.2049 87.2927 11.7321 87.7827 14.8164C88.8175 21.3032 88.4336 27.8798 88.8211 34.4115C88.9747 36.6125 88.9784 38.8209 89.5524 41.0967Z" fill="#181C4B"/>
<path d="M140.121 44.7014C141.09 46.6216 142.596 47.2804 144.337 47.4862C146.812 47.7782 149.174 47.1905 151.511 46.4045C152.436 46.09 152.524 45.5473 152.308 44.6826C151.321 40.7748 152.147 37.1328 154.056 33.7153C156.663 29.0477 162.714 26.4163 167.731 27.6852C173.029 29.0289 175.274 34.4228 172.458 39.2289C170.802 42.0475 168.345 43.9452 165.402 45.2179C164.985 45.3976 164.305 45.3714 164.286 45.9965C164.268 46.6216 164.89 46.8649 165.361 47.1194C166.184 47.5401 167.109 47.7091 168.023 47.606C169.508 47.5236 170.875 47.0034 172.243 46.4531C174.802 45.4313 176.389 44.2971 176.287 40.7411C176.078 33.6292 180.971 28.314 187.523 27.528C190.938 27.1162 194.042 27.8162 195.933 31.1176C197.823 34.419 196.945 37.4996 194.927 40.378C193.423 42.511 191.472 44.2722 189.216 45.5323C188.828 45.7569 188.086 45.7981 188.232 46.4119C188.324 46.7862 188.854 47.1606 189.263 47.3814C191.007 48.3509 192.693 47.9242 194.309 47.0071C197.029 45.4435 199.381 43.2895 201.202 40.6962C202.035 39.5321 202.832 38.1696 204.562 38.8696C205.852 39.3936 206.178 41.2502 205.465 43.2078C202.905 50.2786 193.205 55.9045 185.973 54.5158C183.666 54.1232 181.553 52.9565 179.965 51.1994C179.234 50.3534 178.777 50.1513 177.771 50.9187C172.689 54.8227 166.945 55.4104 160.904 54.134C159.393 53.8462 157.986 53.1467 156.831 52.109C156.067 51.394 155.5 51.3865 154.611 51.9218C150.048 54.6805 145.138 55.1446 139.96 54.2875C128.534 52.3897 127.071 40.7748 131.093 33.7902C132.501 31.2457 134.702 29.2579 137.343 28.1444C139.984 27.0309 142.914 26.856 145.664 27.6477C148.589 28.5161 150.838 30.2155 151.408 33.5057C151.993 36.8745 150.71 39.4685 148.118 41.4785C145.799 43.2827 143.112 44.196 140.121 44.7014ZM144.428 34.2206C144.472 32.7234 143.646 31.9299 142.308 32.1732C140.315 32.5475 138.168 35.2837 138.242 37.3611C138.289 38.6899 138.933 39.315 140.234 39.1054C142.18 38.7723 144.37 36.2157 144.428 34.2169V34.2206ZM184.21 37.4809C184.243 38.7348 184.371 39.7754 185.457 40.1797C186.473 40.554 187.19 39.8316 187.823 39.1541C189.055 37.8327 189.724 36.2569 189.472 34.4041C189.219 32.5512 187.731 31.9036 186.313 33.1314C185.67 33.6512 185.148 34.3107 184.784 35.0622C184.42 35.8138 184.224 36.6386 184.21 37.4771V37.4809ZM166.294 34.7072C166.316 32.9854 165.197 32.0459 163.752 32.5924C161.906 33.2923 160.25 36.1858 160.557 38.1771C160.762 39.5321 161.654 40.0861 162.904 39.6257C164.597 38.9969 166.272 36.5676 166.297 34.7035L166.294 34.7072Z" fill="#181C4B"/>
<path d="M2.40443e-05 35.0928C0.142625 32.2106 1.09695 28.7782 1.75511 25.3008C2.85203 19.6862 3.92702 14.0715 5.0788 8.45684C5.87955 4.54529 8.70962 2.66998 12.494 3.43732C13.9858 3.74051 15.463 4.11857 16.9585 4.3993C17.9275 4.57897 18.3004 4.81854 17.5033 5.76929C15.3095 8.38946 14.9109 11.4289 15.602 14.7303C17.379 23.2646 19.167 31.7951 20.8526 40.3481C21.8618 45.4799 24.0556 49.8743 28.0082 53.2468C28.9552 54.0553 28.7688 54.5457 27.9534 55.2644C25.0026 57.8845 22.1031 60.5459 19.156 63.1436C15.8652 66.037 11.5507 65.2061 9.69686 61.2122C6.84485 55.081 4.10619 48.8936 1.37118 42.7063C0.409543 40.5165 -0.00363238 38.1846 2.40443e-05 35.0928Z" fill="#181C4B"/>
<path d="M208.069 34.4414C208.936 27.4231 210.53 20.6181 214.077 14.4308C214.989 12.8731 216.196 11.5178 217.627 10.4444C219.941 8.67013 222.406 8.41934 224.984 9.83423C228.018 11.4924 228.816 14.0153 227.137 17.2044C225.408 20.4946 223.441 23.6538 221.722 26.9365C219.773 30.6796 218.066 34.5425 217.206 38.7348C216.841 40.4229 216.212 42.0811 214.237 42.3169C212.168 42.5677 210.581 41.5234 209.484 39.8053C208.478 38.2119 207.983 36.3366 208.069 34.4414Z" fill="#181C4B"/>
<path d="M206.822 49.3204C206.822 46.3933 208.424 44.4805 210.786 44.5404C213.781 44.6153 216.249 47.0558 216.234 49.923C216.234 52.517 213.813 54.8901 211.258 54.834C208.588 54.7741 206.804 52.5544 206.822 49.3204Z" fill="#181C4B"/>
</svg>
