<svg xmlns="http://www.w3.org/2000/svg">
<defs>
<font id="UntitledSerif-Regular" horiz-adv-x="1120" >
  <font-face 
    font-family="Untitled Serif"
    font-weight="400"
    font-stretch="normal"
    units-per-em="2048"
    panose-1="2 2 5 3 6 3 3 6 4 3"
    ascent="1638"
    descent="-410"
    x-height="940"
    cap-height="1320"
    bbox="-320 -492 2386 1960"
    underline-thickness="100"
    underline-position="-300"
    unicode-range="U+0020-FB02"
  />
<missing-glyph horiz-adv-x="2362" 
d="M1932 950q-72 -82 -168 -82q-60 0 -99 32t-39 88v286h-58v56h58v116l138 40v-156h134v-56h-134v-266q0 -31 16 -47.5t42 -16.5q34 0 78 44zM1040 1104q0 101 68.5 168.5t167.5 67.5t168.5 -67.5t69.5 -168.5t-69.5 -168.5t-168.5 -67.5t-167.5 67.5t-68.5 168.5zM694 920
v-42h-238v42q33 0 41.5 3.5t8.5 16.5v270q0 25 -22 36l-32 18v28l164 48h28v-88q69 88 158 88q64 0 99 -42t35 -108v-250q0 -13 8.5 -16.5t41.5 -3.5v-42h-236v42q33 0 41.5 3.5t8.5 16.5v222q0 90 -72 90q-48 0 -84 -36v-276q0 -14 8 -17t42 -3zM1368 1104q0 86 -23.5 133
t-68.5 47t-68.5 -47t-23.5 -133q0 -180 92 -180t92 180zM290 872q-37 0 -63.5 27t-26.5 63t26.5 63t63.5 27q36 0 62 -27t26 -63t-26 -63t-62 -27zM826 -10h-26v84q-19 -31 -57.5 -57.5t-88.5 -26.5q-76 0 -128 64t-52 156q0 109 65.5 180.5t160.5 71.5q57 0 100 -38v154
q0 25 -22 36l-32 18v28l166 48h24v-608q0 -14 4.5 -21t17.5 -13l34 -18v-28zM1554 0v42q33 0 40.5 3t7.5 17v334h-62v56h62v18q0 99 70.5 168.5t175.5 69.5q50 0 82 -18t32 -50q0 -28 -18 -42t-42 -14q-19 0 -34 10.5t-23.5 23.5t-19.5 23.5t-23 10.5q-25 0 -43.5 -26
t-18.5 -74v-100h104v-56h-104v-334q0 -13 12.5 -16.5t65.5 -3.5v-42h-264zM1468 110q-27 -56 -80 -88t-120 -32q-94 0 -161 61.5t-67 164.5q0 102 67.5 174t164.5 72q96 0 147 -60.5t51 -151.5v-24h-296q4 -75 40.5 -116.5t95.5 -41.5q37 0 63.5 17t54.5 55zM720 74
q52 0 80 42v240q-26 50 -82 50q-47 0 -77.5 -46t-30.5 -122q0 -71 31 -117.5t79 -46.5zM1268 404q-39 0 -62.5 -33.5t-29.5 -94.5h166q-4 128 -74 128z" />
    <glyph glyph-name="fi" unicode="fi" horiz-adv-x="1176" 
d="M580 86v-86h-492v86q89 0 109.5 6t20.5 32v718h-148v98h148v10q0 121 40 225t108.5 174.5t159.5 110.5t192 40q91 0 144.5 -34.5t53.5 -89.5q0 -47 -30 -70.5t-70 -23.5q-28 0 -54.5 14.5t-45 32.5t-49.5 32.5t-67 14.5q-90 0 -150 -77t-60 -235v-124h524l58 20h28v-836
q0 -26 20.5 -32t109.5 -6v-86h-432v86q89 0 109.5 6t20.5 32v718h-438v-714q0 -29 28.5 -35.5t161.5 -6.5z" />
    <glyph glyph-name="fl" unicode="fl" horiz-adv-x="1176" 
d="M580 86v-86h-492v86q89 0 109.5 6t20.5 32v718h-148v98h148v88q0 198 128.5 335t305.5 137q107 0 196 -54l124 54h28v-1376q0 -26 20.5 -32t109.5 -6v-86h-432v86q89 0 109.5 6t20.5 32v1164q-47 53 -99.5 79.5t-126.5 26.5q-97 0 -154.5 -74.5t-57.5 -211.5v-168h228
v-98h-228v-714q0 -29 28.5 -35.5t161.5 -6.5z" />
    <glyph glyph-name="f_b" unicode="fb" horiz-adv-x="1756" 
d="M1668 510q0 -240 -125 -385t-313 -145q-68 0 -133 28.5t-103 73.5l-116 -82h-50v1288q-47 53 -99.5 79.5t-126.5 26.5q-97 0 -154.5 -74.5t-57.5 -211.5v-168h228v-98h-228v-714q0 -29 28.5 -35.5t161.5 -6.5v-86h-492v86q89 0 109.5 6t20.5 32v718h-148v98h148v88
q0 198 128.5 335t305.5 137q107 0 196 -54l124 54h28v-718q46 70 127.5 124t170.5 54q112 0 197 -61t129 -162.5t44 -226.5zM1234 832q-67 0 -130.5 -35.5t-103.5 -84.5v-528q62 -102 202 -102q131 0 209.5 105.5t78.5 282.5q0 159 -67 260.5t-189 101.5z" />
    <glyph glyph-name="f_f_b" unicode="ffb" horiz-adv-x="2366" 
d="M390 1108v-168h438v88q0 198 128.5 335t305.5 137q107 0 196 -54l124 54h28v-718q46 70 127.5 124t170.5 54q112 0 197 -61t129 -162.5t44 -226.5q0 -240 -125 -385t-313 -145q-68 0 -133 28.5t-103 73.5l-116 -82h-50v1288q-47 53 -99.5 79.5t-126.5 26.5
q-97 0 -154.5 -74.5t-57.5 -211.5v-168h228v-98h-228v-714q0 -29 28.5 -35.5t161.5 -6.5v-86h-492v86q89 0 109.5 6t20.5 32v718h-438v-714q0 -29 28.5 -35.5t161.5 -6.5v-86h-492v86q89 0 109.5 6t20.5 32v718h-148v98h148v68q0 198 118.5 335t279.5 137q78 0 123 -32.5
t45 -83.5q0 -46 -25.5 -68t-60.5 -22q-37 0 -89.5 42t-90.5 42q-60 0 -94 -62.5t-34 -187.5zM1844 832q-67 0 -130.5 -35.5t-103.5 -84.5v-528q62 -102 202 -102q131 0 209.5 105.5t78.5 282.5q0 159 -67 260.5t-189 101.5z" />
    <glyph glyph-name="f_f" unicode="ff" horiz-adv-x="1276" 
d="M580 86v-86h-492v86q89 0 109.5 6t20.5 32v718h-148v98h148v68q0 198 118.5 335t279.5 137q78 0 123 -32.5t45 -83.5q0 -46 -25.5 -68t-60.5 -22q-37 0 -89.5 42t-90.5 42q-60 0 -94 -62.5t-34 -187.5v-168h438v88q0 198 128.5 335t305.5 137q85 0 133.5 -32.5
t48.5 -83.5q0 -46 -28 -68t-66 -22q-27 0 -50.5 13.5t-39 29.5t-40 29.5t-52.5 13.5q-69 0 -118.5 -65.5t-49.5 -186.5v-188h228v-98h-228v-714q0 -29 28.5 -35.5t161.5 -6.5v-86h-492v86q89 0 109.5 6t20.5 32v718h-438v-714q0 -29 28.5 -35.5t161.5 -6.5z" />
    <glyph glyph-name="f_h" unicode="fh" horiz-adv-x="1770" 
d="M580 86v-86h-492v86q89 0 109.5 6t20.5 32v718h-148v98h148v88q0 198 128.5 335t305.5 137q107 0 196 -54l124 54h28v-718q53 68 143 123t183 55t155.5 -47.5t88.5 -120t26 -166.5v-502q0 -26 20.5 -32t109.5 -6v-86h-432v86q89 0 109.5 6t20.5 32v486q0 220 -182 220
q-67 0 -131 -34t-111 -84v-588q0 -26 20.5 -32t109.5 -6v-86h-432v86q89 0 109.5 6t20.5 32v1164q-47 53 -99.5 79.5t-126.5 26.5q-97 0 -154.5 -74.5t-57.5 -211.5v-168h228v-98h-228v-714q0 -29 28.5 -35.5t161.5 -6.5z" />
    <glyph glyph-name="f_f_h" unicode="ffh" horiz-adv-x="2380" 
d="M828 124v718h-438v-714q0 -29 28.5 -35.5t161.5 -6.5v-86h-492v86q89 0 109.5 6t20.5 32v718h-148v98h148v68q0 198 118.5 335t279.5 137q78 0 123 -32.5t45 -83.5q0 -46 -25.5 -68t-60.5 -22q-37 0 -89.5 42t-90.5 42q-60 0 -94 -62.5t-34 -187.5v-168h438v88
q0 198 128.5 335t305.5 137q107 0 196 -54l124 54h28v-718q53 68 143 123t183 55t155.5 -47.5t88.5 -120t26 -166.5v-502q0 -26 20.5 -32t109.5 -6v-86h-432v86q89 0 109.5 6t20.5 32v486q0 220 -182 220q-67 0 -131 -34t-111 -84v-588q0 -26 20.5 -32t109.5 -6v-86h-432v86
q89 0 109.5 6t20.5 32v1164q-47 53 -99.5 79.5t-126.5 26.5q-97 0 -154.5 -74.5t-57.5 -211.5v-168h228v-98h-228v-714q0 -29 28.5 -35.5t161.5 -6.5v-86h-492v86q89 0 109.5 6t20.5 32z" />
    <glyph glyph-name="f_idieresis" unicode="f&#xef;" horiz-adv-x="1176" 
d="M580 86v-86h-492v86q89 0 109.5 6t20.5 32v718h-148v98h148v88q0 198 128.5 335t305.5 137q85 0 133.5 -32.5t48.5 -83.5q0 -46 -28 -68t-66 -22q-27 0 -50.5 13.5t-39 29.5t-40 29.5t-52.5 13.5q-69 0 -118.5 -65.5t-49.5 -186.5v-188h524l58 20h28v-836q0 -26 20.5 -32
t109.5 -6v-86h-432v86q89 0 109.5 6t20.5 32v718h-438v-714q0 -29 28.5 -35.5t161.5 -6.5zM966 1252q0 48 36 83t84 35q49 0 84.5 -35t35.5 -83q0 -52 -35 -86t-85 -34q-49 0 -84.5 34.5t-35.5 85.5z" />
    <glyph glyph-name="f_f_i" unicode="ffi" horiz-adv-x="1786" 
d="M828 124v718h-438v-714q0 -29 28.5 -35.5t161.5 -6.5v-86h-492v86q89 0 109.5 6t20.5 32v718h-148v98h148v68q0 198 118.5 335t279.5 137q78 0 123 -32.5t45 -83.5q0 -46 -25.5 -68t-60.5 -22q-37 0 -89.5 42t-90.5 42q-60 0 -94 -62.5t-34 -187.5v-168h438v10
q0 121 40 225t108.5 174.5t159.5 110.5t192 40q91 0 144.5 -34.5t53.5 -89.5q0 -47 -30 -70.5t-70 -23.5q-28 0 -54.5 14.5t-45 32.5t-49.5 32.5t-67 14.5q-90 0 -150 -77t-60 -235v-124h524l58 20h28v-836q0 -26 20.5 -32t109.5 -6v-86h-432v86q89 0 109.5 6t20.5 32v718
h-438v-714q0 -29 28.5 -35.5t161.5 -6.5v-86h-492v86q89 0 109.5 6t20.5 32z" />
    <glyph glyph-name="f_f_idieresis" unicode="ff&#xef;" horiz-adv-x="1786" 
d="M828 124v718h-438v-714q0 -29 28.5 -35.5t161.5 -6.5v-86h-492v86q89 0 109.5 6t20.5 32v718h-148v98h148v68q0 198 118.5 335t279.5 137q78 0 123 -32.5t45 -83.5q0 -46 -25.5 -68t-60.5 -22q-37 0 -89.5 42t-90.5 42q-60 0 -94 -62.5t-34 -187.5v-168h438v88
q0 198 128.5 335t305.5 137q85 0 133.5 -32.5t48.5 -83.5q0 -46 -28 -68t-66 -22q-27 0 -50.5 13.5t-39 29.5t-40 29.5t-52.5 13.5q-69 0 -118.5 -65.5t-49.5 -186.5v-188h524l58 20h28v-836q0 -26 20.5 -32t109.5 -6v-86h-432v86q89 0 109.5 6t20.5 32v718h-438v-714
q0 -29 28.5 -35.5t161.5 -6.5v-86h-492v86q89 0 109.5 6t20.5 32zM1576 1252q0 48 36 83t84 35q49 0 84.5 -35t35.5 -83q0 -52 -35 -86t-85 -34q-49 0 -84.5 34.5t-35.5 85.5z" />
    <glyph glyph-name="f_j" unicode="fj" horiz-adv-x="1156" 
d="M1000 14q0 -197 -107.5 -327.5t-256.5 -130.5q-66 0 -110 31t-44 81q0 41 25.5 63.5t56.5 22.5t59.5 -20.5t53 -41t47.5 -20.5q104 0 104 238v932h-438v-714q0 -29 28.5 -35.5t161.5 -6.5v-86h-492v86q89 0 109.5 6t20.5 32v718h-148v98h148v10q0 121 40 225t108.5 174.5
t159.5 110.5t192 40q91 0 144.5 -34.5t53.5 -89.5q0 -47 -30 -70.5t-70 -23.5q-28 0 -54.5 14.5t-45 32.5t-49.5 32.5t-67 14.5q-90 0 -150 -77t-60 -235v-124h524l58 20h28v-946z" />
    <glyph glyph-name="f_f_j" unicode="ffj" horiz-adv-x="1766" 
d="M390 1108v-168h438v10q0 121 40 225t108.5 174.5t159.5 110.5t192 40q91 0 144.5 -34.5t53.5 -89.5q0 -47 -30 -70.5t-70 -23.5q-28 0 -54.5 14.5t-45 32.5t-49.5 32.5t-67 14.5q-90 0 -150 -77t-60 -235v-124h524l58 20h28v-946q0 -197 -107.5 -327.5t-256.5 -130.5
q-66 0 -110 31t-44 81q0 41 25.5 63.5t56.5 22.5t59.5 -20.5t53 -41t47.5 -20.5q104 0 104 238v932h-438v-714q0 -29 28.5 -35.5t161.5 -6.5v-86h-492v86q89 0 109.5 6t20.5 32v718h-438v-714q0 -29 28.5 -35.5t161.5 -6.5v-86h-492v86q89 0 109.5 6t20.5 32v718h-148v98
h148v68q0 198 118.5 335t279.5 137q78 0 123 -32.5t45 -83.5q0 -46 -25.5 -68t-60.5 -22q-37 0 -89.5 42t-90.5 42q-60 0 -94 -62.5t-34 -187.5z" />
    <glyph glyph-name="f_k" unicode="fk" horiz-adv-x="1776" 
d="M580 86v-86h-492v86q89 0 109.5 6t20.5 32v718h-148v98h148v88q0 198 128.5 335t305.5 137q107 0 196 -54l124 54h28v-1074l380 364q20 20 20 32t-10 18.5t-43.5 10t-100.5 3.5v86h464v-86q-79 0 -113 -7t-61 -31l-268 -248l322 -430q22 -31 59.5 -41.5t126.5 -10.5v-86
h-488v86q68 0 91 6t23 24q0 9 -18 36l-230 310l-154 -142v-196q0 -26 20.5 -32t109.5 -6v-86h-432v86q89 0 109.5 6t20.5 32v1164q-47 53 -99.5 79.5t-126.5 26.5q-97 0 -154.5 -74.5t-57.5 -211.5v-168h228v-98h-228v-714q0 -29 28.5 -35.5t161.5 -6.5z" />
    <glyph glyph-name="f_f_k" unicode="ffk" horiz-adv-x="2386" 
d="M828 124v718h-438v-714q0 -29 28.5 -35.5t161.5 -6.5v-86h-492v86q89 0 109.5 6t20.5 32v718h-148v98h148v68q0 198 118.5 335t279.5 137q78 0 123 -32.5t45 -83.5q0 -46 -25.5 -68t-60.5 -22q-37 0 -89.5 42t-90.5 42q-60 0 -94 -62.5t-34 -187.5v-168h438v88
q0 198 128.5 335t305.5 137q107 0 196 -54l124 54h28v-1074l380 364q20 20 20 32t-10 18.5t-43.5 10t-100.5 3.5v86h464v-86q-79 0 -113 -7t-61 -31l-268 -248l322 -430q22 -31 59.5 -41.5t126.5 -10.5v-86h-488v86q68 0 91 6t23 24q0 9 -18 36l-230 310l-154 -142v-196
q0 -26 20.5 -32t109.5 -6v-86h-432v86q89 0 109.5 6t20.5 32v1164q-47 53 -99.5 79.5t-126.5 26.5q-97 0 -154.5 -74.5t-57.5 -211.5v-168h228v-98h-228v-714q0 -29 28.5 -35.5t161.5 -6.5v-86h-492v86q89 0 109.5 6t20.5 32z" />
    <glyph glyph-name="f_f_l" unicode="ffl" horiz-adv-x="1796" 
d="M828 124v718h-438v-714q0 -29 28.5 -35.5t161.5 -6.5v-86h-492v86q89 0 109.5 6t20.5 32v718h-148v98h148v68q0 198 118.5 335t279.5 137q78 0 123 -32.5t45 -83.5q0 -46 -25.5 -68t-60.5 -22q-37 0 -89.5 42t-90.5 42q-60 0 -94 -62.5t-34 -187.5v-168h438v88
q0 198 128.5 335t305.5 137q107 0 196 -54l124 54h28v-1376q0 -26 20.5 -32t109.5 -6v-86h-432v86q89 0 109.5 6t20.5 32v1164q-47 53 -99.5 79.5t-126.5 26.5q-97 0 -154.5 -74.5t-57.5 -211.5v-168h228v-98h-228v-714q0 -29 28.5 -35.5t161.5 -6.5v-86h-492v86
q89 0 109.5 6t20.5 32z" />
    <glyph glyph-name=".notdef" horiz-adv-x="2362" 
d="M1932 950q-72 -82 -168 -82q-60 0 -99 32t-39 88v286h-58v56h58v116l138 40v-156h134v-56h-134v-266q0 -31 16 -47.5t42 -16.5q34 0 78 44zM1040 1104q0 101 68.5 168.5t167.5 67.5t168.5 -67.5t69.5 -168.5t-69.5 -168.5t-168.5 -67.5t-167.5 67.5t-68.5 168.5zM694 920
v-42h-238v42q33 0 41.5 3.5t8.5 16.5v270q0 25 -22 36l-32 18v28l164 48h28v-88q69 88 158 88q64 0 99 -42t35 -108v-250q0 -13 8.5 -16.5t41.5 -3.5v-42h-236v42q33 0 41.5 3.5t8.5 16.5v222q0 90 -72 90q-48 0 -84 -36v-276q0 -14 8 -17t42 -3zM1368 1104q0 86 -23.5 133
t-68.5 47t-68.5 -47t-23.5 -133q0 -180 92 -180t92 180zM290 872q-37 0 -63.5 27t-26.5 63t26.5 63t63.5 27q36 0 62 -27t26 -63t-26 -63t-62 -27zM826 -10h-26v84q-19 -31 -57.5 -57.5t-88.5 -26.5q-76 0 -128 64t-52 156q0 109 65.5 180.5t160.5 71.5q57 0 100 -38v154
q0 25 -22 36l-32 18v28l166 48h24v-608q0 -14 4.5 -21t17.5 -13l34 -18v-28zM1554 0v42q33 0 40.5 3t7.5 17v334h-62v56h62v18q0 99 70.5 168.5t175.5 69.5q50 0 82 -18t32 -50q0 -28 -18 -42t-42 -14q-19 0 -34 10.5t-23.5 23.5t-19.5 23.5t-23 10.5q-25 0 -43.5 -26
t-18.5 -74v-100h104v-56h-104v-334q0 -13 12.5 -16.5t65.5 -3.5v-42h-264zM1468 110q-27 -56 -80 -88t-120 -32q-94 0 -161 61.5t-67 164.5q0 102 67.5 174t164.5 72q96 0 147 -60.5t51 -151.5v-24h-296q4 -75 40.5 -116.5t95.5 -41.5q37 0 63.5 17t54.5 55zM720 74
q52 0 80 42v240q-26 50 -82 50q-47 0 -77.5 -46t-30.5 -122q0 -71 31 -117.5t79 -46.5zM1268 404q-39 0 -62.5 -33.5t-29.5 -94.5h166q-4 128 -74 128z" />
    <glyph glyph-name=".null" horiz-adv-x="0" 
 />
    <glyph glyph-name="nonmarkingreturn" horiz-adv-x="682" 
 />
    <glyph glyph-name="space" unicode=" " horiz-adv-x="440" 
 />
    <glyph glyph-name="exclam" unicode="!" horiz-adv-x="644" 
d="M356 394h-68q-19 194 -41 401t-33.5 312t-11.5 121q0 54 35.5 83t84.5 29t84.5 -29t35.5 -83q0 -16 -11.5 -121t-33.5 -312t-41 -401zM464 118q0 -57 -41.5 -97.5t-100.5 -40.5t-100.5 40.5t-41.5 97.5t42 99.5t100 42.5t100 -42.5t42 -99.5z" />
    <glyph glyph-name="quotedbl" unicode="&#x22;" horiz-adv-x="796" 
d="M256 840h-56l-50 344q-22 148 -22 174q0 54 25.5 88t74.5 34t74.5 -34t25.5 -88q0 -26 -22 -174zM596 840h-56l-50 344q-22 148 -22 174q0 54 25.5 88t74.5 34t74.5 -34t25.5 -88q0 -26 -22 -174z" />
    <glyph glyph-name="numbersign" unicode="#" horiz-adv-x="1332" 
d="M588 0l146 396h-330l-146 -396h-106l146 396h-208v98h244l122 332h-246v100h282l146 394h106l-146 -394h330l146 394h106l-146 -394h208v-100h-244l-122 -332h246v-98h-282l-146 -396h-106zM440 494h330l122 332h-330z" />
    <glyph glyph-name="dollar" unicode="$" horiz-adv-x="1106" 
d="M1030 386q0 -150 -119 -258t-297 -126v-212h-102v212q-114 6 -225 41.5t-179 84.5l-34 312h94q69 -310 344 -336v502q-48 14 -81 24.5t-76.5 28t-72.5 35.5t-60.5 45t-49.5 57.5t-30 72t-12 89.5q0 138 108.5 239t273.5 119v198h102v-194q192 -10 348 -128v-262h-78
q-28 130 -89.5 202.5t-180.5 83.5v-472h1l1 -1h1h1l2 -1q172 -48 244 -87q157 -85 166 -249v-20zM286 996q0 -87 58.5 -136.5t167.5 -85.5v440q-100 -15 -163 -73.5t-63 -144.5zM870 344q0 49 -19 87t-57.5 65t-79.5 44.5t-100 35.5v-470q101 14 178.5 75.5t77.5 162.5z" />
    <glyph glyph-name="percent" unicode="%" horiz-adv-x="1644" 
d="M400 1340q127 0 223.5 -102t96.5 -248t-96.5 -248t-223.5 -102t-223.5 102t-96.5 248t96.5 248t223.5 102zM430 0h-130l914 1320h130zM400 1260q-78 0 -119 -75.5t-41 -194.5t41 -194.5t119 -75.5t119 75.5t41 194.5t-41 194.5t-119 75.5zM1244 680q127 0 223.5 -102
t96.5 -248t-96.5 -248t-223.5 -102t-223.5 102t-96.5 248t96.5 248t223.5 102zM1244 600q-78 0 -119 -75.5t-41 -194.5t41 -194.5t119 -75.5t119 75.5t41 194.5t-41 194.5t-119 75.5z" />
    <glyph glyph-name="ampersand" unicode="&#x26;" horiz-adv-x="1428" 
d="M1068 0l-136 144q-180 -164 -406 -164q-84 0 -163.5 23.5t-144 68t-103.5 116t-39 158.5q0 69 24 128t69 104.5t97 79t120 64.5q-136 140 -136 290q0 137 98.5 232.5t251.5 95.5q145 0 234.5 -76t89.5 -200q0 -210 -320 -338l378 -392q74 122 74 258q0 102 -146 102v80
h458v-80q-54 -1 -85.5 -5t-55 -11t-35.5 -23.5t-19 -36.5t-13 -56q-26 -153 -116 -292l52 -54q74 -77 134.5 -100t187.5 -28v-88h-350zM542 790l8 -8q116 48 170 115.5t54 162.5q0 83 -51 134.5t-133 51.5q-81 0 -133.5 -54.5t-52.5 -139.5q0 -72 35.5 -131.5t102.5 -130.5z
M250 388q0 -140 94 -220t232 -80q164 0 298 118l-440 466q-84 -37 -134 -114.5t-50 -169.5z" />
    <glyph glyph-name="quotesingle" unicode="'" horiz-adv-x="456" 
d="M256 840h-56l-50 344q-22 148 -22 174q0 54 25.5 88t74.5 34t74.5 -34t25.5 -88q0 -26 -22 -174z" />
    <glyph glyph-name="parenleft" unicode="(" horiz-adv-x="820" 
d="M344 582q0 -270 96.5 -487t279.5 -367l-44 -64q-115 77 -206.5 169.5t-162 206t-109 251.5t-38.5 291t38.5 291t109 251.5t162 206t206.5 169.5l44 -64q-183 -150 -279.5 -367t-96.5 -487z" />
    <glyph glyph-name="parenright" unicode=")" horiz-adv-x="820" 
d="M100 -272q183 150 279.5 367t96.5 487t-96.5 487t-279.5 367l44 64q115 -77 206.5 -169.5t162 -206t109 -251.5t38.5 -291t-38.5 -291t-109 -251.5t-162 -206t-206.5 -169.5z" />
    <glyph glyph-name="asterisk" unicode="*" horiz-adv-x="920" 
d="M524 854q0 -34 -17.5 -52t-46.5 -18t-46.5 18t-17.5 52q0 19 16 104l28 150l-114 -100q-3 -3 -13 -12t-14 -12.5t-13 -11.5t-14 -11.5t-13.5 -9.5t-14.5 -9t-13 -6t-13.5 -4.5t-13.5 -1.5q-29 0 -45.5 19.5t-16.5 44.5q0 32 26.5 50t93.5 42l158 56l-158 56
q-67 24 -93.5 42t-26.5 50q0 25 16.5 44.5t45.5 19.5q7 0 13.5 -1.5t13.5 -4.5t13 -6t14.5 -9t13.5 -9.5t14 -11.5t13 -11.5t14 -12.5t13 -12l114 -100l-28 150q-1 12 -8.5 52.5t-7.5 51.5q0 34 17.5 52t46.5 18t46.5 -18t17.5 -52q0 -19 -16 -104l-28 -150l114 100
q3 3 13 12t14 12.5t13 11.5t14 11.5t13.5 9.5t14.5 9t13 6t13.5 4.5t13.5 1.5q29 0 45.5 -19.5t16.5 -44.5q0 -32 -26.5 -50t-93.5 -42l-158 -56l158 -56q67 -24 93.5 -42t26.5 -50q0 -25 -16.5 -44.5t-45.5 -19.5q-7 0 -13.5 1.5t-13.5 4.5t-13 6t-14.5 9t-13.5 9.5
t-14 11.5t-13 11.5t-14 12.5t-13 12l-114 100l28 -150q1 -12 8.5 -52.5t7.5 -51.5z" />
    <glyph glyph-name="plus" unicode="+" 
d="M1020 554h-400v-400h-120v400h-400v120h400v400h120v-400h400v-120z" />
    <glyph glyph-name="comma" unicode="," horiz-adv-x="652" 
d="M336 -38q0 21 -15.5 35t-38 23t-45 20.5t-38 34t-15.5 55.5q0 59 37 93.5t91 34.5q66 0 107 -56.5t41 -145.5q0 -144 -79.5 -237.5t-226.5 -120.5l-18 72q200 58 200 192z" />
    <glyph glyph-name="hyphen" unicode="-" horiz-adv-x="820" 
d="M688 466h-556v136h556v-136z" />
    <glyph glyph-name="period" unicode="." horiz-adv-x="652" 
d="M468 118q0 -57 -41.5 -97.5t-100.5 -40.5t-100.5 40.5t-41.5 97.5t42 99.5t100 42.5t100 -42.5t42 -99.5z" />
    <glyph glyph-name="slash" unicode="/" horiz-adv-x="838" 
d="M758 1480l-554 -1796h-124l554 1796h124z" />
    <glyph glyph-name="zero" unicode="0" horiz-adv-x="1180" 
d="M1076 660q0 -153 -39.5 -282t-106.5 -215.5t-155 -134.5t-185 -48t-185 48t-155 134.5t-106.5 215.5t-39.5 282q0 152 39.5 281t106.5 215.5t155 135t185 48.5t185 -48.5t155 -135t106.5 -215.5t39.5 -281zM298 660q0 -267 74 -417.5t218 -150.5t218 150.5t74 417.5
t-74 417.5t-218 150.5t-218 -150.5t-74 -417.5z" />
    <glyph glyph-name="one" unicode="1" horiz-adv-x="940" 
d="M874 108v-108h-768v108h126q118 0 149 9t31 43v898h-296v110q92 0 149 5t97.5 14t67 32t44 47.5t42.5 73.5h72v-1180q0 -34 31 -43t149 -9h106z" />
    <glyph glyph-name="two" unicode="2" horiz-adv-x="1068" 
d="M154 946l-84 46q77 171 195 259.5t265 88.5q171 0 270.5 -103.5t99.5 -252.5q0 -62 -20.5 -128t-52 -123t-82.5 -121.5t-97 -114t-111.5 -109.5t-110.5 -99t-108 -91l-36 -30v-8h456q65 0 103 34.5t97 145.5l70 -26l-94 -314h-848v88q333 281 487.5 484t154.5 370
q0 108 -57 178t-173 70q-192 0 -324 -244z" />
    <glyph glyph-name="three" unicode="3" horiz-adv-x="1018" 
d="M840 1072q0 -177 -272 -332q70 -12 131 -37t111 -64t79 -96.5t29 -126.5q0 -78 -31 -148.5t-83.5 -122t-119 -89.5t-139 -57t-143.5 -19q-93 0 -175.5 24.5t-133.5 69.5t-51 98q0 40 28 64t70 24q32 0 62 -18.5t54 -45.5t48.5 -54t57.5 -45.5t70 -18.5q74 0 143.5 30.5
t118 95.5t48.5 150q0 126 -95 192.5t-265 77.5l-22 52q172 108 240 181.5t68 164.5q0 72 -53.5 120t-142.5 48q-93 0 -168 -52.5t-142 -159.5l-78 56q84 151 200 228.5t250 77.5q132 0 219 -74.5t87 -193.5z" />
    <glyph glyph-name="four" unicode="4" horiz-adv-x="1242" 
d="M1044 0h-572v88q71 0 106.5 1.5t59 7.5t29 15.5t5.5 27.5v270h-616v78l620 832h168v-798h342v-112h-342v-270q0 -18 5.5 -27.5t29 -15.5t59 -7.5t106.5 -1.5v-88zM216 522h456v612h-8l-448 -604v-8z" />
    <glyph glyph-name="five" unicode="5" horiz-adv-x="1012" 
d="M428 78q57 0 110.5 18.5t99 54t73 96t27.5 135.5q0 86 -43.5 149.5t-119 98t-161.5 50.5t-186 16l-44 16l78 608h582v-186h-516l-34 -274q131 -5 239 -33t192 -78t130.5 -130t46.5 -183q0 -128 -69.5 -233.5t-185 -164t-249.5 -58.5q-142 0 -238 51.5t-96 132.5
q0 40 27.5 66t68.5 26q32 0 61 -18.5t50.5 -44.5t43.5 -52t51 -44.5t62 -18.5z" />
    <glyph glyph-name="six" unicode="6" horiz-adv-x="1126" 
d="M1038 434q0 -87 -34 -169.5t-92.5 -145.5t-145.5 -101t-186 -38q-132 0 -241 71t-172 197t-63 280q0 196 95.5 365t274.5 286.5t414 160.5l36 -88q-106 -24 -203 -72t-179 -118.5t-142.5 -168t-87.5 -211.5q57 61 144 100.5t194 39.5q70 0 139 -27t124.5 -75.5t90 -123.5
t34.5 -162zM290 496q0 -194 83 -304t215 -110q125 0 196.5 93t71.5 219q0 132 -78.5 220t-207.5 88q-151 0 -272 -90q-8 -51 -8 -116z" />
    <glyph glyph-name="seven" unicode="7" horiz-adv-x="1068" 
d="M414 1160q-28 0 -46.5 -0.5t-38 -4.5t-30.5 -6.5t-24.5 -14.5t-20 -19.5t-17 -30.5t-15 -38t-14 -52t-15.5 -63t-17 -79h-80l22 468h890v-88l-496 -1232h-188v22l540 1138h-450z" />
    <glyph glyph-name="eight" unicode="8" horiz-adv-x="1112" 
d="M1008 344q0 -146 -128.5 -255t-317.5 -109q-194 0 -326 98t-132 246q0 208 302 344q-115 61 -179.5 133t-64.5 177q0 68 28 132.5t77 116t125 82.5t164 31q175 0 288.5 -95t113.5 -235q0 -87 -71.5 -170.5t-196.5 -145.5q72 -36 120 -65t98 -72t75 -96t25 -117zM320 1008
q0 -39 18 -74.5t42 -60.5t70.5 -54.5t79.5 -46.5t94 -46q82 43 129 115.5t47 154.5q0 109 -65.5 174.5t-178.5 65.5q-107 0 -171.5 -67t-64.5 -161zM272 330q0 -108 85.5 -177t204.5 -69q120 0 197 63t77 163q0 27 -6 51.5t-20.5 47t-28 40t-40.5 37t-44 32t-53 31.5t-54 28
t-60 29t-58 28q-94 -48 -147 -128.5t-53 -175.5z" />
    <glyph glyph-name="nine" unicode="9" horiz-adv-x="1126" 
d="M1022 792q0 -196 -95.5 -365t-274.5 -286.5t-414 -160.5l-36 88q106 24 203 72t179 118.5t142.5 168t87.5 211.5q-57 -61 -144 -100.5t-194 -39.5q-70 0 -139 27t-124.5 75.5t-90 123.5t-34.5 162t34 169.5t92.5 145.5t145.5 101t186 38q132 0 241 -71t172 -197t63 -280z
M270 926q0 -132 78.5 -220t207.5 -88q151 0 272 90q8 51 8 116q0 194 -83 304t-215 110q-125 0 -196.5 -93t-71.5 -219z" />
    <glyph glyph-name="colon" unicode=":" horiz-adv-x="652" 
d="M468 728q0 -57 -41.5 -97.5t-100.5 -40.5t-100.5 40.5t-41.5 97.5t42 99.5t100 42.5t100 -42.5t42 -99.5zM468 120q0 -57 -41.5 -97.5t-100.5 -40.5t-100.5 40.5t-41.5 97.5t42 99.5t100 42.5t100 -42.5t42 -99.5z" />
    <glyph glyph-name="semicolon" unicode=";" horiz-adv-x="652" 
d="M468 728q0 -57 -41.5 -97.5t-100.5 -40.5t-100.5 40.5t-41.5 97.5t42 99.5t100 42.5t100 -42.5t42 -99.5zM336 -36q0 21 -15.5 35t-38 23t-45 20.5t-38 34t-15.5 55.5q0 59 37 93.5t91 34.5q66 0 107 -56.5t41 -145.5q0 -144 -79.5 -237.5t-226.5 -120.5l-18 72
q200 58 200 192z" />
    <glyph glyph-name="less" unicode="&#x3c;" 
d="M112 564v106l896 444v-146l-734 -354l734 -350v-148z" />
    <glyph glyph-name="equal" unicode="=" 
d="M100 742v120h920v-120h-920zM100 382v120h920v-120h-920z" />
    <glyph glyph-name="greater" unicode="&#x3e;" 
d="M1008 670v-106l-896 -448v148l734 350l-734 354v146z" />
    <glyph glyph-name="question" unicode="?" horiz-adv-x="890" 
d="M702 986q0 62 -44 105t-103 60t-125 17q-51 0 -114.5 -22t-83.5 -22q-43 0 -67.5 25t-24.5 59q0 56 56 94t148 38q124 0 231.5 -57t171 -152.5t63.5 -204.5q0 -59 -28.5 -108t-73.5 -82t-108.5 -57.5t-125.5 -37.5t-132 -21v-226h-78l-48 342q0 63 82 70q60 6 100.5 11.5
t92 14.5t85.5 22t65 31t46 43.5t15 57.5zM448 118q0 -57 -41.5 -97.5t-100.5 -40.5t-100.5 40.5t-41.5 97.5t42 99.5t100 42.5t100 -42.5t42 -99.5z" />
    <glyph glyph-name="at" unicode="@" horiz-adv-x="1960" 
d="M1178 122q83 0 173.5 47t166 126t125 194t49.5 239q0 216 -139 342t-405 126q-176 0 -341 -81.5t-281 -210t-186 -291.5t-70 -323q0 -270 176.5 -426t467.5 -156q300 0 564 156l28 -72q-110 -83 -280 -133.5t-344 -50.5q-226 0 -397 77t-268 228.5t-97 358.5
q0 121 37 245t103 235.5t163 209t212 169t255 112.5t286 41q304 0 484 -151t180 -403q0 -183 -109.5 -347t-281 -259.5t-351.5 -95.5q-114 0 -114 74q0 31 21.5 80t92.5 192h-10q-47 -66 -95 -122.5t-104.5 -109.5t-115 -83.5t-109.5 -30.5q-71 0 -114.5 48t-43.5 130
q0 154 95 321t242 278t287 111q59 0 100.5 -27t55.5 -69l68 96h134l-290 -634q-48 -108 -48 -134t28 -26zM752 140q48 0 128.5 68t154.5 160.5t128.5 197t54.5 170.5q0 46 -26 73t-76 27q-66 0 -143.5 -58t-141 -145t-106.5 -196t-43 -203t70 -94z" />
    <glyph glyph-name="A" unicode="A" horiz-adv-x="1440" 
d="M498 88v-88h-478v88q94 0 125.5 10.5t46.5 49.5l460 1182h136l460 -1182q15 -39 46.5 -49.5t125.5 -10.5v-88h-548v88q110 0 148 8t38 30q0 10 -10 38l-120 324h-486l-120 -324q-10 -28 -10 -38q0 -22 38 -30t148 -8zM682 1134l-206 -554h418l-204 554h-8z" />
    <glyph glyph-name="B" unicode="B" horiz-adv-x="1252" 
d="M60 0v88q118 0 149 9t31 43v1040q0 34 -31 43t-149 9v88h566q99 0 182.5 -18t151 -55.5t106 -102t38.5 -150.5q0 -116 -87.5 -201t-212.5 -99v-8q155 -9 260.5 -92t105.5 -218q0 -181 -140.5 -278.5t-395.5 -97.5h-574zM428 720h156q149 0 239.5 68.5t90.5 195.5
q0 124 -89 184t-241 60h-156v-508zM428 92h198q354 0 354 280q0 120 -96 188t-258 68h-198v-536z" />
    <glyph glyph-name="C" unicode="C" horiz-adv-x="1262" 
d="M1088 906q-62 158 -164 242t-222 84q-183 0 -297.5 -149.5t-114.5 -416.5q0 -247 125.5 -407.5t314.5 -160.5q113 0 209.5 53t160.5 157l76 -60q-157 -268 -478 -268q-122 0 -233 48t-195.5 133.5t-135 214t-50.5 280.5q0 153 50 283t135 217t197 135.5t236 48.5
q165 0 294 -112l66 100h72l20 -422h-66z" />
    <glyph glyph-name="D" unicode="D" horiz-adv-x="1392" 
d="M60 1320h508q219 0 386.5 -78.5t260.5 -225.5t93 -342q0 -196 -92.5 -349.5t-261.5 -239t-386 -85.5h-508v88q118 0 149 9t31 43v1040q0 34 -31 43t-149 9v88zM428 92h130q258 0 401 159.5t143 422.5q0 260 -141.5 407t-402.5 147h-130v-1136z" />
    <glyph glyph-name="E" unicode="E" horiz-adv-x="1246" 
d="M1086 1320l18 -402h-76q-47 167 -70 212q-34 66 -96 85q-43 13 -116 13h-318v-508h128q49 0 75 1t51 10t35 18.5t20.5 37t14.5 55t10 82.5h80v-500h-72q-7 54 -11.5 83t-16 55.5t-22 37t-36.5 18.5t-52 9t-76 1h-128v-536h270q80 0 131.5 7.5t98.5 28t77 60.5t55 102
t44 156h80l-42 -446h-1082v88q118 0 149 9t31 43v1040q0 34 -31 43t-149 9v88h1026z" />
    <glyph glyph-name="F" unicode="F" horiz-adv-x="1210" 
d="M694 0h-634v88q118 0 149 9t31 43v1040q0 34 -31 43t-149 9v88h1056l18 -402h-76q-47 167 -70 212q-34 66 -96 85q-43 13 -116 13h-348v-508h128q49 0 75 1t51 10t35 18.5t20.5 37t14.5 55t10 82.5h80v-500h-72q-7 54 -11.5 83t-16 55.5t-22 37t-36.5 18.5t-52 9t-76 1
h-128v-488q0 -34 31 -43t149 -9h86v-88z" />
    <glyph glyph-name="G" unicode="G" horiz-adv-x="1416" 
d="M1008 484q0 34 -31 43t-149 9v88h548v-88q-118 0 -149 -9t-31 -43v-340q-184 -164 -464 -164q-127 0 -244 48t-207 133.5t-143.5 214.5t-53.5 280q0 153 52.5 283.5t140 217t201.5 135t238 48.5q171 0 300 -112l66 100h72l20 -422h-66q-62 160 -164 243t-228 83
q-89 0 -166.5 -38t-136 -109t-92 -181.5t-33.5 -247.5q0 -135 38 -244.5t102.5 -179t148 -107t177.5 -37.5q165 0 254 68v328z" />
    <glyph glyph-name="H" unicode="H" horiz-adv-x="1514" 
d="M608 88v-88h-548v88q118 0 149 9t31 43v1040q0 34 -31 43t-149 9v88h548v-88q-118 0 -149 -9t-31 -43v-460h658v460q0 34 -31 43t-149 9v88h548v-88q-118 0 -149 -9t-31 -43v-1040q0 -34 31 -43t149 -9v-88h-548v88q118 0 149 9t31 43v488h-658v-488q0 -34 31 -43t149 -9
z" />
    <glyph glyph-name="I" unicode="I" horiz-adv-x="668" 
d="M608 88v-88h-548v88q118 0 149 9t31 43v1040q0 34 -31 43t-149 9v88h548v-88q-118 0 -149 -9t-31 -43v-1040q0 -34 31 -43t149 -9z" />
    <glyph glyph-name="J" unicode="J" horiz-adv-x="668" 
d="M428 1180v-1104q0 -117 -36.5 -216.5t-98.5 -165t-142.5 -102t-168.5 -36.5q-80 0 -132 37t-52 95q0 45 30 70.5t70 25.5q25 0 50.5 -16.5t44 -36.5t44.5 -36.5t53 -16.5q150 0 150 304v1198q0 34 -31 43t-149 9v88h548v-88q-118 0 -149 -9t-31 -43z" />
    <glyph glyph-name="K" unicode="K" horiz-adv-x="1374" 
d="M608 88v-88h-548v88q118 0 149 9t31 43v1040q0 34 -31 43t-149 9v88h548v-88q-118 0 -149 -9t-31 -43v-562l526 536q20 23 20 40q0 23 -33 30.5t-137 7.5v88h520v-88q-102 0 -141.5 -12.5t-74.5 -47.5l-416 -406l500 -612q25 -30 66.5 -45.5t149.5 -20.5v-88h-570v88
q76 0 109 8.5t33 29.5q0 17 -22 42l-386 478l-144 -140v-366q0 -34 31 -43t149 -9z" />
    <glyph glyph-name="L" unicode="L" horiz-adv-x="1206" 
d="M1144 446l-42 -446h-1042v88q118 0 149 9t31 43v1040q0 34 -31 43t-149 9v88h548v-88q-118 0 -149 -9t-31 -43v-1088h230q80 0 131.5 7.5t98.5 28t77 60.5t55 102t44 156h80z" />
    <glyph glyph-name="M" unicode="M" horiz-adv-x="1718" 
d="M1658 1320v-88q-118 0 -149 -9t-31 -43v-1040q0 -34 31 -43t149 -9v-88h-548v88q118 0 149 9t31 43v1078h-8l-432 -1230h-66l-420 1230h-8v-1078q0 -34 31 -43t149 -9v-88h-476v88q118 0 149 9t31 43v1038q0 36 -31 45t-149 7v90h458l332 -1026h8l346 1026h454z" />
    <glyph glyph-name="N" unicode="N" horiz-adv-x="1428" 
d="M1100 1180q0 34 -31 43t-149 9v88h476v-88q-118 0 -149 -9t-31 -43v-1196h-98l-754 1170h-8v-1014q0 -34 31 -43t149 -9v-88h-476v88q118 0 149 9t31 43v1038q0 36 -31 45t-149 7v90h412l620 -986h8v846z" />
    <glyph glyph-name="O" unicode="O" horiz-adv-x="1372" 
d="M1288 660q0 -152 -49.5 -281.5t-132.5 -216t-192 -134.5t-228 -48t-228 48t-192 134.5t-132.5 216t-49.5 281.5t49.5 281.5t132.5 216t192 134.5t228 48t228 -48t192 -134.5t132.5 -216t49.5 -281.5zM1084 660q0 265 -111 418.5t-287 153.5t-287 -153.5t-111 -418.5
t111 -418.5t287 -153.5t287 153.5t111 418.5z" />
    <glyph glyph-name="P" unicode="P" horiz-adv-x="1230" 
d="M240 140v1040q0 34 -31 43t-149 9v88h562q236 0 380 -99t144 -275t-144 -275t-380 -99h-194v-432q0 -34 31 -43t149 -9h86v-88h-634v88q118 0 149 9t31 43zM428 664h182q334 0 334 282t-334 282h-182v-564z" />
    <glyph glyph-name="Q" unicode="Q" horiz-adv-x="1372" 
d="M1210 -328q-260 -65 -417 21.5t-183 290.5q-108 14 -203 68t-167 139.5t-114 207t-42 261.5q0 152 49.5 281.5t132.5 216t192 134.5t228 48t228 -48t192 -134.5t132.5 -216t49.5 -281.5q0 -265 -138.5 -444.5t-347.5 -223.5q9 -50 27 -91t49 -77t74.5 -56t104.5 -28
t139 8zM1084 660q0 265 -111 418.5t-287 153.5t-287 -153.5t-111 -418.5t111 -418.5t287 -153.5t287 153.5t111 418.5z" />
    <glyph glyph-name="R" unicode="R" horiz-adv-x="1374" 
d="M608 88v-88h-548v88q118 0 149 9t31 43v1040q0 34 -31 43t-149 9v88h566q155 0 271 -37.5t184.5 -118.5t68.5 -198q0 -135 -95 -220.5t-253 -117.5l298 -434q42 -62 80 -79.5t124 -22.5l66 -4v-88h-372l-328 550q-21 36 -46.5 49t-63.5 13h-132v-472q0 -34 31 -43t149 -9
zM428 704h186q77 0 136 13t106 42.5t71.5 81.5t24.5 125t-24.5 125t-71.5 81.5t-106 42.5t-136 13h-186v-524z" />
    <glyph glyph-name="S" unicode="S" horiz-adv-x="1146" 
d="M964 1328l20 -422h-66q-61 155 -164 240.5t-222 85.5q-95 0 -157.5 -58.5t-62.5 -145.5q0 -55 25.5 -98.5t68.5 -72.5t98.5 -52.5t117 -44t123 -42.5t117 -52t98.5 -69t68.5 -97t25.5 -132q0 -169 -128 -278.5t-324 -109.5q-94 0 -182.5 34.5t-149.5 87.5l-66 -110h-72
l-44 454h72q46 -117 122.5 -200t157.5 -120.5t160 -37.5q55 0 103.5 13.5t89.5 40t65 72t24 104.5q0 67 -40.5 116t-105 79.5t-142.5 57.5t-156 59t-142.5 73.5t-105 112t-40.5 164.5q0 156 109 258t273 102q165 0 294 -112l66 100h72z" />
    <glyph glyph-name="T" unicode="T" horiz-adv-x="1340" 
d="M978 0h-616v88h34q118 0 149 9t31 43v1088h-170q-138 0 -181 -52t-98 -248q-2 -7 -3 -10h-76l18 402h1208l18 -402h-76q-47 167 -70 212q-34 66 -96 85q-42 13 -116 13h-170v-1088q0 -34 31 -43t149 -9h34v-88z" />
    <glyph glyph-name="U" unicode="U" horiz-adv-x="1484" 
d="M1138 1180q0 34 -31 43t-149 9v88h476v-88q-118 0 -149 -9t-31 -43v-700q0 -230 -140 -365t-352 -135q-239 0 -385.5 132.5t-146.5 363.5v704q0 34 -31 43t-149 9v88h548v-88q-118 0 -149 -9t-31 -43v-678q0 -199 95 -299.5t265 -100.5q174 0 267 102.5t93 297.5v678z
" />
    <glyph glyph-name="V" unicode="V" horiz-adv-x="1440" 
d="M750 186h8l360 970q10 28 10 38q0 22 -38 30t-148 8v88h478v-88q-94 0 -125.5 -10.5t-46.5 -49.5l-460 -1182h-136l-460 1182q-15 39 -46.5 49.5t-125.5 10.5v88h548v-88q-110 0 -148 -8t-38 -30q0 -10 10 -38z" />
    <glyph glyph-name="W" unicode="W" horiz-adv-x="1946" 
d="M970 1012l-296 -1022h-120l-360 1182q-11 38 -49 49t-125 11v88h548v-88q-105 0 -144.5 -8t-39.5 -30q0 -9 8 -38l256 -898h8l294 1062h108l302 -1064h8l258 898q8 29 8 40q0 22 -38 30t-148 8v88h478v-88q-94 0 -126.5 -11t-45.5 -49l-360 -1182h-120l-296 1022h-8z" />
    <glyph glyph-name="X" unicode="X" horiz-adv-x="1454" 
d="M510 88v-88h-490v88q87 0 122.5 11.5t65.5 48.5l420 520l-394 504q-30 38 -60.5 49t-115.5 11v88h556v-88q-106 0 -141 -7.5t-35 -30.5q0 -12 16 -36l296 -376l302 376q16 24 16 38q0 22 -35 29t-141 7v88h478v-88q-85 0 -116.5 -11.5t-61.5 -48.5l-378 -472l434 -552
q29 -37 64 -48.5t122 -11.5v-88h-560v88q101 0 133.5 7.5t32.5 30.5q0 12 -16 36l-332 424l-340 -424q-14 -21 -14 -34q0 -23 34 -31.5t138 -8.5z" />
    <glyph glyph-name="Y" unicode="Y" horiz-adv-x="1400" 
d="M1006 88v-88h-616v88h34q118 0 149 9t31 43v416l-412 616q-22 27 -36 37.5t-44.5 16.5t-91.5 6v88h570v-88q-110 0 -150 -8t-40 -30q0 -15 14 -36l328 -502h8l320 502q14 21 14 36q0 22 -40 30t-150 8v88h486v-88q-88 0 -116 -10.5t-56 -49.5l-416 -622v-410
q0 -34 31 -43t149 -9h34z" />
    <glyph glyph-name="Z" unicode="Z" horiz-adv-x="1222" 
d="M674 92q80 0 131.5 7.5t98.5 28t77 60.5t55 102t44 156h80l-42 -446h-1050v62l822 1166h-414q-138 0 -181 -52t-98 -248q-2 -7 -3 -10h-76l18 402h984v-64l-824 -1164h378z" />
    <glyph glyph-name="bracketleft" unicode="[" horiz-adv-x="798" 
d="M698 -238v-78h-498v1796h498v-78l-222 -10q-73 -3 -96.5 -17.5t-23.5 -62.5v-1460q0 -48 23.5 -62.5t96.5 -17.5z" />
    <glyph glyph-name="backslash" unicode="\" horiz-adv-x="838" 
d="M634 -316l-554 1796h124l554 -1796h-124z" />
    <glyph glyph-name="bracketright" unicode="]" horiz-adv-x="798" 
d="M100 -316v78l222 10q73 3 96.5 17.5t23.5 62.5v1460q0 48 -23.5 62.5t-96.5 17.5l-222 10v78h498v-1796h-498z" />
    <glyph glyph-name="asciicircum" unicode="^" horiz-adv-x="964" 
d="M410 1320h144l310 -580h-134l-248 470l-248 -470h-134z" />
    <glyph glyph-name="underscore" unicode="_" horiz-adv-x="964" 
d="M832 -260h-700v128h700v-128z" />
    <glyph glyph-name="grave" unicode="`" horiz-adv-x="1000" 
d="M482 1414l196 -300l-42 -36l-282 234q-52 43 -52 88q0 37 22 58.5t60 21.5q55 0 98 -66z" />
    <glyph glyph-name="a" unicode="a" horiz-adv-x="998" 
d="M834 -20q-71 0 -123.5 48t-62.5 124q-54 -71 -143 -121.5t-175 -50.5q-102 0 -167 59t-65 159q0 133 133 225t409 149v124q0 84 -43 128t-127 44q-63 0 -109.5 -26t-46.5 -60q0 -11 9 -34t9 -46q0 -42 -28 -69t-72 -27q-42 0 -73 30.5t-31 79.5q0 67 56 124t144 88.5
t184 31.5q144 0 222 -59.5t78 -198.5v-500q0 -50 25 -76t57 -26q44 0 90 36l30 -62q-34 -40 -82.5 -67t-97.5 -27zM640 486q-193 -44 -282.5 -102t-89.5 -152q0 -61 35 -96.5t93 -35.5q127 0 244 120v266z" />
    <glyph glyph-name="b" unicode="b" horiz-adv-x="1084" 
d="M996 510q0 -240 -125 -385t-313 -145q-68 0 -133 28.5t-103 73.5l-116 -82h-50v1268q0 30 -8.5 40.5t-37.5 23.5l-92 42v44l282 82h28v-718q46 70 127.5 124t170.5 54q112 0 197 -61t129 -162.5t44 -226.5zM562 832q-68 0 -132 -36.5t-102 -83.5v-528q62 -102 202 -102
q131 0 209.5 105.5t78.5 282.5q0 159 -67 260.5t-189 101.5z" />
    <glyph glyph-name="c" unicode="c" horiz-adv-x="910" 
d="M518 856q-109 0 -185.5 -105.5t-76.5 -270.5q0 -179 80.5 -279.5t195.5 -100.5q82 0 142 40t110 126l78 -48q-55 -111 -147.5 -174.5t-214.5 -63.5q-83 0 -157.5 31t-133 88.5t-93 147.5t-34.5 199q0 142 65.5 261.5t171 186t223.5 66.5q124 0 209 -59t85 -131
q0 -44 -26.5 -69t-63.5 -25q-27 0 -46.5 13.5t-30 33.5t-23.5 43t-26.5 43t-39.5 33.5t-62 13.5z" />
    <glyph glyph-name="d" unicode="d" horiz-adv-x="1108" 
d="M1060 22l-282 -42h-28v178q-44 -71 -124.5 -124.5t-169.5 -53.5q-109 0 -195.5 62t-132.5 165t-46 227q0 158 59 279t158 184t221 63q63 0 126.5 -23.5t103.5 -62.5v394q0 30 -8.5 40.5t-37.5 23.5l-92 42v44l282 82h28v-1328q0 -30 8.5 -40.5t37.5 -23.5l92 -42v-44z
M260 474q0 -159 71 -263.5t191 -104.5q124 0 228 122v528q-63 108 -204 108q-128 0 -207 -108.5t-79 -281.5z" />
    <glyph glyph-name="e" unicode="e" horiz-adv-x="956" 
d="M876 192q-50 -100 -148 -156t-212 -56q-86 0 -164 33.5t-138.5 93.5t-96 152t-35.5 201q0 107 36 201t95.5 159t138 102.5t162.5 37.5q175 0 266.5 -112t91.5 -288v-64h-620v-6q0 -185 87.5 -287.5t214.5 -102.5q78 0 134.5 33t113.5 111zM506 862q-92 0 -160.5 -73
t-87.5 -205h446q-3 278 -198 278z" />
    <glyph glyph-name="f" unicode="f" horiz-adv-x="666" 
d="M580 86v-86h-492v86q89 0 109.5 6t20.5 32v718h-148v98h148v88q0 198 128.5 335t305.5 137q85 0 133.5 -32.5t48.5 -83.5q0 -46 -28 -68t-66 -22q-27 0 -50.5 13.5t-39 29.5t-40 29.5t-52.5 13.5q-69 0 -118.5 -65.5t-49.5 -186.5v-188h228v-98h-228v-714
q0 -29 28.5 -35.5t161.5 -6.5z" />
    <glyph glyph-name="g" unicode="g" horiz-adv-x="1070" 
d="M1004 -94q0 -108 -76.5 -189t-196.5 -121t-263 -40q-200 0 -321 65.5t-121 188.5q0 71 63 122t163 70q-59 19 -94.5 64t-35.5 100q0 125 166 200q-83 44 -129.5 116.5t-46.5 157.5q0 130 112.5 225t265.5 95q163 0 280 -110q55 68 105 108t105 40t88.5 -30.5t33.5 -85.5
q0 -47 -30 -75.5t-66 -28.5q-26 0 -45.5 10.5t-28.5 23.5t-20 23.5t-22 10.5q-36 0 -80 -44q54 -76 54 -162q0 -129 -111.5 -224.5t-262.5 -95.5q-77 0 -134 20q-63 -31 -91.5 -58.5t-28.5 -65.5q0 -31 20 -51.5t54 -20.5h376q141 0 229.5 -58t88.5 -180zM294 640
q0 -107 53 -169.5t143 -62.5q89 0 141.5 63t52.5 169q0 108 -52.5 171t-141.5 63q-90 0 -143 -63t-53 -171zM664 -20h-358q-124 -53 -124 -156q0 -84 83.5 -128t218.5 -44q157 0 261.5 58.5t104.5 147.5q0 67 -43.5 94.5t-142.5 27.5z" />
    <glyph glyph-name="h" unicode="h" horiz-adv-x="1140" 
d="M500 86v-86h-432v86q89 0 109.5 6t20.5 32v1144q0 30 -8.5 40.5t-37.5 23.5l-92 42v44l282 82h28v-718q53 68 143 123t183 55t155.5 -47.5t88.5 -120t26 -166.5v-502q0 -26 20.5 -32t109.5 -6v-86h-432v86q89 0 109.5 6t20.5 32v486q0 220 -182 220q-67 0 -131 -34
t-111 -84v-588q0 -26 20.5 -32t109.5 -6z" />
    <glyph glyph-name="i" unicode="i" horiz-adv-x="556" 
d="M164 1294q0 52 37 89t89 37t89 -37t37 -89t-37 -89t-89 -37t-89 37t-37 89zM208 728q0 30 -8.5 40.5t-37.5 23.5l-92 42v44l282 82h28v-836q0 -26 20.5 -32t109.5 -6v-86h-432v86q89 0 109.5 6t20.5 32v604z" />
    <glyph glyph-name="j" unicode="j" horiz-adv-x="516" 
d="M144 1294q0 52 37 89t89 37t89 -37t37 -89t-37 -89t-89 -37t-89 37t-37 89zM188 728q0 30 -8.5 40.5t-37.5 23.5l-92 42v44l282 82h28v-946q0 -197 -107.5 -327.5t-256.5 -130.5q-66 0 -110 31t-44 81q0 41 25.5 63.5t56.5 22.5t59.5 -20.5t53 -41t47.5 -20.5
q104 0 104 238v818z" />
    <glyph glyph-name="k" unicode="k" horiz-adv-x="1146" 
d="M500 86v-86h-432v86q89 0 109.5 6t20.5 32v1144q0 30 -8.5 40.5t-37.5 23.5l-92 42v44l282 82h28v-1074l380 364q20 20 20 32t-10 18.5t-43.5 10t-100.5 3.5v86h464v-86q-79 0 -113 -7t-61 -31l-268 -248l322 -430q22 -31 59.5 -41.5t126.5 -10.5v-86h-488v86q68 0 91 6
t23 24q0 9 -18 36l-230 310l-154 -142v-196q0 -26 20.5 -32t109.5 -6z" />
    <glyph glyph-name="l" unicode="l" horiz-adv-x="556" 
d="M198 1268q0 30 -8.5 40.5t-37.5 23.5l-92 42v44l282 82h28v-1376q0 -26 20.5 -32t109.5 -6v-86h-432v86q89 0 109.5 6t20.5 32v1144z" />
    <glyph glyph-name="m" unicode="m" horiz-adv-x="1706" 
d="M510 86v-86h-432v86q89 0 109.5 6t20.5 32v604q0 30 -8.5 40.5t-37.5 23.5l-92 42v44l282 82h28v-178q53 69 139 123.5t175 54.5q189 0 244 -188q63 76 151 132t181 56q70 0 122 -26.5t82 -74t44 -105.5t14 -128v-502q0 -26 20.5 -32t109.5 -6v-86h-432v86q89 0 109.5 6
t20.5 32v486q0 220 -174 220q-61 0 -124 -35.5t-112 -86.5q6 -39 6 -82v-502q0 -26 20.5 -32t109.5 -6v-86h-432v86q89 0 109.5 6t20.5 32v486q0 220 -174 220q-116 0 -230 -118v-588q0 -26 20.5 -32t109.5 -6z" />
    <glyph glyph-name="n" unicode="n" horiz-adv-x="1150" 
d="M510 86v-86h-432v86q89 0 109.5 6t20.5 32v604q0 30 -8.5 40.5t-37.5 23.5l-92 42v44l282 82h28v-178q53 68 143 123t183 55t155.5 -47.5t88.5 -120t26 -166.5v-502q0 -26 20.5 -32t109.5 -6v-86h-432v86q89 0 109.5 6t20.5 32v486q0 220 -182 220q-67 0 -131 -34
t-111 -84v-588q0 -26 20.5 -32t109.5 -6z" />
    <glyph glyph-name="o" unicode="o" horiz-adv-x="1036" 
d="M82 470q0 217 126.5 353.5t309.5 136.5t309.5 -136.5t126.5 -353.5t-126.5 -353.5t-309.5 -136.5t-309.5 136.5t-126.5 353.5zM770 470q0 184 -65 287t-187 103t-187 -103t-65 -287t65 -287t187 -103t187 103t65 287z" />
    <glyph glyph-name="p" unicode="p" horiz-adv-x="1116" 
d="M556 -338v-86h-492v86q89 0 109.5 6t20.5 32v1028q0 30 -8.5 40.5t-37.5 23.5l-92 42v44l282 82h28v-178q46 70 127.5 124t170.5 54q112 0 197 -61t129 -162.5t44 -226.5q0 -240 -125 -385t-313 -145q-68 0 -130 27.5t-100 72.5v-376q0 -29 28.5 -35.5t161.5 -6.5z
M600 832q-68 0 -132 -36.5t-102 -83.5v-528q62 -102 202 -102q131 0 209.5 105.5t78.5 282.5q0 159 -67 260.5t-189 101.5z" />
    <glyph glyph-name="q" unicode="q" horiz-adv-x="1074" 
d="M1052 -338v-86h-492v86q133 0 161.5 6.5t28.5 35.5v454q-47 -71 -126.5 -124.5t-167.5 -53.5q-167 0 -270.5 129.5t-103.5 320.5q0 240 125 385t313 145q67 0 134 -27t106 -69l112 96h50v-1260q0 -26 20.5 -32t109.5 -6zM260 470q0 -161 68.5 -261.5t191.5 -100.5
q67 0 129 36.5t101 83.5v528q-61 98 -202 98q-130 0 -209 -105t-79 -279z" />
    <glyph glyph-name="r" unicode="r" horiz-adv-x="830" 
d="M570 86v-86h-492v86q89 0 109.5 6t20.5 32v604q0 30 -8.5 40.5t-37.5 23.5l-92 42v44l282 82h28v-266q25 43 56.5 85.5t71.5 85t85 69t85 26.5q62 0 97 -35.5t35 -84.5q0 -51 -30.5 -79.5t-77.5 -28.5q-29 0 -66.5 29t-59.5 29q-38 -3 -93 -58.5t-103 -125.5v-478
q0 -29 28.5 -35.5t161.5 -6.5z" />
    <glyph glyph-name="s" unicode="s" horiz-adv-x="858" 
d="M438 864q-78 0 -128 -40t-50 -108q0 -43 29 -73.5t75 -48.5t101.5 -34.5t111 -37t101.5 -49t75 -78.5t29 -117q0 -134 -109 -216t-263 -82q-159 0 -312 88l-20 246h78q26 -128 93.5 -183t176.5 -55q83 0 141.5 41.5t58.5 114.5q0 47 -28 79.5t-73 51.5t-99.5 34.5
t-109 35t-99.5 46t-73 74t-28 113.5q0 126 97 210t241 84q138 0 270 -74v-238h-70q-18 107 -67.5 161.5t-148.5 54.5z" />
    <glyph glyph-name="t" unicode="t" horiz-adv-x="748" 
d="M740 136q-56 -76 -137 -116t-169 -40q-109 0 -180.5 64t-71.5 162v636h-128v98h128v240l172 50v-290h298v-98h-298v-588q0 -154 150 -154q94 0 184 100z" />
    <glyph glyph-name="u" unicode="u" horiz-adv-x="1098" 
d="M1060 22l-282 -42h-28v168q-53 -69 -132 -118.5t-168 -49.5q-130 0 -203 90t-73 244v454q0 32 -9 45t-37 19l-96 18v70l286 20h28v-614q0 -108 45.5 -164t130.5 -56q121 0 228 118v544q0 32 -9 45t-37 19l-96 18v70l286 20h28v-768q0 -30 8.5 -40.5t37.5 -23.5l92 -42
v-44z" />
    <glyph glyph-name="v" unicode="v" horiz-adv-x="1010" 
d="M656 940h354v-86q-72 0 -92.5 -6.5t-29.5 -31.5l-332 -826h-102l-330 826q-9 24 -30.5 31t-93.5 7v86h432v-86q-86 -3 -106 -7t-20 -19q0 -10 8 -30l220 -608h8l232 608q8 20 8 30q0 15 -20 19t-106 7v86z" />
    <glyph glyph-name="w" unicode="w" horiz-adv-x="1456" 
d="M960 -10l-230 704h-8l-224 -704h-100l-274 826q-8 24 -29.5 31t-94.5 7v86h424v-86q-86 -3 -106 -7t-20 -19q0 -10 8 -30l174 -564h8l222 706h98l228 -708h8l182 566q8 20 8 30q0 15 -20 19t-106 7v86h348v-86q-51 0 -74 -3t-33 -10.5t-15 -24.5l-274 -826h-100z" />
    <glyph glyph-name="x" unicode="x" horiz-adv-x="1076" 
d="M382 86v-86h-370v86q83 0 108 7t44 31l282 354l-256 338q-18 23 -41 30.5t-93 7.5v86h434v-86q-68 -3 -88 -8t-20 -20q0 -11 14 -28l174 -228l174 228q14 17 14 28q0 15 -18.5 20t-85.5 8v86h364v-86q-56 0 -85 -5t-38 -11t-23 -22l-252 -312l290 -380q18 -22 46 -30
t108 -8v-86h-462v86q73 3 93.5 8t20.5 20q0 11 -14 28l-202 266l-208 -266q-12 -18 -12 -28q0 -15 17.5 -20t84.5 -8z" />
    <glyph glyph-name="y" unicode="y" horiz-adv-x="1010" 
d="M540 -38q-30 -73 -58 -130t-63.5 -110.5t-72.5 -88.5t-84 -56t-98 -21q-62 0 -105 34.5t-43 89.5q0 44 29.5 70t66.5 26q26 0 48.5 -14.5t35 -31.5t27.5 -31.5t29 -14.5q85 0 210 316l-338 816q-9 24 -30.5 31t-93.5 7v86h432v-86q-86 -3 -106 -7t-20 -19q0 -10 8 -30
l226 -580h6l228 580q8 20 8 30q0 15 -20 19t-106 7v86h354v-86q-72 0 -92.5 -6.5t-29.5 -31.5z" />
    <glyph glyph-name="z" unicode="z" horiz-adv-x="938" 
d="M400 862q-44 0 -69.5 -4.5t-49.5 -18.5t-39 -43.5t-28 -75.5t-26 -120h-74v340h732v-54l-564 -808h292q114 0 145.5 41.5t83.5 243.5q2 7 3 11h72l-30 -374h-776v52l570 810h-242z" />
    <glyph glyph-name="braceleft" unicode="{" horiz-adv-x="872" 
d="M80 574v52q109 16 167.5 70t58.5 160v236q0 185 130.5 296.5t335.5 111.5v-70q-141 -10 -224.5 -93t-83.5 -255v-218q0 -109 -62 -169.5t-174 -94.5q112 -34 174 -94.5t62 -169.5v-218q0 -172 83.5 -255t224.5 -93v-70q-205 0 -335.5 111.5t-130.5 296.5v236
q0 106 -58.5 160t-167.5 70z" />
    <glyph glyph-name="bar" unicode="|" horiz-adv-x="594" 
d="M354 1480v-1796h-114v1796h114z" />
    <glyph glyph-name="braceright" unicode="}" horiz-adv-x="872" 
d="M792 646v-52q-109 -16 -167.5 -70t-58.5 -160v-236q0 -185 -130.5 -296.5t-335.5 -111.5v70q141 10 224.5 93t83.5 255v218q0 109 62 169.5t174 94.5q-112 34 -174 94.5t-62 169.5v218q0 172 -83.5 255t-224.5 93v70q205 0 335.5 -111.5t130.5 -296.5v-236
q0 -106 58.5 -160t167.5 -70z" />
    <glyph glyph-name="asciitilde" unicode="~" horiz-adv-x="1086" 
d="M392 716q42 0 91.5 -19t87.5 -42t84.5 -42t82.5 -19q48 0 83 30t69 96l72 -28q-47 -126 -111 -186t-157 -60q-42 0 -91.5 19t-87.5 42t-84.5 42t-82.5 19q-48 0 -83 -30t-69 -96l-72 28q47 126 111 186t157 60z" />
    <glyph glyph-name="uni00A0" unicode="&#xa0;" horiz-adv-x="440" 
 />
    <glyph glyph-name="exclamdown" unicode="&#xa1;" horiz-adv-x="644" 
d="M322 1340q59 0 100.5 -40.5t41.5 -97.5t-42 -99.5t-100 -42.5t-100 42.5t-42 99.5t41.5 97.5t100.5 40.5zM288 926h68q19 -194 41 -401t33.5 -312t11.5 -121q0 -54 -35.5 -83t-84.5 -29t-84.5 29t-35.5 83q0 16 11.5 121t33.5 312t41 401z" />
    <glyph glyph-name="cent" unicode="&#xa2;" horiz-adv-x="970" 
d="M918 220q-53 -99 -138 -161.5t-196 -74.5v-194h-102v192q-169 17 -282.5 141.5t-113.5 328.5q0 184 114.5 324t281.5 182v214h102v-200h14q127 0 215.5 -60.5t88.5 -129.5q0 -43 -27 -67.5t-65 -24.5q-34 0 -56 17.5t-35.5 43t-27.5 52t-40.5 46.5t-66.5 23v-770
q156 11 256 172zM262 486q0 -150 61.5 -247t158.5 -127v746q-99 -33 -159.5 -133.5t-60.5 -238.5z" />
    <glyph glyph-name="sterling" unicode="&#xa3;" horiz-adv-x="1258" 
d="M1222 332q-27 -156 -119 -254t-215 -98q-48 0 -91.5 9.5t-93.5 34.5t-74.5 39t-84 54.5t-72.5 48.5q-102 -186 -278 -186q-87 0 -141.5 50t-54.5 126q0 83 64 138.5t154 55.5q87 0 190 -40q10 60 10 124q0 58 -12 194h-220v92h210q-8 108 -8 164q0 193 130.5 324.5
t315.5 131.5q149 0 236.5 -67t87.5 -151q0 -48 -29 -75t-69 -27q-39 0 -62.5 23t-34.5 55.5t-23 65t-41 55.5t-77 23q-116 0 -178 -110.5t-62 -295.5v-116h298v-92h-300q-9 -217 -62 -364q73 -31 118.5 -48t120.5 -33.5t147 -16.5q89 0 151 43t95 147zM104 162
q0 -42 25.5 -67t66.5 -25q60 0 109 38t77 112q-81 42 -160 42q-52 0 -85 -27t-33 -73z" />
    <glyph glyph-name="yen" unicode="&#xa5;" horiz-adv-x="1312" 
d="M954 88v-88h-600v88h34q118 0 149 9t31 43v324h-380v92h380v72l-76 110h-306v92h242l-236 342q-27 41 -54 50.5t-118 9.5v88h562v-88q-112 0 -152 -7t-40 -29q0 -19 22 -52l282 -408h8l274 408q22 32 22 50q0 22 -40.5 30t-151.5 8v88h486v-88q-91 0 -118 -9.5t-54 -50.5
l-236 -342h234v-92h-298l-80 -116v-66h380v-92h-380v-324q0 -34 31 -43t149 -9h34z" />
    <glyph glyph-name="section" unicode="&#xa7;" horiz-adv-x="1128" 
d="M918 -108q0 -141 -107.5 -239.5t-278.5 -98.5q-144 0 -247 66.5t-103 163.5q0 65 35.5 102.5t90.5 37.5q42 0 72 -27.5t30 -66.5q0 -31 -20 -61.5t-20 -40.5q0 -38 49 -68t121 -30q111 0 172.5 63.5t61.5 150.5q0 41 -10 73t-34.5 61t-49.5 50.5t-72 55.5l-316 232
q-172 127 -172 286q0 76 36.5 144t91.5 114q-38 63 -38 142q0 141 107.5 239.5t278.5 98.5q144 0 247 -66.5t103 -163.5q0 -65 -35.5 -102.5t-90.5 -37.5q-42 0 -72 27.5t-30 66.5q0 32 20 62t20 40q0 38 -49 68t-121 30q-111 0 -172.5 -63t-61.5 -151q0 -41 10 -73
t34.5 -61t49.5 -50.5t72 -55.5l316 -232q172 -127 172 -286q0 -76 -36.5 -144t-91.5 -114q38 -63 38 -142zM710 206q91 -70 136 -122q48 59 48 136q0 60 -28.5 106.5t-95.5 97.5l-352 264q-91 70 -136 122q-48 -59 -48 -136q0 -60 28.5 -106.5t95.5 -97.5z" />
    <glyph glyph-name="dieresis" unicode="&#xa8;" horiz-adv-x="1000" 
d="M202 1252q0 48 35.5 83t84.5 35q48 0 84 -35t36 -83q0 -51 -35.5 -85.5t-84.5 -34.5q-50 0 -85 34t-35 86zM560 1252q0 48 36 83t84 35q49 0 84.5 -35t35.5 -83q0 -52 -35 -86t-85 -34q-49 0 -84.5 34.5t-35.5 85.5z" />
    <glyph glyph-name="copyright" unicode="&#xa9;" horiz-adv-x="1664" 
d="M832 1340q182 0 337 -92t245 -248.5t90 -339.5t-90 -339.5t-245 -248.5t-337 -92t-337 92t-245 248.5t-90 339.5t90 339.5t245 248.5t337 92zM832 54q121 0 231.5 48.5t190 130t127 193.5t47.5 234t-47.5 234t-127 193.5t-190 130t-231.5 48.5t-231.5 -48.5t-190 -130
t-127 -193.5t-47.5 -234t47.5 -234t127 -193.5t190 -130t231.5 -48.5zM1082 792q-92 206 -230 206q-101 0 -162.5 -87.5t-61.5 -242.5q0 -143 65.5 -229.5t168.5 -86.5q140 0 222 130l54 -38q-45 -82 -123 -130t-179 -48q-155 0 -266.5 109.5t-111.5 282.5q0 121 56 216
t144 144.5t188 49.5q104 0 184 -68l38 60h48l12 -268h-46z" />
    <glyph glyph-name="ordfeminine" unicode="&#xaa;" horiz-adv-x="802" 
d="M644 608q-53 0 -91.5 32.5t-52.5 87.5q-43 -53 -107 -86.5t-127 -33.5q-77 0 -125.5 43.5t-48.5 116.5q0 99 98 166t304 116v86q0 126 -120 126q-45 0 -77.5 -18.5t-32.5 -45.5q0 -6 6 -23t6 -33q0 -34 -22 -56t-58 -22q-33 0 -57.5 23.5t-24.5 62.5q0 78 91.5 132
t210.5 54q230 0 230 -196v-372q0 -32 15.5 -49t36.5 -17q32 0 66 28l28 -46q-29 -33 -68.5 -54.5t-79.5 -21.5zM494 984q-128 -30 -190 -71.5t-62 -110.5q0 -46 26 -72t68 -26q79 0 158 76v204zM152 378v88h534v-88h-534z" />
    <glyph glyph-name="guillemotleft" unicode="&#xab;" horiz-adv-x="996" 
d="M90 458v20l322 380h94l-222 -390l222 -390h-94zM490 458v20l322 380h94l-222 -390l222 -390h-94z" />
    <glyph glyph-name="registered" unicode="&#xae;" horiz-adv-x="1224" 
d="M612 436q-197 0 -324.5 131t-127.5 321t127.5 321t324.5 131t324.5 -131t127.5 -321t-127.5 -321t-324.5 -131zM612 1268q-164 0 -271 -110t-107 -270t107 -270t271 -110t271 110t107 270t-107 270t-271 110zM592 724v-44h-210v44h66v342h-66v44h214q85 0 136.5 -31
t51.5 -93q0 -42 -29.5 -70.5t-78.5 -41.5l88 -112q18 -23 36.5 -32.5t57.5 -15.5v-34h-140l-126 184h-52v-140h52zM540 1066v-164h46q108 0 108 84q0 39 -29.5 59.5t-78.5 20.5h-46z" />
    <glyph glyph-name="macron" unicode="&#xaf;" horiz-adv-x="1000" 
d="M226 1172v116h548v-116h-548z" />
    <glyph glyph-name="degree" unicode="&#xb0;" horiz-adv-x="836" 
d="M736 1020q0 -131 -92.5 -224.5t-223.5 -93.5q-132 0 -226 93.5t-94 224.5q0 132 94 226t226 94t224 -94t92 -226zM212 1020q0 -85 61 -145.5t147 -60.5q85 0 144.5 60.5t59.5 145.5t-59.5 146.5t-144.5 61.5q-86 0 -147 -60.5t-61 -147.5z" />
    <glyph glyph-name="twosuperior" unicode="&#xb2;" horiz-adv-x="748" 
d="M140 1094l-48 28q45 100 118 154t162 54q102 0 162 -60t60 -148q0 -47 -20.5 -96.5t-50.5 -90t-75.5 -85.5t-84 -77.5t-87.5 -72.5l-30 -24v-6h252q38 0 60.5 20t59.5 86l42 -16l-58 -216h-510v58q189 161 269.5 272t80.5 206q0 60 -32 99t-96 39q-102 0 -174 -124z" />
    <glyph glyph-name="threesuperior" unicode="&#xb3;" horiz-adv-x="732" 
d="M564 1172q0 -33 -14.5 -62.5t-41.5 -53.5t-49.5 -39.5t-52.5 -32.5q92 -15 152 -62.5t60 -131.5q0 -76 -51 -137.5t-123.5 -92t-145.5 -30.5q-89 0 -153.5 33t-64.5 85q0 27 18.5 43.5t45.5 16.5q25 0 48 -18t37.5 -39t36 -39t44.5 -18q64 0 113 43.5t49 118.5
q0 142 -198 152l-14 36q90 58 125 97.5t35 90.5q0 40 -28.5 66t-75.5 26q-91 0 -158 -104l-50 34q106 176 270 176q80 0 133 -44t53 -114z" />
    <glyph glyph-name="acute" unicode="&#xb4;" horiz-adv-x="1000" 
d="M288 1114l196 300q43 66 98 66q38 0 60 -21.5t22 -58.5q0 -45 -52 -88l-282 -234z" />
    <glyph glyph-name="paragraph" unicode="&#xb6;" horiz-adv-x="1378" 
d="M1238 1232q-118 0 -149 -9t-31 -43v-1604h-112v1648h-194v-1648h-112v960q-108 0 -203.5 24.5t-171.5 71t-120.5 122.5t-44.5 172t44.5 172.5t120 124t171.5 72.5t204 25h598v-88z" />
    <glyph glyph-name="periodcentered" unicode="&#xb7;" horiz-adv-x="548" 
d="M416 530q0 -57 -41.5 -97.5t-100.5 -40.5t-100.5 40.5t-41.5 97.5t42 99.5t100 42.5t100 -42.5t42 -99.5z" />
    <glyph glyph-name="cedilla" unicode="&#xb8;" horiz-adv-x="1000" 
d="M308 -444l10 74q106 -24 168 0.5t62 77.5q0 51 -46 74.5t-138 31.5l84 202h72l-44 -106q91 -11 147.5 -52.5t56.5 -109.5q0 -112 -108 -168t-264 -24z" />
    <glyph glyph-name="onesuperior" unicode="&#xb9;" horiz-adv-x="716" 
d="M622 616v-72h-506v72h82q69 0 87.5 5t18.5 25v500h-182v74q119 0 179 24.5t93 85.5h52v-684q0 -20 18.5 -25t87.5 -5h70z" />
    <glyph glyph-name="ordmasculine" unicode="&#xba;" horiz-adv-x="838" 
d="M82 972q0 159 97.5 261.5t238.5 102.5t238.5 -102.5t97.5 -261.5q0 -160 -97.5 -262t-238.5 -102t-238.5 102t-97.5 262zM592 972q0 135 -45 210.5t-129 75.5t-129 -75.5t-45 -210.5q0 -137 44.5 -212.5t129.5 -75.5t129.5 75.5t44.5 212.5zM152 378v88h534v-88h-534z
" />
    <glyph glyph-name="guillemotright" unicode="&#xbb;" horiz-adv-x="996" 
d="M906 478v-20l-322 -380h-94l222 390l-222 390h94zM506 478v-20l-322 -380h-94l222 390l-222 390h94z" />
    <glyph glyph-name="onequarter" unicode="&#xbc;" horiz-adv-x="1768" 
d="M622 616v-72h-506v72h82q69 0 87.5 5t18.5 25v500h-182v74q119 0 179 24.5t93 85.5h52v-684q0 -20 18.5 -25t87.5 -5h70zM534 0h-130l914 1320h130zM1600 0h-364v54q75 0 94.5 5t19.5 25v158h-358v50l388 484h108v-464h186v-70h-186v-158q0 -19 20 -24.5t92 -5.5v-54z
M1090 312h260v326h-6l-254 -322v-4z" />
    <glyph glyph-name="onehalf" unicode="&#xbd;" horiz-adv-x="1816" 
d="M622 616v-72h-506v72h82q69 0 87.5 5t18.5 25v500h-182v74q119 0 179 24.5t93 85.5h52v-684q0 -20 18.5 -25t87.5 -5h70zM534 0h-130l914 1320h130zM1208 550l-48 28q45 100 118 154t162 54q102 0 162 -60t60 -148q0 -47 -20.5 -96.5t-50.5 -90t-75.5 -85.5t-84 -77.5
t-87.5 -72.5l-30 -24v-6h252q38 0 60.5 20t59.5 86l42 -16l-58 -216h-510v58q189 161 269.5 272t80.5 206q0 60 -32 99t-96 39q-102 0 -174 -124z" />
    <glyph glyph-name="threequarters" unicode="&#xbe;" horiz-adv-x="1706" 
d="M564 1172q0 -33 -14.5 -62.5t-41.5 -53.5t-49.5 -39.5t-52.5 -32.5q92 -15 152 -62.5t60 -131.5q0 -76 -51 -137.5t-123.5 -92t-145.5 -30.5q-89 0 -153.5 33t-64.5 85q0 27 18.5 43.5t45.5 16.5q25 0 48 -18t37.5 -39t36 -39t44.5 -18q64 0 113 43.5t49 118.5
q0 142 -198 152l-14 36q90 58 125 97.5t35 90.5q0 40 -28.5 66t-75.5 26q-91 0 -158 -104l-50 34q106 176 270 176q80 0 133 -44t53 -114zM472 0h-130l914 1320h130zM1538 0h-364v54q75 0 94.5 5t19.5 25v158h-358v50l388 484h108v-464h186v-70h-186v-158q0 -19 20 -24.5
t92 -5.5v-54zM1028 312h260v326h-6l-254 -322v-4z" />
    <glyph glyph-name="questiondown" unicode="&#xbf;" horiz-adv-x="890" 
d="M442 1202q0 57 41.5 97.5t100.5 40.5t100.5 -40.5t41.5 -97.5t-42 -99.5t-100 -42.5t-100 42.5t-42 99.5zM188 334q0 -62 44 -105t103 -60t125 -17q51 0 114.5 22t83.5 22q43 0 67.5 -25t24.5 -59q0 -56 -56 -94t-148 -38q-124 0 -231.5 57t-171 152.5t-63.5 204.5
q0 59 28.5 108t73.5 82t108.5 57.5t125.5 37.5t132 21v226h78l48 -342q0 -63 -82 -70q-60 -6 -100.5 -11.5t-92 -14.5t-85.5 -22t-65 -31t-46 -43.5t-15 -57.5z" />
    <glyph glyph-name="Agrave" unicode="&#xc0;" horiz-adv-x="1440" 
d="M590 1748l280 -266l-32 -50l-358 178q-72 36 -72 100q0 36 24.5 59t63.5 23q47 0 94 -44zM498 88v-88h-478v88q94 0 125.5 10.5t46.5 49.5l460 1182h136l460 -1182q15 -39 46.5 -49.5t125.5 -10.5v-88h-548v88q110 0 148 8t38 30q0 10 -10 38l-120 324h-486l-120 -324
q-10 -28 -10 -38q0 -22 38 -30t148 -8zM682 1134l-206 -554h418l-204 554h-8z" />
    <glyph glyph-name="Aacute" unicode="&#xc1;" horiz-adv-x="1440" 
d="M556 1482l280 266q47 44 94 44q39 0 63.5 -23t24.5 -59q0 -64 -72 -100l-358 -178zM498 88v-88h-478v88q94 0 125.5 10.5t46.5 49.5l460 1182h136l460 -1182q15 -39 46.5 -49.5t125.5 -10.5v-88h-548v88q110 0 148 8t38 30q0 10 -10 38l-120 324h-486l-120 -324
q-10 -28 -10 -38q0 -22 38 -30t148 -8zM682 1134l-206 -554h418l-204 554h-8z" />
    <glyph glyph-name="Acircumflex" unicode="&#xc2;" horiz-adv-x="1440" 
d="M792 1768l274 -296l-46 -40l-296 200l-296 -200l-46 40l274 296q30 32 68 32t68 -32zM498 88v-88h-478v88q94 0 125.5 10.5t46.5 49.5l460 1182h136l460 -1182q15 -39 46.5 -49.5t125.5 -10.5v-88h-548v88q110 0 148 8t38 30q0 10 -10 38l-120 324h-486l-120 -324
q-10 -28 -10 -38q0 -22 38 -30t148 -8zM682 1134l-206 -554h418l-204 554h-8z" />
    <glyph glyph-name="Atilde" unicode="&#xc3;" horiz-adv-x="1440" 
d="M594 1766q39 0 82.5 -25.5t75 -55.5t69.5 -55.5t67 -25.5q42 0 75.5 38.5t80.5 121.5l64 -36q-65 -147 -122.5 -206.5t-129.5 -59.5q-39 0 -82 25.5t-74 55.5t-68 55.5t-66 25.5q-43 0 -79 -40t-81 -120l-64 38q65 146 122.5 205t129.5 59zM498 88v-88h-478v88
q94 0 125.5 10.5t46.5 49.5l460 1182h136l460 -1182q15 -39 46.5 -49.5t125.5 -10.5v-88h-548v88q110 0 148 8t38 30q0 10 -10 38l-120 324h-486l-120 -324q-10 -28 -10 -38q0 -22 38 -30t148 -8zM682 1134l-206 -554h418l-204 554h-8z" />
    <glyph glyph-name="Adieresis" unicode="&#xc4;" horiz-adv-x="1440" 
d="M408 1596q0 51 36.5 86.5t87.5 35.5t87.5 -35.5t36.5 -86.5q0 -52 -36.5 -88t-87.5 -36t-87.5 36t-36.5 88zM780 1596q0 51 36.5 86.5t87.5 35.5t87.5 -35.5t36.5 -86.5q0 -52 -36.5 -88t-87.5 -36t-87.5 36t-36.5 88zM498 88v-88h-478v88q94 0 125.5 10.5t46.5 49.5
l460 1182h136l460 -1182q15 -39 46.5 -49.5t125.5 -10.5v-88h-548v88q110 0 148 8t38 30q0 10 -10 38l-120 324h-486l-120 -324q-10 -28 -10 -38q0 -22 38 -30t148 -8zM682 1134l-206 -554h418l-204 554h-8z" />
    <glyph glyph-name="Aring" unicode="&#xc5;" horiz-adv-x="1440" 
d="M718 1398q-93 0 -159.5 66.5t-66.5 159.5q0 94 66.5 161t159.5 67t159.5 -67t66.5 -161q0 -93 -66.5 -159.5t-159.5 -66.5zM718 1482q56 0 97 41.5t41 100.5q0 60 -41 101t-97 41t-97 -41t-41 -101q0 -59 41 -100.5t97 -41.5zM498 88v-88h-478v88q94 0 125.5 10.5
t46.5 49.5l460 1182h136l460 -1182q15 -39 46.5 -49.5t125.5 -10.5v-88h-548v88q110 0 148 8t38 30q0 10 -10 38l-120 324h-486l-120 -324q-10 -28 -10 -38q0 -22 38 -30t148 -8zM682 1134l-206 -554h418l-204 554h-8z" />
    <glyph glyph-name="AE" unicode="&#xc6;" horiz-adv-x="2012" 
d="M508 88v-88h-488v88q89 0 118 10.5t54 49.5l708 1074q-110 10 -198 10v88h1150l18 -402h-76q-47 167 -70 212q-34 66 -96 85q-42 13 -116 13h-318v-508h128q49 0 75 1t51 10t35 18.5t20.5 37t14.5 55t10 82.5h80v-500h-72q-7 54 -11.5 83t-16 55.5t-22 37t-36.5 18.5
t-52 9t-76 1h-128v-536h270q80 0 131.5 7.5t98.5 28t77 60.5t55 102t44 156h80l-42 -446h-1082v88q118 0 149 9t31 43v348h-462l-206 -314q-18 -28 -18 -46q0 -23 39 -31.5t149 -8.5zM604 580h402v616z" />
    <glyph glyph-name="Ccedilla" unicode="&#xc7;" horiz-adv-x="1262" 
d="M844 -252q0 -112 -108 -168t-264 -24l10 74q106 -24 168 0.5t62 77.5q0 51 -46 74.5t-138 31.5l72 174q-106 17 -199.5 71.5t-164 138.5t-111.5 202.5t-41 255.5q0 153 50 283t135 217t197 135.5t236 48.5q165 0 294 -112l66 100h72l20 -422h-66q-62 158 -164 242
t-222 84q-183 0 -297.5 -149.5t-114.5 -416.5q0 -247 125.5 -407.5t314.5 -160.5q113 0 209.5 53t160.5 157l76 -60q-157 -268 -478 -268h-28l-30 -70q91 -11 147.5 -52.5t56.5 -109.5z" />
    <glyph glyph-name="Egrave" unicode="&#xc8;" horiz-adv-x="1246" 
d="M544 1748l280 -266l-32 -50l-358 178q-72 36 -72 100q0 36 24.5 59t63.5 23q47 0 94 -44zM1086 1320l18 -402h-76q-47 167 -70 212q-34 66 -96 85q-43 13 -116 13h-318v-508h128q49 0 75 1t51 10t35 18.5t20.5 37t14.5 55t10 82.5h80v-500h-72q-7 54 -11.5 83t-16 55.5
t-22 37t-36.5 18.5t-52 9t-76 1h-128v-536h270q80 0 131.5 7.5t98.5 28t77 60.5t55 102t44 156h80l-42 -446h-1082v88q118 0 149 9t31 43v1040q0 34 -31 43t-149 9v88h1026z" />
    <glyph glyph-name="Eacute" unicode="&#xc9;" horiz-adv-x="1246" 
d="M490 1482l280 266q47 44 94 44q39 0 63.5 -23t24.5 -59q0 -64 -72 -100l-358 -178zM1086 1320l18 -402h-76q-47 167 -70 212q-34 66 -96 85q-43 13 -116 13h-318v-508h128q49 0 75 1t51 10t35 18.5t20.5 37t14.5 55t10 82.5h80v-500h-72q-7 54 -11.5 83t-16 55.5t-22 37
t-36.5 18.5t-52 9t-76 1h-128v-536h270q80 0 131.5 7.5t98.5 28t77 60.5t55 102t44 156h80l-42 -446h-1082v88q118 0 149 9t31 43v1040q0 34 -31 43t-149 9v88h1026z" />
    <glyph glyph-name="Ecircumflex" unicode="&#xca;" horiz-adv-x="1246" 
d="M706 1768l274 -296l-46 -40l-296 200l-296 -200l-46 40l274 296q30 32 68 32t68 -32zM1086 1320l18 -402h-76q-47 167 -70 212q-34 66 -96 85q-43 13 -116 13h-318v-508h128q49 0 75 1t51 10t35 18.5t20.5 37t14.5 55t10 82.5h80v-500h-72q-7 54 -11.5 83t-16 55.5
t-22 37t-36.5 18.5t-52 9t-76 1h-128v-536h270q80 0 131.5 7.5t98.5 28t77 60.5t55 102t44 156h80l-42 -446h-1082v88q118 0 149 9t31 43v1040q0 34 -31 43t-149 9v88h1026z" />
    <glyph glyph-name="Edieresis" unicode="&#xcb;" horiz-adv-x="1246" 
d="M328 1596q0 51 36.5 86.5t87.5 35.5t87.5 -35.5t36.5 -86.5q0 -52 -36.5 -88t-87.5 -36t-87.5 36t-36.5 88zM700 1596q0 51 36.5 86.5t87.5 35.5t87.5 -35.5t36.5 -86.5q0 -52 -36.5 -88t-87.5 -36t-87.5 36t-36.5 88zM1086 1320l18 -402h-76q-47 167 -70 212
q-34 66 -96 85q-43 13 -116 13h-318v-508h128q49 0 75 1t51 10t35 18.5t20.5 37t14.5 55t10 82.5h80v-500h-72q-7 54 -11.5 83t-16 55.5t-22 37t-36.5 18.5t-52 9t-76 1h-128v-536h270q80 0 131.5 7.5t98.5 28t77 60.5t55 102t44 156h80l-42 -446h-1082v88q118 0 149 9
t31 43v1040q0 34 -31 43t-149 9v88h1026z" />
    <glyph glyph-name="Igrave" unicode="&#xcc;" horiz-adv-x="668" 
d="M264 1748l280 -266l-32 -50l-358 178q-72 36 -72 100q0 36 24.5 59t63.5 23q47 0 94 -44zM608 88v-88h-548v88q118 0 149 9t31 43v1040q0 34 -31 43t-149 9v88h548v-88q-118 0 -149 -9t-31 -43v-1040q0 -34 31 -43t149 -9z" />
    <glyph glyph-name="Iacute" unicode="&#xcd;" horiz-adv-x="668" 
d="M170 1482l280 266q47 44 94 44q39 0 63.5 -23t24.5 -59q0 -64 -72 -100l-358 -178zM608 88v-88h-548v88q118 0 149 9t31 43v1040q0 34 -31 43t-149 9v88h548v-88q-118 0 -149 -9t-31 -43v-1040q0 -34 31 -43t149 -9z" />
    <glyph glyph-name="Icircumflex" unicode="&#xce;" horiz-adv-x="668" 
d="M402 1768l274 -296l-46 -40l-296 200l-296 -200l-46 40l274 296q30 32 68 32t68 -32zM608 88v-88h-548v88q118 0 149 9t31 43v1040q0 34 -31 43t-149 9v88h548v-88q-118 0 -149 -9t-31 -43v-1040q0 -34 31 -43t149 -9z" />
    <glyph glyph-name="Idieresis" unicode="&#xcf;" horiz-adv-x="668" 
d="M24 1596q0 51 36.5 86.5t87.5 35.5t87.5 -35.5t36.5 -86.5q0 -52 -36.5 -88t-87.5 -36t-87.5 36t-36.5 88zM396 1596q0 51 36.5 86.5t87.5 35.5t87.5 -35.5t36.5 -86.5q0 -52 -36.5 -88t-87.5 -36t-87.5 36t-36.5 88zM608 88v-88h-548v88q118 0 149 9t31 43v1040
q0 34 -31 43t-149 9v88h548v-88q-118 0 -149 -9t-31 -43v-1040q0 -34 31 -43t149 -9z" />
    <glyph glyph-name="Eth" unicode="&#xd0;" horiz-adv-x="1412" 
d="M1328 674q0 -196 -92.5 -349.5t-261.5 -239t-386 -85.5h-508v88q118 0 149 9t31 43v488h-180v92h180v460q0 34 -31 43t-149 9v88h508q219 0 386.5 -78.5t260.5 -225.5t93 -342zM448 92h130q258 0 401 159.5t143 422.5q0 260 -141.5 407t-402.5 147h-130v-508h294v-92
h-294v-536z" />
    <glyph glyph-name="Ntilde" unicode="&#xd1;" horiz-adv-x="1428" 
d="M626 1766q39 0 82.5 -25.5t75 -55.5t69.5 -55.5t67 -25.5q42 0 75.5 38.5t80.5 121.5l64 -36q-65 -147 -122.5 -206.5t-129.5 -59.5q-39 0 -82 25.5t-74 55.5t-68 55.5t-66 25.5q-43 0 -79 -40t-81 -120l-64 38q65 146 122.5 205t129.5 59zM1100 1180q0 34 -31 43t-149 9
v88h476v-88q-118 0 -149 -9t-31 -43v-1196h-98l-754 1170h-8v-1014q0 -34 31 -43t149 -9v-88h-476v88q118 0 149 9t31 43v1038q0 36 -31 45t-149 7v90h412l620 -986h8v846z" />
    <glyph glyph-name="Ograve" unicode="&#xd2;" horiz-adv-x="1372" 
d="M578 1748l280 -266l-32 -50l-358 178q-72 36 -72 100q0 36 24.5 59t63.5 23q47 0 94 -44zM1288 660q0 -152 -49.5 -281.5t-132.5 -216t-192 -134.5t-228 -48t-228 48t-192 134.5t-132.5 216t-49.5 281.5t49.5 281.5t132.5 216t192 134.5t228 48t228 -48t192 -134.5
t132.5 -216t49.5 -281.5zM1084 660q0 265 -111 418.5t-287 153.5t-287 -153.5t-111 -418.5t111 -418.5t287 -153.5t287 153.5t111 418.5z" />
    <glyph glyph-name="Oacute" unicode="&#xd3;" horiz-adv-x="1372" 
d="M514 1482l280 266q47 44 94 44q39 0 63.5 -23t24.5 -59q0 -64 -72 -100l-358 -178zM1288 660q0 -152 -49.5 -281.5t-132.5 -216t-192 -134.5t-228 -48t-228 48t-192 134.5t-132.5 216t-49.5 281.5t49.5 281.5t132.5 216t192 134.5t228 48t228 -48t192 -134.5t132.5 -216
t49.5 -281.5zM1084 660q0 265 -111 418.5t-287 153.5t-287 -153.5t-111 -418.5t111 -418.5t287 -153.5t287 153.5t111 418.5z" />
    <glyph glyph-name="Ocircumflex" unicode="&#xd4;" horiz-adv-x="1372" 
d="M754 1768l274 -296l-46 -40l-296 200l-296 -200l-46 40l274 296q30 32 68 32t68 -32zM1288 660q0 -152 -49.5 -281.5t-132.5 -216t-192 -134.5t-228 -48t-228 48t-192 134.5t-132.5 216t-49.5 281.5t49.5 281.5t132.5 216t192 134.5t228 48t228 -48t192 -134.5
t132.5 -216t49.5 -281.5zM1084 660q0 265 -111 418.5t-287 153.5t-287 -153.5t-111 -418.5t111 -418.5t287 -153.5t287 153.5t111 418.5z" />
    <glyph glyph-name="Otilde" unicode="&#xd5;" horiz-adv-x="1372" 
d="M556 1766q39 0 82.5 -25.5t75 -55.5t69.5 -55.5t67 -25.5q42 0 75.5 38.5t80.5 121.5l64 -36q-65 -147 -122.5 -206.5t-129.5 -59.5q-39 0 -82 25.5t-74 55.5t-68 55.5t-66 25.5q-43 0 -79 -40t-81 -120l-64 38q65 146 122.5 205t129.5 59zM1288 660q0 -152 -49.5 -281.5
t-132.5 -216t-192 -134.5t-228 -48t-228 48t-192 134.5t-132.5 216t-49.5 281.5t49.5 281.5t132.5 216t192 134.5t228 48t228 -48t192 -134.5t132.5 -216t49.5 -281.5zM1084 660q0 265 -111 418.5t-287 153.5t-287 -153.5t-111 -418.5t111 -418.5t287 -153.5t287 153.5
t111 418.5z" />
    <glyph glyph-name="Odieresis" unicode="&#xd6;" horiz-adv-x="1372" 
d="M376 1596q0 51 36.5 86.5t87.5 35.5t87.5 -35.5t36.5 -86.5q0 -52 -36.5 -88t-87.5 -36t-87.5 36t-36.5 88zM748 1596q0 51 36.5 86.5t87.5 35.5t87.5 -35.5t36.5 -86.5q0 -52 -36.5 -88t-87.5 -36t-87.5 36t-36.5 88zM1288 660q0 -152 -49.5 -281.5t-132.5 -216
t-192 -134.5t-228 -48t-228 48t-192 134.5t-132.5 216t-49.5 281.5t49.5 281.5t132.5 216t192 134.5t228 48t228 -48t192 -134.5t132.5 -216t49.5 -281.5zM1084 660q0 265 -111 418.5t-287 153.5t-287 -153.5t-111 -418.5t111 -418.5t287 -153.5t287 153.5t111 418.5z" />
    <glyph glyph-name="multiply" unicode="&#xd7;" 
d="M1006 254l-84 -86l-362 362l-362 -362l-84 86l362 362l-362 362l84 84l362 -362l362 362l84 -84l-362 -362z" />
    <glyph glyph-name="Oslash" unicode="&#xd8;" horiz-adv-x="1372" 
d="M686 -20q-191 0 -342 114l-152 -194l-82 62l156 200q-182 195 -182 498q0 152 49.5 281.5t132.5 216t192 134.5t228 48q217 0 382 -146l144 184l82 -62l-154 -198q148 -187 148 -458q0 -152 -49.5 -281.5t-132.5 -216t-192 -134.5t-228 -48zM288 660q0 -223 80 -368
l608 782q-112 158 -290 158q-176 0 -287 -153.5t-111 -418.5zM1084 660q0 179 -54 316l-602 -772q104 -116 258 -116q176 0 287 153.5t111 418.5z" />
    <glyph glyph-name="Ugrave" unicode="&#xd9;" horiz-adv-x="1484" 
d="M676 1748l280 -266l-32 -50l-358 178q-72 36 -72 100q0 36 24.5 59t63.5 23q47 0 94 -44zM1138 1180q0 34 -31 43t-149 9v88h476v-88q-118 0 -149 -9t-31 -43v-700q0 -230 -140 -365t-352 -135q-239 0 -385.5 132.5t-146.5 363.5v704q0 34 -31 43t-149 9v88h548v-88
q-118 0 -149 -9t-31 -43v-678q0 -199 95 -299.5t265 -100.5q174 0 267 102.5t93 297.5v678z" />
    <glyph glyph-name="Uacute" unicode="&#xda;" horiz-adv-x="1484" 
d="M622 1482l280 266q47 44 94 44q39 0 63.5 -23t24.5 -59q0 -64 -72 -100l-358 -178zM1138 1180q0 34 -31 43t-149 9v88h476v-88q-118 0 -149 -9t-31 -43v-700q0 -230 -140 -365t-352 -135q-239 0 -385.5 132.5t-146.5 363.5v704q0 34 -31 43t-149 9v88h548v-88
q-118 0 -149 -9t-31 -43v-678q0 -199 95 -299.5t265 -100.5q174 0 267 102.5t93 297.5v678z" />
    <glyph glyph-name="Ucircumflex" unicode="&#xdb;" horiz-adv-x="1484" 
d="M838 1768l274 -296l-46 -40l-296 200l-296 -200l-46 40l274 296q30 32 68 32t68 -32zM1138 1180q0 34 -31 43t-149 9v88h476v-88q-118 0 -149 -9t-31 -43v-700q0 -230 -140 -365t-352 -135q-239 0 -385.5 132.5t-146.5 363.5v704q0 34 -31 43t-149 9v88h548v-88
q-118 0 -149 -9t-31 -43v-678q0 -199 95 -299.5t265 -100.5q174 0 267 102.5t93 297.5v678z" />
    <glyph glyph-name="Udieresis" unicode="&#xdc;" horiz-adv-x="1484" 
d="M460 1596q0 51 36.5 86.5t87.5 35.5t87.5 -35.5t36.5 -86.5q0 -52 -36.5 -88t-87.5 -36t-87.5 36t-36.5 88zM832 1596q0 51 36.5 86.5t87.5 35.5t87.5 -35.5t36.5 -86.5q0 -52 -36.5 -88t-87.5 -36t-87.5 36t-36.5 88zM1138 1180q0 34 -31 43t-149 9v88h476v-88
q-118 0 -149 -9t-31 -43v-700q0 -230 -140 -365t-352 -135q-239 0 -385.5 132.5t-146.5 363.5v704q0 34 -31 43t-149 9v88h548v-88q-118 0 -149 -9t-31 -43v-678q0 -199 95 -299.5t265 -100.5q174 0 267 102.5t93 297.5v678z" />
    <glyph glyph-name="Yacute" unicode="&#xdd;" horiz-adv-x="1400" 
d="M592 1482l280 266q47 44 94 44q39 0 63.5 -23t24.5 -59q0 -64 -72 -100l-358 -178zM1006 88v-88h-616v88h34q118 0 149 9t31 43v416l-412 616q-22 27 -36 37.5t-44.5 16.5t-91.5 6v88h570v-88q-110 0 -150 -8t-40 -30q0 -15 14 -36l328 -502h8l320 502q14 21 14 36
q0 22 -40 30t-150 8v88h486v-88q-88 0 -116 -10.5t-56 -49.5l-416 -622v-410q0 -34 31 -43t149 -9h34z" />
    <glyph glyph-name="Thorn" unicode="&#xde;" horiz-adv-x="1230" 
d="M428 1180v-134h194q236 0 380 -99t144 -275t-144 -275t-380 -99h-194v-158q0 -34 31 -43t149 -9h86v-88h-634v88q118 0 149 9t31 43v1040q0 34 -31 43t-149 9v88h548v-88q-118 0 -149 -9t-31 -43zM428 390h182q334 0 334 282t-334 282h-182v-564z" />
    <glyph glyph-name="germandbls" unicode="&#xdf;" horiz-adv-x="1256" 
d="M1208 290q0 -128 -100.5 -219t-235.5 -91q-169 0 -282 100l-20 242h72q50 -252 236 -252q76 0 128 45.5t52 116.5q0 23 -5 42.5t-11.5 34.5t-25 31.5t-32 27.5t-46.5 29t-55.5 29.5t-70.5 35.5q-106 52 -147 100t-41 126q0 57 26.5 105.5t64 87t75 79t64 101t26.5 133.5
q0 96 -63 152t-163 56q-120 0 -192 -87.5t-72 -242.5v-1072h-302v86q89 0 109.5 6t20.5 32v718h-148v98h148v88q0 204 127.5 338t330.5 134q157 0 259.5 -80t102.5 -224q0 -68 -28.5 -127.5t-69 -99.5t-81 -74.5t-69 -69.5t-28.5 -67q0 -46 44 -80t168 -98q52 -28 80 -44.5
t62.5 -43.5t51 -53t28.5 -64t12 -85z" />
    <glyph glyph-name="agrave" unicode="&#xe0;" horiz-adv-x="998" 
d="M448 1414l196 -300l-42 -36l-282 234q-52 43 -52 88q0 37 22 58.5t60 21.5q55 0 98 -66zM834 -20q-71 0 -123.5 48t-62.5 124q-54 -71 -143 -121.5t-175 -50.5q-102 0 -167 59t-65 159q0 133 133 225t409 149v124q0 84 -43 128t-127 44q-63 0 -109.5 -26t-46.5 -60
q0 -11 9 -34t9 -46q0 -42 -28 -69t-72 -27q-42 0 -73 30.5t-31 79.5q0 67 56 124t144 88.5t184 31.5q144 0 222 -59.5t78 -198.5v-500q0 -50 25 -76t57 -26q44 0 90 36l30 -62q-34 -40 -82.5 -67t-97.5 -27zM640 486q-193 -44 -282.5 -102t-89.5 -152q0 -61 35 -96.5
t93 -35.5q127 0 244 120v266z" />
    <glyph glyph-name="aacute" unicode="&#xe1;" horiz-adv-x="998" 
d="M348 1114l196 300q43 66 98 66q38 0 60 -21.5t22 -58.5q0 -45 -52 -88l-282 -234zM834 -20q-71 0 -123.5 48t-62.5 124q-54 -71 -143 -121.5t-175 -50.5q-102 0 -167 59t-65 159q0 133 133 225t409 149v124q0 84 -43 128t-127 44q-63 0 -109.5 -26t-46.5 -60q0 -11 9 -34
t9 -46q0 -42 -28 -69t-72 -27q-42 0 -73 30.5t-31 79.5q0 67 56 124t144 88.5t184 31.5q144 0 222 -59.5t78 -198.5v-500q0 -50 25 -76t57 -26q44 0 90 36l30 -62q-34 -40 -82.5 -67t-97.5 -27zM640 486q-193 -44 -282.5 -102t-89.5 -152q0 -61 35 -96.5t93 -35.5
q127 0 244 120v266z" />
    <glyph glyph-name="acircumflex" unicode="&#xe2;" horiz-adv-x="998" 
d="M546 1454l234 -336l-46 -40l-256 248l-256 -248l-46 40l234 336q26 36 68.5 36t67.5 -36zM834 -20q-71 0 -123.5 48t-62.5 124q-54 -71 -143 -121.5t-175 -50.5q-102 0 -167 59t-65 159q0 133 133 225t409 149v124q0 84 -43 128t-127 44q-63 0 -109.5 -26t-46.5 -60
q0 -11 9 -34t9 -46q0 -42 -28 -69t-72 -27q-42 0 -73 30.5t-31 79.5q0 67 56 124t144 88.5t184 31.5q144 0 222 -59.5t78 -198.5v-500q0 -50 25 -76t57 -26q44 0 90 36l30 -62q-34 -40 -82.5 -67t-97.5 -27zM640 486q-193 -44 -282.5 -102t-89.5 -152q0 -61 35 -96.5
t93 -35.5q127 0 244 120v266z" />
    <glyph glyph-name="atilde" unicode="&#xe3;" horiz-adv-x="998" 
d="M372 1380q35 0 75 -22t69.5 -48t64.5 -48t61 -22q21 0 37.5 8.5t35.5 33.5t28.5 41t34.5 61l62 -36q-61 -138 -111 -191t-117 -53q-36 0 -76 22t-69.5 48t-64.5 48t-62 22q-20 0 -37 -9t-35 -32.5t-29.5 -42t-34.5 -60.5l-64 36q60 137 112.5 190.5t119.5 53.5zM834 -20
q-71 0 -123.5 48t-62.5 124q-54 -71 -143 -121.5t-175 -50.5q-102 0 -167 59t-65 159q0 133 133 225t409 149v124q0 84 -43 128t-127 44q-63 0 -109.5 -26t-46.5 -60q0 -11 9 -34t9 -46q0 -42 -28 -69t-72 -27q-42 0 -73 30.5t-31 79.5q0 67 56 124t144 88.5t184 31.5
q144 0 222 -59.5t78 -198.5v-500q0 -50 25 -76t57 -26q44 0 90 36l30 -62q-34 -40 -82.5 -67t-97.5 -27zM640 486q-193 -44 -282.5 -102t-89.5 -152q0 -61 35 -96.5t93 -35.5q127 0 244 120v266z" />
    <glyph glyph-name="adieresis" unicode="&#xe4;" horiz-adv-x="998" 
d="M186 1252q0 48 35.5 83t84.5 35q48 0 84 -35t36 -83q0 -51 -35.5 -85.5t-84.5 -34.5q-50 0 -85 34t-35 86zM544 1252q0 48 36 83t84 35q49 0 84.5 -35t35.5 -83q0 -52 -35 -86t-85 -34q-49 0 -84.5 34.5t-35.5 85.5zM834 -20q-71 0 -123.5 48t-62.5 124
q-54 -71 -143 -121.5t-175 -50.5q-102 0 -167 59t-65 159q0 133 133 225t409 149v124q0 84 -43 128t-127 44q-63 0 -109.5 -26t-46.5 -60q0 -11 9 -34t9 -46q0 -42 -28 -69t-72 -27q-42 0 -73 30.5t-31 79.5q0 67 56 124t144 88.5t184 31.5q144 0 222 -59.5t78 -198.5v-500
q0 -50 25 -76t57 -26q44 0 90 36l30 -62q-34 -40 -82.5 -67t-97.5 -27zM640 486q-193 -44 -282.5 -102t-89.5 -152q0 -61 35 -96.5t93 -35.5q127 0 244 120v266z" />
    <glyph glyph-name="aring" unicode="&#xe5;" horiz-adv-x="998" 
d="M488 1098q-84 0 -145 60.5t-61 145.5t61 145.5t145 60.5t145 -60.5t61 -145.5t-61 -145.5t-145 -60.5zM488 1182q49 0 83.5 35t34.5 87t-34.5 87t-83.5 35t-83.5 -35t-34.5 -87t34.5 -87t83.5 -35zM834 -20q-71 0 -123.5 48t-62.5 124q-54 -71 -143 -121.5t-175 -50.5
q-102 0 -167 59t-65 159q0 133 133 225t409 149v124q0 84 -43 128t-127 44q-63 0 -109.5 -26t-46.5 -60q0 -11 9 -34t9 -46q0 -42 -28 -69t-72 -27q-42 0 -73 30.5t-31 79.5q0 67 56 124t144 88.5t184 31.5q144 0 222 -59.5t78 -198.5v-500q0 -50 25 -76t57 -26q44 0 90 36
l30 -62q-34 -40 -82.5 -67t-97.5 -27zM640 486q-193 -44 -282.5 -102t-89.5 -152q0 -61 35 -96.5t93 -35.5q127 0 244 120v266z" />
    <glyph glyph-name="ae" unicode="&#xe6;" horiz-adv-x="1490" 
d="M1410 192q-50 -100 -148 -156t-212 -56q-120 0 -214.5 53.5t-147.5 136.5q-62 -86 -153.5 -138t-200.5 -52q-103 0 -169.5 59t-66.5 159q0 133 133 225t409 149v124q0 84 -43 128t-127 44q-63 0 -109.5 -26t-46.5 -60q0 -11 9 -34t9 -46q0 -42 -28 -69t-72 -27
q-42 0 -73 30.5t-31 79.5q0 67 55.5 124t141.5 88.5t177 31.5q189 0 258 -134q55 61 132.5 97.5t155.5 36.5q175 0 266.5 -112t91.5 -288v-64h-620v-6q0 -185 87.5 -287.5t214.5 -102.5q78 0 134.5 33t113.5 111zM1040 862q-92 0 -160.5 -73t-87.5 -205h446q-3 278 -198 278
zM640 486q-193 -44 -282.5 -102t-89.5 -152q0 -61 35 -96.5t93 -35.5q133 0 244 120v266z" />
    <glyph glyph-name="ccedilla" unicode="&#xe7;" horiz-adv-x="910" 
d="M656 -252q0 -112 -108 -168t-264 -24l10 74q106 -24 168 0.5t62 77.5q0 51 -46 74.5t-138 31.5l72 176q-143 30 -236.5 149.5t-93.5 306.5q0 142 65.5 261.5t171 186t223.5 66.5q124 0 209 -59t85 -131q0 -44 -26.5 -69t-63.5 -25q-27 0 -46.5 13.5t-30 33.5t-23.5 43
t-26.5 43t-39.5 33.5t-62 13.5q-109 0 -185.5 -105.5t-76.5 -270.5q0 -179 80.5 -279.5t195.5 -100.5q82 0 142 40t110 126l78 -48q-55 -111 -147.5 -174.5t-214.5 -63.5h-18l-30 -70q91 -11 147.5 -52.5t56.5 -109.5z" />
    <glyph glyph-name="egrave" unicode="&#xe8;" horiz-adv-x="956" 
d="M440 1414l196 -300l-42 -36l-282 234q-52 43 -52 88q0 37 22 58.5t60 21.5q55 0 98 -66zM876 192q-50 -100 -148 -156t-212 -56q-86 0 -164 33.5t-138.5 93.5t-96 152t-35.5 201q0 107 36 201t95.5 159t138 102.5t162.5 37.5q175 0 266.5 -112t91.5 -288v-64h-620v-6
q0 -185 87.5 -287.5t214.5 -102.5q78 0 134.5 33t113.5 111zM506 862q-92 0 -160.5 -73t-87.5 -205h446q-3 278 -198 278z" />
    <glyph glyph-name="eacute" unicode="&#xe9;" horiz-adv-x="956" 
d="M400 1114l196 300q43 66 98 66q38 0 60 -21.5t22 -58.5q0 -45 -52 -88l-282 -234zM876 192q-50 -100 -148 -156t-212 -56q-86 0 -164 33.5t-138.5 93.5t-96 152t-35.5 201q0 107 36 201t95.5 159t138 102.5t162.5 37.5q175 0 266.5 -112t91.5 -288v-64h-620v-6
q0 -185 87.5 -287.5t214.5 -102.5q78 0 134.5 33t113.5 111zM506 862q-92 0 -160.5 -73t-87.5 -205h446q-3 278 -198 278z" />
    <glyph glyph-name="ecircumflex" unicode="&#xea;" horiz-adv-x="956" 
d="M584 1454l234 -336l-46 -40l-256 248l-256 -248l-46 40l234 336q26 36 68 36t68 -36zM876 192q-50 -100 -148 -156t-212 -56q-86 0 -164 33.5t-138.5 93.5t-96 152t-35.5 201q0 107 36 201t95.5 159t138 102.5t162.5 37.5q175 0 266.5 -112t91.5 -288v-64h-620v-6
q0 -185 87.5 -287.5t214.5 -102.5q78 0 134.5 33t113.5 111zM506 862q-92 0 -160.5 -73t-87.5 -205h446q-3 278 -198 278z" />
    <glyph glyph-name="edieresis" unicode="&#xeb;" horiz-adv-x="956" 
d="M218 1252q0 48 35.5 83t84.5 35q48 0 84 -35t36 -83q0 -51 -35.5 -85.5t-84.5 -34.5q-50 0 -85 34t-35 86zM576 1252q0 48 36 83t84 35q49 0 84.5 -35t35.5 -83q0 -52 -35 -86t-85 -34q-49 0 -84.5 34.5t-35.5 85.5zM876 192q-50 -100 -148 -156t-212 -56
q-86 0 -164 33.5t-138.5 93.5t-96 152t-35.5 201q0 107 36 201t95.5 159t138 102.5t162.5 37.5q175 0 266.5 -112t91.5 -288v-64h-620v-6q0 -185 87.5 -287.5t214.5 -102.5q78 0 134.5 33t113.5 111zM506 862q-92 0 -160.5 -73t-87.5 -205h446q-3 278 -198 278z" />
    <glyph glyph-name="igrave" unicode="&#xec;" horiz-adv-x="556" 
d="M228 1414l196 -300l-42 -36l-282 234q-52 43 -52 88q0 37 22 58.5t60 21.5q55 0 98 -66zM208 728q0 30 -8.5 40.5t-37.5 23.5l-92 42v44l282 82h28v-836q0 -26 20.5 -32t109.5 -6v-86h-432v86q89 0 109.5 6t20.5 32v604z" />
    <glyph glyph-name="iacute" unicode="&#xed;" horiz-adv-x="556" 
d="M130 1114l196 300q43 66 98 66q38 0 60 -21.5t22 -58.5q0 -45 -52 -88l-282 -234zM208 728q0 30 -8.5 40.5t-37.5 23.5l-92 42v44l282 82h28v-836q0 -26 20.5 -32t109.5 -6v-86h-432v86q89 0 109.5 6t20.5 32v604z" />
    <glyph glyph-name="icircumflex" unicode="&#xee;" horiz-adv-x="556" 
d="M354 1454l214 -336l-46 -40l-236 248l-236 -248l-46 40l214 336q24 38 68 38t68 -38zM208 728q0 30 -8.5 40.5t-37.5 23.5l-92 42v44l282 82h28v-836q0 -26 20.5 -32t109.5 -6v-86h-432v86q89 0 109.5 6t20.5 32v604z" />
    <glyph glyph-name="idieresis" unicode="&#xef;" horiz-adv-x="556" 
d="M-12 1252q0 48 35.5 83t84.5 35q48 0 84 -35t36 -83q0 -51 -35.5 -85.5t-84.5 -34.5q-50 0 -85 34t-35 86zM346 1252q0 48 36 83t84 35q49 0 84.5 -35t35.5 -83q0 -52 -35 -86t-85 -34q-49 0 -84.5 34.5t-35.5 85.5zM208 728q0 30 -8.5 40.5t-37.5 23.5l-92 42v44l282 82
h28v-836q0 -26 20.5 -32t109.5 -6v-86h-432v86q89 0 109.5 6t20.5 32v604z" />
    <glyph glyph-name="eth" unicode="&#xf0;" horiz-adv-x="1036" 
d="M954 546q0 -129 -34.5 -236.5t-94 -179t-139 -111t-168.5 -39.5q-183 0 -309.5 136.5t-126.5 353.5t126.5 351.5t309.5 134.5q73 0 139 -33.5t107 -96.5h8q-76 190 -250 362l-294 -132l-36 80l260 116q-118 102 -256 170l38 78q185 -70 344 -190l188 84l36 -82l-150 -66
q302 -281 302 -700zM770 470q0 184 -65 287t-187 103t-187 -103t-65 -287t65 -287t187 -103t187 103t65 287z" />
    <glyph glyph-name="ntilde" unicode="&#xf1;" horiz-adv-x="1150" 
d="M460 1380q35 0 75 -22t69.5 -48t64.5 -48t61 -22q21 0 37.5 8.5t35.5 33.5t28.5 41t34.5 61l62 -36q-61 -138 -111 -191t-117 -53q-36 0 -76 22t-69.5 48t-64.5 48t-62 22q-20 0 -37 -9t-35 -32.5t-29.5 -42t-34.5 -60.5l-64 36q60 137 112.5 190.5t119.5 53.5zM510 86
v-86h-432v86q89 0 109.5 6t20.5 32v604q0 30 -8.5 40.5t-37.5 23.5l-92 42v44l282 82h28v-178q53 68 143 123t183 55t155.5 -47.5t88.5 -120t26 -166.5v-502q0 -26 20.5 -32t109.5 -6v-86h-432v86q89 0 109.5 6t20.5 32v486q0 220 -182 220q-67 0 -131 -34t-111 -84v-588
q0 -26 20.5 -32t109.5 -6z" />
    <glyph glyph-name="ograve" unicode="&#xf2;" horiz-adv-x="1036" 
d="M478 1414l196 -300l-42 -36l-282 234q-52 43 -52 88q0 37 22 58.5t60 21.5q55 0 98 -66zM82 470q0 217 126.5 353.5t309.5 136.5t309.5 -136.5t126.5 -353.5t-126.5 -353.5t-309.5 -136.5t-309.5 136.5t-126.5 353.5zM770 470q0 184 -65 287t-187 103t-187 -103t-65 -287
t65 -287t187 -103t187 103t65 287z" />
    <glyph glyph-name="oacute" unicode="&#xf3;" horiz-adv-x="1036" 
d="M364 1114l196 300q43 66 98 66q38 0 60 -21.5t22 -58.5q0 -45 -52 -88l-282 -234zM82 470q0 217 126.5 353.5t309.5 136.5t309.5 -136.5t126.5 -353.5t-126.5 -353.5t-309.5 -136.5t-309.5 136.5t-126.5 353.5zM770 470q0 184 -65 287t-187 103t-187 -103t-65 -287
t65 -287t187 -103t187 103t65 287z" />
    <glyph glyph-name="ocircumflex" unicode="&#xf4;" horiz-adv-x="1036" 
d="M588 1454l234 -336l-46 -40l-256 248l-256 -248l-46 40l234 336q26 36 68 36t68 -36zM82 470q0 217 126.5 353.5t309.5 136.5t309.5 -136.5t126.5 -353.5t-126.5 -353.5t-309.5 -136.5t-309.5 136.5t-126.5 353.5zM770 470q0 184 -65 287t-187 103t-187 -103t-65 -287
t65 -287t187 -103t187 103t65 287z" />
    <glyph glyph-name="otilde" unicode="&#xf5;" horiz-adv-x="1036" 
d="M422 1380q35 0 75 -22t69.5 -48t64.5 -48t61 -22q21 0 37.5 8.5t35.5 33.5t28.5 41t34.5 61l62 -36q-61 -138 -111 -191t-117 -53q-36 0 -76 22t-69.5 48t-64.5 48t-62 22q-20 0 -37 -9t-35 -32.5t-29.5 -42t-34.5 -60.5l-64 36q60 137 112.5 190.5t119.5 53.5zM82 470
q0 217 126.5 353.5t309.5 136.5t309.5 -136.5t126.5 -353.5t-126.5 -353.5t-309.5 -136.5t-309.5 136.5t-126.5 353.5zM770 470q0 184 -65 287t-187 103t-187 -103t-65 -287t65 -287t187 -103t187 103t65 287z" />
    <glyph glyph-name="odieresis" unicode="&#xf6;" horiz-adv-x="1036" 
d="M220 1252q0 48 35.5 83t84.5 35q48 0 84 -35t36 -83q0 -51 -35.5 -85.5t-84.5 -34.5q-50 0 -85 34t-35 86zM578 1252q0 48 36 83t84 35q49 0 84.5 -35t35.5 -83q0 -52 -35 -86t-85 -34q-49 0 -84.5 34.5t-35.5 85.5zM82 470q0 217 126.5 353.5t309.5 136.5t309.5 -136.5
t126.5 -353.5t-126.5 -353.5t-309.5 -136.5t-309.5 136.5t-126.5 353.5zM770 470q0 184 -65 287t-187 103t-187 -103t-65 -287t65 -287t187 -103t187 103t65 287z" />
    <glyph glyph-name="divide" unicode="&#xf7;" 
d="M432 1002q0 54 38 92t92 38q53 0 90.5 -38t37.5 -92t-37.5 -92t-90.5 -38q-54 0 -92 38t-38 92zM100 554v120h920v-120h-920zM432 226q0 54 38 92t92 38q53 0 90.5 -38t37.5 -92t-37.5 -92t-90.5 -38q-54 0 -92 38t-38 92z" />
    <glyph glyph-name="oslash" unicode="&#xf8;" horiz-adv-x="1036" 
d="M518 -20q-131 0 -234 70l-112 -152l-76 54l118 158q-132 138 -132 360q0 217 126.5 353.5t309.5 136.5q145 0 258 -88l104 140l76 -54l-112 -152q110 -136 110 -336q0 -217 -126.5 -353.5t-309.5 -136.5zM260 470q0 -144 42 -240l398 540q-65 90 -182 90
q-125 0 -191.5 -103t-66.5 -287zM776 470q0 116 -28 206l-392 -530q66 -66 162 -66q125 0 191.5 103t66.5 287z" />
    <glyph glyph-name="ugrave" unicode="&#xf9;" horiz-adv-x="1098" 
d="M454 1414l196 -300l-42 -36l-282 234q-52 43 -52 88q0 37 22 58.5t60 21.5q55 0 98 -66zM1060 22l-282 -42h-28v168q-53 -69 -132 -118.5t-168 -49.5q-130 0 -203 90t-73 244v454q0 32 -9 45t-37 19l-96 18v70l286 20h28v-614q0 -108 45.5 -164t130.5 -56q121 0 228 118
v544q0 32 -9 45t-37 19l-96 18v70l286 20h28v-768q0 -30 8.5 -40.5t37.5 -23.5l92 -42v-44z" />
    <glyph glyph-name="uacute" unicode="&#xfa;" horiz-adv-x="1098" 
d="M456 1114l196 300q43 66 98 66q38 0 60 -21.5t22 -58.5q0 -45 -52 -88l-282 -234zM1060 22l-282 -42h-28v168q-53 -69 -132 -118.5t-168 -49.5q-130 0 -203 90t-73 244v454q0 32 -9 45t-37 19l-96 18v70l286 20h28v-614q0 -108 45.5 -164t130.5 -56q121 0 228 118v544
q0 32 -9 45t-37 19l-96 18v70l286 20h28v-768q0 -30 8.5 -40.5t37.5 -23.5l92 -42v-44z" />
    <glyph glyph-name="ucircumflex" unicode="&#xfb;" horiz-adv-x="1098" 
d="M600 1454l234 -336l-46 -40l-256 248l-256 -248l-46 40l234 336q26 36 68 36t68 -36zM1060 22l-282 -42h-28v168q-53 -69 -132 -118.5t-168 -49.5q-130 0 -203 90t-73 244v454q0 32 -9 45t-37 19l-96 18v70l286 20h28v-614q0 -108 45.5 -164t130.5 -56q121 0 228 118v544
q0 32 -9 45t-37 19l-96 18v70l286 20h28v-768q0 -30 8.5 -40.5t37.5 -23.5l92 -42v-44z" />
    <glyph glyph-name="udieresis" unicode="&#xfc;" horiz-adv-x="1098" 
d="M254 1252q0 48 35.5 83t84.5 35q48 0 84 -35t36 -83q0 -51 -35.5 -85.5t-84.5 -34.5q-50 0 -85 34t-35 86zM612 1252q0 48 36 83t84 35q49 0 84.5 -35t35.5 -83q0 -52 -35 -86t-85 -34q-49 0 -84.5 34.5t-35.5 85.5zM1060 22l-282 -42h-28v168q-53 -69 -132 -118.5
t-168 -49.5q-130 0 -203 90t-73 244v454q0 32 -9 45t-37 19l-96 18v70l286 20h28v-614q0 -108 45.5 -164t130.5 -56q121 0 228 118v544q0 32 -9 45t-37 19l-96 18v70l286 20h28v-768q0 -30 8.5 -40.5t37.5 -23.5l92 -42v-44z" />
    <glyph glyph-name="yacute" unicode="&#xfd;" horiz-adv-x="1010" 
d="M460 1114l196 300q43 66 98 66q38 0 60 -21.5t22 -58.5q0 -45 -52 -88l-282 -234zM540 -38q-30 -73 -58 -130t-63.5 -110.5t-72.5 -88.5t-84 -56t-98 -21q-62 0 -105 34.5t-43 89.5q0 44 29.5 70t66.5 26q26 0 48.5 -14.5t35 -31.5t27.5 -31.5t29 -14.5q85 0 210 316
l-338 816q-9 24 -30.5 31t-93.5 7v86h432v-86q-86 -3 -106 -7t-20 -19q0 -10 8 -30l226 -580h6l228 580q8 20 8 30q0 15 -20 19t-106 7v86h354v-86q-72 0 -92.5 -6.5t-29.5 -31.5z" />
    <glyph glyph-name="thorn" unicode="&#xfe;" horiz-adv-x="1078" 
d="M518 -338v-86h-492v86q89 0 109.5 6t20.5 32v1568q0 30 -8.5 40.5t-37.5 23.5l-92 42v44l282 82h28v-718q46 70 127.5 124t170.5 54q112 0 197 -61t129 -162.5t44 -226.5q0 -240 -125 -385t-313 -145q-68 0 -130 27.5t-100 72.5v-376q0 -29 28.5 -35.5t161.5 -6.5z
M562 832q-68 0 -132 -36.5t-102 -83.5v-528q62 -102 202 -102q131 0 209.5 105.5t78.5 282.5q0 159 -67 260.5t-189 101.5z" />
    <glyph glyph-name="ydieresis" unicode="&#xff;" horiz-adv-x="1010" 
d="M238 1252q0 48 35.5 83t84.5 35q48 0 84 -35t36 -83q0 -51 -35.5 -85.5t-84.5 -34.5q-50 0 -85 34t-35 86zM596 1252q0 48 36 83t84 35q49 0 84.5 -35t35.5 -83q0 -52 -35 -86t-85 -34q-49 0 -84.5 34.5t-35.5 85.5zM540 -38q-30 -73 -58 -130t-63.5 -110.5t-72.5 -88.5
t-84 -56t-98 -21q-62 0 -105 34.5t-43 89.5q0 44 29.5 70t66.5 26q26 0 48.5 -14.5t35 -31.5t27.5 -31.5t29 -14.5q85 0 210 316l-338 816q-9 24 -30.5 31t-93.5 7v86h432v-86q-86 -3 -106 -7t-20 -19q0 -10 8 -30l226 -580h6l228 580q8 20 8 30q0 15 -20 19t-106 7v86h354
v-86q-72 0 -92.5 -6.5t-29.5 -31.5z" />
    <glyph glyph-name="Amacron" unicode="&#x100;" horiz-adv-x="1440" 
d="M392 1492v120h628v-120h-628zM498 88v-88h-478v88q94 0 125.5 10.5t46.5 49.5l460 1182h136l460 -1182q15 -39 46.5 -49.5t125.5 -10.5v-88h-548v88q110 0 148 8t38 30q0 10 -10 38l-120 324h-486l-120 -324q-10 -28 -10 -38q0 -22 38 -30t148 -8zM682 1134l-206 -554
h418l-204 554h-8z" />
    <glyph glyph-name="amacron" unicode="&#x101;" horiz-adv-x="998" 
d="M214 1172v116h548v-116h-548zM834 -20q-71 0 -123.5 48t-62.5 124q-54 -71 -143 -121.5t-175 -50.5q-102 0 -167 59t-65 159q0 133 133 225t409 149v124q0 84 -43 128t-127 44q-63 0 -109.5 -26t-46.5 -60q0 -11 9 -34t9 -46q0 -42 -28 -69t-72 -27q-42 0 -73 30.5
t-31 79.5q0 67 56 124t144 88.5t184 31.5q144 0 222 -59.5t78 -198.5v-500q0 -50 25 -76t57 -26q44 0 90 36l30 -62q-34 -40 -82.5 -67t-97.5 -27zM640 486q-193 -44 -282.5 -102t-89.5 -152q0 -61 35 -96.5t93 -35.5q127 0 244 120v266z" />
    <glyph glyph-name="Abreve" unicode="&#x102;" horiz-adv-x="1440" 
d="M724 1570q96 0 157.5 63.5t84.5 182.5l84 -20q-20 -171 -111 -267.5t-215 -96.5t-215 96.5t-111 267.5l84 20q23 -119 84.5 -182.5t157.5 -63.5zM498 88v-88h-478v88q94 0 125.5 10.5t46.5 49.5l460 1182h136l460 -1182q15 -39 46.5 -49.5t125.5 -10.5v-88h-548v88
q110 0 148 8t38 30q0 10 -10 38l-120 324h-486l-120 -324q-10 -28 -10 -38q0 -22 38 -30t148 -8zM682 1134l-206 -554h418l-204 554h-8z" />
    <glyph glyph-name="abreve" unicode="&#x103;" horiz-adv-x="998" 
d="M484 1222q83 0 141.5 61.5t80.5 178.5l84 -20q-21 -173 -102.5 -268.5t-203.5 -95.5t-203.5 95.5t-102.5 268.5l84 20q22 -117 80.5 -178.5t141.5 -61.5zM834 -20q-71 0 -123.5 48t-62.5 124q-54 -71 -143 -121.5t-175 -50.5q-102 0 -167 59t-65 159q0 133 133 225
t409 149v124q0 84 -43 128t-127 44q-63 0 -109.5 -26t-46.5 -60q0 -11 9 -34t9 -46q0 -42 -28 -69t-72 -27q-42 0 -73 30.5t-31 79.5q0 67 56 124t144 88.5t184 31.5q144 0 222 -59.5t78 -198.5v-500q0 -50 25 -76t57 -26q44 0 90 36l30 -62q-34 -40 -82.5 -67t-97.5 -27z
M640 486q-193 -44 -282.5 -102t-89.5 -152q0 -61 35 -96.5t93 -35.5q127 0 244 120v266z" />
    <glyph glyph-name="Aogonek" unicode="&#x104;" horiz-adv-x="1440" 
d="M1050 -290q-48 -64 -118.5 -109t-147.5 -45q-78 0 -127 44.5t-49 119.5q0 161 264 286v82q110 0 148 8t38 30q0 10 -10 38l-120 324h-486l-120 -324q-10 -28 -10 -38q0 -22 38 -30t148 -8v-88h-478v88q94 0 125.5 10.5t46.5 49.5l460 1182h136l460 -1182
q15 -39 46.5 -49.5t125.5 -10.5v-88h-434q-103 -45 -175.5 -109.5t-72.5 -130.5q0 -44 25.5 -70t72.5 -26q45 0 86.5 23.5t93.5 72.5zM682 1134l-206 -554h418l-204 554h-8z" />
    <glyph glyph-name="aogonek" unicode="&#x105;" horiz-adv-x="998" 
d="M708 -444q-78 0 -127 44.5t-49 119.5q0 154 236 272q-47 18 -80 61t-40 99q-54 -71 -143 -121.5t-175 -50.5q-102 0 -167 59t-65 159q0 133 133 225t409 149v124q0 84 -43 128t-127 44q-63 0 -109.5 -26t-46.5 -60q0 -11 9 -34t9 -46q0 -42 -28 -69t-72 -27
q-42 0 -73 30.5t-31 79.5q0 67 56 124t144 88.5t184 31.5q144 0 222 -59.5t78 -198.5v-500q0 -50 25 -76t57 -26q44 0 90 36l30 -62q-46 -54 -140 -92q-90 -38 -151 -98.5t-61 -123.5q0 -44 25.5 -70t72.5 -26q45 0 86.5 23.5t93.5 72.5l34 -50q-48 -64 -118.5 -109
t-147.5 -45zM640 486q-193 -44 -282.5 -102t-89.5 -152q0 -61 35 -96.5t93 -35.5q127 0 244 120v266z" />
    <glyph glyph-name="Cacute" unicode="&#x106;" horiz-adv-x="1262" 
d="M548 1482l280 266q47 44 94 44q39 0 63.5 -23t24.5 -59q0 -64 -72 -100l-358 -178zM1088 906q-62 158 -164 242t-222 84q-183 0 -297.5 -149.5t-114.5 -416.5q0 -247 125.5 -407.5t314.5 -160.5q113 0 209.5 53t160.5 157l76 -60q-157 -268 -478 -268q-122 0 -233 48
t-195.5 133.5t-135 214t-50.5 280.5q0 153 50 283t135 217t197 135.5t236 48.5q165 0 294 -112l66 100h72l20 -422h-66z" />
    <glyph glyph-name="cacute" unicode="&#x107;" horiz-adv-x="910" 
d="M416 1114l196 300q43 66 98 66q38 0 60 -21.5t22 -58.5q0 -45 -52 -88l-282 -234zM518 856q-109 0 -185.5 -105.5t-76.5 -270.5q0 -179 80.5 -279.5t195.5 -100.5q82 0 142 40t110 126l78 -48q-55 -111 -147.5 -174.5t-214.5 -63.5q-83 0 -157.5 31t-133 88.5t-93 147.5
t-34.5 199q0 142 65.5 261.5t171 186t223.5 66.5q124 0 209 -59t85 -131q0 -44 -26.5 -69t-63.5 -25q-27 0 -46.5 13.5t-30 33.5t-23.5 43t-26.5 43t-39.5 33.5t-62 13.5z" />
    <glyph glyph-name="Ccircumflex" unicode="&#x108;" horiz-adv-x="1262" 
d="M764 1768l274 -296l-46 -40l-296 200l-296 -200l-46 40l274 296q30 32 68 32t68 -32zM1088 906q-62 158 -164 242t-222 84q-183 0 -297.5 -149.5t-114.5 -416.5q0 -247 125.5 -407.5t314.5 -160.5q113 0 209.5 53t160.5 157l76 -60q-157 -268 -478 -268q-122 0 -233 48
t-195.5 133.5t-135 214t-50.5 280.5q0 153 50 283t135 217t197 135.5t236 48.5q165 0 294 -112l66 100h72l20 -422h-66z" />
    <glyph glyph-name="ccircumflex" unicode="&#x109;" horiz-adv-x="910" 
d="M586 1454l234 -336l-46 -40l-256 248l-256 -248l-46 40l234 336q26 36 68.5 36t67.5 -36zM518 856q-109 0 -185.5 -105.5t-76.5 -270.5q0 -179 80.5 -279.5t195.5 -100.5q82 0 142 40t110 126l78 -48q-55 -111 -147.5 -174.5t-214.5 -63.5q-83 0 -157.5 31t-133 88.5
t-93 147.5t-34.5 199q0 142 65.5 261.5t171 186t223.5 66.5q124 0 209 -59t85 -131q0 -44 -26.5 -69t-63.5 -25q-27 0 -46.5 13.5t-30 33.5t-23.5 43t-26.5 43t-39.5 33.5t-62 13.5z" />
    <glyph glyph-name="Cdotaccent" unicode="&#x10a;" horiz-adv-x="1262" 
d="M582 1598q0 52 37 89t89 37t89 -37t37 -89t-37 -89t-89 -37t-89 37t-37 89zM1088 906q-62 158 -164 242t-222 84q-183 0 -297.5 -149.5t-114.5 -416.5q0 -247 125.5 -407.5t314.5 -160.5q113 0 209.5 53t160.5 157l76 -60q-157 -268 -478 -268q-122 0 -233 48
t-195.5 133.5t-135 214t-50.5 280.5q0 153 50 283t135 217t197 135.5t236 48.5q165 0 294 -112l66 100h72l20 -422h-66z" />
    <glyph glyph-name="cdotaccent" unicode="&#x10b;" horiz-adv-x="910" 
d="M388 1294q0 52 37 89t89 37t89 -37t37 -89t-37 -89t-89 -37t-89 37t-37 89zM518 856q-109 0 -185.5 -105.5t-76.5 -270.5q0 -179 80.5 -279.5t195.5 -100.5q82 0 142 40t110 126l78 -48q-55 -111 -147.5 -174.5t-214.5 -63.5q-83 0 -157.5 31t-133 88.5t-93 147.5
t-34.5 199q0 142 65.5 261.5t171 186t223.5 66.5q124 0 209 -59t85 -131q0 -44 -26.5 -69t-63.5 -25q-27 0 -46.5 13.5t-30 33.5t-23.5 43t-26.5 43t-39.5 33.5t-62 13.5z" />
    <glyph glyph-name="Ccaron" unicode="&#x10c;" horiz-adv-x="1262" 
d="M1056 1752l-274 -296q-30 -32 -68 -32t-68 32l-274 296l46 40l296 -200l296 200zM1088 906q-62 158 -164 242t-222 84q-183 0 -297.5 -149.5t-114.5 -416.5q0 -247 125.5 -407.5t314.5 -160.5q113 0 209.5 53t160.5 157l76 -60q-157 -268 -478 -268q-122 0 -233 48
t-195.5 133.5t-135 214t-50.5 280.5q0 153 50 283t135 217t197 135.5t236 48.5q165 0 294 -112l66 100h72l20 -422h-66z" />
    <glyph glyph-name="ccaron" unicode="&#x10d;" horiz-adv-x="910" 
d="M824 1450l-234 -336q-26 -36 -68 -36t-68 36l-234 336l46 40l256 -248l256 248zM518 856q-109 0 -185.5 -105.5t-76.5 -270.5q0 -179 80.5 -279.5t195.5 -100.5q82 0 142 40t110 126l78 -48q-55 -111 -147.5 -174.5t-214.5 -63.5q-83 0 -157.5 31t-133 88.5t-93 147.5
t-34.5 199q0 142 65.5 261.5t171 186t223.5 66.5q124 0 209 -59t85 -131q0 -44 -26.5 -69t-63.5 -25q-27 0 -46.5 13.5t-30 33.5t-23.5 43t-26.5 43t-39.5 33.5t-62 13.5z" />
    <glyph glyph-name="Dcaron" unicode="&#x10e;" horiz-adv-x="1392" 
d="M1004 1752l-274 -296q-30 -32 -68 -32t-68 32l-274 296l46 40l296 -200l296 200zM60 1320h508q219 0 386.5 -78.5t260.5 -225.5t93 -342q0 -196 -92.5 -349.5t-261.5 -239t-386 -85.5h-508v88q118 0 149 9t31 43v1040q0 34 -31 43t-149 9v88zM428 92h130q258 0 401 159.5
t143 422.5q0 260 -141.5 407t-402.5 147h-130v-1136z" />
    <glyph glyph-name="dcaron" unicode="&#x10f;" horiz-adv-x="1366" 
d="M1060 22l-282 -42h-28v178q-44 -71 -124.5 -124.5t-169.5 -53.5q-109 0 -195.5 62t-132.5 165t-46 227q0 158 59 279t158 184t221 63q63 0 126.5 -23.5t103.5 -62.5v394q0 30 -8.5 40.5t-37.5 23.5l-92 42v44l282 82h28v-1328q0 -30 8.5 -40.5t37.5 -23.5l92 -42v-44z
M1146 1388q8 56 37 84t65 28q35 0 56.5 -22t21.5 -62q0 -28 -20 -68l-160 -334l-54 14zM260 474q0 -159 71 -263.5t191 -104.5q124 0 228 122v528q-63 108 -204 108q-128 0 -207 -108.5t-79 -281.5z" />
    <glyph glyph-name="Dcroat" unicode="&#x110;" horiz-adv-x="1412" 
d="M1328 674q0 -196 -92.5 -349.5t-261.5 -239t-386 -85.5h-508v88q118 0 149 9t31 43v488h-180v92h180v460q0 34 -31 43t-149 9v88h508q219 0 386.5 -78.5t260.5 -225.5t93 -342zM448 92h130q258 0 401 159.5t143 422.5q0 260 -141.5 407t-402.5 147h-130v-508h294v-92
h-294v-536z" />
    <glyph glyph-name="dcroat" unicode="&#x111;" horiz-adv-x="1108" 
d="M1060 22l-282 -42h-28v178q-44 -71 -124.5 -124.5t-169.5 -53.5q-109 0 -195.5 62t-132.5 165t-46 227q0 158 59 279t158 184t221 63q63 0 126.5 -23.5t103.5 -62.5v218h-276v96h276v80q0 30 -8.5 40.5t-37.5 23.5l-92 42v44l282 82h28v-312h160v-96h-160v-920
q0 -30 8.5 -40.5t37.5 -23.5l92 -42v-44zM260 474q0 -159 71 -263.5t191 -104.5q124 0 228 122v528q-63 108 -204 108q-128 0 -207 -108.5t-79 -281.5z" />
    <glyph glyph-name="Emacron" unicode="&#x112;" horiz-adv-x="1246" 
d="M324 1492v120h628v-120h-628zM1086 1320l18 -402h-76q-47 167 -70 212q-34 66 -96 85q-43 13 -116 13h-318v-508h128q49 0 75 1t51 10t35 18.5t20.5 37t14.5 55t10 82.5h80v-500h-72q-7 54 -11.5 83t-16 55.5t-22 37t-36.5 18.5t-52 9t-76 1h-128v-536h270
q80 0 131.5 7.5t98.5 28t77 60.5t55 102t44 156h80l-42 -446h-1082v88q118 0 149 9t31 43v1040q0 34 -31 43t-149 9v88h1026z" />
    <glyph glyph-name="emacron" unicode="&#x113;" horiz-adv-x="956" 
d="M242 1172v116h548v-116h-548zM876 192q-50 -100 -148 -156t-212 -56q-86 0 -164 33.5t-138.5 93.5t-96 152t-35.5 201q0 107 36 201t95.5 159t138 102.5t162.5 37.5q175 0 266.5 -112t91.5 -288v-64h-620v-6q0 -185 87.5 -287.5t214.5 -102.5q78 0 134.5 33t113.5 111z
M506 862q-92 0 -160.5 -73t-87.5 -205h446q-3 278 -198 278z" />
    <glyph glyph-name="Ebreve" unicode="&#x114;" horiz-adv-x="1246" 
d="M638 1570q96 0 157.5 63.5t84.5 182.5l84 -20q-20 -171 -111 -267.5t-215 -96.5t-215 96.5t-111 267.5l84 20q23 -119 84.5 -182.5t157.5 -63.5zM1086 1320l18 -402h-76q-47 167 -70 212q-34 66 -96 85q-43 13 -116 13h-318v-508h128q49 0 75 1t51 10t35 18.5t20.5 37
t14.5 55t10 82.5h80v-500h-72q-7 54 -11.5 83t-16 55.5t-22 37t-36.5 18.5t-52 9t-76 1h-128v-536h270q80 0 131.5 7.5t98.5 28t77 60.5t55 102t44 156h80l-42 -446h-1082v88q118 0 149 9t31 43v1040q0 34 -31 43t-149 9v88h1026z" />
    <glyph glyph-name="ebreve" unicode="&#x115;" horiz-adv-x="956" 
d="M516 1222q83 0 141.5 61.5t80.5 178.5l84 -20q-21 -173 -102.5 -268.5t-203.5 -95.5t-203.5 95.5t-102.5 268.5l84 20q22 -117 80.5 -178.5t141.5 -61.5zM876 192q-50 -100 -148 -156t-212 -56q-86 0 -164 33.5t-138.5 93.5t-96 152t-35.5 201q0 107 36 201t95.5 159
t138 102.5t162.5 37.5q175 0 266.5 -112t91.5 -288v-64h-620v-6q0 -185 87.5 -287.5t214.5 -102.5q78 0 134.5 33t113.5 111zM506 862q-92 0 -160.5 -73t-87.5 -205h446q-3 278 -198 278z" />
    <glyph glyph-name="Edotaccent" unicode="&#x116;" horiz-adv-x="1246" 
d="M512 1598q0 52 37 89t89 37t89 -37t37 -89t-37 -89t-89 -37t-89 37t-37 89zM1086 1320l18 -402h-76q-47 167 -70 212q-34 66 -96 85q-43 13 -116 13h-318v-508h128q49 0 75 1t51 10t35 18.5t20.5 37t14.5 55t10 82.5h80v-500h-72q-7 54 -11.5 83t-16 55.5t-22 37
t-36.5 18.5t-52 9t-76 1h-128v-536h270q80 0 131.5 7.5t98.5 28t77 60.5t55 102t44 156h80l-42 -446h-1082v88q118 0 149 9t31 43v1040q0 34 -31 43t-149 9v88h1026z" />
    <glyph glyph-name="edotaccent" unicode="&#x117;" horiz-adv-x="956" 
d="M390 1294q0 52 37 89t89 37t89 -37t37 -89t-37 -89t-89 -37t-89 37t-37 89zM876 192q-50 -100 -148 -156t-212 -56q-86 0 -164 33.5t-138.5 93.5t-96 152t-35.5 201q0 107 36 201t95.5 159t138 102.5t162.5 37.5q175 0 266.5 -112t91.5 -288v-64h-620v-6
q0 -185 87.5 -287.5t214.5 -102.5q78 0 134.5 33t113.5 111zM506 862q-92 0 -160.5 -73t-87.5 -205h446q-3 278 -198 278z" />
    <glyph glyph-name="Eogonek" unicode="&#x118;" horiz-adv-x="1246" 
d="M1024 -290q-48 -64 -118.5 -109t-147.5 -45q-78 0 -127 44.5t-49 119.5q0 157 250 280h-772v88q118 0 149 9t31 43v1040q0 34 -31 43t-149 9v88h1026l18 -402h-76q-47 167 -70 212q-34 66 -96 85q-43 13 -116 13h-318v-508h128q49 0 75 1t51 10t35 18.5t20.5 37t14.5 55
t10 82.5h80v-500h-72q-7 54 -11.5 83t-16 55.5t-22 37t-36.5 18.5t-52 9t-76 1h-128v-536h270q80 0 131.5 7.5t98.5 28t77 60.5t55 102t44 156h80l-42 -446h-182q-103 -45 -175.5 -109.5t-72.5 -130.5q0 -44 25.5 -70t72.5 -26q45 0 86.5 23.5t93.5 72.5z" />
    <glyph glyph-name="eogonek" unicode="&#x119;" horiz-adv-x="956" 
d="M800 -290q-48 -64 -118.5 -109t-147.5 -45q-78 0 -127 44.5t-49 119.5q0 141 208 264q-40 -4 -50 -4q-86 0 -164 33.5t-138.5 93.5t-96 152t-35.5 201q0 107 36 201t95.5 159t138 102.5t162.5 37.5q175 0 266.5 -112t91.5 -288v-64h-620v-6q0 -185 87.5 -287.5
t214.5 -102.5q78 0 134.5 33t113.5 111l74 -52q-23 -48 -75.5 -97.5t-106.5 -84.5q-206 -132 -206 -250q0 -44 25.5 -70t72.5 -26q45 0 86.5 23.5t93.5 72.5zM506 862q-92 0 -160.5 -73t-87.5 -205h446q-3 278 -198 278z" />
    <glyph glyph-name="Ecaron" unicode="&#x11a;" horiz-adv-x="1246" 
d="M980 1752l-274 -296q-30 -32 -68 -32t-68 32l-274 296l46 40l296 -200l296 200zM1086 1320l18 -402h-76q-47 167 -70 212q-34 66 -96 85q-43 13 -116 13h-318v-508h128q49 0 75 1t51 10t35 18.5t20.5 37t14.5 55t10 82.5h80v-500h-72q-7 54 -11.5 83t-16 55.5t-22 37
t-36.5 18.5t-52 9t-76 1h-128v-536h270q80 0 131.5 7.5t98.5 28t77 60.5t55 102t44 156h80l-42 -446h-1082v88q118 0 149 9t31 43v1040q0 34 -31 43t-149 9v88h1026z" />
    <glyph glyph-name="ecaron" unicode="&#x11b;" horiz-adv-x="956" 
d="M818 1450l-234 -336q-26 -36 -68 -36t-68 36l-234 336l46 40l256 -248l256 248zM876 192q-50 -100 -148 -156t-212 -56q-86 0 -164 33.5t-138.5 93.5t-96 152t-35.5 201q0 107 36 201t95.5 159t138 102.5t162.5 37.5q175 0 266.5 -112t91.5 -288v-64h-620v-6
q0 -185 87.5 -287.5t214.5 -102.5q78 0 134.5 33t113.5 111zM506 862q-92 0 -160.5 -73t-87.5 -205h446q-3 278 -198 278z" />
    <glyph glyph-name="Gcircumflex" unicode="&#x11c;" horiz-adv-x="1416" 
d="M784 1768l274 -296l-46 -40l-296 200l-296 -200l-46 40l274 296q30 32 68 32t68 -32zM1008 484q0 34 -31 43t-149 9v88h548v-88q-118 0 -149 -9t-31 -43v-340q-184 -164 -464 -164q-127 0 -244 48t-207 133.5t-143.5 214.5t-53.5 280q0 153 52.5 283.5t140 217t201.5 135
t238 48.5q171 0 300 -112l66 100h72l20 -422h-66q-62 160 -164 243t-228 83q-89 0 -166.5 -38t-136 -109t-92 -181.5t-33.5 -247.5q0 -135 38 -244.5t102.5 -179t148 -107t177.5 -37.5q165 0 254 68v328z" />
    <glyph glyph-name="gcircumflex" unicode="&#x11d;" horiz-adv-x="1070" 
d="M568 1454l234 -336l-46 -40l-256 248l-256 -248l-46 40l234 336q25 36 67.5 36t68.5 -36zM1004 -94q0 -108 -76.5 -189t-196.5 -121t-263 -40q-200 0 -321 65.5t-121 188.5q0 71 63 122t163 70q-59 19 -94.5 64t-35.5 100q0 125 166 200q-83 44 -129.5 116.5t-46.5 157.5
q0 130 112.5 225t265.5 95q163 0 280 -110q55 68 105 108t105 40t88.5 -30.5t33.5 -85.5q0 -47 -30 -75.5t-66 -28.5q-26 0 -45.5 10.5t-28.5 23.5t-20 23.5t-22 10.5q-36 0 -80 -44q54 -76 54 -162q0 -129 -111.5 -224.5t-262.5 -95.5q-77 0 -134 20q-63 -31 -91.5 -58.5
t-28.5 -65.5q0 -31 20 -51.5t54 -20.5h376q141 0 229.5 -58t88.5 -180zM294 640q0 -107 53 -169.5t143 -62.5q89 0 141.5 63t52.5 169q0 108 -52.5 171t-141.5 63q-90 0 -143 -63t-53 -171zM664 -20h-358q-124 -53 -124 -156q0 -84 83.5 -128t218.5 -44q157 0 261.5 58.5
t104.5 147.5q0 67 -43.5 94.5t-142.5 27.5z" />
    <glyph glyph-name="Gbreve" unicode="&#x11e;" horiz-adv-x="1416" 
d="M722 1570q96 0 157.5 63.5t84.5 182.5l84 -20q-20 -171 -111 -267.5t-215 -96.5t-215 96.5t-111 267.5l84 20q23 -119 84.5 -182.5t157.5 -63.5zM1008 484q0 34 -31 43t-149 9v88h548v-88q-118 0 -149 -9t-31 -43v-340q-184 -164 -464 -164q-127 0 -244 48t-207 133.5
t-143.5 214.5t-53.5 280q0 153 52.5 283.5t140 217t201.5 135t238 48.5q171 0 300 -112l66 100h72l20 -422h-66q-62 160 -164 243t-228 83q-89 0 -166.5 -38t-136 -109t-92 -181.5t-33.5 -247.5q0 -135 38 -244.5t102.5 -179t148 -107t177.5 -37.5q165 0 254 68v328z" />
    <glyph glyph-name="gbreve" unicode="&#x11f;" horiz-adv-x="1070" 
d="M500 1222q83 0 141.5 61.5t80.5 178.5l84 -20q-21 -173 -102.5 -268.5t-203.5 -95.5t-203.5 95.5t-102.5 268.5l84 20q22 -117 80.5 -178.5t141.5 -61.5zM1004 -94q0 -108 -76.5 -189t-196.5 -121t-263 -40q-200 0 -321 65.5t-121 188.5q0 71 63 122t163 70
q-59 19 -94.5 64t-35.5 100q0 125 166 200q-83 44 -129.5 116.5t-46.5 157.5q0 130 112.5 225t265.5 95q163 0 280 -110q55 68 105 108t105 40t88.5 -30.5t33.5 -85.5q0 -47 -30 -75.5t-66 -28.5q-26 0 -45.5 10.5t-28.5 23.5t-20 23.5t-22 10.5q-36 0 -80 -44
q54 -76 54 -162q0 -129 -111.5 -224.5t-262.5 -95.5q-77 0 -134 20q-63 -31 -91.5 -58.5t-28.5 -65.5q0 -31 20 -51.5t54 -20.5h376q141 0 229.5 -58t88.5 -180zM294 640q0 -107 53 -169.5t143 -62.5q89 0 141.5 63t52.5 169q0 108 -52.5 171t-141.5 63q-90 0 -143 -63
t-53 -171zM664 -20h-358q-124 -53 -124 -156q0 -84 83.5 -128t218.5 -44q157 0 261.5 58.5t104.5 147.5q0 67 -43.5 94.5t-142.5 27.5z" />
    <glyph glyph-name="Gdotaccent" unicode="&#x120;" horiz-adv-x="1416" 
d="M602 1598q0 52 37 89t89 37t89 -37t37 -89t-37 -89t-89 -37t-89 37t-37 89zM1008 484q0 34 -31 43t-149 9v88h548v-88q-118 0 -149 -9t-31 -43v-340q-184 -164 -464 -164q-127 0 -244 48t-207 133.5t-143.5 214.5t-53.5 280q0 153 52.5 283.5t140 217t201.5 135t238 48.5
q171 0 300 -112l66 100h72l20 -422h-66q-62 160 -164 243t-228 83q-89 0 -166.5 -38t-136 -109t-92 -181.5t-33.5 -247.5q0 -135 38 -244.5t102.5 -179t148 -107t177.5 -37.5q165 0 254 68v328z" />
    <glyph glyph-name="gdotaccent" unicode="&#x121;" horiz-adv-x="1070" 
d="M374 1294q0 52 37 89t89 37t89 -37t37 -89t-37 -89t-89 -37t-89 37t-37 89zM1004 -94q0 -108 -76.5 -189t-196.5 -121t-263 -40q-200 0 -321 65.5t-121 188.5q0 71 63 122t163 70q-59 19 -94.5 64t-35.5 100q0 125 166 200q-83 44 -129.5 116.5t-46.5 157.5
q0 130 112.5 225t265.5 95q163 0 280 -110q55 68 105 108t105 40t88.5 -30.5t33.5 -85.5q0 -47 -30 -75.5t-66 -28.5q-26 0 -45.5 10.5t-28.5 23.5t-20 23.5t-22 10.5q-36 0 -80 -44q54 -76 54 -162q0 -129 -111.5 -224.5t-262.5 -95.5q-77 0 -134 20q-63 -31 -91.5 -58.5
t-28.5 -65.5q0 -31 20 -51.5t54 -20.5h376q141 0 229.5 -58t88.5 -180zM294 640q0 -107 53 -169.5t143 -62.5q89 0 141.5 63t52.5 169q0 108 -52.5 171t-141.5 63q-90 0 -143 -63t-53 -171zM664 -20h-358q-124 -53 -124 -156q0 -84 83.5 -128t218.5 -44q157 0 261.5 58.5
t104.5 147.5q0 67 -43.5 94.5t-142.5 27.5z" />
    <glyph glyph-name="uni0122" unicode="&#x122;" horiz-adv-x="1416" 
d="M1008 484q0 34 -31 43t-149 9v88h548v-88q-118 0 -149 -9t-31 -43v-340q-184 -164 -464 -164q-127 0 -244 48t-207 133.5t-143.5 214.5t-53.5 280q0 153 52.5 283.5t140 217t201.5 135t238 48.5q171 0 300 -112l66 100h72l20 -422h-66q-62 160 -164 243t-228 83
q-89 0 -166.5 -38t-136 -109t-92 -181.5t-33.5 -247.5q0 -135 38 -244.5t102.5 -179t148 -107t177.5 -37.5q165 0 254 68v328zM742 -332q0 19 -19.5 29.5t-42.5 15t-42.5 24t-19.5 53.5q0 48 34.5 77t83.5 29q60 0 98 -42t38 -106q0 -96 -75 -163.5t-207 -76.5l-20 72
q95 10 133.5 32t38.5 56z" />
    <glyph glyph-name="uni0123" unicode="&#x123;" horiz-adv-x="1070" 
d="M506 1326q0 -19 19.5 -29.5t42.5 -15t42.5 -24t19.5 -53.5q0 -48 -34.5 -77t-83.5 -29q-60 0 -98 42t-38 106q0 96 75 163.5t207 76.5l20 -72q-95 -10 -133.5 -32t-38.5 -56zM1004 -94q0 -108 -76.5 -189t-196.5 -121t-263 -40q-200 0 -321 65.5t-121 188.5q0 71 63 122
t163 70q-59 19 -94.5 64t-35.5 100q0 125 166 200q-83 44 -129.5 116.5t-46.5 157.5q0 130 112.5 225t265.5 95q163 0 280 -110q55 68 105 108t105 40t88.5 -30.5t33.5 -85.5q0 -47 -30 -75.5t-66 -28.5q-26 0 -45.5 10.5t-28.5 23.5t-20 23.5t-22 10.5q-36 0 -80 -44
q54 -76 54 -162q0 -129 -111.5 -224.5t-262.5 -95.5q-77 0 -134 20q-63 -31 -91.5 -58.5t-28.5 -65.5q0 -31 20 -51.5t54 -20.5h376q141 0 229.5 -58t88.5 -180zM294 640q0 -107 53 -169.5t143 -62.5q89 0 141.5 63t52.5 169q0 108 -52.5 171t-141.5 63q-90 0 -143 -63
t-53 -171zM664 -20h-358q-124 -53 -124 -156q0 -84 83.5 -128t218.5 -44q157 0 261.5 58.5t104.5 147.5q0 67 -43.5 94.5t-142.5 27.5z" />
    <glyph glyph-name="Hcircumflex" unicode="&#x124;" horiz-adv-x="1514" 
d="M824 1768l274 -296l-46 -40l-296 200l-296 -200l-46 40l274 296q30 32 68 32t68 -32zM608 88v-88h-548v88q118 0 149 9t31 43v1040q0 34 -31 43t-149 9v88h548v-88q-118 0 -149 -9t-31 -43v-460h658v460q0 34 -31 43t-149 9v88h548v-88q-118 0 -149 -9t-31 -43v-1040
q0 -34 31 -43t149 -9v-88h-548v88q118 0 149 9t31 43v488h-658v-488q0 -34 31 -43t149 -9z" />
    <glyph glyph-name="hcircumflex" unicode="&#x125;" horiz-adv-x="1140" 
d="M598 1928l274 -296l-46 -40l-296 200l-296 -200l-46 40l274 296q30 32 68 32t68 -32zM500 86v-86h-432v86q89 0 109.5 6t20.5 32v1144q0 30 -8.5 40.5t-37.5 23.5l-92 42v44l282 82h28v-718q53 68 143 123t183 55t155.5 -47.5t88.5 -120t26 -166.5v-502q0 -26 20.5 -32
t109.5 -6v-86h-432v86q89 0 109.5 6t20.5 32v486q0 220 -182 220q-67 0 -131 -34t-111 -84v-588q0 -26 20.5 -32t109.5 -6z" />
    <glyph glyph-name="Hbar" unicode="&#x126;" horiz-adv-x="1554" 
d="M628 88v-88h-548v88q118 0 149 9t31 43v748h-180v92h180v200q0 34 -31 43t-149 9v88h548v-88q-118 0 -149 -9t-31 -43v-200h658v200q0 34 -31 43t-149 9v88h548v-88q-118 0 -149 -9t-31 -43v-200h180v-92h-180v-748q0 -34 31 -43t149 -9v-88h-548v88q118 0 149 9t31 43
v428h-658v-428q0 -34 31 -43t149 -9zM448 660h658v228h-658v-228z" />
    <glyph glyph-name="hbar" unicode="&#x127;" horiz-adv-x="1140" 
d="M500 86v-86h-432v86q89 0 109.5 6t20.5 32v968h-160v96h160v80q0 30 -8.5 40.5t-37.5 23.5l-92 42v44l282 82h28v-312h276v-96h-276v-310q53 68 143 123t183 55t155.5 -47.5t88.5 -120t26 -166.5v-502q0 -26 20.5 -32t109.5 -6v-86h-432v86q89 0 109.5 6t20.5 32v486
q0 220 -182 220q-67 0 -131 -34t-111 -84v-588q0 -26 20.5 -32t109.5 -6z" />
    <glyph glyph-name="Itilde" unicode="&#x128;" horiz-adv-x="668" 
d="M204 1766q39 0 82.5 -25.5t75 -55.5t69.5 -55.5t67 -25.5q42 0 75.5 38.5t80.5 121.5l64 -36q-65 -147 -122.5 -206.5t-129.5 -59.5q-39 0 -82 25.5t-74 55.5t-68 55.5t-66 25.5q-43 0 -79 -40t-81 -120l-64 38q65 146 122.5 205t129.5 59zM608 88v-88h-548v88
q118 0 149 9t31 43v1040q0 34 -31 43t-149 9v88h548v-88q-118 0 -149 -9t-31 -43v-1040q0 -34 31 -43t149 -9z" />
    <glyph glyph-name="itilde" unicode="&#x129;" horiz-adv-x="556" 
d="M176 1380q30 0 65.5 -22t62 -48t54.5 -48t46 -22q21 0 40.5 19.5t31 40t36.5 72.5q2 4 3.5 6.5t2.5 5.5l62 -36q-52 -138 -95.5 -191t-102.5 -53q-30 0 -65.5 22t-61.5 48t-55 48t-48 22q-15 0 -27.5 -7.5t-27.5 -30.5t-23 -37.5t-28 -56.5q-1 -2 -2 -3.5t-2 -4t-2 -4.5
l-66 36q53 138 98 191t104 53zM208 728q0 30 -8.5 40.5t-37.5 23.5l-92 42v44l282 82h28v-836q0 -26 20.5 -32t109.5 -6v-86h-432v86q89 0 109.5 6t20.5 32v604z" />
    <glyph glyph-name="Imacron" unicode="&#x12a;" horiz-adv-x="668" 
d="M20 1492v120h628v-120h-628zM608 88v-88h-548v88q118 0 149 9t31 43v1040q0 34 -31 43t-149 9v88h548v-88q-118 0 -149 -9t-31 -43v-1040q0 -34 31 -43t149 -9z" />
    <glyph glyph-name="imacron" unicode="&#x12b;" horiz-adv-x="556" 
d="M32 1172v116h488v-116h-488zM208 728q0 30 -8.5 40.5t-37.5 23.5l-92 42v44l282 82h28v-836q0 -26 20.5 -32t109.5 -6v-86h-432v86q89 0 109.5 6t20.5 32v604z" />
    <glyph glyph-name="Ibreve" unicode="&#x12c;" horiz-adv-x="668" 
d="M334 1570q96 0 157.5 63.5t84.5 182.5l84 -20q-20 -171 -111 -267.5t-215 -96.5t-215 96.5t-111 267.5l84 20q23 -119 84.5 -182.5t157.5 -63.5zM608 88v-88h-548v88q118 0 149 9t31 43v1040q0 34 -31 43t-149 9v88h548v-88q-118 0 -149 -9t-31 -43v-1040q0 -34 31 -43
t149 -9z" />
    <glyph glyph-name="ibreve" unicode="&#x12d;" horiz-adv-x="556" 
d="M286 1222q162 0 192 240l84 -20q-14 -176 -85 -270t-191 -94t-191 94t-85 270l84 20q30 -240 192 -240zM208 728q0 30 -8.5 40.5t-37.5 23.5l-92 42v44l282 82h28v-836q0 -26 20.5 -32t109.5 -6v-86h-432v86q89 0 109.5 6t20.5 32v604z" />
    <glyph glyph-name="Iogonek" unicode="&#x12e;" horiz-adv-x="668" 
d="M584 -290q-48 -64 -118.5 -109t-147.5 -45q-78 0 -127 44.5t-49 119.5q0 157 250 280h-332v88q118 0 149 9t31 43v1040q0 34 -31 43t-149 9v88h548v-88q-118 0 -149 -9t-31 -43v-1040q0 -34 31 -43t149 -9v-88h-88q-103 -45 -175.5 -109.5t-72.5 -130.5q0 -44 25.5 -70
t72.5 -26q45 0 86.5 23.5t93.5 72.5z" />
    <glyph glyph-name="iogonek" unicode="&#x12f;" horiz-adv-x="556" 
d="M164 1294q0 52 37 89t89 37t89 -37t37 -89t-37 -89t-89 -37t-89 37t-37 89zM500 -290q-48 -64 -118.5 -109t-147.5 -45q-78 0 -127 44.5t-49 119.5q0 157 250 280h-230v86q89 0 109.5 6t20.5 32v604q0 30 -8.5 40.5t-37.5 23.5l-92 42v44l282 82h28v-836q0 -26 20.5 -32
t109.5 -6v-86h-74q-103 -45 -175.5 -109.5t-72.5 -130.5q0 -44 25.5 -70t72.5 -26q45 0 86.5 23.5t93.5 72.5z" />
    <glyph glyph-name="Idotaccent" unicode="&#x130;" horiz-adv-x="668" 
d="M208 1598q0 52 37 89t89 37t89 -37t37 -89t-37 -89t-89 -37t-89 37t-37 89zM608 88v-88h-548v88q118 0 149 9t31 43v1040q0 34 -31 43t-149 9v88h548v-88q-118 0 -149 -9t-31 -43v-1040q0 -34 31 -43t149 -9z" />
    <glyph glyph-name="dotlessi" unicode="&#x131;" horiz-adv-x="556" 
d="M208 728q0 30 -8.5 40.5t-37.5 23.5l-92 42v44l282 82h28v-836q0 -26 20.5 -32t109.5 -6v-86h-432v86q89 0 109.5 6t20.5 32v604z" />
    <glyph glyph-name="Jcircumflex" unicode="&#x134;" horiz-adv-x="668" 
d="M404 1768l274 -296l-46 -40l-296 200l-296 -200l-46 40l274 296q30 32 68 32t68 -32zM428 1180v-1104q0 -117 -36.5 -216.5t-98.5 -165t-142.5 -102t-168.5 -36.5q-80 0 -132 37t-52 95q0 45 30 70.5t70 25.5q25 0 50.5 -16.5t44 -36.5t44.5 -36.5t53 -16.5
q150 0 150 304v1198q0 34 -31 43t-149 9v88h548v-88q-118 0 -149 -9t-31 -43z" />
    <glyph glyph-name="jcircumflex" unicode="&#x135;" horiz-adv-x="516" 
d="M334 1454l214 -336l-46 -40l-236 248l-236 -248l-46 40l214 336q24 38 68 38t68 -38zM188 728q0 30 -8.5 40.5t-37.5 23.5l-92 42v44l282 82h28v-946q0 -197 -107.5 -327.5t-256.5 -130.5q-66 0 -110 31t-44 81q0 41 25.5 63.5t56.5 22.5t59.5 -20.5t53 -41t47.5 -20.5
q104 0 104 238v818z" />
    <glyph glyph-name="uni0136" unicode="&#x136;" horiz-adv-x="1374" 
d="M608 88v-88h-548v88q118 0 149 9t31 43v1040q0 34 -31 43t-149 9v88h548v-88q-118 0 -149 -9t-31 -43v-562l526 536q20 23 20 40q0 23 -33 30.5t-137 7.5v88h520v-88q-102 0 -141.5 -12.5t-74.5 -47.5l-416 -406l500 -612q25 -30 66.5 -45.5t149.5 -20.5v-88h-570v88
q76 0 109 8.5t33 29.5q0 17 -22 42l-386 478l-144 -140v-366q0 -34 31 -43t149 -9zM706 -332q0 19 -19.5 29.5t-42.5 15t-42.5 24t-19.5 53.5q0 48 34.5 77t83.5 29q60 0 98 -42t38 -106q0 -96 -75 -163.5t-207 -76.5l-20 72q95 10 133.5 32t38.5 56z" />
    <glyph glyph-name="uni0137" unicode="&#x137;" horiz-adv-x="1146" 
d="M500 86v-86h-432v86q89 0 109.5 6t20.5 32v1144q0 30 -8.5 40.5t-37.5 23.5l-92 42v44l282 82h28v-1074l380 364q20 20 20 32t-10 18.5t-43.5 10t-100.5 3.5v86h464v-86q-79 0 -113 -7t-61 -31l-268 -248l322 -430q22 -31 59.5 -41.5t126.5 -10.5v-86h-488v86q68 0 91 6
t23 24q0 9 -18 36l-230 310l-154 -142v-196q0 -26 20.5 -32t109.5 -6zM546 -332q0 19 -19.5 29.5t-42.5 15t-42.5 24t-19.5 53.5q0 48 34.5 77t83.5 29q60 0 98 -42t38 -106q0 -96 -75 -163.5t-207 -76.5l-20 72q95 10 133.5 32t38.5 56z" />
    <glyph glyph-name="kgreenlandic" unicode="&#x138;" horiz-adv-x="1156" 
d="M510 86v-86h-432v86q89 0 109.5 6t20.5 32v604q0 30 -8.5 40.5t-37.5 23.5l-92 42v44l282 82h28v-534l380 364q20 20 20 32t-10 18.5t-43.5 10t-100.5 3.5v86h464v-86q-79 0 -113 -7t-61 -31l-268 -248l322 -430q22 -31 59.5 -41.5t126.5 -10.5v-86h-488v86q68 0 91 6
t23 24q0 9 -18 36l-230 310l-154 -142v-196q0 -26 20.5 -32t109.5 -6z" />
    <glyph glyph-name="Lacute" unicode="&#x139;" horiz-adv-x="1206" 
d="M284 1482l280 266q47 44 94 44q39 0 63.5 -23t24.5 -59q0 -64 -72 -100l-358 -178zM1144 446l-42 -446h-1042v88q118 0 149 9t31 43v1040q0 34 -31 43t-149 9v88h548v-88q-118 0 -149 -9t-31 -43v-1088h230q80 0 131.5 7.5t98.5 28t77 60.5t55 102t44 156h80z" />
    <glyph glyph-name="lacute" unicode="&#x13a;" horiz-adv-x="556" 
d="M94 1622l280 266q47 44 94 44q39 0 63.5 -23t24.5 -59q0 -64 -72 -100l-358 -178zM198 1268q0 30 -8.5 40.5t-37.5 23.5l-92 42v44l282 82h28v-1376q0 -26 20.5 -32t109.5 -6v-86h-432v86q89 0 109.5 6t20.5 32v1144z" />
    <glyph glyph-name="uni013B" unicode="&#x13b;" horiz-adv-x="1206" 
d="M1144 446l-42 -446h-1042v88q118 0 149 9t31 43v1040q0 34 -31 43t-149 9v88h548v-88q-118 0 -149 -9t-31 -43v-1088h230q80 0 131.5 7.5t98.5 28t77 60.5t55 102t44 156h80zM640 -332q0 19 -19.5 29.5t-42.5 15t-42.5 24t-19.5 53.5q0 48 34.5 77t83.5 29q60 0 98 -42
t38 -106q0 -96 -75 -163.5t-207 -76.5l-20 72q95 10 133.5 32t38.5 56z" />
    <glyph glyph-name="uni013C" unicode="&#x13c;" horiz-adv-x="556" 
d="M198 1268q0 30 -8.5 40.5t-37.5 23.5l-92 42v44l282 82h28v-1376q0 -26 20.5 -32t109.5 -6v-86h-432v86q89 0 109.5 6t20.5 32v1144zM270 -332q0 19 -19.5 29.5t-42.5 15t-42.5 24t-19.5 53.5q0 48 34.5 77t83.5 29q60 0 98 -42t38 -106q0 -96 -75 -163.5t-207 -76.5
l-20 72q95 10 133.5 32t38.5 56z" />
    <glyph glyph-name="Lcaron" unicode="&#x13d;" horiz-adv-x="1206" 
d="M820 1228q8 56 37 84t65 28q35 0 56.5 -22t21.5 -62q0 -28 -20 -68l-160 -334l-54 14zM1144 446l-42 -446h-1042v88q118 0 149 9t31 43v1040q0 34 -31 43t-149 9v88h548v-88q-118 0 -149 -9t-31 -43v-1088h230q80 0 131.5 7.5t98.5 28t77 60.5t55 102t44 156h80z" />
    <glyph glyph-name="lcaron" unicode="&#x13e;" horiz-adv-x="814" 
d="M198 1268q0 30 -8.5 40.5t-37.5 23.5l-92 42v44l282 82h28v-1376q0 -26 20.5 -32t109.5 -6v-86h-432v86q89 0 109.5 6t20.5 32v1144zM594 1388q8 56 37 84t65 28q35 0 56.5 -22t21.5 -62q0 -28 -20 -68l-160 -334l-54 14z" />
    <glyph glyph-name="Ldot" unicode="&#x13f;" horiz-adv-x="1206" 
d="M1144 446l-42 -446h-1042v88q118 0 149 9t31 43v1040q0 34 -31 43t-149 9v88h548v-88q-118 0 -149 -9t-31 -43v-1088h230q80 0 131.5 7.5t98.5 28t77 60.5t55 102t44 156h80zM760 778q0 52 37 89t89 37t89 -37t37 -89t-37 -89t-89 -37t-89 37t-37 89z" />
    <glyph glyph-name="ldot" unicode="&#x140;" horiz-adv-x="858" 
d="M198 1268q0 30 -8.5 40.5t-37.5 23.5l-92 42v44l282 82h28v-1376q0 -26 20.5 -32t109.5 -6v-86h-432v86q89 0 109.5 6t20.5 32v1144zM570 674q0 52 37 89t89 37t89 -37t37 -89t-37 -89t-89 -37t-89 37t-37 89z" />
    <glyph glyph-name="Lslash" unicode="&#x141;" horiz-adv-x="1226" 
d="M1164 446l-42 -446h-1042v88q118 0 149 9t31 43v372l-180 -96v104l180 96v564q0 34 -31 43t-149 9v88h548v-88q-118 0 -149 -9t-31 -43v-466l314 166v-104l-314 -166v-518h230q80 0 131.5 7.5t98.5 28t77 60.5t55 102t44 156h80z" />
    <glyph glyph-name="lslash" unicode="&#x142;" horiz-adv-x="676" 
d="M560 86v-86h-432v86q89 0 109.5 6t20.5 32v480l-200 -130v114l200 130v550q0 30 -8.5 40.5t-37.5 23.5l-92 42v44l282 82h28v-670l200 130v-114l-200 -130v-592q0 -26 20.5 -32t109.5 -6z" />
    <glyph glyph-name="Nacute" unicode="&#x143;" horiz-adv-x="1428" 
d="M590 1482l280 266q47 44 94 44q39 0 63.5 -23t24.5 -59q0 -64 -72 -100l-358 -178zM1100 1180q0 34 -31 43t-149 9v88h476v-88q-118 0 -149 -9t-31 -43v-1196h-98l-754 1170h-8v-1014q0 -34 31 -43t149 -9v-88h-476v88q118 0 149 9t31 43v1038q0 36 -31 45t-149 7v90h412
l620 -986h8v846z" />
    <glyph glyph-name="nacute" unicode="&#x144;" horiz-adv-x="1150" 
d="M482 1114l196 300q43 66 98 66q38 0 60 -21.5t22 -58.5q0 -45 -52 -88l-282 -234zM510 86v-86h-432v86q89 0 109.5 6t20.5 32v604q0 30 -8.5 40.5t-37.5 23.5l-92 42v44l282 82h28v-178q53 68 143 123t183 55t155.5 -47.5t88.5 -120t26 -166.5v-502q0 -26 20.5 -32
t109.5 -6v-86h-432v86q89 0 109.5 6t20.5 32v486q0 220 -182 220q-67 0 -131 -34t-111 -84v-588q0 -26 20.5 -32t109.5 -6z" />
    <glyph glyph-name="uni0145" unicode="&#x145;" horiz-adv-x="1428" 
d="M1100 1180q0 34 -31 43t-149 9v88h476v-88q-118 0 -149 -9t-31 -43v-1196h-98l-754 1170h-8v-1014q0 -34 31 -43t149 -9v-88h-476v88q118 0 149 9t31 43v1038q0 36 -31 45t-149 7v90h412l620 -986h8v846zM786 -332q0 19 -19.5 29.5t-42.5 15t-42.5 24t-19.5 53.5
q0 48 34.5 77t83.5 29q60 0 98 -42t38 -106q0 -96 -75 -163.5t-207 -76.5l-20 72q95 10 133.5 32t38.5 56z" />
    <glyph glyph-name="uni0146" unicode="&#x146;" horiz-adv-x="1150" 
d="M510 86v-86h-432v86q89 0 109.5 6t20.5 32v604q0 30 -8.5 40.5t-37.5 23.5l-92 42v44l282 82h28v-178q53 68 143 123t183 55t155.5 -47.5t88.5 -120t26 -166.5v-502q0 -26 20.5 -32t109.5 -6v-86h-432v86q89 0 109.5 6t20.5 32v486q0 220 -182 220q-67 0 -131 -34
t-111 -84v-588q0 -26 20.5 -32t109.5 -6zM586 -332q0 19 -19.5 29.5t-42.5 15t-42.5 24t-19.5 53.5q0 48 34.5 77t83.5 29q60 0 98 -42t38 -106q0 -96 -75 -163.5t-207 -76.5l-20 72q95 10 133.5 32t38.5 56z" />
    <glyph glyph-name="Ncaron" unicode="&#x147;" horiz-adv-x="1428" 
d="M1068 1752l-274 -296q-30 -32 -68 -32t-68 32l-274 296l46 40l296 -200l296 200zM1100 1180q0 34 -31 43t-149 9v88h476v-88q-118 0 -149 -9t-31 -43v-1196h-98l-754 1170h-8v-1014q0 -34 31 -43t149 -9v-88h-476v88q118 0 149 9t31 43v1038q0 36 -31 45t-149 7v90h412
l620 -986h8v846z" />
    <glyph glyph-name="ncaron" unicode="&#x148;" horiz-adv-x="1150" 
d="M880 1450l-234 -336q-26 -36 -68 -36t-68 36l-234 336l46 40l256 -248l256 248zM510 86v-86h-432v86q89 0 109.5 6t20.5 32v604q0 30 -8.5 40.5t-37.5 23.5l-92 42v44l282 82h28v-178q53 68 143 123t183 55t155.5 -47.5t88.5 -120t26 -166.5v-502q0 -26 20.5 -32
t109.5 -6v-86h-432v86q89 0 109.5 6t20.5 32v486q0 220 -182 220q-67 0 -131 -34t-111 -84v-588q0 -26 20.5 -32t109.5 -6z" />
    <glyph glyph-name="Eng" unicode="&#x14a;" horiz-adv-x="1428" 
d="M1100 -90v102l-736 1142h-8v-1014q0 -34 31 -43t149 -9v-88h-476v88q118 0 149 9t31 43v1038q0 36 -31 45t-149 7v90h412l620 -986h8v846q0 34 -31 43t-149 9v88h476v-88q-118 0 -149 -9t-31 -43v-1226q0 -196 -82 -297t-226 -101q-66 0 -110 31t-44 81q0 41 25.5 63.5
t56.5 22.5t59.5 -20.5t53 -41t47.5 -20.5q104 0 104 238z" />
    <glyph glyph-name="eng" unicode="&#x14b;" horiz-adv-x="1132" 
d="M976 14q0 -197 -107.5 -327.5t-256.5 -130.5q-66 0 -110 31t-44 81q0 41 25.5 63.5t56.5 22.5t59.5 -20.5t53 -41t47.5 -20.5q104 0 104 238v700q0 220 -182 220q-67 0 -131 -34t-111 -84v-588q0 -26 20.5 -32t109.5 -6v-86h-432v86q89 0 109.5 6t20.5 32v604
q0 30 -8.5 40.5t-37.5 23.5l-92 42v44l282 82h28v-178q53 68 143 123t183 55t155.5 -47.5t88.5 -120t26 -166.5v-612z" />
    <glyph glyph-name="Omacron" unicode="&#x14c;" horiz-adv-x="1372" 
d="M372 1492v120h628v-120h-628zM1288 660q0 -152 -49.5 -281.5t-132.5 -216t-192 -134.5t-228 -48t-228 48t-192 134.5t-132.5 216t-49.5 281.5t49.5 281.5t132.5 216t192 134.5t228 48t228 -48t192 -134.5t132.5 -216t49.5 -281.5zM1084 660q0 265 -111 418.5t-287 153.5
t-287 -153.5t-111 -418.5t111 -418.5t287 -153.5t287 153.5t111 418.5z" />
    <glyph glyph-name="omacron" unicode="&#x14d;" horiz-adv-x="1036" 
d="M244 1172v116h548v-116h-548zM82 470q0 217 126.5 353.5t309.5 136.5t309.5 -136.5t126.5 -353.5t-126.5 -353.5t-309.5 -136.5t-309.5 136.5t-126.5 353.5zM770 470q0 184 -65 287t-187 103t-187 -103t-65 -287t65 -287t187 -103t187 103t65 287z" />
    <glyph glyph-name="Obreve" unicode="&#x14e;" horiz-adv-x="1372" 
d="M686 1570q96 0 157.5 63.5t84.5 182.5l84 -20q-20 -171 -111 -267.5t-215 -96.5t-215 96.5t-111 267.5l84 20q23 -119 84.5 -182.5t157.5 -63.5zM1288 660q0 -152 -49.5 -281.5t-132.5 -216t-192 -134.5t-228 -48t-228 48t-192 134.5t-132.5 216t-49.5 281.5t49.5 281.5
t132.5 216t192 134.5t228 48t228 -48t192 -134.5t132.5 -216t49.5 -281.5zM1084 660q0 265 -111 418.5t-287 153.5t-287 -153.5t-111 -418.5t111 -418.5t287 -153.5t287 153.5t111 418.5z" />
    <glyph glyph-name="obreve" unicode="&#x14f;" horiz-adv-x="1036" 
d="M520 1222q83 0 141.5 61.5t80.5 178.5l84 -20q-21 -173 -102.5 -268.5t-203.5 -95.5t-203.5 95.5t-102.5 268.5l84 20q22 -117 80.5 -178.5t141.5 -61.5zM82 470q0 217 126.5 353.5t309.5 136.5t309.5 -136.5t126.5 -353.5t-126.5 -353.5t-309.5 -136.5t-309.5 136.5
t-126.5 353.5zM770 470q0 184 -65 287t-187 103t-187 -103t-65 -287t65 -287t187 -103t187 103t65 287z" />
    <glyph glyph-name="Ohungarumlaut" unicode="&#x150;" horiz-adv-x="1372" 
d="M630 1730q44 66 100 66q33 0 55.5 -22t22.5 -54q0 -53 -58 -94l-264 -194l-38 32zM992 1730q44 66 100 66q33 0 55.5 -22t22.5 -54q0 -53 -58 -94l-264 -194l-38 32zM1288 660q0 -152 -49.5 -281.5t-132.5 -216t-192 -134.5t-228 -48t-228 48t-192 134.5t-132.5 216
t-49.5 281.5t49.5 281.5t132.5 216t192 134.5t228 48t228 -48t192 -134.5t132.5 -216t49.5 -281.5zM1084 660q0 265 -111 418.5t-287 153.5t-287 -153.5t-111 -418.5t111 -418.5t287 -153.5t287 153.5t111 418.5z" />
    <glyph glyph-name="ohungarumlaut" unicode="&#x151;" horiz-adv-x="1036" 
d="M416 1386q31 94 102 94q34 0 56 -21t22 -57q0 -40 -34 -82l-194 -242l-50 22zM738 1386q31 94 102 94q34 0 56 -21t22 -57q0 -40 -34 -82l-194 -242l-50 22zM82 470q0 217 126.5 353.5t309.5 136.5t309.5 -136.5t126.5 -353.5t-126.5 -353.5t-309.5 -136.5t-309.5 136.5
t-126.5 353.5zM770 470q0 184 -65 287t-187 103t-187 -103t-65 -287t65 -287t187 -103t187 103t65 287z" />
    <glyph glyph-name="OE" unicode="&#x152;" horiz-adv-x="1970" 
d="M824 0q-219 0 -386.5 78.5t-260.5 225.5t-93 342q0 196 92.5 349.5t261.5 239t386 85.5h986l18 -402h-76q-47 167 -70 212q-34 66 -96 85q-42 13 -116 13h-318v-508h128q49 0 75 1t51 10t35 18.5t20.5 37t14.5 55t10 82.5h80v-500h-72q-7 54 -11.5 83t-16 55.5t-22 37
t-36.5 18.5t-52 9t-76 1h-128v-536h270q80 0 131.5 7.5t98.5 28t77 60.5t55 102t44 156h80l-42 -446h-1042zM964 1228h-130q-258 0 -401 -159.5t-143 -422.5q0 -260 141.5 -407t402.5 -147h130v1136z" />
    <glyph glyph-name="oe" unicode="&#x153;" horiz-adv-x="1638" 
d="M1558 192q-50 -100 -148 -156t-212 -56q-103 0 -192.5 48.5t-149.5 143.5q-59 -95 -146.5 -143.5t-191.5 -48.5q-183 0 -309.5 136.5t-126.5 353.5t126.5 353.5t309.5 136.5q107 0 196 -50.5t148 -149.5q60 97 148 148.5t186 51.5q175 0 266.5 -112t91.5 -288v-64h-620
v-6q0 -185 87.5 -287.5t214.5 -102.5q78 0 134.5 33t113.5 111zM1188 862q-92 0 -160.5 -73t-87.5 -205h446q-3 278 -198 278zM770 470q0 184 -65 287t-187 103t-187 -103t-65 -287t65 -287t187 -103t187 103t65 287z" />
    <glyph glyph-name="Racute" unicode="&#x154;" horiz-adv-x="1374" 
d="M484 1482l280 266q47 44 94 44q39 0 63.5 -23t24.5 -59q0 -64 -72 -100l-358 -178zM608 88v-88h-548v88q118 0 149 9t31 43v1040q0 34 -31 43t-149 9v88h566q155 0 271 -37.5t184.5 -118.5t68.5 -198q0 -135 -95 -220.5t-253 -117.5l298 -434q42 -62 80 -79.5t124 -22.5
l66 -4v-88h-372l-328 550q-21 36 -46.5 49t-63.5 13h-132v-472q0 -34 31 -43t149 -9zM428 704h186q77 0 136 13t106 42.5t71.5 81.5t24.5 125t-24.5 125t-71.5 81.5t-106 42.5t-136 13h-186v-524z" />
    <glyph glyph-name="racute" unicode="&#x155;" horiz-adv-x="830" 
d="M364 1114l196 300q43 66 98 66q38 0 60 -21.5t22 -58.5q0 -45 -52 -88l-282 -234zM570 86v-86h-492v86q89 0 109.5 6t20.5 32v604q0 30 -8.5 40.5t-37.5 23.5l-92 42v44l282 82h28v-266q25 43 56.5 85.5t71.5 85t85 69t85 26.5q62 0 97 -35.5t35 -84.5q0 -51 -30.5 -79.5
t-77.5 -28.5q-29 0 -66.5 29t-59.5 29q-38 -3 -93 -58.5t-103 -125.5v-478q0 -29 28.5 -35.5t161.5 -6.5z" />
    <glyph glyph-name="uni0156" unicode="&#x156;" horiz-adv-x="1374" 
d="M608 88v-88h-548v88q118 0 149 9t31 43v1040q0 34 -31 43t-149 9v88h566q155 0 271 -37.5t184.5 -118.5t68.5 -198q0 -135 -95 -220.5t-253 -117.5l298 -434q42 -62 80 -79.5t124 -22.5l66 -4v-88h-372l-328 550q-21 36 -46.5 49t-63.5 13h-132v-472q0 -34 31 -43t149 -9
zM428 704h186q77 0 136 13t106 42.5t71.5 81.5t24.5 125t-24.5 125t-71.5 81.5t-106 42.5t-136 13h-186v-524zM760 -332q0 19 -19.5 29.5t-42.5 15t-42.5 24t-19.5 53.5q0 48 34.5 77t83.5 29q60 0 98 -42t38 -106q0 -96 -75 -163.5t-207 -76.5l-20 72q95 10 133.5 32
t38.5 56z" />
    <glyph glyph-name="uni0157" unicode="&#x157;" horiz-adv-x="830" 
d="M570 86v-86h-492v86q89 0 109.5 6t20.5 32v604q0 30 -8.5 40.5t-37.5 23.5l-92 42v44l282 82h28v-266q25 43 56.5 85.5t71.5 85t85 69t85 26.5q62 0 97 -35.5t35 -84.5q0 -51 -30.5 -79.5t-77.5 -28.5q-29 0 -66.5 29t-59.5 29q-38 -3 -93 -58.5t-103 -125.5v-478
q0 -29 28.5 -35.5t161.5 -6.5zM306 -332q0 19 -19.5 29.5t-42.5 15t-42.5 24t-19.5 53.5q0 48 34.5 77t83.5 29q60 0 98 -42t38 -106q0 -96 -75 -163.5t-207 -76.5l-20 72q95 10 133.5 32t38.5 56z" />
    <glyph glyph-name="Rcaron" unicode="&#x158;" horiz-adv-x="1374" 
d="M954 1752l-274 -296q-30 -32 -68 -32t-68 32l-274 296l46 40l296 -200l296 200zM608 88v-88h-548v88q118 0 149 9t31 43v1040q0 34 -31 43t-149 9v88h566q155 0 271 -37.5t184.5 -118.5t68.5 -198q0 -135 -95 -220.5t-253 -117.5l298 -434q42 -62 80 -79.5t124 -22.5
l66 -4v-88h-372l-328 550q-21 36 -46.5 49t-63.5 13h-132v-472q0 -34 31 -43t149 -9zM428 704h186q77 0 136 13t106 42.5t71.5 81.5t24.5 125t-24.5 125t-71.5 81.5t-106 42.5t-136 13h-186v-524z" />
    <glyph glyph-name="rcaron" unicode="&#x159;" horiz-adv-x="830" 
d="M800 1450l-234 -336q-26 -36 -68.5 -36t-67.5 36l-234 336l46 40l256 -248l256 248zM570 86v-86h-492v86q89 0 109.5 6t20.5 32v604q0 30 -8.5 40.5t-37.5 23.5l-92 42v44l282 82h28v-266q25 43 56.5 85.5t71.5 85t85 69t85 26.5q62 0 97 -35.5t35 -84.5
q0 -51 -30.5 -79.5t-77.5 -28.5q-29 0 -66.5 29t-59.5 29q-38 -3 -93 -58.5t-103 -125.5v-478q0 -29 28.5 -35.5t161.5 -6.5z" />
    <glyph glyph-name="Sacute" unicode="&#x15a;" horiz-adv-x="1146" 
d="M430 1482l280 266q47 44 94 44q39 0 63.5 -23t24.5 -59q0 -64 -72 -100l-358 -178zM964 1328l20 -422h-66q-61 155 -164 240.5t-222 85.5q-95 0 -157.5 -58.5t-62.5 -145.5q0 -55 25.5 -98.5t68.5 -72.5t98.5 -52.5t117 -44t123 -42.5t117 -52t98.5 -69t68.5 -97
t25.5 -132q0 -169 -128 -278.5t-324 -109.5q-94 0 -182.5 34.5t-149.5 87.5l-66 -110h-72l-44 454h72q46 -117 122.5 -200t157.5 -120.5t160 -37.5q55 0 103.5 13.5t89.5 40t65 72t24 104.5q0 67 -40.5 116t-105 79.5t-142.5 57.5t-156 59t-142.5 73.5t-105 112t-40.5 164.5
q0 156 109 258t273 102q165 0 294 -112l66 100h72z" />
    <glyph glyph-name="sacute" unicode="&#x15b;" horiz-adv-x="858" 
d="M326 1114l196 300q43 66 98 66q38 0 60 -21.5t22 -58.5q0 -45 -52 -88l-282 -234zM438 864q-78 0 -128 -40t-50 -108q0 -43 29 -73.5t75 -48.5t101.5 -34.5t111 -37t101.5 -49t75 -78.5t29 -117q0 -134 -109 -216t-263 -82q-159 0 -312 88l-20 246h78q26 -128 93.5 -183
t176.5 -55q83 0 141.5 41.5t58.5 114.5q0 47 -28 79.5t-73 51.5t-99.5 34.5t-109 35t-99.5 46t-73 74t-28 113.5q0 126 97 210t241 84q138 0 270 -74v-238h-70q-18 107 -67.5 161.5t-148.5 54.5z" />
    <glyph glyph-name="Scircumflex" unicode="&#x15c;" horiz-adv-x="1146" 
d="M646 1768l274 -296l-46 -40l-296 200l-296 -200l-46 40l274 296q30 32 68 32t68 -32zM964 1328l20 -422h-66q-61 155 -164 240.5t-222 85.5q-95 0 -157.5 -58.5t-62.5 -145.5q0 -55 25.5 -98.5t68.5 -72.5t98.5 -52.5t117 -44t123 -42.5t117 -52t98.5 -69t68.5 -97
t25.5 -132q0 -169 -128 -278.5t-324 -109.5q-94 0 -182.5 34.5t-149.5 87.5l-66 -110h-72l-44 454h72q46 -117 122.5 -200t157.5 -120.5t160 -37.5q55 0 103.5 13.5t89.5 40t65 72t24 104.5q0 67 -40.5 116t-105 79.5t-142.5 57.5t-156 59t-142.5 73.5t-105 112t-40.5 164.5
q0 156 109 258t273 102q165 0 294 -112l66 100h72z" />
    <glyph glyph-name="scircumflex" unicode="&#x15d;" horiz-adv-x="858" 
d="M510 1454l234 -336l-46 -40l-256 248l-256 -248l-46 40l234 336q26 36 68 36t68 -36zM438 864q-78 0 -128 -40t-50 -108q0 -43 29 -73.5t75 -48.5t101.5 -34.5t111 -37t101.5 -49t75 -78.5t29 -117q0 -134 -109 -216t-263 -82q-159 0 -312 88l-20 246h78
q26 -128 93.5 -183t176.5 -55q83 0 141.5 41.5t58.5 114.5q0 47 -28 79.5t-73 51.5t-99.5 34.5t-109 35t-99.5 46t-73 74t-28 113.5q0 126 97 210t241 84q138 0 270 -74v-238h-70q-18 107 -67.5 161.5t-148.5 54.5z" />
    <glyph glyph-name="uni015E" unicode="&#x15e;" horiz-adv-x="1146" 
d="M726 -252q0 -112 -108 -168t-264 -24l10 74q106 -24 168 0.5t62 77.5q0 51 -46 74.5t-138 31.5l74 180q-126 30 -214 108l-66 -110h-72l-44 454h72q46 -117 122.5 -200t157.5 -120.5t160 -37.5q55 0 103.5 13.5t89.5 40t65 72t24 104.5q0 67 -40.5 116t-105 79.5
t-142.5 57.5t-156 59t-142.5 73.5t-105 112t-40.5 164.5q0 156 109 258t273 102q165 0 294 -112l66 100h72l20 -422h-66q-61 155 -164 240.5t-222 85.5q-95 0 -157.5 -58.5t-62.5 -145.5q0 -55 25.5 -98.5t68.5 -72.5t98.5 -52.5t117 -44t123 -42.5t117 -52t98.5 -69
t68.5 -97t25.5 -132q0 -169 -128 -278.5t-324 -109.5q-34 0 -50 2l-30 -72q91 -11 147.5 -52.5t56.5 -109.5z" />
    <glyph glyph-name="uni015F" unicode="&#x15f;" horiz-adv-x="858" 
d="M592 -252q0 -112 -108 -168t-264 -24l10 74q106 -24 168 0.5t62 77.5q0 51 -46 74.5t-138 31.5l70 170q-125 13 -248 84l-20 246h78q26 -128 93.5 -183t176.5 -55q83 0 141.5 41.5t58.5 114.5q0 47 -28 79.5t-73 51.5t-99.5 34.5t-109 35t-99.5 46t-73 74t-28 113.5
q0 126 97 210t241 84q138 0 270 -74v-238h-70q-18 107 -67.5 161.5t-148.5 54.5q-78 0 -128 -40t-50 -108q0 -43 29 -73.5t75 -48.5t101.5 -34.5t111 -37t101.5 -49t75 -78.5t29 -117q0 -133 -107.5 -215.5t-256.5 -82.5l-30 -70q91 -11 147.5 -52.5t56.5 -109.5z" />
    <glyph glyph-name="Scaron" unicode="&#x160;" horiz-adv-x="1146" 
d="M920 1752l-274 -296q-30 -32 -68 -32t-68 32l-274 296l46 40l296 -200l296 200zM964 1328l20 -422h-66q-61 155 -164 240.5t-222 85.5q-95 0 -157.5 -58.5t-62.5 -145.5q0 -55 25.5 -98.5t68.5 -72.5t98.5 -52.5t117 -44t123 -42.5t117 -52t98.5 -69t68.5 -97t25.5 -132
q0 -169 -128 -278.5t-324 -109.5q-94 0 -182.5 34.5t-149.5 87.5l-66 -110h-72l-44 454h72q46 -117 122.5 -200t157.5 -120.5t160 -37.5q55 0 103.5 13.5t89.5 40t65 72t24 104.5q0 67 -40.5 116t-105 79.5t-142.5 57.5t-156 59t-142.5 73.5t-105 112t-40.5 164.5
q0 156 109 258t273 102q165 0 294 -112l66 100h72z" />
    <glyph glyph-name="scaron" unicode="&#x161;" horiz-adv-x="858" 
d="M740 1450l-234 -336q-26 -36 -68 -36t-68 36l-234 336l46 40l256 -248l256 248zM438 864q-78 0 -128 -40t-50 -108q0 -43 29 -73.5t75 -48.5t101.5 -34.5t111 -37t101.5 -49t75 -78.5t29 -117q0 -134 -109 -216t-263 -82q-159 0 -312 88l-20 246h78q26 -128 93.5 -183
t176.5 -55q83 0 141.5 41.5t58.5 114.5q0 47 -28 79.5t-73 51.5t-99.5 34.5t-109 35t-99.5 46t-73 74t-28 113.5q0 126 97 210t241 84q138 0 270 -74v-238h-70q-18 107 -67.5 161.5t-148.5 54.5z" />
    <glyph glyph-name="Tcommaaccent" unicode="&#x162;" horiz-adv-x="1340" 
d="M866 -252q0 -112 -108 -168t-264 -24l10 74q106 -24 168 0.5t62 77.5q0 51 -46 74.5t-138 31.5l78 186h-266v88h34q118 0 149 9t31 43v1088h-170q-138 0 -181 -52t-98 -248q-2 -7 -3 -10h-76l18 402h1208l18 -402h-76q-47 167 -70 212q-34 66 -96 85q-42 13 -116 13h-170
v-1088q0 -34 31 -43t149 -9h34v-88h-278l-38 -90q91 -11 147.5 -52.5t56.5 -109.5z" />
    <glyph glyph-name="tcommaaccent" unicode="&#x163;" horiz-adv-x="748" 
d="M596 -252q0 -112 -108 -168t-264 -24l10 74q106 -24 168 0.5t62 77.5q0 51 -46 74.5t-138 31.5l74 176q-78 21 -125 79.5t-47 136.5v636h-128v98h128v240l172 50v-290h298v-98h-298v-588q0 -154 150 -154q94 0 184 100l52 -64q-56 -76 -137 -116t-169 -40h-12l-30 -70
q91 -11 147.5 -52.5t56.5 -109.5z" />
    <glyph glyph-name="Tcaron" unicode="&#x164;" horiz-adv-x="1340" 
d="M1012 1752l-274 -296q-30 -32 -68 -32t-68 32l-274 296l46 40l296 -200l296 200zM978 0h-616v88h34q118 0 149 9t31 43v1088h-170q-138 0 -181 -52t-98 -248q-2 -7 -3 -10h-76l18 402h1208l18 -402h-76q-47 167 -70 212q-34 66 -96 85q-42 13 -116 13h-170v-1088
q0 -34 31 -43t149 -9h34v-88z" />
    <glyph glyph-name="tcaron" unicode="&#x165;" horiz-adv-x="748" 
d="M536 1428q8 56 37 84t65 28q35 0 56.5 -22t21.5 -62q0 -28 -20 -68l-160 -334l-54 14zM740 136q-56 -76 -137 -116t-169 -40q-109 0 -180.5 64t-71.5 162v636h-128v98h128v240l172 50v-290h298v-98h-298v-588q0 -154 150 -154q94 0 184 100z" />
    <glyph glyph-name="Tbar" unicode="&#x166;" horiz-adv-x="1340" 
d="M978 88v-88h-616v88h34q118 0 149 9t31 43v488h-260v92h260v508h-170q-138 0 -181 -52t-98 -248q-2 -7 -3 -10h-76l18 402h1208l18 -402h-76q-47 167 -70 212q-34 66 -96 85q-42 13 -116 13h-170v-508h260v-92h-260v-488q0 -34 31 -43t149 -9h34z" />
    <glyph glyph-name="tbar" unicode="&#x167;" horiz-adv-x="788" 
d="M760 136q-56 -76 -137 -116t-169 -40q-109 0 -180.5 64t-71.5 162v286h-126v98h126v252h-128v98h128v240l172 50v-290h298v-98h-298v-252h296v-98h-296v-238q0 -154 150 -154q94 0 184 100z" />
    <glyph glyph-name="Utilde" unicode="&#x168;" horiz-adv-x="1484" 
d="M658 1766q39 0 82.5 -25.5t75 -55.5t69.5 -55.5t67 -25.5q42 0 75.5 38.5t80.5 121.5l64 -36q-65 -147 -122.5 -206.5t-129.5 -59.5q-39 0 -82 25.5t-74 55.5t-68 55.5t-66 25.5q-43 0 -79 -40t-81 -120l-64 38q65 146 122.5 205t129.5 59zM1138 1180q0 34 -31 43t-149 9
v88h476v-88q-118 0 -149 -9t-31 -43v-700q0 -230 -140 -365t-352 -135q-239 0 -385.5 132.5t-146.5 363.5v704q0 34 -31 43t-149 9v88h548v-88q-118 0 -149 -9t-31 -43v-678q0 -199 95 -299.5t265 -100.5q174 0 267 102.5t93 297.5v678z" />
    <glyph glyph-name="utilde" unicode="&#x169;" horiz-adv-x="1098" 
d="M434 1380q35 0 75 -22t69.5 -48t64.5 -48t61 -22q21 0 37.5 8.5t35.5 33.5t28.5 41t34.5 61l62 -36q-61 -138 -111 -191t-117 -53q-36 0 -76 22t-69.5 48t-64.5 48t-62 22q-20 0 -37 -9t-35 -32.5t-29.5 -42t-34.5 -60.5l-64 36q60 137 112.5 190.5t119.5 53.5zM1060 22
l-282 -42h-28v168q-53 -69 -132 -118.5t-168 -49.5q-130 0 -203 90t-73 244v454q0 32 -9 45t-37 19l-96 18v70l286 20h28v-614q0 -108 45.5 -164t130.5 -56q121 0 228 118v544q0 32 -9 45t-37 19l-96 18v70l286 20h28v-768q0 -30 8.5 -40.5t37.5 -23.5l92 -42v-44z" />
    <glyph glyph-name="Umacron" unicode="&#x16a;" horiz-adv-x="1484" 
d="M456 1492v120h628v-120h-628zM1138 1180q0 34 -31 43t-149 9v88h476v-88q-118 0 -149 -9t-31 -43v-700q0 -230 -140 -365t-352 -135q-239 0 -385.5 132.5t-146.5 363.5v704q0 34 -31 43t-149 9v88h548v-88q-118 0 -149 -9t-31 -43v-678q0 -199 95 -299.5t265 -100.5
q174 0 267 102.5t93 297.5v678z" />
    <glyph glyph-name="umacron" unicode="&#x16b;" horiz-adv-x="1098" 
d="M278 1172v116h548v-116h-548zM1060 22l-282 -42h-28v168q-53 -69 -132 -118.5t-168 -49.5q-130 0 -203 90t-73 244v454q0 32 -9 45t-37 19l-96 18v70l286 20h28v-614q0 -108 45.5 -164t130.5 -56q121 0 228 118v544q0 32 -9 45t-37 19l-96 18v70l286 20h28v-768
q0 -30 8.5 -40.5t37.5 -23.5l92 -42v-44z" />
    <glyph glyph-name="Ubreve" unicode="&#x16c;" horiz-adv-x="1484" 
d="M784 1570q96 0 157.5 63.5t84.5 182.5l84 -20q-20 -171 -111 -267.5t-215 -96.5t-215 96.5t-111 267.5l84 20q23 -119 84.5 -182.5t157.5 -63.5zM1138 1180q0 34 -31 43t-149 9v88h476v-88q-118 0 -149 -9t-31 -43v-700q0 -230 -140 -365t-352 -135q-239 0 -385.5 132.5
t-146.5 363.5v704q0 34 -31 43t-149 9v88h548v-88q-118 0 -149 -9t-31 -43v-678q0 -199 95 -299.5t265 -100.5q174 0 267 102.5t93 297.5v678z" />
    <glyph glyph-name="ubreve" unicode="&#x16d;" horiz-adv-x="1098" 
d="M532 1222q83 0 141.5 61.5t80.5 178.5l84 -20q-21 -173 -102.5 -268.5t-203.5 -95.5t-203.5 95.5t-102.5 268.5l84 20q22 -117 80.5 -178.5t141.5 -61.5zM1060 22l-282 -42h-28v168q-53 -69 -132 -118.5t-168 -49.5q-130 0 -203 90t-73 244v454q0 32 -9 45t-37 19l-96 18
v70l286 20h28v-614q0 -108 45.5 -164t130.5 -56q121 0 228 118v544q0 32 -9 45t-37 19l-96 18v70l286 20h28v-768q0 -30 8.5 -40.5t37.5 -23.5l92 -42v-44z" />
    <glyph glyph-name="Uring" unicode="&#x16e;" horiz-adv-x="1484" 
d="M776 1398q-93 0 -159.5 66.5t-66.5 159.5q0 94 66.5 161t159.5 67t159.5 -67t66.5 -161q0 -93 -66.5 -159.5t-159.5 -66.5zM776 1482q56 0 97 41.5t41 100.5q0 60 -41 101t-97 41t-97 -41t-41 -101q0 -59 41 -100.5t97 -41.5zM1138 1180q0 34 -31 43t-149 9v88h476v-88
q-118 0 -149 -9t-31 -43v-700q0 -230 -140 -365t-352 -135q-239 0 -385.5 132.5t-146.5 363.5v704q0 34 -31 43t-149 9v88h548v-88q-118 0 -149 -9t-31 -43v-678q0 -199 95 -299.5t265 -100.5q174 0 267 102.5t93 297.5v678z" />
    <glyph glyph-name="uring" unicode="&#x16f;" horiz-adv-x="1098" 
d="M552 1098q-84 0 -145 60.5t-61 145.5t61 145.5t145 60.5t145 -60.5t61 -145.5t-61 -145.5t-145 -60.5zM552 1182q49 0 83.5 35t34.5 87t-34.5 87t-83.5 35t-83.5 -35t-34.5 -87t34.5 -87t83.5 -35zM1060 22l-282 -42h-28v168q-53 -69 -132 -118.5t-168 -49.5
q-130 0 -203 90t-73 244v454q0 32 -9 45t-37 19l-96 18v70l286 20h28v-614q0 -108 45.5 -164t130.5 -56q121 0 228 118v544q0 32 -9 45t-37 19l-96 18v70l286 20h28v-768q0 -30 8.5 -40.5t37.5 -23.5l92 -42v-44z" />
    <glyph glyph-name="Uhungarumlaut" unicode="&#x170;" horiz-adv-x="1484" 
d="M752 1730q44 66 100 66q33 0 55.5 -22t22.5 -54q0 -53 -58 -94l-264 -194l-38 32zM1114 1730q44 66 100 66q33 0 55.5 -22t22.5 -54q0 -53 -58 -94l-264 -194l-38 32zM1138 1180q0 34 -31 43t-149 9v88h476v-88q-118 0 -149 -9t-31 -43v-700q0 -230 -140 -365t-352 -135
q-239 0 -385.5 132.5t-146.5 363.5v704q0 34 -31 43t-149 9v88h548v-88q-118 0 -149 -9t-31 -43v-678q0 -199 95 -299.5t265 -100.5q174 0 267 102.5t93 297.5v678z" />
    <glyph glyph-name="uhungarumlaut" unicode="&#x171;" horiz-adv-x="1098" 
d="M408 1386q31 94 102 94q34 0 56 -21t22 -57q0 -40 -34 -82l-194 -242l-50 22zM730 1386q31 94 102 94q34 0 56 -21t22 -57q0 -40 -34 -82l-194 -242l-50 22zM1060 22l-282 -42h-28v168q-53 -69 -132 -118.5t-168 -49.5q-130 0 -203 90t-73 244v454q0 32 -9 45t-37 19
l-96 18v70l286 20h28v-614q0 -108 45.5 -164t130.5 -56q121 0 228 118v544q0 32 -9 45t-37 19l-96 18v70l286 20h28v-768q0 -30 8.5 -40.5t37.5 -23.5l92 -42v-44z" />
    <glyph glyph-name="Uogonek" unicode="&#x172;" horiz-adv-x="1484" 
d="M976 -290q-48 -64 -118.5 -109t-147.5 -45q-78 0 -127 44.5t-49 119.5q0 143 212 260q-233 5 -374.5 137.5t-141.5 358.5v704q0 34 -31 43t-149 9v88h548v-88q-118 0 -149 -9t-31 -43v-678q0 -199 95 -299.5t265 -100.5q174 0 267 102.5t93 297.5v678q0 34 -31 43t-149 9
v88h476v-88q-118 0 -149 -9t-31 -43v-700q0 -187 -94.5 -312.5t-249.5 -167.5q-103 -47 -174.5 -111t-71.5 -129q0 -44 25.5 -70t72.5 -26q45 0 86.5 23.5t93.5 72.5z" />
    <glyph glyph-name="uogonek" unicode="&#x173;" horiz-adv-x="1098" 
d="M708 -444q-78 0 -127 44.5t-49 119.5q0 146 218 264v164q-53 -69 -132 -118.5t-168 -49.5q-130 0 -203 90t-73 244v454q0 32 -9 45t-37 19l-96 18v70l286 20h28v-614q0 -108 45.5 -164t130.5 -56q121 0 228 118v544q0 32 -9 45t-37 19l-96 18v70l286 20h28v-768
q0 -30 8.5 -40.5t37.5 -23.5l92 -42v-44q-175 -17 -286.5 -97.5t-111.5 -164.5q0 -44 25.5 -70t72.5 -26q45 0 86.5 23.5t93.5 72.5l34 -50q-48 -64 -118.5 -109t-147.5 -45z" />
    <glyph glyph-name="Wcircumflex" unicode="&#x174;" horiz-adv-x="1946" 
d="M1064 1768l274 -296l-46 -40l-296 200l-296 -200l-46 40l274 296q30 32 68 32t68 -32zM970 1012l-296 -1022h-120l-360 1182q-11 38 -49 49t-125 11v88h548v-88q-105 0 -144.5 -8t-39.5 -30q0 -9 8 -38l256 -898h8l294 1062h108l302 -1064h8l258 898q8 29 8 40
q0 22 -38 30t-148 8v88h478v-88q-94 0 -126.5 -11t-45.5 -49l-360 -1182h-120l-296 1022h-8z" />
    <glyph glyph-name="wcircumflex" unicode="&#x175;" horiz-adv-x="1456" 
d="M816 1454l234 -336l-46 -40l-256 248l-256 -248l-46 40l234 336q26 36 68 36t68 -36zM960 -10l-230 704h-8l-224 -704h-100l-274 826q-8 24 -29.5 31t-94.5 7v86h424v-86q-86 -3 -106 -7t-20 -19q0 -10 8 -30l174 -564h8l222 706h98l228 -708h8l182 566q8 20 8 30
q0 15 -20 19t-106 7v86h348v-86q-51 0 -74 -3t-33 -10.5t-15 -24.5l-274 -826h-100z" />
    <glyph glyph-name="Ycircumflex" unicode="&#x176;" horiz-adv-x="1400" 
d="M802 1768l274 -296l-46 -40l-296 200l-296 -200l-46 40l274 296q30 32 68 32t68 -32zM1006 88v-88h-616v88h34q118 0 149 9t31 43v416l-412 616q-22 27 -36 37.5t-44.5 16.5t-91.5 6v88h570v-88q-110 0 -150 -8t-40 -30q0 -15 14 -36l328 -502h8l320 502q14 21 14 36
q0 22 -40 30t-150 8v88h486v-88q-88 0 -116 -10.5t-56 -49.5l-416 -622v-410q0 -34 31 -43t149 -9h34z" />
    <glyph glyph-name="ycircumflex" unicode="&#x177;" horiz-adv-x="1010" 
d="M624 1454l234 -336l-46 -40l-256 248l-256 -248l-46 40l234 336q26 36 68 36t68 -36zM540 -38q-30 -73 -58 -130t-63.5 -110.5t-72.5 -88.5t-84 -56t-98 -21q-62 0 -105 34.5t-43 89.5q0 44 29.5 70t66.5 26q26 0 48.5 -14.5t35 -31.5t27.5 -31.5t29 -14.5q85 0 210 316
l-338 816q-9 24 -30.5 31t-93.5 7v86h432v-86q-86 -3 -106 -7t-20 -19q0 -10 8 -30l226 -580h6l228 580q8 20 8 30q0 15 -20 19t-106 7v86h354v-86q-72 0 -92.5 -6.5t-29.5 -31.5z" />
    <glyph glyph-name="Ydieresis" unicode="&#x178;" horiz-adv-x="1400" 
d="M430 1596q0 51 36.5 86.5t87.5 35.5t87.5 -35.5t36.5 -86.5q0 -52 -36.5 -88t-87.5 -36t-87.5 36t-36.5 88zM802 1596q0 51 36.5 86.5t87.5 35.5t87.5 -35.5t36.5 -86.5q0 -52 -36.5 -88t-87.5 -36t-87.5 36t-36.5 88zM1006 88v-88h-616v88h34q118 0 149 9t31 43v416
l-412 616q-22 27 -36 37.5t-44.5 16.5t-91.5 6v88h570v-88q-110 0 -150 -8t-40 -30q0 -15 14 -36l328 -502h8l320 502q14 21 14 36q0 22 -40 30t-150 8v88h486v-88q-88 0 -116 -10.5t-56 -49.5l-416 -622v-410q0 -34 31 -43t149 -9h34z" />
    <glyph glyph-name="Zacute" unicode="&#x179;" horiz-adv-x="1222" 
d="M458 1482l280 266q47 44 94 44q39 0 63.5 -23t24.5 -59q0 -64 -72 -100l-358 -178zM674 92q80 0 131.5 7.5t98.5 28t77 60.5t55 102t44 156h80l-42 -446h-1050v62l822 1166h-414q-138 0 -181 -52t-98 -248q-2 -7 -3 -10h-76l18 402h984v-64l-824 -1164h378z" />
    <glyph glyph-name="zacute" unicode="&#x17a;" horiz-adv-x="938" 
d="M368 1114l196 300q43 66 98 66q38 0 60 -21.5t22 -58.5q0 -45 -52 -88l-282 -234zM400 862q-44 0 -69.5 -4.5t-49.5 -18.5t-39 -43.5t-28 -75.5t-26 -120h-74v340h732v-54l-564 -808h292q114 0 145.5 41.5t83.5 243.5q2 7 3 11h72l-30 -374h-776v52l570 810h-242z" />
    <glyph glyph-name="Zdotaccent" unicode="&#x17b;" horiz-adv-x="1222" 
d="M520 1598q0 52 37 89t89 37t89 -37t37 -89t-37 -89t-89 -37t-89 37t-37 89zM674 92q80 0 131.5 7.5t98.5 28t77 60.5t55 102t44 156h80l-42 -446h-1050v62l822 1166h-414q-138 0 -181 -52t-98 -248q-2 -7 -3 -10h-76l18 402h984v-64l-824 -1164h378z" />
    <glyph glyph-name="zdotaccent" unicode="&#x17c;" horiz-adv-x="938" 
d="M358 1294q0 52 37 89t89 37t89 -37t37 -89t-37 -89t-89 -37t-89 37t-37 89zM400 862q-44 0 -69.5 -4.5t-49.5 -18.5t-39 -43.5t-28 -75.5t-26 -120h-74v340h732v-54l-564 -808h292q114 0 145.5 41.5t83.5 243.5q2 7 3 11h72l-30 -374h-776v52l570 810h-242z" />
    <glyph glyph-name="Zcaron" unicode="&#x17d;" horiz-adv-x="1222" 
d="M988 1752l-274 -296q-30 -32 -68 -32t-68 32l-274 296l46 40l296 -200l296 200zM674 92q80 0 131.5 7.5t98.5 28t77 60.5t55 102t44 156h80l-42 -446h-1050v62l822 1166h-414q-138 0 -181 -52t-98 -248q-2 -7 -3 -10h-76l18 402h984v-64l-824 -1164h378z" />
    <glyph glyph-name="zcaron" unicode="&#x17e;" horiz-adv-x="938" 
d="M786 1450l-234 -336q-26 -36 -68 -36t-68 36l-234 336l46 40l256 -248l256 248zM400 862q-44 0 -69.5 -4.5t-49.5 -18.5t-39 -43.5t-28 -75.5t-26 -120h-74v340h732v-54l-564 -808h292q114 0 145.5 41.5t83.5 243.5q2 7 3 11h72l-30 -374h-776v52l570 810h-242z" />
    <glyph glyph-name="uni0192" unicode="&#x192;" horiz-adv-x="1142" 
d="M376 28q-50 -208 -173.5 -340t-296.5 -132q-76 0 -125 34t-49 80q0 42 26 69t68 27q28 0 53 -16t40.5 -35t38 -35t46.5 -16q28 0 52 10t50 36.5t48 70t44 115t40 166.5l108 566h-194v90h212l28 150q39 201 184 336.5t322 135.5q100 0 154 -33t54 -83q0 -44 -29 -70
t-71 -26q-20 0 -39 10.5t-35 26t-33 31t-41 26t-52 10.5q-64 0 -118 -68t-86 -200l-60 -246h218v-90h-240z" />
    <glyph glyph-name="AEacute" unicode="&#x1fc;" horiz-adv-x="2012" 
d="M1214 1482l280 266q47 44 94 44q39 0 63.5 -23t24.5 -59q0 -64 -72 -100l-358 -178zM508 88v-88h-488v88q89 0 118 10.5t54 49.5l708 1074q-110 10 -198 10v88h1150l18 -402h-76q-47 167 -70 212q-34 66 -96 85q-42 13 -116 13h-318v-508h128q49 0 75 1t51 10t35 18.5
t20.5 37t14.5 55t10 82.5h80v-500h-72q-7 54 -11.5 83t-16 55.5t-22 37t-36.5 18.5t-52 9t-76 1h-128v-536h270q80 0 131.5 7.5t98.5 28t77 60.5t55 102t44 156h80l-42 -446h-1082v88q118 0 149 9t31 43v348h-462l-206 -314q-18 -28 -18 -46q0 -23 39 -31.5t149 -8.5z
M604 580h402v616z" />
    <glyph glyph-name="aeacute" unicode="&#x1fd;" horiz-adv-x="1490" 
d="M644 1114l196 300q43 66 98 66q38 0 60 -21.5t22 -58.5q0 -45 -52 -88l-282 -234zM1410 192q-50 -100 -148 -156t-212 -56q-120 0 -214.5 53.5t-147.5 136.5q-62 -86 -153.5 -138t-200.5 -52q-103 0 -169.5 59t-66.5 159q0 133 133 225t409 149v124q0 84 -43 128t-127 44
q-63 0 -109.5 -26t-46.5 -60q0 -11 9 -34t9 -46q0 -42 -28 -69t-72 -27q-42 0 -73 30.5t-31 79.5q0 67 55.5 124t141.5 88.5t177 31.5q189 0 258 -134q55 61 132.5 97.5t155.5 36.5q175 0 266.5 -112t91.5 -288v-64h-620v-6q0 -185 87.5 -287.5t214.5 -102.5q78 0 134.5 33
t113.5 111zM1040 862q-92 0 -160.5 -73t-87.5 -205h446q-3 278 -198 278zM640 486q-193 -44 -282.5 -102t-89.5 -152q0 -61 35 -96.5t93 -35.5q133 0 244 120v266z" />
    <glyph glyph-name="Oslashacute" unicode="&#x1fe;" horiz-adv-x="1372" 
d="M514 1482l280 266q47 44 94 44q39 0 63.5 -23t24.5 -59q0 -64 -72 -100l-358 -178zM686 -20q-191 0 -342 114l-152 -194l-82 62l156 200q-182 195 -182 498q0 152 49.5 281.5t132.5 216t192 134.5t228 48q217 0 382 -146l144 184l82 -62l-154 -198q148 -187 148 -458
q0 -152 -49.5 -281.5t-132.5 -216t-192 -134.5t-228 -48zM288 660q0 -223 80 -368l608 782q-112 158 -290 158q-176 0 -287 -153.5t-111 -418.5zM1084 660q0 179 -54 316l-602 -772q104 -116 258 -116q176 0 287 153.5t111 418.5z" />
    <glyph glyph-name="oslashacute" unicode="&#x1ff;" horiz-adv-x="1036" 
d="M364 1114l196 300q43 66 98 66q38 0 60 -21.5t22 -58.5q0 -45 -52 -88l-282 -234zM518 -20q-131 0 -234 70l-112 -152l-76 54l118 158q-132 138 -132 360q0 217 126.5 353.5t309.5 136.5q145 0 258 -88l104 140l76 -54l-112 -152q110 -136 110 -336q0 -217 -126.5 -353.5
t-309.5 -136.5zM260 470q0 -144 42 -240l398 540q-65 90 -182 90q-125 0 -191.5 -103t-66.5 -287zM776 470q0 116 -28 206l-392 -530q66 -66 162 -66q125 0 191.5 103t66.5 287z" />
    <glyph glyph-name="uni0218" unicode="&#x218;" horiz-adv-x="1146" 
d="M964 1328l20 -422h-66q-61 155 -164 240.5t-222 85.5q-95 0 -157.5 -58.5t-62.5 -145.5q0 -55 25.5 -98.5t68.5 -72.5t98.5 -52.5t117 -44t123 -42.5t117 -52t98.5 -69t68.5 -97t25.5 -132q0 -169 -128 -278.5t-324 -109.5q-94 0 -182.5 34.5t-149.5 87.5l-66 -110h-72
l-44 454h72q46 -117 122.5 -200t157.5 -120.5t160 -37.5q55 0 103.5 13.5t89.5 40t65 72t24 104.5q0 67 -40.5 116t-105 79.5t-142.5 57.5t-156 59t-142.5 73.5t-105 112t-40.5 164.5q0 156 109 258t273 102q165 0 294 -112l66 100h72zM566 -332q0 19 -19.5 29.5t-42.5 15
t-42.5 24t-19.5 53.5q0 48 34.5 77t83.5 29q60 0 98 -42t38 -106q0 -96 -75 -163.5t-207 -76.5l-20 72q95 10 133.5 32t38.5 56z" />
    <glyph glyph-name="uni0219" unicode="&#x219;" horiz-adv-x="858" 
d="M438 864q-78 0 -128 -40t-50 -108q0 -43 29 -73.5t75 -48.5t101.5 -34.5t111 -37t101.5 -49t75 -78.5t29 -117q0 -134 -109 -216t-263 -82q-159 0 -312 88l-20 246h78q26 -128 93.5 -183t176.5 -55q83 0 141.5 41.5t58.5 114.5q0 47 -28 79.5t-73 51.5t-99.5 34.5
t-109 35t-99.5 46t-73 74t-28 113.5q0 126 97 210t241 84q138 0 270 -74v-238h-70q-18 107 -67.5 161.5t-148.5 54.5zM430 -332q0 19 -19.5 29.5t-42.5 15t-42.5 24t-19.5 53.5q0 48 34.5 77t83.5 29q60 0 98 -42t38 -106q0 -96 -75 -163.5t-207 -76.5l-20 72
q95 10 133.5 32t38.5 56z" />
    <glyph glyph-name="uni021A" unicode="&#x21a;" horiz-adv-x="1340" 
d="M978 0h-616v88h34q118 0 149 9t31 43v1088h-170q-138 0 -181 -52t-98 -248q-2 -7 -3 -10h-76l18 402h1208l18 -402h-76q-47 167 -70 212q-34 66 -96 85q-42 13 -116 13h-170v-1088q0 -34 31 -43t149 -9h34v-88zM672 -332q0 19 -19.5 29.5t-42.5 15t-42.5 24t-19.5 53.5
q0 48 34.5 77t83.5 29q60 0 98 -42t38 -106q0 -96 -75 -163.5t-207 -76.5l-20 72q95 10 133.5 32t38.5 56z" />
    <glyph glyph-name="uni021B" unicode="&#x21b;" horiz-adv-x="748" 
d="M740 136q-56 -76 -137 -116t-169 -40q-109 0 -180.5 64t-71.5 162v636h-128v98h128v240l172 50v-290h298v-98h-298v-588q0 -154 150 -154q94 0 184 100zM436 -332q0 19 -19.5 29.5t-42.5 15t-42.5 24t-19.5 53.5q0 48 34.5 77t83.5 29q60 0 98 -42t38 -106
q0 -96 -75 -163.5t-207 -76.5l-20 72q95 10 133.5 32t38.5 56z" />
    <glyph glyph-name="uni0237" unicode="&#x237;" horiz-adv-x="516" 
d="M188 728q0 30 -8.5 40.5t-37.5 23.5l-92 42v44l282 82h28v-946q0 -197 -107.5 -327.5t-256.5 -130.5q-66 0 -110 31t-44 81q0 41 25.5 63.5t56.5 22.5t59.5 -20.5t53 -41t47.5 -20.5q104 0 104 238v818z" />
    <glyph glyph-name="circumflex" unicode="&#x2c6;" horiz-adv-x="1000" 
d="M568 1454l234 -336l-46 -40l-256 248l-256 -248l-46 40l234 336q25 36 67.5 36t68.5 -36z" />
    <glyph glyph-name="caron" unicode="&#x2c7;" horiz-adv-x="1000" 
d="M802 1450l-234 -336q-26 -36 -68 -36t-68 36l-234 336l46 40l256 -248l256 248z" />
    <glyph glyph-name="breve" unicode="&#x2d8;" horiz-adv-x="1000" 
d="M500 1222q83 0 141.5 61.5t80.5 178.5l84 -20q-21 -173 -102.5 -268.5t-203.5 -95.5t-203.5 95.5t-102.5 268.5l84 20q22 -117 80.5 -178.5t141.5 -61.5z" />
    <glyph glyph-name="dotaccent" unicode="&#x2d9;" horiz-adv-x="1000" 
d="M374 1294q0 52 37 89t89 37t89 -37t37 -89t-37 -89t-89 -37t-89 37t-37 89z" />
    <glyph glyph-name="ring" unicode="&#x2da;" horiz-adv-x="1000" 
d="M500 1098q-84 0 -145 60.5t-61 145.5t61 145.5t145 60.5t145 -60.5t61 -145.5t-61 -145.5t-145 -60.5zM500 1182q49 0 83.5 35t34.5 87t-34.5 87t-83.5 35t-83.5 -35t-34.5 -87t34.5 -87t83.5 -35z" />
    <glyph glyph-name="ogonek" unicode="&#x2db;" horiz-adv-x="1000" 
d="M642 46l24 -44q-105 -46 -178.5 -110.5t-73.5 -131.5q0 -44 25.5 -70t72.5 -26q45 0 86.5 23.5t93.5 72.5l34 -50q-48 -64 -118.5 -109t-147.5 -45q-78 0 -127 44.5t-49 119.5q0 53 29.5 103t82 90.5t113 73t133.5 59.5z" />
    <glyph glyph-name="tilde" unicode="&#x2dc;" horiz-adv-x="1000" 
d="M382 1380q35 0 75 -22t69.5 -48t64.5 -48t61 -22q21 0 37.5 8.5t35.5 33.5t28.5 41t34.5 61l62 -36q-61 -138 -111 -191t-117 -53q-36 0 -76 22t-69.5 48t-64.5 48t-62 22q-20 0 -37 -9t-35 -32.5t-29.5 -42t-34.5 -60.5l-64 36q60 137 112.5 190.5t119.5 53.5z" />
    <glyph glyph-name="hungarumlaut" unicode="&#x2dd;" horiz-adv-x="1000" 
d="M298 1386q31 94 102 94q34 0 56 -21t22 -57q0 -40 -34 -82l-194 -242l-50 22zM620 1386q31 94 102 94q34 0 56 -21t22 -57q0 -40 -34 -82l-194 -242l-50 22z" />
    <glyph glyph-name="Wgrave" unicode="&#x1e80;" horiz-adv-x="1946" 
d="M878 1748l280 -266l-32 -50l-358 178q-72 36 -72 100q0 36 24.5 59t63.5 23q47 0 94 -44zM970 1012l-296 -1022h-120l-360 1182q-11 38 -49 49t-125 11v88h548v-88q-105 0 -144.5 -8t-39.5 -30q0 -9 8 -38l256 -898h8l294 1062h108l302 -1064h8l258 898q8 29 8 40
q0 22 -38 30t-148 8v88h478v-88q-94 0 -126.5 -11t-45.5 -49l-360 -1182h-120l-296 1022h-8z" />
    <glyph glyph-name="wgrave" unicode="&#x1e81;" horiz-adv-x="1456" 
d="M690 1414l196 -300l-42 -36l-282 234q-52 43 -52 88q0 37 22 58.5t60 21.5q55 0 98 -66zM960 -10l-230 704h-8l-224 -704h-100l-274 826q-8 24 -29.5 31t-94.5 7v86h424v-86q-86 -3 -106 -7t-20 -19q0 -10 8 -30l174 -564h8l222 706h98l228 -708h8l182 566q8 20 8 30
q0 15 -20 19t-106 7v86h348v-86q-51 0 -74 -3t-33 -10.5t-15 -24.5l-274 -826h-100z" />
    <glyph glyph-name="Wacute" unicode="&#x1e82;" horiz-adv-x="1946" 
d="M864 1482l280 266q47 44 94 44q39 0 63.5 -23t24.5 -59q0 -64 -72 -100l-358 -178zM970 1012l-296 -1022h-120l-360 1182q-11 38 -49 49t-125 11v88h548v-88q-105 0 -144.5 -8t-39.5 -30q0 -9 8 -38l256 -898h8l294 1062h108l302 -1064h8l258 898q8 29 8 40q0 22 -38 30
t-148 8v88h478v-88q-94 0 -126.5 -11t-45.5 -49l-360 -1182h-120l-296 1022h-8z" />
    <glyph glyph-name="wacute" unicode="&#x1e83;" horiz-adv-x="1456" 
d="M632 1114l196 300q43 66 98 66q38 0 60 -21.5t22 -58.5q0 -45 -52 -88l-282 -234zM960 -10l-230 704h-8l-224 -704h-100l-274 826q-8 24 -29.5 31t-94.5 7v86h424v-86q-86 -3 -106 -7t-20 -19q0 -10 8 -30l174 -564h8l222 706h98l228 -708h8l182 566q8 20 8 30
q0 15 -20 19t-106 7v86h348v-86q-51 0 -74 -3t-33 -10.5t-15 -24.5l-274 -826h-100z" />
    <glyph glyph-name="Wdieresis" unicode="&#x1e84;" horiz-adv-x="1946" 
d="M690 1596q0 51 36.5 86.5t87.5 35.5t87.5 -35.5t36.5 -86.5q0 -52 -36.5 -88t-87.5 -36t-87.5 36t-36.5 88zM1062 1596q0 51 36.5 86.5t87.5 35.5t87.5 -35.5t36.5 -86.5q0 -52 -36.5 -88t-87.5 -36t-87.5 36t-36.5 88zM970 1012l-296 -1022h-120l-360 1182
q-11 38 -49 49t-125 11v88h548v-88q-105 0 -144.5 -8t-39.5 -30q0 -9 8 -38l256 -898h8l294 1062h108l302 -1064h8l258 898q8 29 8 40q0 22 -38 30t-148 8v88h478v-88q-94 0 -126.5 -11t-45.5 -49l-360 -1182h-120l-296 1022h-8z" />
    <glyph glyph-name="wdieresis" unicode="&#x1e85;" horiz-adv-x="1456" 
d="M450 1252q0 48 35.5 83t84.5 35q48 0 84 -35t36 -83q0 -51 -35.5 -85.5t-84.5 -34.5q-50 0 -85 34t-35 86zM808 1252q0 48 36 83t84 35q49 0 84.5 -35t35.5 -83q0 -52 -35 -86t-85 -34q-49 0 -84.5 34.5t-35.5 85.5zM960 -10l-230 704h-8l-224 -704h-100l-274 826
q-8 24 -29.5 31t-94.5 7v86h424v-86q-86 -3 -106 -7t-20 -19q0 -10 8 -30l174 -564h8l222 706h98l228 -708h8l182 566q8 20 8 30q0 15 -20 19t-106 7v86h348v-86q-51 0 -74 -3t-33 -10.5t-15 -24.5l-274 -826h-100z" />
    <glyph glyph-name="Ygrave" unicode="&#x1ef2;" horiz-adv-x="1400" 
d="M566 1748l280 -266l-32 -50l-358 178q-72 36 -72 100q0 36 24.5 59t63.5 23q47 0 94 -44zM1006 88v-88h-616v88h34q118 0 149 9t31 43v416l-412 616q-22 27 -36 37.5t-44.5 16.5t-91.5 6v88h570v-88q-110 0 -150 -8t-40 -30q0 -15 14 -36l328 -502h8l320 502q14 21 14 36
q0 22 -40 30t-150 8v88h486v-88q-88 0 -116 -10.5t-56 -49.5l-416 -622v-410q0 -34 31 -43t149 -9h34z" />
    <glyph glyph-name="ygrave" unicode="&#x1ef3;" horiz-adv-x="1010" 
d="M458 1414l196 -300l-42 -36l-282 234q-52 43 -52 88q0 37 22 58.5t60 21.5q55 0 98 -66zM540 -38q-30 -73 -58 -130t-63.5 -110.5t-72.5 -88.5t-84 -56t-98 -21q-62 0 -105 34.5t-43 89.5q0 44 29.5 70t66.5 26q26 0 48.5 -14.5t35 -31.5t27.5 -31.5t29 -14.5
q85 0 210 316l-338 816q-9 24 -30.5 31t-93.5 7v86h432v-86q-86 -3 -106 -7t-20 -19q0 -10 8 -30l226 -580h6l228 580q8 20 8 30q0 15 -20 19t-106 7v86h354v-86q-72 0 -92.5 -6.5t-29.5 -31.5z" />
    <glyph glyph-name="endash" unicode="&#x2013;" horiz-adv-x="1160" 
d="M1028 478h-896v116h896v-116z" />
    <glyph glyph-name="emdash" unicode="&#x2014;" horiz-adv-x="2282" 
d="M2150 478h-2018v116h2018v-116z" />
    <glyph glyph-name="quoteleft" unicode="&#x2018;" horiz-adv-x="592" 
d="M296 1246q0 -25 23.5 -43t51.5 -28.5t51.5 -37.5t23.5 -67q0 -59 -37 -90.5t-93 -31.5q-64 0 -106 57.5t-42 144.5q0 141 80.5 235.5t225.5 116.5l18 -72q-102 -30 -149 -75t-47 -109z" />
    <glyph glyph-name="quoteright" unicode="&#x2019;" horiz-adv-x="592" 
d="M296 1202q0 25 -23.5 43t-51.5 28.5t-51.5 37.5t-23.5 67q0 59 37 90.5t93 31.5q64 0 106 -57.5t42 -144.5q0 -141 -80.5 -235.5t-225.5 -116.5l-18 72q102 30 149 75t47 109z" />
    <glyph glyph-name="quotesinglbase" unicode="&#x201a;" horiz-adv-x="592" 
d="M296 16q0 25 -23.5 43t-51.5 28.5t-51.5 37.5t-23.5 67q0 59 37 90.5t93 31.5q64 0 106 -57.5t42 -144.5q0 -141 -80.5 -235.5t-225.5 -116.5l-18 72q102 30 149 75t47 109z" />
    <glyph glyph-name="quotedblleft" unicode="&#x201c;" horiz-adv-x="1040" 
d="M744 1244q0 -25 23.5 -43t51.5 -28.5t51.5 -37.5t23.5 -67q0 -59 -37 -90.5t-93 -31.5q-64 0 -106 57.5t-42 144.5q0 141 80.5 235.5t225.5 116.5l18 -72q-102 -30 -149 -75t-47 -109zM296 1244q0 -25 23.5 -43t51.5 -28.5t51.5 -37.5t23.5 -67q0 -59 -37 -90.5
t-93 -31.5q-64 0 -106 57.5t-42 144.5q0 141 80.5 235.5t225.5 116.5l18 -72q-102 -30 -149 -75t-47 -109z" />
    <glyph glyph-name="quotedblright" unicode="&#x201d;" horiz-adv-x="1040" 
d="M744 1202q0 25 -23.5 43t-51.5 28.5t-51.5 37.5t-23.5 67q0 59 37 90.5t93 31.5q64 0 106 -57.5t42 -144.5q0 -141 -80.5 -235.5t-225.5 -116.5l-18 72q102 30 149 75t47 109zM296 1202q0 25 -23.5 43t-51.5 28.5t-51.5 37.5t-23.5 67q0 59 37 90.5t93 31.5
q64 0 106 -57.5t42 -144.5q0 -141 -80.5 -235.5t-225.5 -116.5l-18 72q102 30 149 75t47 109z" />
    <glyph glyph-name="quotedblbase" unicode="&#x201e;" horiz-adv-x="1040" 
d="M744 16q0 25 -23.5 43t-51.5 28.5t-51.5 37.5t-23.5 67q0 59 37 90.5t93 31.5q64 0 106 -57.5t42 -144.5q0 -141 -80.5 -235.5t-225.5 -116.5l-18 72q102 30 149 75t47 109zM296 16q0 25 -23.5 43t-51.5 28.5t-51.5 37.5t-23.5 67q0 59 37 90.5t93 31.5q64 0 106 -57.5
t42 -144.5q0 -141 -80.5 -235.5t-225.5 -116.5l-18 72q102 30 149 75t47 109z" />
    <glyph glyph-name="dagger" unicode="&#x2020;" horiz-adv-x="944" 
d="M784 1126h-260v-530h-104v530h-260v104h260v250h104v-250h260v-104z" />
    <glyph glyph-name="daggerdbl" unicode="&#x2021;" horiz-adv-x="944" 
d="M784 826h-260v-230h-104v230h-260v104h260v216h-260v104h260v230h104v-230h260v-104h-260v-216h260v-104z" />
    <glyph glyph-name="bullet" unicode="&#x2022;" horiz-adv-x="888" 
d="M444 224q-129 0 -220.5 92t-91.5 220q0 130 91.5 222t220.5 92t220.5 -92t91.5 -222q0 -128 -91.5 -220t-220.5 -92z" />
    <glyph glyph-name="ellipsis" unicode="&#x2026;" horiz-adv-x="1652" 
d="M468 118q0 -57 -41.5 -97.5t-100.5 -40.5t-100.5 40.5t-41.5 97.5t42 99.5t100 42.5t100 -42.5t42 -99.5zM968 118q0 -57 -41.5 -97.5t-100.5 -40.5t-100.5 40.5t-41.5 97.5t42 99.5t100 42.5t100 -42.5t42 -99.5zM1468 118q0 -57 -41.5 -97.5t-100.5 -40.5t-100.5 40.5
t-41.5 97.5t42 99.5t100 42.5t100 -42.5t42 -99.5z" />
    <glyph glyph-name="perthousand" unicode="&#x2030;" horiz-adv-x="2390" 
d="M400 1340q127 0 223.5 -102t96.5 -248t-96.5 -248t-223.5 -102t-223.5 102t-96.5 248t96.5 248t223.5 102zM430 0h-130l914 1320h130zM400 1260q-78 0 -119 -75.5t-41 -194.5t41 -194.5t119 -75.5t119 75.5t41 194.5t-41 194.5t-119 75.5zM1990 680q127 0 223.5 -102
t96.5 -248t-96.5 -248t-223.5 -102t-223.5 102t-96.5 248t96.5 248t223.5 102zM1244 680q127 0 223.5 -102t96.5 -248t-96.5 -248t-223.5 -102t-223.5 102t-96.5 248t96.5 248t223.5 102zM1990 600q-78 0 -119 -75.5t-41 -194.5t41 -194.5t119 -75.5t119 75.5t41 194.5
t-41 194.5t-119 75.5zM1244 600q-78 0 -119 -75.5t-41 -194.5t41 -194.5t119 -75.5t119 75.5t41 194.5t-41 194.5t-119 75.5z" />
    <glyph glyph-name="guilsinglleft" unicode="&#x2039;" horiz-adv-x="596" 
d="M90 458v20l322 380h94l-222 -390l222 -390h-94z" />
    <glyph glyph-name="guilsinglright" unicode="&#x203a;" horiz-adv-x="596" 
d="M506 478v-20l-322 -380h-94l222 390l-222 390h94z" />
    <glyph glyph-name="fraction" unicode="&#x2044;" horiz-adv-x="404" 
d="M-190 0h-130l914 1320h130z" />
    <glyph glyph-name="uni2070" unicode="&#x2070;" horiz-adv-x="858" 
d="M738 930q0 -176 -91 -288t-219 -112t-219 112t-91 288t91 288t219 112t219 -112t91 -288zM270 930q0 -157 40 -244.5t118 -87.5t118 87.5t40 244.5t-40 244.5t-118 87.5t-118 -87.5t-40 -244.5z" />
    <glyph glyph-name="uni2074" unicode="&#x2074;" horiz-adv-x="868" 
d="M700 544h-364v54q75 0 94.5 5t19.5 25v158h-358v50l388 484h108v-464h186v-70h-186v-158q0 -19 20 -24.5t92 -5.5v-54zM190 856h260v326h-6l-254 -322v-4z" />
    <glyph glyph-name="uni2075" unicode="&#x2075;" horiz-adv-x="718" 
d="M308 596q72 0 122 42t50 118q0 90 -84 131t-212 41l-24 10l50 382h358v-134h-322l-16 -132q108 -4 188.5 -29.5t132 -81.5t51.5 -139q0 -114 -90 -193t-216 -79q-87 0 -148.5 32t-61.5 84q0 26 19 43t47 17q25 0 46.5 -17.5t35 -38.5t33.5 -38.5t41 -17.5z" />
    <glyph glyph-name="uni2076" unicode="&#x2076;" horiz-adv-x="808" 
d="M700 798q0 -107 -81.5 -187.5t-204.5 -80.5q-125 0 -211.5 92.5t-86.5 229.5q0 172 131 302.5t351 175.5l22 -56q-122 -34 -213.5 -114.5t-124.5 -203.5q78 70 180 70q94 0 166 -64t72 -164zM266 834q0 -112 43.5 -176t110.5 -64q64 0 100 53.5t36 126.5q0 78 -41.5 127
t-112.5 49q-72 0 -130 -40q-6 -36 -6 -76z" />
    <glyph glyph-name="uni2077" unicode="&#x2077;" horiz-adv-x="752" 
d="M298 1192q-28 0 -42.5 -0.5t-30 -8t-21.5 -14t-15.5 -29.5t-14.5 -44t-16 -66h-52l14 290h538v-58l-282 -718h-140v16l320 632h-258z" />
    <glyph glyph-name="uni2078" unicode="&#x2078;" horiz-adv-x="800" 
d="M682 754q0 -90 -80 -157t-200 -67q-124 0 -205 57.5t-81 146.5q0 118 174 192q-65 34 -101.5 77.5t-36.5 108.5q0 85 68.5 151.5t175.5 66.5q110 0 182 -56t72 -138q0 -51 -39.5 -96t-108.5 -74q84 -42 132 -90.5t48 -121.5zM276 1148q0 -27 13.5 -49.5t41 -42t54 -34
t66.5 -33.5q7 -3 11 -5q76 55 76 150q0 60 -37 96t-99 36q-59 0 -92.5 -34.5t-33.5 -83.5zM238 740q0 -66 48 -106t114 -40q65 0 105.5 36t40.5 92q0 23 -10 43.5t-22 34t-39 30.5t-43 25.5t-53 26t-51 24.5q-43 -28 -66.5 -72t-23.5 -94z" />
    <glyph glyph-name="uni2079" unicode="&#x2079;" horiz-adv-x="808" 
d="M692 1008q0 -172 -130.5 -302t-351.5 -176l-22 58q123 33 214.5 114.5t123.5 201.5q-80 -68 -180 -68q-94 0 -165 63t-71 163q0 108 80.5 188t203.5 80q125 0 211.5 -92.5t86.5 -229.5zM252 1086q0 -77 41.5 -125.5t112.5 -48.5q70 0 130 38q6 36 6 76q0 113 -43.5 177.5
t-110.5 64.5q-64 0 -100 -54t-36 -128z" />
    <glyph glyph-name="uni2080" unicode="&#x2080;" horiz-adv-x="858" 
d="M738 106q0 -176 -91 -288t-219 -112t-219 112t-91 288t91 288t219 112t219 -112t91 -288zM270 106q0 -157 40 -244.5t118 -87.5t118 87.5t40 244.5t-40 244.5t-118 87.5t-118 -87.5t-40 -244.5z" />
    <glyph glyph-name="uni2081" unicode="&#x2081;" horiz-adv-x="716" 
d="M622 -208v-72h-506v72h82q69 0 87.5 5t18.5 25v500h-182v74q119 0 179 24.5t93 85.5h52v-684q0 -20 18.5 -25t87.5 -5h70z" />
    <glyph glyph-name="uni2082" unicode="&#x2082;" horiz-adv-x="748" 
d="M140 270l-48 28q45 100 118 154t162 54q102 0 162 -60t60 -148q0 -47 -20.5 -96.5t-50.5 -90t-75.5 -85.5t-84 -77.5t-87.5 -72.5l-30 -24v-6h252q38 0 60.5 20t59.5 86l42 -16l-58 -216h-510v58q189 161 269.5 272t80.5 206q0 60 -32 99t-96 39q-102 0 -174 -124z" />
    <glyph glyph-name="uni2083" unicode="&#x2083;" horiz-adv-x="732" 
d="M564 348q0 -33 -14.5 -62.5t-41.5 -53.5t-49.5 -39.5t-52.5 -32.5q92 -15 152 -62.5t60 -131.5q0 -76 -51 -137.5t-123.5 -92t-145.5 -30.5q-89 0 -153.5 33t-64.5 85q0 27 18.5 43.5t45.5 16.5q25 0 48 -18t37.5 -39t36 -39t44.5 -18q64 0 113 43.5t49 118.5
q0 142 -198 152l-14 36q90 58 125 97.5t35 90.5q0 40 -28.5 66t-75.5 26q-91 0 -158 -104l-50 34q106 176 270 176q80 0 133 -44t53 -114z" />
    <glyph glyph-name="uni2084" unicode="&#x2084;" horiz-adv-x="868" 
d="M700 -280h-364v54q75 0 94.5 5t19.5 25v158h-358v50l388 484h108v-464h186v-70h-186v-158q0 -19 20 -24.5t92 -5.5v-54zM190 32h260v326h-6l-254 -322v-4z" />
    <glyph glyph-name="uni2085" unicode="&#x2085;" horiz-adv-x="718" 
d="M308 -230q72 0 122 42t50 118q0 90 -84 131t-212 41l-24 10l50 382h358v-134h-322l-16 -132q108 -4 188.5 -29.5t132 -81.5t51.5 -139q0 -114 -90 -193t-216 -79q-87 0 -148.5 32t-61.5 84q0 26 19 43t47 17q25 0 46.5 -17.5t35 -38.5t33.5 -38.5t41 -17.5z" />
    <glyph glyph-name="uni2086" unicode="&#x2086;" horiz-adv-x="808" 
d="M700 -26q0 -107 -81.5 -187.5t-204.5 -80.5q-125 0 -211.5 92.5t-86.5 229.5q0 172 131 302.5t351 175.5l22 -56q-122 -34 -213.5 -114.5t-124.5 -203.5q78 70 180 70q94 0 166 -64t72 -164zM266 10q0 -112 43.5 -176t110.5 -64q64 0 100 53.5t36 126.5q0 78 -41.5 127
t-112.5 49q-72 0 -130 -40q-6 -36 -6 -76z" />
    <glyph glyph-name="uni2087" unicode="&#x2087;" horiz-adv-x="752" 
d="M298 368q-28 0 -42.5 -0.5t-30 -8t-21.5 -14t-15.5 -29.5t-14.5 -44t-16 -66h-52l14 290h538v-58l-282 -718h-140v16l320 632h-258z" />
    <glyph glyph-name="uni2088" unicode="&#x2088;" horiz-adv-x="800" 
d="M682 -70q0 -90 -80 -157t-200 -67q-124 0 -205 57.5t-81 146.5q0 118 174 192q-65 34 -101.5 77.5t-36.5 108.5q0 85 68.5 151.5t175.5 66.5q110 0 182 -56t72 -138q0 -51 -39.5 -96t-108.5 -74q84 -42 132 -90.5t48 -121.5zM276 324q0 -27 13.5 -49.5t41 -42t54 -34
t66.5 -33.5q7 -3 11 -5q76 55 76 150q0 60 -37 96t-99 36q-59 0 -92.5 -34.5t-33.5 -83.5zM238 -84q0 -66 48 -106t114 -40q65 0 105.5 36t40.5 92q0 23 -10 43.5t-22 34t-39 30.5t-43 25.5t-53 26t-51 24.5q-43 -28 -66.5 -72t-23.5 -94z" />
    <glyph glyph-name="uni2089" unicode="&#x2089;" horiz-adv-x="808" 
d="M692 184q0 -172 -130.5 -302t-351.5 -176l-22 58q123 33 214.5 114.5t123.5 201.5q-80 -68 -180 -68q-94 0 -165 63t-71 163q0 108 80.5 188t203.5 80q125 0 211.5 -92.5t86.5 -229.5zM252 262q0 -77 41.5 -125.5t112.5 -48.5q70 0 130 38q6 36 6 76q0 113 -43.5 177.5
t-110.5 64.5q-64 0 -100 -54t-36 -128z" />
    <glyph glyph-name="Euro" unicode="&#x20ac;" horiz-adv-x="1210" 
d="M1166 248q-156 -268 -434 -268q-196 0 -343 131.5t-189 368.5h-138v92h128q-4 56 -4 84q0 50 6 98h-132v92h150q54 218 214.5 356t357.5 138q155 0 259.5 -73t104.5 -161q0 -48 -29 -76t-69 -28q-35 0 -58.5 24.5t-39 59t-34.5 69t-57 59t-93 24.5q-132 0 -232 -105
t-136 -287h438l-26 -92h-424q-4 -56 -4 -88q0 -34 4 -94h390l-28 -92h-350q33 -180 129 -279t235 -99q204 0 334 202z" />
    <glyph glyph-name="trademark" unicode="&#x2122;" horiz-adv-x="1816" 
d="M606 658h-324v56q65 0 81.5 5t16.5 21v528h-58q-60 0 -81.5 -30.5t-46.5 -124.5q-2 -4 -2.5 -7t-1.5 -6h-52l8 220h594l8 -220h-50q-29 101 -42 123q-33 43 -92 45h-56v-528q0 -16 16.5 -21t81.5 -5v-56zM1638 1320v-54q-53 0 -66.5 -4.5t-13.5 -21.5v-500
q0 -17 13.5 -21.5t66.5 -4.5v-56h-288v56q53 0 67.5 4.5t14.5 21.5v516h-8l-204 -604h-34l-196 604h-8v-516q0 -17 14.5 -21.5t71.5 -4.5v-56h-250v56q56 0 71 4.5t15 21.5v500q0 17 -15 21.5t-71 4.5v54h278l136 -440h8l142 440h256z" />
    <glyph glyph-name="uni2153" unicode="&#x2153;" horiz-adv-x="1818" 
d="M622 616v-72h-506v72h82q69 0 87.5 5t18.5 25v500h-182v74q119 0 179 24.5t93 85.5h52v-684q0 -20 18.5 -25t87.5 -5h70zM554 0h-130l914 1320h130zM1650 628q0 -33 -14.5 -62.5t-41.5 -53.5t-49.5 -39.5t-52.5 -32.5q92 -15 152 -62.5t60 -131.5q0 -76 -51 -137.5
t-123.5 -92t-145.5 -30.5q-89 0 -153.5 33t-64.5 85q0 27 18.5 43.5t45.5 16.5q25 0 48 -18t37.5 -39t36 -39t44.5 -18q64 0 113 43.5t49 118.5q0 142 -198 152l-14 36q90 58 125 97.5t35 90.5q0 40 -28.5 66t-75.5 26q-91 0 -158 -104l-50 34q106 176 270 176q80 0 133 -44
t53 -114z" />
    <glyph glyph-name="uni2154" unicode="&#x2154;" horiz-adv-x="1816" 
d="M140 1094l-48 28q45 100 118 154t162 54q102 0 162 -60t60 -148q0 -47 -20.5 -96.5t-50.5 -90t-75.5 -85.5t-84 -77.5t-87.5 -72.5l-30 -24v-6h252q38 0 60.5 20t59.5 86l42 -16l-58 -216h-510v58q189 161 269.5 272t80.5 206q0 60 -32 99t-96 39q-102 0 -174 -124z
M552 0h-130l914 1320h130zM1648 628q0 -33 -14.5 -62.5t-41.5 -53.5t-49.5 -39.5t-52.5 -32.5q92 -15 152 -62.5t60 -131.5q0 -76 -51 -137.5t-123.5 -92t-145.5 -30.5q-89 0 -153.5 33t-64.5 85q0 27 18.5 43.5t45.5 16.5q25 0 48 -18t37.5 -39t36 -39t44.5 -18
q64 0 113 43.5t49 118.5q0 142 -198 152l-14 36q90 58 125 97.5t35 90.5q0 40 -28.5 66t-75.5 26q-91 0 -158 -104l-50 34q106 176 270 176q80 0 133 -44t53 -114z" />
    <glyph glyph-name="uni215B" unicode="&#x215b;" horiz-adv-x="1866" 
d="M622 616v-72h-506v72h82q69 0 87.5 5t18.5 25v500h-182v74q119 0 179 24.5t93 85.5h52v-684q0 -20 18.5 -25t87.5 -5h70zM554 0h-130l914 1320h130zM1748 210q0 -90 -80 -157t-200 -67q-124 0 -205 57.5t-81 146.5q0 118 174 192q-65 34 -101.5 77.5t-36.5 108.5
q0 85 68.5 151.5t175.5 66.5q110 0 182 -56t72 -138q0 -51 -39.5 -96t-108.5 -74q84 -42 132 -90.5t48 -121.5zM1342 604q0 -27 13.5 -49.5t41 -42t54 -34t66.5 -33.5q3 -1 4 -1.5l3 -1.5l4 -2q76 55 76 150q0 60 -37 96t-99 36q-59 0 -92.5 -34.5t-33.5 -83.5zM1304 196
q0 -66 48 -106t114 -40q65 0 105.5 36t40.5 92q0 23 -10 43.5t-22 34t-39 30.5t-43 25.5t-53 26t-51 24.5q-43 -28 -66.5 -72t-23.5 -94z" />
    <glyph glyph-name="uni215C" unicode="&#x215c;" horiz-adv-x="1784" 
d="M564 1172q0 -33 -14.5 -62.5t-41.5 -53.5t-49.5 -39.5t-52.5 -32.5q92 -15 152 -62.5t60 -131.5q0 -76 -51 -137.5t-123.5 -92t-145.5 -30.5q-89 0 -153.5 33t-64.5 85q0 27 18.5 43.5t45.5 16.5q25 0 48 -18t37.5 -39t36 -39t44.5 -18q64 0 113 43.5t49 118.5
q0 142 -198 152l-14 36q90 58 125 97.5t35 90.5q0 40 -28.5 66t-75.5 26q-91 0 -158 -104l-50 34q106 176 270 176q80 0 133 -44t53 -114zM472 0h-130l914 1320h130zM1666 210q0 -90 -80 -157t-200 -67q-124 0 -205 57.5t-81 146.5q0 118 174 192q-65 34 -101.5 77.5
t-36.5 108.5q0 85 68.5 151.5t175.5 66.5q110 0 182 -56t72 -138q0 -51 -39.5 -96t-108.5 -74q84 -42 132 -90.5t48 -121.5zM1260 604q0 -27 13.5 -49.5t41 -42t54 -34t66.5 -33.5q3 -1 4 -1.5l3 -1.5l4 -2q76 55 76 150q0 60 -37 96t-99 36q-59 0 -92.5 -34.5t-33.5 -83.5z
M1222 196q0 -66 48 -106t114 -40q65 0 105.5 36t40.5 92q0 23 -10 43.5t-22 34t-39 30.5t-43 25.5t-53 26t-51 24.5q-43 -28 -66.5 -72t-23.5 -94z" />
    <glyph glyph-name="uni215D" unicode="&#x215d;" horiz-adv-x="1756" 
d="M444 0h-130l914 1320h130zM308 596q72 0 122 42t50 118q0 90 -84 131t-212 41l-24 10l50 382h358v-134h-322l-16 -132q108 -4 188.5 -29.5t132 -81.5t51.5 -139q0 -114 -90 -193t-216 -79q-87 0 -148.5 32t-61.5 84q0 26 19 43t47 17q25 0 46.5 -17.5t35 -38.5
t33.5 -38.5t41 -17.5zM1638 210q0 -90 -80 -157t-200 -67q-124 0 -205 57.5t-81 146.5q0 118 174 192q-65 34 -101.5 77.5t-36.5 108.5q0 85 68.5 151.5t175.5 66.5q110 0 182 -56t72 -138q0 -51 -39.5 -96t-108.5 -74q84 -42 132 -90.5t48 -121.5zM1232 604
q0 -27 13.5 -49.5t41 -42t54 -34t66.5 -33.5q3 -1 4 -1.5l3 -1.5l4 -2q76 55 76 150q0 60 -37 96t-99 36q-59 0 -92.5 -34.5t-33.5 -83.5zM1194 196q0 -66 48 -106t114 -40q65 0 105.5 36t40.5 92q0 23 -10 43.5t-22 34t-39 30.5t-43 25.5t-53 26t-51 24.5
q-43 -28 -66.5 -72t-23.5 -94z" />
    <glyph glyph-name="uni215E" unicode="&#x215e;" horiz-adv-x="1686" 
d="M374 0h-130l914 1320h130zM298 1192q-28 0 -42.5 -0.5t-30 -8t-21.5 -14t-15.5 -29.5t-14.5 -44t-16 -66h-52l14 290h538v-58l-282 -718h-140v16l320 632h-258zM1568 210q0 -90 -80 -157t-200 -67q-124 0 -205 57.5t-81 146.5q0 118 174 192q-65 34 -101.5 77.5
t-36.5 108.5q0 85 68.5 151.5t175.5 66.5q110 0 182 -56t72 -138q0 -51 -39.5 -96t-108.5 -74q84 -42 132 -90.5t48 -121.5zM1162 604q0 -27 13.5 -49.5t41 -42t54 -34t66.5 -33.5q3 -1 4 -1.5l3 -1.5l4 -2q76 55 76 150q0 60 -37 96t-99 36q-59 0 -92.5 -34.5t-33.5 -83.5z
M1124 196q0 -66 48 -106t114 -40q65 0 105.5 36t40.5 92q0 23 -10 43.5t-22 34t-39 30.5t-43 25.5t-53 26t-51 24.5q-43 -28 -66.5 -72t-23.5 -94z" />
    <glyph glyph-name="minus" unicode="&#x2212;" 
d="M100 554v120h920v-120h-920z" />
    <glyph glyph-name="i.dot" horiz-adv-x="556" 
d="M164 1294q0 52 37 89t89 37t89 -37t37 -89t-37 -89t-89 -37t-89 37t-37 89zM208 728q0 30 -8.5 40.5t-37.5 23.5l-92 42v44l282 82h28v-836q0 -26 20.5 -32t109.5 -6v-86h-432v86q89 0 109.5 6t20.5 32v604z" />
    <glyph glyph-name="a.ord" horiz-adv-x="802" 
d="M644 608q-53 0 -91.5 32.5t-52.5 87.5q-43 -53 -107 -86.5t-127 -33.5q-77 0 -125.5 43.5t-48.5 116.5q0 99 98 166t304 116v86q0 126 -120 126q-45 0 -77.5 -18.5t-32.5 -45.5q0 -6 6 -23t6 -33q0 -34 -22 -56t-58 -22q-33 0 -57.5 23.5t-24.5 62.5q0 78 91.5 132
t210.5 54q230 0 230 -196v-372q0 -32 15.5 -49t36.5 -17q32 0 66 28l28 -46q-29 -33 -68.5 -54.5t-79.5 -21.5zM494 984q-128 -30 -190 -71.5t-62 -110.5q0 -46 26 -72t68 -26q79 0 158 76v204z" />
    <glyph glyph-name="b.ord" horiz-adv-x="870" 
d="M784 1000q0 -176 -96 -284t-238 -108q-114 0 -186 82l-86 -68h-44v928q0 23 -6.5 31.5t-27.5 18.5l-64 30v36l222 66h28v-526q33 51 93 90.5t129 39.5q123 0 199.5 -96.5t76.5 -239.5zM446 1230q-47 0 -90.5 -24.5t-69.5 -55.5v-390q43 -72 140 -72q92 0 148 76t56 204
q0 116 -48.5 189t-135.5 73z" />
    <glyph glyph-name="c.ord" horiz-adv-x="734" 
d="M416 1256q-76 0 -129 -76t-53 -196q0 -129 58 -203.5t144 -74.5q110 0 184 118l58 -38q-42 -84 -112.5 -131t-165.5 -47q-130 0 -224 94t-94 252q0 159 106 270.5t248 111.5q95 0 159.5 -45t64.5 -101q0 -34 -21 -53t-53 -19q-30 0 -50 21.5t-29 47.5t-32 47.5t-59 21.5z
" />
    <glyph glyph-name="d.ord" horiz-adv-x="890" 
d="M830 642l-222 -34h-28v130q-31 -51 -91 -90.5t-129 -39.5q-121 0 -199.5 98t-78.5 240q0 174 95.5 282t236.5 108q98 0 166 -64v278q0 23 -6 32t-28 18l-62 30v36l222 66h26v-974q0 -23 6.5 -31.5t27.5 -18.5l64 -30v-36zM236 978q0 -115 51.5 -190.5t136.5 -75.5
q88 0 156 82v388q-46 78 -144 78q-89 0 -144.5 -78t-55.5 -204z" />
    <glyph glyph-name="e.ord" horiz-adv-x="776" 
d="M692 772q-39 -77 -113.5 -120.5t-164.5 -43.5q-137 0 -234.5 97t-97.5 257q0 158 98 266t234 108q135 0 206.5 -86.5t71.5 -219.5v-46h-460q1 -132 63.5 -205t156.5 -73q58 0 100 24.5t84 83.5zM408 1258q-66 0 -112.5 -53.5t-59.5 -150.5h310q-3 204 -138 204z" />
    <glyph glyph-name="f.ord" horiz-adv-x="550" 
d="M464 686v-64h-378v64q62 0 77 5t15 25v528h-106v76h106v56q0 148 99 252t239 104q67 0 107.5 -25.5t40.5 -66.5q0 -37 -23 -54.5t-53 -17.5q-28 0 -51 18.5t-44 37t-47 18.5q-48 0 -82 -46t-34 -132v-144h166v-76h-166v-526q0 -12 3 -17t17.5 -9t39 -5t74.5 -1z" />
    <glyph glyph-name="g.ord" horiz-adv-x="854" 
d="M784 560q0 -81 -57 -142.5t-149 -92.5t-202 -31q-151 0 -244.5 49.5t-93.5 138.5q0 54 47.5 89.5t124.5 48.5q-47 17 -73.5 50t-26.5 76q0 97 126 154q-63 30 -98.5 83.5t-35.5 116.5q0 96 85 166t205 70q123 0 212 -76q90 110 160 110q43 0 68.5 -23.5t25.5 -64.5
q0 -36 -23 -58t-53 -22q-20 0 -34.5 8t-21.5 18t-15.5 18t-16.5 8q-26 0 -56 -30q44 -57 44 -124q0 -95 -85 -164.5t-205 -69.5q-59 0 -104 14q-44 -23 -63 -42t-19 -46q0 -22 15 -36t41 -14h280q110 0 176 -44.5t66 -137.5zM258 1100q0 -78 36.5 -122t97.5 -44
q62 0 98 43.5t36 122.5q0 80 -36 124t-98 44q-61 0 -97.5 -44t-36.5 -124zM518 602h-266q-86 -36 -86 -108q0 -61 62 -92.5t162 -31.5q114 0 189 40t75 104q0 47 -32 67.5t-104 20.5z" />
    <glyph glyph-name="h.ord" horiz-adv-x="910" 
d="M406 686v-64h-334v64q61 0 75.5 5t14.5 25v834q0 23 -6.5 31.5t-27.5 18.5l-62 30v36l222 66h26v-532q39 53 105 94.5t139 41.5q101 0 151.5 -68.5t50.5 -175.5v-376q0 -20 15 -25t77 -5v-64h-334v64q61 0 75.5 5t14.5 25v354q0 158 -128 158q-46 0 -90 -22.5t-76 -57.5
v-432q0 -20 15 -25t77 -5z" />
    <glyph glyph-name="i.ord" horiz-adv-x="474" 
d="M142 1578q0 45 30 75.5t74 30.5t74 -30.5t30 -75.5q0 -44 -30 -74t-74 -30t-74 30t-30 74zM172 1156q0 21 -6.5 30t-27.5 20l-64 30v34l224 66h26v-620q0 -20 15 -25t77 -5v-64h-336v64q62 0 77 5t15 25v440z" />
    <glyph glyph-name="j.ord" horiz-adv-x="448" 
d="M130 1578q0 45 30 75.5t74 30.5q43 0 72.5 -30.5t29.5 -75.5q0 -44 -29.5 -74t-72.5 -30q-44 0 -74 30t-30 74zM160 1156q0 21 -6.5 30t-27.5 20l-64 30v34l222 66h28v-704q0 -143 -87 -240.5t-205 -97.5q-53 0 -88.5 24.5t-35.5 65.5q0 33 20 51.5t46 18.5
q28 0 50 -18.5t40 -37t36 -18.5q72 0 72 156v620z" />
    <glyph glyph-name="k.ord" horiz-adv-x="916" 
d="M406 686v-64h-334v64q61 0 75.5 5t14.5 25v834q0 23 -6.5 31.5t-27.5 18.5l-62 30v36l222 66h26v-784l282 258q18 24 18 28q0 9 -8 13t-31 6.5t-69 2.5v64h338v-64q-55 0 -82 -6.5t-48 -25.5l-194 -172l244 -328q17 -23 42.5 -30.5t85.5 -7.5v-64h-374v64q46 0 63 4.5
t17 17.5q0 7 -14 28l-164 226l-106 -94v-152q0 -20 15 -25t77 -5z" />
    <glyph glyph-name="l.ord" horiz-adv-x="470" 
d="M162 1550q0 23 -6.5 31.5t-27.5 18.5l-62 30v36l222 66h26v-1016q0 -20 15 -25t77 -5v-64h-334v64q61 0 75.5 5t14.5 25v834z" />
    <glyph glyph-name="m.ord" horiz-adv-x="1340" 
d="M416 686v-64h-336v64q62 0 77 5t15 25v440q0 21 -6.5 30t-27.5 20l-64 30v34l224 66h26v-136q39 53 103 94.5t133 41.5q143 0 184 -140q47 56 113 98t137 42q101 0 149.5 -68.5t48.5 -175.5v-376q0 -20 14 -25t76 -5v-64h-334v64q62 0 77 5t15 25v354q0 158 -124 158
q-42 0 -85.5 -23t-76.5 -57q4 -36 4 -56v-376q0 -20 14.5 -25t75.5 -5v-64h-334v64q62 0 77 5t15 25v354q0 158 -124 158q-85 0 -158 -80v-432q0 -20 15 -25t77 -5z" />
    <glyph glyph-name="n.ord" horiz-adv-x="920" 
d="M416 686v-64h-336v64q62 0 77 5t15 25v440q0 21 -6.5 30t-27.5 20l-64 30v34l224 66h26v-136q39 53 105 94.5t139 41.5q101 0 151.5 -68.5t50.5 -175.5v-376q0 -20 15 -25t77 -5v-64h-334v64q61 0 75.5 5t14.5 25v354q0 158 -128 158q-93 0 -166 -80v-432q0 -20 15 -25
t77 -5z" />
    <glyph glyph-name="o.ord" horiz-adv-x="838" 
d="M82 972q0 159 97.5 261.5t238.5 102.5t238.5 -102.5t97.5 -261.5q0 -160 -97.5 -262t-238.5 -102t-238.5 102t-97.5 262zM592 972q0 135 -45 210.5t-129 75.5t-129 -75.5t-45 -210.5q0 -137 44.5 -212.5t129.5 -75.5t129.5 75.5t44.5 212.5z" />
    <glyph glyph-name="p.ord" horiz-adv-x="896" 
d="M450 372v-64h-378v64q61 0 75.5 5t14.5 25v754q0 21 -6.5 30t-27.5 20l-62 30v34l222 66h26v-132q32 50 93 91t129 41q125 0 201.5 -96.5t76.5 -239.5q0 -176 -96 -284t-238 -108q-100 0 -166 70v-274q0 -12 3 -17t18 -9t40 -5t75 -1zM476 1230q-47 0 -92 -25t-70 -57
v-386q46 -76 144 -76q89 0 144.5 77t55.5 205q0 116 -48 189t-134 73z" />
    <glyph glyph-name="q.ord" horiz-adv-x="866" 
d="M824 372v-64h-378v64q50 0 74.5 1t39 5t17.5 9t3 17v334q-34 -51 -92.5 -90.5t-127.5 -39.5q-123 0 -200.5 95.5t-77.5 238.5q0 176 97 285t237 109q56 0 105 -21t81 -57l86 74h44v-930q0 -20 15 -25t77 -5zM236 976q0 -116 50.5 -190t137.5 -74q47 0 88.5 24.5
t67.5 57.5v388q-41 70 -140 70q-91 0 -147.5 -75.5t-56.5 -200.5z" />
    <glyph glyph-name="r.ord" horiz-adv-x="684" 
d="M460 686v-64h-380v64q62 0 77 5t15 25v440q0 21 -6.5 30t-27.5 20l-64 30v34l224 66h26v-196q43 74 102.5 135t117.5 61q49 0 76.5 -28.5t27.5 -69.5t-25.5 -64.5t-60.5 -23.5q-26 0 -55 23t-45 23q-26 -1 -66 -39.5t-72 -86.5v-352q0 -12 3 -17t18 -9t40 -5t75 -1z" />
    <glyph glyph-name="s.ord" horiz-adv-x="700" 
d="M360 1262q-55 0 -89.5 -28.5t-34.5 -75.5q0 -31 21.5 -53t55.5 -34.5t75 -24t82 -27t75 -37t55.5 -59t21.5 -89.5q0 -101 -84.5 -163.5t-203.5 -62.5q-125 0 -238 64l-16 184h60q23 -94 74.5 -134t129.5 -40q59 0 100.5 29t41.5 79q0 39 -28 65.5t-70.5 38.5t-91.5 28
t-91.5 34.5t-70.5 58.5t-28 99q0 93 76 157.5t188 64.5q105 0 206 -54v-176h-56q-14 77 -52 116.5t-108 39.5z" />
    <glyph glyph-name="t.ord" horiz-adv-x="612" 
d="M580 726q-91 -118 -236 -118q-85 0 -139.5 47.5t-54.5 124.5v464h-94v76h94v180l152 44v-224h218v-76h-218v-430q0 -110 104 -110q66 0 132 72z" />
    <glyph glyph-name="u.ord" horiz-adv-x="884" 
d="M830 642l-224 -34h-26v124q-37 -51 -97.5 -87.5t-128.5 -36.5q-98 0 -152 65.5t-54 176.5v340q0 23 -7 33.5t-27 16.5l-68 14v52l228 16h26v-452q0 -158 124 -158q85 0 156 78v400q0 23 -7 33.5t-27 16.5l-66 14v52l226 16h26v-564q0 -23 6.5 -31.5t27.5 -18.5l64 -30
v-36z" />
    <glyph glyph-name="v.ord" horiz-adv-x="810" 
d="M524 1320h260v-64q-49 0 -63 -5t-23 -25l-252 -612h-84l-252 612q-8 20 -22.5 25t-63.5 5v64h342v-64q-61 -2 -76.5 -5t-15.5 -15t6 -24l156 -426h6l166 426q8 16 8 24q0 12 -16 15t-76 5v64z" />
    <glyph glyph-name="w.ord" horiz-adv-x="1144" 
d="M742 614l-170 502h-6l-164 -502h-82l-210 612q-8 20 -22.5 25t-63.5 5v64h336v-64q-61 -2 -76.5 -5t-15.5 -15q0 -11 6 -26l122 -394h4l164 504h80l168 -504h6l130 396q1 3 2.5 8t2.5 9t1 7q0 12 -15.5 15t-76.5 5v64h258v-64q-49 0 -63.5 -5t-22.5 -25l-210 -612h-82z
" />
    <glyph glyph-name="x.ord" horiz-adv-x="862" 
d="M310 686v-64h-280v64q58 0 77 5.5t33 24.5l210 260l-196 250q-14 19 -30.5 24.5t-65.5 5.5v64h344v-64q-48 -1 -63 -5t-15 -15t12 -26l124 -158l124 158q12 18 12 26q0 11 -14.5 15t-63.5 5v64h274v-64q-55 0 -72 -6t-32 -24l-186 -228l220 -282q14 -18 34 -24t74 -6v-64
h-362v64q51 1 66.5 5.5t15.5 16.5q0 9 -12 24l-146 188l-146 -188q-12 -15 -12 -24q0 -12 14 -16.5t62 -5.5z" />
    <glyph glyph-name="y.ord" horiz-adv-x="810" 
d="M430 582q-55 -133 -121.5 -210.5t-156.5 -77.5q-48 0 -82 27t-34 69q0 35 23.5 56.5t52.5 21.5q22 0 39 -11t25.5 -25t20 -25t23.5 -11q61 0 150 222l-260 608q-8 20 -22.5 25t-63.5 5v64h342v-64q-61 -2 -76.5 -5t-15.5 -15t6 -24l160 -408h4l164 408q8 16 8 24
q0 12 -16 15t-76 5v64h260v-64q-49 0 -63 -5t-23 -25z" />
    <glyph glyph-name="z.ord" horiz-adv-x="764" 
d="M320 1260q-54 0 -79 -11.5t-43.5 -52t-33.5 -130.5h-58v254h564v-42l-410 -594h204h31.5t26 4t21 5t17 10.5t14.5 14t12.5 22t11 26.5t11.5 37t12.5 44t14.5 55h58l-22 -280h-596v42l416 596h-172z" />
    <glyph glyph-name="caron.Slovak" horiz-adv-x="1000" 
d="M428 1388q8 56 37 84t65 28q35 0 56.5 -22t21.5 -62q0 -28 -20 -68l-160 -334l-54 14z" />
    <glyph glyph-name="commaturn" horiz-adv-x="1000" 
d="M506 1326q0 -19 19.5 -29.5t42.5 -15t42.5 -24t19.5 -53.5q0 -48 -34.5 -77t-83.5 -29q-60 0 -98 42t-38 106q0 96 75 163.5t207 76.5l20 -72q-95 -10 -133.5 -32t-38.5 -56z" />
    <glyph glyph-name="uni00200326" horiz-adv-x="1000" 
d="M524 -332q0 19 -19.5 29.5t-42.5 15t-42.5 24t-19.5 53.5q0 48 34.5 77t83.5 29q60 0 98 -42t38 -106q0 -96 -75 -163.5t-207 -76.5l-20 72q95 10 133.5 32t38.5 56z" />
    <glyph glyph-name="guilsinglleft.cap" horiz-adv-x="596" 
d="M90 638v20l322 380h94l-222 -390l222 -390h-94z" />
    <glyph glyph-name="guilsinglright.cap" horiz-adv-x="596" 
d="M506 658v-20l-322 -380h-94l222 390l-222 390h94z" />
    <glyph glyph-name="guillemotleft.cap" horiz-adv-x="996" 
d="M90 638v20l322 380h94l-222 -390l222 -390h-94zM490 638v20l322 380h94l-222 -390l222 -390h-94z" />
    <glyph glyph-name="guillemotright.cap" horiz-adv-x="996" 
d="M906 658v-20l-322 -380h-94l222 390l-222 390h94zM506 658v-20l-322 -380h-94l222 390l-222 390h94z" />
    <glyph glyph-name="slash.cap" horiz-adv-x="838" 
d="M758 1540l-554 -1796h-124l554 1796h124z" />
    <glyph glyph-name="backslash.cap" horiz-adv-x="838" 
d="M634 -256l-554 1796h124l554 -1796h-124z" />
    <glyph glyph-name="bar.cap" horiz-adv-x="594" 
d="M354 1540v-1796h-114v1796h114z" />
    <glyph glyph-name="periodcentered.cap" horiz-adv-x="548" 
d="M416 654q0 -57 -41.5 -97.5t-100.5 -40.5t-100.5 40.5t-41.5 97.5t42 99.5t100 42.5t100 -42.5t42 -99.5z" />
    <glyph glyph-name="bullet.cap" horiz-adv-x="888" 
d="M444 344q-129 0 -220.5 92t-91.5 220q0 130 91.5 222t220.5 92t220.5 -92t91.5 -222q0 -128 -91.5 -220t-220.5 -92z" />
    <glyph glyph-name="hyphen.cap" horiz-adv-x="820" 
d="M688 586h-556v136h556v-136z" />
    <glyph glyph-name="endash.cap" horiz-adv-x="1160" 
d="M1028 598h-896v116h896v-116z" />
    <glyph glyph-name="emdash.cap" horiz-adv-x="2282" 
d="M2150 598h-2018v116h2018v-116z" />
    <glyph glyph-name="parenleft.cap" horiz-adv-x="820" 
d="M344 642q0 -270 96.5 -487t279.5 -367l-44 -64q-115 77 -206.5 169.5t-162 206t-109 251.5t-38.5 291t38.5 291t109 251.5t162 206t206.5 169.5l44 -64q-183 -150 -279.5 -367t-96.5 -487z" />
    <glyph glyph-name="parenright.cap" horiz-adv-x="820" 
d="M100 -212q183 150 279.5 367t96.5 487t-96.5 487t-279.5 367l44 64q115 -77 206.5 -169.5t162 -206t109 -251.5t38.5 -291t-38.5 -291t-109 -251.5t-162 -206t-206.5 -169.5z" />
    <glyph glyph-name="bracketleft.cap" horiz-adv-x="798" 
d="M698 -178v-78h-498v1796h498v-78l-222 -10q-73 -3 -96.5 -17.5t-23.5 -62.5v-1460q0 -48 23.5 -62.5t96.5 -17.5z" />
    <glyph glyph-name="bracketright.cap" horiz-adv-x="798" 
d="M100 -256v78l222 10q73 3 96.5 17.5t23.5 62.5v1460q0 48 -23.5 62.5t-96.5 17.5l-222 10v78h498v-1796h-498z" />
    <glyph glyph-name="braceleft.cap" horiz-adv-x="872" 
d="M80 614v52q109 16 167.5 70t58.5 160v236q0 185 130.5 296.5t335.5 111.5v-70q-141 -10 -224.5 -93t-83.5 -255v-218q0 -109 -62 -169.5t-174 -94.5q112 -34 174 -94.5t62 -169.5v-218q0 -172 83.5 -255t224.5 -93v-70q-205 0 -335.5 111.5t-130.5 296.5v236
q0 106 -58.5 160t-167.5 70z" />
    <glyph glyph-name="braceright.cap" horiz-adv-x="872" 
d="M792 686v-52q-109 -16 -167.5 -70t-58.5 -160v-236q0 -185 -130.5 -296.5t-335.5 -111.5v70q141 10 224.5 93t83.5 255v218q0 109 62 169.5t174 94.5q-112 34 -174 94.5t-62 169.5v218q0 172 -83.5 255t-224.5 93v70q205 0 335.5 -111.5t130.5 -296.5v-236
q0 -106 58.5 -160t167.5 -70z" />
    <glyph glyph-name="at.cap" horiz-adv-x="1960" 
d="M1178 282q83 0 173.5 47t166 126t125 194t49.5 239q0 216 -139 342t-405 126q-176 0 -341 -81.5t-281 -210t-186 -291.5t-70 -323q0 -270 176.5 -426t467.5 -156q300 0 564 156l28 -72q-110 -83 -280 -133.5t-344 -50.5q-226 0 -397 77t-268 228.5t-97 358.5
q0 121 37 245t103 235.5t163 209t212 169t255 112.5t286 41q304 0 484 -151t180 -403q0 -183 -109.5 -347t-281 -259.5t-351.5 -95.5q-114 0 -114 74q0 31 21.5 80t92.5 192h-10q-47 -66 -95 -122.5t-104.5 -109.5t-115 -83.5t-109.5 -30.5q-71 0 -114.5 48t-43.5 130
q0 154 95 321t242 278t287 111q59 0 100.5 -27t55.5 -69l68 96h134l-290 -634q-48 -108 -48 -134t28 -26zM752 300q48 0 128.5 68t154.5 160.5t128.5 197t54.5 170.5q0 46 -26 73t-76 27q-66 0 -143.5 -58t-141 -145t-106.5 -196t-43 -203t70 -94z" />
    <glyph glyph-name="uni0192.lt" 
d="M364 28q-50 -208 -173.5 -340t-296.5 -132q-76 0 -125 34t-49 80q0 42 26 69t68 27q28 0 53 -16t40.5 -35t38 -35t46.5 -16q28 0 52 10t50 36.5t48 70t44 115t40 166.5l108 566h-194v90h212l28 150q39 201 184 336.5t322 135.5q100 0 154 -33t54 -83q0 -44 -29 -70
t-71 -26q-20 0 -39 10.5t-35 26t-33 31t-41 26t-52 10.5q-64 0 -118 -68t-86 -200l-60 -246h218v-90h-240z" />
    <glyph glyph-name="Euro.lt" 
d="M1108 250q-149 -268 -412 -268q-185 0 -324 130.5t-180 367.5h-148v92h138q-4 56 -4 84q0 50 6 98h-142v92h158q52 218 204.5 356t339.5 138q146 0 246 -73.5t100 -160.5q0 -48 -28 -76t-66 -28q-36 0 -61.5 24.5t-41.5 59t-34 69t-51 59t-80 24.5q-124 0 -216.5 -104.5
t-125.5 -287.5h392l-26 -92h-376q-4 -56 -4 -88q0 -34 4 -94h342l-28 -92h-304q30 -180 118.5 -278t219.5 -98q189 0 314 204z" />
    <glyph glyph-name="dollar.lt" 
d="M1014 386q0 -150 -119 -258t-297 -126v-212h-102v212q-114 6 -225 41.5t-179 84.5l-34 312h94q69 -310 344 -336v502q-48 14 -81 24.5t-76.5 28t-72.5 35.5t-60.5 45t-49.5 57.5t-30 72t-12 89.5q0 138 108.5 239t273.5 119v198h102v-194q192 -10 348 -128v-262h-78
q-28 130 -89.5 202.5t-180.5 83.5v-472h1l1 -1h1h1l2 -1q172 -48 244 -87q157 -85 166 -249v-20zM270 996q0 -87 58.5 -136.5t167.5 -85.5v440q-100 -15 -163 -73.5t-63 -144.5zM854 344q0 49 -19 87t-57.5 65t-79.5 44.5t-100 35.5v-470q101 14 178.5 75.5t77.5 162.5z" />
    <glyph glyph-name="cent.lt" 
d="M992 220q-53 -99 -138 -161.5t-196 -74.5v-194h-102v192q-169 17 -282.5 141.5t-113.5 328.5q0 184 114.5 324t281.5 182v214h102v-200h14q127 0 215.5 -60.5t88.5 -129.5q0 -43 -27 -67.5t-65 -24.5q-34 0 -56 17.5t-35.5 43t-27.5 52t-40.5 46.5t-66.5 23v-770
q156 11 256 172zM336 486q0 -150 61.5 -247t158.5 -127v746q-99 -33 -159.5 -133.5t-60.5 -238.5z" />
    <glyph glyph-name="sterling.lt" 
d="M1114 332q-26 -156 -108.5 -254t-193.5 -98q-37 0 -73.5 9t-64.5 20.5t-64 34.5t-56 38t-57.5 44.5t-54.5 41.5q-48 -95 -114 -141.5t-142 -46.5q-78 0 -127 50t-49 126q0 83 57.5 138.5t140.5 55.5q77 0 170 -40q8 48 8 124q0 24 -10 194h-198v92h190q-8 108 -8 164
q0 193 117.5 324.5t284.5 131.5q135 0 213.5 -67t78.5 -151q0 -49 -26 -75.5t-64 -26.5t-61 23t-33 55.5t-20.5 65t-34.5 55.5t-65 23q-102 0 -155 -110t-53 -296v-116h260v-92h-262q-9 -222 -58 -366q93 -46 172 -71t172 -25q168 0 220 190zM112 162q0 -41 23.5 -66.5
t60.5 -25.5q54 0 96.5 38t65.5 114q-70 40 -138 40q-46 0 -77 -27.5t-31 -72.5z" />
    <glyph glyph-name="yen.lt" 
d="M858 88v-88h-600v88h34q118 0 149 9t31 43v324h-360v92h360v82l-60 100h-302v92h248l-202 342q-24 40 -48.5 50t-83.5 10v88h502v-88q-100 0 -141 -7t-41 -29q0 -20 22 -58l232 -402h8l226 402q18 32 18 56q0 22 -41 30t-139 8v88h426v-88q-60 0 -84 -10t-48 -50
l-202 -342h240v-92h-294l-64 -108v-74h360v-92h-360v-324q0 -34 31 -43t149 -9h34z" />
    <glyph glyph-name="zero.op" horiz-adv-x="1176" 
d="M1076 566q0 -105 -26.5 -198.5t-73 -163.5t-107.5 -121t-132.5 -77t-146.5 -26q-94 0 -182 41.5t-156.5 115.5t-110 186t-41.5 243t41.5 243t110 186t156.5 115.5t182 41.5q75 0 146.5 -26t132.5 -77t107.5 -121t73 -163.5t26.5 -198.5zM292 566q0 -224 79 -349t219 -125
t217 124.5t77 349.5t-77 349.5t-217 124.5t-219 -125t-79 -349z" />
    <glyph glyph-name="one.op" horiz-adv-x="934" 
d="M872 102v-102h-748v102h106q118 0 149 9t31 43v716h-266v110q71 0 117.5 2t84 11.5t58.5 18.5t42.5 33t33.5 44.5t34 62.5h72v-998q0 -34 31 -43t149 -9h106z" />
    <glyph glyph-name="two.op" horiz-adv-x="1044" 
d="M156 764l-76 42q151 346 436 346q142 0 236 -88.5t94 -237.5q0 -54 -15.5 -108t-37.5 -97.5t-63 -93.5t-72.5 -83.5t-88 -80.5t-88.5 -71t-93 -69.5t-84 -62.5v-8h442q53 0 89 35.5t91 144.5l66 -26l-92 -306h-824v80q266 220 335 284q172 157 224 275q31 71 31 145
q0 99 -54 158.5t-154 59.5q-178 0 -302 -238z" />
    <glyph glyph-name="three.op" horiz-adv-x="956" 
d="M784 882q0 -52 -21.5 -102t-50 -85t-72.5 -71t-72.5 -54.5t-67.5 -41.5q66 -12 126.5 -38.5t113.5 -68t84.5 -103.5t31.5 -136q0 -102 -45.5 -190.5t-118.5 -145.5t-161 -89.5t-175 -32.5q-79 0 -150 22.5t-117.5 66.5t-46.5 101q0 40 27 67t65 27q31 0 55.5 -18.5
t43 -45t39 -53t53 -45t73.5 -18.5q50 0 100.5 18t94.5 51.5t71.5 89t27.5 123.5q0 138 -106 215.5t-270 88.5l-20 56q174 110 248 189t74 167q0 80 -50.5 127t-133.5 47q-164 0 -286 -172l-66 46q166 278 414 278q129 0 208.5 -77.5t79.5 -192.5z" />
    <glyph glyph-name="four.op" horiz-adv-x="1174" 
d="M820 -276h-166v458h-602v78l606 872h162v-838h302v-112h-302v-458zM214 294h440v646h-8l-432 -638v-8z" />
    <glyph glyph-name="five.op" horiz-adv-x="948" 
d="M320 -276q-79 0 -150 22.5t-117.5 66.5t-46.5 101q0 40 27 67t65 27q31 0 55.5 -18.5t43 -45t39 -53t53 -45t73.5 -18.5q50 0 103.5 21t100 59.5t76.5 102t30 139.5q0 154 -127 249.5t-329 106.5l-42 16l116 610h512v-186h-454l-48 -268q227 -28 377.5 -152.5
t150.5 -307.5q0 -105 -46.5 -199t-120 -157.5t-163.5 -100.5t-178 -37z" />
    <glyph glyph-name="six.op" horiz-adv-x="1116" 
d="M1016 448q0 -122 -55 -228t-160.5 -173t-238.5 -67q-198 0 -330 157.5t-132 404.5q0 191 91.5 369t263.5 314.5t395 198.5l34 -80q-210 -73 -364.5 -238t-203.5 -390q130 130 320 130q92 0 178 -47t144 -140.5t58 -210.5zM294 520q0 -206 71 -322t197 -116
q125 0 197.5 93t72.5 231t-75 228t-201 90q-138 0 -254 -84q-8 -53 -8 -120z" />
    <glyph glyph-name="seven.op" horiz-adv-x="1028" 
d="M402 978q-27 0 -48.5 -3t-39 -6.5t-32 -15t-26 -21t-22 -32t-18.5 -39t-18.5 -52t-17.5 -62.5t-20 -77h-76l22 462h884v-82l-534 -1248q-33 -78 -94 -78q-37 0 -57.5 22.5t-20.5 57.5q0 29 16 64l546 1110h-444z" />
    <glyph glyph-name="eight.op" horiz-adv-x="1064" 
d="M964 362q0 -155 -122.5 -268.5t-303.5 -113.5q-185 0 -311.5 104.5t-126.5 259.5q0 126 76 217t220 159q-55 36 -95 69t-76.5 74.5t-55.5 91t-19 105.5q0 148 106 255t276 107q171 0 281.5 -91.5t110.5 -236.5q0 -94 -69.5 -191t-188.5 -165q53 -34 91 -61t80 -64.5
t67.5 -73.5t42.5 -82t17 -95zM306 1108q0 -34 10.5 -66t35 -63t46.5 -54t64.5 -53.5t68.5 -47.5t77 -50q76 47 118 135.5t42 176.5q0 114 -62.5 173t-173.5 59q-102 0 -164 -62t-62 -148zM264 350q0 -115 80.5 -190.5t193.5 -75.5q114 0 183 67t69 175q0 37 -10.5 70.5
t-35 64.5t-46.5 54t-65 53t-68 46.5t-77 47.5q-24 15 -36 22q-95 -50 -141.5 -136t-46.5 -198z" />
    <glyph glyph-name="nine.op" horiz-adv-x="1116" 
d="M1016 590q0 -191 -91.5 -369t-263.5 -314.5t-395 -198.5l-34 80q210 73 364.5 238t203.5 390q-130 -130 -320 -130q-92 0 -178 47t-144 140.5t-58 210.5q0 122 55 228t160.5 173t238.5 67q198 0 330 -157.5t132 -404.5zM284 726q0 -138 75 -228t201 -90q138 0 254 84
q8 53 8 120q0 206 -71 322t-197 116q-125 0 -197.5 -93t-72.5 -231z" />
    <glyph glyph-name="zero.lt" 
d="M1026 660q0 -306 -133.5 -493t-332.5 -187t-332.5 187t-133.5 493q0 305 134 492.5t332 187.5t332 -187.5t134 -492.5zM288 660q0 -127 15 -228t47 -178.5t85 -119.5t125 -42t125 42t85 119.5t47 178.5t15 228t-15 228t-47 178.5t-85 119.5t-125 42t-125 -42t-85 -119.5
t-47 -178.5t-15 -228z" />
    <glyph glyph-name="one.lt" 
d="M1044 108v-108h-888v108h186q118 0 149 9t31 43v898h-346v110q162 0 243.5 14.5t124.5 48.5t82 109h72v-1180q0 -34 31 -43t149 -9h166z" />
    <glyph glyph-name="two.lt" 
d="M160 946l-84 46q77 171 195 259.5t265 88.5q171 0 270.5 -103.5t99.5 -252.5q0 -62 -20.5 -128t-52 -123t-82.5 -121.5t-97 -114t-111.5 -109.5t-110.5 -99t-108 -91l-36 -30v-8h456q65 0 103 34.5t97 145.5l70 -26l-94 -314h-848v88q333 281 487.5 484t154.5 370
q0 108 -57 178t-173 70q-192 0 -324 -244z" />
    <glyph glyph-name="three.lt" 
d="M886 1072q0 -177 -272 -332q70 -12 131 -37t111 -64t79 -96.5t29 -126.5q0 -78 -31 -148.5t-83.5 -122t-119 -89.5t-139 -57t-143.5 -19q-93 0 -175.5 24.5t-133.5 69.5t-51 98q0 40 28 64t70 24q32 0 62 -18.5t54 -45.5t48.5 -54t57.5 -45.5t70 -18.5q74 0 143.5 30.5
t118 95.5t48.5 150q0 126 -95 192.5t-265 77.5l-22 52q172 108 240 181.5t68 164.5q0 72 -53.5 120t-142.5 48q-93 0 -168 -52.5t-142 -159.5l-78 56q84 151 200 228.5t250 77.5q132 0 219 -74.5t87 -193.5z" />
    <glyph glyph-name="four.lt" 
d="M982 0h-532v88q118 0 149 9t31 43v278h-596v70l600 832h168v-798h282v-104h-282v-278q0 -34 31 -43t149 -9v-88zM184 522h446v626h-8l-438 -618v-8z" />
    <glyph glyph-name="five.lt" 
d="M478 78q57 0 110.5 18.5t99 54t73 96t27.5 135.5q0 86 -43.5 149.5t-119 98t-161.5 50.5t-186 16l-44 16l78 608h582v-186h-516l-34 -274q131 -5 239 -33t192 -78t130.5 -130t46.5 -183q0 -128 -69.5 -233.5t-185 -164t-249.5 -58.5q-142 0 -238 51.5t-96 132.5
q0 40 27.5 66t68.5 26q32 0 61 -18.5t50.5 -44.5t43.5 -52t51 -44.5t62 -18.5z" />
    <glyph glyph-name="six.lt" 
d="M1032 434q0 -87 -34 -169.5t-92.5 -145.5t-145.5 -101t-186 -38q-132 0 -241 71t-172 197t-63 280q0 196 95.5 365t274.5 286.5t414 160.5l36 -88q-106 -24 -203 -72t-179 -118.5t-142.5 -168t-87.5 -211.5q57 61 144 100.5t194 39.5q70 0 139 -27t124.5 -75.5t90 -123.5
t34.5 -162zM284 496q0 -194 83 -304t215 -110q125 0 196.5 93t71.5 219q0 132 -78.5 220t-207.5 88q-151 0 -272 -90q-8 -51 -8 -116z" />
    <glyph glyph-name="seven.lt" 
d="M432 1160q-28 0 -46.5 -0.5t-38 -4.5t-30.5 -6.5t-24.5 -14.5t-20 -19.5t-17 -30.5t-15 -38t-14 -52t-15.5 -63t-17 -79h-80l22 468h890v-88l-496 -1232h-188v22l540 1138h-450z" />
    <glyph glyph-name="eight.lt" 
d="M1008 344q0 -146 -128.5 -255t-317.5 -109q-194 0 -326 98t-132 246q0 208 302 344q-115 61 -179.5 133t-64.5 177q0 68 28 132.5t77 116t125 82.5t164 31q175 0 288.5 -95t113.5 -235q0 -87 -71.5 -170.5t-196.5 -145.5q72 -36 120 -65t98 -72t75 -96t25 -117zM320 1008
q0 -39 18 -74.5t42 -60.5t70.5 -54.5t79.5 -46.5t94 -46q82 43 129 115.5t47 154.5q0 109 -65.5 174.5t-178.5 65.5q-107 0 -171.5 -67t-64.5 -161zM272 330q0 -108 85.5 -177t204.5 -69q120 0 197 63t77 163q0 27 -6 51.5t-20.5 47t-28 40t-40.5 37t-44 32t-53 31.5t-54 28
t-60 29t-58 28q-94 -48 -147 -128.5t-53 -175.5z" />
    <glyph glyph-name="nine.lt" 
d="M1022 792q0 -196 -95.5 -365t-274.5 -286.5t-414 -160.5l-36 88q106 24 203 72t179 118.5t142.5 168t87.5 211.5q-57 -61 -144 -100.5t-194 -39.5q-70 0 -139 27t-124.5 75.5t-90 123.5t-34.5 162t34 169.5t92.5 145.5t145.5 101t186 38q132 0 241 -71t172 -197t63 -280z
M270 926q0 -132 78.5 -220t207.5 -88q151 0 272 90q8 51 8 116q0 194 -83 304t-215 110q-125 0 -196.5 -93t-71.5 -219z" />
    <glyph glyph-name="zero.ot" 
d="M1028 566q0 -131 -37.5 -242.5t-101.5 -186t-148.5 -116t-178.5 -41.5t-179 41.5t-149.5 116t-103 186t-38.5 242.5t38.5 242.5t103 186t149.5 116t179 41.5t178.5 -41.5t148.5 -116t101.5 -186t37.5 -242.5zM284 566q0 -228 70 -351t208 -123q137 0 205.5 122.5
t68.5 351.5t-68.5 351.5t-205.5 122.5q-138 0 -208 -123t-70 -351z" />
    <glyph glyph-name="one.ot" 
d="M1004 108v-108h-848v108h166q118 0 149 9t31 43v710h-326v110q98 0 159.5 5t106 14t73 31.5t47.5 48t44 73.5h72v-992q0 -34 31 -43t149 -9h146z" />
    <glyph glyph-name="two.ot" 
d="M194 764l-76 42q151 346 436 346q142 0 236 -88.5t94 -237.5q0 -54 -15.5 -108t-37.5 -97.5t-63 -93.5t-72.5 -83.5t-88 -80.5t-88.5 -71t-93 -69.5t-84 -62.5v-8h442q53 0 89 35.5t91 144.5l66 -26l-92 -306h-824v80q266 220 335 284q172 157 224 275q31 71 31 145
q0 99 -54 158.5t-154 59.5q-178 0 -302 -238z" />
    <glyph glyph-name="three.ot" 
d="M866 882q0 -52 -21.5 -102t-50 -85t-72.5 -71t-72.5 -54.5t-67.5 -41.5q66 -12 126.5 -38.5t113.5 -68t84.5 -103.5t31.5 -136q0 -102 -45.5 -190.5t-118.5 -145.5t-161 -89.5t-175 -32.5q-79 0 -150 22.5t-117.5 66.5t-46.5 101q0 40 27 67t65 27q31 0 55.5 -18.5
t43 -45t39 -53t53 -45t73.5 -18.5q50 0 100.5 18t94.5 51.5t71.5 89t27.5 123.5q0 138 -106 215.5t-270 88.5l-20 56q174 110 248 189t74 167q0 80 -50.5 127t-133.5 47q-164 0 -286 -172l-66 46q166 278 414 278q129 0 208.5 -77.5t79.5 -192.5z" />
    <glyph glyph-name="four.ot" 
d="M792 -276h-166v458h-602v78l606 872h162v-838h302v-112h-302v-458zM186 294h440v646h-8l-432 -638v-8z" />
    <glyph glyph-name="five.ot" 
d="M406 -276q-79 0 -150 22.5t-117.5 66.5t-46.5 101q0 40 27 67t65 27q31 0 55.5 -18.5t43 -45t39 -53t53 -45t73.5 -18.5q50 0 103.5 21t100 59.5t76.5 102t30 139.5q0 154 -127 249.5t-329 106.5l-42 16l116 610h512v-186h-454l-48 -268q227 -28 377.5 -152.5
t150.5 -307.5q0 -105 -46.5 -199t-120 -157.5t-163.5 -100.5t-178 -37z" />
    <glyph glyph-name="six.ot" 
d="M1018 448q0 -122 -55 -228t-160.5 -173t-238.5 -67q-198 0 -330 157.5t-132 404.5q0 191 91.5 369t263.5 314.5t395 198.5l34 -80q-210 -73 -364.5 -238t-203.5 -390q130 130 320 130q92 0 178 -47t144 -140.5t58 -210.5zM296 520q0 -206 71 -322t197 -116
q125 0 197.5 93t72.5 231t-75 228t-201 90q-138 0 -254 -84q-8 -53 -8 -120z" />
    <glyph glyph-name="seven.ot" 
d="M448 978q-27 0 -48.5 -3t-39 -6.5t-32 -15t-26 -21t-22 -32t-18.5 -39t-18.5 -52t-17.5 -62.5t-20 -77h-76l22 462h884v-82l-534 -1248q-33 -78 -94 -78q-37 0 -57.5 22.5t-20.5 57.5q0 29 16 64l546 1110h-444z" />
    <glyph glyph-name="eight.ot" 
d="M992 362q0 -155 -122.5 -268.5t-303.5 -113.5q-185 0 -311.5 104.5t-126.5 259.5q0 126 76 217t220 159q-55 36 -95 69t-76.5 74.5t-55.5 91t-19 105.5q0 148 106 255t276 107q171 0 281.5 -91.5t110.5 -236.5q0 -94 -69.5 -191t-188.5 -165q53 -34 91 -61t80 -64.5
t67.5 -73.5t42.5 -82t17 -95zM334 1108q0 -34 10.5 -66t35 -63t46.5 -54t64.5 -53.5t68.5 -47.5t77 -50q76 47 118 135.5t42 176.5q0 114 -62.5 173t-173.5 59q-102 0 -164 -62t-62 -148zM292 350q0 -115 80.5 -190.5t193.5 -75.5q114 0 183 67t69 175q0 37 -10.5 70.5
t-35 64.5t-46.5 54t-65 53t-68 46.5t-77 47.5q-24 15 -36 22q-95 -50 -141.5 -136t-46.5 -198z" />
    <glyph glyph-name="nine.ot" 
d="M1018 590q0 -191 -91.5 -369t-263.5 -314.5t-395 -198.5l-34 80q210 73 364.5 238t203.5 390q-130 -130 -320 -130q-92 0 -178 47t-144 140.5t-58 210.5q0 122 55 228t160.5 173t238.5 67q198 0 330 -157.5t132 -404.5zM286 726q0 -138 75 -228t201 -90q138 0 254 84
q8 53 8 120q0 206 -71 322t-197 116q-125 0 -197.5 -93t-72.5 -231z" />
    <glyph glyph-name="zero.dnom" horiz-adv-x="858" 
d="M738 386q0 -176 -91 -288t-219 -112t-219 112t-91 288t91 288t219 112t219 -112t91 -288zM270 386q0 -157 40 -244.5t118 -87.5t118 87.5t40 244.5t-40 244.5t-118 87.5t-118 -87.5t-40 -244.5z" />
    <glyph glyph-name="one.dnom" horiz-adv-x="716" 
d="M622 72v-72h-506v72h82q69 0 87.5 5t18.5 25v500h-182v74q119 0 179 24.5t93 85.5h52v-684q0 -20 18.5 -25t87.5 -5h70z" />
    <glyph glyph-name="two.dnom" horiz-adv-x="748" 
d="M140 550l-48 28q45 100 118 154t162 54q102 0 162 -60t60 -148q0 -47 -20.5 -96.5t-50.5 -90t-75.5 -85.5t-84 -77.5t-87.5 -72.5l-30 -24v-6h252q38 0 60.5 20t59.5 86l42 -16l-58 -216h-510v58q189 161 269.5 272t80.5 206q0 60 -32 99t-96 39q-102 0 -174 -124z" />
    <glyph glyph-name="three.dnom" horiz-adv-x="732" 
d="M564 628q0 -33 -14.5 -62.5t-41.5 -53.5t-49.5 -39.5t-52.5 -32.5q92 -15 152 -62.5t60 -131.5q0 -76 -51 -137.5t-123.5 -92t-145.5 -30.5q-89 0 -153.5 33t-64.5 85q0 27 18.5 43.5t45.5 16.5q25 0 48 -18t37.5 -39t36 -39t44.5 -18q64 0 113 43.5t49 118.5
q0 142 -198 152l-14 36q90 58 125 97.5t35 90.5q0 40 -28.5 66t-75.5 26q-91 0 -158 -104l-50 34q106 176 270 176q80 0 133 -44t53 -114z" />
    <glyph glyph-name="four.dnom" horiz-adv-x="868" 
d="M700 0h-364v54q75 0 94.5 5t19.5 25v158h-358v50l388 484h108v-464h186v-70h-186v-158q0 -19 20 -24.5t92 -5.5v-54zM190 312h260v326h-6l-254 -322v-4z" />
    <glyph glyph-name="five.dnom" horiz-adv-x="718" 
d="M308 50q72 0 122 42t50 118q0 90 -84 131t-212 41l-24 10l50 382h358v-134h-322l-16 -132q108 -4 188.5 -29.5t132 -81.5t51.5 -139q0 -114 -90 -193t-216 -79q-87 0 -148.5 32t-61.5 84q0 26 19 43t47 17q25 0 46.5 -17.5t35 -38.5t33.5 -38.5t41 -17.5z" />
    <glyph glyph-name="six.dnom" horiz-adv-x="808" 
d="M700 254q0 -107 -81.5 -187.5t-204.5 -80.5q-125 0 -211.5 92.5t-86.5 229.5q0 172 131 302.5t351 175.5l22 -56q-122 -34 -213.5 -114.5t-124.5 -203.5q78 70 180 70q94 0 166 -64t72 -164zM266 290q0 -112 43.5 -176t110.5 -64q64 0 100 53.5t36 126.5q0 78 -41.5 127
t-112.5 49q-72 0 -130 -40q-6 -36 -6 -76z" />
    <glyph glyph-name="seven.dnom" horiz-adv-x="752" 
d="M298 648q-28 0 -42.5 -0.5t-30 -8t-21.5 -14t-15.5 -29.5t-14.5 -44t-16 -66h-52l14 290h538v-58l-282 -718h-140v16l320 632h-258z" />
    <glyph glyph-name="eight.dnom" horiz-adv-x="800" 
d="M682 210q0 -90 -80 -157t-200 -67q-124 0 -205 57.5t-81 146.5q0 118 174 192q-65 34 -101.5 77.5t-36.5 108.5q0 85 68.5 151.5t175.5 66.5q110 0 182 -56t72 -138q0 -51 -39.5 -96t-108.5 -74q84 -42 132 -90.5t48 -121.5zM276 604q0 -27 13.5 -49.5t41 -42t54 -34
t66.5 -33.5q3 -1 4 -1.5l3 -1.5l4 -2q76 55 76 150q0 60 -37 96t-99 36q-59 0 -92.5 -34.5t-33.5 -83.5zM238 196q0 -66 48 -106t114 -40q65 0 105.5 36t40.5 92q0 23 -10 43.5t-22 34t-39 30.5t-43 25.5t-53 26t-51 24.5q-43 -28 -66.5 -72t-23.5 -94z" />
    <glyph glyph-name="nine.dnom" horiz-adv-x="808" 
d="M692 464q0 -172 -130.5 -302t-351.5 -176l-22 58q123 33 214.5 114.5t123.5 201.5q-80 -68 -180 -68q-94 0 -165 63t-71 163q0 108 80.5 188t203.5 80q125 0 211.5 -92.5t86.5 -229.5zM252 542q0 -77 41.5 -125.5t112.5 -48.5q70 0 130 38q6 36 6 76q0 113 -43.5 177.5
t-110.5 64.5q-64 0 -100 -54t-36 -128z" />
    <glyph glyph-name="period.tab" horiz-adv-x="560" 
d="M422 118q0 -57 -41.5 -97.5t-100.5 -40.5t-100.5 40.5t-41.5 97.5t42 99.5t100 42.5t100 -42.5t42 -99.5z" />
    <glyph glyph-name="comma.tab" horiz-adv-x="560" 
d="M290 -38q0 21 -15.5 35t-38 23t-45 20.5t-38 34t-15.5 55.5q0 59 37 93.5t91 34.5q66 0 107 -56.5t41 -145.5q0 -144 -79.5 -237.5t-226.5 -120.5l-18 72q200 58 200 192z" />
    <glyph glyph-name="colon.tab" horiz-adv-x="560" 
d="M422 760q0 -57 -41.5 -97.5t-100.5 -40.5t-100.5 40.5t-41.5 97.5t42 99.5t100 42.5t100 -42.5t42 -99.5zM422 118q0 -57 -41.5 -97.5t-100.5 -40.5t-100.5 40.5t-41.5 97.5t42 99.5t100 42.5t100 -42.5t42 -99.5z" />
    <glyph glyph-name="semicolon.tab" horiz-adv-x="560" 
d="M422 760q0 -57 -41.5 -97.5t-100.5 -40.5t-100.5 40.5t-41.5 97.5t42 99.5t100 42.5t100 -42.5t42 -99.5zM290 -38q0 21 -15.5 35t-38 23t-45 20.5t-38 34t-15.5 55.5q0 59 37 93.5t91 34.5q66 0 107 -56.5t41 -145.5q0 -144 -79.5 -237.5t-226.5 -120.5l-18 72
q200 58 200 192z" />
    <glyph glyph-name="space.tab" horiz-adv-x="560" 
 />
    <glyph glyph-name="thinspace" horiz-adv-x="160" 
 />
    <glyph glyph-name="f_f_short" horiz-adv-x="1276" 
d="M828 124v718h-438v-714q0 -29 28.5 -35.5t161.5 -6.5v-86h-492v86q89 0 109.5 6t20.5 32v718h-148v98h148v68q0 198 118.5 335t279.5 137q78 0 123 -32.5t45 -83.5q0 -46 -25.5 -68t-60.5 -22q-37 0 -89.5 42t-90.5 42q-60 0 -94 -62.5t-34 -187.5v-168h438v88
q0 199 106.5 335.5t255.5 136.5q74 0 118 -32.5t44 -83.5q0 -45 -28.5 -67.5t-61.5 -22.5q-29 0 -54 21.5t-49 43t-49 21.5q-110 0 -110 -252v-188h228v-98h-228v-714q0 -29 28.5 -35.5t161.5 -6.5v-86h-492v86q89 0 109.5 6t20.5 32z" />
    <glyph glyph-name="H.sc" horiz-adv-x="1410" 
d="M582 84v-84h-484v84q99 0 125.5 8t26.5 38v872q0 30 -26.5 38t-125.5 8v84h484v-84q-99 0 -125.5 -8t-26.5 -38v-382h550v382q0 30 -26.5 38t-125.5 8v84h484v-84q-100 0 -126 -8t-26 -38v-872q0 -30 26 -38t126 -8v-84h-484v84q99 0 125.5 8t26.5 38v406h-550v-406
q0 -30 26.5 -38t125.5 -8z" />
    <glyph glyph-name="L.sc" horiz-adv-x="1142" 
d="M1040 394l-36 -394h-906v84q99 0 125.5 8t26.5 38v872q0 30 -26.5 38t-125.5 8v84h484v-84q-99 0 -125.5 -8t-26.5 -38v-918h194q66 0 109.5 6.5t82.5 24.5t65 53.5t47.5 89.5t39.5 136h72z" />
    <glyph glyph-name="Dcroat.sc" horiz-adv-x="1326" 
d="M1206 580q0 -257 -178.5 -418.5t-467.5 -161.5h-442v84q99 0 125.5 8t26.5 38v406h-156v84h156v382q0 30 -26.5 38t-125.5 8v84h440q293 0 470.5 -149.5t177.5 -402.5zM450 84h108q214 0 333 133t119 359q0 224 -118.5 348t-335.5 124h-106v-428h242v-84h-242v-452z" />
    <glyph glyph-name="AE.sc" horiz-adv-x="1814" 
d="M470 84v-84h-426v84q54 0 80 4t39.5 13.5t28.5 32.5l592 912q-69 8 -158 8v78h1002l14 -360h-68q-42 151 -64 191q-32 61 -95 77q-34 8 -85 8h-266v-428h106q42 0 64.5 1t43.5 8.5t29.5 15.5t17.5 31.5t12.5 47t8.5 70.5h70v-432h-62q-6 46 -10.5 71t-14.5 47.5t-19 31
t-31 15.5t-44 8t-65 1h-106v-452h230q84 0 134 10.5t92.5 43.5t68.5 93.5t49 162.5h72l-36 -394h-942v84q99 0 125.5 8t26.5 38v284h-394l-166 -258q-16 -24 -16 -38q0 -20 33.5 -27t128.5 -7zM546 498h338v524z" />
    <glyph glyph-name="OE.sc" horiz-adv-x="1806" 
d="M768 0q-293 0 -470.5 149.5t-177.5 402.5q0 257 178.5 418.5t467.5 161.5h852l16 -360h-68q-42 151 -64 191q-32 61 -94 77q-33 8 -84 8h-268v-428h104q43 0 65 1t43.5 8.5t30 15.5t17.5 32t12.5 46.5t9.5 70.5h70v-432h-64q-6 46 -10 71t-13.5 47.5t-18.5 31t-31.5 15.5
t-45 8t-65.5 1h-104v-452h232q66 0 109.5 6.5t82 24.5t64.5 53.5t47.5 89.5t40.5 136h70l-36 -394h-898zM876 1048h-108q-214 0 -333 -133t-119 -359q0 -224 118.5 -348t335.5 -124h106v964z" />
    <glyph glyph-name="Igrave.sc" horiz-adv-x="682" 
d="M302 1574l196 -300l-42 -36l-282 234q-52 43 -52 88q0 37 22 58.5t60 21.5q55 0 98 -66zM582 84v-84h-484v84q99 0 125.5 8t26.5 38v872q0 30 -26.5 38t-125.5 8v84h484v-84q-99 0 -125.5 -8t-26.5 -38v-872q0 -30 26.5 -38t125.5 -8z" />
    <glyph glyph-name="D.sc" horiz-adv-x="1306" 
d="M98 1132h440q293 0 470.5 -149.5t177.5 -402.5q0 -257 -178.5 -418.5t-467.5 -161.5h-442v84q99 0 125.5 8t26.5 38v872q0 30 -26.5 38t-125.5 8v84zM430 84h108q214 0 333 133t119 359q0 224 -118.5 348t-335.5 124h-106v-964z" />
    <glyph glyph-name="multiply.op" 
d="M1006 214l-84 -86l-362 362l-362 -362l-84 86l362 362l-362 362l84 84l362 -362l362 362l84 -84l-362 -362z" />
    <glyph glyph-name="Hbar.sc" horiz-adv-x="1450" 
d="M602 84v-84h-484v84q99 0 125.5 8t26.5 38v628h-152v84h152v160q0 30 -26.5 38t-125.5 8v84h484v-84q-99 0 -125.5 -8t-26.5 -38v-160h550v160q0 30 -26.5 38t-125.5 8v84h484v-84q-100 0 -126 -8t-26 -38v-160h152v-84h-152v-628q0 -30 26 -38t126 -8v-84h-484v84
q99 0 125.5 8t26.5 38v346h-550v-346q0 -30 26.5 -38t125.5 -8zM450 560h550v198h-550v-198z" />
    <glyph glyph-name="Cacute.sc" horiz-adv-x="1172" 
d="M490 1274l196 300q43 66 98 66q38 0 60 -21.5t22 -58.5q0 -45 -52 -88l-282 -234zM994 766q-55 138 -142 213t-190 75q-154 0 -250 -128.5t-96 -355.5q0 -210 104.5 -343t263.5 -133q97 0 179.5 46.5t138.5 137.5l68 -54q-64 -114 -169.5 -179t-246.5 -65
q-106 0 -202.5 41.5t-170 115t-117.5 183.5t-44 238q0 132 44 245t118.5 188.5t172.5 118t205 42.5q142 0 254 -98l58 86h64l18 -374h-60z" />
    <glyph glyph-name="equal.op" 
d="M100 702v120h920v-120h-920zM100 342v120h920v-120h-920z" />
    <glyph glyph-name="uni0122.sc" horiz-adv-x="1306" 
d="M912 402q0 30 -26 38t-126 8v82h484v-82q-99 0 -125.5 -8t-26.5 -38v-276q-82 -71 -188.5 -108.5t-221.5 -37.5q-149 0 -276.5 70t-206.5 204t-79 304q0 132 46.5 245t123 188.5t176 118t206.5 42.5q150 0 262 -98l58 86h64l16 -374h-58q-57 140 -144 213t-196 73
q-155 0 -257.5 -130t-102.5 -358q0 -223 112 -354.5t276 -131.5q140 0 210 54v270zM716 -332q0 19 -19.5 29.5t-42.5 15t-42.5 24t-19.5 53.5q0 48 34.5 77t83.5 29q60 0 98 -42t38 -106q0 -96 -75 -163.5t-207 -76.5l-20 72q95 10 133.5 32t38.5 56z" />
    <glyph glyph-name="Eth.sc" horiz-adv-x="1326" 
d="M1206 580q0 -257 -178.5 -418.5t-467.5 -161.5h-442v84q99 0 125.5 8t26.5 38v406h-156v84h156v382q0 30 -26.5 38t-125.5 8v84h440q293 0 470.5 -149.5t177.5 -402.5zM450 84h108q214 0 333 133t119 359q0 224 -118.5 348t-335.5 124h-106v-428h242v-84h-242v-452z" />
    <glyph glyph-name="less.op" 
d="M112 524v106l896 444v-146l-734 -354l734 -350v-148z" />
    <glyph glyph-name="greater.op" 
d="M1008 630v-106l-896 -448v148l734 350l-734 354v146z" />
    <glyph glyph-name="Ccaron.sc" horiz-adv-x="1172" 
d="M980 1610l-234 -336q-26 -36 -68.5 -36t-67.5 36l-234 336l46 40l256 -248l256 248zM994 766q-55 138 -142 213t-190 75q-154 0 -250 -128.5t-96 -355.5q0 -210 104.5 -343t263.5 -133q97 0 179.5 46.5t138.5 137.5l68 -54q-64 -114 -169.5 -179t-246.5 -65
q-106 0 -202.5 41.5t-170 115t-117.5 183.5t-44 238q0 132 44 245t118.5 188.5t172.5 118t205 42.5q142 0 254 -98l58 86h64l18 -374h-60z" />
    </font>
</defs>
</svg>
