<?xml version="1.0" standalone="no"?>
<!DOCTYPE svg PUBLIC "-//W3C//DTD SVG 1.1//EN" "http://www.w3.org/Graphics/SVG/1.1/DTD/svg11.dtd" >
<svg xmlns="http://www.w3.org/2000/svg" xmlns:xlink="http://www.w3.org/1999/xlink" version="1.1">
<metadata>
Created by FontForge 20170731 at Mon May  9 08:32:43 2022
 By Aleksey,,,
Copyright 2022, Kris Sowersby, Klim Type Foundry.
</metadata>
<defs>
<font id="UntitledSans-LightItalic" horiz-adv-x="1351" >
  <font-face 
    font-family="Untitled Sans Light"
    font-weight="300"
    font-style="italic"
    font-stretch="normal"
    units-per-em="2048"
    panose-1="2 11 3 3 3 2 2 13 2 3"
    ascent="1638"
    descent="-410"
    x-height="1024"
    cap-height="1462"
    bbox="-487 -449 2281 1954"
    underline-thickness="102"
    underline-position="-307"
    slope="-9"
    unicode-range="U+0020-2212"
  />
<missing-glyph horiz-adv-x="2523" 
d="M2111 969v-113q-49 -16 -108 -16q-172 0 -172 172v256h-74v106h74v133h151v-133h117v-106h-117v-238q0 -69 62 -69q28 0 67 8zM735 1374v-82q20 43 62 70t100 27q92 0 143.5 -54t51.5 -149v-338h-154v303q0 121 -96 121q-49 0 -78 -34.5t-29 -104.5v-285h-153v526h153z
M1171 1114q0 126 76 200.5t199 74.5q121 0 196.5 -74.5t75.5 -200.5q0 -127 -75 -201.5t-197 -74.5q-123 0 -199 74.5t-76 201.5zM1323 1114q0 -80 31.5 -124t91.5 -44q57 0 88 44.5t31 123.5q0 77 -31 120.5t-88 43.5q-61 0 -92 -43t-31 -121zM285 848v174h174v-174h-174z
M2111 621q-39 8 -67 8q-62 0 -62 -70v-31h117v-106h-117v-422h-151v422h-74v106h74v50q0 172 172 172q56 0 108 -17v-112zM940 0v84q-20 -42 -64 -69t-100 -27q-105 0 -168 76t-63 200q0 123 63 200t168 77q54 0 97 -27t65 -68v297h154v-743h-152zM1706 166
q-24 -85 -89.5 -131.5t-166.5 -46.5q-123 0 -201 74t-78 200q0 125 80 201t199 76q127 0 195.5 -77.5t68.5 -189.5v-47h-395q15 -129 131 -129q85 0 109 70h147zM1450 432q-52 0 -84 -30t-43 -85h242q-2 48 -31 81.5t-84 33.5zM942 254v18q0 74 -32.5 116t-90.5 42
t-90.5 -45t-32.5 -121q0 -77 32.5 -122.5t90.5 -45.5t90.5 42.5t32.5 115.5z" />
    <glyph glyph-name="f_idieresis" unicode="f&#xef;" horiz-adv-x="1128" 
d="M440 1176l-24 -152h227l-14 -96h-228l-147 -928h-117l148 928h-152l14 96h152l27 160q24 154 117.5 241.5t242.5 87.5q37 0 87.5 -9.5t72.5 -22.5l-17 -101q-77 29 -153 29q-101 0 -159 -57.5t-77 -175.5zM1102 1260l28 180h136l-29 -180h-135zM895 1024h121l-162 -1024
h-121z" />
    <glyph glyph-name=".notdef" horiz-adv-x="2523" 
d="M2111 969v-113q-49 -16 -108 -16q-172 0 -172 172v256h-74v106h74v133h151v-133h117v-106h-117v-238q0 -69 62 -69q28 0 67 8zM735 1374v-82q20 43 62 70t100 27q92 0 143.5 -54t51.5 -149v-338h-154v303q0 121 -96 121q-49 0 -78 -34.5t-29 -104.5v-285h-153v526h153z
M1171 1114q0 126 76 200.5t199 74.5q121 0 196.5 -74.5t75.5 -200.5q0 -127 -75 -201.5t-197 -74.5q-123 0 -199 74.5t-76 201.5zM1323 1114q0 -80 31.5 -124t91.5 -44q57 0 88 44.5t31 123.5q0 77 -31 120.5t-88 43.5q-61 0 -92 -43t-31 -121zM285 848v174h174v-174h-174z
M2111 621q-39 8 -67 8q-62 0 -62 -70v-31h117v-106h-117v-422h-151v422h-74v106h74v50q0 172 172 172q56 0 108 -17v-112zM940 0v84q-20 -42 -64 -69t-100 -27q-105 0 -168 76t-63 200q0 123 63 200t168 77q54 0 97 -27t65 -68v297h154v-743h-152zM1706 166
q-24 -85 -89.5 -131.5t-166.5 -46.5q-123 0 -201 74t-78 200q0 125 80 201t199 76q127 0 195.5 -77.5t68.5 -189.5v-47h-395q15 -129 131 -129q85 0 109 70h147zM1450 432q-52 0 -84 -30t-43 -85h242q-2 48 -31 81.5t-84 33.5zM942 254v18q0 74 -32.5 116t-90.5 42
t-90.5 -45t-32.5 -121q0 -77 32.5 -122.5t90.5 -45.5t90.5 42.5t32.5 115.5z" />
    <glyph glyph-name=".null" horiz-adv-x="0" 
 />
    <glyph glyph-name="nonmarkingreturn" horiz-adv-x="682" 
 />
    <glyph glyph-name="space" unicode=" " horiz-adv-x="450" 
 />
    <glyph glyph-name="exclam" unicode="!" horiz-adv-x="606" 
d="M381 1462h143l-190 -1038h-92zM131 0l29 178h178l-29 -178h-178z" />
    <glyph glyph-name="quotedbl" unicode="&#x22;" horiz-adv-x="802" 
d="M582 967l67 540h135l-102 -540h-100zM270 967l66 540h137l-102 -540h-101z" />
    <glyph glyph-name="numbersign" unicode="#" 
d="M610 82l164 401h-342l-164 -401h-112l163 401h-256l35 95h260l138 333h-273l33 97h279l163 401h115l-164 -401h340l164 401h113l-164 -401h256l-33 -97h-262l-137 -333h274l-35 -95h-278l-164 -401h-113zM471 578h342l137 333h-342z" />
    <glyph glyph-name="dollar" unicode="$" horiz-adv-x="1323" 
d="M1190 442q0 -195 -156 -328.5t-389 -133.5l-33 -203h-102l35 207q-201 23 -326.5 136t-128.5 306h121q9 -155 103.5 -236.5t246.5 -97.5l98 600l-104 27q-68 17 -120 39.5t-98.5 58t-71.5 89.5t-25 124q0 193 150 324t382 131h19l30 192h103l-33 -200q171 -26 269 -123
t102 -250h-119q-3 104 -75.5 172t-195.5 90l-96 -588l103 -24q150 -38 230.5 -111.5t80.5 -200.5zM598 823l80 -20l94 571h-8q-191 0 -297.5 -97.5t-106.5 -240.5q0 -85 57 -134t181 -79zM827 651l-69 17l-94 -580q175 5 290 97.5t115 232.5q0 87 -57 144t-185 89z" />
    <glyph glyph-name="percent" unicode="%" horiz-adv-x="1617" 
d="M473 852q-119 0 -198.5 79t-79.5 197q0 141 109 250t249 109q119 0 198.5 -79.5t79.5 -197.5q0 -141 -109 -249.5t-249 -108.5zM1419 1462h131l-1284 -1462h-129zM487 956q97 0 166.5 74.5t69.5 167.5q0 79 -52 131.5t-130 52.5q-99 0 -168.5 -73.5t-69.5 -165.5
q0 -81 52.5 -134t131.5 -53zM1135 -23q-119 0 -199 79.5t-80 197.5q0 141 109 249.5t249 108.5q120 0 199.5 -79.5t79.5 -196.5q0 -141 -109 -250t-249 -109zM1147 82q98 0 167.5 74t69.5 166q0 81 -52 133.5t-130 52.5q-98 0 -167.5 -74t-69.5 -168q0 -79 52 -131.5
t130 -52.5z" />
    <glyph glyph-name="ampersand" unicode="&#x26;" horiz-adv-x="1507" 
d="M1169 0l-137 164q-223 -189 -522 -189q-173 0 -289.5 102.5t-116.5 256.5q0 89 27.5 159.5t84.5 125.5t124.5 96t165.5 84q-117 157 -117 299q0 101 50.5 189.5t146 144t215.5 55.5q147 0 233 -81t86 -200q0 -55 -13 -101.5t-41.5 -85.5t-63 -71t-88 -63.5t-106.5 -57
t-128 -57.5l371 -446q135 157 190 403h113q-63 -284 -238 -481l205 -246h-152zM510 1100q0 -114 106 -252l9 2q212 87 294 160t82 186q0 86 -56.5 138t-153.5 52q-117 0 -199 -81.5t-82 -204.5zM225 346q0 -112 84.5 -188t214.5 -76q258 0 445 158l-402 483
q-83 -37 -139 -70t-105.5 -77.5t-73.5 -101.5t-24 -128z" />
    <glyph glyph-name="quotesingle" unicode="'" horiz-adv-x="491" 
d="M270 967l66 540h137l-102 -540h-101z" />
    <glyph glyph-name="parenleft" unicode="(" horiz-adv-x="765" 
d="M786 1507q-479 -537 -479 -1042q0 -354 207 -686h-113q-213 333 -213 688q0 539 478 1040h120z" />
    <glyph glyph-name="parenright" unicode=")" horiz-adv-x="765" 
d="M20 -221q480 538 480 1042q0 354 -207 686h113q212 -332 212 -688q0 -540 -477 -1040h-121z" />
    <glyph glyph-name="asterisk" unicode="*" horiz-adv-x="827" 
d="M526 1487l97 -19l-52 -278l275 41l14 -98l-278 -41l120 -244l-88 -47l-116 254l-199 -199l-68 76l201 186l-248 137l47 86l244 -133z" />
    <glyph glyph-name="plus" unicode="+" 
d="M1223 629h-473l-76 -477h-109l76 477h-477l16 108h477l76 475h109l-76 -475h473z" />
    <glyph glyph-name="comma" unicode="," horiz-adv-x="606" 
d="M131 0l29 178h178l-35 -221q-18 -117 -96.5 -191.5t-200.5 -74.5l14 82q77 0 122.5 44t60.5 140l6 43h-78z" />
    <glyph glyph-name="hyphen" unicode="-" horiz-adv-x="919" 
d="M176 514l19 111h563l-19 -111h-563z" />
    <glyph glyph-name="period" unicode="." horiz-adv-x="606" 
d="M131 0l29 178h178l-29 -178h-178z" />
    <glyph glyph-name="slash" unicode="/" horiz-adv-x="1007" 
d="M-10 -221l940 1728h125l-940 -1728h-125z" />
    <glyph glyph-name="zero" unicode="0" horiz-adv-x="1347" 
d="M604 -25q-216 0 -338.5 160.5t-122.5 425.5q0 184 50.5 353.5t138 296t212.5 201.5t267 75q216 0 338.5 -160.5t122.5 -425.5q0 -184 -50.5 -353.5t-138 -296t-212.5 -201.5t-267 -75zM614 92q202 0 340.5 175t180.5 462q12 95 12 176q0 216 -88 340.5t-258 124.5
q-202 0 -340 -175t-180 -462q-13 -102 -13 -176q0 -216 88 -340.5t258 -124.5z" />
    <glyph glyph-name="one" unicode="1" horiz-adv-x="700" 
d="M147 1161l13 86q123 0 204 25t126.5 71.5t76.5 124.5h64l-234 -1468h-123l185 1161h-312z" />
    <glyph glyph-name="two" unicode="2" horiz-adv-x="1142" 
d="M1128 1128q0 -45 -9 -87t-22.5 -77t-38.5 -71t-47.5 -63.5t-59.5 -59.5t-64 -53.5t-72 -51.5t-73 -48t-77 -48.5t-75 -46.5q-61 -39 -86 -54.5t-81 -53.5t-82.5 -59.5t-67.5 -57t-61 -62t-38 -60t-22 -64.5h839l-18 -111h-967l12 66q11 71 50.5 141t90.5 125t126.5 114
t138.5 99.5t147 89.5q82 48 138 84.5t118 86.5t99 95.5t61.5 103.5t24.5 119q0 108 -70 179t-217 71q-158 0 -268 -101t-144 -249h-114q20 95 65 178t111 147t159 101t201 37q100 0 177.5 -30t123.5 -81.5t69 -114.5t23 -133z" />
    <glyph glyph-name="three" unicode="3" horiz-adv-x="1236" 
d="M1098 428q0 -81 -34.5 -160t-98.5 -145t-169 -107t-233 -41q-138 0 -245.5 50t-171.5 152.5t-64 244.5h123q0 -158 94.5 -248t263.5 -90q128 0 224 48.5t144 126.5t48 171q0 118 -82 188t-229 70h-152l19 113h153q73 0 136.5 19.5t114 58t79.5 101.5t29 144
q0 110 -75.5 182t-215.5 72q-167 0 -276 -99.5t-138 -252.5h-117q18 96 63 179.5t112.5 146.5t160.5 99t199 36q194 0 302.5 -103.5t108.5 -257.5q0 -152 -100 -256.5t-231 -124.5q112 -25 185 -115.5t73 -201.5z" />
    <glyph glyph-name="four" unicode="4" 
d="M1083 1462l-147 -938h326l-17 -102h-325l-68 -422h-119l68 422h-729l16 104l852 936h143zM942 1323l-723 -799h598z" />
    <glyph glyph-name="five" unicode="5" horiz-adv-x="1228" 
d="M684 858q-117 0 -212 -51t-157 -131h-110l203 786h794l-18 -112h-703l-143 -541q62 68 161.5 113t198.5 45q134 0 230 -56t142 -148.5t46 -211.5q0 -153 -68.5 -284t-197.5 -211.5t-291 -80.5q-208 0 -335.5 118.5t-127.5 336.5h119q0 -162 91 -254t257 -92
q103 0 187.5 39.5t137 105t81 146.5t28.5 168q0 66 -18.5 121.5t-55 99.5t-98 69t-141.5 25z" />
    <glyph glyph-name="six" unicode="6" horiz-adv-x="1269" 
d="M813 1374q-143 0 -260.5 -95.5t-191 -255.5t-99.5 -361q26 63 65.5 116.5t95 99.5t133 72.5t167.5 26.5q127 0 226 -59t151.5 -157t52.5 -216q0 -152 -71.5 -282.5t-199.5 -209t-284 -78.5q-210 0 -333.5 152t-123.5 412q0 193 55.5 369.5t147.5 302.5t217 201t260 75
q188 0 299 -106t111 -287h-117q-6 137 -85 208.5t-216 71.5zM610 86q121 0 219 62t151.5 165.5t53.5 225.5q0 144 -89.5 234.5t-242.5 90.5q-180 0 -304 -127t-124 -311q0 -149 91.5 -244.5t244.5 -95.5z" />
    <glyph glyph-name="seven" unicode="7" horiz-adv-x="1153" 
d="M1042 1350h-856l19 112h1005l-14 -80q-305 -311 -473.5 -648t-235.5 -734h-133q67 385 246.5 729t441.5 621z" />
    <glyph glyph-name="eight" unicode="8" horiz-adv-x="1296" 
d="M582 -25q-226 0 -360 101.5t-134 267.5q0 82 34.5 155.5t90.5 125t125 85.5t141 44q-96 39 -150.5 112.5t-54.5 173.5q0 132 72.5 235.5t191 157.5t259.5 54q184 0 300.5 -93t116.5 -249q0 -148 -88 -256t-229 -152q112 -27 188 -110t76 -193q0 -128 -75 -233.5
t-208 -165.5t-296 -60zM711 799q163 0 273 92.5t110 243.5q0 119 -89 181t-225 62q-165 0 -274 -90t-109 -241q0 -120 88.5 -184t225.5 -64zM659 694q-196 0 -319 -95t-123 -249q0 -123 102 -195.5t275 -72.5q199 0 316.5 102.5t117.5 247.5q0 120 -98 191t-271 71z" />
    <glyph glyph-name="nine" unicode="9" horiz-adv-x="1267" 
d="M526 98q143 0 260.5 95.5t191 255.5t99.5 362q-26 -63 -65.5 -116.5t-95 -99.5t-133 -72.5t-167.5 -26.5q-127 0 -226 59t-151.5 157t-52.5 216q0 152 71.5 282.5t199.5 208.5t284 78q210 0 333.5 -151.5t123.5 -411.5q0 -193 -55.5 -369.5t-147.5 -302.5t-217 -201
t-260 -75q-188 0 -298.5 106t-110.5 287h116q6 -138 85 -209.5t216 -71.5zM729 1386q-121 0 -219 -61.5t-151.5 -165t-53.5 -225.5q0 -144 89.5 -235t242.5 -91q180 0 304 127t124 312q0 149 -91.5 244t-244.5 95z" />
    <glyph glyph-name="colon" unicode=":" horiz-adv-x="606" 
d="M244 713l28 178h179l-29 -178h-178zM131 0l29 178h178l-29 -178h-178z" />
    <glyph glyph-name="semicolon" unicode=";" horiz-adv-x="606" 
d="M244 713l28 178h179l-29 -178h-178zM131 0l29 178h178l-35 -221q-18 -117 -96.5 -191.5t-200.5 -74.5l14 82q77 0 122.5 44t60.5 140l6 43h-78z" />
    <glyph glyph-name="less" unicode="&#x3c;" 
d="M221 614l21 127l966 461l-20 -133l-838 -397l713 -393l-21 -127z" />
    <glyph glyph-name="equal" unicode="=" 
d="M209 793l18 112h1016l-16 -112h-1018zM152 424l16 111h1018l-19 -111h-1015z" />
    <glyph glyph-name="greater" unicode="&#x3e;" 
d="M1161 614l-968 -462l22 135l838 395l-713 395l18 125l824 -461z" />
    <glyph glyph-name="question" unicode="?" horiz-adv-x="1130" 
d="M1114 1124q0 -70 -24 -135.5t-50 -107.5t-84.5 -96t-85.5 -74t-95 -68q-17 -12 -25 -18q-41 -27 -64.5 -45t-53 -48.5t-48.5 -69t-29 -87.5h-121q22 109 90.5 190t190.5 166q40 28 54.5 38.5t52.5 40.5t55 48.5t45 52t41 62.5t23.5 68t10.5 79q0 52 -15 96t-47.5 81
t-89.5 58t-134 21q-162 0 -268.5 -100.5t-141.5 -251.5h-115q36 197 179.5 330t355.5 133q101 0 178.5 -30.5t123 -83t68.5 -115.5t23 -134zM346 0l29 178h178l-29 -178h-178z" />
    <glyph glyph-name="at" unicode="@" horiz-adv-x="1869" 
d="M1354 893l-142 -594q-6 -27 -6 -47q0 -90 101 -90q146 0 245 148.5t99 361.5q0 241 -168 389.5t-449 148.5q-153 0 -285 -47t-225.5 -126.5t-160 -184t-98.5 -221t-32 -236.5q0 -131 40 -239.5t108 -181.5t160.5 -123.5t195 -73.5t213.5 -23q250 0 455 86l31 -86
q-233 -98 -492 -98q-129 0 -247.5 27.5t-223 86t-181.5 143t-122 207t-45 269.5q0 187 68 356.5t187 294.5t291 199t369 74q161 0 296.5 -48.5t228 -133.5t144.5 -202.5t52 -254.5q0 -127 -39.5 -240.5t-105 -192.5t-151.5 -125t-177 -46q-80 0 -134.5 39.5t-66.5 107.5
q-41 -61 -110 -101t-150 -40q-132 0 -204 89.5t-72 225.5q0 86 29.5 175.5t83 167.5t141 127.5t192.5 49.5q79 0 136.5 -42.5t76.5 -98.5l31 123h113zM1133 430q32 131 32 188q0 93 -47.5 141t-122.5 48q-74 0 -137 -38.5t-103.5 -99.5t-63.5 -133t-23 -141q0 -99 48 -156
t136 -57q87 0 169 64.5t112 183.5z" />
    <glyph glyph-name="A" unicode="A" horiz-adv-x="1413" 
d="M1163 0l-100 436h-725l-250 -436h-129l844 1462h139l348 -1462h-127zM852 1333l-453 -790h639l-182 790h-4z" />
    <glyph glyph-name="B" unicode="B" horiz-adv-x="1366" 
d="M682 0h-557l231 1462h484q218 0 331 -87.5t113 -252.5q0 -133 -83 -237.5t-202 -134.5q122 -29 186 -107.5t64 -191.5q0 -211 -156.5 -331t-410.5 -120zM373 803h381q405 0 405 319q0 230 -317 230h-381zM356 696l-92 -585h434q206 0 317 92t111 237q0 122 -87 189
t-253 67h-430z" />
    <glyph glyph-name="C" unicode="C" horiz-adv-x="1382" 
d="M696 -25q-255 0 -406 173t-151 452q0 177 54.5 338.5t150.5 283t237 193.5t304 72q222 0 347 -119t136 -313h-125q-3 66 -26 122t-66 101t-113 70.5t-161 25.5q-183 0 -323.5 -106.5t-213 -282.5t-72.5 -389q0 -230 113 -369t324 -139q325 0 436 320h129
q-66 -201 -210.5 -317t-363.5 -116z" />
    <glyph glyph-name="D" unicode="D" horiz-adv-x="1509" 
d="M354 1462h486q279 0 437.5 -164.5t158.5 -445.5q0 -190 -64 -351t-174.5 -270t-260 -170t-319.5 -61h-495zM823 1352h-362l-197 -1241h371q199 0 352 93.5t236.5 261.5t83.5 384q0 236 -123 369t-361 133z" />
    <glyph glyph-name="E" unicode="E" horiz-adv-x="1296" 
d="M123 0l231 1462h955l-19 -110h-831l-90 -568h741l-18 -110h-742l-88 -563h828l-19 -111h-948z" />
    <glyph glyph-name="F" unicode="F" horiz-adv-x="1241" 
d="M123 0l231 1462h895l-16 -110h-772l-92 -582h708l-18 -111h-709l-104 -659h-123z" />
    <glyph glyph-name="G" unicode="G" horiz-adv-x="1507" 
d="M696 -25q-255 0 -406 173t-151 452q0 177 55 338.5t151 283t237.5 193.5t304.5 72q224 0 352 -120t137 -314h-125q-7 138 -100.5 229.5t-271.5 91.5q-183 0 -324 -106.5t-214 -282.5t-73 -389q0 -230 113 -370t324 -140q140 0 251.5 55.5t187.5 176t95 294.5h-381l19 109
h499l-114 -719h-101l27 262q-60 -131 -197.5 -210t-294.5 -79z" />
    <glyph glyph-name="H" unicode="H" horiz-adv-x="1570" 
d="M123 0l231 1462h121l-104 -663h919l105 663h121l-232 -1462h-121l109 688h-920l-108 -688h-121z" />
    <glyph glyph-name="I" unicode="I" horiz-adv-x="530" 
d="M354 1462h121l-231 -1462h-121z" />
    <glyph glyph-name="J" unicode="J" horiz-adv-x="1114" 
d="M811 514l150 948h122l-149 -948q-39 -254 -168.5 -396.5t-343.5 -142.5q-202 0 -309 116t-107 312h115q0 -147 75.5 -235t227.5 -88q171 0 262.5 113t124.5 321z" />
    <glyph glyph-name="K" unicode="K" horiz-adv-x="1417" 
d="M1116 0l-508 735l-286 -243l-78 -492h-121l231 1462h121l-131 -825l952 825h164l-760 -647l560 -815h-144z" />
    <glyph glyph-name="L" unicode="L" horiz-adv-x="1259" 
d="M125 0l231 1462h121l-213 -1351h807l-18 -111h-928z" />
    <glyph glyph-name="M" unicode="M" horiz-adv-x="1787" 
d="M868 0h-112l-295 1356h-4l-215 -1356h-119l231 1462h201l279 -1310h4l692 1310h203l-232 -1462h-115l216 1356h-5z" />
    <glyph glyph-name="N" unicode="N" horiz-adv-x="1527" 
d="M504 1462l649 -1245h4l197 1245h119l-232 -1462h-104l-680 1315h-4l-209 -1315h-121l231 1462h150z" />
    <glyph glyph-name="O" unicode="O" horiz-adv-x="1511" 
d="M881 1487q255 0 407 -173.5t152 -451.5q0 -178 -53 -339t-147.5 -282.5t-235.5 -193.5t-306 -72q-255 0 -407 173.5t-152 451.5q0 178 53 339t147.5 282.5t235.5 193.5t306 72zM872 1374q-139 0 -254.5 -62t-191 -168t-117 -247.5t-41.5 -300.5q0 -230 114 -369t325 -139
q139 0 254.5 62t191 168t117 247.5t41.5 300.5q0 230 -114 369t-325 139z" />
    <glyph glyph-name="P" unicode="P" horiz-adv-x="1310" 
d="M727 616h-385l-98 -616h-121l231 1462h506q210 0 322 -92.5t112 -263.5q0 -231 -154 -360.5t-413 -129.5zM358 727h392q196 0 306.5 92.5t110.5 276.5q0 131 -79.5 193.5t-239.5 62.5h-389z" />
    <glyph glyph-name="Q" unicode="Q" horiz-adv-x="1511" 
d="M1219 -31l-84 -69l-119 153q-144 -78 -318 -78q-255 0 -407 173.5t-152 451.5q0 178 53 339t147.5 282.5t235.5 193.5t306 72q255 0 407 -173.5t152 -451.5q0 -233 -87.5 -431.5t-244.5 -317.5zM268 596q0 -230 114 -369t325 -139q131 0 237 53l-158 203l88 72l166 -215
q129 102 200 278t71 387q0 230 -114 369t-325 139q-139 0 -254.5 -62t-191 -168t-117 -247.5t-41.5 -300.5z" />
    <glyph glyph-name="R" unicode="R" horiz-adv-x="1384" 
d="M244 0h-121l231 1462h529q210 0 322 -98t112 -281q0 -97 -39 -180t-101.5 -137.5t-135 -88t-146.5 -42.5l317 -635h-129l-307 618h-434zM358 727h412q191 0 307.5 93.5t116.5 262.5q0 131 -83.5 200t-244.5 69h-407z" />
    <glyph glyph-name="S" unicode="S" horiz-adv-x="1308" 
d="M68 428h120q5 -91 42.5 -159.5t99 -107.5t136 -58t163.5 -19q180 0 302 96.5t122 237.5q0 88 -57 143.5t-185 87.5l-272 68q-316 78 -316 313q0 193 150.5 325t382.5 132q223 0 353.5 -103t135.5 -282h-119q-4 128 -108 202t-270 74q-189 0 -296.5 -101t-107.5 -241
q0 -85 57 -133t181 -78l280 -69q150 -38 231 -112.5t81 -201.5q0 -196 -158.5 -331.5t-399.5 -135.5q-112 0 -209.5 29t-173 84t-120 142.5t-45.5 197.5z" />
    <glyph glyph-name="T" unicode="T" horiz-adv-x="1402" 
d="M559 0l215 1352h-557l16 110h1235l-16 -110h-557l-215 -1352h-121z" />
    <glyph glyph-name="U" unicode="U" horiz-adv-x="1507" 
d="M1339 600q-44 -300 -215 -462.5t-444 -162.5q-236 0 -367 125.5t-131 356.5q0 64 13 147l135 858h121l-140 -880q-10 -75 -10 -123q0 -186 101.5 -279.5t283.5 -93.5q207 0 347.5 124.5t178.5 371.5l140 880h116z" />
    <glyph glyph-name="V" unicode="V" horiz-adv-x="1423" 
d="M532 0l-342 1462h123l305 -1343h5l780 1343h131l-858 -1462h-144z" />
    <glyph glyph-name="W" unicode="W" horiz-adv-x="1955" 
d="M1219 0l-113 1309h-4l-598 -1309h-144l-149 1462h121l123 -1317h4l602 1317h141l117 -1317h4l600 1317h123l-682 -1462h-145z" />
    <glyph glyph-name="X" unicode="X" horiz-adv-x="1406" 
d="M1145 0l-416 688l-620 -688h-150l707 774l-420 688h139l363 -606l538 606h150l-627 -686l475 -776h-139z" />
    <glyph glyph-name="Y" unicode="Y" horiz-adv-x="1312" 
d="M635 0h-121l96 610l-420 852h129l367 -739h6l588 739h141l-690 -852z" />
    <glyph glyph-name="Z" unicode="Z" horiz-adv-x="1349" 
d="M1360 1360l-1147 -1249h952l-18 -111h-1112l14 88l1155 1264h-919l16 110h1075z" />
    <glyph glyph-name="bracketleft" unicode="[" horiz-adv-x="790" 
d="M477 1407l-241 -1528h301l-15 -100h-413l274 1728h410l-15 -100h-301z" />
    <glyph glyph-name="backslash" unicode="\" horiz-adv-x="1003" 
d="M268 1507h111l397 -1728h-112z" />
    <glyph glyph-name="bracketright" unicode="]" horiz-adv-x="790" 
d="M354 -121l242 1528h-301l14 100h414l-274 -1728h-410l14 100h301z" />
    <glyph glyph-name="asciicircum" unicode="^" horiz-adv-x="864" 
d="M539 1487h90l254 -490h-117l-193 375l-311 -375h-129z" />
    <glyph glyph-name="underscore" unicode="_" horiz-adv-x="892" 
d="M-51 -227l18 108h758l-16 -108h-760z" />
    <glyph glyph-name="grave" unicode="`" horiz-adv-x="1157" 
d="M829 1192h-71l-170 315h160z" />
    <glyph glyph-name="a" unicode="a" horiz-adv-x="1103" 
d="M739 0q-6 80 11 182q-47 -90 -153 -147.5t-224 -57.5q-127 0 -213 71.5t-86 189.5q0 141 99.5 228t285.5 109l362 43q17 105 17 136q0 190 -230 190q-115 0 -197 -55t-108 -152h-117q37 147 158 229.5t274 82.5q159 0 247.5 -72.5t88.5 -202.5q0 -33 -12 -117l-74 -467
q-14 -83 -10 -190h-119zM788 408l17 110l-324 -37q-69 -8 -117 -21.5t-88.5 -39.5t-60.5 -69t-20 -105q0 -75 51.5 -121.5t146.5 -46.5q145 0 258 87.5t137 242.5z" />
    <glyph glyph-name="b" unicode="b" horiz-adv-x="1239" 
d="M260 211l-33 -211h-112l239 1507h121l-108 -673q55 91 147.5 153t220.5 62q175 0 284 -115.5t109 -317.5q0 -169 -65.5 -315t-187.5 -236t-273 -90q-124 0 -219 70.5t-123 165.5zM721 948q-164 0 -272.5 -115t-141.5 -309q-12 -92 -12 -127q0 -147 83 -234t224 -87
q123 0 217.5 75.5t142.5 197.5t48 267q0 154 -75 243t-214 89z" />
    <glyph glyph-name="c" unicode="c" horiz-adv-x="1073" 
d="M111 410q0 178 71.5 325t196.5 230.5t276 83.5q153 0 247 -90t97 -244h-110q-7 113 -71.5 171t-170.5 58q-122 0 -219 -71.5t-149 -192t-52 -266.5q0 -153 76 -243.5t199 -90.5q238 0 321 229h113q-49 -160 -162.5 -247t-271.5 -87q-173 0 -282 120t-109 315z" />
    <glyph glyph-name="d" unicode="d" horiz-adv-x="1239" 
d="M969 819l110 688h119l-237 -1505h-111l31 199q-56 -92 -154 -159t-225 -67q-174 0 -282.5 116t-108.5 319q0 169 65 315.5t186.5 237t272.5 90.5q126 0 216 -68.5t118 -165.5zM518 76q162 0 270.5 117t141.5 311q12 88 12 127q0 146 -82.5 233.5t-224.5 87.5
q-123 0 -217.5 -76t-142.5 -198.5t-48 -267.5q0 -154 75.5 -244t215.5 -90z" />
    <glyph glyph-name="e" unicode="e" horiz-adv-x="1120" 
d="M967 291q-56 -155 -178.5 -235.5t-266.5 -80.5q-191 0 -302 116t-111 317q0 180 73 327.5t197.5 230.5t273.5 83q178 0 270.5 -111t92.5 -295q0 -67 -17 -160h-772q-4 -46 -4 -71q0 -159 83.5 -245.5t230.5 -86.5q110 0 186.5 52.5t130.5 158.5h113zM641 944
q-140 0 -248.5 -99t-148.5 -263h651q4 27 4 61q0 143 -64 222t-194 79z" />
    <glyph glyph-name="f" unicode="f" horiz-adv-x="608" 
d="M285 928h-152l14 96h152l37 227q21 129 104 195.5t197 66.5q50 0 108 -12l-16 -100q-54 8 -102 8q-149 0 -174 -156l-37 -229h227l-14 -96h-228l-147 -928h-117z" />
    <glyph glyph-name="g" unicode="g" horiz-adv-x="1239" 
d="M850 61l27 166q-56 -89 -152 -152t-223 -63q-174 0 -283.5 113t-109.5 307q0 163 65.5 303.5t187.5 227t273 86.5q125 0 218.5 -70.5t123.5 -165.5l33 211h112l-153 -967q-37 -231 -172 -338.5t-342 -107.5q-172 0 -282.5 73t-117.5 214h119q21 -187 285 -187
q172 0 267 84.5t124 265.5zM930 522q12 86 12 121q0 140 -84.5 222.5t-222.5 82.5q-123 0 -217.5 -72t-142.5 -188.5t-48 -255.5q0 -145 75.5 -230t215.5 -85q163 0 271 110t141 295z" />
    <glyph glyph-name="h" unicode="h" horiz-adv-x="1198" 
d="M475 1507l-108 -673q51 102 144 158.5t214 56.5q151 0 234 -79.5t83 -224.5q0 -37 -6 -81l-104 -664h-121l100 639q9 70 9 86q0 110 -57.5 166.5t-168.5 56.5q-139 0 -238 -93t-130 -284l-90 -571h-121l239 1507h121z" />
    <glyph glyph-name="i" unicode="i" horiz-adv-x="514" 
d="M299 1260l29 180h145l-29 -180h-145zM276 1024h121l-161 -1024h-121z" />
    <glyph glyph-name="j" unicode="j" horiz-adv-x="514" 
d="M299 1260l29 180h145l-29 -180h-145zM-51 -377q-44 0 -88 19l16 98q40 -12 68 -12q70 0 104 32.5t47 118.5l180 1145h121l-178 -1133q-21 -136 -85.5 -202t-184.5 -66z" />
    <glyph glyph-name="k" unicode="k" horiz-adv-x="1105" 
d="M827 0l-354 522l-178 -145l-59 -377h-121l239 1507h121l-158 -993l617 510h158l-531 -434l404 -590h-138z" />
    <glyph glyph-name="l" unicode="l" horiz-adv-x="514" 
d="M236 0h-121l239 1507h121z" />
    <glyph glyph-name="m" unicode="m" horiz-adv-x="1824" 
d="M715 1049q251 0 280 -228q66 110 163.5 169t211.5 59q149 0 225 -77.5t76 -215.5q0 -48 -8 -92l-104 -664h-121l100 639q8 49 8 100q0 106 -49.5 157.5t-153.5 51.5q-133 0 -228.5 -96t-125.5 -281l-90 -571h-121l101 639q8 49 8 98q0 211 -205 211q-133 0 -229 -96
t-127 -281l-90 -571h-121l161 1024h113l-31 -195q53 103 149.5 161.5t207.5 58.5z" />
    <glyph glyph-name="n" unicode="n" horiz-adv-x="1198" 
d="M389 1024l-31 -195q51 102 148.5 161t218.5 59q151 0 234 -79.5t83 -224.5q0 -37 -6 -81l-104 -664h-121l100 639q9 70 9 86q0 110 -57.5 166.5t-168.5 56.5q-139 0 -238 -93t-130 -284l-90 -571h-121l161 1024h113z" />
    <glyph glyph-name="o" unicode="o" horiz-adv-x="1171" 
d="M518 -25q-184 0 -295.5 118t-111.5 321q0 173 68.5 318t193 231t278.5 86q184 0 296 -118t112 -321q0 -129 -40.5 -245.5t-111.5 -202.5t-172 -136.5t-217 -50.5zM528 80q124 0 219.5 72.5t145 192.5t49.5 265q0 156 -80 245t-221 89q-124 0 -219.5 -72.5t-145 -192.5
t-49.5 -265q0 -156 80 -245t221 -89z" />
    <glyph glyph-name="p" unicode="p" horiz-adv-x="1239" 
d="M268 207l-90 -572h-121l219 1389h113l-31 -197q55 91 152 156.5t225 65.5q175 0 284 -115.5t109 -317.5q0 -169 -65.5 -315t-187.5 -236t-273 -90q-124 0 -215 68.5t-119 163.5zM721 948q-164 0 -272.5 -115t-141.5 -309q-12 -92 -12 -127q0 -147 83 -234t224 -87
q123 0 217.5 75.5t142.5 197.5t48 267q0 154 -75 243t-214 89z" />
    <glyph glyph-name="q" unicode="q" horiz-adv-x="1239" 
d="M977 813l33 211h112l-219 -1389h-121l88 555q-55 -91 -147.5 -153t-220.5 -62q-175 0 -284 115.5t-109 317.5q0 169 65.5 315t187.5 236t273 90q124 0 219 -70.5t123 -165.5zM516 76q164 0 272.5 115t141.5 309q12 92 12 127q0 147 -83 234t-224 87q-123 0 -217.5 -75.5
t-142.5 -197.5t-48 -267q0 -154 75 -243t214 -89z" />
    <glyph glyph-name="r" unicode="r" horiz-adv-x="757" 
d="M807 1040l-19 -108q-31 8 -79 8q-134 0 -247 -110t-145 -308l-81 -522h-121l161 1024h113l-39 -250q52 128 154.5 201.5t220.5 73.5q41 0 82 -9z" />
    <glyph glyph-name="s" unicode="s" horiz-adv-x="989" 
d="M39 299h115q-1 -114 85 -168.5t214 -54.5q124 0 202 62t78 151q0 54 -37.5 90.5t-124.5 60.5l-182 52q-111 32 -170 87.5t-59 153.5q0 134 106.5 225t274.5 91q72 0 135 -16t115.5 -48.5t84 -89t33.5 -131.5h-110q-7 93 -79 138.5t-190 45.5q-120 0 -189 -59.5
t-69 -151.5q0 -57 39.5 -87.5t128.5 -55.5l197 -55q211 -59 211 -232q0 -142 -114.5 -237t-291.5 -95q-81 0 -150.5 18t-126.5 55t-91 101.5t-35 149.5z" />
    <glyph glyph-name="t" unicode="t" horiz-adv-x="735" 
d="M582 121l-15 -105q-87 -32 -166 -32q-110 0 -171.5 53t-61.5 156q0 27 6 61l107 674h-154l14 96h156l47 264h115l-43 -264h282l-14 -96h-287l-108 -684q-4 -28 -4 -41q0 -115 135 -115q67 0 162 33z" />
    <glyph glyph-name="u" unicode="u" horiz-adv-x="1185" 
d="M795 0l30 195q-52 -103 -145 -161.5t-213 -58.5q-148 0 -230.5 80t-82.5 224q0 37 6 81l104 664h121l-100 -639q-9 -70 -9 -86q0 -223 222 -223q138 0 233.5 92.5t126.5 284.5l90 571h121l-162 -1024h-112z" />
    <glyph glyph-name="v" unicode="v" horiz-adv-x="1079" 
d="M354 0l-204 1024h118l170 -905h6l521 905h125l-603 -1024h-133z" />
    <glyph glyph-name="w" unicode="w" horiz-adv-x="1519" 
d="M891 1024l78 -887h4l440 887h117l-522 -1024h-127l-82 881h-4l-424 -881h-131l-90 1024h114l72 -887h4l422 887h129z" />
    <glyph glyph-name="x" unicode="x" horiz-adv-x="1112" 
d="M145 0h-133l488 530l-283 494h129l232 -410l374 410h133l-454 -494l305 -530h-129l-252 446z" />
    <glyph glyph-name="y" unicode="y" horiz-adv-x="1079" 
d="M365 -8l-215 1032h120l174 -889h5l514 889h127l-629 -1063q-110 -187 -197.5 -264.5t-210.5 -77.5q-48 0 -88 19l17 102q47 -16 81 -16q83 0 148 59.5t154 208.5z" />
    <glyph glyph-name="z" unicode="z" horiz-adv-x="1048" 
d="M995 932l-794 -836h665l-14 -96h-817l12 78l799 850h-619l15 96h768z" />
    <glyph glyph-name="braceleft" unicode="{" horiz-adv-x="868" 
d="M115 592l16 102h113q103 0 118 109l80 502q17 107 78.5 154.5t169.5 47.5h184l-16 -100h-174q-59 0 -90 -19t-41 -77l-80 -508q-10 -70 -47.5 -108t-99.5 -52q100 -26 100 -119q0 -44 -43 -296t-43 -279q0 -41 25.5 -55.5t76.5 -14.5h174l-16 -100h-184q-93 0 -140 35
t-47 112q0 51 42 304.5t42 283.5q0 78 -86 78h-112z" />
    <glyph glyph-name="bar" unicode="|" horiz-adv-x="600" 
d="M401 1507h113l-274 -1728h-113z" />
    <glyph glyph-name="braceright" unicode="}" horiz-adv-x="868" 
d="M795 694l-17 -102h-112q-104 0 -119 -109l-80 -501q-17 -107 -78.5 -155t-169.5 -48h-184l16 100h174q59 0 90 19t41 77l80 508q19 130 148 160q-101 26 -101 119q0 44 43 296t43 279q0 41 -25.5 55.5t-76.5 14.5h-174l16 100h185q93 0 139.5 -34.5t46.5 -112.5
q0 -50 -42 -304t-42 -284q0 -78 86 -78h113z" />
    <glyph glyph-name="asciitilde" unicode="~" horiz-adv-x="1001" 
d="M387 653q-85 0 -119 -157h-94q20 120 76.5 192t144.5 72q35 0 66 -16t53.5 -39t43.5 -46t44 -39t45 -16q85 0 119 158h96q-20 -120 -77 -192t-146 -72q-35 0 -66 16t-53.5 39t-43.5 45.5t-44 38.5t-45 16z" />
    <glyph glyph-name="uni00A0" unicode="&#xa0;" horiz-adv-x="450" 
 />
    <glyph glyph-name="exclamdown" unicode="&#xa1;" horiz-adv-x="606" 
d="M541 1462l-29 -178h-178l28 178h179zM291 0h-144l191 1038h92z" />
    <glyph glyph-name="cent" unicode="&#xa2;" horiz-adv-x="1085" 
d="M942 315q-49 -155 -156.5 -241t-255.5 -92l-34 -199h-103l37 205q-143 26 -227 140t-84 288q0 258 142 440t357 201l44 250h102l-45 -252q130 -17 207 -104.5t78 -225.5h-109q-6 98 -58.5 157.5t-134.5 71.5l-153 -870q200 18 280 231h113zM240 420q0 -135 54.5 -222.5
t151.5 -109.5l154 866q-109 -16 -191.5 -92t-125.5 -191t-43 -251z" />
    <glyph glyph-name="sterling" unicode="&#xa3;" horiz-adv-x="1277" 
d="M1102 111l-19 -111h-1032l19 111h22q123 0 213 128t90 298q0 41 -6 81h-201l17 105h157q-3 9 -14.5 44.5t-15.5 48.5t-12 44.5t-11.5 51.5t-6.5 49t-3 57q0 87 32.5 170t93 150t157 108t213.5 41q137 0 234.5 -55t143.5 -145t46 -204q0 -9 -5 -59h-114q2 20 2 37
q0 138 -77.5 226.5t-229.5 88.5q-172 0 -272.5 -96t-100.5 -256q0 -36 7 -78t15 -71.5t22 -78t21 -73.5h453l-16 -105h-416q6 -38 6 -75q0 -133 -55 -245t-158 -187h801z" />
    <glyph glyph-name="yen" unicode="&#xa5;" horiz-adv-x="1329" 
d="M1130 336h-434l-53 -336h-119l54 336h-439l17 104h438l33 205h-437l17 107h383l-369 710h129l355 -686h4l553 686h145l-592 -710h385l-16 -107h-439l-32 -205h434z" />
    <glyph glyph-name="section" unicode="&#xa7;" horiz-adv-x="1144" 
d="M831 76q0 -72 -26 -136.5t-74 -115t-124 -80t-169 -29.5q-156 0 -256 79t-100 226h111q0 -91 68 -146.5t183 -55.5q129 0 201 68t72 169q0 54 -29 97.5t-90 85.5l-211 145q-109 75 -157 136t-48 140q0 191 199 306q-62 68 -62 161q0 71 25.5 135t73 115t123 81t168.5 30
q157 0 255.5 -74.5t98.5 -210.5h-111q0 87 -67 134.5t-183 47.5q-130 0 -200 -66.5t-70 -170.5q0 -54 30 -96.5t93 -85.5l209 -146q111 -75 159 -134.5t48 -135.5q0 -189 -199 -313q59 -65 59 -160zM645 340q45 -31 55 -39q68 31 115 90t47 137q0 52 -36 96t-124 105
l-194 133q-43 30 -57 41q-68 -31 -114 -89t-46 -136q0 -55 35 -99.5t123 -103.5z" />
    <glyph glyph-name="dieresis" unicode="&#xa8;" horiz-adv-x="1157" 
d="M805 1260l29 180h135l-29 -180h-135zM451 1260l28 180h135l-28 -180h-135z" />
    <glyph glyph-name="copyright" unicode="&#xa9;" horiz-adv-x="1800" 
d="M1690 729q0 -153 -60 -292.5t-161 -240.5t-241 -161t-294 -60t-294.5 60t-242 161t-161.5 240.5t-60 292.5q0 155 60 295.5t161.5 242.5t242 162t294.5 60t294 -60t241 -162t161 -242.5t60 -295.5zM266 729q0 -181 89.5 -334t243.5 -242.5t335 -89.5t335 89.5
t243.5 242.5t89.5 334q0 182 -89.5 337t-243.5 245t-335 90t-335 -90t-243.5 -245t-89.5 -337zM657 733q0 -154 75.5 -246t213.5 -92q107 0 165 49.5t73 124.5h114q-24 -132 -113 -209t-239 -77q-179 0 -294 124.5t-115 325.5t115 326t294 125q150 0 239 -77t113 -210h-114
q-15 75 -73 125.5t-165 50.5q-138 0 -213.5 -93t-75.5 -247z" />
    <glyph glyph-name="ordfeminine" unicode="&#xaa;" horiz-adv-x="802" 
d="M616 791q-2 39 7 114q-32 -59 -101 -95t-147 -36q-86 0 -142.5 47t-56.5 127q0 96 67.5 154t194.5 72l230 26q10 69 10 80q0 117 -139 117q-143 0 -179 -127h-106q26 103 104 160t187 57q113 0 176 -51t63 -144q0 -15 -4 -47l-49 -315q-10 -61 -10 -139h-105zM645 1057
l10 65l-194 -22q-87 -12 -130.5 -42.5t-43.5 -101.5q0 -44 31 -72t88 -28q88 0 156.5 53.5t82.5 147.5zM106 528l15 88h573l-14 -88h-574z" />
    <glyph glyph-name="guillemotleft" unicode="&#xab;" horiz-adv-x="1005" 
d="M807 94h-92l-207 391l323 394h101l-283 -394zM428 94h-92l-207 391l324 394h100l-283 -394z" />
    <glyph glyph-name="registered" unicode="&#xae;" horiz-adv-x="1179" 
d="M668 1487q199 0 336 -135t137 -338q0 -135 -63.5 -244.5t-171.5 -170t-238 -60.5q-129 0 -236.5 60.5t-171 170t-63.5 244.5q0 203 137 338t334 135zM668 600q171 0 288 117.5t117 296.5q0 178 -117 294.5t-288 116.5q-170 0 -288 -116.5t-118 -294.5q0 -179 118 -296.5
t288 -117.5zM575 770h-90v502h209q87 0 133.5 -40t46.5 -116q0 -57 -28 -92.5t-74 -50.5l123 -203h-98l-113 186h-109v-186zM575 1032h109q102 0 102 84q0 82 -102 82h-109v-166z" />
    <glyph glyph-name="macron" unicode="&#xaf;" horiz-adv-x="1157" 
d="M414 1260l16 102h561l-16 -102h-561z" />
    <glyph glyph-name="degree" unicode="&#xb0;" horiz-adv-x="729" 
d="M193 1188q0 120 91.5 209.5t219.5 89.5q113 0 183.5 -70t70.5 -184q0 -121 -92 -210t-220 -89q-113 0 -183 70t-70 184zM287 1188q0 -71 46.5 -115.5t121.5 -44.5q84 0 146.5 57t62.5 148q0 70 -47 115t-121 45q-84 0 -146.5 -57t-62.5 -148z" />
    <glyph glyph-name="twosuperior" unicode="&#xb2;" horiz-adv-x="706" 
d="M750 1274q0 -34 -9 -65t-21 -54.5t-36.5 -49t-42.5 -42t-53.5 -39.5t-55.5 -35t-61 -35q-3 -2 -5 -3t-4.5 -2.5t-4.5 -2.5q-99 -57 -155 -101.5t-64 -90.5h442l-16 -92h-562l9 47q8 52 37.5 100t77.5 88.5t89.5 68.5t100.5 62q119 66 174 118t55 124q0 50 -33 83t-102 33
q-76 0 -129.5 -49t-69.5 -120h-106q25 112 107.5 187t205.5 75q111 0 171.5 -58.5t60.5 -146.5z" />
    <glyph glyph-name="threesuperior" unicode="&#xb3;" horiz-adv-x="757" 
d="M723 899q0 -98 -81.5 -175t-225.5 -77q-125 0 -201 66.5t-76 181.5h109q0 -75 45.5 -117.5t128.5 -42.5q89 0 142.5 48t53.5 118q0 57 -39 88t-110 31h-84l14 88h82q76 0 125 43t49 119q0 54 -35.5 87.5t-103.5 33.5q-80 0 -130 -42.5t-64 -113.5h-105q25 108 105 177
t202 69q115 0 177.5 -58t62.5 -145q0 -83 -53 -142.5t-125 -72.5q61 -12 99 -57t38 -107z" />
    <glyph glyph-name="acute" unicode="&#xb4;" horiz-adv-x="1157" 
d="M539 1192l166 315h172l-261 -315h-77z" />
    <glyph glyph-name="paragraph" unicode="&#xb6;" horiz-adv-x="1222" 
d="M436 -260l150 952q-207 0 -314.5 85.5t-107.5 240.5q0 207 146 325.5t399 118.5h458l-272 -1722h-117l254 1606h-223l-254 -1606h-119z" />
    <glyph glyph-name="periodcentered" unicode="&#xb7;" horiz-adv-x="530" 
d="M172 485l29 179h178l-29 -179h-178z" />
    <glyph glyph-name="cedilla" unicode="&#xb8;" horiz-adv-x="1157" 
d="M629 -211q0 -78 -72.5 -128t-165.5 -50q-108 0 -174 39l14 88q70 -43 162 -43q62 0 100.5 23t38.5 63q0 30 -27.5 44.5t-68.5 14.5q-38 0 -82 -14l-30 39l151 196h80l-119 -147q16 4 41 4q59 0 105.5 -32t46.5 -97z" />
    <glyph glyph-name="onesuperior" unicode="&#xb9;" horiz-adv-x="669" 
d="M657 750l-14 -88h-534l14 88h211l82 514h-207l12 82q96 0 149.5 13.5t77 37t41.5 69.5h68l-113 -716h213z" />
    <glyph glyph-name="ordmasculine" unicode="&#xba;" horiz-adv-x="847" 
d="M473 772q-127 0 -205 79t-78 214q0 177 105 299.5t264 122.5q129 0 206 -79t77 -216q0 -176 -104.5 -298t-264.5 -122zM553 1397q-114 0 -183 -97.5t-69 -236.5q0 -95 47.5 -149t132.5 -54q114 0 183 98.5t67 237.5q2 94 -45.5 147.5t-132.5 53.5zM133 528l14 88h574
l-14 -88h-574z" />
    <glyph glyph-name="guillemotright" unicode="&#xbb;" horiz-adv-x="1005" 
d="M190 879h93l206 -392l-323 -393h-100l282 393zM569 879h93l206 -392l-323 -393h-101l283 393z" />
    <glyph glyph-name="onequarter" unicode="&#xbc;" horiz-adv-x="1804" 
d="M377 -25h-123l1296 1514h123zM719 750l-14 -88h-535l14 88h211l82 514h-207l13 82q96 0 149.5 13.5t77 37t41.5 69.5h67l-112 -716h213zM1610 801l-84 -514h170l-13 -86h-170l-30 -201h-107l31 201h-399l14 88l463 512h125zM1485 690l-359 -403h293z" />
    <glyph glyph-name="onehalf" unicode="&#xbd;" horiz-adv-x="1818" 
d="M397 -25h-123l1297 1514h123zM719 750l-14 -88h-535l14 88h211l82 514h-207l13 82q96 0 149.5 13.5t77 37t41.5 69.5h67l-112 -716h213zM1759 612q0 -46 -16.5 -87.5t-39 -70t-64.5 -60.5t-72.5 -50.5t-84.5 -49.5q-11 -6 -16 -9q-98 -57 -154.5 -102t-64.5 -91h443
l-17 -92h-561l8 47q8 52 37.5 100t77 89t89.5 69t101 62q59 33 95 56t70 53t49.5 62t15.5 70q0 50 -33 83.5t-102 33.5q-76 0 -129.5 -49t-69.5 -121h-107q25 112 108 187t206 75q111 0 171 -58.5t60 -146.5z" />
    <glyph glyph-name="threequarters" unicode="&#xbe;" horiz-adv-x="1863" 
d="M436 -25h-123l1297 1514h123zM784 899q0 -98 -81.5 -175t-225.5 -77q-125 0 -200.5 66.5t-75.5 181.5h108q0 -75 45.5 -117.5t128.5 -42.5q89 0 143 48t54 118q0 57 -39.5 88t-110.5 31h-84l15 88h82q76 0 125 43t49 119q0 54 -35.5 87.5t-103.5 33.5q-80 0 -130.5 -42.5
t-64.5 -113.5h-104q25 108 105 177t202 69q115 0 177 -58t62 -145q0 -83 -53 -142.5t-125 -72.5q61 -12 99 -57t38 -107zM1669 801l-84 -514h170l-12 -86h-170l-31 -201h-106l30 201h-399l14 88l463 512h125zM1544 690l-358 -403h293z" />
    <glyph glyph-name="questiondown" unicode="&#xbf;" horiz-adv-x="1130" 
d="M852 1462l-29 -178h-178l29 178h178zM84 338q0 70 22 134t54.5 111t81 93.5t89.5 77.5t93 67q17 11 25 17q33 22 51.5 35.5t45 37t42.5 46.5t31.5 56.5t23.5 73.5h121q-22 -109 -90.5 -190t-190.5 -166q-40 -28 -54.5 -38.5t-52.5 -40.5t-55 -48.5t-45 -52t-41 -62.5
t-23.5 -68t-10.5 -79q0 -52 15 -96t47.5 -81t89.5 -58t134 -21q162 0 268.5 100.5t141.5 251.5h115q-36 -197 -179.5 -330t-355.5 -133q-101 0 -178.5 30.5t-123 83t-68.5 115.5t-23 134z" />
    <glyph glyph-name="Agrave" unicode="&#xc0;" horiz-adv-x="1413" 
d="M920 1577h-72l-180 293h170zM1163 0l-100 436h-725l-250 -436h-129l844 1462h139l348 -1462h-127zM852 1333l-453 -790h639l-182 790h-4z" />
    <glyph glyph-name="Aacute" unicode="&#xc1;" horiz-adv-x="1413" 
d="M844 1577l166 293h174l-262 -293h-78zM1163 0l-100 436h-725l-250 -436h-129l844 1462h139l348 -1462h-127zM852 1333l-453 -790h639l-182 790h-4z" />
    <glyph glyph-name="Acircumflex" unicode="&#xc2;" horiz-adv-x="1413" 
d="M838 1870h155l154 -299h-80l-160 203l-237 -203h-84zM1163 0l-100 436h-725l-250 -436h-129l844 1462h139l348 -1462h-127zM852 1333l-453 -790h639l-182 790h-4z" />
    <glyph glyph-name="Atilde" unicode="&#xc3;" horiz-adv-x="1413" 
d="M770 1739q-87 0 -117 -158h-90q20 120 77 192t146 72q35 0 66.5 -16t55 -38.5t45.5 -45.5t45.5 -39t45.5 -16q85 0 119 157h88q-20 -120 -77 -192t-146 -72q-34 0 -65.5 16t-55 39t-45.5 46t-45.5 39t-46.5 16zM1163 0l-100 436h-725l-250 -436h-129l844 1462h139
l348 -1462h-127zM852 1333l-453 -790h639l-182 790h-4z" />
    <glyph glyph-name="Adieresis" unicode="&#xc4;" horiz-adv-x="1413" 
d="M1004 1620l28 180h135l-28 -180h-135zM649 1620l29 180h135l-29 -180h-135zM1163 0l-100 436h-725l-250 -436h-129l844 1462h139l348 -1462h-127zM852 1333l-453 -790h639l-182 790h-4z" />
    <glyph glyph-name="Aring" unicode="&#xc5;" horiz-adv-x="1413" 
d="M338 436l-250 -436h-129l803 1391q-55 28 -87 79t-32 113q0 107 78.5 189.5t196.5 82.5q94 0 157.5 -62t63.5 -153q0 -83 -48.5 -154.5t-129.5 -101.5l329 -1384h-127l-100 436h-725zM905 1759q-71 0 -116.5 -49.5t-45.5 -114.5q0 -57 38 -94t96 -37q71 0 116 49.5
t45 114.5q0 57 -37.5 94t-95.5 37zM852 1333l-453 -790h639l-182 790h-4z" />
    <glyph glyph-name="AE" unicode="&#xc6;" horiz-adv-x="2211" 
d="M1040 0l70 436h-641l-369 -436h-141l1239 1462h1028l-18 -110h-832l-90 -568h742l-19 -110h-741l-88 -563h827l-18 -111h-949zM1257 1370l-698 -827h567z" />
    <glyph glyph-name="Ccedilla" unicode="&#xc7;" horiz-adv-x="1382" 
d="M770 -211q0 -78 -72.5 -128t-165.5 -50q-108 0 -174 39l15 88q70 -43 162 -43q62 0 100.5 23t38.5 63q0 30 -27.5 44.5t-68.5 14.5q-38 0 -82 -14l-31 39l96 125q-197 44 -309.5 208t-112.5 402q0 177 54.5 338.5t150.5 283t237 193.5t304 72q222 0 347 -119t136 -313
h-125q-3 66 -26 122t-66 101t-113 70.5t-161 25.5q-183 0 -323.5 -106.5t-213 -282.5t-72.5 -389q0 -230 113 -369t324 -139q325 0 436 320h129q-66 -201 -210.5 -317t-363.5 -116q-10 0 -67 5l-51 -66q16 4 40 4q59 0 105.5 -32t46.5 -97z" />
    <glyph glyph-name="Egrave" unicode="&#xc8;" horiz-adv-x="1296" 
d="M901 1577h-72l-180 293h170zM123 0l231 1462h955l-19 -110h-831l-90 -568h741l-18 -110h-742l-88 -563h828l-19 -111h-948z" />
    <glyph glyph-name="Eacute" unicode="&#xc9;" horiz-adv-x="1296" 
d="M764 1577l166 293h174l-262 -293h-78zM123 0l231 1462h955l-19 -110h-831l-90 -568h741l-18 -110h-742l-88 -563h828l-19 -111h-948z" />
    <glyph glyph-name="Ecircumflex" unicode="&#xca;" horiz-adv-x="1296" 
d="M827 1870h156l154 -299h-80l-160 203l-238 -203h-84zM123 0l231 1462h955l-19 -110h-831l-90 -568h741l-18 -110h-742l-88 -563h828l-19 -111h-948z" />
    <glyph glyph-name="Edieresis" unicode="&#xcb;" horiz-adv-x="1296" 
d="M983 1620l29 180h135l-29 -180h-135zM629 1620l28 180h136l-29 -180h-135zM123 0l231 1462h955l-19 -110h-831l-90 -568h741l-18 -110h-742l-88 -563h828l-19 -111h-948z" />
    <glyph glyph-name="Igrave" unicode="&#xcc;" horiz-adv-x="530" 
d="M477 1577h-71l-181 293h170zM354 1462h121l-231 -1462h-121z" />
    <glyph glyph-name="Iacute" unicode="&#xcd;" horiz-adv-x="530" 
d="M401 1577l166 293h174l-262 -293h-78zM354 1462h121l-231 -1462h-121z" />
    <glyph glyph-name="Icircumflex" unicode="&#xce;" horiz-adv-x="530" 
d="M399 1870h156l154 -299h-80l-160 203l-238 -203h-84zM354 1462h121l-231 -1462h-121z" />
    <glyph glyph-name="Idieresis" unicode="&#xcf;" horiz-adv-x="530" 
d="M549 1620l29 180h135l-29 -180h-135zM195 1620l28 180h135l-28 -180h-135zM354 1462h121l-231 -1462h-121z" />
    <glyph glyph-name="Eth" unicode="&#xd0;" horiz-adv-x="1529" 
d="M1458 852q0 -190 -64 -351t-174 -270t-259.5 -170t-319.5 -61h-496l109 688h-176l18 111h176l105 663h485q279 0 437.5 -164.5t158.5 -445.5zM287 111h370q199 0 352 93.5t236.5 261.5t83.5 384q0 236 -122.5 369t-360.5 133h-363l-88 -553h340l-18 -111h-338z" />
    <glyph glyph-name="Ntilde" unicode="&#xd1;" horiz-adv-x="1527" 
d="M807 1739q-87 0 -117 -158h-90q20 120 77 192t146 72q35 0 66.5 -16t55 -38.5t45.5 -45.5t45.5 -39t45.5 -16q85 0 119 157h88q-20 -120 -77 -192t-146 -72q-34 0 -65.5 16t-55 39t-45.5 46t-45.5 39t-46.5 16zM504 1462l649 -1245h4l197 1245h119l-232 -1462h-104
l-680 1315h-4l-209 -1315h-121l231 1462h150z" />
    <glyph glyph-name="Ograve" unicode="&#xd2;" horiz-adv-x="1511" 
d="M969 1577h-72l-180 293h170zM881 1487q255 0 407 -173.5t152 -451.5q0 -178 -53 -339t-147.5 -282.5t-235.5 -193.5t-306 -72q-255 0 -407 173.5t-152 451.5q0 178 53 339t147.5 282.5t235.5 193.5t306 72zM872 1374q-139 0 -254.5 -62t-191 -168t-117 -247.5
t-41.5 -300.5q0 -230 114 -369t325 -139q139 0 254.5 62t191 168t117 247.5t41.5 300.5q0 230 -114 369t-325 139z" />
    <glyph glyph-name="Oacute" unicode="&#xd3;" horiz-adv-x="1511" 
d="M852 1577l166 293h174l-262 -293h-78zM881 1487q255 0 407 -173.5t152 -451.5q0 -178 -53 -339t-147.5 -282.5t-235.5 -193.5t-306 -72q-255 0 -407 173.5t-152 451.5q0 178 53 339t147.5 282.5t235.5 193.5t306 72zM872 1374q-139 0 -254.5 -62t-191 -168t-117 -247.5
t-41.5 -300.5q0 -230 114 -369t325 -139q139 0 254.5 62t191 168t117 247.5t41.5 300.5q0 230 -114 369t-325 139z" />
    <glyph glyph-name="Ocircumflex" unicode="&#xd4;" horiz-adv-x="1511" 
d="M874 1870h156l154 -299h-80l-160 203l-237 -203h-84zM881 1487q255 0 407 -173.5t152 -451.5q0 -178 -53 -339t-147.5 -282.5t-235.5 -193.5t-306 -72q-255 0 -407 173.5t-152 451.5q0 178 53 339t147.5 282.5t235.5 193.5t306 72zM872 1374q-139 0 -254.5 -62t-191 -168
t-117 -247.5t-41.5 -300.5q0 -230 114 -369t325 -139q139 0 254.5 62t191 168t117 247.5t41.5 300.5q0 230 -114 369t-325 139z" />
    <glyph glyph-name="Otilde" unicode="&#xd5;" horiz-adv-x="1511" 
d="M799 1739q-87 0 -117 -158h-90q20 120 77 192t146 72q35 0 66.5 -16t55 -38.5t45.5 -45.5t45.5 -39t45.5 -16q85 0 119 157h88q-20 -120 -77 -192t-146 -72q-34 0 -65.5 16t-55 39t-45.5 46t-45.5 39t-46.5 16zM881 1487q255 0 407 -173.5t152 -451.5q0 -178 -53 -339
t-147.5 -282.5t-235.5 -193.5t-306 -72q-255 0 -407 173.5t-152 451.5q0 178 53 339t147.5 282.5t235.5 193.5t306 72zM872 1374q-139 0 -254.5 -62t-191 -168t-117 -247.5t-41.5 -300.5q0 -230 114 -369t325 -139q139 0 254.5 62t191 168t117 247.5t41.5 300.5
q0 230 -114 369t-325 139z" />
    <glyph glyph-name="Odieresis" unicode="&#xd6;" horiz-adv-x="1511" 
d="M1030 1620l29 180h135l-29 -180h-135zM676 1620l29 180h135l-29 -180h-135zM881 1487q255 0 407 -173.5t152 -451.5q0 -178 -53 -339t-147.5 -282.5t-235.5 -193.5t-306 -72q-255 0 -407 173.5t-152 451.5q0 178 53 339t147.5 282.5t235.5 193.5t306 72zM872 1374
q-139 0 -254.5 -62t-191 -168t-117 -247.5t-41.5 -300.5q0 -230 114 -369t325 -139q139 0 254.5 62t191 168t117 247.5t41.5 300.5q0 230 -114 369t-325 139z" />
    <glyph glyph-name="multiply" unicode="&#xd7;" 
d="M1018 223l-322 381l-450 -387l-68 80l451 389l-322 379l84 72l320 -379l444 383l68 -82l-445 -383l322 -381z" />
    <glyph glyph-name="Oslash" unicode="&#xd8;" horiz-adv-x="1511" 
d="M698 -25q-241 0 -395 160l-180 -196l-70 67l191 205q-105 161 -105 389q0 178 53 339t147.5 282.5t235.5 193.5t306 72q241 0 395 -160l166 178l67 -65l-174 -189q105 -161 105 -389q0 -178 -53 -339t-147.5 -282.5t-235.5 -193.5t-306 -72zM268 596q0 -170 62 -291
l864 934q-116 135 -322 135q-139 0 -254.5 -62t-191 -168t-117 -247.5t-41.5 -300.5zM1311 866q0 170 -62 291l-864 -934q116 -135 322 -135q139 0 254.5 62t191 168t117 247.5t41.5 300.5z" />
    <glyph glyph-name="Ugrave" unicode="&#xd9;" horiz-adv-x="1507" 
d="M967 1577h-72l-180 293h170zM1339 600q-44 -300 -215 -462.5t-444 -162.5q-236 0 -367 125.5t-131 356.5q0 64 13 147l135 858h121l-140 -880q-10 -75 -10 -123q0 -186 101.5 -279.5t283.5 -93.5q207 0 347.5 124.5t178.5 371.5l140 880h116z" />
    <glyph glyph-name="Uacute" unicode="&#xda;" horiz-adv-x="1507" 
d="M831 1577l166 293h174l-262 -293h-78zM1339 600q-44 -300 -215 -462.5t-444 -162.5q-236 0 -367 125.5t-131 356.5q0 64 13 147l135 858h121l-140 -880q-10 -75 -10 -123q0 -186 101.5 -279.5t283.5 -93.5q207 0 347.5 124.5t178.5 371.5l140 880h116z" />
    <glyph glyph-name="Ucircumflex" unicode="&#xdb;" horiz-adv-x="1507" 
d="M895 1870h156l153 -299h-80l-159 203l-238 -203h-84zM1339 600q-44 -300 -215 -462.5t-444 -162.5q-236 0 -367 125.5t-131 356.5q0 64 13 147l135 858h121l-140 -880q-10 -75 -10 -123q0 -186 101.5 -279.5t283.5 -93.5q207 0 347.5 124.5t178.5 371.5l140 880h116z" />
    <glyph glyph-name="Udieresis" unicode="&#xdc;" horiz-adv-x="1507" 
d="M1024 1620l29 180h135l-29 -180h-135zM670 1620l28 180h136l-29 -180h-135zM1339 600q-44 -300 -215 -462.5t-444 -162.5q-236 0 -367 125.5t-131 356.5q0 64 13 147l135 858h121l-140 -880q-10 -75 -10 -123q0 -186 101.5 -279.5t283.5 -93.5q207 0 347.5 124.5
t178.5 371.5l140 880h116z" />
    <glyph glyph-name="Yacute" unicode="&#xdd;" horiz-adv-x="1312" 
d="M764 1577l166 293h174l-262 -293h-78zM635 0h-121l96 610l-420 852h129l367 -739h6l588 739h141l-690 -852z" />
    <glyph glyph-name="Thorn" unicode="&#xde;" horiz-adv-x="1310" 
d="M680 328h-385l-51 -328h-121l231 1462h119l-45 -288h385q210 0 322 -93t112 -264q0 -231 -154 -360t-413 -129zM313 438h389q196 0 307 92.5t111 276.5q0 131 -79.5 193.5t-239.5 62.5h-389z" />
    <glyph glyph-name="germandbls" unicode="&#xdf;" horiz-adv-x="1236" 
d="M852 883q120 -27 197 -127.5t77 -239.5q0 -109 -33 -199t-87.5 -150t-127.5 -102t-151 -60.5t-160 -18.5q-66 0 -125 18l17 105q59 -19 108 -19q87 0 164.5 25t142 74.5t102.5 133.5t38 193q0 140 -86.5 227.5t-239.5 87.5h-82l19 109h82q141 0 227 77t86 200
q0 92 -66.5 152.5t-173.5 60.5q-160 0 -255 -110.5t-124 -301.5l-161 -1018h-119l162 1022q38 233 169 371.5t336 138.5q156 0 249 -86.5t93 -228.5q0 -66 -27 -126t-69.5 -101t-89.5 -68.5t-92 -38.5z" />
    <glyph glyph-name="agrave" unicode="&#xe0;" horiz-adv-x="1103" 
d="M723 1192h-72l-170 315h160zM739 0q-6 80 11 182q-47 -90 -153 -147.5t-224 -57.5q-127 0 -213 71.5t-86 189.5q0 141 99.5 228t285.5 109l362 43q17 105 17 136q0 190 -230 190q-115 0 -197 -55t-108 -152h-117q37 147 158 229.5t274 82.5q159 0 247.5 -72.5
t88.5 -202.5q0 -33 -12 -117l-74 -467q-14 -83 -10 -190h-119zM788 408l17 110l-324 -37q-69 -8 -117 -21.5t-88.5 -39.5t-60.5 -69t-20 -105q0 -75 51.5 -121.5t146.5 -46.5q145 0 258 87.5t137 242.5z" />
    <glyph glyph-name="aacute" unicode="&#xe1;" horiz-adv-x="1103" 
d="M616 1192l166 315h172l-260 -315h-78zM739 0q-6 80 11 182q-47 -90 -153 -147.5t-224 -57.5q-127 0 -213 71.5t-86 189.5q0 141 99.5 228t285.5 109l362 43q17 105 17 136q0 190 -230 190q-115 0 -197 -55t-108 -152h-117q37 147 158 229.5t274 82.5q159 0 247.5 -72.5
t88.5 -202.5q0 -33 -12 -117l-74 -467q-14 -83 -10 -190h-119zM788 408l17 110l-324 -37q-69 -8 -117 -21.5t-88.5 -39.5t-60.5 -69t-20 -105q0 -75 51.5 -121.5t146.5 -46.5q145 0 258 87.5t137 242.5z" />
    <glyph glyph-name="acircumflex" unicode="&#xe2;" horiz-adv-x="1103" 
d="M651 1507h148l123 -321h-80l-125 233l-232 -233h-84zM739 0q-6 80 11 182q-47 -90 -153 -147.5t-224 -57.5q-127 0 -213 71.5t-86 189.5q0 141 99.5 228t285.5 109l362 43q17 105 17 136q0 190 -230 190q-115 0 -197 -55t-108 -152h-117q37 147 158 229.5t274 82.5
q159 0 247.5 -72.5t88.5 -202.5q0 -33 -12 -117l-74 -467q-14 -83 -10 -190h-119zM788 408l17 110l-324 -37q-69 -8 -117 -21.5t-88.5 -39.5t-60.5 -69t-20 -105q0 -75 51.5 -121.5t146.5 -46.5q145 0 258 87.5t137 242.5z" />
    <glyph glyph-name="atilde" unicode="&#xe3;" horiz-adv-x="1103" 
d="M561 1376q-85 0 -117 -168h-90q20 120 77.5 192.5t146.5 72.5q35 0 66 -17t53.5 -41t44 -48t45.5 -41t49 -17q48 0 75 45.5t43 120.5h88q-20 -121 -77 -193t-146 -72q-34 0 -64.5 17t-53.5 41.5t-44.5 49t-46 41.5t-49.5 17zM739 0q-6 80 11 182q-47 -90 -153 -147.5
t-224 -57.5q-127 0 -213 71.5t-86 189.5q0 141 99.5 228t285.5 109l362 43q17 105 17 136q0 190 -230 190q-115 0 -197 -55t-108 -152h-117q37 147 158 229.5t274 82.5q159 0 247.5 -72.5t88.5 -202.5q0 -33 -12 -117l-74 -467q-14 -83 -10 -190h-119zM788 408l17 110
l-324 -37q-69 -8 -117 -21.5t-88.5 -39.5t-60.5 -69t-20 -105q0 -75 51.5 -121.5t146.5 -46.5q145 0 258 87.5t137 242.5z" />
    <glyph glyph-name="adieresis" unicode="&#xe4;" horiz-adv-x="1103" 
d="M774 1260l29 180h135l-29 -180h-135zM420 1260l29 180h135l-29 -180h-135zM739 0q-6 80 11 182q-47 -90 -153 -147.5t-224 -57.5q-127 0 -213 71.5t-86 189.5q0 141 99.5 228t285.5 109l362 43q17 105 17 136q0 190 -230 190q-115 0 -197 -55t-108 -152h-117
q37 147 158 229.5t274 82.5q159 0 247.5 -72.5t88.5 -202.5q0 -33 -12 -117l-74 -467q-14 -83 -10 -190h-119zM788 408l17 110l-324 -37q-69 -8 -117 -21.5t-88.5 -39.5t-60.5 -69t-20 -105q0 -75 51.5 -121.5t146.5 -46.5q145 0 258 87.5t137 242.5z" />
    <glyph glyph-name="aring" unicode="&#xe5;" horiz-adv-x="1103" 
d="M721 1561q75 0 125 -49t49 -121q2 -85 -60 -150t-157 -65q-74 0 -124 49t-50 121q0 85 61.5 150t155.5 65zM688 1260q54 0 87.5 36t31.5 84q2 40 -26 68.5t-70 28.5q-52 0 -85.5 -36.5t-33.5 -84.5q0 -40 27.5 -68t68.5 -28zM739 0q-6 80 11 182q-47 -90 -153 -147.5
t-224 -57.5q-127 0 -213 71.5t-86 189.5q0 141 99.5 228t285.5 109l362 43q17 105 17 136q0 190 -230 190q-115 0 -197 -55t-108 -152h-117q37 147 158 229.5t274 82.5q159 0 247.5 -72.5t88.5 -202.5q0 -33 -12 -117l-74 -467q-14 -83 -10 -190h-119zM788 408l17 110
l-324 -37q-69 -8 -117 -21.5t-88.5 -39.5t-60.5 -69t-20 -105q0 -75 51.5 -121.5t146.5 -46.5q145 0 258 87.5t137 242.5z" />
    <glyph glyph-name="ae" unicode="&#xe6;" horiz-adv-x="1800" 
d="M1647 291q-56 -155 -178.5 -235.5t-266.5 -80.5q-143 0 -236.5 73t-131.5 200q-21 -48 -61.5 -94.5t-97 -87t-133.5 -65t-161 -24.5q-130 0 -217.5 75t-87.5 202q0 142 113 235t343 93h285l17 100q4 27 4 68q0 194 -232 194q-115 0 -195 -54.5t-106 -152.5h-117
q37 148 154.5 230t269.5 82q138 0 223.5 -58t102.5 -162q165 220 395 220q178 0 270.5 -111t92.5 -295q0 -67 -17 -160h-757q-4 -46 -4 -71q0 -160 76.5 -246t222.5 -86q110 0 186.5 52.5t130.5 158.5h113zM1321 944q-139 0 -243 -98.5t-142 -263.5h639q4 27 4 61
q0 143 -64 222t-194 79zM397 78q145 0 257.5 87t136.5 243l12 75h-289q-321 0 -321 -227q0 -84 55.5 -131t148.5 -47z" />
    <glyph glyph-name="ccedilla" unicode="&#xe7;" horiz-adv-x="1073" 
d="M612 -211q0 -78 -72 -128t-165 -50q-108 0 -174 39l14 88q70 -43 162 -43q62 0 100.5 23t38.5 63q0 30 -27.5 44.5t-68.5 14.5q-38 0 -82 -14l-31 39l94 123q-132 33 -211 145.5t-79 276.5q0 178 71.5 325t196.5 230.5t276 83.5q153 0 247 -90t97 -244h-110
q-7 113 -71.5 171t-170.5 58q-122 0 -219 -71.5t-149 -192t-52 -266.5q0 -153 76 -243.5t199 -90.5q238 0 321 229h113q-49 -160 -162.5 -247t-271.5 -87q-21 0 -31 2l-51 -63q16 4 41 4q59 0 105 -32t46 -97z" />
    <glyph glyph-name="egrave" unicode="&#xe8;" horiz-adv-x="1120" 
d="M750 1192h-72l-170 315h160zM967 291q-56 -155 -178.5 -235.5t-266.5 -80.5q-191 0 -302 116t-111 317q0 180 73 327.5t197.5 230.5t273.5 83q178 0 270.5 -111t92.5 -295q0 -67 -17 -160h-772q-4 -46 -4 -71q0 -159 83.5 -245.5t230.5 -86.5q110 0 186.5 52.5
t130.5 158.5h113zM641 944q-140 0 -248.5 -99t-148.5 -263h651q4 27 4 61q0 143 -64 222t-194 79z" />
    <glyph glyph-name="eacute" unicode="&#xe9;" horiz-adv-x="1120" 
d="M623 1192l165 315h173l-261 -315h-77zM967 291q-56 -155 -178.5 -235.5t-266.5 -80.5q-191 0 -302 116t-111 317q0 180 73 327.5t197.5 230.5t273.5 83q178 0 270.5 -111t92.5 -295q0 -67 -17 -160h-772q-4 -46 -4 -71q0 -159 83.5 -245.5t230.5 -86.5q110 0 186.5 52.5
t130.5 158.5h113zM641 944q-140 0 -248.5 -99t-148.5 -263h651q4 27 4 61q0 143 -64 222t-194 79z" />
    <glyph glyph-name="ecircumflex" unicode="&#xea;" horiz-adv-x="1120" 
d="M674 1507h147l123 -321h-80l-125 233l-231 -233h-84zM967 291q-56 -155 -178.5 -235.5t-266.5 -80.5q-191 0 -302 116t-111 317q0 180 73 327.5t197.5 230.5t273.5 83q178 0 270.5 -111t92.5 -295q0 -67 -17 -160h-772q-4 -46 -4 -71q0 -159 83.5 -245.5t230.5 -86.5
q110 0 186.5 52.5t130.5 158.5h113zM641 944q-140 0 -248.5 -99t-148.5 -263h651q4 27 4 61q0 143 -64 222t-194 79z" />
    <glyph glyph-name="edieresis" unicode="&#xeb;" horiz-adv-x="1120" 
d="M803 1260l28 180h136l-29 -180h-135zM449 1260l28 180h135l-28 -180h-135zM967 291q-56 -155 -178.5 -235.5t-266.5 -80.5q-191 0 -302 116t-111 317q0 180 73 327.5t197.5 230.5t273.5 83q178 0 270.5 -111t92.5 -295q0 -67 -17 -160h-772q-4 -46 -4 -71
q0 -159 83.5 -245.5t230.5 -86.5q110 0 186.5 52.5t130.5 158.5h113zM641 944q-140 0 -248.5 -99t-148.5 -263h651q4 27 4 61q0 143 -64 222t-194 79z" />
    <glyph glyph-name="igrave" unicode="&#xec;" horiz-adv-x="514" 
d="M444 1192h-71l-170 315h159zM276 1024h121l-161 -1024h-121z" />
    <glyph glyph-name="iacute" unicode="&#xed;" horiz-adv-x="514" 
d="M317 1192l166 315h172l-260 -315h-78zM276 1024h121l-161 -1024h-121z" />
    <glyph glyph-name="icircumflex" unicode="&#xee;" horiz-adv-x="514" 
d="M352 1507h148l123 -321h-80l-125 233l-232 -233h-84zM276 1024h121l-161 -1024h-121z" />
    <glyph glyph-name="idieresis" unicode="&#xef;" horiz-adv-x="514" 
d="M483 1260l29 180h135l-29 -180h-135zM129 1260l29 180h135l-29 -180h-135zM276 1024h121l-161 -1024h-121z" />
    <glyph glyph-name="eth" unicode="&#xf0;" horiz-adv-x="1171" 
d="M1059 631q0 -177 -66.5 -326t-191.5 -239.5t-283 -90.5q-184 0 -295.5 118t-111.5 321q0 173 68.5 318t193 231t278.5 86q169 0 273 -140q-55 187 -168 334l-305 -92l-19 78l266 80q-97 105 -225 186l2 12h152q108 -75 186 -164l207 64l20 -78l-174 -53
q193 -262 193 -645zM641 944q-124 0 -219.5 -72.5t-145 -192.5t-49.5 -265q0 -156 80 -245t221 -89q124 0 219.5 73.5t144.5 194.5t48 266q1 155 -79 242.5t-220 87.5z" />
    <glyph glyph-name="ntilde" unicode="&#xf1;" horiz-adv-x="1198" 
d="M602 1376q-85 0 -117 -168h-90q20 121 77 193t146 72q35 0 66 -17t54 -41t44.5 -48t45.5 -41t49 -17q48 0 75 45.5t43 120.5h88q-20 -121 -77 -193t-146 -72q-34 0 -64.5 17t-53.5 41.5t-44.5 49t-46 41.5t-49.5 17zM389 1024l-31 -195q51 102 148.5 161t218.5 59
q151 0 234 -79.5t83 -224.5q0 -37 -6 -81l-104 -664h-121l100 639q9 70 9 86q0 110 -57.5 166.5t-168.5 56.5q-139 0 -238 -93t-130 -284l-90 -571h-121l161 1024h113z" />
    <glyph glyph-name="ograve" unicode="&#xf2;" horiz-adv-x="1171" 
d="M748 1192h-72l-170 315h160zM518 -25q-184 0 -295.5 118t-111.5 321q0 173 68.5 318t193 231t278.5 86q184 0 296 -118t112 -321q0 -129 -40.5 -245.5t-111.5 -202.5t-172 -136.5t-217 -50.5zM528 80q124 0 219.5 72.5t145 192.5t49.5 265q0 156 -80 245t-221 89
q-124 0 -219.5 -72.5t-145 -192.5t-49.5 -265q0 -156 80 -245t221 -89z" />
    <glyph glyph-name="oacute" unicode="&#xf3;" horiz-adv-x="1171" 
d="M641 1192l166 315h172l-260 -315h-78zM518 -25q-184 0 -295.5 118t-111.5 321q0 173 68.5 318t193 231t278.5 86q184 0 296 -118t112 -321q0 -129 -40.5 -245.5t-111.5 -202.5t-172 -136.5t-217 -50.5zM528 80q124 0 219.5 72.5t145 192.5t49.5 265q0 156 -80 245
t-221 89q-124 0 -219.5 -72.5t-145 -192.5t-49.5 -265q0 -156 80 -245t221 -89z" />
    <glyph glyph-name="ocircumflex" unicode="&#xf4;" horiz-adv-x="1171" 
d="M690 1507h148l123 -321h-80l-125 233l-232 -233h-84zM518 -25q-184 0 -295.5 118t-111.5 321q0 173 68.5 318t193 231t278.5 86q184 0 296 -118t112 -321q0 -129 -40.5 -245.5t-111.5 -202.5t-172 -136.5t-217 -50.5zM528 80q124 0 219.5 72.5t145 192.5t49.5 265
q0 156 -80 245t-221 89q-124 0 -219.5 -72.5t-145 -192.5t-49.5 -265q0 -156 80 -245t221 -89z" />
    <glyph glyph-name="otilde" unicode="&#xf5;" horiz-adv-x="1169" 
d="M586 1376q-85 0 -117 -168h-90q20 121 77 193t146 72q35 0 66 -17t53.5 -41t44 -48t45.5 -41t49 -17q83 0 119 166h88q-20 -121 -77 -193t-146 -72q-34 0 -64.5 17t-53.5 41.5t-44.5 49t-46 41.5t-49.5 17zM518 -25q-184 0 -295.5 118t-111.5 321q0 173 68.5 318t193 231
t278.5 86q184 0 296 -118t112 -321q0 -129 -40.5 -245.5t-111.5 -202.5t-172 -136.5t-217 -50.5zM528 80q124 0 219.5 72.5t145 192.5t49.5 265q0 156 -80 245t-221 89q-124 0 -219.5 -72.5t-145 -192.5t-49.5 -265q0 -156 80 -245t221 -89z" />
    <glyph glyph-name="odieresis" unicode="&#xf6;" horiz-adv-x="1171" 
d="M821 1260l29 180h135l-29 -180h-135zM467 1260l29 180h135l-29 -180h-135zM518 -25q-184 0 -295.5 118t-111.5 321q0 173 68.5 318t193 231t278.5 86q184 0 296 -118t112 -321q0 -129 -40.5 -245.5t-111.5 -202.5t-172 -136.5t-217 -50.5zM528 80q124 0 219.5 72.5
t145 192.5t49.5 265q0 156 -80 245t-221 89q-124 0 -219.5 -72.5t-145 -192.5t-49.5 -265q0 -156 80 -245t221 -89z" />
    <glyph glyph-name="divide" unicode="&#xf7;" 
d="M674 1028l26 174h174l-26 -174h-174zM164 627l18 110h1059l-18 -110h-1059zM537 160l26 174h172l-26 -174h-172z" />
    <glyph glyph-name="oslash" unicode="&#xf8;" horiz-adv-x="1171" 
d="M518 -25q-163 0 -272 95l-140 -148l-63 60l145 153q-77 113 -77 279q0 173 68.5 318t193 231t278.5 86q181 0 289 -111l125 131l63 -59l-133 -142q64 -109 64 -258q0 -129 -40.5 -245.5t-111.5 -202.5t-172 -136.5t-217 -50.5zM227 414q0 -115 43 -191l592 631
q-81 90 -221 90q-124 0 -219.5 -72.5t-145 -192.5t-49.5 -265zM942 610q0 95 -31 168l-587 -624q80 -74 204 -74t219.5 72.5t145 192.5t49.5 265z" />
    <glyph glyph-name="ugrave" unicode="&#xf9;" horiz-adv-x="1185" 
d="M745 1192h-71l-170 315h160zM795 0l30 195q-52 -103 -145 -161.5t-213 -58.5q-148 0 -230.5 80t-82.5 224q0 37 6 81l104 664h121l-100 -639q-9 -70 -9 -86q0 -223 222 -223q138 0 233.5 92.5t126.5 284.5l90 571h121l-162 -1024h-112z" />
    <glyph glyph-name="uacute" unicode="&#xfa;" horiz-adv-x="1185" 
d="M637 1192l166 315h172l-260 -315h-78zM795 0l30 195q-52 -103 -145 -161.5t-213 -58.5q-148 0 -230.5 80t-82.5 224q0 37 6 81l104 664h121l-100 -639q-9 -70 -9 -86q0 -223 222 -223q138 0 233.5 92.5t126.5 284.5l90 571h121l-162 -1024h-112z" />
    <glyph glyph-name="ucircumflex" unicode="&#xfb;" horiz-adv-x="1185" 
d="M688 1507h148l122 -321h-79l-125 233l-232 -233h-84zM795 0l30 195q-52 -103 -145 -161.5t-213 -58.5q-148 0 -230.5 80t-82.5 224q0 37 6 81l104 664h121l-100 -639q-9 -70 -9 -86q0 -223 222 -223q138 0 233.5 92.5t126.5 284.5l90 571h121l-162 -1024h-112z" />
    <glyph glyph-name="udieresis" unicode="&#xfc;" horiz-adv-x="1185" 
d="M817 1260l29 180h135l-29 -180h-135zM463 1260l29 180h135l-29 -180h-135zM795 0l30 195q-52 -103 -145 -161.5t-213 -58.5q-148 0 -230.5 80t-82.5 224q0 37 6 81l104 664h121l-100 -639q-9 -70 -9 -86q0 -223 222 -223q138 0 233.5 92.5t126.5 284.5l90 571h121
l-162 -1024h-112z" />
    <glyph glyph-name="yacute" unicode="&#xfd;" horiz-adv-x="1079" 
d="M567 1192l166 315h172l-260 -315h-78zM365 -8l-215 1032h120l174 -889h5l514 889h127l-629 -1063q-110 -187 -197.5 -264.5t-210.5 -77.5q-48 0 -88 19l17 102q47 -16 81 -16q83 0 148 59.5t154 208.5z" />
    <glyph glyph-name="thorn" unicode="&#xfe;" horiz-adv-x="1239" 
d="M268 207l-90 -572h-121l297 1872h121l-108 -673q55 91 147.5 153t220.5 62q175 0 284 -115.5t109 -317.5q0 -169 -65.5 -315t-187.5 -236t-273 -90q-124 0 -215 68.5t-119 163.5zM721 948q-164 0 -272.5 -115t-141.5 -309q-12 -92 -12 -127q0 -147 83 -234t224 -87
q123 0 217.5 75.5t142.5 197.5t48 267q0 154 -75 243t-214 89z" />
    <glyph glyph-name="ydieresis" unicode="&#xff;" horiz-adv-x="1079" 
d="M745 1260l29 180h135l-28 -180h-136zM391 1260l29 180h135l-29 -180h-135zM365 -8l-215 1032h120l174 -889h5l514 889h127l-629 -1063q-110 -187 -197.5 -264.5t-210.5 -77.5q-48 0 -88 19l17 102q47 -16 81 -16q83 0 148 59.5t154 208.5z" />
    <glyph glyph-name="Amacron" unicode="&#x100;" horiz-adv-x="1413" 
d="M610 1618l17 102h561l-17 -102h-561zM1163 0l-100 436h-725l-250 -436h-129l844 1462h139l348 -1462h-127zM852 1333l-453 -790h639l-182 790h-4z" />
    <glyph glyph-name="amacron" unicode="&#x101;" horiz-adv-x="1103" 
d="M387 1260l16 102h562l-17 -102h-561zM739 0q-6 80 11 182q-47 -90 -153 -147.5t-224 -57.5q-127 0 -213 71.5t-86 189.5q0 141 99.5 228t285.5 109l362 43q17 105 17 136q0 190 -230 190q-115 0 -197 -55t-108 -152h-117q37 147 158 229.5t274 82.5q159 0 247.5 -72.5
t88.5 -202.5q0 -33 -12 -117l-74 -467q-14 -83 -10 -190h-119zM788 408l17 110l-324 -37q-69 -8 -117 -21.5t-88.5 -39.5t-60.5 -69t-20 -105q0 -75 51.5 -121.5t146.5 -46.5q145 0 258 87.5t137 242.5z" />
    <glyph glyph-name="Abreve" unicode="&#x102;" horiz-adv-x="1413" 
d="M1219 1870q-23 -141 -108 -222t-202 -81q-100 0 -160.5 62t-60.5 171q0 20 8 70h95q-5 -45 -5 -51q0 -71 35.5 -108.5t102.5 -37.5q75 0 126 51t66 146h103zM1163 0l-100 436h-725l-250 -436h-129l844 1462h139l348 -1462h-127zM852 1333l-453 -790h639l-182 790h-4z" />
    <glyph glyph-name="abreve" unicode="&#x103;" horiz-adv-x="1103" 
d="M676 1204q-100 0 -160.5 62.5t-60.5 171.5q0 37 8 69h90q-4 -36 -4 -51q0 -72 37.5 -111.5t103.5 -39.5q75 0 129.5 53.5t67.5 148.5h98q-23 -141 -107.5 -222t-201.5 -81zM739 0q-6 80 11 182q-47 -90 -153 -147.5t-224 -57.5q-127 0 -213 71.5t-86 189.5
q0 141 99.5 228t285.5 109l362 43q17 105 17 136q0 190 -230 190q-115 0 -197 -55t-108 -152h-117q37 147 158 229.5t274 82.5q159 0 247.5 -72.5t88.5 -202.5q0 -33 -12 -117l-74 -467q-14 -83 -10 -190h-119zM788 408l17 110l-324 -37q-69 -8 -117 -21.5t-88.5 -39.5
t-60.5 -69t-20 -105q0 -75 51.5 -121.5t146.5 -46.5q145 0 258 87.5t137 242.5z" />
    <glyph glyph-name="Aogonek" unicode="&#x104;" horiz-adv-x="1413" 
d="M1206 -379q-34 -10 -82 -10q-56 0 -100.5 36.5t-44.5 98.5q0 37 11.5 70.5t39 69.5t53.5 63.5t74 73.5l-94 413h-725l-250 -436h-129l844 1462h139l348 -1462h-55q-95 -99 -124.5 -145t-29.5 -86q0 -32 22 -51t58 -19q37 0 58 8zM852 1333l-453 -790h639l-182 790h-4z
" />
    <glyph glyph-name="aogonek" unicode="&#x105;" horiz-adv-x="1103" 
d="M786 -379q-34 -10 -81 -10q-56 0 -101 36.5t-45 98.5q0 69 41 127t137 152q0 64 13 157q-47 -90 -153 -147.5t-224 -57.5q-127 0 -213 71.5t-86 189.5q0 141 99.5 228t285.5 109l362 43q17 105 17 136q0 190 -230 190q-115 0 -197 -55t-108 -152h-117q37 147 158 229.5
t274 82.5q159 0 247.5 -72.5t88.5 -202.5q0 -33 -12 -117l-74 -467q-14 -83 -10 -190h-43q-94 -98 -123.5 -144.5t-29.5 -86.5q0 -32 21.5 -51t57.5 -19q37 0 58 8zM788 408l17 110l-324 -37q-69 -8 -117 -21.5t-88.5 -39.5t-60.5 -69t-20 -105q0 -75 51.5 -121.5
t146.5 -46.5q145 0 258 87.5t137 242.5z" />
    <glyph glyph-name="Cacute" unicode="&#x106;" horiz-adv-x="1382" 
d="M848 1577l166 293h174l-262 -293h-78zM696 -25q-255 0 -406 173t-151 452q0 177 54.5 338.5t150.5 283t237 193.5t304 72q222 0 347 -119t136 -313h-125q-3 66 -26 122t-66 101t-113 70.5t-161 25.5q-183 0 -323.5 -106.5t-213 -282.5t-72.5 -389q0 -230 113 -369
t324 -139q325 0 436 320h129q-66 -201 -210.5 -317t-363.5 -116z" />
    <glyph glyph-name="cacute" unicode="&#x107;" horiz-adv-x="1073" 
d="M629 1192l166 315h172l-260 -315h-78zM111 410q0 178 71.5 325t196.5 230.5t276 83.5q153 0 247 -90t97 -244h-110q-7 113 -71.5 171t-170.5 58q-122 0 -219 -71.5t-149 -192t-52 -266.5q0 -153 76 -243.5t199 -90.5q238 0 321 229h113q-49 -160 -162.5 -247t-271.5 -87
q-173 0 -282 120t-109 315z" />
    <glyph glyph-name="Ccircumflex" unicode="&#x108;" horiz-adv-x="1382" 
d="M911 1870h156l154 -299h-80l-160 203l-238 -203h-84zM696 -25q-255 0 -406 173t-151 452q0 177 54.5 338.5t150.5 283t237 193.5t304 72q222 0 347 -119t136 -313h-125q-3 66 -26 122t-66 101t-113 70.5t-161 25.5q-183 0 -323.5 -106.5t-213 -282.5t-72.5 -389
q0 -230 113 -369t324 -139q325 0 436 320h129q-66 -201 -210.5 -317t-363.5 -116z" />
    <glyph glyph-name="ccircumflex" unicode="&#x109;" horiz-adv-x="1073" 
d="M678 1507h147l123 -321h-80l-125 233l-231 -233h-84zM111 410q0 178 71.5 325t196.5 230.5t276 83.5q153 0 247 -90t97 -244h-110q-7 113 -71.5 171t-170.5 58q-122 0 -219 -71.5t-149 -192t-52 -266.5q0 -153 76 -243.5t199 -90.5q238 0 321 229h113
q-49 -160 -162.5 -247t-271.5 -87q-173 0 -282 120t-109 315z" />
    <glyph glyph-name="Cdotaccent" unicode="&#x10a;" horiz-adv-x="1382" 
d="M846 1620l28 180h144l-29 -180h-143zM696 -25q-255 0 -406 173t-151 452q0 177 54.5 338.5t150.5 283t237 193.5t304 72q222 0 347 -119t136 -313h-125q-3 66 -26 122t-66 101t-113 70.5t-161 25.5q-183 0 -323.5 -106.5t-213 -282.5t-72.5 -389q0 -230 113 -369
t324 -139q325 0 436 320h129q-66 -201 -210.5 -317t-363.5 -116z" />
    <glyph glyph-name="cdotaccent" unicode="&#x10b;" horiz-adv-x="1073" 
d="M627 1260l28 180h146l-29 -180h-145zM111 410q0 178 71.5 325t196.5 230.5t276 83.5q153 0 247 -90t97 -244h-110q-7 113 -71.5 171t-170.5 58q-122 0 -219 -71.5t-149 -192t-52 -266.5q0 -153 76 -243.5t199 -90.5q238 0 321 229h113q-49 -160 -162.5 -247t-271.5 -87
q-173 0 -282 120t-109 315z" />
    <glyph glyph-name="Ccaron" unicode="&#x10c;" horiz-adv-x="1382" 
d="M985 1571h-156l-153 299h80l159 -203l238 203h84zM696 -25q-255 0 -406 173t-151 452q0 177 54.5 338.5t150.5 283t237 193.5t304 72q222 0 347 -119t136 -313h-125q-3 66 -26 122t-66 101t-113 70.5t-161 25.5q-183 0 -323.5 -106.5t-213 -282.5t-72.5 -389
q0 -230 113 -369t324 -139q325 0 436 320h129q-66 -201 -210.5 -317t-363.5 -116z" />
    <glyph glyph-name="ccaron" unicode="&#x10d;" horiz-adv-x="1073" 
d="M766 1186h-148l-122 321h79l125 -233l232 233h84zM111 410q0 178 71.5 325t196.5 230.5t276 83.5q153 0 247 -90t97 -244h-110q-7 113 -71.5 171t-170.5 58q-122 0 -219 -71.5t-149 -192t-52 -266.5q0 -153 76 -243.5t199 -90.5q238 0 321 229h113q-49 -160 -162.5 -247
t-271.5 -87q-173 0 -282 120t-109 315z" />
    <glyph glyph-name="Dcaron" unicode="&#x10e;" horiz-adv-x="1509" 
d="M961 1571h-156l-154 299h80l160 -203l237 203h84zM354 1462h486q279 0 437.5 -164.5t158.5 -445.5q0 -190 -64 -351t-174.5 -270t-260 -170t-319.5 -61h-495zM823 1352h-362l-197 -1241h371q199 0 352 93.5t236.5 261.5t83.5 384q0 236 -123 369t-361 133z" />
    <glyph glyph-name="dcaron" unicode="&#x10f;" horiz-adv-x="1236" 
d="M969 819l110 688h119l-237 -1505h-111l31 199q-56 -92 -154 -159t-225 -67q-174 0 -282.5 116t-108.5 319q0 169 65 315.5t186.5 237t272.5 90.5q126 0 216 -68.5t118 -165.5zM1358 1077h-64l136 430h157zM518 76q162 0 270.5 117t141.5 311q12 88 12 127
q0 146 -82.5 233.5t-224.5 87.5q-123 0 -217.5 -76t-142.5 -198.5t-48 -267.5q0 -154 75.5 -244t215.5 -90z" />
    <glyph glyph-name="Dcroat" unicode="&#x110;" horiz-adv-x="1529" 
d="M1458 852q0 -190 -64 -351t-174 -270t-259.5 -170t-319.5 -61h-496l109 688h-176l18 111h176l105 663h485q279 0 437.5 -164.5t158.5 -445.5zM287 111h370q199 0 352 93.5t236.5 261.5t83.5 384q0 236 -122.5 369t-360.5 133h-363l-88 -553h340l-18 -111h-338z" />
    <glyph glyph-name="dcroat" unicode="&#x111;" horiz-adv-x="1234" 
d="M879 199q-56 -92 -154 -159t-225 -67q-174 0 -282.5 116t-108.5 319q0 169 65 315.5t186.5 237t272.5 90.5q126 0 216 -68.5t118 -165.5l63 400h-268l14 90h268l33 198h119l-31 -198h172l-14 -90h-172l-193 -1217h-110zM516 74q162 0 270.5 117t141.5 311q12 88 12 127
q0 146 -82.5 233.5t-224.5 87.5q-123 0 -217.5 -76t-142.5 -198.5t-48 -267.5q0 -154 75.5 -244t215.5 -90z" />
    <glyph glyph-name="Emacron" unicode="&#x112;" horiz-adv-x="1296" 
d="M571 1618l17 102h561l-16 -102h-562zM123 0l231 1462h955l-19 -110h-831l-90 -568h741l-18 -110h-742l-88 -563h828l-19 -111h-948z" />
    <glyph glyph-name="emacron" unicode="&#x113;" horiz-adv-x="1120" 
d="M412 1260l16 102h561l-16 -102h-561zM967 291q-56 -155 -178.5 -235.5t-266.5 -80.5q-191 0 -302 116t-111 317q0 180 73 327.5t197.5 230.5t273.5 83q178 0 270.5 -111t92.5 -295q0 -67 -17 -160h-772q-4 -46 -4 -71q0 -159 83.5 -245.5t230.5 -86.5q110 0 186.5 52.5
t130.5 158.5h113zM641 944q-140 0 -248.5 -99t-148.5 -263h651q4 27 4 61q0 143 -64 222t-194 79z" />
    <glyph glyph-name="Ebreve" unicode="&#x114;" horiz-adv-x="1296" 
d="M1133 1870q-23 -141 -108 -222t-202 -81q-100 0 -160.5 62t-60.5 171q0 20 8 70h95q-5 -45 -5 -51q0 -71 35.5 -108.5t102.5 -37.5q75 0 126 51t66 146h103zM123 0l231 1462h955l-19 -110h-831l-90 -568h741l-18 -110h-742l-88 -563h828l-19 -111h-948z" />
    <glyph glyph-name="ebreve" unicode="&#x115;" horiz-adv-x="1120" 
d="M684 1204q-100 0 -160.5 62.5t-60.5 171.5q0 37 8 69h90q-4 -36 -4 -51q0 -72 37.5 -111.5t103.5 -39.5q75 0 129.5 53.5t67.5 148.5h98q-23 -141 -107.5 -222t-201.5 -81zM967 291q-56 -155 -178.5 -235.5t-266.5 -80.5q-191 0 -302 116t-111 317q0 180 73 327.5
t197.5 230.5t273.5 83q178 0 270.5 -111t92.5 -295q0 -67 -17 -160h-772q-4 -46 -4 -71q0 -159 83.5 -245.5t230.5 -86.5q110 0 186.5 52.5t130.5 158.5h113zM641 944q-140 0 -248.5 -99t-148.5 -263h651q4 27 4 61q0 143 -64 222t-194 79z" />
    <glyph glyph-name="Edotaccent" unicode="&#x116;" horiz-adv-x="1296" 
d="M803 1620l28 180h144l-29 -180h-143zM123 0l231 1462h955l-19 -110h-831l-90 -568h741l-18 -110h-742l-88 -563h828l-19 -111h-948z" />
    <glyph glyph-name="edotaccent" unicode="&#x117;" horiz-adv-x="1120" 
d="M621 1260l28 180h146l-29 -180h-145zM967 291q-56 -155 -178.5 -235.5t-266.5 -80.5q-191 0 -302 116t-111 317q0 180 73 327.5t197.5 230.5t273.5 83q178 0 270.5 -111t92.5 -295q0 -67 -17 -160h-772q-4 -46 -4 -71q0 -159 83.5 -245.5t230.5 -86.5q110 0 186.5 52.5
t130.5 158.5h113zM641 944q-140 0 -248.5 -99t-148.5 -263h651q4 27 4 61q0 143 -64 222t-194 79z" />
    <glyph glyph-name="Eogonek" unicode="&#x118;" horiz-adv-x="1296" 
d="M903 -379q-34 -10 -82 -10q-56 0 -100.5 36.5t-44.5 98.5q0 65 36.5 120.5t118.5 133.5h-708l231 1462h955l-19 -110h-831l-90 -568h741l-18 -110h-742l-88 -563h828l-19 -111h-139q-95 -99 -124.5 -145t-29.5 -86q0 -32 22 -51t58 -19t57 8z" />
    <glyph glyph-name="eogonek" unicode="&#x119;" horiz-adv-x="1120" 
d="M696 -379q-34 -10 -82 -10q-56 0 -100.5 36.5t-44.5 98.5q0 61 33 114t104 124q-44 -9 -84 -9q-191 0 -302 116t-111 317q0 180 73 327.5t197.5 230.5t273.5 83q178 0 270.5 -111t92.5 -295q0 -67 -17 -160h-772q-4 -46 -4 -71q0 -159 83.5 -245.5t230.5 -86.5
q110 0 186.5 52.5t130.5 158.5h113q-9 -26 -22 -51t-31 -49t-30.5 -41t-36.5 -40.5t-33.5 -32.5t-35 -31.5t-28.5 -25.5q-103 -91 -141 -147t-38 -104q0 -32 22 -51t58 -19q37 0 58 8zM641 944q-140 0 -248.5 -99t-148.5 -263h651q4 27 4 61q0 143 -64 222t-194 79z" />
    <glyph glyph-name="Ecaron" unicode="&#x11a;" horiz-adv-x="1296" 
d="M926 1571h-156l-154 299h80l160 -203l238 203h84zM123 0l231 1462h955l-19 -110h-831l-90 -568h741l-18 -110h-742l-88 -563h828l-19 -111h-948z" />
    <glyph glyph-name="ecaron" unicode="&#x11b;" horiz-adv-x="1120" 
d="M760 1186h-148l-123 321h80l125 -233l232 233h84zM967 291q-56 -155 -178.5 -235.5t-266.5 -80.5q-191 0 -302 116t-111 317q0 180 73 327.5t197.5 230.5t273.5 83q178 0 270.5 -111t92.5 -295q0 -67 -17 -160h-772q-4 -46 -4 -71q0 -159 83.5 -245.5t230.5 -86.5
q110 0 186.5 52.5t130.5 158.5h113zM641 944q-140 0 -248.5 -99t-148.5 -263h651q4 27 4 61q0 143 -64 222t-194 79z" />
    <glyph glyph-name="Gcircumflex" unicode="&#x11c;" horiz-adv-x="1507" 
d="M872 1870h156l154 -299h-80l-160 203l-237 -203h-84zM696 -25q-255 0 -406 173t-151 452q0 177 55 338.5t151 283t237.5 193.5t304.5 72q224 0 352 -120t137 -314h-125q-7 138 -100.5 229.5t-271.5 91.5q-183 0 -324 -106.5t-214 -282.5t-73 -389q0 -230 113 -370
t324 -140q140 0 251.5 55.5t187.5 176t95 294.5h-381l19 109h499l-114 -719h-101l27 262q-60 -131 -197.5 -210t-294.5 -79z" />
    <glyph glyph-name="gcircumflex" unicode="&#x11d;" horiz-adv-x="1239" 
d="M719 1507h147l123 -321h-80l-125 233l-231 -233h-84zM850 61l27 166q-56 -89 -152 -152t-223 -63q-174 0 -283.5 113t-109.5 307q0 163 65.5 303.5t187.5 227t273 86.5q125 0 218.5 -70.5t123.5 -165.5l33 211h112l-153 -967q-37 -231 -172 -338.5t-342 -107.5
q-172 0 -282.5 73t-117.5 214h119q21 -187 285 -187q172 0 267 84.5t124 265.5zM930 522q12 86 12 121q0 140 -84.5 222.5t-222.5 82.5q-123 0 -217.5 -72t-142.5 -188.5t-48 -255.5q0 -145 75.5 -230t215.5 -85q163 0 271 110t141 295z" />
    <glyph glyph-name="Gbreve" unicode="&#x11e;" horiz-adv-x="1507" 
d="M1219 1870q-23 -141 -108 -222t-202 -81q-100 0 -160.5 62t-60.5 171q0 20 8 70h95q-5 -45 -5 -51q0 -71 35.5 -108.5t102.5 -37.5q75 0 126 51t66 146h103zM696 -25q-255 0 -406 173t-151 452q0 177 55 338.5t151 283t237.5 193.5t304.5 72q224 0 352 -120t137 -314
h-125q-7 138 -100.5 229.5t-271.5 91.5q-183 0 -324 -106.5t-214 -282.5t-73 -389q0 -230 113 -370t324 -140q140 0 251.5 55.5t187.5 176t95 294.5h-381l19 109h499l-114 -719h-101l27 262q-60 -131 -197.5 -210t-294.5 -79z" />
    <glyph glyph-name="gbreve" unicode="&#x11f;" horiz-adv-x="1239" 
d="M729 1204q-100 0 -160.5 62.5t-60.5 171.5q0 37 8 69h90q-4 -36 -4 -51q0 -72 37.5 -111.5t103.5 -39.5q75 0 129.5 53.5t67.5 148.5h98q-23 -141 -107.5 -222t-201.5 -81zM850 61l27 166q-56 -89 -152 -152t-223 -63q-174 0 -283.5 113t-109.5 307q0 163 65.5 303.5
t187.5 227t273 86.5q125 0 218.5 -70.5t123.5 -165.5l33 211h112l-153 -967q-37 -231 -172 -338.5t-342 -107.5q-172 0 -282.5 73t-117.5 214h119q21 -187 285 -187q172 0 267 84.5t124 265.5zM930 522q12 86 12 121q0 140 -84.5 222.5t-222.5 82.5q-123 0 -217.5 -72
t-142.5 -188.5t-48 -255.5q0 -145 75.5 -230t215.5 -85q163 0 271 110t141 295z" />
    <glyph glyph-name="Gdotaccent" unicode="&#x120;" horiz-adv-x="1507" 
d="M848 1620l29 180h143l-29 -180h-143zM696 -25q-255 0 -406 173t-151 452q0 177 55 338.5t151 283t237.5 193.5t304.5 72q224 0 352 -120t137 -314h-125q-7 138 -100.5 229.5t-271.5 91.5q-183 0 -324 -106.5t-214 -282.5t-73 -389q0 -230 113 -370t324 -140
q140 0 251.5 55.5t187.5 176t95 294.5h-381l19 109h499l-114 -719h-101l27 262q-60 -131 -197.5 -210t-294.5 -79z" />
    <glyph glyph-name="gdotaccent" unicode="&#x121;" horiz-adv-x="1239" 
d="M668 1260l28 180h146l-29 -180h-145zM850 61l27 166q-56 -89 -152 -152t-223 -63q-174 0 -283.5 113t-109.5 307q0 163 65.5 303.5t187.5 227t273 86.5q125 0 218.5 -70.5t123.5 -165.5l33 211h112l-153 -967q-37 -231 -172 -338.5t-342 -107.5q-172 0 -282.5 73
t-117.5 214h119q21 -187 285 -187q172 0 267 84.5t124 265.5zM930 522q12 86 12 121q0 140 -84.5 222.5t-222.5 82.5q-123 0 -217.5 -72t-142.5 -188.5t-48 -255.5q0 -145 75.5 -230t215.5 -85q163 0 271 110t141 295z" />
    <glyph glyph-name="uni0122" unicode="&#x122;" horiz-adv-x="1507" 
d="M696 -25q-255 0 -406 173t-151 452q0 177 55 338.5t151 283t237.5 193.5t304.5 72q224 0 352 -120t137 -314h-125q-7 138 -100.5 229.5t-271.5 91.5q-183 0 -324 -106.5t-214 -282.5t-73 -389q0 -230 113 -370t324 -140q140 0 251.5 55.5t187.5 176t95 294.5h-381l19 109
h499l-114 -719h-101l27 262q-60 -131 -197.5 -210t-294.5 -79zM567 -248l21 133h172l-21 -135q-31 -199 -215 -199l11 68q56 0 82 33.5t34 99.5h-84z" />
    <glyph glyph-name="uni0123" unicode="&#x123;" horiz-adv-x="1239" 
d="M829 1335l-20 -133h-172l20 135q31 199 215 199l-10 -68q-56 0 -82.5 -33.5t-34.5 -99.5h84zM850 61l27 166q-56 -89 -152 -152t-223 -63q-174 0 -283.5 113t-109.5 307q0 163 65.5 303.5t187.5 227t273 86.5q125 0 218.5 -70.5t123.5 -165.5l33 211h112l-153 -967
q-37 -231 -172 -338.5t-342 -107.5q-172 0 -282.5 73t-117.5 214h119q21 -187 285 -187q172 0 267 84.5t124 265.5zM930 522q12 86 12 121q0 140 -84.5 222.5t-222.5 82.5q-123 0 -217.5 -72t-142.5 -188.5t-48 -255.5q0 -145 75.5 -230t215.5 -85q163 0 271 110t141 295z
" />
    <glyph glyph-name="Hcircumflex" unicode="&#x124;" horiz-adv-x="1570" 
d="M915 1870h156l154 -299h-80l-160 203l-237 -203h-84zM123 0l231 1462h121l-104 -663h919l105 663h121l-232 -1462h-121l109 688h-920l-108 -688h-121z" />
    <glyph glyph-name="hcircumflex" unicode="&#x125;" horiz-adv-x="1198" 
d="M719 1870h155l154 -299h-80l-160 203l-237 -203h-84zM475 1507l-108 -673q51 102 144 158.5t214 56.5q151 0 234 -79.5t83 -224.5q0 -37 -6 -81l-104 -664h-121l100 639q9 70 9 86q0 110 -57.5 166.5t-168.5 56.5q-139 0 -238 -93t-130 -284l-90 -571h-121l239 1507h121z
" />
    <glyph glyph-name="Hbar" unicode="&#x126;" horiz-adv-x="1611" 
d="M360 606l-96 -606h-121l164 1036h-174l19 111h174l49 315h121l-52 -315h920l51 315h121l-49 -315h174l-19 -111h-174l-163 -1036h-121l96 606h-920zM377 717h919l52 319h-920z" />
    <glyph glyph-name="hbar" unicode="&#x127;" horiz-adv-x="1198" 
d="M326 571l-90 -571h-121l192 1217h-172l15 90h172l32 200h121l-33 -200h269l-15 -90h-268l-61 -383q51 102 144 158.5t214 56.5q151 0 234 -79.5t83 -224.5q0 -37 -6 -81l-104 -664h-121l100 639q9 70 9 86q0 110 -57.5 166.5t-168.5 56.5q-139 0 -238 -93t-130 -284z" />
    <glyph glyph-name="Itilde" unicode="&#x128;" horiz-adv-x="530" 
d="M317 1739q-86 0 -116 -158h-90q20 120 77 192t146 72q35 0 66.5 -16t55 -38.5t45.5 -45.5t45.5 -39t45.5 -16q85 0 119 157h88q-20 -120 -77.5 -192t-146.5 -72q-34 0 -65.5 16t-55 39t-45.5 46t-45.5 39t-46.5 16zM354 1462h121l-231 -1462h-121z" />
    <glyph glyph-name="itilde" unicode="&#x129;" horiz-adv-x="514" 
d="M270 1376q-53 0 -76 -75q-7 -23 -20 -93h-90q20 126 68 195.5t135 69.5q29 0 55.5 -17t46.5 -41t38 -48t38 -41t39 -17q10 0 19 2.5t16 6t13.5 11.5t11 14t9 18t7 19t6.5 22.5t5.5 23l5 25t5.5 24.5h88q-20 -126 -68 -195.5t-135 -69.5q-34 0 -66.5 26t-53.5 57t-47 57
t-50 26zM276 1024h121l-161 -1024h-121z" />
    <glyph glyph-name="Imacron" unicode="&#x12a;" horiz-adv-x="530" 
d="M154 1618l16 102h561l-16 -102h-561zM354 1462h121l-231 -1462h-121z" />
    <glyph glyph-name="imacron" unicode="&#x12b;" horiz-adv-x="514" 
d="M133 1260l17 102h479l-17 -102h-479zM276 1024h121l-161 -1024h-121z" />
    <glyph glyph-name="Ibreve" unicode="&#x12c;" horiz-adv-x="530" 
d="M739 1870q-23 -141 -107.5 -222t-201.5 -81q-100 0 -160.5 62t-60.5 171q0 20 8 70h94q-4 -36 -4 -51q0 -72 35.5 -109t101.5 -37q75 0 126.5 51t66.5 146h102zM354 1462h121l-231 -1462h-121z" />
    <glyph glyph-name="ibreve" unicode="&#x12d;" horiz-adv-x="514" 
d="M367 1204q-100 0 -161 62.5t-61 171.5q0 33 9 69h90q-4 -36 -4 -51q0 -72 37.5 -111.5t103.5 -39.5q75 0 129.5 53.5t67.5 148.5h98q-23 -141 -107.5 -222t-201.5 -81zM276 1024h121l-161 -1024h-121z" />
    <glyph glyph-name="Iogonek" unicode="&#x12e;" horiz-adv-x="530" 
d="M193 -379q-34 -10 -82 -10q-56 0 -101 36.5t-45 98.5q0 64 37.5 117.5t122.5 136.5h-2l231 1462h121l-231 -1462q-97 -77 -136.5 -130.5t-39.5 -100.5q0 -32 21.5 -51t57.5 -19q37 0 58 8z" />
    <glyph glyph-name="iogonek" unicode="&#x12f;" horiz-adv-x="514" 
d="M299 1260l29 180h145l-29 -180h-145zM117 0h-2l161 1024h121l-161 -1024q-97 -78 -137 -131t-40 -100q0 -32 22 -51t58 -19q37 0 58 8l-13 -86q-34 -10 -82 -10q-56 0 -100.5 36.5t-44.5 98.5q0 64 37.5 117.5t122.5 136.5z" />
    <glyph glyph-name="Idotaccent" unicode="&#x130;" horiz-adv-x="530" 
d="M371 1620l28 180h144l-29 -180h-143zM354 1462h121l-231 -1462h-121z" />
    <glyph glyph-name="dotlessi" unicode="&#x131;" horiz-adv-x="514" 
d="M276 1024h121l-161 -1024h-121z" />
    <glyph glyph-name="Jcircumflex" unicode="&#x134;" horiz-adv-x="1116" 
d="M999 1870h156l154 -299h-80l-160 203l-238 -203h-83zM811 514l150 948h122l-149 -948q-39 -254 -168.5 -396.5t-343.5 -142.5q-202 0 -309 116t-107 312h115q0 -147 75.5 -235t227.5 -88q171 0 262.5 113t124.5 321z" />
    <glyph glyph-name="jcircumflex" unicode="&#x135;" horiz-adv-x="514" 
d="M352 1507h148l123 -321h-80l-125 233l-232 -233h-84zM-51 -377q-44 0 -88 19l16 98q40 -12 68 -12q70 0 104 32.5t47 118.5l180 1145h121l-178 -1133q-21 -136 -85.5 -202t-184.5 -66z" />
    <glyph glyph-name="uni0136" unicode="&#x136;" horiz-adv-x="1417" 
d="M1116 0l-508 735l-286 -243l-78 -492h-121l231 1462h121l-131 -825l952 825h164l-760 -647l560 -815h-144zM498 -248l20 133h172l-20 -135q-31 -199 -215 -199l10 68q56 0 82.5 33.5t34.5 99.5h-84z" />
    <glyph glyph-name="uni0137" unicode="&#x137;" horiz-adv-x="1105" 
d="M827 0l-354 522l-178 -145l-59 -377h-121l239 1507h121l-158 -993l617 510h158l-531 -434l404 -590h-138zM373 -248l20 133h172l-20 -135q-31 -199 -215 -199l10 68q56 0 82.5 33.5t34.5 99.5h-84z" />
    <glyph glyph-name="kgreenlandic" unicode="&#x138;" horiz-adv-x="1105" 
d="M827 0l-354 522l-178 -145l-59 -377h-121l161 1024h121l-80 -510l617 510h158l-531 -434l404 -590h-138z" />
    <glyph glyph-name="Lacute" unicode="&#x139;" horiz-adv-x="1259" 
d="M420 1577l166 293h174l-262 -293h-78zM125 0l231 1462h121l-213 -1351h807l-18 -111h-928z" />
    <glyph glyph-name="lacute" unicode="&#x13a;" horiz-adv-x="514" 
d="M393 1577l166 293h174l-262 -293h-78zM236 0h-121l239 1507h121z" />
    <glyph glyph-name="uni013B" unicode="&#x13b;" horiz-adv-x="1259" 
d="M125 0l231 1462h121l-213 -1351h807l-18 -111h-928zM455 -248l20 133h172l-20 -135q-31 -199 -215 -199l10 68q56 0 82.5 33.5t34.5 99.5h-84z" />
    <glyph glyph-name="uni013C" unicode="&#x13c;" horiz-adv-x="514" 
d="M236 0h-121l239 1507h121zM51 -248l21 133h172l-21 -135q-31 -199 -215 -199l10 68q56 0 82.5 33.5t34.5 99.5h-84z" />
    <glyph glyph-name="Lcaron" unicode="&#x13d;" horiz-adv-x="1259" 
d="M846 1034h-64l136 430h157zM125 0l231 1462h121l-213 -1351h807l-18 -111h-928z" />
    <glyph glyph-name="lcaron" unicode="&#x13e;" horiz-adv-x="514" 
d="M236 0h-121l239 1507h121zM635 1077h-64l136 430h157z" />
    <glyph glyph-name="Ldot" unicode="&#x13f;" horiz-adv-x="1259" 
d="M125 0l231 1462h121l-213 -1351h807l-18 -111h-928zM815 690l29 180h145l-28 -180h-146z" />
    <glyph glyph-name="ldot" unicode="&#x140;" horiz-adv-x="702" 
d="M236 0h-121l239 1507h121zM549 565l29 180h145l-29 -180h-145z" />
    <glyph glyph-name="Lslash" unicode="&#x141;" horiz-adv-x="1277" 
d="M1092 111l-19 -111h-928l103 645l-187 -63l17 108l186 62l113 710h121l-107 -674l342 113l-18 -108l-340 -113l-90 -569h807z" />
    <glyph glyph-name="lslash" unicode="&#x142;" horiz-adv-x="606" 
d="M612 938l-219 -123l-129 -815h-121l121 762l-184 -105l18 111l185 104l100 635h121l-92 -581l217 123z" />
    <glyph glyph-name="Nacute" unicode="&#x143;" horiz-adv-x="1527" 
d="M860 1577l166 293h174l-262 -293h-78zM504 1462l649 -1245h4l197 1245h119l-232 -1462h-104l-680 1315h-4l-209 -1315h-121l231 1462h150z" />
    <glyph glyph-name="nacute" unicode="&#x144;" horiz-adv-x="1198" 
d="M633 1192l166 315h172l-260 -315h-78zM389 1024l-31 -195q51 102 148.5 161t218.5 59q151 0 234 -79.5t83 -224.5q0 -37 -6 -81l-104 -664h-121l100 639q9 70 9 86q0 110 -57.5 166.5t-168.5 56.5q-139 0 -238 -93t-130 -284l-90 -571h-121l161 1024h113z" />
    <glyph glyph-name="uni0145" unicode="&#x145;" horiz-adv-x="1527" 
d="M504 1462l649 -1245h4l197 1245h119l-232 -1462h-104l-680 1315h-4l-209 -1315h-121l231 1462h150zM557 -248l21 133h172l-21 -135q-31 -199 -215 -199l10 68q56 0 82.5 33.5t34.5 99.5h-84z" />
    <glyph glyph-name="uni0146" unicode="&#x146;" horiz-adv-x="1198" 
d="M389 1024l-31 -195q51 102 148.5 161t218.5 59q151 0 234 -79.5t83 -224.5q0 -37 -6 -81l-104 -664h-121l100 639q9 70 9 86q0 110 -57.5 166.5t-168.5 56.5q-139 0 -238 -93t-130 -284l-90 -571h-121l161 1024h113zM406 -248l20 133h172l-20 -135q-31 -199 -216 -199
l11 68q56 0 82 33.5t34 99.5h-83z" />
    <glyph glyph-name="Ncaron" unicode="&#x147;" horiz-adv-x="1527" 
d="M997 1571h-155l-154 299h80l160 -203l237 203h84zM504 1462l649 -1245h4l197 1245h119l-232 -1462h-104l-680 1315h-4l-209 -1315h-121l231 1462h150z" />
    <glyph glyph-name="ncaron" unicode="&#x148;" horiz-adv-x="1198" 
d="M770 1186h-147l-123 321h80l125 -233l231 233h84zM389 1024l-31 -195q51 102 148.5 161t218.5 59q151 0 234 -79.5t83 -224.5q0 -37 -6 -81l-104 -664h-121l100 639q9 70 9 86q0 110 -57.5 166.5t-168.5 56.5q-139 0 -238 -93t-130 -284l-90 -571h-121l161 1024h113z" />
    <glyph glyph-name="Eng" unicode="&#x14a;" horiz-adv-x="1527" 
d="M954 -377q-44 0 -88 19l17 98q40 -12 67 -12q71 0 107 33.5t49 117.5l22 137l-671 1299h-4l-209 -1315h-121l231 1462h150l649 -1245h4l197 1245h119l-248 -1571q-21 -136 -86 -202t-185 -66z" />
    <glyph glyph-name="eng" unicode="&#x14b;" horiz-adv-x="1198" 
d="M645 -377q-44 0 -88 19l16 98q40 -12 68 -12q71 0 105 32.5t47 118.5l118 760q9 70 9 86q0 110 -57.5 166.5t-168.5 56.5q-139 0 -238 -93t-130 -284l-90 -571h-121l161 1024h113l-31 -195q51 102 148.5 161t218.5 59q151 0 234 -79.5t83 -224.5q0 -37 -6 -81l-121 -773
q-21 -136 -85.5 -202t-184.5 -66z" />
    <glyph glyph-name="Omacron" unicode="&#x14c;" horiz-adv-x="1511" 
d="M639 1618l16 102h562l-17 -102h-561zM881 1487q255 0 407 -173.5t152 -451.5q0 -178 -53 -339t-147.5 -282.5t-235.5 -193.5t-306 -72q-255 0 -407 173.5t-152 451.5q0 178 53 339t147.5 282.5t235.5 193.5t306 72zM872 1374q-139 0 -254.5 -62t-191 -168t-117 -247.5
t-41.5 -300.5q0 -230 114 -369t325 -139q139 0 254.5 62t191 168t117 247.5t41.5 300.5q0 230 -114 369t-325 139z" />
    <glyph glyph-name="omacron" unicode="&#x14d;" horiz-adv-x="1171" 
d="M428 1260l16 102h562l-17 -102h-561zM518 -25q-184 0 -295.5 118t-111.5 321q0 173 68.5 318t193 231t278.5 86q184 0 296 -118t112 -321q0 -129 -40.5 -245.5t-111.5 -202.5t-172 -136.5t-217 -50.5zM528 80q124 0 219.5 72.5t145 192.5t49.5 265q0 156 -80 245t-221 89
q-124 0 -219.5 -72.5t-145 -192.5t-49.5 -265q0 -156 80 -245t221 -89z" />
    <glyph glyph-name="Obreve" unicode="&#x14e;" horiz-adv-x="1511" 
d="M1221 1870q-23 -141 -108 -222t-202 -81q-100 0 -160.5 62t-60.5 171q0 20 8 70h95q-5 -45 -5 -51q0 -71 35.5 -108.5t102.5 -37.5q75 0 126 51t66 146h103zM881 1487q255 0 407 -173.5t152 -451.5q0 -178 -53 -339t-147.5 -282.5t-235.5 -193.5t-306 -72
q-255 0 -407 173.5t-152 451.5q0 178 53 339t147.5 282.5t235.5 193.5t306 72zM872 1374q-139 0 -254.5 -62t-191 -168t-117 -247.5t-41.5 -300.5q0 -230 114 -369t325 -139q139 0 254.5 62t191 168t117 247.5t41.5 300.5q0 230 -114 369t-325 139z" />
    <glyph glyph-name="obreve" unicode="&#x14f;" horiz-adv-x="1171" 
d="M700 1204q-100 0 -160.5 62.5t-60.5 171.5q0 37 8 69h91q-5 -45 -5 -51q0 -72 38 -111.5t104 -39.5q75 0 129 53.5t67 148.5h99q-23 -141 -108 -222t-202 -81zM518 -25q-184 0 -295.5 118t-111.5 321q0 173 68.5 318t193 231t278.5 86q184 0 296 -118t112 -321
q0 -129 -40.5 -245.5t-111.5 -202.5t-172 -136.5t-217 -50.5zM528 80q124 0 219.5 72.5t145 192.5t49.5 265q0 156 -80 245t-221 89q-124 0 -219.5 -72.5t-145 -192.5t-49.5 -265q0 -156 80 -245t221 -89z" />
    <glyph glyph-name="Ohungarumlaut" unicode="&#x150;" horiz-adv-x="1511" 
d="M989 1577l170 293h162l-260 -293h-72zM700 1577l168 293h164l-262 -293h-70zM881 1487q255 0 407 -173.5t152 -451.5q0 -178 -53 -339t-147.5 -282.5t-235.5 -193.5t-306 -72q-255 0 -407 173.5t-152 451.5q0 178 53 339t147.5 282.5t235.5 193.5t306 72zM872 1374
q-139 0 -254.5 -62t-191 -168t-117 -247.5t-41.5 -300.5q0 -230 114 -369t325 -139q139 0 254.5 62t191 168t117 247.5t41.5 300.5q0 230 -114 369t-325 139z" />
    <glyph glyph-name="ohungarumlaut" unicode="&#x151;" horiz-adv-x="1169" 
d="M778 1192l170 315h162l-260 -315h-72zM489 1192l168 315h164l-262 -315h-70zM518 -25q-184 0 -295.5 118t-111.5 321q0 173 68.5 318t193 231t278.5 86q184 0 296 -118t112 -321q0 -129 -40.5 -245.5t-111.5 -202.5t-172 -136.5t-217 -50.5zM528 80q124 0 219.5 72.5
t145 192.5t49.5 265q0 156 -80 245t-221 89q-124 0 -219.5 -72.5t-145 -192.5t-49.5 -265q0 -156 80 -245t221 -89z" />
    <glyph glyph-name="OE" unicode="&#x152;" horiz-adv-x="2267" 
d="M735 0q-279 0 -437.5 164.5t-158.5 445.5q0 190 64 351t174 270t259.5 170t319.5 61h1325l-18 -110h-831l-91 -568h742l-19 -110h-741l-88 -563h827l-18 -111h-1309zM752 111h362l197 1241h-371q-199 0 -352 -93.5t-236.5 -262t-83.5 -384.5q0 -236 123 -368.5
t361 -132.5z" />
    <glyph glyph-name="oe" unicode="&#x153;" horiz-adv-x="1937" 
d="M1786 291q-56 -155 -178.5 -235.5t-266.5 -80.5q-141 0 -241 73t-142 196q-76 -121 -191 -195t-249 -74q-184 0 -295.5 118t-111.5 321q0 173 68.5 318t193 231t278.5 86q135 0 235.5 -73.5t143.5 -199.5q76 124 193 198.5t250 74.5q178 0 270 -110.5t92 -295.5
q0 -72 -16 -160h-772q-5 -57 -5 -71q0 -159 83.5 -245.5t230.5 -86.5q110 0 186.5 52.5t130.5 158.5h113zM1460 944q-140 0 -248.5 -99t-148.5 -263h651q4 27 4 61q0 143 -64 222t-194 79zM528 80q124 0 219.5 72.5t145 192.5t49.5 265q0 156 -80 245t-221 89
q-124 0 -219.5 -72.5t-145 -192.5t-49.5 -265q0 -156 80 -245t221 -89z" />
    <glyph glyph-name="Racute" unicode="&#x154;" horiz-adv-x="1384" 
d="M743 1577l166 293h174l-262 -293h-78zM244 0h-121l231 1462h529q210 0 322 -98t112 -281q0 -97 -39 -180t-101.5 -137.5t-135 -88t-146.5 -42.5l317 -635h-129l-307 618h-434zM358 727h412q191 0 307.5 93.5t116.5 262.5q0 131 -83.5 200t-244.5 69h-407z" />
    <glyph glyph-name="racute" unicode="&#x155;" horiz-adv-x="757" 
d="M498 1192l166 315h172l-261 -315h-77zM807 1040l-19 -108q-31 8 -79 8q-134 0 -247 -110t-145 -308l-81 -522h-121l161 1024h113l-39 -250q52 128 154.5 201.5t220.5 73.5q41 0 82 -9z" />
    <glyph glyph-name="uni0156" unicode="&#x156;" horiz-adv-x="1384" 
d="M244 0h-121l231 1462h529q210 0 322 -98t112 -281q0 -97 -39 -180t-101.5 -137.5t-135 -88t-146.5 -42.5l317 -635h-129l-307 618h-434zM358 727h412q191 0 307.5 93.5t116.5 262.5q0 131 -83.5 200t-244.5 69h-407zM461 -248l20 133h172l-20 -135q-31 -199 -215 -199
l10 68q56 0 82.5 33.5t34.5 99.5h-84z" />
    <glyph glyph-name="uni0157" unicode="&#x157;" horiz-adv-x="757" 
d="M807 1040l-19 -108q-31 8 -79 8q-134 0 -247 -110t-145 -308l-81 -522h-121l161 1024h113l-39 -250q52 128 154.5 201.5t220.5 73.5q41 0 82 -9zM55 -248l21 133h172l-21 -135q-31 -199 -215 -199l11 68q56 0 82 33.5t34 99.5h-84z" />
    <glyph glyph-name="Rcaron" unicode="&#x158;" horiz-adv-x="1384" 
d="M901 1571h-156l-153 299h80l159 -203l238 203h84zM244 0h-121l231 1462h529q210 0 322 -98t112 -281q0 -97 -39 -180t-101.5 -137.5t-135 -88t-146.5 -42.5l317 -635h-129l-307 618h-434zM358 727h412q191 0 307.5 93.5t116.5 262.5q0 131 -83.5 200t-244.5 69h-407z" />
    <glyph glyph-name="rcaron" unicode="&#x159;" horiz-adv-x="757" 
d="M635 1186h-148l-122 321h79l125 -233l232 233h84zM807 1040l-19 -108q-31 8 -79 8q-134 0 -247 -110t-145 -308l-81 -522h-121l161 1024h113l-39 -250q52 128 154.5 201.5t220.5 73.5q41 0 82 -9z" />
    <glyph glyph-name="Sacute" unicode="&#x15a;" horiz-adv-x="1308" 
d="M733 1577l166 293h174l-262 -293h-78zM68 428h120q5 -91 42.5 -159.5t99 -107.5t136 -58t163.5 -19q180 0 302 96.5t122 237.5q0 88 -57 143.5t-185 87.5l-272 68q-316 78 -316 313q0 193 150.5 325t382.5 132q223 0 353.5 -103t135.5 -282h-119q-4 128 -108 202t-270 74
q-189 0 -296.5 -101t-107.5 -241q0 -85 57 -133t181 -78l280 -69q150 -38 231 -112.5t81 -201.5q0 -196 -158.5 -331.5t-399.5 -135.5q-112 0 -209.5 29t-173 84t-120 142.5t-45.5 197.5z" />
    <glyph glyph-name="sacute" unicode="&#x15b;" horiz-adv-x="989" 
d="M535 1192l165 315h172l-260 -315h-77zM39 299h115q-1 -114 85 -168.5t214 -54.5q124 0 202 62t78 151q0 54 -37.5 90.5t-124.5 60.5l-182 52q-111 32 -170 87.5t-59 153.5q0 134 106.5 225t274.5 91q72 0 135 -16t115.5 -48.5t84 -89t33.5 -131.5h-110q-7 93 -79 138.5
t-190 45.5q-120 0 -189 -59.5t-69 -151.5q0 -57 39.5 -87.5t128.5 -55.5l197 -55q211 -59 211 -232q0 -142 -114.5 -237t-291.5 -95q-81 0 -150.5 18t-126.5 55t-91 101.5t-35 149.5z" />
    <glyph glyph-name="Scircumflex" unicode="&#x15c;" horiz-adv-x="1308" 
d="M797 1870h155l154 -299h-80l-160 203l-237 -203h-84zM68 428h120q5 -91 42.5 -159.5t99 -107.5t136 -58t163.5 -19q180 0 302 96.5t122 237.5q0 88 -57 143.5t-185 87.5l-272 68q-316 78 -316 313q0 193 150.5 325t382.5 132q223 0 353.5 -103t135.5 -282h-119
q-4 128 -108 202t-270 74q-189 0 -296.5 -101t-107.5 -241q0 -85 57 -133t181 -78l280 -69q150 -38 231 -112.5t81 -201.5q0 -196 -158.5 -331.5t-399.5 -135.5q-112 0 -209.5 29t-173 84t-120 142.5t-45.5 197.5z" />
    <glyph glyph-name="scircumflex" unicode="&#x15d;" horiz-adv-x="989" 
d="M584 1507h147l123 -321h-80l-125 233l-231 -233h-84zM39 299h115q-1 -114 85 -168.5t214 -54.5q124 0 202 62t78 151q0 54 -37.5 90.5t-124.5 60.5l-182 52q-111 32 -170 87.5t-59 153.5q0 134 106.5 225t274.5 91q72 0 135 -16t115.5 -48.5t84 -89t33.5 -131.5h-110
q-7 93 -79 138.5t-190 45.5q-120 0 -189 -59.5t-69 -151.5q0 -57 39.5 -87.5t128.5 -55.5l197 -55q211 -59 211 -232q0 -142 -114.5 -237t-291.5 -95q-81 0 -150.5 18t-126.5 55t-91 101.5t-35 149.5z" />
    <glyph glyph-name="uni015E" unicode="&#x15e;" horiz-adv-x="1308" 
d="M717 -211q0 -78 -72.5 -128t-165.5 -50q-108 0 -174 39l14 88q70 -43 162 -43q62 0 101 23t39 63q0 30 -28 44.5t-69 14.5q-38 0 -82 -14l-30 39l92 119q-193 28 -313 141.5t-123 302.5h120q5 -91 42.5 -159.5t99 -107.5t136 -58t163.5 -19q180 0 302 96.5t122 237.5
q0 88 -57 143.5t-185 87.5l-272 68q-316 78 -316 313q0 193 150.5 325t382.5 132q223 0 353.5 -103t135.5 -282h-119q-4 128 -108 202t-270 74q-189 0 -296.5 -101t-107.5 -241q0 -85 57 -133t181 -78l280 -69q150 -38 231 -112.5t81 -201.5q0 -196 -158.5 -331.5
t-399.5 -135.5q-29 0 -41 2l-51 -63q16 4 41 4q59 0 105.5 -32t46.5 -97z" />
    <glyph glyph-name="uni015F" unicode="&#x15f;" horiz-adv-x="989" 
d="M575 -211q0 -78 -72 -128t-165 -50q-108 0 -174 39l14 88q70 -43 162 -43q62 0 100.5 23t38.5 63q0 30 -27.5 44.5t-68.5 14.5q-38 0 -82 -14l-31 39l90 115q-142 19 -230 97t-91 222h115q-1 -114 85 -168.5t214 -54.5q124 0 202 62t78 151q0 54 -37.5 90.5t-124.5 60.5
l-182 52q-111 32 -170 87.5t-59 153.5q0 134 106.5 225t274.5 91q72 0 135 -16t115.5 -48.5t84 -89t33.5 -131.5h-110q-7 93 -79 138.5t-190 45.5q-120 0 -189 -59.5t-69 -151.5q0 -57 39.5 -87.5t128.5 -55.5l197 -55q211 -59 211 -232q0 -142 -114.5 -237t-291.5 -95h-10
l-49 -61q16 4 41 4q59 0 105 -32t46 -97z" />
    <glyph glyph-name="Scaron" unicode="&#x160;" horiz-adv-x="1308" 
d="M850 1571h-156l-153 299h80l159 -203l238 203h84zM68 428h120q5 -91 42.5 -159.5t99 -107.5t136 -58t163.5 -19q180 0 302 96.5t122 237.5q0 88 -57 143.5t-185 87.5l-272 68q-316 78 -316 313q0 193 150.5 325t382.5 132q223 0 353.5 -103t135.5 -282h-119
q-4 128 -108 202t-270 74q-189 0 -296.5 -101t-107.5 -241q0 -85 57 -133t181 -78l280 -69q150 -38 231 -112.5t81 -201.5q0 -196 -158.5 -331.5t-399.5 -135.5q-112 0 -209.5 29t-173 84t-120 142.5t-45.5 197.5z" />
    <glyph glyph-name="scaron" unicode="&#x161;" horiz-adv-x="989" 
d="M672 1186h-148l-123 321h80l125 -233l232 233h84zM39 299h115q-1 -114 85 -168.5t214 -54.5q124 0 202 62t78 151q0 54 -37.5 90.5t-124.5 60.5l-182 52q-111 32 -170 87.5t-59 153.5q0 134 106.5 225t274.5 91q72 0 135 -16t115.5 -48.5t84 -89t33.5 -131.5h-110
q-7 93 -79 138.5t-190 45.5q-120 0 -189 -59.5t-69 -151.5q0 -57 39.5 -87.5t128.5 -55.5l197 -55q211 -59 211 -232q0 -142 -114.5 -237t-291.5 -95q-81 0 -150.5 18t-126.5 55t-91 101.5t-35 149.5z" />
    <glyph glyph-name="Tcommaaccent" unicode="&#x162;" horiz-adv-x="1402" 
d="M752 -211q0 -78 -72.5 -128t-165.5 -50q-108 0 -174 39l14 88q70 -43 162 -43q62 0 100.5 23t38.5 63q0 30 -27.5 44.5t-68.5 14.5q-38 0 -82 -14l-31 39l115 149l213 1338h-557l16 110h1235l-16 -110h-557l-215 -1352h-51l-70 -86q16 4 41 4q59 0 105.5 -32t46.5 -97z
" />
    <glyph glyph-name="tcommaaccent" unicode="&#x163;" horiz-adv-x="735" 
d="M465 -211q0 -78 -72.5 -128t-165.5 -50q-108 0 -174 39l15 88q70 -43 161 -43q62 0 101 23t39 63q0 30 -28 44.5t-69 14.5q-38 0 -82 -14l-30 39l110 145q-102 48 -102 183q0 27 6 61l107 674h-154l14 96h156l47 264h115l-43 -264h282l-14 -96h-287l-108 -684
q-4 -28 -4 -41q0 -115 135 -115q67 0 162 33l-15 -105q-87 -32 -166 -32q-37 0 -67 6l-62 -76q16 4 41 4q59 0 105.5 -32t46.5 -97z" />
    <glyph glyph-name="Tcaron" unicode="&#x164;" horiz-adv-x="1402" 
d="M942 1571h-156l-153 299h80l159 -203l238 203h84zM559 0l215 1352h-557l16 110h1235l-16 -110h-557l-215 -1352h-121z" />
    <glyph glyph-name="tcaron" unicode="&#x165;" horiz-adv-x="735" 
d="M606 1159h-63l135 430h158zM582 121l-15 -105q-87 -32 -166 -32q-110 0 -171.5 53t-61.5 156q0 27 6 61l107 674h-154l14 96h156l47 264h115l-43 -264h282l-14 -96h-287l-108 -684q-4 -28 -4 -41q0 -115 135 -115q67 0 162 33z" />
    <glyph glyph-name="Tbar" unicode="&#x166;" horiz-adv-x="1423" 
d="M1057 688h-269l-108 -688h-121l109 688h-267l19 111h266l88 553h-557l16 110h1235l-16 -110h-557l-88 -553h268z" />
    <glyph glyph-name="tbar" unicode="&#x167;" horiz-adv-x="794" 
d="M600 16q-87 -32 -166 -32q-110 0 -171.5 53t-61.5 156q0 27 6 61l49 313h-156l15 97h157l41 264h-153l14 96h156l47 264h115l-43 -264h282l-14 -96h-287l-41 -264h293l-14 -97h-295l-51 -323q-5 -35 -5 -41q0 -115 136 -115q66 0 161 33z" />
    <glyph glyph-name="Utilde" unicode="&#x168;" horiz-adv-x="1507" 
d="M799 1739q-87 0 -117 -158h-90q20 120 77 192t146 72q35 0 66.5 -16t55 -38.5t45.5 -45.5t45.5 -39t45.5 -16q85 0 119 157h88q-20 -120 -77 -192t-146 -72q-34 0 -65.5 16t-55 39t-45.5 46t-45.5 39t-46.5 16zM1339 600q-44 -300 -215 -462.5t-444 -162.5
q-236 0 -367 125.5t-131 356.5q0 64 13 147l135 858h121l-140 -880q-10 -75 -10 -123q0 -186 101.5 -279.5t283.5 -93.5q207 0 347.5 124.5t178.5 371.5l140 880h116z" />
    <glyph glyph-name="utilde" unicode="&#x169;" horiz-adv-x="1185" 
d="M584 1376q-85 0 -117 -168h-90q20 121 77 193t146 72q35 0 66 -17t53.5 -41t44 -48t45.5 -41t49 -17q83 0 119 166h88q-20 -121 -77 -193t-146 -72q-34 0 -64.5 17t-53.5 41.5t-44.5 49t-46 41.5t-49.5 17zM795 0l30 195q-52 -103 -145 -161.5t-213 -58.5
q-148 0 -230.5 80t-82.5 224q0 37 6 81l104 664h121l-100 -639q-9 -70 -9 -86q0 -223 222 -223q138 0 233.5 92.5t126.5 284.5l90 571h121l-162 -1024h-112z" />
    <glyph glyph-name="Umacron" unicode="&#x16a;" horiz-adv-x="1507" 
d="M637 1618l16 102h561l-16 -102h-561zM1339 600q-44 -300 -215 -462.5t-444 -162.5q-236 0 -367 125.5t-131 356.5q0 64 13 147l135 858h121l-140 -880q-10 -75 -10 -123q0 -186 101.5 -279.5t283.5 -93.5q207 0 347.5 124.5t178.5 371.5l140 880h116z" />
    <glyph glyph-name="umacron" unicode="&#x16b;" horiz-adv-x="1185" 
d="M426 1260l16 102h562l-17 -102h-561zM795 0l30 195q-52 -103 -145 -161.5t-213 -58.5q-148 0 -230.5 80t-82.5 224q0 37 6 81l104 664h121l-100 -639q-9 -70 -9 -86q0 -223 222 -223q138 0 233.5 92.5t126.5 284.5l90 571h121l-162 -1024h-112z" />
    <glyph glyph-name="Ubreve" unicode="&#x16c;" horiz-adv-x="1507" 
d="M1221 1870q-23 -141 -108 -222t-202 -81q-100 0 -160.5 62t-60.5 171q0 20 8 70h95q-5 -45 -5 -51q0 -71 35.5 -108.5t102.5 -37.5q75 0 126 51t66 146h103zM1339 600q-44 -300 -215 -462.5t-444 -162.5q-236 0 -367 125.5t-131 356.5q0 64 13 147l135 858h121l-140 -880
q-10 -75 -10 -123q0 -186 101.5 -279.5t283.5 -93.5q207 0 347.5 124.5t178.5 371.5l140 880h116z" />
    <glyph glyph-name="ubreve" unicode="&#x16d;" horiz-adv-x="1185" 
d="M698 1204q-100 0 -160.5 62.5t-60.5 171.5q0 37 8 69h90q-4 -36 -4 -51q0 -72 38 -111.5t104 -39.5q75 0 129 53.5t67 148.5h99q-23 -141 -108 -222t-202 -81zM795 0l30 195q-52 -103 -145 -161.5t-213 -58.5q-148 0 -230.5 80t-82.5 224q0 37 6 81l104 664h121
l-100 -639q-9 -70 -9 -86q0 -223 222 -223q138 0 233.5 92.5t126.5 284.5l90 571h121l-162 -1024h-112z" />
    <glyph glyph-name="Uring" unicode="&#x16e;" horiz-adv-x="1507" 
d="M913 1466q-94 0 -157.5 62t-63.5 153q0 107 79 190t196 83q94 0 157.5 -62t63.5 -153q0 -107 -79 -190t-196 -83zM954 1858q-71 0 -116 -49.5t-45 -114.5q0 -57 37.5 -94t95.5 -37q71 0 116 49t45 114q0 57 -37.5 94.5t-95.5 37.5zM1339 600q-44 -300 -215 -462.5
t-444 -162.5q-236 0 -367 125.5t-131 356.5q0 64 13 147l135 858h121l-140 -880q-10 -75 -10 -123q0 -186 101.5 -279.5t283.5 -93.5q207 0 347.5 124.5t178.5 371.5l140 880h116z" />
    <glyph glyph-name="uring" unicode="&#x16f;" horiz-adv-x="1185" 
d="M743 1561q75 0 125.5 -49t49.5 -121q2 -85 -60.5 -150t-157.5 -65q-74 0 -124 49t-50 121q0 85 61.5 150t155.5 65zM711 1260q53 0 86.5 36t31.5 84q2 40 -26 68.5t-70 28.5q-52 0 -85.5 -36.5t-33.5 -84.5q0 -40 28 -68t69 -28zM795 0l30 195q-52 -103 -145 -161.5
t-213 -58.5q-148 0 -230.5 80t-82.5 224q0 37 6 81l104 664h121l-100 -639q-9 -70 -9 -86q0 -223 222 -223q138 0 233.5 92.5t126.5 284.5l90 571h121l-162 -1024h-112z" />
    <glyph glyph-name="Uhungarumlaut" unicode="&#x170;" horiz-adv-x="1507" 
d="M989 1577l170 293h162l-260 -293h-72zM700 1577l168 293h164l-262 -293h-70zM1339 600q-44 -300 -215 -462.5t-444 -162.5q-236 0 -367 125.5t-131 356.5q0 64 13 147l135 858h121l-140 -880q-10 -75 -10 -123q0 -186 101.5 -279.5t283.5 -93.5q207 0 347.5 124.5
t178.5 371.5l140 880h116z" />
    <glyph glyph-name="uhungarumlaut" unicode="&#x171;" horiz-adv-x="1185" 
d="M774 1192l170 315h162l-260 -315h-72zM485 1192l168 315h164l-262 -315h-70zM795 0l30 195q-52 -103 -145 -161.5t-213 -58.5q-148 0 -230.5 80t-82.5 224q0 37 6 81l104 664h121l-100 -639q-9 -70 -9 -86q0 -223 222 -223q138 0 233.5 92.5t126.5 284.5l90 571h121
l-162 -1024h-112z" />
    <glyph glyph-name="Uogonek" unicode="&#x172;" horiz-adv-x="1507" 
d="M895 -379q-34 -10 -82 -10q-55 0 -100 38.5t-45 100.5q0 120 127 234q-55 -9 -115 -9q-236 0 -367 125.5t-131 356.5q0 64 13 147l135 858h121l-140 -880q-10 -75 -10 -123q0 -186 101.5 -279.5t283.5 -93.5q207 0 347.5 124.5t178.5 371.5l140 880h116l-129 -862
q-32 -219 -133 -365.5t-262 -211.5q-104 -89 -139 -145t-35 -105q0 -35 22 -54.5t58 -19.5t57 8z" />
    <glyph glyph-name="uogonek" unicode="&#x173;" horiz-adv-x="1185" 
d="M846 -379q-34 -10 -82 -10q-56 0 -101 36.5t-45 98.5q0 37 11.5 70.5t39.5 70t54.5 64t75.5 74.5l26 170q-52 -103 -145 -161.5t-213 -58.5q-148 0 -230.5 80t-82.5 224q0 37 6 81l104 664h121l-100 -639q-9 -70 -9 -86q0 -223 222 -223q138 0 233.5 92.5t126.5 284.5
l90 571h121l-162 -1024h-33q-94 -98 -123.5 -144.5t-29.5 -86.5q0 -32 22 -51t58 -19t57 8z" />
    <glyph glyph-name="Wcircumflex" unicode="&#x174;" horiz-adv-x="1957" 
d="M1128 1870h156l154 -299h-80l-160 203l-237 -203h-84zM1219 0l-113 1309h-4l-598 -1309h-144l-149 1462h121l123 -1317h4l602 1317h141l117 -1317h4l600 1317h123l-682 -1462h-145z" />
    <glyph glyph-name="wcircumflex" unicode="&#x175;" horiz-adv-x="1519" 
d="M831 1507h148l123 -321h-80l-125 233l-231 -233h-84zM891 1024l78 -887h4l440 887h117l-522 -1024h-127l-82 881h-4l-424 -881h-131l-90 1024h114l72 -887h4l422 887h129z" />
    <glyph glyph-name="Ycircumflex" unicode="&#x176;" horiz-adv-x="1312" 
d="M772 1870h156l153 -299h-80l-159 203l-238 -203h-84zM635 0h-121l96 610l-420 852h129l367 -739h6l588 739h141l-690 -852z" />
    <glyph glyph-name="ycircumflex" unicode="&#x177;" horiz-adv-x="1079" 
d="M616 1507h148l123 -321h-80l-125 233l-231 -233h-84zM365 -8l-215 1032h120l174 -889h5l514 889h127l-629 -1063q-110 -187 -197.5 -264.5t-210.5 -77.5q-48 0 -88 19l17 102q47 -16 81 -16q83 0 148 59.5t154 208.5z" />
    <glyph glyph-name="Ydieresis" unicode="&#x178;" horiz-adv-x="1312" 
d="M922 1620l28 180h135l-28 -180h-135zM567 1620l29 180h135l-29 -180h-135zM635 0h-121l96 610l-420 852h129l367 -739h6l588 739h141l-690 -852z" />
    <glyph glyph-name="Zacute" unicode="&#x179;" horiz-adv-x="1349" 
d="M803 1577l166 293h174l-262 -293h-78zM1360 1360l-1147 -1249h952l-18 -111h-1112l14 88l1155 1264h-919l16 110h1075z" />
    <glyph glyph-name="zacute" unicode="&#x17a;" horiz-adv-x="1048" 
d="M582 1192l166 315h172l-261 -315h-77zM995 932l-794 -836h665l-14 -96h-817l12 78l799 850h-619l15 96h768z" />
    <glyph glyph-name="Zdotaccent" unicode="&#x17b;" horiz-adv-x="1349" 
d="M780 1620l29 180h143l-28 -180h-144zM1360 1360l-1147 -1249h952l-18 -111h-1112l14 88l1155 1264h-919l16 110h1075z" />
    <glyph glyph-name="zdotaccent" unicode="&#x17c;" horiz-adv-x="1048" 
d="M580 1260l28 180h146l-29 -180h-145zM995 932l-794 -836h665l-14 -96h-817l12 78l799 850h-619l15 96h768z" />
    <glyph glyph-name="Zcaron" unicode="&#x17d;" horiz-adv-x="1349" 
d="M961 1571h-156l-154 299h80l160 -203l237 203h84zM1360 1360l-1147 -1249h952l-18 -111h-1112l14 88l1155 1264h-919l16 110h1075z" />
    <glyph glyph-name="zcaron" unicode="&#x17e;" horiz-adv-x="1048" 
d="M719 1186h-148l-122 321h79l125 -233l232 233h84zM995 932l-794 -836h665l-14 -96h-817l12 78l799 850h-619l15 96h768z" />
    <glyph glyph-name="uni0192" unicode="&#x192;" horiz-adv-x="1034" 
d="M827 733h-258l-323 -958h-117l322 958h-185l15 94h202l135 404q47 137 141 219t216 82q61 0 129 -27l-17 -112q-58 30 -126 30q-77 0 -137 -56t-93 -157l-129 -383h240z" />
    <glyph glyph-name="AEacute" unicode="&#x1fc;" horiz-adv-x="2211" 
d="M1638 1577l166 293h174l-262 -293h-78zM1040 0l70 436h-641l-369 -436h-141l1239 1462h1028l-18 -110h-832l-90 -568h742l-19 -110h-741l-88 -563h827l-18 -111h-949zM1257 1370l-698 -827h567z" />
    <glyph glyph-name="aeacute" unicode="&#x1fd;" horiz-adv-x="1800" 
d="M985 1192l166 315h172l-260 -315h-78zM1647 291q-56 -155 -178.5 -235.5t-266.5 -80.5q-143 0 -236.5 73t-131.5 200q-21 -48 -61.5 -94.5t-97 -87t-133.5 -65t-161 -24.5q-130 0 -217.5 75t-87.5 202q0 142 113 235t343 93h285l17 100q4 27 4 68q0 194 -232 194
q-115 0 -195 -54.5t-106 -152.5h-117q37 148 154.5 230t269.5 82q138 0 223.5 -58t102.5 -162q165 220 395 220q178 0 270.5 -111t92.5 -295q0 -67 -17 -160h-757q-4 -46 -4 -71q0 -160 76.5 -246t222.5 -86q110 0 186.5 52.5t130.5 158.5h113zM1321 944q-139 0 -243 -98.5
t-142 -263.5h639q4 27 4 61q0 143 -64 222t-194 79zM397 78q145 0 257.5 87t136.5 243l12 75h-289q-321 0 -321 -227q0 -84 55.5 -131t148.5 -47z" />
    <glyph glyph-name="Oslashacute" unicode="&#x1fe;" horiz-adv-x="1511" 
d="M840 1577l166 293h174l-262 -293h-78zM698 -25q-241 0 -395 160l-180 -196l-70 67l191 205q-105 161 -105 389q0 178 53 339t147.5 282.5t235.5 193.5t306 72q241 0 395 -160l166 178l67 -65l-174 -189q105 -161 105 -389q0 -178 -53 -339t-147.5 -282.5t-235.5 -193.5
t-306 -72zM268 596q0 -170 62 -291l864 934q-116 135 -322 135q-139 0 -254.5 -62t-191 -168t-117 -247.5t-41.5 -300.5zM1311 866q0 170 -62 291l-864 -934q116 -135 322 -135q139 0 254.5 62t191 168t117 247.5t41.5 300.5z" />
    <glyph glyph-name="oslashacute" unicode="&#x1ff;" horiz-adv-x="1171" 
d="M641 1192l166 315h172l-260 -315h-78zM518 -25q-163 0 -272 95l-140 -148l-63 60l145 153q-77 113 -77 279q0 173 68.5 318t193 231t278.5 86q181 0 289 -111l125 131l63 -59l-133 -142q64 -109 64 -258q0 -129 -40.5 -245.5t-111.5 -202.5t-172 -136.5t-217 -50.5z
M227 414q0 -115 43 -191l592 631q-81 90 -221 90q-124 0 -219.5 -72.5t-145 -192.5t-49.5 -265zM942 610q0 95 -31 168l-587 -624q80 -74 204 -74t219.5 72.5t145 192.5t49.5 265z" />
    <glyph glyph-name="uni0218" unicode="&#x218;" horiz-adv-x="1308" 
d="M68 428h120q5 -91 42.5 -159.5t99 -107.5t136 -58t163.5 -19q180 0 302 96.5t122 237.5q0 88 -57 143.5t-185 87.5l-272 68q-316 78 -316 313q0 193 150.5 325t382.5 132q223 0 353.5 -103t135.5 -282h-119q-4 128 -108 202t-270 74q-189 0 -296.5 -101t-107.5 -241
q0 -85 57 -133t181 -78l280 -69q150 -38 231 -112.5t81 -201.5q0 -196 -158.5 -331.5t-399.5 -135.5q-112 0 -209.5 29t-173 84t-120 142.5t-45.5 197.5zM471 -248l21 133h172l-21 -135q-31 -199 -215 -199l10 68q56 0 82.5 33.5t34.5 99.5h-84z" />
    <glyph glyph-name="uni0219" unicode="&#x219;" horiz-adv-x="989" 
d="M39 299h115q-1 -114 85 -168.5t214 -54.5q124 0 202 62t78 151q0 54 -37.5 90.5t-124.5 60.5l-182 52q-111 32 -170 87.5t-59 153.5q0 134 106.5 225t274.5 91q72 0 135 -16t115.5 -48.5t84 -89t33.5 -131.5h-110q-7 93 -79 138.5t-190 45.5q-120 0 -189 -59.5
t-69 -151.5q0 -57 39.5 -87.5t128.5 -55.5l197 -55q211 -59 211 -232q0 -142 -114.5 -237t-291.5 -95q-81 0 -150.5 18t-126.5 55t-91 101.5t-35 149.5zM287 -248l20 133h172l-20 -135q-31 -199 -215 -199l10 68q56 0 82.5 33.5t34.5 99.5h-84z" />
    <glyph glyph-name="uni021A" unicode="&#x21a;" horiz-adv-x="1402" 
d="M559 0l215 1352h-557l16 110h1235l-16 -110h-557l-215 -1352h-121zM500 -248l20 133h172l-20 -135q-31 -199 -215 -199l10 68q56 0 82.5 33.5t34.5 99.5h-84z" />
    <glyph glyph-name="uni021B" unicode="&#x21b;" horiz-adv-x="733" 
d="M582 121l-15 -105q-87 -32 -166 -32q-110 0 -171.5 53t-61.5 156q0 27 6 61l107 674h-154l14 96h156l47 264h115l-43 -264h282l-14 -96h-287l-108 -684q-4 -28 -4 -41q0 -115 135 -115q67 0 162 33zM195 -248l20 133h172l-20 -135q-31 -199 -215 -199l10 68
q56 0 82.5 33.5t34.5 99.5h-84z" />
    <glyph glyph-name="uni0237" unicode="&#x237;" horiz-adv-x="514" 
d="M-51 -377q-44 0 -88 19l16 98q40 -12 68 -12q70 0 104 32.5t47 118.5l180 1145h121l-178 -1133q-21 -136 -85.5 -202t-184.5 -66z" />
    <glyph glyph-name="circumflex" unicode="&#x2c6;" horiz-adv-x="1157" 
d="M698 1507h148l123 -321h-80l-125 233l-232 -233h-83z" />
    <glyph glyph-name="caron" unicode="&#x2c7;" horiz-adv-x="1157" 
d="M739 1186h-147l-123 321h80l125 -233l231 233h84z" />
    <glyph glyph-name="breve" unicode="&#x2d8;" horiz-adv-x="1157" 
d="M662 1204q-100 0 -161 62.5t-61 171.5q0 33 9 69h90q-4 -36 -4 -51q0 -72 37.5 -111.5t103.5 -39.5q75 0 129 53.5t67 148.5h99q-23 -141 -107.5 -222t-201.5 -81z" />
    <glyph glyph-name="dotaccent" unicode="&#x2d9;" horiz-adv-x="1155" 
d="M621 1260l28 180h146l-29 -180h-145z" />
    <glyph glyph-name="ring" unicode="&#x2da;" horiz-adv-x="1157" 
d="M733 1561q75 0 125 -49t49 -121q2 -85 -60 -150t-157 -65q-74 0 -124 49t-50 121q0 85 61.5 150t155.5 65zM700 1260q54 0 87.5 36t31.5 84q2 40 -26 68.5t-70 28.5q-52 0 -85.5 -36.5t-33.5 -84.5q0 -40 27.5 -68t68.5 -28z" />
    <glyph glyph-name="ogonek" unicode="&#x2db;" horiz-adv-x="1157" 
d="M506 27h98q-111 -116 -144.5 -165.5t-33.5 -92.5q0 -32 22 -51t58 -19t57 8l-12 -86q-34 -10 -82 -10q-56 0 -100.5 36.5t-44.5 98.5q0 49 25 97t58 84.5t99 99.5z" />
    <glyph glyph-name="tilde" unicode="&#x2dc;" horiz-adv-x="1155" 
d="M567 1376q-84 0 -116 -168h-91q20 120 77.5 192.5t146.5 72.5q35 0 66 -17t53.5 -41t44 -48t45.5 -41t49 -17q83 0 119 166h88q-20 -120 -77.5 -192.5t-146.5 -72.5q-34 0 -64.5 17t-53.5 41.5t-44.5 49t-46 41.5t-49.5 17z" />
    <glyph glyph-name="hungarumlaut" unicode="&#x2dd;" horiz-adv-x="1155" 
d="M686 1192l170 315h162l-260 -315h-72zM397 1192l168 315h164l-262 -315h-70z" />
    <glyph glyph-name="Wgrave" unicode="&#x1e80;" horiz-adv-x="1957" 
d="M1180 1577h-72l-180 293h170zM1219 0l-113 1309h-4l-598 -1309h-144l-149 1462h121l123 -1317h4l602 1317h141l117 -1317h4l600 1317h123l-682 -1462h-145z" />
    <glyph glyph-name="wgrave" unicode="&#x1e81;" horiz-adv-x="1519" 
d="M883 1192h-72l-170 315h160zM891 1024l78 -887h4l440 887h117l-522 -1024h-127l-82 881h-4l-424 -881h-131l-90 1024h114l72 -887h4l422 887h129z" />
    <glyph glyph-name="Wacute" unicode="&#x1e82;" horiz-adv-x="1957" 
d="M1124 1577l166 293h174l-262 -293h-78zM1219 0l-113 1309h-4l-598 -1309h-144l-149 1462h121l123 -1317h4l602 1317h141l117 -1317h4l600 1317h123l-682 -1462h-145z" />
    <glyph glyph-name="wacute" unicode="&#x1e83;" horiz-adv-x="1519" 
d="M817 1192l166 315h172l-260 -315h-78zM891 1024l78 -887h4l440 887h117l-522 -1024h-127l-82 881h-4l-424 -881h-131l-90 1024h114l72 -887h4l422 887h129z" />
    <glyph glyph-name="Wdieresis" unicode="&#x1e84;" horiz-adv-x="1957" 
d="M1262 1620l28 180h135l-28 -180h-135zM907 1620l29 180h135l-29 -180h-135zM1219 0l-113 1309h-4l-598 -1309h-144l-149 1462h121l123 -1317h4l602 1317h141l117 -1317h4l600 1317h123l-682 -1462h-145z" />
    <glyph glyph-name="wdieresis" unicode="&#x1e85;" horiz-adv-x="1519" 
d="M977 1260l29 180h135l-29 -180h-135zM623 1260l28 180h135l-28 -180h-135zM891 1024l78 -887h4l440 887h117l-522 -1024h-127l-82 881h-4l-424 -881h-131l-90 1024h114l72 -887h4l422 887h129z" />
    <glyph glyph-name="Ygrave" unicode="&#x1ef2;" horiz-adv-x="1312" 
d="M879 1577h-72l-180 293h170zM635 0h-121l96 610l-420 852h129l367 -739h6l588 739h141l-690 -852z" />
    <glyph glyph-name="ygrave" unicode="&#x1ef3;" horiz-adv-x="1079" 
d="M674 1192h-72l-170 315h160zM365 -8l-215 1032h120l174 -889h5l514 889h127l-629 -1063q-110 -187 -197.5 -264.5t-210.5 -77.5q-48 0 -88 19l17 102q47 -16 81 -16q83 0 148 59.5t154 208.5z" />
    <glyph glyph-name="endash" unicode="&#x2013;" horiz-adv-x="1386" 
d="M178 514l19 104h1030l-19 -104h-1030z" />
    <glyph glyph-name="emdash" unicode="&#x2014;" horiz-adv-x="2054" 
d="M178 514l19 104h1697l-18 -104h-1698z" />
    <glyph glyph-name="quoteleft" unicode="&#x2018;" horiz-adv-x="606" 
d="M502 1210l-27 -163h-178l31 194q20 118 97.5 192t199.5 74l-15 -82q-158 0 -186 -184l-4 -31h82z" />
    <glyph glyph-name="quoteright" unicode="&#x2019;" horiz-adv-x="606" 
d="M346 1343l27 164h178l-31 -194q-20 -118 -97.5 -192t-199.5 -74l15 81q158 0 186 185l4 30h-82z" />
    <glyph glyph-name="quotesinglbase" unicode="&#x201a;" horiz-adv-x="606" 
d="M143 66l27 163h178l-31 -194q-20 -118 -97.5 -192t-199.5 -74l15 81q158 0 186 185l4 31h-82z" />
    <glyph glyph-name="quotedblleft" unicode="&#x201c;" horiz-adv-x="1019" 
d="M915 1210l-26 -163h-178l30 194q20 118 97.5 192t199.5 74l-14 -82q-158 0 -186 -184l-4 -31h81zM502 1210l-27 -163h-178l31 194q20 118 97.5 192t199.5 74l-15 -82q-158 0 -186 -184l-4 -31h82z" />
    <glyph glyph-name="quotedblright" unicode="&#x201d;" horiz-adv-x="1019" 
d="M344 1343l27 164h178l-31 -194q-20 -118 -97.5 -192t-199.5 -74l15 81q158 0 186 185l4 30h-82zM760 1343l26 164h179l-31 -194q-20 -118 -97.5 -192t-199.5 -74l14 81q159 0 187 185l4 30h-82z" />
    <glyph glyph-name="quotedblbase" unicode="&#x201e;" horiz-adv-x="1019" 
d="M143 66l27 163h178l-31 -194q-20 -118 -97.5 -192t-199.5 -74l15 81q158 0 186 185l4 31h-82zM557 66l27 163h178l-31 -194q-20 -118 -97.5 -192t-199.5 -74l15 81q158 0 186 185l4 31h-82z" />
    <glyph glyph-name="dagger" unicode="&#x2020;" horiz-adv-x="735" 
d="M758 1155h-240l-84 -537h-98l84 537h-240l15 94h241l37 238h98l-36 -238h239z" />
    <glyph glyph-name="daggerdbl" unicode="&#x2021;" horiz-adv-x="735" 
d="M711 856h-242l-37 -238h-98l37 238h-240l16 94h240l31 205h-240l15 94h241l37 238h98l-37 -238h240l-16 -94h-240l-31 -205h240z" />
    <glyph glyph-name="bullet" unicode="&#x2022;" horiz-adv-x="854" 
d="M193 602q0 101 73.5 173.5t175.5 72.5q101 0 174.5 -72.5t73.5 -173.5q0 -102 -73 -175t-175 -73t-175.5 73t-73.5 175z" />
    <glyph glyph-name="ellipsis" unicode="&#x2026;" horiz-adv-x="1341" 
d="M868 0l29 178h178l-28 -178h-179zM500 0l28 178h179l-29 -178h-178zM131 0l29 178h178l-29 -178h-178z" />
    <glyph glyph-name="guilsinglleft" unicode="&#x2039;" horiz-adv-x="628" 
d="M428 94h-92l-207 391l324 394h100l-283 -394z" />
    <glyph glyph-name="guilsinglright" unicode="&#x203a;" horiz-adv-x="628" 
d="M193 879h92l207 -392l-324 -393h-100l282 393z" />
    <glyph glyph-name="fraction" unicode="&#x2044;" horiz-adv-x="376" 
d="M-365 -25h-122l1296 1514h123z" />
    <glyph glyph-name="uni2070" unicode="&#x2070;" horiz-adv-x="835" 
d="M453 647q-129 0 -203 91t-74 239q0 133 47 247.5t136 185.5t200 71q128 0 201.5 -90.5t73.5 -239.5q0 -133 -47 -248t-135.5 -185.5t-198.5 -70.5zM553 1389q-100 0 -167 -88t-89 -234q-10 -46 -10 -98q0 -107 44.5 -168.5t127.5 -61.5q99 0 166.5 88t89.5 232
q8 52 8 100q0 106 -43.5 168t-126.5 62z" />
    <glyph glyph-name="uni2074" unicode="&#x2074;" horiz-adv-x="821" 
d="M731 1462l-84 -514h170l-12 -86h-170l-31 -200h-106l30 200h-399l14 88l463 512h125zM606 1352l-358 -404h293z" />
    <glyph glyph-name="uni2075" unicode="&#x2075;" horiz-adv-x="761" 
d="M481 1108q-110 0 -178 -84h-100l114 440h467l-16 -92h-383l-68 -250q32 32 83.5 53t105.5 21q111 0 172 -62t61 -163q0 -133 -90.5 -228.5t-232.5 -95.5q-124 0 -196.5 68t-72.5 188h111q0 -78 43 -123t123 -45q95 0 151 66.5t56 156.5q0 66 -38 108t-112 42z" />
    <glyph glyph-name="uni2076" unicode="&#x2076;" horiz-adv-x="784" 
d="M553 1389q-103 0 -176 -95.5t-94 -240.5q76 141 233 141q104 0 173 -65.5t69 -167.5q0 -128 -92 -221t-228 -93q-120 0 -193 84.5t-73 226.5q0 139 52 259.5t141.5 192t193.5 71.5q108 0 173.5 -61t66.5 -163h-103q-3 63 -40 97.5t-103 34.5zM449 735q87 0 144.5 64
t57.5 155q0 71 -44.5 113.5t-117.5 42.5q-86 0 -145 -61.5t-59 -149.5q0 -72 45.5 -118t118.5 -46z" />
    <glyph glyph-name="uni2077" unicode="&#x2077;" horiz-adv-x="716" 
d="M653 1372h-452l16 90h569l-14 -80q-163 -168 -249 -339.5t-122 -380.5h-116q64 384 368 710z" />
    <glyph glyph-name="uni2078" unicode="&#x2078;" horiz-adv-x="794" 
d="M432 647q-130 0 -208.5 56.5t-78.5 150.5q0 86 63.5 148t145.5 75q-108 43 -108 154t86 180.5t211 69.5q109 0 177 -53t68 -144q0 -77 -46 -135t-121 -84q59 -12 99 -58t40 -106q0 -110 -93.5 -182t-234.5 -72zM502 1112q79 0 131.5 45t52.5 119q0 58 -42.5 87.5
t-108.5 29.5q-80 0 -133.5 -43.5t-53.5 -116.5q0 -59 43 -90t111 -31zM469 1030q-96 0 -154.5 -47t-58.5 -121q0 -60 49.5 -94.5t134.5 -34.5q98 0 154.5 50t56.5 120q0 58 -48 92.5t-134 34.5z" />
    <glyph glyph-name="uni2079" unicode="&#x2079;" horiz-adv-x="784" 
d="M403 739q102 0 175 95.5t94 240.5q-75 -143 -234 -143q-103 0 -171 66t-68 167q0 130 90.5 223t226.5 93q121 0 194.5 -85t73.5 -229q0 -138 -52 -258t-141.5 -191t-193.5 -71q-108 0 -174 60t-67 163h102q3 -64 40 -97.5t105 -33.5zM508 1391q-88 0 -145.5 -63
t-57.5 -152q0 -72 43.5 -116t116.5 -44q87 0 146 61.5t59 151.5q0 71 -44.5 116.5t-117.5 45.5z" />
    <glyph glyph-name="uni2080" unicode="&#x2080;" horiz-adv-x="835" 
d="M303 -301q-129 0 -202.5 90.5t-73.5 239.5q0 132 47 246.5t136 185.5t200 71q128 0 201 -90t73 -239q0 -133 -47 -248t-135.5 -185.5t-198.5 -70.5zM403 440q-100 0 -167 -87.5t-89 -233.5q-10 -46 -10 -99q0 -106 44.5 -167.5t127.5 -61.5q99 0 166.5 88t89.5 232
q8 52 8 100q0 106 -43.5 167.5t-126.5 61.5z" />
    <glyph glyph-name="uni2081" unicode="&#x2081;" horiz-adv-x="669" 
d="M512 -199l-14 -88h-535l14 88h211l82 514h-207l13 82q96 0 149.5 14t77 37.5t41.5 69.5h68l-113 -717h213z" />
    <glyph glyph-name="uni2082" unicode="&#x2082;" horiz-adv-x="706" 
d="M600 326q0 -34 -9 -65t-21 -54.5t-36.5 -49t-42.5 -42t-53.5 -39.5t-55.5 -35t-61 -35q-3 -2 -5 -3t-4.5 -2.5t-4.5 -2.5q-98 -57 -154.5 -102t-64.5 -91h442l-16 -92h-561l8 47q8 52 37.5 100t77 89t89.5 69t101 62q119 66 174.5 118t55.5 124q0 50 -33.5 83t-102.5 33
q-76 0 -129 -49t-69 -121h-107q25 112 108 187t206 75q111 0 171 -58t60 -146z" />
    <glyph glyph-name="uni2083" unicode="&#x2083;" horiz-adv-x="757" 
d="M573 -49q0 -98 -81.5 -175t-225.5 -77q-125 0 -200.5 66.5t-75.5 181.5h108q0 -75 45.5 -117.5t128.5 -42.5q89 0 143 48t54 118q0 57 -39.5 88t-110.5 31h-83l14 88h82q76 0 125 43t49 119q0 53 -35.5 86.5t-103.5 33.5q-80 0 -130.5 -42t-64.5 -113h-104
q24 108 104.5 176.5t202.5 68.5q115 0 177 -57.5t62 -144.5q0 -83 -53 -142.5t-125 -72.5q61 -12 99 -57t38 -107z" />
    <glyph glyph-name="uni2084" unicode="&#x2084;" horiz-adv-x="821" 
d="M582 514l-84 -514h170l-13 -86h-170l-30 -201h-107l31 201h-399l14 88l463 512h125zM457 403l-359 -403h293z" />
    <glyph glyph-name="uni2085" unicode="&#x2085;" horiz-adv-x="761" 
d="M332 160q-110 0 -178 -84h-101l115 440h467l-17 -92h-382l-68 -250q32 32 83 53t105 21q111 0 172.5 -62t61.5 -163q0 -133 -91 -228.5t-233 -95.5q-124 0 -196 67.5t-72 188.5h111q0 -78 42.5 -123t122.5 -45q95 0 151 66.5t56 156.5q0 66 -37.5 108t-111.5 42z" />
    <glyph glyph-name="uni2086" unicode="&#x2086;" horiz-adv-x="784" 
d="M403 440q-103 0 -176 -95.5t-94 -240.5q77 142 234 142q103 0 172 -66t69 -168q0 -128 -91.5 -220.5t-227.5 -92.5q-120 0 -193 84.5t-73 226.5q0 138 52 258.5t141.5 192t193.5 71.5q108 0 173 -60.5t66 -162.5h-102q-3 63 -40.5 97t-103.5 34zM299 -213q87 0 145 64
t58 155q0 71 -44.5 113.5t-117.5 42.5q-86 0 -145.5 -61.5t-59.5 -149.5q0 -72 45.5 -118t118.5 -46z" />
    <glyph glyph-name="uni2087" unicode="&#x2087;" horiz-adv-x="716" 
d="M504 424h-453l17 90h569l-14 -80q-162 -168 -248.5 -339.5t-122.5 -381.5h-117q64 384 369 711z" />
    <glyph glyph-name="uni2088" unicode="&#x2088;" horiz-adv-x="794" 
d="M283 -301q-130 0 -208.5 56.5t-78.5 150.5q0 86 63.5 148t145.5 75q-109 43 -109 154t86 180t211 69q109 0 177.5 -52.5t68.5 -143.5q0 -77 -46.5 -135t-121.5 -84q59 -12 99 -58t40 -106q0 -110 -93 -182t-234 -72zM352 164q80 0 132.5 45t52.5 119q0 58 -43 87t-109 29
q-80 0 -133 -43t-53 -116q0 -59 42.5 -90t110.5 -31zM319 82q-96 0 -154.5 -47t-58.5 -121q0 -60 50 -94.5t135 -34.5q98 0 154.5 50t56.5 120q0 58 -48.5 92.5t-134.5 34.5z" />
    <glyph glyph-name="uni2089" unicode="&#x2089;" horiz-adv-x="784" 
d="M254 -209q101 0 174 95.5t94 240.5q-75 -143 -233 -143q-103 0 -171.5 66t-68.5 167q0 130 91 222.5t227 92.5q121 0 194.5 -84.5t73.5 -228.5q0 -138 -52 -258t-141.5 -191t-193.5 -71q-108 0 -174.5 60t-67.5 163h103q3 -64 40 -97.5t105 -33.5zM358 442
q-88 0 -145 -63t-57 -152q0 -72 43 -115.5t116 -43.5q87 0 146 61.5t59 151.5q0 71 -44.5 116t-117.5 45z" />
    <glyph glyph-name="Euro" unicode="&#x20ac;" horiz-adv-x="1427" 
d="M1307 408q-62 -199 -207.5 -316t-354.5 -117t-338.5 149.5t-138.5 407.5h-164l17 105h149q6 89 25 184h-145l16 105h156q80 253 255.5 407t389.5 154q200 0 307.5 -116.5t107.5 -313.5h-116q-2 67 -19.5 121.5t-53 100t-98 70.5t-147.5 25q-166 0 -300 -123t-202 -325
h537l-41 -105h-526q-19 -95 -25 -184h479l-36 -105h-445q9 -208 104.5 -326t270.5 -118q165 0 267.5 89t150.5 231h125z" />
    <glyph glyph-name="trademark" unicode="&#x2122;" horiz-adv-x="1691" 
d="M477 825h-110l86 543h-226l17 94h561l-17 -94h-225zM1190 825h-84l-88 535h-4l-84 -535h-99l103 637h164l73 -491h9l227 491h164l-103 -637h-104l84 535h-4z" />
    <glyph glyph-name="uni2153" unicode="&#x2153;" horiz-adv-x="1847" 
d="M397 -25h-123l1297 1514h123zM719 750l-14 -88h-535l14 88h211l82 514h-207l13 82q96 0 149.5 13.5t77 37t41.5 69.5h67l-112 -716h213zM1710 238q0 -98 -81.5 -175t-225.5 -77q-125 0 -201 66t-76 181h109q0 -75 45.5 -117t128.5 -42q89 0 143 48t54 118
q0 57 -39.5 87.5t-110.5 30.5h-84l14 88h82q76 0 125 43t49 119q0 54 -35.5 87.5t-103.5 33.5q-80 0 -130 -42.5t-64 -113.5h-105q25 108 105 177t202 69q115 0 177.5 -58t62.5 -145q0 -83 -53 -142.5t-125 -72.5q62 -12 99.5 -57t37.5 -106z" />
    <glyph glyph-name="uni2154" unicode="&#x2154;" horiz-adv-x="1886" 
d="M436 -25h-123l1297 1514h123zM811 1274q0 -34 -9 -65t-21 -54.5t-36.5 -49t-42.5 -42t-53.5 -39.5t-55.5 -35t-61 -35q-9 -5 -14 -8q-99 -57 -155 -101.5t-64 -90.5h442l-16 -92h-561l8 47q8 52 37.5 100t77.5 88.5t89.5 68.5t100.5 62q119 66 174.5 118t55.5 124
q0 50 -33.5 83t-102.5 33q-76 0 -129 -48.5t-69 -120.5h-107q25 112 108 187t206 75q111 0 171 -58.5t60 -146.5zM1749 238q0 -98 -81.5 -175t-225.5 -77q-125 0 -201 66t-76 181h109q0 -75 45.5 -117t128.5 -42q89 0 143 48t54 118q0 57 -39.5 87.5t-110.5 30.5h-84l14 88
h82q76 0 125 43t49 119q0 54 -35.5 87.5t-103.5 33.5q-80 0 -130 -42.5t-64 -113.5h-105q25 108 105 177t202 69q115 0 177.5 -58t62.5 -145q0 -83 -53 -142.5t-125 -72.5q62 -12 99.5 -57t37.5 -106z" />
    <glyph glyph-name="uni215B" unicode="&#x215b;" horiz-adv-x="1884" 
d="M397 -25h-123l1297 1514h123zM719 750l-14 -88h-535l14 88h211l82 514h-207l13 82q96 0 149.5 13.5t77 37t41.5 69.5h67l-112 -716h213zM1419 -14q-130 0 -208 56.5t-78 150.5q0 86 63 148t145 75q-108 43 -108 153q0 111 86 180.5t211 69.5q109 0 177.5 -52.5
t68.5 -143.5q0 -77 -46.5 -135.5t-121.5 -84.5q59 -12 99 -57.5t40 -105.5q0 -110 -93.5 -182t-234.5 -72zM1489 451q80 0 132 44.5t52 118.5q0 58 -42.5 87.5t-108.5 29.5q-80 0 -133.5 -43.5t-53.5 -116.5q0 -59 43 -89.5t111 -30.5zM1456 369q-96 0 -154.5 -47
t-58.5 -121q0 -60 49.5 -94.5t134.5 -34.5q98 0 154.5 50t56.5 120q0 58 -48 92.5t-134 34.5z" />
    <glyph glyph-name="uni215C" unicode="&#x215c;" horiz-adv-x="1923" 
d="M436 -25h-123l1297 1514h123zM784 899q0 -98 -81.5 -175t-225.5 -77q-125 0 -200.5 66.5t-75.5 181.5h108q0 -75 45.5 -117.5t128.5 -42.5q89 0 143 48t54 118q0 57 -39.5 88t-110.5 31h-84l15 88h82q76 0 125 43t49 119q0 54 -35.5 87.5t-103.5 33.5q-80 0 -130.5 -42.5
t-64.5 -113.5h-104q25 108 105 177t202 69q115 0 177 -58t62 -145q0 -83 -53 -142.5t-125 -72.5q61 -12 99 -57t38 -107zM1458 -14q-130 0 -208.5 56.5t-78.5 150.5q0 86 63.5 148t145.5 75q-108 43 -108 153q0 111 86 180.5t211 69.5q109 0 177.5 -52.5t68.5 -143.5
q0 -77 -46.5 -135.5t-121.5 -84.5q59 -12 99 -57.5t40 -105.5q0 -110 -93.5 -182t-234.5 -72zM1528 451q80 0 132 44.5t52 118.5q0 58 -42.5 87.5t-108.5 29.5q-80 0 -133.5 -43.5t-53.5 -116.5q0 -59 43 -89.5t111 -30.5zM1495 369q-96 0 -154.5 -47t-58.5 -121
q0 -60 49.5 -94.5t134.5 -34.5q98 0 154.5 50t56.5 120q0 58 -48 92.5t-134 34.5z" />
    <glyph glyph-name="uni215D" unicode="&#x215d;" horiz-adv-x="1894" 
d="M408 -25h-123l1296 1514h123zM543 1108q-110 0 -178 -84h-101l115 440h467l-17 -92h-383l-67 -250q32 32 83 53t105 21q111 0 172.5 -62t61.5 -163q0 -133 -91 -228.5t-233 -95.5q-124 0 -196 67.5t-72 188.5h110q0 -78 43 -123t123 -45q95 0 151 66.5t56 156.5
q0 66 -37.5 108t-111.5 42zM1430 -14q-130 0 -208.5 56.5t-78.5 150.5q0 86 63.5 148t145.5 75q-109 43 -109 153q0 111 86 180.5t211 69.5q109 0 177.5 -52.5t68.5 -143.5q0 -77 -46.5 -135.5t-121.5 -84.5q59 -12 99 -57.5t40 -105.5q0 -110 -93 -182t-234 -72zM1499 451
q80 0 132 44.5t52 118.5q0 58 -42.5 87.5t-108.5 29.5q-80 0 -133 -43.5t-53 -116.5q0 -59 42.5 -89.5t110.5 -30.5zM1466 369q-96 0 -154.5 -47t-58.5 -121q0 -60 50 -94.5t135 -34.5q98 0 154.5 50t56.5 120q0 58 -48.5 92.5t-134.5 34.5z" />
    <glyph glyph-name="uni215E" unicode="&#x215e;" horiz-adv-x="1761" 
d="M274 -25h-122l1296 1514h123zM715 1372h-453l17 90h569l-14 -80q-163 -168 -249 -339.5t-122 -380.5h-117q64 383 369 710zM1296 -14q-130 0 -208 56.5t-78 150.5q0 86 63.5 148t145.5 75q-109 43 -109 153q0 111 86 180.5t211 69.5q109 0 177.5 -52.5t68.5 -143.5
q0 -77 -46.5 -135.5t-121.5 -84.5q59 -12 99 -57.5t40 -105.5q0 -110 -93.5 -182t-234.5 -72zM1366 451q80 0 132 44.5t52 118.5q0 58 -42.5 87.5t-108.5 29.5q-80 0 -133.5 -43.5t-53.5 -116.5q0 -59 43 -89.5t111 -30.5zM1333 369q-96 0 -154.5 -47t-58.5 -121
q0 -60 50 -94.5t135 -34.5q98 0 154.5 50t56.5 120q0 58 -48.5 92.5t-134.5 34.5z" />
    <glyph glyph-name="minus" unicode="&#x2212;" 
d="M164 629l16 108h1059l-16 -108h-1059z" />
    <glyph glyph-name="i.dot" horiz-adv-x="514" 
d="M301 1260l29 180h145l-29 -180h-145zM276 1024h121l-161 -1024h-121z" />
    <glyph glyph-name="a.ord" horiz-adv-x="792" 
d="M586 647q-2 45 6 115q-32 -59 -101 -95t-147 -36q-86 0 -142.5 47t-56.5 127q0 96 68 153.5t195 71.5l229 27q10 69 10 80q0 116 -139 116q-142 0 -178 -127h-107q26 103 104 160t187 57q113 0 176.5 -50.5t63.5 -143.5q0 -15 -4 -47l-50 -316q-10 -61 -10 -139h-104z
M614 913l11 66l-195 -23q-88 -12 -131 -42t-43 -101q0 -44 31 -72t88 -28q88 0 156.5 53t82.5 147z" />
    <glyph glyph-name="b.ord" horiz-adv-x="884" 
d="M299 782l-23 -135h-106l158 991h110l-69 -436q35 60 95 100.5t142 40.5q117 0 188.5 -77.5t71.5 -210.5q0 -174 -98.5 -300t-249.5 -126q-82 0 -142.5 44.5t-76.5 108.5zM582 1257q-100 0 -166.5 -71.5t-85.5 -190.5q-11 -71 -11 -82q0 -91 50.5 -144.5t136.5 -53.5
q114 0 183 98.5t69 239.5q0 94 -46 149t-130 55z" />
    <glyph glyph-name="c.ord" horiz-adv-x="780" 
d="M170 922q0 182 106.5 303t264.5 121q108 0 172.5 -63t66.5 -169h-102q-4 69 -43.5 105t-102.5 36q-113 0 -182 -95.5t-69 -237.5q0 -93 43 -148t118 -55q147 0 195 143h104q-34 -110 -113 -170.5t-188 -60.5q-121 0 -195.5 79t-74.5 212z" />
    <glyph glyph-name="d.ord" horiz-adv-x="880" 
d="M729 1196l70 442h112l-157 -991h-107l21 125q-35 -59 -99 -101t-145 -42q-116 0 -187 76.5t-71 209.5q0 113 42.5 210.5t123 157.5t180.5 60q80 0 139.5 -43.5t77.5 -103.5zM451 715q98 0 163.5 71.5t87.5 192.5q7 65 7 80q0 90 -50.5 144t-134.5 54q-114 0 -182 -99
t-68 -240q0 -92 46.5 -147.5t130.5 -55.5z" />
    <glyph glyph-name="e.ord" horiz-adv-x="806" 
d="M762 846q-37 -104 -121 -159.5t-186 -55.5q-132 0 -209.5 78t-77.5 211q0 182 107.5 304t263.5 122q122 0 188 -73.5t66 -195.5q0 -37 -15 -114h-502q-2 -12 -2 -39q0 -98 50.5 -151.5t138.5 -53.5q131 0 194 127h105zM530 1255q-85 0 -149.5 -59t-91.5 -158h395
q4 32 4 45q0 79 -40.5 125.5t-117.5 46.5z" />
    <glyph glyph-name="f.ord" horiz-adv-x="468" 
d="M281 1243h-99l15 84h96l20 133q15 92 73.5 139.5t145.5 47.5q30 0 82 -9l-14 -90q-24 6 -68 6q-93 0 -110 -96l-19 -131h144l-12 -84h-146l-96 -596h-109z" />
    <glyph glyph-name="g.ord" horiz-adv-x="878" 
d="M653 688l19 109q-37 -59 -98 -98.5t-142 -39.5q-117 0 -188.5 75t-71.5 204q0 107 42.5 199t122.5 149t179 57q81 0 143 -44.5t80 -104.5l23 133h106l-100 -631q-27 -156 -122.5 -231.5t-239.5 -75.5q-120 0 -194.5 51.5t-78.5 147.5h109q13 -117 168 -117q104 0 166 55
t77 162zM709 993q8 49 8 78q0 85 -51.5 135.5t-135.5 50.5q-112 0 -179.5 -91.5t-67.5 -223.5q0 -93 45 -146t131 -53q97 0 162.5 68t87.5 182z" />
    <glyph glyph-name="h.ord" horiz-adv-x="860" 
d="M436 1640l-69 -434q33 63 95 100t140 37q99 0 155 -53.5t56 -148.5q0 -36 -4 -56l-70 -438h-110l65 414q4 36 4 53q0 141 -137 141q-83 0 -143.5 -57.5t-79.5 -173.5l-59 -377h-111l158 993h110z" />
    <glyph glyph-name="i.ord" horiz-adv-x="403" 
d="M291 1468l20 136h125l-20 -136h-125zM276 1327h111l-106 -680h-111z" />
    <glyph glyph-name="j.ord" horiz-adv-x="407" 
d="M293 1470l20 136h125l-20 -136h-125zM72 401q-35 0 -68 11l14 86q14 -4 45 -4q46 0 68 19t29 71l119 743h110l-117 -739q-27 -187 -200 -187z" />
    <glyph glyph-name="k.ord" horiz-adv-x="811" 
d="M645 647l-217 330l-113 -92l-36 -238h-111l158 993h110l-100 -634l383 321h135l-342 -287l256 -393h-123z" />
    <glyph glyph-name="l.ord" horiz-adv-x="407" 
d="M279 647h-111l158 993h110z" />
    <glyph glyph-name="m.ord" horiz-adv-x="1280" 
d="M594 1343q164 0 190 -143q43 68 107 105.5t139 37.5q100 0 151.5 -52t51.5 -146q0 -40 -4 -60l-70 -438h-110l65 416q4 40 4 57q0 135 -125 135q-80 0 -138.5 -58.5t-76.5 -172.5l-59 -377h-111l66 416q6 35 6 61q0 131 -127 131q-79 0 -137.5 -58.5t-77.5 -172.5
l-59 -377h-111l108 680h107l-21 -123q35 64 98 101.5t134 37.5z" />
    <glyph glyph-name="n.ord" horiz-adv-x="860" 
d="M383 1327l-21 -123q34 64 98 101.5t142 37.5q99 0 155 -53.5t56 -148.5q0 -38 -4 -58l-70 -436h-110l65 412q4 18 4 55q0 141 -137 141q-83 0 -143.5 -57.5t-79.5 -173.5l-59 -377h-111l108 680h107z" />
    <glyph glyph-name="o.ord" horiz-adv-x="839" 
d="M453 631q-127 0 -205 79t-78 214q0 177 105 299.5t264 122.5q129 0 205.5 -79t76.5 -216q0 -176 -104 -298t-264 -122zM532 1255q-114 0 -182.5 -97t-68.5 -236q0 -95 47.5 -149t132.5 -54q114 0 183 98.5t67 237.5q1 94 -46.5 147t-132.5 53z" />
    <glyph glyph-name="p.ord" horiz-adv-x="884" 
d="M301 776l-59 -368h-111l148 919h104l-21 -125q37 61 99.5 102.5t144.5 41.5q117 0 188.5 -78.5t71.5 -212.5q0 -172 -98.5 -298t-249.5 -126q-81 0 -139 42t-78 103zM582 1257q-100 0 -165.5 -70.5t-86.5 -189.5q-2 -20 -6.5 -46t-4.5 -36q0 -91 50.5 -144.5t136.5 -53.5
q113 0 182.5 98t69.5 238q0 95 -46 149.5t-130 54.5z" />
    <glyph glyph-name="q.ord" horiz-adv-x="882" 
d="M735 1198l23 129h106l-147 -919h-111l58 362q-35 -60 -95 -99.5t-141 -39.5q-117 0 -188.5 77t-71.5 210q0 113 42.5 210.5t123 157.5t180.5 60q82 0 142.5 -43.5t78.5 -104.5zM453 717q99 0 164.5 71t87.5 191q8 78 8 80q0 91 -50 144.5t-135 53.5q-113 0 -182.5 -98.5
t-69.5 -238.5q0 -93 46 -148t131 -55z" />
    <glyph glyph-name="r.ord" horiz-adv-x="573" 
d="M653 1337l-16 -102q-16 4 -57 4q-88 0 -158.5 -66.5t-89.5 -189.5l-53 -336h-111l108 680h107l-27 -162q34 83 100.5 129.5t141.5 46.5q23 0 55 -4z" />
    <glyph glyph-name="s.ord" horiz-adv-x="751" 
d="M139 846h105q0 -66 53 -99.5t129 -33.5q75 0 122.5 36.5t47.5 90.5q0 33 -24 55t-78 37l-121 31q-156 42 -156 163q0 94 74 157t192 63q110 0 181.5 -49.5t74.5 -147.5h-102q-3 57 -46.5 86t-115.5 29q-71 0 -112 -35.5t-41 -89.5q0 -35 24.5 -55.5t77.5 -34.5l131 -35
q145 -38 145 -156q0 -99 -79 -163t-201 -64t-200 53t-81 162z" />
    <glyph glyph-name="t.ord" horiz-adv-x="546" 
d="M498 748l-15 -89q-57 -22 -118 -22q-164 0 -164 139q0 13 4 45l67 424h-100l12 82h101l32 174h105l-27 -174h178l-14 -82h-180l-68 -420q-2 -8 -2 -24q0 -72 86 -72q42 0 103 19z" />
    <glyph glyph-name="u.ord" horiz-adv-x="854" 
d="M621 649l20 121q-36 -66 -96 -102.5t-137 -36.5q-99 0 -155 54.5t-56 152.5q0 17 4 53l67 436h113l-68 -418q-4 -20 -4 -55q0 -137 135 -137q82 0 142 59t78 176l59 375h113l-111 -678h-104z" />
    <glyph glyph-name="v.ord" horiz-adv-x="788" 
d="M332 647l-135 680h108l105 -571h2l325 571h113l-397 -680h-121z" />
    <glyph glyph-name="w.ord" horiz-adv-x="1091" 
d="M721 1327l47 -559h2l274 559h109l-348 -680h-111l-53 553h-2l-262 -553h-117l-63 680h106l45 -559h2l262 559h109z" />
    <glyph glyph-name="x.ord" horiz-adv-x="806" 
d="M221 647h-121l324 352l-188 328h120l140 -252l229 252h121l-301 -328l203 -352h-119l-154 277z" />
    <glyph glyph-name="y.ord" horiz-adv-x="786" 
d="M336 666l-137 680h110l105 -564h2l323 564h113l-412 -699q-75 -128 -133 -179t-147 -52q-30 0 -62 8l15 90q38 -6 51 -6q50 0 84 33t88 125z" />
    <glyph glyph-name="z.ord" horiz-adv-x="751" 
d="M768 1245l-496 -514h418l-14 -84h-555l10 72l498 522h-389l12 86h526z" />
    <glyph glyph-name="caron.Slovak" horiz-adv-x="1155" 
d="M604 1077h-63l135 430h158z" />
    <glyph glyph-name="commaturn" horiz-adv-x="1157" 
d="M782 1335l-20 -133h-172l20 135q31 199 215 199l-10 -68q-56 0 -82.5 -33.5t-34.5 -99.5h84z" />
    <glyph glyph-name="uni00200326" horiz-adv-x="1157" 
d="M379 -248l20 133h172l-20 -135q-31 -199 -215 -199l10 68q56 0 82.5 33.5t34.5 99.5h-84z" />
    <glyph glyph-name="guilsinglleft.cap" horiz-adv-x="628" 
d="M453 250h-93l-206 391l323 393h101l-283 -393z" />
    <glyph glyph-name="guilsinglright.cap" horiz-adv-x="628" 
d="M215 1034h92l207 -391l-324 -393h-100l283 393z" />
    <glyph glyph-name="guillemotleft.cap" horiz-adv-x="1007" 
d="M831 250h-92l-207 391l324 393h100l-282 -393zM453 250h-93l-206 391l323 393h101l-283 -393z" />
    <glyph glyph-name="guillemotright.cap" horiz-adv-x="1007" 
d="M217 1034h92l207 -391l-323 -393h-101l283 393zM596 1034h92l207 -391l-324 -393h-100l283 393z" />
    <glyph glyph-name="slash.cap" horiz-adv-x="1009" 
d="M4 -154l940 1729h123l-940 -1729h-123z" />
    <glyph glyph-name="backslash.cap" horiz-adv-x="1005" 
d="M279 1575h114l395 -1729h-112z" />
    <glyph glyph-name="bar.cap" horiz-adv-x="602" 
d="M412 1575h112l-274 -1729h-113z" />
    <glyph glyph-name="periodcentered.cap" horiz-adv-x="530" 
d="M190 608l29 178h178l-28 -178h-179z" />
    <glyph glyph-name="bullet.cap" horiz-adv-x="851" 
d="M211 725q0 101 73.5 173.5t174.5 72.5q103 0 175.5 -72.5t72.5 -173.5q0 -103 -72.5 -175.5t-175.5 -72.5q-102 0 -175 73t-73 175z" />
    <glyph glyph-name="hyphen.cap" horiz-adv-x="919" 
d="M195 637l18 111h563l-18 -111h-563z" />
    <glyph glyph-name="endash.cap" horiz-adv-x="1386" 
d="M195 637l18 104h1030l-18 -104h-1030z" />
    <glyph glyph-name="emdash.cap" horiz-adv-x="2054" 
d="M197 637l18 104h1698l-19 -104h-1697z" />
    <glyph glyph-name="parenleft.cap" horiz-adv-x="765" 
d="M799 1575q-480 -538 -480 -1043q0 -354 207 -686h-112q-213 333 -213 689q0 540 477 1040h121z" />
    <glyph glyph-name="parenright.cap" horiz-adv-x="765" 
d="M31 -154q479 537 479 1043q0 354 -207 686h113q213 -333 213 -688q0 -541 -477 -1041h-121z" />
    <glyph glyph-name="bracketleft.cap" horiz-adv-x="790" 
d="M487 1475l-241 -1528h301l-15 -101h-413l274 1729h410l-15 -100h-301z" />
    <glyph glyph-name="bracketright.cap" horiz-adv-x="790" 
d="M365 -53l241 1528h-301l14 100h414l-274 -1729h-410l14 101h302z" />
    <glyph glyph-name="braceleft.cap" horiz-adv-x="868" 
d="M125 659l16 103h113q104 0 119 108l80 502q17 107 78 155t169 48h185l-17 -100h-174q-59 0 -90 -19t-41 -78l-80 -508q-18 -129 -147 -159q100 -26 100 -119q0 -44 -43 -296.5t-43 -279.5q0 -41 25.5 -55t77.5 -14h174l-17 -101h-184q-93 0 -139.5 35t-46.5 113
q0 51 42 304.5t42 283.5q0 77 -86 77h-113z" />
    <glyph glyph-name="braceright.cap" horiz-adv-x="868" 
d="M805 762l-17 -103h-112q-104 0 -119 -108l-80 -502q-17 -107 -78.5 -155t-169.5 -48h-184l16 101h175q59 0 90 19t41 77l79 508q19 130 148 160q-100 26 -100 118q0 44 43 296.5t43 279.5q0 41 -26 55.5t-77 14.5h-174l16 100h185q93 0 139.5 -35t46.5 -113
q0 -51 -42 -304t-42 -283q0 -78 86 -78h113z" />
    <glyph glyph-name="at.cap" horiz-adv-x="1869" 
d="M1386 1102l-141 -594q-6 -27 -6 -47q0 -90 100 -90q146 0 245 148.5t99 361.5q0 241 -167.5 389.5t-448.5 148.5q-153 0 -285 -47t-225.5 -126.5t-160 -184t-98.5 -221t-32 -236.5q0 -131 40 -239.5t108 -181.5t160.5 -123.5t195 -73.5t213.5 -23q250 0 455 86l30 -86
q-233 -98 -491 -98q-129 0 -247.5 27.5t-223 86t-181.5 143t-122 207t-45 269.5q0 187 68 356.5t187 294.5t291 199t369 74q161 0 296.5 -48.5t228 -133.5t144.5 -202.5t52 -254.5q0 -127 -39.5 -240.5t-105 -192.5t-151.5 -125t-177 -46q-80 0 -134.5 39.5t-66.5 107.5
q-41 -61 -110 -101t-150 -40q-132 0 -204 89.5t-72 225.5q0 86 29.5 175.5t83 167.5t141 127.5t192.5 49.5q79 0 136.5 -42.5t76.5 -98.5l31 123h112zM1165 639q33 135 33 188q0 93 -47.5 141t-122.5 48q-97 0 -174.5 -66t-115.5 -159t-38 -187q0 -99 48.5 -156t136.5 -57
q87 0 168.5 64.5t111.5 183.5z" />
    <glyph glyph-name="uni0192.lt" 
d="M987 733h-258l-323 -958h-117l321 958h-184l14 94h203l135 404q47 137 141 219t216 82q61 0 129 -27l-17 -112q-59 30 -127 30q-77 0 -136.5 -56t-92.5 -157l-129 -383h239z" />
    <glyph glyph-name="Euro.lt" 
d="M1268 408q-63 -200 -203 -316.5t-348 -116.5q-209 0 -338.5 149.5t-138.5 407.5h-164l16 105h150q6 96 24 184h-145l16 105h156q80 253 255.5 407t389.5 154q199 0 302 -116t103 -314h-116q-11 317 -307 317q-166 0 -300 -123t-202 -325h536l-41 -105h-526
q-19 -95 -25 -184h480l-37 -105h-445q9 -208 104.5 -326t270.5 -118q301 0 408 320h125z" />
    <glyph glyph-name="dollar.lt" 
d="M1202 442q0 -195 -156 -328.5t-389 -133.5l-32 -203h-103l35 207q-201 23 -326.5 136t-128.5 306h121q9 -155 103.5 -236.5t246.5 -97.5l99 600l-105 27q-68 17 -120 39.5t-98.5 58t-71.5 89.5t-25 124q0 193 150 324t382 131h19l31 192h102l-33 -200q171 -26 269 -123
t102 -250h-119q-3 104 -75 172t-195 90l-97 -588l103 -24q150 -38 230.5 -111.5t80.5 -200.5zM610 823l80 -20l94 571h-8q-191 0 -297 -97.5t-106 -240.5q0 -85 56.5 -134t180.5 -79zM840 651l-70 17l-94 -580q175 5 290 97.5t115 232.5q0 87 -57 144.5t-184 88.5z" />
    <glyph glyph-name="cent.lt" 
d="M1061 315q-49 -155 -156.5 -241t-255.5 -92l-35 -199h-102l37 205q-143 26 -227 140t-84 288q0 258 142 440t357 201l43 250h103l-45 -252q130 -17 206.5 -104.5t77.5 -225.5h-108q-6 98 -58.5 157.5t-134.5 71.5l-153 -870q200 18 280 231h113zM358 420
q0 -135 55 -222.5t152 -109.5l154 866q-164 -24 -262.5 -175t-98.5 -359z" />
    <glyph glyph-name="sterling.lt" 
d="M1130 111l-18 -111h-1032l18 111h23q123 0 213 128t90 298q0 41 -6 81h-201l16 105h158q-3 9 -14.5 44.5t-15.5 48.5t-12 44.5t-11.5 51.5t-6.5 49t-3 57q0 87 32.5 170t92.5 150t156.5 108t213.5 41q137 0 234.5 -55t143.5 -145t46 -204q0 -19 -4 -59h-115q2 20 2 37
q0 138 -77.5 226.5t-229.5 88.5q-172 0 -272 -96t-100 -256q0 -36 7 -78t15 -71.5t22 -78t21 -73.5h453l-17 -105h-415q6 -38 6 -75q0 -133 -55 -245t-158 -187h800z" />
    <glyph glyph-name="yen.lt" 
d="M1143 336h-434l-54 -336h-118l53 336h-438l16 104h438l33 205h-436l16 107h383l-369 710h129l355 -686h4l553 686h145l-592 -710h385l-16 -107h-438l-33 -205h434z" />
    <glyph glyph-name="zero.lt" 
d="M606 -25q-216 0 -338.5 160.5t-122.5 425.5q0 184 50.5 353.5t138 296t212.5 201.5t267 75q216 0 338.5 -160.5t122.5 -425.5q0 -184 -50.5 -353.5t-138 -296t-212.5 -201.5t-267 -75zM616 92q202 0 340.5 175t180.5 462q12 95 12 176q0 216 -88 340.5t-258 124.5
q-202 0 -340 -175t-180 -462q-13 -102 -13 -176q0 -216 88 -340.5t258 -124.5z" />
    <glyph glyph-name="one.lt" 
d="M1171 102l-16 -102h-1036l16 102h473l168 1059h-422l13 86q138 0 229 12.5t148 42.5t87 67.5t54 98.5h63l-217 -1366h440z" />
    <glyph glyph-name="two.lt" 
d="M1227 1128q0 -45 -9 -87t-22.5 -77t-38.5 -71t-47.5 -63.5t-59.5 -59.5t-64.5 -53.5t-72.5 -51.5t-73 -48t-77 -48t-75 -47q-61 -39 -86 -54.5t-81 -53.5t-82.5 -59.5t-67.5 -57t-61 -62t-38 -60t-22 -64.5h840l-19 -111h-967l13 66q11 71 50.5 141t90.5 125t126.5 114
t138.5 99.5t147 89.5q82 48 138 84.5t118 86.5t98.5 95.5t61 103.5t24.5 119q0 108 -70 179t-217 71q-158 0 -267.5 -100.5t-143.5 -249.5h-115q42 199 183.5 331t353.5 132q100 0 177.5 -30t123.5 -81.5t69 -114.5t23 -133z" />
    <glyph glyph-name="three.lt" 
d="M1143 428q0 -81 -34.5 -160t-98.5 -145t-169 -107t-233 -41q-138 0 -245.5 50t-171.5 152.5t-64 244.5h123q0 -158 94.5 -248t263.5 -90q128 0 224 48.5t144 126.5t48 171q0 118 -82 188t-229 70h-152l19 113h153q73 0 136.5 19.5t114 58t79.5 101.5t29 144
q0 110 -75.5 182t-215.5 72q-167 0 -276 -99.5t-138 -252.5h-117q18 96 63 179.5t112.5 146.5t160.5 99t199 36q194 0 303 -103.5t109 -257.5q0 -78 -29 -146.5t-76.5 -116t-106 -78t-120.5 -40.5q112 -25 185 -115.5t73 -201.5z" />
    <glyph glyph-name="four.lt" 
d="M1083 1462l-147 -938h326l-17 -102h-325l-68 -422h-119l68 422h-729l16 104l852 936h143zM942 1323l-723 -799h598z" />
    <glyph glyph-name="five.lt" 
d="M743 858q-117 0 -211.5 -51t-156.5 -131h-111l203 786h795l-19 -112h-702l-144 -541q62 68 162 113t199 45q134 0 230 -56t142 -148.5t46 -211.5q0 -114 -41 -218.5t-112.5 -184t-177 -126.5t-227.5 -47q-208 0 -335 118.5t-127 336.5h118q0 -162 91.5 -254t257.5 -92
q103 0 187.5 39.5t137 105t81 146.5t28.5 168q0 137 -78.5 226t-235.5 89z" />
    <glyph glyph-name="six.lt" 
d="M852 1374q-143 0 -260.5 -95.5t-191 -255.5t-99.5 -361q26 63 65.5 116.5t95 99.5t133 72.5t167.5 26.5q127 0 226 -59t151.5 -157t52.5 -216q0 -152 -71.5 -282.5t-199.5 -209t-284 -78.5q-210 0 -333.5 152t-123.5 412q0 193 55.5 369.5t147.5 302.5t217 201t260 75
q188 0 299 -106t111 -287h-117q-6 137 -85 208.5t-216 71.5zM649 86q121 0 219 62t151.5 165.5t53.5 225.5q0 144 -89.5 234.5t-242.5 90.5q-180 0 -304 -127t-124 -311q0 -149 91.5 -244.5t244.5 -95.5z" />
    <glyph glyph-name="seven.lt" 
d="M1145 1350h-918l19 112h1067l-15 -80q-322 -316 -502.5 -654t-246.5 -728h-133q66 381 258 724.5t471 625.5z" />
    <glyph glyph-name="eight.lt" 
d="M612 -25q-225 0 -359 101.5t-134 267.5q0 82 34.5 155.5t90.5 125t125 85.5t141 44q-96 39 -150.5 112.5t-54.5 173.5q0 132 72 235.5t190.5 157.5t259.5 54q184 0 301 -93t117 -249q0 -148 -88 -256t-229 -152q112 -27 188 -110t76 -193q0 -195 -166 -327t-414 -132z
M741 799q163 0 273 92.5t110 243.5q0 119 -88.5 181t-224.5 62q-165 0 -274 -90t-109 -241q0 -120 88 -184t225 -64zM690 694q-196 0 -319 -95t-123 -249q0 -123 102 -195.5t275 -72.5q199 0 316.5 102.5t117.5 247.5q0 120 -98 191t-271 71z" />
    <glyph glyph-name="nine.lt" 
d="M567 88q143 0 260.5 95.5t191 255.5t99.5 362q-26 -63 -65.5 -116.5t-95 -100t-133 -73t-167.5 -26.5q-127 0 -226 59t-151.5 157.5t-52.5 216.5q0 152 71.5 282.5t199.5 208.5t284 78q210 0 333.5 -151.5t123.5 -411.5q0 -257 -93.5 -476.5t-250 -346t-336.5 -126.5
q-188 0 -298.5 106.5t-110.5 287.5h116q6 -138 85 -209.5t216 -71.5zM770 1376q-121 0 -219 -61.5t-151.5 -165t-53.5 -225.5q0 -144 89.5 -235t242.5 -91q180 0 304 127t124 311q0 149 -91.5 244.5t-244.5 95.5z" />
    <glyph glyph-name="zero.dnom" horiz-adv-x="835" 
d="M348 -14q-129 0 -202.5 90t-73.5 239q0 133 47 247.5t136 185.5t200 71q128 0 201 -90.5t73 -239.5q0 -133 -47 -247.5t-135.5 -185t-198.5 -70.5zM449 727q-100 0 -167 -87.5t-89 -233.5q-11 -51 -11 -99q0 -106 44.5 -167.5t127.5 -61.5q99 0 166.5 87.5t89.5 231.5
q8 52 8 101q0 106 -43 167.5t-126 61.5z" />
    <glyph glyph-name="one.dnom" horiz-adv-x="669" 
d="M557 88l-14 -88h-535l15 88h210l82 514h-206l12 82q96 0 149.5 14t77 37.5t41.5 69.5h68l-113 -717h213z" />
    <glyph glyph-name="two.dnom" horiz-adv-x="704" 
d="M645 612q0 -46 -16.5 -87.5t-39 -70t-64.5 -60.5t-72.5 -50.5t-84.5 -49.5q-5 -3 -8.5 -5t-7.5 -4q-98 -57 -154.5 -102t-64.5 -91h442l-16 -92h-561l8 47q8 52 37.5 100t77 89t89.5 69t101 62q59 33 95 56t70 53t49.5 62t15.5 70q0 50 -33 83.5t-102 33.5
q-76 0 -129.5 -49t-69.5 -121h-107q25 112 108 187t206 75q111 0 171 -58.5t60 -146.5z" />
    <glyph glyph-name="three.dnom" horiz-adv-x="757" 
d="M618 238q0 -98 -81.5 -175t-225.5 -77q-125 0 -200.5 66t-75.5 181h108q0 -75 45.5 -117t128.5 -42q89 0 143 48t54 118q0 57 -39 87.5t-110 30.5h-84l14 88h82q76 0 125 43t49 119q0 54 -35.5 87.5t-103.5 33.5q-80 0 -130.5 -42.5t-64.5 -113.5h-104q25 108 105 177
t202 69q115 0 177 -58t62 -145q0 -83 -53 -142.5t-125 -72.5q62 -12 99.5 -57t37.5 -106z" />
    <glyph glyph-name="four.dnom" horiz-adv-x="821" 
d="M627 801l-84 -514h170l-13 -86h-170l-30 -201h-107l31 201h-399l14 88l463 512h125zM502 690l-359 -403h293z" />
    <glyph glyph-name="five.dnom" horiz-adv-x="761" 
d="M377 446q-110 0 -178 -84h-101l115 441h467l-16 -92h-383l-68 -250q32 32 83 53t105 21q111 0 172.5 -62.5t61.5 -163.5q0 -133 -91 -228t-233 -95q-124 0 -196 67.5t-72 188.5h111q0 -78 42.5 -123t122.5 -45q95 0 151 66.5t56 156.5q0 66 -37.5 107.5t-111.5 41.5z" />
    <glyph glyph-name="six.dnom" horiz-adv-x="782" 
d="M449 727q-103 0 -176.5 -96t-94.5 -240q76 141 234 141q104 0 172.5 -65.5t68.5 -167.5q0 -128 -91.5 -220.5t-227.5 -92.5q-120 0 -193 84.5t-73 226.5q0 138 52 258.5t141.5 192t193.5 71.5q108 0 173 -60.5t66 -162.5h-102q-3 63 -40 97t-103 34zM344 74q87 0 145 64
t58 155q0 71 -44.5 113.5t-117.5 42.5q-86 0 -145.5 -61.5t-59.5 -149.5q0 -72 45.5 -118t118.5 -46z" />
    <glyph glyph-name="seven.dnom" horiz-adv-x="716" 
d="M549 711h-453l17 90h569l-14 -80q-162 -168 -248.5 -339.5t-122.5 -381.5h-117q64 384 369 711z" />
    <glyph glyph-name="eight.dnom" horiz-adv-x="794" 
d="M328 -14q-130 0 -208.5 56.5t-78.5 150.5q0 86 63.5 148t145.5 75q-109 43 -109 153q0 111 86 180.5t211 69.5q109 0 177.5 -52.5t68.5 -143.5q0 -77 -46.5 -135.5t-121.5 -84.5q59 -12 99 -57.5t40 -105.5q0 -110 -93 -182t-234 -72zM397 451q80 0 132.5 44.5
t52.5 118.5q0 58 -43 87.5t-109 29.5q-80 0 -133 -43.5t-53 -116.5q0 -59 42.5 -89.5t110.5 -30.5zM365 369q-96 0 -154.5 -47t-58.5 -121q0 -60 49.5 -94.5t134.5 -34.5q98 0 154.5 50t56.5 120q0 58 -48 92.5t-134 34.5z" />
    <glyph glyph-name="nine.dnom" horiz-adv-x="784" 
d="M299 78q101 0 174 95.5t94 240.5q-76 -144 -233 -144q-103 0 -171.5 66.5t-68.5 167.5q0 130 91 222.5t227 92.5q121 0 194.5 -84.5t73.5 -228.5q0 -138 -52 -258t-141.5 -191t-193.5 -71q-108 0 -174.5 60t-67.5 163h103q3 -64 40 -97.5t105 -33.5zM403 729
q-88 0 -145 -63t-57 -152q0 -72 43 -116t116 -44q87 0 146 61.5t59 151.5q0 71 -44.5 116.5t-117.5 45.5z" />
    <glyph glyph-name="percent.lt" 
d="M420 852q-121 0 -200 79t-79 197q0 141 109 250t250 109q119 0 198.5 -79.5t79.5 -197.5q0 -141 -109 -249.5t-249 -108.5zM1339 1462h131l-1392 -1460h-129zM432 956q97 0 166.5 74.5t69.5 167.5q0 79 -52.5 131.5t-130.5 52.5q-97 0 -166 -73.5t-69 -165.5
q0 -81 52 -134t130 -53zM930 -23q-121 0 -200 79.5t-79 197.5q0 141 109 249.5t250 108.5q120 0 199 -79t79 -197q0 -141 -109 -250t-249 -109zM942 82q97 0 166.5 74t69.5 166q0 81 -52 133.5t-131 52.5q-97 0 -166 -74t-69 -168q0 -79 52 -131.5t130 -52.5z" />
    <glyph glyph-name="period.tab" horiz-adv-x="675" 
d="M166 0l29 178h178l-29 -178h-178z" />
    <glyph glyph-name="comma.tab" horiz-adv-x="675" 
d="M168 0l29 178h178l-35 -221q-18 -117 -96.5 -191.5t-200.5 -74.5l14 82q77 0 122.5 44t60.5 140l6 43h-78z" />
    <glyph glyph-name="colon.tab" horiz-adv-x="675" 
d="M279 713l28 178h178l-28 -178h-178zM166 0l29 178h178l-29 -178h-178z" />
    <glyph glyph-name="semicolon.tab" horiz-adv-x="675" 
d="M281 713l28 178h178l-28 -178h-178zM168 0l29 178h178l-35 -221q-18 -117 -96.5 -191.5t-200.5 -74.5l14 82q77 0 122.5 44t60.5 140l6 43h-78z" />
    <glyph glyph-name="space.tab" horiz-adv-x="675" 
 />
    <glyph glyph-name="thinspace" horiz-adv-x="133" 
 />
    <glyph glyph-name="zero.slash" horiz-adv-x="1347" 
d="M604 -25q-216 0 -338.5 160.5t-122.5 425.5q0 184 50.5 353.5t138 296t212.5 201.5t267 75q216 0 338.5 -160.5t122.5 -425.5q0 -184 -50.5 -353.5t-138 -296t-212.5 -201.5t-267 -75zM268 557q0 -221 88 -340l633 1098q-76 55 -188 55q-202 0 -340 -175t-180 -462
q-13 -102 -13 -176zM1147 905q0 224 -92 348l-633 -1103q80 -58 192 -58q202 0 340.5 175t180.5 462q12 95 12 176z" />
    <glyph glyph-name="zero.slashlt" 
d="M606 -25q-216 0 -338.5 160.5t-122.5 425.5q0 184 50.5 353.5t138 296t212.5 201.5t267 75q216 0 338.5 -160.5t122.5 -425.5q0 -184 -50.5 -353.5t-138 -296t-212.5 -201.5t-267 -75zM270 557q0 -221 88 -340l633 1098q-76 55 -188 55q-202 0 -340 -175t-180 -462
q-13 -102 -13 -176zM1149 905q0 224 -92 348l-633 -1103q80 -58 192 -58q202 0 340.5 175t180.5 462q12 95 12 176z" />
    <glyph glyph-name="CR" horiz-adv-x="452" 
 />
    </font>
</defs>
</svg>
