<?xml version="1.0" standalone="no"?>
<!DOCTYPE svg PUBLIC "-//W3C//DTD SVG 1.1//EN" "http://www.w3.org/Graphics/SVG/1.1/DTD/svg11.dtd" >
<svg xmlns="http://www.w3.org/2000/svg" xmlns:xlink="http://www.w3.org/1999/xlink" version="1.1">
<metadata>
Created by FontForge 20170731 at Mon May  9 08:32:44 2022
 By Aleksey,,,
Copyright 2022, Kris Sowersby, Klim Type Foundry.
</metadata>
<defs>
<font id="UntitledSans-RegularItalic" horiz-adv-x="1351" >
  <font-face 
    font-family="Untitled Sans"
    font-weight="400"
    font-style="italic"
    font-stretch="normal"
    units-per-em="2048"
    panose-1="2 11 5 3 3 2 2 13 2 3"
    ascent="1638"
    descent="-410"
    x-height="1030"
    cap-height="1462"
    bbox="-498 -459 2294 1968"
    underline-thickness="102"
    underline-position="-307"
    slope="-9"
    unicode-range="U+0020-2212"
  />
<missing-glyph horiz-adv-x="2523" 
d="M2111 969v-113q-49 -16 -108 -16q-172 0 -172 172v256h-74v106h74v133h151v-133h117v-106h-117v-238q0 -69 62 -69q28 0 67 8zM735 1374v-82q20 43 62 70t100 27q92 0 143.5 -54t51.5 -149v-338h-154v303q0 121 -96 121q-49 0 -78 -34.5t-29 -104.5v-285h-153v526h153z
M1171 1114q0 126 76 200.5t199 74.5q121 0 196.5 -74.5t75.5 -200.5q0 -127 -75 -201.5t-197 -74.5q-123 0 -199 74.5t-76 201.5zM1323 1114q0 -80 31.5 -124t91.5 -44q57 0 88 44.5t31 123.5q0 77 -31 120.5t-88 43.5q-61 0 -92 -43t-31 -121zM285 848v174h174v-174h-174z
M2111 621q-39 8 -67 8q-62 0 -62 -70v-31h117v-106h-117v-422h-151v422h-74v106h74v50q0 172 172 172q56 0 108 -17v-112zM940 0v84q-20 -42 -64 -69t-100 -27q-105 0 -168 76t-63 200q0 123 63 200t168 77q54 0 97 -27t65 -68v297h154v-743h-152zM1706 166
q-24 -85 -89.5 -131.5t-166.5 -46.5q-123 0 -201 74t-78 200q0 125 80 201t199 76q127 0 195.5 -77.5t68.5 -189.5v-47h-395q15 -129 131 -129q85 0 109 70h147zM1450 432q-52 0 -84 -30t-43 -85h242q-2 48 -31 81.5t-84 33.5zM942 254v18q0 74 -32.5 116t-90.5 42
t-90.5 -45t-32.5 -121q0 -77 32.5 -122.5t90.5 -45.5t90.5 42.5t32.5 115.5z" />
    <glyph glyph-name="f_idieresis" unicode="f&#xef;" horiz-adv-x="1183" 
d="M479 1159l-22 -129h223l-21 -129h-221l-143 -901h-168l141 901h-147l20 129h148l22 137q25 160 132 253t268 93q43 0 94 -8.5t78 -21.5l-23 -137q-71 26 -153 26q-194 0 -228 -213zM1128 1245l33 207h174l-32 -207h-175zM913 1030h172l-163 -1030h-172z" />
    <glyph glyph-name=".notdef" horiz-adv-x="2523" 
d="M2111 969v-113q-49 -16 -108 -16q-172 0 -172 172v256h-74v106h74v133h151v-133h117v-106h-117v-238q0 -69 62 -69q28 0 67 8zM735 1374v-82q20 43 62 70t100 27q92 0 143.5 -54t51.5 -149v-338h-154v303q0 121 -96 121q-49 0 -78 -34.5t-29 -104.5v-285h-153v526h153z
M1171 1114q0 126 76 200.5t199 74.5q121 0 196.5 -74.5t75.5 -200.5q0 -127 -75 -201.5t-197 -74.5q-123 0 -199 74.5t-76 201.5zM1323 1114q0 -80 31.5 -124t91.5 -44q57 0 88 44.5t31 123.5q0 77 -31 120.5t-88 43.5q-61 0 -92 -43t-31 -121zM285 848v174h174v-174h-174z
M2111 621q-39 8 -67 8q-62 0 -62 -70v-31h117v-106h-117v-422h-151v422h-74v106h74v50q0 172 172 172q56 0 108 -17v-112zM940 0v84q-20 -42 -64 -69t-100 -27q-105 0 -168 76t-63 200q0 123 63 200t168 77q54 0 97 -27t65 -68v297h154v-743h-152zM1706 166
q-24 -85 -89.5 -131.5t-166.5 -46.5q-123 0 -201 74t-78 200q0 125 80 201t199 76q127 0 195.5 -77.5t68.5 -189.5v-47h-395q15 -129 131 -129q85 0 109 70h147zM1450 432q-52 0 -84 -30t-43 -85h242q-2 48 -31 81.5t-84 33.5zM942 254v18q0 74 -32.5 116t-90.5 42
t-90.5 -45t-32.5 -121q0 -77 32.5 -122.5t90.5 -45.5t90.5 42.5t32.5 115.5z" />
    <glyph glyph-name=".null" horiz-adv-x="0" 
 />
    <glyph glyph-name="nonmarkingreturn" horiz-adv-x="682" 
 />
    <glyph glyph-name="space" unicode=" " horiz-adv-x="444" 
 />
    <glyph glyph-name="exclam" unicode="!" horiz-adv-x="628" 
d="M362 1462h201l-192 -1018h-135zM119 0l37 221h223l-35 -221h-225z" />
    <glyph glyph-name="quotedbl" unicode="&#x22;" horiz-adv-x="856" 
d="M606 946l64 561h178l-115 -561h-127zM262 946l62 561h180l-115 -561h-127z" />
    <glyph glyph-name="numbersign" unicode="#" horiz-adv-x="1384" 
d="M618 82l160 389h-323l-160 -389h-139l159 389h-249l45 119h251l127 309h-262l43 121h269l159 389h142l-160 -389h321l160 389h139l-159 -389h250l-43 -121h-256l-127 -309h266l-45 -119h-268l-160 -389h-140zM504 590h321l127 309h-321z" />
    <glyph glyph-name="dollar" unicode="$" horiz-adv-x="1339" 
d="M1219 453q0 -131 -72 -238.5t-200.5 -169.5t-289.5 -65l-32 -203h-119l35 209q-207 23 -332.5 136.5t-128.5 307.5h168q7 -140 92 -214.5t223 -90.5l92 549l-108 24q-322 75 -322 322q0 200 156.5 332.5t398.5 132.5h8l33 192h117l-33 -200q180 -28 280 -129t105 -258
h-164q-3 95 -68 157.5t-177 83.5l-88 -532l110 -25q316 -77 316 -321zM618 840l62 -15l86 516q-175 0 -274 -87t-99 -216q0 -81 53 -125t172 -73zM823 633l-55 12l-86 -526q164 8 267.5 91t103.5 210q0 80 -54 132t-176 81z" />
    <glyph glyph-name="percent" unicode="%" horiz-adv-x="1650" 
d="M477 836q-122 0 -203 81.5t-81 200.5q0 147 111.5 258t256.5 111q123 0 204 -81.5t81 -201.5q0 -146 -112 -257t-257 -111zM1421 1462h154l-1280 -1462h-152zM494 958q93 0 159 71t66 161q0 75 -49.5 124.5t-124.5 49.5q-93 0 -159.5 -69.5t-66.5 -157.5q0 -78 50 -128.5
t125 -50.5zM1155 -23q-123 0 -204 81.5t-81 201.5q0 146 112 256.5t259 110.5q123 0 204 -81.5t81 -201.5q0 -146 -112 -256.5t-259 -110.5zM1171 98q94 0 161 70.5t67 159.5q0 78 -49.5 128t-124.5 50q-93 0 -160.5 -71t-67.5 -161q0 -75 49.5 -125.5t124.5 -50.5z" />
    <glyph glyph-name="ampersand" unicode="&#x26;" horiz-adv-x="1531" 
d="M1157 0l-127 150q-229 -175 -514 -175q-183 0 -302.5 102.5t-119.5 258.5q0 86 26.5 155.5t81 124.5t121 97t162.5 86q-112 153 -112 288q0 107 55 198.5t156 146.5t227 55q156 0 249 -83.5t93 -205.5q0 -80 -27.5 -142t-87.5 -113.5t-132 -91t-185 -87.5l340 -402
q126 154 180 377h156q-68 -285 -248 -481l217 -258h-209zM537 1096q0 -59 25.5 -113t76.5 -121q199 81 275.5 149t76.5 171q0 78 -52.5 127t-143.5 49q-107 0 -182.5 -75t-75.5 -187zM264 358q0 -105 78.5 -174t200.5 -69q227 0 403 135l-379 448q-152 -69 -227.5 -144.5
t-75.5 -195.5z" />
    <glyph glyph-name="quotesingle" unicode="'" horiz-adv-x="514" 
d="M262 946l62 561h182l-115 -561h-129z" />
    <glyph glyph-name="parenleft" unicode="(" horiz-adv-x="802" 
d="M836 1507q-480 -538 -480 -1042q0 -354 207 -686h-160q-215 326 -215 690q0 542 480 1038h168z" />
    <glyph glyph-name="parenright" unicode=")" horiz-adv-x="802" 
d="M8 -221q479 537 479 1042q0 355 -206 686h159q215 -326 215 -690q0 -543 -479 -1038h-168z" />
    <glyph glyph-name="asterisk" unicode="*" horiz-adv-x="847" 
d="M524 1487l117 -23l-49 -268l266 39l19 -119l-271 -39l119 -237l-107 -58l-114 246l-193 -190l-84 88l195 182l-240 131l56 107l237 -129z" />
    <glyph glyph-name="plus" unicode="+" 
d="M1225 612h-463l-74 -465h-139l74 465h-465l20 140h467l74 465h137l-74 -465h463z" />
    <glyph glyph-name="comma" unicode="," horiz-adv-x="628" 
d="M121 2l35 221h223l-41 -258q-19 -130 -108 -208.5t-226 -78.5l19 105q81 0 129.5 42.5t62.5 139.5l6 37h-100z" />
    <glyph glyph-name="hyphen" unicode="-" horiz-adv-x="923" 
d="M174 500l25 149h567l-25 -149h-567z" />
    <glyph glyph-name="period" unicode="." horiz-adv-x="628" 
d="M121 0l35 223h223l-35 -223h-223z" />
    <glyph glyph-name="slash" unicode="/" horiz-adv-x="1040" 
d="M-16 -221l940 1728h170l-940 -1728h-170z" />
    <glyph glyph-name="zero" unicode="0" horiz-adv-x="1374" 
d="M621 -25q-227 0 -356.5 163t-129.5 431q0 181 50.5 348t139 293t218 201.5t278.5 75.5q227 0 356.5 -163t129.5 -431q0 -181 -50.5 -348t-139 -293t-218 -201.5t-278.5 -75.5zM633 127q189 0 315.5 163t167.5 435q14 92 14 178q0 202 -81.5 317t-239.5 115
q-189 0 -315.5 -163t-167.5 -435q-15 -99 -15 -178q0 -201 82 -316.5t240 -115.5z" />
    <glyph glyph-name="one" unicode="1" horiz-adv-x="747" 
d="M147 1128l17 119q124 0 205 24t128 70.5t78 124.5h109l-233 -1466h-177l181 1128h-308z" />
    <glyph glyph-name="two" unicode="2" horiz-adv-x="1171" 
d="M1161 1120q0 -81 -28 -153t-70.5 -125t-110.5 -108t-128 -93t-143 -88q-38 -22 -56 -33q-70 -41 -117.5 -71.5t-104.5 -71.5t-93 -75.5t-63 -75t-34 -79.5h815l-24 -147h-1004l14 80q11 74 51 146.5t91.5 129.5t126.5 115.5t139.5 100t146.5 87.5q69 40 116.5 69
t100.5 66.5t87 71.5t63 73.5t43 82.5t14 90q0 99 -63.5 163t-196.5 64q-145 0 -245.5 -93t-133.5 -232h-166q21 98 68 183t116.5 150t166 102.5t209.5 37.5q102 0 182.5 -29.5t130 -81t75 -116.5t25.5 -140z" />
    <glyph glyph-name="three" unicode="3" horiz-adv-x="1249" 
d="M1122 430q0 -82 -35 -161.5t-101 -145.5t-174 -107t-241 -41q-223 0 -361 120.5t-138 332.5h172q0 -146 88 -227.5t246 -81.5q173 0 275.5 91.5t102.5 221.5q0 110 -76.5 174t-213.5 64h-150l25 143h149q144 0 239 76t95 221q0 101 -69.5 167t-196.5 66q-153 0 -252 -90
t-127 -231h-164q39 200 186 332.5t365 132.5q204 0 316 -105t112 -262q0 -149 -98 -252t-230 -125q112 -25 184 -113.5t72 -199.5z" />
    <glyph glyph-name="four" unicode="4" horiz-adv-x="1374" 
d="M1124 1462l-143 -919h313l-22 -142h-314l-65 -401h-168l63 401h-727l23 144l844 917h196zM928 1282l-674 -739h557z" />
    <glyph glyph-name="five" unicode="5" horiz-adv-x="1249" 
d="M688 829q-109 0 -195.5 -45.5t-142.5 -117.5h-160l207 796h830l-25 -149h-698l-129 -484q60 61 155.5 102.5t192.5 41.5q200 0 311 -116.5t111 -301.5q0 -115 -42 -220.5t-116 -185.5t-183.5 -127t-236.5 -47q-220 0 -350.5 120.5t-130.5 338.5h174q0 -148 82 -231.5
t233 -83.5q94 0 171 36t126 95.5t75 134.5t26 156q0 127 -71 207.5t-214 80.5z" />
    <glyph glyph-name="six" unicode="6" horiz-adv-x="1288" 
d="M817 1339q-131 0 -240 -86t-177.5 -231t-92.5 -326q27 56 65 104t91 89t125 64.5t155 23.5q189 0 313 -124t124 -308q0 -153 -73.5 -283t-205.5 -208.5t-293 -78.5q-217 0 -347 152.5t-130 413.5q0 192 56 367.5t150 302t223 201.5t269 75q193 0 310 -107.5t118 -292.5
h-161q-6 122 -79 187t-200 65zM621 119q169 0 280 122t111 294q0 133 -83.5 216t-223.5 83q-165 0 -279.5 -117.5t-114.5 -286.5q0 -137 85.5 -224t224.5 -87z" />
    <glyph glyph-name="seven" unicode="7" horiz-adv-x="1169" 
d="M1014 1313h-834l25 149h1028l-21 -125q-303 -309 -463.5 -629.5t-224.5 -707.5h-186q65 375 240.5 706t435.5 607z" />
    <glyph glyph-name="eight" unicode="8" horiz-adv-x="1310" 
d="M592 -25q-233 0 -372.5 103t-139.5 272q0 106 58 195.5t144.5 142t182.5 66.5q-94 39 -147.5 111.5t-53.5 170.5q0 133 73.5 237t195 159t268.5 55q193 0 314.5 -94t121.5 -254q0 -145 -86 -251.5t-225 -150.5q110 -27 185 -110t75 -193q0 -129 -77 -234.5t-213 -165
t-304 -59.5zM719 813q151 0 252.5 85t101.5 224q0 111 -82 168.5t-209 57.5q-152 0 -252 -83.5t-100 -222.5q0 -112 81 -170.5t208 -58.5zM664 678q-181 0 -293.5 -88.5t-112.5 -229.5q0 -113 94 -179t256 -66q184 0 292 93.5t108 227.5q0 110 -91 176t-253 66z" />
    <glyph glyph-name="nine" unicode="9" horiz-adv-x="1286" 
d="M539 131q131 0 240 86t177.5 231t92.5 326q-21 -44 -49 -83.5t-68 -76t-86 -62.5t-106.5 -42t-127.5 -16q-189 0 -312.5 124t-123.5 308q0 153 73.5 283t205.5 208t293 78q217 0 347 -152t130 -413q0 -154 -36 -298.5t-101 -260.5t-151 -203.5t-192.5 -135.5t-218.5 -48
q-193 0 -310 107t-118 292h162q6 -122 79 -187t200 -65zM735 1352q-169 0 -280 -122t-111 -294q0 -133 83.5 -216t223.5 -83q165 0 279 117t114 286q0 138 -85.5 225t-223.5 87z" />
    <glyph glyph-name="colon" unicode=":" horiz-adv-x="628" 
d="M231 696l35 224h223l-34 -224h-224zM121 0l35 223h223l-35 -223h-223z" />
    <glyph glyph-name="semicolon" unicode=";" horiz-adv-x="628" 
d="M231 696l35 224h223l-34 -224h-224zM121 2l35 221h223l-41 -258q-19 -130 -108 -208.5t-226 -78.5l19 105q81 0 129.5 42.5t62.5 139.5l6 37h-100z" />
    <glyph glyph-name="less" unicode="&#x3c;" 
d="M213 592l27 170l983 444l-27 -166l-819 -368l702 -365l-24 -160z" />
    <glyph glyph-name="equal" unicode="=" 
d="M201 788l22 138h1030l-20 -138h-1032zM141 406l21 135h1032l-20 -135h-1033z" />
    <glyph glyph-name="greater" unicode="&#x3e;" 
d="M1163 592l-985 -445l29 168l819 367l-704 367l24 157l844 -444z" />
    <glyph glyph-name="question" unicode="?" horiz-adv-x="1157" 
d="M1147 1118q0 -51 -12.5 -99.5t-30 -86t-49 -77.5t-57.5 -66.5t-69.5 -60.5t-70 -53t-72.5 -50q-51 -32 -81 -56.5t-59.5 -69.5t-41.5 -102h-170q21 105 89 186.5t192 164.5q50 35 76 54t68.5 57.5t64.5 71t39.5 79.5t17.5 98q0 100 -64.5 166.5t-197.5 66.5
q-148 0 -246 -93t-131 -234h-166q39 203 188.5 338t370.5 135q102 0 182.5 -30t129.5 -81.5t74.5 -117t25.5 -140.5zM344 0l35 217h223l-35 -217h-223z" />
    <glyph glyph-name="at" unicode="@" horiz-adv-x="1869" 
d="M1374 903l-143 -594q-6 -27 -6 -47q0 -84 94 -84q140 0 235 145t95 357q0 238 -166.5 383t-442.5 145q-150 0 -281 -45.5t-225 -123.5t-161.5 -182t-101 -222t-33.5 -242q0 -131 40 -238t107.5 -178.5t159.5 -120.5t193 -70.5t210 -21.5q247 0 459 86l37 -98
q-237 -102 -504 -102q-130 0 -249.5 27.5t-225.5 87t-184 144.5t-123 208.5t-45 271.5q0 189 70 361t192 298.5t297.5 201.5t376.5 75q161 0 297.5 -49t230.5 -134t146.5 -204t52.5 -256q0 -105 -26.5 -201.5t-73.5 -170t-108.5 -128.5t-134 -83.5t-147.5 -28.5
q-82 0 -138 38t-73 105q-42 -60 -112 -98.5t-150 -38.5q-134 0 -206 89.5t-72 227.5q0 89 30 180.5t85 170t144 128.5t195 50q77 0 134.5 -40.5t76.5 -95.5l29 117h145zM1116 438q31 125 31 176q0 84 -43.5 129t-112.5 45q-91 0 -163 -61.5t-107 -148.5t-35 -175
q0 -91 44.5 -142.5t125.5 -51.5q52 0 102.5 23.5t94.5 77t63 128.5z" />
    <glyph glyph-name="A" unicode="A" horiz-adv-x="1454" 
d="M1157 0l-92 408h-698l-232 -408h-182l840 1462h198l346 -1462h-180zM864 1284l-415 -731h583l-164 731h-4z" />
    <glyph glyph-name="B" unicode="B" horiz-adv-x="1390" 
d="M700 0h-589l231 1462h524q222 0 336.5 -88t114.5 -256q0 -131 -82.5 -234.5t-198.5 -133.5q117 -29 180.5 -107.5t63.5 -189.5q0 -209 -158.5 -331t-421.5 -122zM414 817h360q369 0 369 291q0 211 -289 211h-360zM391 680l-84 -537h408q189 0 290 84.5t101 218.5
q0 111 -79 172.5t-230 61.5h-406z" />
    <glyph glyph-name="C" unicode="C" horiz-adv-x="1406" 
d="M707 -25q-266 0 -422 173t-156 454q0 142 35 274.5t102 242.5t159 193t212.5 129t255.5 46q234 0 364.5 -123.5t141.5 -327.5h-176q-6 132 -91.5 216.5t-248.5 84.5q-131 0 -240 -59.5t-181 -161.5t-111.5 -236t-39.5 -284q0 -215 105.5 -343t300.5 -128q304 0 409 301
h179q-68 -210 -218 -330.5t-380 -120.5z" />
    <glyph glyph-name="D" unicode="D" horiz-adv-x="1521" 
d="M340 1462h508q287 0 448.5 -165.5t161.5 -446.5q0 -188 -63.5 -348t-174 -269.5t-262.5 -171t-327 -61.5h-522zM825 1315h-331l-187 -1168h344q185 0 327.5 88t220 247.5t77.5 365.5q0 221 -114 344t-337 123z" />
    <glyph glyph-name="E" unicode="E" horiz-adv-x="1310" 
d="M109 0l231 1462h989l-22 -147h-815l-82 -510h725l-25 -150h-725l-80 -508h815l-22 -147h-989z" />
    <glyph glyph-name="F" unicode="F" horiz-adv-x="1259" 
d="M109 0l231 1462h938l-23 -147h-761l-84 -535h692l-25 -147h-692l-100 -633h-176z" />
    <glyph glyph-name="G" unicode="G" horiz-adv-x="1527" 
d="M696 -25q-257 0 -412 172.5t-155 452.5q0 178 56 339.5t154 283t242.5 193t311.5 71.5q236 0 370.5 -124.5t143.5 -326.5h-176q-6 131 -94 216t-252 85q-105 0 -197 -38.5t-160 -107.5t-117.5 -161.5t-74.5 -203t-25 -230.5q0 -214 105 -343.5t301 -129.5q198 0 331 119
t160 348h-346l25 139h518l-115 -727h-141l22 242q-59 -122 -191 -195.5t-284 -73.5z" />
    <glyph glyph-name="H" unicode="H" horiz-adv-x="1589" 
d="M109 0l231 1462h174l-100 -645h858l102 645h174l-231 -1462h-174l106 670h-860l-106 -670h-174z" />
    <glyph glyph-name="I" unicode="I" horiz-adv-x="557" 
d="M340 1462h174l-231 -1462h-174z" />
    <glyph glyph-name="J" unicode="J" horiz-adv-x="1159" 
d="M813 516l150 946h176l-150 -944q-39 -255 -177 -399t-366 -144q-211 0 -326 122t-110 325h166q-2 -141 68 -224t211 -83q158 0 242.5 103t115.5 298z" />
    <glyph glyph-name="K" unicode="K" horiz-adv-x="1447" 
d="M1106 0l-477 702l-273 -239l-73 -463h-174l231 1462h174l-125 -792l893 792h221l-743 -647l547 -815h-201z" />
    <glyph glyph-name="L" unicode="L" horiz-adv-x="1273" 
d="M111 0l231 1462h174l-207 -1315h789l-25 -147h-962z" />
    <glyph glyph-name="M" unicode="M" horiz-adv-x="1820" 
d="M897 0h-141l-275 1286h-4l-203 -1286h-165l231 1462h264l258 -1239h4l647 1239h267l-232 -1462h-166l203 1286h-4z" />
    <glyph glyph-name="N" unicode="N" horiz-adv-x="1552" 
d="M547 1462l604 -1173h4l186 1173h168l-231 -1462h-152l-643 1251h-4l-198 -1251h-172l231 1462h207z" />
    <glyph glyph-name="O" unicode="O" horiz-adv-x="1529" 
d="M889 1487q265 0 421 -173.5t156 -453.5q0 -177 -54 -337.5t-150 -282t-240 -193.5t-313 -72q-176 0 -308.5 80t-202 221.5t-69.5 325.5q0 177 54.5 337.5t151 282t241 193.5t313.5 72zM879 1337q-106 0 -197 -38.5t-158.5 -107.5t-116 -162t-72.5 -203t-24 -230
q0 -215 106 -343t302 -128q131 0 239.5 59.5t178.5 161.5t108.5 236t38.5 284q0 215 -104.5 343t-300.5 128z" />
    <glyph glyph-name="P" unicode="P" horiz-adv-x="1339" 
d="M743 588h-368l-92 -588h-174l231 1462h541q217 0 333.5 -95.5t116.5 -272.5q0 -240 -159.5 -373t-428.5 -133zM397 735h365q187 0 289 86.5t102 255.5q0 121 -74 179.5t-225 58.5h-362z" />
    <glyph glyph-name="Q" unicode="Q" horiz-adv-x="1529" 
d="M1243 -16l-110 -88l-115 149q-143 -70 -309 -70q-176 0 -308.5 80t-202 221.5t-69.5 325.5q0 177 54.5 337.5t151 282t241 193.5t313.5 72q265 0 421 -173.5t156 -453.5q0 -227 -86.5 -423.5t-240.5 -315.5zM311 596q0 -215 106 -343t302 -128q112 0 205 41l-150 192
l115 91l155 -205q116 100 178 264t62 358q0 215 -104.5 343t-300.5 128q-106 0 -197 -38.5t-158.5 -107.5t-116 -162t-72.5 -203t-24 -230z" />
    <glyph glyph-name="R" unicode="R" horiz-adv-x="1406" 
d="M283 0h-174l231 1462h563q218 0 333.5 -100t115.5 -287q0 -96 -36.5 -178.5t-96.5 -139t-130.5 -92.5t-144.5 -49l301 -616h-184l-287 592h-397zM399 739h383q183 0 289.5 86t106.5 242q0 122 -77.5 185t-230.5 63h-378z" />
    <glyph glyph-name="S" unicode="S" horiz-adv-x="1325" 
d="M59 432h170q4 -67 28 -120.5t61.5 -89.5t89 -60t108.5 -34.5t121 -10.5q168 0 280.5 87t112.5 216q0 81 -53 131t-176 80l-269 65q-321 77 -321 324q0 201 156.5 334t396.5 133q234 0 369.5 -108t140.5 -292h-166q-4 119 -101 189t-253 70q-173 0 -272 -91t-99 -217
q0 -79 53.5 -123t171.5 -73l279 -68q154 -37 235.5 -113.5t81.5 -205.5q0 -204 -164.5 -342t-414.5 -138q-158 0 -283.5 50.5t-203 155.5t-79.5 251z" />
    <glyph glyph-name="T" unicode="T" horiz-adv-x="1429" 
d="M545 0l209 1315h-545l22 147h1266l-22 -147h-547l-209 -1315h-174z" />
    <glyph glyph-name="U" unicode="U" horiz-adv-x="1519" 
d="M1364 598q-44 -299 -220.5 -461t-457.5 -162q-246 0 -381 126t-135 358q0 67 12 141l135 862h175l-138 -876q-10 -72 -10 -117q0 -170 92.5 -257t261.5 -87q196 0 324 117t164 344l137 876h172z" />
    <glyph glyph-name="V" unicode="V" horiz-adv-x="1454" 
d="M518 0l-334 1462h178l281 -1280h4l735 1280h189l-856 -1462h-197z" />
    <glyph glyph-name="W" unicode="W" horiz-adv-x="1988" 
d="M1204 0l-96 1249h-4l-565 -1249h-195l-143 1462h176l106 -1251h4l566 1251h190l96 -1251h4l570 1251h174l-684 -1462h-199z" />
    <glyph glyph-name="X" unicode="X" horiz-adv-x="1439" 
d="M1126 0l-387 647l-583 -647h-203l702 770l-417 692h196l338 -569l506 569h203l-627 -686l469 -776h-197z" />
    <glyph glyph-name="Y" unicode="Y" horiz-adv-x="1357" 
d="M684 0h-174l96 606l-422 856h187l344 -698h6l555 698h197l-693 -856z" />
    <glyph glyph-name="Z" unicode="Z" horiz-adv-x="1363" 
d="M1374 1323l-1095 -1176h915l-25 -147h-1142l20 125l1104 1190h-883l23 147h1104z" />
    <glyph glyph-name="bracketleft" unicode="[" horiz-adv-x="808" 
d="M514 1376l-231 -1466h288l-18 -131h-453l275 1728h448l-20 -131h-289z" />
    <glyph glyph-name="backslash" unicode="\" horiz-adv-x="1032" 
d="M260 1507h154l397 -1728h-156z" />
    <glyph glyph-name="bracketright" unicode="]" horiz-adv-x="808" 
d="M336 -90l231 1466h-288l18 131h453l-275 -1728h-448l20 131h289z" />
    <glyph glyph-name="asciicircum" unicode="^" horiz-adv-x="903" 
d="M532 1487h142l241 -508h-153l-174 362l-289 -362h-168z" />
    <glyph glyph-name="underscore" unicode="_" horiz-adv-x="892" 
d="M-53 -242l22 138h758l-20 -138h-760z" />
    <glyph glyph-name="grave" unicode="`" horiz-adv-x="1157" 
d="M850 1188h-107l-178 319h205z" />
    <glyph glyph-name="a" unicode="a" horiz-adv-x="1128" 
d="M731 0q-6 80 10 176q-49 -90 -151.5 -144.5t-220.5 -54.5q-131 0 -218.5 72t-87.5 191q0 146 104 234t294 110l348 41q16 88 16 120q0 173 -207 173q-105 0 -178 -50.5t-98 -140.5h-166q39 155 164.5 241.5t292.5 86.5q169 0 263.5 -76t94.5 -215q0 -37 -12 -119
l-68 -428q-16 -101 -16 -217h-164zM776 406l15 94l-293 -33q-131 -15 -196.5 -60.5t-65.5 -148.5q0 -68 46.5 -110t133.5 -42q132 0 235 79t125 221z" />
    <glyph glyph-name="b" unicode="b" horiz-adv-x="1259" 
d="M297 201l-31 -201h-164l240 1507h172l-106 -659q54 89 144.5 148t213.5 59q177 0 285 -117t108 -320q0 -127 -38.5 -244t-106.5 -205t-167.5 -141t-213.5 -53q-121 0 -214 66.5t-122 159.5zM725 922q-149 0 -248 -106.5t-131 -285.5q-10 -79 -10 -124q0 -136 74.5 -216.5
t201.5 -80.5q114 0 201.5 70t131.5 184t44 251q0 143 -68 225.5t-196 82.5z" />
    <glyph glyph-name="c" unicode="c" horiz-adv-x="1095" 
d="M100 416q0 181 75.5 328t204.5 229t284 82q167 0 266.5 -95t99.5 -255h-158q-6 103 -64 158t-155 55q-112 0 -200.5 -68t-136.5 -181.5t-48 -250.5q0 -139 69 -222t181 -83q217 0 293 213h162q-51 -167 -171.5 -259t-289.5 -92q-181 0 -296.5 121t-115.5 320z" />
    <glyph glyph-name="d" unicode="d" horiz-adv-x="1259" 
d="M954 836l109 671h170l-238 -1505h-164l31 191q-58 -91 -152 -154.5t-216 -63.5q-176 0 -285 117.5t-109 319.5q0 171 65 317.5t187 237t275 90.5q122 0 210.5 -64t116.5 -157zM537 109q148 0 246.5 107t129.5 288q11 81 11 123q0 136 -74.5 216.5t-204.5 80.5
q-113 0 -199.5 -70.5t-131 -185.5t-44.5 -252q0 -141 69.5 -224t197.5 -83z" />
    <glyph glyph-name="e" unicode="e" horiz-adv-x="1140" 
d="M999 303q-57 -159 -183.5 -243.5t-283.5 -84.5q-199 0 -315.5 118t-116.5 323q0 180 74.5 327t203 229.5t284.5 82.5q188 0 286.5 -112.5t98.5 -301.5q0 -78 -19 -168h-764q-2 -16 -2 -53q0 -147 75.5 -228t211.5 -81q194 0 291 192h159zM649 918q-127 0 -225.5 -87
t-138.5 -233h598q4 23 4 55q0 124 -60 194.5t-178 70.5z" />
    <glyph glyph-name="f" unicode="f" horiz-adv-x="638" 
d="M268 899h-147l20 131h148l33 201q22 139 112 210.5t219 71.5q65 0 123 -14l-20 -135q-48 10 -103 10q-141 0 -164 -147l-32 -197h223l-21 -131h-223l-141 -899h-168z" />
    <glyph glyph-name="g" unicode="g" horiz-adv-x="1261" 
d="M834 63l26 162q-57 -88 -149.5 -147.5t-216.5 -59.5q-176 0 -285 114.5t-109 309.5q0 160 65 299.5t186.5 226.5t273.5 87q123 0 215.5 -67t122.5 -159l30 201h164l-151 -958q-37 -236 -179 -348.5t-360 -112.5q-184 0 -299.5 78t-124.5 223h170q18 -170 260 -170
q158 0 246.5 77.5t114.5 243.5zM913 524q13 93 13 117q0 129 -77 205t-204 76q-113 0 -199.5 -65.5t-131 -173t-44.5 -237.5q0 -136 69.5 -214t197.5 -78q149 0 247.5 99.5t128.5 270.5z" />
    <glyph glyph-name="h" unicode="h" horiz-adv-x="1226" 
d="M514 1507l-106 -661q52 98 144 153.5t210 55.5q152 0 236.5 -82t84.5 -228q0 -37 -6 -81l-104 -664h-172l98 629q8 54 8 80q0 206 -209 206q-127 0 -216 -84.5t-117 -261.5l-91 -569h-172l240 1507h172z" />
    <glyph glyph-name="i" unicode="i" horiz-adv-x="540" 
d="M287 1245l32 207h193l-33 -207h-192zM264 1030h172l-162 -1030h-172z" />
    <glyph glyph-name="j" unicode="j" horiz-adv-x="540" 
d="M287 1245l32 207h193l-33 -207h-192zM-43 -377q-52 0 -107 19l23 131q43 -13 68 -13q68 0 101 31.5t46 112.5l176 1126h172l-176 -1120q-22 -144 -96 -215.5t-207 -71.5z" />
    <glyph glyph-name="k" unicode="k" horiz-adv-x="1146" 
d="M825 0l-325 498l-168 -140l-58 -358h-172l240 1507h172l-154 -962l578 485h211l-522 -432l389 -598h-191z" />
    <glyph glyph-name="l" unicode="l" horiz-adv-x="540" 
d="M274 0h-172l240 1507h172z" />
    <glyph glyph-name="m" unicode="m" horiz-adv-x="1861" 
d="M754 1055q247 0 284 -219q66 105 163.5 162t211.5 57q151 0 229 -80t78 -221q0 -46 -8 -90l-104 -664h-172l98 629q8 44 8 92q0 194 -188 194q-121 0 -207.5 -87t-114.5 -259l-90 -569h-172l100 629q7 58 7 90q0 100 -47 148t-144 48q-121 0 -207 -87t-114 -259l-91 -569
h-172l162 1030h166l-31 -188q54 99 149 156t206 57z" />
    <glyph glyph-name="n" unicode="n" horiz-adv-x="1226" 
d="M430 1030l-31 -188q52 98 148 155.5t215 57.5q152 0 236.5 -82t84.5 -228q0 -37 -6 -81l-104 -664h-172l98 629q8 54 8 80q0 206 -209 206q-127 0 -216 -84.5t-117 -261.5l-91 -569h-172l162 1030h166z" />
    <glyph glyph-name="o" unicode="o" horiz-adv-x="1191" 
d="M530 -25q-194 0 -312 120t-118 325q0 175 70.5 320t199 230t289.5 85q194 0 312.5 -120t118.5 -325q0 -175 -71 -320t-199.5 -230t-289.5 -85zM543 113q115 0 202.5 69t132 181.5t44.5 248.5q0 143 -73 224.5t-202 81.5q-87 0 -159 -40.5t-119 -109t-73 -159t-26 -191.5
q0 -143 72 -224t201 -81z" />
    <glyph glyph-name="p" unicode="p" horiz-adv-x="1259" 
d="M305 197l-88 -562h-172l221 1395h164l-31 -188q57 90 151 151.5t216 61.5q177 0 285 -117.5t108 -319.5q0 -127 -38.5 -244t-106.5 -205t-167.5 -141t-213.5 -53q-121 0 -210 64.5t-118 157.5zM725 922q-149 0 -248 -106.5t-129 -285.5q-12 -95 -12 -124
q0 -136 75 -216.5t203 -80.5q113 0 199.5 70t131 184t44.5 251q0 143 -68 225.5t-196 82.5z" />
    <glyph glyph-name="q" unicode="q" horiz-adv-x="1259" 
d="M963 829l30 201h164l-219 -1395h-172l86 547q-54 -89 -144.5 -148t-213.5 -59q-176 0 -286 117t-110 318q0 170 65.5 317t188 237.5t275.5 90.5q121 0 214 -66.5t122 -159.5zM535 109q149 0 247.5 106t130.5 285q11 84 11 123q0 137 -75 218t-204 81q-113 0 -199.5 -70.5
t-131 -185.5t-44.5 -252q0 -141 69 -223t196 -82z" />
    <glyph glyph-name="r" unicode="r" horiz-adv-x="794" 
d="M840 1044l-25 -155q-36 8 -88 8q-130 0 -237 -102t-136 -287l-80 -508h-172l162 1030h166l-39 -244q53 125 153 196t216 71q46 0 80 -9z" />
    <glyph glyph-name="s" unicode="s" horiz-adv-x="1017" 
d="M35 305h164q0 -101 78.5 -151t191.5 -50t183.5 54t70.5 133q0 50 -35 82t-119 55l-182 47q-237 63 -237 248q0 143 114 237.5t293 94.5q108 0 192.5 -30.5t139 -99t57.5 -167.5h-158q-7 83 -71.5 124.5t-171.5 41.5q-108 0 -171 -50.5t-63 -130.5q0 -52 36.5 -79.5
t121.5 -51.5l197 -53q108 -29 164.5 -90.5t56.5 -149.5q0 -152 -120.5 -248t-307.5 -96q-87 0 -161 19t-133.5 57t-94 103t-35.5 151z" />
    <glyph glyph-name="t" unicode="t" horiz-adv-x="755" 
d="M610 154l-20 -138q-92 -32 -180 -32q-119 0 -185.5 54.5t-66.5 162.5q0 29 6 63l100 637h-147l18 129h154l45 262h164l-43 -262h270l-18 -129h-275l-100 -625q-4 -32 -4 -43q0 -58 32.5 -83t96.5 -25q54 0 153 29z" />
    <glyph glyph-name="u" unicode="u" horiz-adv-x="1212" 
d="M782 0l31 186q-52 -99 -144 -155t-210 -56q-151 0 -234.5 82t-83.5 228q0 37 6 84l105 661h172l-98 -629q-9 -70 -9 -82q0 -204 203 -204q126 0 213 84t115 262l90 569h172l-164 -1030h-164z" />
    <glyph glyph-name="v" unicode="v" horiz-adv-x="1116" 
d="M344 0l-203 1030h168l154 -862h6l494 862h174l-611 -1030h-182z" />
    <glyph glyph-name="w" unicode="w" horiz-adv-x="1572" 
d="M940 1030l66 -844h4l417 844h166l-530 -1030h-174l-72 834h-4l-401 -834h-179l-92 1030h166l64 -844h4l397 844h168z" />
    <glyph glyph-name="x" unicode="x" horiz-adv-x="1142" 
d="M184 0h-188l491 532l-284 498h184l213 -381l346 381h189l-459 -495l307 -535h-184l-234 416z" />
    <glyph glyph-name="y" unicode="y" horiz-adv-x="1116" 
d="M350 -4l-209 1034h170l160 -852h4l486 852h176l-625 -1061q-112 -191 -208 -270.5t-236 -79.5q-55 0 -101 19l23 135q49 -15 82 -15q78 0 139 53t139 185z" />
    <glyph glyph-name="z" unicode="z" horiz-adv-x="1064" 
d="M1012 905l-750 -774h633l-18 -131h-848l16 111l754 788h-588l18 131h803z" />
    <glyph glyph-name="braceleft" unicode="{" horiz-adv-x="878" 
d="M106 575l21 136h106q51 0 82.5 28t38.5 82l76 471q18 112 85 163.5t183 51.5h197l-21 -131h-165q-57 0 -87 -18t-38 -74l-74 -473q-22 -141 -168 -168q117 -23 117 -129q0 -40 -40 -275.5t-40 -261.5q0 -40 24 -53.5t74 -13.5h164l-20 -131h-197q-102 0 -152.5 38.5
t-50.5 121.5q0 46 40 288t40 269q0 79 -90 79h-105z" />
    <glyph glyph-name="bar" unicode="|" horiz-adv-x="626" 
d="M393 1507h156l-275 -1728h-155z" />
    <glyph glyph-name="braceright" unicode="}" horiz-adv-x="878" 
d="M813 711l-20 -136h-107q-51 0 -82.5 -28t-38.5 -82l-76 -471q-18 -112 -85 -163.5t-183 -51.5h-196l20 131h166q57 0 87 18t38 74l74 473q22 141 168 168q-117 23 -117 129q0 40 40 275.5t40 261.5q0 40 -24.5 53.5t-74.5 13.5h-163l20 131h197q102 0 152 -38t50 -121
q0 -46 -40 -288t-40 -269q0 -38 23.5 -59t67.5 -21h104z" />
    <glyph glyph-name="asciitilde" unicode="~" horiz-adv-x="1048" 
d="M406 635q-82 0 -115 -150h-119q22 132 84.5 211.5t153.5 79.5q43 0 83.5 -23.5t66 -51t56.5 -51t58 -23.5q84 0 117 149h120q-22 -133 -84 -212t-155 -79q-36 0 -68.5 15.5t-57 37.5t-47 44t-46.5 37.5t-47 15.5z" />
    <glyph glyph-name="uni00A0" unicode="&#xa0;" horiz-adv-x="444" 
 />
    <glyph glyph-name="exclamdown" unicode="&#xa1;" horiz-adv-x="628" 
d="M575 1462l-36 -221h-224l35 221h225zM332 0h-201l193 1018h135z" />
    <glyph glyph-name="cent" unicode="&#xa2;" horiz-adv-x="1110" 
d="M979 334q-47 -159 -160 -251t-270 -101l-35 -199h-119l37 207q-148 26 -235.5 143t-87.5 291q0 128 39 242.5t107 199t163.5 138t204.5 63.5l43 244h118l-43 -246q136 -20 215 -112t80 -236h-145q-4 88 -50.5 145t-123.5 72l-144 -819q185 24 254 219h152zM270 430
q0 -123 49 -203.5t136 -105.5l143 811q-152 -27 -240 -168.5t-88 -333.5z" />
    <glyph glyph-name="sterling" unicode="&#xa3;" horiz-adv-x="1292" 
d="M1130 147l-22 -147h-1067l25 147h24q76 0 141 54.5t103.5 147.5t38.5 202q0 9 -1 27t-1 26h-201l23 135h147q-2 6 -11.5 39.5t-12.5 44.5t-10 40.5t-9.5 47.5t-5 44t-2.5 51q0 92 35 177.5t99 153.5t163.5 109t218.5 41q212 0 326 -117t114 -299q0 -37 -2 -57h-166
q2 20 2 39q0 127 -69.5 207.5t-208.5 80.5q-157 0 -248.5 -89.5t-91.5 -237.5q0 -33 6 -72t12 -63t20 -73t19 -67h420l-20 -135h-377v-31q0 -131 -52 -240.5t-153 -185.5h794z" />
    <glyph glyph-name="yen" unicode="&#xa5;" horiz-adv-x="1374" 
d="M1174 338h-429l-53 -338h-172l53 338h-432l21 125h432l29 186h-430l20 125h360l-360 688h186l334 -649h4l523 649h200l-575 -688h362l-20 -125h-432l-29 -186h428z" />
    <glyph glyph-name="section" unicode="&#xa7;" horiz-adv-x="1183" 
d="M874 86q0 -156 -114 -263.5t-305 -107.5q-169 0 -272 82.5t-103 231.5h156q0 -82 62.5 -133.5t166.5 -51.5q118 0 183 61t65 152q0 50 -27.5 89.5t-87.5 76.5l-219 144q-114 74 -163.5 136.5t-49.5 145.5q0 197 203 316q-52 69 -52 151q0 156 113 263.5t303 107.5
q170 0 271.5 -78.5t101.5 -218.5h-154q0 79 -62 123.5t-167 44.5q-118 0 -182 -59.5t-64 -153.5q0 -50 29 -89t90 -77l217 -143q115 -74 165 -135.5t50 -143.5q0 -199 -205 -319q51 -63 51 -152zM676 356q21 -14 53 -34q63 27 105.5 80.5t42.5 125.5q0 48 -34 88.5
t-116 96.5l-209 133q-33 22 -53 37q-63 -27 -105.5 -81t-42.5 -124q0 -50 32.5 -90.5t115.5 -95.5z" />
    <glyph glyph-name="dieresis" unicode="&#xa8;" horiz-adv-x="1157" 
d="M793 1245l32 207h174l-32 -207h-174zM420 1245l33 207h172l-33 -207h-172z" />
    <glyph glyph-name="copyright" unicode="&#xa9;" horiz-adv-x="1800" 
d="M1690 729q0 -153 -60 -292.5t-161 -240.5t-241 -161t-294 -60t-294.5 60t-242 161t-161.5 240.5t-60 292.5q0 155 60 295.5t161.5 242.5t242 162t294.5 60t294 -60t241 -162t161 -242.5t60 -295.5zM266 729q0 -181 89.5 -334t243.5 -242.5t335 -89.5t335 89.5
t243.5 242.5t89.5 334q0 182 -89.5 337t-243.5 245t-335 90t-335 -90t-243.5 -245t-89.5 -337zM678 733q0 -148 69 -235t197 -88q98 1 152 47.5t67 117.5h144q-26 -135 -116.5 -213.5t-244.5 -78.5q-183 0 -299.5 125t-116.5 325t117 325.5t299 125.5q154 0 244.5 -78.5
t116.5 -214.5h-144q-14 71 -67.5 118.5t-151.5 47.5q-128 0 -197 -88t-69 -236z" />
    <glyph glyph-name="ordfeminine" unicode="&#xaa;" horiz-adv-x="815" 
d="M606 786q-2 43 6 111q-32 -59 -98.5 -93t-144.5 -34q-89 0 -146 48t-57 128q0 99 70.5 157.5t197.5 70.5l223 24q2 21 4.5 38t3.5 23.5t1 10.5q0 106 -125 106q-131 0 -162 -116h-137q28 108 109 167.5t200 59.5t185.5 -53.5t66.5 -151.5q0 -15 -4 -51l-45 -289
q-15 -85 -15 -156h-133zM633 1051l10 59l-176 -20q-81 -12 -120.5 -40t-39.5 -92q0 -40 28.5 -65t80.5 -25q79 0 141.5 49t75.5 134zM104 514l19 109h588l-19 -109h-588z" />
    <glyph glyph-name="guillemotleft" unicode="&#xab;" horiz-adv-x="1046" 
d="M854 92h-123l-211 402l330 401h133l-287 -401zM457 92h-123l-211 402l330 401h131l-285 -401z" />
    <glyph glyph-name="registered" unicode="&#xae;" horiz-adv-x="1179" 
d="M668 1487q199 0 336 -135t137 -338q0 -135 -63.5 -244.5t-171.5 -170t-238 -60.5q-129 0 -236.5 60.5t-171 170t-63.5 244.5q0 203 137 338t334 135zM668 600q171 0 288 117.5t117 296.5q0 178 -117 294.5t-288 116.5q-170 0 -288 -116.5t-118 -294.5q0 -179 118 -296.5
t288 -117.5zM580 770h-101v502h217q88 0 136.5 -41t48.5 -117q0 -108 -101 -145l119 -199h-108l-109 182h-102v-182zM580 1034h104q51 0 74.5 19.5t23.5 60.5q0 78 -98 78h-104v-158z" />
    <glyph glyph-name="macron" unicode="&#xaf;" horiz-adv-x="1157" 
d="M399 1245l21 127h586l-21 -127h-586z" />
    <glyph glyph-name="degree" unicode="&#xb0;" horiz-adv-x="743" 
d="M193 1180q0 125 93.5 216t223.5 91q116 0 188 -71.5t72 -186.5q0 -125 -93.5 -215t-223.5 -90q-116 0 -188 71t-72 185zM303 1184q0 -68 44 -110t116 -42q79 0 137.5 54t58.5 141q0 67 -44 109t-115 42q-79 0 -138 -53.5t-59 -140.5z" />
    <glyph glyph-name="twosuperior" unicode="&#xb2;" horiz-adv-x="722" 
d="M766 1270q0 -48 -17 -89.5t-40 -71t-67.5 -62t-76.5 -51.5t-90 -50q-94 -51 -146.5 -92t-60.5 -82h430l-18 -110h-580l9 53q9 56 38.5 105t78 89.5t89.5 68t101 60.5q119 64 170 111.5t51 114.5q0 46 -30.5 75t-92.5 29q-69 0 -118.5 -45t-63.5 -111h-131
q25 114 110.5 190.5t212.5 76.5q113 0 177.5 -59t64.5 -150z" />
    <glyph glyph-name="threesuperior" unicode="&#xb3;" horiz-adv-x="763" 
d="M735 899q0 -98 -83 -175t-230 -77q-131 0 -209 67.5t-78 182.5h131q0 -68 43.5 -105.5t120.5 -37.5q81 0 129.5 43t48.5 106q0 52 -37.5 80.5t-103.5 28.5h-82l18 104h80q71 0 116.5 39.5t45.5 108.5q0 48 -33 78t-94 30q-73 0 -119.5 -38t-58.5 -103h-129
q26 110 108.5 180t208.5 70q118 0 183 -59.5t65 -147.5q0 -81 -52.5 -140t-125.5 -71q62 -12 99.5 -56.5t37.5 -107.5z" />
    <glyph glyph-name="acute" unicode="&#xb4;" horiz-adv-x="1157" 
d="M516 1188l164 319h219l-270 -319h-113z" />
    <glyph glyph-name="paragraph" unicode="&#xb6;" horiz-adv-x="1277" 
d="M449 -260l147 936q-209 0 -320.5 88t-111.5 246q0 207 150.5 329.5t406.5 122.5h510l-273 -1722h-145l252 1583h-219l-252 -1583h-145z" />
    <glyph glyph-name="periodcentered" unicode="&#xb7;" horiz-adv-x="577" 
d="M170 467l35 223h223l-35 -223h-223z" />
    <glyph glyph-name="cedilla" unicode="&#xb8;" horiz-adv-x="1284" 
d="M705 -211q0 -82 -77 -134t-175 -52q-111 0 -181 39l17 100q76 -43 168 -43q58 0 94.5 21.5t36.5 58.5q0 29 -26.5 43t-65.5 14q-36 0 -80 -14l-35 43l147 188h90l-110 -137q20 4 39 4q62 0 110 -33t48 -98z" />
    <glyph glyph-name="onesuperior" unicode="&#xb9;" horiz-adv-x="684" 
d="M670 764l-17 -102h-547l17 102h207l78 485h-205l14 97q95 0 148 13.5t76.5 37t41.5 69.5h90l-110 -702h207z" />
    <glyph glyph-name="ordmasculine" unicode="&#xba;" horiz-adv-x="858" 
d="M479 768q-133 0 -214 80t-81 217q0 179 107 300.5t272 121.5q135 0 216 -80.5t81 -218.5q0 -179 -107 -299.5t-274 -120.5zM555 1376q-70 0 -123 -44.5t-79.5 -115.5t-26.5 -155q0 -87 43 -135.5t120 -48.5q105 0 167.5 92.5t60.5 224.5q1 86 -42 134t-120 48zM131 514
l16 109h588l-16 -109h-588z" />
    <glyph glyph-name="guillemotright" unicode="&#xbb;" horiz-adv-x="1046" 
d="M186 897h123l211 -401l-330 -402h-133l287 402zM584 897h123l211 -401l-330 -402h-131l284 402z" />
    <glyph glyph-name="onequarter" unicode="&#xbc;" horiz-adv-x="1814" 
d="M387 -25h-143l1296 1514h143zM721 764l-16 -102h-547l16 102h207l78 485h-205l14 97q95 0 148.5 13.5t77 37t41.5 69.5h90l-111 -702h207zM1624 801l-82 -508h166l-14 -100h-168l-29 -193h-129l29 193h-398l17 102l459 506h149zM1475 670l-336 -377h274z" />
    <glyph glyph-name="onehalf" unicode="&#xbd;" horiz-adv-x="1828" 
d="M403 -25h-143l1296 1514h144zM721 764l-16 -102h-547l16 102h207l78 485h-205l14 97q95 0 148.5 13.5t77 37t41.5 69.5h90l-111 -702h207zM1769 608q0 -48 -17 -89.5t-39.5 -70.5t-67 -61.5t-76.5 -51.5t-90 -50q-94 -51 -146.5 -92t-60.5 -82h430l-19 -111h-579l8 53
q9 56 38.5 105t78 90t90 68.5t100.5 60.5q119 64 170 111t51 114q0 46 -30 75.5t-92 29.5q-69 0 -119 -45t-64 -111h-131q25 114 110.5 190t213.5 76q113 0 177 -59t64 -150z" />
    <glyph glyph-name="threequarters" unicode="&#xbe;" horiz-adv-x="1869" 
d="M440 -25h-143l1296 1514h144zM786 899q0 -98 -83 -175t-230 -77q-131 0 -209 67.5t-78 182.5h131q0 -68 43.5 -105.5t120.5 -37.5q81 0 129.5 43t48.5 106q0 52 -37.5 80.5t-103.5 28.5h-82l19 104h80q71 0 116 39.5t45 108.5q0 48 -33 78t-94 30q-73 0 -119.5 -38
t-58.5 -103h-129q26 110 109 180t209 70q118 0 182.5 -59.5t64.5 -147.5q0 -81 -52.5 -140t-125.5 -71q62 -12 99.5 -56.5t37.5 -107.5zM1681 801l-82 -508h166l-14 -100h-168l-29 -193h-129l29 193h-397l16 102l459 506h149zM1532 670l-336 -377h274z" />
    <glyph glyph-name="questiondown" unicode="&#xbf;" horiz-adv-x="1155" 
d="M881 1462l-35 -217h-223l34 217h224zM78 344q0 51 12 99.5t30 86.5t49 77.5t57.5 66.5t69 61t70 53.5t72.5 49.5q78 49 122 97t61 130h170q-21 -105 -89 -185.5t-192 -164.5q-49 -34 -75.5 -53.5t-69 -58t-64.5 -71.5t-39.5 -80t-17.5 -98q0 -100 64.5 -166.5
t197.5 -66.5q148 0 246 93.5t131 234.5h166q-39 -203 -189 -338.5t-371 -135.5q-102 0 -182 30t-129 81.5t-74.5 117t-25.5 140.5z" />
    <glyph glyph-name="Agrave" unicode="&#xc0;" horiz-adv-x="1454" 
d="M958 1573h-106l-188 301h215zM1157 0l-92 408h-698l-232 -408h-182l840 1462h198l346 -1462h-180zM864 1284l-415 -731h583l-164 731h-4z" />
    <glyph glyph-name="Aacute" unicode="&#xc1;" horiz-adv-x="1454" 
d="M846 1573l164 301h225l-277 -301h-112zM1157 0l-92 408h-698l-232 -408h-182l840 1462h198l346 -1462h-180zM864 1284l-415 -731h583l-164 731h-4z" />
    <glyph glyph-name="Acircumflex" unicode="&#xc2;" horiz-adv-x="1454" 
d="M846 1874h188l154 -307h-103l-155 190l-228 -190h-110zM1157 0l-92 408h-698l-232 -408h-182l840 1462h198l346 -1462h-180zM864 1284l-415 -731h583l-164 731h-4z" />
    <glyph glyph-name="Atilde" unicode="&#xc3;" horiz-adv-x="1454" 
d="M793 1726q-43 0 -71.5 -40.5t-41.5 -106.5h-111q21 129 82 206t152 77q35 0 67 -15t56 -37t46.5 -44t46.5 -37t46 -15q81 0 113 148h110q-21 -128 -82 -205.5t-151 -77.5q-41 0 -81 23t-65.5 50.5t-57 50.5t-58.5 23zM1157 0l-92 408h-698l-232 -408h-182l840 1462h198
l346 -1462h-180zM864 1284l-415 -731h583l-164 731h-4z" />
    <glyph glyph-name="Adieresis" unicode="&#xc4;" horiz-adv-x="1454" 
d="M1014 1608l33 207h174l-33 -207h-174zM641 1608l33 207h172l-33 -207h-172zM1157 0l-92 408h-698l-232 -408h-182l840 1462h198l346 -1462h-180zM864 1284l-415 -731h583l-164 731h-4z" />
    <glyph glyph-name="Aring" unicode="&#xc5;" horiz-adv-x="1454" 
d="M367 408l-232 -408h-182l801 1395q-46 32 -72.5 80.5t-26.5 105.5q0 111 81 196t202 85q96 0 161.5 -65t65.5 -159q0 -77 -42.5 -145.5t-112.5 -103.5l327 -1389h-180l-92 408h-698zM924 1751q-67 0 -111.5 -47.5t-44.5 -110.5q0 -55 36 -90t91 -35q68 0 112 47t44 111
q0 54 -36 89.5t-91 35.5zM864 1284l-415 -731h583l-164 731h-4z" />
    <glyph glyph-name="AE" unicode="&#xc6;" horiz-adv-x="2238" 
d="M1038 0l66 412h-617l-340 -412h-194l1208 1462h1098l-23 -147h-817l-80 -510h725l-24 -150h-725l-80 -508h815l-25 -147h-987zM1251 1337l-643 -780h518z" />
    <glyph glyph-name="Ccedilla" unicode="&#xc7;" horiz-adv-x="1406" 
d="M797 -211q0 -82 -77 -134t-175 -52q-110 0 -180 39l16 100q76 -43 168 -43q58 0 94.5 21.5t36.5 58.5q0 29 -26.5 43t-65.5 14q-36 0 -80 -14l-35 43l96 125q-206 43 -323 206.5t-117 405.5q0 142 35 274.5t102 242.5t159 193t212.5 129t255.5 46q234 0 364.5 -123.5
t141.5 -327.5h-176q-6 132 -91.5 216.5t-248.5 84.5q-131 0 -240 -59.5t-181 -161.5t-111.5 -236t-39.5 -284q0 -215 105.5 -343t300.5 -128q304 0 409 301h179q-68 -210 -218 -330.5t-380 -120.5q-40 0 -58 2l-49 -61q20 4 39 4q62 0 110 -33t48 -98z" />
    <glyph glyph-name="Egrave" unicode="&#xc8;" horiz-adv-x="1310" 
d="M928 1573h-107l-188 301h215zM109 0l231 1462h989l-22 -147h-815l-82 -510h725l-25 -150h-725l-80 -508h815l-22 -147h-989z" />
    <glyph glyph-name="Eacute" unicode="&#xc9;" horiz-adv-x="1310" 
d="M754 1573l164 301h225l-277 -301h-112zM109 0l231 1462h989l-22 -147h-815l-82 -510h725l-25 -150h-725l-80 -508h815l-22 -147h-989z" />
    <glyph glyph-name="Ecircumflex" unicode="&#xca;" horiz-adv-x="1310" 
d="M813 1874h188l154 -307h-102l-156 190l-227 -190h-111zM109 0l231 1462h989l-22 -147h-815l-82 -510h725l-25 -150h-725l-80 -508h815l-22 -147h-989z" />
    <glyph glyph-name="Edieresis" unicode="&#xcb;" horiz-adv-x="1310" 
d="M975 1608l33 207h174l-33 -207h-174zM602 1608l33 207h172l-33 -207h-172zM109 0l231 1462h989l-22 -147h-815l-82 -510h725l-25 -150h-725l-80 -508h815l-22 -147h-989z" />
    <glyph glyph-name="Igrave" unicode="&#xcc;" horiz-adv-x="557" 
d="M510 1573h-107l-188 301h215zM340 1462h174l-231 -1462h-174z" />
    <glyph glyph-name="Iacute" unicode="&#xcd;" horiz-adv-x="557" 
d="M393 1573l164 301h225l-276 -301h-113zM340 1462h174l-231 -1462h-174z" />
    <glyph glyph-name="Icircumflex" unicode="&#xce;" horiz-adv-x="557" 
d="M397 1874h189l153 -307h-102l-156 190l-227 -190h-111zM340 1462h174l-231 -1462h-174z" />
    <glyph glyph-name="Idieresis" unicode="&#xcf;" horiz-adv-x="557" 
d="M551 1608l33 207h174l-33 -207h-174zM178 1608l33 207h172l-33 -207h-172zM340 1462h174l-231 -1462h-174z" />
    <glyph glyph-name="Eth" unicode="&#xd0;" horiz-adv-x="1550" 
d="M1487 850q0 -188 -63.5 -348t-174.5 -269.5t-263 -171t-327 -61.5h-522l107 670h-166l22 145h166l103 647h508q287 0 448.5 -165.5t161.5 -446.5zM336 147h344q185 0 327.5 88t220 247.5t77.5 365.5q0 221 -114 344t-337 123h-332l-80 -500h310l-25 -145h-307z" />
    <glyph glyph-name="Ntilde" unicode="&#xd1;" horiz-adv-x="1552" 
d="M821 1726q-83 0 -112 -147h-111q21 129 81.5 206t151.5 77q35 0 67 -15t56.5 -37t47 -44t46.5 -37t46 -15q80 0 112 148h111q-21 -128 -82.5 -205.5t-151.5 -77.5q-41 0 -81 23t-65.5 50.5t-57 50.5t-58.5 23zM547 1462l604 -1173h4l186 1173h168l-231 -1462h-152
l-643 1251h-4l-198 -1251h-172l231 1462h207z" />
    <glyph glyph-name="Ograve" unicode="&#xd2;" horiz-adv-x="1529" 
d="M991 1573h-106l-189 301h215zM889 1487q265 0 421 -173.5t156 -453.5q0 -177 -54 -337.5t-150 -282t-240 -193.5t-313 -72q-176 0 -308.5 80t-202 221.5t-69.5 325.5q0 177 54.5 337.5t151 282t241 193.5t313.5 72zM879 1337q-106 0 -197 -38.5t-158.5 -107.5t-116 -162
t-72.5 -203t-24 -230q0 -215 106 -343t302 -128q131 0 239.5 59.5t178.5 161.5t108.5 236t38.5 284q0 215 -104.5 343t-300.5 128z" />
    <glyph glyph-name="Oacute" unicode="&#xd3;" horiz-adv-x="1529" 
d="M848 1573l164 301h225l-276 -301h-113zM889 1487q265 0 421 -173.5t156 -453.5q0 -177 -54 -337.5t-150 -282t-240 -193.5t-313 -72q-176 0 -308.5 80t-202 221.5t-69.5 325.5q0 177 54.5 337.5t151 282t241 193.5t313.5 72zM879 1337q-106 0 -197 -38.5t-158.5 -107.5
t-116 -162t-72.5 -203t-24 -230q0 -215 106 -343t302 -128q131 0 239.5 59.5t178.5 161.5t108.5 236t38.5 284q0 215 -104.5 343t-300.5 128z" />
    <glyph glyph-name="Ocircumflex" unicode="&#xd4;" horiz-adv-x="1529" 
d="M874 1874h189l154 -307h-103l-156 190l-227 -190h-110zM889 1487q265 0 421 -173.5t156 -453.5q0 -177 -54 -337.5t-150 -282t-240 -193.5t-313 -72q-176 0 -308.5 80t-202 221.5t-69.5 325.5q0 177 54.5 337.5t151 282t241 193.5t313.5 72zM879 1337q-106 0 -197 -38.5
t-158.5 -107.5t-116 -162t-72.5 -203t-24 -230q0 -215 106 -343t302 -128q131 0 239.5 59.5t178.5 161.5t108.5 236t38.5 284q0 215 -104.5 343t-300.5 128z" />
    <glyph glyph-name="Otilde" unicode="&#xd5;" horiz-adv-x="1529" 
d="M811 1726q-43 0 -71.5 -40.5t-41.5 -106.5h-110q21 129 81.5 206t151.5 77q35 0 67 -15t56 -37t46.5 -44t46.5 -37t46 -15q81 0 113 148h111q-21 -128 -82.5 -205.5t-151.5 -77.5q-41 0 -81 23t-65.5 50.5t-57 50.5t-58.5 23zM889 1487q265 0 421 -173.5t156 -453.5
q0 -177 -54 -337.5t-150 -282t-240 -193.5t-313 -72q-176 0 -308.5 80t-202 221.5t-69.5 325.5q0 177 54.5 337.5t151 282t241 193.5t313.5 72zM879 1337q-106 0 -197 -38.5t-158.5 -107.5t-116 -162t-72.5 -203t-24 -230q0 -215 106 -343t302 -128q131 0 239.5 59.5
t178.5 161.5t108.5 236t38.5 284q0 215 -104.5 343t-300.5 128z" />
    <glyph glyph-name="Odieresis" unicode="&#xd6;" horiz-adv-x="1529" 
d="M1034 1608l33 207h174l-33 -207h-174zM662 1608l32 207h172l-32 -207h-172zM889 1487q265 0 421 -173.5t156 -453.5q0 -177 -54 -337.5t-150 -282t-240 -193.5t-313 -72q-176 0 -308.5 80t-202 221.5t-69.5 325.5q0 177 54.5 337.5t151 282t241 193.5t313.5 72zM879 1337
q-106 0 -197 -38.5t-158.5 -107.5t-116 -162t-72.5 -203t-24 -230q0 -215 106 -343t302 -128q131 0 239.5 59.5t178.5 161.5t108.5 236t38.5 284q0 215 -104.5 343t-300.5 128z" />
    <glyph glyph-name="multiply" unicode="&#xd7;" 
d="M1006 213l-314 371l-438 -377l-84 100l436 377l-311 371l108 92l312 -371l432 375l84 -102l-432 -373l311 -371z" />
    <glyph glyph-name="Oslash" unicode="&#xd8;" horiz-adv-x="1529" 
d="M709 -25q-244 0 -398 148l-172 -184l-86 77l183 197q-107 159 -107 389q0 177 54.5 337.5t151 282t241 193.5t313.5 72q244 0 397 -150l156 166l82 -73l-166 -179q108 -156 108 -391q0 -177 -54 -337.5t-150 -282t-240 -193.5t-313 -72zM311 596q0 -145 49 -252l814 873
q-107 120 -295 120q-106 0 -197 -38.5t-158.5 -107.5t-116 -162t-72.5 -203t-24 -230zM1284 866q0 148 -49 252l-811 -872q105 -121 295 -121q131 0 239.5 59.5t178.5 161.5t108.5 236t38.5 284z" />
    <glyph glyph-name="Ugrave" unicode="&#xd9;" horiz-adv-x="1519" 
d="M989 1573h-106l-189 301h215zM1364 598q-44 -299 -220.5 -461t-457.5 -162q-246 0 -381 126t-135 358q0 67 12 141l135 862h175l-138 -876q-10 -72 -10 -117q0 -170 92.5 -257t261.5 -87q196 0 324 117t164 344l137 876h172z" />
    <glyph glyph-name="Uacute" unicode="&#xda;" horiz-adv-x="1519" 
d="M827 1573l164 301h226l-277 -301h-113zM1364 598q-44 -299 -220.5 -461t-457.5 -162q-246 0 -381 126t-135 358q0 67 12 141l135 862h175l-138 -876q-10 -72 -10 -117q0 -170 92.5 -257t261.5 -87q196 0 324 117t164 344l137 876h172z" />
    <glyph glyph-name="Ucircumflex" unicode="&#xdb;" horiz-adv-x="1519" 
d="M885 1874h188l154 -307h-103l-155 190l-228 -190h-110zM1364 598q-44 -299 -220.5 -461t-457.5 -162q-246 0 -381 126t-135 358q0 67 12 141l135 862h175l-138 -876q-10 -72 -10 -117q0 -170 92.5 -257t261.5 -87q196 0 324 117t164 344l137 876h172z" />
    <glyph glyph-name="Udieresis" unicode="&#xdc;" horiz-adv-x="1519" 
d="M1022 1608l33 207h174l-33 -207h-174zM649 1608l33 207h172l-33 -207h-172zM1364 598q-44 -299 -220.5 -461t-457.5 -162q-246 0 -381 126t-135 358q0 67 12 141l135 862h175l-138 -876q-10 -72 -10 -117q0 -170 92.5 -257t261.5 -87q196 0 324 117t164 344l137 876h172z
" />
    <glyph glyph-name="Yacute" unicode="&#xdd;" horiz-adv-x="1357" 
d="M766 1573l164 301h225l-276 -301h-113zM684 0h-174l96 606l-422 856h187l344 -698h6l555 698h197l-693 -856z" />
    <glyph glyph-name="Thorn" unicode="&#xde;" horiz-adv-x="1339" 
d="M700 313h-368l-49 -313h-174l231 1462h172l-43 -274h367q217 0 333.5 -96t116.5 -275q0 -239 -159.5 -371.5t-426.5 -132.5zM354 461h363q187 0 289 86t102 254q0 122 -73.5 179.5t-225.5 57.5h-363z" />
    <glyph glyph-name="germandbls" unicode="&#xdf;" horiz-adv-x="1259" 
d="M889 870q117 -28 191.5 -125t74.5 -231q0 -106 -32 -194.5t-86.5 -149.5t-127 -103t-152 -61.5t-163.5 -19.5q-66 0 -131 20l22 139q47 -16 105 -16q81 0 152 22.5t129 67t92 119.5t34 172q0 129 -79.5 208t-223.5 79h-76l25 143h72q131 0 210 71t79 185q0 87 -61 143
t-161 56q-145 0 -230.5 -100t-111.5 -273l-164 -1022h-170l162 1020q38 234 176 373t353 139q166 0 264 -90.5t98 -233.5q0 -66 -26 -126t-67 -101.5t-86.5 -70t-90.5 -40.5z" />
    <glyph glyph-name="agrave" unicode="&#xe0;" horiz-adv-x="1128" 
d="M748 1188h-107l-178 319h205zM731 0q-6 80 10 176q-49 -90 -151.5 -144.5t-220.5 -54.5q-131 0 -218.5 72t-87.5 191q0 146 104 234t294 110l348 41q16 88 16 120q0 173 -207 173q-105 0 -178 -50.5t-98 -140.5h-166q39 155 164.5 241.5t292.5 86.5q169 0 263.5 -76
t94.5 -215q0 -37 -12 -119l-68 -428q-16 -101 -16 -217h-164zM776 406l15 94l-293 -33q-131 -15 -196.5 -60.5t-65.5 -148.5q0 -68 46.5 -110t133.5 -42q132 0 235 79t125 221z" />
    <glyph glyph-name="aacute" unicode="&#xe1;" horiz-adv-x="1128" 
d="M610 1188l164 319h219l-270 -319h-113zM731 0q-6 80 10 176q-49 -90 -151.5 -144.5t-220.5 -54.5q-131 0 -218.5 72t-87.5 191q0 146 104 234t294 110l348 41q16 88 16 120q0 173 -207 173q-105 0 -178 -50.5t-98 -140.5h-166q39 155 164.5 241.5t292.5 86.5
q169 0 263.5 -76t94.5 -215q0 -37 -12 -119l-68 -428q-16 -101 -16 -217h-164zM776 406l15 94l-293 -33q-131 -15 -196.5 -60.5t-65.5 -148.5q0 -68 46.5 -110t133.5 -42q132 0 235 79t125 221z" />
    <glyph glyph-name="acircumflex" unicode="&#xe2;" horiz-adv-x="1128" 
d="M653 1507h181l122 -323h-102l-123 213l-227 -213h-111zM731 0q-6 80 10 176q-49 -90 -151.5 -144.5t-220.5 -54.5q-131 0 -218.5 72t-87.5 191q0 146 104 234t294 110l348 41q16 88 16 120q0 173 -207 173q-105 0 -178 -50.5t-98 -140.5h-166q39 155 164.5 241.5
t292.5 86.5q169 0 263.5 -76t94.5 -215q0 -37 -12 -119l-68 -428q-16 -101 -16 -217h-164zM776 406l15 94l-293 -33q-131 -15 -196.5 -60.5t-65.5 -148.5q0 -68 46.5 -110t133.5 -42q132 0 235 79t125 221z" />
    <glyph glyph-name="atilde" unicode="&#xe3;" horiz-adv-x="1128" 
d="M573 1354q-42 0 -70 -44t-42 -112h-113q21 128 82.5 205.5t151.5 77.5q35 0 66.5 -16t55.5 -38.5t46 -45t46.5 -38.5t47.5 -16q80 0 114 154h111q-21 -128 -82 -205.5t-151 -77.5q-35 0 -66.5 16t-55.5 39t-46 46t-46.5 39t-48.5 16zM731 0q-6 80 10 176
q-49 -90 -151.5 -144.5t-220.5 -54.5q-131 0 -218.5 72t-87.5 191q0 146 104 234t294 110l348 41q16 88 16 120q0 173 -207 173q-105 0 -178 -50.5t-98 -140.5h-166q39 155 164.5 241.5t292.5 86.5q169 0 263.5 -76t94.5 -215q0 -37 -12 -119l-68 -428q-16 -101 -16 -217
h-164zM776 406l15 94l-293 -33q-131 -15 -196.5 -60.5t-65.5 -148.5q0 -68 46.5 -110t133.5 -42q132 0 235 79t125 221z" />
    <glyph glyph-name="adieresis" unicode="&#xe4;" horiz-adv-x="1128" 
d="M778 1245l33 207h174l-33 -207h-174zM406 1245l32 207h172l-32 -207h-172zM731 0q-6 80 10 176q-49 -90 -151.5 -144.5t-220.5 -54.5q-131 0 -218.5 72t-87.5 191q0 146 104 234t294 110l348 41q16 88 16 120q0 173 -207 173q-105 0 -178 -50.5t-98 -140.5h-166
q39 155 164.5 241.5t292.5 86.5q169 0 263.5 -76t94.5 -215q0 -37 -12 -119l-68 -428q-16 -101 -16 -217h-164zM776 406l15 94l-293 -33q-131 -15 -196.5 -60.5t-65.5 -148.5q0 -68 46.5 -110t133.5 -42q132 0 235 79t125 221z" />
    <glyph glyph-name="aring" unicode="&#xe5;" horiz-adv-x="1128" 
d="M737 1579q79 0 133 -52.5t52 -129.5q2 -91 -64.5 -159.5t-167.5 -68.5q-78 0 -130 53t-52 130q0 91 65.5 159t163.5 68zM702 1266q54 0 87.5 35.5t31.5 84.5q2 40 -25.5 68.5t-68.5 28.5q-52 0 -85.5 -36t-33.5 -85q0 -40 26.5 -68t67.5 -28zM731 0q-6 80 10 176
q-49 -90 -151.5 -144.5t-220.5 -54.5q-131 0 -218.5 72t-87.5 191q0 146 104 234t294 110l348 41q16 88 16 120q0 173 -207 173q-105 0 -178 -50.5t-98 -140.5h-166q39 155 164.5 241.5t292.5 86.5q169 0 263.5 -76t94.5 -215q0 -37 -12 -119l-68 -428q-16 -101 -16 -217
h-164zM776 406l15 94l-293 -33q-131 -15 -196.5 -60.5t-65.5 -148.5q0 -68 46.5 -110t133.5 -42q132 0 235 79t125 221z" />
    <glyph glyph-name="ae" unicode="&#xe6;" horiz-adv-x="1816" 
d="M1673 303q-57 -159 -183 -243.5t-282 -84.5q-137 0 -232.5 64.5t-141.5 175.5q-63 -100 -177.5 -169t-265.5 -69q-140 0 -232.5 77t-92.5 206q0 144 115 237t341 93h283l14 90q4 23 4 61q0 177 -209 177q-104 0 -176.5 -50.5t-95.5 -140.5h-166q39 155 161.5 241.5
t285.5 86.5q130 0 213.5 -50.5t113.5 -140.5q76 89 175.5 140t211.5 51q187 0 286 -112.5t99 -301.5q0 -79 -18 -164h-754q-2 -18 -2 -57q0 -148 71.5 -228.5t205.5 -80.5q194 0 291 192h157zM1323 920q-128 0 -223 -90t-131 -240h587q5 31 5 57q0 128 -59.5 200.5
t-178.5 72.5zM422 106q133 0 233 80t121 220l10 71h-262q-291 0 -291 -207q0 -77 51.5 -120.5t137.5 -43.5z" />
    <glyph glyph-name="ccedilla" unicode="&#xe7;" horiz-adv-x="1095" 
d="M639 -211q0 -82 -77 -134t-175 -52q-110 0 -180 39l16 100q76 -43 168 -43q58 0 94.5 21.5t36.5 58.5q0 29 -26.5 43t-65.5 14q-36 0 -80 -14l-35 43l97 121q-141 33 -226.5 147.5t-85.5 282.5q0 181 75.5 328t204.5 229t284 82q167 0 266.5 -95t99.5 -255h-158
q-6 103 -64 158t-155 55q-112 0 -200.5 -68t-136.5 -181.5t-48 -250.5q0 -139 69 -222t181 -83q217 0 293 213h162q-51 -167 -171.5 -259t-289.5 -92h-20l-50 -59q20 4 39 4q62 0 110 -33t48 -98z" />
    <glyph glyph-name="egrave" unicode="&#xe8;" horiz-adv-x="1140" 
d="M774 1188h-106l-179 319h205zM999 303q-57 -159 -183.5 -243.5t-283.5 -84.5q-199 0 -315.5 118t-116.5 323q0 180 74.5 327t203 229.5t284.5 82.5q188 0 286.5 -112.5t98.5 -301.5q0 -78 -19 -168h-764q-2 -16 -2 -53q0 -147 75.5 -228t211.5 -81q194 0 291 192h159z
M649 918q-127 0 -225.5 -87t-138.5 -233h598q4 23 4 55q0 124 -60 194.5t-178 70.5z" />
    <glyph glyph-name="eacute" unicode="&#xe9;" horiz-adv-x="1140" 
d="M614 1188l164 319h219l-270 -319h-113zM999 303q-57 -159 -183.5 -243.5t-283.5 -84.5q-199 0 -315.5 118t-116.5 323q0 180 74.5 327t203 229.5t284.5 82.5q188 0 286.5 -112.5t98.5 -301.5q0 -78 -19 -168h-764q-2 -16 -2 -53q0 -147 75.5 -228t211.5 -81
q194 0 291 192h159zM649 918q-127 0 -225.5 -87t-138.5 -233h598q4 23 4 55q0 124 -60 194.5t-178 70.5z" />
    <glyph glyph-name="ecircumflex" unicode="&#xea;" horiz-adv-x="1140" 
d="M672 1507h180l123 -323h-103l-122 213l-228 -213h-110zM999 303q-57 -159 -183.5 -243.5t-283.5 -84.5q-199 0 -315.5 118t-116.5 323q0 180 74.5 327t203 229.5t284.5 82.5q188 0 286.5 -112.5t98.5 -301.5q0 -78 -19 -168h-764q-2 -16 -2 -53q0 -147 75.5 -228
t211.5 -81q194 0 291 192h159zM649 918q-127 0 -225.5 -87t-138.5 -233h598q4 23 4 55q0 124 -60 194.5t-178 70.5z" />
    <glyph glyph-name="edieresis" unicode="&#xeb;" horiz-adv-x="1140" 
d="M801 1245l33 207h174l-33 -207h-174zM428 1245l33 207h172l-33 -207h-172zM999 303q-57 -159 -183.5 -243.5t-283.5 -84.5q-199 0 -315.5 118t-116.5 323q0 180 74.5 327t203 229.5t284.5 82.5q188 0 286.5 -112.5t98.5 -301.5q0 -78 -19 -168h-764q-2 -16 -2 -53
q0 -147 75.5 -228t211.5 -81q194 0 291 192h159zM649 918q-127 0 -225.5 -87t-138.5 -233h598q4 23 4 55q0 124 -60 194.5t-178 70.5z" />
    <glyph glyph-name="igrave" unicode="&#xec;" horiz-adv-x="540" 
d="M473 1188h-106l-179 319h205zM264 1030h172l-162 -1030h-172z" />
    <glyph glyph-name="iacute" unicode="&#xed;" horiz-adv-x="540" 
d="M313 1188l164 319h219l-270 -319h-113zM264 1030h172l-162 -1030h-172z" />
    <glyph glyph-name="icircumflex" unicode="&#xee;" horiz-adv-x="540" 
d="M354 1507h181l122 -323h-102l-123 213l-227 -213h-111zM264 1030h172l-162 -1030h-172z" />
    <glyph glyph-name="idieresis" unicode="&#xef;" horiz-adv-x="540" 
d="M485 1245l33 207h174l-33 -207h-174zM113 1245l32 207h172l-32 -207h-172zM264 1030h172l-162 -1030h-172z" />
    <glyph glyph-name="eth" unicode="&#xf0;" horiz-adv-x="1189" 
d="M1090 639q0 -106 -25 -205.5t-74 -182.5t-116 -145t-156 -96.5t-189 -34.5q-194 0 -312 120t-118 325q0 175 70.5 319t197.5 228t285 84q153 0 244 -117q-52 167 -158 303l-299 -92l-24 86l260 80q-93 100 -225 184l2 12h204q97 -66 174 -149l205 63l27 -86l-170 -51
q197 -263 197 -645zM647 915q-115 0 -202.5 -69.5t-131 -181.5t-43.5 -248q0 -142 72 -222.5t201 -80.5q115 0 202.5 70t131.5 183t43 248q1 142 -72 221.5t-201 79.5z" />
    <glyph glyph-name="ntilde" unicode="&#xf1;" horiz-adv-x="1226" 
d="M618 1354q-42 0 -70 -44t-42 -112h-113q21 128 82.5 205.5t151.5 77.5q35 0 66.5 -16t55.5 -38.5t46 -45t46.5 -38.5t47.5 -16q81 0 115 154h110q-21 -128 -82 -205.5t-151 -77.5q-35 0 -66.5 16t-55.5 39t-46 46t-46.5 39t-48.5 16zM430 1030l-31 -188q52 98 148 155.5
t215 57.5q152 0 236.5 -82t84.5 -228q0 -37 -6 -81l-104 -664h-172l98 629q8 54 8 80q0 206 -209 206q-127 0 -216 -84.5t-117 -261.5l-91 -569h-172l162 1030h166z" />
    <glyph glyph-name="ograve" unicode="&#xf2;" horiz-adv-x="1191" 
d="M770 1188h-106l-179 319h205zM530 -25q-194 0 -312 120t-118 325q0 175 70.5 320t199 230t289.5 85q194 0 312.5 -120t118.5 -325q0 -175 -71 -320t-199.5 -230t-289.5 -85zM543 113q115 0 202.5 69t132 181.5t44.5 248.5q0 143 -73 224.5t-202 81.5q-87 0 -159 -40.5
t-119 -109t-73 -159t-26 -191.5q0 -143 72 -224t201 -81z" />
    <glyph glyph-name="oacute" unicode="&#xf3;" horiz-adv-x="1191" 
d="M635 1188l164 319h219l-270 -319h-113zM530 -25q-194 0 -312 120t-118 325q0 175 70.5 320t199 230t289.5 85q194 0 312.5 -120t118.5 -325q0 -175 -71 -320t-199.5 -230t-289.5 -85zM543 113q115 0 202.5 69t132 181.5t44.5 248.5q0 143 -73 224.5t-202 81.5
q-87 0 -159 -40.5t-119 -109t-73 -159t-26 -191.5q0 -143 72 -224t201 -81z" />
    <glyph glyph-name="ocircumflex" unicode="&#xf4;" horiz-adv-x="1191" 
d="M686 1507h180l123 -323h-102l-123 213l-227 -213h-111zM530 -25q-194 0 -312 120t-118 325q0 175 70.5 320t199 230t289.5 85q194 0 312.5 -120t118.5 -325q0 -175 -71 -320t-199.5 -230t-289.5 -85zM543 113q115 0 202.5 69t132 181.5t44.5 248.5q0 143 -73 224.5
t-202 81.5q-87 0 -159 -40.5t-119 -109t-73 -159t-26 -191.5q0 -143 72 -224t201 -81z" />
    <glyph glyph-name="otilde" unicode="&#xf5;" horiz-adv-x="1191" 
d="M596 1354q-43 0 -71.5 -44.5t-41.5 -111.5h-112q21 128 82 205.5t151 77.5q35 0 66.5 -16t55.5 -38.5t46 -45t46.5 -38.5t47.5 -16q81 0 115 154h111q-21 -128 -82.5 -205.5t-151.5 -77.5q-42 0 -81 24.5t-64 53.5t-56.5 53.5t-60.5 24.5zM530 -25q-194 0 -312 120
t-118 325q0 175 70.5 320t199 230t289.5 85q194 0 312.5 -120t118.5 -325q0 -175 -71 -320t-199.5 -230t-289.5 -85zM543 113q115 0 202.5 69t132 181.5t44.5 248.5q0 143 -73 224.5t-202 81.5q-87 0 -159 -40.5t-119 -109t-73 -159t-26 -191.5q0 -143 72 -224t201 -81z" />
    <glyph glyph-name="odieresis" unicode="&#xf6;" horiz-adv-x="1191" 
d="M821 1245l33 207h174l-33 -207h-174zM449 1245l32 207h172l-32 -207h-172zM530 -25q-194 0 -312 120t-118 325q0 175 70.5 320t199 230t289.5 85q194 0 312.5 -120t118.5 -325q0 -175 -71 -320t-199.5 -230t-289.5 -85zM543 113q115 0 202.5 69t132 181.5t44.5 248.5
q0 143 -73 224.5t-202 81.5q-87 0 -159 -40.5t-119 -109t-73 -159t-26 -191.5q0 -143 72 -224t201 -81z" />
    <glyph glyph-name="divide" unicode="&#xf7;" 
d="M659 1020l31 199h203l-31 -199h-203zM158 610l22 142h1067l-22 -142h-1067zM522 143l31 199h199l-31 -199h-199z" />
    <glyph glyph-name="oslash" unicode="&#xf8;" horiz-adv-x="1191" 
d="M530 -25q-167 0 -278 91l-133 -142l-74 70l137 145q-82 111 -82 281q0 175 70.5 320t199 230t289.5 85q180 0 295 -103l117 123l74 -69l-125 -132q70 -112 70 -264q0 -175 -71 -320t-199.5 -230t-289.5 -85zM266 416q0 -88 31 -158l553 584q-72 78 -201 78
q-118 0 -206.5 -70t-132.5 -183t-44 -251zM926 614q0 74 -23 138l-547 -578q68 -65 187 -65q117 0 205.5 70t133 183.5t44.5 251.5z" />
    <glyph glyph-name="ugrave" unicode="&#xf9;" horiz-adv-x="1212" 
d="M774 1188h-106l-179 319h205zM782 0l31 186q-52 -99 -144 -155t-210 -56q-151 0 -234.5 82t-83.5 228q0 37 6 84l105 661h172l-98 -629q-9 -70 -9 -82q0 -204 203 -204q126 0 213 84t115 262l90 569h172l-164 -1030h-164z" />
    <glyph glyph-name="uacute" unicode="&#xfa;" horiz-adv-x="1212" 
d="M631 1188l164 319h219l-271 -319h-112zM782 0l31 186q-52 -99 -144 -155t-210 -56q-151 0 -234.5 82t-83.5 228q0 37 6 84l105 661h172l-98 -629q-9 -70 -9 -82q0 -204 203 -204q126 0 213 84t115 262l90 569h172l-164 -1030h-164z" />
    <glyph glyph-name="ucircumflex" unicode="&#xfb;" horiz-adv-x="1212" 
d="M688 1507h180l123 -323h-102l-123 213l-227 -213h-111zM782 0l31 186q-52 -99 -144 -155t-210 -56q-151 0 -234.5 82t-83.5 228q0 37 6 84l105 661h172l-98 -629q-9 -70 -9 -82q0 -204 203 -204q126 0 213 84t115 262l90 569h172l-164 -1030h-164z" />
    <glyph glyph-name="udieresis" unicode="&#xfc;" horiz-adv-x="1212" 
d="M817 1245l33 207h174l-33 -207h-174zM444 1245l33 207h172l-33 -207h-172zM782 0l31 186q-52 -99 -144 -155t-210 -56q-151 0 -234.5 82t-83.5 228q0 37 6 84l105 661h172l-98 -629q-9 -70 -9 -82q0 -204 203 -204q126 0 213 84t115 262l90 569h172l-164 -1030h-164z" />
    <glyph glyph-name="yacute" unicode="&#xfd;" horiz-adv-x="1116" 
d="M573 1188l164 319h219l-270 -319h-113zM350 -4l-209 1034h170l160 -852h4l486 852h176l-625 -1061q-112 -191 -208 -270.5t-236 -79.5q-55 0 -101 19l23 135q49 -15 82 -15q78 0 139 53t139 185z" />
    <glyph glyph-name="thorn" unicode="&#xfe;" horiz-adv-x="1259" 
d="M305 197l-88 -562h-172l297 1872h172l-106 -659q54 89 144.5 148t213.5 59q177 0 285 -117.5t108 -319.5q0 -127 -38.5 -244t-106.5 -205t-167.5 -141t-213.5 -53q-121 0 -210 64.5t-118 157.5zM725 922q-149 0 -248 -106.5t-131 -285.5q-10 -79 -10 -124
q0 -136 74.5 -216.5t201.5 -80.5q114 0 201.5 70t131.5 184t44 251q0 143 -68 225.5t-196 82.5z" />
    <glyph glyph-name="ydieresis" unicode="&#xff;" horiz-adv-x="1116" 
d="M754 1245l32 207h175l-33 -207h-174zM381 1245l33 207h172l-33 -207h-172zM350 -4l-209 1034h170l160 -852h4l486 852h176l-625 -1061q-112 -191 -208 -270.5t-236 -79.5q-55 0 -101 19l23 135q49 -15 82 -15q78 0 139 53t139 185z" />
    <glyph glyph-name="Amacron" unicode="&#x100;" horiz-adv-x="1454" 
d="M608 1610l21 129h600l-21 -129h-600zM1157 0l-92 408h-698l-232 -408h-182l840 1462h198l346 -1462h-180zM864 1284l-415 -731h583l-164 731h-4z" />
    <glyph glyph-name="amacron" unicode="&#x101;" horiz-adv-x="1128" 
d="M387 1245l21 127h585l-20 -127h-586zM731 0q-6 80 10 176q-49 -90 -151.5 -144.5t-220.5 -54.5q-131 0 -218.5 72t-87.5 191q0 146 104 234t294 110l348 41q16 88 16 120q0 173 -207 173q-105 0 -178 -50.5t-98 -140.5h-166q39 155 164.5 241.5t292.5 86.5
q169 0 263.5 -76t94.5 -215q0 -37 -12 -119l-68 -428q-16 -101 -16 -217h-164zM776 406l15 94l-293 -33q-131 -15 -196.5 -60.5t-65.5 -148.5q0 -68 46.5 -110t133.5 -42q132 0 235 79t125 221z" />
    <glyph glyph-name="Abreve" unicode="&#x102;" horiz-adv-x="1454" 
d="M1251 1876q-23 -145 -111 -229t-212 -84q-105 0 -168.5 65t-63.5 176q0 16 9 72h116q-4 -36 -4 -49q0 -66 33.5 -100.5t95.5 -34.5q70 0 118.5 48t61.5 136h125zM1157 0l-92 408h-698l-232 -408h-182l840 1462h198l346 -1462h-180zM864 1284l-415 -731h583l-164 731h-4z
" />
    <glyph glyph-name="abreve" unicode="&#x103;" horiz-adv-x="1128" 
d="M688 1196q-105 0 -168 64t-63 176q0 35 8 71h113q-3 -24 -3 -47q0 -67 35 -104t97 -37q70 0 120.5 50t63.5 138h121q-23 -145 -111.5 -228t-212.5 -83zM731 0q-6 80 10 176q-49 -90 -151.5 -144.5t-220.5 -54.5q-131 0 -218.5 72t-87.5 191q0 146 104 234t294 110l348 41
q16 88 16 120q0 173 -207 173q-105 0 -178 -50.5t-98 -140.5h-166q39 155 164.5 241.5t292.5 86.5q169 0 263.5 -76t94.5 -215q0 -37 -12 -119l-68 -428q-16 -101 -16 -217h-164zM776 406l15 94l-293 -33q-131 -15 -196.5 -60.5t-65.5 -148.5q0 -68 46.5 -110t133.5 -42
q132 0 235 79t125 221z" />
    <glyph glyph-name="Aogonek" unicode="&#x104;" horiz-adv-x="1454" 
d="M1235 -375q-46 -14 -98 -14q-62 0 -109 37.5t-47 101.5q0 36 11 68t37.5 66.5t51.5 61.5t72 72l-88 390h-698l-232 -408h-182l840 1462h198l346 -1462h-84q-90 -93 -117.5 -135.5t-27.5 -81.5q0 -29 21 -46.5t55 -17.5q30 0 65 9zM864 1284l-415 -731h583l-164 731h-4z
" />
    <glyph glyph-name="aogonek" unicode="&#x105;" horiz-adv-x="1128" 
d="M807 -375q-46 -14 -98 -14q-62 0 -109 37.5t-47 101.5q0 37 11.5 70t40 70t52 62t72.5 73q0 65 12 151q-49 -90 -151.5 -144.5t-220.5 -54.5q-131 0 -218.5 72t-87.5 191q0 146 104 234t294 110l348 41q16 88 16 120q0 173 -207 173q-105 0 -178 -50.5t-98 -140.5h-166
q39 155 164.5 241.5t292.5 86.5q169 0 263.5 -76t94.5 -215q0 -37 -12 -119l-68 -428q-16 -101 -16 -217h-70q-90 -93 -117.5 -135.5t-27.5 -81.5q0 -29 21 -46.5t55 -17.5q30 0 65 9zM776 406l15 94l-293 -33q-131 -15 -196.5 -60.5t-65.5 -148.5q0 -68 46.5 -110
t133.5 -42q132 0 235 79t125 221z" />
    <glyph glyph-name="Cacute" unicode="&#x106;" horiz-adv-x="1406" 
d="M840 1573l164 301h225l-277 -301h-112zM707 -25q-266 0 -422 173t-156 454q0 142 35 274.5t102 242.5t159 193t212.5 129t255.5 46q234 0 364.5 -123.5t141.5 -327.5h-176q-6 132 -91.5 216.5t-248.5 84.5q-131 0 -240 -59.5t-181 -161.5t-111.5 -236t-39.5 -284
q0 -215 105.5 -343t300.5 -128q304 0 409 301h179q-68 -210 -218 -330.5t-380 -120.5z" />
    <glyph glyph-name="cacute" unicode="&#x107;" horiz-adv-x="1095" 
d="M625 1188l163 319h220l-271 -319h-112zM100 416q0 181 75.5 328t204.5 229t284 82q167 0 266.5 -95t99.5 -255h-158q-6 103 -64 158t-155 55q-112 0 -200.5 -68t-136.5 -181.5t-48 -250.5q0 -139 69 -222t181 -83q217 0 293 213h162q-51 -167 -171.5 -259t-289.5 -92
q-181 0 -296.5 121t-115.5 320z" />
    <glyph glyph-name="Ccircumflex" unicode="&#x108;" horiz-adv-x="1406" 
d="M899 1874h188l154 -307h-102l-156 190l-227 -190h-111zM707 -25q-266 0 -422 173t-156 454q0 142 35 274.5t102 242.5t159 193t212.5 129t255.5 46q234 0 364.5 -123.5t141.5 -327.5h-176q-6 132 -91.5 216.5t-248.5 84.5q-131 0 -240 -59.5t-181 -161.5t-111.5 -236
t-39.5 -284q0 -215 105.5 -343t300.5 -128q304 0 409 301h179q-68 -210 -218 -330.5t-380 -120.5z" />
    <glyph glyph-name="ccircumflex" unicode="&#x109;" horiz-adv-x="1095" 
d="M674 1507h180l123 -323h-103l-122 213l-228 -213h-110zM100 416q0 181 75.5 328t204.5 229t284 82q167 0 266.5 -95t99.5 -255h-158q-6 103 -64 158t-155 55q-112 0 -200.5 -68t-136.5 -181.5t-48 -250.5q0 -139 69 -222t181 -83q217 0 293 213h162q-51 -167 -171.5 -259
t-289.5 -92q-181 0 -296.5 121t-115.5 320z" />
    <glyph glyph-name="Cdotaccent" unicode="&#x10a;" horiz-adv-x="1406" 
d="M829 1608l33 207h193l-35 -207h-191zM707 -25q-266 0 -422 173t-156 454q0 142 35 274.5t102 242.5t159 193t212.5 129t255.5 46q234 0 364.5 -123.5t141.5 -327.5h-176q-6 132 -91.5 216.5t-248.5 84.5q-131 0 -240 -59.5t-181 -161.5t-111.5 -236t-39.5 -284
q0 -215 105.5 -343t300.5 -128q304 0 409 301h179q-68 -210 -218 -330.5t-380 -120.5z" />
    <glyph glyph-name="cdotaccent" unicode="&#x10b;" horiz-adv-x="1095" 
d="M610 1245l33 207h195l-33 -207h-195zM100 416q0 181 75.5 328t204.5 229t284 82q167 0 266.5 -95t99.5 -255h-158q-6 103 -64 158t-155 55q-112 0 -200.5 -68t-136.5 -181.5t-48 -250.5q0 -139 69 -222t181 -83q217 0 293 213h162q-51 -167 -171.5 -259t-289.5 -92
q-181 0 -296.5 121t-115.5 320z" />
    <glyph glyph-name="Ccaron" unicode="&#x10c;" horiz-adv-x="1406" 
d="M1010 1567h-189l-153 307h102l156 -191l227 191h111zM707 -25q-266 0 -422 173t-156 454q0 142 35 274.5t102 242.5t159 193t212.5 129t255.5 46q234 0 364.5 -123.5t141.5 -327.5h-176q-6 132 -91.5 216.5t-248.5 84.5q-131 0 -240 -59.5t-181 -161.5t-111.5 -236
t-39.5 -284q0 -215 105.5 -343t300.5 -128q304 0 409 301h179q-68 -210 -218 -330.5t-380 -120.5z" />
    <glyph glyph-name="ccaron" unicode="&#x10d;" horiz-adv-x="1095" 
d="M791 1184h-181l-123 323h103l123 -213l227 213h111zM100 416q0 181 75.5 328t204.5 229t284 82q167 0 266.5 -95t99.5 -255h-158q-6 103 -64 158t-155 55q-112 0 -200.5 -68t-136.5 -181.5t-48 -250.5q0 -139 69 -222t181 -83q217 0 293 213h162q-51 -167 -171.5 -259
t-289.5 -92q-181 0 -296.5 121t-115.5 320z" />
    <glyph glyph-name="Dcaron" unicode="&#x10e;" horiz-adv-x="1521" 
d="M975 1567h-189l-153 307h102l156 -191l227 191h111zM340 1462h508q287 0 448.5 -165.5t161.5 -446.5q0 -188 -63.5 -348t-174 -269.5t-262.5 -171t-327 -61.5h-522zM825 1315h-331l-187 -1168h344q185 0 327.5 88t220 247.5t77.5 365.5q0 221 -114 344t-337 123z" />
    <glyph glyph-name="dcaron" unicode="&#x10f;" horiz-adv-x="1271" 
d="M954 836l109 671h170l-238 -1505h-164l31 191q-58 -91 -152 -154.5t-216 -63.5q-176 0 -285 117.5t-109 319.5q0 171 65 317.5t187 237t275 90.5q122 0 210.5 -64t116.5 -157zM1413 1081h-86l129 426h201zM537 109q148 0 246.5 107t129.5 288q11 81 11 123
q0 136 -74.5 216.5t-204.5 80.5q-113 0 -199.5 -70.5t-131 -185.5t-44.5 -252q0 -141 69.5 -224t197.5 -83z" />
    <glyph glyph-name="Dcroat" unicode="&#x110;" horiz-adv-x="1550" 
d="M1487 850q0 -188 -63.5 -348t-174.5 -269.5t-263 -171t-327 -61.5h-522l107 670h-166l22 145h166l103 647h508q287 0 448.5 -165.5t161.5 -446.5zM336 147h344q185 0 327.5 88t220 247.5t77.5 365.5q0 221 -114 344t-337 123h-332l-80 -500h310l-25 -145h-307z" />
    <glyph glyph-name="dcroat" unicode="&#x111;" horiz-adv-x="1263" 
d="M860 190q-58 -91 -152 -154t-216 -63q-176 0 -285 117.5t-109 319.5q0 171 65 317.5t187 237t275 90.5q122 0 210.5 -64t116.5 -157l60 370h-258l18 115h258l31 186h170l-29 -186h164l-18 -115h-164l-191 -1204h-164zM535 106q148 0 246.5 107.5t129.5 288.5
q11 81 11 123q0 136 -74.5 216.5t-204.5 80.5q-113 0 -199.5 -70.5t-131 -185.5t-44.5 -252q0 -141 69.5 -224.5t197.5 -83.5z" />
    <glyph glyph-name="Emacron" unicode="&#x112;" horiz-adv-x="1310" 
d="M557 1610l21 129h600l-21 -129h-600zM109 0l231 1462h989l-22 -147h-815l-82 -510h725l-25 -150h-725l-80 -508h815l-22 -147h-989z" />
    <glyph glyph-name="emacron" unicode="&#x113;" horiz-adv-x="1140" 
d="M408 1245l20 127h586l-21 -127h-585zM999 303q-57 -159 -183.5 -243.5t-283.5 -84.5q-199 0 -315.5 118t-116.5 323q0 180 74.5 327t203 229.5t284.5 82.5q188 0 286.5 -112.5t98.5 -301.5q0 -78 -19 -168h-764q-2 -16 -2 -53q0 -147 75.5 -228t211.5 -81q194 0 291 192
h159zM649 918q-127 0 -225.5 -87t-138.5 -233h598q4 23 4 55q0 124 -60 194.5t-178 70.5z" />
    <glyph glyph-name="Ebreve" unicode="&#x114;" horiz-adv-x="1310" 
d="M1155 1876q-23 -145 -111.5 -229t-212.5 -84q-105 0 -168 64.5t-63 176.5q0 22 8 72h117q-4 -36 -4 -49q0 -66 33.5 -100.5t95.5 -34.5q70 0 118.5 48t61.5 136h125zM109 0l231 1462h989l-22 -147h-815l-82 -510h725l-25 -150h-725l-80 -508h815l-22 -147h-989z" />
    <glyph glyph-name="ebreve" unicode="&#x115;" horiz-adv-x="1140" 
d="M694 1196q-105 0 -168 64t-63 176q0 35 8 71h113q-2 -16 -2 -47q0 -67 34.5 -104t96.5 -37q70 0 120.5 50t63.5 138h121q-23 -145 -111.5 -228t-212.5 -83zM999 303q-57 -159 -183.5 -243.5t-283.5 -84.5q-199 0 -315.5 118t-116.5 323q0 180 74.5 327t203 229.5
t284.5 82.5q188 0 286.5 -112.5t98.5 -301.5q0 -78 -19 -168h-764q-2 -16 -2 -53q0 -147 75.5 -228t211.5 -81q194 0 291 192h159zM649 918q-127 0 -225.5 -87t-138.5 -233h598q4 23 4 55q0 124 -60 194.5t-178 70.5z" />
    <glyph glyph-name="Edotaccent" unicode="&#x116;" horiz-adv-x="1310" 
d="M778 1608l33 207h193l-35 -207h-191zM109 0l231 1462h989l-22 -147h-815l-82 -510h725l-25 -150h-725l-80 -508h815l-22 -147h-989z" />
    <glyph glyph-name="edotaccent" unicode="&#x117;" horiz-adv-x="1140" 
d="M604 1245l33 207h194l-32 -207h-195zM999 303q-57 -159 -183.5 -243.5t-283.5 -84.5q-199 0 -315.5 118t-116.5 323q0 180 74.5 327t203 229.5t284.5 82.5q188 0 286.5 -112.5t98.5 -301.5q0 -78 -19 -168h-764q-2 -16 -2 -53q0 -147 75.5 -228t211.5 -81q194 0 291 192
h159zM649 918q-127 0 -225.5 -87t-138.5 -233h598q4 23 4 55q0 124 -60 194.5t-178 70.5z" />
    <glyph glyph-name="Eogonek" unicode="&#x118;" horiz-adv-x="1310" 
d="M938 -375q-46 -14 -98 -14q-62 0 -109 37.5t-47 101.5t36 118t116 132h-727l231 1462h989l-22 -147h-815l-82 -510h725l-25 -150h-725l-80 -508h815l-22 -147h-142q-90 -93 -117.5 -135.5t-27.5 -81.5q0 -29 21 -46.5t55 -17.5q31 0 65 9z" />
    <glyph glyph-name="eogonek" unicode="&#x119;" horiz-adv-x="1140" 
d="M727 -377q-40 -12 -96 -12q-61 0 -108.5 37.5t-47.5 99.5q0 60 32 112.5t99 121.5q-44 -7 -74 -7q-199 0 -315.5 118t-116.5 323q0 180 74.5 327t203 229.5t284.5 82.5q188 0 286.5 -112.5t98.5 -301.5q0 -78 -19 -168h-764q-2 -16 -2 -53q0 -147 75.5 -228t211.5 -81
q194 0 291 192h159q-21 -60 -64 -117.5t-77 -89t-84 -71.5q-98 -83 -135 -138.5t-37 -101.5q0 -30 21 -48t55 -18q28 0 65 9zM649 918q-127 0 -225.5 -87t-138.5 -233h598q4 23 4 55q0 124 -60 194.5t-178 70.5z" />
    <glyph glyph-name="Ecaron" unicode="&#x11a;" horiz-adv-x="1310" 
d="M948 1567h-188l-154 307h103l155 -191l228 191h110zM109 0l231 1462h989l-22 -147h-815l-82 -510h725l-25 -150h-725l-80 -508h815l-22 -147h-989z" />
    <glyph glyph-name="ecaron" unicode="&#x11b;" horiz-adv-x="1140" 
d="M782 1184h-180l-123 323h103l123 -213l227 213h110zM999 303q-57 -159 -183.5 -243.5t-283.5 -84.5q-199 0 -315.5 118t-116.5 323q0 180 74.5 327t203 229.5t284.5 82.5q188 0 286.5 -112.5t98.5 -301.5q0 -78 -19 -168h-764q-2 -16 -2 -53q0 -147 75.5 -228t211.5 -81
q194 0 291 192h159zM649 918q-127 0 -225.5 -87t-138.5 -233h598q4 23 4 55q0 124 -60 194.5t-178 70.5z" />
    <glyph glyph-name="Gcircumflex" unicode="&#x11c;" horiz-adv-x="1527" 
d="M866 1874h189l153 -307h-102l-156 190l-227 -190h-111zM696 -25q-257 0 -412 172.5t-155 452.5q0 178 56 339.5t154 283t242.5 193t311.5 71.5q236 0 370.5 -124.5t143.5 -326.5h-176q-6 131 -94 216t-252 85q-105 0 -197 -38.5t-160 -107.5t-117.5 -161.5t-74.5 -203
t-25 -230.5q0 -214 105 -343.5t301 -129.5q198 0 331 119t160 348h-346l25 139h518l-115 -727h-141l22 242q-59 -122 -191 -195.5t-284 -73.5z" />
    <glyph glyph-name="gcircumflex" unicode="&#x11d;" horiz-adv-x="1261" 
d="M717 1507h180l123 -323h-102l-123 213l-228 -213h-110zM834 63l26 162q-57 -88 -149.5 -147.5t-216.5 -59.5q-176 0 -285 114.5t-109 309.5q0 160 65 299.5t186.5 226.5t273.5 87q123 0 215.5 -67t122.5 -159l30 201h164l-151 -958q-37 -236 -179 -348.5t-360 -112.5
q-184 0 -299.5 78t-124.5 223h170q18 -170 260 -170q158 0 246.5 77.5t114.5 243.5zM913 524q13 93 13 117q0 129 -77 205t-204 76q-113 0 -199.5 -65.5t-131 -173t-44.5 -237.5q0 -136 69.5 -214t197.5 -78q149 0 247.5 99.5t128.5 270.5z" />
    <glyph glyph-name="Gbreve" unicode="&#x11e;" horiz-adv-x="1527" 
d="M1243 1876q-23 -145 -111 -229t-212 -84q-105 0 -168.5 65t-63.5 176q0 22 8 72h117q-4 -36 -4 -49q0 -66 33.5 -100.5t95.5 -34.5q70 0 118.5 48t61.5 136h125zM696 -25q-257 0 -412 172.5t-155 452.5q0 178 56 339.5t154 283t242.5 193t311.5 71.5q236 0 370.5 -124.5
t143.5 -326.5h-176q-6 131 -94 216t-252 85q-105 0 -197 -38.5t-160 -107.5t-117.5 -161.5t-74.5 -203t-25 -230.5q0 -214 105 -343.5t301 -129.5q198 0 331 119t160 348h-346l25 139h518l-115 -727h-141l22 242q-59 -122 -191 -195.5t-284 -73.5z" />
    <glyph glyph-name="gbreve" unicode="&#x11f;" horiz-adv-x="1261" 
d="M741 1196q-105 0 -168 64t-63 176q0 35 8 71h113q-2 -16 -2 -47q0 -67 34.5 -104t96.5 -37q70 0 120.5 50t63.5 138h121q-23 -145 -111.5 -228t-212.5 -83zM834 63l26 162q-57 -88 -149.5 -147.5t-216.5 -59.5q-176 0 -285 114.5t-109 309.5q0 160 65 299.5t186.5 226.5
t273.5 87q123 0 215.5 -67t122.5 -159l30 201h164l-151 -958q-37 -236 -179 -348.5t-360 -112.5q-184 0 -299.5 78t-124.5 223h170q18 -170 260 -170q158 0 246.5 77.5t114.5 243.5zM913 524q13 93 13 117q0 129 -77 205t-204 76q-113 0 -199.5 -65.5t-131 -173
t-44.5 -237.5q0 -136 69.5 -214t197.5 -78q149 0 247.5 99.5t128.5 270.5z" />
    <glyph glyph-name="Gdotaccent" unicode="&#x120;" horiz-adv-x="1527" 
d="M831 1608l33 207h193l-35 -207h-191zM696 -25q-257 0 -412 172.5t-155 452.5q0 178 56 339.5t154 283t242.5 193t311.5 71.5q236 0 370.5 -124.5t143.5 -326.5h-176q-6 131 -94 216t-252 85q-105 0 -197 -38.5t-160 -107.5t-117.5 -161.5t-74.5 -203t-25 -230.5
q0 -214 105 -343.5t301 -129.5q198 0 331 119t160 348h-346l25 139h518l-115 -727h-141l22 242q-59 -122 -191 -195.5t-284 -73.5z" />
    <glyph glyph-name="gdotaccent" unicode="&#x121;" horiz-adv-x="1261" 
d="M651 1245l33 207h195l-33 -207h-195zM834 63l26 162q-57 -88 -149.5 -147.5t-216.5 -59.5q-176 0 -285 114.5t-109 309.5q0 160 65 299.5t186.5 226.5t273.5 87q123 0 215.5 -67t122.5 -159l30 201h164l-151 -958q-37 -236 -179 -348.5t-360 -112.5q-184 0 -299.5 78
t-124.5 223h170q18 -170 260 -170q158 0 246.5 77.5t114.5 243.5zM913 524q13 93 13 117q0 129 -77 205t-204 76q-113 0 -199.5 -65.5t-131 -173t-44.5 -237.5q0 -136 69.5 -214t197.5 -78q149 0 247.5 99.5t128.5 270.5z" />
    <glyph glyph-name="uni0122" unicode="&#x122;" horiz-adv-x="1527" 
d="M696 -25q-257 0 -412 172.5t-155 452.5q0 178 56 339.5t154 283t242.5 193t311.5 71.5q236 0 370.5 -124.5t143.5 -326.5h-176q-6 131 -94 216t-252 85q-105 0 -197 -38.5t-160 -107.5t-117.5 -161.5t-74.5 -203t-25 -230.5q0 -214 105 -343.5t301 -129.5q198 0 331 119
t160 348h-346l25 139h518l-115 -727h-141l22 242q-59 -122 -191 -195.5t-284 -73.5zM553 -256l22 147h205l-20 -135q-32 -215 -248 -215l12 78q57 0 85 31.5t36 93.5h-92z" />
    <glyph glyph-name="uni0123" unicode="&#x123;" horiz-adv-x="1261" 
d="M862 1343l-22 -147h-205l20 135q32 215 248 215l-12 -78q-57 0 -85 -31.5t-36 -93.5h92zM834 63l26 162q-57 -88 -149.5 -147.5t-216.5 -59.5q-176 0 -285 114.5t-109 309.5q0 160 65 299.5t186.5 226.5t273.5 87q123 0 215.5 -67t122.5 -159l30 201h164l-151 -958
q-37 -236 -179 -348.5t-360 -112.5q-184 0 -299.5 78t-124.5 223h170q18 -170 260 -170q158 0 246.5 77.5t114.5 243.5zM913 524q13 93 13 117q0 129 -77 205t-204 76q-113 0 -199.5 -65.5t-131 -173t-44.5 -237.5q0 -136 69.5 -214t197.5 -78q149 0 247.5 99.5t128.5 270.5
z" />
    <glyph glyph-name="Hcircumflex" unicode="&#x124;" horiz-adv-x="1589" 
d="M905 1874h189l153 -307h-102l-156 190l-227 -190h-111zM109 0l231 1462h174l-100 -645h858l102 645h174l-231 -1462h-174l106 670h-860l-106 -670h-174z" />
    <glyph glyph-name="hcircumflex" unicode="&#x125;" horiz-adv-x="1226" 
d="M707 1880h188l154 -307h-103l-155 190l-228 -190h-110zM514 1507l-106 -661q52 98 144 153.5t210 55.5q152 0 236.5 -82t84.5 -228q0 -37 -6 -81l-104 -664h-172l98 629q8 54 8 80q0 206 -209 206q-127 0 -216 -84.5t-117 -261.5l-91 -569h-172l240 1507h172z" />
    <glyph glyph-name="Hbar" unicode="&#x126;" horiz-adv-x="1646" 
d="M401 569l-90 -569h-174l160 1016h-166l25 143h166l47 303h174l-49 -303h860l49 303h174l-47 -303h164l-23 -143h-166l-159 -1016h-175l91 569h-861zM424 717h860l47 299h-860z" />
    <glyph glyph-name="hbar" unicode="&#x127;" horiz-adv-x="1232" 
d="M371 569l-90 -569h-172l190 1204h-162l17 115h163l31 188h172l-31 -188h259l-19 -115h-258l-57 -358q52 98 144 153.5t210 55.5q152 0 237 -82t85 -228q0 -30 -7 -81l-104 -664h-172l98 629q8 54 8 80q0 206 -208 206q-127 0 -216.5 -84.5t-117.5 -261.5z" />
    <glyph glyph-name="Itilde" unicode="&#x128;" horiz-adv-x="557" 
d="M334 1726q-43 0 -71.5 -40.5t-41.5 -106.5h-110q21 129 81.5 206t151.5 77q35 0 67 -15t56 -37t46.5 -44t46.5 -37t46 -15q81 0 113 148h110q-21 -128 -82 -205.5t-151 -77.5q-41 0 -81 23t-65.5 50.5t-57 50.5t-58.5 23zM340 1462h174l-231 -1462h-174z" />
    <glyph glyph-name="itilde" unicode="&#x129;" horiz-adv-x="540" 
d="M287 1354q-22 0 -38 -12t-26.5 -37.5t-16 -47t-13.5 -59.5h-111q46 283 215 283q37 0 69.5 -24t52.5 -53t45 -53t48 -24t39 11.5t27 36t17 46.5t13 60h111q-46 -283 -217 -283q-36 0 -68 24.5t-52 53.5t-45.5 53.5t-49.5 24.5zM264 1030h172l-162 -1030h-172z" />
    <glyph glyph-name="Imacron" unicode="&#x12a;" horiz-adv-x="557" 
d="M147 1610l21 129h600l-20 -129h-601zM340 1462h174l-231 -1462h-174z" />
    <glyph glyph-name="imacron" unicode="&#x12b;" horiz-adv-x="540" 
d="M131 1245l21 127h503l-20 -127h-504zM264 1030h172l-162 -1030h-172z" />
    <glyph glyph-name="Ibreve" unicode="&#x12c;" horiz-adv-x="557" 
d="M766 1876q-23 -145 -111.5 -229t-212.5 -84q-105 0 -168 64.5t-63 176.5q0 22 8 72h117q-4 -36 -4 -49q0 -66 33.5 -100.5t95.5 -34.5q70 0 118.5 48t61.5 136h125zM340 1462h174l-231 -1462h-174z" />
    <glyph glyph-name="ibreve" unicode="&#x12d;" horiz-adv-x="540" 
d="M377 1196q-105 0 -168.5 64.5t-63.5 175.5q0 30 9 71h112q-2 -16 -2 -47q0 -67 34.5 -104t96.5 -37q70 0 121 50t64 138h120q-23 -145 -111 -228t-212 -83zM264 1030h172l-162 -1030h-172z" />
    <glyph glyph-name="Iogonek" unicode="&#x12e;" horiz-adv-x="557" 
d="M231 -375q-49 -14 -98 -14q-62 0 -109 37.5t-47 101.5q0 63 37 116.5t119 133.5h-24l231 1462h174l-231 -1462q-95 -68 -137 -119.5t-42 -97.5q0 -29 21 -46.5t55 -17.5q32 0 66 9z" />
    <glyph glyph-name="iogonek" unicode="&#x12f;" horiz-adv-x="540" 
d="M287 1245l32 207h193l-33 -207h-192zM123 0h-21l162 1030h172l-162 -1030q-96 -67 -137 -118.5t-41 -98.5q0 -29 20 -46.5t54 -17.5q32 0 66 9l-15 -103q-46 -14 -98 -14q-61 0 -107.5 37.5t-46.5 101.5q0 63 36.5 116t117.5 134z" />
    <glyph glyph-name="Idotaccent" unicode="&#x130;" horiz-adv-x="557" 
d="M358 1608l33 207h193l-35 -207h-191zM340 1462h174l-231 -1462h-174z" />
    <glyph glyph-name="dotlessi" unicode="&#x131;" horiz-adv-x="540" 
d="M264 1030h172l-162 -1030h-172z" />
    <glyph glyph-name="Jcircumflex" unicode="&#x134;" horiz-adv-x="1159" 
d="M1010 1874h188l154 -307h-103l-155 190l-228 -190h-110zM813 516l150 946h176l-150 -944q-39 -255 -177 -399t-366 -144q-211 0 -326 122t-110 325h166q-2 -141 68 -224t211 -83q158 0 242.5 103t115.5 298z" />
    <glyph glyph-name="jcircumflex" unicode="&#x135;" horiz-adv-x="540" 
d="M352 1507h180l123 -323h-102l-123 213l-227 -213h-111zM-43 -377q-52 0 -107 19l23 131q43 -13 68 -13q68 0 101 31.5t46 112.5l176 1126h172l-176 -1120q-22 -144 -96 -215.5t-207 -71.5z" />
    <glyph glyph-name="uni0136" unicode="&#x136;" horiz-adv-x="1447" 
d="M1106 0l-477 702l-273 -239l-73 -463h-174l231 1462h174l-125 -792l893 792h221l-743 -647l547 -815h-201zM498 -256l22 147h205l-20 -135q-32 -215 -248 -215l12 78q57 0 85 31.5t36 93.5h-92z" />
    <glyph glyph-name="uni0137" unicode="&#x137;" horiz-adv-x="1146" 
d="M825 0l-325 498l-168 -140l-58 -358h-172l240 1507h172l-154 -962l578 485h211l-522 -432l389 -598h-191zM375 -256l22 147h205l-20 -135q-32 -215 -248 -215l12 78q57 0 85 31.5t36 93.5h-92z" />
    <glyph glyph-name="kgreenlandic" unicode="&#x138;" horiz-adv-x="1146" 
d="M825 0l-325 498l-170 -142l-56 -356h-172l162 1030h172l-76 -487l578 487h211l-522 -432l389 -598h-191z" />
    <glyph glyph-name="Lacute" unicode="&#x139;" horiz-adv-x="1273" 
d="M410 1573l163 301h226l-277 -301h-112zM111 0l231 1462h174l-207 -1315h789l-25 -147h-962z" />
    <glyph glyph-name="lacute" unicode="&#x13a;" horiz-adv-x="540" 
d="M387 1579l164 301h225l-276 -301h-113zM274 0h-172l240 1507h172z" />
    <glyph glyph-name="uni013B" unicode="&#x13b;" horiz-adv-x="1273" 
d="M111 0l231 1462h174l-207 -1315h789l-25 -147h-962zM446 -256l23 147h205l-21 -135q-32 -215 -247 -215l12 78q57 0 85 31.5t36 93.5h-93z" />
    <glyph glyph-name="uni013C" unicode="&#x13c;" horiz-adv-x="540" 
d="M274 0h-172l240 1507h172zM45 -256l23 147h204l-20 -135q-32 -215 -248 -215l12 78q57 0 85 31.5t36 93.5h-92z" />
    <glyph glyph-name="Lcaron" unicode="&#x13d;" horiz-adv-x="1273" 
d="M872 1038h-86l129 426h201zM111 0l231 1462h174l-207 -1315h789l-25 -147h-962z" />
    <glyph glyph-name="lcaron" unicode="&#x13e;" horiz-adv-x="550" 
d="M274 0h-172l240 1507h172zM692 1081h-86l129 426h201z" />
    <glyph glyph-name="Ldot" unicode="&#x13f;" horiz-adv-x="1273" 
d="M111 0l231 1462h174l-207 -1315h789l-25 -147h-962zM811 678l33 207h194l-32 -207h-195z" />
    <glyph glyph-name="ldot" unicode="&#x140;" horiz-adv-x="780" 
d="M274 0h-172l240 1507h172zM573 567l33 207h195l-33 -207h-195z" />
    <glyph glyph-name="Lslash" unicode="&#x141;" horiz-adv-x="1302" 
d="M1126 147l-24 -147h-963l99 623l-177 -60l23 146l176 57l111 696h174l-101 -643l334 111l-22 -146l-336 -110l-82 -527h788z" />
    <glyph glyph-name="lslash" unicode="&#x142;" horiz-adv-x="638" 
d="M647 913l-209 -106l-129 -807h-172l117 733l-182 -92l22 139l182 92l101 635h172l-88 -559l207 107z" />
    <glyph glyph-name="Nacute" unicode="&#x143;" horiz-adv-x="1552" 
d="M852 1573l164 301h225l-276 -301h-113zM547 1462l604 -1173h4l186 1173h168l-231 -1462h-152l-643 1251h-4l-198 -1251h-172l231 1462h207z" />
    <glyph glyph-name="nacute" unicode="&#x144;" horiz-adv-x="1226" 
d="M631 1188l164 319h219l-271 -319h-112zM430 1030l-31 -188q52 98 148 155.5t215 57.5q152 0 236.5 -82t84.5 -228q0 -37 -6 -81l-104 -664h-172l98 629q8 54 8 80q0 206 -209 206q-127 0 -216 -84.5t-117 -261.5l-91 -569h-172l162 1030h166z" />
    <glyph glyph-name="uni0145" unicode="&#x145;" horiz-adv-x="1552" 
d="M547 1462l604 -1173h4l186 1173h168l-231 -1462h-152l-643 1251h-4l-198 -1251h-172l231 1462h207zM555 -256l23 147h204l-20 -135q-32 -215 -248 -215l12 78q57 0 85 31.5t36 93.5h-92z" />
    <glyph glyph-name="uni0146" unicode="&#x146;" horiz-adv-x="1226" 
d="M430 1030l-31 -188q52 98 148 155.5t215 57.5q152 0 236.5 -82t84.5 -228q0 -37 -6 -81l-104 -664h-172l98 629q8 54 8 80q0 206 -209 206q-127 0 -216 -84.5t-117 -261.5l-91 -569h-172l162 1030h166zM397 -256l23 147h205l-21 -135q-32 -215 -248 -215l13 78
q57 0 84.5 31.5t35.5 93.5h-92z" />
    <glyph glyph-name="Ncaron" unicode="&#x147;" horiz-adv-x="1552" 
d="M1026 1567h-188l-154 307h102l156 -191l227 191h111zM547 1462l604 -1173h4l186 1173h168l-231 -1462h-152l-643 1251h-4l-198 -1251h-172l231 1462h207z" />
    <glyph glyph-name="ncaron" unicode="&#x148;" horiz-adv-x="1226" 
d="M799 1184h-181l-122 323h102l123 -213l227 213h111zM430 1030l-31 -188q52 98 148 155.5t215 57.5q152 0 236.5 -82t84.5 -228q0 -37 -6 -81l-104 -664h-172l98 629q8 54 8 80q0 206 -209 206q-127 0 -216 -84.5t-117 -261.5l-91 -569h-172l162 1030h166z" />
    <glyph glyph-name="Eng" unicode="&#x14a;" horiz-adv-x="1552" 
d="M961 -377q-50 0 -105 19l21 131q50 -13 69 -13q68 0 103.5 32.5t48.5 111.5l18 119l-633 1228h-4l-198 -1251h-172l231 1462h207l604 -1173h4l186 1173h168l-243 -1552q-22 -144 -96 -215.5t-209 -71.5z" />
    <glyph glyph-name="eng" unicode="&#x14b;" horiz-adv-x="1226" 
d="M655 -377q-51 0 -106 19l22 131q43 -13 68 -13q68 0 101 31.5t46 112.5l113 725q8 54 8 80q0 206 -209 206q-127 0 -216 -84.5t-117 -261.5l-91 -569h-172l162 1030h166l-31 -188q52 98 148 155.5t215 57.5q152 0 236.5 -82t84.5 -228q0 -37 -6 -81l-119 -754
q-22 -144 -96 -215.5t-207 -71.5z" />
    <glyph glyph-name="Omacron" unicode="&#x14c;" horiz-adv-x="1529" 
d="M635 1610l20 129h600l-20 -129h-600zM889 1487q265 0 421 -173.5t156 -453.5q0 -177 -54 -337.5t-150 -282t-240 -193.5t-313 -72q-176 0 -308.5 80t-202 221.5t-69.5 325.5q0 177 54.5 337.5t151 282t241 193.5t313.5 72zM879 1337q-106 0 -197 -38.5t-158.5 -107.5
t-116 -162t-72.5 -203t-24 -230q0 -215 106 -343t302 -128q131 0 239.5 59.5t178.5 161.5t108.5 236t38.5 284q0 215 -104.5 343t-300.5 128z" />
    <glyph glyph-name="omacron" unicode="&#x14d;" horiz-adv-x="1191" 
d="M424 1245l20 127h586l-20 -127h-586zM530 -25q-194 0 -312 120t-118 325q0 175 70.5 320t199 230t289.5 85q194 0 312.5 -120t118.5 -325q0 -175 -71 -320t-199.5 -230t-289.5 -85zM543 113q115 0 202.5 69t132 181.5t44.5 248.5q0 143 -73 224.5t-202 81.5
q-87 0 -159 -40.5t-119 -109t-73 -159t-26 -191.5q0 -143 72 -224t201 -81z" />
    <glyph glyph-name="Obreve" unicode="&#x14e;" horiz-adv-x="1529" 
d="M1249 1876q-23 -145 -111 -229t-212 -84q-105 0 -168.5 65t-63.5 176q0 22 8 72h117q-4 -36 -4 -49q0 -66 33.5 -100.5t95.5 -34.5q70 0 118.5 48t61.5 136h125zM889 1487q265 0 421 -173.5t156 -453.5q0 -177 -54 -337.5t-150 -282t-240 -193.5t-313 -72
q-176 0 -308.5 80t-202 221.5t-69.5 325.5q0 177 54.5 337.5t151 282t241 193.5t313.5 72zM879 1337q-106 0 -197 -38.5t-158.5 -107.5t-116 -162t-72.5 -203t-24 -230q0 -215 106 -343t302 -128q131 0 239.5 59.5t178.5 161.5t108.5 236t38.5 284q0 215 -104.5 343
t-300.5 128z" />
    <glyph glyph-name="obreve" unicode="&#x14f;" horiz-adv-x="1191" 
d="M711 1196q-105 0 -168.5 64.5t-63.5 175.5q0 35 8 71h113q-2 -16 -2 -47q0 -67 34.5 -104t96.5 -37q70 0 120.5 50t63.5 138h121q-23 -145 -111 -228t-212 -83zM530 -25q-194 0 -312 120t-118 325q0 175 70.5 320t199 230t289.5 85q194 0 312.5 -120t118.5 -325
q0 -175 -71 -320t-199.5 -230t-289.5 -85zM543 113q115 0 202.5 69t132 181.5t44.5 248.5q0 143 -73 224.5t-202 81.5q-87 0 -159 -40.5t-119 -109t-73 -159t-26 -191.5q0 -143 72 -224t201 -81z" />
    <glyph glyph-name="Ohungarumlaut" unicode="&#x150;" horiz-adv-x="1529" 
d="M1001 1573l168 301h199l-266 -301h-101zM686 1573l166 301h201l-269 -301h-98zM889 1487q265 0 421 -173.5t156 -453.5q0 -177 -54 -337.5t-150 -282t-240 -193.5t-313 -72q-176 0 -308.5 80t-202 221.5t-69.5 325.5q0 177 54.5 337.5t151 282t241 193.5t313.5 72z
M879 1337q-106 0 -197 -38.5t-158.5 -107.5t-116 -162t-72.5 -203t-24 -230q0 -215 106 -343t302 -128q131 0 239.5 59.5t178.5 161.5t108.5 236t38.5 284q0 215 -104.5 343t-300.5 128z" />
    <glyph glyph-name="ohungarumlaut" unicode="&#x151;" horiz-adv-x="1191" 
d="M782 1188l168 319h199l-266 -319h-101zM467 1188l166 319h201l-269 -319h-98zM530 -25q-194 0 -312 120t-118 325q0 175 70.5 320t199 230t289.5 85q194 0 312.5 -120t118.5 -325q0 -175 -71 -320t-199.5 -230t-289.5 -85zM543 113q115 0 202.5 69t132 181.5t44.5 248.5
q0 143 -73 224.5t-202 81.5q-87 0 -159 -40.5t-119 -109t-73 -159t-26 -191.5q0 -143 72 -224t201 -81z" />
    <glyph glyph-name="OE" unicode="&#x152;" horiz-adv-x="2275" 
d="M739 0q-287 0 -447.5 165t-160.5 447q0 188 63 348t173 269.5t262 171t327 61.5h1338l-25 -147h-815l-80 -510h723l-24 -150h-723l-80 -508h815l-25 -147h-1321zM764 147h332l184 1168h-342q-186 0 -329 -88t-220.5 -247.5t-77.5 -365.5q0 -222 114.5 -344.5
t338.5 -122.5z" />
    <glyph glyph-name="oe" unicode="&#x153;" horiz-adv-x="1947" 
d="M1804 303q-57 -159 -182.5 -243.5t-282.5 -84.5q-135 0 -232.5 67.5t-145.5 180.5q-76 -111 -188.5 -179.5t-242.5 -68.5q-194 0 -312 120t-118 325q0 175 70.5 320t199 230t289.5 85q131 0 230 -67.5t145 -184.5q78 114 192 183t242 69q188 0 286.5 -112.5t98.5 -301.5
q0 -79 -18 -164h-764q-2 -18 -2 -57q0 -147 75.5 -228t211.5 -81q194 0 291 192h157zM1454 920q-128 0 -227 -90t-137 -240h598q4 25 4 57q0 128 -59.5 200.5t-178.5 72.5zM543 113q115 0 202.5 69t132 181.5t44.5 248.5q0 143 -73 224.5t-202 81.5q-87 0 -159 -40.5
t-119 -109t-73 -159t-26 -191.5q0 -143 72 -224t201 -81z" />
    <glyph glyph-name="Racute" unicode="&#x154;" horiz-adv-x="1406" 
d="M735 1573l164 301h225l-276 -301h-113zM283 0h-174l231 1462h563q218 0 333.5 -100t115.5 -287q0 -96 -36.5 -178.5t-96.5 -139t-130.5 -92.5t-144.5 -49l301 -616h-184l-287 592h-397zM399 739h383q183 0 289.5 86t106.5 242q0 122 -77.5 185t-230.5 63h-378z" />
    <glyph glyph-name="racute" unicode="&#x155;" horiz-adv-x="794" 
d="M494 1188l163 319h220l-271 -319h-112zM840 1044l-25 -155q-36 8 -88 8q-130 0 -237 -102t-136 -287l-80 -508h-172l162 1030h166l-39 -244q53 125 153 196t216 71q46 0 80 -9z" />
    <glyph glyph-name="uni0156" unicode="&#x156;" horiz-adv-x="1406" 
d="M283 0h-174l231 1462h563q218 0 333.5 -100t115.5 -287q0 -96 -36.5 -178.5t-96.5 -139t-130.5 -92.5t-144.5 -49l301 -616h-184l-287 592h-397zM399 739h383q183 0 289.5 86t106.5 242q0 122 -77.5 185t-230.5 63h-378zM463 -256l22 147h205l-20 -135
q-32 -215 -248 -215l12 78q57 0 85 31.5t36 93.5h-92z" />
    <glyph glyph-name="uni0157" unicode="&#x157;" horiz-adv-x="794" 
d="M840 1044l-25 -155q-36 8 -88 8q-130 0 -237 -102t-136 -287l-80 -508h-172l162 1030h166l-39 -244q53 125 153 196t216 71q46 0 80 -9zM49 -256l23 147h204l-20 -135q-32 -215 -248 -215l12 78q57 0 85 31.5t36 93.5h-92z" />
    <glyph glyph-name="Rcaron" unicode="&#x158;" horiz-adv-x="1406" 
d="M928 1567h-189l-153 307h102l156 -191l227 191h111zM283 0h-174l231 1462h563q218 0 333.5 -100t115.5 -287q0 -96 -36.5 -178.5t-96.5 -139t-130.5 -92.5t-144.5 -49l301 -616h-184l-287 592h-397zM399 739h383q183 0 289.5 86t106.5 242q0 122 -77.5 185t-230.5 63
h-378z" />
    <glyph glyph-name="rcaron" unicode="&#x159;" horiz-adv-x="794" 
d="M659 1184h-180l-123 323h103l123 -213l227 213h111zM840 1044l-25 -155q-36 8 -88 8q-130 0 -237 -102t-136 -287l-80 -508h-172l162 1030h166l-39 -244q53 125 153 196t216 71q46 0 80 -9z" />
    <glyph glyph-name="Sacute" unicode="&#x15a;" horiz-adv-x="1325" 
d="M727 1573l164 301h225l-276 -301h-113zM59 432h170q4 -67 28 -120.5t61.5 -89.5t89 -60t108.5 -34.5t121 -10.5q168 0 280.5 87t112.5 216q0 81 -53 131t-176 80l-269 65q-321 77 -321 324q0 201 156.5 334t396.5 133q234 0 369.5 -108t140.5 -292h-166q-4 119 -101 189
t-253 70q-173 0 -272 -91t-99 -217q0 -79 53.5 -123t171.5 -73l279 -68q154 -37 235.5 -113.5t81.5 -205.5q0 -204 -164.5 -342t-414.5 -138q-158 0 -283.5 50.5t-203 155.5t-79.5 251z" />
    <glyph glyph-name="sacute" unicode="&#x15b;" horiz-adv-x="1017" 
d="M535 1188l163 319h220l-271 -319h-112zM35 305h164q0 -101 78.5 -151t191.5 -50t183.5 54t70.5 133q0 50 -35 82t-119 55l-182 47q-237 63 -237 248q0 143 114 237.5t293 94.5q108 0 192.5 -30.5t139 -99t57.5 -167.5h-158q-7 83 -71.5 124.5t-171.5 41.5
q-108 0 -171 -50.5t-63 -130.5q0 -52 36.5 -79.5t121.5 -51.5l197 -53q108 -29 164.5 -90.5t56.5 -149.5q0 -152 -120.5 -248t-307.5 -96q-87 0 -161 19t-133.5 57t-94 103t-35.5 151z" />
    <glyph glyph-name="Scircumflex" unicode="&#x15c;" horiz-adv-x="1325" 
d="M786 1874h189l153 -307h-102l-156 190l-227 -190h-111zM59 432h170q4 -67 28 -120.5t61.5 -89.5t89 -60t108.5 -34.5t121 -10.5q168 0 280.5 87t112.5 216q0 81 -53 131t-176 80l-269 65q-321 77 -321 324q0 201 156.5 334t396.5 133q234 0 369.5 -108t140.5 -292h-166
q-4 119 -101 189t-253 70q-173 0 -272 -91t-99 -217q0 -79 53.5 -123t171.5 -73l279 -68q154 -37 235.5 -113.5t81.5 -205.5q0 -204 -164.5 -342t-414.5 -138q-158 0 -283.5 50.5t-203 155.5t-79.5 251z" />
    <glyph glyph-name="scircumflex" unicode="&#x15d;" horiz-adv-x="1017" 
d="M590 1507h180l123 -323h-102l-123 213l-228 -213h-110zM35 305h164q0 -101 78.5 -151t191.5 -50t183.5 54t70.5 133q0 50 -35 82t-119 55l-182 47q-237 63 -237 248q0 143 114 237.5t293 94.5q108 0 192.5 -30.5t139 -99t57.5 -167.5h-158q-7 83 -71.5 124.5t-171.5 41.5
q-108 0 -171 -50.5t-63 -130.5q0 -52 36.5 -79.5t121.5 -51.5l197 -53q108 -29 164.5 -90.5t56.5 -149.5q0 -152 -120.5 -248t-307.5 -96q-87 0 -161 19t-133.5 57t-94 103t-35.5 151z" />
    <glyph glyph-name="uni015E" unicode="&#x15e;" horiz-adv-x="1325" 
d="M741 -211q0 -82 -77 -134t-175 -52q-110 0 -180 39l17 100q76 -43 168 -43q58 0 94.5 21.5t36.5 58.5q0 29 -27 43t-66 14q-35 0 -79 -14l-35 43l92 119q-200 26 -324 142t-127 306h170q4 -67 28 -120.5t61.5 -89.5t89 -60t108.5 -34.5t121 -10.5q168 0 280.5 87
t112.5 216q0 81 -53 131t-176 80l-269 65q-321 77 -321 324q0 201 156.5 334t396.5 133q234 0 369.5 -108t140.5 -292h-166q-4 119 -101 189t-253 70q-173 0 -272 -91t-99 -217q0 -79 53.5 -123t171.5 -73l279 -68q154 -37 235.5 -113.5t81.5 -205.5q0 -204 -164.5 -342
t-414.5 -138h-31l-49 -59q20 4 39 4q62 0 109.5 -33t47.5 -98z" />
    <glyph glyph-name="uni015F" unicode="&#x15f;" horiz-adv-x="1017" 
d="M596 -211q0 -82 -77 -134t-175 -52q-110 0 -180 39l16 100q76 -43 168 -43q58 0 94.5 21.5t36.5 58.5q0 29 -26.5 43t-65.5 14q-36 0 -80 -14l-35 43l93 117q-147 20 -237 100t-93 223h164q0 -101 78.5 -151t191.5 -50t183.5 54t70.5 133q0 50 -35 82t-119 55l-182 47
q-237 63 -237 248q0 143 114 237.5t293 94.5q108 0 192.5 -30.5t139 -99t57.5 -167.5h-158q-7 83 -71.5 124.5t-171.5 41.5q-108 0 -171 -50.5t-63 -130.5q0 -52 36.5 -79.5t121.5 -51.5l197 -53q108 -29 164.5 -90.5t56.5 -149.5q0 -152 -120.5 -248t-307.5 -96h-13
l-47 -59q20 4 39 4q62 0 110 -33t48 -98z" />
    <glyph glyph-name="Scaron" unicode="&#x160;" horiz-adv-x="1325" 
d="M881 1567h-189l-153 307h102l156 -191l227 191h111zM59 432h170q4 -67 28 -120.5t61.5 -89.5t89 -60t108.5 -34.5t121 -10.5q168 0 280.5 87t112.5 216q0 81 -53 131t-176 80l-269 65q-321 77 -321 324q0 201 156.5 334t396.5 133q234 0 369.5 -108t140.5 -292h-166
q-4 119 -101 189t-253 70q-173 0 -272 -91t-99 -217q0 -79 53.5 -123t171.5 -73l279 -68q154 -37 235.5 -113.5t81.5 -205.5q0 -204 -164.5 -342t-414.5 -138q-158 0 -283.5 50.5t-203 155.5t-79.5 251z" />
    <glyph glyph-name="scaron" unicode="&#x161;" horiz-adv-x="1017" 
d="M702 1184h-180l-123 323h103l123 -213l227 213h111zM35 305h164q0 -101 78.5 -151t191.5 -50t183.5 54t70.5 133q0 50 -35 82t-119 55l-182 47q-237 63 -237 248q0 143 114 237.5t293 94.5q108 0 192.5 -30.5t139 -99t57.5 -167.5h-158q-7 83 -71.5 124.5t-171.5 41.5
q-108 0 -171 -50.5t-63 -130.5q0 -52 36.5 -79.5t121.5 -51.5l197 -53q108 -29 164.5 -90.5t56.5 -149.5q0 -152 -120.5 -248t-307.5 -96q-87 0 -161 19t-133.5 57t-94 103t-35.5 151z" />
    <glyph glyph-name="Tcommaaccent" unicode="&#x162;" horiz-adv-x="1427" 
d="M782 -211q0 -82 -77 -134t-175 -52q-110 0 -180 39l17 100q76 -43 168 -43q58 0 94.5 21.5t36.5 58.5q0 29 -27 43t-66 14q-35 0 -79 -14l-35 43l106 135h-20l209 1315h-545l22 147h1266l-22 -147h-547l-209 -1315h-66l-67 -84q20 4 39 4q62 0 109.5 -33t47.5 -98z" />
    <glyph glyph-name="tcommaaccent" unicode="&#x163;" horiz-adv-x="755" 
d="M487 -211q0 -82 -76.5 -134t-174.5 -52q-111 0 -181 39l17 100q76 -43 168 -43q58 0 94.5 21.5t36.5 58.5q0 29 -26.5 43t-65.5 14q-36 0 -80 -14l-35 43l110 143q-116 49 -116 193q0 29 6 63l100 637h-147l18 129h154l45 262h164l-43 -262h270l-18 -129h-275l-100 -625
q-4 -32 -4 -43q0 -58 32.5 -83t96.5 -25q54 0 153 29l-20 -138q-92 -32 -180 -32q-22 0 -62 4l-57 -72q20 4 39 4q62 0 109.5 -33t47.5 -98z" />
    <glyph glyph-name="Tcaron" unicode="&#x164;" horiz-adv-x="1427" 
d="M971 1567h-189l-153 307h102l156 -191l227 191h111zM545 0l209 1315h-545l22 147h1266l-22 -147h-547l-209 -1315h-174z" />
    <glyph glyph-name="tcaron" unicode="&#x165;" horiz-adv-x="755" 
d="M668 1157h-86l129 426h200zM610 154l-20 -138q-92 -32 -180 -32q-119 0 -185.5 54.5t-66.5 162.5q0 29 6 63l100 637h-147l18 129h154l45 262h164l-43 -262h270l-18 -129h-275l-100 -625q-4 -32 -4 -43q0 -58 32.5 -83t96.5 -25q54 0 153 29z" />
    <glyph glyph-name="Tbar" unicode="&#x166;" horiz-adv-x="1445" 
d="M1081 670h-256l-106 -670h-174l106 670h-254l23 145h254l80 500h-545l22 147h1266l-22 -147h-547l-80 -500h256z" />
    <glyph glyph-name="tbar" unicode="&#x167;" horiz-adv-x="817" 
d="M623 16q-92 -32 -181 -32q-118 0 -183.5 54.5t-65.5 162.5q0 29 6 63l43 281h-152l21 123h151l37 237h-149l20 125h152l47 262h161l-41 -262h271l-21 -125h-274l-39 -237h283l-19 -123h-282l-43 -269q-5 -40 -5 -43q0 -58 32.5 -83t96.5 -25q55 0 154 29z" />
    <glyph glyph-name="Utilde" unicode="&#x168;" horiz-adv-x="1519" 
d="M807 1726q-43 0 -71.5 -40.5t-41.5 -106.5h-110q21 129 81.5 206t151.5 77q35 0 67 -15t56 -37t46.5 -44t46.5 -37t46 -15q81 0 113 148h111q-21 -128 -82.5 -205.5t-151.5 -77.5q-41 0 -81 23t-65.5 50.5t-57 50.5t-58.5 23zM1364 598q-44 -299 -220.5 -461t-457.5 -162
q-246 0 -381 126t-135 358q0 67 12 141l135 862h175l-138 -876q-10 -72 -10 -117q0 -170 92.5 -257t261.5 -87q196 0 324 117t164 344l137 876h172z" />
    <glyph glyph-name="utilde" unicode="&#x169;" horiz-adv-x="1212" 
d="M594 1354q-43 0 -71.5 -44.5t-41.5 -111.5h-112q21 128 82 205.5t151 77.5q35 0 66.5 -16t55.5 -38.5t46 -45t46.5 -38.5t47.5 -16q81 0 115 154h111q-21 -128 -82.5 -205.5t-151.5 -77.5q-42 0 -81 24.5t-64 53.5t-56.5 53.5t-60.5 24.5zM782 0l31 186
q-52 -99 -144 -155t-210 -56q-151 0 -234.5 82t-83.5 228q0 37 6 84l105 661h172l-98 -629q-9 -70 -9 -82q0 -204 203 -204q126 0 213 84t115 262l90 569h172l-164 -1030h-164z" />
    <glyph glyph-name="Umacron" unicode="&#x16a;" horiz-adv-x="1519" 
d="M627 1610l20 129h600l-20 -129h-600zM1364 598q-44 -299 -220.5 -461t-457.5 -162q-246 0 -381 126t-135 358q0 67 12 141l135 862h175l-138 -876q-10 -72 -10 -117q0 -170 92.5 -257t261.5 -87q196 0 324 117t164 344l137 876h172z" />
    <glyph glyph-name="umacron" unicode="&#x16b;" horiz-adv-x="1212" 
d="M424 1245l20 127h586l-20 -127h-586zM782 0l31 186q-52 -99 -144 -155t-210 -56q-151 0 -234.5 82t-83.5 228q0 37 6 84l105 661h172l-98 -629q-9 -70 -9 -82q0 -204 203 -204q126 0 213 84t115 262l90 569h172l-164 -1030h-164z" />
    <glyph glyph-name="Ubreve" unicode="&#x16c;" horiz-adv-x="1519" 
d="M1243 1876q-23 -145 -111 -229t-212 -84q-105 0 -168.5 65t-63.5 176q0 22 8 72h117q-4 -36 -4 -49q0 -66 33.5 -100.5t95.5 -34.5q70 0 118.5 48t61.5 136h125zM1364 598q-44 -299 -220.5 -461t-457.5 -162q-246 0 -381 126t-135 358q0 67 12 141l135 862h175l-138 -876
q-10 -72 -10 -117q0 -170 92.5 -257t261.5 -87q196 0 324 117t164 344l137 876h172z" />
    <glyph glyph-name="ubreve" unicode="&#x16d;" horiz-adv-x="1212" 
d="M713 1196q-105 0 -168.5 64.5t-63.5 175.5q0 35 8 71h113q-2 -16 -2 -47q0 -67 34.5 -104t96.5 -37q70 0 120.5 50t63.5 138h121q-23 -145 -111 -228t-212 -83zM782 0l31 186q-52 -99 -144 -155t-210 -56q-151 0 -234.5 82t-83.5 228q0 37 6 84l105 661h172l-98 -629
q-9 -70 -9 -82q0 -204 203 -204q126 0 213 84t115 262l90 569h172l-164 -1030h-164z" />
    <glyph glyph-name="Uring" unicode="&#x16e;" horiz-adv-x="1519" 
d="M918 1464q-96 0 -162 65t-66 159q0 111 81 195.5t202 84.5q96 0 161.5 -64.5t65.5 -158.5q0 -111 -81 -196t-201 -85zM958 1858q-67 0 -111 -47t-44 -111q0 -55 36 -90t91 -35q68 0 111.5 47t43.5 111q0 54 -36 89.5t-91 35.5zM1364 598q-44 -299 -220.5 -461
t-457.5 -162q-246 0 -381 126t-135 358q0 67 12 141l135 862h175l-138 -876q-10 -72 -10 -117q0 -170 92.5 -257t261.5 -87q196 0 324 117t164 344l137 876h172z" />
    <glyph glyph-name="uring" unicode="&#x16f;" horiz-adv-x="1212" 
d="M760 1579q79 0 132.5 -52.5t51.5 -129.5q2 -91 -64 -159.5t-167 -68.5q-78 0 -130.5 53t-52.5 130q0 91 66 159t164 68zM725 1266q54 0 87.5 35.5t31.5 84.5q2 40 -25.5 68.5t-68.5 28.5q-52 0 -85.5 -36t-33.5 -85q0 -40 26.5 -68t67.5 -28zM782 0l31 186
q-52 -99 -144 -155t-210 -56q-151 0 -234.5 82t-83.5 228q0 37 6 84l105 661h172l-98 -629q-9 -70 -9 -82q0 -204 203 -204q126 0 213 84t115 262l90 569h172l-164 -1030h-164z" />
    <glyph glyph-name="Uhungarumlaut" unicode="&#x170;" horiz-adv-x="1519" 
d="M999 1573l168 301h199l-266 -301h-101zM684 1573l166 301h201l-269 -301h-98zM1364 598q-44 -299 -220.5 -461t-457.5 -162q-246 0 -381 126t-135 358q0 67 12 141l135 862h175l-138 -876q-10 -72 -10 -117q0 -170 92.5 -257t261.5 -87q196 0 324 117t164 344l137 876
h172z" />
    <glyph glyph-name="uhungarumlaut" unicode="&#x171;" horiz-adv-x="1212" 
d="M784 1188l168 319h199l-266 -319h-101zM469 1188l166 319h201l-269 -319h-98zM782 0l31 186q-52 -99 -144 -155t-210 -56q-151 0 -234.5 82t-83.5 228q0 37 6 84l105 661h172l-98 -629q-9 -70 -9 -82q0 -204 203 -204q126 0 213 84t115 262l90 569h172l-164 -1030h-164z
" />
    <glyph glyph-name="Uogonek" unicode="&#x172;" horiz-adv-x="1519" 
d="M928 -375q-46 -14 -99 -14q-61 0 -107 38.5t-46 102.5q0 120 125 232q-55 -9 -115 -9q-246 0 -381 126t-135 358q0 67 12 141l135 862h175l-138 -876q-10 -72 -10 -117q0 -170 92.5 -257t261.5 -87q196 0 324 117t164 344l137 876h172l-131 -864q-32 -214 -132 -358.5
t-261 -210.5q-98 -83 -133 -138t-35 -104q0 -32 20.5 -50t53.5 -18q29 0 67 9z" />
    <glyph glyph-name="uogonek" unicode="&#x173;" horiz-adv-x="1212" 
d="M862 -375q-46 -14 -98 -14q-62 0 -109 37.5t-47 101.5q0 37 11.5 70t40 70t53 62.5t73.5 72.5l27 161q-52 -99 -144 -155t-210 -56q-151 0 -234.5 82t-83.5 228q0 37 6 84l105 661h172l-98 -629q-9 -70 -9 -82q0 -204 203 -204q126 0 213 84t115 262l90 569h172
l-164 -1030h-65q-90 -93 -118 -136t-28 -81q0 -29 21 -46.5t55 -17.5q31 0 66 9z" />
    <glyph glyph-name="Wcircumflex" unicode="&#x174;" horiz-adv-x="1988" 
d="M1130 1874h189l154 -307h-103l-156 190l-227 -190h-110zM1204 0l-96 1249h-4l-565 -1249h-195l-143 1462h176l106 -1251h4l566 1251h190l96 -1251h4l570 1251h174l-684 -1462h-199z" />
    <glyph glyph-name="wcircumflex" unicode="&#x175;" horiz-adv-x="1572" 
d="M852 1507h180l123 -323h-102l-123 213l-228 -213h-110zM940 1030l66 -844h4l417 844h166l-530 -1030h-174l-72 834h-4l-401 -834h-179l-92 1030h166l64 -844h4l397 844h168z" />
    <glyph glyph-name="Ycircumflex" unicode="&#x176;" horiz-adv-x="1357" 
d="M780 1874h189l153 -307h-102l-156 190l-227 -190h-111zM684 0h-174l96 606l-422 856h187l344 -698h6l555 698h197l-693 -856z" />
    <glyph glyph-name="ycircumflex" unicode="&#x177;" horiz-adv-x="1116" 
d="M625 1507h180l123 -323h-103l-123 213l-227 -213h-110zM350 -4l-209 1034h170l160 -852h4l486 852h176l-625 -1061q-112 -191 -208 -270.5t-236 -79.5q-55 0 -101 19l23 135q49 -15 82 -15q78 0 139 53t139 185z" />
    <glyph glyph-name="Ydieresis" unicode="&#x178;" horiz-adv-x="1357" 
d="M936 1608l33 207h174l-33 -207h-174zM563 1608l33 207h172l-33 -207h-172zM684 0h-174l96 606l-422 856h187l344 -698h6l555 698h197l-693 -856z" />
    <glyph glyph-name="Zacute" unicode="&#x179;" horiz-adv-x="1363" 
d="M784 1573l164 301h226l-277 -301h-113zM1374 1323l-1095 -1176h915l-25 -147h-1142l20 125l1104 1190h-883l23 147h1104z" />
    <glyph glyph-name="zacute" unicode="&#x17a;" horiz-adv-x="1064" 
d="M573 1188l164 319h219l-270 -319h-113zM1012 905l-750 -774h633l-18 -131h-848l16 111l754 788h-588l18 131h803z" />
    <glyph glyph-name="Zdotaccent" unicode="&#x17b;" horiz-adv-x="1363" 
d="M758 1608l33 207h192l-35 -207h-190zM1374 1323l-1095 -1176h915l-25 -147h-1142l20 125l1104 1190h-883l23 147h1104z" />
    <glyph glyph-name="zdotaccent" unicode="&#x17c;" horiz-adv-x="1064" 
d="M561 1245l33 207h194l-32 -207h-195zM1012 905l-750 -774h633l-18 -131h-848l16 111l754 788h-588l18 131h803z" />
    <glyph glyph-name="Zcaron" unicode="&#x17d;" horiz-adv-x="1363" 
d="M975 1567h-189l-153 307h102l156 -191l227 191h111zM1374 1323l-1095 -1176h915l-25 -147h-1142l20 125l1104 1190h-883l23 147h1104z" />
    <glyph glyph-name="zcaron" unicode="&#x17e;" horiz-adv-x="1064" 
d="M739 1184h-180l-123 323h103l123 -213l227 213h110zM1012 905l-750 -774h633l-18 -131h-848l16 111l754 788h-588l18 131h803z" />
    <glyph glyph-name="uni0192" unicode="&#x192;" horiz-adv-x="1038" 
d="M836 696h-256l-310 -921h-166l310 921h-178l20 131h203l129 383q51 152 154 237t237 85q67 0 135 -27l-24 -157q-55 28 -123 28q-78 0 -136 -52.5t-92 -152.5l-114 -344h231z" />
    <glyph glyph-name="AEacute" unicode="&#x1fc;" horiz-adv-x="2238" 
d="M1618 1573l164 301h225l-276 -301h-113zM1038 0l66 412h-617l-340 -412h-194l1208 1462h1098l-23 -147h-817l-80 -510h725l-24 -150h-725l-80 -508h815l-25 -147h-987zM1251 1337l-643 -780h518z" />
    <glyph glyph-name="aeacute" unicode="&#x1fd;" horiz-adv-x="1816" 
d="M975 1188l164 319h219l-271 -319h-112zM1673 303q-57 -159 -183 -243.5t-282 -84.5q-137 0 -232.5 64.5t-141.5 175.5q-63 -100 -177.5 -169t-265.5 -69q-140 0 -232.5 77t-92.5 206q0 144 115 237t341 93h283l14 90q4 23 4 61q0 177 -209 177q-104 0 -176.5 -50.5
t-95.5 -140.5h-166q39 155 161.5 241.5t285.5 86.5q130 0 213.5 -50.5t113.5 -140.5q76 89 175.5 140t211.5 51q187 0 286 -112.5t99 -301.5q0 -79 -18 -164h-754q-2 -18 -2 -57q0 -148 71.5 -228.5t205.5 -80.5q194 0 291 192h157zM1323 920q-128 0 -223 -90t-131 -240h587
q5 31 5 57q0 128 -59.5 200.5t-178.5 72.5zM422 106q133 0 233 80t121 220l10 71h-262q-291 0 -291 -207q0 -77 51.5 -120.5t137.5 -43.5z" />
    <glyph glyph-name="Oslashacute" unicode="&#x1fe;" horiz-adv-x="1529" 
d="M829 1573l164 301h226l-277 -301h-113zM709 -25q-244 0 -398 148l-172 -184l-86 77l183 197q-107 159 -107 389q0 177 54.5 337.5t151 282t241 193.5t313.5 72q244 0 397 -150l156 166l82 -73l-166 -179q108 -156 108 -391q0 -177 -54 -337.5t-150 -282t-240 -193.5
t-313 -72zM311 596q0 -145 49 -252l814 873q-107 120 -295 120q-106 0 -197 -38.5t-158.5 -107.5t-116 -162t-72.5 -203t-24 -230zM1284 866q0 148 -49 252l-811 -872q105 -121 295 -121q131 0 239.5 59.5t178.5 161.5t108.5 236t38.5 284z" />
    <glyph glyph-name="oslashacute" unicode="&#x1ff;" horiz-adv-x="1191" 
d="M631 1188l164 319h219l-271 -319h-112zM530 -25q-167 0 -278 91l-133 -142l-74 70l137 145q-82 111 -82 281q0 175 70.5 320t199 230t289.5 85q180 0 295 -103l117 123l74 -69l-125 -132q70 -112 70 -264q0 -175 -71 -320t-199.5 -230t-289.5 -85zM266 416q0 -88 31 -158
l553 584q-72 78 -201 78q-118 0 -206.5 -70t-132.5 -183t-44 -251zM926 614q0 74 -23 138l-547 -578q68 -65 187 -65q117 0 205.5 70t133 183.5t44.5 251.5z" />
    <glyph glyph-name="uni0218" unicode="&#x218;" horiz-adv-x="1325" 
d="M59 432h170q4 -67 28 -120.5t61.5 -89.5t89 -60t108.5 -34.5t121 -10.5q168 0 280.5 87t112.5 216q0 81 -53 131t-176 80l-269 65q-321 77 -321 324q0 201 156.5 334t396.5 133q234 0 369.5 -108t140.5 -292h-166q-4 119 -101 189t-253 70q-173 0 -272 -91t-99 -217
q0 -79 53.5 -123t171.5 -73l279 -68q154 -37 235.5 -113.5t81.5 -205.5q0 -204 -164.5 -342t-414.5 -138q-158 0 -283.5 50.5t-203 155.5t-79.5 251zM463 -256l22 147h205l-20 -135q-32 -215 -248 -215l12 78q57 0 85 31.5t36 93.5h-92z" />
    <glyph glyph-name="uni0219" unicode="&#x219;" horiz-adv-x="1017" 
d="M35 305h164q0 -101 78.5 -151t191.5 -50t183.5 54t70.5 133q0 50 -35 82t-119 55l-182 47q-237 63 -237 248q0 143 114 237.5t293 94.5q108 0 192.5 -30.5t139 -99t57.5 -167.5h-158q-7 83 -71.5 124.5t-171.5 41.5q-108 0 -171 -50.5t-63 -130.5q0 -52 36.5 -79.5
t121.5 -51.5l197 -53q108 -29 164.5 -90.5t56.5 -149.5q0 -152 -120.5 -248t-307.5 -96q-87 0 -161 19t-133.5 57t-94 103t-35.5 151zM285 -256l22 147h205l-20 -135q-32 -215 -248 -215l12 78q57 0 85 31.5t36 93.5h-92z" />
    <glyph glyph-name="uni021A" unicode="&#x21a;" horiz-adv-x="1429" 
d="M545 0l209 1315h-545l22 147h1266l-22 -147h-547l-209 -1315h-174zM494 -256l22 147h205l-21 -135q-32 -215 -247 -215l12 78q57 0 85 31.5t36 93.5h-92z" />
    <glyph glyph-name="uni021B" unicode="&#x21b;" horiz-adv-x="755" 
d="M610 154l-20 -138q-92 -32 -180 -32q-119 0 -185.5 54.5t-66.5 162.5q0 29 6 63l100 637h-147l18 129h154l45 262h164l-43 -262h270l-18 -129h-275l-100 -625q-4 -32 -4 -43q0 -58 32.5 -83t96.5 -25q54 0 153 29zM190 -256l23 147h205l-21 -135q-32 -215 -247 -215
l12 78q57 0 85 31.5t36 93.5h-93z" />
    <glyph glyph-name="uni0237" unicode="&#x237;" horiz-adv-x="540" 
d="M-43 -377q-52 0 -107 19l23 131q43 -13 68 -13q68 0 101 31.5t46 112.5l176 1126h172l-176 -1120q-22 -144 -96 -215.5t-207 -71.5z" />
    <glyph glyph-name="circumflex" unicode="&#x2c6;" horiz-adv-x="1157" 
d="M682 1507h180l123 -323h-102l-123 213l-228 -213h-110z" />
    <glyph glyph-name="caron" unicode="&#x2c7;" horiz-adv-x="1157" 
d="M752 1184h-181l-122 323h102l123 -213l227 213h111z" />
    <glyph glyph-name="breve" unicode="&#x2d8;" horiz-adv-x="1157" 
d="M664 1196q-105 0 -168.5 64.5t-63.5 175.5q0 35 8 71h113q-2 -16 -2 -47q0 -67 34.5 -104t96.5 -37q70 0 120.5 50t63.5 138h121q-23 -145 -111 -228t-212 -83z" />
    <glyph glyph-name="dotaccent" unicode="&#x2d9;" horiz-adv-x="1155" 
d="M594 1245l33 207h194l-33 -207h-194z" />
    <glyph glyph-name="ring" unicode="&#x2da;" horiz-adv-x="1157" 
d="M735 1579q79 0 133 -52.5t52 -129.5q2 -91 -64.5 -159.5t-167.5 -68.5q-78 0 -130 53t-52 130q0 91 65.5 159t163.5 68zM700 1266q54 0 87.5 35.5t31.5 84.5q2 40 -25.5 68.5t-68.5 28.5q-52 0 -85.5 -36t-33.5 -85q0 -40 26.5 -68t67.5 -28z" />
    <glyph glyph-name="ogonek" unicode="&#x2db;" horiz-adv-x="1157" 
d="M512 31h117q-109 -112 -141.5 -159.5t-32.5 -88.5q0 -29 20.5 -46.5t54.5 -17.5q32 0 66 9l-14 -103q-46 -14 -99 -14q-62 0 -108.5 37.5t-46.5 101.5q0 70 42 128t142 153z" />
    <glyph glyph-name="tilde" unicode="&#x2dc;" horiz-adv-x="1155" 
d="M569 1354q-42 0 -70 -44t-42 -112h-113q21 128 82.5 205.5t151.5 77.5q35 0 66.5 -16t55.5 -38.5t46 -45t46.5 -38.5t47.5 -16q80 0 114 154h111q-21 -128 -82.5 -205.5t-151.5 -77.5q-42 0 -81 24.5t-64 53.5t-56.5 53.5t-60.5 24.5z" />
    <glyph glyph-name="hungarumlaut" unicode="&#x2dd;" horiz-adv-x="1155" 
d="M680 1188l168 319h199l-267 -319h-100zM365 1188l165 319h201l-268 -319h-98z" />
    <glyph glyph-name="Wgrave" unicode="&#x1e80;" horiz-adv-x="1988" 
d="M1214 1573h-106l-188 301h215zM1204 0l-96 1249h-4l-565 -1249h-195l-143 1462h176l106 -1251h4l566 1251h190l96 -1251h4l570 1251h174l-684 -1462h-199z" />
    <glyph glyph-name="wgrave" unicode="&#x1e81;" horiz-adv-x="1572" 
d="M928 1188h-107l-178 319h205zM940 1030l66 -844h4l417 844h166l-530 -1030h-174l-72 834h-4l-401 -834h-179l-92 1030h166l64 -844h4l397 844h168z" />
    <glyph glyph-name="Wacute" unicode="&#x1e82;" horiz-adv-x="1988" 
d="M1122 1573l164 301h225l-276 -301h-113zM1204 0l-96 1249h-4l-565 -1249h-195l-143 1462h176l106 -1251h4l566 1251h190l96 -1251h4l570 1251h174l-684 -1462h-199z" />
    <glyph glyph-name="wacute" unicode="&#x1e83;" horiz-adv-x="1572" 
d="M829 1188l164 319h219l-270 -319h-113zM940 1030l66 -844h4l417 844h166l-530 -1030h-174l-72 834h-4l-401 -834h-179l-92 1030h166l64 -844h4l397 844h168z" />
    <glyph glyph-name="Wdieresis" unicode="&#x1e84;" horiz-adv-x="1988" 
d="M1268 1608l32 207h175l-33 -207h-174zM895 1608l33 207h172l-33 -207h-172zM1204 0l-96 1249h-4l-565 -1249h-195l-143 1462h176l106 -1251h4l566 1251h190l96 -1251h4l570 1251h174l-684 -1462h-199z" />
    <glyph glyph-name="wdieresis" unicode="&#x1e85;" horiz-adv-x="1572" 
d="M995 1245l33 207h174l-33 -207h-174zM623 1245l32 207h172l-32 -207h-172zM940 1030l66 -844h4l417 844h166l-530 -1030h-174l-72 834h-4l-401 -834h-179l-92 1030h166l64 -844h4l397 844h168z" />
    <glyph glyph-name="Ygrave" unicode="&#x1ef2;" horiz-adv-x="1357" 
d="M911 1573h-106l-189 301h215zM684 0h-174l96 606l-422 856h187l344 -698h6l555 698h197l-693 -856z" />
    <glyph glyph-name="ygrave" unicode="&#x1ef3;" horiz-adv-x="1116" 
d="M713 1188h-107l-178 319h205zM350 -4l-209 1034h170l160 -852h4l486 852h176l-625 -1061q-112 -191 -208 -270.5t-236 -79.5q-55 0 -101 19l23 135q49 -15 82 -15q78 0 139 53t139 185z" />
    <glyph glyph-name="endash" unicode="&#x2013;" horiz-adv-x="1386" 
d="M176 504l23 135h1030l-23 -135h-1030z" />
    <glyph glyph-name="emdash" unicode="&#x2014;" horiz-adv-x="2054" 
d="M176 504l23 135h1697l-22 -135h-1698z" />
    <glyph glyph-name="quoteleft" unicode="&#x2018;" horiz-adv-x="630" 
d="M535 1198l-33 -201h-223l34 228q22 130 110.5 208t223.5 78l-16 -102q-170 0 -197 -182l-4 -29h105z" />
    <glyph glyph-name="quoteright" unicode="&#x2019;" horiz-adv-x="630" 
d="M330 1307l32 200h224l-35 -227q-22 -130 -110.5 -208.5t-223.5 -78.5l16 103q170 0 197 182l4 29h-104z" />
    <glyph glyph-name="quotesinglbase" unicode="&#x201a;" horiz-adv-x="630" 
d="M131 59l33 201h223l-35 -227q-22 -130 -110.5 -208.5t-223.5 -78.5l17 102q168 0 196 183l5 28h-105z" />
    <glyph glyph-name="quotedblleft" unicode="&#x201c;" horiz-adv-x="1069" 
d="M973 1198l-33 -201h-223l35 228q22 130 110 208t223 78l-16 -102q-170 0 -197 -182l-4 -29h105zM535 1198l-33 -201h-223l34 228q22 130 110.5 208t223.5 78l-16 -102q-170 0 -197 -182l-4 -29h105z" />
    <glyph glyph-name="quotedblright" unicode="&#x201d;" horiz-adv-x="1069" 
d="M328 1307l32 200h224l-35 -227q-22 -130 -110.5 -208.5t-223.5 -78.5l16 103q170 0 197 182l4 29h-104zM768 1307l33 200h223l-35 -227q-22 -130 -110.5 -208.5t-223.5 -78.5l17 103q169 0 196 182l4 29h-104z" />
    <glyph glyph-name="quotedblbase" unicode="&#x201e;" horiz-adv-x="1069" 
d="M131 59l33 201h223l-35 -227q-22 -130 -110.5 -208.5t-223.5 -78.5l17 102q168 0 196 183l5 28h-105zM569 59l33 201h223l-34 -227q-22 -130 -110.5 -208.5t-223.5 -78.5l16 102q169 0 197 183l4 28h-105z" />
    <glyph glyph-name="dagger" unicode="&#x2020;" horiz-adv-x="755" 
d="M778 1139h-241l-80 -514h-121l82 514h-242l17 114h243l37 234h119l-37 -234h242z" />
    <glyph glyph-name="daggerdbl" unicode="&#x2021;" horiz-adv-x="755" 
d="M731 848h-242l-34 -223h-119l35 223h-242l18 113h242l29 192h-242l19 113h241l35 221h121l-35 -221h240l-19 -113h-239l-31 -192h242z" />
    <glyph glyph-name="bullet" unicode="&#x2022;" horiz-adv-x="905" 
d="M195 608q0 112 80.5 191.5t193.5 79.5q111 0 190.5 -79.5t79.5 -191.5t-79.5 -191t-190.5 -79q-113 0 -193.5 79t-80.5 191z" />
    <glyph glyph-name="ellipsis" unicode="&#x2026;" horiz-adv-x="1449" 
d="M942 0l35 223h223l-35 -223h-223zM532 0l35 223h224l-35 -223h-224zM121 0l35 223h223l-35 -223h-223z" />
    <glyph glyph-name="guilsinglleft" unicode="&#x2039;" horiz-adv-x="651" 
d="M459 92h-125l-211 402l330 401h133l-287 -401z" />
    <glyph glyph-name="guilsinglright" unicode="&#x203a;" horiz-adv-x="651" 
d="M186 897h125l211 -401l-329 -402h-134l287 402z" />
    <glyph glyph-name="fraction" unicode="&#x2044;" horiz-adv-x="376" 
d="M-354 -25h-144l1297 1514h143z" />
    <glyph glyph-name="uni2070" unicode="&#x2070;" horiz-adv-x="849" 
d="M461 647q-133 0 -211 92t-78 242q0 98 28 188t78 159.5t125 111t162 41.5q133 0 210 -92t77 -242q0 -98 -28 -188.5t-78 -159.5t-124 -110.5t-161 -41.5zM557 1372q-92 0 -153.5 -82.5t-84.5 -220.5q-10 -49 -10 -98q0 -101 41 -158t117 -57q93 0 155 82.5t83 218.5
q10 51 10 100q0 100 -40.5 157.5t-117.5 57.5z" />
    <glyph glyph-name="uni2074" unicode="&#x2074;" horiz-adv-x="833" 
d="M750 1462l-82 -508h166l-15 -100h-168l-28 -192h-129l28 192h-397l16 102l459 506h150zM600 1331l-336 -377h275z" />
    <glyph glyph-name="uni2075" unicode="&#x2075;" horiz-adv-x="772" 
d="M483 1094q-100 0 -164 -76h-122l114 446h486l-19 -110h-383l-61 -224q31 29 81 48.5t103 19.5q111 0 173.5 -61.5t62.5 -163.5q0 -134 -93.5 -230t-240.5 -96q-130 0 -203.5 69t-73.5 189h136q0 -70 39.5 -111.5t111.5 -41.5q87 0 137.5 60.5t50.5 143.5q0 61 -34 99.5
t-101 38.5z" />
    <glyph glyph-name="uni2076" unicode="&#x2076;" horiz-adv-x="792" 
d="M555 1372q-94 0 -162.5 -86.5t-87.5 -216.5q79 125 221 125q103 0 174.5 -65t71.5 -168q0 -128 -94.5 -221t-233.5 -93q-125 0 -200.5 85t-75.5 229q0 136 52 255.5t143.5 192t199.5 72.5q110 0 178.5 -61.5t69.5 -166.5h-125q-3 56 -36.5 87.5t-94.5 31.5zM455 752
q79 0 132.5 58.5t53.5 141.5q0 65 -41 104.5t-108 39.5q-79 0 -134 -57.5t-55 -137.5q0 -67 42 -108t110 -41z" />
    <glyph glyph-name="uni2077" unicode="&#x2077;" horiz-adv-x="724" 
d="M639 1354h-442l20 108h580l-17 -102q-161 -167 -243 -330t-117 -368h-144q61 369 363 692z" />
    <glyph glyph-name="uni2078" unicode="&#x2078;" horiz-adv-x="800" 
d="M438 647q-134 0 -215.5 57t-81.5 152q0 85 62.5 146.5t142.5 74.5q-104 43 -104 152q0 112 87 182t216 70q113 0 184.5 -53.5t71.5 -145.5q0 -76 -46 -133.5t-120 -83.5q58 -12 97.5 -58t39.5 -106q0 -112 -95 -183t-239 -71zM506 1120q75 0 122.5 41t47.5 109
q0 54 -39 81t-100 27q-75 0 -123.5 -39.5t-48.5 -107.5q0 -54 39.5 -82.5t101.5 -28.5zM471 1022q-89 0 -142 -43.5t-53 -110.5q0 -55 46 -86.5t124 -31.5q91 0 143 45t52 110q0 53 -45 85t-125 32z" />
    <glyph glyph-name="uni2079" unicode="&#x2079;" horiz-adv-x="792" 
d="M410 756q93 0 160.5 86t86.5 217q-77 -127 -221 -127q-102 0 -172.5 65.5t-70.5 167.5q0 130 93 223t232 93q126 0 202.5 -85.5t76.5 -230.5q0 -136 -52.5 -255t-144 -191t-199.5 -72q-111 0 -179.5 60.5t-69.5 166.5h124q3 -57 37 -87.5t97 -30.5zM510 1374
q-80 0 -133 -57.5t-53 -138.5q0 -67 40.5 -107.5t106.5 -40.5q81 0 134.5 57t53.5 140q0 66 -41 106.5t-108 40.5z" />
    <glyph glyph-name="uni2080" unicode="&#x2080;" horiz-adv-x="849" 
d="M311 -301q-133 0 -210.5 92t-77.5 242q0 131 47.5 244t138.5 184t207 71q133 0 209.5 -91.5t76.5 -241.5q0 -98 -28 -188.5t-78 -159.5t-124 -110.5t-161 -41.5zM408 424q-92 0 -153.5 -82.5t-84.5 -220.5q-10 -49 -10 -98q0 -101 40.5 -158.5t116.5 -57.5q93 0 155 82.5
t83 219.5q10 51 10 100q0 100 -40 157.5t-117 57.5z" />
    <glyph glyph-name="uni2081" unicode="&#x2081;" horiz-adv-x="684" 
d="M524 -184l-16 -103h-547l16 103h207l78 485h-205l15 96q95 0 148 14t76.5 37.5t41.5 69.5h90l-111 -702h207z" />
    <glyph glyph-name="uni2082" unicode="&#x2082;" horiz-adv-x="722" 
d="M616 322q0 -48 -17 -89.5t-40 -71t-67 -62t-76 -51.5t-90 -50q-94 -51 -146.5 -92t-60.5 -82h430l-19 -111h-579l8 54q9 56 38.5 105t78 89.5t89.5 68t101 60.5q119 64 170 111t51 114q0 46 -30 75.5t-92 29.5q-69 0 -119 -45t-64 -111h-131q25 114 110.5 190t213.5 76
q113 0 177 -58.5t64 -149.5z" />
    <glyph glyph-name="uni2083" unicode="&#x2083;" horiz-adv-x="763" 
d="M586 -49q0 -98 -83.5 -175t-230.5 -77q-131 0 -208.5 67.5t-77.5 182.5h131q0 -69 43.5 -106.5t120.5 -37.5q81 0 129.5 43t48.5 107q0 52 -37.5 80t-104.5 28h-81l18 105h80q71 0 116.5 39t45.5 108q0 48 -33 78.5t-94 30.5q-73 0 -120 -38t-59 -103h-129
q26 110 108.5 179.5t209.5 69.5q118 0 183 -59t65 -147q0 -81 -52.5 -140t-125.5 -71q62 -12 99.5 -56.5t37.5 -107.5z" />
    <glyph glyph-name="uni2084" unicode="&#x2084;" horiz-adv-x="833" 
d="M600 514l-82 -508h166l-14 -100h-168l-29 -193h-129l29 193h-398l17 102l459 506h149zM451 383l-336 -377h274z" />
    <glyph glyph-name="uni2085" unicode="&#x2085;" horiz-adv-x="772" 
d="M334 145q-101 0 -164 -75h-123l115 446h485l-18 -110h-383l-62 -224q31 29 81.5 48.5t103.5 19.5q111 0 173 -61.5t62 -163.5q0 -134 -93.5 -230t-240.5 -96q-130 0 -203 69t-73 189h135q0 -70 40 -112t112 -42q86 0 137 61t51 144q0 61 -34 99t-101 38z" />
    <glyph glyph-name="uni2086" unicode="&#x2086;" horiz-adv-x="792" 
d="M406 424q-94 0 -162.5 -86.5t-87.5 -216.5q79 125 221 125q102 0 174 -65.5t72 -168.5q0 -128 -94.5 -220.5t-233.5 -92.5q-125 0 -201 84.5t-76 228.5q0 136 52.5 255.5t144 192t199.5 72.5q110 0 178.5 -61t69.5 -166h-125q-3 56 -36.5 87.5t-94.5 31.5zM305 -197
q79 0 133 59t54 142q0 65 -41.5 104t-108.5 39q-79 0 -133.5 -57t-54.5 -137q0 -67 41.5 -108.5t109.5 -41.5z" />
    <glyph glyph-name="uni2087" unicode="&#x2087;" horiz-adv-x="724" 
d="M489 406h-442l21 108h579l-16 -102q-161 -167 -243.5 -330.5t-117.5 -368.5h-143q61 372 362 693z" />
    <glyph glyph-name="uni2088" unicode="&#x2088;" horiz-adv-x="800" 
d="M289 -301q-134 0 -215.5 57t-81.5 152q0 85 62.5 146.5t142.5 74.5q-105 43 -105 152q0 112 87 181.5t216 69.5q113 0 184.5 -53t71.5 -145q0 -76 -46 -133.5t-120 -83.5q58 -12 98 -58t40 -106q0 -112 -95 -183t-239 -71zM356 172q75 0 122.5 41t47.5 109q0 54 -39 81
t-100 27q-75 0 -123.5 -39.5t-48.5 -107.5q0 -54 39.5 -82.5t101.5 -28.5zM322 74q-89 0 -142 -43.5t-53 -110.5q0 -55 46 -87t124 -32q91 0 143 45.5t52 110.5q0 53 -45 85t-125 32z" />
    <glyph glyph-name="uni2089" unicode="&#x2089;" horiz-adv-x="792" 
d="M260 -193q93 0 161 86.5t87 217.5q-77 -127 -221 -127q-102 0 -173 65.5t-71 167.5q0 130 93.5 222.5t232.5 92.5q126 0 202 -85t76 -230q0 -136 -52 -255t-143.5 -191t-199.5 -72q-111 0 -180 60.5t-70 166.5h125q3 -58 37 -88.5t96 -30.5zM360 426q-80 0 -133 -58
t-53 -139q0 -67 41 -107t107 -40q81 0 134.5 57t53.5 140q0 66 -41.5 106.5t-108.5 40.5z" />
    <glyph glyph-name="Euro" unicode="&#x20ac;" horiz-adv-x="1441" 
d="M1331 426q-65 -207 -214 -329t-365 -122t-348 147t-142 400h-166l21 123h145q5 69 23 170h-142l19 123h155q82 249 259 399t395 150q210 0 321 -121.5t111 -327.5h-162q-11 299 -293 299q-150 0 -271.5 -108.5t-187.5 -290.5h496l-43 -123h-489q-18 -95 -23 -170h449
l-41 -123h-408q11 -188 98.5 -292.5t245.5 -104.5q152 0 246.5 82.5t140.5 218.5h170z" />
    <glyph glyph-name="trademark" unicode="&#x2122;" horiz-adv-x="1734" 
d="M496 815h-131l84 535h-226l21 112h581l-18 -112h-227zM1229 815h-96l-82 522h-4l-82 -522h-119l104 647h195l65 -477h9l217 477h188l-104 -647h-125l82 522h-4z" />
    <glyph glyph-name="uni2153" unicode="&#x2153;" horiz-adv-x="1851" 
d="M403 -25h-143l1296 1514h144zM721 764l-16 -102h-547l16 102h207l78 485h-205l14 97q95 0 148.5 13.5t77 37t41.5 69.5h90l-111 -702h207zM1718 238q0 -98 -83 -175t-230 -77q-131 0 -209 67.5t-78 182.5h131q0 -69 43.5 -106.5t120.5 -37.5q81 0 129.5 43t48.5 107
q0 52 -37 80t-104 28h-82l18 105h80q71 0 116.5 39t45.5 108q0 48 -33 78.5t-94 30.5q-72 0 -119 -38t-59 -104h-129q26 110 108.5 180t208.5 70q118 0 183 -59.5t65 -147.5q0 -81 -52.5 -140t-125.5 -71q62 -12 99.5 -56t37.5 -107z" />
    <glyph glyph-name="uni2154" unicode="&#x2154;" horiz-adv-x="1894" 
d="M446 -25h-143l1296 1514h144zM817 1270q0 -48 -17 -89.5t-40 -71t-67.5 -62t-76.5 -51.5t-90 -50q-94 -51 -146.5 -92t-60.5 -82h431l-19 -110h-579l8 53q9 56 38.5 105t78 89.5t89.5 68t101 60.5q119 64 170 111.5t51 114.5q0 46 -30.5 75t-92.5 29q-69 0 -118.5 -45
t-63.5 -111h-131q25 114 110.5 190.5t212.5 76.5q113 0 177.5 -59t64.5 -150zM1761 238q0 -98 -83 -175t-230 -77q-131 0 -209 67.5t-78 182.5h131q0 -69 43.5 -106.5t120.5 -37.5q81 0 129.5 43t48.5 107q0 52 -37 80t-104 28h-82l19 105h79q71 0 116.5 39t45.5 108
q0 48 -33 78.5t-94 30.5q-72 0 -119 -38t-59 -104h-129q26 110 108.5 180t208.5 70q118 0 183 -59.5t65 -147.5q0 -81 -52.5 -140t-125.5 -71q62 -12 99.5 -56t37.5 -107z" />
    <glyph glyph-name="uni215B" unicode="&#x215b;" horiz-adv-x="1888" 
d="M403 -25h-143l1296 1514h144zM721 764l-16 -102h-547l16 102h207l78 485h-205l14 97q95 0 148.5 13.5t77 37t41.5 69.5h90l-111 -702h207zM1421 -14q-134 0 -215.5 57t-81.5 152q0 85 62.5 146.5t142.5 74.5q-104 43 -104 151q0 112 87 182t216 70q113 0 184.5 -53
t71.5 -145q0 -76 -46 -134.5t-120 -83.5q58 -12 97.5 -57.5t39.5 -105.5q0 -112 -95 -183t-239 -71zM1489 459q75 0 122.5 40.5t47.5 108.5q0 54 -39 81.5t-100 27.5q-75 0 -123.5 -40t-48.5 -108q0 -54 39.5 -82t101.5 -28zM1454 360q-89 0 -141.5 -43t-52.5 -110
q0 -55 46 -87t124 -32q91 0 142.5 45.5t51.5 110.5q0 53 -44.5 84.5t-125.5 31.5z" />
    <glyph glyph-name="uni215C" unicode="&#x215c;" horiz-adv-x="1925" 
d="M440 -25h-143l1296 1514h144zM786 899q0 -98 -83 -175t-230 -77q-131 0 -209 67.5t-78 182.5h131q0 -68 43.5 -105.5t120.5 -37.5q81 0 129.5 43t48.5 106q0 52 -37.5 80.5t-103.5 28.5h-82l19 104h80q71 0 116 39.5t45 108.5q0 48 -33 78t-94 30q-73 0 -119.5 -38
t-58.5 -103h-129q26 110 109 180t209 70q118 0 182.5 -59.5t64.5 -147.5q0 -81 -52.5 -140t-125.5 -71q62 -12 99.5 -56.5t37.5 -107.5zM1458 -14q-134 0 -215.5 57t-81.5 152q0 85 62.5 146.5t142.5 74.5q-104 43 -104 151q0 112 87 182t216 70q113 0 184.5 -53t71.5 -145
q0 -76 -46 -134.5t-120 -83.5q58 -12 97.5 -57.5t39.5 -105.5q0 -112 -95 -183t-239 -71zM1526 459q75 0 122.5 40.5t47.5 108.5q0 54 -39.5 81.5t-100.5 27.5q-75 0 -123.5 -40t-48.5 -108q0 -54 40 -82t102 -28zM1491 360q-89 0 -142 -43t-53 -110q0 -55 46 -87t124 -32
q91 0 143 45.5t52 110.5q0 53 -44.5 84.5t-125.5 31.5z" />
    <glyph glyph-name="uni215D" unicode="&#x215d;" horiz-adv-x="1898" 
d="M414 -25h-144l1297 1514h143zM535 1094q-100 0 -164 -76h-123l114 446h486l-19 -110h-383l-61 -224q31 29 81 48.5t103 19.5q111 0 173.5 -61.5t62.5 -163.5q0 -134 -93.5 -230t-240.5 -96q-130 0 -203 69t-73 189h135q0 -70 39.5 -111.5t111.5 -41.5q87 0 138 60.5
t51 143.5q0 61 -34 99.5t-101 38.5zM1432 -14q-134 0 -215.5 57t-81.5 152q0 85 62 146.5t142 74.5q-104 43 -104 151q0 112 87 182t216 70q113 0 184.5 -53t71.5 -145q0 -76 -46 -134.5t-120 -83.5q58 -12 97.5 -57.5t39.5 -105.5q0 -112 -94.5 -183t-238.5 -71zM1499 459
q75 0 122.5 40.5t47.5 108.5q0 54 -39 81.5t-100 27.5q-75 0 -123.5 -40t-48.5 -108q0 -54 39.5 -82t101.5 -28zM1464 360q-89 0 -141.5 -43t-52.5 -110q0 -55 46 -87t124 -32q91 0 142.5 45.5t51.5 110.5q0 53 -44.5 84.5t-125.5 31.5z" />
    <glyph glyph-name="uni215E" unicode="&#x215e;" horiz-adv-x="1765" 
d="M281 -25h-144l1297 1514h143zM690 1354h-442l20 108h580l-17 -102q-161 -167 -243 -330t-117 -368h-143q61 371 362 692zM1298 -14q-134 0 -215.5 57t-81.5 152q0 85 62.5 146.5t142.5 74.5q-104 43 -104 151q0 112 87 182t216 70q113 0 184.5 -53t71.5 -145
q0 -76 -46 -134.5t-120 -83.5q58 -12 97.5 -57.5t39.5 -105.5q0 -112 -95 -183t-239 -71zM1366 459q75 0 122.5 40.5t47.5 108.5q0 54 -39 81.5t-100 27.5q-75 0 -123.5 -40t-48.5 -108q0 -54 39.5 -82t101.5 -28zM1331 360q-89 0 -141.5 -43t-52.5 -110q0 -55 46 -87
t124 -32q91 0 142.5 45.5t51.5 110.5q0 53 -44.5 84.5t-125.5 31.5z" />
    <glyph glyph-name="minus" unicode="&#x2212;" 
d="M158 612l20 140h1067l-20 -140h-1067z" />
    <glyph glyph-name="i.dot" horiz-adv-x="540" 
d="M287 1245l32 207h195l-33 -207h-194zM264 1030h172l-162 -1030h-172z" />
    <glyph glyph-name="a.ord" horiz-adv-x="808" 
d="M580 647q-2 43 6 111q-32 -59 -99 -93t-145 -34q-89 0 -146 48t-57 128q0 98 70.5 156.5t198.5 70.5l223 25q8 68 8 71q0 107 -125 107q-131 0 -162 -117h-137q28 108 109 168t200 60t185.5 -53.5t66.5 -151.5q0 -15 -4 -51l-45 -289q-14 -80 -14 -156h-133zM606 911
l10 60l-176 -21q-82 -12 -120.5 -39.5t-38.5 -91.5q0 -40 28 -65t80 -25q79 0 141.5 48.5t75.5 133.5z" />
    <glyph glyph-name="b.ord" horiz-adv-x="899" 
d="M319 774l-20 -127h-137l157 991h142l-68 -428q35 60 93.5 99t138.5 39q118 0 189 -79.5t71 -213.5q0 -113 -43 -210t-124.5 -156.5t-182.5 -59.5q-77 0 -137.5 42.5t-78.5 102.5zM584 1241q-92 0 -153 -66t-79 -176q-8 -55 -8 -79q0 -85 45 -135t123 -50
q104 0 167.5 91.5t63.5 224.5q0 88 -42 139t-117 51z" />
    <glyph glyph-name="c.ord" horiz-adv-x="792" 
d="M164 926q0 184 110 304t271 120q117 0 185.5 -66t68.5 -176h-133q-3 63 -37.5 97t-93.5 34q-102 0 -166 -90.5t-64 -222.5q0 -85 39.5 -136t106.5 -51q131 0 178 133h133q-34 -114 -116.5 -177.5t-199.5 -63.5q-126 0 -204 80t-78 215z" />
    <glyph glyph-name="d.ord" horiz-adv-x="892" 
d="M721 1206l67 432h144l-158 -991h-137l18 119q-36 -59 -97 -98t-140 -39q-116 0 -187 78t-71 211q0 175 97.5 302.5t250.5 127.5q76 0 134.5 -41.5t78.5 -100.5zM461 735q90 0 150 66t81 178q6 55 6 78q0 83 -46 133.5t-122 50.5q-105 0 -168 -93t-63 -226
q0 -84 43 -135.5t119 -51.5z" />
    <glyph glyph-name="e.ord" horiz-adv-x="817" 
d="M780 854q-37 -107 -123 -165t-196 -58q-137 0 -218 79t-81 214q0 184 109.5 305t271.5 121q128 0 198 -75.5t70 -199.5q0 -35 -14 -114h-498q-2 -10 -2 -31q0 -91 46 -141t126 -50q65 0 107.5 28.5t70.5 86.5h133zM535 1239q-79 0 -139 -53.5t-85 -143.5h365q4 28 4 41
q0 72 -37 114t-108 42z" />
    <glyph glyph-name="f.ord" horiz-adv-x="487" 
d="M270 1227h-96l16 104h97l16 117q17 98 79.5 148.5t158.5 50.5q31 0 92 -9l-19 -112q-36 8 -65 8q-89 0 -107 -92l-14 -111h139l-14 -104h-143l-93 -580h-141z" />
    <glyph glyph-name="g.ord" horiz-adv-x="890" 
d="M643 690l16 107q-36 -58 -95 -95.5t-138 -37.5q-118 0 -189 75.5t-71 204.5q0 105 42 197t121.5 149.5t178.5 57.5q80 0 141.5 -42.5t79.5 -101.5l21 127h139l-101 -626q-27 -159 -125.5 -237.5t-250.5 -78.5q-128 0 -205.5 54.5t-83.5 152.5h139q13 -107 156 -107
q195 0 225 201zM696 995q9 55 9 74q0 79 -46.5 125.5t-123.5 46.5q-102 0 -165 -84t-63 -207q0 -86 42 -135t120 -49q89 0 148.5 62t78.5 167z" />
    <glyph glyph-name="h.ord" horiz-adv-x="876" 
d="M459 1640l-68 -426q33 60 94.5 97t137.5 37q100 0 157.5 -55t57.5 -152q0 -36 -4 -56l-70 -438h-141l63 408q4 32 4 49q0 131 -127 131q-75 0 -130 -53t-73 -160l-59 -375h-141l157 993h142z" />
    <glyph glyph-name="i.ord" horiz-adv-x="419" 
d="M283 1458l22 152h154l-23 -152h-153zM268 1331h142l-107 -684h-141z" />
    <glyph glyph-name="j.ord" horiz-adv-x="421" 
d="M283 1460l24 152h154l-23 -152h-155zM74 399q-36 0 -78 11l18 106q28 -4 45 -4q45 0 66.5 18.5t28.5 67.5l116 733h142l-115 -733q-30 -199 -223 -199z" />
    <glyph glyph-name="k.ord" horiz-adv-x="835" 
d="M643 647l-201 314l-106 -89l-35 -225h-141l157 993h142l-99 -616l361 307h168l-338 -287l248 -397h-156z" />
    <glyph glyph-name="l.ord" horiz-adv-x="421" 
d="M301 647h-141l157 993h142z" />
    <glyph glyph-name="m.ord" horiz-adv-x="1300" 
d="M616 1348q162 0 195 -140q44 66 107.5 103t138.5 37q99 0 152 -54.5t53 -150.5q0 -33 -5 -58l-69 -438h-141l63 410q4 36 4 53q0 125 -115 125q-74 0 -125.5 -53t-68.5 -158l-60 -377h-143l66 410q6 30 6 57q0 121 -119 121q-71 0 -124 -53.5t-71 -157.5l-59 -377h-141
l108 684h140l-21 -119q36 62 97.5 99t131.5 37z" />
    <glyph glyph-name="n.ord" horiz-adv-x="876" 
d="M408 1331l-21 -119q35 62 97.5 99t138.5 37q100 0 157.5 -55t57.5 -152q0 -38 -4 -58l-70 -436h-141l63 406q4 18 4 51q0 131 -127 131q-75 0 -130 -53t-73 -160l-59 -375h-141l108 684h140z" />
    <glyph glyph-name="o.ord" horiz-adv-x="851" 
d="M459 631q-133 0 -214 80t-81 217q0 179 107 300.5t272 121.5q135 0 216 -80.5t81 -218.5q0 -179 -107 -299.5t-274 -120.5zM535 1239q-105 0 -167.5 -92.5t-62.5 -222.5q0 -87 43.5 -136t120.5 -49q105 0 167 93t60 225q1 86 -41.5 134t-119.5 48z" />
    <glyph glyph-name="p.ord" horiz-adv-x="897" 
d="M324 770l-60 -362h-141l147 923h138l-21 -121q36 59 97 98.5t141 39.5q118 0 189 -79.5t71 -213.5q0 -112 -43 -208.5t-124.5 -156t-182.5 -59.5q-77 0 -134 40t-77 99zM584 1239q-92 0 -152.5 -65t-79.5 -175q-2 -16 -4 -33.5t-3 -27.5t-1 -18q0 -84 45 -133.5
t123 -49.5q104 0 167.5 90.5t63.5 223.5q0 88 -41.5 138t-117.5 50z" />
    <glyph glyph-name="q.ord" horiz-adv-x="894" 
d="M725 1206l23 125h137l-148 -923h-141l55 356q-34 -58 -92 -95.5t-137 -37.5q-118 0 -189 77.5t-71 209.5q0 176 97 303t249 127q80 0 139.5 -41t77.5 -101zM463 737q90 0 150 65.5t79 176.5q8 52 8 78q0 84 -45 133t-120 49q-104 0 -169 -91.5t-65 -223.5
q0 -86 42.5 -136.5t119.5 -50.5z" />
    <glyph glyph-name="r.ord" horiz-adv-x="595" 
d="M674 1339l-21 -131q-18 4 -61 4q-87 0 -154 -61t-86 -176l-51 -328h-141l108 684h140l-27 -160q34 81 98.5 126.5t138.5 45.5q24 0 56 -4z" />
    <glyph glyph-name="s.ord" horiz-adv-x="763" 
d="M133 850h133q0 -59 48.5 -90t117.5 -31q68 0 111 32.5t43 80.5q0 57 -99 82l-120 30q-160 39 -160 166q0 98 79 164t203 66q118 0 192 -53t77 -152h-129q-3 52 -43 79t-107 27q-64 0 -100.5 -31t-36.5 -79q0 -32 23 -50.5t73 -31.5l131 -33q150 -38 150 -160
q0 -106 -82.5 -170.5t-210.5 -64.5t-209 54.5t-84 164.5z" />
    <glyph glyph-name="t.ord" horiz-adv-x="559" 
d="M516 768l-18 -109q-60 -22 -129 -22q-174 0 -174 143q0 15 4 47l65 400h-98l16 104h99l30 172h135l-26 -172h170l-17 -104h-174l-61 -385q-2 -8 -2 -25q0 -65 82 -65q41 0 98 16z" />
    <glyph glyph-name="u.ord" horiz-adv-x="868" 
d="M612 649l21 117q-36 -63 -96.5 -99t-135.5 -36q-100 0 -156.5 55.5t-56.5 153.5q0 10 5 55l67 436h146l-68 -411q-4 -20 -4 -54q0 -125 125 -125q73 0 126.5 53t71.5 162l58 375h145l-110 -682h-138z" />
    <glyph glyph-name="v.ord" horiz-adv-x="811" 
d="M328 647l-138 684h140l96 -545h2l307 545h144l-400 -684h-151z" />
    <glyph glyph-name="w.ord" horiz-adv-x="1124" 
d="M752 1331l41 -532h2l258 532h139l-348 -684h-142l-49 524h-2l-245 -524h-146l-70 684h140l41 -532h2l245 532h134z" />
    <glyph glyph-name="x.ord" horiz-adv-x="831" 
d="M248 647h-156l326 354l-189 330h156l127 -233l211 233h154l-302 -330l203 -354h-153l-142 256z" />
    <glyph glyph-name="y.ord" horiz-adv-x="811" 
d="M328 664l-135 682h141l96 -541h2l305 541h144l-410 -699q-75 -128 -141 -181t-164 -54q-40 0 -70 10l19 110q31 -8 51 -8q48 0 81 30t81 110z" />
    <glyph glyph-name="z.ord" horiz-adv-x="759" 
d="M778 1229l-469 -477h400l-19 -105h-573l12 92l471 484h-371l15 108h547z" />
    <glyph glyph-name="caron.Slovak" horiz-adv-x="1155" 
d="M616 1081h-86l129 426h201z" />
    <glyph glyph-name="commaturn" horiz-adv-x="1157" 
d="M803 1343l-23 -147h-205l21 135q32 215 248 215l-13 -78q-57 0 -84.5 -31.5t-35.5 -93.5h92z" />
    <glyph glyph-name="uni00200326" horiz-adv-x="1157" 
d="M358 -256l23 147h205l-21 -135q-32 -215 -248 -215l13 78q57 0 85 31.5t36 93.5h-93z" />
    <glyph glyph-name="guilsinglleft.cap" horiz-adv-x="651" 
d="M483 250h-125l-211 401l330 402h133l-286 -402z" />
    <glyph glyph-name="guilsinglright.cap" horiz-adv-x="651" 
d="M211 1053h125l211 -402l-330 -401h-133l287 401z" />
    <glyph glyph-name="guillemotleft.cap" horiz-adv-x="1048" 
d="M879 250h-123l-211 401l329 402h134l-287 -402zM481 250h-123l-211 401l330 402h131l-284 -402z" />
    <glyph glyph-name="guillemotright.cap" horiz-adv-x="1048" 
d="M213 1053h123l211 -402l-330 -401h-133l287 401zM610 1053h123l211 -402l-330 -401h-131l285 401z" />
    <glyph glyph-name="slash.cap" horiz-adv-x="1042" 
d="M-4 -154l942 1729h168l-940 -1729h-170z" />
    <glyph glyph-name="backslash.cap" horiz-adv-x="1034" 
d="M270 1575h160l395 -1729h-157z" />
    <glyph glyph-name="bar.cap" horiz-adv-x="628" 
d="M403 1575h156l-274 -1729h-156z" />
    <glyph glyph-name="periodcentered.cap" horiz-adv-x="577" 
d="M188 590l35 223h223l-34 -223h-224z" />
    <glyph glyph-name="bullet.cap" horiz-adv-x="903" 
d="M213 731q0 112 80.5 191t191.5 79q114 0 193.5 -78.5t79.5 -191.5t-79.5 -191.5t-193.5 -78.5q-111 0 -191.5 79t-80.5 191z" />
    <glyph glyph-name="hyphen.cap" horiz-adv-x="923" 
d="M193 623l24 149h567l-24 -149h-567z" />
    <glyph glyph-name="endash.cap" horiz-adv-x="1386" 
d="M195 627l22 135h1030l-22 -135h-1030z" />
    <glyph glyph-name="emdash.cap" horiz-adv-x="2054" 
d="M195 627l24 135h1698l-25 -135h-1697z" />
    <glyph glyph-name="parenleft.cap" horiz-adv-x="804" 
d="M848 1575q-479 -537 -479 -1043q0 -355 206 -686h-159q-215 326 -215 691q0 543 479 1038h168z" />
    <glyph glyph-name="parenright.cap" horiz-adv-x="802" 
d="M18 -154q480 538 480 1043q0 354 -207 686h160q215 -326 215 -690q0 -543 -480 -1039h-168z" />
    <glyph glyph-name="bracketleft.cap" horiz-adv-x="808" 
d="M524 1444l-231 -1467h289l-19 -131h-452l274 1729h449l-21 -131h-289z" />
    <glyph glyph-name="bracketright.cap" horiz-adv-x="808" 
d="M346 -23l232 1467h-289l18 131h453l-275 -1729h-448l20 131h289z" />
    <glyph glyph-name="braceleft.cap" horiz-adv-x="878" 
d="M117 643l20 135h107q51 0 82.5 28.5t38.5 82.5l75 471q18 112 85 163.5t184 51.5h196l-20 -131h-166q-57 0 -87 -18t-38 -74l-74 -473q-22 -141 -168 -168q117 -23 117 -129q0 -40 -40 -275.5t-40 -261.5q0 -40 24.5 -54t73.5 -14h164l-20 -131h-197q-102 0 -152.5 38.5
t-50.5 121.5q0 46 40 288t40 269q0 80 -90 80h-104z" />
    <glyph glyph-name="braceright.cap" horiz-adv-x="878" 
d="M823 778l-20 -135h-107q-51 0 -82.5 -28.5t-38.5 -82.5l-75 -471q-18 -112 -85 -163.5t-184 -51.5h-196l20 131h166q57 0 87 18.5t38 74.5l74 473q22 141 168 168q-117 23 -117 129q0 40 40 275t40 261q0 40 -24.5 54t-73.5 14h-164l20 131h197q102 0 152.5 -38.5
t50.5 -121.5q0 -46 -40 -288t-40 -269q0 -80 90 -80h104z" />
    <glyph glyph-name="at.cap" horiz-adv-x="1871" 
d="M1407 1110l-143 -594q-7 -31 -7 -47q0 -84 95 -84q140 0 234.5 145t94.5 357q0 238 -166 383t-442 145q-150 0 -281 -45.5t-225.5 -123.5t-162 -182t-101 -222t-33.5 -242q0 -131 40 -238t108 -178.5t160 -120.5t193 -70.5t210 -21.5q247 0 459 86l37 -98
q-237 -102 -504 -102q-130 0 -249.5 27.5t-225.5 87t-184 144.5t-123.5 208.5t-45.5 271.5q0 189 70 361t192 298.5t297.5 201.5t376.5 75q161 0 297.5 -49t230.5 -134t146.5 -204t52.5 -256q0 -174 -70 -316.5t-181.5 -219.5t-237.5 -77q-82 0 -138 38t-73 106
q-42 -60 -112 -98.5t-150 -38.5q-134 0 -206.5 89.5t-72.5 227.5q0 70 18.5 143.5t56.5 142.5t91 123t128 86.5t161 32.5q77 0 134.5 -40t76.5 -95l29 117h145zM1149 645q31 125 31 176q0 84 -43.5 129t-112.5 45q-91 0 -163 -61.5t-107 -148.5t-35 -175q0 -91 44.5 -142.5
t125.5 -51.5q52 0 102.5 23.5t94.5 77t63 128.5z" />
    <glyph glyph-name="uni0192.lt" 
d="M993 696h-256l-309 -921h-166l309 921h-178l21 131h202l129 383q51 151 154.5 236.5t237.5 85.5q67 0 135 -27l-25 -157q-55 28 -123 28q-78 0 -135.5 -52.5t-91.5 -152.5l-115 -344h232z" />
    <glyph glyph-name="Euro.lt" 
d="M1278 426q-64 -208 -208 -329.5t-357 -121.5t-341 146.5t-139 400.5h-165l20 123h145q6 94 23 170h-141l18 123h154q80 250 253.5 399.5t389.5 149.5q206 0 313 -121.5t107 -327.5h-160q-2 51 -11 93.5t-29 81.5t-51 65.5t-79 42.5t-111 16q-150 0 -269.5 -108.5
t-184.5 -290.5h491l-43 -123h-483q-16 -72 -23 -170h443l-41 -123h-402q9 -189 94.5 -293t243.5 -104q277 0 375 301h168z" />
    <glyph glyph-name="dollar.lt" 
d="M1221 453q0 -200 -157.5 -334.5t-399.5 -138.5l-33 -203h-119l35 209q-205 23 -330.5 136.5t-128.5 307.5h166q9 -141 93 -215t222 -90l93 549l-109 24q-317 74 -317 322q0 201 155 333t395 132h9l32 192h117l-33 -200q177 -28 277 -129t104 -258h-162q-3 95 -67.5 157
t-175.5 84l-88 -532l108 -25q314 -78 314 -321zM625 840l61 -15l86 516q-174 0 -272.5 -87t-98.5 -216q0 -81 53 -125t171 -73zM829 633l-55 12l-86 -526q162 8 265.5 91.5t103.5 209.5q0 80 -54 132t-174 81z" />
    <glyph glyph-name="cent.lt" 
d="M1087 334q-47 -159 -160 -251t-270 -101l-34 -199h-119l37 207q-148 26 -236 143t-88 291q0 128 39 242.5t107 199t163.5 138t204.5 63.5l43 244h119l-43 -246q136 -20 215 -112t80 -236h-146q-4 88 -50.5 145t-123.5 72l-143 -819q185 24 254 219h151zM379 430
q0 -123 48.5 -203.5t135.5 -105.5l144 811q-152 -27 -240 -168.5t-88 -333.5z" />
    <glyph glyph-name="sterling.lt" 
d="M1151 147l-23 -147h-1067l25 147h25q76 0 141 54.5t103 147.5t38 202q0 9 -1 27t-1 26h-201l23 135h147q-2 6 -11.5 39.5t-12.5 44.5t-10 40.5t-9.5 47.5t-5 44t-2.5 51q0 92 35 177.5t99 153.5t163.5 109t218.5 41q108 0 193 -32.5t138.5 -89t81.5 -131.5t28 -163
q0 -37 -2 -57h-166q2 20 2 39q0 127 -70 207.5t-209 80.5q-157 0 -248.5 -89.5t-91.5 -237.5q0 -33 6 -71.5t12.5 -64t20.5 -72.5t19 -67h419l-20 -135h-377v-31q0 -131 -52 -240.5t-153 -185.5h795z" />
    <glyph glyph-name="yen.lt" 
d="M1149 338h-416l-53 -338h-168l53 338h-420l21 125h420l28 186h-417l20 125h350l-344 688h183l319 -647h4l508 647h193l-560 -688h353l-21 -125h-420l-28 -186h415z" />
    <glyph glyph-name="zero.lt" 
d="M610 -25q-222 0 -348.5 163t-126.5 431q0 242 84.5 451.5t240.5 338t349 128.5q222 0 348.5 -162.5t126.5 -429.5q0 -181 -50 -349t-137.5 -294t-214.5 -201.5t-272 -75.5zM621 127q185 0 309.5 163.5t165.5 434.5q11 91 14 182q-2 201 -80.5 314.5t-230.5 113.5
q-185 0 -309.5 -163.5t-165.5 -434.5q-13 -107 -13 -182q0 -200 79 -314t231 -114z" />
    <glyph glyph-name="one.lt" 
d="M1186 141l-23 -141h-1057l23 141h459l155 987h-409l18 119q136 0 226 12.5t147 41.5t87 66.5t54 98.5h109l-211 -1325h422z" />
    <glyph glyph-name="two.lt" 
d="M1245 1120q0 -81 -28 -153t-70.5 -125t-110.5 -108t-128 -93t-143 -88q-38 -22 -56 -33q-70 -41 -117.5 -71.5t-104.5 -71.5t-93 -75.5t-63 -75t-34 -79.5h815l-25 -147h-1003l14 80q11 74 51 146.5t91.5 129.5t126.5 115.5t139.5 100t146.5 87.5q69 40 116.5 69
t100.5 66.5t87 71.5t63 73.5t43 82.5t14 90q0 99 -63.5 163t-196.5 64q-145 0 -245.5 -93t-133.5 -232h-166q21 98 67.5 183t116 150t166 102.5t209.5 37.5q200 0 307 -105.5t107 -261.5z" />
    <glyph glyph-name="three.lt" 
d="M1161 430q0 -82 -35 -161.5t-101 -145.5t-174 -107t-241 -41q-223 0 -361 120.5t-138 332.5h172q0 -146 87.5 -227.5t245.5 -81.5q173 0 276 91.5t103 221.5q0 110 -76.5 174t-213.5 64h-150l25 143h149q144 0 239 76t95 221q0 101 -69.5 167t-196.5 66q-153 0 -252 -90
t-127 -231h-164q39 200 186 332.5t365 132.5q204 0 316 -105t112 -262q0 -149 -98 -252t-230 -125q112 -25 184 -113.5t72 -199.5z" />
    <glyph glyph-name="four.lt" 
d="M1114 1462l-145 -919h307l-23 -142h-305l-65 -401h-168l63 401h-721l23 144l831 917h203zM918 1282l-670 -739h553z" />
    <glyph glyph-name="five.lt" 
d="M739 829q-109 0 -195.5 -45.5t-142.5 -117.5h-159l207 796h829l-25 -149h-698l-129 -484q60 61 155.5 102.5t192.5 41.5q200 0 311 -116.5t111 -301.5q0 -115 -42 -220.5t-116 -185.5t-183.5 -127t-236.5 -47q-220 0 -350.5 120.5t-130.5 338.5h174q0 -148 82.5 -231.5
t233.5 -83.5q94 0 171 36t125.5 95.5t74.5 134.5t26 156q0 127 -71 207.5t-214 80.5z" />
    <glyph glyph-name="six.lt" 
d="M848 1339q-131 0 -240 -86t-177.5 -231t-92.5 -326q27 56 65 104t91 89t125 64.5t155 23.5q189 0 312.5 -124t123.5 -308q0 -153 -73 -283t-205 -208.5t-293 -78.5q-217 0 -347 152.5t-130 413.5q0 192 56 367.5t150 302t223 201.5t269 75q193 0 310 -107.5t118 -292.5
h-162q-6 122 -78.5 187t-199.5 65zM651 119q169 0 280 122t111 294q0 133 -83.5 216t-223.5 83q-165 0 -279 -117.5t-114 -286.5q0 -137 85 -224t224 -87z" />
    <glyph glyph-name="seven.lt" 
d="M1104 1313h-891l23 149h1087l-23 -125q-317 -314 -491 -636.5t-238 -700.5h-186q122 702 719 1313z" />
    <glyph glyph-name="eight.lt" 
d="M614 -25q-233 0 -372.5 103t-139.5 272q0 106 58 195.5t144.5 142t182.5 66.5q-94 39 -147 111.5t-53 170.5q0 133 73 237t194.5 159t268.5 55q193 0 315 -94t122 -254q0 -145 -86 -251.5t-226 -150.5q110 -27 185 -110t75 -193q0 -129 -77 -234.5t-213 -165t-304 -59.5z
M741 813q152 0 253.5 85t101.5 224q0 111 -82 168.5t-209 57.5q-152 0 -252 -83.5t-100 -222.5q0 -112 80.5 -170.5t207.5 -58.5zM686 678q-181 0 -293 -88.5t-112 -229.5q0 -113 94 -179t256 -66q184 0 291.5 93.5t107.5 227.5q0 110 -91 176t-253 66z" />
    <glyph glyph-name="nine.lt" 
d="M571 123q131 0 240 86t177.5 231t92.5 326q-27 -56 -65 -104t-91 -89t-125 -64.5t-155 -23.5q-189 0 -312.5 124.5t-123.5 308.5q0 153 73 283t205 208t293 78q217 0 347 -152t130 -413q0 -256 -94.5 -474.5t-255 -345.5t-348.5 -127q-193 0 -310 107.5t-118 292.5h162
q6 -122 78.5 -187t199.5 -65zM768 1343q-169 0 -280 -121.5t-111 -293.5q0 -133 83.5 -216t223.5 -83q165 0 279 117t114 286q0 137 -85 224t-224 87z" />
    <glyph glyph-name="zero.dnom" horiz-adv-x="849" 
d="M356 -14q-133 0 -210.5 91.5t-77.5 241.5q0 98 28 188t78 159.5t125 111t162 41.5q133 0 210 -92t77 -242q0 -132 -47.5 -245t-138.5 -183.5t-206 -70.5zM453 711q-92 0 -153.5 -82.5t-84.5 -220.5q-10 -49 -10 -99q0 -101 40.5 -158t116.5 -57q93 0 155 82.5t83 218.5
q10 51 10 101q0 100 -40 157.5t-117 57.5z" />
    <glyph glyph-name="one.dnom" horiz-adv-x="684" 
d="M569 102l-16 -102h-547l17 102h206l78 486h-205l15 96q95 0 148 14t76.5 37.5t41.5 69.5h90l-111 -703h207z" />
    <glyph glyph-name="two.dnom" horiz-adv-x="722" 
d="M662 608q0 -48 -17 -89.5t-40 -70.5t-67.5 -62t-76 -51t-90.5 -50q-94 -51 -146.5 -92t-60.5 -82h430l-19 -111h-579l8 53q9 56 38.5 105t78 90t90 68.5t100.5 60.5q119 64 170 111t51 114q0 46 -30 75.5t-92 29.5q-69 0 -119 -45t-64 -111h-131q25 114 110.5 190
t213.5 76q113 0 177.5 -59t64.5 -150z" />
    <glyph glyph-name="three.dnom" horiz-adv-x="763" 
d="M631 238q0 -98 -83.5 -175t-230.5 -77q-131 0 -208.5 67.5t-77.5 182.5h131q0 -69 43.5 -106.5t120.5 -37.5q81 0 129.5 43t48.5 107q0 52 -37.5 80t-104.5 28h-81l18 105h80q71 0 116.5 39t45.5 108q0 48 -33 78.5t-94 30.5q-72 0 -119 -38t-59 -104h-130
q26 110 109 180t209 70q118 0 183 -59.5t65 -147.5q0 -81 -52.5 -140t-125.5 -71q62 -12 99.5 -56t37.5 -107z" />
    <glyph glyph-name="four.dnom" horiz-adv-x="833" 
d="M645 801l-82 -508h166l-14 -100h-168l-29 -193h-129l29 193h-398l17 102l459 506h149zM496 670l-336 -377h274z" />
    <glyph glyph-name="five.dnom" horiz-adv-x="772" 
d="M379 432q-100 0 -164 -76h-123l115 447h485l-18 -111h-383l-62 -223q31 29 81.5 48.5t103.5 19.5q110 0 172.5 -62t62.5 -164q0 -134 -93.5 -229.5t-240.5 -95.5q-130 0 -203 69t-73 189h135q0 -70 40 -112t112 -42q86 0 137 61t51 144q0 61 -34 99t-101 38z" />
    <glyph glyph-name="six.dnom" horiz-adv-x="792" 
d="M451 711q-94 0 -162.5 -86.5t-87.5 -216.5q78 124 221 124q103 0 174.5 -65t71.5 -168q0 -128 -94.5 -220.5t-233.5 -92.5q-125 0 -201 84.5t-76 228.5q0 136 52.5 255.5t144 192t199.5 72.5q110 0 178.5 -61t69.5 -166h-125q-3 56 -36.5 87.5t-94.5 31.5zM350 90
q79 0 133 59t54 142q0 65 -41.5 104t-108.5 39q-79 0 -133.5 -57t-54.5 -137q0 -67 41.5 -108.5t109.5 -41.5z" />
    <glyph glyph-name="seven.dnom" horiz-adv-x="724" 
d="M535 692h-443l21 109h579l-16 -103q-161 -167 -243.5 -330.5t-117.5 -367.5h-143q61 369 363 692z" />
    <glyph glyph-name="eight.dnom" horiz-adv-x="800" 
d="M334 -14q-134 0 -215.5 57t-81.5 152q0 85 62.5 146.5t142.5 74.5q-105 43 -105 151q0 112 87 182t216 70q113 0 184.5 -53t71.5 -145q0 -76 -46 -134.5t-120 -83.5q59 -12 98.5 -57.5t39.5 -105.5q0 -112 -95 -183t-239 -71zM401 459q75 0 122.5 40.5t47.5 108.5
q0 54 -39 81.5t-100 27.5q-75 0 -123.5 -40t-48.5 -108q0 -54 39.5 -82t101.5 -28zM367 360q-89 0 -142 -43t-53 -110q0 -55 46 -87t124 -32q91 0 143 45.5t52 110.5q0 53 -44.5 84.5t-125.5 31.5z" />
    <glyph glyph-name="nine.dnom" horiz-adv-x="792" 
d="M305 94q93 0 161 86t87 217q-77 -127 -221 -127q-102 0 -173 66t-71 168q0 130 93.5 222.5t232.5 92.5q126 0 202 -85t76 -230q0 -136 -52 -255t-143.5 -191t-199.5 -72q-111 0 -180 60.5t-70 166.5h125q3 -58 37 -88.5t96 -30.5zM406 713q-80 0 -133.5 -58t-53.5 -139
q0 -67 41 -107t107 -40q81 0 134.5 56.5t53.5 139.5q0 66 -41 107t-108 41z" />
    <glyph glyph-name="percent.lt" 
d="M416 848q-122 0 -201.5 79t-79.5 197q0 144 110 253.5t253 109.5q121 0 200.5 -80t79.5 -199q0 -142 -110 -251t-252 -109zM1319 1462h147l-1368 -1460h-145zM430 967q92 0 157.5 69.5t65.5 157.5q0 75 -49 124.5t-123 49.5q-92 0 -157.5 -69.5t-65.5 -157.5
q0 -75 49 -124.5t123 -49.5zM930 -23q-122 0 -201.5 80t-79.5 199q0 142 110 251t253 109q121 0 200.5 -79t79.5 -197q0 -144 -110 -253.5t-252 -109.5zM944 96q92 0 157.5 70t65.5 158q0 75 -49 124.5t-123 49.5q-92 0 -157.5 -70t-65.5 -158q0 -75 49 -124.5t123 -49.5z
" />
    <glyph glyph-name="period.tab" horiz-adv-x="675" 
d="M145 0l35 223h223l-34 -223h-224z" />
    <glyph glyph-name="comma.tab" horiz-adv-x="675" 
d="M145 2l35 221h223l-41 -258q-19 -130 -107.5 -208.5t-225.5 -78.5l18 105q81 0 130 42.5t63 139.5l6 37h-101z" />
    <glyph glyph-name="colon.tab" horiz-adv-x="675" 
d="M256 696l35 224h223l-35 -224h-223zM145 0l35 223h223l-34 -223h-224z" />
    <glyph glyph-name="semicolon.tab" horiz-adv-x="675" 
d="M256 696l35 224h223l-35 -224h-223zM145 2l35 221h223l-41 -258q-19 -130 -107.5 -208.5t-225.5 -78.5l18 105q81 0 130 42.5t63 139.5l6 37h-101z" />
    <glyph glyph-name="space.tab" horiz-adv-x="675" 
 />
    <glyph glyph-name="thinspace" horiz-adv-x="131" 
 />
    <glyph glyph-name="zero.slash" horiz-adv-x="1374" 
d="M621 -25q-227 0 -356.5 163t-129.5 431q0 181 50.5 348t139 293t218 201.5t278.5 75.5q227 0 356.5 -163t129.5 -431q0 -181 -50.5 -348t-139 -293t-218 -201.5t-278.5 -75.5zM309 557q0 -192 74 -307l596 1042q-71 47 -170 47q-126 0 -228 -77t-166.5 -211t-92.5 -312
q-13 -114 -13 -182zM1133 905q0 196 -76 309l-592 -1044q68 -47 168 -47q126 0 228 77t166.5 211t92.5 312q13 114 13 182z" />
    <glyph glyph-name="zero.slashlt" 
d="M610 -25q-222 0 -348.5 163t-126.5 431q0 242 84.5 451.5t240.5 338t349 128.5q222 0 348.5 -162.5t126.5 -429.5q0 -181 -50 -349t-137.5 -294t-214.5 -201.5t-272 -75.5zM307 555q0 -181 66 -295l596 1028q-70 51 -170 51q-186 0 -312.5 -164.5t-167.5 -435.5
q-12 -105 -12 -184zM1112 909q0 189 -70 299l-596 -1032q71 -53 175 -53q186 0 312 164.5t167 437.5q12 102 12 184z" />
    <glyph glyph-name="CR" horiz-adv-x="452" 
 />
    </font>
</defs>
</svg>
