<svg xmlns="http://www.w3.org/2000/svg">
<defs>
<font id="UntitledSerif-BoldItalic" horiz-adv-x="1120" >
  <font-face 
    font-family="Untitled Serif"
    font-weight="700"
    font-style="italic"
    font-stretch="normal"
    units-per-em="2048"
    panose-1="2 2 8 3 6 3 3 13 4 3"
    ascent="1638"
    descent="-410"
    x-height="960"
    cap-height="1320"
    bbox="-584 -512 2608 2002.81"
    underline-thickness="100"
    underline-position="-300"
    slope="-22"
    unicode-range="U+0020-FB02"
  />
<missing-glyph horiz-adv-x="2614" 
d="M2138 950q-72 -82 -168 -82q-60 0 -99 32t-39 88v286h-58v56h58v116l138 40v-156h134v-56h-134v-266q0 -31 16 -47.5t42 -16.5q34 0 78 44zM1246 1104q0 101 68.5 168.5t167.5 67.5t168.5 -67.5t69.5 -168.5t-69.5 -168.5t-168.5 -67.5t-167.5 67.5t-68.5 168.5zM900 920
v-42h-238v42q33 0 41.5 3.5t8.5 16.5v270q0 25 -22 36l-32 18v28l164 48h28v-88q69 88 158 88q64 0 99 -42t35 -108v-250q0 -13 8.5 -16.5t41.5 -3.5v-42h-236v42q33 0 41.5 3.5t8.5 16.5v222q0 90 -72 90q-48 0 -84 -36v-276q0 -14 8 -17t42 -3zM1574 1104q0 86 -23.5 133
t-68.5 47t-68.5 -47t-23.5 -133q0 -180 92 -180t92 180zM496 872q-37 0 -63.5 27t-26.5 63t26.5 63t63.5 27q36 0 62 -27t26 -63t-26 -63t-62 -27zM1032 -10h-26v84q-19 -31 -57.5 -57.5t-88.5 -26.5q-76 0 -128 64t-52 156q0 109 65.5 180.5t160.5 71.5q57 0 100 -38v154
q0 25 -22 36l-32 18v28l166 48h24v-608q0 -14 4.5 -21t17.5 -13l34 -18v-28zM1760 0v42q33 0 40.5 3t7.5 17v334h-62v56h62v18q0 99 70.5 168.5t175.5 69.5q50 0 82 -18t32 -50q0 -28 -18 -42t-42 -14q-19 0 -34 10.5t-23.5 23.5t-19.5 23.5t-23 10.5q-25 0 -43.5 -26
t-18.5 -74v-100h104v-56h-104v-334q0 -13 12.5 -16.5t65.5 -3.5v-42h-264zM1674 110q-27 -56 -80 -88t-120 -32q-94 0 -161 61.5t-67 164.5q0 102 67.5 174t164.5 72q96 0 147 -60.5t51 -151.5v-24h-296q4 -75 40.5 -116.5t95.5 -41.5q37 0 63.5 17t54.5 55zM926 74
q52 0 80 42v240q-26 50 -82 50q-47 0 -77.5 -46t-30.5 -122q0 -71 31 -117.5t79 -46.5zM1474 404q-39 0 -62.5 -33.5t-29.5 -94.5h166q-4 128 -74 128z" />
    <glyph glyph-name="fi" unicode="fi" horiz-adv-x="1324" 
d="M310 66q-42 -105 -105.5 -196.5t-143 -162t-178.5 -111t-203 -40.5q-96 0 -155 38.5t-59 105.5q0 55 36.5 89.5t93.5 34.5q37 0 64.5 -25.5t41.5 -55.5t37 -55.5t51 -25.5q39 0 70.5 35t80 146.5t123.5 332.5l224 666h-118l48 116h108l12 36q73 215 262 360.5t422 145.5
q109 0 176.5 -45t67.5 -117q0 -59 -38 -97.5t-98 -38.5q-38 0 -67 20t-46 48t-31.5 56t-33.5 48t-42 20q-45 0 -75.5 -46t-80.5 -170l-88 -220h412l154 20l54 -20l-282 -672q-26 -63 -26 -82q0 -28 30 -28q70 0 216 166l48 -50q-45 -61 -98 -113.5t-115.5 -98.5t-134 -73
t-140.5 -27q-68 0 -105 34t-37 92q0 49 26 110l270 626h-318z" />
    <glyph glyph-name="fl" unicode="fl" horiz-adv-x="1318" 
d="M310 66q-42 -105 -105.5 -196.5t-143 -162t-178.5 -111t-203 -40.5q-96 0 -155 38.5t-59 105.5q0 55 36.5 89.5t93.5 34.5q37 0 64.5 -25.5t41.5 -55.5t37 -55.5t51 -25.5q39 0 70.5 35t80 146.5t123.5 332.5l224 666h-118l48 116h108l12 36q72 214 255 360t397 146
q123 0 214 -56l234 58l54 -20l-488 -1196q-26 -63 -26 -82q0 -28 30 -28q70 0 216 166l48 -50q-45 -61 -98 -113.5t-115.5 -98.5t-134 -73t-140.5 -27q-68 0 -105 33.5t-37 92.5q0 49 26 110l440 1066q-66 112 -166 112q-60 0 -100.5 -48.5t-87.5 -167.5l-88 -220h194
l-48 -116h-192z" />
    <glyph glyph-name="f_b" unicode="fb" horiz-adv-x="1836" 
d="M310 66q-42 -105 -105.5 -196.5t-143 -162t-178.5 -111t-203 -40.5q-96 0 -155 38.5t-59 105.5q0 55 36.5 89.5t93.5 34.5q37 0 64.5 -25.5t41.5 -55.5t37 -55.5t51 -25.5q39 0 70.5 35t80 146.5t123.5 332.5l224 666h-118l48 116h108l12 36q72 214 255 360t397 146
q123 0 214 -56l234 58l54 -20l-384 -902h8q43 56 86.5 107t100.5 106t111.5 94.5t117 65t118.5 25.5q87 0 136.5 -54t49.5 -158q0 -76 -31.5 -164.5t-86 -175.5t-134.5 -168t-172 -142.5t-203 -98.5t-223 -37q-140 0 -216 66t-76 172q0 57 30 134l384 930q-66 112 -166 112
q-60 0 -100.5 -48.5t-87.5 -167.5l-88 -220h194l-48 -116h-192zM1494 672q0 94 -60 94q-64 0 -181.5 -117.5t-210 -264t-92.5 -220.5q0 -38 21.5 -60t56.5 -22q93 0 204.5 102.5t186.5 242.5t75 245z" />
    <glyph glyph-name="f_f_b" unicode="ffb" horiz-adv-x="2462" 
d="M310 66q-43 -105 -106 -196.5t-143 -162t-178.5 -111t-202.5 -40.5q-96 0 -155 38.5t-59 105.5q0 55 36.5 89.5t93.5 34.5q37 0 64.5 -25.5t41.5 -55.5t37 -55.5t51 -25.5q39 0 70.5 35t80 146.5t123.5 332.5l224 666h-118l48 116h108l6 16q73 214 252.5 360t393.5 146
q92 0 164.5 -30t107.5 -72q173 122 366 122q123 0 214 -56l234 58l54 -20l-384 -902h8q43 56 86.5 107t100.5 106t111.5 94.5t117 65t118.5 25.5q87 0 136.5 -54t49.5 -158q0 -76 -31.5 -164.5t-86 -175.5t-134.5 -168t-172 -142.5t-203 -98.5t-223 -37q-141 0 -216.5 66
t-75.5 172q0 57 30 134l384 930q-66 112 -166 112q-60 0 -100.5 -48.5t-87.5 -167.5l-88 -220h194l-48 -116h-192l-302 -756q-43 -108 -96 -197t-119.5 -161t-148.5 -112t-172 -40q-87 0 -144.5 37.5t-57.5 100.5q0 51 35.5 85.5t86.5 34.5q41 0 66.5 -25.5t32.5 -55.5
t16.5 -55.5t24.5 -25.5q37 0 75.5 90.5t152.5 433.5l216 646h-292zM748 1164l-82 -206h286l12 36q47 135 144 254q-60 132 -162 132q-64 0 -106.5 -49t-91.5 -167zM2120 672q0 94 -60 94q-64 0 -182 -117.5t-211 -264t-93 -220.5q0 -38 22.5 -60t57.5 -22q93 0 204.5 102.5
t186.5 242.5t75 245z" />
    <glyph glyph-name="f_f" unicode="ff" horiz-adv-x="1312" 
d="M310 66q-43 -105 -106 -196.5t-143 -162t-178.5 -111t-202.5 -40.5q-96 0 -155 38.5t-59 105.5q0 55 36.5 89.5t93.5 34.5q37 0 64.5 -25.5t41.5 -55.5t37 -55.5t51 -25.5q39 0 70.5 35t80 146.5t123.5 332.5l224 666h-118l48 116h108l6 16q73 214 252.5 360t393.5 146
q93 0 166 -30.5t106 -73.5q175 124 380 124q103 0 165.5 -38.5t62.5 -103.5q0 -54 -35.5 -89t-92.5 -35q-38 0 -65 25t-39.5 55t-33 55t-48.5 25q-51 0 -84 -48.5t-84 -175.5l-84 -212h194l-48 -116h-192l-302 -756q-43 -108 -96 -197t-119.5 -161t-148.5 -112t-172 -40
q-87 0 -144.5 37.5t-57.5 100.5q0 51 35.5 85.5t86.5 34.5q41 0 66.5 -25.5t32.5 -55.5t16.5 -55.5t24.5 -25.5q37 0 75.5 90.5t152.5 433.5l216 646h-292zM748 1164l-82 -206h286l12 36q50 142 146 254q-66 132 -164 132q-64 0 -106.5 -49t-91.5 -167z" />
    <glyph glyph-name="f_h" unicode="fh" horiz-adv-x="1884" 
d="M310 66q-42 -105 -105.5 -196.5t-143 -162t-178.5 -111t-203 -40.5q-96 0 -155 38.5t-59 105.5q0 55 36.5 89.5t93.5 34.5q37 0 64.5 -25.5t41.5 -55.5t37 -55.5t51 -25.5q39 0 70.5 35t80 146.5t123.5 332.5l224 666h-118l48 116h108l12 36q72 214 255 360t397 146
q123 0 214 -56l234 58l54 -20l-382 -894h8q80 105 165.5 188.5t187.5 142.5t189 59q68 0 101 -32.5t33 -89.5t-30 -126l-192 -444q-26 -63 -26 -82q0 -28 28 -28q35 0 93.5 45t124.5 121l48 -50q-100 -133 -224 -222.5t-256 -89.5q-69 0 -105.5 34t-36.5 92q0 52 26 110
l150 346q50 122 50 152q0 34 -36 34q-45 0 -126.5 -74.5t-160 -183.5t-117.5 -204l-116 -286h-310l530 1282q-66 112 -166 112q-60 0 -100.5 -48.5t-87.5 -167.5l-88 -220h194l-48 -116h-192z" />
    <glyph glyph-name="f_f_h" unicode="ffh" horiz-adv-x="2510" 
d="M310 66q-43 -105 -106 -196.5t-143 -162t-178.5 -111t-202.5 -40.5q-96 0 -155 38.5t-59 105.5q0 55 36.5 89.5t93.5 34.5q37 0 64.5 -25.5t41.5 -55.5t37 -55.5t51 -25.5q39 0 70.5 35t80 146.5t123.5 332.5l224 666h-118l48 116h108l6 16q73 214 252.5 360t393.5 146
q92 0 164.5 -30t107.5 -72q173 122 366 122q123 0 214 -56l234 58l54 -20l-382 -894h8q80 105 165.5 188.5t187.5 142.5t189 59q68 0 101 -32.5t33 -89.5t-30 -126l-192 -444q-26 -63 -26 -82q0 -28 28 -28q35 0 93.5 45t124.5 121l48 -50q-100 -133 -224 -222.5t-256 -89.5
q-69 0 -105.5 34t-36.5 92q0 52 26 110l150 346q50 122 50 152q0 34 -36 34q-45 0 -126.5 -74.5t-160 -183.5t-117.5 -204l-116 -286h-310l530 1282q-66 112 -166 112q-60 0 -100.5 -48.5t-87.5 -167.5l-88 -220h194l-48 -116h-192l-302 -756q-43 -108 -96 -197t-119.5 -161
t-148.5 -112t-172 -40q-87 0 -144.5 37.5t-57.5 100.5q0 51 35.5 85.5t86.5 34.5q41 0 66.5 -25.5t32.5 -55.5t16.5 -55.5t24.5 -25.5q37 0 75.5 90.5t152.5 433.5l216 646h-292zM748 1164l-82 -206h286l12 36q47 135 144 254q-60 132 -162 132q-64 0 -106.5 -49t-91.5 -167
z" />
    <glyph glyph-name="f_idieresis" unicode="f&#xef;" horiz-adv-x="1324" 
d="M310 66q-42 -105 -105.5 -196.5t-143 -162t-178.5 -111t-203 -40.5q-96 0 -155 38.5t-59 105.5q0 55 36.5 89.5t93.5 34.5q37 0 64.5 -25.5t41.5 -55.5t37 -55.5t51 -25.5q39 0 70.5 35t80 146.5t123.5 332.5l224 666h-118l48 116h108l12 36q67 215 239.5 360.5
t384.5 145.5q104 0 167 -45t63 -117q0 -60 -37 -99t-97 -39q-37 0 -62.5 15t-36 37.5t-18.5 48.5t-11.5 48.5t-13.5 37.5t-26 15q-17 0 -31 -9.5t-27 -33t-20.5 -40t-21.5 -53.5l-124 -308h412l154 20l54 -20l-282 -672q-26 -63 -26 -82q0 -28 30 -28q70 0 216 166l48 -50
q-45 -61 -98 -113.5t-115.5 -98.5t-134 -73t-140.5 -27q-68 0 -105 34t-37 92q0 49 26 110l270 626h-318zM1254 1250q0 71 46.5 119.5t115.5 48.5t115.5 -48.5t46.5 -119.5q0 -70 -46.5 -117t-115.5 -47t-115.5 47t-46.5 117z" />
    <glyph glyph-name="f_f_i" unicode="ffi" horiz-adv-x="1950" 
d="M310 66q-43 -105 -106 -196.5t-143 -162t-178.5 -111t-202.5 -40.5q-96 0 -155 38.5t-59 105.5q0 55 36.5 89.5t93.5 34.5q37 0 64.5 -25.5t41.5 -55.5t37 -55.5t51 -25.5q39 0 70.5 35t80 146.5t123.5 332.5l224 666h-118l48 116h108l6 16q73 214 252.5 360t393.5 146
q94 0 167.5 -31.5t106.5 -74.5q184 126 396 126q109 0 176.5 -45t67.5 -117q0 -59 -38 -97.5t-98 -38.5q-38 0 -67 20t-46 48t-31.5 56t-33.5 48t-42 20q-45 0 -75.5 -46t-80.5 -170l-88 -220h412l154 20l54 -20l-282 -672q-26 -63 -26 -82q0 -28 30 -28q70 0 216 166
l48 -50q-45 -61 -98 -113.5t-115.5 -98.5t-134 -73t-140.5 -27q-68 0 -105 34t-37 92q0 49 26 110l270 626h-318l-302 -756q-43 -108 -96 -197t-119.5 -161t-148.5 -112t-172 -40q-87 0 -144.5 37.5t-57.5 100.5q0 51 35.5 85.5t86.5 34.5q41 0 66.5 -25.5t32.5 -55.5
t16.5 -55.5t24.5 -25.5q37 0 75.5 90.5t152.5 433.5l216 646h-292zM748 1164l-82 -206h286l12 36q45 139 146 252q-65 134 -164 134q-64 0 -106.5 -49t-91.5 -167z" />
    <glyph glyph-name="f_f_idieresis" unicode="ff&#xef;" horiz-adv-x="1950" 
d="M310 66q-43 -105 -106 -196.5t-143 -162t-178.5 -111t-202.5 -40.5q-96 0 -155 38.5t-59 105.5q0 55 36.5 89.5t93.5 34.5q37 0 64.5 -25.5t41.5 -55.5t37 -55.5t51 -25.5q39 0 70.5 35t80 146.5t123.5 332.5l224 666h-118l48 116h108l6 16q73 214 252.5 360t393.5 146
q87 0 157.5 -27t108.5 -67q163 114 344 114q104 0 167 -45t63 -117q0 -60 -37 -99t-97 -39q-37 0 -62.5 15t-36 37.5t-18.5 48.5t-11.5 48.5t-13.5 37.5t-26 15q-17 0 -31 -9.5t-27 -33t-20.5 -40t-21.5 -53.5l-124 -308h412l154 20l54 -20l-282 -672q-26 -63 -26 -82
q0 -28 30 -28q70 0 216 166l48 -50q-45 -61 -98 -113.5t-115.5 -98.5t-134 -73t-140.5 -27q-68 0 -105 34t-37 92q0 49 26 110l270 626h-318l-302 -756q-43 -108 -96 -197t-119.5 -161t-148.5 -112t-172 -40q-87 0 -144.5 37.5t-57.5 100.5q0 51 35.5 85.5t86.5 34.5
q41 0 66.5 -25.5t32.5 -55.5t16.5 -55.5t24.5 -25.5q37 0 75.5 90.5t152.5 433.5l216 646h-292zM1880 1250q0 71 46.5 119.5t115.5 48.5t115.5 -48.5t46.5 -119.5q0 -70 -46.5 -117t-115.5 -47t-115.5 47t-46.5 117zM748 1164l-82 -206h286l12 36q44 142 140 262
q-58 124 -158 124q-64 0 -106.5 -49t-91.5 -167z" />
    <glyph glyph-name="f_j" unicode="fj" horiz-adv-x="1236" 
d="M310 66q-42 -105 -105.5 -196.5t-143 -162t-178.5 -111t-203 -40.5q-96 0 -155 38.5t-59 105.5q0 55 36.5 89.5t93.5 34.5q37 0 64.5 -25.5t41.5 -55.5t37 -55.5t51 -25.5q39 0 70.5 35t80 146.5t123.5 332.5l224 666h-118l48 116h108l12 36q73 215 262 360.5t422 145.5
q109 0 176.5 -45t67.5 -117q0 -59 -38 -97.5t-98 -38.5q-38 0 -67 20t-46 48t-31.5 56t-33.5 48t-42 20q-45 0 -75.5 -46t-80.5 -170l-88 -220h390l176 20l54 -20l-342 -872q-42 -108 -95 -197.5t-119.5 -161t-149 -111.5t-172.5 -40q-87 0 -144.5 37.5t-57.5 100.5
q0 51 35.5 85.5t86.5 34.5q41 0 66.5 -25.5t32.5 -55.5t16.5 -55.5t24.5 -25.5q36 0 74.5 90t153.5 434l218 646h-294z" />
    <glyph glyph-name="f_f_j" unicode="ffj" horiz-adv-x="1862" 
d="M310 66q-43 -105 -106 -196.5t-143 -162t-178.5 -111t-202.5 -40.5q-96 0 -155 38.5t-59 105.5q0 55 36.5 89.5t93.5 34.5q37 0 64.5 -25.5t41.5 -55.5t37 -55.5t51 -25.5q39 0 70.5 35t80 146.5t123.5 332.5l224 666h-118l48 116h108l6 16q73 214 252.5 360t393.5 146
q94 0 167.5 -31.5t106.5 -74.5q184 126 396 126q109 0 176.5 -45t67.5 -117q0 -59 -38 -97.5t-98 -38.5q-38 0 -67 20t-46 48t-31.5 56t-33.5 48t-42 20q-45 0 -75.5 -46t-80.5 -170l-88 -220h390l176 20l52 -20l-340 -872q-42 -108 -95 -197.5t-119.5 -161t-149 -111.5
t-172.5 -40q-87 0 -144.5 37.5t-57.5 100.5q0 51 35.5 85.5t86.5 34.5q41 0 66 -25.5t32 -55.5t17 -55.5t25 -25.5q36 0 73 87t155 437l218 646h-294l-302 -756q-43 -108 -96 -197t-119.5 -161t-148.5 -112t-172 -40q-87 0 -144.5 37.5t-57.5 100.5q0 51 35.5 85.5
t86.5 34.5q41 0 66.5 -25.5t32.5 -55.5t16.5 -55.5t24.5 -25.5q37 0 75.5 90.5t152.5 433.5l216 646h-292zM748 1164l-82 -206h286l12 36q45 139 146 252q-65 134 -164 134q-64 0 -106.5 -49t-91.5 -167z" />
    <glyph glyph-name="f_k" unicode="fk" horiz-adv-x="1866" 
d="M310 66q-42 -105 -105.5 -196.5t-143 -162t-178.5 -111t-203 -40.5q-96 0 -155 38.5t-59 105.5q0 55 36.5 89.5t93.5 34.5q37 0 64.5 -25.5t41.5 -55.5t37 -55.5t51 -25.5q39 0 70.5 35t80 146.5t123.5 332.5l224 666h-118l48 116h108l12 36q72 214 255 360t397 146
q123 0 214 -56l234 58l54 -20l-328 -768h10q279 264 484 264q77 0 126.5 -45t49.5 -115q0 -114 -119.5 -212t-302.5 -162l50 -222q16 -66 58 -66q34 0 91 42.5t125 123.5l50 -50q-98 -135 -227 -213.5t-223 -78.5q-69 0 -107 39.5t-47 124.5l-24 240q-77 -10 -126 -10
l-144 -374h-310l530 1282q-66 112 -166 112q-60 0 -100.5 -48.5t-87.5 -167.5l-88 -220h194l-48 -116h-192zM1460 800q-60 0 -165 -67.5t-181 -150.5l-52 -132q113 5 222.5 46.5t179.5 107t70 134.5q0 62 -74 62z" />
    <glyph glyph-name="f_f_k" unicode="ffk" horiz-adv-x="2494" 
d="M310 66q-43 -105 -106 -196.5t-143 -162t-178.5 -111t-202.5 -40.5q-96 0 -155 38.5t-59 105.5q0 55 36.5 89.5t93.5 34.5q37 0 64.5 -25.5t41.5 -55.5t37 -55.5t51 -25.5q39 0 70.5 35t80 146.5t123.5 332.5l224 666h-118l48 116h108l6 16q73 214 252.5 360t393.5 146
q92 0 164.5 -30t107.5 -72q173 122 366 122q126 0 214 -56l236 58l54 -20l-328 -768h8q279 264 486 264q77 0 126.5 -45t49.5 -115q0 -114 -119.5 -212t-302.5 -162l50 -222q16 -66 58 -66q34 0 91 42.5t125 123.5l50 -50q-98 -135 -227 -213.5t-223 -78.5q-69 0 -107 39.5
t-47 124.5l-24 240q-73 -10 -126 -10l-144 -374h-310l530 1280q-65 114 -168 114q-60 0 -100.5 -48.5t-87.5 -167.5l-88 -220h194l-48 -116h-192l-302 -756q-43 -108 -96 -197t-119.5 -161t-148.5 -112t-172 -40q-87 0 -144.5 37.5t-57.5 100.5q0 51 35.5 85.5t86.5 34.5
q41 0 66.5 -25.5t32.5 -55.5t16.5 -55.5t24.5 -25.5q37 0 75.5 90.5t152.5 433.5l216 646h-292zM748 1164l-82 -206h286l12 36q47 135 144 254q-60 132 -162 132q-64 0 -106.5 -49t-91.5 -167zM2088 800q-60 0 -165 -67.5t-181 -150.5l-52 -132q113 5 222.5 46.5t179.5 107
t70 134.5q0 62 -74 62z" />
    <glyph glyph-name="f_f_l" unicode="ffl" horiz-adv-x="1946" 
d="M310 66q-43 -105 -106 -196.5t-143 -162t-178.5 -111t-202.5 -40.5q-96 0 -155 38.5t-59 105.5q0 55 36.5 89.5t93.5 34.5q37 0 64.5 -25.5t41.5 -55.5t37 -55.5t51 -25.5q39 0 70.5 35t80 146.5t123.5 332.5l224 666h-118l48 116h108l6 16q73 214 252.5 360t393.5 146
q92 0 164.5 -30t107.5 -72q173 122 366 122q123 0 214 -56l234 58l54 -20l-488 -1196q-26 -63 -26 -82q0 -28 30 -28q70 0 216 166l48 -50q-45 -61 -98 -113.5t-115.5 -98.5t-134 -73t-140.5 -27q-68 0 -105 33.5t-37 92.5q0 49 26 110l440 1066q-66 112 -166 112
q-60 0 -100.5 -48.5t-87.5 -167.5l-88 -220h194l-48 -116h-192l-302 -756q-43 -108 -96 -197t-119.5 -161t-148.5 -112t-172 -40q-87 0 -144.5 37.5t-57.5 100.5q0 51 35.5 85.5t86.5 34.5q41 0 66.5 -25.5t32.5 -55.5t16.5 -55.5t24.5 -25.5q37 0 75.5 90.5t152.5 433.5
l216 646h-292zM748 1164l-82 -206h286l12 36q47 135 144 254q-60 132 -162 132q-64 0 -106.5 -49t-91.5 -167z" />
    <glyph glyph-name=".notdef" horiz-adv-x="2614" 
d="M2138 950q-72 -82 -168 -82q-60 0 -99 32t-39 88v286h-58v56h58v116l138 40v-156h134v-56h-134v-266q0 -31 16 -47.5t42 -16.5q34 0 78 44zM1246 1104q0 101 68.5 168.5t167.5 67.5t168.5 -67.5t69.5 -168.5t-69.5 -168.5t-168.5 -67.5t-167.5 67.5t-68.5 168.5zM900 920
v-42h-238v42q33 0 41.5 3.5t8.5 16.5v270q0 25 -22 36l-32 18v28l164 48h28v-88q69 88 158 88q64 0 99 -42t35 -108v-250q0 -13 8.5 -16.5t41.5 -3.5v-42h-236v42q33 0 41.5 3.5t8.5 16.5v222q0 90 -72 90q-48 0 -84 -36v-276q0 -14 8 -17t42 -3zM1574 1104q0 86 -23.5 133
t-68.5 47t-68.5 -47t-23.5 -133q0 -180 92 -180t92 180zM496 872q-37 0 -63.5 27t-26.5 63t26.5 63t63.5 27q36 0 62 -27t26 -63t-26 -63t-62 -27zM1032 -10h-26v84q-19 -31 -57.5 -57.5t-88.5 -26.5q-76 0 -128 64t-52 156q0 109 65.5 180.5t160.5 71.5q57 0 100 -38v154
q0 25 -22 36l-32 18v28l166 48h24v-608q0 -14 4.5 -21t17.5 -13l34 -18v-28zM1760 0v42q33 0 40.5 3t7.5 17v334h-62v56h62v18q0 99 70.5 168.5t175.5 69.5q50 0 82 -18t32 -50q0 -28 -18 -42t-42 -14q-19 0 -34 10.5t-23.5 23.5t-19.5 23.5t-23 10.5q-25 0 -43.5 -26
t-18.5 -74v-100h104v-56h-104v-334q0 -13 12.5 -16.5t65.5 -3.5v-42h-264zM1674 110q-27 -56 -80 -88t-120 -32q-94 0 -161 61.5t-67 164.5q0 102 67.5 174t164.5 72q96 0 147 -60.5t51 -151.5v-24h-296q4 -75 40.5 -116.5t95.5 -41.5q37 0 63.5 17t54.5 55zM926 74
q52 0 80 42v240q-26 50 -82 50q-47 0 -77.5 -46t-30.5 -122q0 -71 31 -117.5t79 -46.5zM1474 404q-39 0 -62.5 -33.5t-29.5 -94.5h166q-4 128 -74 128z" />
    <glyph glyph-name=".null" horiz-adv-x="0" 
 />
    <glyph glyph-name="nonmarkingreturn" horiz-adv-x="682" 
 />
    <glyph glyph-name="space" unicode=" " horiz-adv-x="432" 
 />
    <glyph glyph-name="exclam" unicode="!" horiz-adv-x="660" 
d="M348 470h-68l128 634q24 118 92.5 177t161.5 59q62 0 106.5 -33t52 -90.5t-44.5 -134.5zM410 176q0 -81 -58.5 -138.5t-141.5 -57.5q-82 0 -140 57.5t-58 138.5t58 138.5t140 57.5q83 0 141.5 -57.5t58.5 -138.5z" />
    <glyph glyph-name="quotedbl" unicode="&#x22;" horiz-adv-x="942" 
d="M436 784h-74l72 388q7 37 11 58t12 54.5t16.5 53t20.5 45.5t27 41t34.5 29t45 20.5t55.5 6.5q59 0 88.5 -33.5t29.5 -80.5q0 -12 -1.5 -24t-6.5 -25.5t-8.5 -24t-12 -26.5t-13.5 -25.5t-16.5 -28t-16.5 -26t-18.5 -28.5t-18.5 -28zM832 784h-74l72 388q7 37 11 58
t12 54.5t16.5 53t20.5 45.5t27 41t34.5 29t45 20.5t55.5 6.5q59 0 88.5 -33.5t29.5 -80.5q0 -12 -1.5 -24t-6.5 -25.5t-8.5 -24t-12 -26.5t-13.5 -25.5t-16.5 -28t-16.5 -26t-18.5 -28.5t-18.5 -28z" />
    <glyph glyph-name="numbersign" unicode="#" horiz-adv-x="1304" 
d="M454 0l250 396h-284l-250 -396h-152l250 396h-188l36 136h238l162 256h-214l38 138h264l248 394h152l-248 -394h284l248 394h152l-248 -394h188l-38 -138h-238l-162 -256h214l-36 -136h-264l-250 -396h-152zM506 532h284l162 256h-284z" />
    <glyph glyph-name="dollar" unicode="$" horiz-adv-x="1124" 
d="M462 0h-34l-86 -210h-102l90 222q-111 18 -202 62.5t-138 105.5l74 322h102q-7 -85 6.5 -151.5t44.5 -110t71 -69.5t90 -39l176 434q-121 62 -161 92q-119 86 -119 216q0 88 40.5 168.5t112 142t178 98.5t229.5 37h24l78 194h102l-84 -206q99 -20 179 -65.5t127 -100.5
l-110 -282h-98q39 269 -146 328l-154 -382q131 -69 179 -106q122 -95 123 -222q0 -128 -83 -239t-219.5 -175t-289.5 -64zM550 1012q0 -87 118 -160l142 350h-20q-109 0 -174.5 -53t-65.5 -137zM638 522l-162 -402q119 0 196.5 68.5t77.5 171.5q0 51 -29 88.5t-83 73.5z" />
    <glyph glyph-name="percent" unicode="%" horiz-adv-x="1888" 
d="M726 1340q115 0 188.5 -69.5t73.5 -196.5q0 -80 -38 -158.5t-101 -139.5t-152.5 -98.5t-186.5 -37.5q-115 0 -188.5 69.5t-73.5 196.5q0 107 63.5 207t175 163.5t239.5 63.5zM408 0h-176l1402 1320h176zM524 722q53 0 111.5 81.5t94.5 186t36 176.5q0 92 -54 92
q-53 0 -111.5 -81.5t-94.5 -186t-36 -176.5q0 -92 54 -92zM1316 -20q-115 0 -188.5 69.5t-73.5 196.5q0 107 63.5 207t175 163.5t239.5 63.5q115 0 188.5 -69.5t73.5 -196.5q0 -107 -63.5 -207t-175 -163.5t-239.5 -63.5zM1518 598q-53 0 -111.5 -81.5t-94.5 -185.5
t-36 -175q0 -94 54 -94q53 0 111.5 81.5t94.5 186t36 176.5q0 92 -54 92z" />
    <glyph glyph-name="ampersand" unicode="&#x26;" horiz-adv-x="1572" 
d="M918 0l-58 110q-228 -130 -446 -130q-168 0 -266 87t-98 209q0 89 36.5 164.5t103.5 131.5t152 97t190 69q-28 77 -28 142q0 195 148 327.5t372 132.5q144 0 231 -58.5t87 -161.5q0 -87 -68 -161.5t-170 -122.5t-232 -80l196 -374q61 67 97.5 130t36.5 96q0 50 -90 50
l36 96h454l-38 -96q-114 0 -164 -26.5t-102 -109.5q-73 -115 -186 -224l56 -104q30 -55 61 -76t93 -22l66 -2l-38 -94h-432zM832 830l10 -18q122 49 193 136t71 184q0 53 -28.5 82.5t-83.5 29.5q-89 0 -150.5 -67.5t-61.5 -168.5q0 -82 50 -178zM362 388q0 -108 67 -175
t179 -67q102 0 208 48l-252 474q-1 2 -3 5t-3 5q-90 -47 -143 -127t-53 -163z" />
    <glyph glyph-name="quotesingle" unicode="'" horiz-adv-x="546" 
d="M436 784h-74l72 388q7 37 11 58t12 54.5t16.5 53t20.5 45.5t27 41t34.5 29t45 20.5t55.5 6.5q59 0 88.5 -33.5t29.5 -80.5q0 -12 -1.5 -24t-6.5 -25.5t-8.5 -24t-12 -26.5t-13.5 -25.5t-16.5 -28t-16.5 -26t-18.5 -28.5t-18.5 -28z" />
    <glyph glyph-name="parenleft" unicode="(" horiz-adv-x="810" 
d="M1158 1436q-233 -158 -415.5 -384.5t-281.5 -474t-99 -471.5q0 -229 100 -384l-62 -58q-306 241 -306 578q0 241 130.5 482t361 441t526.5 335z" />
    <glyph glyph-name="parenright" unicode=")" horiz-adv-x="810" 
d="M-258 -272q233 158 415.5 384.5t281.5 474t99 471.5q0 229 -100 384l62 58q306 -241 306 -578q0 -241 -130.5 -482t-361 -441t-526.5 -335z" />
    <glyph glyph-name="asterisk" unicode="*" horiz-adv-x="990" 
d="M754 924q-8 -80 -29.5 -117t-72.5 -37q-34 0 -59 23t-25 59q0 7 1 14t4 15t5.5 14t8.5 16t8.5 14.5t10 15.5t10.5 15t11.5 15.5t10.5 14.5l82 112l-130 -54q-6 -3 -24 -11t-27 -11.5t-23 -8.5t-25.5 -7t-22.5 -2q-41 0 -63.5 25.5t-22.5 58.5q0 39 27.5 63.5t78.5 24.5
q17 0 222 -20l-120 90q-37 27 -54 41t-32.5 36t-15.5 45q0 34 26 60t62 26q12 0 22.5 -3t18 -6t15.5 -11.5t12.5 -13.5t11.5 -17.5t10 -18t10.5 -21.5t9.5 -21l70 -152l16 154q8 80 29.5 117t72.5 37q35 0 59.5 -22t24.5 -58q0 -7 -1 -14.5t-4.5 -16t-5.5 -14.5t-8 -16
t-8.5 -14.5t-10.5 -16t-10 -14.5t-11.5 -15.5t-10.5 -14.5l-82 -112l130 56q9 4 30.5 12.5t33 13t28.5 8.5t30 4q41 0 63.5 -25.5t22.5 -58.5q0 -39 -27.5 -62.5t-78.5 -23.5q-38 0 -222 18l120 -88q53 -38 76.5 -64t23.5 -60t-25.5 -60t-60.5 -26q-13 0 -24.5 3t-21 10
t-16 13t-14 19t-11.5 20t-12 24t-11 23l-70 154z" />
    <glyph glyph-name="plus" unicode="+" 
d="M1088 544h-424l-172 -428h-150l172 428h-422l56 140h424l172 428h150l-172 -428h422z" />
    <glyph glyph-name="comma" unicode="," horiz-adv-x="660" 
d="M-104 -256q141 36 209.5 94t68.5 126q0 23 -17 41.5t-41 32.5t-48 30t-41 43.5t-17 64.5q0 82 57 139t135 57q90 0 143 -63.5t53 -158.5q0 -181 -132.5 -322.5t-359.5 -187.5z" />
    <glyph glyph-name="hyphen" unicode="-" horiz-adv-x="808" 
d="M686 456h-574l72 180h576z" />
    <glyph glyph-name="period" unicode="." horiz-adv-x="660" 
d="M410 176q0 -81 -58.5 -138.5t-141.5 -57.5q-82 0 -140 57.5t-58 138.5t58 138.5t140 57.5q83 0 141.5 -57.5t58.5 -138.5z" />
    <glyph glyph-name="slash" unicode="/" horiz-adv-x="896" 
d="M1224 1480l-1278 -1796h-184l1278 1796h184z" />
    <glyph glyph-name="zero" unicode="0" horiz-adv-x="1338" 
d="M118 436q0 156 72 319.5t187.5 292t272 210.5t314.5 82q82 0 155 -30.5t129.5 -86.5t90 -143.5t33.5 -193.5q0 -104 -33 -214t-90 -209.5t-138 -188.5t-173 -153.5t-200 -102.5t-214 -38q-64 0 -124 19t-111.5 57.5t-89.5 92.5t-59.5 128t-21.5 159zM1076 1032
q0 186 -124 186q-87 0 -186.5 -103.5t-175.5 -249.5t-127 -306t-51 -271q0 -186 124 -186q88 0 187.5 103.5t175.5 249.5t126.5 306t50.5 271z" />
    <glyph glyph-name="one" unicode="1" horiz-adv-x="950" 
d="M770 120l-48 -120h-844l48 120h88q118 0 153.5 9t48.5 43l336 832h-260l50 120q356 0 554 216h120l-466 -1154q-10 -27 -10 -36q0 -19 32 -24.5t130 -5.5h68z" />
    <glyph glyph-name="two" unicode="2" horiz-adv-x="1074" 
d="M316 906l-74 64q135 177 294.5 273.5t323.5 96.5q144 0 222 -70t78 -180q0 -47 -15.5 -95.5t-38.5 -91t-65.5 -90t-80.5 -85t-100.5 -85t-108 -80t-120 -80t-120.5 -76t-125 -75.5q-51 -31 -76 -46v-8h380q28 0 50.5 6t40.5 14t47.5 35t51 49t72.5 76l64 -26l-254 -432
h-908l44 106q514 340 724 530.5t210 329.5q0 63 -44.5 102.5t-127.5 39.5q-90 0 -171 -51t-173 -151z" />
    <glyph glyph-name="three" unicode="3" horiz-adv-x="1058" 
d="M1142 1140q0 -58 -25.5 -110.5t-62.5 -90.5t-94.5 -75.5t-106.5 -61t-113 -50.5q112 -17 185 -76.5t73 -165.5q0 -114 -71 -216t-179.5 -169t-234.5 -106t-239 -39q-146 0 -238 51.5t-92 140.5q0 58 40 94t100 36q37 0 65 -21t46 -51t35.5 -60t45 -51t64.5 -21
q77 0 153.5 44t127.5 123.5t51 170.5q0 92 -68 137t-188 45v72q372 169 372 338q0 48 -28.5 76t-85.5 28q-124 0 -282 -142l-62 64q121 140 266.5 213t295.5 73q118 0 184 -56t66 -144z" />
    <glyph glyph-name="four" unicode="4" horiz-adv-x="1276" 
d="M946 0h-680l38 96q118 0 153.5 9t48.5 43l106 264h-598l38 92l1020 816h228l-316 -782h284l-50 -126h-286l-100 -248q-10 -24 -10 -38q0 -19 32 -24.5t130 -5.5zM268 538h396l190 474h-8l-578 -466v-8z" />
    <glyph glyph-name="five" unicode="5" horiz-adv-x="1040" 
d="M346 98q135 0 232.5 82t97.5 206q0 116 -109.5 175t-302.5 59l-28 18l354 682h636l-114 -280h-554l-86 -168q225 -11 355.5 -93.5t130.5 -236.5q0 -144 -99 -275t-258.5 -209t-328.5 -78q-146 0 -237 51t-91 141q0 57 39 93.5t99 36.5q37 0 65 -21t46.5 -51l37 -60
t47.5 -51t68 -21z" />
    <glyph glyph-name="six" unicode="6" horiz-adv-x="1220" 
d="M1166 532q0 -143 -90.5 -271t-241.5 -204.5t-320 -76.5q-194 0 -309 114t-115 290q0 169 90.5 329.5t249 288.5t387.5 218.5t493 119.5l-4 -114q-141 -24 -267 -76.5t-224.5 -125.5t-175 -157t-131.5 -179q74 58 171.5 96t192.5 38q137 0 215.5 -83t78.5 -207zM394 290
q0 -198 126 -198q79 0 153.5 68.5t118.5 168.5t44 193q0 158 -156 158q-96 0 -206 -58q-80 -175 -80 -332z" />
    <glyph glyph-name="seven" unicode="7" horiz-adv-x="1104" 
d="M638 1034q-37 0 -56 -0.5t-44.5 -4.5t-38 -8.5t-33 -18.5t-33.5 -28t-36 -43t-42.5 -57.5t-52.5 -77.5h-112l236 524h964l-42 -106l-946 -1214h-302l12 36l946 998h-420z" />
    <glyph glyph-name="eight" unicode="8" horiz-adv-x="1192" 
d="M1104 440q0 -87 -48 -171t-128.5 -147.5t-194.5 -102.5t-239 -39t-230.5 38t-169.5 109t-64 161q0 129 116 227t306 141q-140 108 -140 238q0 79 39 157.5t108 143t175 105t228 40.5q170 0 284 -79.5t114 -206.5q0 -117 -97.5 -204.5t-254.5 -121.5q92 -61 144 -129
t52 -159zM598 1018q0 -17 4 -33.5t14.5 -32.5t19 -28.5t28 -29t30.5 -26t37.5 -27t38 -25t42.5 -26.5t42 -26q79 50 127.5 124t48.5 156q0 87 -55.5 134.5t-138.5 47.5q-102 0 -170 -61t-68 -147zM284 318q0 -102 64 -163t160 -61q123 0 205.5 69t82.5 179q0 34 -15 64.5
t-49.5 59.5t-62 48.5t-81 52t-78.5 49.5q-103 -46 -164.5 -128t-61.5 -170z" />
    <glyph glyph-name="nine" unicode="9" horiz-adv-x="1218" 
d="M1282 936q0 -169 -90.5 -329.5t-249 -288.5t-387.5 -218.5t-493 -119.5l4 114q141 24 267 76.5t224.5 125.5t175 157t131.5 179q-74 -58 -171.5 -96t-192.5 -38q-137 0 -215.5 83t-78.5 207q0 143 90.5 271t241.5 204.5t320 76.5q194 0 309 -114t115 -290zM536 798
q0 -158 156 -158q96 0 206 58q80 175 80 332q0 198 -126 198q-79 0 -153.5 -68.5t-118.5 -168.5t-44 -193z" />
    <glyph glyph-name="colon" unicode=":" horiz-adv-x="660" 
d="M642 748q0 -81 -58.5 -138.5t-141.5 -57.5q-82 0 -140 57.5t-58 138.5t58 138.5t140 57.5q83 0 141.5 -57.5t58.5 -138.5zM410 176q0 -81 -58.5 -138.5t-141.5 -57.5q-82 0 -140 57.5t-58 138.5t58 138.5t140 57.5q83 0 141.5 -57.5t58.5 -138.5z" />
    <glyph glyph-name="semicolon" unicode=";" horiz-adv-x="660" 
d="M642 748q0 -81 -58.5 -138.5t-141.5 -57.5q-82 0 -140 57.5t-58 138.5t58 138.5t140 57.5q83 0 141.5 -57.5t58.5 -138.5zM-104 -256q141 36 209.5 94t68.5 126q0 23 -17 41.5t-41 32.5t-48 30t-41 43.5t-17 64.5q0 82 57 139t135 57q90 0 143 -63.5t53 -158.5
q0 -181 -132.5 -322.5t-359.5 -187.5z" />
    <glyph glyph-name="less" unicode="&#x3c;" 
d="M148 564l44 106l1076 444l-76 -184l-824 -336l556 -332l-60 -146z" />
    <glyph glyph-name="equal" unicode="=" 
d="M168 732l58 140h996l-58 -140h-996zM22 372l58 140h996l-58 -140h-996z" />
    <glyph glyph-name="greater" unicode="&#x3e;" 
d="M1090 666l-44 -106l-1076 -444l76 184l824 336l-556 332l60 146z" />
    <glyph glyph-name="question" unicode="?" horiz-adv-x="1004" 
d="M520 874q103 6 181 16t144 27.5t100.5 46.5t34.5 68q0 82 -164 82q-82 0 -173 -34t-143 -34q-45 0 -75.5 33.5t-30.5 76.5q0 82 72.5 133t197.5 51q114 0 213 -45t157 -119.5t58 -159.5q0 -81 -33 -147.5t-87.5 -112t-130 -79t-155 -52t-168.5 -27.5l-88 -128h-104
l86 314q13 49 39 68t69 22zM516 176q0 -81 -58.5 -138.5t-141.5 -57.5q-82 0 -140 57.5t-58 138.5t58 138.5t140 57.5q83 0 141.5 -57.5t58.5 -138.5z" />
    <glyph glyph-name="at" unicode="@" horiz-adv-x="2014" 
d="M1302 152q64 0 146.5 49.5t157 130t125.5 198t51 238.5q0 200 -134.5 314t-399.5 114q-133 0 -261.5 -41.5t-233 -112.5t-193.5 -165.5t-149 -200t-93.5 -218t-33.5 -216.5q0 -246 168.5 -381t455.5 -135q157 0 297.5 36.5t286.5 119.5l34 -82q-120 -85 -306 -138.5
t-378 -53.5q-234 0 -408 71t-270 209.5t-96 329.5q0 126 43.5 257.5t121 252t191.5 227t247.5 184.5t296 123.5t330.5 45.5q323 0 504.5 -148t181.5 -390q0 -144 -70.5 -281t-186 -237.5t-269 -162t-312.5 -61.5q-69 0 -101.5 27t-32.5 73q0 36 22.5 90t71.5 148h-8
q-252 -338 -440 -338q-72 0 -116 49.5t-44 136.5q0 116 58.5 243.5t148.5 227.5t205.5 165.5t221.5 65.5q63 0 105 -31t55 -77l70 92h226l-288 -650q-24 -51 -24 -74q0 -24 26 -24zM848 220q51 0 147 102t172.5 230t76.5 194q0 31 -17 51.5t-51 20.5q-70 0 -161.5 -87
t-157 -211.5t-65.5 -221.5q0 -78 56 -78z" />
    <glyph glyph-name="A" unicode="A" horiz-adv-x="1478" 
d="M356 96l-40 -96h-502l38 96q93 0 126.5 10t65.5 50l974 1164h186l-22 -1164q0 -40 23 -50t115 -10l-38 -96h-684l38 96q63 0 94.5 1t60 4.5t38.5 12.5t16 22t7 36l14 266h-442l-222 -266q-22 -28 -22 -44q0 -15 31.5 -20t144.5 -12zM886 992l-372 -446h358l22 446h-8z
" />
    <glyph glyph-name="B" unicode="B" horiz-adv-x="1336" 
d="M384 1320h648q193 0 297.5 -62t104.5 -184q0 -79 -43 -149.5t-111.5 -118t-147.5 -77.5t-156 -39v-6q121 -6 197.5 -64.5t76.5 -161.5q0 -92 -52.5 -175.5t-145.5 -146t-230.5 -99.5t-299.5 -37h-672l38 96q108 0 141 11t47 47l410 1012q6 15 6 26q0 18 -31 25t-117 7z
M638 724h62q113 0 206.5 37t152.5 113.5t59 179.5q0 84 -53.5 121t-164.5 37h-62zM390 108h94q196 0 319 95.5t123 256.5q0 82 -60 119t-180 37h-90z" />
    <glyph glyph-name="C" unicode="C" horiz-adv-x="1258" 
d="M1240 852q-14 182 -76 274t-178 92q-98 0 -197.5 -70.5t-174.5 -181.5t-122.5 -253.5t-47.5 -278.5q0 -132 61.5 -204t166.5 -72q202 0 390 200l72 -88q-118 -132 -271 -211t-315 -79q-90 0 -170.5 29t-144 83.5t-100.5 143t-37 198.5q0 127 46.5 259t130.5 246.5
t192.5 205t242.5 143t270 52.5q173 0 302 -114l96 94h90l-138 -468h-88z" />
    <glyph glyph-name="D" unicode="D" horiz-adv-x="1488" 
d="M384 1320h546q281 0 438.5 -132.5t157.5 -345.5q0 -142 -57 -272.5t-160 -233t-239.5 -178.5t-302.5 -117t-343 -41h-574l38 96q108 0 141 11t47 47l410 1012q6 15 6 26q0 18 -31 25t-117 7zM390 108h86q134 0 265 61.5t231 164.5t162 249t62 305q0 168 -70.5 246
t-231.5 78h-56z" />
    <glyph glyph-name="E" unicode="E" horiz-adv-x="1332" 
d="M384 1320h1122l-174 -470h-96q27 182 23 237q-5 88 -68 112q-33 13 -85 13h-268l-198 -484h72q49 0 75.5 1t55 10t42 18.5t35.5 37.5t36.5 54.5t43.5 82.5h96l-208 -516h-88q28 100 28 140q0 43 -31.5 53.5t-128.5 10.5h-70l-208 -512h188q82 0 141 9.5t115.5 33
t108.5 68t107 110.5t122 165h112l-244 -494h-1190l38 96q108 0 141 11t47 47l410 1012q6 15 6 26q0 18 -31 25t-117 7z" />
    <glyph glyph-name="F" unicode="F" horiz-adv-x="1278" 
d="M1138 1212h-300l-198 -484h72q49 0 75.5 1t55 10t42 18.5t35.5 37.5t36.5 54.5t43.5 82.5h96l-208 -516h-88q28 100 28 140q0 43 -31.5 53.5t-128.5 10.5h-70l-188 -466q-8 -20 -8 -28q0 -17 27 -23.5t107 -6.5h56l-38 -96h-704l38 96q108 0 141 11t47 47l410 1012
q6 15 6 26q0 18 -31 25t-117 7l40 96h1154l-174 -470h-96q27 182 23 237q-5 88 -68 112q-33 13 -85 13z" />
    <glyph glyph-name="G" unicode="G" horiz-adv-x="1470" 
d="M690 104q93 0 166 40l112 280q12 27 12 42q0 20 -31.5 26.5t-132.5 9.5l38 96h640l-38 -96q-96 0 -125 -11t-43 -47l-114 -282q-142 -91 -273 -136.5t-283 -45.5q-103 0 -196.5 32t-166.5 90.5t-116 149t-43 200.5q0 160 74.5 321t196 285.5t290 203t343.5 78.5
q193 0 318 -114l98 94h90l-138 -468h-88q-14 183 -79 274.5t-193 91.5q-102 0 -205 -68t-181.5 -175t-128 -247t-49.5 -276q0 -74 14 -135t42 -110t76.5 -76t113.5 -27z" />
    <glyph glyph-name="H" unicode="H" horiz-adv-x="1610" 
d="M550 96l-38 -96h-662l38 96q108 0 141 11t47 47l410 1012q6 15 6 26q0 18 -31 25t-117 7l40 96h662l-40 -96q-75 0 -111 -5.5t-50.5 -16.5t-24.5 -36l-176 -436h534l176 436q6 15 6 26q0 18 -31 25t-117 7l40 96h662l-40 -96q-75 0 -111 -5.5t-50.5 -16.5t-24.5 -36
l-410 -1012q-6 -15 -6 -26q0 -18 30.5 -25t115.5 -7l-38 -96h-662l38 96q108 0 141 11t47 47l186 460h-534l-186 -460q-8 -20 -8 -26q0 -18 31 -25t117 -7z" />
    <glyph glyph-name="I" unicode="I" horiz-adv-x="742" 
d="M550 96l-38 -96h-662l38 96q108 0 141 11t47 47l410 1012q6 15 6 26q0 18 -31 25t-117 7l40 96h662l-40 -96q-75 0 -111 -5.5t-50.5 -16.5t-24.5 -36l-410 -1012q-8 -20 -8 -26q0 -18 31 -25t117 -7z" />
    <glyph glyph-name="J" unicode="J" horiz-adv-x="700" 
d="M798 1166l-442 -1090q-44 -109 -127.5 -207.5t-179.5 -166t-198 -107t-187 -39.5q-89 0 -146.5 45.5t-57.5 112.5q0 64 43.5 104t102.5 40q38 0 66 -17.5t43 -42.5t27.5 -50t27.5 -42.5t34 -17.5q33 0 62 34t64 120l536 1324q6 15 6 26q0 18 -31.5 25t-118.5 7l40 96h664
l-40 -96q-108 0 -141 -11t-47 -47z" />
    <glyph glyph-name="K" unicode="K" horiz-adv-x="1478" 
d="M550 96l-38 -96h-662l38 96q108 0 141 11t47 47l410 1012q6 15 6 26q0 18 -31 25t-117 7l40 96h662l-40 -96q-75 0 -111 -5.5t-50.5 -16.5t-24.5 -36l-198 -492l656 462q46 31 46 58q0 12 -11 18t-43 9t-96 3l40 96h552l-40 -96q-96 0 -136.5 -12.5t-97.5 -51.5
l-502 -348l216 -654q7 -21 17.5 -32t46.5 -20.5t100 -9.5l-38 -96h-664l38 92q88 0 120 10t32 40q0 16 -6 40l-128 446l-170 -116l-144 -358q-8 -20 -8 -26q0 -18 31 -25t117 -7z" />
    <glyph glyph-name="L" unicode="L" horiz-adv-x="1282" 
d="M1008 0h-1158l38 96q108 0 141 11t47 47l410 1012q6 15 6 26q0 18 -31 25t-117 7l40 96h662l-40 -96q-75 0 -111 -5.5t-50.5 -16.5t-24.5 -36l-430 -1058h156q101 0 170.5 14.5t139.5 57.5t135 116.5t149 197.5h110z" />
    <glyph glyph-name="M" unicode="M" horiz-adv-x="1822" 
d="M364 1320h598l-72 -858h8l638 858h590l-40 -96q-75 0 -111 -5.5t-50.5 -16.5t-24.5 -36l-410 -1012q-6 -15 -6 -26q0 -18 30.5 -25t115.5 -7l-38 -96h-658l38 96q108 0 141 11t47 47l424 1044h-8l-910 -1210h-114l90 1210h-8l-422 -1044q-8 -13 -8 -26q0 -18 33.5 -25
t132.5 -7l-38 -96h-502l38 96q85 0 126 5.5t56.5 16.5t25.5 36l410 1012q6 15 6 26q0 18 -34 25t-134 7z" />
    <glyph glyph-name="N" unicode="N" horiz-adv-x="1446" 
d="M1544 1166l-474 -1166h-144l-332 1080h-8l-374 -926q-8 -13 -8 -26q0 -18 33.5 -25t132.5 -7l-38 -96h-502l38 96q85 0 126 5.5t56.5 16.5t25.5 36l410 1012q6 15 6 26q0 18 -34 25t-134 7l40 96h496l252 -864h8l288 710q6 15 6 26q0 18 -33.5 25t-132.5 7l40 96h502
l-38 -96q-85 0 -126 -5.5t-56.5 -16.5t-25.5 -36z" />
    <glyph glyph-name="O" unicode="O" horiz-adv-x="1464" 
d="M1004 1340q100 0 191 -33.5t161 -94.5t111 -155.5t41 -208.5q0 -104 -34 -211t-93.5 -202.5t-144 -179.5t-182 -144.5t-212.5 -95.5t-230 -35q-101 0 -192 33.5t-161 94.5t-111.5 155.5t-41.5 208.5q0 156 75 314t196.5 279.5t288 198t338.5 76.5zM1004 1214
q-74 0 -149 -43t-137 -113.5t-116.5 -162t-92.5 -188.5t-59.5 -193t-21.5 -174q0 -234 184 -234q87 0 175.5 60t158.5 157t125 212.5t85 233t30 211.5q0 234 -182 234z" />
    <glyph glyph-name="P" unicode="P" horiz-adv-x="1328" 
d="M410 154q-8 -20 -8 -28q0 -17 27 -23.5t107 -6.5h56l-38 -96h-704l38 96q108 0 141 11t47 47l410 1012q6 15 6 26q0 18 -31 25t-117 7l40 96h682q109 0 197.5 -30.5t144.5 -98t56 -161.5q0 -112 -60 -204.5t-159.5 -151.5t-225 -91.5t-259.5 -32.5h-190zM614 656h122
q163 0 283.5 110t120.5 280q0 166 -186 166h-116z" />
    <glyph glyph-name="Q" unicode="Q" horiz-adv-x="1462" 
d="M1002 -330q-207 -47 -344 -8t-200.5 134t-45.5 220q-138 52 -222 170t-84 286q0 156 75 314t196.5 279.5t288 198t338.5 76.5q100 0 191 -33.5t161 -94.5t111 -155.5t41 -208.5q0 -191 -105 -377.5t-284.5 -317.5t-384.5 -163q-14 -57 -1.5 -105t44.5 -81t96 -46.5
t153 -1.5zM1004 1214q-74 0 -149 -43t-137 -113.5t-116.5 -162t-92.5 -188.5t-59.5 -193t-21.5 -174q0 -234 184 -234q87 0 175.5 60t158.5 157t125 212.5t85 233t30 211.5q0 234 -182 234z" />
    <glyph glyph-name="R" unicode="R" horiz-adv-x="1426" 
d="M550 96l-38 -96h-662l38 96q108 0 141 11t47 47l410 1012q6 15 6 26q0 18 -31 25t-117 7l40 96h696q200 0 307 -68.5t107 -197.5q0 -84 -39.5 -156.5t-108.5 -125t-155 -89.5t-187 -59l114 -424q16 -58 42.5 -80t77.5 -24l76 -2l-38 -94h-442l-114 544q-6 30 -22 41
t-52 11h-58l-178 -442q-8 -13 -8 -26q0 -18 31 -25t117 -7zM632 704h116q77 0 149.5 22t132 64t95 109t35.5 149q0 164 -206 164h-116z" />
    <glyph glyph-name="S" unicode="S" horiz-adv-x="1194" 
d="M1334 1320l-152 -468h-78q-3 175 -81.5 270.5t-206.5 95.5q-106 0 -169 -57t-63 -143q0 -46 28.5 -84.5t74.5 -67t101.5 -57t111 -60t101.5 -68.5t74.5 -90.5t28.5 -118.5q0 -132 -82.5 -246t-219 -180t-290.5 -66q-107 0 -206 35t-162 95l-86 -110h-102l138 494h96
q1 -86 20.5 -154t51.5 -111.5t76.5 -72t90.5 -40.5t97 -12q119 0 194.5 70t75.5 176q0 48 -27 87.5t-70 67t-95.5 53.5t-105 55t-95.5 63.5t-70 86.5t-27 117q0 89 39.5 173t108 147.5t167 101.5t209.5 38q83 0 171 -33.5t135 -80.5l102 94h96z" />
    <glyph glyph-name="T" unicode="T" horiz-adv-x="1456" 
d="M1324 1212h-130l-424 -1048q-10 -25 -10 -36q0 -18 28 -25t106 -7h52l-38 -96h-742l38 96h54q98 0 129 11.5t45 46.5l430 1058h-108q-62 0 -107 -14.5t-89 -54.5t-80 -85t-99 -132q-35 -49 -55 -76h-112l208 470h1304l-172 -470h-98q27 182 23 237q-5 88 -68 112
q-33 13 -85 13z" />
    <glyph glyph-name="U" unicode="U" horiz-adv-x="1464" 
d="M1404 1166q6 15 6 26q0 18 -33.5 25t-132.5 7l40 96h502l-40 -96q-84 0 -125 -5.5t-57 -16.5t-26 -36l-280 -690q-97 -240 -265 -368t-395 -128q-202 0 -322 86.5t-120 243.5q0 93 44 202l264 654q8 20 8 26q0 18 -31.5 25t-118.5 7l40 96h662l-38 -96q-76 0 -112.5 -5.5
t-51 -16.5t-24.5 -36l-270 -666q-46 -112 -46 -194q0 -90 57 -134t163 -44q283 0 432 372z" />
    <glyph glyph-name="V" unicode="V" horiz-adv-x="1466" 
d="M708 344h8l688 804q22 28 22 44q0 15 -31.5 20t-142.5 12l38 96h516l-40 -96q-90 0 -121.5 -10t-66.5 -50l-1006 -1164h-166l44 1164q1 40 -23 50t-117 10l38 96h678l-40 -96q-75 0 -112 -2t-61.5 -11t-31.5 -22.5t-9 -40.5z" />
    <glyph glyph-name="W" unicode="W" horiz-adv-x="1960" 
d="M1130 866l-642 -866h-166l128 1164q3 40 -22.5 50t-117.5 10l38 96h680l-40 -96q-136 0 -171.5 -12t-42.5 -64l-94 -716h8l648 888h168l-114 -888h8l510 710q26 35 26 50q0 19 -39 25.5t-137 6.5l40 96h500l-40 -96q-93 0 -125.5 -10t-62.5 -50l-862 -1164h-166l96 866
h-8z" />
    <glyph glyph-name="X" unicode="X" horiz-adv-x="1492" 
d="M396 96l-38 -96h-544l38 96q93 0 146.5 12t93.5 48l588 516l-156 492q-7 24 -16 34.5t-42 18t-98 7.5l40 96h668l-40 -96q-109 0 -147.5 -12.5t-38.5 -45.5q0 -12 6 -30l100 -312l338 304q37 32 47.5 43t10.5 21q0 32 -146 32l40 96h542l-40 -96q-89 0 -140 -12.5
t-92 -47.5l-526 -450l178 -558q10 -34 41 -47t127 -13l-38 -96h-686l38 96q109 0 151.5 12t42.5 42q0 8 -8 36l-120 374l-422 -382q-2 -2 -7 -6.5t-7.5 -6.5t-6.5 -5.5t-6 -6t-5 -6t-4.5 -5.5t-3 -5t-2 -5.5t-0.5 -5.5q0 -30 144 -30z" />
    <glyph glyph-name="Y" unicode="Y" horiz-adv-x="1476" 
d="M954 96l-38 -96h-742l38 96h52q99 0 130.5 11.5t45.5 46.5l176 434l-162 576q-8 27 -17.5 37.5t-37.5 16.5t-89 6l38 96h698l-40 -96q-121 0 -163.5 -12t-42.5 -44q0 -6 4 -26l102 -428h8l488 434q32 32 32 48t-39.5 22t-136.5 6l38 96h518l-40 -96q-86 0 -119 -11.5
t-75 -48.5l-618 -542l-186 -458q-10 -25 -10 -36q0 -18 28.5 -25t105.5 -7h54z" />
    <glyph glyph-name="Z" unicode="Z" horiz-adv-x="1396" 
d="M484 1320h1126l-30 -72l-1230 -1140h244q102 0 171.5 14.5t140 57.5t135.5 116.5t149 197.5h110l-242 -494h-1174l30 74l1236 1138h-332q-28 0 -52 -4t-44.5 -8.5t-42 -17.5t-36.5 -22.5t-37.5 -32.5t-36 -37.5t-39.5 -48t-41 -54t-47.5 -65t-53.5 -72.5h-112z" />
    <glyph glyph-name="bracketleft" unicode="[" horiz-adv-x="816" 
d="M476 -220l-40 -96h-592l726 1796h592l-38 -94l-206 -10q-75 -3 -104 -17.5t-48 -62.5l-578 -1426q-10 -27 -10 -40q0 -22 22.5 -30t75.5 -10z" />
    <glyph glyph-name="backslash" unicode="\" horiz-adv-x="874" 
d="M318 -316l170 1796h158l-170 -1796h-158z" />
    <glyph glyph-name="bracketright" unicode="]" horiz-adv-x="816" 
d="M430 1384l40 96h592l-726 -1796h-592l38 94l206 10q75 3 104 17.5t48 62.5l578 1426q10 27 10 40q0 22 -22.5 30t-75.5 10z" />
    <glyph glyph-name="asciicircum" unicode="^" horiz-adv-x="964" 
d="M754 1320h144l74 -580h-156l-50 394l-370 -394h-188z" />
    <glyph glyph-name="underscore" unicode="_" horiz-adv-x="934" 
d="M504 -306h-700l68 174h700z" />
    <glyph glyph-name="grave" unicode="`" horiz-adv-x="1000" 
d="M908 1380l78 -280l-66 -42l-226 202q-78 69 -51 147q20 54 77 80q71 30 128 -12q41 -30 60 -95z" />
    <glyph glyph-name="a" unicode="a" horiz-adv-x="1274" 
d="M700 360h-8q-61 -80 -116 -142.5t-119.5 -119t-131 -87.5t-129.5 -31q-81 0 -131.5 56t-50.5 154q0 99 40.5 211t112 213t159.5 184t191 132.5t199 49.5q72 0 122.5 -35t67.5 -87l72 102h260l-282 -674q-24 -55 -24 -82q0 -28 28 -28q70 0 216 166l48 -50
q-97 -130 -228 -221t-264 -91q-66 0 -100 31t-34 83q0 69 102 266zM410 198q57 0 163.5 115.5t189.5 256.5t83 210q0 44 -21 69t-63 25q-78 0 -177.5 -100.5t-169 -241t-69.5 -248.5q0 -86 64 -86z" />
    <glyph glyph-name="b" unicode="b" horiz-adv-x="1172" 
d="M60 352l356 864q22 57 22 76t-21.5 35t-104.5 61l24 58l438 56l54 -20l-384 -902h8q55 73 112 136t128 126.5t147.5 100.5t146.5 37q87 0 136.5 -54t49.5 -158q0 -76 -31.5 -164.5t-86 -176t-134.5 -168.5t-172 -143t-203 -99t-223 -37q-140 0 -216 66t-76 172
q0 65 30 134zM770 768q-47 0 -131 -73t-161 -171t-134.5 -201.5t-57.5 -158.5q0 -38 21.5 -60t56.5 -22q93 0 204.5 103t186.5 243.5t75 245.5q0 94 -60 94z" />
    <glyph glyph-name="c" unicode="c" horiz-adv-x="928" 
d="M684 868q-66 0 -145.5 -97t-133 -230.5t-53.5 -234.5q0 -71 33.5 -107.5t94.5 -36.5q126 0 300 198l66 -60q-111 -147 -244 -233.5t-280 -86.5q-130 0 -209 77t-79 199q0 92 35.5 194t102 195.5t152.5 169t195 120.5t221 45q111 0 170.5 -49t59.5 -125q0 -58 -39 -98
t-97 -40q-44 0 -68 20.5t-30.5 50t-9 59t-11.5 50t-31 20.5z" />
    <glyph glyph-name="d" unicode="d" horiz-adv-x="1272" 
d="M734 -20q-66 0 -100 31t-34 83q0 62 102 266h-8q-50 -68 -103 -127.5t-120.5 -120t-142 -96.5t-142.5 -36q-85 0 -136.5 59t-51.5 157q0 124 65 264.5t164.5 254.5t229 189.5t249.5 75.5q66 0 115.5 -27t76.5 -67l136 330q22 57 22 76q0 18 -21 33.5t-105 62.5l24 58
l438 56l54 -20l-488 -1196q-26 -59 -26 -82q0 -28 30 -28q70 0 216 166l48 -50q-97 -130 -228 -221t-264 -91zM402 196q60 0 168.5 116.5t192 258t83.5 209.5q0 44 -23.5 69t-66.5 25q-88 0 -190.5 -100t-170 -239t-67.5 -249q0 -43 21 -66.5t53 -23.5z" />
    <glyph glyph-name="e" unicode="e" horiz-adv-x="994" 
d="M862 278q-106 -130 -253.5 -214t-296.5 -84q-128 0 -207 70t-79 188q0 78 26 163.5t72.5 167.5t115 157t148 131t177.5 89.5t199 33.5q120 0 185 -57.5t65 -138.5q0 -300 -664 -380q-10 -50 -10 -84q0 -78 33.5 -118t96.5 -40q80 0 167 47.5t165 132.5zM694 882
q-74 0 -171.5 -123t-148.5 -271q175 46 279.5 131t104.5 189q0 33 -16 53.5t-48 20.5z" />
    <glyph glyph-name="f" unicode="f" horiz-adv-x="686" 
d="M310 66q-42 -105 -105.5 -196.5t-143 -162t-178.5 -111t-203 -40.5q-96 0 -155 38.5t-59 105.5q0 55 36.5 89.5t93.5 34.5q37 0 64.5 -25.5t41.5 -55.5t37 -55.5t51 -25.5q39 0 70.5 35t80 146.5t123.5 332.5l224 668h-118l48 116h108l12 34q73 215 257.5 360.5
t410.5 145.5q102 0 164 -38.5t62 -103.5q0 -54 -35.5 -89t-92.5 -35q-38 0 -65 25t-39.5 55t-33 55t-48.5 25q-51 0 -84 -48.5t-84 -175.5l-84 -210h194l-48 -116h-192z" />
    <glyph glyph-name="g" unicode="g" horiz-adv-x="1074" 
d="M868 -30q0 -80 -51.5 -155.5t-138 -132.5t-208.5 -91.5t-254 -34.5q-212 0 -335 74.5t-123 179.5q0 55 27.5 98t79.5 72t113 48t142 34q-58 46 -58 114q0 72 60 127.5t162 86.5q-76 31 -118 88.5t-42 125.5q0 69 37 136.5t102 120.5t162 86t209 33q172 0 266 -94
q123 130 232 130q57 0 90.5 -30t33.5 -84q0 -53 -39.5 -95.5t-86.5 -42.5q-31 0 -54 14.5t-32.5 32.5t-21.5 32.5t-24 14.5q-24 0 -60 -26q24 -45 24 -98q0 -69 -36 -136.5t-100 -120.5t-161 -86t-209 -33q-49 0 -102 10q-51 -15 -69.5 -32t-18.5 -38q0 -22 44.5 -37.5
t209.5 -54.5q183 -46 240 -73q86 -40 103 -113q5 -23 5 -50zM620 878q-82 0 -152 -101t-70 -203q0 -50 18 -82t54 -32q55 0 107.5 49t83.5 120t31 137q0 48 -18 80t-54 32zM-20 -150q0 -78 80 -128t202 -50q150 0 236 49.5t86 124.5q0 41 -46.5 65.5t-165.5 52.5
q-124 30 -200 66q-90 -26 -141 -72t-51 -108z" />
    <glyph glyph-name="h" unicode="h" horiz-adv-x="1274" 
d="M874 1482l-382 -894h8q82 103 169.5 187t192.5 144.5t192 60.5q68 0 101 -32.5t33 -89.5t-30 -126l-192 -446q-26 -63 -26 -82q0 -28 28 -28q35 0 93.5 45t124.5 121l48 -50q-100 -133 -224 -222.5t-256 -89.5q-69 0 -105.5 34t-36.5 92q0 52 26 110l150 348
q50 115 50 152q0 34 -36 34q-46 0 -130 -75t-165.5 -185t-120.5 -204l-116 -286h-310l502 1216q22 48 22 76q0 19 -21.5 35t-104.5 61l24 58l438 56z" />
    <glyph glyph-name="i" unicode="i" horiz-adv-x="708" 
d="M450 1290q0 76 51.5 127t126.5 51t125.5 -51t50.5 -127t-50.5 -127t-125.5 -51t-126.5 51t-51.5 127zM668 960l-280 -674q-26 -63 -26 -82q0 -28 28 -28q72 0 218 166l48 -50q-98 -130 -227 -221t-261 -91q-68 0 -106 34t-38 92q0 48 28 110l206 478q22 48 22 76
q0 19 -20 36.5t-88 59.5l22 58l422 56z" />
    <glyph glyph-name="j" unicode="j" horiz-adv-x="614" 
d="M428 1290q0 76 50.5 127t125.5 51q76 0 127 -51t51 -127t-51 -127t-127 -51q-75 0 -125.5 51t-50.5 127zM668 960l-368 -896q-58 -141 -148.5 -253.5t-217 -183.5t-264.5 -71q-96 0 -154 38.5t-58 105.5q0 56 36 90t94 34q37 0 64.5 -25.5t41.5 -55.5t36 -55.5t50 -25.5
q19 0 33.5 6.5t33 29t35.5 54t43.5 94t55.5 136.5t73 192l196 520q18 50 18 76q0 19 -20 36.5t-88 59.5l22 58l432 56z" />
    <glyph glyph-name="k" unicode="k" horiz-adv-x="1246" 
d="M1168 272q-96 -134 -225.5 -213t-222.5 -79q-139 0 -156 164l-24 240q-77 -10 -124 -10l-146 -374h-310l502 1216q22 48 22 76q0 19 -21.5 35t-104.5 61l24 58l438 56l54 -20l-326 -768h8q129 122 248 194t236 72q78 0 128 -45t50 -115q0 -114 -120.5 -213t-303.5 -163
l52 -222q9 -36 22.5 -51t35.5 -15q33 0 90 42.5t126 123.5zM844 802q-59 0 -164 -67t-182 -149l-52 -136q112 5 221 47t179 108t70 135q0 62 -72 62z" />
    <glyph glyph-name="l" unicode="l" horiz-adv-x="672" 
d="M846 1482l-488 -1196q-26 -63 -26 -82q0 -28 28 -28q72 0 218 166l48 -50q-45 -61 -98 -113.5t-115.5 -98.5t-134 -73t-140.5 -27q-68 0 -105 33.5t-37 92.5q0 49 26 110l412 1000q22 57 22 76q0 18 -21 33.5t-105 62.5l24 58l438 56z" />
    <glyph glyph-name="m" unicode="m" horiz-adv-x="1846" 
d="M1082 590h8q131 167 271.5 278.5t260.5 111.5q69 0 102.5 -32.5t33.5 -89.5t-30 -126l-194 -446q-26 -63 -26 -82q0 -28 28 -28q72 0 218 166l48 -50q-46 -61 -97 -113.5t-112.5 -99t-131 -73t-137.5 -26.5q-69 0 -106.5 34t-37.5 92q0 52 26 110l150 348q54 124 54 156
q0 30 -32 30q-42 0 -122.5 -75t-160.5 -185t-119 -204l-118 -286h-308l236 564q52 127 52 156q0 30 -32 30q-42 0 -123 -75t-161.5 -185t-119.5 -204l-116 -286h-310l288 694q22 48 22 76q0 19 -20 36.5t-86 59.5l20 58l422 56l52 -20l-166 -370h8q62 78 125 143.5t133 123
t141.5 90.5t134.5 33q122 0 122 -116q0 -68 -90 -274z" />
    <glyph glyph-name="n" unicode="n" horiz-adv-x="1294" 
d="M674 960l-166 -370h8q62 76 127 142t137.5 123.5t148 91t141.5 33.5q69 0 102.5 -32.5t33.5 -89.5q0 -52 -32 -126l-192 -446q-26 -63 -26 -82q0 -28 28 -28q35 0 93.5 45t124.5 121l48 -50q-46 -61 -97 -113.5t-112.5 -99t-131 -73t-137.5 -26.5q-69 0 -106.5 34
t-37.5 92q0 52 26 110l150 350q52 123 52 150q0 34 -38 34q-46 0 -130 -75t-165.5 -185t-120.5 -204l-116 -286h-310l288 694q22 57 22 76t-20 36.5t-86 59.5l20 58l422 56z" />
    <glyph glyph-name="o" unicode="o" horiz-adv-x="1126" 
d="M406 -20q-161 0 -260.5 96.5t-99.5 247.5q0 115 51 231.5t139 211t217.5 154t274.5 59.5q160 0 259 -96t99 -248q0 -76 -23 -154.5t-64.5 -151t-103.5 -136.5t-135.5 -111.5t-165 -75t-188.5 -27.5zM702 866q-60 0 -126.5 -71.5t-116 -173t-82.5 -213t-33 -190.5
q0 -62 20.5 -93t67.5 -31q60 0 126.5 71.5t116 173t82.5 213t33 190.5q0 124 -88 124z" />
    <glyph glyph-name="p" unicode="p" horiz-adv-x="1236" 
d="M-144 -292l410 986q20 52 20 76q0 19 -20 36.5t-86 59.5l22 58l420 56l52 -20l-168 -378h8q52 71 111 135t130 126.5t148 99.5t145 37q88 0 137 -54t49 -160q0 -90 -41.5 -198t-117 -210.5t-170.5 -188t-212.5 -137.5t-232.5 -52q-106 0 -162 66l-136 -338q-11 -27 9 -35
q23 -9 139 -9l-36 -88h-576l36 88q68 0 89 7.5t33 36.5zM832 768q-48 0 -131 -75t-159 -175t-132 -205t-56 -161q0 -38 22.5 -60t57.5 -22q70 0 153 64.5t149 157t111 198.5t45 184q0 94 -60 94z" />
    <glyph glyph-name="q" unicode="q" horiz-adv-x="1210" 
d="M926 860l82 102h268l-556 -1254q-12 -29 2.5 -36.5t83.5 -7.5l-36 -88h-578l36 88q108 0 139 7.5t45 36.5l310 652h-8q-49 -67 -103 -127t-122 -120.5t-142.5 -96.5t-142.5 -36q-85 0 -136.5 59t-51.5 157q0 124 65 264.5t165 254.5t229.5 189.5t248.5 75.5
q142 0 202 -120zM422 196q60 0 167.5 116.5t191 258t83.5 209.5q0 44 -22.5 69t-65.5 25q-89 0 -191.5 -100t-170.5 -239t-68 -249q0 -43 21.5 -66.5t54.5 -23.5z" />
    <glyph glyph-name="r" unicode="r" horiz-adv-x="976" 
d="M672 960l-184 -414h8q167 221 195 255q113 137 192 167q31 12 61 12q69 0 103.5 -42t34.5 -102q0 -69 -52 -124.5t-112 -55.5q-31 0 -55.5 10.5t-36.5 22.5t-27 22.5t-29 10.5q-52 0 -168.5 -136.5t-203.5 -309.5l-114 -276h-308l288 694q20 52 20 76q0 19 -20 36.5
t-86 59.5l22 58l420 56z" />
    <glyph glyph-name="s" unicode="s" horiz-adv-x="870" 
d="M728 308q0 -86 -61 -161.5t-164.5 -121t-222.5 -45.5q-140 0 -230 58t-90 148q0 53 36.5 93.5t103.5 40.5q46 0 72.5 -26t35.5 -63.5t16 -75t25.5 -63.5t52.5 -26q56 0 94 35.5t38 98.5q0 39 -23.5 83t-57 85t-67 84t-57 95.5t-23.5 104.5q0 80 54 155.5t151 124
t211 48.5q125 0 201.5 -54.5t76.5 -133.5q0 -45 -34.5 -80.5t-91.5 -35.5q-40 0 -66.5 21t-39 51t-23.5 60t-30 51t-49 21q-45 0 -70.5 -29.5t-25.5 -72.5q0 -35 40.5 -94.5t88.5 -115.5t88.5 -129t40.5 -131z" />
    <glyph glyph-name="t" unicode="t" horiz-adv-x="816" 
d="M742 342q-45 -60 -108 -121t-138.5 -116.5t-161.5 -90t-162 -34.5q-68 0 -106 34t-38 92q0 52 26 110l264 628h-130l46 116h132l104 248l280 74h48l-132 -322h238l-48 -116h-238l-224 -548q-24 -55 -24 -82q0 -28 28 -28q49 0 133.5 65t156.5 147z" />
    <glyph glyph-name="u" unicode="u" horiz-adv-x="1288" 
d="M668 960l-254 -586q-52 -124 -52 -152q0 -34 38 -34q42 0 128.5 80t172 196.5t123.5 209.5l116 286h310l-280 -674q-26 -59 -26 -82q0 -28 28 -28q35 0 93.5 45t124.5 121l48 -50q-97 -129 -228.5 -220.5t-263.5 -91.5q-66 0 -98 31t-32 83q0 75 98 268h-8
q-128 -161 -273.5 -271.5t-266.5 -110.5q-69 0 -104.5 34t-35.5 90q0 54 32 124l200 466q22 48 22 76q0 19 -20 36.5t-88 59.5l22 58l422 56z" />
    <glyph glyph-name="v" unicode="v" horiz-adv-x="1044" 
d="M564 960q-29 -191 -76.5 -398.5t-93.5 -337.5h8q132 92 251.5 215t148.5 201q16 41 19 81.5t0 64.5t3 60q11 59 49.5 96.5t100.5 37.5t95 -39t33 -93q0 -84 -78 -197t-206.5 -229t-282.5 -227.5t-317 -206.5h-166q63 180 122.5 429.5t59.5 336.5q0 29 -22 48t-98 64
l22 58l374 56z" />
    <glyph glyph-name="w" unicode="w" horiz-adv-x="1572" 
d="M796 610h-8q-102 -158 -258 -330t-308 -292h-170q63 180 122.5 429.5t59.5 336.5q0 29 -22 48t-98 64l22 58l374 56l54 -20q-28 -181 -73.5 -372t-92.5 -328h8q249 284 520 700h186q-22 -184 -61 -384.5t-77 -333.5h8q121 86 221 202t129 198q16 40 18 80t-2 64t2 60
q11 59 50 96.5t102 37.5q61 0 94.5 -39t33.5 -93q-1 -83 -78.5 -197.5t-203 -231.5t-270.5 -227.5t-294 -203.5h-168q38 101 73.5 219.5t54 190t52.5 212.5z" />
    <glyph glyph-name="x" unicode="x" horiz-adv-x="1134" 
d="M314 170q-144 -192 -278 -192q-66 0 -106 40.5t-40 101.5q0 59 39 102.5t97 43.5q31 0 51.5 -14.5t28 -31.5t17.5 -31.5t23 -14.5q60 0 136 98l132 168l-58 312q-7 34 -30 50t-109 52q-19 8 -29 12l22 58l368 56l52 -20l50 -302l90 124q70 99 130 148.5t132 49.5
q66 0 105 -39.5t39 -100.5q0 -57 -39 -100.5t-95 -43.5q-31 0 -50.5 13.5t-26.5 29.5t-16.5 29.5t-22.5 13.5q-21 0 -43.5 -19t-72.5 -75l-114 -130l56 -336q11 -66 54 -66q74 0 214 164l50 -50q-98 -135 -223 -212.5t-219 -77.5q-67 0 -104 39t-54 125l-36 190z" />
    <glyph glyph-name="y" unicode="y" horiz-adv-x="1024" 
d="M1026 808q0 -105 -65.5 -242t-174 -274.5t-256.5 -271t-304 -236t-325 -165.5t-313 -63q-74 0 -123 40t-49 102q0 61 40.5 96.5t91.5 35.5q34 0 60 -11t43 -26.5t33.5 -31t40.5 -26.5t55 -11q171 0 420 166q7 191 6.5 481t-6.5 385q-1 28 -23 47t-97 63l22 58l350 56
l54 -20q0 -513 -36 -842h6q137 137 220.5 277.5t83.5 252.5q0 22 -18 84t-18 102q0 58 38.5 102t101.5 44q67 0 104.5 -48t37.5 -124z" />
    <glyph glyph-name="z" unicode="z" horiz-adv-x="1040" 
d="M732 698v8h-232q-112 0 -164 -23.5t-110 -108.5h-76l170 386h782l-72 -180l-668 -424q25 -9 67 -25t57.5 -22t43.5 -16t40.5 -13t31.5 -7.5t34 -5.5t32 -1q69 0 130.5 35t119.5 125l64 -32q-47 -86 -89.5 -150.5t-99 -129t-120.5 -99.5t-131 -35q-51 0 -106.5 20.5
t-100 50t-84.5 59t-72.5 50t-50.5 20.5q-24 0 -33 -16.5t-9 -51.5q0 -47 -24 -82.5t-70 -35.5q-36 0 -59 23.5t-23 60.5q0 51 41 92t125 96z" />
    <glyph glyph-name="braceleft" unicode="{" horiz-adv-x="892" 
d="M106 556l20 52q114 16 190 68.5t120 161.5l118 294q76 182 255.5 266t428.5 84l-36 -94q-97 -6 -158.5 -28.5t-116.5 -83.5t-101 -172l-106 -258q-23 -57 -77 -106.5t-119.5 -82t-130 -53t-121.5 -28.5q44 -8 85 -23t79 -37.5t61 -56.5t23 -75q0 -38 -37.5 -131
t-75 -191.5t-37.5 -149.5q0 -69 43.5 -100.5t134.5 -37.5l-38 -92q-113 0 -205 30.5t-148.5 93t-56.5 146.5q0 55 38 149t76 186t38 141q0 106 -146 128z" />
    <glyph glyph-name="bar" unicode="|" horiz-adv-x="650" 
d="M818 1480l-726 -1796h-170l726 1796h170z" />
    <glyph glyph-name="braceright" unicode="}" horiz-adv-x="892" 
d="M876 608l-20 -52q-114 -16 -190 -68.5t-120 -161.5l-118 -294q-76 -182 -255.5 -266t-428.5 -84l36 94q97 6 158.5 28.5t116.5 83.5t101 172l106 258q23 57 77 106.5t119.5 82t130 53t121.5 28.5q-44 8 -85 23t-79 37.5t-61 56.5t-23 75q0 38 37.5 131t75 191.5
t37.5 149.5q0 69 -43.5 100.5t-134.5 37.5l38 92q113 0 205 -30.5t148.5 -93t56.5 -146.5q0 -55 -38 -149t-76 -186t-38 -141q0 -106 146 -128z" />
    <glyph glyph-name="asciitilde" unicode="~" horiz-adv-x="1004" 
d="M448 764q49 0 100 -29t97.5 -58t84.5 -29q45 0 81 26.5t91 93.5l88 -42q-93 -158 -172 -229t-156 -71q-51 0 -102.5 28.5t-97.5 57t-84 28.5q-46 0 -83.5 -27t-90.5 -91l-90 40q175 302 334 302z" />
    <glyph glyph-name="uni00A0" unicode="&#xa0;" horiz-adv-x="432" 
 />
    <glyph glyph-name="exclamdown" unicode="&#xa1;" horiz-adv-x="660" 
d="M402 1144q0 81 58.5 138.5t141.5 57.5q82 0 140 -57.5t58 -138.5t-58 -138.5t-140 -57.5q-83 0 -141.5 57.5t-58.5 138.5zM464 850h68l-128 -634q-24 -118 -92.5 -177t-161.5 -59q-62 0 -106.5 33t-52 90.5t44.5 134.5z" />
    <glyph glyph-name="cent" unicode="&#xa2;" horiz-adv-x="1040" 
d="M930 300q-209 -299 -490 -318l-78 -192h-102l78 194q-118 20 -191 108.5t-73 217.5q0 121 54 238t143.5 207t213 150t255.5 73l78 194h102l-78 -194q114 -8 172 -63.5t58 -126.5q0 -52 -38 -89t-96 -37q-39 0 -64 23.5t-34.5 53t-22 66t-25.5 53.5l-288 -714h2
q173 0 352 216zM350 358q0 -123 66 -182l282 698q-89 -20 -170 -100t-129.5 -192.5t-48.5 -223.5z" />
    <glyph glyph-name="sterling" unicode="&#xa3;" horiz-adv-x="1292" 
d="M1280 388q-91 -200 -216 -304t-264 -104q-22 0 -44.5 3.5t-40.5 6.5t-40.5 13t-35.5 15t-36 20t-32 20t-33.5 24t-30 23.5t-32 26t-29.5 24.5q-91 -86 -183 -131t-163 -45q-88 0 -140 47.5t-52 118.5q0 104 79.5 171t210.5 67q85 0 184 -24q12 30 26 74q19 60 38 180
h-210l46 116h180q17 104 32 154q60 200 240 328t400 128q148 0 221 -58t73 -136q0 -60 -39.5 -95t-96.5 -35q-41 0 -66.5 21t-38.5 51.5t-25.5 61t-37 51.5t-62.5 21q-47 0 -89 -45t-71.5 -109t-59.5 -156l-56 -182h246l-44 -116h-244q-63 -165 -164 -306q172 -42 306 -42
q97 0 172 33t136 127zM34 156q0 -30 19.5 -49t54.5 -19q128 0 218 154q-73 38 -142 38q-64 0 -107 -32.5t-43 -91.5z" />
    <glyph glyph-name="yen" unicode="&#xa5;" horiz-adv-x="1350" 
d="M862 96l-38 -96h-708l36 96h54q98 0 130 11.5t46 46.5l124 310h-334l44 110h334l28 70l-20 76h-286l44 110h210l-96 334q-11 39 -29 49.5t-79 10.5l40 96h622l-40 -96q-125 0 -165.5 -9t-40.5 -41q0 -6 4 -26l100 -398h8l444 398q36 33 36 46q0 20 -38 25t-142 5l40 96
h484l-40 -96q-60 0 -87 -11.5t-69 -48.5l-384 -334h192l-46 -110h-272l-90 -80l-28 -66h336l-44 -110h-336l-118 -296q-12 -27 -12 -42q0 -18 27 -24t107 -6h52z" />
    <glyph glyph-name="section" unicode="&#xa7;" horiz-adv-x="1136" 
d="M736 -30q0 -169 -140.5 -292.5t-345.5 -123.5q-149 0 -247.5 73t-98.5 185q0 73 45 122.5t115 49.5q46 0 80 -29t34 -73q0 -39 -18.5 -66.5t-37 -44.5t-18.5 -31q0 -37 45.5 -62.5t114.5 -25.5q93 0 163.5 57.5t70.5 146.5q0 88 -70 158l-194 210q-65 68 -98.5 129
t-33.5 133q0 105 83 193.5t215 142.5q-20 53 -20 102q0 169 140.5 292.5t347.5 123.5q147 0 238.5 -72.5t91.5 -185.5q0 -73 -45 -122.5t-115 -49.5q-46 0 -79 29t-33 73q0 39 18 66.5t36 44.5t18 31q0 38 -39 63t-107 25q-91 0 -161.5 -57t-70.5 -145q0 -89 68 -160
l196 -210q65 -70 98.5 -130t33.5 -132q0 -105 -84 -194.5t-216 -141.5q20 -53 20 -102zM634 204q14 -16 42 -52q90 63 90 164q0 64 -58 128l-226 246q-22 26 -40 52q-90 -64 -90 -164q0 -64 58 -128z" />
    <glyph glyph-name="dieresis" unicode="&#xa8;" horiz-adv-x="1000" 
d="M450 1250q0 71 46.5 119.5t115.5 48.5t114.5 -48.5t45.5 -119.5t-45.5 -117.5t-114.5 -46.5t-115.5 47t-46.5 117zM856 1250q0 71 45.5 119.5t114.5 48.5t115.5 -48.5t46.5 -119.5q0 -70 -46.5 -117t-115.5 -47t-114.5 46.5t-45.5 117.5z" />
    <glyph glyph-name="copyright" unicode="&#xa9;" horiz-adv-x="1770" 
d="M962 1340q182 0 337 -92t245 -248.5t90 -339.5t-90 -339.5t-245 -248.5t-337 -92t-337 92t-245 248.5t-90 339.5t90 339.5t245 248.5t337 92zM962 78q155 0 287.5 79t209.5 213t77 290t-77 290t-209.5 213t-287.5 79t-287.5 -79t-209.5 -213t-77 -290t77 -290t209.5 -213
t287.5 -79zM1202 776q-44 96 -91 142t-111 46q-85 0 -137.5 -76t-52.5 -204q0 -133 57.5 -214.5t152.5 -81.5q106 0 188 124l76 -54q-49 -87 -130.5 -139.5t-185.5 -52.5q-161 0 -275.5 108.5t-114.5 275.5q0 183 115.5 299.5t272.5 116.5q121 0 204 -68l40 56h52l12 -278
h-72z" />
    <glyph glyph-name="ordfeminine" unicode="&#xaa;" horiz-adv-x="1042" 
d="M750 886h-6q-97 -129 -189 -204.5t-183 -75.5q-62 0 -100 41.5t-38 116.5q0 120 78 257.5t202.5 233t243.5 95.5q54 0 92.5 -27t51.5 -67l52 74h226l-202 -498q-10 -40 -10 -44q0 -20 18 -20q49 0 164 126l36 -40q-74 -101 -178.5 -174.5t-215.5 -73.5q-56 0 -84 25.5
t-28 66.5q0 55 70 188zM564 790q38 0 110.5 83.5t130 183t57.5 143.5q0 64 -56 64q-53 0 -121.5 -72.5t-116.5 -172t-48 -171.5q0 -58 44 -58zM178 378l48 118h572l-48 -118h-572z" />
    <glyph glyph-name="guillemotleft" unicode="&#xab;" horiz-adv-x="1146" 
d="M90 468l8 20l520 398h144l-372 -424l48 -394h-112zM546 468l8 20l520 398h144l-372 -424l48 -394h-112z" />
    <glyph glyph-name="registered" unicode="&#xae;" horiz-adv-x="1300" 
d="M818 436q-197 0 -324.5 131t-127.5 321t127.5 321t324.5 131t324.5 -131t127.5 -321t-127.5 -321t-324.5 -131zM818 1252q-158 0 -261 -105t-103 -259t103 -259t261 -105t261 105t103 259t-103 259t-261 105zM804 736v-56h-210v56h46v318h-46v56h214q85 0 136.5 -31
t51.5 -93q0 -42 -29.5 -70.5t-78.5 -41.5l84 -102q20 -23 35 -31.5t49 -14.5v-46h-146l-126 184h-32v-128h52zM752 1054v-144h38q90 0 90 76q0 68 -90 68h-38z" />
    <glyph glyph-name="macron" unicode="&#xaf;" horiz-adv-x="1000" 
d="M484 1154l64 156h584l-64 -156h-584z" />
    <glyph glyph-name="degree" unicode="&#xb0;" horiz-adv-x="822" 
d="M702 1340q109 0 177.5 -73.5t68.5 -180.5q0 -92 -50 -180.5t-139.5 -146t-192.5 -57.5q-109 0 -177.5 73.5t-68.5 180.5q0 92 50 180.5t139.5 146t192.5 57.5zM688 1220q-101 0 -169.5 -77t-68.5 -183q0 -56 35.5 -97t94.5 -41q100 0 168 76.5t68 183.5q0 56 -34.5 97
t-93.5 41z" />
    <glyph glyph-name="twosuperior" unicode="&#xb2;" horiz-adv-x="768" 
d="M386 1062l-46 42q176 226 384 226q85 0 132.5 -38.5t47.5 -105.5q0 -42 -16.5 -82t-52 -79t-71.5 -71t-97 -71t-104 -64.5t-115 -66.5v-4h174q44 0 73.5 16.5t80.5 73.5l56 -14l-168 -280h-556l28 70q300 205 415 305.5t115 160.5q0 78 -92 78q-101 0 -188 -96z" />
    <glyph glyph-name="threesuperior" unicode="&#xb3;" horiz-adv-x="782" 
d="M894 1212q0 -138 -246 -210q67 -9 120.5 -46.5t53.5 -99.5q0 -72 -46.5 -135.5t-117 -104t-148.5 -63.5t-146 -23q-91 0 -147.5 31.5t-56.5 90.5q0 37 26.5 60.5t67.5 23.5q29 0 49.5 -20t30 -44t27 -44t41.5 -20q58 0 118 60t60 138q0 50 -42 74t-110 24l6 48
q89 36 141.5 81t52.5 93q0 25 -15.5 39.5t-44.5 14.5q-53 0 -134 -68l-42 48q63 82 154 126t180 44q80 0 124 -33.5t44 -84.5z" />
    <glyph glyph-name="acute" unicode="&#xb4;" horiz-adv-x="1000" 
d="M756 1398q57 100 142 100q52 0 87 -34t35 -84q0 -73 -88 -130l-282 -182l-56 56z" />
    <glyph glyph-name="paragraph" unicode="&#xb6;" horiz-adv-x="1434" 
d="M1638 1228q-118 0 -153.5 -9t-48.5 -43l-648 -1600h-148l664 1644h-174l-664 -1644h-150l388 960q-106 14 -191 52.5t-141 111t-56 168.5q0 109 52 196t143 142.5t211.5 84.5t261.5 29h692z" />
    <glyph glyph-name="periodcentered" unicode="&#xb7;" horiz-adv-x="660" 
d="M562 550q0 -81 -58.5 -138.5t-141.5 -57.5q-82 0 -140 57.5t-58 138.5t58 138.5t140 57.5q83 0 141.5 -57.5t58.5 -138.5z" />
    <glyph glyph-name="cedilla" unicode="&#xb8;" horiz-adv-x="1000" 
d="M-92 -444l40 86q108 -26 191 2.5t83 93.5q0 32 -33 45.5t-105 20.5l156 212h82l-66 -98q76 -9 123 -45t47 -93q0 -79 -73.5 -143.5t-188.5 -88t-256 7.5z" />
    <glyph glyph-name="onesuperior" unicode="&#xb9;" horiz-adv-x="722" 
d="M698 630l-34 -86h-526l34 86h40q70 0 91.5 5.5t30.5 26.5l176 438h-142l36 90q96 0 197 38.5t157 103.5h90l-266 -660q-8 -19 -8 -24q0 -12 19.5 -15t76.5 -3h28z" />
    <glyph glyph-name="ordmasculine" unicode="&#xba;" horiz-adv-x="924" 
d="M540 606q-127 0 -205.5 72.5t-78.5 187.5q0 86 39 172t106.5 155.5t170 113t218.5 43.5q128 0 206 -72.5t78 -187.5q0 -87 -39 -173.5t-106.5 -155.5t-170 -112t-218.5 -43zM568 696q54 0 115 91t99 204.5t38 186.5q0 78 -56 78q-54 0 -115.5 -90.5t-100 -203.5
t-38.5 -184q0 -42 13 -62t45 -20zM138 378l48 118h572l-48 -118h-572z" />
    <glyph glyph-name="guillemotright" unicode="&#xbb;" horiz-adv-x="1146" 
d="M1064 486l-8 -20l-520 -398h-144l372 424l-48 394h112zM608 486l-8 -20l-520 -398h-144l372 424l-48 394h112z" />
    <glyph glyph-name="onequarter" unicode="&#xbc;" horiz-adv-x="1890" 
d="M698 630l-34 -86h-526l34 86h40q70 0 91.5 5.5t30.5 26.5l176 438h-142l36 90q96 0 197 38.5t157 103.5h90l-266 -660q-8 -19 -8 -24q0 -12 19.5 -15t76.5 -3h28zM410 0h-176l1402 1320h176zM1556 0h-442l28 70q69 0 90 5.5t28 24.5l58 136h-350l34 84l576 456h186
l-184 -452h156l-34 -88h-154l-52 -126q-6 -16 -6 -22q0 -12 18.5 -15t75.5 -3zM1128 324h220l102 248h-6l-316 -244v-4z" />
    <glyph glyph-name="onehalf" unicode="&#xbd;" horiz-adv-x="1878" 
d="M698 630l-34 -86h-526l34 86h40q70 0 91.5 5.5t30.5 26.5l176 438h-142l36 90q96 0 197 38.5t157 103.5h90l-266 -660q-8 -19 -8 -24q0 -12 19.5 -15t76.5 -3h28zM410 0h-176l1402 1320h176zM1274 518l-46 42q176 226 384 226q85 0 132.5 -38.5t47.5 -105.5
q0 -42 -16.5 -82t-52 -79t-71.5 -71t-97 -71t-104 -64.5t-115 -66.5v-4h174q44 0 73.5 16.5t80.5 73.5l56 -14l-168 -280h-556l28 70q300 205 415 305.5t115 160.5q0 78 -92 78q-101 0 -188 -96z" />
    <glyph glyph-name="threequarters" unicode="&#xbe;" horiz-adv-x="1866" 
d="M894 1212q0 -138 -246 -210q67 -9 120.5 -46.5t53.5 -99.5q0 -72 -46.5 -135.5t-117 -104t-148.5 -63.5t-146 -23q-91 0 -147.5 31.5t-56.5 90.5q0 37 26.5 60.5t67.5 23.5q29 0 49.5 -20t30 -44t27 -44t41.5 -20q58 0 118 60t60 138q0 50 -42 74t-110 24l6 48
q89 36 141.5 81t52.5 93q0 25 -15.5 39.5t-44.5 14.5q-53 0 -134 -68l-42 48q63 82 154 126t180 44q80 0 124 -33.5t44 -84.5zM386 0h-176l1402 1320h176zM1532 0h-442l28 70q69 0 90 5.5t28 24.5l58 136h-350l34 84l576 456h186l-184 -452h156l-34 -88h-154l-52 -126
q-6 -16 -6 -22q0 -12 18.5 -15t75.5 -3zM1104 324h220l102 248h-6l-316 -244v-4z" />
    <glyph glyph-name="questiondown" unicode="&#xbf;" horiz-adv-x="1004" 
d="M642 1144q0 81 58.5 138.5t141.5 57.5q82 0 140 -57.5t58 -138.5t-58 -138.5t-140 -57.5q-83 0 -141.5 57.5t-58.5 138.5zM638 446q-103 -6 -181 -16t-144 -27.5t-100.5 -46.5t-34.5 -68q0 -82 164 -82q82 0 173 34t143 34q45 0 75.5 -33.5t30.5 -76.5q0 -82 -72.5 -133
t-197.5 -51q-114 0 -213 45t-157 119.5t-58 159.5q0 81 33 147.5t87.5 112t130 79t155 52t168.5 27.5l88 128h104l-86 -314q-13 -49 -39 -68t-69 -22z" />
    <glyph glyph-name="Agrave" unicode="&#xc0;" horiz-adv-x="1478" 
d="M982 1732l238 -250l-44 -66l-350 116q-57 18 -84.5 54t-27.5 78q0 56 37.5 98t94.5 42q72 0 136 -72zM356 96l-40 -96h-502l38 96q93 0 126.5 10t65.5 50l974 1164h186l-22 -1164q0 -40 23 -50t115 -10l-38 -96h-684l38 96q63 0 94.5 1t60 4.5t38.5 12.5t16 22t7 36
l14 266h-442l-222 -266q-22 -28 -22 -44q0 -15 31.5 -20t144.5 -12zM886 992l-372 -446h358l22 446h-8z" />
    <glyph glyph-name="Aacute" unicode="&#xc1;" horiz-adv-x="1478" 
d="M994 1482l238 250q64 72 136 72q57 0 94.5 -42t37.5 -98q0 -42 -27.5 -78t-84.5 -54l-350 -116zM356 96l-40 -96h-502l38 96q93 0 126.5 10t65.5 50l974 1164h186l-22 -1164q0 -40 23 -50t115 -10l-38 -96h-684l38 96q63 0 94.5 1t60 4.5t38.5 12.5t16 22t7 36l14 266
h-442l-222 -266q-22 -28 -22 -44q0 -15 31.5 -20t144.5 -12zM886 992l-372 -446h358l22 446h-8z" />
    <glyph glyph-name="Acircumflex" unicode="&#xc2;" horiz-adv-x="1478" 
d="M1340 1766l124 -298l-62 -52l-226 188l-402 -188l-54 52l404 328q75 56 133 45t83 -75zM356 96l-40 -96h-502l38 96q93 0 126.5 10t65.5 50l974 1164h186l-22 -1164q0 -40 23 -50t115 -10l-38 -96h-684l38 96q63 0 94.5 1t60 4.5t38.5 12.5t16 22t7 36l14 266h-442
l-222 -266q-22 -28 -22 -44q0 -15 31.5 -20t144.5 -12zM886 992l-372 -446h358l22 446h-8z" />
    <glyph glyph-name="Atilde" unicode="&#xc3;" horiz-adv-x="1478" 
d="M1552 1710q-88 -156 -162 -222t-146 -66q-36 0 -72.5 18.5t-62 40.5t-57.5 40.5t-60 18.5q-41 0 -74 -27t-86 -95l-84 42q91 157 165 222.5t145 65.5q36 0 72 -19t61 -41t56.5 -41t58.5 -19q42 0 78 28.5t88 95.5zM356 96l-40 -96h-502l38 96q93 0 126.5 10t65.5 50
l974 1164h186l-22 -1164q0 -40 23 -50t115 -10l-38 -96h-684l38 96q63 0 94.5 1t60 4.5t38.5 12.5t16 22t7 36l14 266h-442l-222 -266q-22 -28 -22 -44q0 -15 31.5 -20t144.5 -12zM886 992l-372 -446h358l22 446h-8z" />
    <glyph glyph-name="Adieresis" unicode="&#xc4;" horiz-adv-x="1478" 
d="M748 1580q0 72 46.5 120t115.5 48t115.5 -48t46.5 -120q0 -70 -46.5 -116t-115.5 -46t-115.5 46t-46.5 116zM1172 1580q0 72 46.5 120t115.5 48q70 0 116 -48t46 -120q0 -70 -46 -116t-116 -46q-69 0 -115.5 46t-46.5 116zM356 96l-40 -96h-502l38 96q93 0 126.5 10
t65.5 50l974 1164h186l-22 -1164q0 -40 23 -50t115 -10l-38 -96h-684l38 96q63 0 94.5 1t60 4.5t38.5 12.5t16 22t7 36l14 266h-442l-222 -266q-22 -28 -22 -44q0 -15 31.5 -20t144.5 -12zM886 992l-372 -446h358l22 446h-8z" />
    <glyph glyph-name="Aring" unicode="&#xc5;" horiz-adv-x="1478" 
d="M1406 1676q0 -115 -85.5 -196.5t-204.5 -81.5q-93 0 -153.5 62.5t-60.5 155.5q0 117 86 198.5t206 81.5q92 0 152 -63t60 -157zM1290 1676q0 47 -29.5 77.5t-76.5 30.5q-73 0 -119.5 -48.5t-46.5 -119.5q0 -47 30 -77.5t78 -30.5q71 0 117.5 49t46.5 119zM356 96l-40 -96
h-502l38 96q93 0 126.5 10t65.5 50l974 1164h186l-22 -1164q0 -40 23 -50t115 -10l-38 -96h-684l38 96q63 0 94.5 1t60 4.5t38.5 12.5t16 22t7 36l14 266h-442l-222 -266q-22 -28 -22 -44q0 -15 31.5 -20t144.5 -12zM886 992l-372 -446h358l22 446h-8z" />
    <glyph glyph-name="AE" unicode="&#xc6;" horiz-adv-x="2092" 
d="M372 96l-40 -96h-518l38 96q88 0 120 11t72 49l1098 1060q-101 8 -234 8l40 96h1320l-172 -470h-98q27 182 23 237q-5 88 -68 112q-33 13 -85 13h-268l-196 -484h70q49 0 75.5 1t55 10t42 18.5t35.5 37.5t36.5 54.5t43.5 82.5h96l-208 -516h-86q28 100 28 140
q0 42 -32 53t-128 11h-72l-206 -512h186q82 0 141 9.5t116 33t109 68t106.5 110.5t121.5 165h112l-244 -494h-1190l38 96q108 0 141 11t47 47l122 302h-444l-296 -284q-24 -24 -24 -44q0 -15 31.5 -20t144.5 -12zM628 564h376l240 592z" />
    <glyph glyph-name="Ccedilla" unicode="&#xc7;" horiz-adv-x="1258" 
d="M646 -220q0 -79 -73.5 -143.5t-188.5 -88t-256 7.5l40 86q108 -26 191 2.5t83 93.5q0 32 -33 45.5t-105 20.5l138 186q-153 32 -249.5 145.5t-96.5 298.5q0 127 46.5 259t130.5 246.5t192.5 205t242.5 143t270 52.5q173 0 302 -114l96 94h90l-138 -468h-88
q-14 182 -76 274t-178 92q-98 0 -197.5 -70.5t-174.5 -181.5t-122.5 -253.5t-47.5 -278.5q0 -132 61.5 -204t166.5 -72q202 0 390 200l72 -88q-118 -132 -271 -211t-315 -79h-30l-42 -62q76 -9 123 -45t47 -93z" />
    <glyph glyph-name="Egrave" unicode="&#xc8;" horiz-adv-x="1332" 
d="M978 1732l238 -250l-44 -66l-350 116q-57 18 -84.5 54t-27.5 78q0 56 37.5 98t94.5 42q72 0 136 -72zM384 1320h1122l-174 -470h-96q27 182 23 237q-5 88 -68 112q-33 13 -85 13h-268l-198 -484h72q49 0 75.5 1t55 10t42 18.5t35.5 37.5t36.5 54.5t43.5 82.5h96
l-208 -516h-88q28 100 28 140q0 43 -31.5 53.5t-128.5 10.5h-70l-208 -512h188q82 0 141 9.5t115.5 33t108.5 68t107 110.5t122 165h112l-244 -494h-1190l38 96q108 0 141 11t47 47l410 1012q6 15 6 26q0 18 -31 25t-117 7z" />
    <glyph glyph-name="Eacute" unicode="&#xc9;" horiz-adv-x="1332" 
d="M868 1482l238 250q64 72 136 72q57 0 94.5 -42t37.5 -98q0 -42 -27.5 -78t-84.5 -54l-350 -116zM384 1320h1122l-174 -470h-96q27 182 23 237q-5 88 -68 112q-33 13 -85 13h-268l-198 -484h72q49 0 75.5 1t55 10t42 18.5t35.5 37.5t36.5 54.5t43.5 82.5h96l-208 -516h-88
q28 100 28 140q0 43 -31.5 53.5t-128.5 10.5h-70l-208 -512h188q82 0 141 9.5t115.5 33t108.5 68t107 110.5t122 165h112l-244 -494h-1190l38 96q108 0 141 11t47 47l410 1012q6 15 6 26q0 18 -31 25t-117 7z" />
    <glyph glyph-name="Ecircumflex" unicode="&#xca;" horiz-adv-x="1332" 
d="M1268 1766l124 -298l-62 -52l-226 188l-402 -188l-54 52l404 328q75 56 133 45t83 -75zM384 1320h1122l-174 -470h-96q27 182 23 237q-5 88 -68 112q-33 13 -85 13h-268l-198 -484h72q49 0 75.5 1t55 10t42 18.5t35.5 37.5t36.5 54.5t43.5 82.5h96l-208 -516h-88
q28 100 28 140q0 43 -31.5 53.5t-128.5 10.5h-70l-208 -512h188q82 0 141 9.5t115.5 33t108.5 68t107 110.5t122 165h112l-244 -494h-1190l38 96q108 0 141 11t47 47l410 1012q6 15 6 26q0 18 -31 25t-117 7z" />
    <glyph glyph-name="Edieresis" unicode="&#xcb;" horiz-adv-x="1332" 
d="M692 1580q0 72 46.5 120t115.5 48t115.5 -48t46.5 -120q0 -70 -46.5 -116t-115.5 -46t-115.5 46t-46.5 116zM1116 1580q0 72 46.5 120t115.5 48q70 0 116 -48t46 -120q0 -70 -46 -116t-116 -46q-69 0 -115.5 46t-46.5 116zM384 1320h1122l-174 -470h-96q27 182 23 237
q-5 88 -68 112q-33 13 -85 13h-268l-198 -484h72q49 0 75.5 1t55 10t42 18.5t35.5 37.5t36.5 54.5t43.5 82.5h96l-208 -516h-88q28 100 28 140q0 43 -31.5 53.5t-128.5 10.5h-70l-208 -512h188q82 0 141 9.5t115.5 33t108.5 68t107 110.5t122 165h112l-244 -494h-1190l38 96
q108 0 141 11t47 47l410 1012q6 15 6 26q0 18 -31 25t-117 7z" />
    <glyph glyph-name="Igrave" unicode="&#xcc;" horiz-adv-x="742" 
d="M738 1732l238 -250l-44 -66l-350 116q-57 18 -84.5 54t-27.5 78q0 56 37.5 98t94.5 42q72 0 136 -72zM550 96l-38 -96h-662l38 96q108 0 141 11t47 47l410 1012q6 15 6 26q0 18 -31 25t-117 7l40 96h662l-40 -96q-75 0 -111 -5.5t-50.5 -16.5t-24.5 -36l-410 -1012
q-8 -20 -8 -26q0 -18 31 -25t117 -7z" />
    <glyph glyph-name="Iacute" unicode="&#xcd;" horiz-adv-x="742" 
d="M590 1482l238 250q64 72 136 72q57 0 94.5 -42t37.5 -98q0 -42 -27.5 -78t-84.5 -54l-350 -116zM550 96l-38 -96h-662l38 96q108 0 141 11t47 47l410 1012q6 15 6 26q0 18 -31 25t-117 7l40 96h662l-40 -96q-75 0 -111 -5.5t-50.5 -16.5t-24.5 -36l-410 -1012
q-8 -20 -8 -26q0 -18 31 -25t117 -7z" />
    <glyph glyph-name="Icircumflex" unicode="&#xce;" horiz-adv-x="742" 
d="M1004 1766l124 -298l-62 -52l-226 188l-402 -188l-54 52l404 328q75 56 133 45t83 -75zM550 96l-38 -96h-662l38 96q108 0 141 11t47 47l410 1012q6 15 6 26q0 18 -31 25t-117 7l40 96h662l-40 -96q-75 0 -111 -5.5t-50.5 -16.5t-24.5 -36l-410 -1012q-8 -20 -8 -26
q0 -18 31 -25t117 -7z" />
    <glyph glyph-name="Idieresis" unicode="&#xcf;" horiz-adv-x="742" 
d="M438 1580q0 72 46.5 120t115.5 48t115.5 -48t46.5 -120q0 -70 -46.5 -116t-115.5 -46t-115.5 46t-46.5 116zM862 1580q0 72 46.5 120t115.5 48q70 0 116 -48t46 -120q0 -70 -46 -116t-116 -46q-69 0 -115.5 46t-46.5 116zM550 96l-38 -96h-662l38 96q108 0 141 11t47 47
l410 1012q6 15 6 26q0 18 -31 25t-117 7l40 96h662l-40 -96q-75 0 -111 -5.5t-50.5 -16.5t-24.5 -36l-410 -1012q-8 -20 -8 -26q0 -18 31 -25t117 -7z" />
    <glyph glyph-name="Eth" unicode="&#xd0;" horiz-adv-x="1508" 
d="M1546 842q0 -142 -57 -272.5t-160 -233t-239.5 -178.5t-302.5 -117t-343 -41h-574l38 96q75 0 111.5 5.5t51.5 16.5t25 36l186 460h-164l46 116h166l176 436q6 15 6 26q0 18 -31 25t-117 7l40 96h546q281 0 438.5 -132.5t157.5 -345.5zM410 108h86q134 0 265 61.5
t231 164.5t162 249t62 305q0 168 -70.5 246t-231.5 78h-56l-196 -482h236l-46 -116h-236z" />
    <glyph glyph-name="Ntilde" unicode="&#xd1;" horiz-adv-x="1446" 
d="M1588 1710q-88 -156 -162 -222t-146 -66q-36 0 -72.5 18.5t-62 40.5t-57.5 40.5t-60 18.5q-41 0 -74 -27t-86 -95l-84 42q91 157 165 222.5t145 65.5q36 0 72 -19t61 -41t56.5 -41t58.5 -19q42 0 78 28.5t88 95.5zM1544 1166l-474 -1166h-144l-332 1080h-8l-374 -926
q-8 -13 -8 -26q0 -18 33.5 -25t132.5 -7l-38 -96h-502l38 96q85 0 126 5.5t56.5 16.5t25.5 36l410 1012q6 15 6 26q0 18 -34 25t-134 7l40 96h496l252 -864h8l288 710q6 15 6 26q0 18 -33.5 25t-132.5 7l40 96h502l-38 -96q-85 0 -126 -5.5t-56.5 -16.5t-25.5 -36z" />
    <glyph glyph-name="Ograve" unicode="&#xd2;" horiz-adv-x="1464" 
d="M1050 1732l238 -250l-44 -66l-350 116q-57 18 -84.5 54t-27.5 78q0 56 37.5 98t94.5 42q72 0 136 -72zM1004 1340q100 0 191 -33.5t161 -94.5t111 -155.5t41 -208.5q0 -104 -34 -211t-93.5 -202.5t-144 -179.5t-182 -144.5t-212.5 -95.5t-230 -35q-101 0 -192 33.5
t-161 94.5t-111.5 155.5t-41.5 208.5q0 156 75 314t196.5 279.5t288 198t338.5 76.5zM1004 1214q-74 0 -149 -43t-137 -113.5t-116.5 -162t-92.5 -188.5t-59.5 -193t-21.5 -174q0 -234 184 -234q87 0 175.5 60t158.5 157t125 212.5t85 233t30 211.5q0 234 -182 234z" />
    <glyph glyph-name="Oacute" unicode="&#xd3;" horiz-adv-x="1464" 
d="M950 1482l238 250q64 72 136 72q57 0 94.5 -42t37.5 -98q0 -42 -27.5 -78t-84.5 -54l-350 -116zM1004 1340q100 0 191 -33.5t161 -94.5t111 -155.5t41 -208.5q0 -104 -34 -211t-93.5 -202.5t-144 -179.5t-182 -144.5t-212.5 -95.5t-230 -35q-101 0 -192 33.5t-161 94.5
t-111.5 155.5t-41.5 208.5q0 156 75 314t196.5 279.5t288 198t338.5 76.5zM1004 1214q-74 0 -149 -43t-137 -113.5t-116.5 -162t-92.5 -188.5t-59.5 -193t-21.5 -174q0 -234 184 -234q87 0 175.5 60t158.5 157t125 212.5t85 233t30 211.5q0 234 -182 234z" />
    <glyph glyph-name="Ocircumflex" unicode="&#xd4;" horiz-adv-x="1464" 
d="M1334 1766l124 -298l-62 -52l-226 188l-402 -188l-54 52l404 328q75 56 133 45t83 -75zM1004 1340q100 0 191 -33.5t161 -94.5t111 -155.5t41 -208.5q0 -104 -34 -211t-93.5 -202.5t-144 -179.5t-182 -144.5t-212.5 -95.5t-230 -35q-101 0 -192 33.5t-161 94.5
t-111.5 155.5t-41.5 208.5q0 156 75 314t196.5 279.5t288 198t338.5 76.5zM1004 1214q-74 0 -149 -43t-137 -113.5t-116.5 -162t-92.5 -188.5t-59.5 -193t-21.5 -174q0 -234 184 -234q87 0 175.5 60t158.5 157t125 212.5t85 233t30 211.5q0 234 -182 234z" />
    <glyph glyph-name="Otilde" unicode="&#xd5;" horiz-adv-x="1464" 
d="M1554 1710q-88 -156 -162 -222t-146 -66q-36 0 -72.5 18.5t-62 40.5t-57.5 40.5t-60 18.5q-41 0 -74 -27t-86 -95l-84 42q91 157 165 222.5t145 65.5q36 0 72 -19t61 -41t56.5 -41t58.5 -19q42 0 78 28.5t88 95.5zM1004 1340q100 0 191 -33.5t161 -94.5t111 -155.5
t41 -208.5q0 -104 -34 -211t-93.5 -202.5t-144 -179.5t-182 -144.5t-212.5 -95.5t-230 -35q-101 0 -192 33.5t-161 94.5t-111.5 155.5t-41.5 208.5q0 156 75 314t196.5 279.5t288 198t338.5 76.5zM1004 1214q-74 0 -149 -43t-137 -113.5t-116.5 -162t-92.5 -188.5
t-59.5 -193t-21.5 -174q0 -234 184 -234q87 0 175.5 60t158.5 157t125 212.5t85 233t30 211.5q0 234 -182 234z" />
    <glyph glyph-name="Odieresis" unicode="&#xd6;" horiz-adv-x="1464" 
d="M738 1580q0 72 46.5 120t115.5 48t115.5 -48t46.5 -120q0 -70 -46.5 -116t-115.5 -46t-115.5 46t-46.5 116zM1162 1580q0 72 46.5 120t115.5 48q70 0 116 -48t46 -120q0 -70 -46 -116t-116 -46q-69 0 -115.5 46t-46.5 116zM1004 1340q100 0 191 -33.5t161 -94.5
t111 -155.5t41 -208.5q0 -104 -34 -211t-93.5 -202.5t-144 -179.5t-182 -144.5t-212.5 -95.5t-230 -35q-101 0 -192 33.5t-161 94.5t-111.5 155.5t-41.5 208.5q0 156 75 314t196.5 279.5t288 198t338.5 76.5zM1004 1214q-74 0 -149 -43t-137 -113.5t-116.5 -162
t-92.5 -188.5t-59.5 -193t-21.5 -174q0 -234 184 -234q87 0 175.5 60t158.5 157t125 212.5t85 233t30 211.5q0 234 -182 234z" />
    <glyph glyph-name="multiply" unicode="&#xd7;" 
d="M822 154l-222 374l-538 -384l-70 110l542 386l-216 364l122 82l214 -358l524 374l70 -112l-526 -376l222 -374z" />
    <glyph glyph-name="Oslash" unicode="&#xd8;" horiz-adv-x="1464" 
d="M612 -20q-202 0 -344 120l-216 -188l-80 84l218 190q-84 123 -84 286q0 156 75 314t196.5 279.5t288 198t338.5 76.5q215 0 356 -132l166 144l80 -84l-172 -150q74 -119 74 -270q0 -104 -34 -211t-93.5 -202.5t-144 -179.5t-182 -144.5t-212.5 -95.5t-230 -35zM1004 1214
q-86 0 -173 -55t-156 -144t-125 -198t-89.5 -221.5t-40.5 -209.5l768 672q-29 156 -184 156zM612 106q104 0 207 79.5t179 200t128 259.5t66 261l-762 -664q35 -136 182 -136z" />
    <glyph glyph-name="Ugrave" unicode="&#xd9;" horiz-adv-x="1464" 
d="M1110 1732l238 -250l-44 -66l-350 116q-57 18 -84.5 54t-27.5 78q0 56 37.5 98t94.5 42q72 0 136 -72zM1404 1166q6 15 6 26q0 18 -33.5 25t-132.5 7l40 96h502l-40 -96q-84 0 -125 -5.5t-57 -16.5t-26 -36l-280 -690q-97 -240 -265 -368t-395 -128q-202 0 -322 86.5
t-120 243.5q0 93 44 202l264 654q8 20 8 26q0 18 -31.5 25t-118.5 7l40 96h662l-38 -96q-76 0 -112.5 -5.5t-51 -16.5t-24.5 -36l-270 -666q-46 -112 -46 -194q0 -90 57 -134t163 -44q283 0 432 372z" />
    <glyph glyph-name="Uacute" unicode="&#xda;" horiz-adv-x="1464" 
d="M982 1482l238 250q64 72 136 72q57 0 94.5 -42t37.5 -98q0 -42 -27.5 -78t-84.5 -54l-350 -116zM1404 1166q6 15 6 26q0 18 -33.5 25t-132.5 7l40 96h502l-40 -96q-84 0 -125 -5.5t-57 -16.5t-26 -36l-280 -690q-97 -240 -265 -368t-395 -128q-202 0 -322 86.5
t-120 243.5q0 93 44 202l264 654q8 20 8 26q0 18 -31.5 25t-118.5 7l40 96h662l-38 -96q-76 0 -112.5 -5.5t-51 -16.5t-24.5 -36l-270 -666q-46 -112 -46 -194q0 -90 57 -134t163 -44q283 0 432 372z" />
    <glyph glyph-name="Ucircumflex" unicode="&#xdb;" horiz-adv-x="1464" 
d="M1422 1766l124 -298l-62 -52l-226 188l-402 -188l-54 52l404 328q75 56 133 45t83 -75zM1404 1166q6 15 6 26q0 18 -33.5 25t-132.5 7l40 96h502l-40 -96q-84 0 -125 -5.5t-57 -16.5t-26 -36l-280 -690q-97 -240 -265 -368t-395 -128q-202 0 -322 86.5t-120 243.5
q0 93 44 202l264 654q8 20 8 26q0 18 -31.5 25t-118.5 7l40 96h662l-38 -96q-76 0 -112.5 -5.5t-51 -16.5t-24.5 -36l-270 -666q-46 -112 -46 -194q0 -90 57 -134t163 -44q283 0 432 372z" />
    <glyph glyph-name="Udieresis" unicode="&#xdc;" horiz-adv-x="1464" 
d="M846 1580q0 72 46.5 120t115.5 48t115.5 -48t46.5 -120q0 -70 -46.5 -116t-115.5 -46t-115.5 46t-46.5 116zM1270 1580q0 72 46.5 120t115.5 48q70 0 116 -48t46 -120q0 -70 -46 -116t-116 -46q-69 0 -115.5 46t-46.5 116zM1404 1166q6 15 6 26q0 18 -33.5 25t-132.5 7
l40 96h502l-40 -96q-84 0 -125 -5.5t-57 -16.5t-26 -36l-280 -690q-97 -240 -265 -368t-395 -128q-202 0 -322 86.5t-120 243.5q0 93 44 202l264 654q8 20 8 26q0 18 -31.5 25t-118.5 7l40 96h662l-38 -96q-76 0 -112.5 -5.5t-51 -16.5t-24.5 -36l-270 -666
q-46 -112 -46 -194q0 -90 57 -134t163 -44q283 0 432 372z" />
    <glyph glyph-name="Yacute" unicode="&#xdd;" horiz-adv-x="1476" 
d="M1012 1482l238 250q64 72 136 72q57 0 94.5 -42t37.5 -98q0 -42 -27.5 -78t-84.5 -54l-350 -116zM954 96l-38 -96h-742l38 96h52q99 0 130.5 11.5t45.5 46.5l176 434l-162 576q-8 27 -17.5 37.5t-37.5 16.5t-89 6l38 96h698l-40 -96q-121 0 -163.5 -12t-42.5 -44
q0 -6 4 -26l102 -428h8l488 434q32 32 32 48t-39.5 22t-136.5 6l38 96h518l-40 -96q-86 0 -119 -11.5t-75 -48.5l-618 -542l-186 -458q-10 -25 -10 -36q0 -18 28.5 -25t105.5 -7h54z" />
    <glyph glyph-name="Thorn" unicode="&#xde;" horiz-adv-x="1326" 
d="M820 1166l-42 -98h186q168 0 283 -75t115 -213q0 -112 -60 -205.5t-159.5 -152.5t-225 -91.5t-259.5 -32.5h-190l-58 -144q-8 -20 -8 -28q0 -17 27 -23.5t107 -6.5h56l-38 -96h-704l38 96q108 0 141 11t47 47l410 1012q6 15 6 26q0 18 -31 25t-117 7l40 96h662l-40 -96
q-75 0 -111 -5.5t-50.5 -16.5t-24.5 -36zM852 962h-118l-224 -556h122q106 0 198 47.5t150 137.5t58 203q0 168 -186 168z" />
    <glyph glyph-name="germandbls" unicode="&#xdf;" horiz-adv-x="1348" 
d="M310 66q-42 -105 -105.5 -196.5t-143 -162t-178.5 -111t-203 -40.5q-96 0 -155 38.5t-59 105.5q0 55 36.5 89.5t93.5 34.5q37 0 64.5 -25.5t41.5 -55.5t37 -55.5t51 -25.5q39 0 70.5 35t80 146.5t123.5 332.5l224 666h-118l48 116h108l12 36q46 136 146 249.5t250 185
t318 71.5q97 0 175 -25t128.5 -81t50.5 -136q0 -55 -22.5 -102t-59 -80.5t-80.5 -62.5t-88 -54.5t-80.5 -50t-59 -55t-22.5 -63.5q0 -29 27 -73.5t65.5 -93.5t77 -100.5t65.5 -109t27 -105.5q0 -131 -132.5 -229.5t-313.5 -98.5q-141 0 -231.5 58t-90.5 148q0 53 36.5 93.5
t103.5 40.5q46 0 72.5 -26t35.5 -63.5t16.5 -75t26 -63.5t53.5 -26q54 0 92 35.5t38 98.5q0 39 -23 85.5t-55.5 91.5t-65 91.5t-55.5 101.5t-23 106q0 50 22.5 94.5t58 78.5t79 67t87 68t79 73t58 90.5t22.5 112.5q0 62 -35 99t-99 37q-171 0 -276 -262z" />
    <glyph glyph-name="agrave" unicode="&#xe0;" horiz-adv-x="1274" 
d="M856 1380l78 -280l-66 -42l-226 202q-78 69 -51 147q20 54 77 80q71 30 128 -12q41 -30 60 -95zM700 360h-8q-61 -80 -116 -142.5t-119.5 -119t-131 -87.5t-129.5 -31q-81 0 -131.5 56t-50.5 154q0 99 40.5 211t112 213t159.5 184t191 132.5t199 49.5q72 0 122.5 -35
t67.5 -87l72 102h260l-282 -674q-24 -55 -24 -82q0 -28 28 -28q70 0 216 166l48 -50q-97 -130 -228 -221t-264 -91q-66 0 -100 31t-34 83q0 69 102 266zM410 198q57 0 163.5 115.5t189.5 256.5t83 210q0 44 -21 69t-63 25q-78 0 -177.5 -100.5t-169 -241t-69.5 -248.5
q0 -86 64 -86z" />
    <glyph glyph-name="aacute" unicode="&#xe1;" horiz-adv-x="1274" 
d="M928 1398q57 100 142 100q52 0 87 -34t35 -84q0 -73 -88 -130l-282 -182l-56 56zM700 360h-8q-61 -80 -116 -142.5t-119.5 -119t-131 -87.5t-129.5 -31q-81 0 -131.5 56t-50.5 154q0 99 40.5 211t112 213t159.5 184t191 132.5t199 49.5q72 0 122.5 -35t67.5 -87l72 102
h260l-282 -674q-24 -55 -24 -82q0 -28 28 -28q70 0 216 166l48 -50q-97 -130 -228 -221t-264 -91q-66 0 -100 31t-34 83q0 69 102 266zM410 198q57 0 163.5 115.5t189.5 256.5t83 210q0 44 -21 69t-63 25q-78 0 -177.5 -100.5t-169 -241t-69.5 -248.5q0 -86 64 -86z" />
    <glyph glyph-name="acircumflex" unicode="&#xe2;" horiz-adv-x="1274" 
d="M1102 1420l92 -304l-70 -48l-176 208l-370 -208l-60 50l370 332q40 36 83.5 46.5t79.5 -9.5t51 -67zM700 360h-8q-61 -80 -116 -142.5t-119.5 -119t-131 -87.5t-129.5 -31q-81 0 -131.5 56t-50.5 154q0 99 40.5 211t112 213t159.5 184t191 132.5t199 49.5q72 0 122.5 -35
t67.5 -87l72 102h260l-282 -674q-24 -55 -24 -82q0 -28 28 -28q70 0 216 166l48 -50q-97 -130 -228 -221t-264 -91q-66 0 -100 31t-34 83q0 69 102 266zM410 198q57 0 163.5 115.5t189.5 256.5t83 210q0 44 -21 69t-63 25q-78 0 -177.5 -100.5t-169 -241t-69.5 -248.5
q0 -86 64 -86z" />
    <glyph glyph-name="atilde" unicode="&#xe3;" horiz-adv-x="1274" 
d="M812 1424q34 0 69 -20t59.5 -44t55.5 -44t58 -20q40 0 72.5 30t87.5 102l78 -42q-86 -154 -157 -218t-141 -64q-36 0 -72 19.5t-61 42.5t-56.5 42.5t-58.5 19.5t-53 -18t-43.5 -38.5t-57.5 -71.5l-82 42q88 154 160 218t142 64zM700 360h-8q-61 -80 -116 -142.5
t-119.5 -119t-131 -87.5t-129.5 -31q-81 0 -131.5 56t-50.5 154q0 99 40.5 211t112 213t159.5 184t191 132.5t199 49.5q72 0 122.5 -35t67.5 -87l72 102h260l-282 -674q-24 -55 -24 -82q0 -28 28 -28q70 0 216 166l48 -50q-97 -130 -228 -221t-264 -91q-66 0 -100 31t-34 83
q0 69 102 266zM410 198q57 0 163.5 115.5t189.5 256.5t83 210q0 44 -21 69t-63 25q-78 0 -177.5 -100.5t-169 -241t-69.5 -248.5q0 -86 64 -86z" />
    <glyph glyph-name="adieresis" unicode="&#xe4;" horiz-adv-x="1274" 
d="M550 1250q0 71 46.5 119.5t115.5 48.5t114.5 -48.5t45.5 -119.5t-45.5 -117.5t-114.5 -46.5t-115.5 47t-46.5 117zM956 1250q0 71 45.5 119.5t114.5 48.5t115.5 -48.5t46.5 -119.5q0 -70 -46.5 -117t-115.5 -47t-114.5 46.5t-45.5 117.5zM700 360h-8q-61 -80 -116 -142.5
t-119.5 -119t-131 -87.5t-129.5 -31q-81 0 -131.5 56t-50.5 154q0 99 40.5 211t112 213t159.5 184t191 132.5t199 49.5q72 0 122.5 -35t67.5 -87l72 102h260l-282 -674q-24 -55 -24 -82q0 -28 28 -28q70 0 216 166l48 -50q-97 -130 -228 -221t-264 -91q-66 0 -100 31t-34 83
q0 69 102 266zM410 198q57 0 163.5 115.5t189.5 256.5t83 210q0 44 -21 69t-63 25q-78 0 -177.5 -100.5t-169 -241t-69.5 -248.5q0 -86 64 -86z" />
    <glyph glyph-name="aring" unicode="&#xe5;" horiz-adv-x="1274" 
d="M1126 1322q0 -105 -77 -178.5t-187 -73.5q-84 0 -138 57t-54 141q0 106 77 180t187 74q84 0 138 -57.5t54 -142.5zM1020 1322q0 43 -26.5 70.5t-69.5 27.5q-65 0 -106.5 -44t-41.5 -108q0 -43 26.5 -70.5t69.5 -27.5q65 0 106.5 44t41.5 108zM700 360h-8
q-61 -80 -116 -142.5t-119.5 -119t-131 -87.5t-129.5 -31q-81 0 -131.5 56t-50.5 154q0 99 40.5 211t112 213t159.5 184t191 132.5t199 49.5q72 0 122.5 -35t67.5 -87l72 102h260l-282 -674q-24 -55 -24 -82q0 -28 28 -28q70 0 216 166l48 -50q-97 -130 -228 -221t-264 -91
q-66 0 -100 31t-34 83q0 69 102 266zM410 198q57 0 163.5 115.5t189.5 256.5t83 210q0 44 -21 69t-63 25q-78 0 -177.5 -100.5t-169 -241t-69.5 -248.5q0 -86 64 -86z" />
    <glyph glyph-name="ae" unicode="&#xe6;" horiz-adv-x="1588" 
d="M1454 278q-105 -129 -257.5 -213.5t-304.5 -84.5q-127 0 -201.5 69.5t-74.5 188.5q-222 -258 -420 -258q-81 0 -131.5 56t-50.5 154q0 123 64.5 264.5t164 257t229 192t248.5 76.5q90 0 150.5 -41.5t81.5 -102.5q190 144 408 144q119 0 183.5 -57.5t64.5 -138.5
q0 -72 -41 -132t-105.5 -100t-155 -71.5t-177.5 -49t-185 -29.5q-12 -51 -12 -98q0 -67 33.5 -104.5t94.5 -37.5q80 0 167 47.5t165 132.5zM1288 882q-73 0 -169.5 -122t-150.5 -272q174 46 279 131.5t105 188.5q0 74 -64 74zM346 284q0 -86 64 -86q45 0 105 40t111 104
q23 107 83 215t147 195q-5 55 -29.5 88.5t-64.5 33.5q-78 0 -177.5 -100.5t-169 -241t-69.5 -248.5z" />
    <glyph glyph-name="ccedilla" unicode="&#xe7;" horiz-adv-x="928" 
d="M460 -220q0 -79 -73.5 -143.5t-188.5 -88t-256 7.5l40 86q108 -26 191 2.5t83 93.5q0 32 -33 45.5t-105 20.5l134 182q-101 20 -159.5 92.5t-58.5 177.5q0 92 35.5 194t102 195.5t152.5 169t195 120.5t221 45q111 0 170.5 -49t59.5 -125q0 -58 -39 -98t-97 -40
q-44 0 -68 20.5t-30.5 50t-9 59t-11.5 50t-31 20.5q-66 0 -145.5 -97t-133 -230.5t-53.5 -234.5q0 -71 33.5 -107.5t94.5 -36.5q126 0 300 198l66 -60q-110 -147 -242 -233.5t-272 -86.5l-42 -62q76 -9 123 -45t47 -93z" />
    <glyph glyph-name="egrave" unicode="&#xe8;" horiz-adv-x="994" 
d="M782 1380l78 -280l-66 -42l-226 202q-78 69 -51 147q20 54 77 80q71 30 128 -12q41 -30 60 -95zM862 278q-106 -130 -253.5 -214t-296.5 -84q-128 0 -207 70t-79 188q0 78 26 163.5t72.5 167.5t115 157t148 131t177.5 89.5t199 33.5q120 0 185 -57.5t65 -138.5
q0 -300 -664 -380q-10 -50 -10 -84q0 -78 33.5 -118t96.5 -40q80 0 167 47.5t165 132.5zM694 882q-74 0 -171.5 -123t-148.5 -271q175 46 279.5 131t104.5 189q0 33 -16 53.5t-48 20.5z" />
    <glyph glyph-name="eacute" unicode="&#xe9;" horiz-adv-x="994" 
d="M802 1398q57 100 142 100q52 0 87 -34t35 -84q0 -73 -88 -130l-282 -182l-56 56zM862 278q-106 -130 -253.5 -214t-296.5 -84q-128 0 -207 70t-79 188q0 78 26 163.5t72.5 167.5t115 157t148 131t177.5 89.5t199 33.5q120 0 185 -57.5t65 -138.5q0 -300 -664 -380
q-10 -50 -10 -84q0 -78 33.5 -118t96.5 -40q80 0 167 47.5t165 132.5zM694 882q-74 0 -171.5 -123t-148.5 -271q175 46 279.5 131t104.5 189q0 33 -16 53.5t-48 20.5z" />
    <glyph glyph-name="ecircumflex" unicode="&#xea;" horiz-adv-x="994" 
d="M996 1420l92 -304l-70 -48l-176 208l-370 -208l-60 50l370 332q40 36 83.5 46.5t79.5 -9.5t51 -67zM862 278q-106 -130 -253.5 -214t-296.5 -84q-128 0 -207 70t-79 188q0 78 26 163.5t72.5 167.5t115 157t148 131t177.5 89.5t199 33.5q120 0 185 -57.5t65 -138.5
q0 -300 -664 -380q-10 -50 -10 -84q0 -78 33.5 -118t96.5 -40q80 0 167 47.5t165 132.5zM694 882q-74 0 -171.5 -123t-148.5 -271q175 46 279.5 131t104.5 189q0 33 -16 53.5t-48 20.5z" />
    <glyph glyph-name="edieresis" unicode="&#xeb;" horiz-adv-x="994" 
d="M442 1250q0 71 46.5 119.5t115.5 48.5t114.5 -48.5t45.5 -119.5t-45.5 -117.5t-114.5 -46.5t-115.5 47t-46.5 117zM848 1250q0 71 45.5 119.5t114.5 48.5t115.5 -48.5t46.5 -119.5q0 -70 -46.5 -117t-115.5 -47t-114.5 46.5t-45.5 117.5zM862 278q-106 -130 -253.5 -214
t-296.5 -84q-128 0 -207 70t-79 188q0 78 26 163.5t72.5 167.5t115 157t148 131t177.5 89.5t199 33.5q120 0 185 -57.5t65 -138.5q0 -300 -664 -380q-10 -50 -10 -84q0 -78 33.5 -118t96.5 -40q80 0 167 47.5t165 132.5zM694 882q-74 0 -171.5 -123t-148.5 -271
q175 46 279.5 131t104.5 189q0 33 -16 53.5t-48 20.5z" />
    <glyph glyph-name="igrave" unicode="&#xec;" horiz-adv-x="708" 
d="M592 1380l78 -280l-66 -42l-226 202q-78 69 -51 147q20 54 77 80q71 30 128 -12q41 -30 60 -95zM668 960l-280 -674q-26 -63 -26 -82q0 -28 28 -28q72 0 218 166l48 -50q-98 -130 -227 -221t-261 -91q-68 0 -106 34t-38 92q0 48 28 110l206 478q22 48 22 76
q0 19 -20 36.5t-88 59.5l22 58l422 56z" />
    <glyph glyph-name="iacute" unicode="&#xed;" horiz-adv-x="708" 
d="M614 1398q57 100 142 100q52 0 87 -34t35 -84q0 -73 -88 -130l-282 -182l-56 56zM668 960l-280 -674q-26 -63 -26 -82q0 -28 28 -28q72 0 218 166l48 -50q-98 -130 -227 -221t-261 -91q-68 0 -106 34t-38 92q0 48 28 110l206 478q22 48 22 76q0 19 -20 36.5t-88 59.5
l22 58l422 56z" />
    <glyph glyph-name="icircumflex" unicode="&#xee;" horiz-adv-x="708" 
d="M806 1420l92 -304l-70 -48l-176 208l-370 -208l-60 50l370 332q40 36 83.5 46.5t79.5 -9.5t51 -67zM668 960l-280 -674q-26 -63 -26 -82q0 -28 28 -28q72 0 218 166l48 -50q-98 -130 -227 -221t-261 -91q-68 0 -106 34t-38 92q0 48 28 110l206 478q22 48 22 76
q0 19 -20 36.5t-88 59.5l22 58l422 56z" />
    <glyph glyph-name="idieresis" unicode="&#xef;" horiz-adv-x="708" 
d="M234 1250q0 71 46.5 119.5t115.5 48.5t114.5 -48.5t45.5 -119.5t-45.5 -117.5t-114.5 -46.5t-115.5 47t-46.5 117zM640 1250q0 71 45.5 119.5t114.5 48.5t115.5 -48.5t46.5 -119.5q0 -70 -46.5 -117t-115.5 -47t-114.5 46.5t-45.5 117.5zM668 960l-280 -674
q-26 -63 -26 -82q0 -28 28 -28q72 0 218 166l48 -50q-98 -130 -227 -221t-261 -91q-68 0 -106 34t-38 92q0 48 28 110l206 478q22 48 22 76q0 19 -20 36.5t-88 59.5l22 58l422 56z" />
    <glyph glyph-name="eth" unicode="&#xf0;" horiz-adv-x="1126" 
d="M1104 750q0 -200 -90 -376.5t-252 -285t-356 -108.5q-160 0 -260 96.5t-100 247.5q0 115 50 229.5t135 206t210.5 149t264.5 57.5q64 0 96 -18q-10 119 -70 222l-308 -76v102l248 62q-84 100 -216 176l64 66q190 -80 328 -198l238 58v-102l-156 -38q174 -200 174 -470z
M432 94q60 0 126 71t115.5 172t82 212.5t32.5 190.5q0 63 -20.5 93.5t-67.5 30.5q-60 0 -126 -71t-115.5 -171.5t-82 -211.5t-32.5 -190q0 -63 20.5 -94.5t67.5 -31.5z" />
    <glyph glyph-name="ntilde" unicode="&#xf1;" horiz-adv-x="1294" 
d="M804 1424q34 0 69 -20t59.5 -44t55.5 -44t58 -20q40 0 72.5 30t87.5 102l78 -42q-86 -154 -157 -218t-141 -64q-36 0 -72 19.5t-61 42.5t-56.5 42.5t-58.5 19.5t-53 -18t-43.5 -38.5t-57.5 -71.5l-82 42q88 154 160 218t142 64zM674 960l-166 -370h8q62 76 127 142
t137.5 123.5t148 91t141.5 33.5q69 0 102.5 -32.5t33.5 -89.5q0 -52 -32 -126l-192 -446q-26 -63 -26 -82q0 -28 28 -28q35 0 93.5 45t124.5 121l48 -50q-46 -61 -97 -113.5t-112.5 -99t-131 -73t-137.5 -26.5q-69 0 -106.5 34t-37.5 92q0 52 26 110l150 350q52 123 52 150
q0 34 -38 34q-46 0 -130 -75t-165.5 -185t-120.5 -204l-116 -286h-310l288 694q22 57 22 76t-20 36.5t-86 59.5l20 58l422 56z" />
    <glyph glyph-name="ograve" unicode="&#xf2;" horiz-adv-x="1128" 
d="M764 1380l78 -280l-66 -42l-226 202q-78 69 -51 147q20 54 77 80q71 30 128 -12q41 -30 60 -95zM406 -20q-161 0 -260.5 96.5t-99.5 247.5q0 115 51 231.5t139 211t217.5 154t274.5 59.5q160 0 259 -96t99 -248q0 -76 -23 -154.5t-64.5 -151t-103.5 -136.5t-135.5 -111.5
t-165 -75t-188.5 -27.5zM702 866q-60 0 -126.5 -71.5t-116 -173t-82.5 -213t-33 -190.5q0 -62 20.5 -93t67.5 -31q60 0 126.5 71.5t116 173t82.5 213t33 190.5q0 124 -88 124z" />
    <glyph glyph-name="oacute" unicode="&#xf3;" horiz-adv-x="1128" 
d="M826 1398q57 100 142 100q52 0 87 -34t35 -84q0 -73 -88 -130l-282 -182l-56 56zM406 -20q-161 0 -260.5 96.5t-99.5 247.5q0 115 51 231.5t139 211t217.5 154t274.5 59.5q160 0 259 -96t99 -248q0 -76 -23 -154.5t-64.5 -151t-103.5 -136.5t-135.5 -111.5t-165 -75
t-188.5 -27.5zM702 866q-60 0 -126.5 -71.5t-116 -173t-82.5 -213t-33 -190.5q0 -62 20.5 -93t67.5 -31q60 0 126.5 71.5t116 173t82.5 213t33 190.5q0 124 -88 124z" />
    <glyph glyph-name="ocircumflex" unicode="&#xf4;" horiz-adv-x="1128" 
d="M1004 1420l92 -304l-70 -48l-176 208l-370 -208l-60 50l370 332q40 36 83.5 46.5t79.5 -9.5t51 -67zM406 -20q-161 0 -260.5 96.5t-99.5 247.5q0 115 51 231.5t139 211t217.5 154t274.5 59.5q160 0 259 -96t99 -248q0 -76 -23 -154.5t-64.5 -151t-103.5 -136.5
t-135.5 -111.5t-165 -75t-188.5 -27.5zM702 866q-60 0 -126.5 -71.5t-116 -173t-82.5 -213t-33 -190.5q0 -62 20.5 -93t67.5 -31q60 0 126.5 71.5t116 173t82.5 213t33 190.5q0 124 -88 124z" />
    <glyph glyph-name="otilde" unicode="&#xf5;" horiz-adv-x="1128" 
d="M726 1424q34 0 69 -20t59.5 -44t55.5 -44t58 -20q40 0 72.5 30t87.5 102l78 -42q-86 -154 -157 -218t-141 -64q-36 0 -72 19.5t-61 42.5t-56.5 42.5t-58.5 19.5t-53 -18t-43.5 -38.5t-57.5 -71.5l-82 42q88 154 160 218t142 64zM406 -20q-161 0 -260.5 96.5t-99.5 247.5
q0 115 51 231.5t139 211t217.5 154t274.5 59.5q160 0 259 -96t99 -248q0 -76 -23 -154.5t-64.5 -151t-103.5 -136.5t-135.5 -111.5t-165 -75t-188.5 -27.5zM702 866q-60 0 -126.5 -71.5t-116 -173t-82.5 -213t-33 -190.5q0 -62 20.5 -93t67.5 -31q60 0 126.5 71.5t116 173
t82.5 213t33 190.5q0 124 -88 124z" />
    <glyph glyph-name="odieresis" unicode="&#xf6;" horiz-adv-x="1128" 
d="M462 1250q0 71 46.5 119.5t115.5 48.5t114.5 -48.5t45.5 -119.5t-45.5 -117.5t-114.5 -46.5t-115.5 47t-46.5 117zM868 1250q0 71 45.5 119.5t114.5 48.5t115.5 -48.5t46.5 -119.5q0 -70 -46.5 -117t-115.5 -47t-114.5 46.5t-45.5 117.5zM406 -20q-161 0 -260.5 96.5
t-99.5 247.5q0 115 51 231.5t139 211t217.5 154t274.5 59.5q160 0 259 -96t99 -248q0 -76 -23 -154.5t-64.5 -151t-103.5 -136.5t-135.5 -111.5t-165 -75t-188.5 -27.5zM702 866q-60 0 -126.5 -71.5t-116 -173t-82.5 -213t-33 -190.5q0 -62 20.5 -93t67.5 -31
q60 0 126.5 71.5t116 173t82.5 213t33 190.5q0 124 -88 124z" />
    <glyph glyph-name="divide" unicode="&#xf7;" 
d="M616 988q0 64 45.5 110t108.5 46t108.5 -46t45.5 -110q0 -63 -45.5 -108.5t-108.5 -45.5t-108.5 45.5t-45.5 108.5zM92 544l56 140h996l-56 -140h-996zM318 240q0 63 45 108.5t109 45.5q62 0 107 -45.5t45 -108.5q0 -64 -45 -110t-107 -46q-64 0 -109 45.5t-45 110.5z
" />
    <glyph glyph-name="oslash" unicode="&#xf8;" horiz-adv-x="1128" 
d="M406 -20q-128 0 -218 62l-182 -172l-80 72l184 176q-64 85 -64 206q0 91 32 185t93.5 177.5t143 149t189.5 104t224 38.5q130 0 218 -64l136 130l82 -70l-140 -134q62 -87 62 -206q0 -76 -23 -154t-64.5 -150.5t-103.5 -136.5t-135.5 -111t-165 -74.5t-188.5 -27.5z
M710 864q-61 0 -124.5 -52.5t-113.5 -133t-88 -173.5t-56 -179l484 460q-18 78 -102 78zM422 94q80 0 162.5 89t138.5 209t81 238l-482 -460q18 -76 100 -76z" />
    <glyph glyph-name="ugrave" unicode="&#xf9;" horiz-adv-x="1288" 
d="M840 1380l78 -280l-66 -42l-226 202q-78 69 -51 147q20 54 77 80q71 30 128 -12q41 -30 60 -95zM668 960l-254 -586q-52 -124 -52 -152q0 -34 38 -34q42 0 128.5 80t172 196.5t123.5 209.5l116 286h310l-280 -674q-26 -59 -26 -82q0 -28 28 -28q35 0 93.5 45t124.5 121
l48 -50q-97 -129 -228.5 -220.5t-263.5 -91.5q-66 0 -98 31t-32 83q0 75 98 268h-8q-128 -161 -273.5 -271.5t-266.5 -110.5q-69 0 -104.5 34t-35.5 90q0 54 32 124l200 466q22 48 22 76q0 19 -20 36.5t-88 59.5l22 58l422 56z" />
    <glyph glyph-name="uacute" unicode="&#xfa;" horiz-adv-x="1288" 
d="M880 1398q57 100 142 100q52 0 87 -34t35 -84q0 -73 -88 -130l-282 -182l-56 56zM668 960l-254 -586q-52 -124 -52 -152q0 -34 38 -34q42 0 128.5 80t172 196.5t123.5 209.5l116 286h310l-280 -674q-26 -59 -26 -82q0 -28 28 -28q35 0 93.5 45t124.5 121l48 -50
q-97 -129 -228.5 -220.5t-263.5 -91.5q-66 0 -98 31t-32 83q0 75 98 268h-8q-128 -161 -273.5 -271.5t-266.5 -110.5q-69 0 -104.5 34t-35.5 90q0 54 32 124l200 466q22 48 22 76q0 19 -20 36.5t-88 59.5l22 58l422 56z" />
    <glyph glyph-name="ucircumflex" unicode="&#xfb;" horiz-adv-x="1288" 
d="M1076 1420l92 -304l-70 -48l-176 208l-370 -208l-60 50l370 332q40 36 83.5 46.5t79.5 -9.5t51 -67zM668 960l-254 -586q-52 -124 -52 -152q0 -34 38 -34q42 0 128.5 80t172 196.5t123.5 209.5l116 286h310l-280 -674q-26 -59 -26 -82q0 -28 28 -28q35 0 93.5 45
t124.5 121l48 -50q-97 -129 -228.5 -220.5t-263.5 -91.5q-66 0 -98 31t-32 83q0 75 98 268h-8q-128 -161 -273.5 -271.5t-266.5 -110.5q-69 0 -104.5 34t-35.5 90q0 54 32 124l200 466q22 48 22 76q0 19 -20 36.5t-88 59.5l22 58l422 56z" />
    <glyph glyph-name="udieresis" unicode="&#xfc;" horiz-adv-x="1288" 
d="M520 1250q0 71 46.5 119.5t115.5 48.5t114.5 -48.5t45.5 -119.5t-45.5 -117.5t-114.5 -46.5t-115.5 47t-46.5 117zM926 1250q0 71 45.5 119.5t114.5 48.5t115.5 -48.5t46.5 -119.5q0 -70 -46.5 -117t-115.5 -47t-114.5 46.5t-45.5 117.5zM668 960l-254 -586
q-52 -124 -52 -152q0 -34 38 -34q42 0 128.5 80t172 196.5t123.5 209.5l116 286h310l-280 -674q-26 -59 -26 -82q0 -28 28 -28q35 0 93.5 45t124.5 121l48 -50q-97 -129 -228.5 -220.5t-263.5 -91.5q-66 0 -98 31t-32 83q0 75 98 268h-8q-128 -161 -273.5 -271.5
t-266.5 -110.5q-69 0 -104.5 34t-35.5 90q0 54 32 124l200 466q22 48 22 76q0 19 -20 36.5t-88 59.5l22 58l422 56z" />
    <glyph glyph-name="yacute" unicode="&#xfd;" horiz-adv-x="1024" 
d="M746 1398q57 100 142 100q52 0 87 -34t35 -84q0 -73 -88 -130l-282 -182l-56 56zM1026 808q0 -105 -65.5 -242t-174 -274.5t-256.5 -271t-304 -236t-325 -165.5t-313 -63q-74 0 -123 40t-49 102q0 61 40.5 96.5t91.5 35.5q34 0 60 -11t43 -26.5t33.5 -31t40.5 -26.5
t55 -11q171 0 420 166q7 191 6.5 481t-6.5 385q-1 28 -23 47t-97 63l22 58l350 56l54 -20q0 -513 -36 -842h6q137 137 220.5 277.5t83.5 252.5q0 22 -18 84t-18 102q0 58 38.5 102t101.5 44q67 0 104.5 -48t37.5 -124z" />
    <glyph glyph-name="thorn" unicode="&#xfe;" horiz-adv-x="1228" 
d="M474 1216q22 57 22 76q0 18 -21 33.5t-105 62.5l24 58l438 56l54 -20l-388 -902h8q54 71 112.5 135.5t130 127t147.5 100t144 37.5q88 0 137 -54t49 -160q0 -90 -41.5 -198t-117 -210.5t-170.5 -188t-212.5 -137.5t-232.5 -52q-106 0 -162 66l-136 -338q-11 -27 9 -35
q23 -9 139 -9l-36 -88h-574l36 88q68 0 88 7.5t32 36.5zM824 768q-63 0 -179.5 -121.5t-207.5 -271t-91 -223.5q0 -38 23 -60t57 -22q70 0 153 64.5t149 157t111 198.5t45 184q0 94 -60 94z" />
    <glyph glyph-name="ydieresis" unicode="&#xff;" horiz-adv-x="1024" 
d="M366 1250q0 71 46.5 119.5t115.5 48.5t114.5 -48.5t45.5 -119.5t-45.5 -117.5t-114.5 -46.5t-115.5 47t-46.5 117zM772 1250q0 71 45.5 119.5t114.5 48.5t115.5 -48.5t46.5 -119.5q0 -70 -46.5 -117t-115.5 -47t-114.5 46.5t-45.5 117.5zM1026 808q0 -105 -65.5 -242
t-174 -274.5t-256.5 -271t-304 -236t-325 -165.5t-313 -63q-74 0 -123 40t-49 102q0 61 40.5 96.5t91.5 35.5q34 0 60 -11t43 -26.5t33.5 -31t40.5 -26.5t55 -11q171 0 420 166q7 191 6.5 481t-6.5 385q-1 28 -23 47t-97 63l22 58l350 56l54 -20q0 -513 -36 -842h6
q137 137 220.5 277.5t83.5 252.5q0 22 -18 84t-18 102q0 58 38.5 102t101.5 44q67 0 104.5 -48t37.5 -124z" />
    <glyph glyph-name="Amacron" unicode="&#x100;" horiz-adv-x="1478" 
d="M776 1474l64 156h658l-64 -156h-658zM356 96l-40 -96h-502l38 96q93 0 126.5 10t65.5 50l974 1164h186l-22 -1164q0 -40 23 -50t115 -10l-38 -96h-684l38 96q63 0 94.5 1t60 4.5t38.5 12.5t16 22t7 36l14 266h-442l-222 -266q-22 -28 -22 -44q0 -15 31.5 -20t144.5 -12z
M886 992l-372 -446h358l22 446h-8z" />
    <glyph glyph-name="amacron" unicode="&#x101;" horiz-adv-x="1274" 
d="M568 1154l64 156h584l-64 -156h-584zM700 360h-8q-61 -80 -116 -142.5t-119.5 -119t-131 -87.5t-129.5 -31q-81 0 -131.5 56t-50.5 154q0 99 40.5 211t112 213t159.5 184t191 132.5t199 49.5q72 0 122.5 -35t67.5 -87l72 102h260l-282 -674q-24 -55 -24 -82q0 -28 28 -28
q70 0 216 166l48 -50q-97 -130 -228 -221t-264 -91q-66 0 -100 31t-34 83q0 69 102 266zM410 198q57 0 163.5 115.5t189.5 256.5t83 210q0 44 -21 69t-63 25q-78 0 -177.5 -100.5t-169 -241t-69.5 -248.5q0 -86 64 -86z" />
    <glyph glyph-name="Abreve" unicode="&#x102;" horiz-adv-x="1478" 
d="M1150 1604q90 0 173 56.5t143 141.5l100 -22q-91 -175 -213 -269.5t-257 -94.5q-137 0 -192 95.5t-6 268.5l96 22q-11 -88 27 -143t129 -55zM356 96l-40 -96h-502l38 96q93 0 126.5 10t65.5 50l974 1164h186l-22 -1164q0 -40 23 -50t115 -10l-38 -96h-684l38 96
q63 0 94.5 1t60 4.5t38.5 12.5t16 22t7 36l14 266h-442l-222 -266q-22 -28 -22 -44q0 -15 31.5 -20t144.5 -12zM886 992l-372 -446h358l22 446h-8z" />
    <glyph glyph-name="abreve" unicode="&#x103;" horiz-adv-x="1274" 
d="M914 1262q152 0 292 234l100 -32q-98 -193 -218 -294.5t-246 -101.5q-121 0 -159.5 101t17.5 295l104 32q-47 -234 110 -234zM700 360h-8q-61 -80 -116 -142.5t-119.5 -119t-131 -87.5t-129.5 -31q-81 0 -131.5 56t-50.5 154q0 99 40.5 211t112 213t159.5 184t191 132.5
t199 49.5q72 0 122.5 -35t67.5 -87l72 102h260l-282 -674q-24 -55 -24 -82q0 -28 28 -28q70 0 216 166l48 -50q-97 -130 -228 -221t-264 -91q-66 0 -100 31t-34 83q0 69 102 266zM410 198q57 0 163.5 115.5t189.5 256.5t83 210q0 44 -21 69t-63 25q-78 0 -177.5 -100.5
t-169 -241t-69.5 -248.5q0 -86 64 -86z" />
    <glyph glyph-name="Aogonek" unicode="&#x104;" horiz-adv-x="1478" 
d="M730 -280q-160 -164 -308 -164q-71 0 -114.5 35.5t-43.5 96.5q0 91 95.5 182.5t250.5 157.5l26 68q63 0 94.5 1t60 4.5t38.5 12.5t16 22t7 36l14 266h-442l-222 -266q-22 -28 -22 -44q0 -15 31.5 -20t144.5 -12l-40 -96h-502l38 96q93 0 126.5 10t65.5 50l974 1164h186
l-22 -1164q0 -40 23 -50t115 -10l-38 -96h-570q-102 -41 -175 -106.5t-73 -127.5q0 -29 19 -44.5t53 -15.5q68 0 156 70zM886 992l-372 -446h358l22 446h-8z" />
    <glyph glyph-name="aogonek" unicode="&#x105;" horiz-adv-x="1274" 
d="M874 -280q-160 -164 -308 -164q-71 0 -114.5 35.5t-43.5 96.5q0 80 77 160t199 142q-86 27 -86 104q0 69 102 266h-8q-61 -80 -116 -142.5t-119.5 -119t-131 -87.5t-129.5 -31q-81 0 -131.5 56t-50.5 154q0 99 40.5 211t112 213t159.5 184t191 132.5t199 49.5
q72 0 122.5 -35t67.5 -87l72 102h260l-282 -674q-24 -55 -24 -82q0 -28 28 -28q70 0 216 166l48 -50q-67 -93 -168.5 -173t-223.5 -133q-91 -39 -157.5 -98t-66.5 -120q0 -29 19 -45.5t53 -16.5q68 0 156 70zM410 198q57 0 163.5 115.5t189.5 256.5t83 210q0 44 -21 69
t-63 25q-78 0 -177.5 -100.5t-169 -241t-69.5 -248.5q0 -86 64 -86z" />
    <glyph glyph-name="Cacute" unicode="&#x106;" horiz-adv-x="1258" 
d="M966 1482l238 250q64 72 136 72q57 0 94.5 -42t37.5 -98q0 -42 -27.5 -78t-84.5 -54l-350 -116zM1240 852q-14 182 -76 274t-178 92q-98 0 -197.5 -70.5t-174.5 -181.5t-122.5 -253.5t-47.5 -278.5q0 -132 61.5 -204t166.5 -72q202 0 390 200l72 -88q-118 -132 -271 -211
t-315 -79q-90 0 -170.5 29t-144 83.5t-100.5 143t-37 198.5q0 127 46.5 259t130.5 246.5t192.5 205t242.5 143t270 52.5q173 0 302 -114l96 94h90l-138 -468h-88z" />
    <glyph glyph-name="cacute" unicode="&#x107;" horiz-adv-x="928" 
d="M820 1398q57 100 142 100q52 0 87 -34t35 -84q0 -73 -88 -130l-282 -182l-56 56zM684 868q-66 0 -145.5 -97t-133 -230.5t-53.5 -234.5q0 -71 33.5 -107.5t94.5 -36.5q126 0 300 198l66 -60q-111 -147 -244 -233.5t-280 -86.5q-130 0 -209 77t-79 199q0 92 35.5 194
t102 195.5t152.5 169t195 120.5t221 45q111 0 170.5 -49t59.5 -125q0 -58 -39 -98t-97 -40q-44 0 -68 20.5t-30.5 50t-9 59t-11.5 50t-31 20.5z" />
    <glyph glyph-name="Ccircumflex" unicode="&#x108;" horiz-adv-x="1258" 
d="M1308 1766l124 -298l-62 -52l-226 188l-402 -188l-54 52l404 328q75 56 133 45t83 -75zM1240 852q-14 182 -76 274t-178 92q-98 0 -197.5 -70.5t-174.5 -181.5t-122.5 -253.5t-47.5 -278.5q0 -132 61.5 -204t166.5 -72q202 0 390 200l72 -88q-118 -132 -271 -211
t-315 -79q-90 0 -170.5 29t-144 83.5t-100.5 143t-37 198.5q0 127 46.5 259t130.5 246.5t192.5 205t242.5 143t270 52.5q173 0 302 -114l96 94h90l-138 -468h-88z" />
    <glyph glyph-name="ccircumflex" unicode="&#x109;" horiz-adv-x="928" 
d="M984 1420l92 -304l-70 -48l-176 208l-370 -208l-60 50l370 332q40 36 83.5 46.5t79.5 -9.5t51 -67zM684 868q-66 0 -145.5 -97t-133 -230.5t-53.5 -234.5q0 -71 33.5 -107.5t94.5 -36.5q126 0 300 198l66 -60q-111 -147 -244 -233.5t-280 -86.5q-130 0 -209 77t-79 199
q0 92 35.5 194t102 195.5t152.5 169t195 120.5t221 45q111 0 170.5 -49t59.5 -125q0 -58 -39 -98t-97 -40q-44 0 -68 20.5t-30.5 50t-9 59t-11.5 50t-31 20.5z" />
    <glyph glyph-name="Cdotaccent" unicode="&#x10a;" horiz-adv-x="1258" 
d="M944 1600q0 78 51.5 130t128.5 52t128.5 -52t51.5 -130t-51.5 -130t-128.5 -52t-128.5 52t-51.5 130zM1240 852q-14 182 -76 274t-178 92q-98 0 -197.5 -70.5t-174.5 -181.5t-122.5 -253.5t-47.5 -278.5q0 -132 61.5 -204t166.5 -72q202 0 390 200l72 -88
q-118 -132 -271 -211t-315 -79q-90 0 -170.5 29t-144 83.5t-100.5 143t-37 198.5q0 127 46.5 259t130.5 246.5t192.5 205t242.5 143t270 52.5q173 0 302 -114l96 94h90l-138 -468h-88z" />
    <glyph glyph-name="cdotaccent" unicode="&#x10b;" horiz-adv-x="928" 
d="M646 1290q0 76 50.5 127t125.5 51t125.5 -51t50.5 -127t-50.5 -127t-125.5 -51t-125.5 51t-50.5 127zM684 868q-66 0 -145.5 -97t-133 -230.5t-53.5 -234.5q0 -71 33.5 -107.5t94.5 -36.5q126 0 300 198l66 -60q-111 -147 -244 -233.5t-280 -86.5q-130 0 -209 77t-79 199
q0 92 35.5 194t102 195.5t152.5 169t195 120.5t221 45q111 0 170.5 -49t59.5 -125q0 -58 -39 -98t-97 -40q-44 0 -68 20.5t-30.5 50t-9 59t-11.5 50t-31 20.5z" />
    <glyph glyph-name="Ccaron" unicode="&#x10c;" horiz-adv-x="1258" 
d="M950 1464l-124 298l62 52l226 -188l402 188l54 -52l-404 -328q-75 -56 -133 -45t-83 75zM1240 852q-14 182 -76 274t-178 92q-98 0 -197.5 -70.5t-174.5 -181.5t-122.5 -253.5t-47.5 -278.5q0 -132 61.5 -204t166.5 -72q202 0 390 200l72 -88q-118 -132 -271 -211
t-315 -79q-90 0 -170.5 29t-144 83.5t-100.5 143t-37 198.5q0 127 46.5 259t130.5 246.5t192.5 205t242.5 143t270 52.5q173 0 302 -114l96 94h90l-138 -468h-88z" />
    <glyph glyph-name="ccaron" unicode="&#x10d;" horiz-adv-x="928" 
d="M650 1148l-92 304l70 48l176 -208l370 208l60 -50l-370 -332q-40 -36 -83.5 -46.5t-79.5 9.5t-51 67zM684 868q-66 0 -145.5 -97t-133 -230.5t-53.5 -234.5q0 -71 33.5 -107.5t94.5 -36.5q126 0 300 198l66 -60q-111 -147 -244 -233.5t-280 -86.5q-130 0 -209 77t-79 199
q0 92 35.5 194t102 195.5t152.5 169t195 120.5t221 45q111 0 170.5 -49t59.5 -125q0 -58 -39 -98t-97 -40q-44 0 -68 20.5t-30.5 50t-9 59t-11.5 50t-31 20.5z" />
    <glyph glyph-name="Dcaron" unicode="&#x10e;" horiz-adv-x="1488" 
d="M938 1464l-124 298l62 52l226 -188l402 188l54 -52l-404 -328q-75 -56 -133 -45t-83 75zM384 1320h546q281 0 438.5 -132.5t157.5 -345.5q0 -142 -57 -272.5t-160 -233t-239.5 -178.5t-302.5 -117t-343 -41h-574l38 96q108 0 141 11t47 47l410 1012q6 15 6 26
q0 18 -31 25t-117 7zM390 108h86q134 0 265 61.5t231 164.5t162 249t62 305q0 168 -70.5 246t-231.5 78h-56z" />
    <glyph glyph-name="dcaron" unicode="&#x10f;" horiz-adv-x="1526" 
d="M734 -20q-66 0 -100 31t-34 83q0 62 102 266h-8q-50 -68 -103 -127.5t-120.5 -120t-142 -96.5t-142.5 -36q-85 0 -136.5 59t-51.5 157q0 124 65 264.5t164.5 254.5t229 189.5t249.5 75.5q66 0 115.5 -27t76.5 -67l136 330q22 57 22 76q0 18 -21 33.5t-105 62.5l24 58
l438 56l54 -20l-488 -1196q-26 -59 -26 -82q0 -28 30 -28q70 0 216 166l48 -50q-97 -130 -228 -221t-264 -91zM1416 1004l164 380q25 59 64 87.5t80 28.5q47 0 79.5 -33.5t32.5 -82.5q0 -69 -64 -130l-292 -290zM402 196q60 0 168.5 116.5t192 258t83.5 209.5q0 44 -23.5 69
t-66.5 25q-88 0 -190.5 -100t-170 -239t-67.5 -249q0 -43 21 -66.5t53 -23.5z" />
    <glyph glyph-name="Dcroat" unicode="&#x110;" horiz-adv-x="1508" 
d="M1546 842q0 -142 -57 -272.5t-160 -233t-239.5 -178.5t-302.5 -117t-343 -41h-574l38 96q75 0 111.5 5.5t51.5 16.5t25 36l186 460h-164l46 116h166l176 436q6 15 6 26q0 18 -31 25t-117 7l40 96h546q281 0 438.5 -132.5t157.5 -345.5zM410 108h86q134 0 265 61.5
t231 164.5t162 249t62 305q0 168 -70.5 246t-231.5 78h-56l-196 -482h236l-46 -116h-236z" />
    <glyph glyph-name="dcroat" unicode="&#x111;" horiz-adv-x="1300" 
d="M1226 292q-97 -130 -228 -221t-264 -91q-66 0 -100 31t-34 83q0 62 102 266h-8q-50 -68 -103 -127.5t-120.5 -120t-142 -96.5t-142.5 -36q-85 0 -136.5 59t-51.5 157q0 124 65 264.5t164.5 254.5t229 189.5t249.5 75.5q66 0 115.5 -27t76.5 -67l82 198h-256l44 108h256
l10 24q22 57 22 76q0 18 -21 33.5t-105 62.5l24 58l438 56l54 -20l-118 -290h142l-44 -108h-142l-326 -798q-26 -59 -26 -82q0 -28 30 -28q70 0 216 166zM402 196q60 0 168.5 116.5t192 258t83.5 209.5q0 44 -23.5 69t-66.5 25q-88 0 -190.5 -100t-170 -239t-67.5 -249
q0 -43 21 -66.5t53 -23.5z" />
    <glyph glyph-name="Emacron" unicode="&#x112;" horiz-adv-x="1332" 
d="M712 1474l64 156h658l-64 -156h-658zM384 1320h1122l-174 -470h-96q27 182 23 237q-5 88 -68 112q-33 13 -85 13h-268l-198 -484h72q49 0 75.5 1t55 10t42 18.5t35.5 37.5t36.5 54.5t43.5 82.5h96l-208 -516h-88q28 100 28 140q0 43 -31.5 53.5t-128.5 10.5h-70
l-208 -512h188q82 0 141 9.5t115.5 33t108.5 68t107 110.5t122 165h112l-244 -494h-1190l38 96q108 0 141 11t47 47l410 1012q6 15 6 26q0 18 -31 25t-117 7z" />
    <glyph glyph-name="emacron" unicode="&#x113;" horiz-adv-x="994" 
d="M456 1154l64 156h584l-64 -156h-584zM862 278q-106 -130 -253.5 -214t-296.5 -84q-128 0 -207 70t-79 188q0 78 26 163.5t72.5 167.5t115 157t148 131t177.5 89.5t199 33.5q120 0 185 -57.5t65 -138.5q0 -300 -664 -380q-10 -50 -10 -84q0 -78 33.5 -118t96.5 -40
q80 0 167 47.5t165 132.5zM694 882q-74 0 -171.5 -123t-148.5 -271q175 46 279.5 131t104.5 189q0 33 -16 53.5t-48 20.5z" />
    <glyph glyph-name="Ebreve" unicode="&#x114;" horiz-adv-x="1332" 
d="M1082 1604q90 0 173 56.5t143 141.5l100 -22q-91 -175 -213 -269.5t-257 -94.5q-137 0 -192 95.5t-6 268.5l96 22q-11 -88 27 -143t129 -55zM384 1320h1122l-174 -470h-96q27 182 23 237q-5 88 -68 112q-33 13 -85 13h-268l-198 -484h72q49 0 75.5 1t55 10t42 18.5
t35.5 37.5t36.5 54.5t43.5 82.5h96l-208 -516h-88q28 100 28 140q0 43 -31.5 53.5t-128.5 10.5h-70l-208 -512h188q82 0 141 9.5t115.5 33t108.5 68t107 110.5t122 165h112l-244 -494h-1190l38 96q108 0 141 11t47 47l410 1012q6 15 6 26q0 18 -31 25t-117 7z" />
    <glyph glyph-name="ebreve" unicode="&#x115;" horiz-adv-x="994" 
d="M824 1262q152 0 292 234l100 -32q-98 -193 -218 -294.5t-246 -101.5q-121 0 -159.5 101t17.5 295l104 32q-47 -234 110 -234zM862 278q-106 -130 -253.5 -214t-296.5 -84q-128 0 -207 70t-79 188q0 78 26 163.5t72.5 167.5t115 157t148 131t177.5 89.5t199 33.5
q120 0 185 -57.5t65 -138.5q0 -300 -664 -380q-10 -50 -10 -84q0 -78 33.5 -118t96.5 -40q80 0 167 47.5t165 132.5zM694 882q-74 0 -171.5 -123t-148.5 -271q175 46 279.5 131t104.5 189q0 33 -16 53.5t-48 20.5z" />
    <glyph glyph-name="Edotaccent" unicode="&#x116;" horiz-adv-x="1332" 
d="M892 1600q0 78 51.5 130t128.5 52t128.5 -52t51.5 -130t-51.5 -130t-128.5 -52t-128.5 52t-51.5 130zM384 1320h1122l-174 -470h-96q27 182 23 237q-5 88 -68 112q-33 13 -85 13h-268l-198 -484h72q49 0 75.5 1t55 10t42 18.5t35.5 37.5t36.5 54.5t43.5 82.5h96
l-208 -516h-88q28 100 28 140q0 43 -31.5 53.5t-128.5 10.5h-70l-208 -512h188q82 0 141 9.5t115.5 33t108.5 68t107 110.5t122 165h112l-244 -494h-1190l38 96q108 0 141 11t47 47l410 1012q6 15 6 26q0 18 -31 25t-117 7z" />
    <glyph glyph-name="edotaccent" unicode="&#x117;" horiz-adv-x="994" 
d="M664 1290q0 76 50.5 127t125.5 51t125.5 -51t50.5 -127t-50.5 -127t-125.5 -51t-125.5 51t-50.5 127zM862 278q-106 -130 -253.5 -214t-296.5 -84q-128 0 -207 70t-79 188q0 78 26 163.5t72.5 167.5t115 157t148 131t177.5 89.5t199 33.5q120 0 185 -57.5t65 -138.5
q0 -300 -664 -380q-10 -50 -10 -84q0 -78 33.5 -118t96.5 -40q80 0 167 47.5t165 132.5zM694 882q-74 0 -171.5 -123t-148.5 -271q175 46 279.5 131t104.5 189q0 33 -16 53.5t-48 20.5z" />
    <glyph glyph-name="Eogonek" unicode="&#x118;" horiz-adv-x="1332" 
d="M852 -280q-160 -164 -308 -164q-71 0 -114.5 35.5t-43.5 96.5q0 80 78 163.5t206 148.5h-820l38 96q108 0 141 11t47 47l410 1012q6 15 6 26q0 18 -31 25t-117 7l40 96h1122l-174 -470h-96q27 182 23 237q-5 88 -68 112q-33 13 -85 13h-268l-198 -484h72q49 0 75.5 1
t55 10t42 18.5t35.5 37.5t36.5 54.5t43.5 82.5h96l-208 -516h-88q28 100 28 140q0 43 -31.5 53.5t-128.5 10.5h-70l-208 -512h188q82 0 141 9.5t115.5 33t108.5 68t107 110.5t122 165h112l-244 -494h-206q-102 -41 -175 -106.5t-73 -127.5q0 -29 19 -44.5t53 -15.5
q68 0 156 70z" />
    <glyph glyph-name="eogonek" unicode="&#x119;" horiz-adv-x="994" 
d="M474 -280q-160 -164 -308 -164q-71 0 -114.5 35.5t-43.5 96.5q0 76 68.5 153.5t185.5 142.5q-108 14 -172 81.5t-64 172.5q0 78 26 163.5t72.5 167.5t115 157t148 131t177.5 89.5t199 33.5q120 0 185 -57.5t65 -138.5q0 -300 -664 -380q-10 -50 -10 -84q0 -78 33.5 -118
t96.5 -40q80 0 167 47.5t165 132.5l60 -64q-145 -179 -406 -284q-248 -101 -248 -228q0 -29 19 -44.5t53 -15.5q68 0 156 70zM694 882q-74 0 -171.5 -123t-148.5 -271q175 46 279.5 131t104.5 189q0 33 -16 53.5t-48 20.5z" />
    <glyph glyph-name="Ecaron" unicode="&#x11a;" horiz-adv-x="1332" 
d="M912 1464l-124 298l62 52l226 -188l402 188l54 -52l-404 -328q-75 -56 -133 -45t-83 75zM384 1320h1122l-174 -470h-96q27 182 23 237q-5 88 -68 112q-33 13 -85 13h-268l-198 -484h72q49 0 75.5 1t55 10t42 18.5t35.5 37.5t36.5 54.5t43.5 82.5h96l-208 -516h-88
q28 100 28 140q0 43 -31.5 53.5t-128.5 10.5h-70l-208 -512h188q82 0 141 9.5t115.5 33t108.5 68t107 110.5t122 165h112l-244 -494h-1190l38 96q108 0 141 11t47 47l410 1012q6 15 6 26q0 18 -31 25t-117 7z" />
    <glyph glyph-name="ecaron" unicode="&#x11b;" horiz-adv-x="994" 
d="M658 1148l-92 304l70 48l176 -208l370 208l60 -50l-370 -332q-40 -36 -83.5 -46.5t-79.5 9.5t-51 67zM862 278q-106 -130 -253.5 -214t-296.5 -84q-128 0 -207 70t-79 188q0 78 26 163.5t72.5 167.5t115 157t148 131t177.5 89.5t199 33.5q120 0 185 -57.5t65 -138.5
q0 -300 -664 -380q-10 -50 -10 -84q0 -78 33.5 -118t96.5 -40q80 0 167 47.5t165 132.5zM694 882q-74 0 -171.5 -123t-148.5 -271q175 46 279.5 131t104.5 189q0 33 -16 53.5t-48 20.5z" />
    <glyph glyph-name="Gcircumflex" unicode="&#x11c;" horiz-adv-x="1470" 
d="M1328 1766l124 -298l-62 -52l-226 188l-402 -188l-54 52l404 328q75 56 133 45t83 -75zM690 104q93 0 166 40l112 280q12 27 12 42q0 20 -31.5 26.5t-132.5 9.5l38 96h640l-38 -96q-96 0 -125 -11t-43 -47l-114 -282q-142 -91 -273 -136.5t-283 -45.5q-103 0 -196.5 32
t-166.5 90.5t-116 149t-43 200.5q0 160 74.5 321t196 285.5t290 203t343.5 78.5q193 0 318 -114l98 94h90l-138 -468h-88q-14 183 -79 274.5t-193 91.5q-102 0 -205 -68t-181.5 -175t-128 -247t-49.5 -276q0 -74 14 -135t42 -110t76.5 -76t113.5 -27z" />
    <glyph glyph-name="gcircumflex" unicode="&#x11d;" horiz-adv-x="1074" 
d="M974 1420l92 -304l-70 -48l-176 208l-370 -208l-60 50l370 332q40 36 83.5 46.5t79.5 -9.5t51 -67zM868 -30q0 -80 -51.5 -155.5t-138 -132.5t-208.5 -91.5t-254 -34.5q-212 0 -335 74.5t-123 179.5q0 55 27.5 98t79.5 72t113 48t142 34q-58 46 -58 114q0 72 60 127.5
t162 86.5q-76 31 -118 88.5t-42 125.5q0 69 37 136.5t102 120.5t162 86t209 33q172 0 266 -94q123 130 232 130q57 0 90.5 -30t33.5 -84q0 -53 -39.5 -95.5t-86.5 -42.5q-31 0 -54 14.5t-32.5 32.5t-21.5 32.5t-24 14.5q-24 0 -60 -26q24 -45 24 -98q0 -69 -36 -136.5
t-100 -120.5t-161 -86t-209 -33q-49 0 -102 10q-51 -15 -69.5 -32t-18.5 -38q0 -22 44.5 -37.5t209.5 -54.5q183 -46 240 -73q86 -40 103 -113q5 -23 5 -50zM620 878q-82 0 -152 -101t-70 -203q0 -50 18 -82t54 -32q55 0 107.5 49t83.5 120t31 137q0 48 -18 80t-54 32z
M-20 -150q0 -78 80 -128t202 -50q150 0 236 49.5t86 124.5q0 41 -46.5 65.5t-165.5 52.5q-124 30 -200 66q-90 -26 -141 -72t-51 -108z" />
    <glyph glyph-name="Gbreve" unicode="&#x11e;" horiz-adv-x="1470" 
d="M1148 1604q90 0 173 56.5t143 141.5l100 -22q-91 -175 -213 -269.5t-257 -94.5q-137 0 -192 95.5t-6 268.5l96 22q-11 -88 27 -143t129 -55zM690 104q93 0 166 40l112 280q12 27 12 42q0 20 -31.5 26.5t-132.5 9.5l38 96h640l-38 -96q-96 0 -125 -11t-43 -47l-114 -282
q-142 -91 -273 -136.5t-283 -45.5q-103 0 -196.5 32t-166.5 90.5t-116 149t-43 200.5q0 160 74.5 321t196 285.5t290 203t343.5 78.5q193 0 318 -114l98 94h90l-138 -468h-88q-14 183 -79 274.5t-193 91.5q-102 0 -205 -68t-181.5 -175t-128 -247t-49.5 -276q0 -74 14 -135
t42 -110t76.5 -76t113.5 -27z" />
    <glyph glyph-name="gbreve" unicode="&#x11f;" horiz-adv-x="1074" 
d="M796 1262q152 0 292 234l100 -32q-98 -193 -218 -294.5t-246 -101.5q-121 0 -159.5 101t17.5 295l104 32q-47 -234 110 -234zM868 -30q0 -80 -51.5 -155.5t-138 -132.5t-208.5 -91.5t-254 -34.5q-212 0 -335 74.5t-123 179.5q0 55 27.5 98t79.5 72t113 48t142 34
q-58 46 -58 114q0 72 60 127.5t162 86.5q-76 31 -118 88.5t-42 125.5q0 69 37 136.5t102 120.5t162 86t209 33q172 0 266 -94q123 130 232 130q57 0 90.5 -30t33.5 -84q0 -53 -39.5 -95.5t-86.5 -42.5q-31 0 -54 14.5t-32.5 32.5t-21.5 32.5t-24 14.5q-24 0 -60 -26
q24 -45 24 -98q0 -69 -36 -136.5t-100 -120.5t-161 -86t-209 -33q-49 0 -102 10q-51 -15 -69.5 -32t-18.5 -38q0 -22 44.5 -37.5t209.5 -54.5q183 -46 240 -73q86 -40 103 -113q5 -23 5 -50zM620 878q-82 0 -152 -101t-70 -203q0 -50 18 -82t54 -32q55 0 107.5 49t83.5 120
t31 137q0 48 -18 80t-54 32zM-20 -150q0 -78 80 -128t202 -50q150 0 236 49.5t86 124.5q0 41 -46.5 65.5t-165.5 52.5q-124 30 -200 66q-90 -26 -141 -72t-51 -108z" />
    <glyph glyph-name="Gdotaccent" unicode="&#x120;" horiz-adv-x="1470" 
d="M944 1600q0 78 51.5 130t128.5 52t128.5 -52t51.5 -130t-51.5 -130t-128.5 -52t-128.5 52t-51.5 130zM690 104q93 0 166 40l112 280q12 27 12 42q0 20 -31.5 26.5t-132.5 9.5l38 96h640l-38 -96q-96 0 -125 -11t-43 -47l-114 -282q-142 -91 -273 -136.5t-283 -45.5
q-103 0 -196.5 32t-166.5 90.5t-116 149t-43 200.5q0 160 74.5 321t196 285.5t290 203t343.5 78.5q193 0 318 -114l98 94h90l-138 -468h-88q-14 183 -79 274.5t-193 91.5q-102 0 -205 -68t-181.5 -175t-128 -247t-49.5 -276q0 -74 14 -135t42 -110t76.5 -76t113.5 -27z" />
    <glyph glyph-name="gdotaccent" unicode="&#x121;" horiz-adv-x="1074" 
d="M616 1290q0 76 50.5 127t125.5 51t125.5 -51t50.5 -127t-50.5 -127t-125.5 -51t-125.5 51t-50.5 127zM868 -30q0 -80 -51.5 -155.5t-138 -132.5t-208.5 -91.5t-254 -34.5q-212 0 -335 74.5t-123 179.5q0 55 27.5 98t79.5 72t113 48t142 34q-58 46 -58 114q0 72 60 127.5
t162 86.5q-76 31 -118 88.5t-42 125.5q0 69 37 136.5t102 120.5t162 86t209 33q172 0 266 -94q123 130 232 130q57 0 90.5 -30t33.5 -84q0 -53 -39.5 -95.5t-86.5 -42.5q-31 0 -54 14.5t-32.5 32.5t-21.5 32.5t-24 14.5q-24 0 -60 -26q24 -45 24 -98q0 -69 -36 -136.5
t-100 -120.5t-161 -86t-209 -33q-49 0 -102 10q-51 -15 -69.5 -32t-18.5 -38q0 -22 44.5 -37.5t209.5 -54.5q183 -46 240 -73q86 -40 103 -113q5 -23 5 -50zM620 878q-82 0 -152 -101t-70 -203q0 -50 18 -82t54 -32q55 0 107.5 49t83.5 120t31 137q0 48 -18 80t-54 32z
M-20 -150q0 -78 80 -128t202 -50q150 0 236 49.5t86 124.5q0 41 -46.5 65.5t-165.5 52.5q-124 30 -200 66q-90 -26 -141 -72t-51 -108z" />
    <glyph glyph-name="uni0122" unicode="&#x122;" horiz-adv-x="1470" 
d="M690 104q93 0 166 40l112 280q12 27 12 42q0 20 -31.5 26.5t-132.5 9.5l38 96h640l-38 -96q-96 0 -125 -11t-43 -47l-114 -282q-142 -91 -273 -136.5t-283 -45.5q-103 0 -196.5 32t-166.5 90.5t-116 149t-43 200.5q0 160 74.5 321t196 285.5t290 203t343.5 78.5
q193 0 318 -114l98 94h90l-138 -468h-88q-14 183 -79 274.5t-193 91.5q-102 0 -205 -68t-181.5 -175t-128 -247t-49.5 -276q0 -74 14 -135t42 -110t76.5 -76t113.5 -27zM288 -432q104 6 157 33.5t53 66.5q0 13 -19 21.5t-41 14.5t-41 30t-19 64q0 52 43 89t105 37
q72 0 115 -49.5t43 -110.5q0 -111 -106.5 -193.5t-279.5 -82.5z" />
    <glyph glyph-name="uni0123" unicode="&#x123;" horiz-adv-x="1074" 
d="M1008 1426q-104 -6 -157 -33.5t-53 -66.5q0 -13 19 -21.5t41 -14.5t41 -30t19 -64q0 -52 -43 -89t-105 -37q-72 0 -115 49.5t-43 110.5q0 111 106.5 193.5t279.5 82.5zM868 -30q0 -80 -51.5 -155.5t-138 -132.5t-208.5 -91.5t-254 -34.5q-212 0 -335 74.5t-123 179.5
q0 55 27.5 98t79.5 72t113 48t142 34q-58 46 -58 114q0 72 60 127.5t162 86.5q-76 31 -118 88.5t-42 125.5q0 69 37 136.5t102 120.5t162 86t209 33q172 0 266 -94q123 130 232 130q57 0 90.5 -30t33.5 -84q0 -53 -39.5 -95.5t-86.5 -42.5q-31 0 -54 14.5t-32.5 32.5
t-21.5 32.5t-24 14.5q-24 0 -60 -26q24 -45 24 -98q0 -69 -36 -136.5t-100 -120.5t-161 -86t-209 -33q-49 0 -102 10q-51 -15 -69.5 -32t-18.5 -38q0 -22 44.5 -37.5t209.5 -54.5q183 -46 240 -73q86 -40 103 -113q5 -23 5 -50zM620 878q-82 0 -152 -101t-70 -203
q0 -50 18 -82t54 -32q55 0 107.5 49t83.5 120t31 137q0 48 -18 80t-54 32zM-20 -150q0 -78 80 -128t202 -50q150 0 236 49.5t86 124.5q0 41 -46.5 65.5t-165.5 52.5q-124 30 -200 66q-90 -26 -141 -72t-51 -108z" />
    <glyph glyph-name="Hcircumflex" unicode="&#x124;" horiz-adv-x="1610" 
d="M1388 1766l124 -298l-62 -52l-226 188l-402 -188l-54 52l404 328q75 56 133 45t83 -75zM550 96l-38 -96h-662l38 96q108 0 141 11t47 47l410 1012q6 15 6 26q0 18 -31 25t-117 7l40 96h662l-40 -96q-75 0 -111 -5.5t-50.5 -16.5t-24.5 -36l-176 -436h534l176 436
q6 15 6 26q0 18 -31 25t-117 7l40 96h662l-40 -96q-75 0 -111 -5.5t-50.5 -16.5t-24.5 -36l-410 -1012q-6 -15 -6 -26q0 -18 30.5 -25t115.5 -7l-38 -96h-662l38 96q108 0 141 11t47 47l186 460h-534l-186 -460q-8 -20 -8 -26q0 -18 31 -25t117 -7z" />
    <glyph glyph-name="hcircumflex" unicode="&#x125;" horiz-adv-x="1274" 
d="M1182 1926l124 -298l-62 -52l-226 188l-402 -188l-54 52l404 328q75 56 133 45t83 -75zM874 1482l-382 -894h8q82 103 169.5 187t192.5 144.5t192 60.5q68 0 101 -32.5t33 -89.5t-30 -126l-192 -446q-26 -63 -26 -82q0 -28 28 -28q35 0 93.5 45t124.5 121l48 -50
q-100 -133 -224 -222.5t-256 -89.5q-69 0 -105.5 34t-36.5 92q0 52 26 110l150 348q50 115 50 152q0 34 -36 34q-46 0 -130 -75t-165.5 -185t-120.5 -204l-116 -286h-310l502 1216q22 48 22 76q0 19 -21.5 35t-104.5 61l24 58l438 56z" />
    <glyph glyph-name="Hbar" unicode="&#x126;" horiz-adv-x="1650" 
d="M570 96l-38 -96h-662l38 96q75 0 111.5 5.5t51.5 16.5t25 36l292 720h-164l46 116h164l72 176q6 15 6 26q0 18 -31 25t-117 7l40 96h662l-40 -96q-75 0 -111 -5.5t-50.5 -16.5t-24.5 -36l-72 -176h534l72 176q6 15 6 26q0 18 -31 25t-117 7l40 96h662l-40 -96
q-75 0 -111 -5.5t-50.5 -16.5t-24.5 -36l-72 -176h164l-44 -116h-166l-292 -720q-6 -15 -6 -26q0 -18 30.5 -25t115.5 -7l-38 -96h-662l38 96q108 0 141 11t47 47l162 400h-534l-162 -400q-8 -20 -8 -26q0 -18 31 -25t117 -7zM640 670h534l82 204h-534z" />
    <glyph glyph-name="hbar" unicode="&#x127;" horiz-adv-x="1274" 
d="M1234 292q-100 -133 -224 -222.5t-256 -89.5q-69 0 -105.5 34t-36.5 92q0 52 26 110l150 348q50 115 50 152q0 34 -36 34q-46 0 -130 -75t-165.5 -185t-120.5 -204l-116 -286h-310l448 1084h-138l42 108h140l10 24q22 48 22 76q0 19 -21.5 35t-104.5 61l24 58l438 56
l54 -20l-124 -290h264l-42 -108h-268l-212 -496h8q82 103 169.5 187t192.5 144.5t192 60.5q68 0 101 -32.5t33 -89.5t-30 -126l-192 -446q-26 -63 -26 -82q0 -28 28 -28q35 0 93.5 45t124.5 121z" />
    <glyph glyph-name="Itilde" unicode="&#x128;" horiz-adv-x="742" 
d="M1224 1710q-88 -156 -162 -222t-146 -66q-36 0 -72.5 18.5t-62 40.5t-57.5 40.5t-60 18.5q-41 0 -74 -27t-86 -95l-84 42q91 157 165 222.5t145 65.5q36 0 72 -19t61 -41t56.5 -41t58.5 -19q42 0 78 28.5t88 95.5zM550 96l-38 -96h-662l38 96q108 0 141 11t47 47
l410 1012q6 15 6 26q0 18 -31 25t-117 7l40 96h662l-40 -96q-75 0 -111 -5.5t-50.5 -16.5t-24.5 -36l-410 -1012q-8 -20 -8 -26q0 -18 31 -25t117 -7z" />
    <glyph glyph-name="itilde" unicode="&#x129;" horiz-adv-x="708" 
d="M508 1424q34 0 69 -20t59.5 -44t55.5 -44t58 -20q40 0 72.5 30t87.5 102l78 -42q-86 -154 -157 -218t-141 -64q-36 0 -72 19.5t-61 42.5t-56.5 42.5t-58.5 19.5t-53 -18t-43.5 -38.5t-57.5 -71.5l-82 42q88 154 160 218t142 64zM668 960l-280 -674q-26 -63 -26 -82
q0 -28 28 -28q72 0 218 166l48 -50q-98 -130 -227 -221t-261 -91q-68 0 -106 34t-38 92q0 48 28 110l206 478q22 48 22 76q0 19 -20 36.5t-88 59.5l22 58l422 56z" />
    <glyph glyph-name="Imacron" unicode="&#x12a;" horiz-adv-x="742" 
d="M444 1474l64 156h658l-64 -156h-658zM550 96l-38 -96h-662l38 96q108 0 141 11t47 47l410 1012q6 15 6 26q0 18 -31 25t-117 7l40 96h662l-40 -96q-75 0 -111 -5.5t-50.5 -16.5t-24.5 -36l-410 -1012q-8 -20 -8 -26q0 -18 31 -25t117 -7z" />
    <glyph glyph-name="imacron" unicode="&#x12b;" horiz-adv-x="708" 
d="M242 1154l64 156h584l-64 -156h-584zM668 960l-280 -674q-26 -63 -26 -82q0 -28 28 -28q72 0 218 166l48 -50q-98 -130 -227 -221t-261 -91q-68 0 -106 34t-38 92q0 48 28 110l206 478q22 48 22 76q0 19 -20 36.5t-88 59.5l22 58l422 56z" />
    <glyph glyph-name="Ibreve" unicode="&#x12c;" horiz-adv-x="742" 
d="M818 1604q90 0 173 56.5t143 141.5l100 -22q-91 -175 -213 -269.5t-257 -94.5q-137 0 -192 95.5t-6 268.5l96 22q-11 -88 27 -143t129 -55zM550 96l-38 -96h-662l38 96q108 0 141 11t47 47l410 1012q6 15 6 26q0 18 -31 25t-117 7l40 96h662l-40 -96q-75 0 -111 -5.5
t-50.5 -16.5t-24.5 -36l-410 -1012q-8 -20 -8 -26q0 -18 31 -25t117 -7z" />
    <glyph glyph-name="ibreve" unicode="&#x12d;" horiz-adv-x="708" 
d="M608 1262q152 0 292 234l100 -32q-98 -193 -218 -294.5t-246 -101.5q-121 0 -159.5 101t17.5 295l104 32q-47 -234 110 -234zM668 960l-280 -674q-26 -63 -26 -82q0 -28 28 -28q72 0 218 166l48 -50q-98 -130 -227 -221t-261 -91q-68 0 -106 34t-38 92q0 48 28 110
l206 478q22 48 22 76q0 19 -20 36.5t-88 59.5l22 58l422 56z" />
    <glyph glyph-name="Iogonek" unicode="&#x12e;" horiz-adv-x="742" 
d="M342 -280q-160 -164 -308 -164q-71 0 -114.5 35.5t-43.5 96.5q0 80 78 163.5t206 148.5h-310l38 96q108 0 141 11t47 47l410 1012q6 15 6 26q0 18 -31 25t-117 7l40 96h662l-40 -96q-75 0 -111 -5.5t-50.5 -16.5t-24.5 -36l-410 -1012q-8 -20 -8 -26q0 -18 31 -25t117 -7
l-38 -96h-188q-102 -41 -175 -106.5t-73 -127.5q0 -29 19 -44.5t53 -15.5q68 0 156 70z" />
    <glyph glyph-name="iogonek" unicode="&#x12f;" horiz-adv-x="708" 
d="M450 1290q0 76 51.5 127t126.5 51t125.5 -51t50.5 -127t-50.5 -127t-125.5 -51t-126.5 51t-51.5 127zM24 106q0 48 28 110l206 478q22 48 22 76q0 19 -20 36.5t-88 59.5l22 58l422 56l52 -20l-280 -674q-26 -63 -26 -82q0 -28 28 -28q72 0 218 166l48 -50
q-67 -93 -168.5 -173t-223.5 -133q-91 -39 -157.5 -98t-66.5 -120q0 -29 19 -45.5t53 -16.5q68 0 156 70l38 -56q-160 -164 -308 -164q-71 0 -114.5 35.5t-43.5 96.5q0 80 77 160t199 142q-92 29 -92 116z" />
    <glyph glyph-name="Idotaccent" unicode="&#x130;" horiz-adv-x="742" 
d="M628 1600q0 78 51.5 130t128.5 52t128.5 -52t51.5 -130t-51.5 -130t-128.5 -52t-128.5 52t-51.5 130zM550 96l-38 -96h-662l38 96q108 0 141 11t47 47l410 1012q6 15 6 26q0 18 -31 25t-117 7l40 96h662l-40 -96q-75 0 -111 -5.5t-50.5 -16.5t-24.5 -36l-410 -1012
q-8 -20 -8 -26q0 -18 31 -25t117 -7z" />
    <glyph glyph-name="dotlessi" unicode="&#x131;" horiz-adv-x="708" 
d="M668 960l-280 -674q-26 -63 -26 -82q0 -28 28 -28q72 0 218 166l48 -50q-98 -130 -227 -221t-261 -91q-68 0 -106 34t-38 92q0 48 28 110l206 478q22 48 22 76q0 19 -20 36.5t-88 59.5l22 58l422 56z" />
    <glyph glyph-name="Jcircumflex" unicode="&#x134;" horiz-adv-x="698" 
d="M988 1766l124 -298l-62 -52l-226 188l-402 -188l-54 52l404 328q75 56 133 45t83 -75zM798 1166l-442 -1090q-44 -109 -127.5 -207.5t-179.5 -166t-198 -107t-187 -39.5q-89 0 -146.5 45.5t-57.5 112.5q0 64 43.5 104t102.5 40q38 0 66 -17.5t43 -42.5t27.5 -50
t27.5 -42.5t34 -17.5q33 0 62 34t64 120l536 1324q6 15 6 26q0 18 -31.5 25t-118.5 7l40 96h664l-40 -96q-108 0 -141 -11t-47 -47z" />
    <glyph glyph-name="jcircumflex" unicode="&#x135;" horiz-adv-x="614" 
d="M778 1420l92 -304l-70 -48l-176 208l-370 -208l-60 50l370 332q40 36 83.5 46.5t79.5 -9.5t51 -67zM668 960l-368 -896q-58 -141 -148.5 -253.5t-217 -183.5t-264.5 -71q-96 0 -154 38.5t-58 105.5q0 56 36 90t94 34q37 0 64.5 -25.5t41.5 -55.5t36 -55.5t50 -25.5
q19 0 33.5 6.5t33 29t35.5 54t43.5 94t55.5 136.5t73 192l196 520q18 50 18 76q0 19 -20 36.5t-88 59.5l22 58l432 56z" />
    <glyph glyph-name="uni0136" unicode="&#x136;" horiz-adv-x="1478" 
d="M550 96l-38 -96h-662l38 96q108 0 141 11t47 47l410 1012q6 15 6 26q0 18 -31 25t-117 7l40 96h662l-40 -96q-75 0 -111 -5.5t-50.5 -16.5t-24.5 -36l-198 -492l656 462q46 31 46 58q0 12 -11 18t-43 9t-96 3l40 96h552l-40 -96q-96 0 -136.5 -12.5t-97.5 -51.5
l-502 -348l216 -654q7 -21 17.5 -32t46.5 -20.5t100 -9.5l-38 -96h-664l38 92q88 0 120 10t32 40q0 16 -6 40l-128 446l-170 -116l-144 -358q-8 -20 -8 -26q0 -18 31 -25t117 -7zM252 -432q104 6 157 33.5t53 66.5q0 13 -19 21.5t-41 14.5t-41 30t-19 64q0 52 43 89t105 37
q72 0 115 -49.5t43 -110.5q0 -111 -106.5 -193.5t-279.5 -82.5z" />
    <glyph glyph-name="uni0137" unicode="&#x137;" horiz-adv-x="1246" 
d="M1168 272q-96 -134 -225.5 -213t-222.5 -79q-139 0 -156 164l-24 240q-77 -10 -124 -10l-146 -374h-310l502 1216q22 48 22 76q0 19 -21.5 35t-104.5 61l24 58l438 56l54 -20l-326 -768h8q129 122 248 194t236 72q78 0 128 -45t50 -115q0 -114 -120.5 -213t-303.5 -163
l52 -222q9 -36 22.5 -51t35.5 -15q33 0 90 42.5t126 123.5zM844 802q-59 0 -164 -67t-182 -149l-52 -136q112 5 221 47t179 108t70 135q0 62 -72 62zM134 -432q104 6 157 33.5t53 66.5q0 13 -19 21.5t-41 14.5t-41 30t-19 64q0 52 43 89t105 37q72 0 115 -49.5t43 -110.5
q0 -111 -106.5 -193.5t-279.5 -82.5z" />
    <glyph glyph-name="kgreenlandic" unicode="&#x138;" horiz-adv-x="1264" 
d="M1186 272q-98 -135 -227 -213.5t-223 -78.5q-139 0 -156 164l-24 240q-73 -10 -124 -10l-146 -374h-308l286 692q22 57 22 76t-18 35.5t-88 60.5l22 58l420 56l52 -20l-110 -244h8q279 264 484 264q78 0 128 -45t50 -115q0 -78 -60.5 -151.5t-153.5 -128t-210 -94.5
l52 -222q16 -66 58 -66q33 0 90 42.5t126 123.5zM860 800q-59 0 -163 -66t-183 -148l-52 -136q112 5 221 46.5t179 107t70 134.5q0 62 -72 62z" />
    <glyph glyph-name="Lacute" unicode="&#x139;" horiz-adv-x="1282" 
d="M648 1482l238 250q64 72 136 72q57 0 94.5 -42t37.5 -98q0 -42 -27.5 -78t-84.5 -54l-350 -116zM1008 0h-1158l38 96q108 0 141 11t47 47l410 1012q6 15 6 26q0 18 -31 25t-117 7l40 96h662l-40 -96q-75 0 -111 -5.5t-50.5 -16.5t-24.5 -36l-430 -1058h156
q101 0 170.5 14.5t139.5 57.5t135 116.5t149 197.5h110z" />
    <glyph glyph-name="lacute" unicode="&#x13a;" horiz-adv-x="672" 
d="M592 1622l238 250q64 72 136 72q57 0 94.5 -42t37.5 -98q0 -42 -27.5 -78t-84.5 -54l-350 -116zM846 1482l-488 -1196q-26 -63 -26 -82q0 -28 28 -28q72 0 218 166l48 -50q-45 -61 -98 -113.5t-115.5 -98.5t-134 -73t-140.5 -27q-68 0 -105 33.5t-37 92.5q0 49 26 110
l412 1000q22 57 22 76q0 18 -21 33.5t-105 62.5l24 58l438 56z" />
    <glyph glyph-name="uni013B" unicode="&#x13b;" horiz-adv-x="1282" 
d="M1008 0h-1158l38 96q108 0 141 11t47 47l410 1012q6 15 6 26q0 18 -31 25t-117 7l40 96h662l-40 -96q-75 0 -111 -5.5t-50.5 -16.5t-24.5 -36l-430 -1058h156q101 0 170.5 14.5t139.5 57.5t135 116.5t149 197.5h110zM208 -432q104 6 157 33.5t53 66.5q0 13 -19 21.5
t-41 14.5t-41 30t-19 64q0 52 43 89t105 37q72 0 115 -49.5t43 -110.5q0 -111 -106.5 -193.5t-279.5 -82.5z" />
    <glyph glyph-name="uni013C" unicode="&#x13c;" horiz-adv-x="672" 
d="M846 1482l-488 -1196q-26 -63 -26 -82q0 -28 28 -28q72 0 218 166l48 -50q-45 -61 -98 -113.5t-115.5 -98.5t-134 -73t-140.5 -27q-68 0 -105 33.5t-37 92.5q0 49 26 110l412 1000q22 57 22 76q0 18 -21 33.5t-105 62.5l24 58l438 56zM-160 -432q104 6 157 33.5t53 66.5
q0 13 -19 21.5t-41 14.5t-41 30t-19 64q0 52 43 89t105 37q72 0 115 -49.5t43 -110.5q0 -111 -106.5 -193.5t-279.5 -82.5z" />
    <glyph glyph-name="Lcaron" unicode="&#x13d;" horiz-adv-x="1282" 
d="M1000 844l164 380q25 59 64 87.5t80 28.5q47 0 79.5 -33.5t32.5 -82.5q0 -69 -64 -130l-292 -290zM1008 0h-1158l38 96q108 0 141 11t47 47l410 1012q6 15 6 26q0 18 -31 25t-117 7l40 96h662l-40 -96q-75 0 -111 -5.5t-50.5 -16.5t-24.5 -36l-430 -1058h156
q101 0 170.5 14.5t139.5 57.5t135 116.5t149 197.5h110z" />
    <glyph glyph-name="lcaron" unicode="&#x13e;" horiz-adv-x="924" 
d="M846 1482l-488 -1196q-26 -63 -26 -82q0 -28 28 -28q72 0 218 166l48 -50q-45 -61 -98 -113.5t-115.5 -98.5t-134 -73t-140.5 -27q-68 0 -105 33.5t-37 92.5q0 49 26 110l412 1000q22 57 22 76q0 18 -21 33.5t-105 62.5l24 58l438 56zM814 1004l164 380q25 59 64 87.5
t80 28.5q47 0 79.5 -33.5t32.5 -82.5q0 -69 -64 -130l-292 -290z" />
    <glyph glyph-name="Ldot" unicode="&#x13f;" horiz-adv-x="1282" 
d="M1008 0h-1158l38 96q108 0 141 11t47 47l410 1012q6 15 6 26q0 18 -31 25t-117 7l40 96h662l-40 -96q-75 0 -111 -5.5t-50.5 -16.5t-24.5 -36l-430 -1058h156q101 0 170.5 14.5t139.5 57.5t135 116.5t149 197.5h110zM860 774q0 76 50.5 127t125.5 51t125.5 -51t50.5 -127
t-50.5 -127t-125.5 -51t-125.5 51t-50.5 127z" />
    <glyph glyph-name="ldot" unicode="&#x140;" horiz-adv-x="1036" 
d="M846 1482l-488 -1196q-26 -63 -26 -82q0 -28 28 -28q72 0 218 166l48 -50q-45 -61 -98 -113.5t-115.5 -98.5t-134 -73t-140.5 -27q-68 0 -105 33.5t-37 92.5q0 49 26 110l412 1000q22 57 22 76q0 18 -21 33.5t-105 62.5l24 58l438 56zM722 726q0 76 50.5 127t125.5 51
t125.5 -51t50.5 -127t-50.5 -127t-125.5 -51t-125.5 51t-50.5 127z" />
    <glyph glyph-name="Lslash" unicode="&#x141;" horiz-adv-x="1302" 
d="M1270 494l-242 -494h-1158l38 96q75 0 111.5 5.5t51.5 16.5t25 36l132 324l-176 -64l-12 106l240 88l226 558q6 15 6 26q0 18 -31 25t-117 7l40 96h662l-40 -96q-75 0 -111 -5.5t-50.5 -16.5t-24.5 -36l-168 -416l300 110l12 -108l-366 -132l-208 -512h156
q101 0 170.5 14.5t139.5 57.5t135 116.5t149 197.5h110z" />
    <glyph glyph-name="lslash" unicode="&#x142;" horiz-adv-x="804" 
d="M702 292q-45 -61 -98 -113.5t-115.5 -98.5t-134 -73t-140.5 -27q-68 0 -105 33.5t-37 92.5q0 49 26 110l152 370l-216 -94l24 134l256 112l196 478q22 57 22 76q0 18 -21 33.5t-105 62.5l24 58l438 56l54 -20l-248 -606l234 102l-22 -132l-272 -120l-180 -440
q-26 -63 -26 -82q0 -28 28 -28q72 0 218 166z" />
    <glyph glyph-name="Nacute" unicode="&#x143;" horiz-adv-x="1446" 
d="M930 1482l238 250q64 72 136 72q57 0 94.5 -42t37.5 -98q0 -42 -27.5 -78t-84.5 -54l-350 -116zM1544 1166l-474 -1166h-144l-332 1080h-8l-374 -926q-8 -13 -8 -26q0 -18 33.5 -25t132.5 -7l-38 -96h-502l38 96q85 0 126 5.5t56.5 16.5t25.5 36l410 1012q6 15 6 26
q0 18 -34 25t-134 7l40 96h496l252 -864h8l288 710q6 15 6 26q0 18 -33.5 25t-132.5 7l40 96h502l-38 -96q-85 0 -126 -5.5t-56.5 -16.5t-25.5 -36z" />
    <glyph glyph-name="nacute" unicode="&#x144;" horiz-adv-x="1294" 
d="M908 1398q57 100 142 100q52 0 87 -34t35 -84q0 -73 -88 -130l-282 -182l-56 56zM674 960l-166 -370h8q62 76 127 142t137.5 123.5t148 91t141.5 33.5q69 0 102.5 -32.5t33.5 -89.5q0 -52 -32 -126l-192 -446q-26 -63 -26 -82q0 -28 28 -28q35 0 93.5 45t124.5 121
l48 -50q-46 -61 -97 -113.5t-112.5 -99t-131 -73t-137.5 -26.5q-69 0 -106.5 34t-37.5 92q0 52 26 110l150 350q52 123 52 150q0 34 -38 34q-46 0 -130 -75t-165.5 -185t-120.5 -204l-116 -286h-310l288 694q22 57 22 76t-20 36.5t-86 59.5l20 58l422 56z" />
    <glyph glyph-name="uni0145" unicode="&#x145;" horiz-adv-x="1446" 
d="M1544 1166l-474 -1166h-144l-332 1080h-8l-374 -926q-8 -13 -8 -26q0 -18 33.5 -25t132.5 -7l-38 -96h-502l38 96q85 0 126 5.5t56.5 16.5t25.5 36l410 1012q6 15 6 26q0 18 -34 25t-134 7l40 96h496l252 -864h8l288 710q6 15 6 26q0 18 -33.5 25t-132.5 7l40 96h502
l-38 -96q-85 0 -126 -5.5t-56.5 -16.5t-25.5 -36zM298 -432q104 6 157 33.5t53 66.5q0 13 -19 21.5t-41 14.5t-41 30t-19 64q0 52 43 89t105 37q72 0 115 -49.5t43 -110.5q0 -111 -106.5 -193.5t-279.5 -82.5z" />
    <glyph glyph-name="uni0146" unicode="&#x146;" horiz-adv-x="1294" 
d="M674 960l-166 -370h8q62 76 127 142t137.5 123.5t148 91t141.5 33.5q69 0 102.5 -32.5t33.5 -89.5q0 -52 -32 -126l-192 -446q-26 -63 -26 -82q0 -28 28 -28q35 0 93.5 45t124.5 121l48 -50q-46 -61 -97 -113.5t-112.5 -99t-131 -73t-137.5 -26.5q-69 0 -106.5 34
t-37.5 92q0 52 26 110l150 350q52 123 52 150q0 34 -38 34q-46 0 -130 -75t-165.5 -185t-120.5 -204l-116 -286h-310l288 694q22 57 22 76t-20 36.5t-86 59.5l20 58l422 56zM174 -432q104 6 157 33.5t53 66.5q0 13 -19 21.5t-41 14.5t-41 30t-19 64q0 52 43 89t105 37
q72 0 115 -49.5t43 -110.5q0 -111 -106.5 -193.5t-279.5 -82.5z" />
    <glyph glyph-name="Ncaron" unicode="&#x147;" horiz-adv-x="1446" 
d="M962 1464l-124 298l62 52l226 -188l402 188l54 -52l-404 -328q-75 -56 -133 -45t-83 75zM1544 1166l-474 -1166h-144l-332 1080h-8l-374 -926q-8 -13 -8 -26q0 -18 33.5 -25t132.5 -7l-38 -96h-502l38 96q85 0 126 5.5t56.5 16.5t25.5 36l410 1012q6 15 6 26q0 18 -34 25
t-134 7l40 96h496l252 -864h8l288 710q6 15 6 26q0 18 -33.5 25t-132.5 7l40 96h502l-38 -96q-85 0 -126 -5.5t-56.5 -16.5t-25.5 -36z" />
    <glyph glyph-name="ncaron" unicode="&#x148;" horiz-adv-x="1294" 
d="M706 1148l-92 304l70 48l176 -208l370 208l60 -50l-370 -332q-40 -36 -83.5 -46.5t-79.5 9.5t-51 67zM674 960l-166 -370h8q62 76 127 142t137.5 123.5t148 91t141.5 33.5q69 0 102.5 -32.5t33.5 -89.5q0 -52 -32 -126l-192 -446q-26 -63 -26 -82q0 -28 28 -28
q35 0 93.5 45t124.5 121l48 -50q-46 -61 -97 -113.5t-112.5 -99t-131 -73t-137.5 -26.5q-69 0 -106.5 34t-37.5 92q0 52 26 110l150 350q52 123 52 150q0 34 -38 34q-46 0 -130 -75t-165.5 -185t-120.5 -204l-116 -286h-310l288 694q22 57 22 76t-20 36.5t-86 59.5l20 58
l422 56z" />
    <glyph glyph-name="Eng" unicode="&#x14a;" horiz-adv-x="1446" 
d="M1072 2q-24 -61 -42.5 -103t-44.5 -92.5t-50 -84t-57.5 -67.5t-69 -54t-81 -32.5t-97.5 -12.5q-89 0 -150.5 39.5t-61.5 104.5q0 55 35.5 89.5t92.5 34.5q38 0 67.5 -23t44.5 -51t35 -51t41 -23q93 0 200 290l-340 1114h-8l-374 -926q-8 -13 -8 -26q0 -18 33.5 -25
t132.5 -7l-38 -96h-502l38 96q85 0 126 5.5t56.5 16.5t25.5 36l410 1012q6 15 6 26q0 18 -34 25t-134 7l40 96h496l252 -864h8l288 710q6 15 6 26q0 18 -33.5 25t-132.5 7l40 96h502l-38 -96q-85 0 -126 -5.5t-56.5 -16.5t-25.5 -36z" />
    <glyph glyph-name="eng" unicode="&#x14b;" horiz-adv-x="1198" 
d="M878 64q-58 -141 -148.5 -253.5t-217 -183.5t-264.5 -71q-96 0 -154 38.5t-58 105.5q0 55 35.5 89.5t92.5 34.5q38 0 65.5 -25.5t41.5 -55.5t36.5 -55.5t50.5 -25.5q50 0 90.5 75.5t172.5 400.5l15 36l156 390q7 17 17 41.5t14.5 37t10.5 28t8 25.5t2 18q0 34 -38 34
q-45 0 -126.5 -74.5t-160 -183.5t-117.5 -204l-116 -286h-310l288 692q20 43 20 76q0 19 -20 37t-86 59l22 58l422 56l52 -20l-166 -370h8q60 77 123 143.5t134 123.5t145 90t140 33q68 0 102 -33t34 -89q0 -44 -32 -126z" />
    <glyph glyph-name="Omacron" unicode="&#x14c;" horiz-adv-x="1464" 
d="M736 1474l64 156h658l-64 -156h-658zM1004 1340q100 0 191 -33.5t161 -94.5t111 -155.5t41 -208.5q0 -104 -34 -211t-93.5 -202.5t-144 -179.5t-182 -144.5t-212.5 -95.5t-230 -35q-101 0 -192 33.5t-161 94.5t-111.5 155.5t-41.5 208.5q0 156 75 314t196.5 279.5
t288 198t338.5 76.5zM1004 1214q-74 0 -149 -43t-137 -113.5t-116.5 -162t-92.5 -188.5t-59.5 -193t-21.5 -174q0 -234 184 -234q87 0 175.5 60t158.5 157t125 212.5t85 233t30 211.5q0 234 -182 234z" />
    <glyph glyph-name="omacron" unicode="&#x14d;" horiz-adv-x="1128" 
d="M514 1154l64 156h584l-64 -156h-584zM406 -20q-161 0 -260.5 96.5t-99.5 247.5q0 115 51 231.5t139 211t217.5 154t274.5 59.5q160 0 259 -96t99 -248q0 -76 -23 -154.5t-64.5 -151t-103.5 -136.5t-135.5 -111.5t-165 -75t-188.5 -27.5zM702 866q-60 0 -126.5 -71.5
t-116 -173t-82.5 -213t-33 -190.5q0 -62 20.5 -93t67.5 -31q60 0 126.5 71.5t116 173t82.5 213t33 190.5q0 124 -88 124z" />
    <glyph glyph-name="Obreve" unicode="&#x14e;" horiz-adv-x="1464" 
d="M1164 1604q90 0 173 56.5t143 141.5l100 -22q-91 -175 -213 -269.5t-257 -94.5q-137 0 -192 95.5t-6 268.5l96 22q-11 -88 27 -143t129 -55zM1004 1340q100 0 191 -33.5t161 -94.5t111 -155.5t41 -208.5q0 -104 -34 -211t-93.5 -202.5t-144 -179.5t-182 -144.5
t-212.5 -95.5t-230 -35q-101 0 -192 33.5t-161 94.5t-111.5 155.5t-41.5 208.5q0 156 75 314t196.5 279.5t288 198t338.5 76.5zM1004 1214q-74 0 -149 -43t-137 -113.5t-116.5 -162t-92.5 -188.5t-59.5 -193t-21.5 -174q0 -234 184 -234q87 0 175.5 60t158.5 157t125 212.5
t85 233t30 211.5q0 234 -182 234z" />
    <glyph glyph-name="obreve" unicode="&#x14f;" horiz-adv-x="1128" 
d="M830 1262q152 0 292 234l100 -32q-98 -193 -218 -294.5t-246 -101.5q-121 0 -159.5 101t17.5 295l104 32q-47 -234 110 -234zM406 -20q-161 0 -260.5 96.5t-99.5 247.5q0 115 51 231.5t139 211t217.5 154t274.5 59.5q160 0 259 -96t99 -248q0 -76 -23 -154.5t-64.5 -151
t-103.5 -136.5t-135.5 -111.5t-165 -75t-188.5 -27.5zM702 866q-60 0 -126.5 -71.5t-116 -173t-82.5 -213t-33 -190.5q0 -62 20.5 -93t67.5 -31q60 0 126.5 71.5t116 173t82.5 213t33 190.5q0 124 -88 124z" />
    <glyph glyph-name="Ohungarumlaut" unicode="&#x150;" horiz-adv-x="1464" 
d="M918 1694q55 110 144 110q48 0 83 -35t35 -83q0 -77 -90 -134l-232 -138l-60 50zM1316 1694q55 110 144 110q48 0 83 -35t35 -83q0 -77 -92 -134l-232 -138l-58 50zM1004 1340q100 0 191 -33.5t161 -94.5t111 -155.5t41 -208.5q0 -104 -34 -211t-93.5 -202.5t-144 -179.5
t-182 -144.5t-212.5 -95.5t-230 -35q-101 0 -192 33.5t-161 94.5t-111.5 155.5t-41.5 208.5q0 156 75 314t196.5 279.5t288 198t338.5 76.5zM1004 1214q-74 0 -149 -43t-137 -113.5t-116.5 -162t-92.5 -188.5t-59.5 -193t-21.5 -174q0 -234 184 -234q87 0 175.5 60
t158.5 157t125 212.5t85 233t30 211.5q0 234 -182 234z" />
    <glyph glyph-name="ohungarumlaut" unicode="&#x151;" horiz-adv-x="1128" 
d="M652 1394q53 104 146 104q52 0 80 -32.5t28 -81.5q0 -69 -88 -132l-258 -184l-52 56zM1012 1394q56 104 146 104q52 0 80 -32.5t28 -81.5q0 -71 -88 -132l-258 -184l-52 56zM406 -20q-161 0 -260.5 96.5t-99.5 247.5q0 115 51 231.5t139 211t217.5 154t274.5 59.5
q160 0 259 -96t99 -248q0 -76 -23 -154.5t-64.5 -151t-103.5 -136.5t-135.5 -111.5t-165 -75t-188.5 -27.5zM702 866q-60 0 -126.5 -71.5t-116 -173t-82.5 -213t-33 -190.5q0 -62 20.5 -93t67.5 -31q60 0 126.5 71.5t116 173t82.5 213t33 190.5q0 124 -88 124z" />
    <glyph glyph-name="OE" unicode="&#x152;" horiz-adv-x="2066" 
d="M106 478q0 142 57 272.5t160 233t239.5 178.5t302.5 117t343 41h1034l-172 -470h-96q25 181 22 235q-6 89 -68 114q-32 13 -86 13h-268l-196 -484h72q49 0 75.5 1t55 10t42 18.5t35.5 37.5t36.5 54.5t43.5 82.5h94l-208 -516h-86q28 100 28 140q0 42 -32 53t-128 11h-72
l-206 -512h186q102 0 171.5 14.5t140 57.5t135.5 116.5t149 197.5h110l-242 -494h-1076q-281 0 -438.5 132.5t-157.5 345.5zM1242 1212h-86q-134 0 -265 -61.5t-231 -164.5t-162 -249t-62 -305q0 -168 70.5 -246t231.5 -78h56z" />
    <glyph glyph-name="oe" unicode="&#x153;" horiz-adv-x="1658" 
d="M1526 278q-109 -131 -247 -214.5t-275 -83.5q-98 0 -162 45t-86 109q-64 -70 -159 -112t-193 -42q-160 0 -260 96.5t-100 247.5q0 91 32 185.5t93.5 178t143 149.5t188.5 104.5t223 38.5q179 0 270 -160q81 73 194 116.5t236 43.5q124 0 190 -57t66 -139q0 -60 -28 -112
t-79 -90.5t-113.5 -68.5t-141 -51.5t-151.5 -35.5t-153 -24q-12 -51 -12 -98q0 -66 34.5 -104t95.5 -38q80 0 167 47.5t165 132.5zM1360 882q-74 0 -172 -123t-150 -273q175 46 280.5 132t105.5 190q0 74 -64 74zM430 94q60 0 126 71.5t115.5 173t82 213t32.5 190.5
q0 63 -20.5 93.5t-67.5 30.5q-60 0 -126 -71t-115.5 -172t-82 -212.5t-32.5 -190.5q0 -63 20.5 -94.5t67.5 -31.5z" />
    <glyph glyph-name="Racute" unicode="&#x154;" horiz-adv-x="1426" 
d="M904 1482l238 250q64 72 136 72q57 0 94.5 -42t37.5 -98q0 -42 -27.5 -78t-84.5 -54l-350 -116zM550 96l-38 -96h-662l38 96q108 0 141 11t47 47l410 1012q6 15 6 26q0 18 -31 25t-117 7l40 96h696q200 0 307 -68.5t107 -197.5q0 -84 -39.5 -156.5t-108.5 -125
t-155 -89.5t-187 -59l114 -424q16 -58 42.5 -80t77.5 -24l76 -2l-38 -94h-442l-114 544q-6 30 -22 41t-52 11h-58l-178 -442q-8 -13 -8 -26q0 -18 31 -25t117 -7zM632 704h116q77 0 149.5 22t132 64t95 109t35.5 149q0 164 -206 164h-116z" />
    <glyph glyph-name="racute" unicode="&#x155;" horiz-adv-x="974" 
d="M850 1398q57 100 142 100q52 0 87 -34t35 -84q0 -73 -88 -130l-282 -182l-56 56zM672 960l-184 -414h8q167 221 195 255q113 137 192 167q31 12 61 12q69 0 103.5 -42t34.5 -102q0 -69 -52 -124.5t-112 -55.5q-31 0 -55.5 10.5t-36.5 22.5t-27 22.5t-29 10.5
q-52 0 -168.5 -136.5t-203.5 -309.5l-114 -276h-308l288 694q20 52 20 76q0 19 -20 36.5t-86 59.5l22 58l420 56z" />
    <glyph glyph-name="uni0156" unicode="&#x156;" horiz-adv-x="1426" 
d="M550 96l-38 -96h-662l38 96q108 0 141 11t47 47l410 1012q6 15 6 26q0 18 -31 25t-117 7l40 96h696q200 0 307 -68.5t107 -197.5q0 -84 -39.5 -156.5t-108.5 -125t-155 -89.5t-187 -59l114 -424q16 -58 42.5 -80t77.5 -24l76 -2l-38 -94h-442l-114 544q-6 30 -22 41
t-52 11h-58l-178 -442q-8 -13 -8 -26q0 -18 31 -25t117 -7zM632 704h116q77 0 149.5 22t132 64t95 109t35.5 149q0 164 -206 164h-116zM290 -432q104 6 157 33.5t53 66.5q0 13 -19 21.5t-41 14.5t-41 30t-19 64q0 52 43 89t105 37q72 0 115 -49.5t43 -110.5
q0 -111 -106.5 -193.5t-279.5 -82.5z" />
    <glyph glyph-name="uni0157" unicode="&#x157;" horiz-adv-x="974" 
d="M672 960l-184 -414h8q167 221 195 255q113 137 192 167q31 12 61 12q69 0 103.5 -42t34.5 -102q0 -69 -52 -124.5t-112 -55.5q-31 0 -55.5 10.5t-36.5 22.5t-27 22.5t-29 10.5q-52 0 -168.5 -136.5t-203.5 -309.5l-114 -276h-308l288 694q20 52 20 76q0 19 -20 36.5
t-86 59.5l22 58l420 56zM-202 -432q104 6 157 33.5t53 66.5q0 13 -19 21.5t-41 14.5t-41 30t-19 64q0 52 43 89t105 37q72 0 115 -49.5t43 -110.5q0 -111 -106.5 -193.5t-279.5 -82.5z" />
    <glyph glyph-name="Rcaron" unicode="&#x158;" horiz-adv-x="1426" 
d="M906 1464l-124 298l62 52l226 -188l402 188l54 -52l-404 -328q-75 -56 -133 -45t-83 75zM550 96l-38 -96h-662l38 96q108 0 141 11t47 47l410 1012q6 15 6 26q0 18 -31 25t-117 7l40 96h696q200 0 307 -68.5t107 -197.5q0 -84 -39.5 -156.5t-108.5 -125t-155 -89.5
t-187 -59l114 -424q16 -58 42.5 -80t77.5 -24l76 -2l-38 -94h-442l-114 544q-6 30 -22 41t-52 11h-58l-178 -442q-8 -13 -8 -26q0 -18 31 -25t117 -7zM632 704h116q77 0 149.5 22t132 64t95 109t35.5 149q0 164 -206 164h-116z" />
    <glyph glyph-name="rcaron" unicode="&#x159;" horiz-adv-x="974" 
d="M646 1148l-92 304l70 48l176 -208l370 208l60 -50l-370 -332q-40 -36 -83.5 -46.5t-79.5 9.5t-51 67zM672 960l-184 -414h8q167 221 195 255q113 137 192 167q31 12 61 12q69 0 103.5 -42t34.5 -102q0 -69 -52 -124.5t-112 -55.5q-31 0 -55.5 10.5t-36.5 22.5t-27 22.5
t-29 10.5q-52 0 -168.5 -136.5t-203.5 -309.5l-114 -276h-308l288 694q20 52 20 76q0 19 -20 36.5t-86 59.5l22 58l420 56z" />
    <glyph glyph-name="Sacute" unicode="&#x15a;" horiz-adv-x="1194" 
d="M786 1482l238 250q64 72 136 72q57 0 94.5 -42t37.5 -98q0 -42 -27.5 -78t-84.5 -54l-350 -116zM1334 1320l-152 -468h-78q-3 175 -81.5 270.5t-206.5 95.5q-106 0 -169 -57t-63 -143q0 -46 28.5 -84.5t74.5 -67t101.5 -57t111 -60t101.5 -68.5t74.5 -90.5t28.5 -118.5
q0 -132 -82.5 -246t-219 -180t-290.5 -66q-107 0 -206 35t-162 95l-86 -110h-102l138 494h96q1 -86 20.5 -154t51.5 -111.5t76.5 -72t90.5 -40.5t97 -12q119 0 194.5 70t75.5 176q0 48 -27 87.5t-70 67t-95.5 53.5t-105 55t-95.5 63.5t-70 86.5t-27 117q0 89 39.5 173
t108 147.5t167 101.5t209.5 38q83 0 171 -33.5t135 -80.5l102 94h96z" />
    <glyph glyph-name="sacute" unicode="&#x15b;" horiz-adv-x="870" 
d="M770 1398q57 100 142 100q52 0 87 -34t35 -84q0 -73 -88 -130l-282 -182l-56 56zM728 308q0 -86 -61 -161.5t-164.5 -121t-222.5 -45.5q-140 0 -230 58t-90 148q0 53 36.5 93.5t103.5 40.5q46 0 72.5 -26t35.5 -63.5t16 -75t25.5 -63.5t52.5 -26q56 0 94 35.5t38 98.5
q0 39 -23.5 83t-57 85t-67 84t-57 95.5t-23.5 104.5q0 80 54 155.5t151 124t211 48.5q125 0 201.5 -54.5t76.5 -133.5q0 -45 -34.5 -80.5t-91.5 -35.5q-40 0 -66.5 21t-39 51t-23.5 60t-30 51t-49 21q-45 0 -70.5 -29.5t-25.5 -72.5q0 -35 40.5 -94.5t88.5 -115.5t88.5 -129
t40.5 -131z" />
    <glyph glyph-name="Scircumflex" unicode="&#x15c;" horiz-adv-x="1194" 
d="M1188 1766l124 -298l-62 -52l-226 188l-402 -188l-54 52l404 328q75 56 133 45t83 -75zM1334 1320l-152 -468h-78q-3 175 -81.5 270.5t-206.5 95.5q-106 0 -169 -57t-63 -143q0 -46 28.5 -84.5t74.5 -67t101.5 -57t111 -60t101.5 -68.5t74.5 -90.5t28.5 -118.5
q0 -132 -82.5 -246t-219 -180t-290.5 -66q-107 0 -206 35t-162 95l-86 -110h-102l138 494h96q1 -86 20.5 -154t51.5 -111.5t76.5 -72t90.5 -40.5t97 -12q119 0 194.5 70t75.5 176q0 48 -27 87.5t-70 67t-95.5 53.5t-105 55t-95.5 63.5t-70 86.5t-27 117q0 89 39.5 173
t108 147.5t167 101.5t209.5 38q83 0 171 -33.5t135 -80.5l102 94h96z" />
    <glyph glyph-name="scircumflex" unicode="&#x15d;" horiz-adv-x="870" 
d="M926 1420l92 -304l-70 -48l-176 208l-370 -208l-60 50l370 332q40 36 83.5 46.5t79.5 -9.5t51 -67zM728 308q0 -86 -61 -161.5t-164.5 -121t-222.5 -45.5q-140 0 -230 58t-90 148q0 53 36.5 93.5t103.5 40.5q46 0 72.5 -26t35.5 -63.5t16 -75t25.5 -63.5t52.5 -26
q56 0 94 35.5t38 98.5q0 39 -23.5 83t-57 85t-67 84t-57 95.5t-23.5 104.5q0 80 54 155.5t151 124t211 48.5q125 0 201.5 -54.5t76.5 -133.5q0 -45 -34.5 -80.5t-91.5 -35.5q-40 0 -66.5 21t-39 51t-23.5 60t-30 51t-49 21q-45 0 -70.5 -29.5t-25.5 -72.5q0 -35 40.5 -94.5
t88.5 -115.5t88.5 -129t40.5 -131z" />
    <glyph glyph-name="uni015E" unicode="&#x15e;" horiz-adv-x="1194" 
d="M570 -220q0 -79 -73.5 -143.5t-188.5 -88t-256 7.5l40 86q108 -26 191 2.5t83 93.5q0 32 -33 45.5t-105 20.5l142 192q-140 34 -226 114l-86 -110h-102l138 494h96q1 -86 20.5 -154t51.5 -111.5t76.5 -72t90.5 -40.5t97 -12q119 0 194.5 70t75.5 176q0 48 -27 87.5
t-70 67t-95.5 53.5t-105 55t-95.5 63.5t-70 86.5t-27 117q0 89 39.5 173t108 147.5t167 101.5t209.5 38q83 0 171 -33.5t135 -80.5l102 94h96l-152 -468h-78q-3 175 -81.5 270.5t-206.5 95.5q-106 0 -169 -57t-63 -143q0 -46 28.5 -84.5t74.5 -67t101.5 -57t111 -60
t101.5 -68.5t74.5 -90.5t28.5 -118.5q0 -132 -82.5 -246t-219 -180t-290.5 -66q-24 0 -68 4l-44 -66q76 -9 123 -45t47 -93z" />
    <glyph glyph-name="uni015F" unicode="&#x15f;" horiz-adv-x="870" 
d="M394 -220q0 -79 -73.5 -143.5t-188.5 -88t-256 7.5l40 86q108 -26 191 2.5t83 93.5q0 32 -33 45.5t-105 20.5l136 184q-103 18 -165.5 71.5t-62.5 126.5q0 53 36.5 93.5t103.5 40.5q46 0 72.5 -26t35.5 -63.5t16 -75t25.5 -63.5t52.5 -26q56 0 94 35.5t38 98.5
q0 39 -23.5 83t-57 85t-67 84t-57 95.5t-23.5 104.5q0 80 54 155.5t151 124t211 48.5q125 0 201.5 -54.5t76.5 -133.5q0 -45 -34.5 -80.5t-91.5 -35.5q-40 0 -66.5 21t-39 51t-23.5 60t-30 51t-49 21q-45 0 -70.5 -29.5t-25.5 -72.5q0 -35 40.5 -94.5t88.5 -115.5t88.5 -129
t40.5 -131q0 -86 -61 -161.5t-164.5 -121t-222.5 -45.5h-14l-42 -62q76 -9 123 -45t47 -93z" />
    <glyph glyph-name="Scaron" unicode="&#x160;" horiz-adv-x="1194" 
d="M812 1464l-124 298l62 52l226 -188l402 188l54 -52l-404 -328q-75 -56 -133 -45t-83 75zM1334 1320l-152 -468h-78q-3 175 -81.5 270.5t-206.5 95.5q-106 0 -169 -57t-63 -143q0 -46 28.5 -84.5t74.5 -67t101.5 -57t111 -60t101.5 -68.5t74.5 -90.5t28.5 -118.5
q0 -132 -82.5 -246t-219 -180t-290.5 -66q-107 0 -206 35t-162 95l-86 -110h-102l138 494h96q1 -86 20.5 -154t51.5 -111.5t76.5 -72t90.5 -40.5t97 -12q119 0 194.5 70t75.5 176q0 48 -27 87.5t-70 67t-95.5 53.5t-105 55t-95.5 63.5t-70 86.5t-27 117q0 89 39.5 173
t108 147.5t167 101.5t209.5 38q83 0 171 -33.5t135 -80.5l102 94h96z" />
    <glyph glyph-name="scaron" unicode="&#x161;" horiz-adv-x="870" 
d="M584 1148l-92 304l70 48l176 -208l370 208l60 -50l-370 -332q-40 -36 -83.5 -46.5t-79.5 9.5t-51 67zM728 308q0 -86 -61 -161.5t-164.5 -121t-222.5 -45.5q-140 0 -230 58t-90 148q0 53 36.5 93.5t103.5 40.5q46 0 72.5 -26t35.5 -63.5t16 -75t25.5 -63.5t52.5 -26
q56 0 94 35.5t38 98.5q0 39 -23.5 83t-57 85t-67 84t-57 95.5t-23.5 104.5q0 80 54 155.5t151 124t211 48.5q125 0 201.5 -54.5t76.5 -133.5q0 -45 -34.5 -80.5t-91.5 -35.5q-40 0 -66.5 21t-39 51t-23.5 60t-30 51t-49 21q-45 0 -70.5 -29.5t-25.5 -72.5q0 -35 40.5 -94.5
t88.5 -115.5t88.5 -129t40.5 -131z" />
    <glyph glyph-name="Tcommaaccent" unicode="&#x162;" horiz-adv-x="1456" 
d="M690 -220q0 -79 -73.5 -143.5t-188.5 -88t-256 7.5l40 86q108 -26 191 2.5t83 93.5q0 32 -33 45.5t-105 20.5l144 196h-326l38 96h54q98 0 129 11.5t45 46.5l430 1058h-108q-62 0 -107 -14.5t-89 -54.5t-80 -85t-99 -132q-35 -49 -55 -76h-112l208 470h1304l-172 -470
h-98q27 182 23 237q-5 88 -68 112q-33 13 -85 13h-130l-424 -1048q-10 -25 -10 -36q0 -18 28 -25t106 -7h52l-38 -96h-332l-56 -82q76 -9 123 -45t47 -93z" />
    <glyph glyph-name="tcommaaccent" unicode="&#x163;" horiz-adv-x="816" 
d="M354 -220q0 -79 -73.5 -143.5t-188.5 -88t-256 7.5l40 86q108 -26 191 2.5t83 93.5q0 32 -33 45.5t-105 20.5l130 178q-54 7 -84 40t-30 84q0 52 26 110l264 628h-130l46 116h132l104 248l280 74h48l-132 -322h238l-48 -116h-238l-224 -548q-24 -55 -24 -82q0 -28 28 -28
q49 0 133.5 65t156.5 147l54 -56q-57 -75 -134.5 -147.5t-181.5 -134t-198 -76.5l-44 -66q76 -9 123 -45t47 -93z" />
    <glyph glyph-name="Tcaron" unicode="&#x164;" horiz-adv-x="1456" 
d="M984 1464l-124 298l62 52l226 -188l402 188l54 -52l-404 -328q-75 -56 -133 -45t-83 75zM1324 1212h-130l-424 -1048q-10 -25 -10 -36q0 -18 28 -25t106 -7h52l-38 -96h-742l38 96h54q98 0 129 11.5t45 46.5l430 1058h-108q-62 0 -107 -14.5t-89 -54.5t-80 -85t-99 -132
q-35 -49 -55 -76h-112l208 470h1304l-172 -470h-98q27 182 23 237q-5 88 -68 112q-33 13 -85 13z" />
    <glyph glyph-name="tcaron" unicode="&#x165;" horiz-adv-x="816" 
d="M830 1100l164 380q25 59 64 87.5t80 28.5q47 0 79.5 -33.5t32.5 -82.5q0 -69 -64 -130l-292 -290zM742 342q-45 -60 -108 -121t-138.5 -116.5t-161.5 -90t-162 -34.5q-68 0 -106 34t-38 92q0 52 26 110l264 628h-130l46 116h132l104 248l280 74h48l-132 -322h238
l-48 -116h-238l-224 -548q-24 -55 -24 -82q0 -28 28 -28q49 0 133.5 65t156.5 147z" />
    <glyph glyph-name="Tbar" unicode="&#x166;" horiz-adv-x="1456" 
d="M946 96l-38 -96h-742l38 96h54q98 0 129 11.5t45 46.5l186 460h-214l46 116h216l196 482h-108q-62 0 -107 -14.5t-89 -54.5t-80 -85t-99 -132q-35 -49 -55 -76h-112l208 470h1304l-172 -470h-98q27 182 23 237q-5 88 -68 112q-33 13 -85 13h-130l-196 -482h216l-44 -116
h-218l-182 -450q-10 -25 -10 -36q0 -18 28 -25t106 -7h52z" />
    <glyph glyph-name="tbar" unicode="&#x167;" horiz-adv-x="856" 
d="M762 342q-45 -60 -108 -121t-138.5 -116.5t-161.5 -90t-162 -34.5q-68 0 -106 34t-38 92q0 52 26 110l136 322h-130l44 108h130l84 198h-130l46 116h132l104 248l280 74h48l-132 -322h238l-48 -116h-238l-80 -198h236l-44 -108h-236l-100 -242q-24 -55 -24 -82
q0 -28 28 -28q49 0 133.5 65t156.5 147z" />
    <glyph glyph-name="Utilde" unicode="&#x168;" horiz-adv-x="1464" 
d="M1640 1710q-88 -156 -162 -222t-146 -66q-36 0 -72.5 18.5t-62 40.5t-57.5 40.5t-60 18.5q-41 0 -74 -27t-86 -95l-84 42q91 157 165 222.5t145 65.5q36 0 72 -19t61 -41t56.5 -41t58.5 -19q42 0 78 28.5t88 95.5zM1404 1166q6 15 6 26q0 18 -33.5 25t-132.5 7l40 96h502
l-40 -96q-84 0 -125 -5.5t-57 -16.5t-26 -36l-280 -690q-97 -240 -265 -368t-395 -128q-202 0 -322 86.5t-120 243.5q0 93 44 202l264 654q8 20 8 26q0 18 -31.5 25t-118.5 7l40 96h662l-38 -96q-76 0 -112.5 -5.5t-51 -16.5t-24.5 -36l-270 -666q-46 -112 -46 -194
q0 -90 57 -134t163 -44q283 0 432 372z" />
    <glyph glyph-name="utilde" unicode="&#x169;" horiz-adv-x="1288" 
d="M780 1424q34 0 69 -20t59.5 -44t55.5 -44t58 -20q40 0 72.5 30t87.5 102l78 -42q-86 -154 -157 -218t-141 -64q-36 0 -72 19.5t-61 42.5t-56.5 42.5t-58.5 19.5t-53 -18t-43.5 -38.5t-57.5 -71.5l-82 42q88 154 160 218t142 64zM668 960l-254 -586q-52 -124 -52 -152
q0 -34 38 -34q42 0 128.5 80t172 196.5t123.5 209.5l116 286h310l-280 -674q-26 -59 -26 -82q0 -28 28 -28q35 0 93.5 45t124.5 121l48 -50q-97 -129 -228.5 -220.5t-263.5 -91.5q-66 0 -98 31t-32 83q0 75 98 268h-8q-128 -161 -273.5 -271.5t-266.5 -110.5
q-69 0 -104.5 34t-35.5 90q0 54 32 124l200 466q22 48 22 76q0 19 -20 36.5t-88 59.5l22 58l422 56z" />
    <glyph glyph-name="Umacron" unicode="&#x16a;" horiz-adv-x="1464" 
d="M846 1474l64 156h658l-64 -156h-658zM1404 1166q6 15 6 26q0 18 -33.5 25t-132.5 7l40 96h502l-40 -96q-84 0 -125 -5.5t-57 -16.5t-26 -36l-280 -690q-97 -240 -265 -368t-395 -128q-202 0 -322 86.5t-120 243.5q0 93 44 202l264 654q8 20 8 26q0 18 -31.5 25t-118.5 7
l40 96h662l-38 -96q-76 0 -112.5 -5.5t-51 -16.5t-24.5 -36l-270 -666q-46 -112 -46 -194q0 -90 57 -134t163 -44q283 0 432 372z" />
    <glyph glyph-name="umacron" unicode="&#x16b;" horiz-adv-x="1288" 
d="M554 1154l64 156h584l-64 -156h-584zM668 960l-254 -586q-52 -124 -52 -152q0 -34 38 -34q42 0 128.5 80t172 196.5t123.5 209.5l116 286h310l-280 -674q-26 -59 -26 -82q0 -28 28 -28q35 0 93.5 45t124.5 121l48 -50q-97 -129 -228.5 -220.5t-263.5 -91.5q-66 0 -98 31
t-32 83q0 75 98 268h-8q-128 -161 -273.5 -271.5t-266.5 -110.5q-69 0 -104.5 34t-35.5 90q0 54 32 124l200 466q22 48 22 76q0 19 -20 36.5t-88 59.5l22 58l422 56z" />
    <glyph glyph-name="Ubreve" unicode="&#x16c;" horiz-adv-x="1464" 
d="M1230 1604q90 0 173 56.5t143 141.5l100 -22q-91 -175 -213 -269.5t-257 -94.5q-137 0 -192 95.5t-6 268.5l96 22q-11 -88 27 -143t129 -55zM1404 1166q6 15 6 26q0 18 -33.5 25t-132.5 7l40 96h502l-40 -96q-84 0 -125 -5.5t-57 -16.5t-26 -36l-280 -690
q-97 -240 -265 -368t-395 -128q-202 0 -322 86.5t-120 243.5q0 93 44 202l264 654q8 20 8 26q0 18 -31.5 25t-118.5 7l40 96h662l-38 -96q-76 0 -112.5 -5.5t-51 -16.5t-24.5 -36l-270 -666q-46 -112 -46 -194q0 -90 57 -134t163 -44q283 0 432 372z" />
    <glyph glyph-name="ubreve" unicode="&#x16d;" horiz-adv-x="1288" 
d="M882 1262q152 0 292 234l100 -32q-98 -193 -218 -294.5t-246 -101.5q-121 0 -159.5 101t17.5 295l104 32q-47 -234 110 -234zM668 960l-254 -586q-52 -124 -52 -152q0 -34 38 -34q42 0 128.5 80t172 196.5t123.5 209.5l116 286h310l-280 -674q-26 -59 -26 -82
q0 -28 28 -28q35 0 93.5 45t124.5 121l48 -50q-97 -129 -228.5 -220.5t-263.5 -91.5q-66 0 -98 31t-32 83q0 75 98 268h-8q-128 -161 -273.5 -271.5t-266.5 -110.5q-69 0 -104.5 34t-35.5 90q0 54 32 124l200 466q22 48 22 76q0 19 -20 36.5t-88 59.5l22 58l422 56z" />
    <glyph glyph-name="Uring" unicode="&#x16e;" horiz-adv-x="1464" 
d="M1444 1676q0 -115 -85.5 -196.5t-204.5 -81.5q-93 0 -153.5 62.5t-60.5 155.5q0 117 86 198.5t206 81.5q92 0 152 -63t60 -157zM1328 1676q0 47 -29.5 77.5t-76.5 30.5q-73 0 -119.5 -48.5t-46.5 -119.5q0 -47 30 -77.5t78 -30.5q71 0 117.5 49t46.5 119zM1404 1166
q6 15 6 26q0 18 -33.5 25t-132.5 7l40 96h502l-40 -96q-84 0 -125 -5.5t-57 -16.5t-26 -36l-280 -690q-97 -240 -265 -368t-395 -128q-202 0 -322 86.5t-120 243.5q0 93 44 202l264 654q8 20 8 26q0 18 -31.5 25t-118.5 7l40 96h662l-38 -96q-76 0 -112.5 -5.5t-51 -16.5
t-24.5 -36l-270 -666q-46 -112 -46 -194q0 -90 57 -134t163 -44q283 0 432 372z" />
    <glyph glyph-name="uring" unicode="&#x16f;" horiz-adv-x="1288" 
d="M1088 1322q0 -105 -77 -178.5t-187 -73.5q-84 0 -138 57t-54 141q0 106 77 180t187 74q84 0 138 -57.5t54 -142.5zM982 1322q0 43 -26.5 70.5t-69.5 27.5q-65 0 -106.5 -44t-41.5 -108q0 -43 26.5 -70.5t69.5 -27.5q65 0 106.5 44t41.5 108zM668 960l-254 -586
q-52 -124 -52 -152q0 -34 38 -34q42 0 128.5 80t172 196.5t123.5 209.5l116 286h310l-280 -674q-26 -59 -26 -82q0 -28 28 -28q35 0 93.5 45t124.5 121l48 -50q-97 -129 -228.5 -220.5t-263.5 -91.5q-66 0 -98 31t-32 83q0 75 98 268h-8q-128 -161 -273.5 -271.5
t-266.5 -110.5q-69 0 -104.5 34t-35.5 90q0 54 32 124l200 466q22 48 22 76q0 19 -20 36.5t-88 59.5l22 58l422 56z" />
    <glyph glyph-name="Uhungarumlaut" unicode="&#x170;" horiz-adv-x="1464" 
d="M1004 1694q55 110 144 110q48 0 83 -35t35 -83q0 -77 -90 -134l-232 -138l-60 50zM1402 1694q55 110 144 110q48 0 83 -35t35 -83q0 -77 -92 -134l-232 -138l-58 50zM1404 1166q6 15 6 26q0 18 -33.5 25t-132.5 7l40 96h502l-40 -96q-84 0 -125 -5.5t-57 -16.5t-26 -36
l-280 -690q-97 -240 -265 -368t-395 -128q-202 0 -322 86.5t-120 243.5q0 93 44 202l264 654q8 20 8 26q0 18 -31.5 25t-118.5 7l40 96h662l-38 -96q-76 0 -112.5 -5.5t-51 -16.5t-24.5 -36l-270 -666q-46 -112 -46 -194q0 -90 57 -134t163 -44q283 0 432 372z" />
    <glyph glyph-name="uhungarumlaut" unicode="&#x171;" horiz-adv-x="1288" 
d="M726 1394q53 104 146 104q52 0 80 -32.5t28 -81.5q0 -69 -88 -132l-258 -184l-52 56zM1086 1394q56 104 146 104q52 0 80 -32.5t28 -81.5q0 -71 -88 -132l-258 -184l-52 56zM668 960l-254 -586q-52 -124 -52 -152q0 -34 38 -34q42 0 128.5 80t172 196.5t123.5 209.5
l116 286h310l-280 -674q-26 -59 -26 -82q0 -28 28 -28q35 0 93.5 45t124.5 121l48 -50q-97 -129 -228.5 -220.5t-263.5 -91.5q-66 0 -98 31t-32 83q0 75 98 268h-8q-128 -161 -273.5 -271.5t-266.5 -110.5q-69 0 -104.5 34t-35.5 90q0 54 32 124l200 466q22 48 22 76
q0 19 -20 36.5t-88 59.5l22 58l422 56z" />
    <glyph glyph-name="Uogonek" unicode="&#x172;" horiz-adv-x="1464" 
d="M776 -280q-160 -164 -308 -164q-71 0 -114.5 35.5t-43.5 96.5q0 75 67 152t181 140q-186 9 -294 94.5t-108 235.5q0 93 44 202l264 654q8 20 8 26q0 18 -31.5 25t-118.5 7l40 96h662l-38 -96q-76 0 -112.5 -5.5t-51 -16.5t-24.5 -36l-270 -666q-46 -112 -46 -194
q0 -90 57 -134t163 -44q283 0 432 372l270 666q6 15 6 26q0 18 -33.5 25t-132.5 7l40 96h502l-40 -96q-84 0 -125 -5.5t-57 -16.5t-26 -36l-280 -690q-80 -199 -210 -321.5t-302 -158.5q-98 -43 -167 -106.5t-69 -123.5q0 -29 19 -44.5t53 -15.5q68 0 156 70z" />
    <glyph glyph-name="uogonek" unicode="&#x173;" horiz-adv-x="1288" 
d="M1238 292q-67 -93 -168.5 -173t-223.5 -133q-91 -39 -157.5 -98t-66.5 -120q0 -29 19 -45.5t53 -16.5q68 0 156 70l38 -56q-160 -164 -308 -164q-71 0 -114.5 35.5t-43.5 96.5q0 80 77 160t199 142q-82 25 -82 104q0 75 98 268h-8q-128 -161 -273.5 -271.5t-266.5 -110.5
q-69 0 -104.5 34t-35.5 90q0 54 32 124l200 466q22 48 22 76q0 19 -20 36.5t-88 59.5l22 58l422 56l52 -20l-254 -586q-52 -124 -52 -152q0 -34 38 -34q42 0 128.5 80t172 196.5t123.5 209.5l116 286h310l-280 -674q-26 -59 -26 -82q0 -28 28 -28q35 0 93.5 45t124.5 121z
" />
    <glyph glyph-name="Wcircumflex" unicode="&#x174;" horiz-adv-x="1960" 
d="M1686 1766l124 -298l-62 -52l-226 188l-402 -188l-54 52l404 328q75 56 133 45t83 -75zM1130 866l-642 -866h-166l128 1164q3 40 -22.5 50t-117.5 10l38 96h680l-40 -96q-136 0 -171.5 -12t-42.5 -64l-94 -716h8l648 888h168l-114 -888h8l510 710q26 35 26 50
q0 19 -39 25.5t-137 6.5l40 96h500l-40 -96q-93 0 -125.5 -10t-62.5 -50l-862 -1164h-166l96 866h-8z" />
    <glyph glyph-name="wcircumflex" unicode="&#x175;" horiz-adv-x="1572" 
d="M1274 1420l92 -304l-70 -48l-176 208l-370 -208l-60 50l370 332q40 36 83.5 46.5t79.5 -9.5t51 -67zM796 610h-8q-102 -158 -258 -330t-308 -292h-170q63 180 122.5 429.5t59.5 336.5q0 29 -22 48t-98 64l22 58l374 56l54 -20q-28 -181 -73.5 -372t-92.5 -328h8
q249 284 520 700h186q-22 -184 -61 -384.5t-77 -333.5h8q121 86 221 202t129 198q16 40 18 80t-2 64t2 60q11 59 50 96.5t102 37.5q61 0 94.5 -39t33.5 -93q-1 -83 -78.5 -197.5t-203 -231.5t-270.5 -227.5t-294 -203.5h-168q38 101 73.5 219.5t54 190t52.5 212.5z" />
    <glyph glyph-name="Ycircumflex" unicode="&#x176;" horiz-adv-x="1476" 
d="M1404 1766l124 -298l-62 -52l-226 188l-402 -188l-54 52l404 328q75 56 133 45t83 -75zM954 96l-38 -96h-742l38 96h52q99 0 130.5 11.5t45.5 46.5l176 434l-162 576q-8 27 -17.5 37.5t-37.5 16.5t-89 6l38 96h698l-40 -96q-121 0 -163.5 -12t-42.5 -44q0 -6 4 -26
l102 -428h8l488 434q32 32 32 48t-39.5 22t-136.5 6l38 96h518l-40 -96q-86 0 -119 -11.5t-75 -48.5l-618 -542l-186 -458q-10 -25 -10 -36q0 -18 28.5 -25t105.5 -7h54z" />
    <glyph glyph-name="ycircumflex" unicode="&#x177;" horiz-adv-x="1024" 
d="M926 1420l92 -304l-70 -48l-176 208l-370 -208l-60 50l370 332q40 36 83.5 46.5t79.5 -9.5t51 -67zM1026 808q0 -105 -65.5 -242t-174 -274.5t-256.5 -271t-304 -236t-325 -165.5t-313 -63q-74 0 -123 40t-49 102q0 61 40.5 96.5t91.5 35.5q34 0 60 -11t43 -26.5
t33.5 -31t40.5 -26.5t55 -11q171 0 420 166q7 191 6.5 481t-6.5 385q-1 28 -23 47t-97 63l22 58l350 56l54 -20q0 -513 -36 -842h6q137 137 220.5 277.5t83.5 252.5q0 22 -18 84t-18 102q0 58 38.5 102t101.5 44q67 0 104.5 -48t37.5 -124z" />
    <glyph glyph-name="Ydieresis" unicode="&#x178;" horiz-adv-x="1476" 
d="M774 1580q0 72 46.5 120t115.5 48t115.5 -48t46.5 -120q0 -70 -46.5 -116t-115.5 -46t-115.5 46t-46.5 116zM1198 1580q0 72 46.5 120t115.5 48q70 0 116 -48t46 -120q0 -70 -46 -116t-116 -46q-69 0 -115.5 46t-46.5 116zM954 96l-38 -96h-742l38 96h52q99 0 130.5 11.5
t45.5 46.5l176 434l-162 576q-8 27 -17.5 37.5t-37.5 16.5t-89 6l38 96h698l-40 -96q-121 0 -163.5 -12t-42.5 -44q0 -6 4 -26l102 -428h8l488 434q32 32 32 48t-39.5 22t-136.5 6l38 96h518l-40 -96q-86 0 -119 -11.5t-75 -48.5l-618 -542l-186 -458q-10 -25 -10 -36
q0 -18 28.5 -25t105.5 -7h54z" />
    <glyph glyph-name="Zacute" unicode="&#x179;" horiz-adv-x="1396" 
d="M934 1482l238 250q64 72 136 72q57 0 94.5 -42t37.5 -98q0 -42 -27.5 -78t-84.5 -54l-350 -116zM484 1320h1126l-30 -72l-1230 -1140h244q102 0 171.5 14.5t140 57.5t135.5 116.5t149 197.5h110l-242 -494h-1174l30 74l1236 1138h-332q-28 0 -52 -4t-44.5 -8.5t-42 -17.5
t-36.5 -22.5t-37.5 -32.5t-36 -37.5t-39.5 -48t-41 -54t-47.5 -65t-53.5 -72.5h-112z" />
    <glyph glyph-name="zacute" unicode="&#x17a;" horiz-adv-x="1040" 
d="M814 1398q57 100 142 100q52 0 87 -34t35 -84q0 -73 -88 -130l-282 -182l-56 56zM732 698v8h-232q-112 0 -164 -23.5t-110 -108.5h-76l170 386h782l-72 -180l-668 -424q25 -9 67 -25t57.5 -22t43.5 -16t40.5 -13t31.5 -7.5t34 -5.5t32 -1q69 0 130.5 35t119.5 125l64 -32
q-47 -86 -89.5 -150.5t-99 -129t-120.5 -99.5t-131 -35q-51 0 -106.5 20.5t-100 50t-84.5 59t-72.5 50t-50.5 20.5q-24 0 -33 -16.5t-9 -51.5q0 -47 -24 -82.5t-70 -35.5q-36 0 -59 23.5t-23 60.5q0 51 41 92t125 96z" />
    <glyph glyph-name="Zdotaccent" unicode="&#x17b;" horiz-adv-x="1396" 
d="M936 1600q0 78 51.5 130t128.5 52t128.5 -52t51.5 -130t-51.5 -130t-128.5 -52t-128.5 52t-51.5 130zM484 1320h1126l-30 -72l-1230 -1140h244q102 0 171.5 14.5t140 57.5t135.5 116.5t149 197.5h110l-242 -494h-1174l30 74l1236 1138h-332q-28 0 -52 -4t-44.5 -8.5
t-42 -17.5t-36.5 -22.5t-37.5 -32.5t-36 -37.5t-39.5 -48t-41 -54t-47.5 -65t-53.5 -72.5h-112z" />
    <glyph glyph-name="zdotaccent" unicode="&#x17c;" horiz-adv-x="1040" 
d="M656 1290q0 76 50.5 127t125.5 51t125.5 -51t50.5 -127t-50.5 -127t-125.5 -51t-125.5 51t-50.5 127zM732 698v8h-232q-112 0 -164 -23.5t-110 -108.5h-76l170 386h782l-72 -180l-668 -424q25 -9 67 -25t57.5 -22t43.5 -16t40.5 -13t31.5 -7.5t34 -5.5t32 -1
q69 0 130.5 35t119.5 125l64 -32q-47 -86 -89.5 -150.5t-99 -129t-120.5 -99.5t-131 -35q-51 0 -106.5 20.5t-100 50t-84.5 59t-72.5 50t-50.5 20.5q-24 0 -33 -16.5t-9 -51.5q0 -47 -24 -82.5t-70 -35.5q-36 0 -59 23.5t-23 60.5q0 51 41 92t125 96z" />
    <glyph glyph-name="Zcaron" unicode="&#x17d;" horiz-adv-x="1396" 
d="M938 1464l-124 298l62 52l226 -188l402 188l54 -52l-404 -328q-75 -56 -133 -45t-83 75zM484 1320h1126l-30 -72l-1230 -1140h244q102 0 171.5 14.5t140 57.5t135.5 116.5t149 197.5h110l-242 -494h-1174l30 74l1236 1138h-332q-28 0 -52 -4t-44.5 -8.5t-42 -17.5
t-36.5 -22.5t-37.5 -32.5t-36 -37.5t-39.5 -48t-41 -54t-47.5 -65t-53.5 -72.5h-112z" />
    <glyph glyph-name="zcaron" unicode="&#x17e;" horiz-adv-x="1040" 
d="M652 1148l-92 304l70 48l176 -208l370 208l60 -50l-370 -332q-40 -36 -83.5 -46.5t-79.5 9.5t-51 67zM732 698v8h-232q-112 0 -164 -23.5t-110 -108.5h-76l170 386h782l-72 -180l-668 -424q25 -9 67 -25t57.5 -22t43.5 -16t40.5 -13t31.5 -7.5t34 -5.5t32 -1
q69 0 130.5 35t119.5 125l64 -32q-47 -86 -89.5 -150.5t-99 -129t-120.5 -99.5t-131 -35q-51 0 -106.5 20.5t-100 50t-84.5 59t-72.5 50t-50.5 20.5q-24 0 -33 -16.5t-9 -51.5q0 -47 -24 -82.5t-70 -35.5q-36 0 -59 23.5t-23 60.5q0 51 41 92t125 96z" />
    <glyph glyph-name="uni0192" unicode="&#x192;" horiz-adv-x="1132" 
d="M488 66q-46 -105 -110 -195t-143 -161.5t-177 -112.5t-202 -41q-96 0 -154 38.5t-58 105.5q0 55 36.5 89.5t93.5 34.5q37 0 64.5 -25.5t41.5 -55.5t36 -55.5t50 -25.5q39 0 72 34t86 147t132 333l160 438h-204l46 116h200l38 104q79 218 262 362t408 144q102 0 164 -38.5
t62 -103.5q0 -54 -35.5 -89t-92.5 -35q-38 0 -65 25t-39.5 55t-33 55t-48.5 25q-20 0 -37.5 -8.5t-31 -23t-29 -41t-28.5 -54t-32 -70.5l-12 -27l-124 -280h220l-46 -116h-226z" />
    <glyph glyph-name="AEacute" unicode="&#x1fc;" horiz-adv-x="2092" 
d="M1530 1482l238 250q64 72 136 72q57 0 94.5 -42t37.5 -98q0 -42 -27.5 -78t-84.5 -54l-350 -116zM372 96l-40 -96h-518l38 96q88 0 120 11t72 49l1098 1060q-101 8 -234 8l40 96h1320l-172 -470h-98q27 182 23 237q-5 88 -68 112q-33 13 -85 13h-268l-196 -484h70
q49 0 75.5 1t55 10t42 18.5t35.5 37.5t36.5 54.5t43.5 82.5h96l-208 -516h-86q28 100 28 140q0 42 -32 53t-128 11h-72l-206 -512h186q82 0 141 9.5t116 33t109 68t106.5 110.5t121.5 165h112l-244 -494h-1190l38 96q108 0 141 11t47 47l122 302h-444l-296 -284
q-24 -24 -24 -44q0 -15 31.5 -20t144.5 -12zM628 564h376l240 592z" />
    <glyph glyph-name="aeacute" unicode="&#x1fd;" horiz-adv-x="1588" 
d="M1112 1398q57 100 142 100q52 0 87 -34t35 -84q0 -73 -88 -130l-282 -182l-56 56zM1454 278q-105 -129 -257.5 -213.5t-304.5 -84.5q-127 0 -201.5 69.5t-74.5 188.5q-222 -258 -420 -258q-81 0 -131.5 56t-50.5 154q0 123 64.5 264.5t164 257t229 192t248.5 76.5
q90 0 150.5 -41.5t81.5 -102.5q190 144 408 144q119 0 183.5 -57.5t64.5 -138.5q0 -72 -41 -132t-105.5 -100t-155 -71.5t-177.5 -49t-185 -29.5q-12 -51 -12 -98q0 -67 33.5 -104.5t94.5 -37.5q80 0 167 47.5t165 132.5zM1288 882q-73 0 -169.5 -122t-150.5 -272
q174 46 279 131.5t105 188.5q0 74 -64 74zM346 284q0 -86 64 -86q45 0 105 40t111 104q23 107 83 215t147 195q-5 55 -29.5 88.5t-64.5 33.5q-78 0 -177.5 -100.5t-169 -241t-69.5 -248.5z" />
    <glyph glyph-name="Oslashacute" unicode="&#x1fe;" horiz-adv-x="1464" 
d="M950 1482l238 250q64 72 136 72q57 0 94.5 -42t37.5 -98q0 -42 -27.5 -78t-84.5 -54l-350 -116zM612 -20q-202 0 -344 120l-216 -188l-80 84l218 190q-84 123 -84 286q0 156 75 314t196.5 279.5t288 198t338.5 76.5q215 0 356 -132l166 144l80 -84l-172 -150
q74 -119 74 -270q0 -104 -34 -211t-93.5 -202.5t-144 -179.5t-182 -144.5t-212.5 -95.5t-230 -35zM1004 1214q-86 0 -173 -55t-156 -144t-125 -198t-89.5 -221.5t-40.5 -209.5l768 672q-29 156 -184 156zM612 106q104 0 207 79.5t179 200t128 259.5t66 261l-762 -664
q35 -136 182 -136z" />
    <glyph glyph-name="oslashacute" unicode="&#x1ff;" horiz-adv-x="1128" 
d="M826 1398q57 100 142 100q52 0 87 -34t35 -84q0 -73 -88 -130l-282 -182l-56 56zM406 -20q-128 0 -218 62l-182 -172l-80 72l184 176q-64 85 -64 206q0 91 32 185t93.5 177.5t143 149t189.5 104t224 38.5q130 0 218 -64l136 130l82 -70l-140 -134q62 -87 62 -206
q0 -76 -23 -154t-64.5 -150.5t-103.5 -136.5t-135.5 -111t-165 -74.5t-188.5 -27.5zM710 864q-61 0 -124.5 -52.5t-113.5 -133t-88 -173.5t-56 -179l484 460q-18 78 -102 78zM422 94q80 0 162.5 89t138.5 209t81 238l-482 -460q18 -76 100 -76z" />
    <glyph glyph-name="uni0218" unicode="&#x218;" horiz-adv-x="1194" 
d="M1334 1320l-152 -468h-78q-3 175 -81.5 270.5t-206.5 95.5q-106 0 -169 -57t-63 -143q0 -46 28.5 -84.5t74.5 -67t101.5 -57t111 -60t101.5 -68.5t74.5 -90.5t28.5 -118.5q0 -132 -82.5 -246t-219 -180t-290.5 -66q-107 0 -206 35t-162 95l-86 -110h-102l138 494h96
q1 -86 20.5 -154t51.5 -111.5t76.5 -72t90.5 -40.5t97 -12q119 0 194.5 70t75.5 176q0 48 -27 87.5t-70 67t-95.5 53.5t-105 55t-95.5 63.5t-70 86.5t-27 117q0 89 39.5 173t108 147.5t167 101.5t209.5 38q83 0 171 -33.5t135 -80.5l102 94h96zM116 -432q104 6 157 33.5
t53 66.5q0 13 -19 21.5t-41 14.5t-41 30t-19 64q0 52 43 89t105 37q72 0 115 -49.5t43 -110.5q0 -111 -106.5 -193.5t-279.5 -82.5z" />
    <glyph glyph-name="uni0219" unicode="&#x219;" horiz-adv-x="870" 
d="M728 308q0 -86 -61 -161.5t-164.5 -121t-222.5 -45.5q-140 0 -230 58t-90 148q0 53 36.5 93.5t103.5 40.5q46 0 72.5 -26t35.5 -63.5t16 -75t25.5 -63.5t52.5 -26q56 0 94 35.5t38 98.5q0 39 -23.5 83t-57 85t-67 84t-57 95.5t-23.5 104.5q0 80 54 155.5t151 124
t211 48.5q125 0 201.5 -54.5t76.5 -133.5q0 -45 -34.5 -80.5t-91.5 -35.5q-40 0 -66.5 21t-39 51t-23.5 60t-30 51t-49 21q-45 0 -70.5 -29.5t-25.5 -72.5q0 -35 40.5 -94.5t88.5 -115.5t88.5 -129t40.5 -131zM-102 -432q104 6 157 33.5t53 66.5q0 13 -19 21.5t-41 14.5
t-41 30t-19 64q0 52 43 89t105 37q72 0 115 -49.5t43 -110.5q0 -111 -106.5 -193.5t-279.5 -82.5z" />
    <glyph glyph-name="uni021A" unicode="&#x21a;" horiz-adv-x="1456" 
d="M1324 1212h-130l-424 -1048q-10 -25 -10 -36q0 -18 28 -25t106 -7h52l-38 -96h-742l38 96h54q98 0 129 11.5t45 46.5l430 1058h-108q-62 0 -107 -14.5t-89 -54.5t-80 -85t-99 -132q-35 -49 -55 -76h-112l208 470h1304l-172 -470h-98q27 182 23 237q-5 88 -68 112
q-33 13 -85 13zM262 -432q104 6 157 33.5t53 66.5q0 13 -19 21.5t-41 14.5t-41 30t-19 64q0 52 43 89t105 37q72 0 115 -49.5t43 -110.5q0 -111 -106.5 -193.5t-279.5 -82.5z" />
    <glyph glyph-name="uni021B" unicode="&#x21b;" horiz-adv-x="816" 
d="M742 342q-45 -60 -108 -121t-138.5 -116.5t-161.5 -90t-162 -34.5q-68 0 -106 34t-38 92q0 52 26 110l264 628h-130l46 116h132l104 248l280 74h48l-132 -322h238l-48 -116h-238l-224 -548q-24 -55 -24 -82q0 -28 28 -28q49 0 133.5 65t156.5 147zM-112 -432
q104 6 157 33.5t53 66.5q0 13 -19 21.5t-41 14.5t-41 30t-19 64q0 52 43 89t105 37q72 0 115 -49.5t43 -110.5q0 -111 -106.5 -193.5t-279.5 -82.5z" />
    <glyph glyph-name="uni0237" unicode="&#x237;" horiz-adv-x="614" 
d="M668 960l-368 -896q-58 -141 -148.5 -253.5t-217 -183.5t-264.5 -71q-96 0 -154 38.5t-58 105.5q0 56 36 90t94 34q37 0 64.5 -25.5t41.5 -55.5t36 -55.5t50 -25.5q19 0 33.5 6.5t33 29t35.5 54t43.5 94t55.5 136.5t73 192l196 520q18 50 18 76q0 19 -20 36.5t-88 59.5
l22 58l432 56z" />
    <glyph glyph-name="circumflex" unicode="&#x2c6;" horiz-adv-x="1000" 
d="M1008 1420l92 -304l-70 -48l-176 208l-370 -208l-60 50l370 332q40 36 83.5 46.5t79.5 -9.5t51 -67z" />
    <glyph glyph-name="caron" unicode="&#x2c7;" horiz-adv-x="1000" 
d="M650 1148l-92 304l70 48l176 -208l370 208l60 -50l-370 -332q-40 -36 -83.5 -46.5t-79.5 9.5t-51 67z" />
    <glyph glyph-name="breve" unicode="&#x2d8;" horiz-adv-x="1000" 
d="M814 1262q152 0 292 234l100 -32q-98 -193 -218 -294.5t-246 -101.5q-121 0 -159.5 101t17.5 295l104 32q-47 -234 110 -234z" />
    <glyph glyph-name="dotaccent" unicode="&#x2d9;" horiz-adv-x="1000" 
d="M654 1290q0 76 50.5 127t125.5 51t125.5 -51t50.5 -127t-50.5 -127t-125.5 -51t-125.5 51t-50.5 127z" />
    <glyph glyph-name="ring" unicode="&#x2da;" horiz-adv-x="1000" 
d="M1060 1322q0 -105 -77 -178.5t-187 -73.5q-84 0 -138 57t-54 141q0 106 77 180t187 74q84 0 138 -57.5t54 -142.5zM954 1322q0 43 -26.5 70.5t-69.5 27.5q-65 0 -106.5 -44t-41.5 -108q0 -43 26.5 -70.5t69.5 -27.5q65 0 106.5 44t41.5 108z" />
    <glyph glyph-name="ogonek" unicode="&#x2db;" horiz-adv-x="1000" 
d="M376 64l14 -62q-103 -42 -177.5 -107.5t-74.5 -128.5q0 -29 19 -44.5t53 -15.5q68 0 156 70l38 -56q-160 -164 -308 -164q-71 0 -114.5 35.5t-43.5 96.5q0 104 125 208.5t313 167.5z" />
    <glyph glyph-name="tilde" unicode="&#x2dc;" horiz-adv-x="1000" 
d="M730 1424q34 0 69 -20t59.5 -44t55.5 -44t58 -20q40 0 72.5 30t87.5 102l78 -42q-86 -154 -157 -218t-141 -64q-36 0 -72 19.5t-61 42.5t-56.5 42.5t-58.5 19.5t-53 -18t-43.5 -38.5t-57.5 -71.5l-82 42q88 154 160 218t142 64z" />
    <glyph glyph-name="hungarumlaut" unicode="&#x2dd;" horiz-adv-x="1000" 
d="M578 1394q53 104 146 104q52 0 80 -32.5t28 -81.5q0 -69 -88 -132l-258 -184l-52 56zM938 1394q56 104 146 104q52 0 80 -32.5t28 -81.5q0 -71 -88 -132l-258 -184l-52 56z" />
    <glyph glyph-name="Wgrave" unicode="&#x1e80;" horiz-adv-x="1960" 
d="M1288 1732l238 -250l-44 -66l-350 116q-57 18 -84.5 54t-27.5 78q0 56 37.5 98t94.5 42q72 0 136 -72zM1130 866l-642 -866h-166l128 1164q3 40 -22.5 50t-117.5 10l38 96h680l-40 -96q-136 0 -171.5 -12t-42.5 -64l-94 -716h8l648 888h168l-114 -888h8l510 710
q26 35 26 50q0 19 -39 25.5t-137 6.5l40 96h500l-40 -96q-93 0 -125.5 -10t-62.5 -50l-862 -1164h-166l96 866h-8z" />
    <glyph glyph-name="wgrave" unicode="&#x1e81;" horiz-adv-x="1572" 
d="M1016 1380l78 -280l-66 -42l-226 202q-78 69 -51 147q20 54 77 80q71 30 128 -12q41 -30 60 -95zM796 610h-8q-102 -158 -258 -330t-308 -292h-170q63 180 122.5 429.5t59.5 336.5q0 29 -22 48t-98 64l22 58l374 56l54 -20q-28 -181 -73.5 -372t-92.5 -328h8
q249 284 520 700h186q-22 -184 -61 -384.5t-77 -333.5h8q121 86 221 202t129 198q16 40 18 80t-2 64t2 60q11 59 50 96.5t102 37.5q61 0 94.5 -39t33.5 -93q-1 -83 -78.5 -197.5t-203 -231.5t-270.5 -227.5t-294 -203.5h-168q38 101 73.5 219.5t54 190t52.5 212.5z" />
    <glyph glyph-name="Wacute" unicode="&#x1e82;" horiz-adv-x="1960" 
d="M1322 1482l238 250q64 72 136 72q57 0 94.5 -42t37.5 -98q0 -42 -27.5 -78t-84.5 -54l-350 -116zM1130 866l-642 -866h-166l128 1164q3 40 -22.5 50t-117.5 10l38 96h680l-40 -96q-136 0 -171.5 -12t-42.5 -64l-94 -716h8l648 888h168l-114 -888h8l510 710q26 35 26 50
q0 19 -39 25.5t-137 6.5l40 96h500l-40 -96q-93 0 -125.5 -10t-62.5 -50l-862 -1164h-166l96 866h-8z" />
    <glyph glyph-name="wacute" unicode="&#x1e83;" horiz-adv-x="1572" 
d="M1104 1398q57 100 142 100q52 0 87 -34t35 -84q0 -73 -88 -130l-282 -182l-56 56zM796 610h-8q-102 -158 -258 -330t-308 -292h-170q63 180 122.5 429.5t59.5 336.5q0 29 -22 48t-98 64l22 58l374 56l54 -20q-28 -181 -73.5 -372t-92.5 -328h8q249 284 520 700h186
q-22 -184 -61 -384.5t-77 -333.5h8q121 86 221 202t129 198q16 40 18 80t-2 64t2 60q11 59 50 96.5t102 37.5q61 0 94.5 -39t33.5 -93q-1 -83 -78.5 -197.5t-203 -231.5t-270.5 -227.5t-294 -203.5h-168q38 101 73.5 219.5t54 190t52.5 212.5z" />
    <glyph glyph-name="Wdieresis" unicode="&#x1e84;" horiz-adv-x="1960" 
d="M1092 1580q0 72 46.5 120t115.5 48t115.5 -48t46.5 -120q0 -70 -46.5 -116t-115.5 -46t-115.5 46t-46.5 116zM1516 1580q0 72 46.5 120t115.5 48q70 0 116 -48t46 -120q0 -70 -46 -116t-116 -46q-69 0 -115.5 46t-46.5 116zM1130 866l-642 -866h-166l128 1164
q3 40 -22.5 50t-117.5 10l38 96h680l-40 -96q-136 0 -171.5 -12t-42.5 -64l-94 -716h8l648 888h168l-114 -888h8l510 710q26 35 26 50q0 19 -39 25.5t-137 6.5l40 96h500l-40 -96q-93 0 -125.5 -10t-62.5 -50l-862 -1164h-166l96 866h-8z" />
    <glyph glyph-name="wdieresis" unicode="&#x1e85;" horiz-adv-x="1572" 
d="M714 1250q0 71 46.5 119.5t115.5 48.5t114.5 -48.5t45.5 -119.5t-45.5 -117.5t-114.5 -46.5t-115.5 47t-46.5 117zM1120 1250q0 71 45.5 119.5t114.5 48.5t115.5 -48.5t46.5 -119.5q0 -70 -46.5 -117t-115.5 -47t-114.5 46.5t-45.5 117.5zM796 610h-8
q-102 -158 -258 -330t-308 -292h-170q63 180 122.5 429.5t59.5 336.5q0 29 -22 48t-98 64l22 58l374 56l54 -20q-28 -181 -73.5 -372t-92.5 -328h8q249 284 520 700h186q-22 -184 -61 -384.5t-77 -333.5h8q121 86 221 202t129 198q16 40 18 80t-2 64t2 60q11 59 50 96.5
t102 37.5q61 0 94.5 -39t33.5 -93q-1 -83 -78.5 -197.5t-203 -231.5t-270.5 -227.5t-294 -203.5h-168q38 101 73.5 219.5t54 190t52.5 212.5z" />
    <glyph glyph-name="Ygrave" unicode="&#x1ef2;" horiz-adv-x="1476" 
d="M1080 1732l238 -250l-44 -66l-350 116q-57 18 -84.5 54t-27.5 78q0 56 37.5 98t94.5 42q72 0 136 -72zM954 96l-38 -96h-742l38 96h52q99 0 130.5 11.5t45.5 46.5l176 434l-162 576q-8 27 -17.5 37.5t-37.5 16.5t-89 6l38 96h698l-40 -96q-121 0 -163.5 -12t-42.5 -44
q0 -6 4 -26l102 -428h8l488 434q32 32 32 48t-39.5 22t-136.5 6l38 96h518l-40 -96q-86 0 -119 -11.5t-75 -48.5l-618 -542l-186 -458q-10 -25 -10 -36q0 -18 28.5 -25t105.5 -7h54z" />
    <glyph glyph-name="ygrave" unicode="&#x1ef3;" horiz-adv-x="1024" 
d="M704 1380l78 -280l-66 -42l-226 202q-78 69 -51 147q20 54 77 80q71 30 128 -12q41 -30 60 -95zM1026 808q0 -105 -65.5 -242t-174 -274.5t-256.5 -271t-304 -236t-325 -165.5t-313 -63q-74 0 -123 40t-49 102q0 61 40.5 96.5t91.5 35.5q34 0 60 -11t43 -26.5t33.5 -31
t40.5 -26.5t55 -11q171 0 420 166q7 191 6.5 481t-6.5 385q-1 28 -23 47t-97 63l22 58l350 56l54 -20q0 -513 -36 -842h6q137 137 220.5 277.5t83.5 252.5q0 22 -18 84t-18 102q0 58 38.5 102t101.5 44q67 0 104.5 -48t37.5 -124z" />
    <glyph glyph-name="endash" unicode="&#x2013;" horiz-adv-x="1228" 
d="M1112 470h-994l60 152h994z" />
    <glyph glyph-name="emdash" unicode="&#x2014;" horiz-adv-x="2236" 
d="M2118 470h-2000l60 152h2002z" />
    <glyph glyph-name="quoteleft" unicode="&#x2018;" horiz-adv-x="650" 
d="M860 1396q-139 -30 -208.5 -86t-69.5 -118q0 -26 25.5 -46t55.5 -33t55.5 -44t25.5 -77q0 -77 -57.5 -131.5t-134.5 -54.5q-89 0 -142.5 60.5t-53.5 151.5q0 173 133.5 308.5t360.5 173.5z" />
    <glyph glyph-name="quoteright" unicode="&#x2019;" horiz-adv-x="650" 
d="M320 910q139 30 208.5 86t69.5 118q0 26 -25.5 46t-55.5 33t-55.5 44t-25.5 77q0 77 57.5 131.5t134.5 54.5q89 0 142.5 -60.5t53.5 -151.5q0 -173 -133.5 -308.5t-360.5 -173.5z" />
    <glyph glyph-name="quotesinglbase" unicode="&#x201a;" horiz-adv-x="650" 
d="M-124 -242q139 30 208.5 86t69.5 118q0 26 -25.5 46t-55.5 33t-55.5 44t-25.5 77q0 77 57.5 131.5t134.5 54.5q89 0 142.5 -60.5t53.5 -151.5q0 -173 -133.5 -308.5t-360.5 -173.5z" />
    <glyph glyph-name="quotedblleft" unicode="&#x201c;" horiz-adv-x="1190" 
d="M1400 1394q-139 -30 -208.5 -86t-69.5 -118q0 -26 25.5 -46t55.5 -33t55.5 -44t25.5 -77q0 -77 -57.5 -131.5t-134.5 -54.5q-89 0 -142.5 60.5t-53.5 151.5q0 173 133.5 308.5t360.5 173.5zM858 1394q-139 -30 -208.5 -86t-69.5 -118q0 -26 25.5 -46t55.5 -33t55.5 -44
t25.5 -77q0 -77 -57.5 -131.5t-134.5 -54.5q-89 0 -142.5 60.5t-53.5 151.5q0 173 133.5 308.5t360.5 173.5z" />
    <glyph glyph-name="quotedblright" unicode="&#x201d;" horiz-adv-x="1192" 
d="M862 910q139 30 208.5 86t69.5 118q0 26 -25.5 46t-55.5 33t-55.5 44t-25.5 77q0 77 57.5 131.5t134.5 54.5q89 0 142.5 -60.5t53.5 -151.5q0 -173 -133.5 -308.5t-360.5 -173.5zM320 910q139 30 208.5 86t69.5 118q0 26 -25.5 46t-55.5 33t-55.5 44t-25.5 77
q0 77 57.5 131.5t134.5 54.5q89 0 142.5 -60.5t53.5 -151.5q0 -173 -133.5 -308.5t-360.5 -173.5z" />
    <glyph glyph-name="quotedblbase" unicode="&#x201e;" horiz-adv-x="1192" 
d="M418 -242q139 30 208.5 86t69.5 118q0 26 -25.5 46t-55.5 33t-55.5 44t-25.5 77q0 77 57.5 131.5t134.5 54.5q89 0 142.5 -60.5t53.5 -151.5q0 -173 -133.5 -308.5t-360.5 -173.5zM-124 -242q139 30 208.5 86t69.5 118q0 26 -25.5 46t-55.5 33t-55.5 44t-25.5 77
q0 77 57.5 131.5t134.5 54.5q89 0 142.5 -60.5t53.5 -151.5q0 -173 -133.5 -308.5t-360.5 -173.5z" />
    <glyph glyph-name="dagger" unicode="&#x2020;" horiz-adv-x="906" 
d="M1032 1088h-254l-200 -492h-150l200 492h-256l56 142h256l102 250h150l-102 -250h256z" />
    <glyph glyph-name="daggerdbl" unicode="&#x2021;" horiz-adv-x="906" 
d="M918 808h-260l-86 -212h-140l86 212h-260l54 136h260l78 192h-260l56 132h258l86 212h140l-86 -212h264l-56 -132h-262l-78 -192h262z" />
    <glyph glyph-name="bullet" unicode="&#x2022;" horiz-adv-x="1032" 
d="M546 176q-153 0 -261.5 109t-108.5 261q0 154 108.5 263t261.5 109t262.5 -109t109.5 -263q0 -152 -109.5 -261t-262.5 -109z" />
    <glyph glyph-name="ellipsis" unicode="&#x2026;" horiz-adv-x="1772" 
d="M410 176q0 -81 -58.5 -138.5t-141.5 -57.5q-82 0 -140 57.5t-58 138.5t58 138.5t140 57.5q83 0 141.5 -57.5t58.5 -138.5zM966 176q0 -81 -58.5 -138.5t-141.5 -57.5q-82 0 -140 57.5t-58 138.5t58 138.5t140 57.5q83 0 141.5 -57.5t58.5 -138.5zM1522 176
q0 -81 -58.5 -138.5t-141.5 -57.5q-82 0 -140 57.5t-58 138.5t58 138.5t140 57.5q83 0 141.5 -57.5t58.5 -138.5z" />
    <glyph glyph-name="perthousand" unicode="&#x2030;" horiz-adv-x="2704" 
d="M726 1340q115 0 188.5 -69.5t73.5 -196.5q0 -80 -38 -158.5t-101 -139.5t-152.5 -98.5t-186.5 -37.5q-115 0 -188.5 69.5t-73.5 196.5q0 107 63.5 207t175 163.5t239.5 63.5zM408 0h-176l1402 1320h176zM524 722q53 0 111.5 81.5t94.5 186t36 176.5q0 92 -54 92
q-53 0 -111.5 -81.5t-94.5 -186t-36 -176.5q0 -92 54 -92zM2130 -20q-113 0 -186.5 69.5t-73.5 196.5q0 80 38 158.5t101 139.5t152.5 98.5t186.5 37.5q113 0 186.5 -69.5t73.5 -196.5q0 -80 -38 -158.5t-101 -139.5t-152.5 -98.5t-186.5 -37.5zM1316 -20
q-115 0 -188.5 69.5t-73.5 196.5q0 107 63.5 207t175 163.5t239.5 63.5q115 0 188.5 -69.5t73.5 -196.5q0 -107 -63.5 -207t-175 -163.5t-239.5 -63.5zM2334 598q-53 0 -112 -81.5t-95.5 -185.5t-36.5 -175q0 -94 54 -94t112.5 81.5t95 186t36.5 176.5q0 92 -54 92z
M1518 598q-53 0 -111.5 -81.5t-94.5 -185.5t-36 -175q0 -94 54 -94q53 0 111.5 81.5t94.5 186t36 176.5q0 92 -54 92z" />
    <glyph glyph-name="guilsinglleft" unicode="&#x2039;" horiz-adv-x="690" 
d="M90 468l8 20l520 398h144l-372 -424l48 -394h-112z" />
    <glyph glyph-name="guilsinglright" unicode="&#x203a;" horiz-adv-x="690" 
d="M608 486l-8 -20l-520 -398h-144l372 424l-48 394h112z" />
    <glyph glyph-name="fraction" unicode="&#x2044;" horiz-adv-x="404" 
d="M-334 0h-176l1402 1320h176z" />
    <glyph glyph-name="uni2070" unicode="&#x2070;" horiz-adv-x="992" 
d="M286 830q0 91 42 181.5t110.5 161t165 114t198.5 43.5q119 0 197.5 -78t78.5 -222q0 -91 -41.5 -181.5t-110 -161t-165 -114t-199.5 -43.5q-118 0 -197 79t-79 221zM854 1134q0 104 -60 104t-128.5 -95t-112 -215.5t-43.5 -201.5q0 -104 60 -104q61 0 129.5 95
t111.5 215.5t43 201.5z" />
    <glyph glyph-name="uni2074" unicode="&#x2074;" horiz-adv-x="910" 
d="M796 544h-442l28 70q69 0 90 5.5t28 24.5l58 136h-350l34 84l576 456h186l-184 -452h156l-34 -88h-154l-52 -126q-6 -16 -6 -22q0 -12 18.5 -15t75.5 -3zM368 868h220l102 248h-6l-316 -244v-4z" />
    <glyph glyph-name="uni2075" unicode="&#x2075;" horiz-adv-x="778" 
d="M428 608q68 0 116 38.5t48 103.5q0 132 -242 132l-12 12l216 424h394l-80 -190h-338l-32 -62q135 -6 217.5 -59.5t82.5 -146.5q0 -90 -59.5 -167t-155 -120t-201.5 -43q-85 0 -141.5 32.5t-56.5 91.5q0 36 24 60t62 24q29 0 50.5 -20.5t32.5 -44.5t30.5 -44.5t44.5 -20.5
z" />
    <glyph glyph-name="uni2076" unicode="&#x2076;" horiz-adv-x="898" 
d="M928 844q0 -132 -118 -223t-284 -91q-118 0 -193 69t-75 175q0 145 105 267t277.5 196.5t379.5 92.5l-4 -76q-147 -21 -265 -98t-191 -186q86 48 182 48q88 0 137 -51.5t49 -122.5zM474 708q0 -52 15 -75t47 -23q58 0 110 73t52 159q0 43 -25 65.5t-63 22.5
q-35 0 -84 -20q-52 -104 -52 -202z" />
    <glyph glyph-name="uni2077" unicode="&#x2077;" horiz-adv-x="776" 
d="M560 1116q-71 0 -99 -18t-91 -106h-78l148 328h594l-28 -70l-542 -706h-218l12 26l538 546h-236z" />
    <glyph glyph-name="uni2078" unicode="&#x2078;" horiz-adv-x="874" 
d="M894 810q0 -110 -115 -195t-267 -85q-124 0 -212 54.5t-88 137.5q0 74 68 127t166 69q-76 62 -76 140q0 102 96.5 187t245.5 85q104 0 179 -49t75 -129q0 -65 -56 -110t-134 -56q118 -74 118 -176zM580 1156q0 -13 4 -25t14.5 -23.5t18.5 -20t27 -21t28 -18t33.5 -19.5
t32.5 -19q31 27 52.5 65.5t21.5 74.5q0 53 -30.5 81.5t-85.5 28.5q-49 0 -82.5 -30t-33.5 -74zM392 742q0 -66 37.5 -103t92.5 -37q61 0 103.5 35.5t42.5 96.5q0 20 -10.5 37.5t-32 34t-41.5 28.5t-52.5 30t-51.5 30q-39 -27 -63.5 -69.5t-24.5 -82.5z" />
    <glyph glyph-name="uni2079" unicode="&#x2079;" horiz-adv-x="898" 
d="M1012 1086q0 -145 -105 -267t-277.5 -196.5t-379.5 -92.5l4 76q147 21 265 98t191 186q-86 -48 -182 -48q-88 0 -137 51.5t-49 122.5q0 132 118 223t284 91q118 0 193 -69t75 -175zM572 1018q0 -43 25 -65.5t63 -22.5q35 0 84 20q52 104 52 202q0 52 -15 75t-47 23
q-58 0 -110 -73t-52 -159z" />
    <glyph glyph-name="uni2080" unicode="&#x2080;" horiz-adv-x="992" 
d="M-48 6q0 91 42 181.5t110.5 161t165 114t198.5 43.5q119 0 197.5 -78t78.5 -222q0 -91 -41.5 -181.5t-110 -161t-165 -114t-199.5 -43.5q-118 0 -197 79t-79 221zM520 310q0 104 -60 104t-128.5 -95t-112 -215.5t-43.5 -201.5q0 -104 60 -104q61 0 129.5 95t111.5 215.5
t43 201.5z" />
    <glyph glyph-name="uni2081" unicode="&#x2081;" horiz-adv-x="722" 
d="M364 -194l-34 -86h-526l34 86h40q70 0 91.5 5.5t30.5 26.5l176 438h-142l36 90q96 0 197 38.5t157 103.5h90l-266 -660q-8 -19 -8 -24q0 -12 19.5 -15t76.5 -3h28z" />
    <glyph glyph-name="uni2082" unicode="&#x2082;" horiz-adv-x="768" 
d="M52 238l-46 42q176 226 384 226q85 0 132.5 -38.5t47.5 -105.5q0 -42 -16.5 -82t-52 -79t-71.5 -71t-97 -71t-104 -64.5t-115 -66.5v-4h174q44 0 73.5 16.5t80.5 73.5l56 -14l-168 -280h-556l28 70q300 205 415 305.5t115 160.5q0 78 -92 78q-101 0 -188 -96z" />
    <glyph glyph-name="uni2083" unicode="&#x2083;" horiz-adv-x="782" 
d="M560 388q0 -138 -246 -210q67 -9 120.5 -46.5t53.5 -99.5q0 -72 -46.5 -135.5t-117 -104t-148.5 -63.5t-146 -23q-91 0 -147.5 31.5t-56.5 90.5q0 37 26.5 60.5t67.5 23.5q29 0 49.5 -20t30 -44t27 -44t41.5 -20q58 0 118 60t60 138q0 50 -42 74t-110 24l6 48
q89 36 141.5 81t52.5 93q0 25 -15.5 39.5t-44.5 14.5q-53 0 -134 -68l-42 48q63 82 154 126t180 44q80 0 124 -33.5t44 -84.5z" />
    <glyph glyph-name="uni2084" unicode="&#x2084;" horiz-adv-x="910" 
d="M462 -280h-442l28 70q69 0 90 5.5t28 24.5l58 136h-350l34 84l576 456h186l-184 -452h156l-34 -88h-154l-52 -126q-6 -16 -6 -22q0 -12 18.5 -15t75.5 -3zM34 44h220l102 248h-6l-316 -244v-4z" />
    <glyph glyph-name="uni2085" unicode="&#x2085;" horiz-adv-x="778" 
d="M94 -216q68 0 116 38.5t48 103.5q0 132 -242 132l-12 12l216 424h394l-80 -190h-338l-32 -62q135 -6 217.5 -59.5t82.5 -146.5q0 -90 -59.5 -167t-155 -120t-201.5 -43q-85 0 -141.5 32.5t-56.5 91.5q0 36 24 60t62 24q29 0 50.5 -20.5t32.5 -44.5t30.5 -44.5t44.5 -20.5
z" />
    <glyph glyph-name="uni2086" unicode="&#x2086;" horiz-adv-x="898" 
d="M594 20q0 -132 -118 -223t-284 -91q-118 0 -193 69t-75 175q0 145 105 267t277.5 196.5t379.5 92.5l-4 -76q-147 -21 -265 -98t-191 -186q86 48 182 48q88 0 137 -51.5t49 -122.5zM140 -116q0 -52 15 -75t47 -23q58 0 110 73t52 159q0 43 -25 65.5t-63 22.5
q-35 0 -84 -20q-52 -104 -52 -202z" />
    <glyph glyph-name="uni2087" unicode="&#x2087;" horiz-adv-x="776" 
d="M226 292q-71 0 -99 -18t-91 -106h-78l148 328h594l-28 -70l-542 -706h-218l12 26l538 546h-236z" />
    <glyph glyph-name="uni2088" unicode="&#x2088;" horiz-adv-x="874" 
d="M560 -14q0 -110 -115 -195t-267 -85q-124 0 -212 54.5t-88 137.5q0 74 68 127t166 69q-76 62 -76 140q0 102 96.5 187t245.5 85q104 0 179 -49t75 -129q0 -65 -56 -110t-134 -56q118 -74 118 -176zM246 332q0 -13 4 -25t14.5 -23.5t18.5 -20t27 -21t28 -18t33.5 -19.5
t32.5 -19q31 27 52.5 65.5t21.5 74.5q0 53 -30.5 81.5t-85.5 28.5q-49 0 -82.5 -30t-33.5 -74zM58 -82q0 -66 37.5 -103t92.5 -37q61 0 103.5 35.5t42.5 96.5q0 20 -10.5 37.5t-32 34t-41.5 28.5t-52.5 30t-51.5 30q-39 -27 -63.5 -69.5t-24.5 -82.5z" />
    <glyph glyph-name="uni2089" unicode="&#x2089;" horiz-adv-x="898" 
d="M678 262q0 -145 -105 -267t-277.5 -196.5t-379.5 -92.5l4 76q147 21 265 98t191 186q-86 -48 -182 -48q-88 0 -137 51.5t-49 122.5q0 132 118 223t284 91q118 0 193 -69t75 -175zM238 194q0 -43 25 -65.5t63 -22.5q35 0 84 20q52 104 52 202q0 52 -15 75t-47 23
q-58 0 -110 -73t-52 -159z" />
    <glyph glyph-name="Euro" unicode="&#x20ac;" horiz-adv-x="1246" 
d="M1162 262q-108 -135 -236 -208.5t-290 -73.5q-191 0 -302.5 112t-111.5 318q0 45 6 90h-174l46 112h148q24 84 52 144h-142l44 110h154q124 209 325.5 341.5t432.5 132.5q149 0 221.5 -58t72.5 -136q0 -62 -39.5 -97t-96.5 -35q-41 0 -68 21.5t-41 52t-26.5 61t-34 52
t-54.5 21.5q-100 0 -207.5 -100t-188.5 -256h368l-74 -110h-344q-30 -80 -46 -144h296l-74 -112h-242q-6 -45 -6 -90q0 -134 55 -195.5t159 -58.5q180 6 340 184z" />
    <glyph glyph-name="trademark" unicode="&#x2122;" horiz-adv-x="1816" 
d="M724 658h-400l26 66q64 0 83 5t25 21l204 506h-38q-51 0 -95.5 -40t-108.5 -134h-52l104 238h630l-86 -238h-50q14 88 1 131t-65 43h-36l-204 -506q-7 -16 9 -21q17 -5 79 -5zM2072 1320l-26 -64q-53 0 -68.5 -4.5t-23.5 -21.5l-192 -480q-2 -8 -2.5 -13t7.5 -8t22.5 -4
t42.5 -1l-26 -66h-358l26 66q54 0 70 4.5t22 21.5l174 432h-8l-418 -530h-34l18 530h-8l-174 -432q-2 -8 -2.5 -13t8.5 -8t24 -4t46 -1l-26 -66h-250l26 66q56 0 73 4.5t23 21.5l194 480q2 6 2.5 9.5t-2 7t-7 5t-14.5 2.5t-22.5 1.5t-32.5 0.5l26 64h302l-18 -362h8l282 362
h316z" />
    <glyph glyph-name="uni2153" unicode="&#x2153;" horiz-adv-x="1908" 
d="M698 630l-34 -86h-526l34 86h40q70 0 91.5 5.5t30.5 26.5l176 438h-142l36 90q96 0 197 38.5t157 103.5h90l-266 -660q-8 -19 -8 -24q0 -12 19.5 -15t76.5 -3h28zM430 0h-176l1402 1320h176zM1800 668q0 -138 -246 -210q67 -9 120.5 -46.5t53.5 -99.5q0 -72 -46.5 -135.5
t-117 -104t-148.5 -63.5t-146 -23q-91 0 -147.5 31.5t-56.5 90.5q0 37 26.5 60.5t67.5 23.5q29 0 49.5 -20t30 -44t27 -44t41.5 -20q58 0 118 60t60 138q0 50 -42 74t-110 24l6 48q89 36 141.5 81t52.5 93q0 25 -15.5 39.5t-44.5 14.5q-53 0 -134 -68l-42 48q63 82 154 126
t180 44q80 0 124 -33.5t44 -84.5z" />
    <glyph glyph-name="uni2154" unicode="&#x2154;" horiz-adv-x="1906" 
d="M386 1062l-46 42q176 226 384 226q85 0 132.5 -38.5t47.5 -105.5q0 -42 -16.5 -82t-52 -79t-71.5 -71t-97 -71t-104 -64.5t-115 -66.5v-4h174q44 0 73.5 16.5t80.5 73.5l56 -14l-168 -280h-556l28 70q300 205 415 305.5t115 160.5q0 78 -92 78q-101 0 -188 -96zM428 0
h-176l1402 1320h176zM1798 668q0 -138 -246 -210q67 -9 120.5 -46.5t53.5 -99.5q0 -72 -46.5 -135.5t-117 -104t-148.5 -63.5t-146 -23q-91 0 -147.5 31.5t-56.5 90.5q0 37 26.5 60.5t67.5 23.5q29 0 49.5 -20t30 -44t27 -44t41.5 -20q58 0 118 60t60 138q0 50 -42 74
t-110 24l6 48q89 36 141.5 81t52.5 93q0 25 -15.5 39.5t-44.5 14.5q-53 0 -134 -68l-42 48q63 82 154 126t180 44q80 0 124 -33.5t44 -84.5z" />
    <glyph glyph-name="uni215B" unicode="&#x215b;" horiz-adv-x="2018" 
d="M698 630l-34 -86h-526l34 86h40q70 0 91.5 5.5t30.5 26.5l176 438h-142l36 90q96 0 197 38.5t157 103.5h90l-266 -660q-8 -19 -8 -24q0 -12 19.5 -15t76.5 -3h28zM430 0h-176l1402 1320h176zM1818 266q0 -110 -115 -195t-267 -85q-124 0 -212 54.5t-88 137.5q0 74 68 127
t166 69q-76 62 -76 140q0 102 96.5 187t245.5 85q104 0 179 -49t75 -129q0 -65 -56 -110t-134 -56q118 -74 118 -176zM1504 612q0 -13 4 -25t14.5 -23.5t18.5 -20t27 -21t28 -18t33.5 -19.5t32.5 -19q31 27 52.5 65.5t21.5 74.5q0 53 -30.5 81.5t-85.5 28.5q-49 0 -82.5 -30
t-33.5 -74zM1316 198q0 -66 37.5 -103t92.5 -37q61 0 103.5 35.5t42.5 96.5q0 20 -10.5 37.5t-32 34t-41.5 28.5t-52.5 30t-51.5 30q-39 -27 -63.5 -69.5t-24.5 -82.5z" />
    <glyph glyph-name="uni215C" unicode="&#x215c;" horiz-adv-x="1974" 
d="M894 1212q0 -138 -246 -210q67 -9 120.5 -46.5t53.5 -99.5q0 -72 -46.5 -135.5t-117 -104t-148.5 -63.5t-146 -23q-91 0 -147.5 31.5t-56.5 90.5q0 37 26.5 60.5t67.5 23.5q29 0 49.5 -20t30 -44t27 -44t41.5 -20q58 0 118 60t60 138q0 50 -42 74t-110 24l6 48
q89 36 141.5 81t52.5 93q0 25 -15.5 39.5t-44.5 14.5q-53 0 -134 -68l-42 48q63 82 154 126t180 44q80 0 124 -33.5t44 -84.5zM386 0h-176l1402 1320h176zM1774 266q0 -110 -115 -195t-267 -85q-124 0 -212 54.5t-88 137.5q0 74 68 127t166 69q-76 62 -76 140
q0 102 96.5 187t245.5 85q104 0 179 -49t75 -129q0 -65 -56 -110t-134 -56q118 -74 118 -176zM1460 612q0 -13 4 -25t14.5 -23.5t18.5 -20t27 -21t28 -18t33.5 -19.5t32.5 -19q31 27 52.5 65.5t21.5 74.5q0 53 -30.5 81.5t-85.5 28.5q-49 0 -82.5 -30t-33.5 -74zM1272 198
q0 -66 37.5 -103t92.5 -37q61 0 103.5 35.5t42.5 96.5q0 20 -10.5 37.5t-32 34t-41.5 28.5t-52.5 30t-51.5 30q-39 -27 -63.5 -69.5t-24.5 -82.5z" />
    <glyph glyph-name="uni215D" unicode="&#x215d;" horiz-adv-x="1946" 
d="M358 0h-176l1402 1320h176zM428 608q68 0 116 38.5t48 103.5q0 132 -242 132l-12 12l216 424h394l-80 -190h-338l-32 -62q135 -6 217.5 -59.5t82.5 -146.5q0 -90 -59.5 -167t-155 -120t-201.5 -43q-85 0 -141.5 32.5t-56.5 91.5q0 36 24 60t62 24q29 0 50.5 -20.5
t32.5 -44.5t30.5 -44.5t44.5 -20.5zM1746 266q0 -110 -115 -195t-267 -85q-124 0 -212 54.5t-88 137.5q0 74 68 127t166 69q-76 62 -76 140q0 102 96.5 187t245.5 85q104 0 179 -49t75 -129q0 -65 -56 -110t-134 -56q118 -74 118 -176zM1432 612q0 -13 4 -25t14.5 -23.5
t18.5 -20t27 -21t28 -18t33.5 -19.5t32.5 -19q31 27 52.5 65.5t21.5 74.5q0 53 -30.5 81.5t-85.5 28.5q-49 0 -82.5 -30t-33.5 -74zM1244 198q0 -66 37.5 -103t92.5 -37q61 0 103.5 35.5t42.5 96.5q0 20 -10.5 37.5t-32 34t-41.5 28.5t-52.5 30t-51.5 30
q-39 -27 -63.5 -69.5t-24.5 -82.5z" />
    <glyph glyph-name="uni215E" unicode="&#x215e;" horiz-adv-x="1916" 
d="M328 0h-176l1402 1320h176zM560 1116q-71 0 -99 -18t-91 -106h-78l148 328h594l-28 -70l-542 -706h-218l12 26l538 546h-236zM1716 266q0 -110 -115 -195t-267 -85q-124 0 -212 54.5t-88 137.5q0 74 68 127t166 69q-76 62 -76 140q0 102 96.5 187t245.5 85q104 0 179 -49
t75 -129q0 -65 -56 -110t-134 -56q118 -74 118 -176zM1402 612q0 -13 4 -25t14.5 -23.5t18.5 -20t27 -21t28 -18t33.5 -19.5t32.5 -19q31 27 52.5 65.5t21.5 74.5q0 53 -30.5 81.5t-85.5 28.5q-49 0 -82.5 -30t-33.5 -74zM1214 198q0 -66 37.5 -103t92.5 -37
q61 0 103.5 35.5t42.5 96.5q0 20 -10.5 37.5t-32 34t-41.5 28.5t-52.5 30t-51.5 30q-39 -27 -63.5 -69.5t-24.5 -82.5z" />
    <glyph glyph-name="minus" unicode="&#x2212;" 
d="M92 544l56 140h996l-56 -140h-996z" />
    <glyph glyph-name="i.dot" horiz-adv-x="708" 
d="M450 1290q0 76 51.5 127t126.5 51t125.5 -51t50.5 -127t-50.5 -127t-125.5 -51t-126.5 51t-51.5 127zM668 960l-280 -674q-26 -63 -26 -82q0 -28 28 -28q72 0 218 166l48 -50q-98 -130 -227 -221t-261 -91q-68 0 -106 34t-38 92q0 48 28 110l206 478q22 48 22 76
q0 19 -20 36.5t-88 59.5l22 58l422 56z" />
    <glyph glyph-name="a.ord" horiz-adv-x="1042" 
d="M750 886h-6q-97 -129 -189 -204.5t-183 -75.5q-62 0 -100 41.5t-38 116.5q0 120 78 257.5t202.5 233t243.5 95.5q54 0 92.5 -27t51.5 -67l52 74h226l-202 -498q-10 -40 -10 -44q0 -20 18 -20q49 0 164 126l36 -40q-74 -101 -178.5 -174.5t-215.5 -73.5q-56 0 -84 25.5
t-28 66.5q0 55 70 188zM564 790q38 0 110.5 83.5t130 183t57.5 143.5q0 64 -56 64q-53 0 -121.5 -72.5t-116.5 -172t-48 -171.5q0 -58 44 -58z" />
    <glyph glyph-name="b.ord" horiz-adv-x="940" 
d="M264 902l254 612q1 4 6 16.5t7.5 21.5t2.5 18q0 3 -0.5 5.5t-2.5 5.5t-4 5.5t-6.5 6t-8.5 6t-11 7.5t-13.5 9t-17.5 11.5t-20 13.5l18 44l346 48l42 -16l-278 -656h6q41 53 82.5 98t95 91.5t111.5 73.5t111 27q66 0 103 -40.5t37 -119.5q0 -56 -23.5 -121t-65 -130
t-102 -125t-130.5 -106.5t-156 -74t-173 -27.5q-114 0 -173 53t-59 139q0 54 22 104zM794 1172q-40 0 -124.5 -84.5t-153 -189t-68.5 -156.5q0 -26 16 -42t38 -16q59 0 138 73.5t135.5 175t56.5 175.5q0 64 -38 64z" />
    <glyph glyph-name="c.ord" horiz-adv-x="750" 
d="M716 1254q-40 0 -90.5 -65.5t-86 -161t-35.5 -173.5q0 -45 22 -70.5t64 -25.5q95 0 216 150l50 -48q-187 -254 -412 -254q-97 0 -153.5 53t-56.5 139q0 69 27.5 146t78.5 148.5t117 129.5t151.5 93t173.5 35q80 0 127 -39t47 -95q0 -44 -29.5 -77t-72.5 -33
q-32 0 -52.5 15t-29.5 37t-15.5 44t-16 37t-24.5 15z" />
    <glyph glyph-name="d.ord" horiz-adv-x="1028" 
d="M786 606q-56 0 -84 25t-28 65q0 49 74 188h-6q-35 -48 -74.5 -91.5t-90 -88.5t-108 -71.5t-111.5 -26.5q-62 0 -101 45t-39 119q0 89 48 193t122 189t170.5 141.5t185.5 56.5q92 0 150 -70l98 234q1 4 6 16.5t7.5 21.5t2.5 18q0 3 -0.5 5.5t-2.5 5.5t-4 5.5t-6.5 6
t-8.5 6t-11 7.5t-13.5 9t-17.5 11.5t-20 13.5l20 44l344 48l42 -16l-356 -884q-14 -37 -14 -44q0 -20 20 -20q50 0 162 126l36 -40q-74 -101 -178 -174.5t-214 -73.5zM554 790q41 0 114.5 83t129.5 183t56 146q0 28 -14 45t-40 17q-63 0 -134.5 -72t-117.5 -169.5
t-46 -170.5q0 -30 15.5 -46t36.5 -16z" />
    <glyph glyph-name="e.ord" horiz-adv-x="802" 
d="M888 834q-84 -100 -203.5 -164t-238.5 -64q-100 0 -156 52.5t-56 143.5q0 70 28 146.5t81 147.5t121.5 128t157 91.5t180.5 34.5q100 0 152 -47.5t52 -110.5q0 -50 -30.5 -91t-76 -67.5t-115.5 -48t-130.5 -33t-139.5 -22.5q-10 -47 -10 -76q0 -46 23 -72t67 -26
q59 0 123.5 32.5t122.5 95.5zM754 1274q-46 0 -112 -83.5t-106 -188.5q121 40 190.5 97.5t69.5 122.5q0 22 -11 37t-31 15z" />
    <glyph glyph-name="f.ord" horiz-adv-x="560" 
d="M486 678q-67 -164 -198.5 -275t-289.5 -111q-77 0 -123.5 30t-46.5 84q0 45 29.5 72.5t74.5 27.5q25 0 43 -14t28.5 -34t20.5 -40t23.5 -34t32.5 -14q25 0 45.5 26.5t55.5 112.5t97 269l156 464h-82l38 92h76l4 14q55 162 195.5 272t316.5 110q79 0 128.5 -29.5
t49.5 -82.5q0 -43 -28 -71.5t-74 -28.5q-32 0 -52.5 21t-28 46t-21 46t-32.5 21q-7 0 -13.5 -1.5t-12 -6t-10.5 -9.5t-10.5 -14t-9.5 -16.5t-10 -22t-10.5 -25t-12 -29t-13.5 -32.5l-66 -162h130l-34 -92h-134z" />
    <glyph glyph-name="g.ord" horiz-adv-x="854" 
d="M872 612q0 -84 -69.5 -158t-186.5 -118t-250 -44q-162 0 -253 54.5t-91 131.5q0 76 67.5 117t192.5 65q-40 34 -40 88q0 56 46 99.5t124 66.5q-61 24 -94.5 66.5t-33.5 93.5q0 107 111.5 191.5t286.5 84.5q131 0 204 -66q92 96 178 96q44 0 70 -22.5t26 -65.5
q0 -40 -31 -73t-67 -33q-24 0 -42 11.5t-26 25.5t-17 25.5t-19 11.5q-14 0 -38 -14q22 -38 22 -80q0 -108 -109.5 -191t-284.5 -83q-40 0 -76 6q-60 -13 -60 -42q0 -16 35.5 -28t160.5 -40q145 -35 184 -53q68 -31 78 -94q2 -13 2 -29zM668 1266q-55 0 -103.5 -70.5
t-48.5 -141.5q0 -80 46 -80q55 0 103.5 70.5t48.5 141.5q0 34 -11 57t-35 23zM206 514q0 -56 57 -93t145 -37q105 0 164.5 35t59.5 87q0 28 -32.5 44.5t-117.5 33.5q-109 24 -162 52q-114 -40 -114 -122z" />
    <glyph glyph-name="h.ord" horiz-adv-x="1020" 
d="M896 1716l-276 -650h6q57 74 115.5 133t135 105t143.5 46q54 0 79 -26t25 -70q0 -42 -20 -88l-140 -334q-12 -32 -12 -44q0 -20 20 -20q47 0 162 126l36 -40q-187 -248 -382 -248q-56 0 -85 27t-29 73t16 78l104 248q32 70 32 98q0 22 -24 22q-47 0 -135 -108t-133 -220
l-84 -204h-262l370 894q1 4 6 16.5t7.5 21.5t2.5 18q0 3 -0.5 5.5t-2.5 5.5t-4 5.5t-6.5 6t-8.5 6t-11 7.5t-13.5 9t-17.5 11.5t-20 13.5l20 44l346 48z" />
    <glyph glyph-name="i.ord" horiz-adv-x="596" 
d="M554 1572q0 62 42 104t102 42q62 0 103 -41.5t41 -104.5q0 -62 -41 -103t-103 -41q-60 0 -102 41.5t-42 102.5zM740 1334l-204 -504q-14 -32 -14 -42q0 -20 20 -20q50 0 162 126l36 -40q-75 -102 -177.5 -175t-214.5 -73q-54 0 -84 27t-30 73t16 78l152 350q16 32 16 54
q0 13 -12.5 26t-51.5 44l18 46l326 46z" />
    <glyph glyph-name="j.ord" horiz-adv-x="510" 
d="M528 1572q0 63 40.5 104.5t101.5 41.5q62 0 103 -41.5t41 -104.5q0 -62 -41 -103t-103 -41q-61 0 -101.5 41t-40.5 103zM734 1334l-266 -658q-65 -163 -197.5 -273.5t-290.5 -110.5q-77 0 -123.5 29.5t-46.5 82.5q0 46 29.5 74t76.5 28q24 0 42 -14t28.5 -34t20.5 -40
t23.5 -34t31.5 -14q33 0 62.5 61.5t135.5 344.5l128 358q14 42 14 54q0 3 -0.5 6t-2.5 6t-4 5.5t-5.5 6.5t-6.5 7t-9 8t-10 9t-12 10.5t-14 11.5l16 46l340 46z" />
    <glyph glyph-name="k.ord" horiz-adv-x="1004" 
d="M1126 830q-73 -103 -174.5 -163.5t-175.5 -60.5q-56 0 -86.5 29.5t-37.5 96.5l-18 168q-56 -4 -76 -4l-108 -276h-262l370 894q1 4 6 16.5t7.5 21.5t2.5 18q0 3 -0.5 5.5t-2.5 5.5t-4 5.5t-6.5 6t-8.5 6t-11 7.5t-13.5 9t-17.5 11.5t-20 13.5l20 44l346 48l40 -16
l-238 -568h4q210 202 366 202q58 0 95 -34t37 -88q0 -82 -87 -154.5t-219 -119.5l40 -156q13 -48 42 -48q52 0 152 118zM862 1202q-41 0 -114 -47t-128 -105l-38 -96q75 4 149.5 34.5t123.5 78.5t49 97q0 38 -42 38z" />
    <glyph glyph-name="l.ord" horiz-adv-x="568" 
d="M870 1716l-356 -884q-14 -32 -14 -44q0 -20 20 -20q49 0 164 126l34 -40q-75 -101 -178 -174.5t-214 -73.5q-55 0 -85.5 26.5t-30.5 73.5q0 39 18 78l302 730q18 40 18 56q0 3 -0.5 5.5t-2.5 5.5t-4 5.5t-6.5 6t-8.5 6t-11 7.5t-13.5 9t-17.5 11.5t-20 13.5l18 44l344 48
z" />
    <glyph glyph-name="m.ord" horiz-adv-x="1436" 
d="M1052 1066h6q206 284 378 284q104 0 104 -96q0 -42 -20 -88l-142 -334q-10 -33 -10 -44q0 -20 20 -20q47 0 162 126l36 -40q-187 -248 -384 -248q-56 0 -86 27t-30 73q0 38 20 78l104 248q34 88 34 102q0 18 -20 18q-42 0 -129 -108t-133 -220l-82 -204h-262l174 412
q30 75 30 102q0 18 -18 18q-42 0 -129 -108t-133 -220l-82 -204h-264l212 514q16 43 16 54q0 13 -12 26t-50 44l18 46l330 46l42 -16l-122 -268h4q92 124 191.5 204t192.5 80q48 0 71 -25t23 -67q0 -50 -60 -192z" />
    <glyph glyph-name="n.ord" horiz-adv-x="1030" 
d="M752 1334l-122 -268h4q57 74 116 133t136 105t144 46q53 0 77.5 -26t24.5 -70q0 -35 -20 -88l-140 -334q-12 -30 -12 -44q0 -20 20 -20q50 0 162 126l36 -40q-183 -248 -382 -248q-56 0 -85 27t-29 73q0 40 16 78l106 246q30 72 30 100q0 22 -24 22q-46 0 -133.5 -107.5
t-134.5 -220.5l-82 -204h-264l212 514q16 43 16 54q0 13 -12 26t-50 44l18 46l330 46z" />
    <glyph glyph-name="o.ord" horiz-adv-x="924" 
d="M540 606q-127 0 -205.5 72.5t-78.5 187.5q0 86 39 172t106.5 155.5t170 113t218.5 43.5q128 0 206 -72.5t78 -187.5q0 -87 -39 -173.5t-106.5 -155.5t-170 -112t-218.5 -43zM568 696q54 0 115 91t99 204.5t38 186.5q0 78 -56 78q-54 0 -115.5 -90.5t-100 -203.5
t-38.5 -184q0 -42 13 -62t45 -20z" />
    <glyph glyph-name="p.ord" horiz-adv-x="990" 
d="M104 406l304 728q16 43 16 54q0 13 -12 26t-50 44l18 46l330 46l42 -16l-126 -274h6q41 52 84 98t96.5 92t111 73t108.5 27q66 0 103 -40t37 -118q0 -84 -50.5 -186.5t-130 -191t-190 -148.5t-217.5 -60q-82 0 -120 50l-102 -250q-2 -11 -3.5 -18t11.5 -10.5t31 -4.5
t55 -1l-26 -66h-438l26 66q47 0 62 6t24 28zM842 1172q-41 0 -123.5 -87t-148.5 -194.5t-66 -160.5q0 -26 15 -42t35 -16q58 0 136 77t134 181.5t56 179.5q0 62 -38 62z" />
    <glyph glyph-name="q.ord" horiz-adv-x="984" 
d="M922 1256l62 74h232l-418 -924q-9 -22 1 -28t55 -6l-26 -66h-440l26 66q68 0 89.5 6t30.5 28l232 478h-4q-37 -49 -76 -92t-90 -88t-108 -71.5t-110 -26.5q-63 0 -102.5 45t-39.5 119q0 90 48 193.5t122.5 188.5t171 141.5t186.5 56.5q109 0 158 -94zM572 790
q41 0 115 83t130.5 183t56.5 146q0 28 -14 45t-42 17q-63 0 -134.5 -72t-117.5 -169.5t-46 -170.5q0 -30 15 -46t37 -16z" />
    <glyph glyph-name="r.ord" horiz-adv-x="810" 
d="M752 1334l-134 -298h6q137 180 179 224q78 83 145 89q7 1 14 1q56 0 84 -34t28 -82q0 -52 -42.5 -95t-87.5 -43q-32 0 -56 14t-39.5 28t-26.5 14q-38 0 -130 -101.5t-146 -224.5l-86 -206h-264l212 514q16 43 16 54q0 13 -12 26t-50 44l18 46l330 46z" />
    <glyph glyph-name="s.ord" horiz-adv-x="722" 
d="M802 852q0 -96 -107.5 -171t-246.5 -75q-112 0 -182 43.5t-70 116.5q0 43 30 75.5t86 32.5q38 0 59 -21t27 -51t9.5 -60t14 -51t32.5 -21q38 0 66 25t28 71q0 27 -18 59t-44 62t-52 62t-44 70.5t-18 76.5q0 94 99.5 174t236.5 80q97 0 157.5 -39.5t60.5 -100.5
q0 -38 -28 -66t-74 -28q-40 0 -64 24.5t-31 53.5t-22 53.5t-41 24.5q-30 0 -49 -21t-19 -51q0 -23 32 -66t70 -86t70 -98t32 -98z" />
    <glyph glyph-name="t.ord" horiz-adv-x="676" 
d="M806 888q-78 -103 -203.5 -192.5t-244.5 -89.5q-57 0 -87.5 27t-30.5 73q0 42 18 78l192 458h-90l38 92h92l76 182l240 66h40l-102 -248h176l-36 -92h-178l-164 -402q-10 -30 -10 -44q0 -22 20 -22q69 0 212 156z" />
    <glyph glyph-name="u.ord" horiz-adv-x="1032" 
d="M742 1334l-188 -434q-32 -70 -32 -98q0 -20 26 -20q42 0 140.5 119.5t143.5 230.5l80 202h266l-208 -502q-12 -24 -12 -44t20 -20q50 0 162 126l36 -40q-74 -101 -178.5 -174.5t-215.5 -73.5q-106 0 -106 92q0 56 64 180h-6q-221 -272 -392 -272q-52 0 -79 26t-27 68
q0 38 20 88l146 346q18 36 18 54q0 3 -0.5 6t-1.5 5.5t-3 5.5t-4 5.5t-6 6t-6.5 6t-8.5 7.5t-9.5 8t-11.5 9.5t-13 10.5l16 46l326 46z" />
    <glyph glyph-name="v.ord" horiz-adv-x="836" 
d="M662 1334q-63 -362 -116 -526h6q89 62 167.5 143.5t100.5 138.5q13 31 15.5 61t0 48t2.5 45q10 47 40.5 76.5t81.5 29.5q48 0 75 -32t27 -72q0 -81 -104.5 -199.5t-252 -228t-315.5 -206.5h-140q50 134 92 314t42 248q0 21 -14 36t-60 48l18 46l290 46z" />
    <glyph glyph-name="w.ord" horiz-adv-x="1240" 
d="M808 1056h-6q-73 -113 -182 -231.5t-226 -212.5h-144q50 134 92 314t42 248q0 21 -14 36t-60 48l18 46l290 46l44 -16q-54 -316 -116 -498h6q184 228 368 498h154q-36 -294 -90 -512h6q80 58 145 131.5t91 132.5q18 34 14.5 90.5t-0.5 69.5q11 46 42 75t80 29t76.5 -31.5
t25.5 -72.5q1 -61 -59 -145.5t-159.5 -172t-206.5 -166.5t-219 -150h-144q10 27 19.5 53t17 46.5t16 47t13 42t12.5 43.5t11 39.5t11 43t10 40t11 44.5t11 45z" />
    <glyph glyph-name="x.ord" horiz-adv-x="936" 
d="M476 752q-108 -148 -212 -148q-50 0 -80 31t-30 79q0 46 31 82t77 36q24 0 40 -10.5t22 -23.5t13.5 -23.5t16.5 -10.5q45 0 102 72l80 100l-46 232q-5 30 -21.5 42.5t-77.5 38.5l-21 9l18 46l298 46l42 -16l36 -212l50 70q54 80 99 119t99 39q50 0 82 -32.5t32 -79.5
t-31 -82.5t-79 -35.5q-24 0 -40 10.5t-20.5 22.5t-11 22.5t-14.5 10.5q-17 0 -33.5 -14.5t-56.5 -59.5l-62 -70l42 -244q8 -48 40 -48q23 0 66 31.5t90 88.5l38 -36q-73 -104 -174.5 -166t-175.5 -62q-54 0 -84.5 29.5t-43.5 96.5l-24 124z" />
    <glyph glyph-name="y.ord" horiz-adv-x="816" 
d="M996 1212q0 -81 -48.5 -182.5t-129 -202.5t-191.5 -198.5t-230 -171.5t-250 -119.5t-247 -45.5q-59 0 -97.5 31.5t-38.5 82.5q0 47 32.5 75.5t71.5 28.5q33 0 57 -14t36.5 -30t35.5 -30t55 -14q136 0 314 110q2 126 -4 357t-12 283q-3 23 -16.5 39t-55.5 47l18 46l270 46
l44 -16q0 -30 -0.5 -169t-3 -248t-8.5 -195h4q91 94 144.5 191.5t53.5 182.5q0 10 -16 57t-16 81q0 46 31 81t83 35q53 0 83.5 -39t30.5 -99z" />
    <glyph glyph-name="z.ord" horiz-adv-x="840" 
d="M762 1110v6h-168q-87 0 -124.5 -16t-79.5 -74h-60l136 308h602l-58 -148l-484 -278q18 -7 57 -21.5t51 -18.5t36 -11t40 -9t34 -2q55 0 101.5 23t90.5 89l48 -24q-30 -53 -53.5 -91t-59.5 -86.5t-69.5 -78.5t-76.5 -51t-87 -21q-51 0 -106.5 24t-93 52t-71 52t-47.5 24
q-28 0 -28 -46q0 -38 -18.5 -67t-55.5 -29q-28 0 -47 19t-19 47q0 39 33 70t87 62z" />
    <glyph glyph-name="caron.Slovak" horiz-adv-x="1000" 
d="M590 1004l164 380q25 59 64 87.5t80 28.5q47 0 79.5 -33.5t32.5 -82.5q0 -69 -64 -130l-292 -290z" />
    <glyph glyph-name="commaturn" horiz-adv-x="1000" 
d="M1046 1426q-104 -6 -157 -33.5t-53 -66.5q0 -13 19 -21.5t41 -14.5t41 -30t19 -64q0 -52 -43 -89t-105 -37q-72 0 -115 49.5t-43 110.5q0 111 106.5 193.5t279.5 82.5z" />
    <glyph glyph-name="uni00200326" horiz-adv-x="1000" 
d="M-24 -432q104 6 157 33.5t53 66.5q0 13 -19 21.5t-41 14.5t-41 30t-19 64q0 52 43 89t105 37q72 0 115 -49.5t43 -110.5q0 -111 -106.5 -193.5t-279.5 -82.5z" />
    <glyph glyph-name="guilsinglleft.cap" horiz-adv-x="690" 
d="M154 630l8 20l520 398h144l-372 -424l48 -394h-112z" />
    <glyph glyph-name="guilsinglright.cap" horiz-adv-x="690" 
d="M672 648l-8 -20l-520 -398h-144l372 424l-48 394h112z" />
    <glyph glyph-name="guillemotleft.cap" horiz-adv-x="1146" 
d="M154 630l8 20l520 398h144l-372 -424l48 -394h-112zM610 630l8 20l520 398h144l-372 -424l48 -394h-112z" />
    </font>
</defs>
</svg>
