<svg width="1440" height="383" fill="none" xmlns="http://www.w3.org/2000/svg"><mask id="a" style="mask-type:alpha" maskUnits="userSpaceOnUse" x="0" y="0" width="1440" height="383"><path fill="#F9F4F1" d="M0 0h1440v383H0z"/></mask><g opacity=".2" stroke="#B2ABA5" stroke-width="2" stroke-linecap="round" mask="url(#a)"><path d="M311.28 964.926c-88.255 40.114-187.606-5.365-251.913-69.583C9.35 845.395-24.083 780.44-43.21 712.4-89.46 547.813-54.115 351.108 66.994 226.142c48.264-49.807 109.029-85.519 174.825-106.925 47.862-15.568 96.933-28.594 147.371-31.487 41.147-2.367 86.8-3.594 127.052 6.083" stroke-miterlimit="10"/><path d="M509.159 90.29c-59.449-13.255-112.08-15.621-171.372-8.732-58.345 6.768-116.883 21.88-166.55 42.988-70.372 29.909-135.783 80.12-181.979 141.463a391.967 391.967 0 00-10.273 14.271c-20.6 30.049-36.449 61.396-48.528 92.181-35.186 90.499-37.342 173.791-36.957 192.165.509 25.385 3.665 156.505 79.068 273.984 37.71 58.766 92.69 108.1 154.612 140.271 36.15 18.776 88.727 30.489 129.681 17.549" stroke-miterlimit="10"/><path d="M205.143 1018.96c-81.329 7.17-218.743-93.042-271.127-173.477-72.792-111.782-81.329-238.782-82.381-280.717-.737-29.489 4.856-111.957 38.937-197.775 12.71-32.048 29.489-64.096 50.877-94.495C-5.745 198.004 76.18 132.365 183.702 99.511c60.554-18.864 122.669-28.945 186.379-29.892 47.3-.456 102.507 8.994 146.126 24.212" stroke-miterlimit="10"/><path d="M516.207 93.813c-66.551-29.19-150.72-42.567-225.317-39.85-.018-.017-.053 0-.053 0-56.399 2.245-111.221 10.38-165.236 25.843C17.904 110.59-74.242 174.722-135.112 256.647c-22.931 31.084-41.48 64.622-55.628 99.107-31.399 76.56-44.372 157.259-42.864 209.012 2.033 75.036 21.984 193.444 89.008 294.199 60.203 90.463 155.26 152.065 269.233 184.575" stroke-miterlimit="10"/><path d="M87.979 1051.23c-114.237-31.61-207.593-90.196-271.881-185.516-63.938-95.372-89.745-209.345-92.322-300.948-1.841-62.834 14.902-142.603 44.829-214.605 14.954-35.712 34.256-69.987 57.977-101.421 58.45-77.472 145.512-137.991 237.045-168.567 103.7-34.625 215.271-44.793 323.336-27.507 44.373 7.1 88.062 23.072 129.244 41.13" stroke-miterlimit="10"/><path d="M516.206 93.796c-36.728-18.742-81.557-38.184-121.845-45.828-40.848-7.75-80.137-12.413-121.669-12.903-115.464-1.368-227.438 18.811-329.367 74.86-59.625 32.801-113.342 76.929-154.998 130.909-24.509 31.784-44.705 66.813-60.361 103.734-28.594 67.374-48.966 146.267-46.81 220.215 3.174 108.171 34.555 217.849 95.653 307.716 68.198 100.298 158.627 155.731 273.143 186.431" stroke-miterlimit="10"/><path d="M516.206 93.813c-53.805-21.336-121.617-32.836-181.067-31.907-22.23.333-44.39 1.876-65.972 4.435-.017-.017-.052-.017-.07 0a716.337 716.337 0 00-70.74 11.87c-14.201 2.84-29.734 7.45-43.706 11.447-107.61 31.803-194.637 96.705-251.474 174.914-22.178 30.733-39.85 63.517-53.262 96.809-32.766 81.154-41.988 162.782-40.918 203.385 1.577 58.503 15.761 181.225 85.712 287.466 56.241 85.45 147.88 148.878 261.572 182.298" stroke-miterlimit="10"/><path d="M733.966 303.825C861.544 114.711 1001.15 56.805 1115.93 46.671c27.12-4.032 60.96-7.854 95.44-8.362 72.35-1.052 142.34 8.888 208.43 28.611" stroke-linejoin="round"/><path d="M756.215 338.38C879.62 142.008 1016.81 79.964 1130.74 60.503c26.34-4.523 58-9.852 90.33-11.606 68.86-3.804 135.46 2.788 198.72 18.023" stroke-linejoin="round"/><path d="M778.111 375.635C897.239 170.269 1031.65 100.3 1145.59 74.354c25.42-5.803 55.03-11.852 85.17-14.885 65.43-6.574 128.67-3.278 189.04 7.451" stroke-linejoin="round"/><path d="M800.079 414.344c5.4-10.115 10.151-17.847 12.886-22.545C924.326 195.97 1050.83 119.953 1160.42 88.186c24.48-7.1 52.07-13.903 80.04-18.163 61.94-9.415 121.81-9.344 179.35-3.103" stroke-linejoin="round"/><path d="M820.766 460.102c3.751-7.714 6.732-13.254 10.501-20.67 2.84-5.47 17.987-33.976 20.88-39.008C955.023 218.13 1070.85 139.325 1175.26 102c23.51-8.415 49.08-15.988 74.87-21.44 58.47-12.326 114.98-15.411 169.67-13.675" stroke-linejoin="round"/><path d="M842.189 507.999c9.941-22.493 19.268-41.761 29.524-61.94 1.402-2.717 18.215-34.467 19.67-36.939 94.391-168.76 199.437-250.422 298.727-293.269 22.56-9.748 46.12-18.093 69.75-24.685 54.98-15.358 108.14-21.511 159.96-24.264" stroke-linejoin="round"/><path d="M863.543 560.348c16.006-39.867 31.715-74.317 48.598-107.644l18.426-34.941C1048.92 203.912 1182.44 124.862 1310.48 89.22h.01c11.45-3.226 22.83-6.048 34.17-8.625a874.432 874.432 0 0136.8-7.434c12.89-2.35 25.67-4.4 38.33-6.259" stroke-linejoin="round"/><path d="M1303.45 970.992C1159.2 1032.65 995.486 840.065 912.088 670.99c-32.942-62.623-60.273-141.919-91.304-208.293C736.719 260.346 565.54 67.673 372.973 45.04" stroke-miterlimit="10"/><path d="M1229.97 1003.76c-134.65-4.645-225.36-124.822-315.129-258.47-45.045-70.449-82.488-164.44-118.268-240.355-69.177-146.696-214.38-381.131-367.358-420.35" stroke-miterlimit="10"/><path d="M1182.06 1017.68c-122.02-16.22-190.746-106.786-284.277-233.978-57.609-81.996-97.493-180.068-143.637-270.987-72.3-152.648-219.338-378.578-363.343-424.511" stroke-miterlimit="10"/><path d="M1132.37 1029.83c-91.67-2.84-199.788-132.664-273.929-238.993-46.231-64.604-92.865-164.184-128.191-233.802-37.799-74.527-76.07-156.961-123.073-223.599C533.001 227.089 413.312 98.968 334.438 95.304" stroke-miterlimit="10"/><path d="M1075.87 1037.14c-157.206-46.109-291.99-272.811-364.396-425.565-45.775-90.042-86.22-189.464-143.654-270.969-93.864-127.507-161.238-216.901-283.715-233.434" stroke-miterlimit="10"/><path d="M1037.6 1040.75c-166.045-40.848-298.602-274.019-367.746-420.724-37.834-80.049-71.915-167.41-118.392-240.552-90.498-134.345-179.138-252.368-314.798-257.592" stroke-miterlimit="10"/><path d="M1080.64 1072.97c-166.939-9.5-351.337-208.641-435.787-411.377-31.171-66.182-58.31-145.775-91.305-208.276-83.398-169.04-247.126-361.678-391.359-300.001" stroke-miterlimit="10"/><path d="M1154.52 159.68c88.25-40.112 187.6 5.365 251.91 69.583 50.02 49.948 83.45 114.902 102.58 182.943 46.24 164.587 10.9 361.292-110.21 486.258-48.26 49.807-109.03 85.519-174.82 106.926-47.86 15.57-96.94 28.59-147.37 31.49-41.15 2.36-86.804 3.59-127.056-6.09" stroke-miterlimit="10"/><path d="M956.637 1034.32c59.453 13.25 112.083 15.62 171.373 8.73 58.34-6.77 116.88-21.88 166.55-42.99 70.37-29.91 135.78-80.12 181.98-141.464 3.52-4.681 6.96-9.432 10.27-14.27 20.6-30.05 36.45-61.396 48.53-92.182 35.18-90.498 37.34-173.791 36.96-192.164-.51-25.386-3.67-156.505-79.07-273.985-37.71-58.766-92.69-108.1-154.61-140.271-36.15-18.776-88.73-30.487-129.69-17.549" stroke-miterlimit="10"/><path d="M1260.65 105.647c81.33-7.17 218.75 93.04 271.13 173.475 72.79 111.782 81.33 238.781 82.38 280.717.74 29.488-4.86 111.957-38.94 197.775-12.71 32.048-29.48 64.095-50.87 94.495-52.81 74.492-134.73 140.131-242.26 172.981-60.55 18.87-122.66 28.95-186.37 29.9-47.31.45-102.512-9-146.131-24.22" stroke-miterlimit="10"/><path d="M949.589 1030.77c66.551 29.2 150.721 42.57 225.321 39.85.01.02.05 0 .05 0 56.4-2.24 111.22-10.37 165.23-25.84 107.7-30.78 199.85-94.914 260.72-176.839 22.93-31.084 41.48-64.622 55.63-99.107 31.39-76.56 44.37-157.258 42.86-209.012-2.03-75.035-21.98-193.444-89.01-294.199-60.2-90.463-155.26-152.069-269.23-184.573" stroke-miterlimit="10"/><path d="M1377.82 73.354c114.23 31.61 207.59 90.2 271.88 185.52 63.94 95.372 89.74 209.345 92.32 300.948 1.84 62.834-14.9 142.603-44.83 214.605-14.95 35.712-34.26 69.986-57.98 101.421-58.43 77.472-145.49 137.992-237.02 168.562-103.7 34.63-215.28 44.8-323.34 27.51-44.37-7.1-88.062-23.07-129.244-41.13" stroke-miterlimit="10"/><path d="M949.589 1030.81c36.729 18.74 81.561 38.18 121.841 45.83 40.85 7.75 80.14 12.41 121.67 12.9 115.47 1.37 227.44-18.81 329.37-74.86 59.63-32.801 113.34-76.928 155-130.908 24.51-31.785 44.7-66.813 60.36-103.735 28.59-67.374 48.95-146.267 46.81-220.215-3.17-108.17-34.56-217.848-95.65-307.716-68.2-100.298-158.63-155.733-273.15-186.431" stroke-miterlimit="10"/><path d="M949.589 1030.77c53.801 21.34 121.621 32.84 181.071 31.91 22.23-.33 44.39-1.87 65.97-4.43.01.01.05.01.07 0 24.03-2.81 47.49-6.77 70.74-11.87 14.2-2.84 29.73-7.45 43.7-11.45 107.61-31.8 194.64-96.705 251.48-174.914 22.18-30.733 39.85-63.517 53.26-96.809 32.77-81.154 41.99-162.782 40.92-203.385-1.58-58.503-15.76-181.225-85.71-287.466-56.25-85.45-147.88-148.879-261.58-182.294" stroke-miterlimit="10"/></g></svg>