<svg width="374" height="563" fill="none" xmlns="http://www.w3.org/2000/svg"><mask id="a" style="mask-type:alpha" maskUnits="userSpaceOnUse" x="0" y="0" width="374" height="563"><path fill="#C4C4C4" d="M0 0h374v563H0z"/></mask><g mask="url(#a)" stroke-width="2" stroke-linecap="round"><path d="M29.417 689.484c30.658 7.658 63.182 11.113 96.575 9.199 15.677-.891 31.029-3.576 43.786-5.851 55.304-9.813 122.507-42.261 182.364-141.363" stroke="url(#paint0_linear_1756_6134)" stroke-linejoin="round"/><path d="M29.417 689.484c29.28 5.406 60.158 7.188 91.871 3.877 14.622-1.529 28.978-4.575 41.307-7.501 55.303-13.087 121.208-49.557 179.003-153.281" stroke="url(#paint1_linear_1756_6134)" stroke-linejoin="round"/><path d="M330.973 512.387c-2.642 5.141-5.771 11.137-7.103 13.533-53.994 98.668-115.334 136.967-168.471 152.969-11.876 3.576-25.247 7.007-38.804 9.15-30.032 4.744-59.277 4.587-87.178 1.445" stroke="url(#paint2_linear_1756_6134)" stroke-linejoin="round"/><path d="M29.417 689.484c26.51.879 54.121-.554 82.486-6.766 12.502-2.745 24.9-6.562 36.301-10.8 50.611-18.807 106.783-58.515 156.652-150.356 1.414-2.529 8.76-16.893 10.139-19.65a700.706 700.706 0 005.538-11.534" stroke="url(#paint3_linear_1756_6134)" stroke-linejoin="round"/><path d="M29.417 689.484c25.132-1.384 51.12-4.358 77.782-12.1a259.815 259.815 0 0033.81-12.437c48.131-21.588 99.077-62.729 144.845-147.756.707-1.252 8.841-17.241 9.536-18.614 4.982-10.174 9.895-20.925 14.727-32.279" stroke="url(#paint4_linear_1756_6134)" stroke-linejoin="round"/><path d="M29.417 689.484c6.396-.987 12.85-2.058 19.361-3.299h.023c20.103-3.804 40.681-9.078 61.422-17.482 53.426-21.648 107.744-64.089 156.629-155.87l8.933-17.603c8.18-16.808 16.198-35.181 23.961-55.276" stroke="url(#paint5_linear_1756_6134)" stroke-linejoin="round"/><path d="M299.734 439.906s-.012.036-.023.048" stroke="url(#paint6_linear_1756_6134)" stroke-linejoin="round"/><path d="M362.823 310.801c61.85-95.273 130.188-125.602 185.839-130.707 13.151-2.034 29.558-3.961 46.278-4.214 35.084-.529 69.01 4.479 101.059 14.412" stroke="url(#paint7_linear_1756_6134)" stroke-linejoin="round"/><path d="M373.611 328.211c59.834-98.933 126.991-131.345 182.236-141.145 12.769-2.276 28.121-4.961 43.798-5.852 33.393-1.914 65.685 1.409 96.355 9.078" stroke="url(#paint8_linear_1756_6134)" stroke-linejoin="round"/><path d="M498.25 687.798a192.1 192.1 0 01-3.638-1.396 121.69 121.69 0 01-3.615-1.457 188.177 188.177 0 01-7.126-3.106 118.423 118.423 0 01-3.511-1.65c-1.17-.554-2.328-1.132-3.487-1.71h-.012c-1.158-.578-2.305-1.18-3.453-1.782-36.324-19.215-74.444-52.494-110.456-107.806a499.648 499.648 0 01-10.578-17.012c-.081-.133-.151-.265-.232-.41a1250.568 1250.568 0 01-10.544-18.891 1140.814 1140.814 0 01-6.917-12.798 596.82 596.82 0 01-3.708-7.381 697.246 697.246 0 01-10.44-22.021 730.844 730.844 0 01-10.416-24.08 815.861 815.861 0 01-8.62-21.792 419.91 419.91 0 00-1.75-4.552c0-.012 0-.036-.012-.048-7.763-20.082-15.781-38.443-23.949-55.239l-8.934-17.603c-44.666-83.859-93.956-126.456-142.956-149.645" stroke="url(#paint9_linear_1756_6134)" stroke-miterlimit="10"/><path d="M522.049 680.02h-.023c-15.422-4.671-30.184-10.98-44.018-19.553-25.699-16.29-51.526-39.347-76.264-71.337-3.545-4.226-8.504-11.787-12.015-16.459a463.92 463.92 0 01-14.936-22.996 423.482 423.482 0 01-4.588-7.669c-2.109-3.625-4.252-7.273-6.326-11.029l-.383-.686a1230.974 1230.974 0 01-10.428-19.433c-2.224-4.238-4.46-8.572-6.708-12.979a702.186 702.186 0 01-4.218-8.416 852.179 852.179 0 01-10.984-23.021 1092.336 1092.336 0 01-11.042-24.802c-2.63-6.08-5.249-12.257-7.856-18.554a626.84 626.84 0 00-3.082-7.308c-8.018-18.674-16.337-35.687-24.738-51.218-.741-.831-8.921-16.29-9.663-17.037-34.076-57.118-67.017-92.046-102.229-114.657-11.483-7.381-23.324-13.714-35.247-18.939" stroke="url(#paint10_linear_1756_6134)" stroke-miterlimit="10"/><path d="M542.164 676.444s-38.259-15.11-59.544-32.195c-24.332-19.529-49.278-43.32-71.965-75.394-2.827-3.384-8.493-13.184-11.309-16.929a507.08 507.08 0 01-13.359-22.274 563.97 563.97 0 01-5.017-9.054c-1.981-3.672-3.997-7.356-5.944-11.125-.139-.253-.266-.517-.406-.782a2545.732 2545.732 0 01-10.601-20.757 3479.897 3479.897 0 01-5.991-11.944 921.518 921.518 0 01-5.272-10.728 1675.297 1675.297 0 01-11.471-23.959 2835.391 2835.391 0 01-11.412-24.622 6505.753 6505.753 0 01-6.837-15.014 505.357 505.357 0 00-4.101-8.837 554.151 554.151 0 00-25.839-48.365c-1.471-1.674-8.91-14.99-10.393-16.495-36.776-55.312-69.984-87.338-106.262-106.614a271.213 271.213 0 00-25.363-11.86" stroke="url(#paint11_linear_1756_6134)" stroke-miterlimit="10"/><path d="M167.729 205.439a293.294 293.294 0 0112.571 5.02c37.437 15.893 70.853 44.452 110.329 97.97 2.224 2.24 8.91 13.425 11.123 15.941a499.235 499.235 0 0127.356 46.583 447.222 447.222 0 014.704 9.295c2.086 4.226 4.16 8.44 6.222 12.678a5252.11 5252.11 0 0111.205 23.045c3.847 7.946 7.705 15.929 11.575 23.923 0 0 .023.037.023.061 2.283 4.707 4.577 9.427 6.871 14.147 1.587 3.251 3.163 6.489 4.727 9.716 3.789 7.778 7.532 15.496 11.205 23.081.034.06.058.132.092.192 1.97 4.07 3.998 8.079 6.002 12.101a512.971 512.971 0 004.89 9.572 543.852 543.852 0 0012.34 22.43c2.108 2.805 8.493 14.845 10.613 17.386 20.624 32.159 43.369 58.515 67.643 79.44 24.495 20.372 45.397 36.12 75.719 45.776h.012" stroke="url(#paint12_linear_1756_6134)" stroke-miterlimit="10"/><path d="M186.661 201.827c37.448 12.822 71.502 37.517 111.893 87.037 2.966 2.998 8.899 12.04 11.853 15.399 9.918 13.581 19.779 28.764 29.349 45.777a499.949 499.949 0 014.832 8.777c2.039 3.792 4.055 7.621 6.083 11.486a1394.206 1394.206 0 0111.019 21.527 1754.151 1754.151 0 0111.216 22.72 2216.78 2216.78 0 018.47 17.639c1.008 2.107 2.004 4.214 3.001 6.333a2268.65 2268.65 0 0111.413 24.622c.359.782.706 1.553 1.066 2.335 1.853 4.094 3.765 8.188 5.642 12.305a602.947 602.947 0 004.264 9.127 607.293 607.293 0 0011.83 23.526c1.402 1.866 8.482 16.157 9.907 17.843 18.562 32.255 39.765 60.248 63.333 83.498 26.394 25.272 51.607 44.921 85.962 57.756" stroke="url(#paint13_linear_1756_6134)" stroke-miterlimit="10"/><path d="M212.325 198.648c31.933 11.679 60.552 33.291 94.154 70.675 3.708 3.745 8.898 10.643 12.583 14.845 10.764 13.449 21.47 28.632 31.91 45.825 1.471 2.432 2.931 4.9 4.391 7.404a660.344 660.344 0 016.465 11.354 747.665 747.665 0 0110.846 20.083 903.764 903.764 0 0110.868 21.491 1129 1129 0 019.513 19.975c.475 1.035.961 2.071 1.436 3.106a1161.69 1161.69 0 0111.043 24.779c.811 1.89 1.622 3.792 2.433 5.695 1.761 4.129 3.534 8.283 5.283 12.497a682.207 682.207 0 0014.959 33.327c.706.927 8.493 17.458 9.211 18.301 16.488 32.351 36.162 61.982 59.011 87.543 27.171 29.847 55.408 54.854 92.787 71.12" stroke="url(#paint14_linear_1756_6134)" stroke-miterlimit="10"/><path d="M601.453 662.562h-.011c-72.348-35.915-122.924-102.52-155.111-174.821l-8.505-18.77a777.319 777.319 0 01-11.911-29.017c0-.012 0-.036-.012-.048a598.045 598.045 0 01-1.888-4.924 827.358 827.358 0 00-8.47-21.456 756.437 756.437 0 00-10.382-24.128 651.54 651.54 0 00-10.416-22.057 588.641 588.641 0 00-10.521-20.36 531.139 531.139 0 00-10.614-18.77 515.955 515.955 0 00-10.787-17.41c-55.628-85.665-116.481-118.823-168.644-128.359" stroke="url(#paint15_linear_1756_6134)" stroke-miterlimit="10"/><path d="M123.293 662.719C-27.45 612.476-24.854 447.528-24.657 440.508c-.197-7.368-2.596-172.004 147.024-222.572l1.529-.518 9.988-3.395 1.205-.409a334.985 334.985 0 0110.254-3.082 329.3 329.3 0 0114.344-3.745h.012a300.667 300.667 0 0119.083-3.913c9.003-1.529 18.354-2.673 27.785-3.178h.012c11.378-.615 22.895-.301 34.088 1.336h.046c3.847.566 7.659 1.288 11.413 2.179v-.024" stroke="url(#paint16_linear_1756_6134)" stroke-miterlimit="10"/><path d="M240.724 201.044h-.046c-13.417-2.901-27.391-3.997-41.283-3.829h-.012c-10.44.145-20.833.988-30.913 2.348h-.012c-6.79.903-13.44 2.035-19.871 3.323h-.012a324.51 324.51 0 00-14.761 3.311 332.182 332.182 0 00-11.575 3.083h-.012c-.266.084-.521.156-.788.228-.544.121-5.26 1.674-8.91 2.866-2.167.71-3.951 1.3-4.275 1.384-52.199 17.097-88.372 48.221-112.079 83.956-10.01 15.17-17.716 31.003-23.579 46.546-17.101 45.704-18.144 87.76-17.959 97.043.243 12.823 1.785 79.031 38.422 138.352 23.636 38.011 62.243 71.229 117.164 89.06l.105.036" stroke="url(#paint17_linear_1756_6134)" stroke-miterlimit="10"/><path d="M97.35 673.194C42.234 655.832-.591 622.903-26.047 582.28-61.422 525.836-65.57 461.699-66.08 440.52c-.359-14.893 2.364-56.54 18.921-99.872 6.176-16.182 14.333-32.364 24.726-47.715C3.232 255.32 41.885 224.582 94.13 207.991c.568-.157 2.04-.614 3.847-1.18 3.059-.963 7.033-2.215 8.934-2.757h.011c.371-.109.661-.181.858-.229a371.896 371.896 0 0110.184-2.552h.024c4.75-1.108 9.64-2.144 14.645-3.083a320.906 320.906 0 0120.068-3.118c10.452-1.288 21.192-2.071 31.991-2.179 22.988-.229 46.231 2.636 67.435 10.318" stroke="url(#paint18_linear_1756_6134)" stroke-miterlimit="10"/><path d="M252.137 203.211c-26.151-10.775-55.523-14.676-84.409-14.207h-.046c-10.799.169-21.54.951-32.014 2.24-.012-.012-.023-.012-.035 0-6.941.83-13.765 1.89-20.416 3.118-4.75.867-9.408 1.83-13.962 2.878h-.023a290.756 290.756 0 00-7.103 1.697c-.66.145-1.715.434-2.977.795-2.399.674-5.539 1.625-7.972 2.36-1.344.397-2.48.746-3.163.927-52.291 16.061-93.424 46.426-121.047 85.917-10.775 15.52-19.36 32.075-25.884 48.883-15.92 40.984-20.404 82.197-19.883 102.702.765 29.546 7.659 91.516 41.654 145.166 27.333 43.152 71.86 75.178 127.118 92.058" stroke="url(#paint19_linear_1756_6134)" stroke-miterlimit="10"/><path d="M252.137 203.211c-32.339-14.737-69.66-19.589-105.914-18.216h-.024a331.518 331.518 0 00-33.346 2.961h-.012a350.922 350.922 0 00-19.245 3.239 329.775 329.775 0 00-12.236 2.649h-.011c-.302.072-.591.133-.88.205-1.727.385-4.497 1.132-7.266 1.914-2.329.662-4.658 1.337-6.36 1.818h-.013c-.335.096-.648.181-.926.265-52.337 15.544-95.962 45.523-125.542 86.893-11.147 15.7-20.161 32.629-27.032 50.05-15.26 38.661-21.563 79.417-20.833 105.543.985 37.89 10.683 97.681 43.253 148.562 29.257 45.68 75.453 76.792 130.837 93.202" stroke="url(#paint20_linear_1756_6134)" stroke-miterlimit="10"/><path d="M48.802 686.185h-.023C-6.733 670.22-52.107 640.638-83.344 592.502c-31.076-48.16-43.613-105.712-44.864-151.97-.892-31.725 7.242-72.011 21.783-108.372 7.265-18.036 16.65-35.337 28.179-51.218 30.948-42.417 75.881-71.711 127.025-86.977.996-.313 1.993-.602 3.001-.891.232-.061.475-.133.718-.205 1.541-.421 3.303-.903 5.122-1.397 2.688-.734 5.492-1.469 7.867-2.022.464-.109.904-.205 1.333-.301a335.325 335.325 0 0113.197-2.733 348.003 348.003 0 0131.145-4.431c47.644-4.636 98.614.277 140.975 21.214" stroke="url(#paint21_linear_1756_6134)" stroke-miterlimit="10"/><path d="M252.149 203.199c-18.029-9.547-37.622-16.338-57.957-20.757-21.817-4.743-44.493-6.778-67.029-6.574-25.317.205-50.46 3.239-73.98 8.392-4.531 1-9.05 2.095-13.546 3.299l-1.83.506c-52.477 14.484-101.118 43.729-134.638 88.88-11.911 16.049-21.725 33.736-29.337 52.386-13.904 34.025-23.799 73.866-22.757 111.202 1.541 54.625 16.789 110.01 46.486 155.388 33.138 50.653 77.805 78.646 133.456 94.142" stroke="url(#paint22_linear_1756_6134)" stroke-miterlimit="10"/></g><defs><linearGradient id="paint0_linear_1756_6134" x1="190.779" y1="551.469" x2="190.779" y2="699.202" gradientUnits="userSpaceOnUse"><stop stop-color="#B9E9F9" stop-opacity="0"/><stop offset="1" stop-color="#B9E9F9"/></linearGradient><linearGradient id="paint1_linear_1756_6134" x1="185.507" y1="532.579" x2="185.507" y2="695.03" gradientUnits="userSpaceOnUse"><stop stop-color="#B9E9F9" stop-opacity="0"/><stop offset="1" stop-color="#B9E9F9"/></linearGradient><linearGradient id="paint2_linear_1756_6134" x1="180.195" y1="512.387" x2="180.195" y2="691.739" gradientUnits="userSpaceOnUse"><stop stop-color="#B9E9F9" stop-opacity="0"/><stop offset="1" stop-color="#B9E9F9"/></linearGradient><linearGradient id="paint3_linear_1756_6134" x1="174.975" y1="490.378" x2="174.975" y2="689.72" gradientUnits="userSpaceOnUse"><stop stop-color="#B9E9F9" stop-opacity="0"/><stop offset="1" stop-color="#B9E9F9"/></linearGradient><linearGradient id="paint4_linear_1756_6134" x1="169.767" y1="466.298" x2="169.767" y2="689.484" gradientUnits="userSpaceOnUse"><stop stop-color="#B9E9F9" stop-opacity="0"/><stop offset="1" stop-color="#B9E9F9"/></linearGradient><linearGradient id="paint5_linear_1756_6134" x1="164.582" y1="439.954" x2="164.582" y2="689.484" gradientUnits="userSpaceOnUse"><stop stop-color="#B9E9F9" stop-opacity="0"/><stop offset="1" stop-color="#B9E9F9"/></linearGradient><linearGradient id="paint6_linear_1756_6134" x1="299.722" y1="439.906" x2="299.722" y2="439.954" gradientUnits="userSpaceOnUse"><stop stop-color="#B9E9F9" stop-opacity="0"/><stop offset="1" stop-color="#B9E9F9"/></linearGradient><linearGradient id="paint7_linear_1756_6134" x1="529.411" y1="175.842" x2="529.411" y2="310.801" gradientUnits="userSpaceOnUse"><stop stop-color="#B9E9F9" stop-opacity="0"/><stop offset="1" stop-color="#B9E9F9"/></linearGradient><linearGradient id="paint8_linear_1756_6134" x1="534.806" y1="180.684" x2="534.806" y2="328.211" gradientUnits="userSpaceOnUse"><stop stop-color="#B9E9F9" stop-opacity="0"/><stop offset="1" stop-color="#B9E9F9"/></linearGradient><linearGradient id="paint9_linear_1756_6134" x1="311.073" y1="217.419" x2="311.073" y2="687.798" gradientUnits="userSpaceOnUse"><stop stop-color="#B9E9F9" stop-opacity="0"/><stop offset="1" stop-color="#B9E9F9"/></linearGradient><linearGradient id="paint10_linear_1756_6134" x1="329.675" y1="213.927" x2="329.675" y2="680.02" gradientUnits="userSpaceOnUse"><stop stop-color="#B9E9F9" stop-opacity="0"/><stop offset="1" stop-color="#B9E9F9"/></linearGradient><linearGradient id="paint11_linear_1756_6134" x1="346.621" y1="209.496" x2="346.621" y2="676.444" gradientUnits="userSpaceOnUse"><stop stop-color="#B9E9F9" stop-opacity="0"/><stop offset="1" stop-color="#B9E9F9"/></linearGradient><linearGradient id="paint12_linear_1756_6134" x1="365.34" y1="205.439" x2="365.34" y2="673.796" gradientUnits="userSpaceOnUse"><stop stop-color="#B9E9F9" stop-opacity="0"/><stop offset="1" stop-color="#B9E9F9"/></linearGradient><linearGradient id="paint13_linear_1756_6134" x1="382.227" y1="201.827" x2="382.227" y2="669.534" gradientUnits="userSpaceOnUse"><stop stop-color="#B9E9F9" stop-opacity="0"/><stop offset="1" stop-color="#B9E9F9"/></linearGradient><linearGradient id="paint14_linear_1756_6134" x1="400.771" y1="198.648" x2="400.771" y2="666.668" gradientUnits="userSpaceOnUse"><stop stop-color="#B9E9F9" stop-opacity="0"/><stop offset="1" stop-color="#B9E9F9"/></linearGradient><linearGradient id="paint15_linear_1756_6134" x1="397.817" y1="182.442" x2="397.817" y2="662.562" gradientUnits="userSpaceOnUse"><stop stop-color="#B9E9F9" stop-opacity="0"/><stop offset="1" stop-color="#B9E9F9"/></linearGradient><linearGradient id="paint16_linear_1756_6134" x1="113.72" y1="199.404" x2="113.72" y2="662.719" gradientUnits="userSpaceOnUse"><stop stop-color="#B9E9F9" stop-opacity="0"/><stop offset="1" stop-color="#B9E9F9"/></linearGradient><linearGradient id="paint17_linear_1756_6134" x1="97.672" y1="197.199" x2="97.672" y2="668.751" gradientUnits="userSpaceOnUse"><stop stop-color="#B9E9F9" stop-opacity="0"/><stop offset="1" stop-color="#B9E9F9"/></linearGradient><linearGradient id="paint18_linear_1756_6134" x1="93.008" y1="192.88" x2="93.008" y2="673.194" gradientUnits="userSpaceOnUse"><stop stop-color="#B9E9F9" stop-opacity="0"/><stop offset="1" stop-color="#B9E9F9"/></linearGradient><linearGradient id="paint19_linear_1756_6134" x1="82.65" y1="188.967" x2="82.65" y2="677.745" gradientUnits="userSpaceOnUse"><stop stop-color="#B9E9F9" stop-opacity="0"/><stop offset="1" stop-color="#B9E9F9"/></linearGradient><linearGradient id="paint20_linear_1756_6134" x1="72.289" y1="184.772" x2="72.289" y2="682.296" gradientUnits="userSpaceOnUse"><stop stop-color="#B9E9F9" stop-opacity="0"/><stop offset="1" stop-color="#B9E9F9"/></linearGradient><linearGradient id="paint21_linear_1756_6134" x1="61.931" y1="180.38" x2="61.931" y2="686.185" gradientUnits="userSpaceOnUse"><stop stop-color="#B9E9F9" stop-opacity="0"/><stop offset="1" stop-color="#B9E9F9"/></linearGradient><linearGradient id="paint22_linear_1756_6134" x1="51.575" y1="175.854" x2="51.575" y2="690.062" gradientUnits="userSpaceOnUse"><stop stop-color="#B9E9F9" stop-opacity="0"/><stop offset="1" stop-color="#B9E9F9"/></linearGradient></defs></svg>