<svg width="104" height="53" fill="none" xmlns="http://www.w3.org/2000/svg"><path d="M18.755 50.318c3.187.946 6.622 1.385 10.113 1.34 1.667-.034 3.3-.214 4.618-.405 5.552-.496 12.365-3.412 18.536-12.568" stroke="#181C4B" stroke-linecap="round" stroke-linejoin="round"/><path d="M18.755 50.318c2.77.293 5.71.26 8.706-.191 1.351-.203 2.68-.53 3.851-.867 5.304-1.532 11.42-5.215 16.803-14.674.135-.226.45-.811.71-1.307" stroke="#181C4B" stroke-linecap="round" stroke-linejoin="round"/><path d="M18.755 50.318s.08-.011.113-.022h.023c7.635-1.149 16.216-3.728 23.548-16.972l.89-1.689c.822-1.61 1.61-3.378 2.387-5.304m6.295-12.377C58.171 4.81 64.985 1.904 70.525 1.41c1.307-.192 2.94-.383 4.606-.406 3.503-.045 6.927.394 10.125 1.34" stroke="#181C4B" stroke-linecap="round" stroke-linejoin="round"/><path d="M55.187 19.37a32.2 32.2 0 01.71-1.294c5.383-9.46 11.498-13.143 16.79-14.674 1.183-.338 2.512-.665 3.864-.867a33.83 33.83 0 018.705-.192" stroke="#181C4B" stroke-linecap="round" stroke-linejoin="round"/><path d="M58.284 26.33h.011v-.022c.777-1.914 1.565-3.682 2.376-5.282l.89-1.689C68.892 6.082 77.496 3.503 85.13 2.366c.046-.011.08-.011.124-.023" stroke="#181C4B" stroke-linecap="round" stroke-linejoin="round"/><path d="M28.137 47.694c-15.023-4.82-14.764-20.643-14.742-21.307-.022-.71-.259-16.498 14.652-21.352l.203-.068 1.058-.338a36.15 36.15 0 012.455-.653c2.804-.653 6.183-1.047 9.212-.349" stroke="#181C4B" stroke-miterlimit="10" stroke-linecap="round"/><path d="M23.542 49c-5.518-1.621-9.471-4.56-12.196-8.705C7.967 35.16 7.28 29.214 7.2 26.387c-.056-1.97.395-5.912 1.971-9.831a22.52 22.52 0 012.58-4.685c2.747-3.795 6.846-6.723 12.072-8.266.09-.023.236-.068.416-.113h.012c.349-.101.81-.236.98-.27a27.75 27.75 0 012.105-.44h.012c4.324-.776 9.403-.833 13.626.845" stroke="#181C4B" stroke-miterlimit="10" stroke-linecap="round"/><path d="M18.936 50.318s-.034-.011-.045-.022h-.023c-5.507-1.487-9.933-4.178-13.232-9.01-2.95-4.347-4.471-9.662-4.629-14.899-.101-3.581.879-7.399 2.264-10.665A23.335 23.335 0 016.199 10.7c3.187-4.145 7.76-6.881 12.726-8.323h.01s.114-.045.181-.056c.665-.192 1.34-.36 2.027-.507a37.87 37.87 0 016.69-.8 40.57 40.57 0 011.655 0c.18 0 .36.012.54.023a28.42 28.42 0 015.09.586c.057 0 .113.022.159.033 2.004.428 3.93 1.07 5.698 1.971m34.889 1.34C90.887 9.787 90.628 25.6 90.605 26.274c.023.71.26 16.499-14.651 21.341l-.18.057h-.012" stroke="#181C4B" stroke-miterlimit="10" stroke-linecap="round"/><path d="M79.647 49.17h.012c5.54-1.532 9.921-4.595 12.77-8.65a22.034 22.034 0 002.467-4.617c1.509-3.84 1.96-7.67 1.903-9.629-.079-2.826-.766-8.773-4.144-13.92-2.726-4.132-6.678-7.083-12.197-8.693" stroke="#181C4B" stroke-miterlimit="10" stroke-linecap="round"/><path d="M82.857 50.847c.72-.157 1.441-.326 2.15-.54.091-.023.181-.045.26-.079.011.011.011 0 .011 0 4.888-1.453 9.381-4.178 12.523-8.266a23.318 23.318 0 002.928-5.023c1.385-3.266 2.365-7.083 2.264-10.665-.158-5.236-1.678-10.552-4.629-14.899-3.3-4.831-7.714-7.523-13.22-9.01 0 0-.046-.01-.069-.022" stroke="#181C4B" stroke-miterlimit="10" stroke-linecap="round"/><path d="M28.25 4.967c4.865 2.253 9.752 6.363 14.19 14.37l.889 1.69a64.33 64.33 0 012.387 5.304c.068.146.124.293.18.439a74.795 74.795 0 002.929 6.51c.123.247.247.472.371.709a123.1 123.1 0 001.768 3.074c.35.563.699 1.104 1.059 1.622 3.57 5.315 7.376 8.502 11.003 10.35 5.89 2.995 13.446 3.164 19.831 1.813l2.151-.541c.09-.023.18-.045.26-.079h.033" stroke="#181C4B" stroke-miterlimit="10" stroke-linecap="round"/><path d="M85.301 50.228h-.034c-.461-.022-2.05.18-2.443.146a60.534 60.534 0 01-5.428-.675h-.012a35.68 35.68 0 01-4.696-1.126c-3.03-.913-5.845-2.253-8.288-4.212-2.422-2.005-4.685-4.527-6.735-7.613-.214-.237-.844-1.397-1.059-1.656a39.285 39.285 0 01-1.227-2.173 22.104 22.104 0 01-.484-.901 60.152 60.152 0 01-.62-1.183c-.518-1.036-1.058-2.094-1.599-3.164-.225-.45-.45-.89-.675-1.34a547.09 547.09 0 00-2.906-5.755 30.91 30.91 0 00-.45-.845 43.712 43.712 0 00-2.748-4.504c-.226-.248-.89-1.318-1.115-1.532-3.92-5.113-8.041-7.714-11.757-9.234a18.364 18.364 0 00-1.262-.485" stroke="#181C4B" stroke-miterlimit="10" stroke-linecap="round"/><path d="M85.301 50.228h-.034a27.488 27.488 0 01-5.608-1.059h-.011a25.345 25.345 0 01-3.874-1.497h-.011c-7.197-3.446-12.23-9.832-15.44-16.758l-.845-1.802a74.02 74.02 0 01-1.182-2.781v-.023a7.746 7.746 0 01-.192-.45 72.443 72.443 0 00-2.916-6.487c-1.037-2.016-2.095-3.818-3.176-5.417C46.493 5.778 40.457 2.58 35.277 1.656c-.045 0-.102-.022-.158-.033" stroke="#181C4B" stroke-miterlimit="10" stroke-linecap="round"/><path d="M7.303 29.18a2.853 2.853 0 01-2.85-2.85 2.845 2.845 0 012.85-2.848 2.845 2.845 0 012.849 2.849 2.845 2.845 0 01-2.85 2.85z" fill="#5DBDF0"/><path d="M7.303 24.169c1.193 0 2.173.968 2.173 2.173a2.168 2.168 0 01-2.173 2.174 2.168 2.168 0 01-2.174-2.174c0-1.205.969-2.173 2.174-2.173zm0-1.352a3.53 3.53 0 00-3.525 3.525 3.523 3.523 0 003.525 3.525 3.523 3.523 0 003.525-3.525 3.523 3.523 0 00-3.525-3.525z" fill="#fff"/><path d="M52.023 28.504a2.173 2.173 0 100-4.347 2.173 2.173 0 000 4.347zm44.709 0a2.173 2.173 0 100-4.347 2.173 2.173 0 000 4.347z" fill="#fff" stroke="#181C4B" stroke-miterlimit="10"/></svg>