<svg width="326" height="164" fill="none" xmlns="http://www.w3.org/2000/svg"><path d="M98.09 144.248c-13.594 6.179-28.898-.827-38.806-10.718-7.705-7.696-12.857-17.697-15.802-28.181-7.123-25.353-1.68-55.656 16.974-74.906C67.89 22.77 77.252 17.268 87.385 13.97c7.37-2.397 14.932-4.405 22.701-4.85 6.337-.365 13.369-.553 19.572.937" stroke="#4A5C76" stroke-miterlimit="10" stroke-linecap="round"/><path d="M128.573 9.516c-9.158-2.042-17.265-2.407-26.396-1.346-8.988 1.044-18.006 3.37-25.654 6.62-10.839 4.607-20.917 12.342-28.034 21.792a64.023 64.023 0 00-1.583 2.196c-3.173 4.629-5.617 9.456-7.475 14.199-5.422 13.941-5.75 26.772-5.694 29.604.078 3.912.566 24.107 12.178 42.202 5.81 9.051 14.28 16.65 23.816 21.607 5.57 2.892 13.667 4.696 19.977 2.705" stroke="#4A5C76" stroke-miterlimit="10" stroke-linecap="round"/><path d="M81.741 152.573c-12.529 1.104-33.697-14.334-41.764-26.725-11.214-17.219-12.53-36.784-12.69-43.244-.114-4.542.75-17.249 5.999-30.467a70.456 70.456 0 017.836-14.554c8.133-11.475 20.756-21.587 37.315-26.648 9.33-2.906 18.896-4.459 28.71-4.606 7.287-.07 15.789 1.386 22.511 3.729" stroke="#4A5C76" stroke-miterlimit="10" stroke-linecap="round"/><path d="M129.658 10.061c-10.25-4.495-23.217-6.557-34.709-6.139-.003-.003-.006 0-.006 0-8.69.345-17.132 1.597-25.453 3.98-16.59 4.743-30.785 14.621-40.161 27.24a71.243 71.243 0 00-8.57 15.267c-4.836 11.793-6.834 24.225-6.603 32.195.31 11.558 3.387 29.798 13.71 45.319 9.276 13.935 23.917 23.424 41.473 28.432" stroke="#4A5C76" stroke-miterlimit="10" stroke-linecap="round"/><path d="M63.491 157.483c-17.493-4.884-31.82-13.898-41.677-28.519-9.851-14.691-13.824-32.248-14.22-46.357C7.315 72.93 9.892 60.64 14.5 49.55c2.303-5.503 5.279-10.778 8.93-15.625C32.432 21.992 45.844 12.67 59.943 7.96c15.97-5.332 33.158-6.899 49.805-4.238 6.835 1.095 13.563 3.555 19.909 6.337" stroke="#4A5C76" stroke-miterlimit="10" stroke-linecap="round"/><path d="M129.658 10.058c-5.657-2.886-12.563-5.885-18.769-7.06C104.6 1.807 98.544 1.087 92.148 1.01 74.363.8 57.11 3.909 41.413 12.541c-9.185 5.052-17.46 11.85-23.877 20.165-3.776 4.897-6.885 10.29-9.299 15.98C3.83 59.066.693 71.22 1.024 82.607c.489 16.663 5.322 33.557 14.735 47.401 10.413 15.318 23.896 23.78 41.312 28.533" stroke="#4A5C76" stroke-miterlimit="10" stroke-linecap="round"/><path d="M129.658 10.061c-8.288-3.287-18.735-5.058-27.89-4.917-3.424.05-6.838.291-10.162.683A109.9 109.9 0 0080.7 7.655c-2.189.438-4.579 1.148-6.731 1.764-16.576 4.9-29.982 14.898-38.738 26.942a70.757 70.757 0 00-8.205 14.912c-5.047 12.502-6.467 25.075-6.303 31.328.241 9.014 2.427 27.916 13.206 44.281 8.662 13.162 22.778 22.932 40.294 28.081" stroke="#4A5C76" stroke-miterlimit="10" stroke-linecap="round"/><path d="M57.075 158.542a107.231 107.231 0 0032.174 4.442c5.316-.077 10.527-.666 14.705-1.286 17.69-1.563 39.196-10.466 58.858-39.645" stroke="url(#paint0_linear_3612_10001)" stroke-linecap="round" stroke-linejoin="round"/><path d="M57.038 158.649c9.742 2.341 20.076 3.399 30.686 2.813 4.981-.271 9.859-1.095 13.913-1.788 17.573-3.001 38.761-12.531 57.78-42.844" stroke="url(#paint1_linear_3612_10001)" stroke-linecap="round" stroke-linejoin="round"/><path d="M57.075 158.542c9.302 1.653 19.113 2.199 29.188 1.185 4.646-.469 9.205-1.4 13.125-2.293 17.57-4 38.274-14.638 56.634-46.35" stroke="url(#paint2_linear_3612_10001)" stroke-linecap="round" stroke-linejoin="round"/><path d="M152.707 104.717a185.677 185.677 0 01-2.085 3.816c-17.155 30.166-36.643 41.878-53.524 46.769-3.772 1.094-8.02 2.142-12.328 2.798-9.543 1.449-18.832 1.403-27.695.442" stroke="url(#paint3_linear_3612_10001)" stroke-linecap="round" stroke-linejoin="round"/><path d="M57.075 158.542c8.421.267 17.195-.171 26.206-2.069 3.973-.84 7.91-2.005 11.531-3.3 16.081-5.751 33.925-17.892 49.768-45.972.448-.773 2.782-5.165 3.22-6.009a199.029 199.029 0 001.687-3.377" stroke="url(#paint4_linear_3612_10001)" stroke-linecap="round" stroke-linejoin="round"/><path d="M57.075 158.542c7.983-.422 16.24-1.332 24.713-3.699a84.475 84.475 0 0010.741-3.802c15.291-6.601 31.478-19.18 46.019-45.176.224-.381 2.808-5.272 3.029-5.69a201.389 201.389 0 004.68-9.868" stroke="url(#paint5_linear_3612_10001)" stroke-linecap="round" stroke-linejoin="round"/><path d="M57.075 158.542c2.031-.302 4.083-.63 6.152-1.008h.007c6.386-1.165 12.924-2.775 19.515-5.345 16.974-6.618 34.229-19.596 49.761-47.656l2.838-5.383c2.598-5.138 5.145-10.754 7.612-16.9" stroke="url(#paint6_linear_3612_10001)" stroke-linecap="round" stroke-linejoin="round"/><path d="M142.953 82.232l-.007.014" stroke="url(#paint7_linear_3612_10001)" stroke-linecap="round" stroke-linejoin="round"/><path d="M163.275 42.285C182.924 13.157 204.36 4.357 222.04 2.797c4.178-.622 9.389-1.211 14.702-1.288 11.146-.161 21.924 1.369 32.107 4.405" stroke="url(#paint8_linear_3612_10001)" stroke-linecap="round" stroke-linejoin="round"/><path d="M166.702 47.608c19.009-30.25 40.071-39.682 57.621-42.678 4.057-.697 8.934-1.517 13.914-1.788a105.688 105.688 0 0130.611 2.775" stroke="url(#paint9_linear_3612_10001)" stroke-linecap="round" stroke-linejoin="round"/><path d="M170.072 53.348c18.35-31.635 38.983-42.29 56.536-46.286 3.917-.894 8.479-1.825 13.118-2.293 10.079-1.011 19.82-.506 29.122 1.148" stroke="url(#paint10_linear_3612_10001)" stroke-linecap="round" stroke-linejoin="round"/><path d="M173.272 59.568c.834-1.557 1.677-2.883 2.099-3.605 17.155-30.166 36.643-41.879 53.524-46.769 3.769-1.095 8.02-2.142 12.328-2.798 9.543-1.45 18.761-1.44 27.628-.48" stroke="url(#paint11_linear_3612_10001)" stroke-linecap="round" stroke-linejoin="round"/><path d="M176.472 66.647c.579-1.188 1.135-2.206 1.717-3.347.439-.844 2.772-5.235 3.217-6.008C197.252 29.21 215.097 17.07 231.18 11.32c3.622-1.296 7.562-2.464 11.532-3.3 9.008-1.899 17.711-2.374 26.136-2.106" stroke="url(#paint12_linear_3612_10001)" stroke-linecap="round" stroke-linejoin="round"/><path d="M179.746 74.078c1.53-3.464 3.093-6.651 4.673-9.757.218-.419 2.805-5.31 3.029-5.69 14.541-25.996 30.722-38.575 46.016-45.176a83.942 83.942 0 0110.744-3.802c8.469-2.367 16.657-3.314 24.643-3.736" stroke="url(#paint13_linear_3612_10001)" stroke-linecap="round" stroke-linejoin="round"/><path d="M183.053 82.068a210.586 210.586 0 017.595-16.723l2.839-5.382c18.233-32.945 38.798-45.119 58.524-50.608h.003c1.764-.496 3.515-.93 5.266-1.33 1.898-.428 3.792-.806 5.67-1.144a178.83 178.83 0 015.905-.964" stroke="url(#paint14_linear_3612_10001)" stroke-linecap="round" stroke-linejoin="round"/><path d="M250.924 145.182c-22.22 9.499-47.438-20.168-60.288-46.213-5.075-9.647-9.286-21.861-14.066-32.084-12.944-31.17-39.311-60.85-68.978-64.339" stroke="url(#paint15_linear_3612_10001)" stroke-miterlimit="10" stroke-linecap="round"/><path d="M239.553 150.196c-20.767-.717-34.752-19.244-48.593-39.85-6.946-10.862-12.72-25.352-18.236-37.058-10.487-22.24-32.315-57.56-55.468-64.482" stroke="url(#paint16_linear_3612_10001)" stroke-miterlimit="10" stroke-linecap="round"/><path d="M232.401 152.392c-18.795-2.501-29.557-16.469-43.964-36.061-8.873-12.629-15.019-27.739-22.125-41.74-11.137-23.515-33.788-58.317-55.971-65.393" stroke="url(#paint17_linear_3612_10001)" stroke-miterlimit="10" stroke-linecap="round"/><path d="M224.575 154.246c-14.119-.438-30.779-20.435-42.197-36.814-7.123-9.951-14.303-25.292-19.749-36.013-5.824-11.481-11.715-24.181-18.959-34.444-11.424-16.382-30.025-36.204-42.172-36.767" stroke="url(#paint18_linear_3612_10001)" stroke-miterlimit="10" stroke-linecap="round"/><path d="M215.753 155.337c-24.217-7.103-44.864-41.988-56.017-65.52-7.053-13.868-13.282-29.185-22.129-41.74-14.46-19.643-25.068-33.47-43.933-36.018" stroke="url(#paint19_linear_3612_10001)" stroke-miterlimit="10" stroke-linecap="round"/><path d="M208.684 155.585c-24.974-7.156-44.887-42.25-55.358-64.466-5.827-12.331-11.076-25.787-18.239-37.054-13.942-20.697-27.746-38.976-48.643-39.78" stroke="url(#paint20_linear_3612_10001)" stroke-miterlimit="10" stroke-linecap="round"/><path d="M196.41 154.387c-19.481-10.548-37.272-33.671-46.936-56.868-4.803-10.196-8.984-22.457-14.065-32.084-12.847-26.038-37.962-55.712-60.181-46.21" stroke="url(#paint21_linear_3612_10001)" stroke-miterlimit="10" stroke-linecap="round"/><path d="M227.914 20.244c13.593-6.18 28.897.826 38.805 10.718 7.706 7.695 12.857 17.697 15.803 28.18 7.123 25.353 1.68 55.656-16.974 74.907-7.435 7.672-16.797 13.175-26.929 16.472-7.371 2.396-14.933 4.405-22.702 4.85-6.336.365-13.302.505-19.504-.984" stroke="url(#paint22_linear_3612_10001)" stroke-miterlimit="10" stroke-linecap="round"/><path d="M196.409 154.387c7.689 2.48 18.286 2.992 27.418 1.935 8.987-1.045 18.005-3.371 25.654-6.621 10.838-4.606 20.917-12.342 28.033-21.791a64.682 64.682 0 001.584-2.196c3.173-4.629 5.616-9.456 7.474-14.199 5.423-13.942 5.751-26.772 5.694-29.604-.077-3.913-.566-24.107-12.178-42.203-5.811-9.05-14.279-16.65-23.816-21.607-5.57-2.892-13.667-4.696-19.976-2.704" stroke="url(#paint23_linear_3612_10001)" stroke-miterlimit="10" stroke-linecap="round"/><path d="M244.262 11.919c12.529-1.105 33.698 14.333 41.765 26.725 11.213 17.218 12.528 36.783 12.689 43.244.114 4.542-.75 17.248-5.998 30.467a70.5 70.5 0 01-7.836 14.554c-8.134 11.474-20.757 21.587-37.316 26.648-9.329 2.905-18.896 4.458-28.71 4.606-7.287.07-15.725-1.43-22.447-3.773" stroke="url(#paint24_linear_3612_10001)" stroke-miterlimit="10" stroke-linecap="round"/><path d="M196.409 154.387c10.25 4.495 23.153 6.601 34.645 6.182.003.004.006 0 .006 0 8.69-.344 17.132-1.596 25.453-3.98 16.59-4.743 30.785-14.621 40.161-27.24a71.243 71.243 0 008.569-15.267c4.837-11.793 6.836-24.224 6.605-32.194-.312-11.559-3.388-29.798-13.711-45.32-9.275-13.934-23.916-23.424-41.473-28.432" stroke="url(#paint25_linear_3612_10001)" stroke-miterlimit="10" stroke-linecap="round"/><path d="M262.512 7.008c17.493 4.884 31.82 13.898 41.677 28.52 9.852 14.69 13.825 32.247 14.22 46.356.281 9.677-2.296 21.968-6.906 33.058-2.303 5.503-5.278 10.778-8.93 15.625-9.001 11.933-22.414 21.256-36.513 25.965-15.973 5.336-33.161 6.902-49.808 4.238-6.835-1.095-13.499-3.602-19.846-6.383" stroke="url(#paint26_linear_3612_10001)" stroke-miterlimit="10" stroke-linecap="round"/><path d="M196.409 154.387c5.657 2.885 12.499 5.928 18.705 7.106 6.289 1.192 12.345 1.911 18.741 1.988 17.785.211 35.037-2.898 50.736-11.531 9.185-5.051 17.459-11.849 23.876-20.164 3.776-4.897 6.885-10.29 9.299-15.98 4.405-10.38 7.541-22.534 7.21-33.922-.489-16.663-5.322-33.556-14.735-47.4-10.414-15.318-23.896-23.78-41.313-28.533" stroke="url(#paint27_linear_3612_10001)" stroke-miterlimit="10" stroke-linecap="round"/><path d="M196.409 154.387c8.288 3.287 18.671 5.101 27.826 4.961 3.425-.051 6.839-.292 10.163-.683a109.83 109.83 0 0010.905-1.828c2.189-.438 4.579-1.148 6.732-1.764 16.576-4.9 29.981-14.899 38.738-26.942a70.722 70.722 0 008.204-14.913c5.048-12.502 6.467-25.074 6.303-31.327-.241-9.014-2.427-27.917-13.205-44.281-8.663-13.162-22.778-22.933-40.295-28.081" stroke="url(#paint28_linear_3612_10001)" stroke-miterlimit="10" stroke-linecap="round"/><defs><linearGradient id="paint0_linear_3612_10001" x1="163.551" y1="142.523" x2="56.34" y2="142.523" gradientUnits="userSpaceOnUse"><stop stop-color="#fff"/><stop offset="1" stop-color="#9C9EB2"/></linearGradient><linearGradient id="paint1_linear_3612_10001" x1="160.132" y1="139.224" x2="56.327" y2="139.224" gradientUnits="userSpaceOnUse"><stop stop-color="#fff"/><stop offset="1" stop-color="#9C9EB2"/></linearGradient><linearGradient id="paint2_linear_3612_10001" x1="156.713" y1="135.66" x2="56.388" y2="135.66" gradientUnits="userSpaceOnUse"><stop stop-color="#fff"/><stop offset="1" stop-color="#9C9EB2"/></linearGradient><linearGradient id="paint3_linear_3612_10001" x1="153.375" y1="131.973" x2="56.411" y2="131.973" gradientUnits="userSpaceOnUse"><stop stop-color="#fff"/><stop offset="1" stop-color="#9C9EB2"/></linearGradient><linearGradient id="paint4_linear_3612_10001" x1="150.133" y1="128.213" x2="56.433" y2="128.213" gradientUnits="userSpaceOnUse"><stop stop-color="#fff"/><stop offset="1" stop-color="#9C9EB2"/></linearGradient><linearGradient id="paint5_linear_3612_10001" x1="146.88" y1="124.423" x2="56.456" y2="124.423" gradientUnits="userSpaceOnUse"><stop stop-color="#fff"/><stop offset="1" stop-color="#9C9EB2"/></linearGradient><linearGradient id="paint6_linear_3612_10001" x1="143.56" y1="120.394" x2="56.478" y2="120.394" gradientUnits="userSpaceOnUse"><stop stop-color="#fff"/><stop offset="1" stop-color="#9C9EB2"/></linearGradient><linearGradient id="paint7_linear_3612_10001" x1="142.953" y1="82.239" x2="142.946" y2="82.239" gradientUnits="userSpaceOnUse"><stop stop-color="#9C9EB2" stop-opacity=".05"/><stop offset="1" stop-color="#fff"/></linearGradient><linearGradient id="paint8_linear_3612_10001" x1="269.586" y1="21.89" x2="162.542" y2="21.89" gradientUnits="userSpaceOnUse"><stop stop-color="#9C9EB2" stop-opacity=".05"/><stop offset="1" stop-color="#fff"/></linearGradient><linearGradient id="paint9_linear_3612_10001" x1="269.562" y1="25.293" x2="165.993" y2="25.293" gradientUnits="userSpaceOnUse"><stop stop-color="#9C9EB2" stop-opacity=".05"/><stop offset="1" stop-color="#fff"/></linearGradient><linearGradient id="paint10_linear_3612_10001" x1="269.538" y1="28.797" x2="169.386" y2="28.797" gradientUnits="userSpaceOnUse"><stop stop-color="#9C9EB2" stop-opacity=".05"/><stop offset="1" stop-color="#fff"/></linearGradient><linearGradient id="paint11_linear_3612_10001" x1="269.519" y1="32.404" x2="172.609" y2="32.404" gradientUnits="userSpaceOnUse"><stop stop-color="#9C9EB2" stop-opacity=".05"/><stop offset="1" stop-color="#fff"/></linearGradient><linearGradient id="paint12_linear_3612_10001" x1="269.493" y1="36.245" x2="175.831" y2="36.245" gradientUnits="userSpaceOnUse"><stop stop-color="#9C9EB2" stop-opacity=".05"/><stop offset="1" stop-color="#fff"/></linearGradient><linearGradient id="paint13_linear_3612_10001" x1="269.474" y1="39.996" x2="179.127" y2="39.996" gradientUnits="userSpaceOnUse"><stop stop-color="#9C9EB2" stop-opacity=".05"/><stop offset="1" stop-color="#fff"/></linearGradient><linearGradient id="paint14_linear_3612_10001" x1="269.454" y1="43.991" x2="182.457" y2="43.991" gradientUnits="userSpaceOnUse"><stop stop-color="#9C9EB2" stop-opacity=".05"/><stop offset="1" stop-color="#fff"/></linearGradient><linearGradient id="paint15_linear_3612_10001" x1="251.925" y1="74.767" x2="106.597" y2="74.767" gradientUnits="userSpaceOnUse"><stop stop-color="#fff"/><stop offset=".484" stop-color="#9C9EB2"/><stop offset="1" stop-color="#4A5C76"/></linearGradient><linearGradient id="paint16_linear_3612_10001" x1="240.407" y1="79.497" x2="116.407" y2="79.497" gradientUnits="userSpaceOnUse"><stop stop-color="#fff"/><stop offset=".484" stop-color="#9C9EB2"/><stop offset="1" stop-color="#4A5C76"/></linearGradient><linearGradient id="paint17_linear_3612_10001" x1="233.253" y1="80.791" x2="109.494" y2="80.791" gradientUnits="userSpaceOnUse"><stop stop-color="#fff"/><stop offset=".484" stop-color="#9C9EB2"/><stop offset="1" stop-color="#4A5C76"/></linearGradient><linearGradient id="paint18_linear_3612_10001" x1="225.434" y1="82.224" x2="100.643" y2="82.224" gradientUnits="userSpaceOnUse"><stop stop-color="#fff"/><stop offset=".484" stop-color="#9C9EB2"/><stop offset="1" stop-color="#4A5C76"/></linearGradient><linearGradient id="paint19_linear_3612_10001" x1="216.606" y1="83.695" x2="92.826" y2="83.695" gradientUnits="userSpaceOnUse"><stop stop-color="#fff"/><stop offset=".484" stop-color="#9C9EB2"/><stop offset="1" stop-color="#4A5C76"/></linearGradient><linearGradient id="paint20_linear_3612_10001" x1="209.538" y1="84.932" x2="85.595" y2="84.932" gradientUnits="userSpaceOnUse"><stop stop-color="#fff"/><stop offset=".484" stop-color="#9C9EB2"/><stop offset="1" stop-color="#4A5C76"/></linearGradient><linearGradient id="paint21_linear_3612_10001" x1="197.257" y1="85.896" x2="74.386" y2="85.896" gradientUnits="userSpaceOnUse"><stop stop-color="#fff"/><stop offset=".484" stop-color="#9C9EB2"/><stop offset="1" stop-color="#4A5C76"/></linearGradient><linearGradient id="paint22_linear_3612_10001" x1="286.158" y1="86.761" x2="195.794" y2="86.761" gradientUnits="userSpaceOnUse"><stop stop-color="#DEDEE6"/><stop offset=".906" stop-color="#fff"/></linearGradient><linearGradient id="paint23_linear_3612_10001" x1="292.941" y1="85.695" x2="195.744" y2="85.695" gradientUnits="userSpaceOnUse"><stop stop-color="#DEDEE6"/><stop offset=".906" stop-color="#fff"/></linearGradient><linearGradient id="paint24_linear_3612_10001" x1="299.44" y1="85.01" x2="195.699" y2="85.01" gradientUnits="userSpaceOnUse"><stop stop-color="#DEDEE6"/><stop offset=".906" stop-color="#fff"/></linearGradient><linearGradient id="paint25_linear_3612_10001" x1="312.672" y1="84.375" x2="195.608" y2="84.375" gradientUnits="userSpaceOnUse"><stop stop-color="#DEDEE6"/><stop offset=".906" stop-color="#fff"/></linearGradient><linearGradient id="paint26_linear_3612_10001" x1="319.282" y1="84.522" x2="195.559" y2="84.522" gradientUnits="userSpaceOnUse"><stop stop-color="#DEDEE6"/><stop offset=".906" stop-color="#fff"/></linearGradient><linearGradient id="paint27_linear_3612_10001" x1="325.898" y1="84.717" x2="195.516" y2="84.717" gradientUnits="userSpaceOnUse"><stop stop-color="#DEDEE6"/><stop offset=".906" stop-color="#fff"/></linearGradient><linearGradient id="paint28_linear_3612_10001" x1="306.053" y1="84.439" x2="195.653" y2="84.439" gradientUnits="userSpaceOnUse"><stop stop-color="#DEDEE6"/><stop offset=".906" stop-color="#fff"/></linearGradient></defs></svg>