<svg width="52" height="27" fill="none" xmlns="http://www.w3.org/2000/svg"><path d="M37.956.166c-5.974 0-8.724 2.616-10.888 5.272.968 1.058 2.665 4.492 2.973 5.289 1.044-1.907 3.213-5.03 5.508-6.693a3.972 3.972 0 014.7.011c2.667 1.978 4.85 5.951 3.772 11.413-.738 3.742-2.355 5.802-4.006 6.896a3.95 3.95 0 01-4.581-.16c-1.783-1.37-4.587-4.123-6.668-9.805C24.34.317 16.37.166 14.11.166 3.936.166.095 6.804.177 13.774.254 20.159 5.104 26.18 13.842 26.18c6.158 0 8.7-3.366 10.405-5.377-1.716-2.384-2.61-4.37-2.956-5.233-1.11 2.03-3.158 4.972-5.28 6.601a3.953 3.953 0 01-4.606.143c-2.024-1.365-3.63-3.709-4.149-6.98-.937-5.921 1.65-9.625 4.146-11.37a3.96 3.96 0 014.84.22c1.694 1.446 3.964 4.042 5.549 7.932 2.168 5.327 6.21 14.067 15.463 14.009 7.477-.047 13.942-4.396 13.942-13.025 0-8.63-7.737-12.935-13.237-12.935h-.003z" fill="#181C4B"/></svg>