<svg width="1244" height="626" fill="none" xmlns="http://www.w3.org/2000/svg"><g stroke="#4A5C76" stroke-width="2.5" stroke-linecap="round"><g stroke-miterlimit="10"><path d="M373.184 550.48c-52.048 23.659-110.645-3.166-148.581-41.038-29.504-29.465-49.228-67.761-60.507-107.902-27.273-97.072-6.434-213.099 64.992-286.807 28.466-29.375 64.313-50.445 103.109-63.07 28.222-9.176 57.174-16.866 86.921-18.57 24.262-1.398 51.189-2.115 74.938 3.588"/><path d="M489.903 34.605c-35.066-7.818-66.107-9.215-101.07-5.152-34.413 3.998-68.94 12.906-98.226 25.35-41.5 17.636-80.09 47.255-107.338 83.436a245.429 245.429 0 00-6.062 8.407c-12.15 17.726-21.506 36.207-28.619 54.368-20.763 53.38-22.019 102.506-21.801 113.349.295 14.982 2.166 92.304 46.626 161.59 22.25 34.655 54.675 63.749 91.19 82.73 21.326 11.073 52.329 17.981 76.488 10.356"/><path d="M310.587 582.355c-47.972 4.23-129.024-54.88-159.911-102.326-42.935-65.928-47.972-140.841-48.587-165.576-.436-17.392 2.87-66.044 22.967-116.656 7.497-18.904 17.392-37.796 30.003-55.726 31.144-43.935 79.475-82.653 142.878-102.032 35.719-11.124 72.349-17.071 109.927-17.635 27.901-.27 60.455 5.306 86.19 14.277"/><path d="M494.055 36.694c-39.244-17.213-88.894-25.108-132.893-23.506-.013-.013-.026 0-.026 0-33.272 1.32-65.595 6.114-97.456 15.239-63.519 18.16-117.873 55.982-153.772 104.3-13.535 18.341-24.467 38.104-32.81 58.456-18.52 45.153-26.172 92.753-25.287 123.269 1.191 44.255 12.97 114.092 52.496 173.522 35.514 53.355 91.573 89.69 158.796 108.863"/><path d="M240.711 601.157c-66.979-18.7-121.833-53.214-159.578-109.197-37.718-56.251-52.931-123.473-54.444-177.495-1.076-37.052 8.792-84.114 26.44-126.575 8.818-21.071 20.212-41.269 34.195-59.828 34.463-45.69 85.819-81.384 139.802-99.417C288.273 8.23 354.086 2.23 417.822 12.42c26.171 4.191 51.932 13.612 76.232 24.262"/><path d="M494.055 36.681c-21.66-11.048-48.1-22.531-71.862-27.03-24.082-4.562-47.267-7.318-71.759-7.613-68.094-.807-134.15 11.1-194.259 44.153-35.169 19.34-66.85 45.37-91.42 77.206-14.457 18.751-26.363 39.398-35.604 61.186C12.27 224.327.262 270.864 1.53 314.465c1.872 63.8 20.379 128.485 56.418 181.494 39.872 58.648 91.497 91.048 158.181 109.248"/><path d="M494.055 36.694c-31.734-12.586-71.734-19.366-106.787-18.827-13.111.192-26.184 1.115-38.911 2.614-.012-.013-.025-.013-.038 0a420.86 420.86 0 00-41.718 6.998c-8.382 1.679-17.533 4.396-25.774 6.754C217.36 52.997 166.03 91.28 132.503 137.393c-13.073 18.123-23.493 37.463-31.414 57.097-19.327 47.87-24.761 96.009-24.133 119.95.923 34.514 9.292 106.889 50.561 169.549 33.169 50.394 87.216 87.805 154.285 107.517"/></g><g stroke-linejoin="round"><path d="M216.143 605.211c38.974 11.612 80.525 17.635 123.191 17.007 20.353-.294 40.308-2.55 56.303-4.921 67.735-5.985 150.079-40.075 225.363-151.796"/><path d="M216 605.622c37.302 8.962 76.872 13.014 117.494 10.77 19.073-1.038 37.75-4.193 53.273-6.847C454.051 598.057 535.179 561.565 608 445.5"/><path d="M216.143 605.211c35.617 6.331 73.182 8.42 111.759 4.537 17.789-1.795 35.245-5.358 50.253-8.78C445.429 585.653 524.702 544.923 595 423.5"/><path d="M582.309 399.122c-3.217 5.998-6.37 11.804-7.985 14.611C508.64 529.235 434.022 574.08 369.389 592.804c-14.444 4.191-30.708 8.203-47.203 10.715-36.54 5.55-72.105 5.37-106.043 1.692"/><path d="M216.143 605.211c32.246 1.025 65.838-.654 100.34-7.921 15.213-3.217 30.285-7.677 44.152-12.637 61.571-22.019 129.895-68.504 190.556-176.021 1.717-2.961 10.65-19.776 12.329-23.006a756.537 756.537 0 006.46-12.932"/><path d="M216.143 605.211c30.567-1.615 62.185-5.101 94.624-14.162a323.818 323.818 0 0041.128-14.56c58.545-25.274 120.526-73.438 176.2-172.971.859-1.461 10.753-20.186 11.599-21.788 6.062-11.906 12.035-24.492 17.918-37.783"/><path d="M216.143 605.211c7.779-1.154 15.636-2.41 23.556-3.858h.026c24.454-4.46 49.484-10.625 74.72-20.468 64.992-25.338 131.061-75.028 190.529-182.468l10.869-20.609c9.945-19.673 19.699-41.179 29.144-64.71m-.028-.068s-.013.039-.025.052m77.836-153.004C698.002 48.549 780.079 14.855 847.775 8.883c15.995-2.384 35.951-4.64 56.29-4.935C946.744 3.333 988.013 9.19 1027 20.815"/><path d="M635.893 180.457C708.677 64.635 789.318 28.518 856.515 17.047c15.534-2.666 34.207-5.806 53.278-6.844A404.678 404.678 0 011027 20.828"/><path d="M648.797 202.437c70.26-121.129 149.26-161.924 216.47-177.226 14.995-3.422 32.464-6.985 50.228-8.78 38.59-3.87 75.886-1.935 111.505 4.396"/><path d="M661.051 226.249c3.191-5.959 6.421-11.035 8.036-13.803C734.771 96.944 809.389 52.099 874.022 33.374c14.431-4.19 30.708-8.202 47.203-10.714 36.54-5.55 71.836-5.511 105.785-1.833"/><path d="M673.303 253.356c2.217-4.55 4.345-8.446 6.575-12.816 1.679-3.23 10.612-20.045 12.316-23.006C752.867 110.017 821.192 63.532 882.775 41.513c13.867-4.96 28.952-9.433 44.153-12.637 34.489-7.267 67.812-9.087 100.072-8.062"/><path d="M685.838 281.809c5.857-13.265 11.842-25.467 17.892-37.36.833-1.602 10.74-20.327 11.599-21.788C771.003 123.128 832.958 74.964 891.516 49.69a321.407 321.407 0 0141.141-14.56c32.426-9.06 63.775-12.688 94.353-14.303"/><path d="M698.5 312.402c9.446-23.506 19.135-44.371 29.081-64.031l10.868-20.609C808.26 101.622 887.005 55.009 962.532 33.99h.013c6.754-1.897 13.457-3.563 20.16-5.089a503.827 503.827 0 0121.715-4.383c7.6-1.384 15.13-2.589 22.6-3.69"/></g><g stroke-miterlimit="10"><path d="M958.369 554.057c-85.075 36.373-181.635-77.219-230.837-176.944-19.43-36.937-35.553-83.704-53.855-122.846C624.116 134.92 523.161 21.277 409.568 7.922"/><path d="M914.833 573.256c-79.514-2.743-133.061-73.682-186.057-152.58-26.594-41.589-48.703-97.072-69.824-141.891-40.154-85.153-123.73-220.392-212.382-246.896"/><path d="M887.444 581.664c-71.964-9.574-113.169-63.057-168.331-138.072-33.977-48.356-57.508-106.21-84.717-159.821-42.64-90.036-129.37-223.288-214.304-250.382"/><path d="M857.479 588.764c-54.06-1.679-117.847-78.244-161.564-140.955-27.274-38.104-54.765-96.842-75.617-137.893-22.301-43.96-44.858-92.586-72.593-131.881C503.962 115.311 432.741 39.412 386.23 37.259"/><path d="M823.707 592.942c-92.727-27.197-171.779-160.77-214.484-250.87-27.004-53.098-50.856-111.747-84.73-159.821-55.367-75.207-95.982-128.152-168.216-137.905"/><path d="M796.638 593.891c-95.623-27.402-171.869-161.77-211.958-246.833-22.314-47.216-42.41-98.738-69.837-141.878-53.381-79.244-106.236-149.235-186.249-152.31"/><path d="M749.641 589.302c-74.592-40.384-142.711-128.92-179.713-217.738-18.391-39.039-34.399-85.986-53.854-122.846-49.19-99.7-145.352-213.317-230.428-176.932"/></g><g stroke-miterlimit="10"><path d="M870.27 75.682c52.048-23.66 110.645 3.165 148.58 41.038 29.5 29.465 49.23 67.761 60.51 107.902 27.27 97.072 6.43 213.099-64.99 286.807-28.47 29.375-64.317 50.445-103.113 63.069-28.222 9.177-57.174 16.867-86.921 18.572-24.262 1.397-50.933 1.935-74.682-3.769"/><path d="M749.641 589.301c29.439 9.497 70.016 11.458 104.979 7.408 34.412-3.999 68.94-12.906 98.226-25.351 41.499-17.635 80.094-47.254 107.334-83.435 2.08-2.756 4.1-5.562 6.07-8.408 12.15-17.725 21.5-36.206 28.61-54.367 20.77-53.381 22.02-102.506 21.81-113.349-.3-14.982-2.17-92.304-46.63-161.59-22.25-34.656-54.68-63.749-91.19-82.73-21.326-11.074-52.329-17.982-76.488-10.356"/><path d="M932.865 43.806c47.972-4.229 129.025 54.88 159.915 102.327 42.93 65.928 47.97 140.84 48.58 165.576.44 17.392-2.87 66.043-22.96 116.656-7.5 18.904-17.4 37.795-30.01 55.725-31.14 43.935-79.47 82.654-142.875 102.032-35.72 11.125-72.349 17.072-109.927 17.636-27.902.269-60.212-5.473-85.947-14.444"/><path d="M749.641 589.301c39.244 17.213 88.651 25.274 132.65 23.672.013.013.026 0 .026 0 33.271-1.32 65.594-6.113 97.456-15.239 63.517-18.161 117.877-55.982 153.767-104.3 13.54-18.34 24.47-38.103 32.82-58.456 18.51-45.152 26.17-92.753 25.28-123.269-1.19-44.255-12.97-114.092-52.49-173.522-35.52-53.355-91.58-89.69-158.8-108.863"/><path d="M1002.74 25.005c66.98 18.7 121.83 53.214 159.58 109.196 37.72 56.252 52.93 123.474 54.44 177.495 1.08 37.053-8.79 84.115-26.44 126.576-8.81 21.07-20.21 41.269-34.19 59.827-34.46 45.691-85.82 81.385-139.8 99.417-61.164 20.43-126.976 26.428-190.712 16.226-26.172-4.191-51.689-13.791-75.989-24.441"/><path d="M749.641 589.301c21.659 11.048 47.856 22.698 71.618 27.21 24.082 4.562 47.267 7.318 71.759 7.612 68.094.808 134.152-11.099 194.262-44.152 35.17-19.34 66.85-45.371 91.42-77.207 14.45-18.75 26.36-39.397 35.6-61.185 16.87-39.744 28.88-86.281 27.61-129.882-1.87-63.801-20.38-128.485-56.42-181.494-39.87-58.648-91.5-91.049-158.18-109.248"/><path d="M749.641 589.302c31.733 12.585 71.49 19.532 106.543 18.994 13.111-.193 26.184-1.116 38.911-2.615.012.013.025.013.038 0a420.685 420.685 0 0041.718-6.998c8.382-1.679 17.533-4.396 25.774-6.754 63.465-18.763 114.795-57.046 148.325-103.16 13.07-18.122 23.49-37.462 31.41-57.097 19.33-47.87 24.76-96.008 24.14-119.949-.93-34.515-9.3-106.89-50.56-169.549-33.17-50.395-87.22-87.806-154.289-107.518"/></g></g></svg>