<svg width="1440" height="611" fill="none" xmlns="http://www.w3.org/2000/svg"><mask id="a" style="mask-type:alpha" maskUnits="userSpaceOnUse" x="0" y="-23" width="1440" height="634"><path fill="#F9F4F1" d="M0-23h1440v634H0z"/></mask><g opacity=".2"><g opacity=".8" stroke="#B2ABA5" stroke-width="2" stroke-linecap="round" mask="url(#a)"><path d="M525.643 890.222c-119.251 34.159-253.497-4.568-340.388-59.256-67.585-42.534-112.76-97.848-138.605-155.79-62.491-140.159-14.734-307.669 148.91-414.087 65.216-42.415 147.322-72.827 236.227-91.056 64.671-13.257 130.977-24.35 199.13-26.813 55.598-2.016 117.285-3.061 171.675 5.18" stroke-miterlimit="10"/><path d="M800.001 147.789c-81.5-13.235-158.423-15.692-238.539-9.825-78.837 5.763-157.935 18.633-225.046 36.608-95.088 25.47-183.472 68.228-245.892 120.467a393.88 393.88 0 00-13.882 12.152c-27.835 25.59-49.25 52.284-65.572 78.5-47.543 77.067-50.457 147.997-49.936 163.644.687 21.618 4.951 133.276 106.838 233.319 50.955 50.044 125.244 92.056 208.913 119.452 48.847 15.99 119.891 25.963 175.228 14.945" stroke-miterlimit="10"/><path d="M382.23 936.235c-109.893 6.106-295.568-79.231-366.351-147.728-98.357-95.191-109.894-203.341-111.315-239.053-.995-25.111 6.562-95.34 52.614-168.421 17.174-27.291 39.844-54.582 68.745-80.47C97.275 237.127 207.974 181.23 353.26 153.252c81.822-16.064 165.752-24.648 251.838-25.455 63.913-.388 138.403 8.333 197.448 20.618" stroke-miterlimit="10"/><path d="M802.546 148.401c-89.924-24.858-203.655-36.25-304.452-33.935-.023-.015-.071 0-.071 0-76.207 1.911-150.283 8.838-223.269 22.006-145.522 26.216-270.032 80.829-352.28 150.595-30.985 26.47-56.048 55.03-75.165 84.397-42.428 65.197-59.957 133.918-57.92 177.99 2.748 63.899 29.706 164.734 120.27 250.534 81.347 77.037 209.789 129.499 363.792 157.179" stroke-miterlimit="10"/><path d="M223.915 963.721C69.558 936.803-56.587 886.908-143.454 805.736c-86.394-81.217-121.265-178.275-124.747-256.282-2.487-53.508 20.136-121.437 60.573-182.753 20.207-30.412 46.288-59.599 78.34-86.368 78.979-65.974 196.619-117.511 320.299-143.548 140.121-29.486 290.878-38.145 436.898-23.424 59.957 6.046 119.091 18.673 174.635 35.024" stroke-miterlimit="10"/><path d="M802.545 148.385c-49.629-15.959-110.202-32.516-164.639-39.026-55.196-6.598-108.283-10.57-164.402-10.988-156.016-1.164-307.318 16.02-445.047 63.75-80.566 27.933-153.149 65.511-209.434 111.479-33.118 27.067-60.408 56.897-81.562 88.338-38.637 57.375-66.163 124.558-63.25 187.531 4.288 92.116 46.691 185.515 129.248 262.044 92.15 85.413 214.338 132.62 369.075 158.762" stroke-miterlimit="10"/><path d="M802.545 148.401c-73.045-17.943-164.331-27.964-244.661-27.172-30.037.283-59.98 1.597-89.142 3.777a.104.104 0 00-.094 0 1498 1498 0 00-95.586 10.107c-19.188 2.419-40.176 6.345-59.057 9.749C168.602 171.944 51.01 227.214-25.79 293.815c-29.967 26.171-53.846 54.09-71.968 82.441-44.275 69.109-56.735 138.621-55.29 173.198 2.132 49.82 21.296 154.328 115.816 244.801 75.994 72.767 199.817 126.782 353.441 155.238" stroke-miterlimit="10"/><path d="M165.854 969.23c70.048-2.344 142.465-7.36 216.754-20.453 31.91-5.614 63.748-12.72 94.212-21.021 134.127-36.488 276.119-106.03 403.661-249.743 1.966-2.12 24.637-29.142 26.579-31.456 13.882-17.199 27.574-35.369 41.03-54.553" stroke-linejoin="round"/><path d="M165.854 969.23c17.814-1.673 35.817-3.479 53.963-5.569h.071c56.025-6.435 113.376-15.348 171.177-29.546 148.886-36.592 300.259-108.329 436.495-263.448l24.897-29.754c22.789-28.411 45.151-59.465 66.78-93.43m-.05-.089s-.023.058-.07.072m177.673-220.224c172.38-161.046 361.02-210.358 516.11-218.987 36.65-3.434 82.37-6.689 128.96-7.122 97.77-.896 192.33 7.57 281.64 24.365" stroke-linejoin="round"/><path d="M1126.85 356.668c166.74-167.226 352.11-220.062 506.07-236.634 35.58-3.852 78.36-8.391 122.04-9.884 93.05-3.239 183.05 2.374 268.52 15.348" stroke-linejoin="round"/><path d="M1156.43 388.394c160.97-174.886 342.59-234.47 496.55-256.565 34.35-4.942 74.36-10.093 115.08-12.676 88.41-5.598 173.86-2.792 255.44 6.345" stroke-linejoin="round"/><path d="M1186.12 421.358c7.29-8.614 13.71-15.198 17.41-19.199C1354 235.395 1524.94 170.66 1673.02 143.608c33.07-6.047 70.36-11.839 108.14-15.467 83.7-8.017 164.59-7.958 242.34-2.643" stroke-linejoin="round"/><path d="M1214.07 460.324c5.07-6.569 9.1-11.286 14.19-17.602 3.84-4.658 24.3-28.933 28.21-33.218 139.01-155.238 295.52-222.347 436.59-254.132 31.77-7.166 66.33-13.615 101.18-18.259 79-10.495 155.35-13.123 229.26-11.645" stroke-linejoin="round"/><path d="M1243.02 501.112c13.43-19.155 26.03-35.562 39.89-52.746 1.9-2.315 24.61-29.352 26.58-31.457 127.54-143.712 269.49-213.254 403.64-249.742 30.48-8.301 62.32-15.408 94.26-21.021 74.28-13.079 146.11-18.319 216.13-20.663" stroke-linejoin="round"/><path d="M1271.87 545.692c21.63-33.95 42.85-63.287 65.67-91.668l24.89-29.755c159.93-182.111 340.34-249.429 513.35-279.78h.02c15.47-2.748 30.84-5.151 46.17-7.346 16.65-2.359 33.26-4.464 49.72-6.33 17.41-2.001 34.68-3.747 51.79-5.33" stroke-linejoin="round"/><path d="M1866.28 895.388c-194.92 52.507-416.12-111.495-528.81-255.476-44.51-53.328-81.45-120.855-123.38-177.378C1129.13 333.641 975.5 204.195 793 145.268" stroke-miterlimit="10"/><path d="M1767 923.29c-181.95-3.953-304.51-106.294-425.81-220.105-60.87-59.994-111.46-140.035-159.81-204.682C1088.74 374.687 897.681 177.809 693 141.802" stroke-miterlimit="10"/><path d="M1702.25 935.145c-164.87-13.81-257.73-90.936-384.11-199.25-77.85-69.826-131.74-153.342-194.09-230.767-97.69-129.992-298.968-322.95-493.55-362.066" stroke-miterlimit="10"/><path d="M1635.12 945.491c-123.87-2.419-269.96-112.972-370.14-203.52-62.47-55.016-125.48-139.816-173.22-199.101-51.07-63.466-102.782-133.665-166.293-190.413C825.239 261.895 661.577 152.17 555 149.05" stroke-miterlimit="10"/><path d="M1558.77 951.717c-212.42-39.265-394.54-232.32-492.38-362.401-61.85-76.679-116.501-161.345-194.106-230.752-126.831-108.583-217.868-184.709-383.36-198.788" stroke-miterlimit="10"/><path d="M1507.06 954.793c-224.36-34.786-403.48-233.35-496.9-358.281-51.126-68.168-97.177-142.563-159.977-204.849C727.9 277.258 606.306 176.502 423 172.053" stroke-miterlimit="10"/><path d="M1565.21 982.233c-225.56-8.092-474.73-177.677-588.835-350.323-42.119-56.36-78.79-124.14-123.373-177.364C740.313 310.595 517.39 147.261 322.5 199.783" stroke-miterlimit="10"/><path d="M1665.04 204.491c119.25-34.159 253.5 4.568 340.39 59.256 67.58 42.534 112.76 97.848 138.6 155.79 62.49 140.159 14.74 307.669-148.91 414.087-65.21 42.415-147.32 72.827-236.23 91.056-64.67 13.257-130.97 24.35-199.13 26.813-55.59 2.016-117.28 3.061-171.67-5.18" stroke-miterlimit="10"/><path d="M1397.66 949.313c80.33 11.287 151.44 13.302 231.56 7.435 78.84-5.763 157.94-18.632 225.05-36.607 95.08-25.47 183.47-68.228 245.89-120.467 4.76-3.986 9.4-8.032 13.88-12.153 27.84-25.589 49.25-52.283 65.57-78.5 47.55-77.066 50.46-147.997 49.94-163.643-.69-21.618-4.95-133.277-106.84-233.32-50.95-50.044-125.24-92.056-208.91-119.452-48.85-15.989-119.89-25.962-175.23-14.944" stroke-miterlimit="10"/><path d="M1808.45 158.478c109.9-6.107 295.57 79.231 366.35 147.728 98.36 95.191 109.9 203.341 111.32 239.053.99 25.111-6.56 95.34-52.62 168.421-17.17 27.291-39.84 54.582-68.74 80.47-71.35 63.436-182.05 119.332-327.34 147.311-81.82 16.064-165.75 24.648-251.84 25.454-63.91.389-138.5-7.658-197.44-20.617" stroke-miterlimit="10"/><path d="M1388.14 946.298c89.92 24.858 203.65 36.249 304.45 33.935.02.015.07 0 .07 0 76.21-1.911 150.28-8.839 223.27-22.007 145.52-26.216 270.03-80.828 352.28-150.594 30.98-26.471 56.05-55.031 75.16-84.397 42.43-65.198 59.96-133.919 57.92-177.991-2.74-63.899-29.7-164.733-120.27-250.534-81.34-77.036-209.79-129.499-363.79-157.179" stroke-miterlimit="10"/><path d="M1966.77 130.977c154.35 26.918 280.5 76.813 367.37 157.985 86.39 81.217 121.26 178.275 124.74 256.282 2.49 53.508-20.13 121.437-60.57 182.753-20.21 30.412-46.29 59.599-78.34 86.368-78.96 65.974-196.6 117.511-320.28 143.548-140.12 29.486-290.87 38.145-436.89 23.424-59.96-6.046-118.99-19.647-174.64-35.024" stroke-miterlimit="10"/><path d="M1388.14 946.328c49.63 15.959 110.2 32.516 164.64 39.026 55.19 6.598 108.28 10.57 164.4 10.988 156.01 1.164 307.32-16.02 445.04-63.75 80.57-27.933 153.15-65.511 209.44-111.479 33.12-27.067 60.41-56.897 81.56-88.338 38.64-57.375 66.14-124.558 63.25-187.531-4.29-92.116-46.69-185.515-129.25-262.044-92.15-85.413-214.34-132.62-369.07-158.762" stroke-miterlimit="10"/><path d="M1388.14 946.298c72.7 18.169 164.33 27.963 244.66 27.172 30.04-.284 59.98-1.598 89.14-3.778.02.015.07.015.09 0 32.48-2.388 64.18-5.762 95.59-10.107 19.19-2.418 40.18-6.345 59.06-9.749 145.4-27.082 262.99-82.352 339.79-148.953 29.97-26.171 53.85-54.089 71.97-82.441 44.27-69.109 56.73-138.621 55.29-173.198-2.13-49.82-21.3-154.327-115.82-244.801-75.99-72.767-199.81-126.782-353.44-155.238" stroke-miterlimit="10"/></g></g></svg>