<svg width="27" height="26" fill="none" xmlns="http://www.w3.org/2000/svg"><circle cx="13.657" cy="12.951" fill="#4A5C76" r="12.951"/><g clip-path="url(#clip0_1774_766)"><path d="M13.706 7.262c1.87 0 2.09.007 2.83.04 1.896.087 2.782.987 2.869 2.87.034.738.04.96.04 2.829 0 1.87-.007 2.09-.04 2.828-.087 1.881-.971 2.783-2.87 2.87-.738.033-.959.04-2.829.04-1.869 0-2.09-.007-2.829-.04-1.901-.087-2.783-.992-2.869-2.87-.034-.738-.04-.96-.04-2.829 0-1.869.007-2.09.04-2.829.087-1.882.97-2.783 2.87-2.869.738-.033.96-.04 2.828-.04zm0-1.262c-1.901 0-2.139.008-2.886.042-2.542.117-3.955 1.527-4.071 4.072-.035.747-.043.985-.043 2.886 0 1.901.008 2.14.042 2.886.117 2.543 1.527 3.955 4.072 4.072.747.034.985.042 2.886.042 1.901 0 2.14-.008 2.886-.042 2.54-.117 3.957-1.527 4.072-4.072.034-.746.042-.985.042-2.886 0-1.901-.008-2.14-.042-2.886-.114-2.54-1.527-3.955-4.071-4.071-.747-.035-.986-.043-2.887-.043zm0 3.405a3.595 3.595 0 100 7.19 3.595 3.595 0 000-7.19zm0 5.928a2.333 2.333 0 110-4.666 2.333 2.333 0 010 4.666zm3.737-6.91a.84.84 0 100 1.682.84.84 0 000-1.681z" fill="#fff"/></g><defs><clipPath id="clip0_1774_766"><path fill="#fff" transform="translate(5.706 6)" d="M0 0h15v15H0z"/></clipPath></defs></svg>