<svg width="27" height="26" fill="none" xmlns="http://www.w3.org/2000/svg"><circle cx="13.755" cy="12.951" fill="#4A5C76" r="12.951"/><g clip-path="url(#clip0_1774_761)"><path d="M8.302 11.01h2.304v7.401H8.302v-7.4zm1.15-3.682a1.334 1.334 0 010 2.667A1.338 1.338 0 018.22 8.15a1.333 1.333 0 011.232-.822zm2.593 3.683h2.206v1.011h.03c.308-.581 1.058-1.195 2.182-1.195 2.329 0 2.759 1.533 2.759 3.525v4.06h-2.299v-3.6c0-.858-.015-1.963-1.195-1.963-1.197 0-1.381.935-1.381 1.9v3.661h-2.298v-7.4h-.004z" fill="#fff"/></g><defs><clipPath id="clip0_1774_761"><path fill="#fff" transform="translate(8.041 7.237)" d="M0 0h11.427v11.427H0z"/></clipPath></defs></svg>