<svg width="375" height="313" fill="none" xmlns="http://www.w3.org/2000/svg"><mask id="a" style="mask-type:alpha" maskUnits="userSpaceOnUse" x="0" y="0" width="375" height="313"><path fill="#F9F4F1" d="M0 0h375v313H0z"/></mask><g mask="url(#a)"><path fill="#F9F4F1" d="M0-60h375v373H0z"/><g opacity=".2" stroke="#B2ABA5" stroke-width="2" stroke-linecap="round"><path d="M154.145 464.946c37.465.748 76.486-.471 116.571-5.758 17.668-2.337 35.189-5.585 51.302-9.192 71.524-16.005 150.909-49.799 221.385-127.962 1.998-2.152 12.38-14.376 14.328-16.723a546.087 546.087 0 007.827-9.816" stroke-linejoin="round"/><path d="M154.145 464.946c35.516-1.178 72.245-3.709 109.923-10.298 16.178-2.828 32.323-6.404 47.781-10.585 68.021-18.372 140.02-53.386 204.7-125.749.999-1.065 12.494-14.673 13.476-15.841a510.78 510.78 0 0020.813-27.472" stroke-linejoin="round"/><path d="M154.145 464.946c9.038-.84 18.159-1.752 27.362-2.807h.032c28.41-3.238 57.492-7.726 86.803-14.879 75.503-18.423 152.268-54.543 221.352-132.655l12.625-14.981c11.561-14.304 22.892-29.941 33.863-47.043" stroke-linejoin="round"/><path d="M816.714 463.512c-1.72-.39-3.439-.779-5.142-1.189a238.411 238.411 0 01-5.109-1.24 374.025 374.025 0 01-10.07-2.643 234.19 234.19 0 01-4.962-1.404c-1.654-.471-3.291-.963-4.929-1.455h-.016a350.979 350.979 0 01-4.88-1.517c-51.334-16.354-105.207-44.676-156.1-91.75a466.353 466.353 0 01-14.95-14.478c-.114-.113-.212-.226-.327-.349a1078.129 1078.129 0 01-14.901-16.077 967.623 967.623 0 01-9.776-10.892 489.247 489.247 0 01-5.24-6.282 540.63 540.63 0 01-14.753-18.741 539.48 539.48 0 01-14.721-20.494 576.897 576.897 0 01-12.183-18.546 284.038 284.038 0 00-2.472-3.874c0-.01 0-.03-.017-.041-10.971-17.091-22.302-32.718-33.846-47.012l-12.625-14.981C426.57 119.178 356.913 82.925 287.664 63.19" stroke-miterlimit="10"/><path d="M850.347 456.892h-.033c-21.794-3.975-42.656-9.345-62.207-16.641-36.319-13.863-72.818-33.486-107.778-60.712-5.011-3.596-12.019-10.031-16.981-14.007a447.021 447.021 0 01-21.107-19.572 380.496 380.496 0 01-6.484-6.527c-2.98-3.084-6.01-6.189-8.941-9.386l-.54-.584a1028.45 1028.45 0 01-14.737-16.538 1025.816 1025.816 0 01-9.481-11.046 561.093 561.093 0 01-5.961-7.163 666.08 666.08 0 01-15.523-19.592 821.11 821.11 0 01-15.605-21.108 931.082 931.082 0 01-11.102-15.791c-1.441-2.1-2.898-4.17-4.356-6.219a496.748 496.748 0 00-34.96-43.59c-1.048-.707-12.608-13.864-13.656-14.499-48.158-48.611-94.711-78.337-144.474-97.58-16.227-6.282-32.962-11.672-49.812-16.119" stroke-miterlimit="10"/><path d="M878.773 453.849s-54.069-12.86-84.15-27.4c-34.387-16.62-69.641-36.868-101.703-64.165-3.995-2.88-12.002-11.221-15.982-14.407a461.09 461.09 0 01-18.88-18.957 493.487 493.487 0 01-7.09-7.706c-2.8-3.125-5.649-6.26-8.4-9.468-.196-.215-.377-.44-.573-.666a2086.408 2086.408 0 01-14.983-17.665c-2.8-3.351-5.633-6.743-8.466-10.165a724.532 724.532 0 01-7.45-9.13 1309.736 1309.736 0 01-16.211-20.391 2198.91 2198.91 0 01-16.129-20.955c-3.21-4.232-6.435-8.495-9.661-12.778a397.662 397.662 0 00-5.797-7.521c-11.839-15.083-24.136-28.732-36.515-41.161-2.08-1.425-12.593-12.758-14.688-14.038-51.974-47.074-98.904-74.33-150.173-90.736a530.413 530.413 0 00-35.844-10.093" stroke-miterlimit="10"/><path d="M349.609 52.994a598.257 598.257 0 0117.767 4.273c52.906 13.526 100.131 37.831 155.92 83.378 3.144 1.906 12.592 11.425 15.719 13.567 13.084 11.886 26.102 25.023 38.661 39.645a368.026 368.026 0 016.648 7.91c2.947 3.597 5.879 7.183 8.793 10.79 5.306 6.517 10.562 13.055 15.835 19.613 5.436 6.762 10.889 13.556 16.358 20.36 0 0 .033.031.033.051 3.225 4.007 6.468 8.023 9.71 12.04 2.243 2.767 4.47 5.523 6.681 8.269a9085.705 9085.705 0 0115.834 19.643c.049.052.082.113.131.164 2.784 3.464 5.649 6.876 8.482 10.298a417.378 417.378 0 006.91 8.147 466.166 466.166 0 0017.439 19.089c2.98 2.388 12.003 12.635 14.999 14.797 29.147 27.369 61.291 49.799 95.596 67.608 34.616 17.338 64.156 30.741 107.008 38.959h.017" stroke-miterlimit="10"/><path d="M286.814 442.168C73.779 399.408 77.447 259.027 77.726 253.053c-.279-6.271-3.668-146.386 207.778-189.423l2.161-.44 14.115-2.89 1.703-.348a732.03 732.03 0 0114.492-2.623 728.067 728.067 0 0120.272-3.187h.016a678.277 678.277 0 0126.969-3.33c12.723-1.302 25.938-2.275 39.267-2.706h.016c16.08-.522 32.356-.256 48.174 1.138h.066a303.276 303.276 0 0116.129 1.854v-.02" stroke-miterlimit="10"/><path d="M452.771 49.254h-.066c-18.962-2.47-38.71-3.402-58.343-3.259h-.016c-14.754.123-29.442.84-43.688 1.998h-.016a704.241 704.241 0 00-28.083 2.829h-.016a725.162 725.162 0 00-20.861 2.817c-5.65.84-11.119 1.722-16.359 2.624h-.016a42.43 42.43 0 01-1.114.194c-.769.103-7.434 1.425-12.592 2.44-3.062.604-5.584 1.106-6.042 1.178-73.768 14.55-124.89 41.038-158.392 71.451-14.148 12.91-25.037 26.385-33.323 39.614-24.169 38.897-25.642 74.689-25.38 82.589.343 10.913 2.521 67.26 54.298 117.746 33.404 32.349 87.965 60.62 165.581 75.796l.147.03" stroke-miterlimit="10"/><path d="M250.151 451.082c-77.894-14.776-138.415-42.801-174.39-77.374-49.992-48.037-55.854-102.621-56.575-120.645-.507-12.676 3.34-48.119 26.74-84.998 8.728-13.771 20.256-27.543 34.944-40.608 36.27-32.01 90.896-58.17 164.729-72.29.802-.134 2.882-.523 5.436-1.005 4.323-.82 9.94-1.886 12.625-2.347h.017c.524-.092.933-.153 1.211-.194a832.877 832.877 0 0114.394-2.173h.032a773.662 773.662 0 0120.698-2.623 735.629 735.629 0 0128.361-2.654c14.77-1.096 29.949-1.762 45.21-1.854 32.488-.195 65.335 2.244 95.301 8.781" stroke-miterlimit="10"/><path d="M468.9 51.099c-36.958-9.171-78.467-12.491-119.289-12.092h-.066c-15.261.144-30.441.81-45.243 1.906a.044.044 0 00-.049 0 748.17 748.17 0 00-28.853 2.654 705.856 705.856 0 00-19.731 2.449h-.033c-3.389.461-6.73.943-10.037 1.445-.934.123-2.424.369-4.209.676-3.389.574-7.827 1.383-11.266 2.008-1.899.339-3.504.636-4.47.79-73.899 13.669-132.029 39.511-171.066 73.121-15.229 13.208-27.362 27.297-36.581 41.602-22.499 34.88-28.836 69.955-28.1 87.405C-9.01 278.209.733 330.949 48.776 376.609c38.628 36.724 101.556 63.981 179.647 78.347" stroke-miterlimit="10"/><path d="M468.9 51.098c-45.702-12.542-98.445-16.671-149.681-15.503h-.033a772.039 772.039 0 00-47.126 2.52h-.016a803.623 803.623 0 00-27.199 2.757 738.055 738.055 0 00-17.291 2.254h-.017c-.426.062-.835.113-1.244.175-2.44.328-6.354.963-10.267 1.629-3.291.563-6.583 1.137-8.99 1.547h-.016c-.475.082-.917.154-1.31.226-73.965 13.227-135.615 38.743-177.42 73.95-15.752 13.363-28.492 27.77-38.202 42.597-21.565 32.902-30.473 67.588-29.442 89.823 1.392 32.247 15.098 83.133 61.127 126.436 41.346 38.876 106.632 65.354 184.903 79.32" stroke-miterlimit="10"/><path d="M181.541 462.139h-.033c-78.451-13.587-142.574-38.764-186.72-79.73-43.917-40.988-61.635-89.967-63.403-129.336-1.26-27 10.234-61.286 30.784-92.231 10.267-15.35 23.53-30.075 39.824-43.59 43.736-36.1 107.237-61.03 179.515-74.023a269.05 269.05 0 014.241-.758c.328-.052.672-.113 1.015-.175 2.178-.358 4.667-.768 7.238-1.188 3.799-.625 7.762-1.25 11.118-1.722.655-.092 1.278-.174 1.884-.256a762.329 762.329 0 0118.65-2.326 801.831 801.831 0 0144.015-3.77c67.333-3.946 139.365.235 199.231 18.054" stroke-miterlimit="10"/><path d="M468.916 51.088c-25.479-8.126-53.169-13.905-81.906-17.665-30.834-4.038-62.879-5.77-94.728-5.595-35.778.174-71.311 2.756-104.552 7.142a694.677 694.677 0 00-19.142 2.808c-.868.143-1.719.286-2.587.43C91.84 50.535 23.099 75.424-24.273 113.85c-16.833 13.659-30.702 28.711-41.46 44.584-19.65 28.957-33.634 62.864-32.16 94.639 2.177 46.49 23.726 93.625 65.695 132.245 46.831 43.109 109.956 66.932 188.603 80.12" stroke-miterlimit="10"/></g></g></svg>