<svg width="375" height="341" fill="none" xmlns="http://www.w3.org/2000/svg"><mask id="a" style="mask-type:alpha" maskUnits="userSpaceOnUse" x="0" y="0" width="375" height="341"><path fill="#F9F4F1" d="M0 0h375v341H0z"/></mask><g opacity=".2" stroke="#B2ABA5" stroke-width="2" stroke-miterlimit="10" stroke-linecap="round" mask="url(#a)"><path d="M816.715 679.372c-1.72-.55-3.439-1.1-5.142-1.679a186.99 186.99 0 01-5.109-1.751 294.819 294.819 0 01-10.07-3.734 179.223 179.223 0 01-4.962-1.982c-1.654-.666-3.291-1.361-4.929-2.055h-.016c-1.637-.695-3.259-1.419-4.88-2.142-51.334-23.097-105.207-63.098-156.1-129.581a595.529 595.529 0 01-14.95-20.449c-.114-.159-.212-.319-.327-.492a1453.976 1453.976 0 01-14.901-22.707 1313.665 1313.665 0 01-9.776-15.383 702.14 702.14 0 01-5.24-8.871 786.573 786.573 0 01-14.753-26.47 813.825 813.825 0 01-14.721-28.943 901.45 901.45 0 01-12.183-26.194 452.999 452.999 0 00-2.472-5.471c0-.014 0-.043-.017-.058-10.971-24.139-22.302-46.208-33.846-66.397l-12.625-21.157c-63.125-100.797-132.782-151.999-202.031-179.871"/><path d="M850.349 670.023h-.033c-21.794-5.615-42.656-13.199-62.207-23.503-36.319-19.58-72.818-47.294-107.778-85.745-5.011-5.08-12.019-14.168-16.981-19.783a557.67 557.67 0 01-21.107-27.642 494.175 494.175 0 01-6.484-9.218c-2.98-4.356-6.01-8.741-8.941-13.257l-.54-.824a1414.834 1414.834 0 01-14.737-23.358 1422.76 1422.76 0 01-9.481-15.601 794.038 794.038 0 01-5.961-10.116 964.496 964.496 0 01-15.523-27.67 1223.39 1223.39 0 01-15.605-29.812 1418.217 1418.217 0 01-11.102-22.301 672.321 672.321 0 00-4.356-8.784c-11.331-22.446-23.088-42.895-34.96-61.564-1.048-.998-12.608-19.58-13.656-20.477-48.158-68.655-94.711-110.638-144.474-137.816a382.732 382.732 0 00-49.812-22.764"/><path d="M878.775 665.725s-54.069-18.162-84.15-38.698c-34.387-23.473-69.641-52.07-101.703-90.623-3.995-4.066-12.003-15.847-15.982-20.347a599.758 599.758 0 01-18.88-26.773 666.553 666.553 0 01-7.09-10.883c-2.8-4.414-5.649-8.842-8.4-13.372-.197-.304-.377-.622-.573-.941a2897.567 2897.567 0 01-14.983-24.949c-2.8-4.733-5.633-9.523-8.466-14.356-2.505-4.27-4.994-8.568-7.45-12.895a1884.324 1884.324 0 01-16.211-28.799 3211.977 3211.977 0 01-16.129-29.595 7026.605 7026.605 0 01-9.661-18.046 577.493 577.493 0 00-5.797-10.623 640.798 640.798 0 00-36.515-58.133c-2.08-2.012-12.593-18.018-14.689-19.827-51.973-66.484-98.903-104.979-150.172-128.148a417.432 417.432 0 00-35.844-14.255"/><path d="M349.61 99.585a458.942 458.942 0 0117.767 6.035c52.906 19.103 100.131 53.43 155.92 117.757 3.143 2.692 12.592 16.137 15.719 19.161a587.249 587.249 0 0138.661 55.992 516.39 516.39 0 016.648 11.172 2899.99 2899.99 0 018.793 15.239c5.306 9.204 10.562 18.437 15.834 27.699 5.437 9.552 10.89 19.146 16.359 28.756 0 0 .033.043.033.072 3.225 5.659 6.468 11.332 9.71 17.005 2.243 3.907 4.47 7.8 6.681 11.678a12802.51 12802.51 0 0115.834 27.743c.049.072.082.159.131.232 2.784 4.891 5.649 9.71 8.482 14.544a586.12 586.12 0 006.91 11.505 631.96 631.96 0 0017.439 26.961c2.98 3.372 12.003 17.844 14.999 20.897 29.147 38.655 61.291 70.334 95.596 95.486 34.616 24.486 64.156 43.415 107.008 55.022h.017"/><path d="M286.814 649.227C73.779 588.836 77.447 390.571 77.726 382.134c-.279-8.857-3.668-206.745 207.778-267.527l2.161-.622 14.115-4.081 1.703-.492a542.875 542.875 0 0114.492-3.705 533.75 533.75 0 0120.272-4.501h.016a491.081 491.081 0 0126.969-4.703c12.723-1.838 25.938-3.213 39.267-3.82h.016c16.08-.739 32.356-.363 48.174 1.606h.066c5.436.68 10.824 1.548 16.129 2.619v-.029"/><path d="M452.771 94.303h-.066c-18.962-3.488-38.71-4.805-58.343-4.602h-.016c-14.754.173-29.442 1.186-43.688 2.822h-.016a505.963 505.963 0 00-28.083 3.994h-.016a526.852 526.852 0 00-20.861 3.98 531.55 531.55 0 00-16.359 3.705h-.016c-.377.101-.737.188-1.114.275-.769.144-7.434 2.011-12.592 3.444-3.062.854-5.584 1.563-6.042 1.664-73.768 20.55-124.89 57.96-158.392 100.913-14.148 18.234-25.037 37.265-33.323 55.948-24.169 54.935-25.642 105.485-25.38 116.643.343 15.413 2.521 94.994 54.298 166.297 33.404 45.687 87.965 85.615 165.581 107.048l.147.043"/><path d="M250.15 661.817c-77.894-20.868-138.415-60.449-174.39-109.277-49.992-67.844-55.854-144.936-56.575-170.392-.507-17.901 3.34-67.96 26.74-120.044a268.91 268.91 0 0134.944-57.352c36.27-45.21 90.896-82.157 164.729-102.099.802-.188 2.882-.738 5.436-1.418 4.323-1.158 9.94-2.663 12.625-3.314h.017c.524-.13.933-.217 1.211-.275a609.496 609.496 0 0114.394-3.068h.032a560.647 560.647 0 0120.698-3.705 527.682 527.682 0 0128.361-3.748c14.77-1.549 29.949-2.49 45.21-2.62 32.488-.275 65.335 3.17 95.301 12.403"/><path d="M468.9 96.908c-36.958-12.952-78.467-17.641-119.289-17.077h-.066c-15.261.203-30.441 1.143-45.243 2.692-.017-.014-.033-.014-.049 0A536.309 536.309 0 00275.4 86.27a511.042 511.042 0 00-19.731 3.459h-.033c-3.389.651-6.73 1.331-10.037 2.04-.934.174-2.424.521-4.209.956-3.389.81-7.827 1.953-11.266 2.836-1.899.478-3.504.897-4.47 1.114-73.899 19.306-132.029 55.804-171.066 103.272-15.229 18.654-27.362 38.553-36.581 58.756-22.499 49.262-28.836 98.799-28.1 123.445 1.082 35.514 10.825 110 58.868 174.487 38.628 51.867 101.556 90.362 179.647 110.652"/><path d="M468.9 96.908c-45.702-17.714-98.445-23.546-149.681-21.896h-.033a549.183 549.183 0 00-47.126 3.56h-.016a574.701 574.701 0 00-27.199 3.893 535.718 535.718 0 00-17.291 3.184h-.017c-.426.087-.835.159-1.244.246-2.44.463-6.354 1.36-10.267 2.3-3.291.797-6.583 1.607-8.99 2.186h-.016c-.475.116-.917.217-1.31.318-73.965 18.684-135.615 54.719-177.42 104.444-15.752 18.871-28.492 39.219-38.202 60.159-21.565 46.47-30.473 95.457-29.442 126.861 1.392 45.543 15.098 117.41 61.127 178.568 41.346 54.907 106.632 92.302 184.903 112.027"/><path d="M181.541 677.433h-.033c-78.451-19.19-142.574-54.747-186.72-112.606-43.917-57.887-61.635-127.063-63.403-182.664-1.26-38.133 10.234-86.556 30.784-130.261a278.308 278.308 0 0139.824-61.564c43.736-50.984 107.237-86.194 179.515-104.545 1.408-.376 2.817-.723 4.241-1.07.328-.073.672-.16 1.015-.247 2.178-.506 4.667-1.085 7.238-1.678 3.799-.883 7.762-1.766 11.118-2.432.655-.13 1.278-.246 1.884-.361a552.23 552.23 0 0118.65-3.285 574.073 574.073 0 0144.015-5.326c67.333-5.572 139.365.333 199.231 25.5"/><path d="M468.916 96.893c-25.479-11.476-53.169-19.638-81.906-24.95-30.834-5.701-62.879-8.147-94.728-7.9-35.778.245-71.311 3.892-104.552 10.086a507.48 507.48 0 00-19.142 3.965c-.868.203-1.719.406-2.587.608C91.84 96.112 23.099 131.264-24.273 185.534a280.17 280.17 0 00-41.46 62.967c-19.65 40.897-33.634 88.785-32.16 133.662 2.177 65.659 23.726 132.229 65.695 186.774 46.831 60.883 109.956 94.53 188.603 113.156"/></g></svg>