<svg width="1237" height="907" fill="none" xmlns="http://www.w3.org/2000/svg"><path d="M318.562 880.799c57.022 16.993 117.819 25.799 180.245 24.892 29.779-.434 58.981-3.733 82.388-7.198 99.114-8.765 220.851-60.796 331.019-224.254" stroke="url(#paint0_linear_1752_6628)" stroke-width="2" stroke-linecap="round" stroke-linejoin="round"/><path d="M318.562 880.799c54.568 13.116 112.457 19.035 171.892 15.756 27.903-1.526 55.228-6.125 77.934-10.023 98.434-16.808 218.047-72.387 324.585-242.134" stroke="url(#paint1_linear_1752_6628)" stroke-width="2" stroke-linecap="round" stroke-linejoin="round"/><path d="M318.562 880.799c52.114 9.259 107.074 12.312 163.519 6.64 26.026-2.619 51.578-7.836 73.521-12.848 98.433-22.417 215.737-84.884 318.604-262.55" stroke="url(#paint2_linear_1752_6628)" stroke-width="2" stroke-linecap="round" stroke-linejoin="round"/><path d="M855.295 577.456c-4.702 8.806-10.271 19.076-12.642 23.18-96.103 169.005-205.281 234.607-299.858 262.015-21.138 6.125-44.937 12.002-69.066 15.673-53.455 8.125-105.507 7.857-155.167 2.475" stroke="url(#paint3_linear_1752_6628)" stroke-width="2" stroke-linecap="round" stroke-linejoin="round"/><path d="M318.562 880.799c47.185 1.505 96.33-.949 146.815-11.59 22.252-4.702 44.318-11.24 64.611-18.499 90.081-32.213 190.061-100.228 278.823-257.54 2.516-4.33 15.591-28.933 18.045-33.656a1181.42 1181.42 0 009.857-19.757" stroke="url(#paint4_linear_1752_6628)" stroke-width="2" stroke-linecap="round" stroke-linejoin="round"/><path d="M318.562 880.799c44.731-2.372 90.988-7.466 138.442-20.726a474.079 474.079 0 0060.178-21.304c85.667-36.977 176.346-107.445 257.807-253.085 1.258-2.144 15.735-29.532 16.973-31.883 8.868-17.426 17.612-35.842 26.211-55.29" stroke="url(#paint5_linear_1752_6628)" stroke-width="2" stroke-linecap="round" stroke-linejoin="round"/><path d="M318.562 880.799c11.384-1.691 22.871-3.527 34.461-5.651h.041c35.781-6.517 72.407-15.55 109.322-29.945 95.093-37.08 191.773-109.775 278.781-266.984l15.901-30.151c14.559-28.79 28.831-60.26 42.648-94.68" stroke="url(#paint6_linear_1752_6628)" stroke-width="2" stroke-linecap="round" stroke-linejoin="round"/><path d="M799.694 453.306s-.02.061-.041.082" stroke="url(#paint7_linear_1752_6628)" stroke-width="2" stroke-linecap="round" stroke-linejoin="round"/><path d="M911.986 232.166C1022.07 68.976 1143.71 17.027 1242.76 8.283c23.4-3.485 52.61-6.785 82.37-7.218 62.44-.907 122.83 7.672 179.87 24.686" stroke="url(#paint8_linear_1752_6628)" stroke-width="2" stroke-linecap="round" stroke-linejoin="round"/><path d="M931.186 261.987C1037.68 92.527 1157.21 37.011 1255.54 20.224c22.73-3.898 50.06-8.497 77.96-10.023 59.43-3.279 116.91 2.413 171.5 15.55" stroke="url(#paint9_linear_1752_6628)" stroke-width="2" stroke-linecap="round" stroke-linejoin="round"/><path d="M950.077 294.138C1052.88 116.904 1170.02 54.561 1268.35 32.165c21.94-5.012 47.5-10.23 73.5-12.848 56.47-5.672 111.04-2.826 163.15 6.434" stroke="url(#paint10_linear_1752_6628)" stroke-width="2" stroke-linecap="round" stroke-linejoin="round"/><path d="M968.803 329.011c4.661-8.723 10.146-18.828 12.497-22.891 96.1-169.005 205.28-234.607 299.86-262.015 21.12-6.125 44.94-12.002 69.06-15.673 53.46-8.125 105.12-8.064 154.78-2.681" stroke="url(#paint11_linear_1752_6628)" stroke-width="2" stroke-linecap="round" stroke-linejoin="round"/><path d="M987.342 366.793a1153.175 1153.175 0 019.754-19.551c2.455-4.723 15.534-29.326 18.024-33.657 88.78-157.311 188.74-225.326 278.84-257.539 20.3-7.26 42.36-13.797 64.62-18.499 50.46-10.641 99.21-13.301 146.42-11.796" stroke="url(#paint12_linear_1752_6628)" stroke-width="2" stroke-linecap="round" stroke-linejoin="round"/><path d="M1005.82 408.121a1127.843 1127.843 0 0126.17-55.166c1.22-2.351 15.72-29.739 16.97-31.883 81.46-145.64 172.12-216.108 257.79-253.085a473.074 473.074 0 0160.2-21.304c47.45-13.26 93.32-18.56 138.05-20.932" stroke="url(#paint13_linear_1752_6628)" stroke-width="2" stroke-linecap="round" stroke-linejoin="round"/><path d="M1024.24 453.368s.02-.042.02-.062c13.81-34.399 28.06-65.849 42.62-94.618l15.9-30.151c102.15-184.555 217.37-252.775 327.87-283.524h.02c9.88-2.784 19.69-5.218 29.49-7.445a758.584 758.584 0 0131.76-6.414c11.11-2.02 22.15-3.794 33.08-5.403" stroke="url(#paint14_linear_1752_6628)" stroke-width="2" stroke-linecap="round" stroke-linejoin="round"/><path d="M1153.03 877.911c-2.17-.783-4.33-1.567-6.48-2.392-2.16-.804-4.31-1.629-6.43-2.495-2.15-.846-4.25-1.712-6.37-2.599-2.11-.886-4.23-1.794-6.31-2.722-2.11-.907-4.19-1.856-6.25-2.825-2.09-.949-4.15-1.939-6.21-2.929h-.02a344.45 344.45 0 01-6.15-3.052c-64.65-32.914-132.5-89.916-196.596-184.658a851.318 851.318 0 01-18.829-29.14c-.144-.227-.268-.454-.412-.701a2133.859 2133.859 0 01-18.767-32.357 1912.614 1912.614 0 01-12.312-21.923 1036.646 1036.646 0 01-6.599-12.642 1171.465 1171.465 0 01-18.581-37.719c-6.27-13.26-12.436-26.995-18.54-41.246a1366.815 1366.815 0 01-15.344-37.327 676.79 676.79 0 00-3.114-7.796c0-.02 0-.062-.021-.082-13.817-34.399-28.088-65.849-42.627-94.618l-15.9-30.151C661.666 184.898 573.936 111.934 486.722 72.214" stroke="url(#paint15_linear_1752_6628)" stroke-width="2" stroke-miterlimit="10" stroke-linecap="round"/><path d="M1195.39 864.589h-.04c-27.45-8.002-53.73-18.808-78.35-33.492-45.74-27.902-91.71-67.395-135.741-122.191-6.31-7.238-15.137-20.189-21.386-28.191-8.929-12.395-17.797-25.511-26.583-39.39a716.13 716.13 0 01-8.166-13.137c-3.754-6.207-7.569-12.456-11.26-18.89l-.681-1.176a2070.668 2070.668 0 01-18.561-33.285 2138.36 2138.36 0 01-11.94-22.232 1186.017 1186.017 0 01-7.507-14.415c-6.62-12.828-13.116-25.965-19.551-39.431-6.619-13.818-13.157-27.986-19.653-42.484a2144.802 2144.802 0 01-13.983-31.78c-1.814-4.227-3.65-8.393-5.485-12.518-14.271-31.986-29.079-61.126-44.03-87.73-1.32-1.423-15.88-27.903-17.2-29.181-60.652-97.835-119.283-157.663-181.956-196.392-20.437-12.642-41.514-23.49-62.735-32.44" stroke="url(#paint16_linear_1752_6628)" stroke-width="2" stroke-miterlimit="10" stroke-linecap="round"/><path d="M1231.19 858.464s-68.1-25.882-105.98-55.146c-43.31-33.45-87.71-74.201-128.091-129.141-5.032-5.795-15.117-22.582-20.128-28.996a861.645 861.645 0 01-23.778-38.152 965.886 965.886 0 01-8.93-15.508c-3.527-6.29-7.115-12.601-10.58-19.056-.247-.433-.474-.887-.721-1.341a4259.22 4259.22 0 01-18.87-35.554 5700.077 5700.077 0 01-10.663-20.458 1518.912 1518.912 0 01-9.383-18.375 2821.665 2821.665 0 01-20.417-41.039 4773.738 4773.738 0 01-20.313-42.174c-4.042-8.517-8.105-17.097-12.168-25.717a866.81 866.81 0 00-7.3-15.137 938.551 938.551 0 00-45.99-82.843c-2.619-2.866-15.859-25.675-18.498-28.253-65.458-94.742-124.563-149.599-189.133-182.616-14.56-7.445-29.697-14.292-45.144-20.314" stroke="url(#paint17_linear_1752_6628)" stroke-width="2" stroke-miterlimit="10" stroke-linecap="round"/><path d="M564.738 51.694a532.825 532.825 0 0122.376 8.6c66.633 27.222 126.109 76.14 196.372 167.809 3.959 3.836 15.859 22.995 19.798 27.305 16.478 23.922 32.873 50.361 48.691 79.79a769.893 769.893 0 018.373 15.921 4299.852 4299.852 0 0111.074 21.716c6.682 13.116 13.302 26.273 19.942 39.472 6.847 13.611 13.715 27.284 20.603 40.978 0 0 .041.062.041.103 4.063 8.064 8.146 16.148 12.229 24.232 2.826 5.568 5.63 11.116 8.415 16.643a18746.896 18746.896 0 0119.942 39.534c.062.103.103.227.165.33 3.506 6.97 7.115 13.838 10.683 20.726a864.794 864.794 0 008.702 16.395 921.81 921.81 0 0021.964 38.421c3.753 4.805 15.112 25.428 18.892 29.779 36.71 55.084 77.19 100.228 120.4 136.07 43.59 34.894 80.8 61.869 134.77 78.409h.02" stroke="url(#paint18_linear_1752_6628)" stroke-width="2" stroke-miterlimit="10" stroke-linecap="round"/><path d="M598.436 45.508C665.089 67.47 725.7 109.769 797.592 194.59c5.279 5.135 15.838 20.623 21.097 26.377 17.653 23.262 35.203 49.268 52.238 78.408a850.884 850.884 0 018.6 15.034c3.629 6.496 7.218 13.054 10.827 19.674a2357.71 2357.71 0 0119.612 36.874 2948.123 2948.123 0 0119.963 38.916 3765.857 3765.857 0 0115.076 30.212 1790.48 1790.48 0 015.341 10.848 3777.792 3777.792 0 0120.314 42.174c.639 1.34 1.258 2.66 1.897 4.001 3.3 7.012 6.702 14.023 10.043 21.076a1014.496 1014.496 0 007.589 15.633c6.95 14.023 13.961 27.449 21.061 40.297 2.49 3.196 15.09 27.676 17.63 30.563 33.04 55.249 70.78 103.197 112.72 143.02 46.98 43.288 91.86 76.944 153 98.928" stroke="url(#paint19_linear_1752_6628)" stroke-width="2" stroke-miterlimit="10" stroke-linecap="round"/><path d="M644.116 40.063c56.837 20.004 107.775 57.022 167.582 121.057 6.599 6.413 15.838 18.23 22.396 25.428 19.159 23.036 38.215 49.041 56.796 78.491a892.077 892.077 0 017.816 12.683 1134.48 1134.48 0 0111.508 19.447 1265.873 1265.873 0 0119.303 34.399c6.496 11.941 12.93 24.212 19.344 36.812a1893.295 1893.295 0 0116.931 34.214c.846 1.773 1.712 3.547 2.558 5.32a1949.51 1949.51 0 0119.653 42.442 4205.33 4205.33 0 014.331 9.755c3.135 7.074 6.29 14.189 9.406 21.407 1.92 4.413 3.83 8.785 5.77 13.095a1155.696 1155.696 0 0020.85 43.989c1.26 1.588 15.12 29.903 16.4 31.347 29.34 55.414 64.36 106.167 105.03 149.949 48.36 51.125 98.62 93.958 165.15 121.82" stroke="url(#paint20_linear_1752_6628)" stroke-width="2" stroke-miterlimit="10" stroke-linecap="round"/><path d="M1336.72 834.686h-.02c-128.77-61.518-218.79-175.605-276.08-299.445l-15.14-32.151c-7.16-15.839-14.23-32.399-21.2-49.702 0-.02 0-.062-.02-.082-1.14-2.805-2.25-5.61-3.36-8.435-4.97-12.601-9.98-24.851-15.08-36.75-6.082-14.251-12.227-28.027-18.476-41.329-6.104-13.033-12.271-25.634-18.54-37.781a989.113 989.113 0 00-18.726-34.873 900.48 900.48 0 00-18.89-32.151c-6.373-10.332-12.766-20.273-19.2-29.821C812.977 85.434 704.665 28.638 611.821 12.305" stroke="url(#paint21_linear_1752_6628)" stroke-width="2" stroke-miterlimit="10" stroke-linecap="round"/><path d="M485.649 834.954c-268.304-86.06-263.684-368.594-263.334-380.617-.35-12.622-4.619-294.62 261.685-381.236l2.722-.887 17.777-5.816 2.145-.7a618.557 618.557 0 0118.251-5.28 605.947 605.947 0 0125.531-6.414h.021c10.889-2.495 22.273-4.784 33.966-6.702 16.024-2.62 32.667-4.579 49.454-5.445h.02c20.252-1.051 40.751-.515 60.673 2.29h.082a246.27 246.27 0 0120.314 3.732v-.041" stroke="url(#paint22_linear_1752_6628)" stroke-width="2" stroke-miterlimit="10" stroke-linecap="round"/><path d="M694.662 44.167h-.082c-23.881-4.97-48.753-6.847-73.48-6.558h-.02c-18.582.248-37.08 1.691-55.022 4.022h-.021a568.116 568.116 0 00-35.368 5.692h-.021a595.648 595.648 0 00-26.273 5.67 608.468 608.468 0 00-20.603 5.28h-.02c-.475.145-.928.268-1.403.392-.969.206-9.363 2.867-15.859 4.909-3.856 1.216-7.032 2.227-7.61 2.371C365.974 95.23 301.589 148.54 259.395 209.75c-17.819 25.985-31.533 53.104-41.968 79.728-30.44 78.285-32.296 150.321-31.966 166.221.433 21.964 3.176 135.369 68.386 236.978 42.071 65.107 110.787 122.006 208.539 152.548l.186.062" stroke="url(#paint23_linear_1752_6628)" stroke-width="2" stroke-miterlimit="10" stroke-linecap="round"/><path d="M439.475 852.896c-98.103-29.738-174.326-86.142-219.635-155.724-62.961-96.68-70.344-206.539-71.252-242.815-.639-25.51 4.207-96.845 33.677-171.067 10.993-27.717 25.511-55.434 44.01-81.729 45.68-64.426 114.478-117.076 207.467-145.494 1.01-.269 3.629-1.052 6.846-2.022 5.445-1.65 12.519-3.794 15.901-4.722h.02a34.91 34.91 0 011.527-.392 689.498 689.498 0 0118.127-4.372h.041a632.39 632.39 0 0126.068-5.28 591.505 591.505 0 0135.719-5.34c18.602-2.207 37.719-3.548 56.94-3.734 40.916-.391 82.285 4.517 120.025 17.674" stroke="url(#paint24_linear_1752_6628)" stroke-width="2" stroke-miterlimit="10" stroke-linecap="round"/><path d="M714.976 47.88c-46.546-18.458-98.825-25.14-150.238-24.336h-.082c-19.221.289-38.338 1.63-56.981 3.836-.021-.02-.042-.02-.062 0a601.119 601.119 0 00-36.338 5.341 575.98 575.98 0 00-24.851 4.93h-.041a542.014 542.014 0 00-12.642 2.907c-1.175.248-3.052.742-5.3 1.361-4.269 1.155-9.858 2.784-14.188 4.042-2.393.68-4.414 1.279-5.63 1.588-93.072 27.511-166.283 79.522-215.448 147.166-19.18 26.583-34.461 54.939-46.072 83.729-28.336 70.2-36.317 140.793-35.389 175.913 1.361 50.609 13.632 156.755 74.14 248.651 48.649 73.913 127.903 128.77 226.254 157.683" stroke="url(#paint25_linear_1752_6628)" stroke-width="2" stroke-miterlimit="10" stroke-linecap="round"/><path d="M714.976 47.88c-57.558-25.243-123.985-33.554-188.514-31.203h-.041c-20.087.721-39.988 2.474-59.353 5.073h-.021a645.14 645.14 0 00-34.254 5.547 605.115 605.115 0 00-21.778 4.537h-.021c-.536.124-1.052.227-1.567.351-3.073.66-8.002 1.939-12.931 3.28-4.145 1.133-8.29 2.288-11.322 3.113h-.02c-.598.165-1.155.31-1.65.454-93.154 26.624-170.799 77.975-223.45 148.836-19.839 26.892-35.884 55.888-48.113 85.729-27.16 66.221-38.38 136.029-37.08 180.781 1.753 64.9 19.014 167.314 76.985 254.466 52.073 78.244 134.297 131.534 232.875 159.643" stroke="url(#paint26_linear_1752_6628)" stroke-width="2" stroke-miterlimit="10" stroke-linecap="round"/><path d="M353.065 875.148h-.042c-98.804-27.346-179.564-78.017-235.163-160.467-55.31-82.492-77.625-181.07-79.852-260.303-1.588-54.341 12.89-123.346 38.771-185.627 12.93-30.893 29.635-60.528 50.155-87.73 55.084-72.655 135.06-122.83 226.089-148.98a228.093 228.093 0 015.342-1.526c.412-.103.845-.227 1.278-.35a3849.03 3849.03 0 019.116-2.393c4.784-1.258 9.775-2.516 14.003-3.465.825-.185 1.608-.35 2.371-.515a622.543 622.543 0 0123.49-4.682 642.856 642.856 0 0155.434-7.589c84.802-7.94 175.522.474 250.92 36.338" stroke="url(#paint27_linear_1752_6628)" stroke-width="2" stroke-miterlimit="10" stroke-linecap="round"/><path d="M714.997 47.859c-32.089-16.354-66.962-27.986-103.156-35.554-38.833-8.126-79.192-11.61-119.303-11.26-45.062.35-89.813 5.547-131.678 14.374a574.966 574.966 0 00-24.108 5.65c-1.093.29-2.166.578-3.259.867-93.401 24.81-179.976 74.902-239.638 152.238-21.2 27.491-38.668 57.786-52.218 89.731C16.89 322.185-.721 390.426 1.135 454.378c2.743 93.567 29.883 188.432 82.74 266.16 58.981 86.761 138.482 134.709 237.534 161.251" stroke="url(#paint28_linear_1752_6628)" stroke-width="2" stroke-miterlimit="10" stroke-linecap="round"/><defs><linearGradient id="paint0_linear_1752_6628" x1="615.388" y1="674.239" x2="615.388" y2="905.754" gradientUnits="userSpaceOnUse"><stop stop-color="#B9E9F9" stop-opacity="0"/><stop offset="1" stop-color="#B9E9F9"/></linearGradient><linearGradient id="paint1_linear_1752_6628" x1="605.767" y1="644.398" x2="605.767" y2="897.443" gradientUnits="userSpaceOnUse"><stop stop-color="#B9E9F9" stop-opacity="0"/><stop offset="1" stop-color="#B9E9F9"/></linearGradient><linearGradient id="paint2_linear_1752_6628" x1="596.384" y1="612.041" x2="596.384" y2="890.298" gradientUnits="userSpaceOnUse"><stop stop-color="#B9E9F9" stop-opacity="0"/><stop offset="1" stop-color="#B9E9F9"/></linearGradient><linearGradient id="paint3_linear_1752_6628" x1="586.928" y1="577.456" x2="586.928" y2="884.661" gradientUnits="userSpaceOnUse"><stop stop-color="#B9E9F9" stop-opacity="0"/><stop offset="1" stop-color="#B9E9F9"/></linearGradient><linearGradient id="paint4_linear_1752_6628" x1="577.638" y1="539.757" x2="577.638" y2="881.203" gradientUnits="userSpaceOnUse"><stop stop-color="#B9E9F9" stop-opacity="0"/><stop offset="1" stop-color="#B9E9F9"/></linearGradient><linearGradient id="paint5_linear_1752_6628" x1="568.368" y1="498.511" x2="568.368" y2="880.799" gradientUnits="userSpaceOnUse"><stop stop-color="#B9E9F9" stop-opacity="0"/><stop offset="1" stop-color="#B9E9F9"/></linearGradient><linearGradient id="paint6_linear_1752_6628" x1="559.139" y1="453.388" x2="559.139" y2="880.799" gradientUnits="userSpaceOnUse"><stop stop-color="#B9E9F9" stop-opacity="0"/><stop offset="1" stop-color="#B9E9F9"/></linearGradient><linearGradient id="paint7_linear_1752_6628" x1="799.674" y1="453.306" x2="799.674" y2="453.388" gradientUnits="userSpaceOnUse"><stop stop-color="#B9E9F9" stop-opacity="0"/><stop offset="1" stop-color="#B9E9F9"/></linearGradient><linearGradient id="paint8_linear_1752_6628" x1="1208.49" y1="1" x2="1208.49" y2="232.166" gradientUnits="userSpaceOnUse"><stop stop-color="#B9E9F9" stop-opacity="0"/><stop offset="1" stop-color="#B9E9F9"/></linearGradient><linearGradient id="paint9_linear_1752_6628" x1="1218.09" y1="9.293" x2="1218.09" y2="261.987" gradientUnits="userSpaceOnUse"><stop stop-color="#B9E9F9" stop-opacity="0"/><stop offset="1" stop-color="#B9E9F9"/></linearGradient><linearGradient id="paint10_linear_1752_6628" x1="1227.54" y1="16.402" x2="1227.54" y2="294.138" gradientUnits="userSpaceOnUse"><stop stop-color="#B9E9F9" stop-opacity="0"/><stop offset="1" stop-color="#B9E9F9"/></linearGradient><linearGradient id="paint11_linear_1752_6628" x1="1236.9" y1="21.978" x2="1236.9" y2="329.011" gradientUnits="userSpaceOnUse"><stop stop-color="#B9E9F9" stop-opacity="0"/><stop offset="1" stop-color="#B9E9F9"/></linearGradient><linearGradient id="paint12_linear_1752_6628" x1="1246.17" y1="25.363" x2="1246.17" y2="366.793" gradientUnits="userSpaceOnUse"><stop stop-color="#B9E9F9" stop-opacity="0"/><stop offset="1" stop-color="#B9E9F9"/></linearGradient><linearGradient id="paint13_linear_1752_6628" x1="1255.41" y1="25.751" x2="1255.41" y2="408.121" gradientUnits="userSpaceOnUse"><stop stop-color="#B9E9F9" stop-opacity="0"/><stop offset="1" stop-color="#B9E9F9"/></linearGradient><linearGradient id="paint14_linear_1752_6628" x1="1264.62" y1="25.751" x2="1264.62" y2="453.368" gradientUnits="userSpaceOnUse"><stop stop-color="#B9E9F9" stop-opacity="0"/><stop offset="1" stop-color="#B9E9F9"/></linearGradient><linearGradient id="paint15_linear_1752_6628" x1="819.875" y1="72.214" x2="819.875" y2="877.911" gradientUnits="userSpaceOnUse"><stop stop-color="#B9E9F9" stop-opacity="0"/><stop offset="1" stop-color="#B9E9F9"/></linearGradient><linearGradient id="paint16_linear_1752_6628" x1="852.985" y1="66.234" x2="852.985" y2="864.589" gradientUnits="userSpaceOnUse"><stop stop-color="#B9E9F9" stop-opacity="0"/><stop offset="1" stop-color="#B9E9F9"/></linearGradient><linearGradient id="paint17_linear_1752_6628" x1="883.146" y1="58.644" x2="883.146" y2="858.464" gradientUnits="userSpaceOnUse"><stop stop-color="#B9E9F9" stop-opacity="0"/><stop offset="1" stop-color="#B9E9F9"/></linearGradient><linearGradient id="paint18_linear_1752_6628" x1="916.463" y1="51.694" x2="916.463" y2="853.927" gradientUnits="userSpaceOnUse"><stop stop-color="#B9E9F9" stop-opacity="0"/><stop offset="1" stop-color="#B9E9F9"/></linearGradient><linearGradient id="paint19_linear_1752_6628" x1="946.52" y1="45.508" x2="946.52" y2="846.626" gradientUnits="userSpaceOnUse"><stop stop-color="#B9E9F9" stop-opacity="0"/><stop offset="1" stop-color="#B9E9F9"/></linearGradient><linearGradient id="paint20_linear_1752_6628" x1="979.527" y1="40.063" x2="979.527" y2="841.718" gradientUnits="userSpaceOnUse"><stop stop-color="#B9E9F9" stop-opacity="0"/><stop offset="1" stop-color="#B9E9F9"/></linearGradient><linearGradient id="paint21_linear_1752_6628" x1="974.269" y1="12.305" x2="974.269" y2="834.686" gradientUnits="userSpaceOnUse"><stop stop-color="#B9E9F9" stop-opacity="0"/><stop offset="1" stop-color="#B9E9F9"/></linearGradient><linearGradient id="paint22_linear_1752_6628" x1="468.61" y1="41.357" x2="468.61" y2="834.954" gradientUnits="userSpaceOnUse"><stop stop-color="#B9E9F9" stop-opacity="0"/><stop offset="1" stop-color="#B9E9F9"/></linearGradient><linearGradient id="paint23_linear_1752_6628" x1="440.047" y1="37.581" x2="440.047" y2="845.286" gradientUnits="userSpaceOnUse"><stop stop-color="#B9E9F9" stop-opacity="0"/><stop offset="1" stop-color="#B9E9F9"/></linearGradient><linearGradient id="paint24_linear_1752_6628" x1="431.746" y1="30.184" x2="431.746" y2="852.896" gradientUnits="userSpaceOnUse"><stop stop-color="#B9E9F9" stop-opacity="0"/><stop offset="1" stop-color="#B9E9F9"/></linearGradient><linearGradient id="paint25_linear_1752_6628" x1="413.31" y1="23.48" x2="413.31" y2="860.691" gradientUnits="userSpaceOnUse"><stop stop-color="#B9E9F9" stop-opacity="0"/><stop offset="1" stop-color="#B9E9F9"/></linearGradient><linearGradient id="paint26_linear_1752_6628" x1="394.868" y1="16.296" x2="394.868" y2="868.487" gradientUnits="userSpaceOnUse"><stop stop-color="#B9E9F9" stop-opacity="0"/><stop offset="1" stop-color="#B9E9F9"/></linearGradient><linearGradient id="paint27_linear_1752_6628" x1="376.433" y1="8.772" x2="376.433" y2="875.148" gradientUnits="userSpaceOnUse"><stop stop-color="#B9E9F9" stop-opacity="0"/><stop offset="1" stop-color="#B9E9F9"/></linearGradient><linearGradient id="paint28_linear_1752_6628" x1="357.999" y1="1.021" x2="357.999" y2="881.789" gradientUnits="userSpaceOnUse"><stop stop-color="#B9E9F9" stop-opacity="0"/><stop offset="1" stop-color="#B9E9F9"/></linearGradient></defs></svg>