<svg width="545" height="274" fill="none" xmlns="http://www.w3.org/2000/svg"><path d="M163.678 241.019c-22.779 10.353-48.422-1.385-65.02-17.96-12.91-12.892-21.539-29.657-26.476-47.219-11.937-42.48-2.814-93.251 28.444-125.505 12.458-12.856 28.141-22.073 45.124-27.598 12.353-4.019 25.019-7.38 38.037-8.127 10.62-.611 22.403-.928 32.793 1.57" stroke="#4A5C76" stroke-width="1.5" stroke-miterlimit="10" stroke-linecap="round"/><path d="M214.752 15.27c-15.344-3.42-28.929-4.031-44.232-2.253-15.059 1.747-30.168 5.647-42.988 11.095-18.163 7.72-35.046 20.68-46.97 36.513a101.094 101.094 0 00-2.651 3.683c-5.317 7.756-9.407 15.847-12.525 23.792-9.082 23.359-9.638 44.857-9.539 49.599.131 6.552.946 40.395 20.408 70.717 9.733 15.168 23.924 27.901 39.906 36.205 9.33 4.846 22.901 7.869 33.471 4.529" stroke="#4A5C76" stroke-width="1.5" stroke-miterlimit="10" stroke-linecap="round"/><path d="M136.284 254.965c-20.991 1.851-56.458-24.014-69.979-44.775-18.788-28.852-20.992-61.631-21.263-72.455-.19-7.611 1.253-28.896 10.05-51.046 3.28-8.272 7.611-16.544 13.132-24.39C81.853 43.072 102.998 26.13 130.75 17.65c15.63-4.87 31.662-7.471 48.106-7.716 12.208-.117 26.457 2.322 37.716 6.25" stroke="#4A5C76" stroke-width="1.5" stroke-miterlimit="10" stroke-linecap="round"/><path d="M216.571 16.18C199.394 8.646 177.67 5.193 158.416 5.895c-.005-.005-.014 0-.014 0-14.557.579-28.707 2.678-42.648 6.67-27.797 7.945-51.58 24.498-67.292 45.643-5.918 8.023-10.706 16.68-14.357 25.58C26 103.55 22.652 124.377 23.04 137.735c.525 19.367 5.674 49.929 22.973 75.934 15.54 23.35 40.074 39.25 69.491 47.64" stroke="#4A5C76" stroke-width="1.5" stroke-miterlimit="10" stroke-linecap="round"/><path d="M106.043 263.295c-29.485-8.158-53.58-23.281-70.174-47.883-16.503-24.616-23.163-54.033-23.829-77.677-.475-16.217 3.847-36.806 11.57-55.39 3.86-9.218 8.843-18.064 14.965-26.177C53.661 36.172 76.133 20.55 99.758 12.66c26.765-8.937 55.562-11.562 83.454-7.1 11.453 1.833 22.73 5.955 33.359 10.616" stroke="#4A5C76" stroke-width="1.5" stroke-miterlimit="10" stroke-linecap="round"/><path d="M216.571 16.175c-9.48-4.837-21.05-9.855-31.449-11.828-10.543-2-20.683-3.204-31.403-3.33-29.802-.353-58.703 4.855-85.012 19.322-15.39 8.466-29.254 19.855-40.005 33.788-6.326 8.204-11.539 17.245-15.58 26.774C5.742 98.291.484 118.653 1.04 137.74c.82 27.919 8.92 56.228 24.689 79.423 17.602 25.887 40.942 40.196 70.5 48.119" stroke="#4A5C76" stroke-width="1.5" stroke-miterlimit="10" stroke-linecap="round"/><path d="M216.571 16.18c-13.887-5.507-31.39-8.475-46.734-8.236-5.738.086-11.458.485-17.028 1.145a184.892 184.892 0 00-18.276 3.063c-3.666.734-7.675 1.924-11.281 2.955-27.775 8.209-50.237 24.96-64.907 45.147-5.724 7.932-10.285 16.394-13.747 24.987-8.457 20.946-10.837 42.014-10.561 52.494.407 15.1 4.068 46.775 22.123 74.197 14.516 22.055 38.168 38.426 67.513 47.051" stroke="#4A5C76" stroke-width="1.5" stroke-miterlimit="10" stroke-linecap="round"/><path d="M94.952 264.965a179.715 179.715 0 0053.907 7.444c8.905-.132 17.638-1.118 24.643-2.154 29.643-2.62 65.775-17.743 98.726-66.631" stroke="#4A5C76" stroke-width="1.5" stroke-linecap="round" stroke-linejoin="round"/><path d="M94.952 264.965c16.322 3.923 33.635 5.692 51.409 4.71 8.344-.457 16.516-1.832 23.308-2.995 29.44-5.027 64.939-21.209 96.799-71.975" stroke="#4A5C76" stroke-width="1.5" stroke-linecap="round" stroke-linejoin="round"/><path d="M94.952 264.965c15.589 2.769 32.024 3.683 48.906 1.986 7.783-.782 15.426-2.344 21.988-3.841 29.439-6.706 64.214-24.852 94.979-77.989" stroke="#4A5C76" stroke-width="1.5" stroke-linecap="round" stroke-linejoin="round"/><path d="M255.197 174.781c-1.408 2.63-2.788 5.168-3.494 6.394-28.742 50.545-61.395 70.165-89.681 78.364-6.321 1.833-13.439 3.589-20.656 4.688-15.987 2.43-31.558 2.349-46.409.742" stroke="#4A5C76" stroke-width="1.5" stroke-linecap="round" stroke-linejoin="round"/><path d="M94.952 264.965c14.114.453 28.811-.285 43.911-3.466 6.656-1.407 13.254-3.362 19.326-5.534 26.942-9.634 56.843-29.978 83.392-77.025.751-1.294 4.66-8.652 5.398-10.068a351.35 351.35 0 002.828-5.661" stroke="#4A5C76" stroke-width="1.5" stroke-linecap="round" stroke-linejoin="round"/><path d="M94.952 264.965c13.381-.71 27.214-2.231 41.404-6.199a141.666 141.666 0 0017.996-6.371c25.621-11.06 52.743-32.137 77.106-75.695.376-.642 4.706-8.833 5.077-9.534a337.454 337.454 0 007.838-16.534" stroke="#4A5C76" stroke-width="1.5" stroke-linecap="round" stroke-linejoin="round"/><path d="M94.952 264.965a315.882 315.882 0 0010.308-1.688h.014c10.701-1.95 21.656-4.652 32.697-8.955 28.44-11.091 57.355-32.833 83.378-79.848l4.756-9.019c4.353-8.611 8.625-18.023 12.756-28.317m-.009-.027s-.004.018-.013.022m33.937-66.748c32.929-48.811 68.962-63.757 98.587-66.373 7-1.04 15.733-2.027 24.634-2.158 18.675-.272 36.739 2.294 53.798 7.385" stroke="#4A5C76" stroke-width="1.5" stroke-linecap="round" stroke-linejoin="round"/><path d="M278.519 79.304c31.851-50.685 67.259-66.699 96.667-71.722 6.797-1.167 14.969-2.543 23.313-2.995 17.774-.982 34.965.72 51.291 4.651" stroke="#4A5C76" stroke-width="1.5" stroke-linecap="round" stroke-linejoin="round"/><path d="M284.17 88.92c30.747-53.007 65.441-71.066 94.849-77.763 6.561-1.498 14.204-3.059 21.982-3.842 16.888-1.697 33.209-.846 48.793 1.923" stroke="#4A5C76" stroke-width="1.5" stroke-linecap="round" stroke-linejoin="round"/><path d="M289.84 98.91c1.394-2.61 2.62-4.606 3.326-5.819 28.743-50.544 61.395-70.164 89.681-78.364 6.317-1.832 13.439-3.588 20.657-4.688 15.986-2.43 31.439-2.411 46.29-.8" stroke="#4A5C76" stroke-width="1.5" stroke-linecap="round" stroke-linejoin="round"/><path d="M295.18 110.721c.968-1.991 1.737-3.421 2.71-5.335.733-1.412 4.643-8.77 5.389-10.068 26.553-47.051 56.45-67.391 83.396-77.025 6.068-2.172 12.67-4.127 19.327-5.534 15.091-3.181 29.675-3.977 43.793-3.53" stroke="#4A5C76" stroke-width="1.5" stroke-linecap="round" stroke-linejoin="round"/><path d="M300.709 123.083c2.566-5.805 4.973-10.778 7.62-15.987.362-.701 4.702-8.896 5.077-9.534 24.363-43.558 51.477-64.635 77.102-75.694a141.56 141.56 0 0118.005-6.371c14.19-3.964 27.91-5.553 41.286-6.263" stroke="#4A5C76" stroke-width="1.5" stroke-linecap="round" stroke-linejoin="round"/><path d="M306.221 136.595c4.131-10.29 8.185-19.182 12.543-27.784l4.756-9.018c30.548-55.196 65.011-75.6 98.057-84.799h.004a177.177 177.177 0 018.82-2.226 224.834 224.834 0 019.498-1.919 289.522 289.522 0 019.891-1.615" stroke="#4A5C76" stroke-width="1.5" stroke-linecap="round" stroke-linejoin="round"/><path d="M419.762 242.584c-37.232 15.915-79.486-33.792-101.012-77.432-8.502-16.163-15.557-36.63-23.566-53.761-21.698-52.228-65.88-101.958-115.582-107.8" stroke="#4A5C76" stroke-width="1.5" stroke-miterlimit="10" stroke-linecap="round"/><path d="M400.707 250.983c-34.793-1.199-58.228-32.246-81.423-66.771-11.639-18.2-21.313-42.481-30.558-62.093-17.873-37.897-52.946-97.865-92.472-107.997" stroke="#4A5C76" stroke-width="1.5" stroke-miterlimit="10" stroke-linecap="round"/><path d="M388.43 254.634c-31.494-4.185-49.232-27.561-73.373-60.39-14.869-21.164-25.163-46.477-37.073-69.943-18.661-39.4-56.612-97.714-93.781-109.57" stroke="#4A5C76" stroke-width="1.5" stroke-miterlimit="10" stroke-linecap="round"/><path d="M375.607 257.77c-23.662-.733-51.567-34.241-70.704-61.685-11.932-16.674-23.969-42.377-33.087-60.345-9.755-19.236-19.634-40.513-31.765-57.712-19.145-27.449-50.038-60.518-70.396-61.464" stroke="#4A5C76" stroke-width="1.5" stroke-miterlimit="10" stroke-linecap="round"/><path d="M361.023 259.657c-40.576-11.901-75.364-70.414-94.053-109.84-11.815-23.24-22.254-48.902-37.078-69.939-24.227-32.91-41.616-55.983-73.228-60.25" stroke="#4A5C76" stroke-width="1.5" stroke-miterlimit="10" stroke-linecap="round"/><path d="M351.145 260.589c-42.856-10.543-77.07-70.726-94.917-108.591-9.765-20.661-18.561-43.209-30.557-62.088-23.358-34.675-46.237-65.137-81.251-66.486" stroke="#4A5C76" stroke-width="1.5" stroke-miterlimit="10" stroke-linecap="round"/><path d="M362.254 268.906c-43.088-2.452-90.682-53.852-112.479-106.179-8.045-17.082-15.05-37.625-23.566-53.757-21.525-43.63-63.784-93.351-101.012-77.432" stroke="#4A5C76" stroke-width="1.5" stroke-miterlimit="10" stroke-linecap="round"/><path d="M381.322 33.18c22.779-10.353 48.422 1.385 65.02 17.96 12.91 12.892 21.539 29.657 26.476 47.219 11.937 42.48 2.814 93.251-28.445 125.505-12.457 12.856-28.141 22.073-45.123 27.598-12.353 4.018-25.019 7.381-38.037 8.127-10.62.611-22.404.928-32.793-1.57" stroke="#4A5C76" stroke-width="1.5" stroke-miterlimit="10" stroke-linecap="round"/><path d="M330.248 258.929c15.344 3.421 28.928 4.031 44.232 2.253 15.059-1.747 30.168-5.647 42.988-11.095 18.163-7.72 35.046-20.68 46.969-36.513.91-1.208 1.797-2.434 2.652-3.683 5.317-7.756 9.407-15.846 12.525-23.792 9.082-23.359 9.638-44.857 9.539-49.599-.131-6.552-.946-40.395-20.408-70.717-9.733-15.168-23.924-27.901-39.906-36.205-9.331-4.846-22.901-7.869-33.472-4.53" stroke="#4A5C76" stroke-width="1.5" stroke-miterlimit="10" stroke-linecap="round"/><path d="M408.716 19.234c20.992-1.85 56.459 24.015 69.979 44.775 18.788 28.852 20.992 61.631 21.263 72.455.19 7.611-1.253 28.897-10.05 51.046-3.28 8.272-7.611 16.544-13.131 24.39-13.63 19.227-34.775 36.169-62.527 44.649-15.629 4.868-31.661 7.47-48.105 7.715-12.209.117-26.458-2.322-37.716-6.249" stroke="#4A5C76" stroke-width="1.5" stroke-miterlimit="10" stroke-linecap="round"/><path d="M328.429 258.015c17.177 7.534 38.901 10.986 58.155 10.285.005.005.014 0 .014 0 14.557-.579 28.706-2.679 42.648-6.67 27.797-7.946 51.581-24.498 67.291-45.644 5.919-8.023 10.707-16.679 14.358-25.58 8.105-19.76 11.453-40.589 11.064-53.947-.525-19.367-5.674-49.929-22.974-75.934-15.538-23.349-40.073-39.25-69.49-47.64" stroke="#4A5C76" stroke-width="1.5" stroke-miterlimit="10" stroke-linecap="round"/><path d="M438.957 10.9c29.485 8.158 53.581 23.28 70.174 47.883 16.503 24.616 23.163 54.033 23.829 77.676.475 16.218-3.847 36.807-11.571 55.391-3.86 9.217-8.842 18.064-14.964 26.177-15.082 19.996-37.553 35.616-61.178 43.508-26.766 8.937-55.563 11.561-83.455 7.1-11.453-1.833-22.729-5.955-33.358-10.616" stroke="#4A5C76" stroke-width="1.5" stroke-miterlimit="10" stroke-linecap="round"/><path d="M328.429 258.024c9.48 4.837 21.05 9.855 31.449 11.828 10.543 2 20.683 3.204 31.403 3.33 29.802.353 58.703-4.855 85.011-19.321 15.39-8.467 29.255-19.856 40.006-33.789 6.326-8.203 11.539-17.244 15.58-26.774 7.38-17.39 12.634-37.752 12.082-56.839-.82-27.919-8.919-56.228-24.689-79.423-17.602-25.887-40.942-40.196-70.5-48.119" stroke="#4A5C76" stroke-width="1.5" stroke-miterlimit="10" stroke-linecap="round"/><path d="M328.429 258.014c13.887 5.507 31.39 8.476 46.734 8.236a166.093 166.093 0 0017.028-1.145c.004.005.013.005.018 0a185.098 185.098 0 0018.258-3.063c3.665-.733 7.675-1.923 11.281-2.955 27.775-8.208 50.237-24.96 64.907-45.146 5.724-7.932 10.285-16.394 13.747-24.987 8.457-20.947 10.837-42.015 10.561-52.495-.407-15.1-4.068-46.775-22.123-74.197-14.516-22.054-38.168-38.426-67.513-47.05" stroke="#4A5C76" stroke-width="1.5" stroke-miterlimit="10" stroke-linecap="round"/></svg>