<svg width="519" height="83" fill="none" xmlns="http://www.w3.org/2000/svg"><path d="M41.31 49.575v5.198c3.608 0 4.021.18 5.18.541 1.152.36 1.734 1.228 1.734 2.602v15.597c-1.228.937-2.73 1.624-4.493 2.06-1.502.367-3.26.571-5.25.623-.361.012-.716.024-1.089.024-6.065 0-10.995-2.8-14.79-8.393-3.79-5.593-5.687-12.839-5.687-21.72 0-8.882 1.898-16.285 5.687-21.773 3.789-5.488 8.72-8.23 14.79-8.23.256 0 .512.024.768.035 4.034.18 7.771 1.781 11.205 4.837 3.65 3.247 7.06 8.235 10.239 14.951h4.767L63.178 10.36H58.41l-2.998 4.144-.687.948c-2.532-2.095-5.308-3.643-8.34-4.656-2.806-.93-5.874-1.42-9.174-1.49-4.517.14-8.958 1.1-13.318 2.899A38.893 38.893 0 0011.38 20.44c-3.686 3.54-6.502 7.62-8.452 12.24C.978 37.3.006 42.213.006 47.41c0 5.198.937 9.877 2.817 14.248 1.874 4.37 4.587 8.177 8.126 11.43 3.393 3.178 7.369 5.617 11.915 7.31 4.249 1.584 8.754 2.422 13.51 2.526 4.918-.104 10.058-1.03 15.424-2.793 5.705-1.88 8.987-4.26 12.38-7.153V57.92c0-1.367.577-2.234 1.735-2.601 1.153-.361.583-.541 4.197-.541V49.58H41.315l-.006-.006zm199.364 22.303c-.361-.611-.542-1.461-.542-2.543V0h-3.247l-17.201 5.739v3.247l3.574 1.95c.937.506 1.589 1.065 1.95 1.682.361.611.542 1.46.542 2.543V32.93c-1.665-1.659-3.435-2.87-5.309-3.632-1.88-.756-3.94-1.135-6.176-1.135-3.614 0-7.078.774-10.401 2.328-3.324 1.554-6.211 3.737-8.667 6.554-2.387 2.601-4.191 5.634-5.419 9.096-1.228 3.47-1.845 7.113-1.845 10.942 0 7.147 2.019 13.142 6.065 17.984 4.045 4.843 9.028 7.258 14.953 7.258 3.394 0 6.642-.937 9.75-2.817 3.102-1.88 5.454-4.15 7.043-6.827v9.644h3.248l17.194-3.574v-3.247l-3.574-1.95c-.937-.506-1.589-1.065-1.95-1.682l.012.006zm-14.936-3.958s-1.403 1.6-3.597 3.085c-3.83 2.596-10.076 4.836-15.477-2.427-4.127-5.547-5.326-13.945-3.598-20.4 1.619-6.04 6.095-13.298 13.464-13.298 2.019 0 3.806.471 5.36 1.408 1.555.937 2.835 2.276 3.848 4.01V67.92zm105.115-33.419v-5.936h-20.692v5.942l.582.012c4.889.099 6.216.227 6.216.943 0 .384-.163.867-.331 1.38-.07.209-.14.424-.192.61l-9.017 25.882-12.398-34.77h-7.537l-11.921 34.601-8.044-25.626c-.361-.93-.518-1.577-.518-2.077 0-.716 1.321-.844 6.216-.943l.582-.012v-5.942h-28.83V34.5l.582.012c4.471.11 4.727.21 5.472 2.119l16.635 45.443h7.98l12.061-34.589 12.357 34.199.14.39h7.974l16.63-45.432c.727-1.862.786-2.02 5.477-2.13l.582-.012h-.006zM381.61 71.72c-1.578 1.537-2.992 2.224-4.593 2.224-1.6 0-2.526-1.257-2.526-3.445V42.964c0-9.993-6.664-15.493-18.76-15.493-13.614 0-25.11 6.699-25.11 14.62 0 5.034 3.83 7.327 7.392 7.327 4.29 0 7.282-2.794 7.282-6.786 0-1.06-.256-1.903-.483-2.648-.158-.53-.297-.984-.297-1.38 0-1.96 2.654-3.986 7.095-3.986 5.297 0 7.875 2.764 7.875 8.45v5.43c-18.335 4.884-30.535 10.453-30.535 21.669 0 7.327 5.699 12.443 13.859 12.443 6.089 0 12.328-2.805 17.602-7.91 2.154 5.105 6.216 7.91 11.478 7.91 4.75 0 9.424-2.351 13.155-6.623l.303-.35-3.242-4.411-.495.483v.012zm-22.13-16.895v14.754c-3.283 2.718-6.095 3.928-9.098 3.928-3.964 0-6.426-2.531-6.426-6.6 0-4.068 1.892-8.468 15.524-12.082zm58.212 14.801c-2.793 2.648-5.18 3.777-7.991 3.777-4.36 0-6.758-2.462-6.758-6.926V35.712h16.164v-7.147h-16.164V11.064l-15.116 4.37v13.13h-7.137v7.148h7.137v33.157c0 8.224 6.466 13.753 16.082 13.753 7.061 0 12.98-2.602 18.108-7.95l.181-.187-4.267-5.08-.233.22h-.006z" fill="#fff"/><path d="M464.625 65.482c-4.151 5.692-7.794 7.81-13.446 7.81-9.075 0-15.047-6.926-15.646-18.1h34.744V51.67c0-6.855-1.945-12.751-5.629-17.04-4.022-4.686-9.948-7.16-17.142-7.16-15.145 0-27.008 12.496-27.008 28.443 0 17.53 13.475 26.703 26.781 26.703 10.046 0 18.62-4.959 22.928-13.27l.227-.442-5.466-3.905-.349.477.006.006zm-28.824-16.896c1.082-8.614 5.279-13.747 11.257-13.747s8.644 4.627 8.76 13.747h-20.017zm73.136-21.109c-2.997 0-6.263 1.734-9.714 5.15-2.538 2.514-4.692 5.465-6.182 7.74V27.472h-3.161l-18.87 5.372v3.736l4.662 2.218c1.793.93 2.247 1.425 2.247 3.404V73.98c0 1.321 0 1.594-5.757 1.594h-.593v5.955h31.169v-5.955h-.593c-8.819 0-9.098-.267-9.098-1.705v-25.73c2.468-3.72 6.676-7.758 9.208-7.863 1.019 0 1.77.64 2.718 1.449 1.304 1.106 2.783 2.363 5.419 2.363 3.743 0 7.614-2.945 7.614-7.875 0-5.232-3.644-8.747-9.063-8.747m-354.054.424c-12.684 0-18.522 5.54-23.114 11.168 2.054 2.241 5.657 9.516 6.309 11.204 2.218-4.04 6.822-10.657 11.694-14.178 2.986-2.153 7.014-2.17 9.977.024 5.663 4.19 10.296 12.606 8.009 24.176-1.566 7.927-5 12.292-8.504 14.608a8.4 8.4 0 01-9.726-.337c-3.784-2.904-9.738-8.736-14.156-20.772-9.395-25.573-26.316-25.893-31.112-25.893-21.6 0-29.755 14.06-29.58 28.826C74.847 70.242 85.145 83 103.695 83c13.073 0 18.469-7.13 22.089-11.39-3.644-5.052-5.541-9.26-6.275-11.087-2.357 4.3-6.705 10.534-11.21 13.985a8.406 8.406 0 01-9.779.303c-4.296-2.893-7.707-7.857-8.807-14.789-1.99-12.542 3.504-20.387 8.801-24.083 3.138-2.188 7.358-2.014 10.274.465 3.597 3.062 8.416 8.562 11.781 16.803 4.604 11.285 13.184 29.799 32.828 29.676 15.873-.099 29.599-9.312 29.599-27.592 0-18.281-16.426-27.401-28.103-27.401h-.005z" fill="#fff"/></svg>