<svg width="228" height="37" fill="none" xmlns="http://www.w3.org/2000/svg"><path d="M18.599 22.206v2.285c1.583 0 1.764.079 2.272.238.506.158.76.54.76 1.143v6.856c-.538.412-1.197.714-1.97.905-.659.162-1.43.251-2.303.274-.158.005-.314.01-.477.01-2.66 0-4.823-1.23-6.487-3.688C8.732 27.77 7.9 24.585 7.9 20.682c0-3.904.832-7.158 2.494-9.57 1.662-2.413 3.824-3.618 6.487-3.618.112 0 .224.01.337.016 1.769.08 3.408.783 4.914 2.126 1.6 1.427 3.097 3.62 4.49 6.572h2.092L28.19 4.97H26.1l-1.316 1.82-.302.417a11.308 11.308 0 00-3.658-2.047c-1.23-.409-2.576-.624-4.023-.654A16.522 16.522 0 0010.96 5.78 17.055 17.055 0 005.47 9.4a16.039 16.039 0 00-3.706 5.379C.91 16.811.483 18.97.483 21.255c0 2.284.411 4.34 1.236 6.262a14.543 14.543 0 003.564 5.024c1.488 1.397 3.232 2.469 5.226 3.213 1.863.696 3.84 1.064 5.925 1.11 2.157-.046 4.412-.452 6.765-1.227 2.502-.827 3.942-1.873 5.43-3.145v-6.617c0-.602.253-.983.761-1.144.506-.158.255-.238 1.84-.238V22.21H18.603l-.003-.003zm87.441 9.804c-.159-.27-.238-.643-.238-1.118V.416h-1.424l-7.544 2.522v1.427l1.567.857c.411.223.697.468.856.74.158.268.237.642.237 1.117v7.81c-.73-.729-1.506-1.26-2.328-1.596-.825-.332-1.729-.499-2.709-.499-1.585 0-3.104.34-4.562 1.024a11.406 11.406 0 00-3.801 2.88 11.562 11.562 0 00-2.377 3.998 14.322 14.322 0 00-.81 4.81c0 3.141.887 5.776 2.66 7.904 1.775 2.129 3.96 3.19 6.56 3.19 1.488 0 2.912-.412 4.275-1.238 1.361-.826 2.392-1.824 3.09-3V36.6h1.424l7.541-1.57v-1.428l-1.567-.857c-.411-.222-.697-.468-.855-.74l.005.003zm-6.551-1.74s-.615.703-1.578 1.356c-1.68 1.14-4.419 2.125-6.788-1.067-1.81-2.438-2.336-6.13-1.578-8.966.71-2.656 2.673-5.846 5.905-5.846.886 0 1.67.208 2.351.62.682.411 1.244 1 1.688 1.762v12.14zm46.102-14.689v-2.61h-9.075v2.613l.255.005c2.144.043 2.726.1 2.726.414 0 .169-.071.381-.145.606a5.783 5.783 0 00-.084.269l-3.955 11.376-5.438-15.282h-3.306l-5.228 15.208-3.528-11.264c-.158-.409-.227-.693-.227-.913 0-.315.579-.37 2.726-.414l.255-.005v-2.612h-12.644v2.609l.255.005c1.961.049 2.073.092 2.4.931l7.296 19.974h3.5l5.29-15.203 5.42 15.032.061.171h3.497l7.294-19.969c.319-.818.345-.887 2.402-.936l.256-.005h-.003zm22.261 16.359c-.692.675-1.312.977-2.014.977-.702 0-1.108-.552-1.108-1.514V19.301c0-4.393-2.923-6.81-8.228-6.81-5.971 0-11.013 2.944-11.013 6.426 0 2.212 1.679 3.22 3.242 3.22 1.881 0 3.193-1.227 3.193-2.982 0-.466-.112-.837-.211-1.164-.069-.233-.131-.433-.131-.607 0-.862 1.164-1.752 3.112-1.752 2.324 0 3.454 1.215 3.454 3.714v2.387c-8.041 2.146-13.392 4.595-13.392 9.524 0 3.22 2.499 5.47 6.078 5.47 2.671 0 5.407-1.234 7.72-3.477.945 2.243 2.727 3.477 5.035 3.477 2.083 0 4.133-1.034 5.769-2.912l.133-.153-1.422-1.94-.217.213v.005zm-9.706-7.426v6.485c-1.44 1.195-2.673 1.726-3.99 1.726-1.739 0-2.819-1.112-2.819-2.9 0-1.788.83-3.723 6.809-5.311zm25.532 6.506c-1.226 1.164-2.272 1.66-3.506 1.66-1.912 0-2.963-1.082-2.963-3.044V16.113h7.089v-3.14h-7.089V5.28l-6.63 1.92v5.772h-3.13v3.141h3.13v14.574c0 3.615 2.836 6.045 7.053 6.045 3.097 0 5.693-1.143 7.942-3.494l.08-.082-1.872-2.233-.102.097h-.002z" fill="#181C4B"/><path d="M204.262 29.198c-1.82 2.502-3.418 3.433-5.897 3.433-3.98 0-6.599-3.044-6.862-7.956h15.238v-1.548c0-3.013-.852-5.604-2.468-7.49-1.764-2.06-4.363-3.146-7.519-3.146-6.642 0-11.845 5.492-11.845 12.501 0 7.705 5.91 11.737 11.746 11.737 4.406 0 8.166-2.18 10.056-5.832l.099-.195-2.397-1.716-.153.21.002.002zm-12.642-7.426c.475-3.786 2.316-6.043 4.938-6.043s3.791 2.034 3.842 6.043h-8.78zm32.077-9.279c-1.314 0-2.747.763-4.261 2.264-1.113 1.106-2.057 2.402-2.711 3.403v-5.67h-1.386l-8.277 2.362v1.642l2.045.975c.787.41.986.627.986 1.496v13.968c0 .58 0 .7-2.525.7h-.26v2.618h13.67v-2.617h-.26c-3.868 0-3.99-.118-3.99-.75v-11.31c1.082-1.634 2.928-3.41 4.039-3.455.446 0 .776.281 1.192.637.572.486 1.22 1.038 2.377 1.038 1.641 0 3.339-1.294 3.339-3.46 0-2.3-1.598-3.846-3.975-3.846m-155.286.187c-5.563 0-8.123 2.436-10.138 4.91.902.984 2.482 4.182 2.768 4.924.973-1.776 2.992-4.684 5.129-6.232a3.698 3.698 0 014.375.01c2.484 1.842 4.516 5.541 3.513 10.627-.687 3.484-2.193 5.403-3.73 6.42a3.678 3.678 0 01-4.266-.148c-1.659-1.276-4.27-3.84-6.208-9.13-4.12-11.24-11.542-11.38-13.645-11.38-9.474 0-13.051 6.18-12.975 12.67.072 5.945 4.588 11.552 12.724 11.552 5.734 0 8.1-3.134 9.689-5.006-1.599-2.22-2.43-4.07-2.752-4.873-1.034 1.89-2.941 4.63-4.917 6.147a3.68 3.68 0 01-4.29.133c-1.883-1.271-3.38-3.453-3.862-6.5-.873-5.513 1.537-8.961 3.86-10.586a3.687 3.687 0 014.506.205c1.578 1.345 3.692 3.763 5.167 7.385 2.02 4.96 5.782 13.098 14.399 13.044 6.961-.043 12.981-4.093 12.981-12.128s-7.204-12.044-12.325-12.044h-.003z" fill="#181C4B"/></svg>