<svg width="126" height="594" fill="none" xmlns="http://www.w3.org/2000/svg"><g opacity=".7"><mask id="a" style="mask-type:alpha" maskUnits="userSpaceOnUse" x="0" y="0" width="157" height="594"><path fill="#B9E9F9" d="M0 0h157v594H0z"/></mask><g style="mix-blend-mode:multiply" opacity=".2" stroke-width="2" stroke-linecap="round" mask="url(#a)"><path d="M41.967-112.652C31.094-74.147 25.46-33.093 26.04 9.061c.277 20.109 2.389 39.828 4.605 55.634 5.609 66.928 38.901 149.133 143.49 223.525" stroke="url(#paint0_linear_1756_6183)" stroke-linejoin="round"/><path d="M41.968-112.652C33.576-75.804 29.788-36.714 31.887 3.421c.976 18.841 3.919 37.293 6.413 52.626 10.754 66.468 46.316 147.239 154.929 219.181" stroke="url(#paint1_linear_1756_6183)" stroke-linejoin="round"/><path d="M41.968-112.652C36.043-77.462 34.09-40.349 37.72-2.233c1.676 17.574 5.015 34.829 8.221 49.646 14.344 66.468 54.313 145.679 167.994 215.142" stroke="url(#paint2_linear_1756_6183)" stroke-linejoin="round"/><path d="M236.062 249.785c-5.634-3.175-12.205-6.935-14.831-8.537C113.092 176.353 71.117 102.629 53.581 38.765 49.66 24.49 45.9 8.42 43.55-7.873c-5.199-36.096-5.027-71.245-1.583-104.779" stroke="url(#paint3_linear_1756_6183)" stroke-linejoin="round"/><path d="M41.968-112.652c-.964 31.862.606 65.048 7.415 99.139 3.01 15.026 7.192 29.927 11.837 43.63 20.612 60.828 64.131 128.341 164.787 188.279 2.771 1.699 18.513 10.528 21.535 12.185 4.13 2.228 8.34 4.442 12.642 6.657" stroke="url(#paint4_linear_1756_6183)" stroke-linejoin="round"/><path d="M41.969-112.652c1.517 30.205 4.777 61.441 13.261 93.485a332.03 332.03 0 0013.632 40.636c23.66 57.848 68.749 119.081 161.936 174.088 1.373.85 18.896 10.626 20.401 11.461 11.15 5.988 22.934 11.893 35.377 17.7" stroke="url(#paint5_linear_1756_6183)" stroke-linejoin="round"/><path d="M41.968-112.652c1.082 7.687 2.256 15.444 3.616 23.27v.028c4.17 24.162 9.95 48.894 19.16 73.822 23.725 64.212 70.24 129.497 170.83 188.251l19.292 10.736c18.421 9.832 38.558 19.469 60.581 28.799" stroke="url(#paint6_linear_1756_6183)" stroke-linejoin="round"/><path d="M43.815 450.835c.502-1.462 1.003-2.925 1.531-4.373.515-1.462 1.042-2.91 1.597-4.345a242.784 242.784 0 013.404-8.564c.58-1.421 1.188-2.827 1.808-4.22.607-1.406 1.24-2.799 1.874-4.191v-.014a231.63 231.63 0 011.953-4.15c21.06-43.658 57.533-89.475 118.153-132.756a540.897 540.897 0 0118.646-12.715c.145-.097.29-.181.448-.278 6.532-4.081 13.46-8.328 20.704-12.673 4.553-2.743 9.237-5.515 14.027-8.314 2.666-1.49 5.358-2.98 8.089-4.456a733.94 733.94 0 0124.135-12.547 763.442 763.442 0 0126.391-12.52" stroke="url(#paint7_linear_1756_6183)" stroke-linejoin="round"/><path d="M52.34 479.439v-.027c5.12-18.536 12.034-36.278 21.43-52.905 17.853-30.888 43.123-61.929 78.184-91.661 4.631-4.261 12.918-10.221 18.038-14.441a506.463 506.463 0 0125.204-17.951 455.937 455.937 0 018.405-5.514c3.972-2.535 7.97-5.111 12.087-7.604l.753-.459a1306.742 1306.742 0 0121.297-12.534 1342.64 1342.64 0 0114.225-8.063 737.571 737.571 0 019.224-5.069 899.805 899.805 0 0125.23-13.202" stroke="url(#paint8_linear_1756_6183)" stroke-linejoin="round"/><path d="M56.259 503.614s16.56-45.984 35.285-71.566c21.403-29.244 47.478-59.227 82.631-86.494 3.708-3.398 14.449-10.207 18.553-13.591a546.982 546.982 0 0124.412-16.057 609.275 609.275 0 019.923-6.03c4.025-2.381 8.062-4.804 12.193-7.144.277-.167.567-.32.857-.487 7.377-4.178 14.977-8.44 22.75-12.743 4.315-2.381 8.682-4.79 13.09-7.199a949.986 949.986 0 0111.757-6.337" stroke="url(#paint9_linear_1756_6183)" stroke-linejoin="round"/><path d="M315.514 288.054s-.04.028-.066.028c-5.16 2.744-10.332 5.501-15.505 8.258a4049.135 4049.135 0 01-10.649 5.682c-8.524 4.554-16.983 9.052-25.296 13.467-.066.041-.145.069-.211.111-4.46 2.367-8.854 4.804-13.262 7.214a541.826 541.826 0 00-10.49 5.876 581.654 581.654 0 00-24.584 14.832c-3.074 2.534-16.27 10.207-19.054 12.756-35.246 24.788-64.131 52.125-87.065 81.299-22.327 29.44-39.587 54.562-50.17 91.007v.014" stroke="url(#paint10_linear_1756_6183)" stroke-linejoin="round"/><path d="M368.177 286.703a1860.42 1860.42 0 01-24.9 13.48 2355.18 2355.18 0 01-19.332 10.18 1080.39 1080.39 0 01-6.941 3.607 2354.186 2354.186 0 01-26.985 13.717c-.858.432-1.702.85-2.56 1.281-4.486 2.229-8.973 4.526-13.486 6.782a630.953 630.953 0 00-10.002 5.125 644.897 644.897 0 00-25.784 14.218c-2.046 1.685-17.709 10.194-19.556 11.907-35.351 22.31-66.031 47.794-91.512 76.119-27.698 31.724-49.233 62.027-63.3 103.317" stroke="url(#paint11_linear_1756_6183)" stroke-linejoin="round"/><path d="M415.392 286.871a798.42 798.42 0 01-22.011 13.034 951.49 951.49 0 01-23.554 13.063 1190.738 1190.738 0 01-21.891 11.433c-1.135.571-2.27 1.156-3.405 1.727-8.867 4.47-17.92 8.899-27.156 13.271-2.072.975-4.157 1.95-6.242 2.925-4.526 2.117-9.079 4.247-13.697 6.35a720.689 720.689 0 00-36.526 17.978c-1.016.85-19.133 10.208-20.057 11.072-35.457 19.816-67.931 43.462-95.945 70.924-32.712 32.657-60.12 66.594-77.947 111.519" stroke="url(#paint12_linear_1756_6183)" stroke-linejoin="round"/><path d="M71.474 574.874v-.014c39.362-86.954 112.36-147.741 191.6-186.427l20.572-10.222a812.32 812.32 0 0131.802-14.316c.013 0 .039 0 .052-.013a650.83 650.83 0 015.397-2.27 862.856 862.856 0 0023.515-10.18c9.118-4.108 17.933-8.258 26.444-12.478 8.34-4.122 16.402-8.286 24.174-12.519a623.587 623.587 0 0022.314-12.645 571.163 571.163 0 0020.572-12.756 560.79 560.79 0 0019.081-12.965" stroke="url(#paint13_linear_1756_6183)" stroke-linejoin="round"/><path d="M71.3.177C126.367-181 307.147-177.88 314.84-177.644c8.076-.236 188.513-3.119 243.935 176.707L559.341.9l3.721 12.004.449 1.449a437.177 437.177 0 013.378 12.324 428.024 428.024 0 014.104 17.24v.014a392.363 392.363 0 014.288 22.936c1.676 10.82 2.93 22.059 3.484 33.395v.014c.673 13.675.33 27.517-1.465 40.97v.055a174.772 174.772 0 01-2.388 13.718h.026" stroke="#181C4B" stroke-miterlimit="10"/><path d="M577.288 141.316v-.056c3.181-16.126 4.381-32.921 4.197-49.618v-.014c-.159-12.547-1.082-25.039-2.574-37.154v-.014a402.639 402.639 0 00-3.642-23.883v-.014a421.418 421.418 0 00-3.628-17.742 429.826 429.826 0 00-3.378-13.912v-.014c-.093-.32-.172-.627-.251-.947-.132-.654-1.834-6.322-3.141-10.709-.778-2.604-1.425-4.749-1.517-5.139-18.738-62.736-52.849-106.213-92.013-134.705-16.627-12.032-33.979-21.293-51.015-28.34-50.09-20.554-96.182-21.808-106.356-21.585-14.054.293-86.616 2.145-151.631 46.179-41.659 28.409-78.066 74.81-97.608 140.819l-.04.125" stroke="#181C4B" stroke-miterlimit="10"/><path d="M59.823-31.004c19.028-66.245 55.118-117.716 99.64-148.311 61.861-42.516 132.154-47.502 155.365-48.114 16.323-.432 61.967 2.841 109.458 22.741 17.735 7.422 35.47 17.226 52.294 29.718 41.223 30.846 74.912 77.303 93.095 140.095.172.682.673 2.45 1.293 4.623 1.056 3.677 2.428 8.453 3.022 10.737v.014c.119.446.198.794.251 1.03a487.55 487.55 0 012.797 12.242v.027a447.246 447.246 0 013.378 17.603 420.402 420.402 0 013.418 24.12c1.412 12.56 2.27 25.47 2.389 38.45.25 27.628-2.89 55.564-11.309 81.048" stroke="#181C4B" stroke-miterlimit="10"/><path d="M574.912 155.033c11.81-31.431 16.085-66.733 15.57-101.45v-.056c-.184-12.98-1.042-25.889-2.454-38.478.013-.014.013-.027 0-.041A427.288 427.288 0 00584.61-9.53a407.802 407.802 0 00-3.153-16.78v-.029a381.899 381.899 0 00-1.861-8.536c-.158-.794-.475-2.061-.871-3.58-.739-2.882-1.781-6.656-2.586-9.58-.436-1.616-.818-2.98-1.016-3.802-17.603-62.848-50.883-112.285-94.164-145.485-17.009-12.951-35.153-23.27-53.575-31.11-44.917-19.134-90.086-24.524-112.558-23.897-32.382.919-100.3 9.205-159.1 50.064-47.293 32.851-82.393 86.369-100.894 152.781" stroke="#181C4B" stroke-miterlimit="10"/><path d="M574.912 155.033c16.152-38.868 21.47-83.723 19.965-127.297v-.028a435.753 435.753 0 00-3.246-40.08v-.013a458.32 458.32 0 00-3.549-23.131 431.353 431.353 0 00-2.903-14.706v-.014c-.08-.362-.145-.71-.225-1.058-.422-2.075-1.24-5.404-2.098-8.732-.726-2.799-1.464-5.598-1.992-7.645v-.014c-.106-.404-.198-.78-.291-1.114-17.035-62.904-49.892-115.335-95.232-150.888a252.68 252.68 0 00-54.855-32.489c-42.371-18.341-87.038-25.916-115.672-25.039-41.527 1.184-107.057 12.84-162.821 51.986-50.064 35.163-84.162 90.685-102.148 157.252" stroke="#181C4B" stroke-miterlimit="10"/><path d="M45.583-89.353v-.028C63.081-156.1 95.503-210.634 148.258-248.18c52.783-37.349 115.858-52.417 166.556-53.921 34.77-1.072 78.923 8.704 118.773 26.181 19.767 8.731 38.73 20.011 56.135 33.868 46.488 37.196 78.593 91.201 95.325 152.67.343 1.198.66 2.395.976 3.607.066.278.145.57.225.863.461 1.852.989 3.97 1.53 6.155.805 3.231 1.61 6.601 2.217 9.456.119.557.224 1.086.33 1.602a439.925 439.925 0 012.995 15.861 456.162 456.162 0 014.856 37.433c5.081 57.264-.303 118.524-23.25 169.437" stroke="#181C4B" stroke-miterlimit="10"/><path d="M574.925 155.048c10.464-21.669 17.907-45.218 22.749-69.658 5.199-26.223 7.43-53.476 7.205-80.562-.224-30.428-3.549-60.647-9.197-88.917a405.26 405.26 0 00-3.616-16.279c-.184-.738-.369-1.463-.554-2.201-15.874-63.07-47.926-121.531-97.41-161.819-17.59-14.316-36.974-26.111-57.414-35.261-37.291-16.711-80.955-28.604-121.875-27.35-59.869 1.852-120.568 20.178-170.303 55.871C88.996-231.3 58.316-177.616 41.334-110.729m518.271 686.59C504.54 757.052 323.76 753.918 316.067 753.695c-8.076.223-188.513 3.106-243.934-176.72l-.66-2.103v-.014l-2.89-9.33-1.188-3.83c-.145-.501-.29-1.016-.435-1.532a586.766 586.766 0 01-1.834-6.587 467.146 467.146 0 01-4.038-16.181 455.398 455.398 0 01-1.927-8.802v-.014a407.263 407.263 0 01-2.665-14.107s-3.404-23.089-4.157-35.037v-.028c-1.214-19.58-.435-39.578 3.669-58.392h-.027v-.014" stroke="#181C4B" stroke-miterlimit="10"/><path d="M56.007 421.019c-6.228 22.783-7.93 47.39-6.94 71.482v.07c.527 12.937 1.834 25.735 3.641 38.004a424.754 424.754 0 004.012 23.033 459.186 459.186 0 003.444 15.569 333.67 333.67 0 001.174 4.847c.08.557.832 3.244 1.703 6.322v.014c.87 3.05 1.86 6.489 2.454 8.592v.014c.264.933.435 1.602.488 1.852 19.332 66.831 55.989 112.369 97.912 141.349 16.27 11.141 33.108 19.789 49.602 26.292 48.481 19.134 92.501 20.318 102.57 20.109 14.053-.306 86.629-2.158 151.631-46.192 41.698-28.423 78.672-75.145 98.201-141.237" stroke="#181C4B" stroke-miterlimit="10"/><path d="M571.323 608.184c-19.015 66.246-55.355 116.588-99.877 147.183-61.875 42.502-132.155 47.502-155.366 48.115-16.244.431-60.225-2.827-106.436-21.544-17.299-7.018-34.665-16.265-51.159-28.088-44.483-31.905-80.388-81.676-98.65-149.147 0-.084-.04-.168-.053-.265v-.014c-.304-1.379-1.135-4.498-2.006-7.785v-.014c-2.441-9.581-4.447-19.384-5.331-24.147a458.509 458.509 0 01-3.55-21.836v-.028c-1.768-12.798-3.022-26.111-3.523-39.619-1.161-30.373 1.465-61.65 10.623-89.976" stroke="#181C4B" stroke-miterlimit="10"/><path d="M576.76 624.769s0 .014-.013.028v.014C558.233 691.21 522.46 745.452 475.18 778.317c-58.8 40.845-126.718 49.131-159.1 50.05-22.406.641-66.334-4.721-110.289-22.992-18.104-7.52-35.971-17.407-52.73-29.885-46.277-34.411-81.153-87.232-98.61-153.924a244.182 244.182 0 01-.766-2.994c-.184-.919-.501-2.256-.87-3.829-.594-2.493-1.347-5.557-2.02-8.425v-.028c-.725-3.078-1.359-5.905-1.583-7.534a235.83 235.83 0 01-.831-4.401s-.014 0 0-.028a429.81 429.81 0 01-3.088-18.814 434.988 434.988 0 01-3.721-36.806s-.014-.014 0-.028c0 0-.014 0 0-.028-2.31-39.549.963-81.118 14.422-117.618" stroke="#181C4B" stroke-miterlimit="10"/><path d="M581.682 644.099c-.053.209-.119.418-.172.627-18.052 66.301-52.69 121.504-102.596 156.541-55.765 39.16-121.294 50.816-162.821 52-28.595.877-72.444-6.671-114.168-24.44-18.883-8.049-37.251-18.591-54.274-31.682-47.399-36.43-81.127-91.229-98.043-156.277v-.014a321.326 321.326 0 01-1.373-5.431c-.237-1.003-.475-1.991-.712-2.994a193.93 193.93 0 00-.845-4.011c-.594-2.743-1.32-5.946-1.953-8.996-.673-3.133-1.267-6.113-1.583-8.313a693.865 693.865 0 01-.937-5.543v-.028a459.46 459.46 0 01-3.576-26.598v-.014c-5.476-52.237-2.441-109.625 17.352-157.907" stroke="#181C4B" stroke-miterlimit="10"/><path d="M55.98 421.004v.014c-27.34 61.08-29.373 136.878-18.895 202.442.105.766.237 1.56.37 2.367.659 4.081 1.57 8.746 2.454 13.119v.027c.514 2.605 1.029 5.097 1.464 7.312.093.445.198.877.29 1.322v.028c.463 2.075.938 4.15 1.439 6.211.396 1.671.805 3.329 1.227 4.986a172.45 172.45 0 001.122 4.303c16.653 62.514 49.193 117.855 96.776 155.65a253.988 253.988 0 0055.844 33.464c39.508 17.255 83.265 26.961 118.022 25.889 50.698-1.504 113.773-16.572 166.555-53.922 52.083-37.084 85.323-92.44 102.966-158.059.237-.85.461-1.685.686-2.535" stroke="#181C4B" stroke-miterlimit="10"/><path d="M55.981 421.004v.014a392 392 0 00-1.953 4.108v.014c-.633 1.393-1.266 2.786-1.873 4.192a199.069 199.069 0 00-1.808 4.22 237.552 237.552 0 00-3.405 8.564 288.25 288.25 0 00-1.596 4.345c-.528 1.448-1.03 2.91-1.531 4.373a298.064 298.064 0 00-5.437 17.853c-.382 1.42-.765 2.855-1.135 4.289a235.524 235.524 0 00-1.293 5.278c-.303 1.225-.58 2.437-.857 3.662-.278 1.24-.555 2.493-.819 3.733-.171.752-.33 1.49-.474 2.242-.198.947-.396 1.894-.568 2.841a91.857 91.857 0 00-.515 2.632 234.205 234.205 0 00-1.24 6.893 87.953 87.953 0 00-.33 1.977c-.132.739-.25 1.477-.356 2.229-.132.779-.25 1.573-.37 2.367a337.398 337.398 0 00-1.49 10.988c-.12.947-.225 1.88-.344 2.827l-.356 3.37c-.145 1.378-.29 2.757-.41 4.15-.078.779-.144 1.573-.21 2.353a97.417 97.417 0 00-.238 2.757c-.053.683-.119 1.365-.158 2.047a291.432 291.432 0 00-.343 4.875c-.08 1.169-.145 2.339-.211 3.509a293.58 293.58 0 00-.238 4.804c-.079 1.588-.132 3.189-.185 4.777-.052 1.601-.092 3.203-.132 4.804a410.906 410.906 0 00-.066 14.539c-.013.515 0 1.017 0 1.518.014 1.337.04 2.674.08 4.011-.014.014-.014.028 0 .042 0 .668.026 1.35.052 2.019 0 .195 0 .39.014.585.026 1.323.079 2.632.118 3.941.027.529.04 1.044.066 1.573.04 1.087.093 2.187.159 3.273.079 1.838.171 3.676.29 5.501.092 1.559.185 3.119.303 4.679.12 1.796.251 3.579.41 5.361.092 1.268.198 2.535.316 3.802.343 3.885.74 7.757 1.175 11.614a460.69 460.69 0 001.451 11.489c.264 1.922.541 3.816.818 5.71a499.48 499.48 0 001.834 11.28 484.91 484.91 0 002.085 11.113c13.988 70.033 47.28 136.098 101.58 180.299 17.59 14.316 36.974 26.111 57.414 35.261 37.291 16.697 80.956 28.59 121.875 27.322 59.869-1.838 120.569-20.178 170.303-55.857 55.514-39.828 86.194-93.512 103.177-160.413" stroke="#181C4B" stroke-miterlimit="10"/></g></g><defs><linearGradient id="paint0_linear_1756_6183" x1="100.071" y1="291.021" x2="100.071" y2="-115.436" gradientUnits="userSpaceOnUse"><stop stop-color="#fff"/><stop offset=".03" stop-color="#DDDEE5"/><stop offset=".07" stop-color="#B4B6C4"/><stop offset=".12" stop-color="#8F90A7"/><stop offset=".18" stop-color="#6E718D"/><stop offset=".24" stop-color="#535678"/><stop offset=".31" stop-color="#3D4067"/><stop offset=".39" stop-color="#2C305A"/><stop offset=".48" stop-color="#202450"/><stop offset=".62" stop-color="#191D4B"/><stop offset="1" stop-color="#181C4A"/></linearGradient><linearGradient id="paint1_linear_1756_6183" x1="112.278" y1="277.937" x2="112.278" y2="-115.345" gradientUnits="userSpaceOnUse"><stop stop-color="#fff"/><stop offset=".03" stop-color="#DDDEE5"/><stop offset=".07" stop-color="#B4B6C4"/><stop offset=".12" stop-color="#8F90A7"/><stop offset=".18" stop-color="#6E718D"/><stop offset=".24" stop-color="#535678"/><stop offset=".31" stop-color="#3D4067"/><stop offset=".39" stop-color="#2C305A"/><stop offset=".48" stop-color="#202450"/><stop offset=".62" stop-color="#191D4B"/><stop offset="1" stop-color="#181C4A"/></linearGradient><linearGradient id="paint2_linear_1756_6183" x1="124.916" y1="265.176" x2="124.916" y2="-115.257" gradientUnits="userSpaceOnUse"><stop stop-color="#fff"/><stop offset=".03" stop-color="#DDDEE5"/><stop offset=".07" stop-color="#B4B6C4"/><stop offset=".12" stop-color="#8F90A7"/><stop offset=".18" stop-color="#6E718D"/><stop offset=".24" stop-color="#535678"/><stop offset=".31" stop-color="#3D4067"/><stop offset=".39" stop-color="#2C305A"/><stop offset=".48" stop-color="#202450"/><stop offset=".62" stop-color="#191D4B"/><stop offset="1" stop-color="#181C4A"/></linearGradient><linearGradient id="paint3_linear_1756_6183" x1="137.784" y1="252.317" x2="137.784" y2="-115.169" gradientUnits="userSpaceOnUse"><stop stop-color="#fff"/><stop offset=".03" stop-color="#DDDEE5"/><stop offset=".07" stop-color="#B4B6C4"/><stop offset=".12" stop-color="#8F90A7"/><stop offset=".18" stop-color="#6E718D"/><stop offset=".24" stop-color="#535678"/><stop offset=".31" stop-color="#3D4067"/><stop offset=".39" stop-color="#2C305A"/><stop offset=".48" stop-color="#202450"/><stop offset=".62" stop-color="#191D4B"/><stop offset="1" stop-color="#181C4A"/></linearGradient><linearGradient id="paint4_linear_1756_6183" x1="150.952" y1="239.682" x2="150.952" y2="-115.082" gradientUnits="userSpaceOnUse"><stop stop-color="#fff"/><stop offset=".03" stop-color="#DDDEE5"/><stop offset=".07" stop-color="#B4B6C4"/><stop offset=".12" stop-color="#8F90A7"/><stop offset=".18" stop-color="#6E718D"/><stop offset=".24" stop-color="#535678"/><stop offset=".31" stop-color="#3D4067"/><stop offset=".39" stop-color="#2C305A"/><stop offset=".48" stop-color="#202450"/><stop offset=".62" stop-color="#191D4B"/><stop offset="1" stop-color="#181C4A"/></linearGradient><linearGradient id="paint5_linear_1756_6183" x1="164.278" y1="227.075" x2="164.278" y2="-114.995" gradientUnits="userSpaceOnUse"><stop stop-color="#fff"/><stop offset=".03" stop-color="#DDDEE5"/><stop offset=".07" stop-color="#B4B6C4"/><stop offset=".12" stop-color="#8F90A7"/><stop offset=".18" stop-color="#6E718D"/><stop offset=".24" stop-color="#535678"/><stop offset=".31" stop-color="#3D4067"/><stop offset=".39" stop-color="#2C305A"/><stop offset=".48" stop-color="#202450"/><stop offset=".62" stop-color="#191D4B"/><stop offset="1" stop-color="#181C4A"/></linearGradient><linearGradient id="paint6_linear_1756_6183" x1="178.714" y1="214.524" x2="178.714" y2="-114.908" gradientUnits="userSpaceOnUse"><stop stop-color="#fff"/><stop offset=".03" stop-color="#DDDEE5"/><stop offset=".07" stop-color="#B4B6C4"/><stop offset=".12" stop-color="#8F90A7"/><stop offset=".18" stop-color="#6E718D"/><stop offset=".24" stop-color="#535678"/><stop offset=".31" stop-color="#3D4067"/><stop offset=".39" stop-color="#2C305A"/><stop offset=".48" stop-color="#202450"/><stop offset=".62" stop-color="#191D4B"/><stop offset="1" stop-color="#181C4A"/></linearGradient><linearGradient id="paint7_linear_1756_6183" x1="42.326" y1="337.783" x2="288.074" y2="337.783" gradientUnits="userSpaceOnUse"><stop stop-color="#fff"/><stop offset=".03" stop-color="#DDDEE5"/><stop offset=".07" stop-color="#B4B6C4"/><stop offset=".12" stop-color="#8F90A7"/><stop offset=".18" stop-color="#6E718D"/><stop offset=".24" stop-color="#535678"/><stop offset=".31" stop-color="#3D4067"/><stop offset=".39" stop-color="#2C305A"/><stop offset=".48" stop-color="#202450"/><stop offset=".62" stop-color="#191D4B"/><stop offset="1" stop-color="#181C4A"/></linearGradient><linearGradient id="paint8_linear_1756_6183" x1="50.904" y1="364.73" x2="287.862" y2="364.73" gradientUnits="userSpaceOnUse"><stop stop-color="#fff"/><stop offset=".03" stop-color="#DDDEE5"/><stop offset=".07" stop-color="#B4B6C4"/><stop offset=".12" stop-color="#8F90A7"/><stop offset=".18" stop-color="#6E718D"/><stop offset=".24" stop-color="#535678"/><stop offset=".31" stop-color="#3D4067"/><stop offset=".39" stop-color="#2C305A"/><stop offset=".48" stop-color="#202450"/><stop offset=".62" stop-color="#191D4B"/><stop offset="1" stop-color="#181C4A"/></linearGradient><linearGradient id="paint9_linear_1756_6183" x1="54.839" y1="389.796" x2="289.139" y2="389.796" gradientUnits="userSpaceOnUse"><stop stop-color="#fff"/><stop offset=".03" stop-color="#DDDEE5"/><stop offset=".07" stop-color="#B4B6C4"/><stop offset=".12" stop-color="#8F90A7"/><stop offset=".18" stop-color="#6E718D"/><stop offset=".24" stop-color="#535678"/><stop offset=".31" stop-color="#3D4067"/><stop offset=".39" stop-color="#2C305A"/><stop offset=".48" stop-color="#202450"/><stop offset=".62" stop-color="#191D4B"/><stop offset="1" stop-color="#181C4A"/></linearGradient><linearGradient id="paint10_linear_1756_6183" x1="57.59" y1="408.332" x2="317.096" y2="408.332" gradientUnits="userSpaceOnUse"><stop stop-color="#fff"/><stop offset=".03" stop-color="#DDDEE5"/><stop offset=".07" stop-color="#B4B6C4"/><stop offset=".12" stop-color="#8F90A7"/><stop offset=".18" stop-color="#6E718D"/><stop offset=".24" stop-color="#535678"/><stop offset=".31" stop-color="#3D4067"/><stop offset=".39" stop-color="#2C305A"/><stop offset=".48" stop-color="#202450"/><stop offset=".62" stop-color="#191D4B"/><stop offset="1" stop-color="#181C4A"/></linearGradient><linearGradient id="paint11_linear_1756_6183" x1="61.952" y1="416.576" x2="370.056" y2="416.576" gradientUnits="userSpaceOnUse"><stop stop-color="#fff"/><stop offset=".03" stop-color="#DDDEE5"/><stop offset=".07" stop-color="#B4B6C4"/><stop offset=".12" stop-color="#8F90A7"/><stop offset=".18" stop-color="#6E718D"/><stop offset=".24" stop-color="#535678"/><stop offset=".31" stop-color="#3D4067"/><stop offset=".39" stop-color="#2C305A"/><stop offset=".48" stop-color="#202450"/><stop offset=".62" stop-color="#191D4B"/><stop offset="1" stop-color="#181C4A"/></linearGradient><linearGradient id="paint12_linear_1756_6183" x1="64.823" y1="423.526" x2="417.542" y2="423.526" gradientUnits="userSpaceOnUse"><stop stop-color="#fff"/><stop offset=".03" stop-color="#DDDEE5"/><stop offset=".07" stop-color="#B4B6C4"/><stop offset=".12" stop-color="#8F90A7"/><stop offset=".18" stop-color="#6E718D"/><stop offset=".24" stop-color="#535678"/><stop offset=".31" stop-color="#3D4067"/><stop offset=".39" stop-color="#2C305A"/><stop offset=".48" stop-color="#202450"/><stop offset=".62" stop-color="#191D4B"/><stop offset="1" stop-color="#181C4A"/></linearGradient><linearGradient id="paint13_linear_1756_6183" x1="69.108" y1="431.478" x2="459.377" y2="431.478" gradientUnits="userSpaceOnUse"><stop stop-color="#fff"/><stop offset=".03" stop-color="#DDDEE5"/><stop offset=".07" stop-color="#B4B6C4"/><stop offset=".12" stop-color="#8F90A7"/><stop offset=".18" stop-color="#6E718D"/><stop offset=".24" stop-color="#535678"/><stop offset=".31" stop-color="#3D4067"/><stop offset=".39" stop-color="#2C305A"/><stop offset=".48" stop-color="#202450"/><stop offset=".62" stop-color="#191D4B"/><stop offset="1" stop-color="#181C4A"/></linearGradient></defs></svg>