<svg width="228" height="65" fill="none" xmlns="http://www.w3.org/2000/svg"><path d="M63.253 35.972c.27 3.796-1.37 7.037-2.859 10.316a3025.06 3025.06 0 01-6.42 14.052c-2.268 4.963-6.403 5.802-10.447 2.163-4.344-3.907-8.728-7.774-13.086-11.667-2.926-2.62-5.02-5.798-5.85-9.71a2837.485 2837.485 0 01-5.749-27.807c-.73-3.563 1.196-6.51 4.659-7.288A4212.312 4212.312 0 0150.449.128 5.546 5.546 0 0152.684.1a5.611 5.611 0 012.072.857 5.756 5.756 0 011.588 1.61c.42.64.712 1.358.858 2.113 2.022 9.425 3.956 18.865 5.883 28.31.198.961.12 1.983.168 2.982zm26.299 5.125c1.207-.704 1.532-1.76 2.004-2.662 3.328-6.393 6.435-12.883 7.978-20.021.315-1.46.677-2.898.183-4.41a2.756 2.756 0 01.062-1.467c.531-1.872 3.335-3.564 6.114-3.717 2.592-.138 3.96.681 4.925 2.972.837 1.984 1.064 4.088 1.115 6.217.165 6.738-.256 13.476-.46 20.213-.048 1.531-.212 3.1.413 4.698 1.013-.513 1.265-1.453 1.66-2.246 3.32-6.618 5.81-13.584 8.23-20.587a70.253 70.253 0 012.264-5.72c1.561-3.496 6.066-5.742 9.755-4.956 2.015.435 2.801 1.404 2.761 3.526-.04 2.123-.666 4.065-1.496 5.94-3.733 8.396-7.623 16.721-12.377 24.582-3.199 5.296-7.62 9.193-13.642 10.884a4.855 4.855 0 01-.365.094c-6.458 1.404-9.737-1.871-8.301-8.452a82.284 82.284 0 001.463-10.166 5.286 5.286 0 00-.124-.895c-.732.577-.936 1.295-1.243 1.92-1.829 3.725-3.54 7.55-6.034 10.882-3.027 4.046-6.877 6.636-12.088 6.576-2.128-.022-3.415-1.123-4.073-3.091a15.99 15.99 0 01-.768-5.338c.128-7.172.22-14.344.413-21.512.07-2.538-.332-4.701-2.252-6.588-1.846-1.822-1.653-3.537.238-5.315a8.744 8.744 0 013.096-1.948 8.59 8.59 0 013.602-.496c2.991.19 4.688 1.718 5.178 4.802 1.034 6.487.65 13.064 1.038 19.595.154 2.201.157 4.41.731 6.686zm50.569 3.604c.969 1.92 2.475 2.58 4.216 2.785 2.475.292 4.837-.295 7.174-1.081.925-.315 1.013-.858.797-1.722-.987-3.908-.161-7.55 1.748-10.968 2.607-4.667 8.658-7.299 13.675-6.03 5.298 1.344 7.543 6.738 4.727 11.544-1.656 2.819-4.113 4.716-7.056 5.989-.417.18-1.097.153-1.116.778-.018.626.604.869 1.075 1.123a4.69 4.69 0 002.662.487c1.485-.082 2.852-.603 4.22-1.153 2.559-1.022 4.146-2.156 4.044-5.712-.209-7.112 4.684-12.427 11.236-13.213 3.415-.412 6.519.288 8.41 3.59 1.89 3.301 1.012 6.382-1.006 9.26a17.343 17.343 0 01-5.711 5.154c-.388.225-1.13.266-.984.88.092.374.622.749 1.031.97 1.744.969 3.43.542 5.046-.375a21.56 21.56 0 006.893-6.31c.833-1.165 1.63-2.527 3.36-1.827 1.29.524 1.616 2.38.903 4.338-2.56 7.07-12.26 12.697-19.492 11.308a10.47 10.47 0 01-6.008-3.317c-.731-.846-1.188-1.048-2.194-.28-5.082 3.904-10.826 4.491-16.867 3.215a8.465 8.465 0 01-4.073-2.025c-.764-.715-1.331-.723-2.22-.187-4.563 2.759-9.473 3.223-14.651 2.366-11.426-1.898-12.889-13.513-8.867-20.498a12.875 12.875 0 016.25-5.646 12.495 12.495 0 018.321-.496c2.925.868 5.174 2.567 5.744 5.858.585 3.368-.698 5.962-3.29 7.972-2.319 1.805-5.006 2.718-7.997 3.223zm4.307-10.48c.044-1.498-.782-2.291-2.12-2.048-1.993.374-4.14 3.11-4.066 5.188.047 1.329.691 1.954 1.992 1.744 1.946-.333 4.136-2.89 4.194-4.888v.004zm39.782 3.26c.033 1.254.161 2.294 1.247 2.699 1.016.374 1.733-.348 2.366-1.026 1.232-1.321 1.901-2.897 1.649-4.75-.253-1.853-1.741-2.5-3.159-1.273a5.645 5.645 0 00-1.529 1.931 5.763 5.763 0 00-.574 2.415v.004zm-17.916-2.774c.022-1.722-1.097-2.661-2.542-2.115-1.846.7-3.502 3.594-3.195 5.585.205 1.355 1.097 1.91 2.347 1.449 1.693-.63 3.368-3.058 3.393-4.922l-.003.003z" fill="#181C4B"/><path d="M0 35.093c.143-2.882 1.097-6.315 1.755-9.792C2.852 19.686 3.927 14.07 5.08 8.457c.8-3.912 3.63-5.787 7.415-5.02 1.492.304 2.969.682 4.465.962.968.18 1.341.42.544 1.37-2.194 2.62-2.592 5.66-1.901 8.961 1.777 8.535 3.565 17.065 5.25 25.618 1.01 5.132 3.204 9.526 7.156 12.899.947.808.76 1.299-.055 2.017-2.95 2.62-5.85 5.282-8.797 7.88-3.29 2.893-7.605 2.062-9.46-1.932-2.851-6.131-5.59-12.318-8.325-18.506C.41 40.516-.004 38.185 0 35.093zm208.069-.652c.867-7.018 2.461-13.823 6.008-20.01a13.517 13.517 0 013.55-3.987c2.314-1.774 4.779-2.025 7.357-.61 3.034 1.658 3.832 4.181 2.153 7.37-1.729 3.29-3.696 6.45-5.415 9.732-1.949 3.744-3.656 7.606-4.516 11.799-.365 1.688-.994 3.346-2.969 3.582-2.069.25-3.656-.794-4.753-2.512a9.267 9.267 0 01-1.415-5.364zm-1.247 14.879c0-2.927 1.602-4.84 3.964-4.78 2.995.075 5.463 2.516 5.448 5.383 0 2.594-2.421 4.967-4.976 4.911-2.67-.06-4.454-2.28-4.436-5.514z" fill="#181C4B"/></svg>