<svg width="326" height="164" fill="none" xmlns="http://www.w3.org/2000/svg"><g stroke-miterlimit="10" stroke-linecap="round"><path d="M98.09 144.248c-13.594 6.179-28.898-.827-38.806-10.718-7.705-7.696-12.857-17.697-15.802-28.181-7.123-25.353-1.68-55.656 16.974-74.906C67.89 22.77 77.252 17.268 87.385 13.97c7.37-2.397 14.932-4.405 22.701-4.85 6.337-.365 13.369-.553 19.572.937" stroke="url(#paint0_linear_3754_10716)"/><path d="M128.573 9.516c-9.158-2.042-17.266-2.407-26.397-1.346-8.987 1.044-18.005 3.37-25.654 6.62-10.838 4.607-20.917 12.342-28.033 21.792a64.023 64.023 0 00-1.584 2.196c-3.173 4.629-5.616 9.456-7.474 14.199-5.423 13.941-5.75 26.772-5.694 29.604.077 3.912.566 24.107 12.177 42.202 5.811 9.051 14.28 16.65 23.817 21.607 5.57 2.892 13.667 4.696 19.976 2.705" stroke="url(#paint1_linear_3754_10716)"/><path d="M81.74 152.572c-12.528 1.105-33.697-14.333-41.764-26.724-11.213-17.219-12.529-36.784-12.69-43.244-.113-4.543.75-17.249 6-30.467a70.461 70.461 0 017.835-14.554c8.134-11.475 20.757-21.587 37.316-26.648 9.329-2.906 18.895-4.459 28.71-4.606 7.287-.07 15.789 1.386 22.51 3.729" stroke="url(#paint2_linear_3754_10716)"/><path d="M129.725 10.065c-10.249-4.495-23.216-6.557-34.708-6.139-.003-.003-.006 0-.006 0-8.69.345-17.132 1.597-25.453 3.98-16.59 4.743-30.786 14.621-40.161 27.24a71.243 71.243 0 00-8.57 15.267c-4.836 11.793-6.835 24.225-6.604 32.195.312 11.558 3.388 29.797 13.711 45.319 9.275 13.935 23.692 23.332 41.248 28.34" stroke="url(#paint3_linear_3754_10716)"/><path d="M63.49 157.483c-17.492-4.884-31.819-13.898-41.677-28.519-9.85-14.691-13.824-32.248-14.219-46.357C7.313 72.93 9.89 60.64 14.5 49.55c2.302-5.503 5.278-10.778 8.93-15.625C32.431 21.992 45.844 12.67 59.943 7.96c15.97-5.333 33.157-6.9 49.803-4.239 6.835 1.095 13.563 3.555 19.91 6.337" stroke="url(#paint4_linear_3754_10716)"/><path d="M129.657 10.058c-5.656-2.886-12.562-5.885-18.768-7.06C104.6 1.807 98.544 1.087 92.148 1.01 74.363.8 57.11 3.909 41.413 12.541c-9.185 5.052-17.46 11.85-23.877 20.165-3.776 4.897-6.885 10.29-9.299 15.98C3.83 59.066.693 71.22 1.024 82.607c.489 16.663 5.322 33.557 14.735 47.401 10.413 15.318 23.896 23.78 41.312 28.533" stroke="url(#paint5_linear_3754_10716)"/><path d="M129.657 10.061c-8.288-3.287-18.735-5.058-27.89-4.917-3.424.05-6.838.291-10.162.683a109.905 109.905 0 00-10.906 1.828c-2.189.438-4.579 1.148-6.731 1.764-16.576 4.9-29.982 14.898-38.738 26.942a70.76 70.76 0 00-8.205 14.912c-5.047 12.502-6.467 25.075-6.303 31.328.241 9.014 2.427 27.916 13.206 44.281 8.662 13.162 22.778 22.932 40.294 28.081" stroke="url(#paint6_linear_3754_10716)"/></g><g stroke="#4A5C76" stroke-linecap="round" stroke-linejoin="round"><path d="M57.075 158.542a107.231 107.231 0 0032.174 4.442c5.316-.077 10.527-.666 14.705-1.286 17.69-1.563 39.196-10.466 58.858-39.645"/><path d="M57.037 158.649c9.742 2.341 20.077 3.399 30.686 2.813 4.982-.271 9.86-1.095 13.914-1.788 17.572-3.001 38.761-12.531 57.78-42.844"/><path d="M57.075 158.542c9.302 1.653 19.113 2.199 29.188 1.185 4.646-.469 9.205-1.4 13.125-2.293 17.57-4 38.274-14.638 56.634-46.35"/><path d="M152.707 104.717a185.677 185.677 0 01-2.085 3.816c-17.155 30.166-36.643 41.878-53.524 46.768-3.772 1.095-8.02 2.143-12.328 2.799-9.543 1.449-18.832 1.402-27.695.442"/><path d="M57.075 158.542c8.421.267 17.195-.171 26.206-2.069 3.973-.84 7.91-2.005 11.531-3.3 16.081-5.751 33.925-17.892 49.768-45.972.448-.773 2.781-5.165 3.22-6.009a199.029 199.029 0 001.687-3.377"/><path d="M57.075 158.542c7.983-.422 16.24-1.333 24.713-3.699a84.636 84.636 0 0010.741-3.803c15.291-6.601 31.478-19.18 46.019-45.175.224-.381 2.808-5.272 3.029-5.69a201.53 201.53 0 004.68-9.868"/><path d="M57.074 158.542a187.76 187.76 0 006.153-1.008h.006c6.387-1.165 12.924-2.775 19.515-5.345 16.974-6.618 34.23-19.596 49.761-47.656l2.839-5.383c2.597-5.138 5.144-10.754 7.611-16.9"/></g><g stroke="#4A5C76" stroke-miterlimit="10" stroke-linecap="round"><path d="M250.923 145.182c-22.219 9.499-47.438-20.168-60.288-46.213-5.074-9.647-9.285-21.861-14.065-32.084-9.658-23.257-26.033-46.167-47.579-57.136"/><path d="M239.553 150.196c-20.767-.716-34.752-19.244-48.593-39.85-6.946-10.862-12.72-25.352-18.236-37.058-10.487-22.24-31.941-57.53-55.095-64.453"/><path d="M232.399 152.392c-18.795-2.5-29.556-16.469-43.963-36.061-8.874-12.629-15.02-27.739-22.126-41.74-11.136-23.515-34.072-58.418-56.255-65.495"/><path d="M224.574 154.246c-14.119-.438-30.779-20.435-42.197-36.813-7.123-9.952-14.303-25.293-19.749-36.014-5.824-11.481-11.715-24.18-18.959-34.444-11.424-16.381-30.025-36.204-42.172-36.767"/><path d="M215.753 155.337c-24.218-7.103-44.864-41.988-56.017-65.52-7.053-13.868-13.282-29.185-22.129-41.74-14.461-19.643-25.068-33.47-43.934-36.018"/><path d="M208.684 155.585c-24.974-7.156-44.887-42.25-55.358-64.466-5.827-12.331-11.076-25.787-18.239-37.054-13.942-20.697-27.746-38.976-48.643-39.78"/><path d="M196.409 154.387c-19.481-10.548-37.272-33.671-46.935-56.868-4.804-10.195-8.985-22.457-14.066-32.083-12.847-26.039-37.962-55.713-60.18-46.21"/></g><g stroke-miterlimit="10" stroke-linecap="round"><path d="M227.914 20.244c13.593-6.18 28.897.826 38.805 10.718 7.706 7.695 12.857 17.697 15.803 28.18 7.123 25.353 1.68 55.656-16.974 74.907-7.435 7.672-16.797 13.175-26.929 16.472-7.371 2.396-14.933 4.405-22.702 4.85-6.336.365-13.302.505-19.504-.984" stroke="url(#paint7_linear_3754_10716)"/><path d="M196.409 154.387c7.689 2.48 18.286 2.992 27.418 1.934 8.987-1.044 18.005-3.37 25.654-6.621 10.838-4.605 20.917-12.341 28.033-21.791a63.658 63.658 0 001.584-2.195c3.173-4.63 5.616-9.456 7.474-14.2 5.423-13.941 5.751-26.771 5.694-29.603-.077-3.913-.566-24.107-12.178-42.203-5.811-9.051-14.279-16.65-23.816-21.607-5.57-2.892-13.667-4.696-19.976-2.704" stroke="url(#paint8_linear_3754_10716)"/><path d="M244.262 11.919c12.529-1.105 33.697 14.333 41.764 26.725 11.214 17.218 12.529 36.783 12.69 43.244.114 4.542-.75 17.248-5.998 30.467a70.5 70.5 0 01-7.836 14.554c-8.134 11.474-20.757 21.587-37.316 26.648-9.329 2.905-18.896 4.458-28.71 4.606-7.287.07-15.725-1.43-22.447-3.773" stroke="url(#paint9_linear_3754_10716)"/><path d="M196.409 154.387c10.25 4.495 23.153 6.6 34.645 6.182.003.003.006 0 .006 0 8.69-.345 17.132-1.597 25.453-3.98 16.59-4.743 30.785-14.621 40.161-27.24a71.243 71.243 0 008.569-15.267c4.837-11.793 6.836-24.225 6.605-32.195-.312-11.558-3.388-29.797-13.711-45.319-9.275-13.935-23.916-23.424-41.473-28.432" stroke="url(#paint10_linear_3754_10716)"/><path d="M262.512 7.008c17.493 4.884 31.82 13.898 41.677 28.52 9.852 14.69 13.825 32.247 14.22 46.356.281 9.677-2.297 21.968-6.906 33.058-2.303 5.503-5.278 10.778-8.93 15.625-9.001 11.933-22.414 21.256-36.513 25.965-15.973 5.336-33.161 6.902-49.808 4.238-6.835-1.095-13.499-3.602-19.846-6.383" stroke="url(#paint11_linear_3754_10716)"/><path d="M196.409 154.387c5.657 2.885 12.499 5.928 18.705 7.106 6.289 1.192 12.345 1.911 18.741 1.988 17.785.211 35.037-2.899 50.736-11.531 9.185-5.051 17.459-11.85 23.876-20.164 3.776-4.898 6.885-10.29 9.299-15.98 4.405-10.38 7.541-22.534 7.21-33.922-.489-16.663-5.323-33.557-14.735-47.401-10.414-15.317-23.897-23.78-41.313-28.533" stroke="url(#paint12_linear_3754_10716)"/><path d="M196.409 154.387c8.288 3.287 18.671 5.101 27.826 4.96a99.728 99.728 0 0010.163-.682 109.83 109.83 0 0010.905-1.828c2.189-.439 4.579-1.148 6.732-1.764 16.575-4.901 29.981-14.899 38.738-26.943a70.74 70.74 0 008.204-14.912c5.048-12.502 6.467-25.074 6.303-31.327-.241-9.015-2.427-27.917-13.205-44.282-8.663-13.161-22.778-22.932-40.295-28.08" stroke="url(#paint13_linear_3754_10716)"/></g><g stroke="#4A5C76" stroke-linecap="round" stroke-linejoin="round"><path d="M142.952 82.232s-.003.01-.007.014m20.52-40.242c19.649-29.128 40.894-37.647 58.574-39.206 4.178-.623 9.389-1.212 14.702-1.29 11.146-.16 21.924 1.37 32.107 4.406"/><path d="M166.861 47.358c19.009-30.25 39.911-39.432 57.461-42.428 4.057-.696 8.934-1.516 13.915-1.788a105.69 105.69 0 0130.611 2.775"/><path d="M170.125 53.104c18.35-31.635 38.929-42.045 56.482-46.042 3.917-.894 8.479-1.824 13.118-2.293 10.079-1.01 19.82-.505 29.122 1.148"/><path d="M173.39 59.372c.834-1.557 1.559-2.686 1.981-3.41 17.155-30.165 36.643-41.877 53.523-46.768 3.77-1.094 8.021-2.142 12.329-2.798 9.543-1.45 18.761-1.44 27.628-.479"/><path d="M176.472 66.647c.579-1.188 1.135-2.205 1.717-3.347.439-.843 2.772-5.235 3.217-6.008 15.846-28.08 33.691-40.221 49.774-45.972 3.622-1.296 7.562-2.464 11.532-3.3 9.008-1.898 17.711-2.374 26.136-2.106"/><path d="M179.746 74.079c1.529-3.465 3.093-6.651 4.672-9.758.218-.418 2.805-5.309 3.03-5.69 14.54-25.995 30.721-38.575 46.015-45.175a83.958 83.958 0 0110.745-3.803c8.469-2.366 16.656-3.314 24.643-3.736"/><path d="M183.053 82.094a211.295 211.295 0 017.594-16.748l2.839-5.383c18.233-32.944 38.798-45.118 58.524-50.608h.003c1.764-.495 3.515-.93 5.266-1.329 1.898-.428 3.792-.806 5.67-1.144 1.985-.362 3.953-.677 5.905-.965"/></g><defs><linearGradient id="paint0_linear_3754_10716" x1="130.281" y1="77.716" x2="39.849" y2="77.716" gradientUnits="userSpaceOnUse"><stop stop-color="#4A5C76"/><stop offset=".484" stop-color="#9C9EB2"/><stop offset="1" stop-color="#fff"/></linearGradient><linearGradient id="paint1_linear_3754_10716" x1="129.235" y1="78.76" x2="33.073" y2="78.76" gradientUnits="userSpaceOnUse"><stop stop-color="#4A5C76"/><stop offset=".484" stop-color="#9C9EB2"/><stop offset="1" stop-color="#fff"/></linearGradient><linearGradient id="paint2_linear_3754_10716" x1="130.373" y1="79.474" x2="26.567" y2="79.474" gradientUnits="userSpaceOnUse"><stop stop-color="#4A5C76"/><stop offset=".484" stop-color="#9C9EB2"/><stop offset="1" stop-color="#fff"/></linearGradient><linearGradient id="paint3_linear_3754_10716" x1="130.533" y1="80.112" x2="13.403" y2="80.112" gradientUnits="userSpaceOnUse"><stop stop-color="#4A5C76"/><stop offset=".484" stop-color="#9C9EB2"/><stop offset="1" stop-color="#fff"/></linearGradient><linearGradient id="paint4_linear_3754_10716" x1="130.51" y1="79.963" x2="6.726" y2="79.963" gradientUnits="userSpaceOnUse"><stop stop-color="#4A5C76"/><stop offset=".484" stop-color="#9C9EB2"/><stop offset="1" stop-color="#fff"/></linearGradient><linearGradient id="paint5_linear_3754_10716" x1="130.556" y1="79.767" x2=".107" y2="79.767" gradientUnits="userSpaceOnUse"><stop stop-color="#4A5C76"/><stop offset=".484" stop-color="#9C9EB2"/><stop offset="1" stop-color="#fff"/></linearGradient><linearGradient id="paint6_linear_3754_10716" x1="130.418" y1="80.046" x2="19.953" y2="80.046" gradientUnits="userSpaceOnUse"><stop stop-color="#4A5C76"/><stop offset=".484" stop-color="#9C9EB2"/><stop offset="1" stop-color="#fff"/></linearGradient><linearGradient id="paint7_linear_3754_10716" x1="286.158" y1="86.761" x2="195.794" y2="86.761" gradientUnits="userSpaceOnUse"><stop stop-color="#fff"/><stop offset=".484" stop-color="#9C9EB2"/><stop offset="1" stop-color="#4A5C76"/></linearGradient><linearGradient id="paint8_linear_3754_10716" x1="292.941" y1="85.695" x2="195.744" y2="85.695" gradientUnits="userSpaceOnUse"><stop stop-color="#fff"/><stop offset=".484" stop-color="#9C9EB2"/><stop offset="1" stop-color="#4A5C76"/></linearGradient><linearGradient id="paint9_linear_3754_10716" x1="299.44" y1="85.01" x2="195.699" y2="85.01" gradientUnits="userSpaceOnUse"><stop stop-color="#fff"/><stop offset=".484" stop-color="#9C9EB2"/><stop offset="1" stop-color="#4A5C76"/></linearGradient><linearGradient id="paint10_linear_3754_10716" x1="312.672" y1="84.375" x2="195.608" y2="84.375" gradientUnits="userSpaceOnUse"><stop stop-color="#fff"/><stop offset=".484" stop-color="#9C9EB2"/><stop offset="1" stop-color="#4A5C76"/></linearGradient><linearGradient id="paint11_linear_3754_10716" x1="319.282" y1="84.522" x2="195.559" y2="84.522" gradientUnits="userSpaceOnUse"><stop stop-color="#fff"/><stop offset=".484" stop-color="#9C9EB2"/><stop offset="1" stop-color="#4A5C76"/></linearGradient><linearGradient id="paint12_linear_3754_10716" x1="325.898" y1="84.717" x2="195.516" y2="84.717" gradientUnits="userSpaceOnUse"><stop stop-color="#fff"/><stop offset=".484" stop-color="#9C9EB2"/><stop offset="1" stop-color="#4A5C76"/></linearGradient><linearGradient id="paint13_linear_3754_10716" x1="306.053" y1="84.438" x2="195.653" y2="84.438" gradientUnits="userSpaceOnUse"><stop stop-color="#fff"/><stop offset=".484" stop-color="#9C9EB2"/><stop offset="1" stop-color="#4A5C76"/></linearGradient></defs></svg>