<svg width="326" height="164" fill="none" xmlns="http://www.w3.org/2000/svg"><g stroke-linecap="round"><g stroke="#4A5C76" stroke-miterlimit="10"><path d="M227.911 20.244c13.593-6.18 28.897.826 38.805 10.718 7.705 7.695 12.857 17.697 15.802 28.18 7.124 25.353 1.681 55.656-16.974 74.907-7.434 7.672-16.797 13.175-26.929 16.472-7.371 2.396-14.932 4.405-22.701 4.85-6.337.365-13.369.552-19.572-.937"/><path d="M197.427 154.976c9.158 2.042 17.265 2.407 26.396 1.345 8.988-1.044 18.006-3.37 25.654-6.62 10.839-4.606 20.918-12.342 28.034-21.791a64.655 64.655 0 001.583-2.196c3.173-4.63 5.617-9.456 7.475-14.2 5.422-13.941 5.75-26.771 5.693-29.603-.077-3.913-.565-24.107-12.177-42.203-5.811-9.051-14.28-16.65-23.816-21.607-5.57-2.892-13.667-4.696-19.977-2.704"/><path d="M244.259 11.919c12.529-1.105 33.698 14.333 41.765 26.725 11.213 17.218 12.529 36.783 12.689 43.244.114 4.542-.749 17.248-5.998 30.467a70.452 70.452 0 01-7.836 14.554c-8.134 11.474-20.757 21.587-37.316 26.648-9.329 2.905-18.895 4.458-28.71 4.606-7.287.07-15.789-1.386-22.51-3.729"/><path d="M196.342 154.43c10.25 4.496 23.217 6.558 34.709 6.139.003.004.006 0 .006 0 8.69-.344 17.132-1.596 25.453-3.98 16.589-4.743 30.785-14.621 40.161-27.24a71.243 71.243 0 008.569-15.267c4.837-11.793 6.835-24.224 6.604-32.194-.311-11.559-3.387-29.798-13.71-45.32-9.275-13.934-23.917-23.424-41.473-28.432"/><path d="M262.509 7.008c17.493 4.884 31.819 13.898 41.677 28.52 9.851 14.69 13.824 32.247 14.219 46.356.282 9.677-2.296 21.969-6.905 33.058-2.303 5.503-5.279 10.779-8.931 15.625-9.001 11.934-22.413 21.256-36.512 25.965-15.97 5.333-33.158 6.899-49.805 4.238-6.835-1.094-13.563-3.555-19.909-6.336"/><path d="M196.342 154.434c5.657 2.885 12.563 5.884 18.769 7.059 6.289 1.192 12.345 1.911 18.741 1.988 17.785.211 35.037-2.898 50.735-11.531 9.185-5.051 17.46-11.849 23.877-20.164 3.776-4.897 6.885-10.29 9.299-15.98 4.408-10.38 7.544-22.534 7.213-33.922-.489-16.663-5.322-33.556-14.735-47.401-10.413-15.317-23.896-23.78-41.312-28.532"/><path d="M196.342 154.43c8.288 3.287 18.735 5.058 27.89 4.917a99.747 99.747 0 0010.163-.682 109.83 109.83 0 0010.905-1.828c2.189-.439 4.579-1.148 6.731-1.764 16.576-4.901 29.982-14.899 38.739-26.943a70.785 70.785 0 008.204-14.912c5.048-12.502 6.467-25.074 6.303-31.327-.241-9.015-2.427-27.917-13.205-44.282-8.663-13.161-22.778-22.932-40.295-28.08"/></g><g stroke-linejoin="round"><path d="M268.925 5.95a107.208 107.208 0 00-32.174-4.442c-5.316.077-10.527.666-14.705 1.285-17.69 1.563-39.196 10.466-58.858 39.645" stroke="url(#paint0_linear_3754_10904)"/><path d="M268.962 5.842c-9.742-2.34-20.076-3.399-30.686-2.813-4.981.272-9.859 1.095-13.913 1.789-17.573 3-38.761 12.53-57.78 42.844" stroke="url(#paint1_linear_3754_10904)"/><path d="M268.925 5.95c-9.302-1.654-19.113-2.2-29.188-1.185-4.646.468-9.205 1.399-13.125 2.293-17.57 4-38.274 14.637-56.634 46.35" stroke="url(#paint2_linear_3754_10904)"/><path d="M173.293 59.774c.84-1.566 1.663-3.083 2.085-3.816 17.155-30.166 36.643-41.878 53.524-46.768 3.772-1.095 8.02-2.143 12.328-2.799 9.543-1.449 18.832-1.402 27.695-.441" stroke="url(#paint3_linear_3754_10904)"/><path d="M268.925 5.95c-8.422-.268-17.195.17-26.206 2.068-3.973.84-7.909 2.005-11.531 3.3-16.081 5.752-33.925 17.892-49.768 45.973-.448.773-2.782 5.165-3.22 6.008a200.95 200.95 0 00-1.687 3.378" stroke="url(#paint4_linear_3754_10904)"/><path d="M268.925 5.95c-7.983.421-16.241 1.332-24.713 3.698a84.587 84.587 0 00-10.741 3.803c-15.291 6.6-31.478 19.18-46.019 45.175-.224.382-2.808 5.272-3.029 5.69a200.467 200.467 0 00-4.68 9.868" stroke="url(#paint5_linear_3754_10904)"/><path d="M268.925 5.95c-2.032.3-4.083.629-6.152 1.007h-.007c-6.386 1.165-12.924 2.775-19.515 5.346-16.974 6.617-34.229 19.595-49.761 47.655l-2.838 5.383c-2.598 5.138-5.145 10.755-7.612 16.9" stroke="url(#paint6_linear_3754_10904)"/><path d="M183.048 82.26s.003-.01.006-.014" stroke="url(#paint7_linear_3754_10904)"/><path d="M162.726 122.206c-19.649 29.128-41.085 37.928-58.766 39.488-4.177.623-9.389 1.212-14.701 1.289-11.147.161-21.925-1.369-32.107-4.405" stroke="url(#paint8_linear_3754_10904)"/><path d="M159.298 116.884c-19.009 30.249-40.07 39.682-57.62 42.678-4.057.696-8.934 1.516-13.915 1.787a105.686 105.686 0 01-30.611-2.775" stroke="url(#paint9_linear_3754_10904)"/><path d="M155.928 111.143c-18.35 31.635-38.982 42.29-56.536 46.287-3.916.893-8.478 1.824-13.118 2.292-10.079 1.011-19.82.506-29.121-1.148" stroke="url(#paint10_linear_3754_10904)"/><path d="M152.728 104.924c-.834 1.556-1.677 2.882-2.099 3.605-17.155 30.166-36.643 41.878-53.524 46.768-3.769 1.095-8.02 2.143-12.328 2.799-9.543 1.449-18.761 1.439-27.628.478" stroke="url(#paint11_linear_3754_10904)"/><path d="M149.528 97.844c-.579 1.189-1.135 2.206-1.717 3.347-.439.844-2.772 5.236-3.217 6.009-15.846 28.08-33.691 40.221-49.774 45.972-3.622 1.295-7.562 2.463-11.532 3.3-9.008 1.898-17.71 2.373-26.136 2.106" stroke="url(#paint12_linear_3754_10904)"/><path d="M146.254 90.413c-1.53 3.465-3.093 6.651-4.673 9.758-.218.418-2.805 5.309-3.029 5.69-14.541 25.995-30.722 38.574-46.016 45.175a83.887 83.887 0 01-10.745 3.803c-8.468 2.366-16.656 3.314-24.642 3.735" stroke="url(#paint13_linear_3754_10904)"/><path d="M142.947 82.423a210.57 210.57 0 01-7.595 16.723l-2.839 5.383c-18.233 32.944-38.798 45.118-58.524 50.608h-.003c-1.764.495-3.515.93-5.266 1.329-1.898.428-3.792.806-5.67 1.144a173.88 173.88 0 01-5.905.964" stroke="url(#paint14_linear_3754_10904)"/></g><g stroke-miterlimit="10"><path d="M75.077 19.31c22.219-9.5 47.438 20.167 60.288 46.213 5.074 9.647 9.285 21.86 14.065 32.084 12.944 31.17 39.311 60.85 68.978 64.338" stroke="url(#paint15_linear_3754_10904)"/><path d="M86.447 14.295c20.767.717 34.752 19.244 48.593 39.85 6.946 10.862 12.72 25.352 18.236 37.058 10.487 22.24 32.315 57.56 55.468 64.483" stroke="url(#paint16_linear_3754_10904)"/><path d="M93.6 12.1c18.795 2.5 29.557 16.468 43.964 36.06 8.873 12.63 15.019 27.74 22.125 41.741 11.137 23.515 33.788 58.317 55.971 65.393" stroke="url(#paint17_linear_3754_10904)"/><path d="M101.426 10.245c14.119.439 30.779 20.435 42.197 36.814 7.123 9.951 14.303 25.292 19.749 36.013 5.824 11.482 11.715 24.181 18.959 34.444 11.424 16.382 30.025 36.205 42.172 36.767" stroke="url(#paint18_linear_3754_10904)"/><path d="M110.247 9.154c24.217 7.103 44.864 41.989 56.017 65.52 7.053 13.868 13.282 29.185 22.129 41.741 14.46 19.642 25.068 33.47 43.933 36.017" stroke="url(#paint19_linear_3754_10904)"/><path d="M117.316 8.906c24.975 7.157 44.888 42.25 55.358 64.466 5.828 12.332 11.076 25.788 18.24 37.055 13.941 20.696 27.745 38.976 48.643 39.779" stroke="url(#paint20_linear_3754_10904)"/><path d="M129.59 10.104c19.482 10.548 37.273 33.671 46.936 56.868 4.804 10.196 8.985 22.457 14.066 32.084 12.847 26.038 37.962 55.712 60.181 46.209" stroke="url(#paint21_linear_3754_10904)"/></g><g stroke-miterlimit="10"><path d="M98.085 144.248c-13.593 6.179-28.897-.827-38.805-10.718-7.705-7.696-12.857-17.697-15.803-28.181-7.123-25.353-1.68-55.656 16.975-74.906C67.886 22.77 77.249 17.268 87.38 13.97c7.37-2.397 14.932-4.405 22.701-4.85 6.337-.365 13.302-.506 19.505.984" stroke="url(#paint22_linear_3754_10904)"/><path d="M129.59 10.104c-7.688-2.48-18.286-2.992-27.417-1.934-8.988 1.044-18.006 3.37-25.654 6.62C65.68 19.398 55.6 27.133 48.485 36.583a63.887 63.887 0 00-1.583 2.196c-3.173 4.629-5.617 9.456-7.475 14.199-5.422 13.941-5.75 26.772-5.693 29.603.077 3.913.565 24.108 12.177 42.203 5.811 9.051 14.28 16.65 23.816 21.607 5.57 2.892 13.667 4.696 19.977 2.705" stroke="url(#paint23_linear_3754_10904)"/><path d="M81.737 152.573c-12.529 1.104-33.697-14.334-41.764-26.725-11.213-17.219-12.529-36.784-12.69-43.244-.114-4.542.75-17.249 5.999-30.467a70.466 70.466 0 017.836-14.554c8.134-11.475 20.756-21.587 37.315-26.648 9.33-2.906 18.896-4.459 28.71-4.606 7.287-.07 15.726 1.43 22.447 3.772" stroke="url(#paint24_linear_3754_10904)"/><path d="M129.59 10.104c-10.249-4.495-23.153-6.6-34.644-6.182-.004-.003-.007 0-.007 0-8.69.345-17.131 1.597-25.453 3.98-16.59 4.743-30.785 14.621-40.16 27.24a71.245 71.245 0 00-8.57 15.267c-4.837 11.793-6.835 24.225-6.604 32.195.311 11.558 3.387 29.798 13.71 45.319 9.276 13.935 23.917 23.424 41.474 28.432" stroke="url(#paint25_linear_3754_10904)"/><path d="M63.488 157.483c-17.493-4.884-31.82-13.898-41.678-28.519-9.85-14.691-13.824-32.248-14.219-46.357C7.31 72.93 9.887 60.64 14.497 49.55c2.303-5.503 5.278-10.778 8.93-15.625C32.428 21.991 45.841 12.67 59.94 7.96c15.973-5.336 33.162-6.902 49.808-4.238 6.835 1.095 13.499 3.602 19.846 6.384" stroke="url(#paint26_linear_3754_10904)"/><path d="M129.59 10.104c-5.657-2.885-12.498-5.928-18.704-7.106-6.29-1.191-12.345-1.911-18.742-1.988C74.36.799 57.108 3.909 41.409 12.54c-9.185 5.052-17.46 11.85-23.876 20.165-3.776 4.897-6.886 10.29-9.3 15.98C3.83 59.066.694 71.22 1.024 82.607c.49 16.663 5.323 33.557 14.736 47.401 10.413 15.318 23.896 23.78 41.312 28.533" stroke="url(#paint27_linear_3754_10904)"/><path d="M129.59 10.105c-8.288-3.287-18.671-5.102-27.826-4.961-3.424.05-6.838.291-10.162.683a109.9 109.9 0 00-10.906 1.828c-2.189.438-4.579 1.148-6.731 1.763-16.576 4.9-29.982 14.9-38.739 26.943a70.758 70.758 0 00-8.204 14.912c-5.047 12.502-6.467 25.075-6.303 31.328.241 9.014 2.427 27.916 13.205 44.281 8.663 13.162 22.779 22.932 40.295 28.081" stroke="url(#paint28_linear_3754_10904)"/></g></g><defs><linearGradient id="paint0_linear_3754_10904" x1="162.449" y1="21.968" x2="269.659" y2="21.968" gradientUnits="userSpaceOnUse"><stop stop-color="#fff"/><stop offset="1" stop-color="#445670"/></linearGradient><linearGradient id="paint1_linear_3754_10904" x1="165.868" y1="25.267" x2="269.673" y2="25.267" gradientUnits="userSpaceOnUse"><stop stop-color="#fff"/><stop offset="1" stop-color="#445670"/></linearGradient><linearGradient id="paint2_linear_3754_10904" x1="169.287" y1="28.832" x2="269.612" y2="28.832" gradientUnits="userSpaceOnUse"><stop stop-color="#fff"/><stop offset="1" stop-color="#445670"/></linearGradient><linearGradient id="paint3_linear_3754_10904" x1="172.625" y1="32.519" x2="269.589" y2="32.519" gradientUnits="userSpaceOnUse"><stop stop-color="#fff"/><stop offset="1" stop-color="#445670"/></linearGradient><linearGradient id="paint4_linear_3754_10904" x1="175.867" y1="36.279" x2="269.567" y2="36.279" gradientUnits="userSpaceOnUse"><stop stop-color="#fff"/><stop offset="1" stop-color="#445670"/></linearGradient><linearGradient id="paint5_linear_3754_10904" x1="179.12" y1="40.069" x2="269.545" y2="40.069" gradientUnits="userSpaceOnUse"><stop stop-color="#fff"/><stop offset="1" stop-color="#445670"/></linearGradient><linearGradient id="paint6_linear_3754_10904" x1="182.44" y1="44.097" x2="269.522" y2="44.097" gradientUnits="userSpaceOnUse"><stop stop-color="#fff"/><stop offset="1" stop-color="#445670"/></linearGradient><linearGradient id="paint7_linear_3754_10904" x1="183.048" y1="82.253" x2="183.054" y2="82.253" gradientUnits="userSpaceOnUse"><stop stop-color="#9C9EB2" stop-opacity=".05"/><stop offset="1" stop-color="#fff"/></linearGradient><linearGradient id="paint8_linear_3754_10904" x1="56.414" y1="142.601" x2="163.459" y2="142.601" gradientUnits="userSpaceOnUse"><stop stop-color="#9C9EB2" stop-opacity=".05"/><stop offset="1" stop-color="#fff"/></linearGradient><linearGradient id="paint9_linear_3754_10904" x1="56.438" y1="139.199" x2="160.008" y2="139.199" gradientUnits="userSpaceOnUse"><stop stop-color="#9C9EB2" stop-opacity=".05"/><stop offset="1" stop-color="#fff"/></linearGradient><linearGradient id="paint10_linear_3754_10904" x1="56.462" y1="135.694" x2="156.614" y2="135.694" gradientUnits="userSpaceOnUse"><stop stop-color="#9C9EB2" stop-opacity=".05"/><stop offset="1" stop-color="#fff"/></linearGradient><linearGradient id="paint11_linear_3754_10904" x1="56.481" y1="132.087" x2="153.391" y2="132.087" gradientUnits="userSpaceOnUse"><stop stop-color="#9C9EB2" stop-opacity=".05"/><stop offset="1" stop-color="#fff"/></linearGradient><linearGradient id="paint12_linear_3754_10904" x1="56.507" y1="128.247" x2="150.169" y2="128.247" gradientUnits="userSpaceOnUse"><stop stop-color="#9C9EB2" stop-opacity=".05"/><stop offset="1" stop-color="#fff"/></linearGradient><linearGradient id="paint13_linear_3754_10904" x1="56.526" y1="124.496" x2="146.873" y2="124.496" gradientUnits="userSpaceOnUse"><stop stop-color="#9C9EB2" stop-opacity=".05"/><stop offset="1" stop-color="#fff"/></linearGradient><linearGradient id="paint14_linear_3754_10904" x1="56.546" y1="120.501" x2="143.543" y2="120.501" gradientUnits="userSpaceOnUse"><stop stop-color="#9C9EB2" stop-opacity=".05"/><stop offset="1" stop-color="#fff"/></linearGradient><linearGradient id="paint15_linear_3754_10904" x1="74.075" y1="89.724" x2="219.403" y2="89.724" gradientUnits="userSpaceOnUse"><stop stop-color="#fff"/><stop offset=".484" stop-color="#9C9EB2"/><stop offset="1" stop-color="#4A5C76"/></linearGradient><linearGradient id="paint16_linear_3754_10904" x1="85.593" y1="84.994" x2="209.593" y2="84.994" gradientUnits="userSpaceOnUse"><stop stop-color="#fff"/><stop offset=".484" stop-color="#9C9EB2"/><stop offset="1" stop-color="#4A5C76"/></linearGradient><linearGradient id="paint17_linear_3754_10904" x1="92.747" y1="83.7" x2="216.507" y2="83.7" gradientUnits="userSpaceOnUse"><stop stop-color="#fff"/><stop offset=".484" stop-color="#9C9EB2"/><stop offset="1" stop-color="#4A5C76"/></linearGradient><linearGradient id="paint18_linear_3754_10904" x1="100.567" y1="82.267" x2="225.358" y2="82.267" gradientUnits="userSpaceOnUse"><stop stop-color="#fff"/><stop offset=".484" stop-color="#9C9EB2"/><stop offset="1" stop-color="#4A5C76"/></linearGradient><linearGradient id="paint19_linear_3754_10904" x1="109.394" y1="80.797" x2="233.174" y2="80.797" gradientUnits="userSpaceOnUse"><stop stop-color="#fff"/><stop offset=".484" stop-color="#9C9EB2"/><stop offset="1" stop-color="#4A5C76"/></linearGradient><linearGradient id="paint20_linear_3754_10904" x1="116.462" y1="79.56" x2="240.405" y2="79.56" gradientUnits="userSpaceOnUse"><stop stop-color="#fff"/><stop offset=".484" stop-color="#9C9EB2"/><stop offset="1" stop-color="#4A5C76"/></linearGradient><linearGradient id="paint21_linear_3754_10904" x1="128.744" y1="78.595" x2="251.614" y2="78.595" gradientUnits="userSpaceOnUse"><stop stop-color="#fff"/><stop offset=".484" stop-color="#9C9EB2"/><stop offset="1" stop-color="#4A5C76"/></linearGradient><linearGradient id="paint22_linear_3754_10904" x1="39.841" y1="77.73" x2="130.206" y2="77.73" gradientUnits="userSpaceOnUse"><stop stop-color="#DEDEE6"/><stop offset=".906" stop-color="#fff"/></linearGradient><linearGradient id="paint23_linear_3754_10904" x1="33.059" y1="78.796" x2="130.256" y2="78.796" gradientUnits="userSpaceOnUse"><stop stop-color="#DEDEE6"/><stop offset=".906" stop-color="#fff"/></linearGradient><linearGradient id="paint24_linear_3754_10904" x1="26.559" y1="79.481" x2="130.301" y2="79.481" gradientUnits="userSpaceOnUse"><stop stop-color="#DEDEE6"/><stop offset=".906" stop-color="#fff"/></linearGradient><linearGradient id="paint25_linear_3754_10904" x1="13.327" y1="80.116" x2="130.392" y2="80.116" gradientUnits="userSpaceOnUse"><stop stop-color="#DEDEE6"/><stop offset=".906" stop-color="#fff"/></linearGradient><linearGradient id="paint26_linear_3754_10904" x1="6.718" y1="79.969" x2="130.441" y2="79.969" gradientUnits="userSpaceOnUse"><stop stop-color="#DEDEE6"/><stop offset=".906" stop-color="#fff"/></linearGradient><linearGradient id="paint27_linear_3754_10904" x1=".101" y1="79.774" x2="130.483" y2="79.774" gradientUnits="userSpaceOnUse"><stop stop-color="#DEDEE6"/><stop offset=".906" stop-color="#fff"/></linearGradient><linearGradient id="paint28_linear_3754_10904" x1="19.946" y1="80.053" x2="130.346" y2="80.053" gradientUnits="userSpaceOnUse"><stop stop-color="#DEDEE6"/><stop offset=".906" stop-color="#fff"/></linearGradient></defs></svg>