<svg width="1440" height="383" fill="none" xmlns="http://www.w3.org/2000/svg"><mask id="a" style="mask-type:alpha" maskUnits="userSpaceOnUse" x="0" y="0" width="1440" height="383"><path fill="#F9F4F1" d="M0 0h1440v383H0z"/></mask><g opacity=".2" stroke="#B2ABA5" stroke-width="2" stroke-linecap="round" mask="url(#a)"><path d="M292.731 973.4c-89.429 40.65-190.11-5.439-255.293-70.512-50.693-50.627-84.584-116.426-103.962-185.397-46.862-166.789-11.055-366.148 111.67-492.792 48.909-50.473 110.502-86.676 177.161-108.367 48.491-15.767 98.237-28.98 149.348-31.909 41.686-2.4 87.953-3.633 128.759 6.166" stroke-miterlimit="10"/><path d="M499.377 90c-60.5-15.5-119.682-18.811-179.756-11.83-59.127 6.87-118.453 22.175-168.771 43.557C79.545 152.029 13.238 202.92-33.579 265.086a420.568 420.568 0 00-10.416 14.446c-20.876 30.455-36.952 62.21-49.173 93.414-35.675 91.719-37.833 176.126-37.459 194.756.507 25.743 3.722 158.598 80.114 277.645 38.229 59.545 93.943 109.534 156.681 142.147 36.644 19.026 89.913 30.896 131.423 17.796" stroke-miterlimit="10"/><path d="M185.179 1028.17c-82.426 7.27-221.689-94.297-274.76-175.82-73.771-113.277-82.425-241.992-83.482-284.493-.749-29.883 4.932-113.475 39.462-200.437 12.882-32.482 29.883-64.941 51.552-95.749C-28.538 196.182 54.504 129.656 163.444 96.36c61.373-19.115 124.31-29.333 188.876-30.302C400.261 65.596 454.377 76 500.413 90.59" stroke-miterlimit="10"/><path d="M500.413 90.611C434.877 61 347.674 47.471 272.075 50.224c-.022-.022-.044 0-.044 0-57.167 2.269-112.705 10.505-167.45 26.184-109.137 31.204-202.53 96.189-264.211 179.209-23.255 31.512-42.039 65.469-56.375 100.439-31.821 77.581-44.967 159.368-43.448 211.801 2.048 76.039 22.286 196.033 90.199 298.146 61.021 91.674 157.342 154.107 272.844 187.047" stroke-miterlimit="10"/><path d="M65.118 1060.47c-115.083-32.13-209.334-91.43-274.186-187.619-64.809-96.651-90.948-212.153-93.547-304.973-1.85-63.663 15.107-144.525 45.43-217.482 15.151-36.203 34.728-70.909 58.753-102.795 59.215-78.506 147.454-139.835 240.208-170.82 105.064-35.08 218.143-45.385 327.655-27.878 44.967 7.2 90.446 22.097 130.982 41.686" stroke-miterlimit="10"/><path d="M500.414 90.59c-37.216-18.983-82.646-38.714-123.474-46.444-41.378-7.84-81.214-12.574-123.297-13.08-116.999-1.388-230.496 19.07-333.776 75.863-60.427 33.23-114.863 77.955-157.078 132.656-24.84 32.217-45.298 67.694-61.175 105.13-29.002 68.288-49.636 148.247-47.456 223.163 3.215 109.622 35.014 220.764 96.938 311.844 68.508 100.769 157.21 156.438 271.786 187.708" stroke-miterlimit="10"/><path d="M500.415 90.612C448.377 70 377.162 57.337 316.933 58.262c-22.527.33-44.989 1.916-66.856 4.493-.022-.022-.044-.022-.066 0a723.038 723.038 0 00-71.68 12.023c-14.402 2.885-30.125 7.553-44.284 11.605-109.05 32.24-197.245 98.017-254.853 177.25-22.462 31.138-40.365 64.368-53.974 98.105-33.208 82.249-42.545 164.961-41.466 206.097 1.585 59.303 15.965 183.657 86.874 291.319 56.991 86.588 149.855 150.866 265.092 184.736" stroke-miterlimit="10"/><path d="M721.568 302.61C850.833 110.981 991.858 53.087 1108.17 42.825c27.49-4.096 61.77-7.972 96.72-8.479 73.33-1.056 144.24 9.007 211.23 28.98" stroke-linejoin="round"/><path d="M744.117 337.623C869.176 138.617 1007.73 76.561 1123.19 56.853c26.69-4.581 58.78-9.977 91.54-11.76 69.79-3.854 137.28 2.84 201.39 18.255" stroke-linejoin="round"/><path d="M766.289 375.39C887.01 167.267 1022.75 97.173 1138.23 70.88c25.76-5.88 55.78-12.002 86.3-15.085 66.31-6.65 130.39-3.325 191.59 7.554" stroke-linejoin="round"/><path d="M787.344 416.306c5.483-10.24 11.032-18.961 13.807-23.717C914.01 194.133 1042.22 117.081 1153.27 84.907c24.8-7.2 52.76-14.093 81.11-18.41 62.78-9.535 123.43-9.468 181.76-3.148" stroke-linejoin="round"/><path d="M808.395 462.881c3.809-7.818 7.465-14.512 11.296-22.021 2.885-5.55 18.234-34.442 21.163-39.528C945.103 216.595 1062.5 136.724 1168.31 98.892c23.83-8.523 49.75-16.208 75.86-21.714 59.26-12.486 116.52-15.613 171.95-13.851" stroke-linejoin="round"/><path d="M829.934 511.768c10.063-22.792 20.347-43.756 30.741-64.192 1.432-2.753 18.454-34.926 19.93-37.436 95.66-171.018 202.115-253.773 302.725-297.199 22.86-9.888 46.73-18.344 70.69-25.017 55.71-15.569 109.58-21.8 162.12-24.575" stroke-linejoin="round"/><path d="M851.691 564.333c16.23-40.387 32.878-76.238 49.967-110.019l18.674-35.41c119.948-216.733 255.248-296.825 385.018-332.94h.02c11.61-3.259 23.13-6.121 34.64-8.742 12.49-2.819 24.95-5.307 37.31-7.531 13.06-2.379 26-4.448 38.84-6.342" stroke-linejoin="round"/><path d="M1298.2 979.544c-146.18 62.496-312.086-132.678-396.626-304.026-33.384-63.465-61.087-143.82-92.533-211.073C745.073 310.405 630.877 156 495.377 88" stroke-miterlimit="10"/><path d="M1223.39 1012.53c-136.62-4.71-228.621-126.598-319.679-262.161-45.694-71.459-83.681-166.789-119.972-243.798-68.993-146.309-211.041-378.031-363.362-423.57" stroke-miterlimit="10"/><path d="M1176.34 1026.98c-123.65-16.45-194.452-108.347-289.231-237.237-58.379-83.086-98.81-182.49-145.561-274.605-73.265-154.7-222.236-384.085-368.171-430.638" stroke-miterlimit="10"/><path d="M1124.85 1039.18c-92.89-2.89-202.489-134.442-277.603-242.192-46.862-65.469-94.097-166.393-129.926-236.927-38.317-75.533-77.074-159.082-124.728-226.599C517.434 225.69 395.062 95.28 315.146 91.58" stroke-miterlimit="10"/><path d="M1066.82 1046.36c-159.322-46.733-295.149-276.238-368.524-431.048-46.399-91.234-87.381-192.003-145.583-274.605-95.132-129.221-164.917-220.191-289.029-236.949" stroke-miterlimit="10"/><path d="M1020.31 1047.99c-164.298-47.09-295.303-277.956-364.186-424.112-38.339-81.126-72.868-169.652-119.994-243.775-91.718-136.158-182.534-256.416-320.013-261.701" stroke-miterlimit="10"/><path d="M939.561 1040.1c-128.164-69.386-245.207-221.509-308.783-374.117-31.6-67.077-59.105-147.741-92.533-211.074-84.518-171.303-249.744-366.522-395.921-304.004M1146.83 157.6c89.43-40.652 190.11 5.439 255.29 70.512 50.7 50.627 84.59 116.426 103.97 185.397 46.86 166.789 11.05 366.148-111.67 492.792-48.91 50.473-110.51 86.676-177.17 108.369-48.49 15.77-98.23 28.98-149.34 31.91-41.69 2.4-87.517 3.32-128.322-6.48" stroke-miterlimit="10"/><path d="M939.562 1040.1c50.583 16.32 120.298 19.69 180.378 12.73 59.13-6.87 118.45-22.17 168.77-43.56 71.3-30.299 137.61-81.19 184.43-143.356 3.57-4.735 7.04-9.557 10.41-14.446 20.88-30.455 36.96-62.21 49.18-93.414 35.67-91.719 37.83-176.126 37.46-194.756-.51-25.743-3.73-158.598-80.12-277.645-38.23-59.545-93.94-109.534-156.68-142.147-36.64-19.027-89.91-30.896-131.42-17.793" stroke-miterlimit="10"/><path d="M1254.38 102.833c82.42-7.267 221.69 94.295 274.76 175.818 73.77 113.277 82.42 241.992 83.48 284.493.75 29.883-4.93 113.476-39.46 200.438-12.88 32.481-29.88 64.94-51.55 95.748-53.51 75.489-136.56 142.02-245.5 175.31-61.37 19.12-124.31 29.33-188.87 30.3-47.94.47-103.459-9.4-147.678-24.82" stroke-miterlimit="10"/><path d="M939.562 1040.1c67.428 29.58 152.318 43.43 227.918 40.68.02.02.05 0 .05 0 57.16-2.27 112.7-10.51 167.45-26.19 109.13-31.2 202.53-96.186 264.21-179.206 23.25-31.513 42.04-65.469 56.37-100.439 31.82-77.581 44.97-159.368 43.45-211.801-2.05-76.039-22.29-196.033-90.2-298.146-61.02-91.675-157.34-154.105-272.84-187.049" stroke-miterlimit="10"/><path d="M1374.44 70.527c115.08 32.129 209.34 91.433 274.19 187.622 64.81 96.651 90.95 212.153 93.54 304.972 1.85 63.664-15.1 144.526-45.43 217.483-15.15 36.203-34.72 70.908-58.75 102.795-59.21 78.506-147.45 139.831-240.21 170.821-105.08 35.1-218.16 45.41-327.67 27.88-44.97-7.2-88.815-23.7-130.567-42" stroke-miterlimit="10"/><path d="M939.562 1040.1c37.216 18.98 82.228 39 123.058 46.75 41.38 7.84 81.21 12.58 123.29 13.08 117 1.39 230.5-19.07 333.78-75.86 60.43-33.229 114.86-77.954 157.08-132.655 24.84-32.217 45.3-67.694 61.17-105.13 28.98-68.288 49.62-148.247 47.44-223.163-3.22-109.622-35.02-220.764-96.94-311.844-68.51-100.769-157.21-156.439-271.79-187.71" stroke-miterlimit="10"/><path d="M939.562 1040.1c54.525 21.63 122.838 33.56 183.068 32.64 22.52-.33 44.98-1.92 66.85-4.49.02.02.05.02.07 0 24.35-2.85 48.14-6.85 71.68-12.03 14.4-2.88 30.12-7.55 44.28-11.6 109.05-32.24 197.25-98.02 254.85-177.253 22.47-31.138 40.37-64.368 53.98-98.104 33.21-82.25 42.54-164.962 41.46-206.097-1.58-59.304-15.96-183.658-86.87-291.32-56.99-86.588-149.85-150.868-265.09-184.737" stroke-miterlimit="10"/></g></svg>