<svg width="1437" height="1245" fill="none" xmlns="http://www.w3.org/2000/svg"><mask id="a" style="mask-type:alpha" maskUnits="userSpaceOnUse" x="-3" y="-1" width="1440" height="1247"><path transform="rotate(180 1437 1245)" fill="#F9F4F1" d="M1437 1245h1440v1245H1437z"/></mask><g opacity=".1" stroke="#B2ABA5" stroke-width="2" stroke-linecap="round" mask="url(#a)"><path d="M860.942 438.459c86.543-38.097 183.968 5.096 247.028 66.088 49.05 47.439 81.83 109.131 100.59 173.753 45.35 156.32 10.69 343.14-108.07 461.83-47.33 47.31-106.914 81.23-171.434 101.56-46.934 14.78-95.053 27.15-144.514 29.9-40.349 2.25-85.116 3.42-124.588-5.78" stroke-miterlimit="10"/><path d="M666.899 1269.16c58.297 12.59 109.907 14.84 168.049 8.29 57.214-6.42 114.617-20.78 163.321-40.82 69.011-28.41 133.151-76.1 178.451-134.36 3.45-4.45 6.82-8.96 10.07-13.56 20.2-28.54 35.75-58.31 47.59-87.55 34.5-85.949 36.62-165.058 36.24-182.509-.5-24.11-3.59-148.643-77.53-260.222-36.98-55.814-90.9-102.67-151.62-133.224-35.45-17.834-87.005-28.957-127.165-16.668" stroke-miterlimit="10"/><path d="M965.02 387.141c79.75-6.811 214.5 88.367 265.87 164.762 71.38 106.166 79.75 226.786 80.78 266.616.73 28.007-4.76 106.333-38.18 187.841-12.46 30.44-28.92 60.88-49.89 89.75-51.78 70.75-132.12 133.09-237.554 164.29-59.38 17.92-120.291 27.49-182.765 28.39-46.384.44-100.52-8.54-143.293-22.99" stroke-miterlimit="10"/><path d="M659.988 1265.81c65.26 27.73 147.797 40.43 220.948 37.85.017.02.051 0 .051 0 55.306-2.13 109.065-9.86 162.033-24.54 105.61-29.24 195.97-90.15 255.66-167.96 22.48-29.52 40.67-61.38 54.55-94.13 30.79-72.714 43.51-149.358 42.03-198.512-1.99-71.266-21.56-183.727-87.28-279.421-59.04-85.919-152.25-144.431-264.02-175.302" stroke-miterlimit="10"/><path d="M1079.91 356.486c112.02 30.022 203.57 85.669 266.61 176.201 62.7 90.582 88.01 198.83 90.53 285.831 1.81 59.678-14.61 135.44-43.96 203.822-14.66 33.92-33.59 66.47-56.85 96.33-57.32 73.58-142.69 131.06-232.45 160.1-101.69 32.89-211.095 42.54-317.064 26.12-43.512-6.74-86.354-21.91-126.737-39.06" stroke-miterlimit="10"/><path d="M659.988 1265.83c36.017 17.8 79.976 36.27 119.483 43.53 40.056 7.36 78.583 11.79 119.31 12.25 113.229 1.3 223.029-17.86 322.979-71.1 58.47-31.15 111.15-73.06 151.99-124.33 24.04-30.19 43.84-63.46 59.19-98.52 28.04-63.994 48.02-138.924 45.91-209.158-3.12-102.737-33.89-206.906-93.8-292.259-66.88-95.26-155.55-147.911-267.85-177.067" stroke-miterlimit="10"/><path d="M659.989 1265.81c52.761 20.27 119.259 31.19 177.556 30.31 21.799-.32 43.529-1.78 64.692-4.21.018.01.052.01.069 0a723.863 723.863 0 0069.369-11.28c13.925-2.69 29.155-7.07 42.855-10.87 105.53-30.2 190.87-91.85 246.6-166.13 21.75-29.19 39.08-60.32 52.23-91.94 32.13-77.081 41.17-154.608 40.13-193.172-1.55-55.565-15.46-172.122-84.05-273.027-55.16-81.157-145.02-141.4-256.51-173.137" stroke-miterlimit="10"/><path d="M1122.05 350.342c-64.79-18.7-133.871-28.39-204.804-27.391-33.833.483-67.013 4.112-93.626 7.926-112.623 9.641-249.899 65.288-375.089 245.186" stroke-linejoin="round"/><path d="M1122.05 350.342c-62.01-14.437-127.785-20.947-195.314-17.334-31.702 1.682-62.75 6.744-88.555 11.023-111.849 18.499-246.718 78.043-367.765 264.851" stroke-linejoin="round"/><path d="M1122.05 350.341c-59.22-10.19-121.67-13.554-185.807-7.31-29.57 2.881-58.607 8.626-83.535 14.137-111.849 24.677-243.967 91.448-360.854 286.981" stroke-linejoin="round"/><path d="M513.24 682.196c5.346-9.674 10.59-19.015 13.271-23.528 109.202-185.991 233.258-258.19 340.723-288.362 24.017-6.743 51.059-13.204 78.48-17.25 60.736-8.942 119.896-8.642 176.316-2.731" stroke-linejoin="round"/><path d="M1122.05 350.342c-53.62-1.665-109.46 1.049-166.828 12.754-25.289 5.179-50.354 12.372-73.425 20.365-102.36 35.449-215.963 110.312-316.826 283.432-2.854 4.762-17.708 31.837-20.51 37.049a1264.14 1264.14 0 00-10.745 20.83" stroke-linejoin="round"/><path d="M1122.05 350.341c-50.84 2.614-103.39 8.209-157.303 22.812a549.046 549.046 0 00-68.372 23.444c-97.339 40.695-200.386 118.256-292.947 278.539-1.426 2.364-17.879 32.502-19.289 35.083-10.074 19.182-20.011 39.447-29.776 60.843" stroke-linejoin="round"/><path d="M1122.05 350.341c-12.93 1.865-25.99 3.88-39.16 6.211h-.05c-40.66 7.177-82.28 17.117-124.231 32.953-108.05 40.811-217.905 120.819-316.774 293.823l-18.069 33.186c-16.538 31.687-32.767 66.321-48.463 104.202m.035.1s.017-.067.051-.084M446.452 1066.35c-125.104 179.62-262.002 234.61-374.556 244.24-26.596 3.83-59.776 7.46-93.592 7.94-70.95 1-139.579-8.44-204.392-27.17" stroke-linejoin="round"/><path d="M424.634 1033.53c-121.012 186.51-255.537 245.44-367.266 263.92-25.822 4.3-56.87 9.36-88.572 11.02-67.529 3.62-132.84-2.64-194.868-17.11" stroke-linejoin="round"/><path d="M403.162 998.149C286.344 1193.2 154.536 1259.65 42.807 1284.3c-24.928 5.51-53.965 11.25-83.518 14.13-64.159 6.25-126.17 3.12-185.378-7.07" stroke-linejoin="round"/><path d="M381.621 961.384c-5.295 9.607-9.954 16.951-12.636 21.413C259.783 1168.79 135.728 1240.99 28.262 1271.16c-24 6.74-51.059 13.2-78.48 17.25-60.738 8.94-119.448 8.87-175.871 2.95" stroke-linejoin="round"/><path d="M361.335 917.925c-3.679 7.326-6.602 12.588-10.298 19.631-2.785 5.196-17.639 32.27-20.475 37.049C229.681 1147.74 116.095 1222.59 13.719 1258.04c-23.054 7.99-48.137 15.18-73.426 20.36-57.334 11.71-112.743 14.64-166.381 12.99" stroke-linejoin="round"/><path d="M340.327 872.434c-9.748 21.363-18.894 39.663-28.951 58.828-1.376 2.581-17.862 32.736-19.289 35.084C199.527 1126.63 96.514 1204.19-.843 1244.88a549.084 549.084 0 01-68.406 23.45c-53.913 14.58-106.038 20.43-156.857 23.04" stroke-linejoin="round"/><path d="M319.387 822.714c-15.696 37.864-31.1 70.584-47.655 102.237l-18.069 33.186C137.602 1161.25 6.67 1236.33-118.881 1270.18h-.017c-11.226 3.06-22.384 5.74-33.507 8.19a878.088 878.088 0 01-36.085 7.06c-12.636 2.23-25.169 4.18-37.581 5.94" stroke-linejoin="round"/><path d="M-111.988 432.698c141.454-58.562 301.99 124.349 383.771 284.932 32.303 59.477 59.105 134.79 89.534 197.831 82.435 192.189 250.295 375.179 439.128 396.679" stroke-miterlimit="10"/><path d="M-39.94 401.579c132.048 4.408 220.991 118.549 309.023 245.483 44.171 66.911 80.888 156.181 115.974 228.282 67.836 139.326 210.224 361.986 360.236 399.236" stroke-miterlimit="10"/><path d="M7.047 388.356c119.655 15.402 187.046 101.421 278.764 222.225 56.492 77.876 95.603 171.022 140.852 257.374 70.898 144.985 215.085 359.565 356.298 403.185" stroke-miterlimit="10"/><path d="M55.769 376.817c89.895 2.697 195.917 125.998 268.62 226.987 45.335 61.359 91.065 155.936 125.706 222.058 37.065 70.783 74.595 149.076 120.686 212.368 72.738 101 190.106 222.69 267.451 226.17" stroke-miterlimit="10"/><path d="M111.177 369.874c154.158 43.792 286.328 259.106 357.33 404.186 44.888 85.52 84.549 179.948 140.869 257.36 92.044 121.1 158.112 206 278.213 221.71" stroke-miterlimit="10"/><path d="M148.707 366.443C311.53 405.24 441.516 626.699 509.32 766.034c37.1 76.029 70.521 159.001 116.096 228.469C714.16 1122.1 801.081 1234.19 934.11 1239.16" stroke-miterlimit="10"/><path d="M106.501 335.839c163.7 9.025 344.522 198.164 427.335 390.716 30.566 62.857 57.179 138.453 89.534 197.814 81.781 160.551 242.334 343.511 383.77 284.931" stroke-miterlimit="10"/><path d="M34.056 1203.26c-86.543 38.09-183.969-5.1-247.028-66.09-49.048-47.44-81.833-109.13-100.589-173.755-45.352-156.32-10.693-343.144 108.067-461.833 47.329-47.305 106.915-81.223 171.436-101.554 46.933-14.786 95.053-27.158 144.513-29.905 40.349-2.248 85.117-3.414 124.589 5.778" stroke-miterlimit="10"/><path d="M228.098 372.555c-58.297-12.588-109.907-14.836-168.049-8.292-57.214 6.427-114.617 20.78-163.321 40.828-69.008 28.407-133.15 76.095-178.45 134.357a371.956 371.956 0 00-10.074 13.554c-20.201 28.54-35.742 58.312-47.587 87.551-34.504 85.952-36.618 165.061-36.24 182.512.498 24.11 3.593 148.643 77.534 260.225 36.98 55.81 90.893 102.67 151.614 133.22 35.449 17.83 87.007 28.96 127.167 16.67" stroke-miterlimit="10"/><path d="M-70.023 1254.58c-79.753 6.81-214.501-88.37-265.87-164.77-71.38-106.163-79.753-226.783-80.784-266.613-.722-28.007 4.762-106.333 38.183-187.84 12.464-30.438 28.916-60.876 49.89-89.749 51.781-70.75 132.118-133.091 237.555-164.295 59.38-17.917 120.29-27.491 182.765-28.39 46.384-.433 100.52 8.542 143.293 22.995" stroke-miterlimit="10"/><path d="M235.009 375.918c-65.26-27.724-147.797-40.428-220.948-37.847-.017-.017-.051 0-.051 0-55.306 2.131-109.064 9.857-162.032 24.543-105.609 29.239-195.968 90.149-255.658 167.959-22.487 29.522-40.676 61.375-54.549 94.128-30.791 72.715-43.513 149.359-42.034 198.513 1.994 71.266 21.558 183.726 87.282 279.416 59.037 85.92 152.25 144.44 264.013 175.31" stroke-miterlimit="10"/><path d="M-184.915 1285.25c-112.022-30.03-203.567-85.67-266.609-176.2-62.699-90.59-88.005-198.835-90.532-285.836-1.805-59.677 14.613-135.439 43.959-203.825 14.665-33.918 33.593-66.471 56.853-96.326 57.3-73.581 142.674-131.06 232.432-160.1 101.689-32.885 211.097-42.543 317.067-26.125 43.512 6.744 86.354 21.913 126.737 39.063" stroke-miterlimit="10"/><path d="M235.009 375.885c-36.016-17.8-79.976-36.266-119.482-43.525C75.47 325 36.943 320.571-3.783 320.104c-113.225-1.298-223.029 17.867-322.981 71.1-58.469 31.154-111.145 73.065-151.992 124.333-24.034 30.188-43.839 63.457-59.191 98.524-28.04 63.99-48 138.919-45.902 209.153 3.112 102.737 33.885 206.906 93.798 292.256 66.876 95.26 155.55 147.91 267.847 177.07" stroke-miterlimit="10"/><path d="M235.009 375.918c-52.761-20.264-119.259-31.187-177.556-30.305-21.799.317-43.53 1.782-64.692 4.213a.053.053 0 00-.069 0 723.189 723.189 0 00-69.369 11.273c-13.925 2.697-29.157 7.076-42.858 10.873-105.523 30.205-190.863 91.847-246.598 166.127-21.748 29.189-39.077 60.327-52.229 91.947-32.131 77.078-41.174 154.605-40.125 193.168 1.547 55.565 15.455 172.122 84.05 273.026 55.151 81.16 145.012 141.4 256.5 173.14" stroke-miterlimit="10"/></g></svg>