<svg width="1440" height="611" fill="none" xmlns="http://www.w3.org/2000/svg"><mask id="a" style="mask-type:alpha" maskUnits="userSpaceOnUse" x="0" y="-23" width="1440" height="634"><path fill="#F9F4F1" d="M0-23h1440v634H0z"/></mask><g opacity=".2"><g opacity=".8" stroke="#B2ABA5" stroke-width="2" stroke-linecap="round" mask="url(#a)"><path d="M525.643 1412.53c-119.251 54.2-253.497-7.25-340.388-94.02-67.585-67.49-112.76-155.26-138.605-247.2-62.491-222.389-14.734-488.18 148.91-657.036 65.216-67.3 147.322-115.555 236.227-144.479 64.671-21.036 130.977-38.637 199.13-42.546 55.598-3.198 117.285-4.856 171.675 8.22" stroke-miterlimit="10"/><path d="M800 234.5c-81.5-21-158.423-24.899-238.539-15.589-78.837 9.144-157.935 29.564-225.046 58.085-95.088 40.414-183.472 108.259-245.892 191.147a529.887 529.887 0 00-13.882 19.283c-27.835 40.603-49.25 82.959-65.572 124.557-47.543 122.283-50.457 234.83-49.936 259.656.687 34.302 4.951 211.471 106.838 370.211 50.955 79.41 125.244 146.07 208.913 189.54 48.847 25.37 119.891 41.19 175.228 23.71" stroke-miterlimit="10"/><path d="M382.23 1485.54c-109.893 9.69-295.568-125.72-366.351-234.4C-82.478 1100.1-94.015 928.493-95.436 871.828c-.995-39.845 6.562-151.278 52.614-267.236 17.174-43.304 39.844-86.607 68.745-127.684 71.352-100.655 182.051-189.347 327.336-233.74 81.822-25.489 165.752-39.11 251.838-40.39C669.01 202.162 743.5 216 802.545 235.493" stroke-miterlimit="10"/><path d="M802.545 235.47c-89.924-39.442-203.655-57.517-304.452-53.845-.023-.024-.071 0-.071 0-76.207 3.032-150.283 14.024-223.269 34.917C129.231 258.14 4.721 344.795-77.527 455.494c-30.985 42-56.048 87.318-75.165 133.914-42.428 103.45-59.957 212.491-57.92 282.421 2.748 101.389 29.706 261.381 120.27 397.531 81.347 122.23 209.789 205.47 363.792 249.39" stroke-miterlimit="10"/><path d="M223.915 1529.15c-154.357-42.71-280.502-121.88-367.369-250.68-86.394-128.86-121.265-282.866-124.747-406.642-2.487-84.901 20.136-192.686 60.573-289.977 20.207-48.255 46.288-94.567 78.34-137.042 78.979-104.681 196.619-186.456 320.299-227.77 140.121-46.786 290.878-60.525 436.898-37.168C687.866 189.465 747 209.5 802.544 235.446" stroke-miterlimit="10"/><path d="M802.545 235.446c-49.629-25.324-110.202-51.595-164.639-61.924-55.196-10.47-108.283-16.771-164.402-17.435-156.016-1.847-307.318 25.419-445.047 101.153-80.566 44.322-153.149 103.947-209.434 176.886-33.118 42.948-60.408 90.279-81.562 140.168-38.637 91.037-66.163 197.638-63.25 297.558 4.288 146.158 46.691 294.358 129.248 415.788 92.15 135.53 214.338 210.43 369.075 251.91" stroke-miterlimit="10"/><path d="M802.545 235.47C729.5 207 638.214 191.1 557.884 192.356c-30.037.45-59.98 2.534-89.142 5.993-.023-.024-.071-.024-.094 0a968.05 968.05 0 00-95.586 16.037c-19.188 3.838-40.176 10.068-59.057 15.469C168.602 272.827 51.01 360.524-25.79 466.201c-29.967 41.527-53.846 85.825-71.968 130.811-44.275 109.657-56.735 219.953-55.29 274.817 2.132 79.05 21.296 244.871 115.816 388.431 75.994 115.46 199.817 201.17 353.441 246.32" stroke-miterlimit="10"/><path d="M1096.79 519.241c172.38-255.534 361.02-333.779 516.11-347.471 36.65-5.449 82.37-10.613 128.96-11.3 97.77-1.421 192.33 12.01 281.64 38.661" stroke-linejoin="round"/><path d="M1126.85 565.932c166.74-265.341 352.11-349.177 506.07-375.472 35.58-6.112 78.36-13.313 122.04-15.682 93.05-5.141 183.05 3.767 268.52 24.352" stroke-linejoin="round"/><path d="M1156.44 616.271c160.96-277.493 342.59-372.036 496.54-407.096 34.35-7.841 74.36-16.014 115.08-20.112 88.41-8.883 173.86-4.43 255.44 10.068" stroke-linejoin="round"/><path d="M1186.12 668.576c7.29-13.668 13.71-24.115 17.41-30.464C1354 373.505 1524.94 270.79 1673.02 227.865c33.07-9.594 70.36-18.785 108.14-24.542 83.7-12.721 164.59-12.626 242.34-4.193" stroke-linejoin="round"/><path d="M1214.07 730.405c5.07-10.424 9.1-17.909 14.19-27.93 3.84-7.391 24.3-45.909 28.21-52.708 139.01-246.319 295.52-352.801 436.59-403.235 31.77-11.371 66.33-21.604 101.18-28.972 79-16.653 155.35-20.822 229.26-18.477" stroke-linejoin="round"/><path d="M1243.02 795.123c13.43-30.393 26.03-56.427 39.89-83.693 1.9-3.672 24.61-46.573 26.58-49.913 127.54-228.031 269.49-338.375 403.64-396.271 30.49-13.171 62.32-24.447 94.26-33.354 74.29-20.752 146.11-29.066 216.14-32.786" stroke-linejoin="round"/><path d="M1271.87 865.859c21.63-53.869 42.85-100.418 65.67-145.451l24.89-47.213c159.93-288.959 340.34-395.773 513.35-443.932h.02c15.47-4.359 30.84-8.173 46.17-11.655 16.65-3.743 33.26-7.083 49.72-10.045 17.41-3.174 34.68-5.946 51.79-8.457" stroke-linejoin="round"/><path d="M1866.28 1420.73c-194.92 83.31-416.12-176.91-528.81-405.37-44.51-84.617-81.45-191.763-123.38-281.45C1129.13 529.393 975.5 324 793 230.5" stroke-miterlimit="10"/><path d="M1767 1465c-181.95-6.27-304.51-168.66-425.81-349.24-60.87-95.2-111.46-222.199-159.81-324.776C1088.74 594.523 897.681 282.132 693 225" stroke-miterlimit="10"/><path d="M1702.25 1483.81c-164.87-21.91-257.73-144.29-384.11-316.15-77.85-110.8-131.74-243.313-194.09-366.164C1026.36 595.235 825.082 289.065 630.5 227" stroke-miterlimit="10"/><path d="M1635.12 1500.23c-123.87-3.84-269.96-179.26-370.14-322.93-62.47-87.3-125.48-221.85-173.22-315.919-51.07-100.702-102.782-212.088-166.293-302.13C825.239 415.553 661.577 241.451 555 236.5" stroke-miterlimit="10"/><path d="M1558.77 1510.11c-212.42-62.31-394.54-368.63-492.38-575.032-61.85-121.667-116.5-256.008-194.105-366.138-126.831-172.291-217.868-293.081-383.36-315.42" stroke-miterlimit="10"/><path d="M1507.06 1514.99c-224.36-55.2-403.48-370.26-496.9-568.494-51.126-108.164-97.177-226.207-159.977-325.037C727.9 439.93 606.306 280.059 423 273" stroke-miterlimit="10"/><path d="M1565.21 1558.53c-225.56-12.84-474.73-281.93-588.835-555.87-42.119-89.424-78.79-196.972-123.373-281.423C740.313 492.827 517.39 233.662 322.5 317" stroke-miterlimit="10"/><path d="M1665.04 324.469c119.25-54.2 253.5 7.249 340.39 94.022 67.58 67.49 112.76 155.258 138.6 247.195 62.49 222.393 14.74 488.184-148.91 657.044-65.21 67.3-147.32 115.55-236.22 144.48-64.68 21.03-130.98 38.63-199.13 42.54-55.6 3.2-117.29 4.86-171.68-8.22" stroke-miterlimit="10"/><path d="M1397.66 1506.29c80.33 17.91 151.45 21.11 231.56 11.8 78.84-9.14 157.94-29.56 225.05-58.09 95.09-40.41 183.47-108.26 245.89-191.14 4.76-6.33 9.4-12.75 13.88-19.29 27.84-40.6 49.25-82.96 65.57-124.55 47.55-122.29 50.46-234.833 49.94-259.659-.69-34.302-4.95-211.472-106.84-370.213-50.95-79.405-125.24-146.066-208.91-189.536-48.85-25.371-119.89-41.195-175.23-23.713" stroke-miterlimit="10"/><path d="M1808.45 251.459c109.9-9.689 295.57 125.718 366.35 234.403 98.36 151.042 109.9 322.645 111.32 379.309.99 39.845-6.56 151.279-52.61 267.239-17.18 43.3-39.85 86.6-68.75 127.68-71.35 100.66-182.05 189.35-327.33 233.74-81.83 25.49-165.76 39.11-251.84 40.39-63.92.62-138.51-12.15-197.45-32.71" stroke-miterlimit="10"/><path d="M1388.14 1501.51c89.92 39.44 203.65 57.51 304.45 53.84.02.03.07 0 .07 0 76.21-3.03 150.28-14.02 223.27-34.92 145.52-41.59 270.03-128.25 352.28-238.95 30.99-42 56.05-87.31 75.17-133.91 42.42-103.45 59.95-212.492 57.92-282.422-2.75-101.389-29.71-261.385-120.27-397.526-81.35-122.236-209.79-205.479-363.8-249.398" stroke-miterlimit="10"/><path d="M1966.77 207.824c154.36 42.711 280.5 121.88 367.37 250.678 86.39 128.868 121.26 282.871 124.74 406.646 2.49 84.901-20.13 192.682-60.57 289.982-20.21 48.25-46.29 94.56-78.34 137.04-78.95 104.68-196.59 186.45-320.28 227.77-140.12 46.78-290.87 60.52-436.89 37.16-59.96-9.59-118.99-31.17-174.64-55.57" stroke-miterlimit="10"/><path d="M1388.14 1501.55c49.63 25.33 110.2 51.6 164.64 61.93 55.19 10.47 108.28 16.77 164.4 17.43 156.02 1.85 307.32-25.42 445.05-101.15 80.56-44.32 153.15-103.95 209.43-176.89 33.12-42.94 60.41-90.27 81.56-140.16 38.64-91.04 66.14-197.642 63.25-297.562-4.29-146.161-46.69-294.36-129.25-415.79-92.15-135.525-214.33-210.43-369.07-251.91" stroke-miterlimit="10"/><path d="M1388.14 1501.51c72.7 28.83 164.33 44.37 244.66 43.11 30.04-.45 59.98-2.53 89.14-5.99.02.02.07.02.1 0 32.47-3.79 64.17-9.15 95.58-16.04 19.19-3.84 40.18-10.07 59.06-15.47 145.4-42.97 262.99-130.67 339.79-236.34 29.97-41.53 53.85-85.83 71.97-130.82 44.28-109.65 56.74-219.948 55.29-274.812-2.13-79.05-21.29-244.874-115.81-388.43-76-115.46-199.82-201.167-353.45-246.318" stroke-miterlimit="10"/></g></g></svg>