<svg width="200" height="33" fill="none" xmlns="http://www.w3.org/2000/svg"><path d="M15.947 19.182v2.011c1.394 0 1.553.07 2 .21.445.14.67.475.67 1.006v6.035c-.474.363-1.054.629-1.735.798-.58.142-1.258.22-2.027.24-.14.005-.276.01-.42.01-2.342 0-4.245-1.084-5.71-3.248-1.464-2.164-2.196-4.968-2.196-8.404 0-3.437.732-6.301 2.195-8.425 1.463-2.123 3.367-3.184 5.71-3.184.1 0 .199.01.298.014 1.557.07 3 .689 4.326 1.871 1.409 1.257 2.726 3.187 3.953 5.785h1.84l-.46-9.893h-1.84l-1.158 1.604-.265.367a9.955 9.955 0 00-3.221-1.802c-1.083-.36-2.268-.55-3.542-.576a14.544 14.544 0 00-5.142 1.121A15.014 15.014 0 004.391 7.91a14.119 14.119 0 00-3.263 4.736C.375 14.433 0 16.333 0 18.345c0 2.01.362 3.821 1.088 5.512a12.801 12.801 0 003.137 4.423c1.31 1.23 2.845 2.173 4.6 2.828 1.641.613 3.38.937 5.217.978 1.899-.04 3.883-.399 5.955-1.081 2.203-.727 3.47-1.648 4.78-2.768v-5.826c0-.529.223-.864.67-1.006.445-.14.225-.21 1.62-.21v-2.01H15.95l-.003-.003zm76.975 8.63c-.14-.237-.209-.566-.209-.984V0h-1.254l-6.641 2.22v1.257l1.38.754c.362.196.613.413.753.651.14.237.209.565.209.984v6.876c-.643-.642-1.326-1.11-2.05-1.406a6.319 6.319 0 00-2.384-.439c-1.396 0-2.733.3-4.016.901a10.042 10.042 0 00-3.347 2.536 10.178 10.178 0 00-2.092 3.52 12.61 12.61 0 00-.712 4.233c0 2.766.78 5.085 2.341 6.959 1.562 1.873 3.486 2.808 5.774 2.808 1.31 0 2.564-.363 3.764-1.09 1.198-.727 2.106-1.606 2.72-2.642v3.732h1.254l6.638-1.383v-1.256l-1.38-.755c-.362-.196-.613-.412-.752-.65l.004.002zm-5.767-1.532s-.541.62-1.389 1.194c-1.478 1.004-3.89 1.871-5.975-.94-1.594-2.145-2.057-5.395-1.39-7.892.626-2.338 2.354-5.146 5.199-5.146.78 0 1.47.182 2.07.545.6.362 1.094.88 1.485 1.552V26.28zm40.585-12.93v-2.297h-7.989v2.299l.225.005c1.888.038 2.4.087 2.4.364 0 .149-.063.336-.128.534a5.122 5.122 0 00-.074.236l-3.481 10.015-4.787-13.453h-2.911l-4.602 13.388-3.106-9.916c-.139-.36-.2-.61-.2-.804 0-.277.51-.326 2.4-.364l.225-.005v-2.3H94.581v2.298l.224.004c1.726.043 1.825.081 2.113.82l6.423 17.583h3.081l4.656-13.383 4.772 13.232.054.151h3.078l6.421-17.579c.281-.72.304-.781 2.115-.824l.225-.004h-.003zm19.598 14.4c-.609.595-1.155.861-1.773.861-.618 0-.976-.486-.976-1.333V16.624c0-3.867-2.573-5.995-7.243-5.995-5.257 0-9.695 2.592-9.695 5.657 0 1.948 1.479 2.835 2.854 2.835 1.656 0 2.811-1.08 2.811-2.625 0-.41-.098-.737-.186-1.025-.061-.205-.115-.38-.115-.534 0-.759 1.025-1.542 2.74-1.542 2.045 0 3.041 1.07 3.041 3.27v2.1c-7.08 1.89-11.79 4.045-11.79 8.384 0 2.836 2.2 4.815 5.351 4.815 2.351 0 4.76-1.085 6.796-3.06.831 1.975 2.4 3.06 4.432 3.06 1.834 0 3.638-.91 5.079-2.563l.117-.135-1.252-1.707-.191.187v.005zm-8.545-6.537v5.71c-1.267 1.05-2.353 1.52-3.512 1.52-1.531 0-2.481-.98-2.481-2.555 0-1.574.73-3.276 5.993-4.675zm22.476 5.727c-1.079 1.025-2 1.462-3.086 1.462-1.683 0-2.609-.953-2.609-2.68V13.818h6.241v-2.765h-6.241V4.28l-5.836 1.691v5.08h-2.756v2.766h2.756v12.83c0 3.181 2.497 5.32 6.209 5.32 2.726 0 5.012-1.006 6.992-3.075l.069-.072-1.647-1.966-.09.085h-.002z" fill="#5DBDF0"/><path d="M179.39 25.337c-1.603 2.202-3.009 3.022-5.192 3.022-3.503 0-5.809-2.68-6.041-7.004h13.415v-1.362c0-2.653-.751-4.934-2.173-6.594-1.553-1.813-3.841-2.77-6.619-2.77-5.847 0-10.427 4.835-10.427 11.005 0 6.783 5.202 10.332 10.34 10.332 3.879 0 7.189-1.918 8.852-5.134l.088-.171-2.111-1.511-.134.184.002.003zm-11.129-6.538c.418-3.333 2.038-5.319 4.346-5.319 2.308 0 3.338 1.79 3.383 5.32h-7.729zm28.237-8.167c-1.157 0-2.418.67-3.751 1.992-.979.973-1.811 2.115-2.386 2.995v-4.99h-1.221l-7.286 2.079v1.445l1.801.858c.692.36.867.552.867 1.318v12.296c0 .51 0 .617-2.223.617h-.229v2.303h12.035v-2.303h-.229c-3.405 0-3.513-.104-3.513-.66v-9.956c.953-1.44 2.578-3.002 3.555-3.043.394 0 .684.248 1.05.561.503.428 1.074.915 2.092.915 1.445 0 2.94-1.14 2.94-3.047 0-2.025-1.407-3.385-3.499-3.385M59.8 10.791c-4.897 0-7.151 2.144-8.924 4.322.793.867 2.184 3.682 2.436 4.335.856-1.563 2.634-4.123 4.515-5.486a3.255 3.255 0 013.852.01c2.186 1.62 3.975 4.877 3.092 9.354-.604 3.067-1.93 4.756-3.283 5.652a3.238 3.238 0 01-3.755-.13c-1.461-1.124-3.76-3.38-5.466-8.037-3.627-9.896-10.16-10.02-12.012-10.02-8.34 0-11.489 5.441-11.421 11.154.063 5.234 4.038 10.17 11.2 10.17 5.048 0 7.131-2.758 8.53-4.407-1.408-1.954-2.14-3.583-2.423-4.29-.91 1.664-2.59 4.076-4.329 5.412a3.24 3.24 0 01-3.776.117c-1.658-1.12-2.975-3.04-3.4-5.722-.768-4.853 1.353-7.889 3.398-9.319a3.246 3.246 0 013.967.18c1.389 1.185 3.25 3.313 4.549 6.501 1.777 4.367 5.09 11.53 12.675 11.483 6.128-.038 11.428-3.603 11.428-10.676 0-7.074-6.343-10.602-10.85-10.602H59.8z" fill="#5DBDF0"/></svg>