<svg width="298" height="848" fill="none" xmlns="http://www.w3.org/2000/svg"><mask id="a" style="mask-type:alpha" maskUnits="userSpaceOnUse" x="0" y="0" width="298" height="848"><path fill="#B9E9F9" d="M0 0h298v848H0z"/></mask><g style="mix-blend-mode:multiply" opacity=".2" stroke-width="3.25" stroke-linecap="round" mask="url(#a)"><path d="M60.694 126.564c-9.325 32.962-14.158 68.105-13.66 104.189.238 17.214 2.049 34.094 3.95 47.624 4.81 57.293 33.364 127.662 123.068 191.344" stroke="url(#paint0_linear_1752_6847)" stroke-linejoin="round"/><path d="M60.696 126.564c-7.198 31.543-10.446 65.005-8.647 99.361.838 16.129 3.361 31.925 5.5 45.05 9.224 56.898 39.725 126.04 132.881 187.623" stroke="url(#paint1_linear_1752_6847)" stroke-linejoin="round"/><path d="M60.695 126.564c-5.081 30.124-6.756 61.894-3.644 94.521 1.437 15.045 4.3 29.815 7.05 42.499 12.303 56.898 46.584 124.705 144.086 184.166" stroke="url(#paint2_linear_1752_6847)" stroke-linejoin="round"/><path d="M227.166 436.819c-4.833-2.718-10.469-5.937-12.721-7.308-92.748-55.551-128.75-118.661-143.79-173.33-3.362-12.219-6.587-25.976-8.602-39.924-4.459-30.899-4.312-60.987-1.358-89.693" stroke="url(#paint3_linear_1752_6847)" stroke-linejoin="round"/><path d="M60.696 126.564c-.826 27.275.52 55.683 6.36 84.865 2.58 12.863 6.169 25.619 10.152 37.349 17.678 52.07 55.004 109.863 141.335 161.171 2.377 1.454 15.878 9.012 18.47 10.431a636.635 636.635 0 0010.842 5.698" stroke="url(#paint4_linear_1752_6847)" stroke-linejoin="round"/><path d="M60.696 126.564c1.301 25.857 4.097 52.595 11.374 80.026a283.908 283.908 0 0011.69 34.785c20.293 49.519 58.966 101.936 138.891 149.024 1.177.727 16.206 9.095 17.497 9.811 9.563 5.126 19.67 10.18 30.342 15.151" stroke="url(#paint5_linear_1752_6847)" stroke-linejoin="round"/><path d="M60.695 126.564c.928 6.581 1.936 13.221 3.101 19.92v.024c3.577 20.683 8.534 41.854 16.434 63.193 20.349 54.967 60.243 110.853 146.517 161.147l16.547 9.191c15.799 8.417 33.07 16.666 51.959 24.653" stroke="url(#paint6_linear_1752_6847)" stroke-linejoin="round"/><path d="M295.265 534.476s.022.012.034.012c18.878 7.987 36.137 16.224 51.925 24.641l16.546 9.191c101.282 59.044 138.72 125.646 155.595 189.519v.012c1.528 5.71 2.863 11.384 4.086 17.047a460.765 460.765 0 013.519 18.358 603.146 603.146 0 012.966 19.121" stroke="url(#paint7_linear_1752_6847)" stroke-linejoin="round"/><path d="M190.044 458.837c.125-.083.249-.155.385-.238a1143.371 1143.371 0 0117.758-10.848c3.904-2.349 7.922-4.721 12.03-7.117a550.206 550.206 0 016.938-3.815 629.778 629.778 0 0120.7-10.741 656.91 656.91 0 0122.635-10.717 732.1 732.1 0 0120.485-8.869 366.481 366.481 0 004.278-1.8c.011 0 .034 0 .045-.012 18.878-7.987 36.137-16.236 51.925-24.64l16.547-9.192c78.827-45.955 118.869-96.666 140.667-147.08" stroke="url(#paint8_linear_1752_6847)" stroke-miterlimit="10"/><path d="M192.115 481.904a387.33 387.33 0 017.209-4.721c3.407-2.17 6.836-4.375 10.367-6.509l.645-.393c5.84-3.505 11.94-7.093 18.267-10.729 3.983-2.289 8.058-4.59 12.2-6.902a616.186 616.186 0 017.911-4.339 773.366 773.366 0 0121.639-11.302 984.895 984.895 0 0123.315-11.36c5.715-2.706 11.521-5.4 17.44-8.083 2.32-1.049 4.606-2.11 6.87-3.171 17.554-8.249 33.545-16.808 48.145-25.451.781-.763 15.313-9.179 16.014-9.942 53.691-35.059 86.524-68.951 107.778-105.178a269.895 269.895 0 0017.803-36.264" stroke="url(#paint9_linear_1752_6847)" stroke-miterlimit="10"/><path d="M210.938 493.419a522.953 522.953 0 018.511-5.161c3.452-2.039 6.915-4.113 10.457-6.116.238-.143.487-.274.736-.417a2324.784 2324.784 0 0119.512-10.908c3.7-2.038 7.447-4.1 11.227-6.163a816.95 816.95 0 0110.084-5.424 1529.43 1529.43 0 0122.522-11.802 2562.321 2562.321 0 0123.144-11.742c4.674-2.336 9.382-4.685 14.113-7.033a462.177 462.177 0 008.307-4.22 507.971 507.971 0 0045.463-26.584c1.573-1.514 14.091-9.167 15.505-10.693 51.994-37.837 82.098-72.002 100.218-109.327a291.997 291.997 0 0011.148-26.095" stroke="url(#paint10_linear_1752_6847)" stroke-miterlimit="10"/><path d="M515.697 268.865a317.518 317.518 0 01-4.719 12.934c-14.939 38.517-41.785 72.897-92.092 113.511-2.105 2.289-12.619 9.167-14.984 11.444a462.076 462.076 0 01-43.788 28.146 415.448 415.448 0 01-8.737 4.84 2395.392 2395.392 0 01-11.918 6.401c-7.198 3.863-14.418 7.689-21.662 11.528-7.469 3.957-14.973 7.927-22.488 11.909 0 0-.034.024-.056.024-4.425 2.348-8.862 4.708-13.299 7.069-3.055 1.633-6.1 3.254-9.133 4.863a9561.934 9561.934 0 01-21.696 11.528c-.056.036-.124.06-.181.095" stroke="url(#paint11_linear_1752_6847)" stroke-miterlimit="10"/><path d="M519.093 288.343c-12.053 38.529-35.266 73.564-81.815 115.121-2.818 3.052-11.318 9.155-14.476 12.195-12.766 10.204-27.037 20.349-43.029 30.196a458.1 458.1 0 01-8.251 4.971 1167.054 1167.054 0 01-10.797 6.258 1262.318 1262.318 0 01-20.236 11.337 1597.893 1597.893 0 01-21.356 11.54 2041.981 2041.981 0 01-16.58 8.714 953.719 953.719 0 01-5.953 3.087" stroke="url(#paint12_linear_1752_6847)" stroke-miterlimit="10"/><path d="M62.28 608.922c.43-1.251.86-2.503 1.313-3.743a130.55 130.55 0 011.37-3.719 204.735 204.735 0 012.92-7.332c.497-1.216 1.018-2.42 1.55-3.612.52-1.204 1.064-2.396 1.607-3.588v-.012c.543-1.192 1.109-2.372 1.675-3.552 18.063-37.372 49.345-76.592 101.338-113.643a464.692 464.692 0 0115.992-10.883c.124-.084.249-.155.384-.239a1148.116 1148.116 0 0117.758-10.848 1040.89 1040.89 0 0112.03-7.117 557.28 557.28 0 016.938-3.814 628.846 628.846 0 0120.7-10.741 655.05 655.05 0 0122.635-10.717" stroke="url(#paint13_linear_1752_6847)" stroke-linejoin="round"/><path d="M69.591 633.408v-.024c4.392-15.867 10.322-31.054 18.38-45.288 15.313-26.44 36.986-53.012 67.057-78.463 3.972-3.648 11.08-8.75 15.471-12.362 6.802-5.162 14-10.288 21.617-15.366a390.68 390.68 0 017.209-4.721c3.407-2.17 6.836-4.375 10.367-6.509l.645-.393c5.84-3.505 11.94-7.093 18.267-10.729 3.984-2.289 8.058-4.59 12.2-6.902a643.058 643.058 0 017.911-4.34 776.043 776.043 0 0121.639-11.301" stroke="url(#paint14_linear_1752_6847)" stroke-linejoin="round"/><path d="M72.952 654.102s14.204-39.363 30.263-61.261c18.357-25.034 40.721-50.7 70.871-74.041 3.18-2.909 12.393-8.738 15.913-11.635a469.363 469.363 0 0120.937-13.745 522.95 522.95 0 018.511-5.162c3.452-2.038 6.915-4.113 10.458-6.115.237-.143.486-.274.735-.417a2284.676 2284.676 0 0130.739-17.071c3.339-1.824 6.7-3.636 10.084-5.424" stroke="url(#paint15_linear_1752_6847)" stroke-linejoin="round"/><path d="M295.31 469.578s-.034.024-.057.024c-4.425 2.348-8.862 4.709-13.298 7.069-3.056 1.633-6.1 3.255-9.134 4.864a9977.924 9977.924 0 01-21.695 11.527c-.057.036-.125.06-.182.096-3.825 2.026-7.594 4.112-11.374 6.175a470.833 470.833 0 00-8.997 5.03 500.404 500.404 0 00-21.085 12.696c-2.637 2.17-13.955 8.738-16.343 10.92-30.229 21.219-55.003 44.62-74.673 69.594-19.15 25.201-33.953 46.707-43.03 77.904v.012" stroke="url(#paint16_linear_1752_6847)" stroke-linejoin="round"/><path d="M340.478 468.422a1592.836 1592.836 0 01-21.357 11.539 1980.75 1980.75 0 01-16.58 8.714 953.816 953.816 0 01-5.953 3.088 2015.454 2015.454 0 01-23.145 11.742c-.735.37-1.46.727-2.195 1.097-3.848 1.907-7.696 3.874-11.567 5.805a550.341 550.341 0 00-8.579 4.387 553.44 553.44 0 00-22.114 12.171c-1.755 1.443-15.189 8.727-16.773 10.193-30.32 19.097-56.633 40.913-78.488 65.16-23.755 27.156-42.226 53.096-54.29 88.441" stroke="url(#paint17_linear_1752_6847)" stroke-linejoin="round"/><path d="M380.973 468.565a686.14 686.14 0 01-18.878 11.158 821.112 821.112 0 01-20.202 11.182 1025.982 1025.982 0 01-18.776 9.787c-.973.488-1.947.989-2.92 1.478a1050.446 1050.446 0 01-23.292 11.361c-1.776.834-3.565 1.668-5.353 2.503-3.882 1.812-7.786 3.636-11.748 5.436a615.714 615.714 0 00-31.327 15.39c-.871.727-16.41 8.738-17.202 9.477-30.411 16.963-58.264 37.205-82.291 60.713-28.056 27.955-51.563 57.006-66.853 95.463" stroke="url(#paint18_linear_1752_6847)" stroke-linejoin="round"/><path d="M86.002 715.102v-.012c33.76-74.434 96.369-126.469 164.332-159.585l17.644-8.75a696.844 696.844 0 0127.275-12.255c.011 0 .034 0 .045-.012a562.5 562.5 0 014.629-1.943 738.404 738.404 0 0020.168-8.714 678.334 678.334 0 0022.681-10.682 587.818 587.818 0 0020.734-10.716 536.79 536.79 0 0019.138-10.825c6.1-3.6 11.985-7.248 17.644-10.919a480.638 480.638 0 0016.365-11.099" stroke="url(#paint19_linear_1752_6847)" stroke-linejoin="round"/><path d="M85.854 223.148C133.082 68.057 288.134 70.727 294.732 70.93c6.926-.203 161.684-2.67 209.217 151.264l.487 1.574 3.192 10.276.385 1.24a373.634 373.634 0 012.897 10.55 367.954 367.954 0 013.52 14.758v.012a335.537 335.537 0 013.678 19.634c1.437 9.262 2.512 18.882 2.988 28.586v.012c.577 11.706.283 23.556-1.257 35.071v.048a149.467 149.467 0 01-2.048 11.742h.023" stroke="#181C4B" stroke-miterlimit="10"/><path d="M519.829 343.967v-.048c2.727-13.804 3.757-28.181 3.599-42.474v-.012c-.136-10.741-.928-21.434-2.207-31.805v-.012a344.63 344.63 0 00-3.124-20.444v-.012a361.15 361.15 0 00-3.112-15.188 367.316 367.316 0 00-2.898-11.909v-.012a22.021 22.021 0 01-.215-.81c-.113-.56-1.573-5.412-2.693-9.167-.668-2.23-1.223-4.065-1.302-4.399-16.071-53.704-45.327-90.921-78.917-115.312-14.261-10.3-29.143-18.227-43.754-24.259-42.962-17.595-82.494-18.668-91.22-18.477-12.054.25-74.289 1.836-130.051 39.53-35.73 24.318-66.955 64.039-83.716 120.544l-.034.108" stroke="#181C4B" stroke-miterlimit="10"/><path d="M76.009 196.457c16.32-56.708 47.273-100.767 85.459-126.958 53.057-36.394 113.346-40.662 133.254-41.187 14-.37 53.147 2.432 93.879 19.467 15.211 6.354 30.422 14.746 44.852 25.44 35.356 26.405 64.25 66.173 79.846 119.924.147.584.577 2.098 1.109 3.958.905 3.147 2.082 7.236 2.592 9.191v.012c.102.382.169.68.215.882.826 3.41 1.629 6.902 2.399 10.479v.024a381.336 381.336 0 012.897 15.068 359.03 359.03 0 012.932 20.647c1.211 10.752 1.946 21.803 2.048 32.913.215 23.652-2.478 47.565-9.699 69.38" stroke="#181C4B" stroke-miterlimit="10"/><path d="M517.792 355.709c10.129-26.906 13.796-57.125 13.354-86.844v-.048c-.158-11.11-.894-22.161-2.105-32.937.012-.012.012-.024 0-.036a365.203 365.203 0 00-2.931-21.005c-.815-4.888-1.72-9.68-2.705-14.365v-.024a324.118 324.118 0 00-1.596-7.307c-.135-.68-.407-1.764-.747-3.064-.633-2.467-1.527-5.698-2.218-8.201-.373-1.383-.702-2.551-.871-3.255-15.098-53.799-43.641-96.118-80.763-124.538-14.588-11.086-30.15-19.92-45.949-26.631-38.525-16.38-77.266-20.993-96.54-20.457-27.773.787-86.025 7.88-136.456 42.856-40.562 28.122-70.667 73.934-86.535 130.785" stroke="#181C4B" stroke-miterlimit="10"/><path d="M517.791 355.709c13.853-33.271 18.414-71.669 17.124-108.969v-.024a372.652 372.652 0 00-2.784-34.309v-.012a390.875 390.875 0 00-3.045-19.8 365.081 365.081 0 00-2.489-12.589v-.012c-.068-.31-.125-.608-.193-.906-.362-1.776-1.064-4.625-1.799-7.474-.623-2.396-1.257-4.792-1.709-6.545v-.012c-.091-.345-.17-.667-.249-.953-14.611-53.847-42.792-98.73-81.679-129.164A216.809 216.809 0 00393.92 7.13c-36.341-15.7-74.651-22.185-99.21-21.434-35.617 1.013-91.82 10.99-139.648 44.5-42.939 30.1-72.184 77.63-87.61 134.612" stroke="#181C4B" stroke-miterlimit="10"/><path d="M63.796 146.508v-.023C78.803 89.371 106.611 42.689 151.86 10.55c45.27-31.972 99.368-44.87 142.851-46.158 29.822-.918 67.69 7.45 101.87 22.411 16.953 7.475 33.217 17.13 48.145 28.992 39.872 31.841 67.407 78.07 81.758 130.69.294 1.025.566 2.05.838 3.087.056.239.124.489.192.739.396 1.586.849 3.398 1.313 5.269.69 2.766 1.381 5.651 1.901 8.095.102.476.193.929.283 1.371a377.08 377.08 0 012.569 13.577 390.12 390.12 0 014.165 32.044c4.357 49.019-.26 101.459-19.941 145.042" stroke="#181C4B" stroke-miterlimit="10"/><path d="M517.802 355.721c8.975-18.549 15.358-38.707 19.511-59.628 4.459-22.448 6.372-45.777 6.18-68.963-.193-26.047-3.045-51.916-7.889-76.115a346.31 346.31 0 00-3.101-13.936c-.158-.632-.317-1.252-.475-1.883-13.615-53.99-41.106-104.035-83.547-138.522-15.086-12.255-31.712-22.352-49.243-30.184-31.983-14.305-69.433-24.485-104.529-23.413C243.361-55.337 191.3-39.648 148.644-9.096c-47.613 34.094-73.927 80.05-88.493 137.306m444.513 587.738c-47.228 155.103-202.28 152.421-208.878 152.23-6.926.191-161.683 2.659-209.217-151.276l-.566-1.801v-.011l-2.479-7.987-1.018-3.279a506.065 506.065 0 01-1.947-6.95 399.213 399.213 0 01-3.463-13.852 387.257 387.257 0 01-1.653-7.534v-.012a348.404 348.404 0 01-2.286-12.076s-2.92-19.765-3.565-29.993v-.024c-1.041-16.76-.373-33.879 3.147-49.984h-.023v-.012" stroke="#181C4B" stroke-miterlimit="10"/><path d="M72.737 583.399c-5.341 19.503-6.801 40.567-5.953 61.191v.059c.453 11.075 1.574 22.03 3.124 32.532a363.022 363.022 0 003.44 19.718 392.95 392.95 0 002.955 13.327c.328 1.407.667 2.79 1.007 4.149.068.477.713 2.777 1.46 5.412v.012c.747 2.611 1.596 5.555 2.105 7.355v.012c.226.799.373 1.371.419 1.586 16.58 57.208 48.02 96.19 83.976 120.997 13.955 9.537 28.396 16.94 42.543 22.507 41.581 16.379 79.337 17.393 87.972 17.214 12.053-.262 74.3-1.848 130.051-39.542 35.763-24.331 67.475-64.325 84.226-120.902" stroke="#181C4B" stroke-miterlimit="10"/><path d="M514.714 743.617c-16.309 56.708-47.478 99.802-85.663 125.992-53.068 36.383-113.346 40.663-133.254 41.187-13.932.37-51.653-2.42-91.288-18.441-14.837-6.009-29.731-13.924-43.878-24.045-38.152-27.311-68.947-69.916-84.61-127.673 0-.072-.035-.143-.046-.227v-.012c-.26-1.18-.973-3.85-1.72-6.664v-.011c-2.094-8.202-3.814-16.594-4.572-20.671a391.994 391.994 0 01-3.045-18.692v-.024c-1.517-10.956-2.592-22.352-3.022-33.915-.996-26 1.257-52.774 9.111-77.022" stroke="#181C4B" stroke-miterlimit="10"/><path d="M519.377 757.814s0 .012-.011.024v.012c-15.879 56.839-46.561 103.271-87.112 131.405-50.431 34.964-108.683 42.057-136.457 42.844-19.217.548-56.893-4.042-94.592-19.682-15.528-6.437-30.852-14.901-45.225-25.582-39.691-29.457-69.604-74.673-84.577-131.762-.226-.859-.441-1.705-.656-2.563-.159-.787-.43-1.932-.747-3.279-.51-2.134-1.155-4.756-1.732-7.212v-.024c-.622-2.634-1.166-5.054-1.358-6.449a201.307 201.307 0 01-.713-3.767s-.011 0 0-.024a367.343 367.343 0 01-2.648-16.105 371.64 371.64 0 01-3.192-31.507s-.011-.012 0-.024c0 0-.011 0 0-.024-1.98-33.855.826-69.439 12.37-100.684" stroke="#181C4B" stroke-miterlimit="10"/><path d="M523.598 774.361c-.046.179-.102.358-.147.536-15.483 56.756-45.192 104.011-87.995 134.004-47.828 33.522-104.032 43.499-139.648 44.513-24.525.751-62.134-5.71-97.92-20.922-16.196-6.89-31.95-15.914-46.549-27.12-40.653-31.185-69.581-78.094-84.09-133.777v-.012a271.484 271.484 0 01-1.177-4.649c-.204-.858-.408-1.704-.612-2.563-.192-.977-.44-2.145-.724-3.433-.51-2.348-1.132-5.09-1.675-7.701-.577-2.682-1.086-5.233-1.358-7.117a587.061 587.061 0 01-.803-4.744v-.024a392.486 392.486 0 01-3.068-22.769v-.012c-4.696-44.716-2.093-93.842 14.883-135.172" stroke="#181C4B" stroke-miterlimit="10"/><path d="M72.715 583.387v.012c-23.45 52.285-25.193 117.171-16.207 173.295.09.655.204 1.335.317 2.026.566 3.493 1.347 7.487 2.105 11.23v.024c.441 2.229.883 4.363 1.256 6.258.08.382.17.751.25 1.133v.023a268.16 268.16 0 001.233 5.317c.34 1.431.69 2.849 1.052 4.268.306 1.228.623 2.456.962 3.683 14.283 53.514 42.192 100.887 83.004 133.241a217.956 217.956 0 0047.896 28.646c33.885 14.77 71.414 23.079 101.225 22.161 43.482-1.287 97.58-14.186 142.851-46.158 44.67-31.745 73.179-79.131 88.311-135.303.204-.727.396-1.442.589-2.169" stroke="#181C4B" stroke-miterlimit="10"/><path d="M72.715 583.387v.012a320.318 320.318 0 00-1.675 3.517v.011c-.543 1.193-1.086 2.385-1.607 3.589a169.832 169.832 0 00-1.55 3.612 203.441 203.441 0 00-2.92 7.331c-.464 1.24-.928 2.48-1.37 3.719-.452 1.24-.882 2.492-1.313 3.744a254.588 254.588 0 00-4.662 15.282 343.658 343.658 0 00-.974 3.672 201.613 201.613 0 00-1.109 4.518c-.26 1.049-.498 2.086-.735 3.135a320.336 320.336 0 00-.702 3.195 57.778 57.778 0 00-.408 1.919c-.17.811-.34 1.622-.486 2.432a79.223 79.223 0 00-.442 2.253 199.886 199.886 0 00-1.063 5.901c-.102.56-.193 1.121-.283 1.693a51.352 51.352 0 00-.306 1.907c-.113.668-.215 1.347-.317 2.027a288.476 288.476 0 00-1.279 9.405c-.102.811-.192 1.61-.294 2.42l-.306 2.885c-.124 1.18-.249 2.361-.35 3.553-.068.667-.125 1.347-.181 2.014-.08.787-.148 1.574-.204 2.361-.046.584-.102 1.168-.136 1.752a250.058 250.058 0 00-.294 4.172 253.307 253.307 0 00-.181 3.004c-.08 1.371-.148 2.742-.204 4.113-.068 1.359-.113 2.73-.159 4.089a351.236 351.236 0 00-.169 16.558c-.012.441 0 .87 0 1.3.011 1.144.034 2.288.068 3.433-.012.012-.012.024 0 .036 0 .572.022 1.156.045 1.728 0 .167 0 .334.011.501.023 1.132.068 2.253.102 3.373.023.453.034.895.057 1.348.034.929.079 1.871.135 2.801.068 1.574.148 3.147.25 4.709.079 1.335.158 2.67.26 4.005.102 1.538.215 3.064.35 4.59.08 1.085.17 2.169.272 3.254.294 3.326.634 6.64 1.008 9.942.373 3.29.792 6.581 1.244 9.835.227 1.645.464 3.266.702 4.888a428.4 428.4 0 001.573 9.656 414.06 414.06 0 001.788 9.512c11.997 59.951 40.551 116.504 87.123 154.341 15.087 12.255 31.712 22.352 49.243 30.184 31.984 14.293 69.434 24.474 104.53 23.389 51.348-1.574 103.409-17.274 146.065-47.815 47.613-34.094 73.927-80.049 88.492-137.318" stroke="#181C4B" stroke-miterlimit="10"/></g><defs><linearGradient id="paint0_linear_1752_6847" x1="110.529" y1="472.118" x2="110.529" y2="124.181" gradientUnits="userSpaceOnUse"><stop stop-color="#fff"/><stop offset=".03" stop-color="#DDDEE5"/><stop offset=".07" stop-color="#B4B6C4"/><stop offset=".12" stop-color="#8F90A7"/><stop offset=".18" stop-color="#6E718D"/><stop offset=".24" stop-color="#535678"/><stop offset=".31" stop-color="#3D4067"/><stop offset=".39" stop-color="#2C305A"/><stop offset=".48" stop-color="#202450"/><stop offset=".62" stop-color="#191D4B"/><stop offset="1" stop-color="#181C4A"/></linearGradient><linearGradient id="paint1_linear_1752_6847" x1="120.999" y1="460.918" x2="120.999" y2="124.259" gradientUnits="userSpaceOnUse"><stop stop-color="#fff"/><stop offset=".03" stop-color="#DDDEE5"/><stop offset=".07" stop-color="#B4B6C4"/><stop offset=".12" stop-color="#8F90A7"/><stop offset=".18" stop-color="#6E718D"/><stop offset=".24" stop-color="#535678"/><stop offset=".31" stop-color="#3D4067"/><stop offset=".39" stop-color="#2C305A"/><stop offset=".48" stop-color="#202450"/><stop offset=".62" stop-color="#191D4B"/><stop offset="1" stop-color="#181C4A"/></linearGradient><linearGradient id="paint2_linear_1752_6847" x1="131.838" y1="449.994" x2="131.838" y2="124.334" gradientUnits="userSpaceOnUse"><stop stop-color="#fff"/><stop offset=".03" stop-color="#DDDEE5"/><stop offset=".07" stop-color="#B4B6C4"/><stop offset=".12" stop-color="#8F90A7"/><stop offset=".18" stop-color="#6E718D"/><stop offset=".24" stop-color="#535678"/><stop offset=".31" stop-color="#3D4067"/><stop offset=".39" stop-color="#2C305A"/><stop offset=".48" stop-color="#202450"/><stop offset=".62" stop-color="#191D4B"/><stop offset="1" stop-color="#181C4A"/></linearGradient><linearGradient id="paint3_linear_1752_6847" x1="142.875" y1="438.986" x2="142.875" y2="124.41" gradientUnits="userSpaceOnUse"><stop stop-color="#fff"/><stop offset=".03" stop-color="#DDDEE5"/><stop offset=".07" stop-color="#B4B6C4"/><stop offset=".12" stop-color="#8F90A7"/><stop offset=".18" stop-color="#6E718D"/><stop offset=".24" stop-color="#535678"/><stop offset=".31" stop-color="#3D4067"/><stop offset=".39" stop-color="#2C305A"/><stop offset=".48" stop-color="#202450"/><stop offset=".62" stop-color="#191D4B"/><stop offset="1" stop-color="#181C4A"/></linearGradient><linearGradient id="paint4_linear_1752_6847" x1="154.169" y1="428.171" x2="154.169" y2="124.485" gradientUnits="userSpaceOnUse"><stop stop-color="#fff"/><stop offset=".03" stop-color="#DDDEE5"/><stop offset=".07" stop-color="#B4B6C4"/><stop offset=".12" stop-color="#8F90A7"/><stop offset=".18" stop-color="#6E718D"/><stop offset=".24" stop-color="#535678"/><stop offset=".31" stop-color="#3D4067"/><stop offset=".39" stop-color="#2C305A"/><stop offset=".48" stop-color="#202450"/><stop offset=".62" stop-color="#191D4B"/><stop offset="1" stop-color="#181C4A"/></linearGradient><linearGradient id="paint5_linear_1752_6847" x1="165.598" y1="417.379" x2="165.598" y2="124.559" gradientUnits="userSpaceOnUse"><stop stop-color="#fff"/><stop offset=".03" stop-color="#DDDEE5"/><stop offset=".07" stop-color="#B4B6C4"/><stop offset=".12" stop-color="#8F90A7"/><stop offset=".18" stop-color="#6E718D"/><stop offset=".24" stop-color="#535678"/><stop offset=".31" stop-color="#3D4067"/><stop offset=".39" stop-color="#2C305A"/><stop offset=".48" stop-color="#202450"/><stop offset=".62" stop-color="#191D4B"/><stop offset="1" stop-color="#181C4A"/></linearGradient><linearGradient id="paint6_linear_1752_6847" x1="177.98" y1="406.635" x2="177.98" y2="124.633" gradientUnits="userSpaceOnUse"><stop stop-color="#fff"/><stop offset=".03" stop-color="#DDDEE5"/><stop offset=".07" stop-color="#B4B6C4"/><stop offset=".12" stop-color="#8F90A7"/><stop offset=".18" stop-color="#6E718D"/><stop offset=".24" stop-color="#535678"/><stop offset=".31" stop-color="#3D4067"/><stop offset=".39" stop-color="#2C305A"/><stop offset=".48" stop-color="#202450"/><stop offset=".62" stop-color="#191D4B"/><stop offset="1" stop-color="#181C4A"/></linearGradient><linearGradient id="paint7_linear_1752_6847" x1="412.606" y1="532.545" x2="412.606" y2="814.32" gradientUnits="userSpaceOnUse"><stop stop-color="#fff"/><stop offset=".03" stop-color="#DDDEE5"/><stop offset=".07" stop-color="#B4B6C4"/><stop offset=".12" stop-color="#8F90A7"/><stop offset=".18" stop-color="#6E718D"/><stop offset=".24" stop-color="#535678"/><stop offset=".31" stop-color="#3D4067"/><stop offset=".39" stop-color="#2C305A"/><stop offset=".48" stop-color="#202450"/><stop offset=".62" stop-color="#191D4B"/><stop offset="1" stop-color="#181C4A"/></linearGradient><linearGradient id="paint8_linear_1752_6847" x1="347.248" y1="222.134" x2="347.248" y2="460.481" gradientUnits="userSpaceOnUse"><stop stop-color="#fff"/><stop offset=".03" stop-color="#DDDEE5"/><stop offset=".07" stop-color="#B4B6C4"/><stop offset=".12" stop-color="#8F90A7"/><stop offset=".18" stop-color="#6E718D"/><stop offset=".24" stop-color="#535678"/><stop offset=".31" stop-color="#3D4067"/><stop offset=".39" stop-color="#2C305A"/><stop offset=".48" stop-color="#202450"/><stop offset=".62" stop-color="#191D4B"/><stop offset="1" stop-color="#181C4A"/></linearGradient><linearGradient id="paint9_linear_1752_6847" x1="349.924" y1="235.862" x2="349.924" y2="483.612" gradientUnits="userSpaceOnUse"><stop stop-color="#fff"/><stop offset=".03" stop-color="#DDDEE5"/><stop offset=".07" stop-color="#B4B6C4"/><stop offset=".12" stop-color="#8F90A7"/><stop offset=".18" stop-color="#6E718D"/><stop offset=".24" stop-color="#535678"/><stop offset=".31" stop-color="#3D4067"/><stop offset=".39" stop-color="#2C305A"/><stop offset=".48" stop-color="#202450"/><stop offset=".62" stop-color="#191D4B"/><stop offset="1" stop-color="#181C4A"/></linearGradient><linearGradient id="paint10_linear_1752_6847" x1="361.419" y1="250.055" x2="361.419" y2="495.109" gradientUnits="userSpaceOnUse"><stop stop-color="#fff"/><stop offset=".03" stop-color="#DDDEE5"/><stop offset=".07" stop-color="#B4B6C4"/><stop offset=".12" stop-color="#8F90A7"/><stop offset=".18" stop-color="#6E718D"/><stop offset=".24" stop-color="#535678"/><stop offset=".31" stop-color="#3D4067"/><stop offset=".39" stop-color="#2C305A"/><stop offset=".48" stop-color="#202450"/><stop offset=".62" stop-color="#191D4B"/><stop offset="1" stop-color="#181C4A"/></linearGradient><linearGradient id="paint11_linear_1752_6847" x1="383.327" y1="267.306" x2="383.327" y2="494.726" gradientUnits="userSpaceOnUse"><stop stop-color="#fff"/><stop offset=".03" stop-color="#DDDEE5"/><stop offset=".07" stop-color="#B4B6C4"/><stop offset=".12" stop-color="#8F90A7"/><stop offset=".18" stop-color="#6E718D"/><stop offset=".24" stop-color="#535678"/><stop offset=".31" stop-color="#3D4067"/><stop offset=".39" stop-color="#2C305A"/><stop offset=".48" stop-color="#202450"/><stop offset=".62" stop-color="#191D4B"/><stop offset="1" stop-color="#181C4A"/></linearGradient><linearGradient id="paint12_linear_1752_6847" x1="407.852" y1="286.93" x2="407.852" y2="493.185" gradientUnits="userSpaceOnUse"><stop stop-color="#fff"/><stop offset=".03" stop-color="#DDDEE5"/><stop offset=".07" stop-color="#B4B6C4"/><stop offset=".12" stop-color="#8F90A7"/><stop offset=".18" stop-color="#6E718D"/><stop offset=".24" stop-color="#535678"/><stop offset=".31" stop-color="#3D4067"/><stop offset=".39" stop-color="#2C305A"/><stop offset=".48" stop-color="#202450"/><stop offset=".62" stop-color="#191D4B"/><stop offset="1" stop-color="#181C4A"/></linearGradient><linearGradient id="paint13_linear_1752_6847" x1="61.003" y1="512.147" x2="271.776" y2="512.147" gradientUnits="userSpaceOnUse"><stop stop-color="#fff"/><stop offset=".03" stop-color="#DDDEE5"/><stop offset=".07" stop-color="#B4B6C4"/><stop offset=".12" stop-color="#8F90A7"/><stop offset=".18" stop-color="#6E718D"/><stop offset=".24" stop-color="#535678"/><stop offset=".31" stop-color="#3D4067"/><stop offset=".39" stop-color="#2C305A"/><stop offset=".48" stop-color="#202450"/><stop offset=".62" stop-color="#191D4B"/><stop offset="1" stop-color="#181C4A"/></linearGradient><linearGradient id="paint14_linear_1752_6847" x1="68.36" y1="535.214" x2="271.594" y2="535.214" gradientUnits="userSpaceOnUse"><stop stop-color="#fff"/><stop offset=".03" stop-color="#DDDEE5"/><stop offset=".07" stop-color="#B4B6C4"/><stop offset=".12" stop-color="#8F90A7"/><stop offset=".18" stop-color="#6E718D"/><stop offset=".24" stop-color="#535678"/><stop offset=".31" stop-color="#3D4067"/><stop offset=".39" stop-color="#2C305A"/><stop offset=".48" stop-color="#202450"/><stop offset=".62" stop-color="#191D4B"/><stop offset="1" stop-color="#181C4A"/></linearGradient><linearGradient id="paint15_linear_1752_6847" x1="71.734" y1="556.672" x2="272.688" y2="556.672" gradientUnits="userSpaceOnUse"><stop stop-color="#fff"/><stop offset=".03" stop-color="#DDDEE5"/><stop offset=".07" stop-color="#B4B6C4"/><stop offset=".12" stop-color="#8F90A7"/><stop offset=".18" stop-color="#6E718D"/><stop offset=".24" stop-color="#535678"/><stop offset=".31" stop-color="#3D4067"/><stop offset=".39" stop-color="#2C305A"/><stop offset=".48" stop-color="#202450"/><stop offset=".62" stop-color="#191D4B"/><stop offset="1" stop-color="#181C4A"/></linearGradient><linearGradient id="paint16_linear_1752_6847" x1="74.093" y1="572.539" x2="296.667" y2="572.539" gradientUnits="userSpaceOnUse"><stop stop-color="#fff"/><stop offset=".03" stop-color="#DDDEE5"/><stop offset=".07" stop-color="#B4B6C4"/><stop offset=".12" stop-color="#8F90A7"/><stop offset=".18" stop-color="#6E718D"/><stop offset=".24" stop-color="#535678"/><stop offset=".31" stop-color="#3D4067"/><stop offset=".39" stop-color="#2C305A"/><stop offset=".48" stop-color="#202450"/><stop offset=".62" stop-color="#191D4B"/><stop offset="1" stop-color="#181C4A"/></linearGradient><linearGradient id="paint17_linear_1752_6847" x1="77.835" y1="579.596" x2="342.089" y2="579.596" gradientUnits="userSpaceOnUse"><stop stop-color="#fff"/><stop offset=".03" stop-color="#DDDEE5"/><stop offset=".07" stop-color="#B4B6C4"/><stop offset=".12" stop-color="#8F90A7"/><stop offset=".18" stop-color="#6E718D"/><stop offset=".24" stop-color="#535678"/><stop offset=".31" stop-color="#3D4067"/><stop offset=".39" stop-color="#2C305A"/><stop offset=".48" stop-color="#202450"/><stop offset=".62" stop-color="#191D4B"/><stop offset="1" stop-color="#181C4A"/></linearGradient><linearGradient id="paint18_linear_1752_6847" x1="80.297" y1="585.545" x2="382.817" y2="585.545" gradientUnits="userSpaceOnUse"><stop stop-color="#fff"/><stop offset=".03" stop-color="#DDDEE5"/><stop offset=".07" stop-color="#B4B6C4"/><stop offset=".12" stop-color="#8F90A7"/><stop offset=".18" stop-color="#6E718D"/><stop offset=".24" stop-color="#535678"/><stop offset=".31" stop-color="#3D4067"/><stop offset=".39" stop-color="#2C305A"/><stop offset=".48" stop-color="#202450"/><stop offset=".62" stop-color="#191D4B"/><stop offset="1" stop-color="#181C4A"/></linearGradient><linearGradient id="paint19_linear_1752_6847" x1="83.973" y1="592.353" x2="418.698" y2="592.353" gradientUnits="userSpaceOnUse"><stop stop-color="#fff"/><stop offset=".03" stop-color="#DDDEE5"/><stop offset=".07" stop-color="#B4B6C4"/><stop offset=".12" stop-color="#8F90A7"/><stop offset=".18" stop-color="#6E718D"/><stop offset=".24" stop-color="#535678"/><stop offset=".31" stop-color="#3D4067"/><stop offset=".39" stop-color="#2C305A"/><stop offset=".48" stop-color="#202450"/><stop offset=".62" stop-color="#191D4B"/><stop offset="1" stop-color="#181C4A"/></linearGradient></defs></svg>