<svg width="27" height="26" fill="none" xmlns="http://www.w3.org/2000/svg"><circle cx="13.853" cy="12.951" fill="#4A5C76" r="12.951"/><g clip-path="url(#clip0_1774_753)"><path fill-rule="evenodd" clip-rule="evenodd" d="M19.251 8.212a4.522 4.522 0 01-1.49.602 2.28 2.28 0 00-1.71-.783c-1.294 0-2.344 1.112-2.344 2.484 0 .194.02.383.06.565-1.948-.104-3.675-1.091-4.832-2.596a2.595 2.595 0 00-.318 1.25c0 .862.414 1.622 1.043 2.068a2.247 2.247 0 01-1.062-.31v.03c0 1.204.808 2.209 1.881 2.436a2.214 2.214 0 01-1.06.043c.3.987 1.165 1.706 2.191 1.725a4.538 4.538 0 01-3.47 1.03 6.377 6.377 0 003.593 1.115c4.313 0 6.67-3.785 6.67-7.068 0-.108-.001-.216-.005-.322.458-.35.855-.787 1.169-1.286-.42.198-.872.332-1.347.391a2.469 2.469 0 001.031-1.374z" fill="#fff"/></g><defs><clipPath id="clip0_1774_753"><path fill="#fff" transform="translate(8.14 8.03)" d="M0 0h11.427v9.84H0z"/></clipPath></defs></svg>