<?xml version="1.0" standalone="no"?>
<!DOCTYPE svg PUBLIC "-//W3C//DTD SVG 1.1//EN" "http://www.w3.org/Graphics/SVG/1.1/DTD/svg11.dtd" >
<svg xmlns="http://www.w3.org/2000/svg" xmlns:xlink="http://www.w3.org/1999/xlink" version="1.1">
<metadata>
Created by FontForge 20170731 at Mon May  9 08:32:47 2022
 By Aleksey,,,
Copyright 2022, Kris Sowersby, Klim Type Foundry.
</metadata>
<defs>
<font id="UntitledSans-Medium" horiz-adv-x="1351" >
  <font-face 
    font-family="Untitled Sans Medium"
    font-weight="500"
    font-stretch="normal"
    units-per-em="2048"
    panose-1="2 11 5 3 3 2 2 6 2 3"
    ascent="1638"
    descent="-410"
    x-height="1040"
    cap-height="1462"
    bbox="-428 -475 2171 2001"
    underline-thickness="102"
    underline-position="-307"
    unicode-range="U+0020-2212"
  />
<missing-glyph horiz-adv-x="2412" 
d="M2032 969v-113q-49 -16 -109 -16q-172 0 -172 172v256h-74v106h74v133h152v-133h116v-106h-116v-238q0 -69 61 -69q29 0 68 8zM655 1374v-82q20 43 62 70t100 27q92 0 143.5 -54t51.5 -149v-338h-154v303q0 121 -96 121q-49 0 -78 -34.5t-29 -104.5v-285h-153v526h153z
M1092 1114q0 126 75.5 200.5t198.5 74.5q121 0 196.5 -74.5t75.5 -200.5q0 -127 -75 -201.5t-197 -74.5q-123 0 -198.5 74.5t-75.5 201.5zM1243 1114q0 -80 31.5 -124t91.5 -44q57 0 88 44.5t31 123.5q0 77 -31 120.5t-88 43.5q-61 0 -92 -43t-31 -121zM205 848v174h174
v-174h-174zM2032 621q-39 8 -68 8q-61 0 -61 -70v-31h116v-106h-116v-422h-152v422h-74v106h74v50q0 172 172 172q57 0 109 -17v-112zM860 0v84q-20 -42 -64 -69t-100 -27q-105 0 -168 76t-63 200q0 123 63 200t168 77q54 0 97 -27t65 -68v297h154v-743h-152zM1626 166
q-24 -85 -89.5 -131.5t-166.5 -46.5q-123 0 -200.5 74t-77.5 200q0 125 80 201t198 76q127 0 195.5 -77.5t68.5 -189.5v-47h-395q15 -129 131 -129q85 0 109 70h147zM1370 432q-52 0 -84 -30t-43 -85h242q-2 48 -31 81.5t-84 33.5zM862 254v18q0 74 -32.5 116t-90.5 42
t-90.5 -45t-32.5 -121q0 -77 32.5 -122.5t90.5 -45.5t90.5 42.5t32.5 115.5z" />
    <glyph glyph-name="f_idieresis" unicode="f&#xef;" horiz-adv-x="1286" 
d="M188 852h-143v188h143v97q0 174 115.5 275t300.5 101q113 0 193 -26v-203q-58 25 -164 25q-182 0 -182 -181v-88h211v-188h-211v-852h-263v852zM1051 1217v256h241v-256h-241zM862 1040h264v-1040h-264v1040z" />
    <glyph glyph-name=".notdef" horiz-adv-x="2412" 
d="M2032 969v-113q-49 -16 -109 -16q-172 0 -172 172v256h-74v106h74v133h152v-133h116v-106h-116v-238q0 -69 61 -69q29 0 68 8zM655 1374v-82q20 43 62 70t100 27q92 0 143.5 -54t51.5 -149v-338h-154v303q0 121 -96 121q-49 0 -78 -34.5t-29 -104.5v-285h-153v526h153z
M1092 1114q0 126 75.5 200.5t198.5 74.5q121 0 196.5 -74.5t75.5 -200.5q0 -127 -75 -201.5t-197 -74.5q-123 0 -198.5 74.5t-75.5 201.5zM1243 1114q0 -80 31.5 -124t91.5 -44q57 0 88 44.5t31 123.5q0 77 -31 120.5t-88 43.5q-61 0 -92 -43t-31 -121zM205 848v174h174
v-174h-174zM2032 621q-39 8 -68 8q-61 0 -61 -70v-31h116v-106h-116v-422h-152v422h-74v106h74v50q0 172 172 172q57 0 109 -17v-112zM860 0v84q-20 -42 -64 -69t-100 -27q-105 0 -168 76t-63 200q0 123 63 200t168 77q54 0 97 -27t65 -68v297h154v-743h-152zM1626 166
q-24 -85 -89.5 -131.5t-166.5 -46.5q-123 0 -200.5 74t-77.5 200q0 125 80 201t198 76q127 0 195.5 -77.5t68.5 -189.5v-47h-395q15 -129 131 -129q85 0 109 70h147zM1370 432q-52 0 -84 -30t-43 -85h242q-2 48 -31 81.5t-84 33.5zM862 254v18q0 74 -32.5 116t-90.5 42
t-90.5 -45t-32.5 -121q0 -77 32.5 -122.5t90.5 -45.5t90.5 42.5t32.5 115.5z" />
    <glyph glyph-name=".null" horiz-adv-x="0" 
 />
    <glyph glyph-name="nonmarkingreturn" horiz-adv-x="682" 
 />
    <glyph glyph-name="space" unicode=" " horiz-adv-x="430" 
 />
    <glyph glyph-name="exclam" unicode="!" horiz-adv-x="669" 
d="M184 1462h303l-45 -983h-213zM182 0v297h305v-297h-305z" />
    <glyph glyph-name="quotedbl" unicode="&#x22;" horiz-adv-x="952" 
d="M592 907l-41 600h256l-41 -600h-174zM188 907l-43 600h258l-41 -600h-174z" />
    <glyph glyph-name="numbersign" unicode="#" horiz-adv-x="1511" 
d="M733 82l92 364h-288l-93 -364h-188l92 364h-235l37 166h239l66 262h-248l37 168h254l92 367h188l-92 -367h289l92 367h188l-92 -367h236l-35 -168h-244l-65 -262h250l-37 -166h-254l-92 -364h-189zM578 612h288l66 262h-289z" />
    <glyph glyph-name="dollar" unicode="$" horiz-adv-x="1372" 
d="M1276 418q0 -185 -142 -303.5t-366 -132.5v-205h-150v207q-230 21 -375.5 137.5t-162.5 318.5h250q10 -114 88.5 -178t199.5 -80v453l-106 18q-67 12 -122.5 31.5t-105.5 51.5t-84.5 74.5t-54.5 103t-20 135.5q0 183 137.5 302.5t355.5 131.5v194h150v-196
q214 -22 337.5 -129t143.5 -289h-245q-20 177 -236 213v-436l131 -25q377 -72 377 -397zM600 872l18 -4v412q-117 -10 -182 -68t-65 -147q0 -87 51.5 -128t177.5 -65zM793 602l-25 4v-428q124 12 193 69.5t69 151.5q0 83 -53 131t-184 72z" />
    <glyph glyph-name="percent" unicode="%" horiz-adv-x="1740" 
d="M123 1147q0 141 100 240.5t240 99.5t239 -99.5t99 -240.5q0 -139 -99.5 -238.5t-238.5 -99.5q-140 0 -240 99.5t-100 238.5zM1266 1462h182l-969 -1460h-182zM283 1147q0 -77 53 -130.5t127 -53.5t127 53.5t53 130.5q0 78 -53 132t-127 54t-127 -54t-53 -132zM942 313
q0 140 99.5 240t238.5 100t238.5 -100t99.5 -240q0 -141 -99 -240.5t-239 -99.5t-239 99.5t-99 240.5zM1100 313q0 -78 53 -132t127 -54q75 0 127.5 54t52.5 132t-52.5 132.5t-127.5 54.5q-74 0 -127 -54.5t-53 -132.5z" />
    <glyph glyph-name="ampersand" unicode="&#x26;" horiz-adv-x="1552" 
d="M1202 0l-129 127q-205 -152 -463 -152q-223 0 -367.5 111t-144.5 295q0 133 76.5 228.5t228.5 176.5q-77 80 -118 155.5t-41 166.5q0 164 122 271.5t314 107.5q189 0 302.5 -98t113.5 -248q0 -126 -78.5 -213t-253.5 -174l326 -320q91 145 112 330h232
q-28 -264 -197 -477l291 -287h-326zM489 1120q0 -59 34 -109.5t104 -119.5q136 62 185.5 111.5t49.5 132.5q0 69 -50 120.5t-132 51.5q-81 0 -136 -52t-55 -135zM354 406q0 -101 78.5 -166.5t194.5 -65.5q167 0 303 92l-389 383q-94 -48 -140.5 -103.5t-46.5 -139.5z" />
    <glyph glyph-name="quotesingle" unicode="'" horiz-adv-x="552" 
d="M188 907l-43 600h263l-41 -600h-179z" />
    <glyph glyph-name="parenleft" unicode="(" horiz-adv-x="870" 
d="M440 643q0 -224 87 -444.5t243 -419.5h-250q-340 405 -340 864t340 864h250q-330 -449 -330 -864z" />
    <glyph glyph-name="parenright" unicode=")" horiz-adv-x="870" 
d="M100 -221q156 199 243 419.5t87 444.5q0 415 -330 864h250q340 -405 340 -864t-340 -864h-250z" />
    <glyph glyph-name="asterisk" unicode="*" horiz-adv-x="872" 
d="M358 1487h156v-258l242 80l49 -148l-244 -82l150 -205l-125 -94l-150 209l-147 -209l-127 92l149 207l-243 80l47 150l243 -82v260z" />
    <glyph glyph-name="plus" unicode="+" 
d="M1217 584h-445v-445h-192v445h-447v194h447v445h192v-445h445v-194z" />
    <glyph glyph-name="comma" unicode="," horiz-adv-x="669" 
d="M182 8v297h305v-325q0 -153 -93 -237.5t-257 -84.5v141q90 0 137.5 40.5t47.5 140.5v28h-140z" />
    <glyph glyph-name="hyphen" unicode="-" horiz-adv-x="929" 
d="M178 473v219h574v-219h-574z" />
    <glyph glyph-name="period" unicode="." horiz-adv-x="669" 
d="M182 0v305h305v-305h-305z" />
    <glyph glyph-name="slash" unicode="/" horiz-adv-x="1093" 
d="M90 -221l668 1728h246l-668 -1728h-246z" />
    <glyph glyph-name="zero" unicode="0" horiz-adv-x="1431" 
d="M94 731q0 218 75.5 389.5t218 269t329.5 97.5q140 0 257 -56.5t196.5 -157t123 -240t43.5 -302.5t-43.5 -302.5t-123 -240t-196.5 -157t-257 -56.5q-187 0 -329.5 97.5t-218 269t-75.5 389.5zM369 731q0 -255 88.5 -399t259.5 -144q170 0 258 144t88 399t-88 399
t-258 144q-171 0 -259.5 -144t-88.5 -399z" />
    <glyph glyph-name="one" unicode="1" horiz-adv-x="829" 
d="M59 1067v180q184 0 270 51t113 168h187v-1466h-271v1067h-299z" />
    <glyph glyph-name="two" unicode="2" horiz-adv-x="1220" 
d="M1133 1044q0 -56 -13 -106.5t-32.5 -90t-55 -79.5t-67.5 -68.5t-85 -63.5t-91 -58t-101 -58q-154 -90 -234 -161.5t-83 -143.5h770v-215h-1067v104q0 82 29 159t71.5 134.5t110 116t124.5 97.5t134 85q61 37 96.5 59.5t79.5 53.5t68 55.5t47.5 54.5t33 61.5t9.5 66.5
q0 100 -61.5 164.5t-184.5 64.5q-121 0 -195 -80.5t-82 -200.5h-260q7 102 46 191t105.5 156.5t166.5 106t221 38.5q229 0 364.5 -126.5t135.5 -316.5z" />
    <glyph glyph-name="three" unicode="3" horiz-adv-x="1267" 
d="M1178 397q0 -86 -36.5 -162t-103.5 -134t-171 -92t-230 -34q-247 0 -399.5 125.5t-171.5 335.5h260q9 -116 93 -185t218 -69t211.5 63t77.5 171q0 107 -75 163t-204 56h-151v201h147q111 0 179.5 53t68.5 164q0 99 -65.5 163t-182.5 64q-125 0 -200 -74t-83 -188h-249
q6 96 44 180.5t103.5 149t165 102t221.5 37.5q120 0 216.5 -34.5t157.5 -94t93.5 -135.5t32.5 -162q0 -126 -74.5 -213.5t-187.5 -108.5q133 -22 214 -115t81 -227z" />
    <glyph glyph-name="four" unicode="4" horiz-adv-x="1398" 
d="M1049 1462v-889h290v-206h-290v-367h-261v367h-725v208l691 887h295zM788 1208l-485 -635h485v635z" />
    <glyph glyph-name="five" unicode="5" horiz-adv-x="1275" 
d="M645 780q-91 0 -157 -38t-103 -97h-244l84 817h877v-215h-682l-39 -381q45 50 127.5 84.5t179.5 34.5q224 0 361 -142.5t137 -361.5q0 -218 -147 -362t-394 -144q-245 0 -395.5 127.5t-167.5 341.5h270q9 -118 87.5 -191t205.5 -73q135 0 208 85.5t73 213.5
q0 129 -72.5 215t-208.5 86z" />
    <glyph glyph-name="six" unicode="6" horiz-adv-x="1310" 
d="M696 1278q-111 0 -192 -71t-121.5 -191.5t-40.5 -274.5q46 103 143 169.5t234 66.5q218 0 359 -141t141 -353q0 -222 -148.5 -365t-388.5 -143q-262 0 -425 198.5t-163 533.5q0 231 78 409t216.5 274.5t316.5 96.5q205 0 338.5 -113t160.5 -301h-248q-49 205 -260 205z
M680 176q131 0 210 84.5t79 218.5q0 132 -79.5 216.5t-209.5 84.5q-131 0 -213 -85t-82 -216q0 -133 82 -218t213 -85z" />
    <glyph glyph-name="seven" unicode="7" horiz-adv-x="1198" 
d="M848 1247h-793v215h1069v-207q-247 -302 -348 -594t-106 -661h-279q8 666 457 1247z" />
    <glyph glyph-name="eight" unicode="8" horiz-adv-x="1335" 
d="M668 1487q224 0 368 -111t144 -303q0 -114 -62.5 -200.5t-165.5 -131.5q115 -23 204 -119.5t89 -220.5q0 -193 -158 -309.5t-419 -116.5t-419.5 116.5t-158.5 309.5q0 124 89 220.5t204 119.5q-103 45 -165 131.5t-62 200.5q0 192 144 303t368 111zM668 842
q120 0 196 58.5t76 166.5q0 109 -76 167t-196 58q-121 0 -197 -57.5t-76 -167.5q0 -108 76 -166.5t197 -58.5zM668 174q150 0 233.5 64.5t83.5 173.5t-83.5 173t-233.5 64t-234 -64t-84 -173t84 -173.5t234 -64.5z" />
    <glyph glyph-name="nine" unicode="9" horiz-adv-x="1310" 
d="M614 184q111 0 192.5 71t122 191.5t40.5 274.5q-46 -103 -143 -169.5t-234 -66.5q-218 0 -359 141t-141 353q0 222 148.5 365t388.5 143q173 0 305.5 -88t207.5 -254.5t75 -388.5q0 -231 -78 -409.5t-216.5 -275t-316.5 -96.5q-205 0 -339 113t-161 301h248
q49 -205 260 -205zM631 1286q-131 0 -210 -84.5t-79 -218.5q0 -132 79.5 -216.5t209.5 -84.5q131 0 213 85t82 216q0 133 -82 218t-213 85z" />
    <glyph glyph-name="colon" unicode=":" horiz-adv-x="669" 
d="M182 666v305h305v-305h-305zM182 0v305h305v-305h-305z" />
    <glyph glyph-name="semicolon" unicode=";" horiz-adv-x="669" 
d="M182 666v305h305v-305h-305zM182 8v297h305v-325q0 -153 -93 -237.5t-257 -84.5v141q90 0 137.5 40.5t47.5 140.5v28h-140z" />
    <glyph glyph-name="less" unicode="&#x3c;" 
d="M190 551v250l945 411v-221l-738 -315l738 -314v-223z" />
    <glyph glyph-name="equal" unicode="=" 
d="M143 780v183h1063v-183h-1063zM143 371v182h1063v-182h-1063z" />
    <glyph glyph-name="greater" unicode="&#x3e;" 
d="M1159 551l-944 -412v223l737 314l-737 315v221l944 -411v-250z" />
    <glyph glyph-name="question" unicode="?" horiz-adv-x="1204" 
d="M1122 1051q0 -72 -21 -134.5t-62.5 -114.5t-88.5 -92.5t-112 -84.5q-64 -45 -96.5 -84.5t-36.5 -102.5h-259q3 94 59.5 175t170.5 163q44 32 72.5 57t58 59.5t44.5 73.5t15 83q0 98 -61.5 163.5t-181.5 65.5q-126 0 -199.5 -81t-79.5 -200h-262q7 102 46.5 190.5
t106.5 155.5t167 105.5t221 38.5q229 0 364 -123t135 -313zM422 0v285h307v-285h-307z" />
    <glyph glyph-name="at" unicode="@" horiz-adv-x="1878" 
d="M1382 920l-104 -592q-20 -119 84 -119q120 0 196 116t76 322q0 255 -175.5 406t-459.5 151q-215 0 -385 -96.5t-264 -267.5t-94 -387q0 -145 43.5 -261.5t115.5 -191.5t170 -125.5t201.5 -72t214.5 -21.5q249 0 461 90l54 -121q-97 -48 -232 -79t-283 -31
q-141 0 -270.5 29.5t-246 93.5t-202.5 157.5t-136 230t-50 302.5q0 184 66.5 348.5t183.5 285t287 191t366 70.5q230 0 410.5 -92t278.5 -251.5t98 -357.5q0 -140 -39 -252.5t-105.5 -182t-149.5 -106t-175 -36.5q-84 0 -147.5 35.5t-92.5 99.5q-37 -58 -106 -93.5
t-144 -35.5q-149 0 -232 100t-83 256q0 132 52.5 247t153 187t228.5 72q72 0 130 -35.5t81 -85.5l21 103h204zM1096 453l10 75q20 105 -21 167.5t-118 62.5q-70 0 -124 -42.5t-82.5 -108t-31.5 -140.5q-6 -98 36.5 -155.5t121.5 -57.5q68 0 129 51.5t80 147.5z" />
    <glyph glyph-name="A" unicode="A" horiz-adv-x="1527" 
d="M1225 0l-138 358h-659l-139 -358h-266l587 1462h305l588 -1462h-278zM758 1200l-246 -631h494l-242 631h-6z" />
    <glyph glyph-name="B" unicode="B" horiz-adv-x="1425" 
d="M807 0h-641v1462h588q257 0 392.5 -101.5t135.5 -297.5q0 -97 -66 -188t-155 -117q123 -33 201.5 -125.5t78.5 -216.5q0 -204 -139 -310t-395 -106zM432 844h320q133 0 200.5 55.5t67.5 153.5q0 101 -67 155t-199 54h-322v-418zM432 649v-448h354q140 0 213.5 59
t73.5 166q0 104 -75 163.5t-214 59.5h-352z" />
    <glyph glyph-name="C" unicode="C" horiz-adv-x="1445" 
d="M362 733q0 -253 108 -398t304 -145q148 0 229 73.5t105 195.5h264q-40 -223 -192 -353.5t-406 -130.5q-203 0 -359.5 94t-242.5 266.5t-86 397.5q0 223 86 394.5t242.5 265.5t359.5 94q254 0 406 -130t192 -353h-264q-24 122 -105 195t-229 73q-196 0 -304 -144
t-108 -395z" />
    <glyph glyph-name="D" unicode="D" horiz-adv-x="1544" 
d="M729 1462q218 0 384 -91t256.5 -257t90.5 -383q0 -330 -200.5 -530.5t-530.5 -200.5h-563v1462h563zM729 1247h-297v-1032h297q217 0 335 135t118 381t-118 381t-335 135z" />
    <glyph glyph-name="E" unicode="E" horiz-adv-x="1345" 
d="M1225 0h-1059v1462h1051v-215h-785v-407h694v-215h-694v-410h793v-215z" />
    <glyph glyph-name="F" unicode="F" horiz-adv-x="1290" 
d="M166 0v1462h1010v-215h-738v-446h662v-215h-662v-586h-272z" />
    <glyph glyph-name="G" unicode="G" horiz-adv-x="1562" 
d="M86 733q0 337 196.5 545.5t510.5 208.5q256 0 411 -128.5t199 -352.5h-268q-27 127 -112.5 196.5t-229.5 69.5q-203 0 -317 -144.5t-114 -394.5q0 -253 112 -398t314 -145q161 0 262 86.5t101 221.5v51h-283v196h553v-745h-211l-18 209q-39 -102 -160.5 -168t-259.5 -66
q-307 0 -496.5 209t-189.5 549z" />
    <glyph glyph-name="H" unicode="H" horiz-adv-x="1624" 
d="M166 0v1462h272v-614h750v614h270v-1462h-270v635h-750v-635h-272z" />
    <glyph glyph-name="I" unicode="I" horiz-adv-x="604" 
d="M166 0v1462h272v-1462h-272z" />
    <glyph glyph-name="J" unicode="J" horiz-adv-x="1239" 
d="M821 518v944h271v-936q0 -254 -145 -402.5t-398 -148.5q-152 0 -268.5 55.5t-183.5 164.5t-70 258h258q4 -135 75.5 -206t188.5 -71q137 0 204.5 88.5t67.5 253.5z" />
    <glyph glyph-name="K" unicode="K" horiz-adv-x="1511" 
d="M1155 0l-514 637l-203 -213v-424h-272v1462h272v-735l676 735h311l-604 -635l662 -827h-328z" />
    <glyph glyph-name="L" unicode="L" horiz-adv-x="1296" 
d="M166 0v1462h272v-1247h754v-215h-1026z" />
    <glyph glyph-name="M" unicode="M" horiz-adv-x="1882" 
d="M1034 0h-196l-418 1149h-4v-1149h-250v1462h385l393 -1100h4l393 1100h373v-1462h-260v1149h-4z" />
    <glyph glyph-name="N" unicode="N" horiz-adv-x="1599" 
d="M483 1462l688 -1036h5v1036h258v-1462h-252l-752 1133h-4v-1133h-260v1462h317z" />
    <glyph glyph-name="O" unicode="O" horiz-adv-x="1566" 
d="M1483 731q0 -164 -49 -303.5t-138.5 -239.5t-221 -156.5t-290.5 -56.5q-211 0 -370.5 97t-243.5 268t-84 391q0 219 84 390t243.5 268.5t370.5 97.5q158 0 290 -56.5t221.5 -157t138.5 -240t49 -302.5zM1206 731q0 249 -108.5 395t-313.5 146q-206 0 -314 -145.5
t-108 -395.5q0 -251 108 -396t314 -145q205 0 313.5 145.5t108.5 395.5z" />
    <glyph glyph-name="P" unicode="P" horiz-adv-x="1382" 
d="M772 539h-340v-539h-266v1462h604q262 0 404.5 -118t142.5 -345q0 -226 -142 -343t-403 -117zM432 752h316q301 0 301 247q0 248 -301 248h-316v-495z" />
    <glyph glyph-name="Q" unicode="Q" horiz-adv-x="1566" 
d="M1391 8l-140 -123l-147 160q-143 -70 -320 -70q-211 0 -370.5 97t-243.5 268t-84 391q0 219 84 390t243.5 268.5t370.5 97.5q158 0 290 -56.5t221.5 -157t138.5 -240t49 -302.5q0 -180 -57.5 -328.5t-165.5 -250.5zM362 731q0 -251 108 -396t314 -145q84 0 160 29
l-149 164l141 125l160 -174q110 140 110 397q0 249 -108.5 395t-313.5 146q-206 0 -314 -145.5t-108 -395.5z" />
    <glyph glyph-name="R" unicode="R" horiz-adv-x="1452" 
d="M432 0h-266v1462h627q259 0 400.5 -118t141.5 -340q0 -160 -87.5 -266.5t-223.5 -149.5l367 -588h-297l-334 547h-328v-547zM432 760h330q305 0 305 244q0 243 -305 243h-330v-487z" />
    <glyph glyph-name="S" unicode="S" horiz-adv-x="1366" 
d="M70 442h262q7 -72 40 -125t85.5 -83t114 -44t133.5 -14q136 0 222.5 59t86.5 166q0 81 -55 128t-185 71l-268 49q-86 16 -152.5 43.5t-122 73.5t-85 117t-29.5 164q0 194 154.5 317t394.5 123q261 0 412 -110t173 -316h-256q-13 106 -101 164.5t-226 58.5
q-131 0 -209 -61.5t-78 -159.5q0 -86 53.5 -126t179.5 -65l283 -55q187 -35 285 -131.5t98 -267.5q0 -197 -160.5 -320t-406.5 -123q-179 0 -316 48.5t-225.5 155.5t-101.5 263z" />
    <glyph glyph-name="T" unicode="T" horiz-adv-x="1476" 
d="M602 0v1247h-524v215h1321v-215h-527v-1247h-270z" />
    <glyph glyph-name="U" unicode="U" horiz-adv-x="1544" 
d="M1397 590q0 -297 -163.5 -456t-461.5 -159q-297 0 -461 159.5t-164 459.5v868h273v-870q0 -194 88.5 -296.5t263.5 -102.5t264.5 102.5t89.5 296.5v870h271v-872z" />
    <glyph glyph-name="V" unicode="V" horiz-adv-x="1507" 
d="M600 0l-577 1462h288l445 -1171h4l446 1171h277l-580 -1462h-303z" />
    <glyph glyph-name="W" unicode="W" horiz-adv-x="2050" 
d="M1313 0l-287 1128h-4l-287 -1128h-297l-403 1462h278l293 -1134h4l285 1134h274l285 -1134h4l291 1134h266l-403 -1462h-299z" />
    <glyph glyph-name="X" unicode="X" horiz-adv-x="1497" 
d="M1165 0l-428 573l-428 -573h-286l573 760l-522 702h309l369 -499l370 499h287l-516 -684l582 -778h-310z" />
    <glyph glyph-name="Y" unicode="Y" horiz-adv-x="1445" 
d="M858 0h-272v600l-566 862h304l405 -624h4l395 624h297l-567 -862v-600z" />
    <glyph glyph-name="Z" unicode="Z" horiz-adv-x="1388" 
d="M1278 1257l-846 -1042h858v-215h-1194v190l850 1057h-823v215h1155v-205z" />
    <glyph glyph-name="bracketleft" unicode="[" horiz-adv-x="843" 
d="M453 1321v-1356h268v-186h-520v1728h520v-186h-268z" />
    <glyph glyph-name="backslash" unicode="\" horiz-adv-x="1093" 
d="M90 1507h246l668 -1728h-246z" />
    <glyph glyph-name="bracketright" unicode="]" horiz-adv-x="843" 
d="M391 -35v1356h-268v186h520v-1728h-520v186h268z" />
    <glyph glyph-name="asciicircum" unicode="^" horiz-adv-x="970" 
d="M371 1487h229l307 -543h-227l-195 344l-194 -344h-230z" />
    <glyph glyph-name="underscore" unicode="_" horiz-adv-x="890" 
d="M68 -266v188h757v-188h-757z" />
    <glyph glyph-name="grave" unicode="`" horiz-adv-x="1155" 
d="M782 1182h-172l-237 325h301z" />
    <glyph glyph-name="a" unicode="a" horiz-adv-x="1175" 
d="M795 0q-15 86 -15 164q-36 -89 -128.5 -138t-217.5 -49q-155 0 -252.5 81.5t-97.5 220.5q0 275 375 319l311 35v49q0 93 -52.5 140.5t-144.5 47.5q-85 0 -135.5 -43t-56.5 -116h-252q17 166 138.5 260t314.5 94q215 0 329.5 -101.5t114.5 -301.5v-402q0 -150 21 -260
h-252zM506 160q109 0 186.5 63.5t77.5 179.5v64l-231 -27q-47 -6 -78 -14t-60 -23.5t-43 -43t-14 -66.5q0 -62 42.5 -97.5t119.5 -35.5z" />
    <glyph glyph-name="b" unicode="b" horiz-adv-x="1298" 
d="M418 166v-166h-258v1507h262v-637q39 83 126.5 139t203.5 56q204 0 331 -151.5t127 -393.5q0 -243 -127 -394t-331 -151q-114 0 -204 54.5t-130 136.5zM416 539v-37q0 -154 69.5 -244t192.5 -90q126 0 197 94.5t71 257.5q0 162 -71 257t-197 95q-123 0 -192.5 -89.5
t-69.5 -243.5z" />
    <glyph glyph-name="c" unicode="c" horiz-adv-x="1140" 
d="M88 520q0 249 145 397t377 148q191 0 311 -103t142 -278h-248q-15 87 -67.5 135.5t-139.5 48.5q-123 0 -190.5 -93.5t-67.5 -254.5q0 -162 67.5 -255t190.5 -93q87 0 139 49t68 135h248q-22 -176 -141.5 -278.5t-311.5 -102.5q-232 0 -377 147.5t-145 397.5z" />
    <glyph glyph-name="d" unicode="d" horiz-adv-x="1298" 
d="M881 0v166q-40 -82 -130 -136.5t-204 -54.5q-204 0 -331.5 151t-127.5 394q0 242 127.5 393.5t331.5 151.5q116 0 203.5 -56t126.5 -139v637h262v-1507h-258zM883 502v37q0 154 -69.5 243.5t-192.5 89.5q-126 0 -197.5 -95.5t-71.5 -256.5q0 -163 71.5 -257.5
t197.5 -94.5q123 0 192.5 90t69.5 244z" />
    <glyph glyph-name="e" unicode="e" horiz-adv-x="1177" 
d="M1083 324q-33 -165 -160 -257t-309 -92q-232 0 -379 146.5t-147 396.5q0 249 147.5 398t372.5 149q95 0 175 -28t136 -77t95 -115.5t57.5 -143t18.5 -160.5v-84h-748q12 -139 81.5 -214t190.5 -75q173 0 228 156h241zM608 870q-103 0 -169.5 -62t-88.5 -181h490
q0 104 -59.5 173.5t-172.5 69.5z" />
    <glyph glyph-name="f" unicode="f" horiz-adv-x="694" 
d="M188 852h-143v188h143v148q0 159 89.5 242t250.5 83q98 0 152 -10v-198q-46 6 -100 6q-129 0 -129 -135v-136h211v-188h-211v-852h-263v852z" />
    <glyph glyph-name="g" unicode="g" horiz-adv-x="1300" 
d="M877 70v147q-40 -81 -126.5 -135.5t-203.5 -54.5q-206 0 -332.5 143.5t-126.5 376.5q0 230 127 374t332 144q117 0 205.5 -56.5t128.5 -138.5v170h258v-938q0 -125 -39 -220t-110 -153.5t-166.5 -88t-213.5 -29.5q-211 0 -340.5 84t-158.5 239h260q40 -139 239 -139
q128 0 197.5 68.5t69.5 206.5zM887 526v43q0 137 -75 221t-196 84q-125 0 -195.5 -88t-70.5 -239q0 -150 70.5 -239t195.5 -89q121 0 196 84t75 223z" />
    <glyph glyph-name="h" unicode="h" horiz-adv-x="1273" 
d="M422 864q39 93 123 147t200 54q179 0 280 -105t101 -292v-668h-262v606q0 124 -53 188t-156 64q-105 0 -169 -72t-64 -221v-565h-262v1507h262v-643z" />
    <glyph glyph-name="i" unicode="i" horiz-adv-x="581" 
d="M152 1217v256h278v-256h-278zM160 0v1040h262v-1040h-262z" />
    <glyph glyph-name="j" unicode="j" horiz-adv-x="581" 
d="M152 1217v256h278v-256h-278zM92 -377q-70 0 -121 10v195q30 -6 64 -6q67 0 96 28t29 97v1093h262v-1097q0 -320 -330 -320z" />
    <glyph glyph-name="k" unicode="k" horiz-adv-x="1224" 
d="M885 0l-342 440l-121 -116v-324h-262v1507h262v-913l442 446h301l-440 -434l461 -606h-301z" />
    <glyph glyph-name="l" unicode="l" horiz-adv-x="581" 
d="M422 0h-262v1507h262v-1507z" />
    <glyph glyph-name="m" unicode="m" horiz-adv-x="1923" 
d="M1059 862q50 94 142.5 148.5t207.5 54.5q178 0 272.5 -104.5t94.5 -292.5v-668h-265v610q0 248 -190 248q-100 0 -161.5 -73t-61.5 -218v-567h-262v610q0 248 -191 248q-101 0 -162 -72.5t-61 -218.5v-567h-262v1040h258v-176q37 92 122.5 146.5t196.5 54.5
q238 0 322 -203z" />
    <glyph glyph-name="n" unicode="n" horiz-adv-x="1273" 
d="M418 1040v-176q38 91 124.5 146t202.5 55q179 0 280 -105t101 -292v-668h-262v606q0 124 -53 188t-156 64q-105 0 -169 -72t-64 -221v-565h-262v1040h258z" />
    <glyph glyph-name="o" unicode="o" horiz-adv-x="1228" 
d="M1141 520q0 -250 -146.5 -397.5t-380.5 -147.5t-380 147.5t-146 397.5q0 249 146.5 397t379.5 148t380 -148t147 -397zM350 520q0 -165 68.5 -257.5t195.5 -92.5q126 0 195.5 92.5t69.5 257.5q0 164 -70 257t-195 93q-126 0 -195 -93t-69 -257z" />
    <glyph glyph-name="p" unicode="p" horiz-adv-x="1298" 
d="M422 166v-531h-262v1405h258v-172q39 83 128.5 140t205.5 57q204 0 331 -151.5t127 -393.5q0 -243 -127 -394t-331 -151q-113 0 -200.5 54t-129.5 137zM416 539v-37q0 -154 69.5 -244t192.5 -90q126 0 197 94.5t71 257.5q0 162 -71 257t-197 95q-123 0 -192.5 -89.5
t-69.5 -243.5z" />
    <glyph glyph-name="q" unicode="q" horiz-adv-x="1298" 
d="M877 -365v531q-42 -83 -129.5 -137t-200.5 -54q-204 0 -331.5 151t-127.5 394q0 242 127.5 393.5t331.5 151.5q116 0 205.5 -57t128.5 -140v172h258v-1405h-262zM883 502v37q0 154 -69.5 243.5t-192.5 89.5q-126 0 -197.5 -95.5t-71.5 -256.5q0 -163 71.5 -257.5
t197.5 -94.5q123 0 192.5 90t69.5 244z" />
    <glyph glyph-name="r" unicode="r" horiz-adv-x="856" 
d="M815 1051v-242q-41 8 -100 8q-127 0 -210 -87t-83 -249v-481h-262v1040h258v-233q36 120 120.5 186t198.5 66q47 0 78 -8z" />
    <glyph glyph-name="s" unicode="s" horiz-adv-x="1095" 
d="M76 315h250q9 -77 75 -117t158 -40q86 0 141.5 34t55.5 95q0 49 -36.5 75t-123.5 41l-184 33q-299 54 -299 297q0 147 119.5 239.5t302.5 92.5q200 0 314.5 -83.5t131.5 -236.5h-240q-8 62 -63 99t-141 37q-83 0 -133 -33.5t-50 -87.5q0 -52 38 -77.5t122 -39.5l203 -35
q138 -24 211 -100t73 -203q0 -147 -124.5 -238.5t-313.5 -91.5q-209 0 -339.5 87t-147.5 253z" />
    <glyph glyph-name="t" unicode="t" horiz-adv-x="796" 
d="M711 215v-201q-98 -30 -207 -30q-164 0 -244 73t-80 228v567h-143v188h143v260h260v-260h248v-188h-250v-526q0 -71 33 -101t102 -30q67 0 138 20z" />
    <glyph glyph-name="u" unicode="u" horiz-adv-x="1261" 
d="M1102 0h-258v174q-37 -91 -123 -145t-201 -54q-175 0 -272.5 103.5t-97.5 292.5v669h264v-612q0 -250 200 -250q101 0 162.5 73.5t61.5 223.5v565h264v-1040z" />
    <glyph glyph-name="v" unicode="v" horiz-adv-x="1177" 
d="M451 0l-410 1040h264l289 -784h4l283 784h256l-400 -1040h-286z" />
    <glyph glyph-name="w" unicode="w" horiz-adv-x="1665" 
d="M958 1040l199 -772h4l211 772h252l-317 -1040h-267l-204 752h-7l-202 -752h-269l-317 1040h260l211 -772h4l199 772h243z" />
    <glyph glyph-name="x" unicode="x" horiz-adv-x="1198" 
d="M330 0h-281l400 532l-375 508h301l229 -321l232 321h280l-371 -495l404 -545h-301l-258 356z" />
    <glyph glyph-name="y" unicode="y" horiz-adv-x="1175" 
d="M446 2l-405 1038h266l289 -784h4l274 784h261l-406 -1058q-74 -195 -174 -278.5t-264 -84.5q-59 0 -121 10v199q31 -6 70 -6q80 0 122.5 36.5t83.5 143.5z" />
    <glyph glyph-name="z" unicode="z" horiz-adv-x="1093" 
d="M977 858l-561 -665h581v-193h-901v170l561 678h-542v192h862v-182z" />
    <glyph glyph-name="braceleft" unicode="{" horiz-adv-x="880" 
d="M68 549v188h92q52 0 81 30.5t29 84.5v420q0 235 271 235h215v-184h-148q-53 0 -77.5 -18.5t-24.5 -69.5v-410q0 -80 -47 -125.5t-127 -56.5q80 -11 127 -56.5t47 -125.5v-410q0 -51 24.5 -69.5t77.5 -18.5h148v-184h-215q-271 0 -271 235v420q0 54 -29 84.5t-81 30.5h-92
z" />
    <glyph glyph-name="bar" unicode="|" horiz-adv-x="675" 
d="M223 1507h230v-1728h-230v1728z" />
    <glyph glyph-name="braceright" unicode="}" horiz-adv-x="880" 
d="M813 737v-188h-92q-52 0 -81.5 -30.5t-29.5 -84.5v-420q0 -235 -270 -235h-215v184h147q53 0 78 18.5t25 69.5v410q0 80 47 125.5t127 56.5q-80 11 -127 56.5t-47 125.5v410q0 51 -25 69.5t-78 18.5h-147v184h215q270 0 270 -235v-420q0 -54 29.5 -84.5t81.5 -30.5h92z
" />
    <glyph glyph-name="asciitilde" unicode="~" horiz-adv-x="1128" 
d="M424 604q-39 0 -61 -37.5t-25 -99.5h-160q0 154 57 247t156 93q45 0 93 -21.5t81.5 -48t71.5 -48t65 -21.5q79 0 89 135h159q0 -154 -58 -247t-157 -93q-45 0 -93 22t-81 48.5t-71.5 48.5t-65.5 22z" />
    <glyph glyph-name="uni00A0" unicode="&#xa0;" horiz-adv-x="430" 
 />
    <glyph glyph-name="exclamdown" unicode="&#xa1;" horiz-adv-x="669" 
d="M182 1165v297h305v-297h-305zM487 0h-303l45 983h213z" />
    <glyph glyph-name="cent" unicode="&#xa2;" horiz-adv-x="1173" 
d="M1090 367q-22 -159 -129 -260.5t-269 -120.5v-203h-147v205q-201 25 -327 172t-126 375q0 226 126 372.5t327 171.5v238h147v-236q162 -19 269 -120.5t129 -260.5h-211q-12 77 -61 128.5t-126 64.5v-719q78 15 126.5 65.5t60.5 127.5h211zM324 535q0 -142 58 -235.5
t163 -121.5v711q-105 -28 -163 -120.5t-58 -233.5z" />
    <glyph glyph-name="sterling" unicode="&#xa3;" horiz-adv-x="1318" 
d="M1231 215v-215h-1125v215h27q87 0 140 80.5t53 230.5q0 20 -4 52h-193v188h131q-23 53 -35 86t-23.5 86.5t-11.5 105.5q0 85 36 165t100 141.5t160.5 99t209.5 37.5q124 0 221.5 -38t159 -106t96 -155t41.5 -191h-251q-8 124 -73 202.5t-194 78.5q-114 0 -179.5 -70
t-65.5 -168q0 -35 9 -74.5t16.5 -61.5t28.5 -72.5t27 -65.5h363v-188h-320q3 -18 3 -37q0 -96 -33.5 -181t-98.5 -145h785z" />
    <glyph glyph-name="yen" unicode="&#xa5;" horiz-adv-x="1454" 
d="M1280 344h-416v-344h-272v344h-418v158h418v151h-418v160h320l-447 649h297l387 -585h4l381 585h291l-446 -649h319v-160h-416v-151h416v-158z" />
    <glyph glyph-name="section" unicode="&#xa7;" horiz-adv-x="1251" 
d="M1026 49q0 -148 -118.5 -241t-303.5 -93q-197 0 -313.5 89t-134.5 241h233q9 -67 68 -110.5t145 -43.5q84 0 133 40.5t49 105.5q0 51 -30.5 85.5t-102.5 72.5l-260 137q-150 79 -214 161t-64 201q0 168 166 269q-62 78 -62 192q0 148 117 240t303 92q196 0 311.5 -84.5
t132.5 -235.5h-233q-9 67 -66.5 105.5t-144.5 38.5q-83 0 -130.5 -40.5t-47.5 -103.5q0 -52 29.5 -86.5t101.5 -72.5l260 -138q150 -79 214 -161t64 -201q0 -168 -165 -268q63 -79 63 -191zM756 389q9 -5 27.5 -15.5t27.5 -15.5q36 22 60 58.5t24 81.5q0 54 -32.5 91.5
t-123.5 90.5l-252 133q-9 5 -27.5 15.5t-27.5 15.5q-37 -22 -61.5 -58.5t-24.5 -80.5q0 -54 33 -92t125 -89z" />
    <glyph glyph-name="dieresis" unicode="&#xa8;" horiz-adv-x="1155" 
d="M662 1217v256h241v-256h-241zM252 1217v256h242v-256h-242z" />
    <glyph glyph-name="copyright" unicode="&#xa9;" horiz-adv-x="1781" 
d="M1647 729q0 -153 -60 -292.5t-161 -240.5t-241 -161t-294 -60q-153 0 -293.5 60t-242 160.5t-162 240.5t-60.5 293q0 155 60.5 295.5t162 242.5t242 162t293.5 60q154 0 294 -60t241 -162t161 -242.5t60 -295.5zM223 729q0 -181 89.5 -334t243.5 -242.5t335 -89.5
t335 89.5t243.5 242.5t89.5 334q0 182 -89.5 337t-243.5 245t-335 90t-335 -90t-243.5 -245t-89.5 -337zM674 733q0 -135 58.5 -214.5t168.5 -80.5q83 1 127.5 42.5t56.5 105.5h195q-26 -140 -120.5 -221.5t-256.5 -81.5q-190 0 -307 125t-117 325t117 325.5t307 125.5
q163 0 257 -81t120 -222h-195q-12 65 -56.5 106t-127.5 41q-110 0 -168.5 -79.5t-58.5 -215.5z" />
    <glyph glyph-name="ordfeminine" unicode="&#xaa;" horiz-adv-x="835" 
d="M537 885q-28 -59 -86 -90t-140 -31q-106 0 -170.5 54t-64.5 147q0 51 19 89t54.5 61t79 36.5t99.5 19.5l198 21v37q0 110 -116 110q-50 0 -81 -26.5t-36 -69.5h-189q10 115 93.5 178.5t218.5 63.5q148 0 226.5 -70t78.5 -207v-245q0 -112 12 -183h-188q-8 49 -8 105z
M526 1044v46l-139 -17q-55 -7 -86 -28.5t-31 -67.5q0 -39 26.5 -62.5t72.5 -23.5q64 0 110.5 41t46.5 112zM109 489v144h614v-144h-614z" />
    <glyph glyph-name="guillemotleft" unicode="&#xab;" horiz-adv-x="1120" 
d="M1008 90h-183l-280 418l280 418h183l-224 -418zM575 90h-180l-282 418l282 418h180l-223 -418z" />
    <glyph glyph-name="registered" unicode="&#xae;" horiz-adv-x="1169" 
d="M586 1487q197 0 334 -135t137 -338q0 -135 -63.5 -244.5t-171 -170t-236.5 -60.5q-198 0 -335.5 135.5t-137.5 339.5q0 203 138 338t335 135zM586 600q171 0 288 117.5t117 296.5q0 178 -117 294.5t-288 116.5t-288.5 -116.5t-117.5 -294.5q0 -179 117.5 -296.5
t288.5 -117.5zM504 770h-117v502h229q92 0 142.5 -41.5t50.5 -122.5q0 -103 -96 -145l112 -193h-127l-102 174h-92v-174zM504 1036h96q49 0 70.5 17.5t21.5 54.5q0 36 -21.5 53t-70.5 17h-96v-142z" />
    <glyph glyph-name="macron" unicode="&#xaf;" horiz-adv-x="1155" 
d="M264 1217v176h627v-176h-627z" />
    <glyph glyph-name="degree" unicode="&#xb0;" horiz-adv-x="751" 
d="M375 903q-127 0 -212 83t-85 208q0 127 84.5 210t212.5 83t213.5 -83t85.5 -210q0 -124 -85.5 -207.5t-213.5 -83.5zM375 1352q-69 0 -114.5 -44.5t-45.5 -113.5q0 -67 45.5 -111.5t114.5 -44.5t115.5 44.5t46.5 111.5q0 69 -46.5 113.5t-115.5 44.5z" />
    <glyph glyph-name="twosuperior" unicode="&#xb2;" horiz-adv-x="759" 
d="M682 1231q0 -42 -13.5 -78.5t-32.5 -62t-56 -53.5t-66 -45.5t-80 -45.5q-159 -84 -164 -145h420v-139h-616v65q0 56 22 106.5t63 91t79.5 69t91.5 59.5q53 32 78 47.5t52.5 39t37.5 45t10 48.5q0 47 -30.5 76.5t-88.5 29.5q-59 0 -95 -39.5t-38 -97.5h-176
q8 121 89.5 199t221.5 78q128 0 209.5 -70t81.5 -178z" />
    <glyph glyph-name="threesuperior" unicode="&#xb3;" horiz-adv-x="776" 
d="M700 879q0 -98 -82.5 -165t-226.5 -67q-141 0 -227.5 70t-97.5 186h174q4 -55 45.5 -87t105.5 -32q63 0 100 30.5t37 78.5q0 102 -137 102h-80v133h76q58 0 91.5 26.5t33.5 78.5q0 47 -32.5 77.5t-86.5 30.5q-59 0 -94.5 -34t-40.5 -88h-168q6 111 87 185.5t218 74.5
q135 0 210 -68.5t75 -169.5q0 -68 -39.5 -117t-101.5 -61q73 -12 117 -62t44 -122z" />
    <glyph glyph-name="acute" unicode="&#xb4;" horiz-adv-x="1155" 
d="M545 1182h-172l108 325h301z" />
    <glyph glyph-name="paragraph" unicode="&#xb6;" horiz-adv-x="1374" 
d="M598 -260v905q-245 0 -379.5 108.5t-134.5 299.5q0 192 134 300.5t380 108.5h598v-1722h-195v1542h-208v-1542h-195z" />
    <glyph glyph-name="periodcentered" unicode="&#xb7;" horiz-adv-x="661" 
d="M178 436v305h305v-305h-305z" />
    <glyph glyph-name="cedilla" unicode="&#xb8;" horiz-adv-x="1511" 
d="M989 -227q0 -88 -75 -135.5t-179 -47.5q-101 0 -188 37v119q107 -43 184 -43q47 0 77 16.5t30 47.5q0 33 -29.5 48.5t-67 14.5t-71.5 -12l-47 45l108 178h109l-76 -121q87 9 156 -28t69 -119z" />
    <glyph glyph-name="onesuperior" unicode="&#xb9;" horiz-adv-x="698" 
d="M651 788v-126h-567v126h199v439h-197v119q92 0 141.5 13t69.5 36t31 69h129v-676h194z" />
    <glyph glyph-name="ordmasculine" unicode="&#xba;" horiz-adv-x="870" 
d="M78 1124q0 165 99 263t259 98q159 0 258 -98t99 -263q0 -166 -99 -264t-258 -98q-160 0 -259 97.5t-99 264.5zM276 1124q0 -104 41.5 -161.5t118.5 -57.5q75 0 116.5 58t41.5 161q0 100 -41.5 157.5t-116.5 57.5q-77 0 -118.5 -57t-41.5 -158zM129 489v144h612v-144h-612
z" />
    <glyph glyph-name="guillemotright" unicode="&#xbb;" horiz-adv-x="1120" 
d="M295 86h-182l223 418l-223 418h182l280 -418zM725 86h-180l223 418l-223 418h180l283 -418z" />
    <glyph glyph-name="onequarter" unicode="&#xbc;" horiz-adv-x="1880" 
d="M489 -25h-176l1057 1514h174zM684 788v-126h-567v126h198v439h-196v119q92 0 141.5 13t69 36t30.5 69h129v-676h195zM1608 801v-498h157v-127h-157v-176h-170v176h-400v129l377 496h193zM1438 633l-244 -330h244v330z" />
    <glyph glyph-name="onehalf" unicode="&#xbd;" horiz-adv-x="1902" 
d="M500 -25h-176l1056 1514h174zM684 788v-126h-567v126h198v439h-196v119q92 0 141.5 13t69 36t30.5 69h129v-676h195zM1776 569q0 -42 -13.5 -78.5t-32.5 -61.5t-56 -53.5t-65.5 -45.5t-80.5 -45q-158 -84 -164 -146h420v-139h-617v66q0 46 16 88t39.5 74t60 64t67.5 53.5
t73 45.5q54 32 78.5 47.5t52.5 39t38 45t10 48.5q0 47 -30.5 77t-88.5 30q-59 0 -95 -39.5t-38 -97.5h-176q8 121 89.5 198.5t221.5 77.5q128 0 209.5 -70t81.5 -178z" />
    <glyph glyph-name="threequarters" unicode="&#xbe;" horiz-adv-x="1918" 
d="M528 -25h-176l1057 1514h174zM733 879q0 -98 -82.5 -165t-226.5 -67q-141 0 -228 70t-98 186h174q4 -55 46 -87t106 -32q63 0 100 30.5t37 78.5q0 102 -137 102h-80v133h76q58 0 91.5 26.5t33.5 78.5q0 47 -32.5 77.5t-86.5 30.5q-59 0 -94.5 -34t-40.5 -88h-168
q6 111 87 185.5t218 74.5q135 0 210 -68.5t75 -169.5q0 -68 -40 -117t-102 -61q74 -12 118 -62t44 -122zM1657 801v-498h158v-127h-158v-176h-170v176h-400v129l377 496h193zM1487 633l-244 -330h244v330z" />
    <glyph glyph-name="questiondown" unicode="&#xbf;" horiz-adv-x="1204" 
d="M782 1462v-284h-307v284h307zM82 412q0 72 21.5 134.5t63 114.5t88.5 92.5t112 84.5q64 45 96.5 84.5t36.5 101.5h258q-3 -94 -59.5 -175t-170.5 -163q-44 -32 -72.5 -56.5t-58.5 -59t-44.5 -73.5t-14.5 -83q0 -98 62 -164t182 -66q126 0 199 80.5t79 200.5h262
q-7 -102 -46 -190.5t-106.5 -155.5t-167 -105.5t-220.5 -38.5q-228 0 -364 123.5t-136 313.5z" />
    <glyph glyph-name="Agrave" unicode="&#xc0;" horiz-adv-x="1527" 
d="M850 1565h-162l-242 313h295zM1225 0l-138 358h-659l-139 -358h-266l587 1462h305l588 -1462h-278zM758 1200l-246 -631h494l-242 631h-6z" />
    <glyph glyph-name="Aacute" unicode="&#xc1;" horiz-adv-x="1527" 
d="M840 1565h-162l108 313h295zM1225 0l-138 358h-659l-139 -358h-266l587 1462h305l588 -1462h-278zM758 1200l-246 -631h494l-242 631h-6z" />
    <glyph glyph-name="Acircumflex" unicode="&#xc2;" horiz-adv-x="1527" 
d="M643 1878h244l196 -315h-151l-166 163l-170 -163h-152zM1225 0l-138 358h-659l-139 -358h-266l587 1462h305l588 -1462h-278zM758 1200l-246 -631h494l-242 631h-6z" />
    <glyph glyph-name="Atilde" unicode="&#xc3;" horiz-adv-x="1527" 
d="M637 1704q-39 0 -60 -35t-24 -96h-145q0 144 52 230.5t146 86.5q42 0 87.5 -21t77 -45.5t67 -45.5t61.5 -21q39 0 60 35t24 96h145q0 -145 -52 -231t-146 -86q-42 0 -87.5 21t-77 45.5t-67 45.5t-61.5 21zM1225 0l-138 358h-659l-139 -358h-266l587 1462h305l588 -1462
h-278zM758 1200l-246 -631h494l-242 631h-6z" />
    <glyph glyph-name="Adieresis" unicode="&#xc4;" horiz-adv-x="1527" 
d="M848 1587v256h242v-256h-242zM438 1587v256h242v-256h-242zM1225 0l-138 358h-659l-139 -358h-266l587 1462h305l588 -1462h-278zM758 1200l-246 -631h494l-242 631h-6z" />
    <glyph glyph-name="Aring" unicode="&#xc5;" horiz-adv-x="1527" 
d="M428 358l-139 -358h-266l567 1411q-90 80 -90 199q0 109 77.5 186.5t186.5 77.5t185.5 -77.5t76.5 -186.5q0 -122 -90 -199l567 -1411h-278l-138 358h-659zM764 1741q-55 0 -94 -38.5t-39 -92.5t39 -93.5t94 -39.5q54 0 92.5 39.5t38.5 93.5t-38.5 92.5t-92.5 38.5z
M758 1200l-246 -631h494l-242 631h-6z" />
    <glyph glyph-name="AE" unicode="&#xc6;" horiz-adv-x="2289" 
d="M1110 0v369h-580l-235 -369h-275l930 1462h1211v-215h-785v-407h695v-215h-695v-410h793v-215h-1059zM1110 1280l-444 -698h444v698z" />
    <glyph glyph-name="Ccedilla" unicode="&#xc7;" horiz-adv-x="1445" 
d="M991 -227q0 -88 -75 -135.5t-179 -47.5q-101 0 -188 37v119q107 -43 184 -43q47 0 77 16.5t30 47.5q0 33 -29.5 48.5t-67 14.5t-71.5 -12l-47 45l71 117q-277 28 -443.5 232t-166.5 521q0 223 86 394.5t242.5 265.5t359.5 94q254 0 406 -130t192 -353h-264
q-24 122 -105 195t-229 73q-196 0 -304 -144t-108 -395q0 -253 108 -398t304 -145q148 0 229 73.5t105 195.5h264q-38 -216 -183.5 -346.5t-387.5 -137.5l-35 -55q87 9 156 -28t69 -119z" />
    <glyph glyph-name="Egrave" unicode="&#xc8;" horiz-adv-x="1345" 
d="M801 1565h-162l-242 313h295zM1225 0h-1059v1462h1051v-215h-785v-407h694v-215h-694v-410h793v-215z" />
    <glyph glyph-name="Eacute" unicode="&#xc9;" horiz-adv-x="1345" 
d="M752 1565h-162l108 313h295zM1225 0h-1059v1462h1051v-215h-785v-407h694v-215h-694v-410h793v-215z" />
    <glyph glyph-name="Ecircumflex" unicode="&#xca;" horiz-adv-x="1345" 
d="M573 1878h244l197 -315h-152l-166 163l-170 -163h-151zM1225 0h-1059v1462h1051v-215h-785v-407h694v-215h-694v-410h793v-215z" />
    <glyph glyph-name="Edieresis" unicode="&#xcb;" horiz-adv-x="1345" 
d="M778 1587v256h242v-256h-242zM369 1587v256h241v-256h-241zM1225 0h-1059v1462h1051v-215h-785v-407h694v-215h-694v-410h793v-215z" />
    <glyph glyph-name="Igrave" unicode="&#xcc;" horiz-adv-x="604" 
d="M399 1565h-161l-242 313h295zM166 0v1462h272v-1462h-272z" />
    <glyph glyph-name="Iacute" unicode="&#xcd;" horiz-adv-x="604" 
d="M379 1565h-162l109 313h295zM166 0v1462h272v-1462h-272z" />
    <glyph glyph-name="Icircumflex" unicode="&#xce;" horiz-adv-x="604" 
d="M182 1878h244l197 -315h-152l-166 163l-170 -163h-151zM166 0v1462h272v-1462h-272z" />
    <glyph glyph-name="Idieresis" unicode="&#xcf;" horiz-adv-x="604" 
d="M387 1587v256h242v-256h-242zM-23 1587v256h242v-256h-242zM166 0v1462h272v-1462h-272z" />
    <glyph glyph-name="Eth" unicode="&#xd0;" horiz-adv-x="1585" 
d="M1501 731q0 -330 -200.5 -530.5t-530.5 -200.5h-563v639h-150v207h150v616h563q218 0 384 -91t256.5 -257t90.5 -383zM473 215h297q217 0 335 135t118 381t-118 381t-335 135h-297v-401h256v-207h-256v-424z" />
    <glyph glyph-name="Ntilde" unicode="&#xd1;" horiz-adv-x="1599" 
d="M662 1704q-39 0 -60 -35t-24 -96h-146q0 144 52.5 230.5t146.5 86.5q42 0 87.5 -21t77 -45.5t67 -45.5t61.5 -21q39 0 60 35t24 96h145q0 -145 -52.5 -231t-146.5 -86q-42 0 -87 21t-76.5 45.5t-67 45.5t-61.5 21zM483 1462l688 -1036h5v1036h258v-1462h-252l-752 1133
h-4v-1133h-260v1462h317z" />
    <glyph glyph-name="Ograve" unicode="&#xd2;" horiz-adv-x="1566" 
d="M885 1565h-162l-242 313h295zM1483 731q0 -164 -49 -303.5t-138.5 -239.5t-221 -156.5t-290.5 -56.5q-211 0 -370.5 97t-243.5 268t-84 391q0 219 84 390t243.5 268.5t370.5 97.5q158 0 290 -56.5t221.5 -157t138.5 -240t49 -302.5zM1206 731q0 249 -108.5 395
t-313.5 146q-206 0 -314 -145.5t-108 -395.5q0 -251 108 -396t314 -145q205 0 313.5 145.5t108.5 395.5z" />
    <glyph glyph-name="Oacute" unicode="&#xd3;" horiz-adv-x="1566" 
d="M854 1565h-162l109 313h295zM1483 731q0 -164 -49 -303.5t-138.5 -239.5t-221 -156.5t-290.5 -56.5q-211 0 -370.5 97t-243.5 268t-84 391q0 219 84 390t243.5 268.5t370.5 97.5q158 0 290 -56.5t221.5 -157t138.5 -240t49 -302.5zM1206 731q0 249 -108.5 395t-313.5 146
q-206 0 -314 -145.5t-108 -395.5q0 -251 108 -396t314 -145q205 0 313.5 145.5t108.5 395.5z" />
    <glyph glyph-name="Ocircumflex" unicode="&#xd4;" horiz-adv-x="1566" 
d="M664 1878h243l197 -315h-152l-166 163l-170 -163h-151zM1483 731q0 -164 -49 -303.5t-138.5 -239.5t-221 -156.5t-290.5 -56.5q-211 0 -370.5 97t-243.5 268t-84 391q0 219 84 390t243.5 268.5t370.5 97.5q158 0 290 -56.5t221.5 -157t138.5 -240t49 -302.5zM1206 731
q0 249 -108.5 395t-313.5 146q-206 0 -314 -145.5t-108 -395.5q0 -251 108 -396t314 -145q205 0 313.5 145.5t108.5 395.5z" />
    <glyph glyph-name="Otilde" unicode="&#xd5;" horiz-adv-x="1566" 
d="M653 1704q-39 0 -60 -35t-24 -96h-145q0 144 52.5 230.5t146.5 86.5q42 0 87 -21t76.5 -45.5t67 -45.5t61.5 -21q39 0 60 35t24 96h146q0 -145 -52.5 -231t-146.5 -86q-42 0 -87.5 21t-77 45.5t-67 45.5t-61.5 21zM1483 731q0 -164 -49 -303.5t-138.5 -239.5t-221 -156.5
t-290.5 -56.5q-211 0 -370.5 97t-243.5 268t-84 391q0 219 84 390t243.5 268.5t370.5 97.5q158 0 290 -56.5t221.5 -157t138.5 -240t49 -302.5zM1206 731q0 249 -108.5 395t-313.5 146q-206 0 -314 -145.5t-108 -395.5q0 -251 108 -396t314 -145q205 0 313.5 145.5
t108.5 395.5z" />
    <glyph glyph-name="Odieresis" unicode="&#xd6;" horiz-adv-x="1566" 
d="M868 1587v256h242v-256h-242zM459 1587v256h241v-256h-241zM1483 731q0 -164 -49 -303.5t-138.5 -239.5t-221 -156.5t-290.5 -56.5q-211 0 -370.5 97t-243.5 268t-84 391q0 219 84 390t243.5 268.5t370.5 97.5q158 0 290 -56.5t221.5 -157t138.5 -240t49 -302.5z
M1206 731q0 249 -108.5 395t-313.5 146q-206 0 -314 -145.5t-108 -395.5q0 -251 108 -396t314 -145q205 0 313.5 145.5t108.5 395.5z" />
    <glyph glyph-name="multiply" unicode="&#xd7;" 
d="M1030 193l-352 352l-354 -355l-136 136l355 354l-355 354l134 133l354 -354l354 354l135 -135l-354 -354l352 -352z" />
    <glyph glyph-name="Oslash" unicode="&#xd8;" horiz-adv-x="1566" 
d="M784 -25q-236 0 -405 121l-127 -157l-123 94l135 168q-178 206 -178 530q0 219 84 390t243.5 268.5t370.5 97.5q241 0 414 -125l119 147l121 -94l-127 -160q172 -206 172 -524q0 -164 -49 -303.5t-138.5 -239.5t-221 -156.5t-290.5 -56.5zM362 731q0 -193 66 -328
l623 775q-105 94 -267 94q-206 0 -314 -145.5t-108 -395.5zM1206 731q0 190 -61 318l-621 -770q106 -89 260 -89q205 0 313.5 145.5t108.5 395.5z" />
    <glyph glyph-name="Ugrave" unicode="&#xd9;" horiz-adv-x="1544" 
d="M893 1565h-162l-242 313h295zM1397 590q0 -297 -163.5 -456t-461.5 -159q-297 0 -461 159.5t-164 459.5v868h273v-870q0 -194 88.5 -296.5t263.5 -102.5t264.5 102.5t89.5 296.5v870h271v-872z" />
    <glyph glyph-name="Uacute" unicode="&#xda;" horiz-adv-x="1544" 
d="M821 1565h-162l109 313h295zM1397 590q0 -297 -163.5 -456t-461.5 -159q-297 0 -461 159.5t-164 459.5v868h273v-870q0 -194 88.5 -296.5t263.5 -102.5t264.5 102.5t89.5 296.5v870h271v-872z" />
    <glyph glyph-name="Ucircumflex" unicode="&#xdb;" horiz-adv-x="1544" 
d="M653 1878h244l197 -315h-152l-166 163l-170 -163h-151zM1397 590q0 -297 -163.5 -456t-461.5 -159q-297 0 -461 159.5t-164 459.5v868h273v-870q0 -194 88.5 -296.5t263.5 -102.5t264.5 102.5t89.5 296.5v870h271v-872z" />
    <glyph glyph-name="Udieresis" unicode="&#xdc;" horiz-adv-x="1544" 
d="M858 1587v256h242v-256h-242zM449 1587v256h241v-256h-241zM1397 590q0 -297 -163.5 -456t-461.5 -159q-297 0 -461 159.5t-164 459.5v868h273v-870q0 -194 88.5 -296.5t263.5 -102.5t264.5 102.5t89.5 296.5v870h271v-872z" />
    <glyph glyph-name="Yacute" unicode="&#xdd;" horiz-adv-x="1445" 
d="M803 1565h-162l109 313h294zM858 0h-272v600l-566 862h304l405 -624h4l395 624h297l-567 -862v-600z" />
    <glyph glyph-name="Thorn" unicode="&#xde;" horiz-adv-x="1382" 
d="M772 287h-340v-287h-266v1462h266v-252h338q262 0 404.5 -118t142.5 -344q0 -225 -142 -343t-403 -118zM432 500h316q301 0 301 248q0 125 -75 186t-226 61h-316v-495z" />
    <glyph glyph-name="germandbls" unicode="&#xdf;" horiz-adv-x="1302" 
d="M913 860q129 -37 215 -143.5t86 -257.5q0 -113 -39 -203.5t-107 -148.5t-158.5 -88.5t-194.5 -30.5q-78 0 -135 14v203q44 -8 100 -8q127 0 211 71t84 203q0 121 -83.5 193.5t-223.5 72.5h-66v203h53q97 0 154 53t57 148q0 86 -53 138t-147 52q-116 0 -180 -82.5
t-64 -220.5v-1028h-262v1018q0 231 137.5 372.5t366.5 141.5q206 0 323 -103.5t117 -267.5q0 -111 -57.5 -191t-133.5 -110z" />
    <glyph glyph-name="agrave" unicode="&#xe0;" horiz-adv-x="1175" 
d="M694 1182h-172l-237 325h301zM795 0q-15 86 -15 164q-36 -89 -128.5 -138t-217.5 -49q-155 0 -252.5 81.5t-97.5 220.5q0 275 375 319l311 35v49q0 93 -52.5 140.5t-144.5 47.5q-85 0 -135.5 -43t-56.5 -116h-252q17 166 138.5 260t314.5 94q215 0 329.5 -101.5
t114.5 -301.5v-402q0 -150 21 -260h-252zM506 160q109 0 186.5 63.5t77.5 179.5v64l-231 -27q-47 -6 -78 -14t-60 -23.5t-43 -43t-14 -66.5q0 -62 42.5 -97.5t119.5 -35.5z" />
    <glyph glyph-name="aacute" unicode="&#xe1;" horiz-adv-x="1175" 
d="M643 1182h-172l109 325h301zM795 0q-15 86 -15 164q-36 -89 -128.5 -138t-217.5 -49q-155 0 -252.5 81.5t-97.5 220.5q0 275 375 319l311 35v49q0 93 -52.5 140.5t-144.5 47.5q-85 0 -135.5 -43t-56.5 -116h-252q17 166 138.5 260t314.5 94q215 0 329.5 -101.5
t114.5 -301.5v-402q0 -150 21 -260h-252zM506 160q109 0 186.5 63.5t77.5 179.5v64l-231 -27q-47 -6 -78 -14t-60 -23.5t-43 -43t-14 -66.5q0 -62 42.5 -97.5t119.5 -35.5z" />
    <glyph glyph-name="acircumflex" unicode="&#xe2;" horiz-adv-x="1175" 
d="M463 1507h237l201 -327h-151l-166 178l-170 -178h-152zM795 0q-15 86 -15 164q-36 -89 -128.5 -138t-217.5 -49q-155 0 -252.5 81.5t-97.5 220.5q0 275 375 319l311 35v49q0 93 -52.5 140.5t-144.5 47.5q-85 0 -135.5 -43t-56.5 -116h-252q17 166 138.5 260t314.5 94
q215 0 329.5 -101.5t114.5 -301.5v-402q0 -150 21 -260h-252zM506 160q109 0 186.5 63.5t77.5 179.5v64l-231 -27q-47 -6 -78 -14t-60 -23.5t-43 -43t-14 -66.5q0 -62 42.5 -97.5t119.5 -35.5z" />
    <glyph glyph-name="atilde" unicode="&#xe3;" horiz-adv-x="1175" 
d="M455 1313q-77 0 -84 -135h-146q0 144 52.5 230.5t146.5 86.5q42 0 87.5 -21.5t77 -47t67 -47t61.5 -21.5q77 0 84 135h145q0 -145 -52 -231t-146 -86q-42 0 -87.5 21.5t-77 47t-67 47t-61.5 21.5zM795 0q-15 86 -15 164q-36 -89 -128.5 -138t-217.5 -49
q-155 0 -252.5 81.5t-97.5 220.5q0 275 375 319l311 35v49q0 93 -52.5 140.5t-144.5 47.5q-85 0 -135.5 -43t-56.5 -116h-252q17 166 138.5 260t314.5 94q215 0 329.5 -101.5t114.5 -301.5v-402q0 -150 21 -260h-252zM506 160q109 0 186.5 63.5t77.5 179.5v64l-231 -27
q-47 -6 -78 -14t-60 -23.5t-43 -43t-14 -66.5q0 -62 42.5 -97.5t119.5 -35.5z" />
    <glyph glyph-name="adieresis" unicode="&#xe4;" horiz-adv-x="1175" 
d="M668 1217v256h241v-256h-241zM258 1217v256h242v-256h-242zM795 0q-15 86 -15 164q-36 -89 -128.5 -138t-217.5 -49q-155 0 -252.5 81.5t-97.5 220.5q0 275 375 319l311 35v49q0 93 -52.5 140.5t-144.5 47.5q-85 0 -135.5 -43t-56.5 -116h-252q17 166 138.5 260t314.5 94
q215 0 329.5 -101.5t114.5 -301.5v-402q0 -150 21 -260h-252zM506 160q109 0 186.5 63.5t77.5 179.5v64l-231 -27q-47 -6 -78 -14t-60 -23.5t-43 -43t-14 -66.5q0 -62 42.5 -97.5t119.5 -35.5z" />
    <glyph glyph-name="aring" unicode="&#xe5;" horiz-adv-x="1175" 
d="M358 1384q0 95 67 161.5t161 66.5t159.5 -66.5t65.5 -161.5q0 -93 -66 -159t-159 -66q-94 0 -161 66.5t-67 158.5zM692 1384q0 46 -31 77.5t-75 31.5q-45 0 -77 -32t-32 -77q0 -43 32.5 -74.5t76.5 -31.5t75 31.5t31 74.5zM795 0q-15 86 -15 164q-36 -89 -128.5 -138
t-217.5 -49q-155 0 -252.5 81.5t-97.5 220.5q0 275 375 319l311 35v49q0 93 -52.5 140.5t-144.5 47.5q-85 0 -135.5 -43t-56.5 -116h-252q17 166 138.5 260t314.5 94q215 0 329.5 -101.5t114.5 -301.5v-402q0 -150 21 -260h-252zM506 160q109 0 186.5 63.5t77.5 179.5v64
l-231 -27q-47 -6 -78 -14t-60 -23.5t-43 -43t-14 -66.5q0 -62 42.5 -97.5t119.5 -35.5z" />
    <glyph glyph-name="ae" unicode="&#xe6;" horiz-adv-x="1843" 
d="M1749 324q-33 -165 -160 -257t-309 -92q-126 0 -232 50t-176 139q-147 -187 -401 -187q-171 0 -279 81.5t-108 228.5q0 160 126.5 239.5t356.5 79.5h203v76q0 94 -52.5 142t-144.5 48q-85 0 -135.5 -43t-56.5 -118h-252q17 167 136.5 260.5t307.5 93.5q235 0 347 -143
q143 143 352 143q119 0 213 -42.5t152 -116t88 -166.5t30 -199v-78h-749q11 -141 81 -218t193 -77q169 0 227 156h242zM1272 874q-107 0 -175 -68.5t-87 -199.5h499q-3 119 -64 193.5t-173 74.5zM514 160q110 0 183 62t73 179v62h-211q-98 0 -157.5 -37.5t-59.5 -118.5
q0 -65 45.5 -106t126.5 -41z" />
    <glyph glyph-name="ccedilla" unicode="&#xe7;" horiz-adv-x="1140" 
d="M825 -227q0 -88 -75 -135.5t-179 -47.5q-101 0 -188 37v119q107 -43 184 -43q47 0 77 16.5t30 47.5q0 33 -29.5 48.5t-67 14.5t-71.5 -12l-47 45l71 117q-200 27 -321 170.5t-121 369.5q0 249 145 397t377 148q191 0 311 -103t142 -278h-248q-15 87 -67.5 135.5
t-139.5 48.5q-123 0 -190.5 -93.5t-67.5 -254.5q0 -162 67.5 -255t190.5 -93q87 0 139 49t68 135h248q-22 -170 -134.5 -272t-293.5 -109l-35 -55q87 9 156 -28t69 -119z" />
    <glyph glyph-name="egrave" unicode="&#xe8;" horiz-adv-x="1177" 
d="M713 1182h-172l-238 325h301zM1083 324q-33 -165 -160 -257t-309 -92q-232 0 -379 146.5t-147 396.5q0 249 147.5 398t372.5 149q95 0 175 -28t136 -77t95 -115.5t57.5 -143t18.5 -160.5v-84h-748q12 -139 81.5 -214t190.5 -75q173 0 228 156h241zM608 870
q-103 0 -169.5 -62t-88.5 -181h490q0 104 -59.5 173.5t-172.5 69.5z" />
    <glyph glyph-name="eacute" unicode="&#xe9;" horiz-adv-x="1177" 
d="M684 1182h-172l109 325h301zM1083 324q-33 -165 -160 -257t-309 -92q-232 0 -379 146.5t-147 396.5q0 249 147.5 398t372.5 149q95 0 175 -28t136 -77t95 -115.5t57.5 -143t18.5 -160.5v-84h-748q12 -139 81.5 -214t190.5 -75q173 0 228 156h241zM608 870
q-103 0 -169.5 -62t-88.5 -181h490q0 104 -59.5 173.5t-172.5 69.5z" />
    <glyph glyph-name="ecircumflex" unicode="&#xea;" horiz-adv-x="1177" 
d="M494 1507h237l201 -327h-152l-166 178l-170 -178h-151zM1083 324q-33 -165 -160 -257t-309 -92q-232 0 -379 146.5t-147 396.5q0 249 147.5 398t372.5 149q95 0 175 -28t136 -77t95 -115.5t57.5 -143t18.5 -160.5v-84h-748q12 -139 81.5 -214t190.5 -75q173 0 228 156
h241zM608 870q-103 0 -169.5 -62t-88.5 -181h490q0 104 -59.5 173.5t-172.5 69.5z" />
    <glyph glyph-name="edieresis" unicode="&#xeb;" horiz-adv-x="1177" 
d="M694 1217v256h242v-256h-242zM285 1217v256h241v-256h-241zM1083 324q-33 -165 -160 -257t-309 -92q-232 0 -379 146.5t-147 396.5q0 249 147.5 398t372.5 149q95 0 175 -28t136 -77t95 -115.5t57.5 -143t18.5 -160.5v-84h-748q12 -139 81.5 -214t190.5 -75
q173 0 228 156h241zM608 870q-103 0 -169.5 -62t-88.5 -181h490q0 104 -59.5 173.5t-172.5 69.5z" />
    <glyph glyph-name="igrave" unicode="&#xec;" horiz-adv-x="581" 
d="M389 1182h-172l-237 325h301zM160 1040h262v-1040h-262v1040z" />
    <glyph glyph-name="iacute" unicode="&#xed;" horiz-adv-x="581" 
d="M377 1182h-172l108 325h301zM160 1040h262v-1040h-262v1040z" />
    <glyph glyph-name="icircumflex" unicode="&#xee;" horiz-adv-x="581" 
d="M174 1507h238l200 -327h-151l-166 178l-170 -178h-152zM160 1040h262v-1040h-262v1040z" />
    <glyph glyph-name="idieresis" unicode="&#xef;" horiz-adv-x="581" 
d="M377 1217v256h241v-256h-241zM-33 1217v256h242v-256h-242zM160 1040h262v-1040h-262v1040z" />
    <glyph glyph-name="eth" unicode="&#xf0;" horiz-adv-x="1228" 
d="M1141 555q0 -136 -40.5 -246.5t-111.5 -183t-167 -111.5t-208 -39q-234 0 -380 148.5t-146 398.5q0 158 69.5 280t186.5 186.5t262 64.5q125 0 191 -66q-77 128 -185 238l-284 -92l-47 104l237 78q-105 91 -246 180v12h301q85 -52 166 -121l187 62l47 -105l-142 -47
q146 -155 228 -345.5t82 -395.5zM350 518q0 -164 68.5 -256t195.5 -92q124 0 193.5 92.5t69.5 255.5q0 161 -69.5 252.5t-193.5 91.5q-126 0 -195 -91.5t-69 -252.5z" />
    <glyph glyph-name="ntilde" unicode="&#xf1;" horiz-adv-x="1273" 
d="M514 1313q-77 0 -84 -135h-145q0 144 52 230.5t146 86.5q42 0 87.5 -21.5t77 -47t67 -47t61.5 -21.5q77 0 84 135h146q0 -145 -52.5 -231t-146.5 -86q-42 0 -87.5 21.5t-77 47t-67 47t-61.5 21.5zM418 1040v-176q38 91 124.5 146t202.5 55q179 0 280 -105t101 -292v-668
h-262v606q0 124 -53 188t-156 64q-105 0 -169 -72t-64 -221v-565h-262v1040h258z" />
    <glyph glyph-name="ograve" unicode="&#xf2;" horiz-adv-x="1228" 
d="M731 1182h-172l-237 325h301zM1141 520q0 -250 -146.5 -397.5t-380.5 -147.5t-380 147.5t-146 397.5q0 249 146.5 397t379.5 148t380 -148t147 -397zM350 520q0 -165 68.5 -257.5t195.5 -92.5q126 0 195.5 92.5t69.5 257.5q0 164 -70 257t-195 93q-126 0 -195 -93
t-69 -257z" />
    <glyph glyph-name="oacute" unicode="&#xf3;" horiz-adv-x="1228" 
d="M678 1182h-172l108 325h301zM1141 520q0 -250 -146.5 -397.5t-380.5 -147.5t-380 147.5t-146 397.5q0 249 146.5 397t379.5 148t380 -148t147 -397zM350 520q0 -165 68.5 -257.5t195.5 -92.5q126 0 195.5 92.5t69.5 257.5q0 164 -70 257t-195 93q-126 0 -195 -93
t-69 -257z" />
    <glyph glyph-name="ocircumflex" unicode="&#xf4;" horiz-adv-x="1228" 
d="M496 1507h237l201 -327h-152l-166 178l-170 -178h-151zM1141 520q0 -250 -146.5 -397.5t-380.5 -147.5t-380 147.5t-146 397.5q0 249 146.5 397t379.5 148t380 -148t147 -397zM350 520q0 -165 68.5 -257.5t195.5 -92.5q126 0 195.5 92.5t69.5 257.5q0 164 -70 257
t-195 93q-126 0 -195 -93t-69 -257z" />
    <glyph glyph-name="otilde" unicode="&#xf5;" horiz-adv-x="1228" 
d="M483 1313q-77 0 -84 -135h-145q0 144 52.5 230.5t146.5 86.5q42 0 87 -21.5t76.5 -47t67 -47t61.5 -21.5q77 0 84 135h146q0 -145 -52.5 -231t-146.5 -86q-42 0 -87.5 21.5t-77 47t-67 47t-61.5 21.5zM1141 520q0 -250 -146.5 -397.5t-380.5 -147.5t-380 147.5
t-146 397.5q0 249 146.5 397t379.5 148t380 -148t147 -397zM350 520q0 -165 68.5 -257.5t195.5 -92.5q126 0 195.5 92.5t69.5 257.5q0 164 -70 257t-195 93q-126 0 -195 -93t-69 -257z" />
    <glyph glyph-name="odieresis" unicode="&#xf6;" horiz-adv-x="1228" 
d="M698 1217v256h242v-256h-242zM289 1217v256h241v-256h-241zM1141 520q0 -250 -146.5 -397.5t-380.5 -147.5t-380 147.5t-146 397.5q0 249 146.5 397t379.5 148t380 -148t147 -397zM350 520q0 -165 68.5 -257.5t195.5 -92.5q126 0 195.5 92.5t69.5 257.5q0 164 -70 257
t-195 93q-126 0 -195 -93t-69 -257z" />
    <glyph glyph-name="divide" unicode="&#xf7;" 
d="M551 1004v243h252v-243h-252zM133 584v194h1084v-194h-1084zM551 113v245h252v-245h-252z" />
    <glyph glyph-name="oslash" unicode="&#xf8;" horiz-adv-x="1228" 
d="M614 -25q-175 0 -303 84l-110 -129l-101 93l111 127q-123 145 -123 370q0 249 146.5 397t379.5 148q181 0 312 -90l102 119l100 -93l-102 -118q115 -147 115 -363q0 -250 -146.5 -397.5t-380.5 -147.5zM340 520q0 -107 31 -186l415 481q-70 64 -172 64q-130 0 -202 -96.5
t-72 -262.5zM889 520q0 100 -27 174l-413 -477q71 -55 165 -55q130 0 202.5 95.5t72.5 262.5z" />
    <glyph glyph-name="ugrave" unicode="&#xf9;" horiz-adv-x="1261" 
d="M731 1182h-172l-237 325h301zM1102 0h-258v174q-37 -91 -123 -145t-201 -54q-175 0 -272.5 103.5t-97.5 292.5v669h264v-612q0 -250 200 -250q101 0 162.5 73.5t61.5 223.5v565h264v-1040z" />
    <glyph glyph-name="uacute" unicode="&#xfa;" horiz-adv-x="1261" 
d="M696 1182h-172l109 325h301zM1102 0h-258v174q-37 -91 -123 -145t-201 -54q-175 0 -272.5 103.5t-97.5 292.5v669h264v-612q0 -250 200 -250q101 0 162.5 73.5t61.5 223.5v565h264v-1040z" />
    <glyph glyph-name="ucircumflex" unicode="&#xfb;" horiz-adv-x="1261" 
d="M510 1507h238l200 -327h-151l-166 178l-170 -178h-152zM1102 0h-258v174q-37 -91 -123 -145t-201 -54q-175 0 -272.5 103.5t-97.5 292.5v669h264v-612q0 -250 200 -250q101 0 162.5 73.5t61.5 223.5v565h264v-1040z" />
    <glyph glyph-name="udieresis" unicode="&#xfc;" horiz-adv-x="1261" 
d="M713 1217v256h241v-256h-241zM303 1217v256h242v-256h-242zM1102 0h-258v174q-37 -91 -123 -145t-201 -54q-175 0 -272.5 103.5t-97.5 292.5v669h264v-612q0 -250 200 -250q101 0 162.5 73.5t61.5 223.5v565h264v-1040z" />
    <glyph glyph-name="yacute" unicode="&#xfd;" horiz-adv-x="1175" 
d="M678 1182h-172l108 325h301zM446 2l-405 1038h266l289 -784h4l274 784h261l-406 -1058q-74 -195 -174 -278.5t-264 -84.5q-59 0 -121 10v199q31 -6 70 -6q80 0 122.5 36.5t83.5 143.5z" />
    <glyph glyph-name="thorn" unicode="&#xfe;" horiz-adv-x="1298" 
d="M422 166v-531h-262v1872h260v-637q39 83 127.5 139t204.5 56q204 0 331 -151.5t127 -393.5q0 -243 -127 -394t-331 -151q-113 0 -200.5 54t-129.5 137zM416 539v-37q0 -154 69.5 -244t192.5 -90q126 0 197 94.5t71 257.5q0 162 -71 257t-197 95q-123 0 -192.5 -89.5
t-69.5 -243.5z" />
    <glyph glyph-name="ydieresis" unicode="&#xff;" horiz-adv-x="1175" 
d="M690 1217v256h242v-256h-242zM281 1217v256h241v-256h-241zM446 2l-405 1038h266l289 -784h4l274 784h261l-406 -1058q-74 -195 -174 -278.5t-264 -84.5q-59 0 -121 10v199q31 -6 70 -6q80 0 122.5 36.5t83.5 143.5z" />
    <glyph glyph-name="Amacron" unicode="&#x100;" horiz-adv-x="1527" 
d="M430 1595v177h668v-177h-668zM1225 0l-138 358h-659l-139 -358h-266l587 1462h305l588 -1462h-278zM758 1200l-246 -631h494l-242 631h-6z" />
    <glyph glyph-name="amacron" unicode="&#x101;" horiz-adv-x="1175" 
d="M268 1217v176h627v-176h-627zM795 0q-15 86 -15 164q-36 -89 -128.5 -138t-217.5 -49q-155 0 -252.5 81.5t-97.5 220.5q0 275 375 319l311 35v49q0 93 -52.5 140.5t-144.5 47.5q-85 0 -135.5 -43t-56.5 -116h-252q17 166 138.5 260t314.5 94q215 0 329.5 -101.5
t114.5 -301.5v-402q0 -150 21 -260h-252zM506 160q109 0 186.5 63.5t77.5 179.5v64l-231 -27q-47 -6 -78 -14t-60 -23.5t-43 -43t-14 -66.5q0 -62 42.5 -97.5t119.5 -35.5z" />
    <glyph glyph-name="Abreve" unicode="&#x102;" horiz-adv-x="1527" 
d="M766 1559q-136 0 -217.5 89t-81.5 238h166q0 -77 34.5 -119.5t98.5 -42.5q63 0 97 42.5t34 119.5h166q0 -149 -81 -238t-216 -89zM1225 0l-138 358h-659l-139 -358h-266l587 1462h305l588 -1462h-278zM758 1200l-246 -631h494l-242 631h-6z" />
    <glyph glyph-name="abreve" unicode="&#x103;" horiz-adv-x="1175" 
d="M582 1180q-136 0 -217.5 89t-81.5 238h161q2 -78 37 -122t101 -44q65 0 99 44t36 122h162q0 -149 -81 -238t-216 -89zM795 0q-15 86 -15 164q-36 -89 -128.5 -138t-217.5 -49q-155 0 -252.5 81.5t-97.5 220.5q0 275 375 319l311 35v49q0 93 -52.5 140.5t-144.5 47.5
q-85 0 -135.5 -43t-56.5 -116h-252q17 166 138.5 260t314.5 94q215 0 329.5 -101.5t114.5 -301.5v-402q0 -150 21 -260h-252zM506 160q109 0 186.5 63.5t77.5 179.5v64l-231 -27q-47 -6 -78 -14t-60 -23.5t-43 -43t-14 -66.5q0 -62 42.5 -97.5t119.5 -35.5z" />
    <glyph glyph-name="Aogonek" unicode="&#x104;" horiz-adv-x="1527" 
d="M1411 -371q-55 -18 -125 -18q-82 0 -138 43.5t-56 124.5q0 58 31 113t94 128l-130 338h-659l-139 -358h-266l587 1462h305l588 -1462h-151q-59 -77 -79 -111.5t-20 -66.5q0 -33 20.5 -50.5t55.5 -17.5q37 0 82 13v-138zM758 1200l-246 -631h494l-242 631h-6z" />
    <glyph glyph-name="aogonek" unicode="&#x105;" horiz-adv-x="1175" 
d="M993 -371q-55 -18 -125 -18q-82 0 -138 43.5t-56 124.5q0 57 29.5 111t89.5 124q-13 83 -13 150q-36 -89 -128.5 -138t-217.5 -49q-155 0 -252.5 81.5t-97.5 220.5q0 275 375 319l311 35v49q0 93 -52.5 140.5t-144.5 47.5q-85 0 -135.5 -43t-56.5 -116h-252
q17 166 138.5 260t314.5 94q215 0 329.5 -101.5t114.5 -301.5v-402q0 -150 21 -260h-113q-58 -76 -78 -111t-20 -67q0 -33 20 -50.5t55 -17.5q37 0 82 13v-138zM506 160q109 0 186.5 63.5t77.5 179.5v64l-231 -27q-47 -6 -78 -14t-60 -23.5t-43 -43t-14 -66.5
q0 -62 42.5 -97.5t119.5 -35.5z" />
    <glyph glyph-name="Cacute" unicode="&#x106;" horiz-adv-x="1445" 
d="M842 1565h-162l108 313h295zM362 733q0 -253 108 -398t304 -145q148 0 229 73.5t105 195.5h264q-40 -223 -192 -353.5t-406 -130.5q-203 0 -359.5 94t-242.5 266.5t-86 397.5q0 223 86 394.5t242.5 265.5t359.5 94q254 0 406 -130t192 -353h-264q-24 122 -105 195
t-229 73q-196 0 -304 -144t-108 -395z" />
    <glyph glyph-name="cacute" unicode="&#x107;" horiz-adv-x="1140" 
d="M686 1182h-172l109 325h301zM88 520q0 249 145 397t377 148q191 0 311 -103t142 -278h-248q-15 87 -67.5 135.5t-139.5 48.5q-123 0 -190.5 -93.5t-67.5 -254.5q0 -162 67.5 -255t190.5 -93q87 0 139 49t68 135h248q-22 -176 -141.5 -278.5t-311.5 -102.5
q-232 0 -377 147.5t-145 397.5z" />
    <glyph glyph-name="Ccircumflex" unicode="&#x108;" horiz-adv-x="1445" 
d="M653 1878h244l197 -315h-152l-166 163l-170 -163h-151zM362 733q0 -253 108 -398t304 -145q148 0 229 73.5t105 195.5h264q-40 -223 -192 -353.5t-406 -130.5q-203 0 -359.5 94t-242.5 266.5t-86 397.5q0 223 86 394.5t242.5 265.5t359.5 94q254 0 406 -130t192 -353
h-264q-24 122 -105 195t-229 73q-196 0 -304 -144t-108 -395z" />
    <glyph glyph-name="ccircumflex" unicode="&#x109;" horiz-adv-x="1140" 
d="M489 1507h238l201 -327h-152l-166 178l-170 -178h-151zM88 520q0 249 145 397t377 148q191 0 311 -103t142 -278h-248q-15 87 -67.5 135.5t-139.5 48.5q-123 0 -190.5 -93.5t-67.5 -254.5q0 -162 67.5 -255t190.5 -93q87 0 139 49t68 135h248q-22 -176 -141.5 -278.5
t-311.5 -102.5q-232 0 -377 147.5t-145 397.5z" />
    <glyph glyph-name="Cdotaccent" unicode="&#x10a;" horiz-adv-x="1445" 
d="M633 1587v256h278v-256h-278zM362 733q0 -253 108 -398t304 -145q148 0 229 73.5t105 195.5h264q-40 -223 -192 -353.5t-406 -130.5q-203 0 -359.5 94t-242.5 266.5t-86 397.5q0 223 86 394.5t242.5 265.5t359.5 94q254 0 406 -130t192 -353h-264q-24 122 -105 195
t-229 73q-196 0 -304 -144t-108 -395z" />
    <glyph glyph-name="cdotaccent" unicode="&#x10b;" horiz-adv-x="1140" 
d="M469 1217v256h279v-256h-279zM88 520q0 249 145 397t377 148q191 0 311 -103t142 -278h-248q-15 87 -67.5 135.5t-139.5 48.5q-123 0 -190.5 -93.5t-67.5 -254.5q0 -162 67.5 -255t190.5 -93q87 0 139 49t68 135h248q-22 -176 -141.5 -278.5t-311.5 -102.5
q-232 0 -377 147.5t-145 397.5z" />
    <glyph glyph-name="Ccaron" unicode="&#x10c;" horiz-adv-x="1445" 
d="M897 1563h-244l-198 315h151l170 -164l166 164h152zM362 733q0 -253 108 -398t304 -145q148 0 229 73.5t105 195.5h264q-40 -223 -192 -353.5t-406 -130.5q-203 0 -359.5 94t-242.5 266.5t-86 397.5q0 223 86 394.5t242.5 265.5t359.5 94q254 0 406 -130t192 -353h-264
q-24 122 -105 195t-229 73q-196 0 -304 -144t-108 -395z" />
    <glyph glyph-name="ccaron" unicode="&#x10d;" horiz-adv-x="1140" 
d="M727 1180h-238l-200 327h151l170 -178l166 178h152zM88 520q0 249 145 397t377 148q191 0 311 -103t142 -278h-248q-15 87 -67.5 135.5t-139.5 48.5q-123 0 -190.5 -93.5t-67.5 -254.5q0 -162 67.5 -255t190.5 -93q87 0 139 49t68 135h248q-22 -176 -141.5 -278.5
t-311.5 -102.5q-232 0 -377 147.5t-145 397.5z" />
    <glyph glyph-name="Dcaron" unicode="&#x10e;" horiz-adv-x="1544" 
d="M844 1563h-244l-199 315h152l170 -164l166 164h151zM729 1462q218 0 384 -91t256.5 -257t90.5 -383q0 -330 -200.5 -530.5t-530.5 -200.5h-563v1462h563zM729 1247h-297v-1032h297q217 0 335 135t118 381t-118 381t-335 135z" />
    <glyph glyph-name="dcaron" unicode="&#x10f;" horiz-adv-x="1327" 
d="M881 0v166q-40 -82 -130 -136.5t-204 -54.5q-204 0 -331.5 151t-127.5 394q0 242 127.5 393.5t331.5 151.5q116 0 203.5 -56t126.5 -139v637h262v-1507h-258zM1419 1092h-127l49 415h275zM883 502v37q0 154 -69.5 243.5t-192.5 89.5q-126 0 -197.5 -95.5t-71.5 -256.5
q0 -163 71.5 -257.5t197.5 -94.5q123 0 192.5 90t69.5 244z" />
    <glyph glyph-name="Dcroat" unicode="&#x110;" horiz-adv-x="1585" 
d="M1501 731q0 -330 -200.5 -530.5t-530.5 -200.5h-563v639h-150v207h150v616h563q218 0 384 -91t256.5 -257t90.5 -383zM473 215h297q217 0 335 135t118 381t-118 381t-335 135h-297v-401h256v-207h-256v-424z" />
    <glyph glyph-name="dcroat" unicode="&#x111;" horiz-adv-x="1329" 
d="M881 166q-40 -82 -130 -136.5t-204 -54.5q-204 0 -331.5 151t-127.5 394q0 242 127.5 393.5t331.5 151.5q116 0 203.5 -56t126.5 -139v314h-242v155h242v168h262v-168h147v-155h-147v-1184h-258v166zM883 502v37q0 154 -69.5 243.5t-192.5 89.5q-126 0 -197.5 -95.5
t-71.5 -256.5q0 -163 71.5 -257.5t197.5 -94.5q123 0 192.5 90t69.5 244z" />
    <glyph glyph-name="Emacron" unicode="&#x112;" horiz-adv-x="1345" 
d="M362 1595v177h668v-177h-668zM1225 0h-1059v1462h1051v-215h-785v-407h694v-215h-694v-410h793v-215z" />
    <glyph glyph-name="emacron" unicode="&#x113;" horiz-adv-x="1177" 
d="M295 1217v176h627v-176h-627zM1083 324q-33 -165 -160 -257t-309 -92q-232 0 -379 146.5t-147 396.5q0 249 147.5 398t372.5 149q95 0 175 -28t136 -77t95 -115.5t57.5 -143t18.5 -160.5v-84h-748q12 -139 81.5 -214t190.5 -75q173 0 228 156h241zM608 870
q-103 0 -169.5 -62t-88.5 -181h490q0 104 -59.5 173.5t-172.5 69.5z" />
    <glyph glyph-name="Ebreve" unicode="&#x114;" horiz-adv-x="1345" 
d="M696 1559q-136 0 -217.5 89t-81.5 238h166q0 -77 34.5 -119.5t98.5 -42.5q63 0 97 42.5t34 119.5h166q0 -149 -81 -238t-216 -89zM1225 0h-1059v1462h1051v-215h-785v-407h694v-215h-694v-410h793v-215z" />
    <glyph glyph-name="ebreve" unicode="&#x115;" horiz-adv-x="1177" 
d="M604 1180q-136 0 -217.5 89t-81.5 238h162q2 -78 36.5 -122t100.5 -44q65 0 99 44t36 122h162q0 -149 -81 -238t-216 -89zM1083 324q-33 -165 -160 -257t-309 -92q-232 0 -379 146.5t-147 396.5q0 249 147.5 398t372.5 149q95 0 175 -28t136 -77t95 -115.5t57.5 -143
t18.5 -160.5v-84h-748q12 -139 81.5 -214t190.5 -75q173 0 228 156h241zM608 870q-103 0 -169.5 -62t-88.5 -181h490q0 104 -59.5 173.5t-172.5 69.5z" />
    <glyph glyph-name="Edotaccent" unicode="&#x116;" horiz-adv-x="1345" 
d="M555 1587v256h279v-256h-279zM1225 0h-1059v1462h1051v-215h-785v-407h694v-215h-694v-410h793v-215z" />
    <glyph glyph-name="edotaccent" unicode="&#x117;" horiz-adv-x="1177" 
d="M469 1217v256h279v-256h-279zM1083 324q-33 -165 -160 -257t-309 -92q-232 0 -379 146.5t-147 396.5q0 249 147.5 398t372.5 149q95 0 175 -28t136 -77t95 -115.5t57.5 -143t18.5 -160.5v-84h-748q12 -139 81.5 -214t190.5 -75q173 0 228 156h241zM608 870
q-103 0 -169.5 -62t-88.5 -181h490q0 104 -59.5 173.5t-172.5 69.5z" />
    <glyph glyph-name="Eogonek" unicode="&#x118;" horiz-adv-x="1345" 
d="M1153 -371q-55 -18 -125 -18q-82 0 -138 43.5t-56 124.5q0 53 27 104.5t79 116.5h-774v1462h1051v-215h-785v-407h694v-215h-694v-410h793v-215h-131q-59 -77 -79 -111.5t-20 -66.5q0 -33 20.5 -50.5t55.5 -17.5q37 0 82 13v-138z" />
    <glyph glyph-name="eogonek" unicode="&#x119;" horiz-adv-x="1177" 
d="M911 -371q-55 -18 -125 -18q-82 0 -138 43.5t-56 124.5q0 86 90 201q-58 -5 -68 -5q-232 0 -379 146.5t-147 396.5q0 249 147.5 398t372.5 149q95 0 175 -28t136 -77t95 -115.5t57.5 -143t18.5 -160.5v-84h-748q12 -139 81.5 -214t190.5 -75q173 0 228 156h241
q-17 -87 -68 -153.5t-132 -135.5q-65 -56 -97 -113t-32 -100q0 -33 20 -50.5t55 -17.5q37 0 82 13v-138zM608 870q-103 0 -169.5 -62t-88.5 -181h490q0 104 -59.5 173.5t-172.5 69.5z" />
    <glyph glyph-name="Ecaron" unicode="&#x11a;" horiz-adv-x="1345" 
d="M817 1563h-244l-198 315h151l170 -164l166 164h152zM1225 0h-1059v1462h1051v-215h-785v-407h694v-215h-694v-410h793v-215z" />
    <glyph glyph-name="ecaron" unicode="&#x11b;" horiz-adv-x="1177" 
d="M731 1180h-237l-201 327h151l170 -178l166 178h152zM1083 324q-33 -165 -160 -257t-309 -92q-232 0 -379 146.5t-147 396.5q0 249 147.5 398t372.5 149q95 0 175 -28t136 -77t95 -115.5t57.5 -143t18.5 -160.5v-84h-748q12 -139 81.5 -214t190.5 -75q173 0 228 156h241z
M608 870q-103 0 -169.5 -62t-88.5 -181h490q0 104 -59.5 173.5t-172.5 69.5z" />
    <glyph glyph-name="Gcircumflex" unicode="&#x11c;" horiz-adv-x="1562" 
d="M680 1878h244l196 -315h-151l-166 163l-170 -163h-152zM86 733q0 337 196.5 545.5t510.5 208.5q256 0 411 -128.5t199 -352.5h-268q-27 127 -112.5 196.5t-229.5 69.5q-203 0 -317 -144.5t-114 -394.5q0 -253 112 -398t314 -145q161 0 262 86.5t101 221.5v51h-283v196
h553v-745h-211l-18 209q-39 -102 -160.5 -168t-259.5 -66q-307 0 -496.5 209t-189.5 549z" />
    <glyph glyph-name="gcircumflex" unicode="&#x11d;" horiz-adv-x="1300" 
d="M526 1507h238l201 -327h-152l-166 178l-170 -178h-151zM877 70v147q-40 -81 -126.5 -135.5t-203.5 -54.5q-206 0 -332.5 143.5t-126.5 376.5q0 230 127 374t332 144q117 0 205.5 -56.5t128.5 -138.5v170h258v-938q0 -125 -39 -220t-110 -153.5t-166.5 -88t-213.5 -29.5
q-211 0 -340.5 84t-158.5 239h260q40 -139 239 -139q128 0 197.5 68.5t69.5 206.5zM887 526v43q0 137 -75 221t-196 84q-125 0 -195.5 -88t-70.5 -239q0 -150 70.5 -239t195.5 -89q121 0 196 84t75 223z" />
    <glyph glyph-name="Gbreve" unicode="&#x11e;" horiz-adv-x="1562" 
d="M801 1559q-136 0 -217.5 89t-81.5 238h166q0 -77 34.5 -119.5t98.5 -42.5q63 0 97 42.5t34 119.5h166q0 -149 -81 -238t-216 -89zM86 733q0 337 196.5 545.5t510.5 208.5q256 0 411 -128.5t199 -352.5h-268q-27 127 -112.5 196.5t-229.5 69.5q-203 0 -317 -144.5
t-114 -394.5q0 -253 112 -398t314 -145q161 0 262 86.5t101 221.5v51h-283v196h553v-745h-211l-18 209q-39 -102 -160.5 -168t-259.5 -66q-307 0 -496.5 209t-189.5 549z" />
    <glyph glyph-name="gbreve" unicode="&#x11f;" horiz-adv-x="1300" 
d="M647 1180q-136 0 -217.5 89t-81.5 238h162q2 -78 36.5 -122t100.5 -44q65 0 99 44t36 122h162q0 -149 -81 -238t-216 -89zM877 70v147q-40 -81 -126.5 -135.5t-203.5 -54.5q-206 0 -332.5 143.5t-126.5 376.5q0 230 127 374t332 144q117 0 205.5 -56.5t128.5 -138.5v170
h258v-938q0 -125 -39 -220t-110 -153.5t-166.5 -88t-213.5 -29.5q-211 0 -340.5 84t-158.5 239h260q40 -139 239 -139q128 0 197.5 68.5t69.5 206.5zM887 526v43q0 137 -75 221t-196 84q-125 0 -195.5 -88t-70.5 -239q0 -150 70.5 -239t195.5 -89q121 0 196 84t75 223z" />
    <glyph glyph-name="Gdotaccent" unicode="&#x120;" horiz-adv-x="1562" 
d="M662 1587v256h278v-256h-278zM86 733q0 337 196.5 545.5t510.5 208.5q256 0 411 -128.5t199 -352.5h-268q-27 127 -112.5 196.5t-229.5 69.5q-203 0 -317 -144.5t-114 -394.5q0 -253 112 -398t314 -145q161 0 262 86.5t101 221.5v51h-283v196h553v-745h-211l-18 209
q-39 -102 -160.5 -168t-259.5 -66q-307 0 -496.5 209t-189.5 549z" />
    <glyph glyph-name="gdotaccent" unicode="&#x121;" horiz-adv-x="1300" 
d="M496 1217v256h278v-256h-278zM877 70v147q-40 -81 -126.5 -135.5t-203.5 -54.5q-206 0 -332.5 143.5t-126.5 376.5q0 230 127 374t332 144q117 0 205.5 -56.5t128.5 -138.5v170h258v-938q0 -125 -39 -220t-110 -153.5t-166.5 -88t-213.5 -29.5q-211 0 -340.5 84
t-158.5 239h260q40 -139 239 -139q128 0 197.5 68.5t69.5 206.5zM887 526v43q0 137 -75 221t-196 84q-125 0 -195.5 -88t-70.5 -239q0 -150 70.5 -239t195.5 -89q121 0 196 84t75 223z" />
    <glyph glyph-name="uni0122" unicode="&#x122;" horiz-adv-x="1562" 
d="M86 733q0 337 196.5 545.5t510.5 208.5q256 0 411 -128.5t199 -352.5h-268q-27 127 -112.5 196.5t-229.5 69.5q-203 0 -317 -144.5t-114 -394.5q0 -253 112 -398t314 -145q161 0 262 86.5t101 221.5v51h-283v196h553v-745h-211l-18 209q-39 -102 -160.5 -168t-259.5 -66
q-307 0 -496.5 209t-189.5 549zM668 -270v170h264v-119q0 -129 -66 -192.5t-204 -63.5v96q59 0 84.5 27t25.5 82h-104z" />
    <glyph glyph-name="uni0123" unicode="&#x123;" horiz-adv-x="1300" 
d="M764 1358v-170h-264v119q0 129 66 192.5t204 63.5v-97q-60 0 -85.5 -27t-25.5 -81h105zM877 70v147q-40 -81 -126.5 -135.5t-203.5 -54.5q-206 0 -332.5 143.5t-126.5 376.5q0 230 127 374t332 144q117 0 205.5 -56.5t128.5 -138.5v170h258v-938q0 -125 -39 -220
t-110 -153.5t-166.5 -88t-213.5 -29.5q-211 0 -340.5 84t-158.5 239h260q40 -139 239 -139q128 0 197.5 68.5t69.5 206.5zM887 526v43q0 137 -75 221t-196 84q-125 0 -195.5 -88t-70.5 -239q0 -150 70.5 -239t195.5 -89q121 0 196 84t75 223z" />
    <glyph glyph-name="Hcircumflex" unicode="&#x124;" horiz-adv-x="1624" 
d="M692 1878h244l197 -315h-152l-166 163l-170 -163h-151zM166 0v1462h272v-614h750v614h270v-1462h-270v635h-750v-635h-272z" />
    <glyph glyph-name="hcircumflex" unicode="&#x125;" horiz-adv-x="1273" 
d="M520 1898h244l197 -315h-152l-166 164l-170 -164h-151zM422 864q39 93 123 147t200 54q179 0 280 -105t101 -292v-668h-262v606q0 124 -53 188t-156 64q-105 0 -169 -72t-64 -221v-565h-262v1507h262v-643z" />
    <glyph glyph-name="Hbar" unicode="&#x126;" horiz-adv-x="1705" 
d="M477 504v-504h-270v977h-150v207h150v278h270v-278h750v278h272v-278h150v-207h-150v-977h-272v504h-750zM477 717h750v260h-750v-260z" />
    <glyph glyph-name="hbar" unicode="&#x127;" horiz-adv-x="1304" 
d="M453 565v-565h-263v1184h-147v153h147v170h263v-170h239v-153h-239v-320q39 93 123 147t200 54q179 0 280 -105t101 -292v-668h-262v606q0 124 -53 188t-156 64q-105 0 -169 -72t-64 -221z" />
    <glyph glyph-name="Itilde" unicode="&#x128;" horiz-adv-x="604" 
d="M170 1704q-39 0 -60 -35t-24 -96h-145q0 144 52 230.5t146 86.5q42 0 87.5 -21t77 -45.5t67 -45.5t61.5 -21q39 0 60 35t24 96h146q0 -145 -52.5 -231t-146.5 -86q-42 0 -87.5 21t-77 45.5t-67 45.5t-61.5 21zM166 0v1462h272v-1462h-272z" />
    <glyph glyph-name="itilde" unicode="&#x129;" horiz-adv-x="581" 
d="M195 1313q-75 0 -82 -135h-148q0 143 53.5 230t147.5 87q42 0 76.5 -21.5t53.5 -47t43.5 -47t49.5 -21.5q75 0 82 135h145q0 -145 -52 -231t-146 -86q-42 0 -76.5 21.5t-53.5 47t-43.5 47t-49.5 21.5zM160 1040h262v-1040h-262v1040z" />
    <glyph glyph-name="Imacron" unicode="&#x12a;" horiz-adv-x="604" 
d="M-33 1595v177h668v-177h-668zM166 0v1462h272v-1462h-272z" />
    <glyph glyph-name="imacron" unicode="&#x12b;" horiz-adv-x="581" 
d="M20 1217v176h547v-176h-547zM160 1040h262v-1040h-262v1040z" />
    <glyph glyph-name="Ibreve" unicode="&#x12c;" horiz-adv-x="604" 
d="M303 1559q-136 0 -217.5 89t-81.5 238h166q0 -77 34.5 -119.5t98.5 -42.5q63 0 97 42.5t34 119.5h166q0 -149 -81 -238t-216 -89zM166 0v1462h272v-1462h-272z" />
    <glyph glyph-name="ibreve" unicode="&#x12d;" horiz-adv-x="581" 
d="M293 1180q-136 0 -217.5 89t-81.5 238h162q2 -78 36.5 -122t100.5 -44q65 0 99 44t36 122h162q0 -149 -81 -238t-216 -89zM160 1040h262v-1040h-262v1040z" />
    <glyph glyph-name="Iogonek" unicode="&#x12e;" horiz-adv-x="604" 
d="M436 -371q-53 -18 -125 -18q-82 0 -137 43.5t-55 124.5q0 55 28.5 107t85.5 114h-67v1462h272v-1462q-157 -70 -157 -176q0 -32 21 -51t56 -19q32 0 78 13v-138z" />
    <glyph glyph-name="iogonek" unicode="&#x12f;" horiz-adv-x="581" 
d="M152 1217v256h278v-256h-278zM109 -221q0 56 28 108t84 113h-61v1040h262v-1040q-152 -69 -152 -176q0 -32 21.5 -51t56.5 -19q32 0 78 13v-138q-53 -18 -125 -18q-82 0 -137 43.5t-55 124.5z" />
    <glyph glyph-name="Idotaccent" unicode="&#x130;" horiz-adv-x="604" 
d="M162 1587v256h278v-256h-278zM166 0v1462h272v-1462h-272z" />
    <glyph glyph-name="dotlessi" unicode="&#x131;" horiz-adv-x="581" 
d="M160 1040h262v-1040h-262v1040z" />
    <glyph glyph-name="Jcircumflex" unicode="&#x134;" horiz-adv-x="1239" 
d="M829 1878h244l197 -315h-152l-166 163l-170 -163h-151zM821 518v944h271v-936q0 -254 -145 -402.5t-398 -148.5q-152 0 -268.5 55.5t-183.5 164.5t-70 258h258q4 -135 75.5 -206t188.5 -71q137 0 204.5 88.5t67.5 253.5z" />
    <glyph glyph-name="jcircumflex" unicode="&#x135;" horiz-adv-x="581" 
d="M168 1507h238l200 -327h-151l-166 178l-170 -178h-152zM92 -377q-70 0 -121 10v195q30 -6 64 -6q67 0 96 28t29 97v1093h262v-1097q0 -320 -330 -320z" />
    <glyph glyph-name="uni0136" unicode="&#x136;" horiz-adv-x="1511" 
d="M1155 0l-514 637l-203 -213v-424h-272v1462h272v-735l676 735h311l-604 -635l662 -827h-328zM629 -270v170h264v-119q0 -129 -66 -192.5t-204 -63.5v96q59 0 84.5 27t25.5 82h-104z" />
    <glyph glyph-name="uni0137" unicode="&#x137;" horiz-adv-x="1224" 
d="M885 0l-342 440l-121 -116v-324h-262v1507h262v-913l442 446h301l-440 -434l461 -606h-301zM537 -270v170h264v-119q0 -129 -66.5 -192.5t-204.5 -63.5v96q60 0 85.5 27t25.5 82h-104z" />
    <glyph glyph-name="kgreenlandic" unicode="&#x138;" horiz-adv-x="1224" 
d="M885 0l-342 440l-121 -116v-324h-262v1040h262v-446l442 446h301l-440 -434l461 -606h-301z" />
    <glyph glyph-name="Lacute" unicode="&#x139;" horiz-adv-x="1296" 
d="M385 1565h-162l109 313h295zM166 0v1462h272v-1247h754v-215h-1026z" />
    <glyph glyph-name="lacute" unicode="&#x13a;" horiz-adv-x="581" 
d="M375 1585h-162l109 313h294zM422 0h-262v1507h262v-1507z" />
    <glyph glyph-name="uni013B" unicode="&#x13b;" horiz-adv-x="1296" 
d="M166 0v1462h272v-1247h754v-215h-1026zM555 -270v170h264v-119q0 -129 -66 -192.5t-204 -63.5v96q59 0 84.5 27t25.5 82h-104z" />
    <glyph glyph-name="uni013C" unicode="&#x13c;" horiz-adv-x="581" 
d="M422 0h-262v1507h262v-1507zM162 -270v170h264v-119q0 -129 -66 -192.5t-204 -63.5v96q59 0 84.5 27t25.5 82h-104z" />
    <glyph glyph-name="Lcaron" unicode="&#x13d;" horiz-adv-x="1296" 
d="M166 0v1462h272v-1247h754v-215h-1026zM823 1047h-127l49 415h275z" />
    <glyph glyph-name="lcaron" unicode="&#x13e;" horiz-adv-x="612" 
d="M422 0h-262v1507h262v-1507zM702 1092h-127l50 415h274z" />
    <glyph glyph-name="Ldot" unicode="&#x13f;" horiz-adv-x="1296" 
d="M166 0v1462h272v-1247h754v-215h-1026zM803 664v256h278v-256h-278z" />
    <glyph glyph-name="ldot" unicode="&#x140;" horiz-adv-x="987" 
d="M422 0h-262v1507h262v-1507zM637 590v256h278v-256h-278z" />
    <glyph glyph-name="Lslash" unicode="&#x141;" horiz-adv-x="1286" 
d="M1233 215v-215h-1026v567l-150 -53v201l150 53v694h272v-606l332 119v-201l-332 -119v-440h754z" />
    <glyph glyph-name="lslash" unicode="&#x142;" horiz-adv-x="720" 
d="M680 870l-188 -88v-782h-263v672l-188 -88v190l188 90v643h263v-534l188 90v-193z" />
    <glyph glyph-name="Nacute" unicode="&#x143;" horiz-adv-x="1599" 
d="M848 1565h-162l109 313h295zM483 1462l688 -1036h5v1036h258v-1462h-252l-752 1133h-4v-1133h-260v1462h317z" />
    <glyph glyph-name="nacute" unicode="&#x144;" horiz-adv-x="1273" 
d="M715 1182h-172l108 325h301zM418 1040v-176q38 91 124.5 146t202.5 55q179 0 280 -105t101 -292v-668h-262v606q0 124 -53 188t-156 64q-105 0 -169 -72t-64 -221v-565h-262v1040h258z" />
    <glyph glyph-name="uni0145" unicode="&#x145;" horiz-adv-x="1599" 
d="M483 1462l688 -1036h5v1036h258v-1462h-252l-752 1133h-4v-1133h-260v1462h317zM668 -270v170h264v-119q0 -129 -66 -192.5t-204 -63.5v96q59 0 84.5 27t25.5 82h-104z" />
    <glyph glyph-name="uni0146" unicode="&#x146;" horiz-adv-x="1273" 
d="M418 1040v-176q38 91 124.5 146t202.5 55q179 0 280 -105t101 -292v-668h-262v606q0 124 -53 188t-156 64q-105 0 -169 -72t-64 -221v-565h-262v1040h258zM520 -270v170h264v-119q0 -129 -66 -192.5t-204 -63.5v96q60 0 85.5 27t25.5 82h-105z" />
    <glyph glyph-name="Ncaron" unicode="&#x147;" horiz-adv-x="1599" 
d="M913 1563h-243l-199 315h152l170 -164l165 164h152zM483 1462l688 -1036h5v1036h258v-1462h-252l-752 1133h-4v-1133h-260v1462h317z" />
    <glyph glyph-name="ncaron" unicode="&#x148;" horiz-adv-x="1273" 
d="M762 1180h-238l-200 327h151l170 -178l166 178h152zM418 1040v-176q38 91 124.5 146t202.5 55q179 0 280 -105t101 -292v-668h-262v606q0 124 -53 188t-156 64q-105 0 -169 -72t-64 -221v-565h-262v1040h258z" />
    <glyph glyph-name="Eng" unicode="&#x14a;" horiz-adv-x="1599" 
d="M1102 -377q-68 0 -119 10v195q30 -6 64 -6q68 0 98.5 28t30.5 97v73l-746 1113h-4v-1133h-260v1462h317l688 -1036h5v1036h258v-1519q0 -320 -332 -320z" />
    <glyph glyph-name="eng" unicode="&#x14b;" horiz-adv-x="1273" 
d="M795 -377q-70 0 -121 10v195q34 -6 63 -6q68 0 97.5 28t29.5 97v659q0 124 -53 188t-156 64q-105 0 -169 -72t-64 -221v-565h-262v1040h258v-176q38 91 124.5 146t202.5 55q179 0 280 -105t101 -292v-725q0 -320 -331 -320z" />
    <glyph glyph-name="Omacron" unicode="&#x14c;" horiz-adv-x="1566" 
d="M449 1595v177h667v-177h-667zM1483 731q0 -164 -49 -303.5t-138.5 -239.5t-221 -156.5t-290.5 -56.5q-211 0 -370.5 97t-243.5 268t-84 391q0 219 84 390t243.5 268.5t370.5 97.5q158 0 290 -56.5t221.5 -157t138.5 -240t49 -302.5zM1206 731q0 249 -108.5 395
t-313.5 146q-206 0 -314 -145.5t-108 -395.5q0 -251 108 -396t314 -145q205 0 313.5 145.5t108.5 395.5z" />
    <glyph glyph-name="omacron" unicode="&#x14d;" horiz-adv-x="1228" 
d="M301 1217v176h627v-176h-627zM1141 520q0 -250 -146.5 -397.5t-380.5 -147.5t-380 147.5t-146 397.5q0 249 146.5 397t379.5 148t380 -148t147 -397zM350 520q0 -165 68.5 -257.5t195.5 -92.5q126 0 195.5 92.5t69.5 257.5q0 164 -70 257t-195 93q-126 0 -195 -93
t-69 -257z" />
    <glyph glyph-name="Obreve" unicode="&#x14e;" horiz-adv-x="1566" 
d="M784 1559q-136 0 -217.5 89t-81.5 238h166q0 -77 34.5 -119.5t98.5 -42.5q63 0 97 42.5t34 119.5h166q0 -149 -81 -238t-216 -89zM1483 731q0 -164 -49 -303.5t-138.5 -239.5t-221 -156.5t-290.5 -56.5q-211 0 -370.5 97t-243.5 268t-84 391q0 219 84 390t243.5 268.5
t370.5 97.5q158 0 290 -56.5t221.5 -157t138.5 -240t49 -302.5zM1206 731q0 249 -108.5 395t-313.5 146q-206 0 -314 -145.5t-108 -395.5q0 -251 108 -396t314 -145q205 0 313.5 145.5t108.5 395.5z" />
    <glyph glyph-name="obreve" unicode="&#x14f;" horiz-adv-x="1228" 
d="M616 1180q-136 0 -217.5 89t-81.5 238h162q2 -78 36.5 -122t100.5 -44q65 0 99.5 44t36.5 122h161q0 -149 -81 -238t-216 -89zM1141 520q0 -250 -146.5 -397.5t-380.5 -147.5t-380 147.5t-146 397.5q0 249 146.5 397t379.5 148t380 -148t147 -397zM350 520
q0 -165 68.5 -257.5t195.5 -92.5q126 0 195.5 92.5t69.5 257.5q0 164 -70 257t-195 93q-126 0 -195 -93t-69 -257z" />
    <glyph glyph-name="Ohungarumlaut" unicode="&#x150;" horiz-adv-x="1566" 
d="M874 1565l111 313h268l-227 -313h-152zM510 1565l111 313h266l-225 -313h-152zM1483 731q0 -164 -49 -303.5t-138.5 -239.5t-221 -156.5t-290.5 -56.5q-211 0 -370.5 97t-243.5 268t-84 391q0 219 84 390t243.5 268.5t370.5 97.5q158 0 290 -56.5t221.5 -157t138.5 -240
t49 -302.5zM1206 731q0 249 -108.5 395t-313.5 146q-206 0 -314 -145.5t-108 -395.5q0 -251 108 -396t314 -145q205 0 313.5 145.5t108.5 395.5z" />
    <glyph glyph-name="ohungarumlaut" unicode="&#x151;" horiz-adv-x="1228" 
d="M707 1182l110 325h268l-227 -325h-151zM342 1182l111 325h266l-225 -325h-152zM1141 520q0 -250 -146.5 -397.5t-380.5 -147.5t-380 147.5t-146 397.5q0 249 146.5 397t379.5 148t380 -148t147 -397zM350 520q0 -165 68.5 -257.5t195.5 -92.5q126 0 195.5 92.5
t69.5 257.5q0 164 -70 257t-195 93q-126 0 -195 -93t-69 -257z" />
    <glyph glyph-name="OE" unicode="&#x152;" horiz-adv-x="2291" 
d="M815 0q-329 0 -529 201t-200 530q0 330 199.5 530.5t529.5 200.5h1348v-215h-785v-407h695v-215h-695v-410h793v-215h-1356zM815 215h297v1032h-297q-217 0 -335 -135t-118 -381t118 -381t335 -135z" />
    <glyph glyph-name="oe" unicode="&#x153;" horiz-adv-x="1966" 
d="M1874 324q-35 -165 -161.5 -257t-307.5 -92q-250 0 -395 209q-151 -209 -396 -209q-234 0 -380 147.5t-146 397.5q0 249 146.5 397t379.5 148q247 0 396 -213q145 213 387 213q96 0 176 -28t135.5 -77t94.5 -115t57 -142.5t18 -159.5v-78h-750q11 -142 82 -219.5
t195 -77.5q170 0 225 156h244zM1397 874q-107 0 -176 -68.5t-88 -197.5h499q-3 116 -63.5 191t-171.5 75zM350 520q0 -165 68.5 -257.5t195.5 -92.5q124 0 193.5 93.5t69.5 256.5t-69.5 256.5t-193.5 93.5q-126 0 -195 -93t-69 -257z" />
    <glyph glyph-name="Racute" unicode="&#x154;" horiz-adv-x="1452" 
d="M756 1565h-162l108 313h295zM432 0h-266v1462h627q259 0 400.5 -118t141.5 -340q0 -160 -87.5 -266.5t-223.5 -149.5l367 -588h-297l-334 547h-328v-547zM432 760h330q305 0 305 244q0 243 -305 243h-330v-487z" />
    <glyph glyph-name="racute" unicode="&#x155;" horiz-adv-x="856" 
d="M553 1182h-172l108 325h302zM815 1051v-242q-41 8 -100 8q-127 0 -210 -87t-83 -249v-481h-262v1040h258v-233q36 120 120.5 186t198.5 66q47 0 78 -8z" />
    <glyph glyph-name="uni0156" unicode="&#x156;" horiz-adv-x="1452" 
d="M432 0h-266v1462h627q259 0 400.5 -118t141.5 -340q0 -160 -87.5 -266.5t-223.5 -149.5l367 -588h-297l-334 547h-328v-547zM432 760h330q305 0 305 244q0 243 -305 243h-330v-487zM604 -270v170h264v-119q0 -129 -66 -192.5t-204 -63.5v96q60 0 85.5 27t25.5 82h-105z
" />
    <glyph glyph-name="uni0157" unicode="&#x157;" horiz-adv-x="856" 
d="M815 1051v-242q-41 8 -100 8q-127 0 -210 -87t-83 -249v-481h-262v1040h258v-233q36 120 120.5 186t198.5 66q47 0 78 -8zM162 -270v170h264v-119q0 -129 -66 -192.5t-204 -63.5v96q59 0 84.5 27t25.5 82h-104z" />
    <glyph glyph-name="Rcaron" unicode="&#x158;" horiz-adv-x="1452" 
d="M821 1563h-243l-199 315h151l170 -164l166 164h152zM432 0h-266v1462h627q259 0 400.5 -118t141.5 -340q0 -160 -87.5 -266.5t-223.5 -149.5l367 -588h-297l-334 547h-328v-547zM432 760h330q305 0 305 244q0 243 -305 243h-330v-487z" />
    <glyph glyph-name="rcaron" unicode="&#x159;" horiz-adv-x="856" 
d="M610 1180h-237l-201 327h152l170 -178l165 178h152zM815 1051v-242q-41 8 -100 8q-127 0 -210 -87t-83 -249v-481h-262v1040h258v-233q36 120 120.5 186t198.5 66q47 0 78 -8z" />
    <glyph glyph-name="Sacute" unicode="&#x15a;" horiz-adv-x="1366" 
d="M760 1565h-162l109 313h294zM70 442h262q7 -72 40 -125t85.5 -83t114 -44t133.5 -14q136 0 222.5 59t86.5 166q0 81 -55 128t-185 71l-268 49q-86 16 -152.5 43.5t-122 73.5t-85 117t-29.5 164q0 194 154.5 317t394.5 123q261 0 412 -110t173 -316h-256
q-13 106 -101 164.5t-226 58.5q-131 0 -209 -61.5t-78 -159.5q0 -86 53.5 -126t179.5 -65l283 -55q187 -35 285 -131.5t98 -267.5q0 -197 -160.5 -320t-406.5 -123q-179 0 -316 48.5t-225.5 155.5t-101.5 263z" />
    <glyph glyph-name="sacute" unicode="&#x15b;" horiz-adv-x="1095" 
d="M623 1182h-172l108 325h301zM76 315h250q9 -77 75 -117t158 -40q86 0 141.5 34t55.5 95q0 49 -36.5 75t-123.5 41l-184 33q-299 54 -299 297q0 147 119.5 239.5t302.5 92.5q200 0 314.5 -83.5t131.5 -236.5h-240q-8 62 -63 99t-141 37q-83 0 -133 -33.5t-50 -87.5
q0 -52 38 -77.5t122 -39.5l203 -35q138 -24 211 -100t73 -203q0 -147 -124.5 -238.5t-313.5 -91.5q-209 0 -339.5 87t-147.5 253z" />
    <glyph glyph-name="Scircumflex" unicode="&#x15c;" horiz-adv-x="1366" 
d="M582 1878h243l197 -315h-152l-165 163l-170 -163h-152zM70 442h262q7 -72 40 -125t85.5 -83t114 -44t133.5 -14q136 0 222.5 59t86.5 166q0 81 -55 128t-185 71l-268 49q-86 16 -152.5 43.5t-122 73.5t-85 117t-29.5 164q0 194 154.5 317t394.5 123q261 0 412 -110
t173 -316h-256q-13 106 -101 164.5t-226 58.5q-131 0 -209 -61.5t-78 -159.5q0 -86 53.5 -126t179.5 -65l283 -55q187 -35 285 -131.5t98 -267.5q0 -197 -160.5 -320t-406.5 -123q-179 0 -316 48.5t-225.5 155.5t-101.5 263z" />
    <glyph glyph-name="scircumflex" unicode="&#x15d;" horiz-adv-x="1095" 
d="M434 1507h238l200 -327h-151l-166 178l-170 -178h-152zM76 315h250q9 -77 75 -117t158 -40q86 0 141.5 34t55.5 95q0 49 -36.5 75t-123.5 41l-184 33q-299 54 -299 297q0 147 119.5 239.5t302.5 92.5q200 0 314.5 -83.5t131.5 -236.5h-240q-8 62 -63 99t-141 37
q-83 0 -133 -33.5t-50 -87.5q0 -52 38 -77.5t122 -39.5l203 -35q138 -24 211 -100t73 -203q0 -147 -124.5 -238.5t-313.5 -91.5q-209 0 -339.5 87t-147.5 253z" />
    <glyph glyph-name="uni015E" unicode="&#x15e;" horiz-adv-x="1366" 
d="M922 -227q0 -88 -75 -135.5t-179 -47.5q-102 0 -189 37v119q107 -43 185 -43q47 0 76.5 16.5t29.5 47.5q0 33 -29.5 48.5t-67 14.5t-71.5 -12l-47 45l70 117q-156 12 -273.5 63.5t-193.5 153.5t-88 245h262q7 -72 40 -125t85.5 -83t114 -44t133.5 -14q136 0 222.5 59
t86.5 166q0 81 -55 128t-185 71l-268 49q-86 16 -152.5 43.5t-122 73.5t-85 117t-29.5 164q0 194 154.5 317t394.5 123q261 0 412 -110t173 -316h-256q-13 106 -101 164.5t-226 58.5q-131 0 -209 -61.5t-78 -159.5q0 -86 53.5 -126t179.5 -65l283 -55q187 -35 285 -131.5
t98 -267.5q0 -194 -155.5 -316t-393.5 -127l-35 -55q87 9 156.5 -28t69.5 -119z" />
    <glyph glyph-name="uni015F" unicode="&#x15f;" horiz-adv-x="1095" 
d="M774 -227q0 -88 -75 -135.5t-179 -47.5q-101 0 -188 37v119q107 -43 184 -43q47 0 77 16.5t30 47.5q0 33 -29.5 48.5t-67 14.5t-71.5 -12l-47 45l71 117q-175 18 -281.5 102.5t-121.5 232.5h250q9 -77 75 -117t158 -40q86 0 141.5 34t55.5 95q0 49 -36.5 75t-123.5 41
l-184 33q-299 54 -299 297q0 147 119.5 239.5t302.5 92.5q200 0 314.5 -83.5t131.5 -236.5h-240q-8 62 -63 99t-141 37q-83 0 -133 -33.5t-50 -87.5q0 -52 38 -77.5t122 -39.5l203 -35q138 -24 211 -100t73 -203q0 -143 -117.5 -233.5t-299.5 -96.5l-35 -55q87 9 156 -28
t69 -119z" />
    <glyph glyph-name="Scaron" unicode="&#x160;" horiz-adv-x="1366" 
d="M825 1563h-243l-199 315h152l170 -164l165 164h152zM70 442h262q7 -72 40 -125t85.5 -83t114 -44t133.5 -14q136 0 222.5 59t86.5 166q0 81 -55 128t-185 71l-268 49q-86 16 -152.5 43.5t-122 73.5t-85 117t-29.5 164q0 194 154.5 317t394.5 123q261 0 412 -110t173 -316
h-256q-13 106 -101 164.5t-226 58.5q-131 0 -209 -61.5t-78 -159.5q0 -86 53.5 -126t179.5 -65l283 -55q187 -35 285 -131.5t98 -267.5q0 -197 -160.5 -320t-406.5 -123q-179 0 -316 48.5t-225.5 155.5t-101.5 263z" />
    <glyph glyph-name="scaron" unicode="&#x161;" horiz-adv-x="1095" 
d="M664 1180h-238l-201 327h152l170 -178l166 178h151zM76 315h250q9 -77 75 -117t158 -40q86 0 141.5 34t55.5 95q0 49 -36.5 75t-123.5 41l-184 33q-299 54 -299 297q0 147 119.5 239.5t302.5 92.5q200 0 314.5 -83.5t131.5 -236.5h-240q-8 62 -63 99t-141 37
q-83 0 -133 -33.5t-50 -87.5q0 -52 38 -77.5t122 -39.5l203 -35q138 -24 211 -100t73 -203q0 -147 -124.5 -238.5t-313.5 -91.5q-209 0 -339.5 87t-147.5 253z" />
    <glyph glyph-name="Tcommaaccent" unicode="&#x162;" horiz-adv-x="1476" 
d="M940 -227q0 -88 -75 -135.5t-179 -47.5q-101 0 -188 37v119q107 -43 184 -43q47 0 76.5 16.5t29.5 47.5q0 33 -29.5 48.5t-66.5 14.5t-71 -12l-48 45l84 137h-55v1247h-524v215h1321v-215h-527v-1247h-108l-49 -80q87 9 156 -28t69 -119z" />
    <glyph glyph-name="tcommaaccent" unicode="&#x163;" horiz-adv-x="796" 
d="M641 -227q0 -88 -75 -135.5t-179 -47.5q-101 0 -188 37v119q107 -43 184 -43q47 0 76.5 16.5t29.5 47.5q0 33 -29.5 48.5t-66.5 14.5t-71 -12l-48 45l84 139q-178 55 -178 283v567h-143v188h143v260h260v-260h248v-188h-250v-526q0 -71 33 -101t102 -30q67 0 138 20v-201
q-98 -30 -207 -30q-33 0 -47 2l-41 -66q87 9 156 -28t69 -119z" />
    <glyph glyph-name="Tcaron" unicode="&#x164;" horiz-adv-x="1476" 
d="M860 1563h-244l-198 315h151l170 -164l166 164h152zM602 0v1247h-524v215h1321v-215h-527v-1247h-270z" />
    <glyph glyph-name="tcaron" unicode="&#x165;" horiz-adv-x="796" 
d="M659 1153h-127l50 416h274zM711 215v-201q-98 -30 -207 -30q-164 0 -244 73t-80 228v567h-143v188h143v260h260v-260h248v-188h-250v-526q0 -71 33 -101t102 -30q67 0 138 20z" />
    <glyph glyph-name="Tbar" unicode="&#x166;" horiz-adv-x="1476" 
d="M1104 639h-232v-639h-270v639h-231v207h231v401h-524v215h1321v-215h-527v-401h232v-207z" />
    <glyph glyph-name="tbar" unicode="&#x167;" horiz-adv-x="862" 
d="M752 14q-98 -30 -207 -30q-164 0 -244 73t-80 228v221h-145v172h145v186h-145v176h145v260h260v-260h248v-176h-250v-186h246v-172h-246v-180q0 -71 33 -101t102 -30q67 0 138 20v-201z" />
    <glyph glyph-name="Utilde" unicode="&#x168;" horiz-adv-x="1544" 
d="M641 1704q-39 0 -60 -35t-24 -96h-145q0 144 52 230.5t146 86.5q42 0 87.5 -21t77 -45.5t67 -45.5t61.5 -21q39 0 60 35t24 96h146q0 -145 -52.5 -231t-146.5 -86q-42 0 -87.5 21t-77 45.5t-67 45.5t-61.5 21zM1397 590q0 -297 -163.5 -456t-461.5 -159
q-297 0 -461 159.5t-164 459.5v868h273v-870q0 -194 88.5 -296.5t263.5 -102.5t264.5 102.5t89.5 296.5v870h271v-872z" />
    <glyph glyph-name="utilde" unicode="&#x169;" horiz-adv-x="1261" 
d="M498 1313q-77 0 -84 -135h-146q0 144 52.5 230.5t146.5 86.5q42 0 87.5 -21.5t77 -47t67 -47t61.5 -21.5q77 0 84 135h145q0 -145 -52 -231t-146 -86q-42 0 -87.5 21.5t-77 47t-67 47t-61.5 21.5zM1102 0h-258v174q-37 -91 -123 -145t-201 -54q-175 0 -272.5 103.5
t-97.5 292.5v669h264v-612q0 -250 200 -250q101 0 162.5 73.5t61.5 223.5v565h264v-1040z" />
    <glyph glyph-name="Umacron" unicode="&#x16a;" horiz-adv-x="1544" 
d="M438 1595v177h668v-177h-668zM1397 590q0 -297 -163.5 -456t-461.5 -159q-297 0 -461 159.5t-164 459.5v868h273v-870q0 -194 88.5 -296.5t263.5 -102.5t264.5 102.5t89.5 296.5v870h271v-872z" />
    <glyph glyph-name="umacron" unicode="&#x16b;" horiz-adv-x="1261" 
d="M319 1217v176h627v-176h-627zM1102 0h-258v174q-37 -91 -123 -145t-201 -54q-175 0 -272.5 103.5t-97.5 292.5v669h264v-612q0 -250 200 -250q101 0 162.5 73.5t61.5 223.5v565h264v-1040z" />
    <glyph glyph-name="Ubreve" unicode="&#x16c;" horiz-adv-x="1544" 
d="M774 1559q-136 0 -217.5 89t-81.5 238h166q0 -77 34.5 -119.5t98.5 -42.5q63 0 97 42.5t34 119.5h166q0 -149 -81 -238t-216 -89zM1397 590q0 -297 -163.5 -456t-461.5 -159q-297 0 -461 159.5t-164 459.5v868h273v-870q0 -194 88.5 -296.5t263.5 -102.5t264.5 102.5
t89.5 296.5v870h271v-872z" />
    <glyph glyph-name="ubreve" unicode="&#x16d;" horiz-adv-x="1261" 
d="M635 1180q-136 0 -217.5 89t-81.5 238h162q2 -78 36.5 -122t100.5 -44q65 0 99 44t36 122h162q0 -149 -81 -238t-216 -89zM1102 0h-258v174q-37 -91 -123 -145t-201 -54q-175 0 -272.5 103.5t-97.5 292.5v669h264v-612q0 -250 200 -250q101 0 162.5 73.5t61.5 223.5v565
h264v-1040z" />
    <glyph glyph-name="Uring" unicode="&#x16e;" horiz-adv-x="1544" 
d="M774 1473q-109 0 -186.5 77.5t-77.5 186.5t77.5 186.5t186.5 77.5t185.5 -77.5t76.5 -186.5t-76.5 -186.5t-185.5 -77.5zM774 1868q-55 0 -94 -38.5t-39 -92.5t39 -93.5t94 -39.5q54 0 92.5 39.5t38.5 93.5t-38.5 92.5t-92.5 38.5zM1397 590q0 -297 -163.5 -456
t-461.5 -159q-297 0 -461 159.5t-164 459.5v868h273v-870q0 -194 88.5 -296.5t263.5 -102.5t264.5 102.5t89.5 296.5v870h271v-872z" />
    <glyph glyph-name="uring" unicode="&#x16f;" horiz-adv-x="1261" 
d="M403 1384q0 95 67 161.5t161 66.5t159.5 -66.5t65.5 -161.5q0 -93 -66 -159t-159 -66q-94 0 -161 66.5t-67 158.5zM737 1384q0 46 -31 77.5t-75 31.5q-45 0 -77 -32t-32 -77q0 -43 32.5 -74.5t76.5 -31.5t75 31.5t31 74.5zM1102 0h-258v174q-37 -91 -123 -145t-201 -54
q-175 0 -272.5 103.5t-97.5 292.5v669h264v-612q0 -250 200 -250q101 0 162.5 73.5t61.5 223.5v565h264v-1040z" />
    <glyph glyph-name="Uhungarumlaut" unicode="&#x170;" horiz-adv-x="1544" 
d="M848 1565l110 313h269l-228 -313h-151zM483 1565l111 313h266l-225 -313h-152zM1397 590q0 -297 -163.5 -456t-461.5 -159q-297 0 -461 159.5t-164 459.5v868h273v-870q0 -194 88.5 -296.5t263.5 -102.5t264.5 102.5t89.5 296.5v870h271v-872z" />
    <glyph glyph-name="uhungarumlaut" unicode="&#x171;" horiz-adv-x="1261" 
d="M702 1182l111 325h268l-227 -325h-152zM338 1182l111 325h266l-226 -325h-151zM1102 0h-258v174q-37 -91 -123 -145t-201 -54q-175 0 -272.5 103.5t-97.5 292.5v669h264v-612q0 -250 200 -250q101 0 162.5 73.5t61.5 223.5v565h264v-1040z" />
    <glyph glyph-name="Uogonek" unicode="&#x172;" horiz-adv-x="1544" 
d="M1124 -371q-55 -18 -125 -18q-82 0 -138 43.5t-56 124.5q0 94 90 205q-59 -9 -123 -9q-297 0 -461 159.5t-164 459.5v868h273v-870q0 -194 88.5 -296.5t263.5 -102.5t264.5 102.5t89.5 296.5v870h271v-872q0 -206 -78.5 -345.5t-228.5 -207.5q-62 -50 -91.5 -107.5
t-29.5 -105.5q0 -33 20 -51.5t53 -18.5q36 0 82 13v-138z" />
    <glyph glyph-name="uogonek" unicode="&#x173;" horiz-adv-x="1261" 
d="M1040 -371q-55 -18 -125 -18q-82 0 -138 43.5t-56 124.5q0 58 30.5 112.5t92.5 126.5v156q-37 -91 -123 -145t-201 -54q-175 0 -272.5 103.5t-97.5 292.5v669h264v-612q0 -250 200 -250q101 0 162.5 73.5t61.5 223.5v565h264v-1040h-121q-58 -76 -78 -111t-20 -67
q0 -33 20 -50.5t55 -17.5q36 0 82 13v-138z" />
    <glyph glyph-name="Wcircumflex" unicode="&#x174;" horiz-adv-x="2050" 
d="M905 1878h244l197 -315h-152l-166 163l-170 -163h-151zM1313 0l-287 1128h-4l-287 -1128h-297l-403 1462h278l293 -1134h4l285 1134h274l285 -1134h4l291 1134h266l-403 -1462h-299z" />
    <glyph glyph-name="wcircumflex" unicode="&#x175;" horiz-adv-x="1665" 
d="M715 1507h237l201 -327h-152l-165 178l-170 -178h-152zM958 1040l199 -772h4l211 772h252l-317 -1040h-267l-204 752h-7l-202 -752h-269l-317 1040h260l211 -772h4l199 772h243z" />
    <glyph glyph-name="Ycircumflex" unicode="&#x176;" horiz-adv-x="1445" 
d="M602 1878h244l196 -315h-151l-166 163l-170 -163h-152zM858 0h-272v600l-566 862h304l405 -624h4l395 624h297l-567 -862v-600z" />
    <glyph glyph-name="ycircumflex" unicode="&#x177;" horiz-adv-x="1175" 
d="M489 1507h238l201 -327h-152l-166 178l-170 -178h-151zM446 2l-405 1038h266l289 -784h4l274 784h261l-406 -1058q-74 -195 -174 -278.5t-264 -84.5q-59 0 -121 10v199q31 -6 70 -6q80 0 122.5 36.5t83.5 143.5z" />
    <glyph glyph-name="Ydieresis" unicode="&#x178;" horiz-adv-x="1445" 
d="M807 1587v256h242v-256h-242zM397 1587v256h242v-256h-242zM858 0h-272v600l-566 862h304l405 -624h4l395 624h297l-567 -862v-600z" />
    <glyph glyph-name="Zacute" unicode="&#x179;" horiz-adv-x="1388" 
d="M750 1565h-162l108 313h295zM1278 1257l-846 -1042h858v-215h-1194v190l850 1057h-823v215h1155v-205z" />
    <glyph glyph-name="zacute" unicode="&#x17a;" horiz-adv-x="1093" 
d="M616 1182h-172l109 325h301zM977 858l-561 -665h581v-193h-901v170l561 678h-542v192h862v-182z" />
    <glyph glyph-name="Zdotaccent" unicode="&#x17b;" horiz-adv-x="1388" 
d="M553 1587v256h278v-256h-278zM1278 1257l-846 -1042h858v-215h-1194v190l850 1057h-823v215h1155v-205z" />
    <glyph glyph-name="zdotaccent" unicode="&#x17c;" horiz-adv-x="1093" 
d="M414 1217v256h278v-256h-278zM977 858l-561 -665h581v-193h-901v170l561 678h-542v192h862v-182z" />
    <glyph glyph-name="Zcaron" unicode="&#x17d;" horiz-adv-x="1388" 
d="M825 1563h-243l-199 315h152l170 -164l165 164h152zM1278 1257l-846 -1042h858v-215h-1194v190l850 1057h-823v215h1155v-205z" />
    <glyph glyph-name="zcaron" unicode="&#x17e;" horiz-adv-x="1093" 
d="M672 1180h-238l-201 327h152l170 -178l166 178h151zM977 858l-561 -665h581v-193h-901v170l561 678h-542v192h862v-182z" />
    <glyph glyph-name="uni0192" unicode="&#x192;" horiz-adv-x="1044" 
d="M825 629h-252l-149 -854h-254l154 854h-166v198h200l62 344q32 177 137 269t262 92q75 0 150 -27v-235q-56 22 -121 22q-79 0 -125.5 -46.5t-65.5 -145.5l-47 -273h215v-198z" />
    <glyph glyph-name="AEacute" unicode="&#x1fc;" horiz-adv-x="2289" 
d="M1614 1565h-162l109 313h294zM1110 0v369h-580l-235 -369h-275l930 1462h1211v-215h-785v-407h695v-215h-695v-410h793v-215h-1059zM1110 1280l-444 -698h444v698z" />
    <glyph glyph-name="aeacute" unicode="&#x1fd;" horiz-adv-x="1843" 
d="M987 1182h-172l109 325h301zM1749 324q-33 -165 -160 -257t-309 -92q-126 0 -232 50t-176 139q-147 -187 -401 -187q-171 0 -279 81.5t-108 228.5q0 160 126.5 239.5t356.5 79.5h203v76q0 94 -52.5 142t-144.5 48q-85 0 -135.5 -43t-56.5 -118h-252q17 167 136.5 260.5
t307.5 93.5q235 0 347 -143q143 143 352 143q119 0 213 -42.5t152 -116t88 -166.5t30 -199v-78h-749q11 -141 81 -218t193 -77q169 0 227 156h242zM1272 874q-107 0 -175 -68.5t-87 -199.5h499q-3 119 -64 193.5t-173 74.5zM514 160q110 0 183 62t73 179v62h-211
q-98 0 -157.5 -37.5t-59.5 -118.5q0 -65 45.5 -106t126.5 -41z" />
    <glyph glyph-name="Oslashacute" unicode="&#x1fe;" horiz-adv-x="1566" 
d="M858 1565h-162l109 313h295zM784 -25q-236 0 -405 121l-127 -157l-123 94l135 168q-178 206 -178 530q0 219 84 390t243.5 268.5t370.5 97.5q241 0 414 -125l119 147l121 -94l-127 -160q172 -206 172 -524q0 -164 -49 -303.5t-138.5 -239.5t-221 -156.5t-290.5 -56.5z
M362 731q0 -193 66 -328l623 775q-105 94 -267 94q-206 0 -314 -145.5t-108 -395.5zM1206 731q0 190 -61 318l-621 -770q106 -89 260 -89q205 0 313.5 145.5t108.5 395.5z" />
    <glyph glyph-name="oslashacute" unicode="&#x1ff;" horiz-adv-x="1228" 
d="M690 1182h-172l109 325h301zM614 -25q-175 0 -303 84l-110 -129l-101 93l111 127q-123 145 -123 370q0 249 146.5 397t379.5 148q181 0 312 -90l102 119l100 -93l-102 -118q115 -147 115 -363q0 -250 -146.5 -397.5t-380.5 -147.5zM340 520q0 -107 31 -186l415 481
q-70 64 -172 64q-130 0 -202 -96.5t-72 -262.5zM889 520q0 100 -27 174l-413 -477q71 -55 165 -55q130 0 202.5 95.5t72.5 262.5z" />
    <glyph glyph-name="uni0218" unicode="&#x218;" horiz-adv-x="1366" 
d="M70 442h262q7 -72 40 -125t85.5 -83t114 -44t133.5 -14q136 0 222.5 59t86.5 166q0 81 -55 128t-185 71l-268 49q-86 16 -152.5 43.5t-122 73.5t-85 117t-29.5 164q0 194 154.5 317t394.5 123q261 0 412 -110t173 -316h-256q-13 106 -101 164.5t-226 58.5
q-131 0 -209 -61.5t-78 -159.5q0 -86 53.5 -126t179.5 -65l283 -55q187 -35 285 -131.5t98 -267.5q0 -197 -160.5 -320t-406.5 -123q-179 0 -316 48.5t-225.5 155.5t-101.5 263zM563 -270v170h264v-119q0 -129 -66 -192.5t-204 -63.5v96q60 0 85.5 27t25.5 82h-105z" />
    <glyph glyph-name="uni0219" unicode="&#x219;" horiz-adv-x="1095" 
d="M76 315h250q9 -77 75 -117t158 -40q86 0 141.5 34t55.5 95q0 49 -36.5 75t-123.5 41l-184 33q-299 54 -299 297q0 147 119.5 239.5t302.5 92.5q200 0 314.5 -83.5t131.5 -236.5h-240q-8 62 -63 99t-141 37q-83 0 -133 -33.5t-50 -87.5q0 -52 38 -77.5t122 -39.5l203 -35
q138 -24 211 -100t73 -203q0 -147 -124.5 -238.5t-313.5 -91.5q-209 0 -339.5 87t-147.5 253zM440 -270v170h265v-119q0 -129 -66.5 -192.5t-204.5 -63.5v96q60 0 85.5 27t25.5 82h-105z" />
    <glyph glyph-name="uni021A" unicode="&#x21a;" horiz-adv-x="1476" 
d="M602 0v1247h-524v215h1321v-215h-527v-1247h-270zM612 -270v170h265v-119q0 -129 -66.5 -192.5t-204.5 -63.5v96q60 0 85.5 27t25.5 82h-105z" />
    <glyph glyph-name="uni021B" unicode="&#x21b;" horiz-adv-x="796" 
d="M711 215v-201q-98 -30 -207 -30q-164 0 -244 73t-80 228v567h-143v188h143v260h260v-260h248v-188h-250v-526q0 -71 33 -101t102 -30q67 0 138 20zM313 -270v170h265v-119q0 -129 -66.5 -192.5t-204.5 -63.5v96q60 0 85.5 27t25.5 82h-105z" />
    <glyph glyph-name="uni0237" unicode="&#x237;" horiz-adv-x="581" 
d="M92 -377q-70 0 -121 10v195q30 -6 64 -6q67 0 96 28t29 97v1093h262v-1097q0 -320 -330 -320z" />
    <glyph glyph-name="circumflex" unicode="&#x2c6;" horiz-adv-x="1155" 
d="M459 1507h237l201 -327h-152l-165 178l-170 -178h-152z" />
    <glyph glyph-name="caron" unicode="&#x2c7;" horiz-adv-x="1155" 
d="M696 1180h-237l-201 327h152l170 -178l165 178h152z" />
    <glyph glyph-name="breve" unicode="&#x2d8;" horiz-adv-x="1155" 
d="M569 1180q-136 0 -217.5 89t-81.5 238h162q2 -78 36.5 -122t100.5 -44q65 0 99.5 44t36.5 122h161q0 -149 -81 -238t-216 -89z" />
    <glyph glyph-name="dotaccent" unicode="&#x2d9;" horiz-adv-x="1155" 
d="M438 1217v256h279v-256h-279z" />
    <glyph glyph-name="ring" unicode="&#x2da;" horiz-adv-x="1155" 
d="M352 1384q0 95 67 161.5t161 66.5t159.5 -66.5t65.5 -161.5q0 -93 -66 -159t-159 -66q-94 0 -161 66.5t-67 158.5zM686 1384q0 46 -31 77.5t-75 31.5q-45 0 -77 -32t-32 -77q0 -43 32.5 -74.5t76.5 -31.5t75 31.5t31 74.5z" />
    <glyph glyph-name="ogonek" unicode="&#x2db;" horiz-adv-x="1155" 
d="M453 -221q0 61 34.5 119t106.5 143h149q-81 -104 -105 -143.5t-24 -75.5q0 -33 20.5 -50.5t55.5 -17.5q36 0 82 13v-138q-55 -18 -125 -18q-82 0 -138 43.5t-56 124.5z" />
    <glyph glyph-name="tilde" unicode="&#x2dc;" horiz-adv-x="1155" 
d="M457 1313q-77 0 -84 -135h-146q0 144 52.5 230.5t146.5 86.5q42 0 87.5 -21.5t77 -47t67 -47t61.5 -21.5q77 0 84 135h145q0 -145 -52 -231t-146 -86q-42 0 -87.5 21.5t-77 47t-67 47t-61.5 21.5z" />
    <glyph glyph-name="hungarumlaut" unicode="&#x2dd;" horiz-adv-x="1155" 
d="M569 1182l111 325h268l-227 -325h-152zM205 1182l110 325h267l-226 -325h-151z" />
    <glyph glyph-name="Wgrave" unicode="&#x1e80;" horiz-adv-x="2050" 
d="M1124 1565h-161l-242 313h295zM1313 0l-287 1128h-4l-287 -1128h-297l-403 1462h278l293 -1134h4l285 1134h274l285 -1134h4l291 1134h266l-403 -1462h-299z" />
    <glyph glyph-name="wgrave" unicode="&#x1e81;" horiz-adv-x="1665" 
d="M936 1182h-172l-238 325h301zM958 1040l199 -772h4l211 772h252l-317 -1040h-267l-204 752h-7l-202 -752h-269l-317 1040h260l211 -772h4l199 772h243z" />
    <glyph glyph-name="Wacute" unicode="&#x1e82;" horiz-adv-x="2050" 
d="M1122 1565h-161l108 313h295zM1313 0l-287 1128h-4l-287 -1128h-297l-403 1462h278l293 -1134h4l285 1134h274l285 -1134h4l291 1134h266l-403 -1462h-299z" />
    <glyph glyph-name="wacute" unicode="&#x1e83;" horiz-adv-x="1665" 
d="M911 1182h-172l109 325h301zM958 1040l199 -772h4l211 772h252l-317 -1040h-267l-204 752h-7l-202 -752h-269l-317 1040h260l211 -772h4l199 772h243z" />
    <glyph glyph-name="Wdieresis" unicode="&#x1e84;" horiz-adv-x="2050" 
d="M1110 1587v256h242v-256h-242zM700 1587v256h242v-256h-242zM1313 0l-287 1128h-4l-287 -1128h-297l-403 1462h278l293 -1134h4l285 1134h274l285 -1134h4l291 1134h266l-403 -1462h-299z" />
    <glyph glyph-name="wdieresis" unicode="&#x1e85;" horiz-adv-x="1665" 
d="M918 1217v256h241v-256h-241zM508 1217v256h242v-256h-242zM958 1040l199 -772h4l211 772h252l-317 -1040h-267l-204 752h-7l-202 -752h-269l-317 1040h260l211 -772h4l199 772h243z" />
    <glyph glyph-name="Ygrave" unicode="&#x1ef2;" horiz-adv-x="1445" 
d="M827 1565h-161l-242 313h295zM858 0h-272v600l-566 862h304l405 -624h4l395 624h297l-567 -862v-600z" />
    <glyph glyph-name="ygrave" unicode="&#x1ef3;" horiz-adv-x="1175" 
d="M705 1182h-173l-237 325h301zM446 2l-405 1038h266l289 -784h4l274 784h261l-406 -1058q-74 -195 -174 -278.5t-264 -84.5q-59 0 -121 10v199q31 -6 70 -6q80 0 122.5 36.5t83.5 143.5z" />
    <glyph glyph-name="endash" unicode="&#x2013;" horiz-adv-x="1386" 
d="M178 483v195h1030v-195h-1030z" />
    <glyph glyph-name="emdash" unicode="&#x2014;" horiz-adv-x="2054" 
d="M178 483v195h1698v-195h-1698z" />
    <glyph glyph-name="quoteleft" unicode="&#x2018;" horiz-adv-x="673" 
d="M487 1176v-269h-305v291q0 153 93 237.5t255 84.5v-142q-90 0 -138 -40t-48 -138v-24h143z" />
    <glyph glyph-name="quoteright" unicode="&#x2019;" horiz-adv-x="673" 
d="M186 1239v268h306v-290q0 -153 -93 -237.5t-256 -84.5v141q90 0 138.5 40t48.5 138v25h-144z" />
    <glyph glyph-name="quotesinglbase" unicode="&#x201a;" horiz-adv-x="673" 
d="M186 49v268h306v-290q0 -153 -93 -237.5t-256 -84.5v141q90 0 138.5 40.5t48.5 138.5v24h-144z" />
    <glyph glyph-name="quotedblleft" unicode="&#x201c;" horiz-adv-x="1155" 
d="M971 1176v-269h-305v291q0 153 93 237.5t255 84.5v-142q-90 0 -138.5 -40t-48.5 -138v-24h144zM487 1176v-269h-305v291q0 153 93 237.5t255 84.5v-142q-90 0 -138 -40t-48 -138v-24h143z" />
    <glyph glyph-name="quotedblright" unicode="&#x201d;" horiz-adv-x="1155" 
d="M186 1239v268h306v-290q0 -153 -93 -237.5t-256 -84.5v141q90 0 138.5 40t48.5 138v25h-144zM668 1239v268h305v-290q0 -153 -93 -237.5t-255 -84.5v141q90 0 138 40t48 138v25h-143z" />
    <glyph glyph-name="quotedblbase" unicode="&#x201e;" horiz-adv-x="1155" 
d="M186 49v268h306v-290q0 -153 -93 -237.5t-256 -84.5v141q90 0 138.5 40.5t48.5 138.5v24h-144zM668 49v268h305v-290q0 -153 -93 -237.5t-255 -84.5v141q90 0 138 40t48 139v24h-143z" />
    <glyph glyph-name="dagger" unicode="&#x2020;" horiz-adv-x="792" 
d="M721 1110h-246v-473h-158v473h-243v152h243v225h158v-225h246v-152z" />
    <glyph glyph-name="daggerdbl" unicode="&#x2021;" horiz-adv-x="792" 
d="M721 831h-246v-194h-158v194h-243v146h243v170h-243v147h243v193h158v-193h246v-147h-246v-170h246v-146z" />
    <glyph glyph-name="bullet" unicode="&#x2022;" horiz-adv-x="987" 
d="M178 623q0 128 94 219.5t224 91.5t221.5 -91.5t91.5 -219.5q0 -131 -91.5 -223.5t-221.5 -92.5q-131 0 -224.5 93t-93.5 223z" />
    <glyph glyph-name="ellipsis" unicode="&#x2026;" horiz-adv-x="1642" 
d="M1155 0v305h305v-305h-305zM670 0v305h305v-305h-305zM182 0v305h305v-305h-305z" />
    <glyph glyph-name="guilsinglleft" unicode="&#x2039;" horiz-adv-x="692" 
d="M580 90h-185l-282 418l282 418h185l-222 -418z" />
    <glyph glyph-name="guilsinglright" unicode="&#x203a;" horiz-adv-x="692" 
d="M297 86h-184l221 418l-221 418h184l283 -418z" />
    <glyph glyph-name="fraction" unicode="&#x2044;" horiz-adv-x="376" 
d="M-252 -25h-176l1057 1514h174z" />
    <glyph glyph-name="uni2070" unicode="&#x2070;" horiz-adv-x="876" 
d="M438 647q-161 0 -258.5 117t-97.5 299q0 184 97.5 301t258.5 117q162 0 259.5 -117t97.5 -301q0 -183 -97.5 -299.5t-259.5 -116.5zM438 788q84 0 127 72t43 203q0 132 -42.5 204t-127.5 72q-83 0 -125.5 -72t-42.5 -204q0 -130 42.5 -202.5t125.5 -72.5z" />
    <glyph glyph-name="uni2074" unicode="&#x2074;" horiz-adv-x="856" 
d="M635 1462v-497h158v-127h-158v-176h-170v176h-399v129l376 495h193zM465 1294l-244 -329h244v329z" />
    <glyph glyph-name="uni2075" unicode="&#x2075;" horiz-adv-x="788" 
d="M397 1069q-85 0 -123 -63h-168l46 456h507v-143h-376l-19 -182q25 27 69.5 44t100.5 17q124 0 199.5 -75t75.5 -197q0 -120 -84.5 -200.5t-225.5 -80.5q-145 0 -230.5 71t-96.5 191h188q5 -56 41.5 -91.5t95.5 -35.5q63 0 98 41.5t35 104.5q0 62 -34 102.5t-99 40.5z" />
    <glyph glyph-name="uni2076" unicode="&#x2076;" horiz-adv-x="802" 
d="M422 1341q-77 0 -123.5 -70.5t-46.5 -176.5q63 102 190 102q123 0 202 -76t79 -192q0 -122 -84.5 -201.5t-222.5 -79.5q-149 0 -241.5 109t-92.5 293q0 194 96 313t248 119q118 0 196 -65.5t93 -168.5h-168q-23 94 -125 94zM416 780q61 0 100 41t39 103q0 63 -39 104
t-100 41q-64 0 -104 -41t-40 -104q0 -62 40 -103t104 -41z" />
    <glyph glyph-name="uni2077" unicode="&#x2077;" horiz-adv-x="739" 
d="M487 1321h-419v141h600v-143q-133 -163 -185.5 -312.5t-54.5 -344.5h-190q3 343 249 659z" />
    <glyph glyph-name="uni2078" unicode="&#x2078;" horiz-adv-x="813" 
d="M406 647q-148 0 -237 64t-89 172q0 68 46.5 121.5t106.5 66.5q-54 24 -87 70.5t-33 107.5q0 106 83.5 169t209.5 63q129 0 210.5 -62.5t81.5 -169.5q0 -61 -32 -107.5t-84 -70.5q59 -13 105 -66.5t46 -121.5q0 -109 -88.5 -172.5t-238.5 -63.5zM406 1352q-58 0 -94 -28.5
t-36 -80.5t36 -80t94 -28q59 0 95 28t36 80t-36 80.5t-95 28.5zM406 1008q-73 0 -112.5 -31t-39.5 -84t39.5 -84t112.5 -31q74 0 114.5 31t40.5 84t-40.5 84t-114.5 31z" />
    <glyph glyph-name="uni2079" unicode="&#x2079;" horiz-adv-x="802" 
d="M383 786q78 0 125 70.5t47 177.5q-68 -104 -195 -104q-121 0 -199.5 77.5t-78.5 194.5q0 120 85.5 199.5t221.5 79.5q148 0 241 -109t93 -293q0 -193 -96.5 -312.5t-249.5 -119.5q-118 0 -195 64.5t-92 167.5h168q24 -93 125 -93zM389 1346q-62 0 -100.5 -40t-38.5 -102
q0 -65 38 -105t101 -40q64 0 103.5 40t39.5 105q0 62 -39.5 102t-103.5 40z" />
    <glyph glyph-name="uni2080" unicode="&#x2080;" horiz-adv-x="876" 
d="M438 -301q-161 0 -258.5 117t-97.5 299q0 184 97.5 300.5t258.5 116.5q162 0 259.5 -116.5t97.5 -300.5q0 -183 -97.5 -299.5t-259.5 -116.5zM438 -160q84 0 127 72t43 203q0 132 -42.5 204t-127.5 72q-83 0 -125.5 -72t-42.5 -204q0 -130 42.5 -202.5t125.5 -72.5z" />
    <glyph glyph-name="uni2081" unicode="&#x2081;" horiz-adv-x="708" 
d="M651 -160v-127h-567v127h199v439h-197v118q92 0 141.5 13t69.5 36.5t31 69.5h129v-676h194z" />
    <glyph glyph-name="uni2082" unicode="&#x2082;" horiz-adv-x="759" 
d="M682 283q0 -42 -13.5 -78.5t-32.5 -62t-56 -53.5t-66 -45.5t-80 -45.5q-159 -84 -164 -145h420v-140h-616v66q0 46 16 88t39.5 74t60 64t67.5 53.5t73 45.5q101 60 139.5 95t38.5 86q0 47 -30.5 76.5t-88.5 29.5q-59 0 -95 -39.5t-38 -97.5h-176q8 121 89.5 198.5
t221.5 77.5q128 0 209.5 -69.5t81.5 -177.5z" />
    <glyph glyph-name="uni2083" unicode="&#x2083;" horiz-adv-x="776" 
d="M700 -70q0 -98 -82.5 -164.5t-226.5 -66.5q-141 0 -227.5 70t-97.5 186h174q4 -55 45.5 -87t105.5 -32q63 0 100 30.5t37 78.5q0 102 -137 102h-80v133h76q58 0 91.5 26.5t33.5 78.5q0 47 -32.5 77.5t-86.5 30.5q-58 0 -94 -34.5t-41 -88.5h-168q6 111 87 185.5t218 74.5
q135 0 210 -68t75 -169q0 -68 -39.5 -117t-101.5 -61q73 -12 117 -62.5t44 -122.5z" />
    <glyph glyph-name="uni2084" unicode="&#x2084;" horiz-adv-x="856" 
d="M635 514v-498h158v-127h-158v-176h-170v176h-399v129l376 496h193zM465 346l-244 -330h244v330z" />
    <glyph glyph-name="uni2085" unicode="&#x2085;" horiz-adv-x="788" 
d="M397 123q-84 0 -123 -64h-168l46 457h507v-143h-376l-19 -183q25 27 70 44.5t100 17.5q124 0 199.5 -75t75.5 -197q0 -120 -84.5 -200.5t-225.5 -80.5q-145 0 -230.5 71t-96.5 191h188q5 -56 41.5 -91.5t95.5 -35.5q63 0 98 41.5t35 104.5q0 62 -34 102.5t-99 40.5z" />
    <glyph glyph-name="uni2086" unicode="&#x2086;" horiz-adv-x="802" 
d="M422 393q-77 0 -123.5 -71t-46.5 -177q63 103 190 103q123 0 202 -76t79 -192q0 -122 -84.5 -201.5t-222.5 -79.5q-149 0 -241.5 108.5t-92.5 292.5q0 194 96 313t248 119q118 0 196 -65t93 -168h-168q-23 94 -125 94zM416 -168q61 0 100 40.5t39 102.5q0 63 -39 104.5
t-100 41.5q-64 0 -104 -41t-40 -105q0 -62 40 -102.5t104 -40.5z" />
    <glyph glyph-name="uni2087" unicode="&#x2087;" horiz-adv-x="739" 
d="M487 373h-419v141h600v-143q-133 -163 -185.5 -313t-54.5 -345h-190q3 344 249 660z" />
    <glyph glyph-name="uni2088" unicode="&#x2088;" horiz-adv-x="813" 
d="M406 -301q-148 0 -237 63.5t-89 171.5q0 68 46.5 122t106.5 67q-54 24 -87 70.5t-33 107.5q0 106 83 168.5t210 62.5q129 0 210.5 -62t81.5 -169q0 -61 -32 -107.5t-84 -70.5q58 -13 104.5 -67t46.5 -122q0 -108 -88.5 -171.5t-238.5 -63.5zM406 403q-58 0 -94 -28
t-36 -80t36 -80.5t94 -28.5q59 0 95 28.5t36 80.5t-36 80t-95 28zM406 59q-73 0 -112.5 -30.5t-39.5 -83.5t39.5 -84t112.5 -31q74 0 114.5 31t40.5 84t-40.5 83.5t-114.5 30.5z" />
    <glyph glyph-name="uni2089" unicode="&#x2089;" horiz-adv-x="802" 
d="M383 -162q78 0 125 70.5t47 177.5q-68 -104 -195 -104q-121 0 -199.5 77.5t-78.5 194.5q0 120 85.5 199t221.5 79q148 0 241 -108.5t93 -292.5q0 -193 -96.5 -312.5t-249.5 -119.5q-118 0 -195 64t-92 167h168q23 -92 125 -92zM389 397q-62 0 -100.5 -39.5t-38.5 -101.5
q0 -65 38 -105t101 -40q64 0 103.5 40t39.5 105q0 62 -39.5 101.5t-103.5 39.5z" />
    <glyph glyph-name="Euro" unicode="&#x20ac;" horiz-adv-x="1462" 
d="M1382 459q-37 -223 -174.5 -353.5t-365.5 -130.5q-227 0 -386 142t-212 387h-158v158h135q-2 23 -2 71q0 47 2 70h-135v158h156q54 243 213.5 384.5t386.5 141.5q229 0 366 -130t174 -353h-245q-48 268 -293 268q-129 0 -217 -81t-125 -230h418l-23 -158h-418
q-2 -23 -2 -70q0 -48 2 -71h391l-22 -158h-346q37 -150 125 -232t217 -82q245 0 293 269h245z" />
    <glyph glyph-name="trademark" unicode="&#x2122;" horiz-adv-x="1812" 
d="M483 799h-168v518h-223v145h619v-145h-228v-518zM1255 799h-120l-148 499h-4v-499h-154v663h250l121 -452h6l131 452h232v-663h-164v499h-4z" />
    <glyph glyph-name="uni2153" unicode="&#x2153;" horiz-adv-x="1882" 
d="M500 -25h-176l1056 1514h174zM684 788v-126h-567v126h198v439h-196v119q92 0 141.5 13t69 36t30.5 69h129v-676h195zM1782 217q0 -98 -82.5 -164.5t-226.5 -66.5q-141 0 -228 70t-98 186h174q4 -55 46 -87t106 -32q63 0 100 30t37 78q0 103 -137 103h-80v133h75
q58 0 91.5 26t33.5 78q0 47 -32 78t-86 31q-58 0 -94.5 -34.5t-41.5 -88.5h-168q6 111 87.5 185.5t218.5 74.5q135 0 209.5 -68t74.5 -169q0 -68 -39.5 -117.5t-101.5 -61.5q74 -12 118 -62t44 -122z" />
    <glyph glyph-name="uni2154" unicode="&#x2154;" horiz-adv-x="1931" 
d="M549 -25h-176l1057 1514h174zM715 1231q0 -42 -13.5 -78.5t-32.5 -62t-56 -53.5t-66 -45.5t-80 -45.5q-159 -84 -164 -145h420v-139h-617v65q0 56 22 106.5t63 91t79.5 69t91.5 59.5q54 32 78.5 47.5t52.5 39t38 45t10 48.5q0 47 -30.5 76.5t-88.5 29.5q-59 0 -95 -39.5
t-38 -97.5h-176q8 121 89.5 199t221.5 78q128 0 209.5 -70t81.5 -178zM1831 217q0 -98 -82.5 -164.5t-226.5 -66.5q-141 0 -228 70t-98 186h174q4 -55 46 -87t106 -32q63 0 100 30t37 78q0 103 -137 103h-80v133h76q58 0 91 26t33 78q0 47 -32 78t-86 31q-58 0 -94 -34.5
t-41 -88.5h-168q6 111 87 185.5t218 74.5q135 0 209.5 -68t74.5 -169q0 -68 -39.5 -117.5t-101.5 -61.5q74 -12 118 -62t44 -122z" />
    <glyph glyph-name="uni215B" unicode="&#x215b;" horiz-adv-x="1914" 
d="M500 -25h-176l1056 1514h174zM684 788v-126h-567v126h198v439h-196v119q92 0 141.5 13t69 36t30.5 69h129v-676h195zM1487 -14q-149 0 -237.5 63.5t-88.5 171.5q0 68 47 122t107 67q-54 25 -87.5 71.5t-33.5 106.5q0 106 83 168.5t210 62.5q129 0 211 -62t82 -169
q0 -60 -32.5 -107t-84.5 -71q59 -13 105.5 -67t46.5 -122q0 -108 -89 -171.5t-239 -63.5zM1487 690q-58 0 -93.5 -28t-35.5 -80t35.5 -80.5t93.5 -28.5q59 0 95 28.5t36 80.5t-36 80t-95 28zM1487 346q-73 0 -112.5 -31t-39.5 -84t39.5 -83.5t112.5 -30.5q74 0 114.5 30.5
t40.5 83.5t-40.5 84t-114.5 31z" />
    <glyph glyph-name="uni215C" unicode="&#x215c;" horiz-adv-x="1945" 
d="M528 -25h-176l1057 1514h174zM733 879q0 -98 -82.5 -165t-226.5 -67q-141 0 -228 70t-98 186h174q4 -55 46 -87t106 -32q63 0 100 30.5t37 78.5q0 102 -137 102h-80v133h76q58 0 91.5 26.5t33.5 78.5q0 47 -32.5 77.5t-86.5 30.5q-59 0 -94.5 -34t-40.5 -88h-168
q6 111 87 185.5t218 74.5q135 0 210 -68.5t75 -169.5q0 -68 -40 -117t-102 -61q74 -12 118 -62t44 -122zM1516 -14q-148 0 -237 63.5t-89 171.5q0 68 46.5 122t106.5 67q-54 24 -87 70.5t-33 107.5q0 106 83 168.5t210 62.5q129 0 210.5 -62t81.5 -169q0 -61 -32 -107.5
t-84 -70.5q58 -13 104.5 -67t46.5 -122q0 -108 -88.5 -171.5t-238.5 -63.5zM1516 690q-58 0 -94 -28t-36 -80t36 -80.5t94 -28.5q59 0 95 28.5t36 80.5t-36 80t-95 28zM1516 346q-73 0 -112.5 -31t-39.5 -84t39.5 -83.5t112.5 -30.5q74 0 114.5 30.5t40.5 83.5t-40.5 84
t-114.5 31z" />
    <glyph glyph-name="uni215D" unicode="&#x215d;" horiz-adv-x="1925" 
d="M510 -25h-176l1057 1514h174zM430 1069q-85 0 -123 -63h-168l45 456h508v-143h-377l-18 -182q25 27 69.5 44t100.5 17q124 0 199 -75t75 -197q0 -121 -84 -201t-225 -80q-145 0 -231 71.5t-97 190.5h189q5 -56 41.5 -91.5t95.5 -35.5q63 0 98 41.5t35 104.5
q0 62 -34 102.5t-99 40.5zM1497 -14q-149 0 -237.5 63.5t-88.5 171.5q0 68 47 122t107 67q-54 25 -87.5 71.5t-33.5 106.5q0 106 83 168.5t210 62.5q129 0 211 -62t82 -169q0 -60 -32.5 -107t-84.5 -71q59 -13 105.5 -67t46.5 -122q0 -108 -89 -171.5t-239 -63.5zM1497 690
q-58 0 -93.5 -28t-35.5 -80t35.5 -80.5t93.5 -28.5q59 0 95 28.5t36 80.5t-36 80t-95 28zM1497 346q-72 0 -111.5 -31t-39.5 -84t39 -83.5t112 -30.5q74 0 115 30.5t41 83.5t-41 84t-115 31z" />
    <glyph glyph-name="uni215E" unicode="&#x215e;" horiz-adv-x="1792" 
d="M377 -25h-176l1056 1514h175zM520 1321h-420v141h600v-143q-133 -163 -185 -312.5t-54 -344.5h-191q3 342 250 659zM1364 -14q-148 0 -237 63.5t-89 171.5q0 68 47 122t107 67q-54 25 -87.5 71.5t-33.5 106.5q0 106 83 168.5t210 62.5q129 0 211 -62t82 -169
q0 -60 -32.5 -107t-84.5 -71q59 -13 105.5 -67t46.5 -122q0 -108 -89 -171.5t-239 -63.5zM1364 690q-58 0 -93.5 -28t-35.5 -80t35.5 -80.5t93.5 -28.5q59 0 95 28.5t36 80.5t-36 80t-95 28zM1364 346q-73 0 -112.5 -31t-39.5 -84t39.5 -83.5t112.5 -30.5q74 0 115 30.5
t41 83.5t-41 84t-115 31z" />
    <glyph glyph-name="minus" unicode="&#x2212;" 
d="M133 584v194h1084v-194h-1084z" />
    <glyph glyph-name="i.dot" horiz-adv-x="581" 
d="M152 1217v256h278v-256h-278zM160 1040h262v-1040h-262v1040z" />
    <glyph glyph-name="a.ord" horiz-adv-x="835" 
d="M537 754q-28 -59 -86 -90t-140 -31q-106 0 -170.5 54t-64.5 147q0 51 19 89t54.5 61t79 36.5t99.5 19.5l198 21v37q0 110 -116 110q-50 0 -81 -26.5t-36 -69.5h-189q10 115 93.5 178.5t218.5 63.5q148 0 226.5 -70t78.5 -207v-246q0 -111 12 -182h-188q-8 49 -8 105z
M526 913v45l-139 -16q-55 -7 -86 -28.5t-31 -67.5q0 -39 26.5 -62.5t72.5 -23.5q64 0 110.5 41t46.5 112z" />
    <glyph glyph-name="b.ord" horiz-adv-x="915" 
d="M319 758v-111h-196v993h199v-409q27 53 84.5 88t128.5 35q137 0 220 -101t83 -262t-83 -260.5t-220 -99.5q-74 0 -132 36t-84 91zM317 1004v-25q0 -96 42.5 -151.5t117.5 -55.5q76 0 119 59t43 160t-43 160t-119 59q-75 0 -117.5 -55t-42.5 -151z" />
    <glyph glyph-name="c.ord" horiz-adv-x="813" 
d="M78 993q0 163 99 262t253 99q135 0 216 -69.5t95 -190.5h-186q-20 114 -125 114q-74 0 -114 -58t-40 -157q0 -101 40 -159t114 -58q105 0 125 115h186q-14 -120 -95 -190t-216 -70q-155 0 -253.5 98t-98.5 264z" />
    <glyph glyph-name="d.ord" horiz-adv-x="915" 
d="M596 647v111q-26 -55 -83.5 -91t-131.5 -36q-137 0 -220 99.5t-83 260.5t83 262t220 101q71 0 128.5 -35t84.5 -88v409h199v-993h-197zM598 979v25q0 96 -42.5 151t-117.5 55q-76 0 -119 -59t-43 -160t43 -160t119 -59q75 0 117.5 55.5t42.5 151.5z" />
    <glyph glyph-name="e.ord" horiz-adv-x="835" 
d="M754 866q-22 -110 -107.5 -172.5t-212.5 -62.5q-156 0 -256 97.5t-100 262.5q0 166 100 264.5t252 98.5q80 0 144 -28.5t103.5 -77t60 -110.5t20.5 -132v-48h-490q6 -89 48 -136.5t118 -47.5q107 0 137 92h183zM430 1212q-66 0 -108 -41.5t-52 -119.5h303
q-2 70 -39 115.5t-104 45.5z" />
    <glyph glyph-name="f.ord" horiz-adv-x="522" 
d="M143 1196h-92v141h92v86q0 111 62 168.5t176 57.5q29 0 108 -9v-149q-46 4 -67 4q-80 0 -80 -80v-78h135v-141h-135v-549h-199v549z" />
    <glyph glyph-name="g.ord" horiz-adv-x="915" 
d="M596 692v101q-24 -55 -80.5 -90t-132.5 -35q-137 0 -221 95.5t-84 248.5q0 152 84 247t221 95q76 0 133.5 -36t83.5 -91v108h197v-614q0 -166 -98 -249t-265 -83q-144 0 -233 57.5t-109 161.5h197q25 -84 145 -84q76 0 119 41.5t43 126.5zM602 997v29q0 84 -45 134
t-119 50q-76 0 -117.5 -52.5t-41.5 -145.5t41.5 -147t117.5 -54q74 0 119 51t45 135z" />
    <glyph glyph-name="h.ord" horiz-adv-x="905" 
d="M322 1227q27 58 82.5 92.5t130.5 34.5q120 0 186.5 -69.5t66.5 -194.5v-443h-200v395q0 158 -125 158q-64 0 -102.5 -44.5t-38.5 -135.5v-373h-199v993h199v-413z" />
    <glyph glyph-name="i.ord" horiz-adv-x="446" 
d="M119 1442v180h207v-180h-207zM123 1335h199v-688h-199v688z" />
    <glyph glyph-name="j.ord" horiz-adv-x="446" 
d="M119 1442v180h207v-180h-207zM88 397q-38 0 -88 9v143q16 -2 43 -2q43 0 61.5 17t18.5 61v710h199v-717q0 -221 -234 -221z" />
    <glyph glyph-name="k.ord" horiz-adv-x="878" 
d="M612 647l-215 279l-75 -74v-205h-199v993h199v-587l274 282h225l-286 -284l301 -404h-224z" />
    <glyph glyph-name="l.ord" horiz-adv-x="446" 
d="M322 647h-199v993h199v-993z" />
    <glyph glyph-name="m.ord" horiz-adv-x="1337" 
d="M743 1225q34 59 96 94t136 35q117 0 180.5 -70t63.5 -194v-443h-197v397q0 156 -119 156q-59 0 -96 -44.5t-37 -133.5v-375h-197v397q0 156 -116 156q-61 0 -98 -44.5t-37 -133.5v-375h-199v688h196v-108q25 57 81 92t128 35q154 0 215 -129z" />
    <glyph glyph-name="n.ord" horiz-adv-x="905" 
d="M319 1335v-108q25 57 82.5 92t133.5 35q120 0 186.5 -69.5t66.5 -194.5v-443h-200v395q0 158 -125 158q-64 0 -102.5 -44.5t-38.5 -135.5v-373h-199v688h196z" />
    <glyph glyph-name="o.ord" horiz-adv-x="870" 
d="M78 993q0 165 99 263t259 98q159 0 258 -98t99 -263q0 -166 -99 -264t-258 -98q-160 0 -259 97.5t-99 264.5zM276 993q0 -104 41.5 -161.5t118.5 -57.5q75 0 116.5 58t41.5 161q0 100 -41.5 157.5t-116.5 57.5q-77 0 -118.5 -57t-41.5 -158z" />
    <glyph glyph-name="p.ord" horiz-adv-x="917" 
d="M322 754v-346h-199v927h196v-108q26 55 84 91t132 36q137 0 220 -101t83 -262t-83 -260.5t-220 -99.5q-71 0 -128.5 34.5t-84.5 88.5zM317 1006v-27q0 -96 42.5 -151.5t117.5 -55.5q76 0 119 58.5t43 160.5q0 101 -43 160t-119 59q-75 0 -117.5 -55t-42.5 -149z" />
    <glyph glyph-name="q.ord" horiz-adv-x="917" 
d="M596 408v346q-27 -54 -84.5 -88.5t-128.5 -34.5q-137 0 -220 99.5t-83 260.5t83 262t220 101q74 0 131.5 -36t83.5 -91v108h197v-927h-199zM600 979v27q0 94 -42.5 149t-117.5 55q-76 0 -118.5 -59t-42.5 -160q0 -102 42.5 -160.5t118.5 -58.5q75 0 117.5 55.5
t42.5 151.5z" />
    <glyph glyph-name="r.ord" horiz-adv-x="632" 
d="M578 1343v-182q-40 4 -68 4q-82 0 -135 -53.5t-53 -153.5v-311h-199v688h196v-149q25 77 79.5 119.5t127.5 42.5q27 0 52 -5z" />
    <glyph glyph-name="s.ord" horiz-adv-x="782" 
d="M68 854h184q7 -51 48 -74.5t99 -23.5q51 0 85 21.5t34 62.5q0 30 -23.5 46t-78.5 27l-123 21q-203 35 -203 199q0 100 82 160.5t209 60.5q137 0 216.5 -56t90.5 -157h-174q-7 42 -43.5 66t-87.5 24q-50 0 -80.5 -23t-30.5 -61q0 -31 24.5 -47t78.5 -27l131 -22
q96 -19 144 -67t48 -134q0 -101 -83.5 -160t-213.5 -59q-142 0 -231 56.5t-102 166.5z" />
    <glyph glyph-name="t.ord" horiz-adv-x="585" 
d="M508 805v-148q-63 -20 -143 -20q-116 0 -170 48t-54 155v356h-96v139h96v172h195v-172h156v-139h-158v-322q0 -44 21 -61.5t65 -17.5q42 0 88 10z" />
    <glyph glyph-name="u.ord" horiz-adv-x="894" 
d="M575 647v109q-27 -58 -82 -92.5t-128 -34.5q-118 0 -183 69t-65 195v442h198v-401q0 -152 121 -152q61 0 98 44.5t37 136.5v372h199v-688h-195z" />
    <glyph glyph-name="v.ord" horiz-adv-x="854" 
d="M319 647l-268 690h201l178 -499h2l176 499h195l-266 -690h-218z" />
    <glyph glyph-name="w.ord" horiz-adv-x="1183" 
d="M684 1337l123 -489h2l131 489h193l-213 -690h-199l-129 473h-2l-127 -473h-199l-213 690h197l131 -489h4l121 489h180z" />
    <glyph glyph-name="x.ord" horiz-adv-x="870" 
d="M268 647h-211l265 352l-248 338h225l141 -196l142 196h213l-248 -329l264 -361h-225l-156 221z" />
    <glyph glyph-name="y.ord" horiz-adv-x="851" 
d="M315 653l-264 684h205l176 -497h2l174 497h193l-266 -696q-49 -130 -121.5 -186t-188.5 -58q-25 0 -86 9v145q20 -2 43 -2q55 0 82.5 20.5t50.5 83.5z" />
    <glyph glyph-name="z.ord" horiz-adv-x="778" 
d="M680 1200l-354 -407h370v-146h-610v129l354 416h-344v145h584v-137z" />
    <glyph glyph-name="caron.Slovak" horiz-adv-x="1155" 
d="M551 1092h-127l49 415h275z" />
    <glyph glyph-name="commaturn" horiz-adv-x="1155" 
d="M707 1358v-170h-265v119q0 129 66.5 192.5t204.5 63.5v-97q-60 0 -85.5 -27t-25.5 -81h105z" />
    <glyph glyph-name="uni00200326" horiz-adv-x="1155" 
d="M455 -270v170h264v-119q0 -129 -66 -192.5t-204 -63.5v96q59 0 84.5 27t25.5 82h-104z" />
    <glyph glyph-name="guilsinglleft.cap" horiz-adv-x="692" 
d="M580 250h-185l-282 418l282 417h185l-222 -417z" />
    <glyph glyph-name="guilsinglright.cap" horiz-adv-x="692" 
d="M297 250h-184l221 418l-221 417h184l283 -417z" />
    <glyph glyph-name="guillemotleft.cap" horiz-adv-x="1120" 
d="M1008 250h-183l-280 418l280 417h183l-224 -417zM575 250h-180l-282 418l282 417h180l-223 -417z" />
    <glyph glyph-name="guillemotright.cap" horiz-adv-x="1120" 
d="M295 250h-182l223 418l-223 417h182l280 -417zM725 250h-180l223 418l-223 417h180l283 -417z" />
    <glyph glyph-name="slash.cap" horiz-adv-x="1093" 
d="M90 -154l668 1729h246l-668 -1729h-246z" />
    <glyph glyph-name="backslash.cap" horiz-adv-x="1093" 
d="M90 1575h246l668 -1729h-246z" />
    <glyph glyph-name="bar.cap" horiz-adv-x="675" 
d="M223 1575h230v-1729h-230v1729z" />
    <glyph glyph-name="periodcentered.cap" horiz-adv-x="661" 
d="M178 559v305h305v-305h-305z" />
    <glyph glyph-name="bullet.cap" horiz-adv-x="987" 
d="M178 745q0 128 94 220t224 92t221.5 -92t91.5 -220q0 -131 -91.5 -223t-221.5 -92q-131 0 -224.5 92.5t-93.5 222.5z" />
    <glyph glyph-name="hyphen.cap" horiz-adv-x="929" 
d="M178 596v219h574v-219h-574z" />
    <glyph glyph-name="endash.cap" horiz-adv-x="1386" 
d="M178 606v195h1030v-195h-1030z" />
    <glyph glyph-name="emdash.cap" horiz-adv-x="2054" 
d="M178 606v195h1698v-195h-1698z" />
    <glyph glyph-name="parenleft.cap" horiz-adv-x="870" 
d="M440 711q0 -224 87 -445t243 -420h-250q-340 405 -340 865q0 459 340 864h250q-330 -449 -330 -864z" />
    <glyph glyph-name="parenright.cap" horiz-adv-x="870" 
d="M100 -154q156 199 243 420t87 445q0 415 -330 864h250q340 -405 340 -864q0 -460 -340 -865h-250z" />
    <glyph glyph-name="bracketleft.cap" horiz-adv-x="843" 
d="M453 1389v-1356h268v-187h-520v1729h520v-186h-268z" />
    <glyph glyph-name="bracketright.cap" horiz-adv-x="843" 
d="M391 33v1356h-268v186h520v-1729h-520v187h268z" />
    <glyph glyph-name="braceleft.cap" horiz-adv-x="880" 
d="M68 616v189h92q52 0 81 30.5t29 84.5v419q0 236 271 236h215v-184h-148q-53 0 -77.5 -18.5t-24.5 -69.5v-410q0 -80 -47 -125.5t-127 -56.5q80 -11 127 -57t47 -126v-409q0 -51 24.5 -69.5t77.5 -18.5h148v-185h-215q-271 0 -271 236v420q0 54 -29 84t-81 30h-92z" />
    <glyph glyph-name="braceright.cap" horiz-adv-x="880" 
d="M813 805v-189h-92q-53 0 -82 -30t-29 -84v-420q0 -236 -270 -236h-215v185h147q53 0 78 18.5t25 69.5v409q0 80 47 126t127 57q-80 11 -127 56.5t-47 125.5v410q0 51 -25 69.5t-78 18.5h-147v184h215q270 0 270 -236v-419q0 -54 29.5 -84.5t81.5 -30.5h92z" />
    <glyph glyph-name="at.cap" horiz-adv-x="1878" 
d="M1382 1124l-104 -592q-20 -118 84 -118q120 0 196 116t76 322q0 255 -175.5 406t-459.5 151q-161 0 -299.5 -56.5t-236 -155.5t-152.5 -239t-55 -301q0 -121 30 -223t84 -174t124.5 -126t155.5 -85.5t172 -47t179 -15.5q249 0 461 90l54 -121q-97 -48 -232 -79.5
t-283 -31.5q-141 0 -270.5 29.5t-246 93.5t-202.5 157.5t-136 230t-50 302.5q0 184 66.5 348.5t183.5 285t287 191t366 70.5q173 0 320.5 -53.5t249.5 -146.5t159.5 -222.5t57.5 -277.5q0 -140 -39 -252.5t-105.5 -182.5t-149.5 -106.5t-175 -36.5q-84 0 -147.5 36
t-92.5 100q-37 -58 -106 -93.5t-144 -35.5q-149 0 -232 100t-83 256q0 132 52.5 247t153 187t228.5 72q72 0 130 -35.5t81 -85.5l21 102h204zM1096 657l10 76q20 105 -21 167.5t-118 62.5q-70 0 -124 -42.5t-82.5 -108t-31.5 -140.5q-6 -98 36.5 -155.5t121.5 -57.5
q68 0 129 51t80 147z" />
    <glyph glyph-name="uni0192.lt" 
d="M1028 629h-252l-149 -854h-254l153 854h-166v198h201l62 344q32 177 137 269t262 92q74 0 149 -27v-235q-56 22 -120 22q-79 0 -125.5 -46.5t-65.5 -145.5l-47 -273h215v-198z" />
    <glyph glyph-name="Euro.lt" 
d="M1305 459q-35 -222 -170.5 -353t-358.5 -131q-221 0 -374.5 142t-204.5 387h-146v158h125q-2 23 -2 71q0 47 2 70h-125v158h146q51 244 204.5 385t374.5 141q224 0 359 -130t170 -353h-238q-48 268 -289 268q-127 0 -210 -80.5t-119 -230.5h403l-23 -158h-401
q-2 -23 -2 -70q0 -48 2 -71h377l-23 -158h-331q34 -150 117.5 -232t209.5 -82q241 0 289 269h238z" />
    <glyph glyph-name="dollar.lt" 
d="M1249 418q0 -185 -138 -303.5t-357 -132.5v-205h-150v207q-148 14 -260 67.5t-183 153t-81 235.5h239q11 -114 88 -178t197 -80v453l-102 18q-83 16 -147.5 43t-118 72.5t-82.5 116.5t-29 164q0 183 132 301.5t347 132.5v194h150v-196q207 -22 328 -129.5t141 -288.5
h-236q-20 177 -233 213v-436l127 -25q368 -72 368 -397zM588 872l16 -4v412q-116 -12 -179 -69t-63 -146q0 -87 51.5 -128t174.5 -65zM776 602l-22 4v-428q120 12 188 69.5t68 151.5q0 83 -52.5 131t-181.5 72z" />
    <glyph glyph-name="cent.lt" 
d="M1186 367q-22 -159 -129 -260.5t-269 -120.5v-203h-147v205q-201 25 -327 172t-126 375q0 226 126 372.5t327 171.5v238h147v-236q162 -19 269 -120.5t129 -260.5h-211q-12 77 -61 128.5t-126 64.5v-719q78 15 126.5 65.5t60.5 127.5h211zM420 535q0 -142 58 -235.5
t163 -121.5v711q-105 -28 -163 -120.5t-58 -233.5z" />
    <glyph glyph-name="sterling.lt" 
d="M1239 215v-215h-1124v215h26q87 0 140 80.5t53 230.5q0 20 -4 52h-193v188h131q-22 52 -34.5 86t-23.5 87t-11 105q0 85 36 165t100 141.5t160.5 99t209.5 37.5q124 0 221.5 -38t159 -106t96 -155t41.5 -191h-252q-8 124 -72.5 202.5t-193.5 78.5q-114 0 -180 -70
t-66 -168q0 -35 9 -74.5t17 -62.5t28.5 -71.5t27.5 -65.5h362v-188h-319q2 -12 2 -37q0 -204 -131 -326h784z" />
    <glyph glyph-name="yen.lt" 
d="M1190 344h-383v-344h-260v344h-381v158h381v151h-381v160h293l-404 649h281l344 -577h4l340 577h274l-403 -649h295v-160h-383v-151h383v-158z" />
    <glyph glyph-name="zero.lt" 
d="M676 -25q-177 0 -312 97.5t-206.5 269t-71.5 389.5t71.5 389.5t206.5 269t312 97.5t312 -97.5t206.5 -269t71.5 -389.5t-71.5 -389.5t-206.5 -269t-312 -97.5zM676 188q160 0 241.5 143.5t81.5 399.5t-81.5 399.5t-241.5 143.5t-242 -143.5t-82 -399.5t82 -399.5
t242 -143.5z" />
    <glyph glyph-name="one.lt" 
d="M1235 209v-209h-1092v209h435v858h-390v180q134 0 220.5 12t139 41t77 67t39.5 99h184v-1257h387z" />
    <glyph glyph-name="two.lt" 
d="M1200 1044q0 -56 -13 -106.5t-32 -90t-55 -79.5t-67.5 -68.5t-84.5 -63.5t-91 -58t-101 -58q-155 -90 -235 -161.5t-83 -143.5h770v-215h-1067v104q0 82 29 159t71.5 134.5t110 116t124.5 97.5t134 85q61 37 96.5 59.5t79.5 53.5t68 55.5t47.5 54.5t33 61.5t9.5 66.5
q0 100 -61.5 164.5t-184.5 64.5q-121 0 -194.5 -80.5t-81.5 -200.5h-260q7 102 45.5 191t105 156.5t166.5 106t221 38.5q229 0 364.5 -126.5t135.5 -316.5z" />
    <glyph glyph-name="three.lt" 
d="M1214 397q0 -86 -36.5 -162t-103.5 -134t-170.5 -92t-229.5 -34q-248 0 -400.5 125.5t-171.5 335.5h260q9 -116 93.5 -185t218.5 -69t211.5 63t77.5 171q0 107 -75 163t-204 56h-152v201h148q111 0 179.5 53t68.5 164q0 99 -65.5 163t-182.5 64q-125 0 -200 -74t-83 -188
h-250q6 96 44 180.5t103.5 149t165.5 102t222 37.5q120 0 216.5 -34.5t157.5 -94t93.5 -135.5t32.5 -162q0 -126 -74.5 -213.5t-187.5 -108.5q133 -22 213.5 -115t80.5 -227z" />
    <glyph glyph-name="four.lt" 
d="M1018 1462v-889h270v-206h-270v-367h-262v367h-695v208l660 887h297zM756 1210l-463 -637h463v637z" />
    <glyph glyph-name="five.lt" 
d="M682 780q-91 0 -157 -38t-103 -97h-244l84 817h877v-215h-682l-39 -381q45 50 127.5 84.5t179.5 34.5q224 0 361 -142.5t137 -361.5q0 -218 -147 -362t-394 -144q-245 0 -395.5 127.5t-167.5 341.5h270q9 -118 87.5 -191t205.5 -73q135 0 208 85.5t73 213.5
q0 129 -72.5 215t-208.5 86z" />
    <glyph glyph-name="six.lt" 
d="M717 1278q-111 0 -192.5 -71t-122 -191.5t-40.5 -274.5q46 103 143 169.5t234 66.5q218 0 359 -141t141 -353q0 -222 -148.5 -365t-388.5 -143q-262 0 -424.5 198.5t-162.5 533.5q0 231 77.5 409t216 274.5t316.5 96.5q205 0 339 -113t161 -301h-248q-49 205 -260 205z
M700 176q131 0 210 84.5t79 218.5q0 132 -79.5 216.5t-209.5 84.5q-131 0 -212.5 -84.5t-81.5 -216.5q0 -133 81.5 -218t212.5 -85z" />
    <glyph glyph-name="seven.lt" 
d="M971 1247h-850v215h1126v-207q-262 -319 -384.5 -613.5t-125.5 -641.5h-280q2 178 43.5 351.5t117 331.5t159.5 290.5t194 273.5z" />
    <glyph glyph-name="eight.lt" 
d="M676 1487q224 0 368 -111t144 -303q0 -114 -62 -200.5t-165 -131.5q115 -23 203.5 -119.5t88.5 -220.5q0 -193 -158 -309.5t-419 -116.5t-419.5 116.5t-158.5 309.5q0 124 89 220.5t204 119.5q-103 45 -165 131.5t-62 200.5q0 192 144 303t368 111zM676 842
q120 0 196 58.5t76 166.5q0 109 -76 167t-196 58q-121 0 -197 -57.5t-76 -167.5q0 -108 76 -166.5t197 -58.5zM676 174q150 0 233.5 64.5t83.5 173.5t-83.5 173t-233.5 64t-234 -64t-84 -173t84 -173.5t234 -64.5z" />
    <glyph glyph-name="nine.lt" 
d="M635 184q111 0 192 71t121.5 191.5t40.5 274.5q-46 -103 -143 -169.5t-234 -66.5q-218 0 -358.5 141t-140.5 353q0 222 148 365t388 143q173 0 305.5 -88t207.5 -254.5t75 -388.5q0 -173 -45 -319.5t-125.5 -247.5t-193.5 -157.5t-246 -56.5q-205 0 -339 113t-161 301
h248q49 -205 260 -205zM651 1286q-131 0 -210 -84.5t-79 -218.5q0 -132 79.5 -216.5t209.5 -84.5q131 0 213 85t82 216q0 133 -82 218t-213 85z" />
    <glyph glyph-name="zero.dnom" horiz-adv-x="876" 
d="M438 -14q-161 0 -258.5 116.5t-97.5 298.5q0 184 97.5 301t258.5 117q162 0 259.5 -117t97.5 -301q0 -183 -97.5 -299t-259.5 -116zM438 127q85 0 127.5 72t42.5 202q0 132 -42.5 204.5t-127.5 72.5q-83 0 -125.5 -72.5t-42.5 -204.5q0 -130 42.5 -202t125.5 -72z" />
    <glyph glyph-name="one.dnom" horiz-adv-x="708" 
d="M651 127v-127h-567v127h199v438h-197v119q92 0 141.5 13t69.5 36.5t31 69.5h129v-676h194z" />
    <glyph glyph-name="two.dnom" horiz-adv-x="759" 
d="M682 569q0 -42 -13.5 -78.5t-32.5 -61.5t-56 -53.5t-65.5 -45.5t-80.5 -45q-158 -84 -164 -146h420v-139h-616v66q0 46 16 88t39.5 74t60 64t67.5 53.5t73 45.5q53 32 78 47.5t52.5 39t37.5 45t10 48.5q0 47 -30.5 77t-88.5 30q-59 0 -95 -39.5t-38 -97.5h-176
q8 121 89.5 198.5t221.5 77.5q128 0 209.5 -70t81.5 -178z" />
    <glyph glyph-name="three.dnom" horiz-adv-x="776" 
d="M700 217q0 -98 -82.5 -164.5t-226.5 -66.5q-141 0 -227.5 70t-97.5 186h174q4 -55 45.5 -87t105.5 -32q63 0 100 30t37 78q0 103 -137 103h-80v133h76q58 0 91.5 26t33.5 78q0 47 -32.5 78t-86.5 31q-58 0 -94 -34.5t-41 -88.5h-168q6 111 87 185.5t218 74.5
q135 0 210 -68t75 -169q0 -68 -39.5 -117.5t-101.5 -61.5q73 -12 117 -62t44 -122z" />
    <glyph glyph-name="four.dnom" horiz-adv-x="856" 
d="M635 801v-498h158v-127h-158v-176h-170v176h-399v129l376 496h193zM465 633l-244 -330h244v330z" />
    <glyph glyph-name="five.dnom" horiz-adv-x="788" 
d="M397 410q-84 0 -123 -64h-168l46 457h507v-144h-376l-19 -182q25 27 70 44.5t100 17.5q124 0 199.5 -75.5t75.5 -197.5q0 -120 -84.5 -200t-225.5 -80q-145 0 -230.5 71t-96.5 191h188q5 -56 41.5 -91.5t95.5 -35.5q63 0 98 41t35 104q0 62 -34.5 103t-98.5 41z" />
    <glyph glyph-name="six.dnom" horiz-adv-x="802" 
d="M422 680q-77 0 -123.5 -71t-46.5 -177q63 103 190 103q122 0 201.5 -76.5t79.5 -192.5q0 -122 -84.5 -201t-222.5 -79q-149 0 -241.5 108.5t-92.5 292.5q0 194 96 313t248 119q118 0 196 -65t93 -168h-168q-23 94 -125 94zM416 119q61 0 100 40.5t39 102.5
q0 63 -39 104.5t-100 41.5q-64 0 -104 -41t-40 -105q0 -62 40 -102.5t104 -40.5z" />
    <glyph glyph-name="seven.dnom" horiz-adv-x="739" 
d="M487 659h-419v142h600v-144q-133 -163 -185.5 -312.5t-54.5 -344.5h-190q3 343 249 659z" />
    <glyph glyph-name="eight.dnom" horiz-adv-x="813" 
d="M406 -14q-148 0 -237 63.5t-89 171.5q0 68 46.5 122t106.5 67q-54 24 -87 70.5t-33 107.5q0 106 83 168.5t210 62.5q129 0 210.5 -62t81.5 -169q0 -61 -32 -107.5t-84 -70.5q58 -13 104.5 -67t46.5 -122q0 -108 -88.5 -171.5t-238.5 -63.5zM406 690q-58 0 -94 -28
t-36 -80t36 -80.5t94 -28.5q59 0 95 28.5t36 80.5t-36 80t-95 28zM406 346q-73 0 -112.5 -31t-39.5 -84t39.5 -83.5t112.5 -30.5q74 0 114.5 30.5t40.5 83.5t-40.5 84t-114.5 31z" />
    <glyph glyph-name="nine.dnom" horiz-adv-x="802" 
d="M383 125q78 0 125 70.5t47 177.5q-68 -105 -195 -105q-121 0 -199.5 77.5t-78.5 195.5q0 120 85.5 199t221.5 79q148 0 241 -108.5t93 -292.5q0 -193 -96.5 -312.5t-249.5 -119.5q-118 0 -195 64t-92 167h168q23 -92 125 -92zM389 684q-62 0 -100.5 -39.5t-38.5 -101.5
q0 -65 38 -105.5t101 -40.5q64 0 103.5 40.5t39.5 105.5q0 62 -39.5 101.5t-103.5 39.5z" />
    <glyph glyph-name="percent.lt" 
d="M25 1163q0 134 94 229t227 95q135 0 229.5 -95t94.5 -229t-94.5 -228.5t-229.5 -94.5q-133 0 -227 94.5t-94 228.5zM1073 1462h182l-993 -1460h-182zM178 1163q0 -71 50 -121.5t118 -50.5q69 0 118.5 50t49.5 122t-49.5 122t-118.5 50q-68 0 -118 -50.5t-50 -121.5z
M682 297q0 134 95 230t227 96q135 0 230 -96t95 -230t-95 -228t-230 -94q-132 0 -227 94.5t-95 227.5zM838 297q0 -70 49 -120t117 -50q69 0 119.5 50t50.5 120q0 73 -50 123.5t-120 50.5q-68 0 -117 -50.5t-49 -123.5z" />
    <glyph glyph-name="period.tab" horiz-adv-x="675" 
d="M186 0v305h306v-305h-306z" />
    <glyph glyph-name="comma.tab" horiz-adv-x="675" 
d="M188 8v297h306v-325q0 -153 -93.5 -237.5t-257.5 -84.5v141q90 0 137.5 40.5t47.5 140.5v28h-140z" />
    <glyph glyph-name="colon.tab" horiz-adv-x="675" 
d="M186 666v305h306v-305h-306zM186 0v305h306v-305h-306z" />
    <glyph glyph-name="semicolon.tab" horiz-adv-x="675" 
d="M188 666v305h306v-305h-306zM188 8v297h306v-325q0 -153 -93.5 -237.5t-257.5 -84.5v141q90 0 137.5 40.5t47.5 140.5v28h-140z" />
    <glyph glyph-name="space.tab" horiz-adv-x="675" 
 />
    <glyph glyph-name="thinspace" horiz-adv-x="129" 
 />
    <glyph glyph-name="zero.slash" horiz-adv-x="1431" 
d="M94 731q0 218 75.5 389.5t218 269t329.5 97.5q140 0 257 -56.5t196.5 -157t123 -240t43.5 -302.5t-43.5 -302.5t-123 -240t-196.5 -157t-257 -56.5q-187 0 -329.5 97.5t-218 269t-75.5 389.5zM360 731q0 -274 107 -424l381 950q-63 29 -131 29q-170 0 -263.5 -150.5
t-93.5 -404.5zM1073 731q0 273 -102 420l-383 -948q66 -27 129 -27q170 0 263 150.5t93 404.5z" />
    <glyph glyph-name="zero.slashlt" 
d="M676 -25q-177 0 -312 97.5t-206.5 269t-71.5 389.5t71.5 389.5t206.5 269t312 97.5t312 -97.5t206.5 -269t71.5 -389.5t-71.5 -389.5t-206.5 -269t-312 -97.5zM342 731q0 -260 82 -403l401 919q-67 39 -149 39q-112 0 -188 -70.5t-111 -193t-35 -291.5zM1010 731
q0 256 -80 399l-400 -915q59 -39 146 -39q112 0 188 70.5t111 193t35 291.5z" />
    <glyph glyph-name="CR" horiz-adv-x="452" 
 />
    </font>
</defs>
</svg>
