<?xml version="1.0" standalone="no"?>
<!DOCTYPE svg PUBLIC "-//W3C//DTD SVG 1.1//EN" "http://www.w3.org/Graphics/SVG/1.1/DTD/svg11.dtd" >
<svg xmlns="http://www.w3.org/2000/svg" xmlns:xlink="http://www.w3.org/1999/xlink" version="1.1">
<metadata>
Created by FontForge 20170731 at Mon May  9 08:32:44 2022
 By Aleksey,,,
Copyright 2022, Kris Sowersby, Klim Type Foundry.
</metadata>
<defs>
<font id="UntitledSans-Regular" horiz-adv-x="1351" >
  <font-face 
    font-family="Untitled Sans"
    font-weight="400"
    font-stretch="normal"
    units-per-em="2048"
    panose-1="2 11 5 3 3 2 2 6 2 3"
    ascent="1638"
    descent="-410"
    x-height="1030"
    cap-height="1462"
    bbox="-412 -459 2146 1972"
    underline-thickness="102"
    underline-position="-307"
    unicode-range="U+0020-2212"
  />
<missing-glyph horiz-adv-x="2412" 
d="M2032 969v-113q-49 -16 -109 -16q-172 0 -172 172v256h-74v106h74v133h152v-133h116v-106h-116v-238q0 -69 61 -69q29 0 68 8zM655 1374v-82q20 43 62 70t100 27q92 0 143.5 -54t51.5 -149v-338h-154v303q0 121 -96 121q-49 0 -78 -34.5t-29 -104.5v-285h-153v526h153z
M1092 1114q0 126 75.5 200.5t198.5 74.5q121 0 196.5 -74.5t75.5 -200.5q0 -127 -75 -201.5t-197 -74.5q-123 0 -198.5 74.5t-75.5 201.5zM1243 1114q0 -80 31.5 -124t91.5 -44q57 0 88 44.5t31 123.5q0 77 -31 120.5t-88 43.5q-61 0 -92 -43t-31 -121zM205 848v174h174
v-174h-174zM2032 621q-39 8 -68 8q-61 0 -61 -70v-31h116v-106h-116v-422h-152v422h-74v106h74v50q0 172 172 172q57 0 109 -17v-112zM860 0v84q-20 -42 -64 -69t-100 -27q-105 0 -168 76t-63 200q0 123 63 200t168 77q54 0 97 -27t65 -68v297h154v-743h-152zM1626 166
q-24 -85 -89.5 -131.5t-166.5 -46.5q-123 0 -200.5 74t-77.5 200q0 125 80 201t198 76q127 0 195.5 -77.5t68.5 -189.5v-47h-395q15 -129 131 -129q85 0 109 70h147zM1370 432q-52 0 -84 -30t-43 -85h242q-2 48 -31 81.5t-84 33.5zM862 254v18q0 74 -32.5 116t-90.5 42
t-90.5 -45t-32.5 -121q0 -77 32.5 -122.5t90.5 -45.5t90.5 42.5t32.5 115.5z" />
    <glyph glyph-name="f_idieresis" unicode="f&#xef;" horiz-adv-x="1185" 
d="M209 901h-150v129h150v137q0 159 96 252.5t258 93.5q101 0 166 -30v-137q-51 26 -162 26q-98 0 -144 -52.5t-46 -160.5v-129h221v-129h-221v-901h-168v901zM987 1245v207h176v-207h-176zM831 1030h173v-1030h-173v1030z" />
    <glyph glyph-name=".notdef" horiz-adv-x="2412" 
d="M2032 969v-113q-49 -16 -109 -16q-172 0 -172 172v256h-74v106h74v133h152v-133h116v-106h-116v-238q0 -69 61 -69q29 0 68 8zM655 1374v-82q20 43 62 70t100 27q92 0 143.5 -54t51.5 -149v-338h-154v303q0 121 -96 121q-49 0 -78 -34.5t-29 -104.5v-285h-153v526h153z
M1092 1114q0 126 75.5 200.5t198.5 74.5q121 0 196.5 -74.5t75.5 -200.5q0 -127 -75 -201.5t-197 -74.5q-123 0 -198.5 74.5t-75.5 201.5zM1243 1114q0 -80 31.5 -124t91.5 -44q57 0 88 44.5t31 123.5q0 77 -31 120.5t-88 43.5q-61 0 -92 -43t-31 -121zM205 848v174h174
v-174h-174zM2032 621q-39 8 -68 8q-61 0 -61 -70v-31h116v-106h-116v-422h-152v422h-74v106h74v50q0 172 172 172q57 0 109 -17v-112zM860 0v84q-20 -42 -64 -69t-100 -27q-105 0 -168 76t-63 200q0 123 63 200t168 77q54 0 97 -27t65 -68v297h154v-743h-152zM1626 166
q-24 -85 -89.5 -131.5t-166.5 -46.5q-123 0 -200.5 74t-77.5 200q0 125 80 201t198 76q127 0 195.5 -77.5t68.5 -189.5v-47h-395q15 -129 131 -129q85 0 109 70h147zM1370 432q-52 0 -84 -30t-43 -85h242q-2 48 -31 81.5t-84 33.5zM862 254v18q0 74 -32.5 116t-90.5 42
t-90.5 -45t-32.5 -121q0 -77 32.5 -122.5t90.5 -45.5t90.5 42.5t32.5 115.5z" />
    <glyph glyph-name=".null" horiz-adv-x="0" 
 />
    <glyph glyph-name="nonmarkingreturn" horiz-adv-x="682" 
 />
    <glyph glyph-name="space" unicode=" " horiz-adv-x="444" 
 />
    <glyph glyph-name="exclam" unicode="!" horiz-adv-x="630" 
d="M215 1462h201l-31 -1018h-137zM203 0v221h223v-221h-223z" />
    <glyph glyph-name="quotedbl" unicode="&#x22;" horiz-adv-x="856" 
d="M539 946l-27 561h178l-26 -561h-125zM193 946l-27 561h180l-24 -561h-129z" />
    <glyph glyph-name="numbersign" unicode="#" horiz-adv-x="1490" 
d="M739 82l99 389h-322l-98 -389h-142l99 389h-248l25 119h251l78 309h-262l23 121h270l98 389h142l-99 -389h322l98 389h141l-98 -389h248l-25 -121h-254l-77 -309h266l-27 -119h-268l-98 -389h-142zM545 590h321l78 309h-321z" />
    <glyph glyph-name="dollar" unicode="$" horiz-adv-x="1343" 
d="M1219 401q0 -173 -134 -290t-344 -129v-205h-123v207q-103 9 -192 41.5t-159 87t-112.5 136t-48.5 181.5h164q13 -139 108 -215t240 -92v545l-102 20q-62 13 -112 30.5t-98 48t-80.5 70.5t-52 99.5t-19.5 132.5q0 175 128 291t336 125v192h123v-196q196 -19 312.5 -118
t134.5 -273h-162q-13 106 -87 168t-198 77v-528l119 -23q174 -36 266.5 -127.5t92.5 -255.5zM569 842l49 -11v508q-142 -7 -222.5 -80t-80.5 -184q0 -105 59 -155.5t195 -77.5zM795 635l-54 10v-524q144 11 229 82.5t85 189.5q0 97 -59 156t-201 86z" />
    <glyph glyph-name="percent" unicode="%" horiz-adv-x="1722" 
d="M143 1161q0 135 95.5 230.5t228.5 95.5q136 0 232 -95.5t96 -230.5t-96 -230t-232 -95q-133 0 -228.5 95.5t-95.5 229.5zM1260 1462h145l-938 -1460h-148zM270 1161q0 -85 58.5 -144t138.5 -59q85 0 143 58.5t58 144.5q0 85 -58 144t-143 59q-80 0 -138.5 -59.5
t-58.5 -143.5zM928 297q0 135 95.5 231.5t227.5 96.5q136 0 232 -96.5t96 -231.5t-95.5 -229.5t-232.5 -94.5q-133 0 -228 95t-95 229zM1055 297q0 -84 58 -142.5t138 -58.5q85 0 143 58t58 143q0 86 -58 145.5t-143 59.5q-80 0 -138 -59.5t-58 -145.5z" />
    <glyph glyph-name="ampersand" unicode="&#x26;" horiz-adv-x="1490" 
d="M1231 0l-158 156q-200 -181 -477 -181q-206 0 -343.5 110.5t-137.5 289.5q0 141 81 234t244 177q-83 88 -127.5 169t-44.5 173q0 152 107 255.5t284 103.5q173 0 273 -94t100 -240q0 -127 -83 -214t-261 -175l391 -393q103 154 121 368h154q-21 -265 -174 -469l270 -270
h-219zM436 1135q0 -72 39 -134.5t117 -140.5q155 72 216.5 135t61.5 158q0 81 -58 142t-153 61t-159 -59.5t-64 -161.5zM287 385q0 -117 92 -193.5t223 -76.5q222 0 375 137l-442 438q-126 -64 -187 -131.5t-61 -173.5z" />
    <glyph glyph-name="quotesingle" unicode="'" horiz-adv-x="514" 
d="M193 946l-27 561h180l-24 -561h-129z" />
    <glyph glyph-name="parenleft" unicode="(" horiz-adv-x="802" 
d="M352 643q0 -224 87 -444.5t243 -419.5h-166q-334 410 -334 864t334 864h166q-330 -449 -330 -864z" />
    <glyph glyph-name="parenright" unicode=")" horiz-adv-x="802" 
d="M121 -221q156 199 243 419.5t87 444.5q0 415 -330 864h166q334 -410 334 -864t-334 -864h-166z" />
    <glyph glyph-name="asterisk" unicode="*" horiz-adv-x="837" 
d="M360 1487h119v-275l254 86l37 -112l-258 -86l158 -217l-95 -72l-155 221l-156 -221l-96 72l158 217l-258 86l36 112l256 -86v275z" />
    <glyph glyph-name="plus" unicode="+" 
d="M1208 612h-463v-465h-139v465h-465v140h465v465h139v-465h463v-140z" />
    <glyph glyph-name="comma" unicode="," horiz-adv-x="628" 
d="M203 2v221h223v-258q0 -130 -76 -208.5t-213 -78.5v105q82 0 123 42t41 140v37h-98z" />
    <glyph glyph-name="hyphen" unicode="-" horiz-adv-x="923" 
d="M178 500v149h567v-149h-567z" />
    <glyph glyph-name="period" unicode="." horiz-adv-x="628" 
d="M203 0v223h223v-223h-223z" />
    <glyph glyph-name="slash" unicode="/" horiz-adv-x="1038" 
d="M102 -221l668 1728h166l-668 -1728h-166z" />
    <glyph glyph-name="zero" unicode="0" horiz-adv-x="1386" 
d="M111 731q0 218 70.5 389.5t203.5 269t307 97.5q175 0 308 -97.5t203.5 -269t70.5 -389.5t-70.5 -389.5t-203.5 -269t-308 -97.5q-174 0 -307 97.5t-203.5 269t-70.5 389.5zM291 731q0 -276 103.5 -440t297.5 -164q196 0 300 164t104 440t-104 440t-300 164
q-194 0 -297.5 -164t-103.5 -440z" />
    <glyph glyph-name="one" unicode="1" horiz-adv-x="747" 
d="M51 1128v119q182 0 265 51.5t110 169.5h109v-1468h-177v1128h-307z" />
    <glyph glyph-name="two" unicode="2" horiz-adv-x="1171" 
d="M1071 1061q0 -74 -23.5 -139t-57 -112t-92 -97t-106.5 -82.5t-121 -79.5q-31 -19 -46 -29q-66 -44 -106.5 -72.5t-93.5 -71.5t-82.5 -76.5t-51 -75t-21.5 -79.5h815v-147h-1003v80q0 75 29 147.5t72 128.5t110.5 115t124.5 99t133 87q70 45 113 74.5t94 72t78.5 78.5
t47 83t19.5 96q0 55 -16.5 102.5t-50 88t-93 64t-137.5 23.5q-145 0 -233 -94t-97 -233h-165q7 131 65.5 237.5t171 172t260.5 65.5q111 0 201 -36t146 -96t86 -135.5t30 -158.5z" />
    <glyph glyph-name="three" unicode="3" horiz-adv-x="1243" 
d="M1133 397q0 -86 -34 -162t-97.5 -134t-161 -92t-217.5 -34q-234 0 -378 122.5t-159 330.5h172q9 -140 105 -224.5t260 -84.5q160 0 252 76t92 208q0 126 -86.5 196.5t-233.5 70.5h-160v143h154q127 0 207 62t80 194q0 119 -77.5 196.5t-221.5 77.5q-151 0 -239.5 -91
t-96.5 -228h-166q6 97 41.5 180t97 146.5t155 100t208.5 36.5q114 0 205 -34t147.5 -92.5t86.5 -132.5t30 -157q0 -131 -75.5 -220.5t-186.5 -105.5q131 -20 214 -116t83 -232z" />
    <glyph glyph-name="four" unicode="4" horiz-adv-x="1353" 
d="M973 1462v-919h313v-142h-313v-401h-172v401h-725v144l698 917h199zM801 1280l-555 -737h555v737z" />
    <glyph glyph-name="five" unicode="5" horiz-adv-x="1241" 
d="M629 829q-109 0 -188 -45.5t-124 -117.5h-157l82 796h823v-149h-696l-50 -484q48 61 137 102.5t187 41.5q149 0 263 -67t173.5 -180t59.5 -251q0 -215 -138.5 -357.5t-371.5 -142.5q-223 0 -367.5 124t-161.5 335h174q11 -141 107.5 -228t249.5 -87q110 0 188.5 51
t114 130t35.5 175q0 150 -88 252t-252 102z" />
    <glyph glyph-name="six" unicode="6" horiz-adv-x="1280" 
d="M686 1339q-132 0 -226 -86.5t-140 -233.5t-46 -339q38 124 147.5 210.5t266.5 86.5q214 0 348.5 -140.5t134.5 -353.5q0 -223 -139 -365.5t-366 -142.5q-246 0 -400.5 199.5t-154.5 532.5q0 228 74 406.5t205.5 276t297.5 97.5q194 0 319 -107.5t150 -292.5h-162
q-53 252 -309 252zM666 119q154 0 247 101t93 257q0 157 -92.5 257t-247.5 100q-153 0 -248.5 -100.5t-95.5 -256.5q0 -155 96 -256.5t248 -101.5z" />
    <glyph glyph-name="seven" unicode="7" horiz-adv-x="1169" 
d="M891 1313h-836v149h1028v-125q-253 -306 -362.5 -627.5t-114.5 -709.5h-184q4 374 128 705t341 608z" />
    <glyph glyph-name="eight" unicode="8" horiz-adv-x="1310" 
d="M653 1487q211 0 347.5 -109.5t136.5 -294.5q0 -121 -65 -209.5t-177 -132.5q122 -23 214.5 -120.5t92.5 -221.5q0 -190 -149.5 -307t-399.5 -117q-248 0 -397.5 117t-149.5 307q0 124 93 221.5t215 120.5q-111 44 -176.5 132.5t-65.5 209.5q0 185 136 294.5t345 109.5z
M653 817q140 0 231 68.5t91 197.5q0 128 -91 196.5t-231 68.5q-138 0 -228.5 -68.5t-90.5 -196.5q0 -129 90.5 -197.5t228.5 -68.5zM653 117q174 0 273.5 76t99.5 206q0 128 -99.5 202.5t-273.5 74.5q-171 0 -270.5 -74.5t-99.5 -202.5q0 -129 99.5 -205.5t270.5 -76.5z" />
    <glyph glyph-name="nine" unicode="9" horiz-adv-x="1280" 
d="M594 123q132 0 226 86.5t140 233.5t46 339q-38 -124 -147.5 -210.5t-266.5 -86.5q-214 0 -348.5 140.5t-134.5 353.5q0 223 139 365.5t366 142.5q246 0 400.5 -199t154.5 -532q0 -228 -74 -406.5t-205.5 -276.5t-297.5 -98q-194 0 -319 107.5t-150 292.5h162
q53 -252 309 -252zM614 1343q-154 0 -247 -101t-93 -257q0 -157 92.5 -256.5t247.5 -99.5q153 0 248.5 100t95.5 256q0 155 -96 256.5t-248 101.5z" />
    <glyph glyph-name="colon" unicode=":" horiz-adv-x="628" 
d="M203 696v224h223v-224h-223zM203 0v223h223v-223h-223z" />
    <glyph glyph-name="semicolon" unicode=";" horiz-adv-x="628" 
d="M203 696v224h223v-224h-223zM203 2v221h223v-258q0 -130 -76 -208.5t-213 -78.5v105q82 0 123 42t41 140v37h-98z" />
    <glyph glyph-name="less" unicode="&#x3c;" 
d="M201 592v170l911 444v-162l-760 -366l760 -367v-164z" />
    <glyph glyph-name="equal" unicode="=" 
d="M158 788v138h1034v-138h-1034zM158 406v135h1034v-135h-1034z" />
    <glyph glyph-name="greater" unicode="&#x3e;" 
d="M1149 592l-911 -445v164l759 367l-759 366v162l911 -444v-170z" />
    <glyph glyph-name="question" unicode="?" horiz-adv-x="1157" 
d="M1061 1063q0 -62 -18.5 -119t-43.5 -98t-69 -85.5t-76 -70.5t-84 -65q-34 -25 -53.5 -42.5t-42.5 -45t-35 -62.5t-14 -78h-170q3 104 59 185t168 166q47 36 75 61t64.5 66t54 87.5t17.5 98.5q0 55 -16.5 103t-50 88.5t-92.5 64.5t-136 24q-151 0 -237.5 -94t-94.5 -233
h-168q6 98 42 183t97.5 150t154.5 102.5t206 37.5q111 0 201 -35t146 -95t86 -135t30 -159zM428 0v217h223v-217h-223z" />
    <glyph glyph-name="at" unicode="@" horiz-adv-x="1878" 
d="M1352 903l-105 -594q-12 -66 13 -98.5t81 -32.5q128 0 213.5 122.5t85.5 336.5q0 258 -176 414.5t-465 156.5q-219 0 -391.5 -100t-267 -272.5t-94.5 -386.5q0 -144 43 -261t115 -195t170.5 -130.5t204.5 -75.5t222 -23q244 0 453 86l41 -98q-221 -102 -494 -102
q-137 0 -263 29t-239 92t-196.5 154.5t-132.5 226t-49 297.5q0 180 64.5 340.5t178 279t278.5 187.5t357 69q224 0 399.5 -90t271 -246.5t95.5 -351.5q0 -137 -38.5 -247.5t-102.5 -179t-142.5 -104.5t-162.5 -36q-82 0 -141.5 38t-79.5 105q-37 -60 -104 -98.5t-146 -38.5
q-144 0 -224.5 97.5t-80.5 248.5q0 129 51.5 242.5t150 185.5t222.5 72q77 0 136 -40t83 -96l20 117h146zM1126 438l13 86q24 127 -24.5 195.5t-137.5 68.5q-83 0 -148.5 -51.5t-99.5 -131.5t-35 -169q-2 -105 48 -166t139 -61q80 0 151.5 59t93.5 170z" />
    <glyph glyph-name="A" unicode="A" horiz-adv-x="1454" 
d="M1235 0l-162 408h-700l-162 -408h-176l592 1462h198l594 -1462h-184zM721 1286l-291 -733h586l-289 733h-6z" />
    <glyph glyph-name="B" unicode="B" horiz-adv-x="1380" 
d="M770 0h-580v1462h515q246 0 380 -100t134 -291q0 -101 -67 -192t-161 -119q135 -34 214 -127.5t79 -222.5q0 -199 -134.5 -304.5t-379.5 -105.5zM365 817h350q161 0 243 65t82 187q0 250 -323 250h-352v-502zM365 680v-537h397q166 0 256 70t90 197t-92 198.5t-258 71.5
h-393z" />
    <glyph glyph-name="C" unicode="C" horiz-adv-x="1404" 
d="M283 733q0 -277 126 -442.5t349 -165.5q89 0 158.5 23.5t114.5 66t72 94.5t40 117h172q-36 -206 -180 -328.5t-377 -122.5q-188 0 -336.5 92.5t-234 266t-85.5 399.5q0 225 85.5 397.5t234 264.5t336.5 92q233 0 377 -122.5t180 -328.5h-172q-13 65 -40 117t-72 94.5
t-114.5 66t-158.5 23.5q-223 0 -349 -163.5t-126 -440.5z" />
    <glyph glyph-name="D" unicode="D" horiz-adv-x="1523" 
d="M709 1462q318 0 515 -201.5t197 -529.5q0 -329 -196.5 -530t-515.5 -201h-519v1462h519zM709 1315h-344v-1168h344q252 0 391 157.5t139 426.5q0 268 -139.5 426t-390.5 158z" />
    <glyph glyph-name="E" unicode="E" horiz-adv-x="1314" 
d="M1180 0h-990v1462h988v-147h-813v-510h722v-150h-722v-508h815v-147z" />
    <glyph glyph-name="F" unicode="F" horiz-adv-x="1257" 
d="M190 0v1462h936v-147h-759v-535h690v-147h-690v-633h-177z" />
    <glyph glyph-name="G" unicode="G" horiz-adv-x="1527" 
d="M102 733q0 225 88.5 397.5t241.5 264.5t346 92q238 0 385.5 -121t186.5 -330h-176q-30 140 -131.5 220.5t-264.5 80.5q-231 0 -363 -164t-132 -440q0 -277 130 -442.5t359 -165.5q187 0 307.5 106.5t120.5 282.5v76h-346v139h518v-729h-139l-16 244q-41 -117 -170 -193
t-277 -76q-144 0 -267.5 54t-212 151.5t-138.5 240t-50 312.5z" />
    <glyph glyph-name="H" unicode="H" horiz-adv-x="1589" 
d="M190 0v1462h177v-645h856v645h176v-1462h-176v670h-856v-670h-177z" />
    <glyph glyph-name="I" unicode="I" horiz-adv-x="559" 
d="M190 0v1462h177v-1462h-177z" />
    <glyph glyph-name="J" unicode="J" horiz-adv-x="1165" 
d="M821 516v946h176v-944q0 -249 -131.5 -396t-361.5 -147q-205 0 -339 118.5t-140 328.5h170q7 -150 91.5 -228.5t217.5 -78.5q161 0 239 105.5t78 295.5z" />
    <glyph glyph-name="K" unicode="K" horiz-adv-x="1449" 
d="M1176 0l-586 696l-223 -227v-469h-177v1462h177v-794l770 794h213l-637 -643l676 -819h-213z" />
    <glyph glyph-name="L" unicode="L" horiz-adv-x="1271" 
d="M190 0v1462h177v-1315h786v-147h-963z" />
    <glyph glyph-name="M" unicode="M" horiz-adv-x="1820" 
d="M981 0h-143l-476 1282h-4v-1282h-168v1462h273l450 -1233h5l450 1233h262v-1462h-170v1282h-4z" />
    <glyph glyph-name="N" unicode="N" horiz-adv-x="1554" 
d="M408 1462l780 -1167h4v1167h170v-1462h-164l-831 1247h-5v-1247h-172v1462h218z" />
    <glyph glyph-name="O" unicode="O" horiz-adv-x="1536" 
d="M1434 731q0 -219 -81 -390.5t-233 -268.5t-352 -97t-352 97t-233 268.5t-81 390.5q0 218 81 389.5t233.5 269t351.5 97.5t351.5 -97.5t233.5 -269t81 -389.5zM1251 731q0 273 -125.5 439.5t-357.5 166.5q-234 0 -359.5 -166.5t-125.5 -439.5q0 -180 53 -314.5t164 -213
t268 -78.5q156 0 266 78.5t163.5 213.5t53.5 314z" />
    <glyph glyph-name="P" unicode="P" horiz-adv-x="1333" 
d="M733 588h-368v-588h-175v1462h541q247 0 380.5 -111.5t133.5 -324.5q0 -215 -133 -326.5t-379 -111.5zM365 735h362q342 0 342 291q0 289 -342 289h-362v-580z" />
    <glyph glyph-name="Q" unicode="Q" horiz-adv-x="1536" 
d="M1348 -14l-99 -90l-153 163q-141 -84 -328 -84q-200 0 -352 97t-233 268.5t-81 390.5q0 218 81 389.5t233.5 269t351.5 97.5t351.5 -97.5t233.5 -269t81 -389.5q0 -184 -60 -337t-170 -255zM283 731q0 -180 53 -314.5t164 -213t268 -78.5q123 0 219 49l-172 184l100 93
l181 -195q155 162 155 475q0 273 -125.5 439.5t-357.5 166.5q-234 0 -359.5 -166.5t-125.5 -439.5z" />
    <glyph glyph-name="R" unicode="R" horiz-adv-x="1411" 
d="M365 0h-175v1462h564q247 0 380.5 -112t133.5 -322q0 -86 -28 -158.5t-76.5 -122t-107.5 -82t-126 -47.5l401 -618h-198l-379 592h-389v-592zM365 739h378q167 0 257 74t90 215q0 138 -90.5 212.5t-256.5 74.5h-378v-576z" />
    <glyph glyph-name="S" unicode="S" horiz-adv-x="1343" 
d="M96 432h170q8 -86 46 -148.5t98 -98t131.5 -52t156.5 -16.5q161 0 262 73.5t101 202.5q0 96 -61 154.5t-205 85.5l-279 55q-80 15 -142.5 40t-117 68t-84 111.5t-29.5 159.5q0 182 142.5 301t367.5 119q239 0 383.5 -102.5t165.5 -297.5h-170q-19 122 -119 190.5
t-258 68.5q-156 0 -248 -77t-92 -196q0 -105 60 -154t200 -77l287 -60q179 -36 274 -126t95 -255q0 -187 -149.5 -306.5t-381.5 -119.5q-97 0 -183 16.5t-161 52.5t-130.5 89t-89.5 129.5t-40 169.5z" />
    <glyph glyph-name="T" unicode="T" horiz-adv-x="1431" 
d="M627 0v1315h-545v147h1268v-147h-547v-1315h-176z" />
    <glyph glyph-name="U" unicode="U" horiz-adv-x="1521" 
d="M1352 596q0 -299 -154.5 -460t-437.5 -161q-281 0 -436.5 162t-155.5 463v862h176v-876q0 -228 109.5 -344.5t306.5 -116.5q198 0 307 116t109 345v876h176v-866z" />
    <glyph glyph-name="V" unicode="V" horiz-adv-x="1454" 
d="M625 0l-590 1462h184l508 -1282h4l508 1282h180l-594 -1462h-200z" />
    <glyph glyph-name="W" unicode="W" horiz-adv-x="1990" 
d="M1327 0l-330 1229h-4l-331 -1229h-199l-412 1462h187l335 -1243h5l329 1243h187l331 -1243h5l333 1243h176l-411 -1462h-201z" />
    <glyph glyph-name="X" unicode="X" horiz-adv-x="1437" 
d="M1198 0l-489 645l-484 -645h-190l579 768l-524 694h207l420 -561l420 561h190l-516 -682l592 -780h-205z" />
    <glyph glyph-name="Y" unicode="Y" horiz-adv-x="1359" 
d="M768 0h-176v606l-557 856h194l457 -698h4l443 698h194l-559 -856v-606z" />
    <glyph glyph-name="Z" unicode="Z" horiz-adv-x="1363" 
d="M1243 1323l-909 -1176h915v-147h-1140v125l913 1190h-883v147h1104v-139z" />
    <glyph glyph-name="bracketleft" unicode="[" horiz-adv-x="808" 
d="M377 1376v-1466h289v-131h-451v1728h451v-131h-289z" />
    <glyph glyph-name="backslash" unicode="\" horiz-adv-x="1038" 
d="M102 1507h166l668 -1728h-166z" />
    <glyph glyph-name="bracketright" unicode="]" horiz-adv-x="808" 
d="M432 -90v1466h-289v131h451v-1728h-451v131h289z" />
    <glyph glyph-name="asciicircum" unicode="^" horiz-adv-x="903" 
d="M381 1487h141l320 -508h-160l-231 362l-232 -362h-160z" />
    <glyph glyph-name="underscore" unicode="_" horiz-adv-x="892" 
d="M68 -242v138h757v-138h-757z" />
    <glyph glyph-name="grave" unicode="`" horiz-adv-x="1157" 
d="M743 1188h-106l-225 319h217z" />
    <glyph glyph-name="a" unicode="a" horiz-adv-x="1130" 
d="M813 0q-18 86 -18 174q-34 -90 -131.5 -143.5t-227.5 -53.5q-141 0 -237.5 79t-96.5 216q0 267 357 310l332 43v59q0 118 -65.5 176t-176.5 58q-102 0 -164.5 -50.5t-71.5 -140.5h-163q15 154 125 241t278 87q192 0 298.5 -92.5t106.5 -274.5v-473q0 -130 25 -215h-170z
M471 106q83 0 154 32.5t118.5 102.5t47.5 165v92l-281 -31q-43 -6 -74.5 -13.5t-64 -21.5t-52.5 -34t-32.5 -51t-12.5 -71q0 -75 51.5 -122.5t145.5 -47.5z" />
    <glyph glyph-name="b" unicode="b" horiz-adv-x="1259" 
d="M346 180v-180h-164v1507h170v-659q39 87 128 147t214 60q199 0 329 -149t130 -392q0 -241 -130 -390t-329 -149q-120 0 -213 60t-135 145zM344 530v-28q0 -178 83.5 -285.5t231.5 -107.5q150 0 236 111t86 294q0 184 -86 296t-236 112q-148 0 -231.5 -107t-83.5 -285z
" />
    <glyph glyph-name="c" unicode="c" horiz-adv-x="1103" 
d="M106 514q0 246 134.5 393.5t351.5 147.5q171 0 280 -92.5t134 -257.5h-162q-45 213 -252 213q-150 0 -234 -110t-84 -294t84 -292.5t234 -108.5q207 0 252 213h162q-25 -166 -133.5 -258.5t-280.5 -92.5q-217 0 -351.5 147t-134.5 392z" />
    <glyph glyph-name="d" unicode="d" horiz-adv-x="1259" 
d="M913 0v180q-42 -85 -135 -145t-213 -60q-199 0 -329 149t-130 390q0 243 130 392t329 149q125 0 214 -60t128 -147v659h170v-1507h-164zM915 502v28q0 178 -83.5 285t-231.5 107q-150 0 -235.5 -112t-85.5 -296q0 -183 85.5 -294t235.5 -111q148 0 231.5 107.5
t83.5 285.5z" />
    <glyph glyph-name="e" unicode="e" horiz-adv-x="1140" 
d="M1028 303q-34 -158 -151 -243t-275 -85q-221 0 -358.5 144.5t-137.5 390.5q0 247 138 396t348 149q111 0 197.5 -42t138.5 -113.5t79 -161t27 -191.5v-68h-762q6 -177 93.5 -272.5t236.5 -95.5q200 0 266 192h160zM592 918q-125 0 -208.5 -81t-104.5 -235h589
q-3 141 -73.5 228.5t-202.5 87.5z" />
    <glyph glyph-name="f" unicode="f" horiz-adv-x="636" 
d="M209 901h-150v129h150v193q0 141 81.5 215.5t217.5 74.5q63 0 115 -10v-135q-40 6 -105 6q-62 0 -101.5 -35.5t-39.5 -117.5v-191h221v-129h-221v-901h-168v901z" />
    <glyph glyph-name="g" unicode="g" horiz-adv-x="1257" 
d="M903 66v151q-39 -84 -127.5 -141.5t-214.5 -57.5q-201 0 -329 141.5t-128 379.5q0 230 128.5 373t328.5 143q125 0 215.5 -60.5t132.5 -144.5v180h166v-952q0 -120 -37 -211t-104 -146t-154 -82.5t-192 -27.5q-189 0 -308 76t-149 225h172q46 -170 283 -170
q154 0 235.5 82t81.5 242zM915 514v49q0 159 -90 259t-233 100q-149 0 -234.5 -104.5t-85.5 -278.5q0 -173 85.5 -279t234.5 -106q143 0 233 100t90 260z" />
    <glyph glyph-name="h" unicode="h" horiz-adv-x="1222" 
d="M352 842q37 99 124.5 156t205.5 57q173 0 271 -103.5t98 -287.5v-664h-170v627q0 142 -62 215t-184 73q-127 0 -205 -85.5t-78 -262.5v-567h-170v1507h170v-665z" />
    <glyph glyph-name="i" unicode="i" horiz-adv-x="534" 
d="M170 1245v207h192v-207h-192zM182 0v1030h170v-1030h-170z" />
    <glyph glyph-name="j" unicode="j" horiz-adv-x="534" 
d="M170 1245v207h192v-207h-192zM76 -377q-47 0 -88 8v136q32 -7 55 -7q75 0 107 30.5t32 111.5v1128h170v-1122q0 -145 -67 -215t-209 -70z" />
    <glyph glyph-name="k" unicode="k" horiz-adv-x="1142" 
d="M877 0l-392 485l-133 -129v-356h-170v1507h170v-970l508 493h203l-455 -436l473 -594h-204z" />
    <glyph glyph-name="l" unicode="l" horiz-adv-x="534" 
d="M352 0h-170v1507h170v-1507z" />
    <glyph glyph-name="m" unicode="m" horiz-adv-x="1855" 
d="M985 834q47 104 139.5 162.5t206.5 58.5q175 0 265 -103t90 -288v-664h-173v627q0 146 -54 217t-169 71q-121 0 -195.5 -88t-74.5 -260v-567h-172v627q0 146 -53.5 217t-169.5 71q-123 0 -198 -88t-75 -260v-567h-170v1030h164v-188q37 98 125 155.5t201 57.5
q240 0 313 -221z" />
    <glyph glyph-name="n" unicode="n" horiz-adv-x="1222" 
d="M346 1030v-188q37 96 128 154.5t208 58.5q173 0 271 -103.5t98 -287.5v-664h-170v627q0 142 -62 215t-184 73q-127 0 -205 -85.5t-78 -262.5v-567h-170v1030h164z" />
    <glyph glyph-name="o" unicode="o" horiz-adv-x="1191" 
d="M1085 514q0 -246 -136 -392.5t-353 -146.5t-353.5 146.5t-136.5 392.5t136.5 393.5t353.5 147.5q216 0 352.5 -147.5t136.5 -393.5zM274 514q0 -186 86 -293.5t236 -107.5t236 107.5t86 293.5q0 187 -86 295.5t-236 108.5t-236 -108.5t-86 -295.5z" />
    <glyph glyph-name="p" unicode="p" horiz-adv-x="1259" 
d="M352 180v-545h-170v1395h164v-188q39 87 131.5 150t216.5 63q199 0 329 -149t130 -392q0 -241 -130 -390t-329 -149q-120 0 -210 59.5t-132 145.5zM344 530v-28q0 -178 83.5 -285.5t231.5 -107.5q150 0 236 111t86 294q0 184 -86 296t-236 112q-148 0 -231.5 -107
t-83.5 -285z" />
    <glyph glyph-name="q" unicode="q" horiz-adv-x="1259" 
d="M907 -365v545q-42 -86 -132 -145.5t-210 -59.5q-199 0 -329 149t-130 390q0 243 130 392t329 149q124 0 216.5 -63t131.5 -150v188h164v-1395h-170zM915 502v28q0 178 -83.5 285t-231.5 107q-150 0 -235.5 -112t-85.5 -296q0 -183 85.5 -294t235.5 -111
q148 0 231.5 107.5t83.5 285.5z" />
    <glyph glyph-name="r" unicode="r" horiz-adv-x="788" 
d="M754 1044v-155q-33 8 -88 8q-132 0 -223 -102t-91 -287v-508h-170v1030h164v-244q33 125 122.5 196t205.5 71q42 0 80 -9z" />
    <glyph glyph-name="s" unicode="s" horiz-adv-x="1056" 
d="M94 305h164q6 -67 48 -114t102 -67t133 -20q108 0 175.5 47.5t67.5 129.5q0 58 -42 94.5t-138 54.5l-182 37q-138 26 -212.5 89t-74.5 189q0 132 107.5 221t275.5 89q180 0 284.5 -76t119.5 -221h-158q-9 78 -74.5 122t-171.5 44q-102 0 -163.5 -46.5t-61.5 -121.5
q0 -64 43 -97t137 -51l205 -39q131 -26 198.5 -93t67.5 -187q0 -135 -114 -224.5t-287 -89.5q-191 0 -313.5 84.5t-135.5 245.5z" />
    <glyph glyph-name="t" unicode="t" horiz-adv-x="755" 
d="M662 152v-140q-93 -28 -181 -28q-284 0 -284 280v637h-152v129h152v262h168v-262h270v-129h-273v-629q0 -78 38 -111.5t112 -33.5q68 0 150 25z" />
    <glyph glyph-name="u" unicode="u" horiz-adv-x="1212" 
d="M1030 0h-166v186q-37 -98 -124 -154.5t-203 -56.5q-175 0 -270 102t-95 290v663h172v-631q0 -290 242 -290q124 0 198 88t74 266v567h172v-1030z" />
    <glyph glyph-name="v" unicode="v" horiz-adv-x="1114" 
d="M469 0l-412 1030h174l332 -862h4l318 862h170l-396 -1030h-190z" />
    <glyph glyph-name="w" unicode="w" horiz-adv-x="1566" 
d="M872 1030l234 -846h4l238 846h163l-311 -1030h-176l-238 834h-6l-233 -834h-178l-312 1030h168l240 -846h6l229 846h172z" />
    <glyph glyph-name="x" unicode="x" horiz-adv-x="1138" 
d="M260 0h-182l391 530l-371 500h201l274 -379l273 379h184l-364 -491l397 -539h-199l-305 414z" />
    <glyph glyph-name="y" unicode="y" horiz-adv-x="1110" 
d="M471 -8l-414 1038h179l327 -842h4l310 842h176l-416 -1061q-73 -192 -151 -270.5t-214 -79.5q-45 0 -100 10v140q37 -9 82 -9q75 0 120 49.5t97 182.5z" />
    <glyph glyph-name="z" unicode="z" horiz-adv-x="1062" 
d="M932 905l-615 -774h637v-131h-848v111l619 788h-594v131h801v-125z" />
    <glyph glyph-name="braceleft" unicode="{" horiz-adv-x="851" 
d="M68 575v136h104q107 0 107 110v471q0 112 58.5 163.5t174.5 51.5h197v-131h-164q-58 0 -84.5 -18t-26.5 -74v-473q0 -141 -141 -168q141 -27 141 -168v-473q0 -56 26.5 -74t84.5 -18h164v-131h-197q-116 0 -174.5 51.5t-58.5 163.5v471q0 110 -107 110h-104z" />
    <glyph glyph-name="bar" unicode="|" horiz-adv-x="628" 
d="M238 1507h153v-1728h-153v1728z" />
    <glyph glyph-name="braceright" unicode="}" horiz-adv-x="851" 
d="M784 711v-136h-104q-107 0 -107 -110v-471q0 -112 -58.5 -163.5t-174.5 -51.5h-197v131h164q58 0 84.5 18t26.5 74v473q0 141 141 168q-141 27 -141 168v473q0 56 -26.5 74t-84.5 18h-164v131h197q116 0 174.5 -51.5t58.5 -163.5v-471q0 -110 107 -110h104z" />
    <glyph glyph-name="asciitilde" unicode="~" horiz-adv-x="1046" 
d="M381 635q-83 0 -90 -150h-113q0 132 50 211.5t143 79.5q43 0 88 -23.5t76 -51t66.5 -51t62.5 -23.5q83 0 90 149h114q0 -132 -50.5 -211.5t-143.5 -79.5q-43 0 -87.5 23.5t-75.5 51.5t-66.5 51.5t-63.5 23.5z" />
    <glyph glyph-name="uni00A0" unicode="&#xa0;" horiz-adv-x="444" 
 />
    <glyph glyph-name="exclamdown" unicode="&#xa1;" horiz-adv-x="630" 
d="M203 1241v221h223v-221h-223zM416 0h-201l33 1018h137z" />
    <glyph glyph-name="cent" unicode="&#xa2;" horiz-adv-x="1142" 
d="M1044 334q-24 -153 -125 -244.5t-253 -105.5v-201h-119v203q-195 24 -314.5 168.5t-119.5 369.5t120 371t314 170v246h119v-244q151 -14 252 -106.5t126 -243.5h-147q-20 94 -79 150.5t-152 68.5v-821q93 12 152 68.5t79 150.5h147zM270 524q0 -165 73.5 -272.5
t203.5 -132.5v813q-130 -25 -203.5 -134t-73.5 -274z" />
    <glyph glyph-name="sterling" unicode="&#xa3;" horiz-adv-x="1292" 
d="M1190 147v-147h-1067v147h24q99 0 160.5 96t61.5 246q0 49 -15 115h-198v135h145q-3 5 -15 30.5t-15.5 33t-14 31t-14.5 34.5t-11.5 33t-11 38t-7.5 37t-5.5 42t-1.5 43q0 76 32 150.5t90 136.5t150 100.5t203 38.5q94 0 172 -24.5t132.5 -67.5t93.5 -103t59 -129.5
t24 -148.5h-164q-5 68 -24 125t-55.5 103.5t-97 72.5t-140.5 26q-142 0 -222.5 -84.5t-80.5 -199.5q0 -42 11 -88t21.5 -73t36 -82.5t33.5 -74.5h422v-135h-379q13 -57 13 -110q0 -101 -36.5 -194t-105.5 -153h797z" />
    <glyph glyph-name="yen" unicode="&#xa5;" horiz-adv-x="1374" 
d="M1202 338h-428v-338h-174v338h-428v125h428v186h-428v125h358l-467 688h193l434 -649h4l424 649h193l-467 -688h360v-125h-430v-186h428v-125z" />
    <glyph glyph-name="section" unicode="&#xa7;" horiz-adv-x="1187" 
d="M958 25q0 -134 -105.5 -222t-277.5 -88q-178 0 -285 83.5t-122 230.5h154q12 -81 81.5 -133t171.5 -52q104 0 165 49.5t61 126.5q0 63 -34 105t-116 90l-243 143q-143 82 -205 160.5t-62 188.5q0 160 154 258q-82 85 -82 215q0 133 103.5 220t273.5 87q178 0 283 -76
t122 -221h-155q-10 80 -77.5 124t-170.5 44q-104 0 -161.5 -49t-57.5 -125q0 -65 32.5 -107t112.5 -90l246 -141q143 -85 204.5 -163t61.5 -187q0 -81 -43 -147t-113 -111q84 -87 84 -213zM707 358q5 -3 28 -16t33 -20q48 24 79.5 67.5t31.5 102.5q0 65 -39 109.5
t-146 109.5l-229 133q-2 1 -26.5 15.5t-35.5 21.5q-48 -24 -79 -67.5t-31 -102.5q0 -65 38 -110t144 -107z" />
    <glyph glyph-name="dieresis" unicode="&#xa8;" horiz-adv-x="1157" 
d="M678 1245v207h174v-207h-174zM305 1245v207h172v-207h-172z" />
    <glyph glyph-name="copyright" unicode="&#xa9;" horiz-adv-x="1781" 
d="M1647 729q0 -153 -60 -292.5t-161 -240.5t-241 -161t-294 -60q-153 0 -293.5 60t-242 160.5t-162 240.5t-60.5 293q0 155 60.5 295.5t162 242.5t242 162t293.5 60q154 0 294 -60t241 -162t161 -242.5t60 -295.5zM223 729q0 -181 89.5 -334t243.5 -242.5t335 -89.5
t335 89.5t243.5 242.5t89.5 334q0 182 -89.5 337t-243.5 245t-335 90t-335 -90t-243.5 -245t-89.5 -337zM635 733q0 -148 69.5 -235t198.5 -88q97 1 150.5 48t66.5 117h144q-24 -135 -115.5 -213.5t-245.5 -78.5q-183 0 -299.5 125t-116.5 325t117 325.5t299 125.5
q154 0 245.5 -78.5t115.5 -214.5h-144q-14 71 -67 118.5t-150 47.5q-129 0 -198.5 -88t-69.5 -236z" />
    <glyph glyph-name="ordfeminine" unicode="&#xaa;" horiz-adv-x="813" 
d="M547 897q-25 -60 -87 -93.5t-147 -33.5q-97 0 -161 53.5t-64 145.5q0 174 240 202l213 25v39q0 141 -144 141q-63 0 -100.5 -31t-42.5 -85h-135q9 106 86 166.5t194 60.5q134 0 207.5 -64.5t73.5 -191.5v-289q0 -87 14 -156h-137q-10 46 -10 111zM541 1051v59l-170 -20
q-68 -9 -105 -33.5t-37 -81.5q0 -47 31 -77t88 -30q77 0 135 49t58 134zM111 514v109h587v-109h-587z" />
    <glyph glyph-name="guillemotleft" unicode="&#xab;" horiz-adv-x="1046" 
d="M922 92h-127l-271 402l271 401h127l-224 -401zM522 92h-125l-272 402l272 401h125l-219 -401z" />
    <glyph glyph-name="registered" unicode="&#xae;" horiz-adv-x="1169" 
d="M586 1487q197 0 334 -135t137 -338q0 -135 -63.5 -244.5t-171 -170t-236.5 -60.5q-198 0 -335.5 135.5t-137.5 339.5q0 203 138 338t335 135zM586 600q171 0 288 117.5t117 296.5q0 178 -117 294.5t-288 116.5t-288.5 -116.5t-117.5 -294.5q0 -179 117.5 -296.5
t288.5 -117.5zM496 770h-99v502h217q87 0 136 -41t49 -117q0 -108 -101 -145l119 -199h-108l-111 182h-102v-182zM496 1034h104q51 0 74.5 19.5t23.5 60.5q0 78 -98 78h-104v-158z" />
    <glyph glyph-name="macron" unicode="&#xaf;" horiz-adv-x="1157" 
d="M287 1245v127h583v-127h-583z" />
    <glyph glyph-name="degree" unicode="&#xb0;" horiz-adv-x="731" 
d="M367 924q-123 0 -205 80t-82 200q0 123 82 203t205 80q122 0 204 -80.5t82 -202.5q0 -120 -82 -200t-204 -80zM367 1378q-77 0 -128 -49t-51 -125q0 -74 51.5 -123t127.5 -49q75 0 125.5 49.5t50.5 122.5q0 76 -50 125t-126 49z" />
    <glyph glyph-name="twosuperior" unicode="&#xb2;" horiz-adv-x="735" 
d="M651 1239q0 -31 -7.5 -59t-17.5 -49t-32 -45t-36.5 -38t-47.5 -36t-49 -32.5t-55 -33.5q-86 -50 -133 -92.5t-48 -83.5h445v-108h-592v53q0 54 22 102.5t64 89.5t79 68.5t91 60.5q100 61 144 103.5t44 99.5q0 56 -37 93.5t-108 37.5t-114 -46t-46 -112h-131q8 113 86 190
t207 77q122 0 197 -70t75 -170z" />
    <glyph glyph-name="threesuperior" unicode="&#xb3;" horiz-adv-x="763" 
d="M678 879q0 -98 -78.5 -165t-214.5 -67q-135 0 -217.5 67.5t-93.5 182.5h131q6 -65 54.5 -104t125.5 -39q76 0 120 36.5t44 96.5t-43 92.5t-115 32.5h-82v104h78q62 0 101.5 31t39.5 92q0 58 -38 95.5t-105 37.5q-71 0 -113 -42.5t-47 -106.5h-127q6 110 82 184t205 74
q130 0 201 -69t71 -169q0 -70 -40.5 -119.5t-102.5 -60.5q74 -12 119 -62t45 -122z" />
    <glyph glyph-name="acute" unicode="&#xb4;" horiz-adv-x="1157" 
d="M520 1188h-106l114 319h217z" />
    <glyph glyph-name="paragraph" unicode="&#xb6;" horiz-adv-x="1277" 
d="M575 -260v936q-235 0 -364 104.5t-129 288.5t129 288.5t364 104.5h508v-1722h-145v1583h-217v-1583h-146z" />
    <glyph glyph-name="periodcentered" unicode="&#xb7;" horiz-adv-x="579" 
d="M178 467v223h223v-223h-223z" />
    <glyph glyph-name="cedilla" unicode="&#xb8;" horiz-adv-x="1284" 
d="M854 -223q0 -85 -69 -129.5t-164 -44.5q-101 0 -177 39v100q82 -43 177 -43q50 0 82 18t32 52q0 28 -18 44.5t-45.5 20t-57 0.5t-55.5 -12l-41 43l117 188h88l-86 -135q53 4 99.5 -6.5t82 -45t35.5 -89.5z" />
    <glyph glyph-name="onesuperior" unicode="&#xb9;" horiz-adv-x="679" 
d="M635 764v-102h-547v102h207v485h-205v97q95 0 146 13.5t71 37t31 69.5h90v-702h207z" />
    <glyph glyph-name="ordmasculine" unicode="&#xba;" horiz-adv-x="849" 
d="M90 1128q0 164 93 261.5t243 97.5q148 0 242 -97.5t94 -261.5q0 -165 -93.5 -262.5t-242.5 -97.5q-150 0 -243 97.5t-93 262.5zM231 1128q0 -119 51.5 -185t143.5 -66q91 0 141.5 66t50.5 185q0 115 -51 181.5t-141 66.5q-92 0 -143.5 -66.5t-51.5 -181.5zM131 514v109
h588v-109h-588z" />
    <glyph glyph-name="guillemotright" unicode="&#xbb;" horiz-adv-x="1046" 
d="M252 86h-127l223 401l-223 402h127l270 -402zM649 86h-125l219 401l-219 402h125l273 -402z" />
    <glyph glyph-name="onequarter" unicode="&#xbc;" horiz-adv-x="1894" 
d="M473 -25h-143l1056 1514h142zM686 764v-102h-547v102h207v485h-205v97q95 0 146 13.5t71 37t31 69.5h90v-702h207zM1579 801v-508h164v-100h-164v-193h-129v193h-399v102l379 506h149zM1450 670l-276 -377h276v377z" />
    <glyph glyph-name="onehalf" unicode="&#xbd;" horiz-adv-x="1916" 
d="M489 -25h-143l1057 1514h141zM686 764v-102h-547v102h207v485h-205v97q95 0 146 13.5t71 37t31 69.5h90v-702h207zM1759 578q0 -36 -8 -66.5t-28.5 -58.5t-37 -46.5t-53 -44.5t-55.5 -38t-64 -39q-85 -50 -132 -92.5t-48 -83.5h445v-109h-592v53q0 44 16 85.5t39.5 72.5
t60.5 63.5t67.5 53.5t72.5 47q100 61 144 103.5t44 99.5q0 56 -37 93.5t-108 37.5t-114 -46t-46 -112h-131q8 113 86 189.5t207 76.5q122 0 197 -69.5t75 -169.5z" />
    <glyph glyph-name="threequarters" unicode="&#xbe;" horiz-adv-x="1933" 
d="M526 -25h-143l1057 1514h141zM729 879q0 -98 -78.5 -165t-214.5 -67q-135 0 -217.5 67.5t-93.5 182.5h131q6 -65 54.5 -104t125.5 -39q76 0 120 36.5t44 96.5t-43 92.5t-115 32.5h-82v104h78q63 0 102.5 31t39.5 92q0 58 -38.5 95.5t-105.5 37.5q-71 0 -113 -42.5
t-47 -106.5h-126q6 110 81.5 184t204.5 74q130 0 201.5 -69t71.5 -169q0 -70 -41 -119.5t-103 -60.5q74 -12 119 -62t45 -122zM1636 801v-508h164v-100h-164v-193h-129v193h-399v102l379 506h149zM1507 670l-276 -377h276v377z" />
    <glyph glyph-name="questiondown" unicode="&#xbf;" horiz-adv-x="1157" 
d="M729 1462v-217h-223v217h223zM96 399q0 62 18.5 119t43.5 98t69 86t76 71t84 65q34 25 53.5 42t42.5 45t35 62.5t14 77.5h170q-3 -104 -59 -184.5t-168 -165.5q-47 -36 -75.5 -61.5t-64.5 -66.5t-53.5 -87.5t-17.5 -98.5q0 -55 16.5 -103t50 -88.5t92.5 -64.5t136 -24
q151 0 237.5 94.5t94.5 233.5h168q-6 -98 -42 -183t-97.5 -150.5t-154.5 -103t-206 -37.5q-111 0 -201 35t-146 95t-86 135t-30 159z" />
    <glyph glyph-name="Agrave" unicode="&#xc0;" horiz-adv-x="1454" 
d="M784 1571h-104l-229 303h217zM1235 0l-162 408h-700l-162 -408h-176l592 1462h198l594 -1462h-184zM721 1286l-291 -733h586l-289 733h-6z" />
    <glyph glyph-name="Aacute" unicode="&#xc1;" horiz-adv-x="1454" 
d="M778 1571h-104l117 303h217zM1235 0l-162 408h-700l-162 -408h-176l592 1462h198l594 -1462h-184zM721 1286l-291 -733h586l-289 733h-6z" />
    <glyph glyph-name="Acircumflex" unicode="&#xc2;" horiz-adv-x="1454" 
d="M635 1874h186l189 -307h-107l-174 190l-174 -190h-109zM1235 0l-162 408h-700l-162 -408h-176l592 1462h198l594 -1462h-184zM721 1286l-291 -733h586l-289 733h-6z" />
    <glyph glyph-name="Atilde" unicode="&#xc3;" horiz-adv-x="1454" 
d="M590 1726q-81 0 -88 -147h-109q0 128 48.5 205.5t138.5 77.5q42 0 86 -23t74 -51t65 -51t61 -23q84 0 88 150h111q0 -130 -48.5 -207.5t-139.5 -77.5q-42 0 -86 23t-74 50.5t-65 50.5t-62 23zM1235 0l-162 408h-700l-162 -408h-176l592 1462h198l594 -1462h-184z
M721 1286l-291 -733h586l-289 733h-6z" />
    <glyph glyph-name="Adieresis" unicode="&#xc4;" horiz-adv-x="1454" 
d="M827 1608v207h174v-207h-174zM455 1608v207h172v-207h-172zM1235 0l-162 408h-700l-162 -408h-176l592 1462h198l594 -1462h-184zM721 1286l-291 -733h586l-289 733h-6z" />
    <glyph glyph-name="Aring" unicode="&#xc5;" horiz-adv-x="1454" 
d="M373 408l-162 -408h-176l565 1397q-55 34 -88 91.5t-33 123.5q0 103 74.5 177.5t175.5 74.5q104 0 176 -74.5t72 -177.5q0 -68 -33.5 -126.5t-89.5 -92.5l565 -1393h-184l-162 408h-700zM729 1753q-59 0 -101 -41.5t-42 -99.5q0 -59 42.5 -101.5t100.5 -42.5t98.5 42.5
t40.5 101.5t-40.5 100t-98.5 41zM721 1286l-291 -733h586l-289 733h-6z" />
    <glyph glyph-name="AE" unicode="&#xc6;" horiz-adv-x="2242" 
d="M1120 0v412h-624l-279 -412h-182l987 1462h1085v-147h-813v-510h723v-150h-723v-508h813v-147h-987zM1120 1337l-526 -780h526v780z" />
    <glyph glyph-name="Ccedilla" unicode="&#xc7;" horiz-adv-x="1404" 
d="M961 -223q0 -85 -69.5 -129.5t-164.5 -44.5q-100 0 -176 39v100q82 -43 176 -43q50 0 82.5 18t32.5 52q0 28 -18 44.5t-45.5 20t-57 0.5t-55.5 -12l-41 43l69 112q-262 25 -427 230t-165 526q0 225 85.5 397.5t234 264.5t336.5 92q233 0 377 -122.5t180 -328.5h-172
q-13 65 -40 117t-72 94.5t-114.5 66t-158.5 23.5q-223 0 -349 -163.5t-126 -440.5t126 -442.5t349 -165.5q89 0 158.5 23.5t114.5 66t72 94.5t40 117h172q-35 -201 -173.5 -323t-361.5 -128l-37 -57q53 4 100 -6.5t82.5 -45t35.5 -89.5z" />
    <glyph glyph-name="Egrave" unicode="&#xc8;" horiz-adv-x="1314" 
d="M758 1571h-105l-229 303h217zM1180 0h-990v1462h988v-147h-813v-510h722v-150h-722v-508h815v-147z" />
    <glyph glyph-name="Eacute" unicode="&#xc9;" horiz-adv-x="1314" 
d="M723 1571h-105l117 303h217zM1180 0h-990v1462h988v-147h-813v-510h722v-150h-722v-508h815v-147z" />
    <glyph glyph-name="Ecircumflex" unicode="&#xca;" horiz-adv-x="1314" 
d="M594 1874h186l189 -307h-107l-174 190l-174 -190h-108zM1180 0h-990v1462h988v-147h-813v-510h722v-150h-722v-508h815v-147z" />
    <glyph glyph-name="Edieresis" unicode="&#xcb;" horiz-adv-x="1314" 
d="M786 1608v207h175v-207h-175zM414 1608v207h172v-207h-172zM1180 0h-990v1462h988v-147h-813v-510h722v-150h-722v-508h815v-147z" />
    <glyph glyph-name="Igrave" unicode="&#xcc;" horiz-adv-x="559" 
d="M346 1571h-104l-230 303h217zM190 0v1462h177v-1462h-177z" />
    <glyph glyph-name="Iacute" unicode="&#xcd;" horiz-adv-x="559" 
d="M330 1571h-105l117 303h217zM190 0v1462h177v-1462h-177z" />
    <glyph glyph-name="Icircumflex" unicode="&#xce;" horiz-adv-x="559" 
d="M186 1874h187l188 -307h-106l-174 190l-175 -190h-108zM190 0v1462h177v-1462h-177z" />
    <glyph glyph-name="Idieresis" unicode="&#xcf;" horiz-adv-x="559" 
d="M379 1608v207h174v-207h-174zM6 1608v207h172v-207h-172zM190 0v1462h177v-1462h-177z" />
    <glyph glyph-name="Eth" unicode="&#xd0;" horiz-adv-x="1550" 
d="M1448 731q0 -329 -197 -530t-516 -201h-518v670h-164v145h164v647h518q210 0 372 -91t251.5 -257.5t89.5 -382.5zM391 147h344q252 0 391.5 157.5t139.5 426.5q0 268 -140 426t-391 158h-344v-500h314v-145h-314v-523z" />
    <glyph glyph-name="Ntilde" unicode="&#xd1;" horiz-adv-x="1554" 
d="M631 1726q-81 0 -88 -147h-109q0 128 48.5 205.5t138.5 77.5q42 0 86 -23t74 -51t65 -51t61 -23q84 0 88 150h111q0 -130 -48.5 -207.5t-139.5 -77.5q-42 0 -86 23t-74 50.5t-65 50.5t-62 23zM408 1462l780 -1167h4v1167h170v-1462h-164l-831 1247h-5v-1247h-172v1462
h218z" />
    <glyph glyph-name="Ograve" unicode="&#xd2;" horiz-adv-x="1536" 
d="M842 1571h-105l-229 303h217zM1434 731q0 -219 -81 -390.5t-233 -268.5t-352 -97t-352 97t-233 268.5t-81 390.5q0 218 81 389.5t233.5 269t351.5 97.5t351.5 -97.5t233.5 -269t81 -389.5zM1251 731q0 273 -125.5 439.5t-357.5 166.5q-234 0 -359.5 -166.5t-125.5 -439.5
q0 -180 53 -314.5t164 -213t268 -78.5q156 0 266 78.5t163.5 213.5t53.5 314z" />
    <glyph glyph-name="Oacute" unicode="&#xd3;" horiz-adv-x="1536" 
d="M813 1571h-104l116 303h217zM1434 731q0 -219 -81 -390.5t-233 -268.5t-352 -97t-352 97t-233 268.5t-81 390.5q0 218 81 389.5t233.5 269t351.5 97.5t351.5 -97.5t233.5 -269t81 -389.5zM1251 731q0 273 -125.5 439.5t-357.5 166.5q-234 0 -359.5 -166.5t-125.5 -439.5
q0 -180 53 -314.5t164 -213t268 -78.5q156 0 266 78.5t163.5 213.5t53.5 314z" />
    <glyph glyph-name="Ocircumflex" unicode="&#xd4;" horiz-adv-x="1536" 
d="M676 1874h186l189 -307h-107l-174 190l-174 -190h-109zM1434 731q0 -219 -81 -390.5t-233 -268.5t-352 -97t-352 97t-233 268.5t-81 390.5q0 218 81 389.5t233.5 269t351.5 97.5t351.5 -97.5t233.5 -269t81 -389.5zM1251 731q0 273 -125.5 439.5t-357.5 166.5
q-234 0 -359.5 -166.5t-125.5 -439.5q0 -180 53 -314.5t164 -213t268 -78.5q156 0 266 78.5t163.5 213.5t53.5 314z" />
    <glyph glyph-name="Otilde" unicode="&#xd5;" horiz-adv-x="1536" 
d="M629 1726q-81 0 -88 -147h-109q0 128 48 205.5t138 77.5q42 0 86 -23t74.5 -51t65.5 -51t61 -23q84 0 88 150h111q0 -130 -49 -207.5t-140 -77.5q-42 0 -85.5 23t-73.5 50.5t-65 50.5t-62 23zM1434 731q0 -219 -81 -390.5t-233 -268.5t-352 -97t-352 97t-233 268.5
t-81 390.5q0 218 81 389.5t233.5 269t351.5 97.5t351.5 -97.5t233.5 -269t81 -389.5zM1251 731q0 273 -125.5 439.5t-357.5 166.5q-234 0 -359.5 -166.5t-125.5 -439.5q0 -180 53 -314.5t164 -213t268 -78.5q156 0 266 78.5t163.5 213.5t53.5 314z" />
    <glyph glyph-name="Odieresis" unicode="&#xd6;" horiz-adv-x="1536" 
d="M868 1608v207h174v-207h-174zM496 1608v207h172v-207h-172zM1434 731q0 -219 -81 -390.5t-233 -268.5t-352 -97t-352 97t-233 268.5t-81 390.5q0 218 81 389.5t233.5 269t351.5 97.5t351.5 -97.5t233.5 -269t81 -389.5zM1251 731q0 273 -125.5 439.5t-357.5 166.5
q-234 0 -359.5 -166.5t-125.5 -439.5q0 -180 53 -314.5t164 -213t268 -78.5q156 0 266 78.5t163.5 213.5t53.5 314z" />
    <glyph glyph-name="multiply" unicode="&#xd7;" 
d="M1051 209l-371 371l-373 -373l-98 98l373 373l-373 375l96 96l373 -375l373 373l98 -98l-373 -373l371 -371z" />
    <glyph glyph-name="Oslash" unicode="&#xd8;" horiz-adv-x="1536" 
d="M768 -25q-234 0 -399 131l-127 -167l-97 71l138 180q-87 101 -134 239.5t-47 301.5q0 218 81 389.5t233.5 269t351.5 97.5q233 0 401 -133l125 164l95 -72l-134 -176q87 -100 133 -238.5t46 -300.5q0 -219 -81 -390.5t-233 -268.5t-352 -97zM283 731q0 -251 102 -407
l688 905q-120 108 -305 108q-234 0 -359.5 -166.5t-125.5 -439.5zM1251 731q0 251 -100 404l-686 -904q118 -106 303 -106q156 0 266 78.5t163.5 213.5t53.5 314z" />
    <glyph glyph-name="Ugrave" unicode="&#xd9;" horiz-adv-x="1521" 
d="M848 1571h-105l-229 303h217zM1352 596q0 -299 -154.5 -460t-437.5 -161q-281 0 -436.5 162t-155.5 463v862h176v-876q0 -228 109.5 -344.5t306.5 -116.5q198 0 307 116t109 345v876h176v-866z" />
    <glyph glyph-name="Uacute" unicode="&#xda;" horiz-adv-x="1521" 
d="M778 1571h-104l117 303h217zM1352 596q0 -299 -154.5 -460t-437.5 -161q-281 0 -436.5 162t-155.5 463v862h176v-876q0 -228 109.5 -344.5t306.5 -116.5q198 0 307 116t109 345v876h176v-866z" />
    <glyph glyph-name="Ucircumflex" unicode="&#xdb;" horiz-adv-x="1521" 
d="M668 1874h186l188 -307h-106l-174 190l-174 -190h-109zM1352 596q0 -299 -154.5 -460t-437.5 -161q-281 0 -436.5 162t-155.5 463v862h176v-876q0 -228 109.5 -344.5t306.5 -116.5q198 0 307 116t109 345v876h176v-866z" />
    <glyph glyph-name="Udieresis" unicode="&#xdc;" horiz-adv-x="1521" 
d="M860 1608v207h174v-207h-174zM487 1608v207h172v-207h-172zM1352 596q0 -299 -154.5 -460t-437.5 -161q-281 0 -436.5 162t-155.5 463v862h176v-876q0 -228 109.5 -344.5t306.5 -116.5q198 0 307 116t109 345v876h176v-866z" />
    <glyph glyph-name="Yacute" unicode="&#xdd;" horiz-adv-x="1359" 
d="M725 1571h-104l116 303h217zM768 0h-176v606l-557 856h194l457 -698h4l443 698h194l-559 -856v-606z" />
    <glyph glyph-name="Thorn" unicode="&#xde;" horiz-adv-x="1333" 
d="M733 313h-368v-313h-175v1462h175v-274h366q247 0 380.5 -112t133.5 -326q0 -213 -133.5 -325t-378.5 -112zM365 461h362q342 0 342 289q0 288 -342 288h-362v-577z" />
    <glyph glyph-name="germandbls" unicode="&#xdf;" horiz-adv-x="1265" 
d="M838 883q136 -32 228.5 -145.5t92.5 -270.5q0 -118 -40.5 -211.5t-110 -151.5t-157.5 -88t-187 -30q-68 0 -125 14v141q42 -12 108 -12q95 0 173.5 37t129.5 116.5t51 188.5q0 143 -98.5 235.5t-259.5 92.5h-76v141h72q113 0 181.5 63t68.5 171q0 101 -63.5 161
t-180.5 60q-138 0 -216.5 -102.5t-78.5 -270.5v-1022h-168v1022q0 227 126 368.5t337 141.5q186 0 294 -96.5t108 -251.5q0 -115 -64 -195.5t-145 -105.5z" />
    <glyph glyph-name="agrave" unicode="&#xe0;" horiz-adv-x="1130" 
d="M635 1188h-107l-225 319h217zM813 0q-18 86 -18 174q-34 -90 -131.5 -143.5t-227.5 -53.5q-141 0 -237.5 79t-96.5 216q0 267 357 310l332 43v59q0 118 -65.5 176t-176.5 58q-102 0 -164.5 -50.5t-71.5 -140.5h-163q15 154 125 241t278 87q192 0 298.5 -92.5
t106.5 -274.5v-473q0 -130 25 -215h-170zM471 106q83 0 154 32.5t118.5 102.5t47.5 165v92l-281 -31q-43 -6 -74.5 -13.5t-64 -21.5t-52.5 -34t-32.5 -51t-12.5 -71q0 -75 51.5 -122.5t145.5 -47.5z" />
    <glyph glyph-name="aacute" unicode="&#xe1;" horiz-adv-x="1130" 
d="M596 1188h-107l115 319h217zM813 0q-18 86 -18 174q-34 -90 -131.5 -143.5t-227.5 -53.5q-141 0 -237.5 79t-96.5 216q0 267 357 310l332 43v59q0 118 -65.5 176t-176.5 58q-102 0 -164.5 -50.5t-71.5 -140.5h-163q15 154 125 241t278 87q192 0 298.5 -92.5t106.5 -274.5
v-473q0 -130 25 -215h-170zM471 106q83 0 154 32.5t118.5 102.5t47.5 165v92l-281 -31q-43 -6 -74.5 -13.5t-64 -21.5t-52.5 -34t-32.5 -51t-12.5 -71q0 -75 51.5 -122.5t145.5 -47.5z" />
    <glyph glyph-name="acircumflex" unicode="&#xe2;" horiz-adv-x="1130" 
d="M471 1507h178l193 -323h-107l-174 213l-174 -213h-108zM813 0q-18 86 -18 174q-34 -90 -131.5 -143.5t-227.5 -53.5q-141 0 -237.5 79t-96.5 216q0 267 357 310l332 43v59q0 118 -65.5 176t-176.5 58q-102 0 -164.5 -50.5t-71.5 -140.5h-163q15 154 125 241t278 87
q192 0 298.5 -92.5t106.5 -274.5v-473q0 -130 25 -215h-170zM471 106q83 0 154 32.5t118.5 102.5t47.5 165v92l-281 -31q-43 -6 -74.5 -13.5t-64 -21.5t-52.5 -34t-32.5 -51t-12.5 -71q0 -75 51.5 -122.5t145.5 -47.5z" />
    <glyph glyph-name="atilde" unicode="&#xe3;" horiz-adv-x="1130" 
d="M424 1354q-81 0 -88 -156h-109q0 128 48.5 205.5t138.5 77.5q42 0 86 -24t74 -53t65 -53t61 -24q84 0 88 154h111q0 -129 -48.5 -206t-139.5 -77q-42 0 -86 24.5t-74 53.5t-65 53.5t-62 24.5zM813 0q-18 86 -18 174q-34 -90 -131.5 -143.5t-227.5 -53.5q-141 0 -237.5 79
t-96.5 216q0 267 357 310l332 43v59q0 118 -65.5 176t-176.5 58q-102 0 -164.5 -50.5t-71.5 -140.5h-163q15 154 125 241t278 87q192 0 298.5 -92.5t106.5 -274.5v-473q0 -130 25 -215h-170zM471 106q83 0 154 32.5t118.5 102.5t47.5 165v92l-281 -31q-43 -6 -74.5 -13.5
t-64 -21.5t-52.5 -34t-32.5 -51t-12.5 -71q0 -75 51.5 -122.5t145.5 -47.5z" />
    <glyph glyph-name="adieresis" unicode="&#xe4;" horiz-adv-x="1130" 
d="M659 1245v207h175v-207h-175zM287 1245v207h172v-207h-172zM813 0q-18 86 -18 174q-34 -90 -131.5 -143.5t-227.5 -53.5q-141 0 -237.5 79t-96.5 216q0 267 357 310l332 43v59q0 118 -65.5 176t-176.5 58q-102 0 -164.5 -50.5t-71.5 -140.5h-163q15 154 125 241t278 87
q192 0 298.5 -92.5t106.5 -274.5v-473q0 -130 25 -215h-170zM471 106q83 0 154 32.5t118.5 102.5t47.5 165v92l-281 -31q-43 -6 -74.5 -13.5t-64 -21.5t-52.5 -34t-32.5 -51t-12.5 -71q0 -75 51.5 -122.5t145.5 -47.5z" />
    <glyph glyph-name="aring" unicode="&#xe5;" horiz-adv-x="1130" 
d="M358 1374q0 86 60.5 146.5t144.5 60.5q85 0 144 -60.5t59 -146.5q0 -84 -59.5 -143.5t-143.5 -59.5q-83 0 -144 60t-61 143zM670 1374q0 46 -31.5 78.5t-75.5 32.5t-76 -32.5t-32 -78.5q0 -43 32 -74.5t76 -31.5t75.5 31.5t31.5 74.5zM813 0q-18 86 -18 174
q-34 -90 -131.5 -143.5t-227.5 -53.5q-141 0 -237.5 79t-96.5 216q0 267 357 310l332 43v59q0 118 -65.5 176t-176.5 58q-102 0 -164.5 -50.5t-71.5 -140.5h-163q15 154 125 241t278 87q192 0 298.5 -92.5t106.5 -274.5v-473q0 -130 25 -215h-170zM471 106q83 0 154 32.5
t118.5 102.5t47.5 165v92l-281 -31q-43 -6 -74.5 -13.5t-64 -21.5t-52.5 -34t-32.5 -51t-12.5 -71q0 -75 51.5 -122.5t145.5 -47.5z" />
    <glyph glyph-name="ae" unicode="&#xe6;" horiz-adv-x="1814" 
d="M1700 303q-33 -158 -150 -243t-276 -85q-132 0 -239.5 56t-170.5 159q-137 -213 -405 -213q-152 0 -254.5 80t-102.5 222q0 155 119 233t316 78h254v96q0 118 -65 176t-175 58q-104 0 -166.5 -51t-71.5 -142h-163q15 155 125 242.5t276 87.5q125 0 213 -48t133 -137
q67 88 161.5 136.5t205.5 48.5t198 -43t139.5 -116t79.5 -164t27 -193v-64h-764q7 -174 94.5 -270t235.5 -96q199 0 268 192h158zM1264 922q-127 0 -211.5 -84.5t-104.5 -247.5h594q-5 148 -75.5 240t-202.5 92zM481 109q135 0 222.5 77t87.5 220v71h-252q-76 0 -133 -17
t-94.5 -61.5t-37.5 -113.5q0 -77 53.5 -126.5t153.5 -49.5z" />
    <glyph glyph-name="ccedilla" unicode="&#xe7;" horiz-adv-x="1103" 
d="M788 -223q0 -85 -69 -129.5t-164 -44.5q-100 0 -176 39v100q82 -43 176 -43q50 0 82.5 18t32.5 52q0 28 -18 44.5t-45.5 20t-57 0.5t-55.5 -12l-41 43l71 115q-190 24 -304 166.5t-114 367.5q0 246 134.5 393.5t351.5 147.5q171 0 280 -92.5t134 -257.5h-162
q-45 213 -252 213q-150 0 -234 -110t-84 -294t84 -292.5t234 -108.5q207 0 252 213h162q-25 -162 -129.5 -254.5t-268.5 -96.5l-37 -57q53 4 99.5 -6.5t82 -45t35.5 -89.5z" />
    <glyph glyph-name="egrave" unicode="&#xe8;" horiz-adv-x="1140" 
d="M659 1188h-106l-225 319h217zM1028 303q-34 -158 -151 -243t-275 -85q-221 0 -358.5 144.5t-137.5 390.5q0 247 138 396t348 149q111 0 197.5 -42t138.5 -113.5t79 -161t27 -191.5v-68h-762q6 -177 93.5 -272.5t236.5 -95.5q200 0 266 192h160zM592 918
q-125 0 -208.5 -81t-104.5 -235h589q-3 141 -73.5 228.5t-202.5 87.5z" />
    <glyph glyph-name="eacute" unicode="&#xe9;" horiz-adv-x="1140" 
d="M639 1188h-107l115 319h217zM1028 303q-34 -158 -151 -243t-275 -85q-221 0 -358.5 144.5t-137.5 390.5q0 247 138 396t348 149q111 0 197.5 -42t138.5 -113.5t79 -161t27 -191.5v-68h-762q6 -177 93.5 -272.5t236.5 -95.5q200 0 266 192h160zM592 918q-125 0 -208.5 -81
t-104.5 -235h589q-3 141 -73.5 228.5t-202.5 87.5z" />
    <glyph glyph-name="ecircumflex" unicode="&#xea;" horiz-adv-x="1140" 
d="M504 1507h178l192 -323h-106l-174 213l-174 -213h-109zM1028 303q-34 -158 -151 -243t-275 -85q-221 0 -358.5 144.5t-137.5 390.5q0 247 138 396t348 149q111 0 197.5 -42t138.5 -113.5t79 -161t27 -191.5v-68h-762q6 -177 93.5 -272.5t236.5 -95.5q200 0 266 192h160z
M592 918q-125 0 -208.5 -81t-104.5 -235h589q-3 141 -73.5 228.5t-202.5 87.5z" />
    <glyph glyph-name="edieresis" unicode="&#xeb;" horiz-adv-x="1140" 
d="M692 1245v207h174v-207h-174zM319 1245v207h173v-207h-173zM1028 303q-34 -158 -151 -243t-275 -85q-221 0 -358.5 144.5t-137.5 390.5q0 247 138 396t348 149q111 0 197.5 -42t138.5 -113.5t79 -161t27 -191.5v-68h-762q6 -177 93.5 -272.5t236.5 -95.5q200 0 266 192
h160zM592 918q-125 0 -208.5 -81t-104.5 -235h589q-3 141 -73.5 228.5t-202.5 87.5z" />
    <glyph glyph-name="igrave" unicode="&#xec;" horiz-adv-x="534" 
d="M332 1188h-107l-225 319h217zM182 1030h170v-1030h-170v1030z" />
    <glyph glyph-name="iacute" unicode="&#xed;" horiz-adv-x="534" 
d="M313 1188h-106l115 319h217zM182 1030h170v-1030h-170v1030z" />
    <glyph glyph-name="icircumflex" unicode="&#xee;" horiz-adv-x="534" 
d="M180 1507h178l193 -323h-107l-174 213l-174 -213h-108zM182 1030h170v-1030h-170v1030z" />
    <glyph glyph-name="idieresis" unicode="&#xef;" horiz-adv-x="534" 
d="M369 1245v207h174v-207h-174zM-4 1245v207h172v-207h-172zM182 1030h170v-1030h-170v1030z" />
    <glyph glyph-name="eth" unicode="&#xf0;" horiz-adv-x="1191" 
d="M1085 543q0 -175 -64.5 -305t-174.5 -196.5t-250 -66.5q-217 0 -353.5 147.5t-136.5 393.5q0 242 137.5 388.5t350.5 146.5q69 0 135 -25t111 -74q-100 171 -213 289l-299 -96l-31 86l256 82q-105 94 -246 182v12h205q106 -64 190 -145l185 59l33 -86l-144 -47
q144 -157 226.5 -351t82.5 -394zM274 516q0 -188 85.5 -295.5t236.5 -107.5q149 0 234 107.5t85 295.5q0 185 -85 292t-234 107q-150 0 -236 -107t-86 -292z" />
    <glyph glyph-name="ntilde" unicode="&#xf1;" horiz-adv-x="1222" 
d="M483 1354q-81 0 -88 -156h-108q0 128 48 205.5t138 77.5q42 0 86 -24t74.5 -53t65.5 -53t61 -24q84 0 88 154h110q0 -129 -48.5 -206t-139.5 -77q-42 0 -86 24.5t-74 53.5t-65 53.5t-62 24.5zM346 1030v-188q37 96 128 154.5t208 58.5q173 0 271 -103.5t98 -287.5v-664
h-170v627q0 142 -62 215t-184 73q-127 0 -205 -85.5t-78 -262.5v-567h-170v1030h164z" />
    <glyph glyph-name="ograve" unicode="&#xf2;" horiz-adv-x="1191" 
d="M686 1188h-106l-226 319h217zM1085 514q0 -246 -136 -392.5t-353 -146.5t-353.5 146.5t-136.5 392.5t136.5 393.5t353.5 147.5q216 0 352.5 -147.5t136.5 -393.5zM274 514q0 -186 86 -293.5t236 -107.5t236 107.5t86 293.5q0 187 -86 295.5t-236 108.5t-236 -108.5
t-86 -295.5z" />
    <glyph glyph-name="oacute" unicode="&#xf3;" horiz-adv-x="1191" 
d="M625 1188h-107l115 319h217zM1085 514q0 -246 -136 -392.5t-353 -146.5t-353.5 146.5t-136.5 392.5t136.5 393.5t353.5 147.5q216 0 352.5 -147.5t136.5 -393.5zM274 514q0 -186 86 -293.5t236 -107.5t236 107.5t86 293.5q0 187 -86 295.5t-236 108.5t-236 -108.5
t-86 -295.5z" />
    <glyph glyph-name="ocircumflex" unicode="&#xf4;" horiz-adv-x="1191" 
d="M508 1507h178l193 -323h-107l-174 213l-174 -213h-109zM1085 514q0 -246 -136 -392.5t-353 -146.5t-353.5 146.5t-136.5 392.5t136.5 393.5t353.5 147.5q216 0 352.5 -147.5t136.5 -393.5zM274 514q0 -186 86 -293.5t236 -107.5t236 107.5t86 293.5q0 187 -86 295.5
t-236 108.5t-236 -108.5t-86 -295.5z" />
    <glyph glyph-name="otilde" unicode="&#xf5;" horiz-adv-x="1191" 
d="M457 1354q-81 0 -88 -156h-109q0 128 48 205.5t138 77.5q42 0 86 -24t74.5 -53t65.5 -53t61 -24q85 0 88 154h111q0 -128 -49 -205.5t-140 -77.5q-42 0 -85.5 24.5t-73.5 53.5t-65 53.5t-62 24.5zM1085 514q0 -246 -136 -392.5t-353 -146.5t-353.5 146.5t-136.5 392.5
t136.5 393.5t353.5 147.5q216 0 352.5 -147.5t136.5 -393.5zM274 514q0 -186 86 -293.5t236 -107.5t236 107.5t86 293.5q0 187 -86 295.5t-236 108.5t-236 -108.5t-86 -295.5z" />
    <glyph glyph-name="odieresis" unicode="&#xf6;" horiz-adv-x="1191" 
d="M696 1245v207h174v-207h-174zM324 1245v207h172v-207h-172zM1085 514q0 -246 -136 -392.5t-353 -146.5t-353.5 146.5t-136.5 392.5t136.5 393.5t353.5 147.5q216 0 352.5 -147.5t136.5 -393.5zM274 514q0 -186 86 -293.5t236 -107.5t236 107.5t86 293.5q0 187 -86 295.5
t-236 108.5t-236 -108.5t-86 -295.5z" />
    <glyph glyph-name="divide" unicode="&#xf7;" 
d="M575 1020v199h203v-199h-203zM141 610v142h1067v-142h-1067zM575 143v199h203v-199h-203z" />
    <glyph glyph-name="oslash" unicode="&#xf8;" horiz-adv-x="1191" 
d="M596 -25q-163 0 -287 88l-104 -133l-82 66l108 137q-125 151 -125 381q0 246 136.5 393.5t353.5 147.5q168 0 293 -92l98 124l80 -65l-104 -131q122 -144 122 -377q0 -246 -136 -392.5t-353 -146.5zM272 514q0 -149 58 -256l469 590q-81 72 -203 72q-152 0 -238 -109
t-86 -297zM920 514q0 150 -56 250l-465 -588q79 -67 197 -67q152 0 238 108.5t86 296.5z" />
    <glyph glyph-name="ugrave" unicode="&#xf9;" horiz-adv-x="1212" 
d="M672 1188h-107l-225 319h217zM1030 0h-166v186q-37 -98 -124 -154.5t-203 -56.5q-175 0 -270 102t-95 290v663h172v-631q0 -290 242 -290q124 0 198 88t74 266v567h172v-1030z" />
    <glyph glyph-name="uacute" unicode="&#xfa;" horiz-adv-x="1212" 
d="M645 1188h-106l114 319h217zM1030 0h-166v186q-37 -98 -124 -154.5t-203 -56.5q-175 0 -270 102t-95 290v663h172v-631q0 -290 242 -290q124 0 198 88t74 266v567h172v-1030z" />
    <glyph glyph-name="ucircumflex" unicode="&#xfb;" horiz-adv-x="1212" 
d="M518 1507h178l193 -323h-107l-174 213l-174 -213h-108zM1030 0h-166v186q-37 -98 -124 -154.5t-203 -56.5q-175 0 -270 102t-95 290v663h172v-631q0 -290 242 -290q124 0 198 88t74 266v567h172v-1030z" />
    <glyph glyph-name="udieresis" unicode="&#xfc;" horiz-adv-x="1212" 
d="M707 1245v207h174v-207h-174zM334 1245v207h172v-207h-172zM1030 0h-166v186q-37 -98 -124 -154.5t-203 -56.5q-175 0 -270 102t-95 290v663h172v-631q0 -290 242 -290q124 0 198 88t74 266v567h172v-1030z" />
    <glyph glyph-name="yacute" unicode="&#xfd;" horiz-adv-x="1110" 
d="M608 1188h-106l114 319h218zM471 -8l-414 1038h179l327 -842h4l310 842h176l-416 -1061q-73 -192 -151 -270.5t-214 -79.5q-45 0 -100 10v140q37 -9 82 -9q75 0 120 49.5t97 182.5z" />
    <glyph glyph-name="thorn" unicode="&#xfe;" horiz-adv-x="1259" 
d="M352 180v-545h-170v1872h170v-659q37 86 127 146.5t215 60.5q199 0 329 -149t130 -392q0 -241 -130 -390t-329 -149q-120 0 -210 59.5t-132 145.5zM344 530v-28q0 -178 83.5 -285.5t231.5 -107.5q150 0 236 111t86 294q0 184 -86 296t-236 112q-148 0 -231.5 -107
t-83.5 -285z" />
    <glyph glyph-name="ydieresis" unicode="&#xff;" horiz-adv-x="1110" 
d="M668 1245v207h174v-207h-174zM295 1245v207h172v-207h-172zM471 -8l-414 1038h179l327 -842h4l310 842h176l-416 -1061q-73 -192 -151 -270.5t-214 -79.5q-45 0 -100 10v140q37 -9 82 -9q75 0 120 49.5t97 182.5z" />
    <glyph glyph-name="Amacron" unicode="&#x100;" horiz-adv-x="1454" 
d="M426 1610v129h600v-129h-600zM1235 0l-162 408h-700l-162 -408h-176l592 1462h198l594 -1462h-184zM721 1286l-291 -733h586l-289 733h-6z" />
    <glyph glyph-name="amacron" unicode="&#x101;" horiz-adv-x="1130" 
d="M268 1245v127h584v-127h-584zM813 0q-18 86 -18 174q-34 -90 -131.5 -143.5t-227.5 -53.5q-141 0 -237.5 79t-96.5 216q0 267 357 310l332 43v59q0 118 -65.5 176t-176.5 58q-102 0 -164.5 -50.5t-71.5 -140.5h-163q15 154 125 241t278 87q192 0 298.5 -92.5
t106.5 -274.5v-473q0 -130 25 -215h-170zM471 106q83 0 154 32.5t118.5 102.5t47.5 165v92l-281 -31q-43 -6 -74.5 -13.5t-64 -21.5t-52.5 -34t-32.5 -51t-12.5 -71q0 -75 51.5 -122.5t145.5 -47.5z" />
    <glyph glyph-name="Abreve" unicode="&#x102;" horiz-adv-x="1454" 
d="M729 1563q-124 0 -200 84t-76 229h127q0 -89 39 -136.5t110 -47.5t110.5 47.5t39.5 136.5h125q0 -145 -75.5 -229t-199.5 -84zM1235 0l-162 408h-700l-162 -408h-176l592 1462h198l594 -1462h-184zM721 1286l-291 -733h586l-289 733h-6z" />
    <glyph glyph-name="abreve" unicode="&#x103;" horiz-adv-x="1130" 
d="M561 1196q-125 0 -200.5 83.5t-75.5 227.5h118q3 -91 43 -140.5t115 -49.5t114 49.5t42 140.5h119q0 -145 -75 -228t-200 -83zM813 0q-18 86 -18 174q-34 -90 -131.5 -143.5t-227.5 -53.5q-141 0 -237.5 79t-96.5 216q0 267 357 310l332 43v59q0 118 -65.5 176t-176.5 58
q-102 0 -164.5 -50.5t-71.5 -140.5h-163q15 154 125 241t278 87q192 0 298.5 -92.5t106.5 -274.5v-473q0 -130 25 -215h-170zM471 106q83 0 154 32.5t118.5 102.5t47.5 165v92l-281 -31q-43 -6 -74.5 -13.5t-64 -21.5t-52.5 -34t-32.5 -51t-12.5 -71q0 -75 51.5 -122.5
t145.5 -47.5z" />
    <glyph glyph-name="Aogonek" unicode="&#x104;" horiz-adv-x="1454" 
d="M1368 -375q-43 -14 -98 -14q-71 0 -122.5 40t-51.5 118q0 60 31.5 114t99.5 137l-154 388h-700l-162 -408h-176l592 1462h198l594 -1462h-92q-65 -86 -87.5 -127t-22.5 -80q0 -36 23.5 -55t62.5 -19q31 0 65 9v-103zM721 1286l-291 -733h586l-289 733h-6z" />
    <glyph glyph-name="aogonek" unicode="&#x105;" horiz-adv-x="1130" 
d="M952 -375q-43 -14 -98 -14q-71 0 -122.5 40t-51.5 118q0 60 31.5 115.5t97.5 133.5q-14 74 -14 156q-34 -90 -131.5 -143.5t-227.5 -53.5q-141 0 -237.5 79t-96.5 216q0 267 357 310l332 43v59q0 118 -65.5 176t-176.5 58q-102 0 -164.5 -50.5t-71.5 -140.5h-163
q15 154 125 241t278 87q192 0 298.5 -92.5t106.5 -274.5v-473q0 -130 25 -215h-72q-65 -86 -87.5 -127t-22.5 -80q0 -36 23.5 -55t62.5 -19q31 0 65 9v-103zM471 106q83 0 154 32.5t118.5 102.5t47.5 165v92l-281 -31q-43 -6 -74.5 -13.5t-64 -21.5t-52.5 -34t-32.5 -51
t-12.5 -71q0 -75 51.5 -122.5t145.5 -47.5z" />
    <glyph glyph-name="Cacute" unicode="&#x106;" horiz-adv-x="1404" 
d="M797 1571h-105l117 303h217zM283 733q0 -277 126 -442.5t349 -165.5q89 0 158.5 23.5t114.5 66t72 94.5t40 117h172q-36 -206 -180 -328.5t-377 -122.5q-188 0 -336.5 92.5t-234 266t-85.5 399.5q0 225 85.5 397.5t234 264.5t336.5 92q233 0 377 -122.5t180 -328.5h-172
q-13 65 -40 117t-72 94.5t-114.5 66t-158.5 23.5q-223 0 -349 -163.5t-126 -440.5z" />
    <glyph glyph-name="cacute" unicode="&#x107;" horiz-adv-x="1103" 
d="M641 1188h-106l114 319h217zM106 514q0 246 134.5 393.5t351.5 147.5q171 0 280 -92.5t134 -257.5h-162q-45 213 -252 213q-150 0 -234 -110t-84 -294t84 -292.5t234 -108.5q207 0 252 213h162q-25 -166 -133.5 -258.5t-280.5 -92.5q-217 0 -351.5 147t-134.5 392z" />
    <glyph glyph-name="Ccircumflex" unicode="&#x108;" horiz-adv-x="1404" 
d="M664 1874h186l188 -307h-106l-174 190l-174 -190h-109zM283 733q0 -277 126 -442.5t349 -165.5q89 0 158.5 23.5t114.5 66t72 94.5t40 117h172q-36 -206 -180 -328.5t-377 -122.5q-188 0 -336.5 92.5t-234 266t-85.5 399.5q0 225 85.5 397.5t234 264.5t336.5 92
q233 0 377 -122.5t180 -328.5h-172q-13 65 -40 117t-72 94.5t-114.5 66t-158.5 23.5q-223 0 -349 -163.5t-126 -440.5z" />
    <glyph glyph-name="ccircumflex" unicode="&#x109;" horiz-adv-x="1103" 
d="M504 1507h178l192 -323h-106l-174 213l-174 -213h-109zM106 514q0 246 134.5 393.5t351.5 147.5q171 0 280 -92.5t134 -257.5h-162q-45 213 -252 213q-150 0 -234 -110t-84 -294t84 -292.5t234 -108.5q207 0 252 213h162q-25 -166 -133.5 -258.5t-280.5 -92.5
q-217 0 -351.5 147t-134.5 392z" />
    <glyph glyph-name="Cdotaccent" unicode="&#x10a;" horiz-adv-x="1404" 
d="M662 1608v207h192v-207h-192zM283 733q0 -277 126 -442.5t349 -165.5q89 0 158.5 23.5t114.5 66t72 94.5t40 117h172q-36 -206 -180 -328.5t-377 -122.5q-188 0 -336.5 92.5t-234 266t-85.5 399.5q0 225 85.5 397.5t234 264.5t336.5 92q233 0 377 -122.5t180 -328.5h-172
q-13 65 -40 117t-72 94.5t-114.5 66t-158.5 23.5q-223 0 -349 -163.5t-126 -440.5z" />
    <glyph glyph-name="cdotaccent" unicode="&#x10b;" horiz-adv-x="1103" 
d="M498 1245v207h192v-207h-192zM106 514q0 246 134.5 393.5t351.5 147.5q171 0 280 -92.5t134 -257.5h-162q-45 213 -252 213q-150 0 -234 -110t-84 -294t84 -292.5t234 -108.5q207 0 252 213h162q-25 -166 -133.5 -258.5t-280.5 -92.5q-217 0 -351.5 147t-134.5 392z" />
    <glyph glyph-name="Ccaron" unicode="&#x10c;" horiz-adv-x="1404" 
d="M850 1567h-186l-189 307h109l174 -191l174 191h106zM283 733q0 -277 126 -442.5t349 -165.5q89 0 158.5 23.5t114.5 66t72 94.5t40 117h172q-36 -206 -180 -328.5t-377 -122.5q-188 0 -336.5 92.5t-234 266t-85.5 399.5q0 225 85.5 397.5t234 264.5t336.5 92
q233 0 377 -122.5t180 -328.5h-172q-13 65 -40 117t-72 94.5t-114.5 66t-158.5 23.5q-223 0 -349 -163.5t-126 -440.5z" />
    <glyph glyph-name="ccaron" unicode="&#x10d;" horiz-adv-x="1103" 
d="M682 1184h-178l-193 323h109l174 -213l174 213h106zM106 514q0 246 134.5 393.5t351.5 147.5q171 0 280 -92.5t134 -257.5h-162q-45 213 -252 213q-150 0 -234 -110t-84 -294t84 -292.5t234 -108.5q207 0 252 213h162q-25 -166 -133.5 -258.5t-280.5 -92.5
q-217 0 -351.5 147t-134.5 392z" />
    <glyph glyph-name="Dcaron" unicode="&#x10e;" horiz-adv-x="1523" 
d="M799 1567h-187l-188 307h108l175 -191l174 191h106zM709 1462q318 0 515 -201.5t197 -529.5q0 -329 -196.5 -530t-515.5 -201h-519v1462h519zM709 1315h-344v-1168h344q252 0 391 157.5t139 426.5q0 268 -139.5 426t-390.5 158z" />
    <glyph glyph-name="dcaron" unicode="&#x10f;" horiz-adv-x="1269" 
d="M913 0v180q-42 -85 -135 -145t-213 -60q-199 0 -329 149t-130 390q0 243 130 392t329 149q125 0 214 -60t128 -147v659h170v-1507h-164zM1323 1081h-86l53 426h197zM915 502v28q0 178 -83.5 285t-231.5 107q-150 0 -235.5 -112t-85.5 -296q0 -183 85.5 -294t235.5 -111
q148 0 231.5 107.5t83.5 285.5z" />
    <glyph glyph-name="Dcroat" unicode="&#x110;" horiz-adv-x="1550" 
d="M1448 731q0 -329 -197 -530t-516 -201h-518v670h-164v145h164v647h518q210 0 372 -91t251.5 -257.5t89.5 -382.5zM391 147h344q252 0 391.5 157.5t139.5 426.5q0 268 -140 426t-391 158h-344v-500h314v-145h-314v-523z" />
    <glyph glyph-name="dcroat" unicode="&#x111;" horiz-adv-x="1284" 
d="M913 180q-42 -85 -135 -145t-213 -60q-199 0 -329 149t-130 390q0 243 130 392t329 149q125 0 214 -60t128 -147v356h-258v115h258v188h170v-188h164v-115h-164v-1204h-164v180zM915 502v28q0 178 -83.5 285t-231.5 107q-150 0 -235.5 -112t-85.5 -296q0 -183 85.5 -294
t235.5 -111q148 0 231.5 107.5t83.5 285.5z" />
    <glyph glyph-name="Emacron" unicode="&#x112;" horiz-adv-x="1314" 
d="M387 1610v129h600v-129h-600zM1180 0h-990v1462h988v-147h-813v-510h722v-150h-722v-508h815v-147z" />
    <glyph glyph-name="emacron" unicode="&#x113;" horiz-adv-x="1140" 
d="M301 1245v127h584v-127h-584zM1028 303q-34 -158 -151 -243t-275 -85q-221 0 -358.5 144.5t-137.5 390.5q0 247 138 396t348 149q111 0 197.5 -42t138.5 -113.5t79 -161t27 -191.5v-68h-762q6 -177 93.5 -272.5t236.5 -95.5q200 0 266 192h160zM592 918
q-125 0 -208.5 -81t-104.5 -235h589q-3 141 -73.5 228.5t-202.5 87.5z" />
    <glyph glyph-name="Ebreve" unicode="&#x114;" horiz-adv-x="1314" 
d="M686 1563q-124 0 -200 84t-76 229h127q0 -89 39 -136.5t110 -47.5t110.5 47.5t39.5 136.5h125q0 -145 -75.5 -229t-199.5 -84zM1180 0h-990v1462h988v-147h-813v-510h722v-150h-722v-508h815v-147z" />
    <glyph glyph-name="ebreve" unicode="&#x115;" horiz-adv-x="1140" 
d="M590 1196q-125 0 -201 83.5t-76 227.5h119q3 -91 43 -140.5t115 -49.5q149 0 155 190h119q0 -145 -75 -228t-199 -83zM1028 303q-34 -158 -151 -243t-275 -85q-221 0 -358.5 144.5t-137.5 390.5q0 247 138 396t348 149q111 0 197.5 -42t138.5 -113.5t79 -161t27 -191.5
v-68h-762q6 -177 93.5 -272.5t236.5 -95.5q200 0 266 192h160zM592 918q-125 0 -208.5 -81t-104.5 -235h589q-3 141 -73.5 228.5t-202.5 87.5z" />
    <glyph glyph-name="Edotaccent" unicode="&#x116;" horiz-adv-x="1314" 
d="M592 1608v207h192v-207h-192zM1180 0h-990v1462h988v-147h-813v-510h722v-150h-722v-508h815v-147z" />
    <glyph glyph-name="edotaccent" unicode="&#x117;" horiz-adv-x="1140" 
d="M498 1245v207h192v-207h-192zM1028 303q-34 -158 -151 -243t-275 -85q-221 0 -358.5 144.5t-137.5 390.5q0 247 138 396t348 149q111 0 197.5 -42t138.5 -113.5t79 -161t27 -191.5v-68h-762q6 -177 93.5 -272.5t236.5 -95.5q200 0 266 192h160zM592 918
q-125 0 -208.5 -81t-104.5 -235h589q-3 141 -73.5 228.5t-202.5 87.5z" />
    <glyph glyph-name="Eogonek" unicode="&#x118;" horiz-adv-x="1314" 
d="M1108 -375q-43 -14 -98 -14q-71 0 -122.5 40t-51.5 118q0 57 28.5 109.5t85.5 121.5h-760v1462h988v-147h-813v-510h722v-150h-722v-508h815v-147h-113q-66 -87 -88.5 -128t-22.5 -79q0 -36 23.5 -55t62.5 -19q32 0 66 9v-103z" />
    <glyph glyph-name="eogonek" unicode="&#x119;" horiz-adv-x="1140" 
d="M846 -377q-37 -12 -98 -12q-72 0 -124.5 40t-52.5 118q0 97 99 211q-58 -5 -68 -5q-221 0 -358.5 144.5t-137.5 390.5q0 247 138 396t348 149q111 0 197.5 -42t138.5 -113.5t79 -161t27 -191.5v-68h-762q6 -177 93.5 -272.5t236.5 -95.5q200 0 266 192h160
q-14 -62 -47.5 -117t-68 -89.5t-87.5 -78.5q-131 -105 -131 -221q0 -37 23.5 -57.5t62.5 -20.5q32 0 66 9v-105zM592 918q-125 0 -208.5 -81t-104.5 -235h589q-3 141 -73.5 228.5t-202.5 87.5z" />
    <glyph glyph-name="Ecaron" unicode="&#x11a;" horiz-adv-x="1314" 
d="M780 1567h-186l-188 307h108l174 -191l174 191h107zM1180 0h-990v1462h988v-147h-813v-510h722v-150h-722v-508h815v-147z" />
    <glyph glyph-name="ecaron" unicode="&#x11b;" horiz-adv-x="1140" 
d="M682 1184h-178l-193 323h109l174 -213l174 213h106zM1028 303q-34 -158 -151 -243t-275 -85q-221 0 -358.5 144.5t-137.5 390.5q0 247 138 396t348 149q111 0 197.5 -42t138.5 -113.5t79 -161t27 -191.5v-68h-762q6 -177 93.5 -272.5t236.5 -95.5q200 0 266 192h160z
M592 918q-125 0 -208.5 -81t-104.5 -235h589q-3 141 -73.5 228.5t-202.5 87.5z" />
    <glyph glyph-name="Gcircumflex" unicode="&#x11c;" horiz-adv-x="1527" 
d="M694 1874h187l188 -307h-106l-175 190l-174 -190h-108zM102 733q0 225 88.5 397.5t241.5 264.5t346 92q238 0 385.5 -121t186.5 -330h-176q-30 140 -131.5 220.5t-264.5 80.5q-231 0 -363 -164t-132 -440q0 -277 130 -442.5t359 -165.5q187 0 307.5 106.5t120.5 282.5v76
h-346v139h518v-729h-139l-16 244q-41 -117 -170 -193t-277 -76q-144 0 -267.5 54t-212 151.5t-138.5 240t-50 312.5z" />
    <glyph glyph-name="gcircumflex" unicode="&#x11d;" horiz-adv-x="1257" 
d="M518 1507h178l193 -323h-107l-174 213l-174 -213h-108zM903 66v151q-39 -84 -127.5 -141.5t-214.5 -57.5q-201 0 -329 141.5t-128 379.5q0 230 128.5 373t328.5 143q125 0 215.5 -60.5t132.5 -144.5v180h166v-952q0 -120 -37 -211t-104 -146t-154 -82.5t-192 -27.5
q-189 0 -308 76t-149 225h172q46 -170 283 -170q154 0 235.5 82t81.5 242zM915 514v49q0 159 -90 259t-233 100q-149 0 -234.5 -104.5t-85.5 -278.5q0 -173 85.5 -279t234.5 -106q143 0 233 100t90 260z" />
    <glyph glyph-name="Gbreve" unicode="&#x11e;" horiz-adv-x="1527" 
d="M786 1563q-124 0 -200 84t-76 229h127q0 -89 39 -136.5t110 -47.5t110.5 47.5t39.5 136.5h125q0 -145 -75.5 -229t-199.5 -84zM102 733q0 225 88.5 397.5t241.5 264.5t346 92q238 0 385.5 -121t186.5 -330h-176q-30 140 -131.5 220.5t-264.5 80.5q-231 0 -363 -164
t-132 -440q0 -277 130 -442.5t359 -165.5q187 0 307.5 106.5t120.5 282.5v76h-346v139h518v-729h-139l-16 244q-41 -117 -170 -193t-277 -76q-144 0 -267.5 54t-212 151.5t-138.5 240t-50 312.5z" />
    <glyph glyph-name="gbreve" unicode="&#x11f;" horiz-adv-x="1257" 
d="M608 1196q-125 0 -200.5 83.5t-75.5 227.5h119q3 -91 42.5 -140.5t114.5 -49.5t114 49.5t42 140.5h119q0 -145 -75 -228t-200 -83zM903 66v151q-39 -84 -127.5 -141.5t-214.5 -57.5q-201 0 -329 141.5t-128 379.5q0 230 128.5 373t328.5 143q125 0 215.5 -60.5
t132.5 -144.5v180h166v-952q0 -120 -37 -211t-104 -146t-154 -82.5t-192 -27.5q-189 0 -308 76t-149 225h172q46 -170 283 -170q154 0 235.5 82t81.5 242zM915 514v49q0 159 -90 259t-233 100q-149 0 -234.5 -104.5t-85.5 -278.5q0 -173 85.5 -279t234.5 -106q143 0 233 100
t90 260z" />
    <glyph glyph-name="Gdotaccent" unicode="&#x120;" horiz-adv-x="1527" 
d="M690 1608v207h193v-207h-193zM102 733q0 225 88.5 397.5t241.5 264.5t346 92q238 0 385.5 -121t186.5 -330h-176q-30 140 -131.5 220.5t-264.5 80.5q-231 0 -363 -164t-132 -440q0 -277 130 -442.5t359 -165.5q187 0 307.5 106.5t120.5 282.5v76h-346v139h518v-729h-139
l-16 244q-41 -117 -170 -193t-277 -76q-144 0 -267.5 54t-212 151.5t-138.5 240t-50 312.5z" />
    <glyph glyph-name="gdotaccent" unicode="&#x121;" horiz-adv-x="1257" 
d="M510 1245v207h192v-207h-192zM903 66v151q-39 -84 -127.5 -141.5t-214.5 -57.5q-201 0 -329 141.5t-128 379.5q0 230 128.5 373t328.5 143q125 0 215.5 -60.5t132.5 -144.5v180h166v-952q0 -120 -37 -211t-104 -146t-154 -82.5t-192 -27.5q-189 0 -308 76t-149 225h172
q46 -170 283 -170q154 0 235.5 82t81.5 242zM915 514v49q0 159 -90 259t-233 100q-149 0 -234.5 -104.5t-85.5 -278.5q0 -173 85.5 -279t234.5 -106q143 0 233 100t90 260z" />
    <glyph glyph-name="uni0122" unicode="&#x122;" horiz-adv-x="1527" 
d="M102 733q0 225 88.5 397.5t241.5 264.5t346 92q238 0 385.5 -121t186.5 -330h-176q-30 140 -131.5 220.5t-264.5 80.5q-231 0 -363 -164t-132 -440q0 -277 130 -442.5t359 -165.5q187 0 307.5 106.5t120.5 282.5v76h-346v139h518v-729h-139l-16 244q-41 -117 -170 -193
t-277 -76q-144 0 -267.5 54t-212 151.5t-138.5 240t-50 312.5zM684 -256v147h205v-131q0 -219 -213 -219v80q56 0 78 30.5t22 92.5h-92z" />
    <glyph glyph-name="uni0123" unicode="&#x123;" horiz-adv-x="1257" 
d="M702 1343v-147h-204v131q0 219 213 219v-80q-56 0 -78.5 -30.5t-22.5 -92.5h92zM903 66v151q-39 -84 -127.5 -141.5t-214.5 -57.5q-201 0 -329 141.5t-128 379.5q0 230 128.5 373t328.5 143q125 0 215.5 -60.5t132.5 -144.5v180h166v-952q0 -120 -37 -211t-104 -146
t-154 -82.5t-192 -27.5q-189 0 -308 76t-149 225h172q46 -170 283 -170q154 0 235.5 82t81.5 242zM915 514v49q0 159 -90 259t-233 100q-149 0 -234.5 -104.5t-85.5 -278.5q0 -173 85.5 -279t234.5 -106q143 0 233 100t90 260z" />
    <glyph glyph-name="Hcircumflex" unicode="&#x124;" horiz-adv-x="1589" 
d="M702 1874h187l188 -307h-106l-174 190l-174 -190h-109zM190 0v1462h177v-645h856v645h176v-1462h-176v670h-856v-670h-177z" />
    <glyph glyph-name="hcircumflex" unicode="&#x125;" horiz-adv-x="1222" 
d="M528 1880h187l188 -307h-106l-174 190l-174 -190h-109zM352 842q37 99 124.5 156t205.5 57q173 0 271 -103.5t98 -287.5v-664h-170v627q0 142 -62 215t-184 73q-127 0 -205 -85.5t-78 -262.5v-567h-170v1507h170v-665z" />
    <glyph glyph-name="Hbar" unicode="&#x126;" horiz-adv-x="1644" 
d="M395 569v-569h-176v1016h-166v143h166v303h176v-303h856v303h176v-303h164v-143h-164v-1016h-176v569h-856zM395 717h856v299h-856v-299z" />
    <glyph glyph-name="hbar" unicode="&#x127;" horiz-adv-x="1247" 
d="M377 567v-567h-170v1204h-164v113h164v190h170v-190h258v-113h-258v-362q37 99 124.5 156t205.5 57q173 0 270.5 -103.5t97.5 -287.5v-664h-170v627q0 142 -62 215t-184 73q-127 0 -204.5 -85.5t-77.5 -262.5z" />
    <glyph glyph-name="Itilde" unicode="&#x128;" horiz-adv-x="559" 
d="M139 1726q-81 0 -88 -147h-108q0 128 48 205.5t138 77.5q42 0 86 -23t74.5 -51t65.5 -51t61 -23q84 0 88 150h110q0 -130 -48.5 -207.5t-139.5 -77.5q-42 0 -86 23t-74 50.5t-65 50.5t-62 23zM190 0v1462h177v-1462h-177z" />
    <glyph glyph-name="itilde" unicode="&#x129;" horiz-adv-x="534" 
d="M162 1354q-81 0 -88 -156h-109q0 129 48 206t139 77q35 0 63.5 -16t47.5 -38.5t35.5 -45t35.5 -38.5t39 -16q85 0 88 154h110q0 -129 -48.5 -206t-139.5 -77q-35 0 -63.5 16t-47.5 39t-35.5 46t-35.5 39t-39 16zM182 1030h170v-1030h-170v1030z" />
    <glyph glyph-name="Imacron" unicode="&#x12a;" horiz-adv-x="559" 
d="M-20 1610v129h600v-129h-600zM190 0v1462h177v-1462h-177z" />
    <glyph glyph-name="imacron" unicode="&#x12b;" horiz-adv-x="534" 
d="M16 1245v127h504v-127h-504zM182 1030h170v-1030h-170v1030z" />
    <glyph glyph-name="Ibreve" unicode="&#x12c;" horiz-adv-x="559" 
d="M281 1563q-125 0 -201 84t-76 229h127q0 -89 39.5 -136.5t110.5 -47.5t110 47.5t39 136.5h125q0 -145 -75 -229t-199 -84zM190 0v1462h177v-1462h-177z" />
    <glyph glyph-name="ibreve" unicode="&#x12d;" horiz-adv-x="534" 
d="M268 1196q-125 0 -200.5 83.5t-75.5 227.5h119q3 -91 42.5 -140.5t114.5 -49.5t114 49.5t42 140.5h119q0 -145 -75 -228t-200 -83zM182 1030h170v-1030h-170v1030z" />
    <glyph glyph-name="Iogonek" unicode="&#x12e;" horiz-adv-x="559" 
d="M369 -375q-43 -14 -99 -14q-72 0 -124 40t-52 118q0 58 31.5 111.5t91.5 119.5h-27v1462h177v-1462q-150 -102 -150 -205q0 -36 23.5 -56t62.5 -20q29 0 66 9v-103z" />
    <glyph glyph-name="iogonek" unicode="&#x12f;" horiz-adv-x="534" 
d="M170 1245v207h192v-207h-192zM88 -231q0 59 30 114t89 117h-25v1030h170v-1030q-141 -96 -141 -205q0 -36 23.5 -56t62.5 -20q27 0 65 9v-103q-43 -14 -100 -14q-70 0 -122 40t-52 118z" />
    <glyph glyph-name="Idotaccent" unicode="&#x130;" horiz-adv-x="559" 
d="M182 1608v207h193v-207h-193zM190 0v1462h177v-1462h-177z" />
    <glyph glyph-name="dotlessi" unicode="&#x131;" horiz-adv-x="534" 
d="M182 1030h170v-1030h-170v1030z" />
    <glyph glyph-name="Jcircumflex" unicode="&#x134;" horiz-adv-x="1165" 
d="M809 1874h186l189 -307h-107l-174 190l-174 -190h-108zM821 516v946h176v-944q0 -249 -131.5 -396t-361.5 -147q-205 0 -339 118.5t-140 328.5h170q7 -150 91.5 -228.5t217.5 -78.5q161 0 239 105.5t78 295.5z" />
    <glyph glyph-name="jcircumflex" unicode="&#x135;" horiz-adv-x="534" 
d="M176 1507h178l193 -323h-107l-174 213l-174 -213h-108zM76 -377q-47 0 -88 8v136q32 -7 55 -7q75 0 107 30.5t32 111.5v1128h170v-1122q0 -145 -67 -215t-209 -70z" />
    <glyph glyph-name="uni0136" unicode="&#x136;" horiz-adv-x="1449" 
d="M1176 0l-586 696l-223 -227v-469h-177v1462h177v-794l770 794h213l-637 -643l676 -819h-213zM614 -256v147h205v-131q0 -219 -213 -219v80q56 0 78.5 30.5t22.5 92.5h-93z" />
    <glyph glyph-name="uni0137" unicode="&#x137;" horiz-adv-x="1142" 
d="M877 0l-392 485l-133 -129v-356h-170v1507h170v-970l508 493h203l-455 -436l473 -594h-204zM522 -256v147h205v-131q0 -219 -213 -219v80q56 0 78 30.5t22 92.5h-92z" />
    <glyph glyph-name="kgreenlandic" unicode="&#x138;" horiz-adv-x="1142" 
d="M877 0l-392 485l-133 -129v-356h-170v1030h170v-493l508 493h203l-455 -436l473 -594h-204z" />
    <glyph glyph-name="Lacute" unicode="&#x139;" horiz-adv-x="1271" 
d="M344 1571h-104l116 303h217zM190 0v1462h177v-1315h786v-147h-963z" />
    <glyph glyph-name="lacute" unicode="&#x13a;" horiz-adv-x="534" 
d="M334 1577h-105l117 303h217zM352 0h-170v1507h170v-1507z" />
    <glyph glyph-name="uni013B" unicode="&#x13b;" horiz-adv-x="1271" 
d="M190 0v1462h177v-1315h786v-147h-963zM578 -256v147h204v-131q0 -219 -213 -219v80q56 0 78.5 30.5t22.5 92.5h-92z" />
    <glyph glyph-name="uni013C" unicode="&#x13c;" horiz-adv-x="534" 
d="M352 0h-170v1507h170v-1507zM170 -256v147h205v-131q0 -219 -213 -219v80q56 0 78 30.5t22 92.5h-92z" />
    <glyph glyph-name="Lcaron" unicode="&#x13d;" horiz-adv-x="1271" 
d="M190 0v1462h177v-1315h786v-147h-963zM758 1036h-86l53 426h197z" />
    <glyph glyph-name="lcaron" unicode="&#x13e;" horiz-adv-x="546" 
d="M352 0h-170v1507h170v-1507zM598 1081h-86l53 426h197z" />
    <glyph glyph-name="Ldot" unicode="&#x13f;" horiz-adv-x="1271" 
d="M190 0v1462h177v-1315h786v-147h-963zM817 692v207h193v-207h-193z" />
    <glyph glyph-name="ldot" unicode="&#x140;" horiz-adv-x="862" 
d="M352 0h-170v1507h170v-1507zM590 602v207h192v-207h-192z" />
    <glyph glyph-name="Lslash" unicode="&#x141;" horiz-adv-x="1280" 
d="M1180 147v-147h-963v610l-164 -57v137l164 58v714h176v-657l346 123v-137l-346 -125v-519h787z" />
    <glyph glyph-name="lslash" unicode="&#x142;" horiz-adv-x="681" 
d="M631 911l-205 -108v-803h-170v723l-203 -109v144l203 108v641h170v-563l205 111v-144z" />
    <glyph glyph-name="Nacute" unicode="&#x143;" horiz-adv-x="1554" 
d="M805 1571h-105l117 303h217zM408 1462l780 -1167h4v1167h170v-1462h-164l-831 1247h-5v-1247h-172v1462h218z" />
    <glyph glyph-name="nacute" unicode="&#x144;" horiz-adv-x="1222" 
d="M662 1188h-107l115 319h217zM346 1030v-188q37 96 128 154.5t208 58.5q173 0 271 -103.5t98 -287.5v-664h-170v627q0 142 -62 215t-184 73q-127 0 -205 -85.5t-78 -262.5v-567h-170v1030h164z" />
    <glyph glyph-name="uni0145" unicode="&#x145;" horiz-adv-x="1554" 
d="M408 1462l780 -1167h4v1167h170v-1462h-164l-831 1247h-5v-1247h-172v1462h218zM674 -256v147h205v-131q0 -219 -213 -219v80q56 0 78 30.5t22 92.5h-92z" />
    <glyph glyph-name="uni0146" unicode="&#x146;" horiz-adv-x="1222" 
d="M346 1030v-188q37 96 128 154.5t208 58.5q173 0 271 -103.5t98 -287.5v-664h-170v627q0 142 -62 215t-184 73q-127 0 -205 -85.5t-78 -262.5v-567h-170v1030h164zM526 -256v147h205v-131q0 -219 -213 -219v80q56 0 78 30.5t22 92.5h-92z" />
    <glyph glyph-name="Ncaron" unicode="&#x147;" horiz-adv-x="1554" 
d="M862 1567h-186l-189 307h109l174 -191l174 191h107zM408 1462l780 -1167h4v1167h170v-1462h-164l-831 1247h-5v-1247h-172v1462h218z" />
    <glyph glyph-name="ncaron" unicode="&#x148;" horiz-adv-x="1222" 
d="M711 1184h-179l-192 323h109l174 -213l174 213h106zM346 1030v-188q37 96 128 154.5t208 58.5q173 0 271 -103.5t98 -287.5v-664h-170v627q0 142 -62 215t-184 73q-127 0 -205 -85.5t-78 -262.5v-567h-170v1030h164z" />
    <glyph glyph-name="Eng" unicode="&#x14a;" horiz-adv-x="1554" 
d="M1085 -377q-47 0 -86 8v136q31 -7 56 -7q74 0 105.5 30.5t31.5 111.5v108l-825 1237h-5v-1247h-172v1462h218l780 -1167h4v1167h170v-1554q0 -146 -66.5 -215.5t-210.5 -69.5z" />
    <glyph glyph-name="eng" unicode="&#x14b;" horiz-adv-x="1222" 
d="M774 -377q-47 0 -86 8v136q28 -7 55 -7q74 0 106 30.5t32 111.5v725q0 142 -62 215t-184 73q-127 0 -205 -85.5t-78 -262.5v-567h-170v1030h164v-188q37 96 128 154.5t208 58.5q173 0 271 -103.5t98 -287.5v-756q0 -145 -67.5 -215t-209.5 -70z" />
    <glyph glyph-name="Omacron" unicode="&#x14c;" horiz-adv-x="1536" 
d="M467 1610v129h600v-129h-600zM1434 731q0 -219 -81 -390.5t-233 -268.5t-352 -97t-352 97t-233 268.5t-81 390.5q0 218 81 389.5t233.5 269t351.5 97.5t351.5 -97.5t233.5 -269t81 -389.5zM1251 731q0 273 -125.5 439.5t-357.5 166.5q-234 0 -359.5 -166.5t-125.5 -439.5
q0 -180 53 -314.5t164 -213t268 -78.5q156 0 266 78.5t163.5 213.5t53.5 314z" />
    <glyph glyph-name="omacron" unicode="&#x14d;" horiz-adv-x="1191" 
d="M303 1245v127h584v-127h-584zM1085 514q0 -246 -136 -392.5t-353 -146.5t-353.5 146.5t-136.5 392.5t136.5 393.5t353.5 147.5q216 0 352.5 -147.5t136.5 -393.5zM274 514q0 -186 86 -293.5t236 -107.5t236 107.5t86 293.5q0 187 -86 295.5t-236 108.5t-236 -108.5
t-86 -295.5z" />
    <glyph glyph-name="Obreve" unicode="&#x14e;" horiz-adv-x="1536" 
d="M768 1563q-124 0 -200 84t-76 229h126q0 -89 39.5 -136.5t110.5 -47.5t110.5 47.5t39.5 136.5h124q0 -145 -75 -229t-199 -84zM1434 731q0 -219 -81 -390.5t-233 -268.5t-352 -97t-352 97t-233 268.5t-81 390.5q0 218 81 389.5t233.5 269t351.5 97.5t351.5 -97.5
t233.5 -269t81 -389.5zM1251 731q0 273 -125.5 439.5t-357.5 166.5q-234 0 -359.5 -166.5t-125.5 -439.5q0 -180 53 -314.5t164 -213t268 -78.5q156 0 266 78.5t163.5 213.5t53.5 314z" />
    <glyph glyph-name="obreve" unicode="&#x14f;" horiz-adv-x="1191" 
d="M598 1196q-125 0 -200.5 83.5t-75.5 227.5h118q3 -91 43 -140.5t115 -49.5t114 49.5t42 140.5h118q0 -145 -75 -228t-199 -83zM1085 514q0 -246 -136 -392.5t-353 -146.5t-353.5 146.5t-136.5 392.5t136.5 393.5t353.5 147.5q216 0 352.5 -147.5t136.5 -393.5zM274 514
q0 -186 86 -293.5t236 -107.5t236 107.5t86 293.5q0 187 -86 295.5t-236 108.5t-236 -108.5t-86 -295.5z" />
    <glyph glyph-name="Ohungarumlaut" unicode="&#x150;" horiz-adv-x="1536" 
d="M854 1571l117 303h200l-219 -303h-98zM537 1571l118 303h199l-217 -303h-100zM1434 731q0 -219 -81 -390.5t-233 -268.5t-352 -97t-352 97t-233 268.5t-81 390.5q0 218 81 389.5t233.5 269t351.5 97.5t351.5 -97.5t233.5 -269t81 -389.5zM1251 731q0 273 -125.5 439.5
t-357.5 166.5q-234 0 -359.5 -166.5t-125.5 -439.5q0 -180 53 -314.5t164 -213t268 -78.5q156 0 266 78.5t163.5 213.5t53.5 314z" />
    <glyph glyph-name="ohungarumlaut" unicode="&#x151;" horiz-adv-x="1191" 
d="M696 1188l117 319h201l-219 -319h-99zM379 1188l119 319h198l-217 -319h-100zM1085 514q0 -246 -136 -392.5t-353 -146.5t-353.5 146.5t-136.5 392.5t136.5 393.5t353.5 147.5q216 0 352.5 -147.5t136.5 -393.5zM274 514q0 -186 86 -293.5t236 -107.5t236 107.5t86 293.5
q0 187 -86 295.5t-236 108.5t-236 -108.5t-86 -295.5z" />
    <glyph glyph-name="OE" unicode="&#x152;" horiz-adv-x="2281" 
d="M815 0q-210 0 -372 91t-251.5 257.5t-89.5 382.5q0 329 197 530t516 201h1331v-147h-813v-510h723v-150h-723v-508h813v-147h-1331zM815 147h342v1168h-342q-252 0 -392 -157.5t-140 -426.5q0 -268 140 -426t392 -158z" />
    <glyph glyph-name="oe" unicode="&#x153;" horiz-adv-x="1943" 
d="M1831 303q-34 -158 -151 -243t-275 -85q-267 0 -410 246q-143 -246 -399 -246q-217 0 -353.5 146.5t-136.5 392.5t136.5 393.5t353.5 147.5q260 0 401 -252q141 252 396 252q111 0 198 -42t139.5 -114.5t79.5 -163t27 -192.5v-66h-764q7 -174 95 -270t237 -96
q197 0 266 192h160zM1393 920q-125 0 -210.5 -84t-105.5 -244h594q-3 146 -74 237t-204 91zM274 514q0 -186 86 -293.5t236 -107.5q149 0 234 108t85 295t-85 294.5t-234 107.5q-150 0 -236 -108.5t-86 -295.5z" />
    <glyph glyph-name="Racute" unicode="&#x154;" horiz-adv-x="1411" 
d="M719 1571h-105l117 303h217zM365 0h-175v1462h564q247 0 380.5 -112t133.5 -322q0 -86 -28 -158.5t-76.5 -122t-107.5 -82t-126 -47.5l401 -618h-198l-379 592h-389v-592zM365 739h378q167 0 257 74t90 215q0 138 -90.5 212.5t-256.5 74.5h-378v-576z" />
    <glyph glyph-name="racute" unicode="&#x155;" horiz-adv-x="788" 
d="M489 1188h-106l115 319h217zM754 1044v-155q-33 8 -88 8q-132 0 -223 -102t-91 -287v-508h-170v1030h164v-244q33 125 122.5 196t205.5 71q42 0 80 -9z" />
    <glyph glyph-name="uni0156" unicode="&#x156;" horiz-adv-x="1411" 
d="M365 0h-175v1462h564q247 0 380.5 -112t133.5 -322q0 -86 -28 -158.5t-76.5 -122t-107.5 -82t-126 -47.5l401 -618h-198l-379 592h-389v-592zM365 739h378q167 0 257 74t90 215q0 138 -90.5 212.5t-256.5 74.5h-378v-576zM598 -256v147h205v-131q0 -219 -213 -219v80
q56 0 78 30.5t22 92.5h-92z" />
    <glyph glyph-name="uni0157" unicode="&#x157;" horiz-adv-x="788" 
d="M754 1044v-155q-33 8 -88 8q-132 0 -223 -102t-91 -287v-508h-170v1030h164v-244q33 125 122.5 196t205.5 71q42 0 80 -9zM170 -256v147h205v-131q0 -219 -213 -219v80q56 0 78 30.5t22 92.5h-92z" />
    <glyph glyph-name="Rcaron" unicode="&#x158;" horiz-adv-x="1411" 
d="M776 1567h-186l-189 307h109l174 -191l174 191h107zM365 0h-175v1462h564q247 0 380.5 -112t133.5 -322q0 -86 -28 -158.5t-76.5 -122t-107.5 -82t-126 -47.5l401 -618h-198l-379 592h-389v-592zM365 739h378q167 0 257 74t90 215q0 138 -90.5 212.5t-256.5 74.5h-378
v-576z" />
    <glyph glyph-name="rcaron" unicode="&#x159;" horiz-adv-x="788" 
d="M543 1184h-178l-193 323h109l174 -213l174 213h106zM754 1044v-155q-33 8 -88 8q-132 0 -223 -102t-91 -287v-508h-170v1030h164v-244q33 125 122.5 196t205.5 71q42 0 80 -9z" />
    <glyph glyph-name="Sacute" unicode="&#x15a;" horiz-adv-x="1343" 
d="M713 1571h-105l117 303h217zM96 432h170q8 -86 46 -148.5t98 -98t131.5 -52t156.5 -16.5q161 0 262 73.5t101 202.5q0 96 -61 154.5t-205 85.5l-279 55q-80 15 -142.5 40t-117 68t-84 111.5t-29.5 159.5q0 182 142.5 301t367.5 119q239 0 383.5 -102.5t165.5 -297.5h-170
q-19 122 -119 190.5t-258 68.5q-156 0 -248 -77t-92 -196q0 -105 60 -154t200 -77l287 -60q179 -36 274 -126t95 -255q0 -187 -149.5 -306.5t-381.5 -119.5q-97 0 -183 16.5t-161 52.5t-130.5 89t-89.5 129.5t-40 169.5z" />
    <glyph glyph-name="sacute" unicode="&#x15b;" horiz-adv-x="1056" 
d="M573 1188h-106l115 319h217zM94 305h164q6 -67 48 -114t102 -67t133 -20q108 0 175.5 47.5t67.5 129.5q0 58 -42 94.5t-138 54.5l-182 37q-138 26 -212.5 89t-74.5 189q0 132 107.5 221t275.5 89q180 0 284.5 -76t119.5 -221h-158q-9 78 -74.5 122t-171.5 44
q-102 0 -163.5 -46.5t-61.5 -121.5q0 -64 43 -97t137 -51l205 -39q131 -26 198.5 -93t67.5 -187q0 -135 -114 -224.5t-287 -89.5q-191 0 -313.5 84.5t-135.5 245.5z" />
    <glyph glyph-name="Scircumflex" unicode="&#x15c;" horiz-adv-x="1343" 
d="M598 1874h186l189 -307h-107l-174 190l-174 -190h-108zM96 432h170q8 -86 46 -148.5t98 -98t131.5 -52t156.5 -16.5q161 0 262 73.5t101 202.5q0 96 -61 154.5t-205 85.5l-279 55q-80 15 -142.5 40t-117 68t-84 111.5t-29.5 159.5q0 182 142.5 301t367.5 119
q239 0 383.5 -102.5t165.5 -297.5h-170q-19 122 -119 190.5t-258 68.5q-156 0 -248 -77t-92 -196q0 -105 60 -154t200 -77l287 -60q179 -36 274 -126t95 -255q0 -187 -149.5 -306.5t-381.5 -119.5q-97 0 -183 16.5t-161 52.5t-130.5 89t-89.5 129.5t-40 169.5z" />
    <glyph glyph-name="scircumflex" unicode="&#x15d;" horiz-adv-x="1056" 
d="M444 1507h179l192 -323h-106l-174 213l-175 -213h-108zM94 305h164q6 -67 48 -114t102 -67t133 -20q108 0 175.5 47.5t67.5 129.5q0 58 -42 94.5t-138 54.5l-182 37q-138 26 -212.5 89t-74.5 189q0 132 107.5 221t275.5 89q180 0 284.5 -76t119.5 -221h-158
q-9 78 -74.5 122t-171.5 44q-102 0 -163.5 -46.5t-61.5 -121.5q0 -64 43 -97t137 -51l205 -39q131 -26 198.5 -93t67.5 -187q0 -135 -114 -224.5t-287 -89.5q-191 0 -313.5 84.5t-135.5 245.5z" />
    <glyph glyph-name="uni015E" unicode="&#x15e;" horiz-adv-x="1343" 
d="M887 -223q0 -85 -69.5 -129.5t-164.5 -44.5q-100 0 -176 39v100q82 -43 176 -43q50 0 82.5 18t32.5 52q0 28 -18 44.5t-45.5 20t-57 0.5t-55.5 -12l-41 43l70 112q-108 9 -198.5 40t-162 85.5t-114.5 138.5t-50 191h170q8 -86 46 -148.5t98 -98t131.5 -52t156.5 -16.5
q161 0 262 73.5t101 202.5q0 96 -61 154.5t-205 85.5l-279 55q-80 15 -142.5 40t-117 68t-84 111.5t-29.5 159.5q0 182 142.5 301t367.5 119q239 0 383.5 -102.5t165.5 -297.5h-170q-19 122 -119 190.5t-258 68.5q-156 0 -248 -77t-92 -196q0 -105 60 -154t200 -77l287 -60
q179 -36 274 -126t95 -255q0 -187 -148 -306.5t-376 -119.5l-37 -57q53 4 99.5 -6.5t82 -45t35.5 -89.5z" />
    <glyph glyph-name="uni015F" unicode="&#x15f;" horiz-adv-x="1056" 
d="M731 -223q0 -85 -69 -129.5t-164 -44.5q-100 0 -176 39v100q82 -43 176 -43q50 0 82 18t32 52q0 28 -18 44.5t-45.5 20t-57 0.5t-55.5 -12l-41 43l72 115q-161 16 -261 99t-112 226h164q6 -67 48 -114t102 -67t133 -20q108 0 175.5 47.5t67.5 129.5q0 58 -42 94.5
t-138 54.5l-182 37q-138 26 -212.5 89t-74.5 189q0 132 107.5 221t275.5 89q180 0 284.5 -76t119.5 -221h-158q-9 78 -74.5 122t-171.5 44q-102 0 -163.5 -46.5t-61.5 -121.5q0 -64 43 -97t137 -51l205 -39q131 -26 198.5 -93t67.5 -187q0 -135 -112.5 -224.5t-280.5 -89.5
l-37 -57q53 4 99.5 -6.5t82 -45t35.5 -89.5z" />
    <glyph glyph-name="Scaron" unicode="&#x160;" horiz-adv-x="1343" 
d="M784 1567h-186l-188 307h108l174 -191l174 191h107zM96 432h170q8 -86 46 -148.5t98 -98t131.5 -52t156.5 -16.5q161 0 262 73.5t101 202.5q0 96 -61 154.5t-205 85.5l-279 55q-80 15 -142.5 40t-117 68t-84 111.5t-29.5 159.5q0 182 142.5 301t367.5 119
q239 0 383.5 -102.5t165.5 -297.5h-170q-19 122 -119 190.5t-258 68.5q-156 0 -248 -77t-92 -196q0 -105 60 -154t200 -77l287 -60q179 -36 274 -126t95 -255q0 -187 -149.5 -306.5t-381.5 -119.5q-97 0 -183 16.5t-161 52.5t-130.5 89t-89.5 129.5t-40 169.5z" />
    <glyph glyph-name="scaron" unicode="&#x161;" horiz-adv-x="1056" 
d="M610 1184h-178l-192 323h108l174 -213l174 213h107zM94 305h164q6 -67 48 -114t102 -67t133 -20q108 0 175.5 47.5t67.5 129.5q0 58 -42 94.5t-138 54.5l-182 37q-138 26 -212.5 89t-74.5 189q0 132 107.5 221t275.5 89q180 0 284.5 -76t119.5 -221h-158q-9 78 -74.5 122
t-171.5 44q-102 0 -163.5 -46.5t-61.5 -121.5q0 -64 43 -97t137 -51l205 -39q131 -26 198.5 -93t67.5 -187q0 -135 -114 -224.5t-287 -89.5q-191 0 -313.5 84.5t-135.5 245.5z" />
    <glyph glyph-name="Tcommaaccent" unicode="&#x162;" horiz-adv-x="1431" 
d="M895 -223q0 -85 -69 -129.5t-164 -44.5q-101 0 -177 39v100q82 -43 177 -43q50 0 82 18t32 52q0 28 -18 44.5t-45.5 20t-57 0.5t-55.5 -12l-41 43l84 135h-16v1315h-545v147h1268v-147h-547v-1315h-74l-51 -82q53 4 99.5 -6.5t82 -45t35.5 -89.5z" />
    <glyph glyph-name="tcommaaccent" unicode="&#x163;" horiz-adv-x="755" 
d="M604 -223q0 -85 -69 -129.5t-164 -44.5q-100 0 -176 39v100q82 -43 176 -43q50 0 82 18t32 52q0 28 -18 44.5t-45.5 20t-57 0.5t-55.5 -12l-41 43l86 137q-157 53 -157 262v637h-152v129h152v262h168v-262h270v-129h-273v-629q0 -78 38 -111.5t112 -33.5q68 0 150 25
v-140q-93 -28 -181 -28q-35 0 -51 2l-43 -68q53 4 99.5 -6.5t82 -45t35.5 -89.5z" />
    <glyph glyph-name="Tcaron" unicode="&#x164;" horiz-adv-x="1431" 
d="M809 1567h-186l-189 307h109l174 -191l174 191h106zM627 0v1315h-545v147h1268v-147h-547v-1315h-176z" />
    <glyph glyph-name="tcaron" unicode="&#x165;" horiz-adv-x="755" 
d="M563 1157h-86l53 426h197zM662 152v-140q-93 -28 -181 -28q-284 0 -284 280v637h-152v129h152v262h168v-262h270v-129h-273v-629q0 -78 38 -111.5t112 -33.5q68 0 150 25z" />
    <glyph glyph-name="Tbar" unicode="&#x166;" horiz-adv-x="1431" 
d="M1057 670h-254v-670h-176v670h-254v145h254v500h-545v147h1268v-147h-547v-500h254v-145z" />
    <glyph glyph-name="tbar" unicode="&#x167;" horiz-adv-x="821" 
d="M707 12q-95 -28 -183 -28q-284 0 -284 280v281h-152v123h152v237h-152v125h152v262h170v-262h270v-125h-272v-237h266v-123h-266v-273q0 -78 37 -111.5t110 -33.5q69 0 152 25v-140z" />
    <glyph glyph-name="Utilde" unicode="&#x168;" horiz-adv-x="1521" 
d="M623 1726q-81 0 -88 -147h-109q0 128 48 205.5t138 77.5q42 0 86 -23t74.5 -51t65.5 -51t61 -23q84 0 88 150h111q0 -130 -49 -207.5t-140 -77.5q-42 0 -85.5 23t-73.5 50.5t-65 50.5t-62 23zM1352 596q0 -299 -154.5 -460t-437.5 -161q-281 0 -436.5 162t-155.5 463v862
h176v-876q0 -228 109.5 -344.5t306.5 -116.5q198 0 307 116t109 345v876h176v-866z" />
    <glyph glyph-name="utilde" unicode="&#x169;" horiz-adv-x="1212" 
d="M467 1354q-81 0 -88 -156h-109q0 128 48.5 205.5t138.5 77.5q42 0 86 -24t74 -53t65 -53t61 -24q85 0 88 154h111q0 -129 -48.5 -206t-139.5 -77q-42 0 -86 24.5t-74 53.5t-65 53.5t-62 24.5zM1030 0h-166v186q-37 -98 -124 -154.5t-203 -56.5q-175 0 -270 102t-95 290
v663h172v-631q0 -290 242 -290q124 0 198 88t74 266v567h172v-1030z" />
    <glyph glyph-name="Umacron" unicode="&#x16a;" horiz-adv-x="1521" 
d="M461 1610v129h600v-129h-600zM1352 596q0 -299 -154.5 -460t-437.5 -161q-281 0 -436.5 162t-155.5 463v862h176v-876q0 -228 109.5 -344.5t306.5 -116.5q198 0 307 116t109 345v876h176v-866z" />
    <glyph glyph-name="umacron" unicode="&#x16b;" horiz-adv-x="1212" 
d="M315 1245v127h584v-127h-584zM1030 0h-166v186q-37 -98 -124 -154.5t-203 -56.5q-175 0 -270 102t-95 290v663h172v-631q0 -290 242 -290q124 0 198 88t74 266v567h172v-1030z" />
    <glyph glyph-name="Ubreve" unicode="&#x16c;" horiz-adv-x="1521" 
d="M762 1563q-125 0 -201 84t-76 229h127q0 -89 39.5 -136.5t110.5 -47.5t110 47.5t39 136.5h125q0 -145 -75 -229t-199 -84zM1352 596q0 -299 -154.5 -460t-437.5 -161q-281 0 -436.5 162t-155.5 463v862h176v-876q0 -228 109.5 -344.5t306.5 -116.5q198 0 307 116t109 345
v876h176v-866z" />
    <glyph glyph-name="ubreve" unicode="&#x16d;" horiz-adv-x="1212" 
d="M608 1196q-125 0 -200.5 83.5t-75.5 227.5h119q3 -91 42.5 -140.5t114.5 -49.5t114 49.5t42 140.5h119q0 -145 -75 -228t-200 -83zM1030 0h-166v186q-37 -98 -124 -154.5t-203 -56.5q-175 0 -270 102t-95 290v663h172v-631q0 -290 242 -290q124 0 198 88t74 266v567h172
v-1030z" />
    <glyph glyph-name="Uring" unicode="&#x16e;" horiz-adv-x="1521" 
d="M762 1468q-101 0 -175.5 74.5t-74.5 177.5t74.5 177.5t175.5 74.5q104 0 176 -74.5t72 -177.5t-72 -177.5t-176 -74.5zM762 1862q-59 0 -101.5 -42t-42.5 -100t42.5 -100.5t101.5 -42.5q58 0 98.5 42t40.5 101t-40.5 100.5t-98.5 41.5zM1352 596q0 -299 -154.5 -460
t-437.5 -161q-281 0 -436.5 162t-155.5 463v862h176v-876q0 -228 109.5 -344.5t306.5 -116.5q198 0 307 116t109 345v876h176v-866z" />
    <glyph glyph-name="uring" unicode="&#x16f;" horiz-adv-x="1212" 
d="M403 1374q0 86 60.5 146.5t144.5 60.5q85 0 144 -60.5t59 -146.5q0 -84 -59.5 -143.5t-143.5 -59.5q-83 0 -144 60t-61 143zM715 1374q0 46 -31.5 78.5t-75.5 32.5t-76 -32.5t-32 -78.5q0 -43 32 -74.5t76 -31.5t75.5 31.5t31.5 74.5zM1030 0h-166v186
q-37 -98 -124 -154.5t-203 -56.5q-175 0 -270 102t-95 290v663h172v-631q0 -290 242 -290q124 0 198 88t74 266v567h172v-1030z" />
    <glyph glyph-name="Uhungarumlaut" unicode="&#x170;" horiz-adv-x="1521" 
d="M829 1571l117 303h201l-219 -303h-99zM512 1571l119 303h198l-217 -303h-100zM1352 596q0 -299 -154.5 -460t-437.5 -161q-281 0 -436.5 162t-155.5 463v862h176v-876q0 -228 109.5 -344.5t306.5 -116.5q198 0 307 116t109 345v876h176v-866z" />
    <glyph glyph-name="uhungarumlaut" unicode="&#x171;" horiz-adv-x="1212" 
d="M682 1188l117 319h200l-219 -319h-98zM365 1188l118 319h199l-217 -319h-100zM1030 0h-166v186q-37 -98 -124 -154.5t-203 -56.5q-175 0 -270 102t-95 290v663h172v-631q0 -290 242 -290q124 0 198 88t74 266v567h172v-1030z" />
    <glyph glyph-name="Uogonek" unicode="&#x172;" horiz-adv-x="1521" 
d="M1063 -375q-43 -14 -98 -14q-72 0 -124.5 41t-52.5 119q0 99 99 215q-71 -11 -127 -11q-281 0 -436.5 162t-155.5 463v862h176v-876q0 -228 109.5 -344.5t306.5 -116.5q198 0 307 116t109 345v876h176v-866q0 -211 -78 -355t-227 -210q-68 -52 -102 -116t-34 -120
q0 -37 23 -56.5t63 -19.5q31 0 66 9v-103z" />
    <glyph glyph-name="uogonek" unicode="&#x173;" horiz-adv-x="1212" 
d="M1006 -375q-43 -14 -99 -14q-71 0 -122.5 40t-51.5 118q0 60 31.5 114t99.5 137v166q-37 -98 -124 -154.5t-203 -56.5q-175 0 -270 102t-95 290v663h172v-631q0 -290 242 -290q124 0 198 88t74 266v567h172v-1030h-65q-66 -87 -88.5 -128t-22.5 -79q0 -36 23.5 -55
t62.5 -19q31 0 66 9v-103z" />
    <glyph glyph-name="Wcircumflex" unicode="&#x174;" horiz-adv-x="1990" 
d="M903 1874h187l188 -307h-107l-174 190l-174 -190h-108zM1327 0l-330 1229h-4l-331 -1229h-199l-412 1462h187l335 -1243h5l329 1243h187l331 -1243h5l333 1243h176l-411 -1462h-201z" />
    <glyph glyph-name="wcircumflex" unicode="&#x175;" horiz-adv-x="1566" 
d="M696 1507h178l193 -323h-106l-175 213l-174 -213h-108zM872 1030l234 -846h4l238 846h163l-311 -1030h-176l-238 834h-6l-233 -834h-178l-312 1030h168l240 -846h6l229 846h172z" />
    <glyph glyph-name="Ycircumflex" unicode="&#x176;" horiz-adv-x="1359" 
d="M588 1874h186l189 -307h-107l-174 190l-174 -190h-109zM768 0h-176v606l-557 856h194l457 -698h4l443 698h194l-559 -856v-606z" />
    <glyph glyph-name="ycircumflex" unicode="&#x177;" horiz-adv-x="1110" 
d="M481 1507h178l193 -323h-107l-174 213l-174 -213h-108zM471 -8l-414 1038h179l327 -842h4l310 842h176l-416 -1061q-73 -192 -151 -270.5t-214 -79.5q-45 0 -100 10v140q37 -9 82 -9q75 0 120 49.5t97 182.5z" />
    <glyph glyph-name="Ydieresis" unicode="&#x178;" horiz-adv-x="1359" 
d="M780 1608v207h174v-207h-174zM408 1608v207h172v-207h-172zM768 0h-176v606l-557 856h194l457 -698h4l443 698h194l-559 -856v-606z" />
    <glyph glyph-name="Zacute" unicode="&#x179;" horiz-adv-x="1363" 
d="M717 1571h-105l117 303h217zM1243 1323l-909 -1176h915v-147h-1140v125l913 1190h-883v147h1104v-139z" />
    <glyph glyph-name="zacute" unicode="&#x17a;" horiz-adv-x="1062" 
d="M580 1188h-107l115 319h217zM932 905l-615 -774h637v-131h-848v111l619 788h-594v131h801v-125z" />
    <glyph glyph-name="Zdotaccent" unicode="&#x17b;" horiz-adv-x="1363" 
d="M586 1608v207h192v-207h-192zM1243 1323l-909 -1176h915v-147h-1140v125l913 1190h-883v147h1104v-139z" />
    <glyph glyph-name="zdotaccent" unicode="&#x17c;" horiz-adv-x="1062" 
d="M446 1245v207h193v-207h-193zM932 905l-615 -774h637v-131h-848v111l619 788h-594v131h801v-125z" />
    <glyph glyph-name="Zcaron" unicode="&#x17d;" horiz-adv-x="1363" 
d="M776 1567h-186l-189 307h109l174 -191l174 191h107zM1243 1323l-909 -1176h915v-147h-1140v125l913 1190h-883v147h1104v-139z" />
    <glyph glyph-name="zcaron" unicode="&#x17e;" horiz-adv-x="1062" 
d="M631 1184h-178l-193 323h109l174 -213l174 213h106zM932 905l-615 -774h637v-131h-848v111l619 788h-594v131h801v-125z" />
    <glyph glyph-name="uni0192" unicode="&#x192;" horiz-adv-x="1038" 
d="M799 696h-258l-164 -921h-166l164 921h-176v131h200l68 383q28 151 118 236.5t224 85.5q64 0 139 -27v-157q-57 28 -129 28q-153 0 -192 -205l-62 -344h234v-131z" />
    <glyph glyph-name="AEacute" unicode="&#x1fc;" horiz-adv-x="2242" 
d="M1577 1571h-104l116 303h217zM1120 0v412h-624l-279 -412h-182l987 1462h1085v-147h-813v-510h723v-150h-723v-508h813v-147h-987zM1120 1337l-526 -780h526v780z" />
    <glyph glyph-name="aeacute" unicode="&#x1fd;" horiz-adv-x="1814" 
d="M932 1188h-107l115 319h217zM1700 303q-33 -158 -150 -243t-276 -85q-132 0 -239.5 56t-170.5 159q-137 -213 -405 -213q-152 0 -254.5 80t-102.5 222q0 155 119 233t316 78h254v96q0 118 -65 176t-175 58q-104 0 -166.5 -51t-71.5 -142h-163q15 155 125 242.5t276 87.5
q125 0 213 -48t133 -137q67 88 161.5 136.5t205.5 48.5t198 -43t139.5 -116t79.5 -164t27 -193v-64h-764q7 -174 94.5 -270t235.5 -96q199 0 268 192h158zM1264 922q-127 0 -211.5 -84.5t-104.5 -247.5h594q-5 148 -75.5 240t-202.5 92zM481 109q135 0 222.5 77t87.5 220v71
h-252q-76 0 -133 -17t-94.5 -61.5t-37.5 -113.5q0 -77 53.5 -126.5t153.5 -49.5z" />
    <glyph glyph-name="Oslashacute" unicode="&#x1fe;" horiz-adv-x="1536" 
d="M813 1571h-104l116 303h217zM768 -25q-234 0 -399 131l-127 -167l-97 71l138 180q-87 101 -134 239.5t-47 301.5q0 218 81 389.5t233.5 269t351.5 97.5q233 0 401 -133l125 164l95 -72l-134 -176q87 -100 133 -238.5t46 -300.5q0 -219 -81 -390.5t-233 -268.5t-352 -97z
M283 731q0 -251 102 -407l688 905q-120 108 -305 108q-234 0 -359.5 -166.5t-125.5 -439.5zM1251 731q0 251 -100 404l-686 -904q118 -106 303 -106q156 0 266 78.5t163.5 213.5t53.5 314z" />
    <glyph glyph-name="oslashacute" unicode="&#x1ff;" horiz-adv-x="1191" 
d="M645 1188h-106l114 319h217zM596 -25q-163 0 -287 88l-104 -133l-82 66l108 137q-125 151 -125 381q0 246 136.5 393.5t353.5 147.5q168 0 293 -92l98 124l80 -65l-104 -131q122 -144 122 -377q0 -246 -136 -392.5t-353 -146.5zM272 514q0 -149 58 -256l469 590
q-81 72 -203 72q-152 0 -238 -109t-86 -297zM920 514q0 150 -56 250l-465 -588q79 -67 197 -67q152 0 238 108.5t86 296.5z" />
    <glyph glyph-name="uni0218" unicode="&#x218;" horiz-adv-x="1343" 
d="M96 432h170q8 -86 46 -148.5t98 -98t131.5 -52t156.5 -16.5q161 0 262 73.5t101 202.5q0 96 -61 154.5t-205 85.5l-279 55q-80 15 -142.5 40t-117 68t-84 111.5t-29.5 159.5q0 182 142.5 301t367.5 119q239 0 383.5 -102.5t165.5 -297.5h-170q-19 122 -119 190.5
t-258 68.5q-156 0 -248 -77t-92 -196q0 -105 60 -154t200 -77l287 -60q179 -36 274 -126t95 -255q0 -187 -149.5 -306.5t-381.5 -119.5q-97 0 -183 16.5t-161 52.5t-130.5 89t-89.5 129.5t-40 169.5zM575 -256v147h205v-131q0 -219 -213 -219v80q56 0 78.5 30.5t22.5 92.5
h-93z" />
    <glyph glyph-name="uni0219" unicode="&#x219;" horiz-adv-x="1056" 
d="M94 305h164q6 -67 48 -114t102 -67t133 -20q108 0 175.5 47.5t67.5 129.5q0 58 -42 94.5t-138 54.5l-182 37q-138 26 -212.5 89t-74.5 189q0 132 107.5 221t275.5 89q180 0 284.5 -76t119.5 -221h-158q-9 78 -74.5 122t-171.5 44q-102 0 -163.5 -46.5t-61.5 -121.5
q0 -64 43 -97t137 -51l205 -39q131 -26 198.5 -93t67.5 -187q0 -135 -114 -224.5t-287 -89.5q-191 0 -313.5 84.5t-135.5 245.5zM449 -256v147h204v-131q0 -219 -213 -219v80q56 0 78.5 30.5t22.5 92.5h-92z" />
    <glyph glyph-name="uni021A" unicode="&#x21a;" horiz-adv-x="1431" 
d="M627 0v1315h-545v147h1268v-147h-547v-1315h-176zM612 -256v147h205v-131q0 -219 -213 -219v80q56 0 78.5 30.5t22.5 92.5h-93z" />
    <glyph glyph-name="uni021B" unicode="&#x21b;" horiz-adv-x="755" 
d="M662 152v-140q-93 -28 -181 -28q-284 0 -284 280v637h-152v129h152v262h168v-262h270v-129h-273v-629q0 -78 38 -111.5t112 -33.5q68 0 150 25zM328 -256v147h204v-131q0 -219 -213 -219v80q56 0 78.5 30.5t22.5 92.5h-92z" />
    <glyph glyph-name="uni0237" unicode="&#x237;" horiz-adv-x="534" 
d="M76 -377q-47 0 -88 8v136q32 -7 55 -7q75 0 107 30.5t32 111.5v1128h170v-1122q0 -145 -67 -215t-209 -70z" />
    <glyph glyph-name="circumflex" unicode="&#x2c6;" horiz-adv-x="1157" 
d="M489 1507h179l192 -323h-106l-174 213l-174 -213h-109z" />
    <glyph glyph-name="caron" unicode="&#x2c7;" horiz-adv-x="1157" 
d="M668 1184h-179l-192 323h109l174 -213l174 213h106z" />
    <glyph glyph-name="breve" unicode="&#x2d8;" horiz-adv-x="1157" 
d="M575 1196q-125 0 -200.5 83.5t-75.5 227.5h119q3 -91 42.5 -140.5t114.5 -49.5t114 49.5t42 140.5h119q0 -145 -75 -228t-200 -83z" />
    <glyph glyph-name="dotaccent" unicode="&#x2d9;" horiz-adv-x="1157" 
d="M483 1245v207h193v-207h-193z" />
    <glyph glyph-name="ring" unicode="&#x2da;" horiz-adv-x="1157" 
d="M375 1374q0 86 60.5 146.5t144.5 60.5q85 0 143.5 -60.5t58.5 -146.5q0 -84 -59 -143.5t-143 -59.5q-83 0 -144 60t-61 143zM686 1374q0 46 -31 78.5t-75 32.5t-76.5 -32.5t-32.5 -78.5q0 -43 32.5 -74.5t76.5 -31.5t75 31.5t31 74.5z" />
    <glyph glyph-name="ogonek" unicode="&#x2db;" horiz-adv-x="1157" 
d="M473 -231q0 43 21 90t45 80t73 92h117q-81 -104 -108 -150.5t-27 -87.5q0 -36 23.5 -55t62.5 -19q30 0 65 9v-103q-43 -14 -98 -14q-71 0 -122.5 40t-51.5 118z" />
    <glyph glyph-name="tilde" unicode="&#x2dc;" horiz-adv-x="1157" 
d="M442 1354q-81 0 -88 -156h-108q0 128 48 205.5t138 77.5q42 0 86 -24t74.5 -53t65.5 -53t61 -24q85 0 88 154h111q0 -128 -49 -205.5t-140 -77.5q-42 0 -86 24.5t-74 53.5t-65 53.5t-62 24.5z" />
    <glyph glyph-name="hungarumlaut" unicode="&#x2dd;" horiz-adv-x="1157" 
d="M575 1188l117 319h201l-219 -319h-99zM258 1188l119 319h198l-217 -319h-100z" />
    <glyph glyph-name="Wgrave" unicode="&#x1e80;" horiz-adv-x="1990" 
d="M1069 1571h-104l-230 303h217zM1327 0l-330 1229h-4l-331 -1229h-199l-412 1462h187l335 -1243h5l329 1243h187l331 -1243h5l333 1243h176l-411 -1462h-201z" />
    <glyph glyph-name="wgrave" unicode="&#x1e81;" horiz-adv-x="1566" 
d="M860 1188h-106l-226 319h217zM872 1030l234 -846h4l238 846h163l-311 -1030h-176l-238 834h-6l-233 -834h-178l-312 1030h168l240 -846h6l229 846h172z" />
    <glyph glyph-name="Wacute" unicode="&#x1e82;" horiz-adv-x="1990" 
d="M1057 1571h-105l117 303h217zM1327 0l-330 1229h-4l-331 -1229h-199l-412 1462h187l335 -1243h5l329 1243h187l331 -1243h5l333 1243h176l-411 -1462h-201z" />
    <glyph glyph-name="wacute" unicode="&#x1e83;" horiz-adv-x="1566" 
d="M823 1188h-106l114 319h218zM872 1030l234 -846h4l238 846h163l-311 -1030h-176l-238 834h-6l-233 -834h-178l-312 1030h168l240 -846h6l229 846h172z" />
    <glyph glyph-name="Wdieresis" unicode="&#x1e84;" horiz-adv-x="1990" 
d="M1096 1608v207h174v-207h-174zM723 1608v207h172v-207h-172zM1327 0l-330 1229h-4l-331 -1229h-199l-412 1462h187l335 -1243h5l329 1243h187l331 -1243h5l333 1243h176l-411 -1462h-201z" />
    <glyph glyph-name="wdieresis" unicode="&#x1e85;" horiz-adv-x="1566" 
d="M885 1245v207h174v-207h-174zM512 1245v207h172v-207h-172zM872 1030l234 -846h4l238 846h163l-311 -1030h-176l-238 834h-6l-233 -834h-178l-312 1030h168l240 -846h6l229 846h172z" />
    <glyph glyph-name="Ygrave" unicode="&#x1ef2;" horiz-adv-x="1359" 
d="M745 1571h-104l-229 303h217zM768 0h-176v606l-557 856h194l457 -698h4l443 698h194l-559 -856v-606z" />
    <glyph glyph-name="ygrave" unicode="&#x1ef3;" horiz-adv-x="1110" 
d="M635 1188h-107l-225 319h217zM471 -8l-414 1038h179l327 -842h4l310 842h176l-416 -1061q-73 -192 -151 -270.5t-214 -79.5q-45 0 -100 10v140q37 -9 82 -9q75 0 120 49.5t97 182.5z" />
    <glyph glyph-name="endash" unicode="&#x2013;" horiz-adv-x="1386" 
d="M178 504v135h1030v-135h-1030z" />
    <glyph glyph-name="emdash" unicode="&#x2014;" horiz-adv-x="2054" 
d="M178 504v135h1698v-135h-1698z" />
    <glyph glyph-name="quoteleft" unicode="&#x2018;" horiz-adv-x="630" 
d="M426 1198v-201h-223v228q0 130 75 208t211 78v-102q-82 0 -124.5 -43t-42.5 -139v-29h104z" />
    <glyph glyph-name="quoteright" unicode="&#x2019;" horiz-adv-x="630" 
d="M205 1307v200h223v-227q0 -130 -75.5 -208.5t-211.5 -78.5v103q168 0 168 182v29h-104z" />
    <glyph glyph-name="quotesinglbase" unicode="&#x201a;" horiz-adv-x="630" 
d="M205 59v201h223v-227q0 -130 -75.5 -208.5t-211.5 -78.5v102q168 0 168 183v28h-104z" />
    <glyph glyph-name="quotedblleft" unicode="&#x201c;" horiz-adv-x="1069" 
d="M864 1198v-201h-223v228q0 130 75.5 208t211.5 78v-102q-168 0 -168 -182v-29h104zM426 1198v-201h-223v228q0 130 75 208t211 78v-102q-82 0 -124.5 -43t-42.5 -139v-29h104z" />
    <glyph glyph-name="quotedblright" unicode="&#x201d;" horiz-adv-x="1069" 
d="M205 1307v200h223v-227q0 -130 -75.5 -208.5t-211.5 -78.5v103q168 0 168 182v29h-104zM643 1307v200h223v-227q0 -130 -75.5 -208.5t-210.5 -78.5v103q168 0 168 182v29h-105z" />
    <glyph glyph-name="quotedblbase" unicode="&#x201e;" horiz-adv-x="1069" 
d="M205 59v201h223v-227q0 -130 -75.5 -208.5t-211.5 -78.5v102q168 0 168 183v28h-104zM643 59v201h223v-227q0 -130 -75.5 -208.5t-210.5 -78.5v102q168 0 168 183v28h-105z" />
    <glyph glyph-name="dagger" unicode="&#x2020;" horiz-adv-x="755" 
d="M680 1139h-244v-514h-119v514h-241v114h241v234h119v-234h244v-114z" />
    <glyph glyph-name="daggerdbl" unicode="&#x2021;" horiz-adv-x="755" 
d="M680 848h-244v-223h-119v223h-241v113h241v192h-241v113h241v221h119v-221h244v-113h-244v-192h244v-113z" />
    <glyph glyph-name="bullet" unicode="&#x2022;" horiz-adv-x="901" 
d="M178 608q0 112 80.5 191.5t194.5 79.5q112 0 191 -79t79 -192q0 -112 -78.5 -191t-191.5 -79q-114 0 -194.5 79t-80.5 191z" />
    <glyph glyph-name="ellipsis" unicode="&#x2026;" horiz-adv-x="1449" 
d="M1024 0v223h223v-223h-223zM614 0v223h224v-223h-224zM203 0v223h223v-223h-223z" />
    <glyph glyph-name="guilsinglleft" unicode="&#x2039;" horiz-adv-x="651" 
d="M524 92h-127l-272 402l272 401h127l-219 -401z" />
    <glyph glyph-name="guilsinglright" unicode="&#x203a;" horiz-adv-x="651" 
d="M254 86h-127l219 401l-219 402h127l272 -402z" />
    <glyph glyph-name="fraction" unicode="&#x2044;" horiz-adv-x="376" 
d="M-268 -25h-144l1057 1514h141z" />
    <glyph glyph-name="uni2070" unicode="&#x2070;" horiz-adv-x="854" 
d="M426 647q-152 0 -244 117t-92 299q0 184 92 301t244 117t245 -117t93 -301q0 -182 -93 -299t-245 -117zM426 758q97 0 148 81.5t51 223.5q0 143 -50.5 225t-148.5 82q-96 0 -146.5 -82t-50.5 -225q0 -142 50.5 -223.5t146.5 -81.5z" />
    <glyph glyph-name="uni2074" unicode="&#x2074;" horiz-adv-x="833" 
d="M600 1462v-508h164v-100h-164v-192h-129v192h-399v102l379 506h149zM471 1331l-276 -377h276v377z" />
    <glyph glyph-name="uni2075" unicode="&#x2075;" horiz-adv-x="770" 
d="M389 1094q-95 0 -149 -78h-123l43 446h479v-110h-379l-24 -226q27 30 73.5 50t100.5 20q124 0 199 -76.5t75 -195.5q0 -120 -80 -199.5t-215 -79.5q-132 0 -214 69.5t-93 186.5h139q5 -66 51 -108.5t117 -42.5q79 0 120.5 49.5t41.5 124.5q0 73 -41.5 121.5t-120.5 48.5z
" />
    <glyph glyph-name="uni2076" unicode="&#x2076;" horiz-adv-x="786" 
d="M418 1372q-95 0 -148 -87.5t-53 -221.5q25 59 78.5 96t130.5 37q122 0 198 -75.5t76 -192.5q0 -123 -80.5 -202t-211.5 -79q-141 0 -229.5 109t-88.5 293q0 193 91.5 312.5t236.5 119.5q112 0 185.5 -62.5t88.5 -165.5h-125q-28 119 -149 119zM408 752q74 0 119.5 48.5
t45.5 123.5q0 76 -45.5 124t-119.5 48q-73 0 -119.5 -48.5t-46.5 -123.5q0 -74 46.5 -123t119.5 -49z" />
    <glyph glyph-name="uni2077" unicode="&#x2077;" horiz-adv-x="724" 
d="M508 1354h-440v108h579v-102q-136 -167 -192 -330t-58 -368h-143q3 374 254 692z" />
    <glyph glyph-name="uni2078" unicode="&#x2078;" horiz-adv-x="800" 
d="M399 647q-141 0 -226 64t-85 170q0 69 49 123t113 67q-59 24 -93 71t-34 111q0 104 78 166t198 62q121 0 200 -62t79 -166q0 -64 -34 -111t-91 -71q63 -13 111.5 -67t48.5 -123q0 -106 -86 -170t-228 -64zM399 1378q-66 0 -109.5 -33t-43.5 -94q0 -62 43.5 -96.5
t109.5 -34.5q67 0 110.5 34.5t43.5 96.5q0 61 -43.5 94t-110.5 33zM399 1022q-84 0 -131 -36.5t-47 -98.5q0 -64 47 -100.5t131 -36.5q87 0 135 36.5t48 100.5q0 62 -48 98.5t-135 36.5z" />
    <glyph glyph-name="uni2079" unicode="&#x2079;" horiz-adv-x="786" 
d="M373 756q94 0 147 87t53 222q-25 -59 -80 -97t-133 -38q-119 0 -194.5 77t-75.5 195q0 122 80.5 200.5t210.5 78.5q141 0 230 -110t89 -292q0 -193 -92 -312.5t-239 -119.5q-112 0 -185 61.5t-88 165.5h127q27 -118 150 -118zM381 1374q-74 0 -119 -47.5t-45 -122.5
q0 -77 45 -125.5t119 -48.5q75 0 121.5 48.5t46.5 125.5q0 74 -47 122t-121 48z" />
    <glyph glyph-name="uni2080" unicode="&#x2080;" horiz-adv-x="854" 
d="M426 -301q-152 0 -244 117t-92 299q0 184 92 300.5t244 116.5t245 -117t93 -300q0 -182 -93 -299t-245 -117zM426 -190q97 0 148 81.5t51 223.5q0 143 -50.5 225t-148.5 82q-96 0 -146.5 -82t-50.5 -225q0 -142 50.5 -223.5t146.5 -81.5z" />
    <glyph glyph-name="uni2081" unicode="&#x2081;" horiz-adv-x="684" 
d="M635 -184v-103h-547v103h207v485h-205v96q95 0 146.5 14t71 37.5t30.5 69.5h90v-702h207z" />
    <glyph glyph-name="uni2082" unicode="&#x2082;" horiz-adv-x="735" 
d="M651 291q0 -31 -7.5 -59t-17.5 -49t-32 -45t-36.5 -38t-47.5 -36t-49 -32.5t-55 -33.5q-86 -50 -133 -92.5t-48 -83.5h445v-109h-592v54q0 54 22 102.5t64 89.5t79 68.5t91 60.5q100 61 144 103.5t44 99.5q0 56 -37 93.5t-108 37.5t-114 -46t-46 -112h-131
q8 113 86 189.5t207 76.5q122 0 197 -69.5t75 -169.5z" />
    <glyph glyph-name="uni2083" unicode="&#x2083;" horiz-adv-x="763" 
d="M678 -70q0 -98 -78.5 -164.5t-214.5 -66.5q-135 0 -217.5 67.5t-93.5 182.5h131q6 -65 54.5 -104.5t125.5 -39.5q76 0 120 36.5t44 97.5q0 60 -43 92t-115 32h-82v105h78q62 0 101.5 31t39.5 92q0 58 -38 95.5t-105 37.5q-71 0 -113 -42.5t-47 -107.5h-127q6 110 82 184
t205 74q130 0 201 -68.5t71 -168.5q0 -70 -40.5 -119.5t-102.5 -60.5q74 -12 119 -62.5t45 -122.5z" />
    <glyph glyph-name="uni2084" unicode="&#x2084;" horiz-adv-x="833" 
d="M600 514v-508h164v-100h-164v-193h-129v193h-399v102l379 506h149zM471 383l-276 -377h276v377z" />
    <glyph glyph-name="uni2085" unicode="&#x2085;" horiz-adv-x="770" 
d="M389 147q-96 0 -149 -77h-123l43 446h479v-110h-379l-24 -226q27 30 73.5 50t100.5 20q124 0 199 -77t75 -196q0 -120 -80 -199t-215 -79q-132 0 -214 69.5t-93 186.5h139q5 -66 51 -109t117 -43q79 0 120.5 49.5t41.5 124.5q0 73 -41.5 121.5t-120.5 48.5z" />
    <glyph glyph-name="uni2086" unicode="&#x2086;" horiz-adv-x="786" 
d="M418 424q-95 0 -148 -87.5t-53 -221.5q25 59 78.5 96t130.5 37q122 0 198 -75.5t76 -192.5q0 -123 -80.5 -202t-211.5 -79q-141 0 -229.5 108.5t-88.5 292.5q0 193 91.5 312.5t236.5 119.5q112 0 185.5 -62t88.5 -165h-125q-28 119 -149 119zM408 -197q74 0 119.5 48.5
t45.5 123.5q0 76 -45.5 124t-119.5 48q-73 0 -119.5 -48.5t-46.5 -123.5q0 -74 46.5 -123t119.5 -49z" />
    <glyph glyph-name="uni2087" unicode="&#x2087;" horiz-adv-x="724" 
d="M508 406h-440v108h579v-102q-136 -167 -192 -330.5t-58 -368.5h-143q3 375 254 693z" />
    <glyph glyph-name="uni2088" unicode="&#x2088;" horiz-adv-x="800" 
d="M399 -301q-141 0 -226 63.5t-85 169.5q0 69 49 123.5t113 67.5q-59 24 -93 71t-34 111q0 104 78 165.5t198 61.5q121 0 200 -61.5t79 -165.5q0 -64 -34 -111t-91 -71q63 -13 111.5 -67.5t48.5 -123.5q0 -106 -85.5 -169.5t-228.5 -63.5zM399 430q-66 0 -109.5 -33
t-43.5 -94q0 -62 43.5 -96.5t109.5 -34.5q67 0 110.5 34.5t43.5 96.5q0 61 -43.5 94t-110.5 33zM399 74q-84 0 -131 -36.5t-47 -98.5q0 -64 47 -101t131 -37q87 0 135 37t48 101q0 62 -48 98.5t-135 36.5z" />
    <glyph glyph-name="uni2089" unicode="&#x2089;" horiz-adv-x="786" 
d="M373 -193q94 0 147 87.5t53 222.5q-25 -59 -80 -97t-133 -38q-119 0 -194.5 77t-75.5 195q0 121 80 199.5t211 78.5q141 0 230 -109.5t89 -291.5q0 -193 -92 -312.5t-239 -119.5q-112 0 -185 61.5t-88 165.5h127q27 -119 150 -119zM381 426q-74 0 -119 -47.5t-45 -122.5
q0 -77 45 -125.5t119 -48.5q75 0 121.5 48.5t46.5 125.5q0 74 -47 122t-121 48z" />
    <glyph glyph-name="Euro" unicode="&#x20ac;" horiz-adv-x="1439" 
d="M1348 426q-33 -207 -164.5 -329t-347.5 -122q-220 0 -377.5 147t-208.5 400h-154v123h140q-5 73 -5 88q0 55 2 82h-137v123h154q47 254 205.5 401.5t380.5 147.5q216 0 347.5 -121t164.5 -328h-166q-54 299 -344 299q-163 0 -270 -105t-144 -294h494l-23 -123h-487
q-2 -27 -2 -82q0 -30 4 -88h448l-22 -123h-410q37 -186 143.5 -291.5t268.5 -105.5q291 0 344 301h166z" />
    <glyph glyph-name="trademark" unicode="&#x2122;" horiz-adv-x="1734" 
d="M449 815h-132v535h-225v112h584v-112h-227v-535zM1184 815h-99l-161 522h-6v-522h-117v647h194l142 -477h6l143 477h189v-647h-127v522h-5z" />
    <glyph glyph-name="uni2153" unicode="&#x2153;" horiz-adv-x="1892" 
d="M489 -25h-143l1057 1514h141zM686 764v-102h-547v102h207v485h-205v97q95 0 146 13.5t71 37t31 69.5h90v-702h207zM1765 217q0 -98 -78 -164.5t-214 -66.5q-135 0 -218 67.5t-94 182.5h131q6 -65 55 -104.5t126 -39.5q76 0 119.5 36t43.5 97q0 60 -42.5 92.5t-114.5 32.5
h-82v105h78q62 0 101.5 31t39.5 92q0 58 -38 95.5t-105 37.5q-71 0 -113 -42.5t-47 -107.5h-127q6 110 82 184t205 74q130 0 201 -68.5t71 -168.5q0 -70 -40.5 -120t-102.5 -61q74 -12 118.5 -62t44.5 -122z" />
    <glyph glyph-name="uni2154" unicode="&#x2154;" horiz-adv-x="1933" 
d="M532 -25h-143l1057 1514h141zM702 1239q0 -31 -7.5 -59t-17.5 -49t-32 -45t-36.5 -38t-47.5 -36t-49 -32.5t-55 -33.5q-86 -50 -133 -92.5t-48 -83.5h445v-108h-592v53q0 54 22 102.5t64 89.5t79 68.5t91 60.5q100 61 144 103.5t44 99.5q0 56 -37 93.5t-108 37.5
t-114 -46t-46 -112h-131q8 113 86 190t207 77q122 0 197 -70t75 -170zM1808 217q0 -98 -78 -164.5t-214 -66.5q-135 0 -218 67.5t-94 182.5h131q6 -65 55 -104.5t126 -39.5q76 0 119.5 36t43.5 97q0 60 -42.5 92.5t-114.5 32.5h-82v105h78q62 0 101.5 31t39.5 92
q0 58 -38 95.5t-105 37.5q-71 0 -113 -42.5t-47 -107.5h-127q6 110 82 184t205 74q130 0 201 -68.5t71 -168.5q0 -70 -40.5 -120t-102.5 -61q74 -12 118.5 -62t44.5 -122z" />
    <glyph glyph-name="uni215B" unicode="&#x215b;" horiz-adv-x="1925" 
d="M489 -25h-143l1057 1514h141zM686 764v-102h-547v102h207v485h-205v97q95 0 146 13.5t71 37t31 69.5h90v-702h207zM1487 -14q-141 0 -226 63.5t-85 169.5q0 70 48.5 124t112.5 67q-59 24 -93 71t-34 111q0 103 78.5 165t198.5 62q121 0 199.5 -61.5t78.5 -165.5
q0 -64 -34 -111t-91 -71q63 -13 111.5 -67.5t48.5 -123.5q0 -106 -85.5 -169.5t-227.5 -63.5zM1487 717q-66 0 -110 -33.5t-44 -93.5q0 -62 44 -96.5t110 -34.5q67 0 110 34.5t43 96.5q0 61 -43 94t-110 33zM1487 360q-84 0 -131 -36.5t-47 -98.5q0 -64 47 -100.5t131 -36.5
q87 0 134.5 36.5t47.5 100.5q0 62 -47.5 98.5t-134.5 36.5z" />
    <glyph glyph-name="uni215C" unicode="&#x215c;" horiz-adv-x="1961" 
d="M526 -25h-143l1057 1514h141zM729 879q0 -98 -78.5 -165t-214.5 -67q-135 0 -217.5 67.5t-93.5 182.5h131q6 -65 54.5 -104t125.5 -39q76 0 120 36.5t44 96.5t-43 92.5t-115 32.5h-82v104h78q63 0 102.5 31t39.5 92q0 58 -38.5 95.5t-105.5 37.5q-71 0 -113 -42.5
t-47 -106.5h-126q6 110 81.5 184t204.5 74q130 0 201.5 -69t71.5 -169q0 -70 -41 -119.5t-103 -60.5q74 -12 119 -62t45 -122zM1524 -14q-141 0 -226.5 63.5t-85.5 169.5q0 69 49 123.5t113 67.5q-59 24 -93 71t-34 111q0 103 78.5 165t198.5 62q121 0 199.5 -61.5
t78.5 -165.5q0 -64 -34 -111t-91 -71q63 -13 111.5 -67.5t48.5 -123.5q0 -106 -85.5 -169.5t-227.5 -63.5zM1524 717q-66 0 -110 -33.5t-44 -93.5q0 -62 44 -96.5t110 -34.5q67 0 110 34.5t43 96.5q0 61 -43 94t-110 33zM1524 360q-84 0 -131 -36.5t-47 -98.5
q0 -64 47 -100.5t131 -36.5q87 0 134.5 36.5t47.5 100.5q0 62 -47.5 98.5t-134.5 36.5z" />
    <glyph glyph-name="uni215D" unicode="&#x215d;" horiz-adv-x="1935" 
d="M500 -25h-144l1057 1514h141zM440 1094q-95 0 -149 -78h-123l43 446h479v-110h-379l-24 -226q27 30 73.5 50t100.5 20q124 0 199 -76.5t75 -195.5q0 -120 -80 -199.5t-215 -79.5q-132 0 -214 69.5t-93 186.5h139q5 -66 51 -108.5t117 -42.5q79 0 120.5 49.5t41.5 124.5
q0 73 -41.5 121.5t-120.5 48.5zM1497 -14q-141 0 -226 63.5t-85 169.5q0 69 49 123.5t113 67.5q-59 24 -93 71t-34 111q0 104 78 165.5t198 61.5q121 0 200 -61.5t79 -165.5q0 -64 -34 -111t-91 -71q63 -13 111 -67.5t48 -123.5q0 -106 -85.5 -169.5t-227.5 -63.5zM1497 717
q-66 0 -110 -33.5t-44 -93.5q0 -62 44 -96.5t110 -34.5q67 0 110.5 34.5t43.5 96.5q0 61 -43.5 94t-110.5 33zM1497 360q-84 0 -131 -36.5t-47 -98.5q0 -64 47 -100.5t131 -36.5q87 0 134.5 36.5t47.5 100.5q0 62 -47.5 98.5t-134.5 36.5z" />
    <glyph glyph-name="uni215E" unicode="&#x215e;" horiz-adv-x="1802" 
d="M367 -25h-144l1057 1514h141zM559 1354h-440v108h579v-102q-135 -167 -191 -330t-58 -368h-144q3 374 254 692zM1364 -14q-141 0 -226 63.5t-85 169.5q0 70 48.5 124t112.5 67q-59 24 -93 71t-34 111q0 103 78.5 165t198.5 62q121 0 199.5 -61.5t78.5 -165.5
q0 -64 -34 -111t-90 -71q63 -13 111 -67.5t48 -123.5q0 -106 -85.5 -169.5t-227.5 -63.5zM1364 717q-66 0 -110 -33.5t-44 -93.5q0 -62 44 -96.5t110 -34.5q67 0 110.5 34.5t43.5 96.5q0 61 -43.5 94t-110.5 33zM1364 360q-84 0 -131 -36.5t-47 -98.5q0 -64 47 -100.5
t131 -36.5q87 0 134.5 36.5t47.5 100.5q0 62 -47.5 98.5t-134.5 36.5z" />
    <glyph glyph-name="minus" unicode="&#x2212;" 
d="M141 612v140h1067v-140h-1067z" />
    <glyph glyph-name="i.dot" horiz-adv-x="534" 
d="M172 1245v207h193v-207h-193zM182 1030h170v-1030h-170v1030z" />
    <glyph glyph-name="a.ord" horiz-adv-x="813" 
d="M547 760q-25 -60 -87 -93.5t-147 -33.5q-97 0 -161 53t-64 145q0 175 240 203l213 25v39q0 141 -144 141q-63 0 -100.5 -31.5t-42.5 -85.5h-135q9 106 86 167t194 61q134 0 207.5 -64.5t73.5 -191.5v-289q0 -87 14 -156h-137q-10 46 -10 111zM541 913v60l-170 -21
q-68 -9 -105 -33.5t-37 -80.5q0 -47 31 -77t88 -30q78 0 135.5 48.5t57.5 133.5z" />
    <glyph glyph-name="b.ord" horiz-adv-x="894" 
d="M276 768v-121h-137v993h142v-421q28 55 87 92t134 37q134 0 219.5 -99.5t85.5 -259.5q0 -161 -85 -259.5t-220 -98.5q-80 0 -139.5 40t-86.5 97zM276 999v-20q0 -112 50.5 -178t140.5 -66q91 0 143 69.5t52 184.5q0 114 -52 183t-143 69q-89 0 -140 -66.5t-51 -175.5z
" />
    <glyph glyph-name="c.ord" horiz-adv-x="794" 
d="M90 991q0 162 92.5 260.5t239.5 98.5q121 0 196.5 -64.5t90.5 -177.5h-134q-28 131 -155 131q-89 0 -139 -68t-50 -180q0 -116 50 -184t139 -68q126 0 155 133h134q-15 -114 -90.5 -177.5t-196.5 -63.5q-148 0 -240 98t-92 262z" />
    <glyph glyph-name="d.ord" horiz-adv-x="894" 
d="M618 647v121q-27 -58 -86 -97.5t-139 -39.5q-135 0 -220 98.5t-85 259.5q0 160 85.5 259.5t219.5 99.5q75 0 134 -37t87 -92v421h142v-993h-138zM618 979v20q0 109 -50.5 175.5t-139.5 66.5q-91 0 -143 -69t-52 -183q0 -115 52 -184.5t143 -69.5q90 0 140 66t50 178z" />
    <glyph glyph-name="e.ord" horiz-adv-x="815" 
d="M721 854q-23 -106 -102.5 -164.5t-190.5 -58.5q-149 0 -243.5 96.5t-94.5 259.5q0 165 93.5 264t236.5 99q62 0 113 -18.5t86.5 -50.5t60 -76t36 -94t11.5 -105v-45h-500q6 -106 58 -164t143 -58q124 0 162 115h131zM420 1239q-76 0 -126.5 -50.5t-62.5 -146.5h359
q-2 88 -45.5 142.5t-124.5 54.5z" />
    <glyph glyph-name="f.ord" horiz-adv-x="489" 
d="M156 1227h-95v104h95v117q0 97 57.5 148t155.5 51q41 0 88 -7v-110q-40 4 -70 4q-88 0 -88 -92v-111h139v-104h-139v-580h-143v580z" />
    <glyph glyph-name="g.ord" horiz-adv-x="890" 
d="M614 690v101q-23 -55 -80.5 -91t-138.5 -36q-135 0 -219 93.5t-84 248.5q0 153 84.5 247.5t218.5 94.5q80 0 139.5 -39t86.5 -95v117h137v-626q0 -158 -92 -237t-244 -79q-130 0 -211.5 53t-101.5 154h141q30 -104 172 -104q93 0 142.5 49.5t49.5 148.5zM623 989v33
q0 97 -54.5 158t-142.5 61q-90 0 -142.5 -64t-52.5 -171t52.5 -171.5t142.5 -64.5q88 0 142.5 61t54.5 158z" />
    <glyph glyph-name="h.ord" horiz-adv-x="876" 
d="M281 1212q27 63 83.5 99.5t133.5 36.5q115 0 180 -69.5t65 -191.5v-440h-141v408q0 180 -151 180q-75 0 -122.5 -53t-47.5 -160v-375h-142v993h142v-428z" />
    <glyph glyph-name="i.ord" horiz-adv-x="419" 
d="M133 1458v152h154v-152h-154zM139 1331h142v-684h-142v684z" />
    <glyph glyph-name="j.ord" horiz-adv-x="419" 
d="M133 1458v152h154v-152h-154zM82 399q-24 0 -68 7v108q14 -2 37 -2q49 0 68.5 18t19.5 66v735h142v-733q0 -101 -48.5 -150t-150.5 -49z" />
    <glyph glyph-name="k.ord" horiz-adv-x="831" 
d="M608 647l-243 305l-84 -80v-225h-142v993h142v-618l315 309h164l-295 -289l309 -395h-166z" />
    <glyph glyph-name="l.ord" horiz-adv-x="419" 
d="M281 647h-142v993h142v-993z" />
    <glyph glyph-name="m.ord" horiz-adv-x="1298" 
d="M698 1208q34 65 95 102.5t137 37.5q115 0 175 -68.5t60 -192.5v-440h-141v410q0 178 -137 178q-73 0 -117.5 -53.5t-44.5 -157.5v-377h-143v410q0 178 -138 178q-73 0 -118 -53.5t-45 -157.5v-377h-142v684h137v-119q27 62 83.5 99t129.5 37q157 0 209 -140z" />
    <glyph glyph-name="n.ord" horiz-adv-x="876" 
d="M276 1331v-119q25 61 85 98.5t137 37.5q115 0 180 -69.5t65 -191.5v-440h-141v408q0 180 -151 180q-75 0 -122.5 -53t-47.5 -160v-375h-142v684h137z" />
    <glyph glyph-name="o.ord" horiz-adv-x="849" 
d="M90 991q0 164 93 261.5t243 97.5q148 0 242 -97.5t94 -261.5q0 -165 -93.5 -262.5t-242.5 -97.5q-150 0 -243 97.5t-93 262.5zM231 991q0 -119 51.5 -185.5t143.5 -66.5q91 0 141.5 66.5t50.5 185.5q0 115 -51 181.5t-141 66.5q-92 0 -143.5 -66.5t-51.5 -181.5z" />
    <glyph glyph-name="p.ord" horiz-adv-x="897" 
d="M281 762v-354h-142v923h137v-121q27 58 87 99t139 41q134 0 219.5 -100t85.5 -259q0 -162 -85 -261t-220 -99q-76 0 -134.5 37.5t-86.5 93.5zM276 999v-20q0 -110 50.5 -176t140.5 -66q92 0 143.5 68t51.5 186q0 114 -52 182t-143 68q-89 0 -140 -66.5t-51 -175.5z" />
    <glyph glyph-name="q.ord" horiz-adv-x="897" 
d="M616 408v354q-28 -56 -86.5 -93.5t-134.5 -37.5q-135 0 -220 99t-85 261q0 159 85.5 259t219.5 100q79 0 139 -41t87 -99v121h137v-923h-142zM621 979v20q0 109 -51 175.5t-140 66.5q-91 0 -142.5 -68t-51.5 -182q0 -118 51 -186t143 -68q90 0 140.5 66t50.5 176z" />
    <glyph glyph-name="r.ord" horiz-adv-x="593" 
d="M543 1339v-131q-16 4 -62 4q-85 0 -142.5 -61.5t-57.5 -175.5v-328h-142v684h137v-160q23 82 80.5 127t132.5 45q26 0 54 -4z" />
    <glyph glyph-name="s.ord" horiz-adv-x="761" 
d="M82 850h133q6 -60 56 -90.5t118 -30.5q64 0 105 28t41 79q0 36 -26 57t-87 33l-121 22q-94 19 -145.5 62.5t-51.5 128.5q0 93 74.5 152t190.5 59q125 0 199.5 -53.5t84.5 -151.5h-127q-7 50 -50 78t-107 28q-59 0 -96 -29.5t-37 -74.5q0 -38 27.5 -57.5t86.5 -32.5
l133 -25q91 -18 137 -63.5t46 -126.5q0 -95 -77 -153t-198 -58q-132 0 -215.5 56t-93.5 163z" />
    <glyph glyph-name="t.ord" horiz-adv-x="561" 
d="M479 766v-109q-59 -20 -129 -20q-101 0 -149.5 45.5t-48.5 144.5v400h-101v104h101v172h139v-172h170v-104h-172v-383q0 -92 94 -92q39 0 96 14z" />
    <glyph glyph-name="u.ord" horiz-adv-x="866" 
d="M588 647v117q-23 -62 -80 -98.5t-133 -36.5q-115 0 -179.5 68.5t-64.5 191.5v442h143v-413q0 -179 146 -179q75 0 120.5 53t45.5 162v377h141v-684h-139z" />
    <glyph glyph-name="v.ord" horiz-adv-x="813" 
d="M332 647l-271 684h144l205 -547h4l196 547h142l-263 -684h-157z" />
    <glyph glyph-name="w.ord" horiz-adv-x="1122" 
d="M633 1331l143 -534h2l148 534h135l-207 -684h-145l-148 524h-2l-145 -524h-146l-207 684h142l147 -534h4l142 534h137z" />
    <glyph glyph-name="x.ord" horiz-adv-x="831" 
d="M223 647h-151l260 352l-244 332h164l168 -231l166 231h153l-243 -327l262 -357h-164l-184 256z" />
    <glyph glyph-name="y.ord" horiz-adv-x="811" 
d="M332 649l-271 684h148l203 -534h2l194 534h142l-273 -698q-47 -128 -105.5 -182t-158.5 -54q-32 0 -72 7v110q40 -4 52 -4q50 0 78 28.5t61 108.5z" />
    <glyph glyph-name="z.ord" horiz-adv-x="761" 
d="M655 1229l-389 -475h406v-107h-578v92l389 484h-377v108h549v-102z" />
    <glyph glyph-name="caron.Slovak" horiz-adv-x="1157" 
d="M530 1081h-86l54 426h196z" />
    <glyph glyph-name="commaturn" horiz-adv-x="1157" 
d="M676 1343v-147h-205v131q0 219 213 219v-80q-56 0 -78 -30.5t-22 -92.5h92z" />
    <glyph glyph-name="uni00200326" horiz-adv-x="1157" 
d="M483 -256v147h205v-131q0 -219 -213 -219v80q56 0 78 30.5t22 92.5h-92z" />
    <glyph glyph-name="guilsinglleft.cap" horiz-adv-x="651" 
d="M524 250h-127l-272 401l272 402h127l-219 -402z" />
    <glyph glyph-name="guilsinglright.cap" horiz-adv-x="651" 
d="M254 250h-127l219 401l-219 402h127l272 -402z" />
    <glyph glyph-name="guillemotleft.cap" horiz-adv-x="1046" 
d="M922 250h-127l-271 401l271 402h127l-224 -402zM522 250h-125l-272 401l272 402h125l-219 -402z" />
    <glyph glyph-name="guillemotright.cap" horiz-adv-x="1046" 
d="M252 250h-127l223 401l-223 402h127l270 -402zM649 250h-125l219 401l-219 402h125l273 -402z" />
    <glyph glyph-name="slash.cap" horiz-adv-x="1038" 
d="M102 -154l668 1729h166l-668 -1729h-166z" />
    <glyph glyph-name="backslash.cap" horiz-adv-x="1038" 
d="M102 1575h166l668 -1729h-166z" />
    <glyph glyph-name="bar.cap" horiz-adv-x="628" 
d="M238 1575h153v-1729h-153v1729z" />
    <glyph glyph-name="periodcentered.cap" horiz-adv-x="579" 
d="M178 590v223h223v-223h-223z" />
    <glyph glyph-name="bullet.cap" horiz-adv-x="901" 
d="M178 731q0 112 80.5 191t194.5 79q113 0 191.5 -78.5t78.5 -191.5t-78.5 -191.5t-191.5 -78.5q-114 0 -194.5 79t-80.5 191z" />
    <glyph glyph-name="hyphen.cap" horiz-adv-x="923" 
d="M178 623v149h567v-149h-567z" />
    <glyph glyph-name="endash.cap" horiz-adv-x="1386" 
d="M178 627v135h1030v-135h-1030z" />
    <glyph glyph-name="emdash.cap" horiz-adv-x="2054" 
d="M178 627v135h1698v-135h-1698z" />
    <glyph glyph-name="parenleft.cap" horiz-adv-x="802" 
d="M352 711q0 -224 87 -445t243 -420h-166q-334 410 -334 865q0 454 334 864h166q-330 -449 -330 -864z" />
    <glyph glyph-name="parenright.cap" horiz-adv-x="802" 
d="M121 -154q156 199 243 420t87 445q0 415 -330 864h166q334 -410 334 -864q0 -455 -334 -865h-166z" />
    <glyph glyph-name="bracketleft.cap" horiz-adv-x="808" 
d="M377 1444v-1467h289v-131h-451v1729h451v-131h-289z" />
    <glyph glyph-name="bracketright.cap" horiz-adv-x="808" 
d="M432 -23v1467h-289v131h451v-1729h-451v131h289z" />
    <glyph glyph-name="braceleft.cap" horiz-adv-x="851" 
d="M68 643v135h104q107 0 107 111v471q0 112 58.5 163.5t174.5 51.5h197v-131h-164q-58 0 -84.5 -18t-26.5 -74v-473q0 -141 -141 -168q141 -27 141 -168v-473q0 -56 26.5 -74.5t84.5 -18.5h164v-131h-197q-116 0 -174.5 51.5t-58.5 163.5v471q0 111 -107 111h-104z" />
    <glyph glyph-name="braceright.cap" horiz-adv-x="851" 
d="M784 778v-135h-104q-107 0 -107 -111v-471q0 -112 -58.5 -163.5t-174.5 -51.5h-197v131h164q58 0 84.5 18.5t26.5 74.5v473q0 141 141 168q-141 27 -141 168v473q0 56 -26.5 74t-84.5 18h-164v131h197q116 0 174.5 -51.5t58.5 -163.5v-471q0 -111 107 -111h104z" />
    <glyph glyph-name="at.cap" horiz-adv-x="1878" 
d="M1352 1110l-105 -594q-12 -66 13 -98.5t81 -32.5q128 0 213.5 122.5t85.5 336.5q0 258 -176 414.5t-465 156.5q-219 0 -391.5 -100t-267 -273t-94.5 -387q0 -144 43 -261t115 -194.5t170.5 -130t204.5 -75.5t222 -23q244 0 453 86l41 -98q-221 -102 -494 -102
q-137 0 -263 28.5t-239 91.5t-196.5 155t-132.5 226t-49 297q0 180 64.5 340.5t178 279t278.5 188t357 69.5q224 0 399.5 -90t271 -246.5t95.5 -351.5q0 -137 -38.5 -248t-102.5 -179t-142.5 -104.5t-162.5 -36.5q-82 0 -141.5 38.5t-79.5 105.5q-37 -60 -104 -98.5
t-146 -38.5q-144 0 -224.5 97.5t-80.5 248.5q0 96 30.5 186t85 159.5t135 111.5t173.5 42q77 0 136 -40t83 -95l20 117h146zM1126 645l13 86q24 127 -24.5 195.5t-137.5 68.5q-83 0 -148.5 -51.5t-99.5 -131.5t-35 -169q-2 -105 48 -166t139 -61q80 0 151.5 59t93.5 170z
" />
    <glyph glyph-name="uni0192.lt" 
d="M1006 696h-258l-164 -921h-166l164 921h-176v131h200l68 383q28 151 118 236.5t224 85.5q64 0 139 -27v-157q-57 28 -129 28q-153 0 -192 -205l-62 -344h234v-131z" />
    <glyph glyph-name="Euro.lt" 
d="M1292 426q-32 -206 -162.5 -328.5t-343.5 -122.5q-218 0 -374 147t-205 400h-150v123h136q-5 73 -5 88q0 55 2 82h-133v123h150q47 254 203.5 401.5t375.5 147.5q214 0 344 -121.5t162 -327.5h-162q-54 299 -342 299q-162 0 -267 -105t-142 -294h489l-22 -123h-484
q-2 -27 -2 -82q0 -15 5 -88h444l-23 -123h-405q37 -187 142 -292t265 -105q155 0 236.5 82.5t105.5 218.5h162z" />
    <glyph glyph-name="dollar.lt" 
d="M1210 401q0 -174 -132 -291.5t-341 -127.5v-205h-121v207q-138 12 -247.5 64t-180.5 151t-79 231h161q13 -139 107.5 -215t238.5 -92v547l-100 18q-79 16 -139 41.5t-112.5 68.5t-80.5 111.5t-28 159.5q0 174 127 290.5t333 125.5v192h121v-196q195 -19 311 -118
t134 -273h-160q-13 106 -87 168t-198 77v-526l119 -25q172 -36 263 -127t91 -256zM567 842l49 -11v508q-142 -7 -221.5 -80t-79.5 -184q0 -105 58 -155.5t194 -77.5zM793 635l-56 10v-524q144 9 229 81t85 191q0 97 -58.5 156t-199.5 86z" />
    <glyph glyph-name="cent.lt" 
d="M1161 334q-24 -153 -125.5 -244.5t-253.5 -105.5v-201h-118v203q-195 24 -315 168.5t-120 369.5q0 224 120 370.5t315 170.5v246h118v-244q151 -14 252.5 -106.5t126.5 -243.5h-147q-20 94 -79.5 150.5t-152.5 68.5v-821q93 12 152.5 68.5t79.5 150.5h147zM387 524
q0 -165 73.5 -272.5t203.5 -132.5v813q-130 -25 -203.5 -134t-73.5 -274z" />
    <glyph glyph-name="sterling.lt" 
d="M1210 147v-147h-1067v147h25q99 0 160 96t61 246q0 54 -14 115h-199v135h146q-3 6 -17 34.5t-18 37t-15.5 35t-15.5 40t-12 38.5t-11 44t-5.5 43.5t-2.5 49.5q0 76 32 150.5t90 136.5t150 100.5t203 38.5q117 0 208.5 -37t148.5 -103t88.5 -150t36.5 -183h-164
q-5 68 -24.5 125t-56 103.5t-97 72.5t-140.5 26q-142 0 -222.5 -84.5t-80.5 -199.5q0 -42 11 -87.5t22 -73.5t36 -82t34 -75h422v-135h-379q12 -53 12 -110q0 -102 -36.5 -194.5t-104.5 -152.5h796z" />
    <glyph glyph-name="yen.lt" 
d="M1178 338h-416v-338h-170v338h-416v125h416v186h-416v125h348l-450 688h186l420 -645h4l410 645h186l-451 -688h351v-125h-418v-186h416v-125z" />
    <glyph glyph-name="zero.lt" 
d="M676 -25q-170 0 -300.5 97.5t-200 269t-69.5 389.5t69.5 389.5t200 269t300.5 97.5t300 -97.5t199.5 -269t69.5 -389.5t-69.5 -389.5t-199.5 -269t-300 -97.5zM676 127q128 0 218 77t133.5 211.5t43.5 315.5t-43.5 315.5t-133.5 211.5t-218 77t-218 -77t-133.5 -211.5
t-43.5 -315.5t43.5 -315.5t133.5 -211.5t218 -77z" />
    <glyph glyph-name="one.lt" 
d="M1214 141v-141h-1054v141h458v987h-409v119q136 0 224 12.5t140 41.5t76 66.5t39 98.5h107v-1325h419z" />
    <glyph glyph-name="two.lt" 
d="M1163 1061q0 -74 -23.5 -139t-57 -112t-92 -97t-106.5 -82.5t-121 -79.5q-31 -19 -46 -29q-66 -44 -106.5 -72.5t-93.5 -71.5t-82.5 -76.5t-51 -75t-21.5 -79.5h816v-147h-1004v80q0 75 29 147.5t72 128.5t110.5 115t124.5 99t133 87q70 45 113 74.5t94 72t78.5 78.5
t47 83t19.5 96q0 55 -16.5 102.5t-50 88t-93 64t-137.5 23.5q-145 0 -232.5 -94t-96.5 -233h-166q7 131 65.5 237.5t171 172t260.5 65.5q111 0 201 -36t146 -96t86 -135.5t30 -158.5z" />
    <glyph glyph-name="three.lt" 
d="M1178 397q0 -86 -34 -162t-97.5 -134t-161 -92t-217.5 -34q-234 0 -378 122.5t-159 330.5h172q9 -140 105 -224.5t260 -84.5q160 0 252 76t92 208q0 126 -86.5 196.5t-233.5 70.5h-160v143h154q127 0 207 62t80 194q0 119 -77.5 196.5t-221.5 77.5q-151 0 -239.5 -91
t-96.5 -228h-166q6 97 41.5 180t97 146.5t155 100t208.5 36.5q114 0 205 -34t147.5 -92.5t86.5 -132.5t30 -157q0 -131 -75.5 -220.5t-186.5 -105.5q131 -20 214 -116t83 -232z" />
    <glyph glyph-name="four.lt" 
d="M965 1462v-919h305v-142h-305v-401h-174v401h-713v144l684 917h203zM791 1282l-547 -739h547v739z" />
    <glyph glyph-name="five.lt" 
d="M682 829q-108 0 -187 -45.5t-124 -117.5h-158l82 796h823v-149h-696l-49 -484q48 61 136.5 102.5t186.5 41.5q149 0 263 -67t173.5 -180t59.5 -251q0 -215 -138.5 -357.5t-371.5 -142.5q-223 0 -367 124t-161 335h174q11 -141 107 -228t249 -87q110 0 188.5 51t114 130
t35.5 175q0 150 -88 252t-252 102z" />
    <glyph glyph-name="six.lt" 
d="M721 1339q-132 0 -226 -86.5t-140 -233.5t-46 -339q38 124 147.5 210.5t266.5 86.5q214 0 348.5 -140.5t134.5 -353.5q0 -223 -139.5 -365.5t-366.5 -142.5q-246 0 -400.5 199.5t-154.5 532.5q0 171 43.5 317t119.5 247.5t183 158.5t232 57q194 0 319 -107.5t150 -292.5
h-162q-53 252 -309 252zM700 119q154 0 247 101t93 257q0 157 -92.5 257t-247.5 100q-153 0 -248.5 -100.5t-95.5 -256.5q0 -155 96 -256.5t248 -101.5z" />
    <glyph glyph-name="seven.lt" 
d="M1038 1315h-897v147h1092v-125q-267 -324 -400.5 -648.5t-136.5 -688.5h-188q10 647 530 1315z" />
    <glyph glyph-name="eight.lt" 
d="M674 1487q210 0 346.5 -109.5t136.5 -294.5q0 -121 -65 -209.5t-177 -132.5q122 -23 215 -120.5t93 -221.5q0 -190 -149.5 -307t-399.5 -117q-248 0 -397.5 117t-149.5 307q0 124 92.5 221.5t214.5 120.5q-111 44 -176 132.5t-65 209.5q0 185 136 294.5t345 109.5z
M674 817q140 0 230.5 68.5t90.5 197.5q0 128 -91 196.5t-230 68.5q-138 0 -229 -68.5t-91 -196.5q0 -129 90.5 -197.5t229.5 -68.5zM674 117q174 0 273.5 76t99.5 206q0 128 -99.5 202.5t-273.5 74.5q-172 0 -271.5 -74.5t-99.5 -202.5q0 -129 100 -205.5t271 -76.5z" />
    <glyph glyph-name="nine.lt" 
d="M631 123q132 0 226 86.5t139.5 233.5t45.5 339q-38 -124 -147 -210.5t-266 -86.5q-214 0 -349 140.5t-135 353.5q0 223 139.5 365.5t366.5 142.5q246 0 400.5 -199t154.5 -532q0 -228 -74 -406.5t-205.5 -276.5t-297.5 -98q-194 0 -319 107.5t-150 292.5h162
q53 -252 309 -252zM651 1343q-154 0 -247 -101t-93 -257q0 -157 92.5 -256.5t247.5 -99.5q153 0 248.5 100t95.5 256q0 155 -96 256.5t-248 101.5z" />
    <glyph glyph-name="zero.dnom" horiz-adv-x="854" 
d="M426 -14q-152 0 -244 116.5t-92 298.5q0 184 92 301t244 117t245 -117t93 -301q0 -182 -93 -298.5t-245 -116.5zM426 96q97 0 148 81.5t51 223.5q0 143 -51 225.5t-148 82.5q-96 0 -146.5 -82.5t-50.5 -225.5q0 -142 50.5 -223.5t146.5 -81.5z" />
    <glyph glyph-name="one.dnom" horiz-adv-x="684" 
d="M635 102v-102h-547v102h207v486h-205v96q95 0 146.5 14t71 37.5t30.5 69.5h90v-703h207z" />
    <glyph glyph-name="two.dnom" horiz-adv-x="735" 
d="M651 578q0 -31 -7.5 -59t-17.5 -49t-32 -45t-36.5 -38t-47.5 -36t-49 -32.5t-55 -33.5q-86 -50 -133 -92.5t-48 -83.5h445v-109h-592v53q0 44 16 85.5t39.5 72.5t60.5 63.5t67.5 53.5t72.5 47q100 61 144 103.5t44 99.5q0 56 -37 93.5t-108 37.5t-114 -46t-46 -112h-131
q8 113 86 189.5t207 76.5q122 0 197 -69.5t75 -169.5z" />
    <glyph glyph-name="three.dnom" horiz-adv-x="763" 
d="M678 217q0 -98 -78.5 -164.5t-214.5 -66.5q-135 0 -217.5 67.5t-93.5 182.5h131q6 -65 54.5 -104.5t125.5 -39.5q76 0 120 36.5t44 96.5t-43 92.5t-115 32.5h-82v105h78q62 0 101.5 31t39.5 92q0 58 -38 95.5t-105 37.5q-71 0 -113 -42.5t-47 -107.5h-127q6 110 82 184
t205 74q130 0 201 -68.5t71 -168.5q0 -70 -40.5 -120t-102.5 -61q74 -12 119 -62t45 -122z" />
    <glyph glyph-name="four.dnom" horiz-adv-x="833" 
d="M600 801v-508h164v-100h-164v-193h-129v193h-399v102l379 506h149zM471 670l-276 -377h276v377z" />
    <glyph glyph-name="five.dnom" horiz-adv-x="770" 
d="M389 434q-95 0 -149 -78h-123l43 447h479v-111h-379l-24 -225q27 30 73.5 50t100.5 20q124 0 199 -77t75 -196q0 -120 -80 -199t-215 -79q-132 0 -214 69.5t-93 186.5h139q5 -66 51 -109t117 -43q79 0 120.5 49.5t41.5 124.5q0 73 -41.5 121.5t-120.5 48.5z" />
    <glyph glyph-name="six.dnom" horiz-adv-x="786" 
d="M418 711q-95 0 -148 -87.5t-53 -222.5q25 59 78.5 96.5t130.5 37.5q122 0 198 -76t76 -193q0 -123 -80.5 -201.5t-211.5 -78.5q-141 0 -229.5 108.5t-88.5 292.5q0 193 91.5 312.5t236.5 119.5q112 0 185.5 -62t88.5 -165h-125q-28 119 -149 119zM408 90q74 0 119.5 48.5
t45.5 123.5q0 76 -45.5 124t-119.5 48q-73 0 -119.5 -48.5t-46.5 -123.5q0 -74 46.5 -123t119.5 -49z" />
    <glyph glyph-name="seven.dnom" horiz-adv-x="724" 
d="M508 692h-440v109h579v-103q-136 -167 -192 -330t-58 -368h-143q3 374 254 692z" />
    <glyph glyph-name="eight.dnom" horiz-adv-x="800" 
d="M399 -14q-141 0 -226 63.5t-85 169.5q0 69 49 123.5t113 67.5q-59 24 -93 71t-34 111q0 104 78 165.5t198 61.5q121 0 200 -61.5t79 -165.5q0 -64 -34 -111t-91 -71q63 -13 111.5 -67.5t48.5 -123.5q0 -106 -85.5 -169.5t-228.5 -63.5zM399 717q-66 0 -109.5 -33
t-43.5 -94q0 -62 43.5 -96.5t109.5 -34.5q67 0 110.5 34.5t43.5 96.5q0 61 -43.5 94t-110.5 33zM399 360q-84 0 -131 -36.5t-47 -98.5q0 -64 47 -100.5t131 -36.5q87 0 135 36.5t48 100.5q0 62 -48 98.5t-135 36.5z" />
    <glyph glyph-name="nine.dnom" horiz-adv-x="786" 
d="M373 94q94 0 147 87t53 222q-25 -59 -80 -97t-133 -38q-119 0 -194.5 77.5t-75.5 195.5q0 121 80 199.5t211 78.5q141 0 230 -109.5t89 -291.5q0 -193 -92 -312.5t-239 -119.5q-112 0 -185 61.5t-88 165.5h127q27 -119 150 -119zM381 713q-74 0 -119 -47.5t-45 -122.5
q0 -77 45 -125.5t119 -48.5q75 0 121.5 48.5t46.5 125.5q0 74 -47 122t-121 48z" />
    <glyph glyph-name="percent.lt" 
d="M33 1167q0 132 92.5 226t224.5 94q133 0 227.5 -94t94.5 -226t-94.5 -225.5t-227.5 -93.5q-132 0 -224.5 93.5t-92.5 225.5zM1063 1462h147l-948 -1460h-147zM158 1167q0 -84 56.5 -141t135.5 -57q82 0 138.5 57t56.5 141q0 83 -56.5 141t-138.5 58q-79 0 -135.5 -58
t-56.5 -141zM680 293q0 132 93.5 226.5t225.5 94.5q133 0 226.5 -94.5t93.5 -226.5q0 -133 -93.5 -226.5t-226.5 -93.5q-132 0 -225.5 93.5t-93.5 226.5zM807 293q0 -83 56 -140t136 -57q82 0 138.5 57t56.5 140t-56.5 141t-138.5 58q-80 0 -136 -58t-56 -141z" />
    <glyph glyph-name="period.tab" horiz-adv-x="675" 
d="M227 0v223h224v-223h-224z" />
    <glyph glyph-name="comma.tab" horiz-adv-x="675" 
d="M229 2v221h224v-258q0 -130 -76 -208.5t-213 -78.5v105q82 0 123 42t41 140v37h-99z" />
    <glyph glyph-name="colon.tab" horiz-adv-x="675" 
d="M227 696v224h224v-224h-224zM227 0v223h224v-223h-224z" />
    <glyph glyph-name="semicolon.tab" horiz-adv-x="675" 
d="M229 696v224h224v-224h-224zM229 2v221h224v-258q0 -130 -76 -208.5t-213 -78.5v105q82 0 123 42t41 140v37h-99z" />
    <glyph glyph-name="space.tab" horiz-adv-x="675" 
 />
    <glyph glyph-name="thinspace" horiz-adv-x="131" 
 />
    <glyph glyph-name="zero.slash" horiz-adv-x="1386" 
d="M111 731q0 218 70.5 389.5t203.5 269t307 97.5q175 0 308 -97.5t203.5 -269t70.5 -389.5t-70.5 -389.5t-203.5 -269t-308 -97.5q-174 0 -307 97.5t-203.5 269t-70.5 389.5zM287 731q0 -332 143 -493l436 1058q-76 43 -172 43q-196 0 -301.5 -166t-105.5 -442zM1100 731
q0 328 -139 488l-437 -1055q74 -41 170 -41q130 0 222.5 78t138 213.5t45.5 316.5z" />
    <glyph glyph-name="zero.slashlt" 
d="M676 -25q-170 0 -300.5 97.5t-200 269t-69.5 389.5t69.5 389.5t200 269t300.5 97.5t300 -97.5t199.5 -269t69.5 -389.5t-69.5 -389.5t-199.5 -269t-300 -97.5zM279 731q0 -322 133 -487l442 1048q-74 47 -178 47q-130 0 -220.5 -78t-133.5 -213t-43 -317zM1073 731
q0 317 -129 481l-442 -1044q76 -45 174 -45q130 0 220.5 78t133.5 213t43 317z" />
    <glyph glyph-name="CR" horiz-adv-x="452" 
 />
    </font>
</defs>
</svg>
