<svg xmlns="http://www.w3.org/2000/svg">
<defs>
<font id="UntitledSerif-Bold" horiz-adv-x="1120" >
  <font-face 
    font-family="Untitled Serif"
    font-weight="700"
    font-stretch="normal"
    units-per-em="2048"
    panose-1="2 2 8 3 6 3 3 6 4 3"
    ascent="1638"
    descent="-410"
    x-height="960"
    cap-height="1320"
    bbox="-344 -514 2586 2008"
    underline-thickness="100"
    underline-position="-300"
    unicode-range="U+0020-FB02"
  />
<missing-glyph horiz-adv-x="2362" 
d="M1932 950q-72 -82 -168 -82q-60 0 -99 32t-39 88v286h-58v56h58v116l138 40v-156h134v-56h-134v-266q0 -31 16 -47.5t42 -16.5q34 0 78 44zM1040 1104q0 101 68.5 168.5t167.5 67.5t168.5 -67.5t69.5 -168.5t-69.5 -168.5t-168.5 -67.5t-167.5 67.5t-68.5 168.5zM694 920
v-42h-238v42q33 0 41.5 3.5t8.5 16.5v270q0 25 -22 36l-32 18v28l164 48h28v-88q69 88 158 88q64 0 99 -42t35 -108v-250q0 -13 8.5 -16.5t41.5 -3.5v-42h-236v42q33 0 41.5 3.5t8.5 16.5v222q0 90 -72 90q-48 0 -84 -36v-276q0 -14 8 -17t42 -3zM1368 1104q0 86 -23.5 133
t-68.5 47t-68.5 -47t-23.5 -133q0 -180 92 -180t92 180zM290 872q-37 0 -63.5 27t-26.5 63t26.5 63t63.5 27q36 0 62 -27t26 -63t-26 -63t-62 -27zM826 -10h-26v84q-19 -31 -57.5 -57.5t-88.5 -26.5q-76 0 -128 64t-52 156q0 109 65.5 180.5t160.5 71.5q57 0 100 -38v154
q0 25 -22 36l-32 18v28l166 48h24v-608q0 -14 4.5 -21t17.5 -13l34 -18v-28zM1554 0v42q33 0 40.5 3t7.5 17v334h-62v56h62v18q0 99 70.5 168.5t175.5 69.5q50 0 82 -18t32 -50q0 -28 -18 -42t-42 -14q-19 0 -34 10.5t-23.5 23.5t-19.5 23.5t-23 10.5q-25 0 -43.5 -26
t-18.5 -74v-100h104v-56h-104v-334q0 -13 12.5 -16.5t65.5 -3.5v-42h-264zM1468 110q-27 -56 -80 -88t-120 -32q-94 0 -161 61.5t-67 164.5q0 102 67.5 174t164.5 72q96 0 147 -60.5t51 -151.5v-24h-296q4 -75 40.5 -116.5t95.5 -41.5q37 0 63.5 17t54.5 55zM720 74
q52 0 80 42v240q-26 50 -82 50q-47 0 -77.5 -46t-30.5 -122q0 -71 31 -117.5t79 -46.5zM1268 404q-39 0 -62.5 -33.5t-29.5 -94.5h166q-4 128 -74 128z" />
    <glyph glyph-name="fi" unicode="fi" horiz-adv-x="1288" 
d="M586 88v-88h-512v88q67 0 84.5 7.5t17.5 36.5v710h-130v118h130v32q0 105 48 199.5t128 162t187.5 107t222.5 39.5q116 0 189 -42t73 -120q0 -66 -40 -98t-94 -32q-44 0 -79 27t-54 59t-47.5 59t-61.5 27q-65 0 -114.5 -67t-49.5 -215v-138h512l82 20h60v-848
q0 -29 17.5 -36.5t84.5 -7.5v-88h-512v88q67 0 84.5 7.5t17.5 36.5v710h-346v-710q0 -29 17.5 -36.5t84.5 -7.5z" />
    <glyph glyph-name="fl" unicode="fl" horiz-adv-x="1294" 
d="M586 88v-88h-512v88q67 0 84.5 7.5t17.5 36.5v710h-130v118h130v32q0 141 70.5 257.5t192.5 183.5t269 67q112 0 208 -48l162 48h60v-1368q0 -29 17.5 -36.5t84.5 -7.5v-88h-512v88q67 0 84.5 7.5t17.5 36.5v1168q-82 82 -168 82q-82 0 -130 -70.5t-48 -213.5v-138h220
v-118h-220v-710q0 -29 17.5 -36.5t84.5 -7.5z" />
    <glyph glyph-name="f_b" unicode="fb" horiz-adv-x="1900" 
d="M1836 518q0 -116 -40.5 -217.5t-109 -171t-159.5 -109.5t-191 -40q-163 0 -286 134l-124 -114h-96v1300q-82 82 -168 82q-82 0 -130 -70.5t-48 -213.5v-138h220v-118h-220v-710q0 -29 17.5 -36.5t84.5 -7.5v-88h-512v88q67 0 84.5 7.5t17.5 36.5v710h-130v118h130v32
q0 141 70.5 257.5t192.5 183.5t269 67q112 0 208 -48l162 48h60v-698q38 65 121.5 121.5t188.5 56.5q167 0 277.5 -132.5t110.5 -329.5zM1304 794q-103 0 -166 -80v-512q27 -47 68.5 -69.5t85.5 -22.5q103 0 169.5 94t66.5 254q0 152 -59 244t-165 92z" />
    <glyph glyph-name="f_f_b" unicode="ffb" horiz-adv-x="2554" 
d="M484 1164v-204h346v32q0 141 70.5 257.5t192.5 183.5t269 67q112 0 208 -48l162 48h60v-698q38 65 121.5 121.5t188.5 56.5q167 0 277.5 -132.5t110.5 -329.5q0 -116 -40.5 -217.5t-109 -171t-159.5 -109.5t-191 -40q-163 0 -286 134l-124 -114h-96v1300q-82 82 -168 82
q-82 0 -130 -70.5t-48 -213.5v-138h220v-118h-220v-710q0 -29 17.5 -36.5t84.5 -7.5v-88h-512v88q67 0 84.5 7.5t17.5 36.5v710h-346v-710q0 -29 17.5 -36.5t84.5 -7.5v-88h-512v88q67 0 84.5 7.5t17.5 36.5v710h-130v118h130v22q0 134 66 250t177 184t239 68
q95 0 154.5 -39t59.5 -107q0 -54 -33.5 -86t-78.5 -32q-34 0 -60.5 14t-42 33.5t-28 39t-27.5 33.5t-32 14q-86 0 -86 -190zM1958 794q-103 0 -166 -80v-512q27 -47 68.5 -69.5t85.5 -22.5q103 0 169.5 94t66.5 254q0 152 -59 244t-165 92z" />
    <glyph glyph-name="f_f" unicode="ff" horiz-adv-x="1364" 
d="M586 88v-88h-512v88q67 0 84.5 7.5t17.5 36.5v710h-130v118h130v22q0 134 66 250t177 184t239 68q95 0 154.5 -39t59.5 -107q0 -54 -33.5 -86t-78.5 -32q-34 0 -60.5 14t-42 33.5t-28 39t-27.5 33.5t-32 14q-86 0 -86 -190v-204h346v32q0 136 67.5 252t191 186t275.5 70
q107 0 176.5 -39t69.5 -111q0 -61 -38 -90.5t-90 -29.5q-35 0 -63.5 15.5t-46.5 38t-34 45t-34.5 38t-39.5 15.5q-50 0 -88 -54.5t-38 -155.5v-212h220v-118h-220v-710q0 -29 28 -36.5t134 -7.5v-88h-572v88q67 0 84.5 7.5t17.5 36.5v710h-346v-710q0 -29 17.5 -36.5
t84.5 -7.5z" />
    <glyph glyph-name="f_h" unicode="fh" horiz-adv-x="1914" 
d="M586 88v-88h-512v88q67 0 84.5 7.5t17.5 36.5v710h-130v118h130v32q0 141 70.5 257.5t192.5 183.5t269 67q112 0 208 -48l162 48h60v-704q60 75 146.5 129.5t191.5 54.5q136 0 212 -88t76 -226v-534q0 -29 17.5 -36.5t84.5 -7.5v-88h-512v88q67 0 84.5 7.5t17.5 36.5v466
q0 91 -37 141.5t-113 50.5q-91 0 -168 -74v-584q0 -29 17.5 -36.5t84.5 -7.5v-88h-512v88q67 0 84.5 7.5t17.5 36.5v1168q-82 82 -168 82q-82 0 -130 -70.5t-48 -213.5v-138h220v-118h-220v-710q0 -29 17.5 -36.5t84.5 -7.5z" />
    <glyph glyph-name="f_f_h" unicode="ffh" horiz-adv-x="2568" 
d="M830 132v710h-346v-710q0 -29 17.5 -36.5t84.5 -7.5v-88h-512v88q67 0 84.5 7.5t17.5 36.5v710h-130v118h130v22q0 134 66 250t177 184t239 68q95 0 154.5 -39t59.5 -107q0 -54 -33.5 -86t-78.5 -32q-34 0 -60.5 14t-42 33.5t-28 39t-27.5 33.5t-32 14q-86 0 -86 -190
v-204h346v32q0 141 70.5 257.5t192.5 183.5t269 67q112 0 208 -48l162 48h60v-704q60 75 146.5 129.5t191.5 54.5q136 0 212 -88t76 -226v-534q0 -29 17.5 -36.5t84.5 -7.5v-88h-512v88q67 0 84.5 7.5t17.5 36.5v466q0 91 -37 141.5t-113 50.5q-91 0 -168 -74v-584
q0 -29 17.5 -36.5t84.5 -7.5v-88h-512v88q67 0 84.5 7.5t17.5 36.5v1168q-82 82 -168 82q-82 0 -130 -70.5t-48 -213.5v-138h220v-118h-220v-710q0 -29 17.5 -36.5t84.5 -7.5v-88h-512v88q67 0 84.5 7.5t17.5 36.5z" />
    <glyph glyph-name="f_idieresis" unicode="f&#xef;" horiz-adv-x="1288" 
d="M646 88v-88h-572v88q67 0 84.5 7.5t17.5 36.5v710h-130v118h130v32q0 136 67.5 252t191 186t275.5 70q105 0 165.5 -38.5t60.5 -111.5q0 -61 -38 -90.5t-90 -29.5q-35 0 -61.5 15.5t-41.5 38t-28 45t-29.5 38t-37.5 15.5q-50 0 -88 -54.5t-38 -155.5v-212h512l82 20h60
v-848q0 -29 17.5 -36.5t84.5 -7.5v-88h-512v88q67 0 84.5 7.5t17.5 36.5v710h-346v-710q0 -29 28 -36.5t134 -7.5zM1000 1250q0 72 47 121t117 49t117 -49t47 -121t-46.5 -119t-117.5 -47t-117.5 47t-46.5 119z" />
    <glyph glyph-name="f_f_i" unicode="ffi" horiz-adv-x="1942" 
d="M830 132v710h-346v-710q0 -29 17.5 -36.5t84.5 -7.5v-88h-512v88q67 0 84.5 7.5t17.5 36.5v710h-130v118h130v22q0 134 66 250t177 184t239 68q95 0 154.5 -39t59.5 -107q0 -54 -33.5 -86t-78.5 -32q-34 0 -60.5 14t-42 33.5t-28 39t-27.5 33.5t-32 14q-86 0 -86 -190
v-204h346v32q0 105 48 199.5t128 162t187.5 107t222.5 39.5q116 0 189 -42t73 -120q0 -66 -40 -98t-94 -32q-44 0 -79 27t-54 59t-47.5 59t-61.5 27q-65 0 -114.5 -67t-49.5 -215v-138h512l82 20h60v-848q0 -29 17.5 -36.5t84.5 -7.5v-88h-512v88q67 0 84.5 7.5t17.5 36.5
v710h-346v-710q0 -29 17.5 -36.5t84.5 -7.5v-88h-512v88q67 0 84.5 7.5t17.5 36.5z" />
    <glyph glyph-name="f_f_idieresis" unicode="ff&#xef;" horiz-adv-x="1942" 
d="M830 132v710h-346v-710q0 -29 17.5 -36.5t84.5 -7.5v-88h-512v88q67 0 84.5 7.5t17.5 36.5v710h-130v118h130v22q0 134 66 250t177 184t239 68q95 0 154.5 -39t59.5 -107q0 -54 -33.5 -86t-78.5 -32q-34 0 -60.5 14t-42 33.5t-28 39t-27.5 33.5t-32 14q-86 0 -86 -190
v-204h346v32q0 136 67.5 252t191 186t275.5 70q105 0 165.5 -38.5t60.5 -111.5q0 -61 -38 -90.5t-90 -29.5q-35 0 -61.5 15.5t-41.5 38t-28 45t-29.5 38t-37.5 15.5q-50 0 -88 -54.5t-38 -155.5v-212h512l82 20h60v-848q0 -29 17.5 -36.5t84.5 -7.5v-88h-512v88
q67 0 84.5 7.5t17.5 36.5v710h-346v-710q0 -29 28 -36.5t134 -7.5v-88h-572v88q67 0 84.5 7.5t17.5 36.5zM1654 1250q0 72 47 121t117 49t117 -49t47 -121t-46.5 -119t-117.5 -47t-117.5 47t-46.5 119z" />
    <glyph glyph-name="f_j" unicode="fj" horiz-adv-x="1268" 
d="M1138 10q0 -121 -68 -226.5t-181 -166.5t-241 -61q-88 0 -149 39.5t-61 112.5q0 53 34.5 86.5t85.5 33.5q36 0 63 -15.5t42.5 -37.5t28.5 -44t28.5 -37.5t35.5 -15.5q74 0 74 126v1038h-346v-710q0 -29 17.5 -36.5t84.5 -7.5v-88h-512v88q67 0 84.5 7.5t17.5 36.5v710
h-130v118h130v32q0 105 48 199.5t128 162t187.5 107t222.5 39.5q116 0 189 -42t73 -120q0 -66 -40 -98t-94 -32q-44 0 -79 27t-54 59t-47.5 59t-61.5 27q-65 0 -114.5 -67t-49.5 -215v-138h512l82 20h60v-970z" />
    <glyph glyph-name="f_f_j" unicode="ffj" horiz-adv-x="1922" 
d="M484 1164v-204h346v32q0 105 48 199.5t128 162t187.5 107t222.5 39.5q116 0 189 -42t73 -120q0 -66 -40 -98t-94 -32q-44 0 -79 27t-54 59t-47.5 59t-61.5 27q-65 0 -114.5 -67t-49.5 -215v-138h512l82 20h60v-970q0 -121 -68 -226.5t-181 -166.5t-241 -61
q-88 0 -149 39.5t-61 112.5q0 53 34.5 86.5t85.5 33.5q36 0 63 -15.5t42.5 -37.5t28.5 -44t28.5 -37.5t35.5 -15.5q74 0 74 126v1038h-346v-710q0 -29 17.5 -36.5t84.5 -7.5v-88h-512v88q67 0 84.5 7.5t17.5 36.5v710h-346v-710q0 -29 17.5 -36.5t84.5 -7.5v-88h-512v88
q67 0 84.5 7.5t17.5 36.5v710h-130v118h130v22q0 134 66 250t177 184t239 68q95 0 154.5 -39t59.5 -107q0 -54 -33.5 -86t-78.5 -32q-34 0 -60.5 14t-42 33.5t-28 39t-27.5 33.5t-32 14q-86 0 -86 -190z" />
    <glyph glyph-name="f_k" unicode="fk" horiz-adv-x="1930" 
d="M586 88v-88h-512v88q67 0 84.5 7.5t17.5 36.5v710h-130v118h130v32q0 141 70.5 257.5t192.5 183.5t269 67q112 0 208 -48l162 48h60v-1012l378 304q14 10 27 26t13 26q0 18 -24 23t-94 5v88h436v-88q-110 -2 -184 -62l-236 -192l348 -478q22 -31 47 -41.5t83 -10.5v-88
h-560v88q48 0 71 6t23 24q0 16 -20 44l-198 288l-110 -88v-230q0 -29 17.5 -36.5t84.5 -7.5v-88h-512v88q67 0 84.5 7.5t17.5 36.5v1168q-82 82 -168 82q-82 0 -130 -70.5t-48 -213.5v-138h220v-118h-220v-710q0 -29 17.5 -36.5t84.5 -7.5z" />
    <glyph glyph-name="f_f_k" unicode="ffk" horiz-adv-x="2584" 
d="M830 132v710h-346v-710q0 -29 17.5 -36.5t84.5 -7.5v-88h-512v88q67 0 84.5 7.5t17.5 36.5v710h-130v118h130v22q0 134 66 250t177 184t239 68q95 0 154.5 -39t59.5 -107q0 -54 -33.5 -86t-78.5 -32q-34 0 -60.5 14t-42 33.5t-28 39t-27.5 33.5t-32 14q-86 0 -86 -190
v-204h346v32q0 141 70.5 257.5t192.5 183.5t269 67q112 0 208 -48l162 48h60v-1012l378 304q14 10 27 26t13 26q0 18 -24 23t-94 5v88h436v-88q-110 -2 -184 -62l-236 -192l348 -478q22 -31 47 -41.5t83 -10.5v-88h-560v88q48 0 71 6t23 24q0 16 -20 44l-198 288l-110 -88
v-230q0 -29 17.5 -36.5t84.5 -7.5v-88h-512v88q67 0 84.5 7.5t17.5 36.5v1168q-82 82 -168 82q-82 0 -130 -70.5t-48 -213.5v-138h220v-118h-220v-710q0 -29 17.5 -36.5t84.5 -7.5v-88h-512v88q67 0 84.5 7.5t17.5 36.5z" />
    <glyph glyph-name="f_f_l" unicode="ffl" horiz-adv-x="1938" 
d="M830 132v710h-346v-710q0 -29 17.5 -36.5t84.5 -7.5v-88h-512v88q67 0 84.5 7.5t17.5 36.5v710h-130v118h130v22q0 134 66 250t177 184t239 68q95 0 154.5 -39t59.5 -107q0 -54 -33.5 -86t-78.5 -32q-34 0 -60.5 14t-42 33.5t-28 39t-27.5 33.5t-32 14q-86 0 -86 -190
v-204h346v32q0 141 70.5 257.5t192.5 183.5t269 67q112 0 208 -48l162 48h60v-1368q0 -29 17.5 -36.5t84.5 -7.5v-88h-512v88q67 0 84.5 7.5t17.5 36.5v1168q-82 82 -168 82q-82 0 -130 -70.5t-48 -213.5v-138h220v-118h-220v-710q0 -29 17.5 -36.5t84.5 -7.5v-88h-512v88
q67 0 84.5 7.5t17.5 36.5z" />
    <glyph glyph-name=".notdef" horiz-adv-x="2362" 
d="M1932 950q-72 -82 -168 -82q-60 0 -99 32t-39 88v286h-58v56h58v116l138 40v-156h134v-56h-134v-266q0 -31 16 -47.5t42 -16.5q34 0 78 44zM1040 1104q0 101 68.5 168.5t167.5 67.5t168.5 -67.5t69.5 -168.5t-69.5 -168.5t-168.5 -67.5t-167.5 67.5t-68.5 168.5zM694 920
v-42h-238v42q33 0 41.5 3.5t8.5 16.5v270q0 25 -22 36l-32 18v28l164 48h28v-88q69 88 158 88q64 0 99 -42t35 -108v-250q0 -13 8.5 -16.5t41.5 -3.5v-42h-236v42q33 0 41.5 3.5t8.5 16.5v222q0 90 -72 90q-48 0 -84 -36v-276q0 -14 8 -17t42 -3zM1368 1104q0 86 -23.5 133
t-68.5 47t-68.5 -47t-23.5 -133q0 -180 92 -180t92 180zM290 872q-37 0 -63.5 27t-26.5 63t26.5 63t63.5 27q36 0 62 -27t26 -63t-26 -63t-62 -27zM826 -10h-26v84q-19 -31 -57.5 -57.5t-88.5 -26.5q-76 0 -128 64t-52 156q0 109 65.5 180.5t160.5 71.5q57 0 100 -38v154
q0 25 -22 36l-32 18v28l166 48h24v-608q0 -14 4.5 -21t17.5 -13l34 -18v-28zM1554 0v42q33 0 40.5 3t7.5 17v334h-62v56h62v18q0 99 70.5 168.5t175.5 69.5q50 0 82 -18t32 -50q0 -28 -18 -42t-42 -14q-19 0 -34 10.5t-23.5 23.5t-19.5 23.5t-23 10.5q-25 0 -43.5 -26
t-18.5 -74v-100h104v-56h-104v-334q0 -13 12.5 -16.5t65.5 -3.5v-42h-264zM1468 110q-27 -56 -80 -88t-120 -32q-94 0 -161 61.5t-67 164.5q0 102 67.5 174t164.5 72q96 0 147 -60.5t51 -151.5v-24h-296q4 -75 40.5 -116.5t95.5 -41.5q37 0 63.5 17t54.5 55zM720 74
q52 0 80 42v240q-26 50 -82 50q-47 0 -77.5 -46t-30.5 -122q0 -71 31 -117.5t79 -46.5zM1268 404q-39 0 -62.5 -33.5t-29.5 -94.5h166q-4 128 -74 128z" />
    <glyph glyph-name=".null" horiz-adv-x="0" 
 />
    <glyph glyph-name="nonmarkingreturn" horiz-adv-x="682" 
 />
    <glyph glyph-name="space" unicode=" " horiz-adv-x="432" 
 />
    <glyph glyph-name="exclam" unicode="!" horiz-adv-x="660" 
d="M364 474h-68q-26 149 -66.5 312t-67 260.5t-26.5 121.5q0 74 59.5 123t134.5 49t134.5 -49t59.5 -123q0 -24 -26.5 -121.5t-67 -260.5t-66.5 -312zM532 180q0 -83 -59 -141.5t-143 -58.5t-143 58.5t-59 141.5t59 141.5t143 58.5t143 -58.5t59 -141.5z" />
    <glyph glyph-name="quotedbl" unicode="&#x22;" horiz-adv-x="952" 
d="M314 780h-76l-82 346q-3 14 -11 47.5t-12.5 52.5t-8.5 44.5t-4 43.5q0 68 40 117t116 49t116 -49t40 -117q0 -18 -4 -43.5t-8.5 -44.5t-12.5 -52.5t-11 -47.5zM714 780h-76l-82 346q-3 14 -11 47.5t-12.5 52.5t-8.5 44.5t-4 43.5q0 68 40 117t116 49t116 -49t40 -117
q0 -18 -4 -43.5t-8.5 -44.5t-12.5 -52.5t-11 -47.5z" />
    <glyph glyph-name="numbersign" unicode="#" horiz-adv-x="1332" 
d="M568 0l146 396h-290l-146 -396h-146l146 396h-188v138h238l94 252h-212v140h262l146 394h146l-146 -394h290l146 394h146l-146 -394h188v-140h-238l-94 -252h212v-138h-262l-146 -396h-146zM474 534h290l94 252h-290z" />
    <glyph glyph-name="dollar" unicode="$" horiz-adv-x="1170" 
d="M1096 430q0 -90 -40 -168.5t-106 -132.5t-148 -87t-168 -40v-212h-102v212q-258 11 -430 128l-20 338h110q41 -157 123.5 -242t216.5 -100v416q-45 13 -68.5 19.5t-66 20.5t-66.5 25t-59 30t-55.5 37t-44.5 44.5t-36.5 55.5t-21 66.5t-8.5 79.5q0 148 121.5 260.5
t304.5 135.5v198h102v-194q112 -3 200 -30.5t174 -75.5v-302h-104q-61 255 -270 282v-384q10 -3 29 -8q46 -12 69.5 -19t66.5 -21t67.5 -25t60.5 -29.5t56.5 -36.5t45 -44t37 -54.5t21.5 -65t9 -77.5zM352 1020q0 -66 46.5 -107t133.5 -71v352q-84 -10 -132 -57.5
t-48 -116.5zM842 314q0 76 -53 119.5t-155 78.5v-388q90 11 149 61t59 129z" />
    <glyph glyph-name="percent" unicode="%" horiz-adv-x="1672" 
d="M392 1340q139 0 245.5 -102t106.5 -248t-106.5 -248t-245.5 -102t-245.5 102t-106.5 248t106.5 248t245.5 102zM462 0h-150l894 1320h150zM392 1260q-53 0 -82.5 -76t-29.5 -194t29.5 -194t82.5 -76t82.5 76t29.5 194t-29.5 194t-82.5 76zM1280 680q139 0 245.5 -102
t106.5 -248t-106.5 -248t-245.5 -102t-245.5 102t-106.5 248t106.5 248t245.5 102zM1280 600q-53 0 -82.5 -76t-29.5 -194t29.5 -194t82.5 -76t82.5 76t29.5 194t-29.5 194t-82.5 76z" />
    <glyph glyph-name="ampersand" unicode="&#x26;" horiz-adv-x="1554" 
d="M1032 0l-96 106q-191 -126 -394 -126q-208 0 -342 105.5t-134 276.5q0 123 84 214t230 148q-102 128 -102 244q0 161 121.5 266.5t314.5 105.5q164 0 268 -75.5t104 -204.5q0 -214 -336 -304l328 -356q48 90 48 174q0 82 -112 82v96h454v-96q-80 0 -121 -12.5t-60 -39
t-33 -84.5q-27 -107 -98 -206l112 -120q50 -53 104 -75.5t146 -22.5v-96h-486zM680 832l16 -16q148 72 148 248q0 82 -40.5 131t-105.5 49q-67 0 -108.5 -43.5t-41.5 -114.5q0 -65 35.5 -126t96.5 -128zM370 460q0 -138 92 -224t232 -86q77 0 164 42l-424 466
q-64 -72 -64 -198z" />
    <glyph glyph-name="quotesingle" unicode="'" horiz-adv-x="552" 
d="M314 780h-76l-82 346q-3 14 -11 47.5t-12.5 52.5t-8.5 44.5t-4 43.5q0 68 40 117t116 49t116 -49t40 -117q0 -18 -4 -43.5t-8.5 -44.5t-12.5 -52.5t-11 -47.5z" />
    <glyph glyph-name="parenleft" unicode="(" horiz-adv-x="810" 
d="M426 582q0 -264 91.5 -482t252.5 -372l-50 -64q-132 77 -237.5 169.5t-188.5 206t-128.5 252t-45.5 290.5t45.5 290.5t128.5 252t188.5 206t237.5 169.5l50 -64q-161 -154 -252.5 -372t-91.5 -482z" />
    <glyph glyph-name="parenright" unicode=")" horiz-adv-x="810" 
d="M40 -272q161 154 252.5 372t91.5 482t-91.5 482t-252.5 372l50 64q132 -77 237.5 -169.5t188.5 -206t128.5 -252t45.5 -290.5t-45.5 -290.5t-128.5 -252t-188.5 -206t-237.5 -169.5z" />
    <glyph glyph-name="asterisk" unicode="*" horiz-adv-x="932" 
d="M554 818q0 -42 -26.5 -66t-61.5 -24t-61.5 24t-26.5 66q0 15 3.5 33.5t11.5 46t9 32.5l34 132l-102 -102q-25 -25 -40.5 -39t-41.5 -29.5t-46 -15.5q-37 0 -61.5 27.5t-24.5 64.5q0 43 36 66.5t118 45.5l130 34l-130 34q-82 22 -118 45.5t-36 66.5q0 37 24.5 64.5
t61.5 27.5q20 0 46 -15.5t41.5 -29.5t40.5 -39l102 -102l-34 132q-1 5 -9 32.5t-11.5 46t-3.5 33.5q0 42 26.5 66t61.5 24t61.5 -24t26.5 -66q0 -15 -3.5 -33.5t-11.5 -46t-9 -32.5l-34 -132l102 102q25 25 40.5 39t41.5 29.5t46 15.5q37 0 61.5 -27.5t24.5 -64.5
q0 -43 -36 -66.5t-118 -45.5l-130 -34l130 -34q82 -22 118 -45.5t36 -66.5q0 -37 -24.5 -64.5t-61.5 -27.5q-20 0 -46 15.5t-41.5 29.5t-40.5 39l-102 102l34 -132q1 -5 9 -32.5t11.5 -46t3.5 -33.5z" />
    <glyph glyph-name="plus" unicode="+" 
d="M1060 544h-430v-430h-140v430h-430v140h430v430h140v-430h430v-140z" />
    <glyph glyph-name="comma" unicode="," horiz-adv-x="660" 
d="M330 -48q0 29 -21 48t-50.5 32t-59 29t-50.5 48.5t-21 80.5q0 83 55.5 136.5t134.5 53.5q96 0 155 -73t59 -203q0 -179 -104.5 -303.5t-297.5 -164.5l-26 106q226 65 226 210z" />
    <glyph glyph-name="hyphen" unicode="-" horiz-adv-x="808" 
d="M692 454h-576v184h576v-184z" />
    <glyph glyph-name="period" unicode="." horiz-adv-x="660" 
d="M532 180q0 -83 -59 -141.5t-143 -58.5t-143 58.5t-59 141.5t59 141.5t143 58.5t143 -58.5t59 -141.5z" />
    <glyph glyph-name="slash" unicode="/" horiz-adv-x="894" 
d="M814 1480l-554 -1796h-180l554 1796h180z" />
    <glyph glyph-name="zero" unicode="0" horiz-adv-x="1324" 
d="M1248 660q0 -145 -48 -273t-128 -216.5t-187 -139.5t-223 -51t-223 51t-187 139.5t-128 216.5t-48 273t48 273t128 216.5t187 139.5t223 51t223 -51t187 -139.5t128 -216.5t48 -273zM428 660q0 -268 57.5 -413t176.5 -145t176.5 145t57.5 413t-57.5 413t-176.5 145
t-176.5 -145t-57.5 -413z" />
    <glyph glyph-name="one" unicode="1" horiz-adv-x="982" 
d="M926 120v-120h-840v120h86q118 0 149 9t31 43v828h-256v122q358 0 472 218h112v-1168q0 -34 31 -43t149 -9h66z" />
    <glyph glyph-name="two" unicode="2" horiz-adv-x="1072" 
d="M116 918l-80 50q80 171 212 271.5t290 100.5q175 0 280.5 -104.5t105.5 -251.5q0 -51 -15 -103t-36 -94.5t-62 -93t-73 -84.5t-89 -84t-91.5 -77.5t-99.5 -79t-94 -74.5v-8h394q68 0 107.5 34.5t100.5 145.5l74 -26l-98 -440h-902v108q160 139 267.5 251t168 203.5
t85.5 164.5t25 147q0 94 -52.5 153t-149.5 59q-165 0 -268 -168z" />
    <glyph glyph-name="three" unicode="3" horiz-adv-x="1080" 
d="M894 1072q0 -55 -22 -102.5t-63.5 -85t-83 -64t-97.5 -54.5q376 -58 376 -340q0 -78 -36.5 -149.5t-97 -124.5t-136 -92.5t-157 -59.5t-157.5 -20q-102 0 -187.5 22.5t-141 72t-55.5 117.5q0 51 37 84.5t89 33.5q39 0 72 -22t56 -53t44 -62t46 -53t52 -22q93 0 162.5 74
t69.5 198q0 122 -82.5 185t-229.5 63l-26 72q126 85 178 147.5t52 140.5q0 60 -42.5 101t-111.5 41q-121 0 -220 -130l-88 64q187 286 472 286q141 0 234.5 -74.5t93.5 -193.5z" />
    <glyph glyph-name="four" unicode="4" horiz-adv-x="1270" 
d="M1132 0h-680v96q118 0 149 9t31 43v264h-596v94l706 814h210v-780h282v-128h-282v-264q0 -34 31 -43t149 -9v-96zM214 540h418v480h-8l-410 -472v-8z" />
    <glyph glyph-name="five" unicode="5" horiz-adv-x="1042" 
d="M432 98q118 0 191 64t73 168q0 73 -38 125.5t-107 82t-154.5 43t-192.5 13.5l-32 16l92 710h640v-286h-582l-18 -160q662 -29 662 -428q0 -128 -75 -236t-200.5 -169t-270.5 -61q-102 0 -187.5 22.5t-141 72t-55.5 117.5q0 51 37 84.5t89 33.5q39 0 72 -22t56 -53t44 -62
t46 -53t52 -22z" />
    <glyph glyph-name="six" unicode="6" horiz-adv-x="1208" 
d="M1142 434q0 -87 -39 -169.5t-106 -145.5t-165 -101t-210 -38q-147 0 -272 71t-199.5 198.5t-74.5 282.5q0 199 107 367.5t313 285t484 155.5l40 -108q-221 -55 -370 -180t-202 -326q122 96 270 96q178 0 301 -109.5t123 -278.5zM420 496q0 -189 64 -296.5t156 -107.5
q85 0 130.5 88t45.5 214q0 132 -58 210t-164 78q-84 0 -164 -40q-10 -77 -10 -146z" />
    <glyph glyph-name="seven" unicode="7" horiz-adv-x="1084" 
d="M394 1026q-49 0 -72 -1t-50 -10t-37.5 -20t-27 -41.5t-26.5 -64t-27 -97.5h-98l24 528h948v-108l-452 -1212h-310v36l552 990h-424z" />
    <glyph glyph-name="eight" unicode="8" horiz-adv-x="1196" 
d="M1120 374q0 -100 -65.5 -190t-187 -147t-269.5 -57q-232 0 -377 98t-145 248q0 197 282 300q-103 57 -161.5 134.5t-58.5 191.5q0 70 32 138.5t89 124.5t144 90.5t187 34.5q202 0 335 -95.5t133 -234.5q0 -87 -63 -155t-171 -103q65 -34 113 -67t92.5 -78.5t67.5 -104
t23 -128.5zM420 1054q0 -24 9 -47t21 -40.5t37 -37.5t43.5 -32.5t56 -31.5t58.5 -29t65 -30q10 -4 15 -6.5t13.5 -6.5t15.5 -7q70 83 70 230q0 95 -60 152.5t-156 57.5q-89 0 -138.5 -48.5t-49.5 -123.5zM334 346q0 -117 77.5 -184.5t184.5 -67.5q100 0 157 58t57 148
q0 37 -17 69t-41 54.5t-67 47t-77.5 40t-91 40.5t-90.5 41q-92 -92 -92 -246z" />
    <glyph glyph-name="nine" unicode="9" horiz-adv-x="1208" 
d="M1140 788q0 -199 -107 -367.5t-313 -285t-484 -155.5l-40 108q221 55 370 180t202 326q-122 -96 -270 -96q-178 0 -301 109.5t-123 278.5q0 87 39 169.5t106 145.5t165 101t210 38q147 0 272 -71t199.5 -198.5t74.5 -282.5zM400 926q0 -132 58 -210t164 -78q84 0 164 40
q10 77 10 146q0 189 -64 296.5t-156 107.5q-85 0 -130.5 -88t-45.5 -214z" />
    <glyph glyph-name="colon" unicode=":" horiz-adv-x="660" 
d="M532 750q0 -83 -59 -141.5t-143 -58.5t-143 58.5t-59 141.5t59 141.5t143 58.5t143 -58.5t59 -141.5zM532 180q0 -83 -59 -141.5t-143 -58.5t-143 58.5t-59 141.5t59 141.5t143 58.5t143 -58.5t59 -141.5z" />
    <glyph glyph-name="semicolon" unicode=";" horiz-adv-x="660" 
d="M532 750q0 -83 -59 -141.5t-143 -58.5t-143 58.5t-59 141.5t59 141.5t143 58.5t143 -58.5t59 -141.5zM330 -48q0 29 -21 48t-50.5 32t-59 29t-50.5 48.5t-21 80.5q0 83 55.5 136.5t134.5 53.5q96 0 155 -73t59 -203q0 -179 -104.5 -303.5t-297.5 -164.5l-26 106
q226 65 226 210z" />
    <glyph glyph-name="less" unicode="&#x3c;" 
d="M112 564v106l896 444v-166l-688 -334l688 -330v-168z" />
    <glyph glyph-name="equal" unicode="=" 
d="M60 732v140h1000v-140h-1000zM60 372v140h1000v-140h-1000z" />
    <glyph glyph-name="greater" unicode="&#x3e;" 
d="M1008 670v-106l-896 -448v168l688 330l-688 334v166z" />
    <glyph glyph-name="question" unicode="?" horiz-adv-x="1012" 
d="M760 1000q0 57 -55.5 83.5t-140.5 26.5q-83 0 -175 -33t-151 -33q-55 0 -88.5 34t-33.5 84q0 77 68 127.5t180 50.5q130 0 253.5 -61.5t201 -163t77.5 -209.5q0 -256 -454 -304v-128h-106l-84 328q0 35 22.5 51t65.5 19q64 4 105.5 7.5t96.5 10t89 15.5t66 22t47.5 31.5
t15.5 41.5zM616 180q0 -83 -59 -141.5t-143 -58.5t-143 58.5t-59 141.5t59 141.5t143 58.5t143 -58.5t59 -141.5z" />
    <glyph glyph-name="at" unicode="@" horiz-adv-x="2100" 
d="M1352 154q43 0 99.5 26t116 77.5t110 119t82.5 160.5t32 191q0 217 -144 342.5t-424 125.5q-181 0 -349.5 -81.5t-287 -210t-190 -291.5t-71.5 -323q0 -268 178.5 -415t479.5 -147q305 0 574 156l42 -84q-114 -85 -298 -138.5t-378 -53.5q-381 0 -600.5 175t-219.5 489
q0 146 56 295.5t162 282t246.5 236t324 164t379.5 60.5q169 0 306 -43.5t228 -120.5t140.5 -183.5t49.5 -232.5q0 -121 -49.5 -233t-132.5 -195.5t-188 -146t-221 -95t-227 -32.5q-70 0 -103 27.5t-33 74.5q0 63 90 236h-8q-253 -338 -442 -338q-72 0 -116 49.5t-44 136.5
q0 116 56.5 243t144.5 227.5t201.5 166t219.5 65.5q63 0 108.5 -31t61.5 -77l64 90h238l-268 -650q-22 -57 -22 -70q0 -24 26 -24zM880 226q49 0 142.5 102t166.5 226.5t73 183.5q0 82 -74 82q-68 0 -155.5 -89t-148 -212.5t-60.5 -216.5q0 -76 56 -76z" />
    <glyph glyph-name="A" unicode="A" horiz-adv-x="1480" 
d="M500 96v-96h-496v96q92 0 120 10t44 50l478 1164h188l478 -1164q16 -40 44 -50t120 -10v-96h-702v96q111 0 152.5 8t41.5 30q0 10 -10 38l-100 262h-438l-104 -262q-10 -27 -10 -38q0 -22 41.5 -30t152.5 -8zM638 990l-176 -446h354l-170 446h-8z" />
    <glyph glyph-name="B" unicode="B" horiz-adv-x="1332" 
d="M36 0v96q75 0 109 5.5t44.5 16.5t10.5 36v1012q0 25 -10.5 36t-44.5 16.5t-109 5.5v96h664q108 0 197 -19t158.5 -58t108 -103.5t38.5 -149.5q0 -118 -99 -201.5t-225 -98.5v-6q72 -4 139.5 -26t124 -59.5t90.5 -96t34 -128.5q0 -170 -148 -272t-418 -102h-664zM528 724
h56q142 0 220 59.5t78 184.5t-78 184.5t-220 59.5h-56v-488zM528 108h84q161 0 242.5 61t81.5 193q0 131 -81.5 192.5t-242.5 61.5h-84v-508z" />
    <glyph glyph-name="C" unicode="C" horiz-adv-x="1320" 
d="M1152 848q-83 175 -177.5 270.5t-212.5 95.5q-163 0 -260.5 -148.5t-97.5 -405.5q0 -238 100.5 -374t265.5 -136q242 0 380 232l104 -74q-80 -147 -221.5 -237.5t-314.5 -90.5q-178 0 -328.5 81t-242 232.5t-91.5 342.5q0 155 59 289t155.5 223.5t220 140.5t253.5 51
q102 0 174 -27.5t144 -86.5l68 94h88l22 -472h-88z" />
    <glyph glyph-name="D" unicode="D" horiz-adv-x="1474" 
d="M36 1320h544q391 0 614.5 -168t223.5 -468q0 -151 -58 -277.5t-164.5 -216.5t-263.5 -140t-348 -50h-548v96q75 0 109 5.5t44.5 16.5t10.5 36v1012q0 25 -10.5 36t-44.5 16.5t-109 5.5v96zM528 108h98q200 0 323 149t123 411q0 264 -123.5 404t-328.5 140h-92v-1104z" />
    <glyph glyph-name="E" unicode="E" horiz-adv-x="1330" 
d="M1164 1320l18 -474h-96q-51 183 -75 235q-41 90 -111 116q-40 15 -96 15h-276v-484h86q49 0 75 1t51 10t35 18.5t20.5 37t14.5 55t10 82.5h92v-516h-84q-7 54 -11.5 83t-16 55.5t-22 37t-36.5 18.5t-52 9t-76 1h-86v-512h266q56 0 94 5.5t73 22.5t59.5 42t50 71.5t47 104
t48.5 144.5h100l-42 -498h-1188v96q75 0 109 5.5t44.5 16.5t10.5 36v1012q0 25 -10.5 36t-44.5 16.5t-109 5.5v96h1128z" />
    <glyph glyph-name="F" unicode="F" horiz-adv-x="1270" 
d="M732 0h-696v96q75 0 109 5.5t44.5 16.5t10.5 36v1012q0 25 -10.5 36t-44.5 16.5t-109 5.5v96h1148l18 -474h-96q-51 183 -75 235q-41 90 -111 116q-40 15 -96 15h-296v-484h86q49 0 75 1t51 10t35 18.5t20.5 37t14.5 55t10 82.5h92v-516h-84q-7 54 -11.5 83t-16 55.5
t-22 37t-36.5 18.5t-52 9t-76 1h-86v-466q0 -24 9 -35t41 -17t100 -6h54v-96z" />
    <glyph glyph-name="G" unicode="G" horiz-adv-x="1484" 
d="M982 442q0 25 -10.5 36t-44.5 16.5t-109 5.5v96h646v-96q-75 0 -109 -5.5t-44.5 -16.5t-10.5 -36v-278q-96 -82 -254.5 -133t-299.5 -51q-143 0 -269.5 48t-219.5 132.5t-147 208t-54 267.5q0 154 62 288.5t162.5 224t227 140.5t256.5 51q199 0 338 -114l68 94h88
l22 -472h-88q-82 174 -182 270t-228 96q-166 0 -272 -150t-106 -404q0 -244 104.5 -400t273.5 -156q134 0 200 50v288z" />
    <glyph glyph-name="H" unicode="H" horiz-adv-x="1600" 
d="M692 96v-96h-656v96q75 0 109 5.5t44.5 16.5t10.5 36v1012q0 25 -10.5 36t-44.5 16.5t-109 5.5v96h656v-96q-75 0 -109 -5.5t-44.5 -16.5t-10.5 -36v-436h544v436q0 25 -10.5 36t-44.5 16.5t-109 5.5v96h656v-96q-75 0 -109 -5.5t-44.5 -16.5t-10.5 -36v-1012
q0 -25 10.5 -36t44.5 -16.5t109 -5.5v-96h-656v96q75 0 109 5.5t44.5 16.5t10.5 36v460h-544v-460q0 -25 10.5 -36t44.5 -16.5t109 -5.5z" />
    <glyph glyph-name="I" unicode="I" horiz-adv-x="728" 
d="M692 96v-96h-656v96q75 0 109 5.5t44.5 16.5t10.5 36v1012q0 25 -10.5 36t-44.5 16.5t-109 5.5v96h656v-96q-75 0 -109 -5.5t-44.5 -16.5t-10.5 -36v-1012q0 -25 10.5 -36t44.5 -16.5t109 -5.5z" />
    <glyph glyph-name="J" unicode="J" horiz-adv-x="688" 
d="M508 1166v-1086q0 -110 -46 -210t-118 -167.5t-161 -107t-175 -39.5q-101 0 -171.5 45t-70.5 123q0 61 37.5 97.5t90.5 36.5q37 0 67 -17.5t49.5 -42.5t36.5 -50t35 -42.5t38 -17.5q27 0 43.5 22t16.5 66v1390q0 25 -10.5 36t-44.5 16.5t-109 5.5v96h656v-96
q-75 0 -109 -5.5t-44.5 -16.5t-10.5 -36z" />
    <glyph glyph-name="K" unicode="K" horiz-adv-x="1484" 
d="M692 96v-96h-656v96q75 0 109 5.5t44.5 16.5t10.5 36v1012q0 25 -10.5 36t-44.5 16.5t-109 5.5v96h656v-96q-75 0 -109 -5.5t-44.5 -16.5t-10.5 -36v-530l510 502q28 28 28 50q0 23 -32.5 31.5t-133.5 8.5v92h528v-92q-97 0 -132.5 -12t-75.5 -52l-358 -346l498 -660
q23 -30 58.5 -46t109.5 -16v-96h-700v92q86 0 113 6.5t27 31.5q0 16 -24 52l-304 424l-112 -108v-344q0 -25 10.5 -36t44.5 -16.5t109 -5.5z" />
    <glyph glyph-name="L" unicode="L" horiz-adv-x="1260" 
d="M1206 498l-42 -498h-1128v96q75 0 109 5.5t44.5 16.5t10.5 36v1012q0 25 -10.5 36t-44.5 16.5t-109 5.5v96h656v-96q-75 0 -109 -5.5t-44.5 -16.5t-10.5 -36v-1058h206q56 0 94 5.5t73 22.5t59.5 42t50 71.5t47 104t48.5 144.5h100z" />
    <glyph glyph-name="M" unicode="M" horiz-adv-x="1814" 
d="M1778 1320v-96q-75 0 -109 -5.5t-44.5 -16.5t-10.5 -36v-1012q0 -25 10.5 -36t44.5 -16.5t109 -5.5v-96h-656v96q75 0 109 5.5t44.5 16.5t10.5 36v1042h-8l-412 -1208h-122l-398 1208h-8v-1042q0 -25 11 -36t49.5 -16.5t123.5 -5.5v-96h-504v96q85 0 123.5 5.5t49.5 16.5
t11 36v1012q0 25 -11 36t-49.5 16.5t-123.5 5.5v96h644l248 -838h8l274 838h586z" />
    <glyph glyph-name="N" unicode="N" horiz-adv-x="1466" 
d="M1148 1166q0 25 -11 36t-49.5 16.5t-123.5 5.5v96h504v-96q-85 0 -123.5 -5.5t-49.5 -16.5t-11 -36v-1166h-148l-792 1076h-8v-922q0 -25 11 -36t49.5 -16.5t123.5 -5.5v-96h-504v96q85 0 123.5 5.5t49.5 16.5t11 36v1012q0 25 -11 36t-49.5 16.5t-123.5 5.5v96h558
l566 -802h8v648z" />
    <glyph glyph-name="O" unicode="O" horiz-adv-x="1476" 
d="M1420 660q0 -145 -56 -273t-149 -216.5t-217.5 -139.5t-259.5 -51t-259.5 51t-217.5 139.5t-149 216.5t-56 273t56 273t149 216.5t217.5 139.5t259.5 51t259.5 -51t217.5 -139.5t149 -216.5t56 -273zM1072 660q0 160 -36 282.5t-112.5 196t-185.5 73.5t-185.5 -73.5
t-112.5 -196t-36 -282.5t36 -282.5t112.5 -196t185.5 -73.5t185.5 73.5t112.5 196t36 282.5z" />
    <glyph glyph-name="P" unicode="P" horiz-adv-x="1342" 
d="M200 154v1012q0 25 -10.5 36t-44.5 16.5t-109 5.5v96h714q110 0 205 -23.5t170 -69.5t118 -121t43 -172t-43 -172t-118 -121t-170 -69.5t-205 -23.5h-222v-394q0 -24 9 -35t41 -17t100 -6h54v-96h-696v96q75 0 109 5.5t44.5 16.5t10.5 36zM528 656h150q123 0 199.5 73
t76.5 205t-76.5 205t-199.5 73h-150v-556z" />
    <glyph glyph-name="Q" unicode="Q" horiz-adv-x="1476" 
d="M1254 -322q-189 -49 -331.5 -14.5t-230 122.5t-116.5 214q-224 54 -372 234.5t-148 425.5q0 145 56 273t149 216.5t217.5 139.5t259.5 51t259.5 -51t217.5 -139.5t149 -216.5t56 -273q0 -160 -66.5 -297t-178.5 -228.5t-253 -130.5q7 -49 17.5 -85t33 -70.5t56 -54
t87.5 -28.5t126 -2zM1072 660q0 160 -36 282.5t-112.5 196t-185.5 73.5t-185.5 -73.5t-112.5 -196t-36 -282.5t36 -282.5t112.5 -196t185.5 -73.5t185.5 73.5t112.5 196t36 282.5z" />
    <glyph glyph-name="R" unicode="R" horiz-adv-x="1430" 
d="M692 96v-96h-656v96q75 0 109 5.5t44.5 16.5t10.5 36v1012q0 25 -10.5 36t-44.5 16.5t-109 5.5v96h722q122 0 219.5 -20.5t171 -62.5t113.5 -110.5t40 -160.5q0 -128 -91.5 -214t-244.5 -126l296 -426q40 -58 74.5 -80t85.5 -24l60 -2v-94h-470l-320 544q-18 30 -38 41
t-56 11h-70v-442q0 -25 10.5 -36t44.5 -16.5t109 -5.5zM528 704h142q58 0 109 14t94 43t68 79.5t25 117.5t-25 117.5t-68 79.5t-94 43t-109 14h-142v-508z" />
    <glyph glyph-name="S" unicode="S" horiz-adv-x="1240" 
d="M1058 1320l22 -472h-88q-74 179 -169 273.5t-237 94.5q-93 0 -146.5 -49.5t-53.5 -128.5q0 -44 26 -78.5t70 -58t101.5 -43.5t120.5 -39t126 -41t120.5 -53.5t101.5 -71.5t70 -100t26 -135q0 -130 -74.5 -232.5t-188.5 -154t-241 -51.5q-117 0 -202 31.5t-166 90.5
l-62 -102h-86l-46 498h100q32 -104 85 -182t116 -122.5t128 -66t131 -21.5q102 0 166 49.5t64 140.5q0 46 -25.5 81.5t-69 59.5t-100 44t-119 39t-125 40.5t-119 53.5t-100 72.5t-69 102.5t-25.5 139q0 172 128.5 292t329.5 120q95 0 169.5 -29t152.5 -85l70 94h88z" />
    <glyph glyph-name="T" unicode="T" horiz-adv-x="1440" 
d="M1088 0h-736v96h54q68 0 100 6t41 17t9 35v1058h-124q-54 0 -92 -14t-63 -36t-46 -67.5t-35 -89.5t-36 -122q-2 -8 -3 -12.5t-3 -11.5t-4 -13h-96l18 474h1296l18 -474h-96q-51 181 -71 228q-40 92 -106 120q-42 18 -105 18h-124v-1058q0 -24 9 -35t41 -17t100 -6h54v-96
z" />
    <glyph glyph-name="U" unicode="U" horiz-adv-x="1438" 
d="M1122 1166q0 25 -11 36t-49.5 16.5t-123.5 5.5v96h504v-96q-85 0 -123.5 -5.5t-49.5 -16.5t-11 -36v-690q0 -153 -73 -267.5t-190 -171.5t-257 -57q-258 0 -408 130t-150 362v694q0 25 -10.5 36t-44.5 16.5t-109 5.5v96h656v-96q-75 0 -109 -5.5t-44.5 -16.5t-10.5 -36
v-666q0 -194 74.5 -282t225.5 -88q141 0 227.5 97.5t86.5 272.5v666z" />
    <glyph glyph-name="V" unicode="V" horiz-adv-x="1480" 
d="M834 350h8l322 798q10 25 10 38q0 22 -41.5 30t-152.5 8v96h496v-96q-92 0 -120 -10t-44 -50l-488 -1164h-168l-488 1164q-16 40 -44 50t-120 10v96h702v-96q-111 0 -152.5 -8t-41.5 -30q0 -10 10 -38z" />
    <glyph glyph-name="W" unicode="W" horiz-adv-x="2000" 
d="M998 864l-284 -864h-168l-378 1164q-13 40 -42 50t-122 10v96h686v-96q-115 0 -152.5 -8t-37.5 -36q0 -11 6 -32l220 -720h8l286 892h166l266 -892h8l224 720q6 21 6 32q0 28 -37.5 36t-152.5 8v96h496v-96q-93 0 -122 -10t-42 -50l-378 -1164h-168l-280 864h-8z" />
    <glyph glyph-name="X" unicode="X" horiz-adv-x="1526" 
d="M536 96v-96h-532v96q90 0 138.5 12.5t75.5 47.5l382 482l-380 526q-18 25 -28.5 34t-46 17.5t-99.5 8.5v96h728v-96q-95 0 -133.5 -11t-38.5 -33q0 -11 18 -40l210 -290l216 290q24 31 24 46q0 38 -158 38v96h532v-96q-90 0 -138.5 -12.5t-75.5 -47.5l-328 -418l426 -590
q24 -33 61 -46.5t133 -13.5v-96h-748v96q95 0 133.5 11t38.5 33q0 11 -18 40l-256 356l-270 -356q-24 -31 -24 -46q0 -38 158 -38z" />
    <glyph glyph-name="Y" unicode="Y" horiz-adv-x="1480" 
d="M1104 96v-96h-736v96h54q68 0 100 6t41 17t9 35v428l-400 582q-27 39 -54 49.5t-114 10.5v96h718v-96q-110 0 -149 -8t-39 -30q0 -16 14 -38l278 -430h8l310 430q14 22 14 38q0 22 -39 30t-149 8v96h506v-96q-61 0 -92 -6.5t-44.5 -17t-33.5 -36.5l-406 -550v-460
q0 -24 9 -35t41 -17t100 -6h54z" />
    <glyph glyph-name="Z" unicode="Z" horiz-adv-x="1312" 
d="M770 108q56 0 94 5.5t73 22.5t59.5 42t50 71.5t47 104t48.5 144.5h100l-42 -498h-1144v74l796 1138h-370q-66 0 -108 -16.5t-74 -71.5t-46.5 -97.5t-46.5 -156.5q-5 -16 -7 -24h-96l18 474h1118v-72l-792 -1140h322z" />
    <glyph glyph-name="bracketleft" unicode="[" horiz-adv-x="818" 
d="M758 -218v-98h-598v1796h598v-94l-202 -10q-73 -3 -96.5 -17.5t-23.5 -62.5v-1424q0 -48 23.5 -62.5t96.5 -17.5z" />
    <glyph glyph-name="backslash" unicode="\" horiz-adv-x="894" 
d="M634 -316l-554 1796h180l554 -1796h-180z" />
    <glyph glyph-name="bracketright" unicode="]" horiz-adv-x="818" 
d="M60 -316v98l202 10q73 3 96.5 17.5t23.5 62.5v1424q0 48 -23.5 62.5t-96.5 17.5l-202 10v94h598v-1796h-598z" />
    <glyph glyph-name="asciicircum" unicode="^" horiz-adv-x="964" 
d="M410 1320h144l310 -580h-174l-208 390l-208 -390h-174z" />
    <glyph glyph-name="underscore" unicode="_" horiz-adv-x="932" 
d="M816 -308h-700v176h700v-176z" />
    <glyph glyph-name="grave" unicode="`" horiz-adv-x="1000" 
d="M560 1398l160 -274l-58 -56l-292 170q-90 53 -90 132q0 51 40 90.5t94 39.5q85 0 146 -102z" />
    <glyph glyph-name="a" unicode="a" horiz-adv-x="1082" 
d="M848 -20q-74 0 -125.5 35t-88.5 105q-154 -140 -320 -140q-107 0 -175.5 62.5t-68.5 155.5q0 57 24.5 105.5t66.5 86.5t114.5 75.5t152 67.5t194.5 67v96q0 82 -33.5 122t-104.5 40q-51 0 -88.5 -22t-37.5 -62q0 -7 6 -31.5t6 -38.5q0 -53 -37 -89.5t-99 -36.5
q-56 0 -95 35.5t-39 98.5q0 74 68 136t178.5 97t233.5 35q163 0 254.5 -75t91.5 -209v-512q0 -54 38 -54q45 0 90 50l58 -64q-116 -136 -264 -136zM622 500q-54 -18 -92 -34.5t-77 -42.5t-59 -62.5t-20 -82.5q0 -64 36 -98t90 -34q60 0 122 48v306z" />
    <glyph glyph-name="b" unicode="b" horiz-adv-x="1192" 
d="M1128 518q0 -116 -40.5 -217.5t-109 -171t-159.5 -109.5t-191 -40q-163 0 -286 134l-124 -114h-96v1220q0 31 -10 47.5t-36 30.5l-66 36v60l360 106h60v-698q38 65 121.5 121.5t188.5 56.5q167 0 277.5 -132.5t110.5 -329.5zM596 794q-52 0 -96.5 -22.5t-69.5 -57.5v-512
q27 -47 68.5 -69.5t85.5 -22.5q103 0 169.5 94t66.5 254q0 152 -59 244t-165 92z" />
    <glyph glyph-name="c" unicode="c" horiz-adv-x="976" 
d="M572 864q-85 0 -144.5 -94t-59.5 -246q0 -163 73 -265.5t195 -102.5q139 0 236 136l76 -62q-62 -119 -165 -184.5t-245 -65.5q-122 0 -229.5 58t-176 169t-68.5 251q0 142 73.5 262.5t198 190t270.5 69.5q143 0 232.5 -64t89.5 -150q0 -53 -33.5 -82.5t-88.5 -29.5
q-43 0 -71.5 21.5t-43 52.5t-28 62t-36 52.5t-55.5 21.5z" />
    <glyph glyph-name="d" unicode="d" horiz-adv-x="1226" 
d="M1182 46l-360 -66h-60v178q-38 -65 -121.5 -121.5t-188.5 -56.5q-165 0 -276.5 134.5t-111.5 331.5q0 114 39.5 214.5t106 170t155 109.5t185.5 40q124 0 212 -88v328q0 31 -10 47.5t-36 30.5l-66 36v60l360 106h60v-1280q0 -31 10 -47.5t36 -30.5l66 -36v-60zM372 506
q0 -149 65 -244.5t165 -95.5q102 0 160 80v510q-56 100 -170 100q-95 0 -157.5 -95t-62.5 -255z" />
    <glyph glyph-name="e" unicode="e" horiz-adv-x="1060" 
d="M992 238q-61 -122 -173 -190t-259 -68q-98 0 -187.5 33.5t-158 93.5t-109.5 152t-41 201q0 140 65.5 259.5t182 190t256.5 70.5q105 0 188 -36t134.5 -99.5t78.5 -145.5t27 -177v-48h-626q9 -151 84 -236.5t200 -85.5q81 0 138 35t114 115zM560 856q-82 0 -130.5 -72
t-59.5 -200h338q0 272 -148 272z" />
    <glyph glyph-name="f" unicode="f" horiz-adv-x="710" 
d="M646 88v-88h-572v88q67 0 84.5 7.5t17.5 36.5v710h-130v118h130v32q0 136 67.5 252t191 186t275.5 70q107 0 176.5 -39t69.5 -111q0 -61 -38 -90.5t-90 -29.5q-35 0 -63.5 15.5t-46.5 38t-34 45t-34.5 38t-39.5 15.5q-50 0 -88 -54.5t-38 -155.5v-212h220v-118h-220v-710
q0 -29 28 -36.5t134 -7.5z" />
    <glyph glyph-name="g" unicode="g" horiz-adv-x="1146" 
d="M1104 -48q0 -117 -80.5 -208t-216.5 -139.5t-303 -48.5q-145 0 -260 30t-181.5 89t-66.5 137q0 73 68 114t184 54q-74 33 -112 80t-38 116q0 74 52.5 130.5t129.5 93.5q-94 41 -144 112t-50 156q0 128 123.5 220t316.5 92q172 0 294 -80q139 158 246 158q66 0 103 -36
t37 -98q0 -54 -34 -87t-84 -33q-31 0 -53.5 13t-32.5 28t-23.5 28t-28.5 13q-32 0 -70 -32q86 -86 86 -186q0 -128 -124 -220t-316 -92q-99 0 -168 20q-86 -44 -86 -102q0 -27 23 -41.5t61 -14.5h390q171 0 264.5 -65.5t93.5 -200.5zM386 668q0 -105 37.5 -155.5
t102.5 -50.5t102.5 50.5t37.5 155.5t-37.5 155.5t-102.5 50.5t-102.5 -50.5t-37.5 -155.5zM682 -52h-370q-88 -33 -88 -116q0 -73 83.5 -112.5t218.5 -39.5q147 0 241.5 42.5t94.5 121.5q0 104 -180 104z" />
    <glyph glyph-name="h" unicode="h" horiz-adv-x="1238" 
d="M564 88v-88h-512v88q67 0 84.5 7.5t17.5 36.5v1088q0 31 -10 47.5t-36 30.5l-66 36v60l360 106h60v-704q60 75 146.5 129.5t191.5 54.5q136 0 212 -88t76 -226v-534q0 -29 17.5 -36.5t84.5 -7.5v-88h-512v88q67 0 84.5 7.5t17.5 36.5v466q0 91 -37 141.5t-113 50.5
q-94 0 -168 -74v-584q0 -29 17.5 -36.5t84.5 -7.5z" />
    <glyph glyph-name="i" unicode="i" horiz-adv-x="634" 
d="M150 1290q0 78 51.5 130t128.5 52t128.5 -52t51.5 -130t-51.5 -130t-128.5 -52t-128.5 52t-51.5 130zM176 700q0 31 -10 47.5t-36 30.5l-66 36v60l360 106h60v-848q0 -29 17.5 -36.5t84.5 -7.5v-88h-512v88q67 0 84.5 7.5t17.5 36.5v568z" />
    <glyph glyph-name="j" unicode="j" horiz-adv-x="606" 
d="M142 1290q0 78 51.5 130t128.5 52t128.5 -52t51.5 -130t-51.5 -130t-128.5 -52t-128.5 52t-51.5 130zM168 700q0 31 -10 47.5t-36 30.5l-66 36v60l360 106h60v-970q0 -121 -68 -226.5t-181 -166.5t-241 -61q-88 0 -149 39.5t-61 112.5q0 53 34.5 86.5t85.5 33.5
q36 0 63 -15.5t42.5 -37.5t28.5 -44t28.5 -37.5t35.5 -15.5q74 0 74 126v896z" />
    <glyph glyph-name="k" unicode="k" horiz-adv-x="1254" 
d="M564 88v-88h-512v88q67 0 84.5 7.5t17.5 36.5v1088q0 31 -10 47.5t-36 30.5l-66 36v60l360 106h60v-1012l378 304q14 10 27 26t13 26q0 18 -24 23t-94 5v88h436v-88q-110 -2 -184 -62l-236 -192l348 -478q22 -31 47 -41.5t83 -10.5v-88h-560v88q48 0 71 6t23 24
q0 16 -20 44l-198 288l-110 -88v-230q0 -29 17.5 -36.5t84.5 -7.5z" />
    <glyph glyph-name="l" unicode="l" horiz-adv-x="608" 
d="M154 1220q0 31 -10 47.5t-36 30.5l-66 36v60l360 106h60v-1368q0 -29 17.5 -36.5t84.5 -7.5v-88h-512v88q67 0 84.5 7.5t17.5 36.5v1088z" />
    <glyph glyph-name="m" unicode="m" horiz-adv-x="1870" 
d="M586 88v-88h-512v88q67 0 84.5 7.5t17.5 36.5v568q0 31 -10 47.5t-36 30.5l-66 36v60l360 106h60v-184q56 76 142.5 130t189.5 54q102 0 170 -50.5t98 -137.5q59 74 153.5 131t196.5 57q136 0 211 -87.5t75 -226.5v-534q0 -29 17.5 -36.5t84.5 -7.5v-88h-512v88
q67 0 84.5 7.5t17.5 36.5v466q0 87 -35 139.5t-109 52.5q-100 0 -168 -74q2 -16 2 -50v-534q0 -29 17.5 -36.5t84.5 -7.5v-88h-512v88q67 0 84.5 7.5t17.5 36.5v466q0 87 -35 139.5t-109 52.5q-98 0 -166 -74v-584q0 -29 17.5 -36.5t84.5 -7.5z" />
    <glyph glyph-name="n" unicode="n" horiz-adv-x="1260" 
d="M586 88v-88h-512v88q67 0 84.5 7.5t17.5 36.5v568q0 31 -10 47.5t-36 30.5l-66 36v60l360 106h60v-184q60 75 146.5 129.5t191.5 54.5q136 0 212 -88t76 -226v-534q0 -29 17.5 -36.5t84.5 -7.5v-88h-512v88q67 0 84.5 7.5t17.5 36.5v466q0 91 -37 141.5t-113 50.5
q-94 0 -168 -74v-584q0 -29 17.5 -36.5t84.5 -7.5z" />
    <glyph glyph-name="o" unicode="o" horiz-adv-x="1156" 
d="M64 480q0 141 69 256t186.5 179.5t258.5 64.5t258.5 -64.5t186.5 -179.5t69 -256t-69 -256t-186.5 -179.5t-258.5 -64.5t-258.5 64.5t-186.5 179.5t-69 256zM766 480q0 183 -49 281.5t-139 98.5t-139 -98.5t-49 -281.5t49 -281.5t139 -98.5t139 98.5t49 281.5z" />
    <glyph glyph-name="p" unicode="p" horiz-adv-x="1236" 
d="M636 -336v-88h-572v88q67 0 84.5 7.5t17.5 36.5v992q0 31 -10 47.5t-36 30.5l-66 36v60l360 106h60v-178q38 65 121.5 121.5t188.5 56.5q167 0 277.5 -132.5t110.5 -329.5q0 -114 -39.5 -215t-106.5 -171.5t-158 -111t-190 -40.5q-116 0 -204 88v-360q0 -29 28 -36.5
t134 -7.5zM642 794q-52 0 -97.5 -22.5t-70.5 -57.5v-510q56 -100 170 -100q93 0 156.5 97.5t63.5 256.5q0 152 -58.5 244t-163.5 92z" />
    <glyph glyph-name="q" unicode="q" horiz-adv-x="1192" 
d="M1172 -336v-88h-572v88q106 0 134 7.5t28 36.5v450q-38 -64 -121 -121t-187 -57q-164 0 -277 129t-113 329q0 118 43.5 221t114 172t160.5 109t184 40q164 0 284 -134l124 114h96v-1252q0 -29 17.5 -36.5t84.5 -7.5zM372 502q0 -149 64.5 -242.5t165.5 -93.5
q102 0 160 80v512q-27 47 -68.5 69.5t-85.5 22.5q-98 0 -167 -95t-69 -253z" />
    <glyph glyph-name="r" unicode="r" horiz-adv-x="946" 
d="M646 88v-88h-572v88q67 0 84.5 7.5t17.5 36.5v568q0 31 -10 47.5t-36 30.5l-66 36v60l360 106h60v-260q158 260 294 260q77 0 122.5 -46t45.5 -124q0 -70 -45 -112t-97 -42q-31 0 -56 12t-38.5 27t-30.5 27t-35 12q-34 0 -83.5 -38.5t-76.5 -85.5v-478q0 -29 28 -36.5
t134 -7.5z" />
    <glyph glyph-name="s" unicode="s" horiz-adv-x="948" 
d="M500 868q-58 0 -96 -32t-38 -86q0 -39 28.5 -65t74.5 -40.5t101.5 -27.5t111 -33.5t101.5 -50t74.5 -84.5t28.5 -131q0 -149 -129 -243.5t-311 -94.5q-202 0 -354 88l-24 256h96q45 -129 118 -180.5t176 -51.5q68 0 117 33.5t49 88.5q0 35 -18 60t-48 40.5t-69.5 27.5
t-83 23t-87 24t-83 35t-69.5 51.5t-48 76.5t-18 108q0 133 116.5 226.5t293.5 93.5q166 0 300 -70v-236h-88q-23 97 -81 145.5t-141 48.5z" />
    <glyph glyph-name="t" unicode="t" horiz-adv-x="790" 
d="M790 154q-77 -86 -161 -130t-199 -44q-131 0 -214.5 67.5t-83.5 186.5v608h-126v118h126v248l308 90v-338h284v-118h-284v-566q0 -63 32 -95.5t88 -32.5q40 0 76.5 19.5t83.5 66.5z" />
    <glyph glyph-name="u" unicode="u" horiz-adv-x="1218" 
d="M1180 46l-360 -66h-60v176q-55 -75 -139 -125.5t-187 -50.5q-136 0 -211 87.5t-75 226.5v470q0 64 -46 78l-76 22v74l370 26h60v-602q0 -192 144 -192q96 0 160 70v524q0 64 -46 78l-76 22v74l370 26h60v-744q0 -31 10 -47.5t36 -30.5l66 -36v-60z" />
    <glyph glyph-name="v" unicode="v" horiz-adv-x="1080" 
d="M734 960h350v-88q-53 -3 -67.5 -10t-28.5 -42l-370 -830h-156l-370 830q-16 35 -29.5 42t-66.5 10v88h554v-88q-68 0 -93 -5.5t-25 -24.5q0 -12 12 -48l184 -478h8l204 478q12 36 12 48q0 19 -25 24.5t-93 5.5v88z" />
    <glyph glyph-name="w" unicode="w" horiz-adv-x="1558" 
d="M1006 -10l-228 604h-8l-218 -604h-146l-314 830q-13 34 -27.5 41.5t-68.5 10.5v88h548v-88q-68 0 -93 -5.5t-25 -24.5q0 -20 10 -50l132 -438h8l216 606h136l224 -606h8l158 440q12 36 12 48q0 19 -25 24.5t-93 5.5v88h350v-88q-54 -3 -68.5 -10.5t-27.5 -41.5l-314 -830
h-146z" />
    <glyph glyph-name="x" unicode="x" horiz-adv-x="1164" 
d="M402 88v-88h-406v88q67 3 94 12t50 38l278 338l-286 346q-26 30 -44.5 38.5t-69.5 11.5v88h560v-88q-57 0 -79.5 -7.5t-22.5 -24.5q0 -19 26 -48l148 -178l144 178q24 30 24 48q0 17 -22.5 24.5t-79.5 7.5v88h384v-88q-53 -3 -77 -12t-49 -38l-254 -292l326 -392
q26 -30 46 -38.5t76 -11.5v-88h-572v88q106 0 106 32q0 17 -26 46l-182 220l-168 -218q-26 -32 -26 -48q0 -17 22.5 -24.5t79.5 -7.5z" />
    <glyph glyph-name="y" unicode="y" horiz-adv-x="1080" 
d="M574 -106q-29 -65 -65 -121t-82.5 -107t-105.5 -80.5t-123 -29.5q-75 0 -128.5 43t-53.5 107q0 62 37.5 97t86.5 35q37 0 63 -17t36.5 -37t27 -37t37.5 -17q71 0 176 240l-388 850q-16 35 -29.5 42t-66.5 10v88h554v-88q-68 0 -93 -5.5t-25 -24.5q0 -21 12 -48l186 -462
h8l202 462q12 36 12 48q0 19 -25 24.5t-93 5.5v88h350v-88q-53 -3 -66.5 -10t-29.5 -42z" />
    <glyph glyph-name="z" unicode="z" horiz-adv-x="1048" 
d="M402 862q-44 0 -69.5 -4.5t-49.5 -18.5t-39 -43.5t-28 -75.5t-26 -120h-92v360h862v-74l-526 -788h230q31 0 50.5 1t40 7.5t31.5 12.5t25 25.5t21 35.5t19.5 53.5t21 69t23.5 91.5h96l-30 -394h-894v72l532 790h-198z" />
    <glyph glyph-name="braceleft" unicode="{" horiz-adv-x="894" 
d="M70 554v52q107 16 161.5 69.5t54.5 160.5v256q0 90 47.5 165.5t125.5 123t175 73.5t200 26v-94q-137 -9 -197.5 -79t-60.5 -245v-218q0 -55 -35 -103.5t-89.5 -80t-112 -52t-111.5 -28.5q54 -8 111.5 -28.5t112 -52t89.5 -80t35 -103.5v-218q0 -175 60.5 -245t197.5 -79
v-94q-103 0 -200 26t-175 73.5t-125.5 123t-47.5 165.5v256q0 107 -54.5 160.5t-161.5 69.5z" />
    <glyph glyph-name="bar" unicode="|" horiz-adv-x="654" 
d="M414 1480v-1796h-174v1796h174z" />
    <glyph glyph-name="braceright" unicode="}" horiz-adv-x="894" 
d="M824 606v-52q-107 -16 -161.5 -69.5t-54.5 -160.5v-256q0 -90 -47.5 -165.5t-125.5 -123t-175 -73.5t-200 -26v94q137 9 197.5 79t60.5 245v218q0 55 35 103.5t89.5 80t112 52t111.5 28.5q-54 8 -111.5 28.5t-112 52t-89.5 80t-35 103.5v218q0 175 -60.5 245t-197.5 79
v94q103 0 200 -26t175 -73.5t125.5 -123t47.5 -165.5v-256q0 -107 54.5 -160.5t161.5 -69.5z" />
    <glyph glyph-name="asciitilde" unicode="~" horiz-adv-x="1064" 
d="M400 766q49 0 106 -28.5t109 -57t89 -28.5q45 0 76.5 26.5t75.5 91.5l92 -42q-68 -159 -135.5 -231.5t-142.5 -72.5q-51 0 -108 28.5t-108.5 57t-89.5 28.5q-45 0 -77.5 -26.5t-76.5 -91.5l-94 42q67 158 137 231t147 73z" />
    <glyph glyph-name="uni00A0" unicode="&#xa0;" horiz-adv-x="432" 
 />
    <glyph glyph-name="exclamdown" unicode="&#xa1;" horiz-adv-x="660" 
d="M330 1340q84 0 143 -58.5t59 -141.5t-59 -141.5t-143 -58.5t-143 58.5t-59 141.5t59 141.5t143 58.5zM296 846h68q26 -149 66.5 -312t67 -260.5t26.5 -121.5q0 -74 -59.5 -123t-134.5 -49t-134.5 49t-59.5 123q0 24 26.5 121.5t67 260.5t66.5 312z" />
    <glyph glyph-name="cent" unicode="&#xa2;" horiz-adv-x="1040" 
d="M984 230q-118 -215 -350 -246v-194h-102v190q-123 7 -228.5 66.5t-172.5 168t-67 243.5q0 193 134 337.5t334 176.5v200h102v-192q139 -1 234.5 -62.5t95.5 -143.5q0 -54 -35.5 -87t-92.5 -33q-42 0 -72 25t-44.5 57t-37 67t-48.5 49v-706h24q139 0 246 146zM358 518
q0 -128 46 -217t128 -129v682q-74 -27 -124 -117.5t-50 -218.5z" />
    <glyph glyph-name="sterling" unicode="&#xa3;" horiz-adv-x="1304" 
d="M1284 392q-38 -192 -129.5 -302t-224.5 -110q-22 0 -45 3.5t-40.5 6t-42 13t-36.5 14.5t-39 20t-34.5 19.5t-37 24t-33 23t-36.5 26.5l-32 24q-70 -86 -154 -130t-160 -44q-97 0 -158.5 54t-61.5 140q0 90 68.5 151t163.5 61q78 0 168 -20q2 22 2 68q0 56 -12 180h-204
v116h190q-8 100 -8 154q0 192 140.5 324t333.5 132q166 0 263 -62.5t97 -149.5q0 -55 -37 -91.5t-95 -36.5q-41 0 -69.5 23.5t-45 56.5t-32 66t-39.5 56.5t-58 23.5q-38 0 -64 -25t-38.5 -71.5t-17 -97t-4.5 -118.5v-184h238v-116h-242q-14 -171 -72 -306q148 -36 282 -36
q46 0 80.5 5.5t70.5 20.5t64.5 46t48.5 78zM144 182q0 -41 27.5 -66.5t68.5 -25.5q130 0 164 158q-71 34 -138 34q-52 0 -87 -27.5t-35 -72.5z" />
    <glyph glyph-name="yen" unicode="&#xa5;" horiz-adv-x="1352" 
d="M1018 96v-96h-716v96h54q68 0 100 6t41 17t9 35v310h-332v112h332v68l-50 74h-284v112h206l-230 334q-27 39 -47.5 49.5t-80.5 10.5v96h666v-96q-110 0 -149 -8t-39 -30q0 -16 14 -38l250 -384h8l278 384q14 19 14 38q0 22 -39 30t-149 8v96h458v-96q-41 0 -63.5 -6
t-35 -17t-31.5 -37l-248 -334h190v-112h-274l-56 -74v-68h332v-112h-332v-310q0 -24 9 -35t41 -17t100 -6h54z" />
    <glyph glyph-name="section" unicode="&#xa7;" horiz-adv-x="1128" 
d="M918 -108q0 -141 -113 -239.5t-295 -98.5q-149 0 -250.5 67.5t-101.5 176.5q0 78 39.5 121t100.5 43q47 0 81.5 -31.5t34.5 -74.5q0 -36 -19 -65.5t-19 -40.5q0 -39 37.5 -68.5t98.5 -29.5q77 0 124.5 41.5t47.5 106.5q0 58 -36.5 103t-105.5 97l-286 216
q-93 71 -138.5 144t-45.5 174q0 83 57 179t117 147q-36 65 -36 142q0 141 113 239.5t295 98.5q149 0 250.5 -67.5t101.5 -176.5q0 -78 -39.5 -121t-100.5 -43q-47 0 -81.5 31.5t-34.5 74.5q0 36 19 65.5t19 40.5q0 39 -37.5 68.5t-98.5 29.5q-77 0 -124.5 -41.5
t-47.5 -106.5q0 -58 36.5 -103t105.5 -97l286 -216q93 -71 138.5 -144t45.5 -174q0 -83 -57 -179t-117 -147q36 -65 36 -142zM710 212q77 -60 124 -110q38 52 38 122q0 59 -28.5 105.5t-95.5 98.5l-330 254q-77 60 -124 110q-38 -52 -38 -122q0 -59 28.5 -105.5t95.5 -98.5z
" />
    <glyph glyph-name="dieresis" unicode="&#xa8;" horiz-adv-x="1000" 
d="M132 1250q0 72 47 121t117 49t117 -49t47 -121t-46.5 -119t-117.5 -47t-117.5 47t-46.5 119zM540 1250q0 72 47 121t117 49t117 -49t47 -121t-46.5 -119t-117.5 -47t-117.5 47t-46.5 119z" />
    <glyph glyph-name="copyright" unicode="&#xa9;" horiz-adv-x="1664" 
d="M832 1340q182 0 337 -92t245 -248.5t90 -339.5t-90 -339.5t-245 -248.5t-337 -92t-337 92t-245 248.5t-90 339.5t90 339.5t245 248.5t337 92zM832 80q155 0 287 78.5t208.5 212t76.5 289.5t-76.5 289.5t-208.5 212t-287 78.5t-287 -78.5t-208.5 -212t-76.5 -289.5
t76.5 -289.5t208.5 -212t287 -78.5zM1072 776q-44 94 -91 140t-109 46q-85 0 -136.5 -75.5t-51.5 -202.5q0 -132 57 -213t151 -81q104 0 186 124l76 -56q-49 -87 -130.5 -139.5t-185.5 -52.5q-161 0 -275.5 108.5t-114.5 275.5q0 183 115.5 299.5t272.5 116.5q121 0 204 -68
l40 56h52l12 -278h-72z" />
    <glyph glyph-name="ordfeminine" unicode="&#xaa;" horiz-adv-x="870" 
d="M654 606q-55 0 -92.5 23t-71.5 73q-64 -54 -119 -75t-119 -21q-79 0 -130.5 47t-51.5 113q0 44 19.5 80.5t49 63.5t87 56.5t111 50.5t143.5 53v64q0 61 -22.5 89.5t-71.5 28.5q-34 0 -60 -15.5t-26 -46.5q0 -4 3 -22t3 -26q0 -43 -29 -72.5t-79 -29.5q-45 0 -75.5 28
t-30.5 78q0 85 113 144.5t263 59.5q126 0 197 -59.5t71 -156.5v-382q0 -16 3.5 -22t14.5 -6q33 0 66 40l50 -48q-94 -110 -216 -110zM480 994q-26 -11 -40.5 -17.5t-39.5 -22t-38.5 -30t-24.5 -38t-11 -50.5q0 -48 26.5 -73t65.5 -25q30 0 62 20v236zM180 378v120h574v-120
h-574z" />
    <glyph glyph-name="guillemotleft" unicode="&#xab;" horiz-adv-x="1156" 
d="M90 468v20l382 400h134l-196 -410l196 -410h-134zM550 468v20l382 400h134l-196 -410l196 -410h-134z" />
    <glyph glyph-name="registered" unicode="&#xae;" horiz-adv-x="1224" 
d="M612 436q-197 0 -324.5 131t-127.5 321t127.5 321t324.5 131t324.5 -131t127.5 -321t-127.5 -321t-324.5 -131zM612 1252q-158 0 -261 -105t-103 -259t103 -259t261 -105t261 105t103 259t-103 259t-261 105zM598 736v-56h-210v56h46v318h-46v56h214q85 0 136.5 -31
t51.5 -93q0 -42 -29.5 -70.5t-78.5 -41.5l84 -102q20 -23 35 -31.5t49 -14.5v-46h-146l-126 184h-32v-128h52zM546 1054v-144h38q88 0 88 76q0 68 -88 68h-38z" />
    <glyph glyph-name="macron" unicode="&#xaf;" horiz-adv-x="1000" 
d="M206 1152v160h588v-160h-588z" />
    <glyph glyph-name="degree" unicode="&#xb0;" horiz-adv-x="836" 
d="M736 1020q0 -131 -92.5 -224.5t-223.5 -93.5q-132 0 -226 93.5t-94 224.5q0 132 94 226t226 94t224 -94t92 -226zM220 1020q0 -81 59 -139.5t141 -58.5t139 58t57 140q0 83 -57 141.5t-139 58.5t-141 -59t-59 -141z" />
    <glyph glyph-name="twosuperior" unicode="&#xb2;" horiz-adv-x="752" 
d="M114 1076l-50 32q47 99 132 160.5t182 61.5q105 0 168.5 -60.5t63.5 -147.5q0 -37 -14 -73t-31.5 -62.5t-54.5 -61t-61.5 -54t-75 -57.5t-73.5 -56v-6h210q42 0 65.5 21t58.5 87l46 -16l-58 -300h-548v70q93 82 152 145t88.5 112.5t39.5 85t10 77.5q0 51 -32.5 85.5
t-83.5 34.5q-81 0 -134 -78z" />
    <glyph glyph-name="threesuperior" unicode="&#xb3;" horiz-adv-x="778" 
d="M612 1172q0 -62 -57 -106.5t-145 -69.5q54 -3 99 -15t84 -34.5t61 -61t22 -89.5q0 -75 -59.5 -138t-142.5 -95.5t-162 -32.5q-99 0 -165.5 33t-66.5 99q0 34 24 56t58 22q31 0 55.5 -20.5t37 -45.5t28 -45.5t31.5 -20.5q46 0 80 43t34 115q0 69 -46.5 105t-125.5 33
l-16 50q120 56 120 148q0 32 -22.5 54t-57.5 22q-62 0 -114 -52l-50 44q118 160 290 160q89 0 147.5 -44t58.5 -114z" />
    <glyph glyph-name="acute" unicode="&#xb4;" horiz-adv-x="1000" 
d="M280 1124l160 274q61 102 146 102q54 0 94 -39.5t40 -90.5q0 -79 -90 -132l-292 -170z" />
    <glyph glyph-name="paragraph" unicode="&#xb6;" horiz-adv-x="1438" 
d="M1298 1228q-118 0 -149 -9t-31 -43v-1600h-152v1644h-174v-1644h-152v960q-108 0 -203.5 24.5t-171.5 71t-120.5 122.5t-44.5 172t44.5 172.5t120 124t171.5 72.5t204 25h658v-92z" />
    <glyph glyph-name="periodcentered" unicode="&#xb7;" horiz-adv-x="636" 
d="M520 552q0 -83 -59 -141.5t-143 -58.5t-143 58.5t-59 141.5t59 141.5t143 58.5t143 -58.5t59 -141.5z" />
    <glyph glyph-name="cedilla" unicode="&#xb8;" horiz-adv-x="1000" 
d="M254 -444l18 88q94 -23 165 -3.5t71 71.5q0 42 -37.5 59t-118.5 25l98 220h88l-40 -98q93 -11 155.5 -55.5t62.5 -114.5q0 -79 -62.5 -135.5t-165 -72t-234.5 15.5z" />
    <glyph glyph-name="onesuperior" unicode="&#xb9;" horiz-adv-x="746" 
d="M658 632v-88h-556v88h56q69 0 87.5 5t18.5 25v436h-154v90q93 0 190.5 41.5t127.5 100.5h80v-668q0 -20 18.5 -25t87.5 -5h44z" />
    <glyph glyph-name="ordmasculine" unicode="&#xba;" horiz-adv-x="932" 
d="M68 978q0 157 115.5 264.5t282.5 107.5q166 0 282 -107.5t116 -264.5q0 -158 -116 -265t-282 -107q-167 0 -282.5 107t-115.5 265zM590 978q0 134 -32.5 206t-91.5 72t-91.5 -72t-32.5 -206q0 -135 32.5 -207.5t91.5 -72.5t91.5 72.5t32.5 207.5zM180 378v120h574v-120
h-574z" />
    <glyph glyph-name="guillemotright" unicode="&#xbb;" horiz-adv-x="1156" 
d="M1066 488v-20l-382 -400h-134l196 410l-196 410h134zM606 488v-20l-382 -400h-134l196 410l-196 410h134z" />
    <glyph glyph-name="onequarter" unicode="&#xbc;" horiz-adv-x="1810" 
d="M658 632v-88h-556v88h56q69 0 87.5 5t18.5 25v436h-154v90q93 0 190.5 41.5t127.5 100.5h80v-668q0 -20 18.5 -25t87.5 -5h44zM554 0h-150l894 1320h150zM1680 0h-434v74q63 0 80.5 5.5t17.5 24.5v132h-344v84l428 456h152v-452h148v-88h-148v-132q0 -19 17.5 -24.5
t82.5 -5.5v-74zM1112 324h232v238h-6l-226 -234v-4z" />
    <glyph glyph-name="onehalf" unicode="&#xbd;" horiz-adv-x="1820" 
d="M658 632v-88h-556v88h56q69 0 87.5 5t18.5 25v436h-154v90q93 0 190.5 41.5t127.5 100.5h80v-668q0 -20 18.5 -25t87.5 -5h44zM554 0h-150l894 1320h150zM1182 532l-50 32q47 99 132 160.5t182 61.5q105 0 168.5 -60.5t63.5 -147.5q0 -37 -14 -73t-31.5 -62.5t-54.5 -61
t-61.5 -54t-75 -57.5t-73.5 -56v-6h210q42 0 65.5 21t58.5 87l46 -16l-58 -300h-548v70q93 82 152 145t88.5 112.5t39.5 85t10 77.5q0 51 -32.5 85.5t-83.5 34.5q-81 0 -134 -78z" />
    <glyph glyph-name="threequarters" unicode="&#xbe;" horiz-adv-x="1748" 
d="M612 1172q0 -62 -57 -106.5t-145 -69.5q54 -3 99 -15t84 -34.5t61 -61t22 -89.5q0 -75 -59.5 -138t-142.5 -95.5t-162 -32.5q-99 0 -165.5 33t-66.5 99q0 34 24 56t58 22q31 0 55.5 -20.5t37 -45.5t28 -45.5t31.5 -20.5q46 0 80 43t34 115q0 69 -46.5 105t-125.5 33
l-16 50q120 56 120 148q0 32 -22.5 54t-57.5 22q-62 0 -114 -52l-50 44q118 160 290 160q89 0 147.5 -44t58.5 -114zM492 0h-150l894 1320h150zM1618 0h-434v74q63 0 80.5 5.5t17.5 24.5v132h-344v84l428 456h152v-452h148v-88h-148v-132q0 -19 17.5 -24.5t82.5 -5.5v-74z
M1050 324h232v238h-6l-226 -234v-4z" />
    <glyph glyph-name="questiondown" unicode="&#xbf;" horiz-adv-x="1012" 
d="M396 1140q0 83 59 141.5t143 58.5t143 -58.5t59 -141.5t-59 -141.5t-143 -58.5t-143 58.5t-59 141.5zM252 320q0 -57 55.5 -83.5t140.5 -26.5q83 0 175 33t151 33q55 0 88.5 -34t33.5 -84q0 -77 -68 -127.5t-180 -50.5q-130 0 -253.5 61.5t-201 163t-77.5 209.5
q0 256 454 304v128h106l84 -328q0 -35 -22.5 -51t-65.5 -19q-64 -4 -105.5 -7.5t-96.5 -10t-89 -15.5t-66 -22t-47.5 -31.5t-15.5 -41.5z" />
    <glyph glyph-name="Agrave" unicode="&#xc0;" horiz-adv-x="1480" 
d="M658 1732l234 -250l-44 -68l-350 112q-58 18 -86 55t-28 81q0 56 38.5 99t95.5 43q74 0 140 -72zM500 96v-96h-496v96q92 0 120 10t44 50l478 1164h188l478 -1164q16 -40 44 -50t120 -10v-96h-702v96q111 0 152.5 8t41.5 30q0 10 -10 38l-100 262h-438l-104 -262
q-10 -27 -10 -38q0 -22 41.5 -30t152.5 -8zM638 990l-176 -446h354l-170 446h-8z" />
    <glyph glyph-name="Aacute" unicode="&#xc1;" horiz-adv-x="1480" 
d="M554 1482l234 250q66 72 140 72q57 0 95.5 -43t38.5 -99q0 -44 -28 -81t-86 -55l-350 -112zM500 96v-96h-496v96q92 0 120 10t44 50l478 1164h188l478 -1164q16 -40 44 -50t120 -10v-96h-702v96q111 0 152.5 8t41.5 30q0 10 -10 38l-100 262h-438l-104 -262
q-10 -27 -10 -38q0 -22 41.5 -30t152.5 -8zM638 990l-176 -446h354l-170 446h-8z" />
    <glyph glyph-name="Acircumflex" unicode="&#xc2;" horiz-adv-x="1480" 
d="M852 1786l260 -318l-58 -54l-316 174l-316 -174l-58 54l260 318q51 62 114 62t114 -62zM500 96v-96h-496v96q92 0 120 10t44 50l478 1164h188l478 -1164q16 -40 44 -50t120 -10v-96h-702v96q111 0 152.5 8t41.5 30q0 10 -10 38l-100 262h-438l-104 -262q-10 -27 -10 -38
q0 -22 41.5 -30t152.5 -8zM638 990l-176 -446h354l-170 446h-8z" />
    <glyph glyph-name="Atilde" unicode="&#xc3;" horiz-adv-x="1480" 
d="M618 1748q47 0 100 -28.5t101.5 -57t82.5 -28.5q44 0 73.5 26.5t70.5 91.5l88 -42q-64 -157 -127.5 -223.5t-136.5 -66.5q-47 0 -100.5 28.5t-102 57t-83.5 28.5q-43 0 -73.5 -26.5t-70.5 -91.5l-90 42q63 156 128.5 223t139.5 67zM500 96v-96h-496v96q92 0 120 10t44 50
l478 1164h188l478 -1164q16 -40 44 -50t120 -10v-96h-702v96q111 0 152.5 8t41.5 30q0 10 -10 38l-100 262h-438l-104 -262q-10 -27 -10 -38q0 -22 41.5 -30t152.5 -8zM638 990l-176 -446h354l-170 446h-8z" />
    <glyph glyph-name="Adieresis" unicode="&#xc4;" horiz-adv-x="1480" 
d="M350 1580q0 72 47 121t117 49t117 -49t47 -121t-46.5 -119t-117.5 -47t-117.5 47t-46.5 119zM778 1580q0 72 47 121t117 49t117 -49t47 -121t-46.5 -119t-117.5 -47t-117.5 47t-46.5 119zM500 96v-96h-496v96q92 0 120 10t44 50l478 1164h188l478 -1164q16 -40 44 -50
t120 -10v-96h-702v96q111 0 152.5 8t41.5 30q0 10 -10 38l-100 262h-438l-104 -262q-10 -27 -10 -38q0 -22 41.5 -30t152.5 -8zM638 990l-176 -446h354l-170 446h-8z" />
    <glyph glyph-name="Aring" unicode="&#xc5;" horiz-adv-x="1480" 
d="M728 1398q-102 0 -175 73t-73 175q0 105 73 178.5t175 73.5t175 -73.5t73 -178.5q0 -102 -73 -175t-175 -73zM728 1510q53 0 92.5 40t39.5 96q0 59 -39 98.5t-93 39.5t-93 -39.5t-39 -98.5q0 -56 39.5 -96t92.5 -40zM500 96v-96h-496v96q92 0 120 10t44 50l478 1164h188
l478 -1164q16 -40 44 -50t120 -10v-96h-702v96q111 0 152.5 8t41.5 30q0 10 -10 38l-100 262h-438l-104 -262q-10 -27 -10 -38q0 -22 41.5 -30t152.5 -8zM638 990l-176 -446h354l-170 446h-8z" />
    <glyph glyph-name="AE" unicode="&#xc6;" horiz-adv-x="2070" 
d="M508 96v-96h-504v96q61 0 91 6t43 16.5t30 37.5l658 1062q-69 6 -170 6v96h1248l18 -474h-96q-51 183 -75 235q-41 90 -111 116q-40 15 -96 15h-276v-484h86q49 0 75 1t51 10t35 18.5t20.5 37t14.5 55t10 82.5h92v-516h-84q-7 54 -11.5 83t-16 55.5t-22 37t-36.5 18.5
t-52 9t-76 1h-86v-512h266q56 0 94 5.5t73 22.5t59.5 42t50 71.5t47 104t48.5 144.5h100l-42 -498h-1188v96q75 0 109 5.5t44.5 16.5t10.5 36v320h-428l-180 -294q-18 -30 -18 -46q0 -22 41.5 -30t152.5 -8zM580 584h360v588z" />
    <glyph glyph-name="Ccedilla" unicode="&#xc7;" horiz-adv-x="1320" 
d="M880 -252q0 -79 -62.5 -135.5t-165 -72t-234.5 15.5l18 88q94 -23 165 -3.5t71 71.5q0 42 -37.5 59t-118.5 25l86 194q-235 39 -390.5 215.5t-155.5 430.5q0 155 59 289t155.5 223.5t220 140.5t253.5 51q102 0 174 -27.5t144 -86.5l68 94h88l22 -472h-88
q-83 175 -177.5 270.5t-212.5 95.5q-163 0 -260.5 -148.5t-97.5 -405.5q0 -238 100.5 -374t265.5 -136q242 0 380 232l104 -74q-80 -147 -221.5 -237.5t-314.5 -90.5h-30l-26 -62q93 -11 155.5 -55.5t62.5 -114.5z" />
    <glyph glyph-name="Egrave" unicode="&#xc8;" horiz-adv-x="1330" 
d="M632 1732l234 -250l-44 -68l-350 112q-58 18 -86 55t-28 81q0 56 38.5 99t95.5 43q74 0 140 -72zM1164 1320l18 -474h-96q-51 183 -75 235q-41 90 -111 116q-40 15 -96 15h-276v-484h86q49 0 75 1t51 10t35 18.5t20.5 37t14.5 55t10 82.5h92v-516h-84q-7 54 -11.5 83
t-16 55.5t-22 37t-36.5 18.5t-52 9t-76 1h-86v-512h266q56 0 94 5.5t73 22.5t59.5 42t50 71.5t47 104t48.5 144.5h100l-42 -498h-1188v96q75 0 109 5.5t44.5 16.5t10.5 36v1012q0 25 -10.5 36t-44.5 16.5t-109 5.5v96h1128z" />
    <glyph glyph-name="Eacute" unicode="&#xc9;" horiz-adv-x="1330" 
d="M468 1482l234 250q66 72 140 72q57 0 95.5 -43t38.5 -99q0 -44 -28 -81t-86 -55l-350 -112zM1164 1320l18 -474h-96q-51 183 -75 235q-41 90 -111 116q-40 15 -96 15h-276v-484h86q49 0 75 1t51 10t35 18.5t20.5 37t14.5 55t10 82.5h92v-516h-84q-7 54 -11.5 83t-16 55.5
t-22 37t-36.5 18.5t-52 9t-76 1h-86v-512h266q56 0 94 5.5t73 22.5t59.5 42t50 71.5t47 104t48.5 144.5h100l-42 -498h-1188v96q75 0 109 5.5t44.5 16.5t10.5 36v1012q0 25 -10.5 36t-44.5 16.5t-109 5.5v96h1128z" />
    <glyph glyph-name="Ecircumflex" unicode="&#xca;" horiz-adv-x="1330" 
d="M772 1786l260 -318l-58 -54l-316 174l-316 -174l-58 54l260 318q51 62 114 62t114 -62zM1164 1320l18 -474h-96q-51 183 -75 235q-41 90 -111 116q-40 15 -96 15h-276v-484h86q49 0 75 1t51 10t35 18.5t20.5 37t14.5 55t10 82.5h92v-516h-84q-7 54 -11.5 83t-16 55.5
t-22 37t-36.5 18.5t-52 9t-76 1h-86v-512h266q56 0 94 5.5t73 22.5t59.5 42t50 71.5t47 104t48.5 144.5h100l-42 -498h-1188v96q75 0 109 5.5t44.5 16.5t10.5 36v1012q0 25 -10.5 36t-44.5 16.5t-109 5.5v96h1128z" />
    <glyph glyph-name="Edieresis" unicode="&#xcb;" horiz-adv-x="1330" 
d="M280 1580q0 72 47 121t117 49t117 -49t47 -121t-46.5 -119t-117.5 -47t-117.5 47t-46.5 119zM708 1580q0 72 47 121t117 49t117 -49t47 -121t-46.5 -119t-117.5 -47t-117.5 47t-46.5 119zM1164 1320l18 -474h-96q-51 183 -75 235q-41 90 -111 116q-40 15 -96 15h-276
v-484h86q49 0 75 1t51 10t35 18.5t20.5 37t14.5 55t10 82.5h92v-516h-84q-7 54 -11.5 83t-16 55.5t-22 37t-36.5 18.5t-52 9t-76 1h-86v-512h266q56 0 94 5.5t73 22.5t59.5 42t50 71.5t47 104t48.5 144.5h100l-42 -498h-1188v96q75 0 109 5.5t44.5 16.5t10.5 36v1012
q0 25 -10.5 36t-44.5 16.5t-109 5.5v96h1128z" />
    <glyph glyph-name="Igrave" unicode="&#xcc;" horiz-adv-x="728" 
d="M332 1732l234 -250l-44 -68l-350 112q-58 18 -86 55t-28 81q0 56 38.5 99t95.5 43q74 0 140 -72zM692 96v-96h-656v96q75 0 109 5.5t44.5 16.5t10.5 36v1012q0 25 -10.5 36t-44.5 16.5t-109 5.5v96h656v-96q-75 0 -109 -5.5t-44.5 -16.5t-10.5 -36v-1012q0 -25 10.5 -36
t44.5 -16.5t109 -5.5z" />
    <glyph glyph-name="Iacute" unicode="&#xcd;" horiz-adv-x="728" 
d="M148 1482l234 250q66 72 140 72q57 0 95.5 -43t38.5 -99q0 -44 -28 -81t-86 -55l-350 -112zM692 96v-96h-656v96q75 0 109 5.5t44.5 16.5t10.5 36v1012q0 25 -10.5 36t-44.5 16.5t-109 5.5v96h656v-96q-75 0 -109 -5.5t-44.5 -16.5t-10.5 -36v-1012q0 -25 10.5 -36
t44.5 -16.5t109 -5.5z" />
    <glyph glyph-name="Icircumflex" unicode="&#xce;" horiz-adv-x="728" 
d="M478 1786l260 -318l-58 -54l-316 174l-316 -174l-58 54l260 318q51 62 114 62t114 -62zM692 96v-96h-656v96q75 0 109 5.5t44.5 16.5t10.5 36v1012q0 25 -10.5 36t-44.5 16.5t-109 5.5v96h656v-96q-75 0 -109 -5.5t-44.5 -16.5t-10.5 -36v-1012q0 -25 10.5 -36
t44.5 -16.5t109 -5.5z" />
    <glyph glyph-name="Idieresis" unicode="&#xcf;" horiz-adv-x="728" 
d="M-14 1580q0 72 47 121t117 49t117 -49t47 -121t-46.5 -119t-117.5 -47t-117.5 47t-46.5 119zM414 1580q0 72 47 121t117 49t117 -49t47 -121t-46.5 -119t-117.5 -47t-117.5 47t-46.5 119zM692 96v-96h-656v96q75 0 109 5.5t44.5 16.5t10.5 36v1012q0 25 -10.5 36
t-44.5 16.5t-109 5.5v96h656v-96q-75 0 -109 -5.5t-44.5 -16.5t-10.5 -36v-1012q0 -25 10.5 -36t44.5 -16.5t109 -5.5z" />
    <glyph glyph-name="Eth" unicode="&#xd0;" horiz-adv-x="1494" 
d="M1438 684q0 -151 -58 -277.5t-164.5 -216.5t-263.5 -140t-348 -50h-548v96q75 0 109 5.5t44.5 16.5t10.5 36v460h-164v116h164v436q0 25 -10.5 36t-44.5 16.5t-109 5.5v96h544q391 0 614.5 -168t223.5 -468zM548 108h98q200 0 323 149t123 411q0 264 -123.5 404
t-328.5 140h-92v-482h246v-116h-246v-506z" />
    <glyph glyph-name="Ntilde" unicode="&#xd1;" horiz-adv-x="1466" 
d="M634 1748q47 0 100 -28.5t101.5 -57t82.5 -28.5q44 0 73.5 26.5t70.5 91.5l88 -42q-64 -157 -127.5 -223.5t-136.5 -66.5q-47 0 -100.5 28.5t-102 57t-83.5 28.5q-43 0 -73.5 -26.5t-70.5 -91.5l-90 42q63 156 128.5 223t139.5 67zM1148 1166q0 25 -11 36t-49.5 16.5
t-123.5 5.5v96h504v-96q-85 0 -123.5 -5.5t-49.5 -16.5t-11 -36v-1166h-148l-792 1076h-8v-922q0 -25 11 -36t49.5 -16.5t123.5 -5.5v-96h-504v96q85 0 123.5 5.5t49.5 16.5t11 36v1012q0 25 -11 36t-49.5 16.5t-123.5 5.5v96h558l566 -802h8v648z" />
    <glyph glyph-name="Ograve" unicode="&#xd2;" horiz-adv-x="1476" 
d="M658 1732l234 -250l-44 -68l-350 112q-58 18 -86 55t-28 81q0 56 38.5 99t95.5 43q74 0 140 -72zM1420 660q0 -145 -56 -273t-149 -216.5t-217.5 -139.5t-259.5 -51t-259.5 51t-217.5 139.5t-149 216.5t-56 273t56 273t149 216.5t217.5 139.5t259.5 51t259.5 -51
t217.5 -139.5t149 -216.5t56 -273zM1072 660q0 160 -36 282.5t-112.5 196t-185.5 73.5t-185.5 -73.5t-112.5 -196t-36 -282.5t36 -282.5t112.5 -196t185.5 -73.5t185.5 73.5t112.5 196t36 282.5z" />
    <glyph glyph-name="Oacute" unicode="&#xd3;" horiz-adv-x="1476" 
d="M564 1482l234 250q66 72 140 72q57 0 95.5 -43t38.5 -99q0 -44 -28 -81t-86 -55l-350 -112zM1420 660q0 -145 -56 -273t-149 -216.5t-217.5 -139.5t-259.5 -51t-259.5 51t-217.5 139.5t-149 216.5t-56 273t56 273t149 216.5t217.5 139.5t259.5 51t259.5 -51t217.5 -139.5
t149 -216.5t56 -273zM1072 660q0 160 -36 282.5t-112.5 196t-185.5 73.5t-185.5 -73.5t-112.5 -196t-36 -282.5t36 -282.5t112.5 -196t185.5 -73.5t185.5 73.5t112.5 196t36 282.5z" />
    <glyph glyph-name="Ocircumflex" unicode="&#xd4;" horiz-adv-x="1476" 
d="M852 1786l260 -318l-58 -54l-316 174l-316 -174l-58 54l260 318q51 62 114 62t114 -62zM1420 660q0 -145 -56 -273t-149 -216.5t-217.5 -139.5t-259.5 -51t-259.5 51t-217.5 139.5t-149 216.5t-56 273t56 273t149 216.5t217.5 139.5t259.5 51t259.5 -51t217.5 -139.5
t149 -216.5t56 -273zM1072 660q0 160 -36 282.5t-112.5 196t-185.5 73.5t-185.5 -73.5t-112.5 -196t-36 -282.5t36 -282.5t112.5 -196t185.5 -73.5t185.5 73.5t112.5 196t36 282.5z" />
    <glyph glyph-name="Otilde" unicode="&#xd5;" horiz-adv-x="1476" 
d="M614 1748q47 0 100 -28.5t101.5 -57t82.5 -28.5q44 0 73.5 26.5t70.5 91.5l88 -42q-64 -157 -127.5 -223.5t-136.5 -66.5q-47 0 -100.5 28.5t-102 57t-83.5 28.5q-43 0 -73.5 -26.5t-70.5 -91.5l-90 42q63 156 128.5 223t139.5 67zM1420 660q0 -145 -56 -273t-149 -216.5
t-217.5 -139.5t-259.5 -51t-259.5 51t-217.5 139.5t-149 216.5t-56 273t56 273t149 216.5t217.5 139.5t259.5 51t259.5 -51t217.5 -139.5t149 -216.5t56 -273zM1072 660q0 160 -36 282.5t-112.5 196t-185.5 73.5t-185.5 -73.5t-112.5 -196t-36 -282.5t36 -282.5t112.5 -196
t185.5 -73.5t185.5 73.5t112.5 196t36 282.5z" />
    <glyph glyph-name="Odieresis" unicode="&#xd6;" horiz-adv-x="1476" 
d="M360 1580q0 72 47 121t117 49t117 -49t47 -121t-46.5 -119t-117.5 -47t-117.5 47t-46.5 119zM788 1580q0 72 47 121t117 49t117 -49t47 -121t-46.5 -119t-117.5 -47t-117.5 47t-46.5 119zM1420 660q0 -145 -56 -273t-149 -216.5t-217.5 -139.5t-259.5 -51t-259.5 51
t-217.5 139.5t-149 216.5t-56 273t56 273t149 216.5t217.5 139.5t259.5 51t259.5 -51t217.5 -139.5t149 -216.5t56 -273zM1072 660q0 160 -36 282.5t-112.5 196t-185.5 73.5t-185.5 -73.5t-112.5 -196t-36 -282.5t36 -282.5t112.5 -196t185.5 -73.5t185.5 73.5t112.5 196
t36 282.5z" />
    <glyph glyph-name="multiply" unicode="&#xd7;" 
d="M1030 240l-96 -98l-374 376l-376 -376l-98 96l376 376l-376 378l96 96l378 -376l376 376l96 -96l-376 -378z" />
    <glyph glyph-name="Oslash" unicode="&#xd8;" horiz-adv-x="1476" 
d="M738 -20q-191 0 -352 96l-158 -204l-98 76l156 200q-108 94 -169 226t-61 286q0 145 56 273t149 216.5t217.5 139.5t259.5 51q208 0 384 -116l128 164l98 -76l-130 -166q96 -94 149 -218.5t53 -267.5q0 -145 -56 -273t-149 -216.5t-217.5 -139.5t-259.5 -51zM404 660
q0 -178 44 -304l542 696q-90 160 -252 160q-109 0 -185.5 -73.5t-112.5 -196t-36 -282.5zM1072 660q0 144 -30 258l-534 -686q89 -124 230 -124q109 0 185.5 73.5t112.5 196t36 282.5z" />
    <glyph glyph-name="Ugrave" unicode="&#xd9;" horiz-adv-x="1438" 
d="M744 1732l234 -250l-44 -68l-350 112q-58 18 -86 55t-28 81q0 56 38.5 99t95.5 43q74 0 140 -72zM1122 1166q0 25 -11 36t-49.5 16.5t-123.5 5.5v96h504v-96q-85 0 -123.5 -5.5t-49.5 -16.5t-11 -36v-690q0 -153 -73 -267.5t-190 -171.5t-257 -57q-258 0 -408 130
t-150 362v694q0 25 -10.5 36t-44.5 16.5t-109 5.5v96h656v-96q-75 0 -109 -5.5t-44.5 -16.5t-10.5 -36v-666q0 -194 74.5 -282t225.5 -88q141 0 227.5 97.5t86.5 272.5v666z" />
    <glyph glyph-name="Uacute" unicode="&#xda;" horiz-adv-x="1438" 
d="M600 1482l234 250q66 72 140 72q57 0 95.5 -43t38.5 -99q0 -44 -28 -81t-86 -55l-350 -112zM1122 1166q0 25 -11 36t-49.5 16.5t-123.5 5.5v96h504v-96q-85 0 -123.5 -5.5t-49.5 -16.5t-11 -36v-690q0 -153 -73 -267.5t-190 -171.5t-257 -57q-258 0 -408 130t-150 362
v694q0 25 -10.5 36t-44.5 16.5t-109 5.5v96h656v-96q-75 0 -109 -5.5t-44.5 -16.5t-10.5 -36v-666q0 -194 74.5 -282t225.5 -88q141 0 227.5 97.5t86.5 272.5v666z" />
    <glyph glyph-name="Ucircumflex" unicode="&#xdb;" horiz-adv-x="1438" 
d="M884 1786l260 -318l-58 -54l-316 174l-316 -174l-58 54l260 318q51 62 114 62t114 -62zM1122 1166q0 25 -11 36t-49.5 16.5t-123.5 5.5v96h504v-96q-85 0 -123.5 -5.5t-49.5 -16.5t-11 -36v-690q0 -153 -73 -267.5t-190 -171.5t-257 -57q-258 0 -408 130t-150 362v694
q0 25 -10.5 36t-44.5 16.5t-109 5.5v96h656v-96q-75 0 -109 -5.5t-44.5 -16.5t-10.5 -36v-666q0 -194 74.5 -282t225.5 -88q141 0 227.5 97.5t86.5 272.5v666z" />
    <glyph glyph-name="Udieresis" unicode="&#xdc;" horiz-adv-x="1438" 
d="M392 1580q0 72 47 121t117 49t117 -49t47 -121t-46.5 -119t-117.5 -47t-117.5 47t-46.5 119zM820 1580q0 72 47 121t117 49t117 -49t47 -121t-46.5 -119t-117.5 -47t-117.5 47t-46.5 119zM1122 1166q0 25 -11 36t-49.5 16.5t-123.5 5.5v96h504v-96q-85 0 -123.5 -5.5
t-49.5 -16.5t-11 -36v-690q0 -153 -73 -267.5t-190 -171.5t-257 -57q-258 0 -408 130t-150 362v694q0 25 -10.5 36t-44.5 16.5t-109 5.5v96h656v-96q-75 0 -109 -5.5t-44.5 -16.5t-10.5 -36v-666q0 -194 74.5 -282t225.5 -88q141 0 227.5 97.5t86.5 272.5v666z" />
    <glyph glyph-name="Yacute" unicode="&#xdd;" horiz-adv-x="1480" 
d="M610 1482l234 250q66 72 140 72q57 0 95.5 -43t38.5 -99q0 -44 -28 -81t-86 -55l-350 -112zM1104 96v-96h-736v96h54q68 0 100 6t41 17t9 35v428l-400 582q-27 39 -54 49.5t-114 10.5v96h718v-96q-110 0 -149 -8t-39 -30q0 -16 14 -38l278 -430h8l310 430q14 22 14 38
q0 22 -39 30t-149 8v96h506v-96q-61 0 -92 -6.5t-44.5 -17t-33.5 -36.5l-406 -550v-460q0 -24 9 -35t41 -17t100 -6h54z" />
    <glyph glyph-name="Thorn" unicode="&#xde;" horiz-adv-x="1342" 
d="M528 1166v-96h222q110 0 205 -23.5t170 -69.5t118 -121t43 -172t-43 -172t-118 -121t-170 -69.5t-205 -23.5h-222v-144q0 -24 9 -35t41 -17t100 -6h54v-96h-696v96q75 0 109 5.5t44.5 16.5t10.5 36v1012q0 25 -10.5 36t-44.5 16.5t-109 5.5v96h656v-96q-75 0 -109 -5.5
t-44.5 -16.5t-10.5 -36zM528 406h150q123 0 199.5 73t76.5 205t-76.5 205t-199.5 73h-150v-556z" />
    <glyph glyph-name="germandbls" unicode="&#xdf;" horiz-adv-x="1392" 
d="M1358 340q0 -111 -63 -195t-156.5 -124.5t-196.5 -40.5q-79 0 -161 25t-129 65l-24 254h96q32 -110 93 -171t141 -61q68 0 108 35t40 93q0 40 -27 72t-58.5 50t-110.5 56l-12 6q-129 62 -181.5 124t-52.5 148q0 58 25 108.5t61 90.5t72 82t61 100.5t25 128.5
q0 88 -53.5 145t-142.5 57q-98 0 -163 -66.5t-65 -207.5v-1114h-410v88q67 0 84.5 7.5t17.5 36.5v710h-130v118h130v32q0 101 43 194.5t116.5 162.5t177 110t217.5 41q83 0 157 -19.5t133 -57.5t93.5 -100t34.5 -141q0 -54 -20.5 -98.5t-52 -71.5t-67.5 -52.5t-67.5 -43
t-52 -40.5t-20.5 -48q0 -35 28.5 -57t111.5 -62l18 -9q148 -73 187 -99q102 -65 130 -155q15 -47 15 -106z" />
    <glyph glyph-name="agrave" unicode="&#xe0;" horiz-adv-x="1082" 
d="M546 1398l160 -274l-58 -56l-292 170q-90 53 -90 132q0 51 40 90.5t94 39.5q85 0 146 -102zM848 -20q-74 0 -125.5 35t-88.5 105q-154 -140 -320 -140q-107 0 -175.5 62.5t-68.5 155.5q0 57 24.5 105.5t66.5 86.5t114.5 75.5t152 67.5t194.5 67v96q0 82 -33.5 122
t-104.5 40q-51 0 -88.5 -22t-37.5 -62q0 -7 6 -31.5t6 -38.5q0 -53 -37 -89.5t-99 -36.5q-56 0 -95 35.5t-39 98.5q0 74 68 136t178.5 97t233.5 35q163 0 254.5 -75t91.5 -209v-512q0 -54 38 -54q45 0 90 50l58 -64q-116 -136 -264 -136zM622 500q-54 -18 -92 -34.5
t-77 -42.5t-59 -62.5t-20 -82.5q0 -64 36 -98t90 -34q60 0 122 48v306z" />
    <glyph glyph-name="aacute" unicode="&#xe1;" horiz-adv-x="1082" 
d="M400 1124l160 274q61 102 146 102q54 0 94 -39.5t40 -90.5q0 -79 -90 -132l-292 -170zM848 -20q-74 0 -125.5 35t-88.5 105q-154 -140 -320 -140q-107 0 -175.5 62.5t-68.5 155.5q0 57 24.5 105.5t66.5 86.5t114.5 75.5t152 67.5t194.5 67v96q0 82 -33.5 122t-104.5 40
q-51 0 -88.5 -22t-37.5 -62q0 -7 6 -31.5t6 -38.5q0 -53 -37 -89.5t-99 -36.5q-56 0 -95 35.5t-39 98.5q0 74 68 136t178.5 97t233.5 35q163 0 254.5 -75t91.5 -209v-512q0 -54 38 -54q45 0 90 50l58 -64q-116 -136 -264 -136zM622 500q-54 -18 -92 -34.5t-77 -42.5
t-59 -62.5t-20 -82.5q0 -64 36 -98t90 -34q60 0 122 48v306z" />
    <glyph glyph-name="acircumflex" unicode="&#xe2;" horiz-adv-x="1082" 
d="M642 1436l228 -318l-66 -50l-276 194l-276 -194l-66 50l228 318q46 64 114 64t114 -64zM848 -20q-74 0 -125.5 35t-88.5 105q-154 -140 -320 -140q-107 0 -175.5 62.5t-68.5 155.5q0 57 24.5 105.5t66.5 86.5t114.5 75.5t152 67.5t194.5 67v96q0 82 -33.5 122t-104.5 40
q-51 0 -88.5 -22t-37.5 -62q0 -7 6 -31.5t6 -38.5q0 -53 -37 -89.5t-99 -36.5q-56 0 -95 35.5t-39 98.5q0 74 68 136t178.5 97t233.5 35q163 0 254.5 -75t91.5 -209v-512q0 -54 38 -54q45 0 90 50l58 -64q-116 -136 -264 -136zM622 500q-54 -18 -92 -34.5t-77 -42.5
t-59 -62.5t-20 -82.5q0 -64 36 -98t90 -34q60 0 122 48v306z" />
    <glyph glyph-name="atilde" unicode="&#xe3;" horiz-adv-x="1082" 
d="M430 1426q44 0 94.5 -28.5t96.5 -57t79 -28.5q41 0 69 26t67 92l82 -42q-59 -155 -118.5 -219.5t-129.5 -64.5q-45 0 -95.5 28.5t-97 57t-79.5 28.5q-40 0 -68.5 -26.5t-67.5 -91.5l-84 42q59 154 120.5 219t131.5 65zM848 -20q-74 0 -125.5 35t-88.5 105
q-154 -140 -320 -140q-107 0 -175.5 62.5t-68.5 155.5q0 57 24.5 105.5t66.5 86.5t114.5 75.5t152 67.5t194.5 67v96q0 82 -33.5 122t-104.5 40q-51 0 -88.5 -22t-37.5 -62q0 -7 6 -31.5t6 -38.5q0 -53 -37 -89.5t-99 -36.5q-56 0 -95 35.5t-39 98.5q0 74 68 136t178.5 97
t233.5 35q163 0 254.5 -75t91.5 -209v-512q0 -54 38 -54q45 0 90 50l58 -64q-116 -136 -264 -136zM622 500q-54 -18 -92 -34.5t-77 -42.5t-59 -62.5t-20 -82.5q0 -64 36 -98t90 -34q60 0 122 48v306z" />
    <glyph glyph-name="adieresis" unicode="&#xe4;" horiz-adv-x="1082" 
d="M162 1250q0 72 47 121t117 49t117 -49t47 -121t-46.5 -119t-117.5 -47t-117.5 47t-46.5 119zM570 1250q0 72 47 121t117 49t117 -49t47 -121t-46.5 -119t-117.5 -47t-117.5 47t-46.5 119zM848 -20q-74 0 -125.5 35t-88.5 105q-154 -140 -320 -140q-107 0 -175.5 62.5
t-68.5 155.5q0 57 24.5 105.5t66.5 86.5t114.5 75.5t152 67.5t194.5 67v96q0 82 -33.5 122t-104.5 40q-51 0 -88.5 -22t-37.5 -62q0 -7 6 -31.5t6 -38.5q0 -53 -37 -89.5t-99 -36.5q-56 0 -95 35.5t-39 98.5q0 74 68 136t178.5 97t233.5 35q163 0 254.5 -75t91.5 -209v-512
q0 -54 38 -54q45 0 90 50l58 -64q-116 -136 -264 -136zM622 500q-54 -18 -92 -34.5t-77 -42.5t-59 -62.5t-20 -82.5q0 -64 36 -98t90 -34q60 0 122 48v306z" />
    <glyph glyph-name="aring" unicode="&#xe5;" horiz-adv-x="1082" 
d="M528 1068q-93 0 -159.5 66.5t-66.5 159.5q0 94 66.5 161t159.5 67t159.5 -67t66.5 -161q0 -93 -66.5 -159.5t-159.5 -66.5zM528 1170q49 0 84.5 36t35.5 88q0 53 -35.5 88.5t-84.5 35.5t-84.5 -35.5t-35.5 -88.5q0 -52 35.5 -88t84.5 -36zM848 -20q-74 0 -125.5 35
t-88.5 105q-154 -140 -320 -140q-107 0 -175.5 62.5t-68.5 155.5q0 57 24.5 105.5t66.5 86.5t114.5 75.5t152 67.5t194.5 67v96q0 82 -33.5 122t-104.5 40q-51 0 -88.5 -22t-37.5 -62q0 -7 6 -31.5t6 -38.5q0 -53 -37 -89.5t-99 -36.5q-56 0 -95 35.5t-39 98.5q0 74 68 136
t178.5 97t233.5 35q163 0 254.5 -75t91.5 -209v-512q0 -54 38 -54q45 0 90 50l58 -64q-116 -136 -264 -136zM622 500q-54 -18 -92 -34.5t-77 -42.5t-59 -62.5t-20 -82.5q0 -64 36 -98t90 -34q60 0 122 48v306z" />
    <glyph glyph-name="ae" unicode="&#xe6;" horiz-adv-x="1600" 
d="M1536 238q-61 -122 -173 -190t-259 -68q-115 0 -226.5 43t-177.5 129q-161 -172 -372 -172q-116 0 -187 62t-71 156q0 57 24.5 105.5t66.5 86.5t114.5 75.5t152 67.5t194.5 67v96q0 82 -33.5 122t-104.5 40q-51 0 -88.5 -22t-37.5 -62q0 -7 6 -31.5t6 -38.5
q0 -53 -37 -89.5t-99 -36.5q-56 0 -95 35.5t-39 98.5q0 74 67.5 136.5t174.5 97t224 34.5q182 0 262 -98q135 98 288 98q104 0 186 -36t133 -99.5t78 -145.5t27 -177v-48h-626q9 -151 84 -236.5t200 -85.5q81 0 138 35t114 115zM1104 856q-82 0 -130.5 -72t-59.5 -200h338
q0 272 -148 272zM622 500q-54 -18 -92 -34.5t-77 -42.5t-59 -62.5t-20 -82.5q0 -64 35.5 -95t90.5 -31q60 0 122 48v300z" />
    <glyph glyph-name="ccedilla" unicode="&#xe7;" horiz-adv-x="976" 
d="M716 -252q0 -79 -62.5 -135.5t-165 -72t-234.5 15.5l18 88q94 -23 165 -3.5t71 71.5q0 42 -37.5 59t-118.5 25l86 194q-159 35 -266.5 161.5t-107.5 306.5q0 142 73.5 262.5t198 190t270.5 69.5q143 0 232.5 -64t89.5 -150q0 -53 -33.5 -82.5t-88.5 -29.5
q-43 0 -71.5 21.5t-43 52.5t-28 62t-36 52.5t-55.5 21.5q-85 0 -144.5 -94t-59.5 -246q0 -163 73 -265.5t195 -102.5q139 0 236 136l76 -62q-62 -119 -165 -184.5t-245 -65.5h-14l-26 -62q93 -11 155.5 -55.5t62.5 -114.5z" />
    <glyph glyph-name="egrave" unicode="&#xe8;" horiz-adv-x="1060" 
d="M578 1398l160 -274l-58 -56l-292 170q-90 53 -90 132q0 51 40 90.5t94 39.5q85 0 146 -102zM992 238q-61 -122 -173 -190t-259 -68q-98 0 -187.5 33.5t-158 93.5t-109.5 152t-41 201q0 140 65.5 259.5t182 190t256.5 70.5q105 0 188 -36t134.5 -99.5t78.5 -145.5t27 -177
v-48h-626q9 -151 84 -236.5t200 -85.5q81 0 138 35t114 115zM560 856q-82 0 -130.5 -72t-59.5 -200h338q0 272 -148 272z" />
    <glyph glyph-name="eacute" unicode="&#xe9;" horiz-adv-x="1060" 
d="M392 1124l160 274q61 102 146 102q54 0 94 -39.5t40 -90.5q0 -79 -90 -132l-292 -170zM992 238q-61 -122 -173 -190t-259 -68q-98 0 -187.5 33.5t-158 93.5t-109.5 152t-41 201q0 140 65.5 259.5t182 190t256.5 70.5q105 0 188 -36t134.5 -99.5t78.5 -145.5t27 -177v-48
h-626q9 -151 84 -236.5t200 -85.5q81 0 138 35t114 115zM560 856q-82 0 -130.5 -72t-59.5 -200h338q0 272 -148 272z" />
    <glyph glyph-name="ecircumflex" unicode="&#xea;" horiz-adv-x="1060" 
d="M684 1436l228 -318l-66 -50l-276 194l-276 -194l-66 50l228 318q47 64 114.5 64t113.5 -64zM992 238q-61 -122 -173 -190t-259 -68q-98 0 -187.5 33.5t-158 93.5t-109.5 152t-41 201q0 140 65.5 259.5t182 190t256.5 70.5q105 0 188 -36t134.5 -99.5t78.5 -145.5t27 -177
v-48h-626q9 -151 84 -236.5t200 -85.5q81 0 138 35t114 115zM560 856q-82 0 -130.5 -72t-59.5 -200h338q0 272 -148 272z" />
    <glyph glyph-name="edieresis" unicode="&#xeb;" horiz-adv-x="1060" 
d="M194 1250q0 72 47 121t117 49t117 -49t47 -121t-46.5 -119t-117.5 -47t-117.5 47t-46.5 119zM602 1250q0 72 47 121t117 49t117 -49t47 -121t-46.5 -119t-117.5 -47t-117.5 47t-46.5 119zM992 238q-61 -122 -173 -190t-259 -68q-98 0 -187.5 33.5t-158 93.5t-109.5 152
t-41 201q0 140 65.5 259.5t182 190t256.5 70.5q105 0 188 -36t134.5 -99.5t78.5 -145.5t27 -177v-48h-626q9 -151 84 -236.5t200 -85.5q81 0 138 35t114 115zM560 856q-82 0 -130.5 -72t-59.5 -200h338q0 272 -148 272z" />
    <glyph glyph-name="igrave" unicode="&#xec;" horiz-adv-x="634" 
d="M326 1398l160 -274l-58 -56l-292 170q-90 53 -90 132q0 51 40 90.5t94 39.5q85 0 146 -102zM176 700q0 31 -10 47.5t-36 30.5l-66 36v60l360 106h60v-848q0 -29 17.5 -36.5t84.5 -7.5v-88h-512v88q67 0 84.5 7.5t17.5 36.5v568z" />
    <glyph glyph-name="iacute" unicode="&#xed;" horiz-adv-x="634" 
d="M162 1124l160 274q61 102 146 102q54 0 94 -39.5t40 -90.5q0 -79 -90 -132l-292 -170zM176 700q0 31 -10 47.5t-36 30.5l-66 36v60l360 106h60v-848q0 -29 17.5 -36.5t84.5 -7.5v-88h-512v88q67 0 84.5 7.5t17.5 36.5v568z" />
    <glyph glyph-name="icircumflex" unicode="&#xee;" horiz-adv-x="634" 
d="M420 1436l208 -318l-66 -50l-256 194l-256 -194l-66 50l208 318q43 66 113.5 66t114.5 -66zM176 700q0 31 -10 47.5t-36 30.5l-66 36v60l360 106h60v-848q0 -29 17.5 -36.5t84.5 -7.5v-88h-512v88q67 0 84.5 7.5t17.5 36.5v568z" />
    <glyph glyph-name="idieresis" unicode="&#xef;" horiz-adv-x="634" 
d="M-62 1250q0 72 47 121t117 49t117 -49t47 -121t-46.5 -119t-117.5 -47t-117.5 47t-46.5 119zM346 1250q0 72 47 121t117 49t117 -49t47 -121t-46.5 -119t-117.5 -47t-117.5 47t-46.5 119zM176 700q0 31 -10 47.5t-36 30.5l-66 36v60l360 106h60v-848q0 -29 17.5 -36.5
t84.5 -7.5v-88h-512v88q67 0 84.5 7.5t17.5 36.5v568z" />
    <glyph glyph-name="eth" unicode="&#xf0;" horiz-adv-x="1156" 
d="M1092 564q0 -174 -69.5 -308.5t-186 -205t-258.5 -70.5q-141 0 -258.5 64.5t-186.5 179.5t-69 256q0 105 40 199t107.5 159.5t157.5 103.5t187 38q55 0 106 -16t76 -42h8q-57 139 -190 254l-314 -136l-50 96l266 116q-111 78 -262 146l40 102q229 -64 400 -170l190 84
l50 -98l-134 -58q350 -273 350 -694zM766 480q0 183 -49 281.5t-139 98.5t-139 -98.5t-49 -281.5t49 -281.5t139 -98.5t139 98.5t49 281.5z" />
    <glyph glyph-name="ntilde" unicode="&#xf1;" horiz-adv-x="1260" 
d="M500 1426q44 0 94.5 -28.5t96.5 -57t79 -28.5q41 0 69 26t67 92l82 -42q-59 -155 -118.5 -219.5t-129.5 -64.5q-45 0 -95.5 28.5t-97 57t-79.5 28.5q-40 0 -68.5 -26.5t-67.5 -91.5l-84 42q59 154 120.5 219t131.5 65zM586 88v-88h-512v88q67 0 84.5 7.5t17.5 36.5v568
q0 31 -10 47.5t-36 30.5l-66 36v60l360 106h60v-184q60 75 146.5 129.5t191.5 54.5q136 0 212 -88t76 -226v-534q0 -29 17.5 -36.5t84.5 -7.5v-88h-512v88q67 0 84.5 7.5t17.5 36.5v466q0 91 -37 141.5t-113 50.5q-94 0 -168 -74v-584q0 -29 17.5 -36.5t84.5 -7.5z" />
    <glyph glyph-name="ograve" unicode="&#xf2;" horiz-adv-x="1156" 
d="M538 1398l160 -274l-58 -56l-292 170q-90 53 -90 132q0 51 40 90.5t94 39.5q85 0 146 -102zM64 480q0 141 69 256t186.5 179.5t258.5 64.5t258.5 -64.5t186.5 -179.5t69 -256t-69 -256t-186.5 -179.5t-258.5 -64.5t-258.5 64.5t-186.5 179.5t-69 256zM766 480
q0 183 -49 281.5t-139 98.5t-139 -98.5t-49 -281.5t49 -281.5t139 -98.5t139 98.5t49 281.5z" />
    <glyph glyph-name="oacute" unicode="&#xf3;" horiz-adv-x="1156" 
d="M418 1124l160 274q61 102 146 102q54 0 94 -39.5t40 -90.5q0 -79 -90 -132l-292 -170zM64 480q0 141 69 256t186.5 179.5t258.5 64.5t258.5 -64.5t186.5 -179.5t69 -256t-69 -256t-186.5 -179.5t-258.5 -64.5t-258.5 64.5t-186.5 179.5t-69 256zM766 480q0 183 -49 281.5
t-139 98.5t-139 -98.5t-49 -281.5t49 -281.5t139 -98.5t139 98.5t49 281.5z" />
    <glyph glyph-name="ocircumflex" unicode="&#xf4;" horiz-adv-x="1156" 
d="M692 1436l228 -318l-66 -50l-276 194l-276 -194l-66 50l228 318q46 64 114 64t114 -64zM64 480q0 141 69 256t186.5 179.5t258.5 64.5t258.5 -64.5t186.5 -179.5t69 -256t-69 -256t-186.5 -179.5t-258.5 -64.5t-258.5 64.5t-186.5 179.5t-69 256zM766 480
q0 183 -49 281.5t-139 98.5t-139 -98.5t-49 -281.5t49 -281.5t139 -98.5t139 98.5t49 281.5z" />
    <glyph glyph-name="otilde" unicode="&#xf5;" horiz-adv-x="1156" 
d="M460 1426q44 0 94.5 -28.5t96.5 -57t79 -28.5q41 0 69 26t67 92l82 -42q-59 -155 -118.5 -219.5t-129.5 -64.5q-45 0 -95.5 28.5t-97 57t-79.5 28.5q-40 0 -68.5 -26.5t-67.5 -91.5l-84 42q59 154 120.5 219t131.5 65zM64 480q0 141 69 256t186.5 179.5t258.5 64.5
t258.5 -64.5t186.5 -179.5t69 -256t-69 -256t-186.5 -179.5t-258.5 -64.5t-258.5 64.5t-186.5 179.5t-69 256zM766 480q0 183 -49 281.5t-139 98.5t-139 -98.5t-49 -281.5t49 -281.5t139 -98.5t139 98.5t49 281.5z" />
    <glyph glyph-name="odieresis" unicode="&#xf6;" horiz-adv-x="1156" 
d="M210 1250q0 72 47 121t117 49t117 -49t47 -121t-46.5 -119t-117.5 -47t-117.5 47t-46.5 119zM618 1250q0 72 47 121t117 49t117 -49t47 -121t-46.5 -119t-117.5 -47t-117.5 47t-46.5 119zM64 480q0 141 69 256t186.5 179.5t258.5 64.5t258.5 -64.5t186.5 -179.5t69 -256
t-69 -256t-186.5 -179.5t-258.5 -64.5t-258.5 64.5t-186.5 179.5t-69 256zM766 480q0 183 -49 281.5t-139 98.5t-139 -98.5t-49 -281.5t49 -281.5t139 -98.5t139 98.5t49 281.5z" />
    <glyph glyph-name="divide" unicode="&#xf7;" 
d="M406 988q0 64 46 110t110 46q63 0 108.5 -46t45.5 -110t-45.5 -110t-108.5 -46q-64 0 -110 46t-46 110zM60 544v140h1000v-140h-1000zM406 240q0 64 46 110t110 46q63 0 108.5 -46t45.5 -110t-45.5 -110t-108.5 -46q-64 0 -110 46t-46 110z" />
    <glyph glyph-name="oslash" unicode="&#xf8;" horiz-adv-x="1156" 
d="M578 -20q-127 0 -238 54l-112 -152l-98 64l110 152q-83 69 -129.5 167.5t-46.5 214.5q0 141 69 256t186.5 179.5t258.5 64.5q136 0 258 -64l92 126l98 -64l-94 -130q160 -147 160 -368q0 -141 -69 -256t-186.5 -179.5t-258.5 -64.5zM378 480q0 -104 14 -174l334 458
q-51 96 -148 96q-92 0 -146 -100t-54 -280zM778 480q0 74 -10 144l-326 -448q49 -76 136 -76q92 0 146 100t54 280z" />
    <glyph glyph-name="ugrave" unicode="&#xf9;" horiz-adv-x="1218" 
d="M572 1398l160 -274l-58 -56l-292 170q-90 53 -90 132q0 51 40 90.5t94 39.5q85 0 146 -102zM1180 46l-360 -66h-60v176q-55 -75 -139 -125.5t-187 -50.5q-136 0 -211 87.5t-75 226.5v470q0 64 -46 78l-76 22v74l370 26h60v-602q0 -192 144 -192q96 0 160 70v524
q0 64 -46 78l-76 22v74l370 26h60v-744q0 -31 10 -47.5t36 -30.5l66 -36v-60z" />
    <glyph glyph-name="uacute" unicode="&#xfa;" horiz-adv-x="1218" 
d="M468 1124l160 274q61 102 146 102q54 0 94 -39.5t40 -90.5q0 -79 -90 -132l-292 -170zM1180 46l-360 -66h-60v176q-55 -75 -139 -125.5t-187 -50.5q-136 0 -211 87.5t-75 226.5v470q0 64 -46 78l-76 22v74l370 26h60v-602q0 -192 144 -192q96 0 160 70v524q0 64 -46 78
l-76 22v74l370 26h60v-744q0 -31 10 -47.5t36 -30.5l66 -36v-60z" />
    <glyph glyph-name="ucircumflex" unicode="&#xfb;" horiz-adv-x="1218" 
d="M706 1436l228 -318l-66 -50l-276 194l-276 -194l-66 50l228 318q46 64 114 64t114 -64zM1180 46l-360 -66h-60v176q-55 -75 -139 -125.5t-187 -50.5q-136 0 -211 87.5t-75 226.5v470q0 64 -46 78l-76 22v74l370 26h60v-602q0 -192 144 -192q96 0 160 70v524q0 64 -46 78
l-76 22v74l370 26h60v-744q0 -31 10 -47.5t36 -30.5l66 -36v-60z" />
    <glyph glyph-name="udieresis" unicode="&#xfc;" horiz-adv-x="1218" 
d="M244 1250q0 72 47 121t117 49t117 -49t47 -121t-46.5 -119t-117.5 -47t-117.5 47t-46.5 119zM652 1250q0 72 47 121t117 49t117 -49t47 -121t-46.5 -119t-117.5 -47t-117.5 47t-46.5 119zM1180 46l-360 -66h-60v176q-55 -75 -139 -125.5t-187 -50.5q-136 0 -211 87.5
t-75 226.5v470q0 64 -46 78l-76 22v74l370 26h60v-602q0 -192 144 -192q96 0 160 70v524q0 64 -46 78l-76 22v74l370 26h60v-744q0 -31 10 -47.5t36 -30.5l66 -36v-60z" />
    <glyph glyph-name="yacute" unicode="&#xfd;" horiz-adv-x="1080" 
d="M512 1124l160 274q61 102 146 102q54 0 94 -39.5t40 -90.5q0 -79 -90 -132l-292 -170zM574 -106q-29 -65 -65 -121t-82.5 -107t-105.5 -80.5t-123 -29.5q-75 0 -128.5 43t-53.5 107q0 62 37.5 97t86.5 35q37 0 63 -17t36.5 -37t27 -37t37.5 -17q71 0 176 240l-388 850
q-16 35 -29.5 42t-66.5 10v88h554v-88q-68 0 -93 -5.5t-25 -24.5q0 -21 12 -48l186 -462h8l202 462q12 36 12 48q0 19 -25 24.5t-93 5.5v88h350v-88q-53 -3 -66.5 -10t-29.5 -42z" />
    <glyph glyph-name="thorn" unicode="&#xfe;" horiz-adv-x="1192" 
d="M592 -336v-88h-572v88q67 0 84.5 7.5t17.5 36.5v1512q0 31 -10 47.5t-36 30.5l-66 36v60l360 106h60v-698q38 65 121.5 121.5t188.5 56.5q167 0 277.5 -132.5t110.5 -329.5q0 -114 -39.5 -215t-106.5 -171.5t-158 -111t-190 -40.5q-116 0 -204 88v-360q0 -29 28 -36.5
t134 -7.5zM598 794q-52 0 -97.5 -22.5t-70.5 -57.5v-510q56 -100 170 -100q93 0 156.5 97.5t63.5 256.5q0 152 -58.5 244t-163.5 92z" />
    <glyph glyph-name="ydieresis" unicode="&#xff;" horiz-adv-x="1080" 
d="M208 1250q0 72 47 121t117 49t117 -49t47 -121t-46.5 -119t-117.5 -47t-117.5 47t-46.5 119zM616 1250q0 72 47 121t117 49t117 -49t47 -121t-46.5 -119t-117.5 -47t-117.5 47t-46.5 119zM574 -106q-29 -65 -65 -121t-82.5 -107t-105.5 -80.5t-123 -29.5q-75 0 -128.5 43
t-53.5 107q0 62 37.5 97t86.5 35q37 0 63 -17t36.5 -37t27 -37t37.5 -17q71 0 176 240l-388 850q-16 35 -29.5 42t-66.5 10v88h554v-88q-68 0 -93 -5.5t-25 -24.5q0 -21 12 -48l186 -462h8l202 462q12 36 12 48q0 19 -25 24.5t-93 5.5v88h350v-88q-53 -3 -66.5 -10
t-29.5 -42z" />
    <glyph glyph-name="Amacron" unicode="&#x100;" horiz-adv-x="1480" 
d="M398 1472v160h660v-160h-660zM500 96v-96h-496v96q92 0 120 10t44 50l478 1164h188l478 -1164q16 -40 44 -50t120 -10v-96h-702v96q111 0 152.5 8t41.5 30q0 10 -10 38l-100 262h-438l-104 -262q-10 -27 -10 -38q0 -22 41.5 -30t152.5 -8zM638 990l-176 -446h354
l-170 446h-8z" />
    <glyph glyph-name="amacron" unicode="&#x101;" horiz-adv-x="1082" 
d="M236 1152v160h588v-160h-588zM848 -20q-74 0 -125.5 35t-88.5 105q-154 -140 -320 -140q-107 0 -175.5 62.5t-68.5 155.5q0 57 24.5 105.5t66.5 86.5t114.5 75.5t152 67.5t194.5 67v96q0 82 -33.5 122t-104.5 40q-51 0 -88.5 -22t-37.5 -62q0 -7 6 -31.5t6 -38.5
q0 -53 -37 -89.5t-99 -36.5q-56 0 -95 35.5t-39 98.5q0 74 68 136t178.5 97t233.5 35q163 0 254.5 -75t91.5 -209v-512q0 -54 38 -54q45 0 90 50l58 -64q-116 -136 -264 -136zM622 500q-54 -18 -92 -34.5t-77 -42.5t-59 -62.5t-20 -82.5q0 -64 36 -98t90 -34q60 0 122 48
v306z" />
    <glyph glyph-name="Abreve" unicode="&#x102;" horiz-adv-x="1480" 
d="M724 1610q90 0 149.5 54.5t84.5 137.5l100 -24q-21 -174 -109.5 -269t-224.5 -95t-224.5 95t-109.5 269l100 24q25 -83 84.5 -137.5t149.5 -54.5zM500 96v-96h-496v96q92 0 120 10t44 50l478 1164h188l478 -1164q16 -40 44 -50t120 -10v-96h-702v96q111 0 152.5 8
t41.5 30q0 10 -10 38l-100 262h-438l-104 -262q-10 -27 -10 -38q0 -22 41.5 -30t152.5 -8zM638 990l-176 -446h354l-170 446h-8z" />
    <glyph glyph-name="abreve" unicode="&#x103;" horiz-adv-x="1082" 
d="M524 1276q81 0 130 54.5t72 167.5l104 -32q-21 -193 -102 -295.5t-204 -102.5t-204 102.5t-102 295.5l104 32q23 -113 72 -167.5t130 -54.5zM848 -20q-74 0 -125.5 35t-88.5 105q-154 -140 -320 -140q-107 0 -175.5 62.5t-68.5 155.5q0 57 24.5 105.5t66.5 86.5
t114.5 75.5t152 67.5t194.5 67v96q0 82 -33.5 122t-104.5 40q-51 0 -88.5 -22t-37.5 -62q0 -7 6 -31.5t6 -38.5q0 -53 -37 -89.5t-99 -36.5q-56 0 -95 35.5t-39 98.5q0 74 68 136t178.5 97t233.5 35q163 0 254.5 -75t91.5 -209v-512q0 -54 38 -54q45 0 90 50l58 -64
q-116 -136 -264 -136zM622 500q-54 -18 -92 -34.5t-77 -42.5t-59 -62.5t-20 -82.5q0 -64 36 -98t90 -34q60 0 122 48v306z" />
    <glyph glyph-name="Aogonek" unicode="&#x104;" horiz-adv-x="1480" 
d="M1008 -290q-52 -64 -126.5 -109t-157.5 -45q-82 0 -134 44.5t-52 119.5q0 79 64.5 152t171.5 130v94q111 0 152.5 8t41.5 30q0 10 -10 38l-100 262h-438l-104 -262q-10 -27 -10 -38q0 -22 41.5 -30t152.5 -8v-96h-496v96q92 0 120 10t44 50l478 1164h188l478 -1164
q16 -40 44 -50t120 -10v-96h-538q-81 -33 -144.5 -95t-63.5 -117q0 -38 22 -59t62 -21q65 0 144 70zM638 990l-176 -446h354l-170 446h-8z" />
    <glyph glyph-name="aogonek" unicode="&#x105;" horiz-adv-x="1082" 
d="M744 -444q-82 0 -134 44.5t-52 119.5q0 76 58.5 145t157.5 125q-84 27 -140 130q-154 -140 -320 -140q-107 0 -175.5 62.5t-68.5 155.5q0 57 24.5 105.5t66.5 86.5t114.5 75.5t152 67.5t194.5 67v96q0 82 -33.5 122t-104.5 40q-51 0 -88.5 -22t-37.5 -62q0 -7 6 -31.5
t6 -38.5q0 -53 -37 -89.5t-99 -36.5q-56 0 -95 35.5t-39 98.5q0 74 68 136t178.5 97t233.5 35q163 0 254.5 -75t91.5 -209v-512q0 -54 38 -54q45 0 90 50l58 -64q-64 -76 -186 -132q-78 -36 -127 -88.5t-49 -107.5q0 -38 22 -59t62 -21q65 0 144 70l50 -68
q-52 -64 -126.5 -109t-157.5 -45zM622 500q-54 -18 -92 -34.5t-77 -42.5t-59 -62.5t-20 -82.5q0 -64 36 -98t90 -34q60 0 122 48v306z" />
    <glyph glyph-name="Cacute" unicode="&#x106;" horiz-adv-x="1320" 
d="M546 1482l234 250q66 72 140 72q57 0 95.5 -43t38.5 -99q0 -44 -28 -81t-86 -55l-350 -112zM1152 848q-83 175 -177.5 270.5t-212.5 95.5q-163 0 -260.5 -148.5t-97.5 -405.5q0 -238 100.5 -374t265.5 -136q242 0 380 232l104 -74q-80 -147 -221.5 -237.5t-314.5 -90.5
q-178 0 -328.5 81t-242 232.5t-91.5 342.5q0 155 59 289t155.5 223.5t220 140.5t253.5 51q102 0 174 -27.5t144 -86.5l68 94h88l22 -472h-88z" />
    <glyph glyph-name="cacute" unicode="&#x107;" horiz-adv-x="976" 
d="M408 1124l160 274q61 102 146 102q54 0 94 -39.5t40 -90.5q0 -79 -90 -132l-292 -170zM572 864q-85 0 -144.5 -94t-59.5 -246q0 -163 73 -265.5t195 -102.5q139 0 236 136l76 -62q-62 -119 -165 -184.5t-245 -65.5q-122 0 -229.5 58t-176 169t-68.5 251q0 142 73.5 262.5
t198 190t270.5 69.5q143 0 232.5 -64t89.5 -150q0 -53 -33.5 -82.5t-88.5 -29.5q-43 0 -71.5 21.5t-43 52.5t-28 62t-36 52.5t-55.5 21.5z" />
    <glyph glyph-name="Ccircumflex" unicode="&#x108;" horiz-adv-x="1320" 
d="M830 1786l260 -318l-58 -54l-316 174l-316 -174l-58 54l260 318q51 62 114 62t114 -62zM1152 848q-83 175 -177.5 270.5t-212.5 95.5q-163 0 -260.5 -148.5t-97.5 -405.5q0 -238 100.5 -374t265.5 -136q242 0 380 232l104 -74q-80 -147 -221.5 -237.5t-314.5 -90.5
q-178 0 -328.5 81t-242 232.5t-91.5 342.5q0 155 59 289t155.5 223.5t220 140.5t253.5 51q102 0 174 -27.5t144 -86.5l68 94h88l22 -472h-88z" />
    <glyph glyph-name="ccircumflex" unicode="&#x109;" horiz-adv-x="976" 
d="M678 1436l228 -318l-66 -50l-276 194l-276 -194l-66 50l228 318q46 64 114 64t114 -64zM572 864q-85 0 -144.5 -94t-59.5 -246q0 -163 73 -265.5t195 -102.5q139 0 236 136l76 -62q-62 -119 -165 -184.5t-245 -65.5q-122 0 -229.5 58t-176 169t-68.5 251
q0 142 73.5 262.5t198 190t270.5 69.5q143 0 232.5 -64t89.5 -150q0 -53 -33.5 -82.5t-88.5 -29.5q-43 0 -71.5 21.5t-43 52.5t-28 62t-36 52.5t-55.5 21.5z" />
    <glyph glyph-name="Cdotaccent" unicode="&#x10a;" horiz-adv-x="1320" 
d="M550 1600q0 79 53 132.5t131 53.5t131 -53.5t53 -132.5t-53 -132.5t-131 -53.5t-131 53.5t-53 132.5zM1152 848q-83 175 -177.5 270.5t-212.5 95.5q-163 0 -260.5 -148.5t-97.5 -405.5q0 -238 100.5 -374t265.5 -136q242 0 380 232l104 -74q-80 -147 -221.5 -237.5
t-314.5 -90.5q-178 0 -328.5 81t-242 232.5t-91.5 342.5q0 155 59 289t155.5 223.5t220 140.5t253.5 51q102 0 174 -27.5t144 -86.5l68 94h88l22 -472h-88z" />
    <glyph glyph-name="cdotaccent" unicode="&#x10b;" horiz-adv-x="976" 
d="M392 1290q0 78 51.5 130t128.5 52t128.5 -52t51.5 -130t-51.5 -130t-128.5 -52t-128.5 52t-51.5 130zM572 864q-85 0 -144.5 -94t-59.5 -246q0 -163 73 -265.5t195 -102.5q139 0 236 136l76 -62q-62 -119 -165 -184.5t-245 -65.5q-122 0 -229.5 58t-176 169t-68.5 251
q0 142 73.5 262.5t198 190t270.5 69.5q143 0 232.5 -64t89.5 -150q0 -53 -33.5 -82.5t-88.5 -29.5q-43 0 -71.5 21.5t-43 52.5t-28 62t-36 52.5t-55.5 21.5z" />
    <glyph glyph-name="Ccaron" unicode="&#x10c;" horiz-adv-x="1320" 
d="M1108 1762l-260 -318q-51 -62 -114 -62t-114 62l-260 318l58 54l316 -174l316 174zM1152 848q-83 175 -177.5 270.5t-212.5 95.5q-163 0 -260.5 -148.5t-97.5 -405.5q0 -238 100.5 -374t265.5 -136q242 0 380 232l104 -74q-80 -147 -221.5 -237.5t-314.5 -90.5
q-178 0 -328.5 81t-242 232.5t-91.5 342.5q0 155 59 289t155.5 223.5t220 140.5t253.5 51q102 0 174 -27.5t144 -86.5l68 94h88l22 -472h-88z" />
    <glyph glyph-name="ccaron" unicode="&#x10d;" horiz-adv-x="976" 
d="M924 1450l-228 -318q-46 -64 -114 -64t-114 64l-228 318l66 50l276 -194l276 194zM572 864q-85 0 -144.5 -94t-59.5 -246q0 -163 73 -265.5t195 -102.5q139 0 236 136l76 -62q-62 -119 -165 -184.5t-245 -65.5q-122 0 -229.5 58t-176 169t-68.5 251q0 142 73.5 262.5
t198 190t270.5 69.5q143 0 232.5 -64t89.5 -150q0 -53 -33.5 -82.5t-88.5 -29.5q-43 0 -71.5 21.5t-43 52.5t-28 62t-36 52.5t-55.5 21.5z" />
    <glyph glyph-name="Dcaron" unicode="&#x10e;" horiz-adv-x="1474" 
d="M1036 1762l-260 -318q-51 -62 -114 -62t-114 62l-260 318l58 54l316 -174l316 174zM36 1320h544q391 0 614.5 -168t223.5 -468q0 -151 -58 -277.5t-164.5 -216.5t-263.5 -140t-348 -50h-548v96q75 0 109 5.5t44.5 16.5t10.5 36v1012q0 25 -10.5 36t-44.5 16.5t-109 5.5
v96zM528 108h98q200 0 323 149t123 411q0 264 -123.5 404t-328.5 140h-92v-1104z" />
    <glyph glyph-name="dcaron" unicode="&#x10f;" horiz-adv-x="1548" 
d="M1182 46l-360 -66h-60v178q-38 -65 -121.5 -121.5t-188.5 -56.5q-165 0 -276.5 134.5t-111.5 331.5q0 114 39.5 214.5t106 170t155 109.5t185.5 40q124 0 212 -88v328q0 31 -10 47.5t-36 30.5l-66 36v60l360 106h60v-1280q0 -31 10 -47.5t36 -30.5l66 -36v-60zM1254 1326
q3 85 43 129.5t93 44.5q48 0 83 -35t35 -93q0 -46 -22 -96l-164 -354l-80 12zM372 506q0 -149 65 -244.5t165 -95.5q102 0 160 80v510q-56 100 -170 100q-95 0 -157.5 -95t-62.5 -255z" />
    <glyph glyph-name="Dcroat" unicode="&#x110;" horiz-adv-x="1494" 
d="M1438 684q0 -151 -58 -277.5t-164.5 -216.5t-263.5 -140t-348 -50h-548v96q75 0 109 5.5t44.5 16.5t10.5 36v460h-164v116h164v436q0 25 -10.5 36t-44.5 16.5t-109 5.5v96h544q391 0 614.5 -168t223.5 -468zM548 108h98q200 0 323 149t123 411q0 264 -123.5 404
t-328.5 140h-92v-482h246v-116h-246v-506z" />
    <glyph glyph-name="dcroat" unicode="&#x111;" horiz-adv-x="1226" 
d="M1182 46l-360 -66h-60v178q-38 -65 -121.5 -121.5t-188.5 -56.5q-165 0 -276.5 134.5t-111.5 331.5q0 114 39.5 214.5t106 170t155 109.5t185.5 40q124 0 212 -88v182h-260v118h260v28q0 31 -10 47.5t-36 30.5l-66 36v60l360 106h60v-308h140v-118h-140v-854
q0 -31 10 -47.5t36 -30.5l66 -36v-60zM372 506q0 -149 65 -244.5t165 -95.5q102 0 160 80v510q-56 100 -170 100q-95 0 -157.5 -95t-62.5 -255z" />
    <glyph glyph-name="Emacron" unicode="&#x112;" horiz-adv-x="1330" 
d="M328 1472v160h660v-160h-660zM1164 1320l18 -474h-96q-51 183 -75 235q-41 90 -111 116q-40 15 -96 15h-276v-484h86q49 0 75 1t51 10t35 18.5t20.5 37t14.5 55t10 82.5h92v-516h-84q-7 54 -11.5 83t-16 55.5t-22 37t-36.5 18.5t-52 9t-76 1h-86v-512h266q56 0 94 5.5
t73 22.5t59.5 42t50 71.5t47 104t48.5 144.5h100l-42 -498h-1188v96q75 0 109 5.5t44.5 16.5t10.5 36v1012q0 25 -10.5 36t-44.5 16.5t-109 5.5v96h1128z" />
    <glyph glyph-name="emacron" unicode="&#x113;" horiz-adv-x="1060" 
d="M268 1152v160h588v-160h-588zM992 238q-61 -122 -173 -190t-259 -68q-98 0 -187.5 33.5t-158 93.5t-109.5 152t-41 201q0 140 65.5 259.5t182 190t256.5 70.5q105 0 188 -36t134.5 -99.5t78.5 -145.5t27 -177v-48h-626q9 -151 84 -236.5t200 -85.5q81 0 138 35t114 115z
M560 856q-82 0 -130.5 -72t-59.5 -200h338q0 272 -148 272z" />
    <glyph glyph-name="Ebreve" unicode="&#x114;" horiz-adv-x="1330" 
d="M658 1610q90 0 149.5 54.5t84.5 137.5l100 -24q-21 -174 -109.5 -269t-224.5 -95t-224.5 95t-109.5 269l100 24q25 -83 84.5 -137.5t149.5 -54.5zM1164 1320l18 -474h-96q-51 183 -75 235q-41 90 -111 116q-40 15 -96 15h-276v-484h86q49 0 75 1t51 10t35 18.5t20.5 37
t14.5 55t10 82.5h92v-516h-84q-7 54 -11.5 83t-16 55.5t-22 37t-36.5 18.5t-52 9t-76 1h-86v-512h266q56 0 94 5.5t73 22.5t59.5 42t50 71.5t47 104t48.5 144.5h100l-42 -498h-1188v96q75 0 109 5.5t44.5 16.5t10.5 36v1012q0 25 -10.5 36t-44.5 16.5t-109 5.5v96h1128z" />
    <glyph glyph-name="ebreve" unicode="&#x115;" horiz-adv-x="1060" 
d="M562 1276q81 0 130 54.5t72 167.5l104 -32q-21 -193 -102 -295.5t-204 -102.5t-204 102.5t-102 295.5l104 32q23 -113 72 -167.5t130 -54.5zM992 238q-61 -122 -173 -190t-259 -68q-98 0 -187.5 33.5t-158 93.5t-109.5 152t-41 201q0 140 65.5 259.5t182 190t256.5 70.5
q105 0 188 -36t134.5 -99.5t78.5 -145.5t27 -177v-48h-626q9 -151 84 -236.5t200 -85.5q81 0 138 35t114 115zM560 856q-82 0 -130.5 -72t-59.5 -200h338q0 272 -148 272z" />
    <glyph glyph-name="Edotaccent" unicode="&#x116;" horiz-adv-x="1330" 
d="M474 1600q0 79 53 132.5t131 53.5t131 -53.5t53 -132.5t-53 -132.5t-131 -53.5t-131 53.5t-53 132.5zM1164 1320l18 -474h-96q-51 183 -75 235q-41 90 -111 116q-40 15 -96 15h-276v-484h86q49 0 75 1t51 10t35 18.5t20.5 37t14.5 55t10 82.5h92v-516h-84q-7 54 -11.5 83
t-16 55.5t-22 37t-36.5 18.5t-52 9t-76 1h-86v-512h266q56 0 94 5.5t73 22.5t59.5 42t50 71.5t47 104t48.5 144.5h100l-42 -498h-1188v96q75 0 109 5.5t44.5 16.5t10.5 36v1012q0 25 -10.5 36t-44.5 16.5t-109 5.5v96h1128z" />
    <glyph glyph-name="edotaccent" unicode="&#x117;" horiz-adv-x="1060" 
d="M378 1290q0 78 51.5 130t128.5 52t128.5 -52t51.5 -130t-51.5 -130t-128.5 -52t-128.5 52t-51.5 130zM992 238q-61 -122 -173 -190t-259 -68q-98 0 -187.5 33.5t-158 93.5t-109.5 152t-41 201q0 140 65.5 259.5t182 190t256.5 70.5q105 0 188 -36t134.5 -99.5
t78.5 -145.5t27 -177v-48h-626q9 -151 84 -236.5t200 -85.5q81 0 138 35t114 115zM560 856q-82 0 -130.5 -72t-59.5 -200h338q0 272 -148 272z" />
    <glyph glyph-name="Eogonek" unicode="&#x118;" horiz-adv-x="1330" 
d="M1058 -290q-52 -64 -126.5 -109t-157.5 -45q-82 0 -134 44.5t-52 119.5q0 79 63 150.5t169 129.5h-784v96q75 0 109 5.5t44.5 16.5t10.5 36v1012q0 25 -10.5 36t-44.5 16.5t-109 5.5v96h1128l18 -474h-96q-51 183 -75 235q-41 90 -111 116q-40 15 -96 15h-276v-484h86
q49 0 75 1t51 10t35 18.5t20.5 37t14.5 55t10 82.5h92v-516h-84q-7 54 -11.5 83t-16 55.5t-22 37t-36.5 18.5t-52 9t-76 1h-86v-512h266q56 0 94 5.5t73 22.5t59.5 42t50 71.5t47 104t48.5 144.5h100l-42 -498h-236q-81 -33 -144.5 -95t-63.5 -117q0 -38 22 -59t62 -21
q65 0 144 70z" />
    <glyph glyph-name="eogonek" unicode="&#x119;" horiz-adv-x="1060" 
d="M874 -290q-52 -64 -126.5 -109t-157.5 -45q-82 0 -134 44.5t-52 119.5q0 72 54 139.5t146 122.5q-14 -2 -44 -2q-98 0 -187.5 33.5t-158 93.5t-109.5 152t-41 201q0 140 65.5 259.5t182 190t256.5 70.5q105 0 188 -36t134.5 -99.5t78.5 -145.5t27 -177v-48h-626
q9 -151 84 -236.5t200 -85.5q81 0 138 35t114 115l86 -64q-31 -63 -96.5 -127t-137.5 -111q-162 -104 -162 -212q0 -38 22 -59t62 -21q65 0 144 70zM560 856q-82 0 -130.5 -72t-59.5 -200h338q0 272 -148 272z" />
    <glyph glyph-name="Ecaron" unicode="&#x11a;" horiz-adv-x="1330" 
d="M1032 1762l-260 -318q-51 -62 -114 -62t-114 62l-260 318l58 54l316 -174l316 174zM1164 1320l18 -474h-96q-51 183 -75 235q-41 90 -111 116q-40 15 -96 15h-276v-484h86q49 0 75 1t51 10t35 18.5t20.5 37t14.5 55t10 82.5h92v-516h-84q-7 54 -11.5 83t-16 55.5t-22 37
t-36.5 18.5t-52 9t-76 1h-86v-512h266q56 0 94 5.5t73 22.5t59.5 42t50 71.5t47 104t48.5 144.5h100l-42 -498h-1188v96q75 0 109 5.5t44.5 16.5t10.5 36v1012q0 25 -10.5 36t-44.5 16.5t-109 5.5v96h1128z" />
    <glyph glyph-name="ecaron" unicode="&#x11b;" horiz-adv-x="1060" 
d="M906 1450l-228 -318q-46 -64 -114 -64t-114 64l-228 318l66 50l276 -194l276 194zM992 238q-61 -122 -173 -190t-259 -68q-98 0 -187.5 33.5t-158 93.5t-109.5 152t-41 201q0 140 65.5 259.5t182 190t256.5 70.5q105 0 188 -36t134.5 -99.5t78.5 -145.5t27 -177v-48h-626
q9 -151 84 -236.5t200 -85.5q81 0 138 35t114 115zM560 856q-82 0 -130.5 -72t-59.5 -200h338q0 272 -148 272z" />
    <glyph glyph-name="Gcircumflex" unicode="&#x11c;" horiz-adv-x="1484" 
d="M870 1786l260 -318l-58 -54l-316 174l-316 -174l-58 54l260 318q51 62 114 62t114 -62zM982 442q0 25 -10.5 36t-44.5 16.5t-109 5.5v96h646v-96q-75 0 -109 -5.5t-44.5 -16.5t-10.5 -36v-278q-96 -82 -254.5 -133t-299.5 -51q-143 0 -269.5 48t-219.5 132.5t-147 208
t-54 267.5q0 154 62 288.5t162.5 224t227 140.5t256.5 51q199 0 338 -114l68 94h88l22 -472h-88q-82 174 -182 270t-228 96q-166 0 -272 -150t-106 -404q0 -244 104.5 -400t273.5 -156q134 0 200 50v288z" />
    <glyph glyph-name="gcircumflex" unicode="&#x11d;" horiz-adv-x="1146" 
d="M652 1436l228 -318l-66 -50l-276 194l-276 -194l-66 50l228 318q46 64 114 64t114 -64zM1104 -48q0 -117 -80.5 -208t-216.5 -139.5t-303 -48.5q-145 0 -260 30t-181.5 89t-66.5 137q0 73 68 114t184 54q-74 33 -112 80t-38 116q0 74 52.5 130.5t129.5 93.5
q-94 41 -144 112t-50 156q0 128 123.5 220t316.5 92q172 0 294 -80q139 158 246 158q66 0 103 -36t37 -98q0 -54 -34 -87t-84 -33q-31 0 -53.5 13t-32.5 28t-23.5 28t-28.5 13q-32 0 -70 -32q86 -86 86 -186q0 -128 -124 -220t-316 -92q-99 0 -168 20q-86 -44 -86 -102
q0 -27 23 -41.5t61 -14.5h390q171 0 264.5 -65.5t93.5 -200.5zM386 668q0 -105 37.5 -155.5t102.5 -50.5t102.5 50.5t37.5 155.5t-37.5 155.5t-102.5 50.5t-102.5 -50.5t-37.5 -155.5zM682 -52h-370q-88 -33 -88 -116q0 -73 83.5 -112.5t218.5 -39.5q147 0 241.5 42.5
t94.5 121.5q0 104 -180 104z" />
    <glyph glyph-name="Gbreve" unicode="&#x11e;" horiz-adv-x="1484" 
d="M762 1610q90 0 149.5 54.5t84.5 137.5l100 -24q-21 -174 -109.5 -269t-224.5 -95t-224.5 95t-109.5 269l100 24q25 -83 84.5 -137.5t149.5 -54.5zM982 442q0 25 -10.5 36t-44.5 16.5t-109 5.5v96h646v-96q-75 0 -109 -5.5t-44.5 -16.5t-10.5 -36v-278
q-96 -82 -254.5 -133t-299.5 -51q-143 0 -269.5 48t-219.5 132.5t-147 208t-54 267.5q0 154 62 288.5t162.5 224t227 140.5t256.5 51q199 0 338 -114l68 94h88l22 -472h-88q-82 174 -182 270t-228 96q-166 0 -272 -150t-106 -404q0 -244 104.5 -400t273.5 -156q134 0 200 50
v288z" />
    <glyph glyph-name="gbreve" unicode="&#x11f;" horiz-adv-x="1146" 
d="M524 1276q81 0 130 54.5t72 167.5l104 -32q-21 -193 -102 -295.5t-204 -102.5t-204 102.5t-102 295.5l104 32q23 -113 72 -167.5t130 -54.5zM1104 -48q0 -117 -80.5 -208t-216.5 -139.5t-303 -48.5q-145 0 -260 30t-181.5 89t-66.5 137q0 73 68 114t184 54
q-74 33 -112 80t-38 116q0 74 52.5 130.5t129.5 93.5q-94 41 -144 112t-50 156q0 128 123.5 220t316.5 92q172 0 294 -80q139 158 246 158q66 0 103 -36t37 -98q0 -54 -34 -87t-84 -33q-31 0 -53.5 13t-32.5 28t-23.5 28t-28.5 13q-32 0 -70 -32q86 -86 86 -186
q0 -128 -124 -220t-316 -92q-99 0 -168 20q-86 -44 -86 -102q0 -27 23 -41.5t61 -14.5h390q171 0 264.5 -65.5t93.5 -200.5zM386 668q0 -105 37.5 -155.5t102.5 -50.5t102.5 50.5t37.5 155.5t-37.5 155.5t-102.5 50.5t-102.5 -50.5t-37.5 -155.5zM682 -52h-370
q-88 -33 -88 -116q0 -73 83.5 -112.5t218.5 -39.5q147 0 241.5 42.5t94.5 121.5q0 104 -180 104z" />
    <glyph glyph-name="Gdotaccent" unicode="&#x120;" horiz-adv-x="1484" 
d="M584 1600q0 79 53 132.5t131 53.5t131 -53.5t53 -132.5t-53 -132.5t-131 -53.5t-131 53.5t-53 132.5zM982 442q0 25 -10.5 36t-44.5 16.5t-109 5.5v96h646v-96q-75 0 -109 -5.5t-44.5 -16.5t-10.5 -36v-278q-96 -82 -254.5 -133t-299.5 -51q-143 0 -269.5 48
t-219.5 132.5t-147 208t-54 267.5q0 154 62 288.5t162.5 224t227 140.5t256.5 51q199 0 338 -114l68 94h88l22 -472h-88q-82 174 -182 270t-228 96q-166 0 -272 -150t-106 -404q0 -244 104.5 -400t273.5 -156q134 0 200 50v288z" />
    <glyph glyph-name="gdotaccent" unicode="&#x121;" horiz-adv-x="1146" 
d="M360 1290q0 78 51.5 130t128.5 52t128.5 -52t51.5 -130t-51.5 -130t-128.5 -52t-128.5 52t-51.5 130zM1104 -48q0 -117 -80.5 -208t-216.5 -139.5t-303 -48.5q-145 0 -260 30t-181.5 89t-66.5 137q0 73 68 114t184 54q-74 33 -112 80t-38 116q0 74 52.5 130.5t129.5 93.5
q-94 41 -144 112t-50 156q0 128 123.5 220t316.5 92q172 0 294 -80q139 158 246 158q66 0 103 -36t37 -98q0 -54 -34 -87t-84 -33q-31 0 -53.5 13t-32.5 28t-23.5 28t-28.5 13q-32 0 -70 -32q86 -86 86 -186q0 -128 -124 -220t-316 -92q-99 0 -168 20q-86 -44 -86 -102
q0 -27 23 -41.5t61 -14.5h390q171 0 264.5 -65.5t93.5 -200.5zM386 668q0 -105 37.5 -155.5t102.5 -50.5t102.5 50.5t37.5 155.5t-37.5 155.5t-102.5 50.5t-102.5 -50.5t-37.5 -155.5zM682 -52h-370q-88 -33 -88 -116q0 -73 83.5 -112.5t218.5 -39.5q147 0 241.5 42.5
t94.5 121.5q0 104 -180 104z" />
    <glyph glyph-name="uni0122" unicode="&#x122;" horiz-adv-x="1484" 
d="M982 442q0 25 -10.5 36t-44.5 16.5t-109 5.5v96h646v-96q-75 0 -109 -5.5t-44.5 -16.5t-10.5 -36v-278q-96 -82 -254.5 -133t-299.5 -51q-143 0 -269.5 48t-219.5 132.5t-147 208t-54 267.5q0 154 62 288.5t162.5 224t227 140.5t256.5 51q199 0 338 -114l68 94h88
l22 -472h-88q-82 174 -182 270t-228 96q-166 0 -272 -150t-106 -404q0 -244 104.5 -400t273.5 -156q134 0 200 50v288zM736 -346q0 15 -19 24.5t-41 17t-41 33t-19 67.5q0 56 44 93t104 37q74 0 120 -49t46 -127q0 -105 -94.5 -183t-251.5 -81l-18 82q82 3 126 28t44 58z
" />
    <glyph glyph-name="uni0123" unicode="&#x123;" horiz-adv-x="1146" 
d="M556 1340q0 -15 19 -24.5t41 -17t41 -33t19 -67.5q0 -56 -44 -93t-104 -37q-74 0 -120 49t-46 127q0 105 94.5 183t251.5 81l18 -82q-82 -3 -126 -28t-44 -58zM1104 -48q0 -117 -80.5 -208t-216.5 -139.5t-303 -48.5q-145 0 -260 30t-181.5 89t-66.5 137q0 73 68 114
t184 54q-74 33 -112 80t-38 116q0 74 52.5 130.5t129.5 93.5q-94 41 -144 112t-50 156q0 128 123.5 220t316.5 92q172 0 294 -80q139 158 246 158q66 0 103 -36t37 -98q0 -54 -34 -87t-84 -33q-31 0 -53.5 13t-32.5 28t-23.5 28t-28.5 13q-32 0 -70 -32q86 -86 86 -186
q0 -128 -124 -220t-316 -92q-99 0 -168 20q-86 -44 -86 -102q0 -27 23 -41.5t61 -14.5h390q171 0 264.5 -65.5t93.5 -200.5zM386 668q0 -105 37.5 -155.5t102.5 -50.5t102.5 50.5t37.5 155.5t-37.5 155.5t-102.5 50.5t-102.5 -50.5t-37.5 -155.5zM682 -52h-370
q-88 -33 -88 -116q0 -73 83.5 -112.5t218.5 -39.5q147 0 241.5 42.5t94.5 121.5q0 104 -180 104z" />
    <glyph glyph-name="Hcircumflex" unicode="&#x124;" horiz-adv-x="1600" 
d="M914 1786l260 -318l-58 -54l-316 174l-316 -174l-58 54l260 318q51 62 114 62t114 -62zM692 96v-96h-656v96q75 0 109 5.5t44.5 16.5t10.5 36v1012q0 25 -10.5 36t-44.5 16.5t-109 5.5v96h656v-96q-75 0 -109 -5.5t-44.5 -16.5t-10.5 -36v-436h544v436q0 25 -10.5 36
t-44.5 16.5t-109 5.5v96h656v-96q-75 0 -109 -5.5t-44.5 -16.5t-10.5 -36v-1012q0 -25 10.5 -36t44.5 -16.5t109 -5.5v-96h-656v96q75 0 109 5.5t44.5 16.5t10.5 36v460h-544v-460q0 -25 10.5 -36t44.5 -16.5t109 -5.5z" />
    <glyph glyph-name="hcircumflex" unicode="&#x125;" horiz-adv-x="1238" 
d="M704 1946l260 -318l-58 -54l-316 174l-316 -174l-58 54l260 318q51 62 114 62t114 -62zM564 88v-88h-512v88q67 0 84.5 7.5t17.5 36.5v1088q0 31 -10 47.5t-36 30.5l-66 36v60l360 106h60v-704q60 75 146.5 129.5t191.5 54.5q136 0 212 -88t76 -226v-534
q0 -29 17.5 -36.5t84.5 -7.5v-88h-512v88q67 0 84.5 7.5t17.5 36.5v466q0 91 -37 141.5t-113 50.5q-94 0 -168 -74v-584q0 -29 17.5 -36.5t84.5 -7.5z" />
    <glyph glyph-name="Hbar" unicode="&#x126;" horiz-adv-x="1640" 
d="M712 96v-96h-656v96q75 0 109 5.5t44.5 16.5t10.5 36v720h-164v116h164v176q0 25 -10.5 36t-44.5 16.5t-109 5.5v96h656v-96q-75 0 -109 -5.5t-44.5 -16.5t-10.5 -36v-176h544v176q0 25 -10.5 36t-44.5 16.5t-109 5.5v96h656v-96q-75 0 -109 -5.5t-44.5 -16.5t-10.5 -36
v-176h164v-116h-164v-720q0 -25 10.5 -36t44.5 -16.5t109 -5.5v-96h-656v96q75 0 109 5.5t44.5 16.5t10.5 36v400h-544v-400q0 -25 10.5 -36t44.5 -16.5t109 -5.5zM548 670h544v204h-544v-204z" />
    <glyph glyph-name="hbar" unicode="&#x127;" horiz-adv-x="1238" 
d="M564 88v-88h-512v88q67 0 84.5 7.5t17.5 36.5v942h-140v118h140v28q0 31 -10 47.5t-36 30.5l-66 36v60l360 106h60v-308h260v-118h-260v-278q60 75 146.5 129.5t191.5 54.5q136 0 212 -88t76 -226v-534q0 -29 17.5 -36.5t84.5 -7.5v-88h-512v88q67 0 84.5 7.5t17.5 36.5
v466q0 91 -37 141.5t-113 50.5q-94 0 -168 -74v-584q0 -29 17.5 -36.5t84.5 -7.5z" />
    <glyph glyph-name="Itilde" unicode="&#x128;" horiz-adv-x="728" 
d="M240 1748q47 0 100 -28.5t101.5 -57t82.5 -28.5q44 0 73.5 26.5t70.5 91.5l88 -42q-64 -157 -127.5 -223.5t-136.5 -66.5q-47 0 -100.5 28.5t-102 57t-83.5 28.5q-43 0 -73.5 -26.5t-70.5 -91.5l-90 42q63 156 128.5 223t139.5 67zM692 96v-96h-656v96q75 0 109 5.5
t44.5 16.5t10.5 36v1012q0 25 -10.5 36t-44.5 16.5t-109 5.5v96h656v-96q-75 0 -109 -5.5t-44.5 -16.5t-10.5 -36v-1012q0 -25 10.5 -36t44.5 -16.5t109 -5.5z" />
    <glyph glyph-name="itilde" unicode="&#x129;" horiz-adv-x="634" 
d="M208 1426q35 0 68.5 -18t55.5 -39t51 -39t55 -18q41 0 69 26t67 92l82 -42q-59 -155 -118.5 -219.5t-129.5 -64.5q-36 0 -69.5 18t-55.5 39t-51 39t-56 18q-40 0 -68.5 -26.5t-67.5 -91.5l-84 42q59 154 120.5 219t131.5 65zM176 700q0 31 -10 47.5t-36 30.5l-66 36v60
l360 106h60v-848q0 -29 17.5 -36.5t84.5 -7.5v-88h-512v88q67 0 84.5 7.5t17.5 36.5v568z" />
    <glyph glyph-name="Imacron" unicode="&#x12a;" horiz-adv-x="728" 
d="M34 1472v160h660v-160h-660zM692 96v-96h-656v96q75 0 109 5.5t44.5 16.5t10.5 36v1012q0 25 -10.5 36t-44.5 16.5t-109 5.5v96h656v-96q-75 0 -109 -5.5t-44.5 -16.5t-10.5 -36v-1012q0 -25 10.5 -36t44.5 -16.5t109 -5.5z" />
    <glyph glyph-name="imacron" unicode="&#x12b;" horiz-adv-x="634" 
d="M32 1152v160h548v-160h-548zM176 700q0 31 -10 47.5t-36 30.5l-66 36v60l360 106h60v-848q0 -29 17.5 -36.5t84.5 -7.5v-88h-512v88q67 0 84.5 7.5t17.5 36.5v568z" />
    <glyph glyph-name="Ibreve" unicode="&#x12c;" horiz-adv-x="728" 
d="M364 1610q90 0 149.5 54.5t84.5 137.5l100 -24q-21 -174 -109.5 -269t-224.5 -95t-224.5 95t-109.5 269l100 24q25 -83 84.5 -137.5t149.5 -54.5zM692 96v-96h-656v96q75 0 109 5.5t44.5 16.5t10.5 36v1012q0 25 -10.5 36t-44.5 16.5t-109 5.5v96h656v-96
q-75 0 -109 -5.5t-44.5 -16.5t-10.5 -36v-1012q0 -25 10.5 -36t44.5 -16.5t109 -5.5z" />
    <glyph glyph-name="ibreve" unicode="&#x12d;" horiz-adv-x="634" 
d="M306 1276q78 0 118.5 52.5t63.5 169.5l104 -32q-21 -196 -93.5 -297t-192.5 -101t-192.5 101t-93.5 297l104 32q23 -117 63.5 -169.5t118.5 -52.5zM176 700q0 31 -10 47.5t-36 30.5l-66 36v60l360 106h60v-848q0 -29 17.5 -36.5t84.5 -7.5v-88h-512v88q67 0 84.5 7.5
t17.5 36.5v568z" />
    <glyph glyph-name="Iogonek" unicode="&#x12e;" horiz-adv-x="728" 
d="M618 -290q-52 -64 -126.5 -109t-157.5 -45q-82 0 -134 44.5t-52 119.5q0 79 63 150.5t169 129.5h-344v96q75 0 109 5.5t44.5 16.5t10.5 36v1012q0 25 -10.5 36t-44.5 16.5t-109 5.5v96h656v-96q-75 0 -109 -5.5t-44.5 -16.5t-10.5 -36v-1012q0 -25 10.5 -36t44.5 -16.5
t109 -5.5v-96h-144q-81 -33 -144.5 -95t-63.5 -117q0 -38 22 -59t62 -21q65 0 144 70z" />
    <glyph glyph-name="iogonek" unicode="&#x12f;" horiz-adv-x="634" 
d="M150 1290q0 78 51.5 130t128.5 52t128.5 -52t51.5 -130t-51.5 -130t-128.5 -52t-128.5 52t-51.5 130zM534 -290q-52 -64 -126.5 -109t-157.5 -45q-82 0 -134 44.5t-52 119.5q0 79 63 150.5t169 129.5h-222v88q67 0 84.5 7.5t17.5 36.5v568q0 31 -10 47.5t-36 30.5l-66 36
v60l360 106h60v-848q0 -29 17.5 -36.5t84.5 -7.5v-88h-122q-81 -33 -144.5 -95t-63.5 -117q0 -38 22 -59t62 -21q65 0 144 70z" />
    <glyph glyph-name="Idotaccent" unicode="&#x130;" horiz-adv-x="728" 
d="M180 1600q0 79 53 132.5t131 53.5t131 -53.5t53 -132.5t-53 -132.5t-131 -53.5t-131 53.5t-53 132.5zM692 96v-96h-656v96q75 0 109 5.5t44.5 16.5t10.5 36v1012q0 25 -10.5 36t-44.5 16.5t-109 5.5v96h656v-96q-75 0 -109 -5.5t-44.5 -16.5t-10.5 -36v-1012
q0 -25 10.5 -36t44.5 -16.5t109 -5.5z" />
    <glyph glyph-name="dotlessi" unicode="&#x131;" horiz-adv-x="634" 
d="M176 700q0 31 -10 47.5t-36 30.5l-66 36v60l360 106h60v-848q0 -29 17.5 -36.5t84.5 -7.5v-88h-512v88q67 0 84.5 7.5t17.5 36.5v568z" />
    <glyph glyph-name="Jcircumflex" unicode="&#x134;" horiz-adv-x="688" 
d="M450 1786l260 -318l-58 -54l-316 174l-316 -174l-58 54l260 318q51 62 114 62t114 -62zM508 1166v-1086q0 -110 -46 -210t-118 -167.5t-161 -107t-175 -39.5q-101 0 -171.5 45t-70.5 123q0 61 37.5 97.5t90.5 36.5q37 0 67 -17.5t49.5 -42.5t36.5 -50t35 -42.5t38 -17.5
q27 0 43.5 22t16.5 66v1390q0 25 -10.5 36t-44.5 16.5t-109 5.5v96h656v-96q-75 0 -109 -5.5t-44.5 -16.5t-10.5 -36z" />
    <glyph glyph-name="jcircumflex" unicode="&#x135;" horiz-adv-x="606" 
d="M400 1436l208 -318l-66 -50l-256 194l-256 -194l-66 50l208 318q44 66 114 66t114 -66zM168 700q0 31 -10 47.5t-36 30.5l-66 36v60l360 106h60v-970q0 -121 -68 -226.5t-181 -166.5t-241 -61q-88 0 -149 39.5t-61 112.5q0 53 34.5 86.5t85.5 33.5q36 0 63 -15.5
t42.5 -37.5t28.5 -44t28.5 -37.5t35.5 -15.5q74 0 74 126v896z" />
    <glyph glyph-name="uni0136" unicode="&#x136;" horiz-adv-x="1484" 
d="M692 96v-96h-656v96q75 0 109 5.5t44.5 16.5t10.5 36v1012q0 25 -10.5 36t-44.5 16.5t-109 5.5v96h656v-96q-75 0 -109 -5.5t-44.5 -16.5t-10.5 -36v-530l510 502q28 28 28 50q0 23 -32.5 31.5t-133.5 8.5v92h528v-92q-97 0 -132.5 -12t-75.5 -52l-358 -346l498 -660
q23 -30 58.5 -46t109.5 -16v-96h-700v92q86 0 113 6.5t27 31.5q0 16 -24 52l-304 424l-112 -108v-344q0 -25 10.5 -36t44.5 -16.5t109 -5.5zM720 -346q0 15 -19 24.5t-41 17t-41 33t-19 67.5q0 56 44 93t104 37q74 0 120 -49t46 -127q0 -105 -94.5 -183t-251.5 -81l-18 82
q82 3 126 28t44 58z" />
    <glyph glyph-name="uni0137" unicode="&#x137;" horiz-adv-x="1254" 
d="M564 88v-88h-512v88q67 0 84.5 7.5t17.5 36.5v1088q0 31 -10 47.5t-36 30.5l-66 36v60l360 106h60v-1012l378 304q14 10 27 26t13 26q0 18 -24 23t-94 5v88h436v-88q-110 -2 -184 -62l-236 -192l348 -478q22 -31 47 -41.5t83 -10.5v-88h-560v88q48 0 71 6t23 24
q0 16 -20 44l-198 288l-110 -88v-230q0 -29 17.5 -36.5t84.5 -7.5zM540 -346q0 15 -19 24.5t-41 17t-41 33t-19 67.5q0 56 44 93t104 37q74 0 120 -49t46 -127q0 -105 -94.5 -183t-251.5 -81l-18 82q82 3 126 28t44 58z" />
    <glyph glyph-name="kgreenlandic" unicode="&#x138;" horiz-adv-x="1276" 
d="M586 88v-88h-512v88q67 0 84.5 7.5t17.5 36.5v568q0 31 -10 47.5t-36 30.5l-66 36v60l360 106h60v-492l378 304q14 10 27 26t13 26q0 18 -24 23t-94 5v88h436v-88q-110 -2 -184 -62l-236 -192l348 -478q22 -31 47 -41.5t83 -10.5v-88h-560v88q48 0 71 6t23 24
q0 16 -20 44l-198 288l-110 -88v-230q0 -29 17.5 -36.5t84.5 -7.5z" />
    <glyph glyph-name="Lacute" unicode="&#x139;" horiz-adv-x="1260" 
d="M262 1482l234 250q66 72 140 72q57 0 95.5 -43t38.5 -99q0 -44 -28 -81t-86 -55l-350 -112zM1206 498l-42 -498h-1128v96q75 0 109 5.5t44.5 16.5t10.5 36v1012q0 25 -10.5 36t-44.5 16.5t-109 5.5v96h656v-96q-75 0 -109 -5.5t-44.5 -16.5t-10.5 -36v-1058h206
q56 0 94 5.5t73 22.5t59.5 42t50 71.5t47 104t48.5 144.5h100z" />
    <glyph glyph-name="lacute" unicode="&#x13a;" horiz-adv-x="608" 
d="M92 1622l234 250q66 72 140 72q57 0 95.5 -43t38.5 -99q0 -44 -28 -81t-86 -55l-350 -112zM154 1220q0 31 -10 47.5t-36 30.5l-66 36v60l360 106h60v-1368q0 -29 17.5 -36.5t84.5 -7.5v-88h-512v88q67 0 84.5 7.5t17.5 36.5v1088z" />
    <glyph glyph-name="uni013B" unicode="&#x13b;" horiz-adv-x="1260" 
d="M1206 498l-42 -498h-1128v96q75 0 109 5.5t44.5 16.5t10.5 36v1012q0 25 -10.5 36t-44.5 16.5t-109 5.5v96h656v-96q-75 0 -109 -5.5t-44.5 -16.5t-10.5 -36v-1058h206q56 0 94 5.5t73 22.5t59.5 42t50 71.5t47 104t48.5 144.5h100zM634 -346q0 15 -19 24.5t-41 17
t-41 33t-19 67.5q0 56 44 93t104 37q74 0 120 -49t46 -127q0 -105 -94.5 -183t-251.5 -81l-18 82q82 3 126 28t44 58z" />
    <glyph glyph-name="uni013C" unicode="&#x13c;" horiz-adv-x="608" 
d="M154 1220q0 31 -10 47.5t-36 30.5l-66 36v60l360 106h60v-1368q0 -29 17.5 -36.5t84.5 -7.5v-88h-512v88q67 0 84.5 7.5t17.5 36.5v1088zM284 -346q0 15 -19 24.5t-41 17t-41 33t-19 67.5q0 56 44 93t104 37q74 0 120 -49t46 -127q0 -105 -94.5 -183t-251.5 -81l-18 82
q82 3 126 28t44 58z" />
    <glyph glyph-name="Lcaron" unicode="&#x13d;" horiz-adv-x="1260" 
d="M812 1166q3 85 43 129.5t93 44.5q48 0 83 -35t35 -93q0 -46 -22 -96l-164 -354l-80 12zM1206 498l-42 -498h-1128v96q75 0 109 5.5t44.5 16.5t10.5 36v1012q0 25 -10.5 36t-44.5 16.5t-109 5.5v96h656v-96q-75 0 -109 -5.5t-44.5 -16.5t-10.5 -36v-1058h206q56 0 94 5.5
t73 22.5t59.5 42t50 71.5t47 104t48.5 144.5h100z" />
    <glyph glyph-name="lcaron" unicode="&#x13e;" horiz-adv-x="940" 
d="M154 1220q0 31 -10 47.5t-36 30.5l-66 36v60l360 106h60v-1368q0 -29 17.5 -36.5t84.5 -7.5v-88h-512v88q67 0 84.5 7.5t17.5 36.5v1088zM646 1326q3 85 43 129.5t93 44.5q48 0 83 -35t35 -93q0 -46 -22 -96l-164 -354l-80 12z" />
    <glyph glyph-name="Ldot" unicode="&#x13f;" horiz-adv-x="1260" 
d="M1206 498l-42 -498h-1128v96q75 0 109 5.5t44.5 16.5t10.5 36v1012q0 25 -10.5 36t-44.5 16.5t-109 5.5v96h656v-96q-75 0 -109 -5.5t-44.5 -16.5t-10.5 -36v-1058h206q56 0 94 5.5t73 22.5t59.5 42t50 71.5t47 104t48.5 144.5h100zM746 774q0 78 51.5 130t128.5 52
t128.5 -52t51.5 -130t-51.5 -130t-128.5 -52t-128.5 52t-51.5 130z" />
    <glyph glyph-name="ldot" unicode="&#x140;" horiz-adv-x="978" 
d="M154 1220q0 31 -10 47.5t-36 30.5l-66 36v60l360 106h60v-1368q0 -29 17.5 -36.5t84.5 -7.5v-88h-512v88q67 0 84.5 7.5t17.5 36.5v1088zM596 670q0 78 51.5 130t128.5 52t128.5 -52t51.5 -130t-51.5 -130t-128.5 -52t-128.5 52t-51.5 130z" />
    <glyph glyph-name="Lslash" unicode="&#x141;" horiz-adv-x="1280" 
d="M1226 498l-42 -498h-1128v96q75 0 109 5.5t44.5 16.5t10.5 36v310l-160 -74v130l160 74v572q0 25 -10.5 36t-44.5 16.5t-109 5.5v96h656v-96q-75 0 -109 -5.5t-44.5 -16.5t-10.5 -36v-422l294 136v-130l-294 -136v-506h206q56 0 94 5.5t73 22.5t59.5 42t50 71.5t47 104
t48.5 144.5h100z" />
    <glyph glyph-name="lslash" unicode="&#x142;" horiz-adv-x="708" 
d="M610 88v-88h-512v88q67 0 84.5 7.5t17.5 36.5v420l-160 -100v136l160 100v532q0 31 -10 47.5t-36 30.5l-66 36v60l360 106h60v-620l160 100v-136l-160 -100v-612q0 -29 17.5 -36.5t84.5 -7.5z" />
    <glyph glyph-name="Nacute" unicode="&#x143;" horiz-adv-x="1466" 
d="M568 1482l234 250q66 72 140 72q57 0 95.5 -43t38.5 -99q0 -44 -28 -81t-86 -55l-350 -112zM1148 1166q0 25 -11 36t-49.5 16.5t-123.5 5.5v96h504v-96q-85 0 -123.5 -5.5t-49.5 -16.5t-11 -36v-1166h-148l-792 1076h-8v-922q0 -25 11 -36t49.5 -16.5t123.5 -5.5v-96
h-504v96q85 0 123.5 5.5t49.5 16.5t11 36v1012q0 25 -11 36t-49.5 16.5t-123.5 5.5v96h558l566 -802h8v648z" />
    <glyph glyph-name="nacute" unicode="&#x144;" horiz-adv-x="1260" 
d="M494 1124l160 274q61 102 146 102q54 0 94 -39.5t40 -90.5q0 -79 -90 -132l-292 -170zM586 88v-88h-512v88q67 0 84.5 7.5t17.5 36.5v568q0 31 -10 47.5t-36 30.5l-66 36v60l360 106h60v-184q60 75 146.5 129.5t191.5 54.5q136 0 212 -88t76 -226v-534q0 -29 17.5 -36.5
t84.5 -7.5v-88h-512v88q67 0 84.5 7.5t17.5 36.5v466q0 91 -37 141.5t-113 50.5q-94 0 -168 -74v-584q0 -29 17.5 -36.5t84.5 -7.5z" />
    <glyph glyph-name="uni0145" unicode="&#x145;" horiz-adv-x="1466" 
d="M1148 1166q0 25 -11 36t-49.5 16.5t-123.5 5.5v96h504v-96q-85 0 -123.5 -5.5t-49.5 -16.5t-11 -36v-1166h-148l-792 1076h-8v-922q0 -25 11 -36t49.5 -16.5t123.5 -5.5v-96h-504v96q85 0 123.5 5.5t49.5 16.5t11 36v1012q0 25 -11 36t-49.5 16.5t-123.5 5.5v96h558
l566 -802h8v648zM780 -346q0 15 -19 24.5t-41 17t-41 33t-19 67.5q0 56 44 93t104 37q74 0 120 -49t46 -127q0 -105 -94.5 -183t-251.5 -81l-18 82q82 3 126 28t44 58z" />
    <glyph glyph-name="uni0146" unicode="&#x146;" horiz-adv-x="1260" 
d="M586 88v-88h-512v88q67 0 84.5 7.5t17.5 36.5v568q0 31 -10 47.5t-36 30.5l-66 36v60l360 106h60v-184q60 75 146.5 129.5t191.5 54.5q136 0 212 -88t76 -226v-534q0 -29 17.5 -36.5t84.5 -7.5v-88h-512v88q67 0 84.5 7.5t17.5 36.5v466q0 91 -37 141.5t-113 50.5
q-94 0 -168 -74v-584q0 -29 17.5 -36.5t84.5 -7.5zM600 -346q0 15 -19 24.5t-41 17t-41 33t-19 67.5q0 56 44 93t104 37q74 0 120 -49t46 -127q0 -105 -94.5 -183t-251.5 -81l-18 82q82 3 126 28t44 58z" />
    <glyph glyph-name="Ncaron" unicode="&#x147;" horiz-adv-x="1466" 
d="M1120 1762l-260 -318q-51 -62 -114 -62t-114 62l-260 318l58 54l316 -174l316 174zM1148 1166q0 25 -11 36t-49.5 16.5t-123.5 5.5v96h504v-96q-85 0 -123.5 -5.5t-49.5 -16.5t-11 -36v-1166h-148l-792 1076h-8v-922q0 -25 11 -36t49.5 -16.5t123.5 -5.5v-96h-504v96
q85 0 123.5 5.5t49.5 16.5t11 36v1012q0 25 -11 36t-49.5 16.5t-123.5 5.5v96h558l566 -802h8v648z" />
    <glyph glyph-name="ncaron" unicode="&#x148;" horiz-adv-x="1260" 
d="M940 1450l-228 -318q-46 -64 -114 -64t-114 64l-228 318l66 50l276 -194l276 194zM586 88v-88h-512v88q67 0 84.5 7.5t17.5 36.5v568q0 31 -10 47.5t-36 30.5l-66 36v60l360 106h60v-184q60 75 146.5 129.5t191.5 54.5q136 0 212 -88t76 -226v-534q0 -29 17.5 -36.5
t84.5 -7.5v-88h-512v88q67 0 84.5 7.5t17.5 36.5v466q0 91 -37 141.5t-113 50.5q-94 0 -168 -74v-584q0 -29 17.5 -36.5t84.5 -7.5z" />
    <glyph glyph-name="Eng" unicode="&#x14a;" horiz-adv-x="1466" 
d="M1148 -90v86l-804 1080h-8v-922q0 -25 11 -36t49.5 -16.5t123.5 -5.5v-96h-504v96q85 0 123.5 5.5t49.5 16.5t11 36v1012q0 25 -11 36t-49.5 16.5t-123.5 5.5v96h558l566 -802h8v648q0 25 -11 36t-49.5 16.5t-123.5 5.5v96h504v-96q-85 0 -123.5 -5.5t-49.5 -16.5
t-11 -36v-1212q0 -96 -33 -174.5t-86 -126t-116 -72.5t-127 -25q-98 0 -160 42t-62 110q0 58 37 89t81 31q36 0 63.5 -15.5t44 -37.5t30 -44t30.5 -37.5t38 -15.5q51 0 87.5 65t36.5 167z" />
    <glyph glyph-name="eng" unicode="&#x14b;" horiz-adv-x="1240" 
d="M1110 10q0 -121 -68 -226.5t-181 -166.5t-241 -61q-88 0 -149 39.5t-61 112.5q0 53 34.5 86.5t85.5 33.5q36 0 63 -15.5t42.5 -37.5t28.5 -44t28.5 -37.5t35.5 -15.5q74 0 74 126v794q0 91 -37 141.5t-113 50.5q-94 0 -168 -74v-584q0 -29 17.5 -36.5t84.5 -7.5v-88h-512
v88q67 0 84.5 7.5t17.5 36.5v568q0 31 -10 47.5t-36 30.5l-66 36v60l360 106h60v-184q60 75 146.5 129.5t191.5 54.5q136 0 212 -88t76 -226v-656z" />
    <glyph glyph-name="Omacron" unicode="&#x14c;" horiz-adv-x="1476" 
d="M408 1472v160h660v-160h-660zM1420 660q0 -145 -56 -273t-149 -216.5t-217.5 -139.5t-259.5 -51t-259.5 51t-217.5 139.5t-149 216.5t-56 273t56 273t149 216.5t217.5 139.5t259.5 51t259.5 -51t217.5 -139.5t149 -216.5t56 -273zM1072 660q0 160 -36 282.5t-112.5 196
t-185.5 73.5t-185.5 -73.5t-112.5 -196t-36 -282.5t36 -282.5t112.5 -196t185.5 -73.5t185.5 73.5t112.5 196t36 282.5z" />
    <glyph glyph-name="omacron" unicode="&#x14d;" horiz-adv-x="1156" 
d="M284 1152v160h588v-160h-588zM64 480q0 141 69 256t186.5 179.5t258.5 64.5t258.5 -64.5t186.5 -179.5t69 -256t-69 -256t-186.5 -179.5t-258.5 -64.5t-258.5 64.5t-186.5 179.5t-69 256zM766 480q0 183 -49 281.5t-139 98.5t-139 -98.5t-49 -281.5t49 -281.5t139 -98.5
t139 98.5t49 281.5z" />
    <glyph glyph-name="Obreve" unicode="&#x14e;" horiz-adv-x="1476" 
d="M738 1610q90 0 149.5 54.5t84.5 137.5l100 -24q-21 -174 -109.5 -269t-224.5 -95t-224.5 95t-109.5 269l100 24q25 -83 84.5 -137.5t149.5 -54.5zM1420 660q0 -145 -56 -273t-149 -216.5t-217.5 -139.5t-259.5 -51t-259.5 51t-217.5 139.5t-149 216.5t-56 273t56 273
t149 216.5t217.5 139.5t259.5 51t259.5 -51t217.5 -139.5t149 -216.5t56 -273zM1072 660q0 160 -36 282.5t-112.5 196t-185.5 73.5t-185.5 -73.5t-112.5 -196t-36 -282.5t36 -282.5t112.5 -196t185.5 -73.5t185.5 73.5t112.5 196t36 282.5z" />
    <glyph glyph-name="obreve" unicode="&#x14f;" horiz-adv-x="1156" 
d="M578 1276q81 0 130 54.5t72 167.5l104 -32q-21 -193 -102 -295.5t-204 -102.5t-204 102.5t-102 295.5l104 32q23 -113 72 -167.5t130 -54.5zM64 480q0 141 69 256t186.5 179.5t258.5 64.5t258.5 -64.5t186.5 -179.5t69 -256t-69 -256t-186.5 -179.5t-258.5 -64.5
t-258.5 64.5t-186.5 179.5t-69 256zM766 480q0 183 -49 281.5t-139 98.5t-139 -98.5t-49 -281.5t49 -281.5t139 -98.5t139 98.5t49 281.5z" />
    <glyph glyph-name="Ohungarumlaut" unicode="&#x150;" horiz-adv-x="1476" 
d="M536 1692q55 112 146 112q50 0 86 -35.5t36 -84.5q0 -78 -94 -136l-230 -136l-60 52zM936 1692q55 112 146 112q50 0 86 -35.5t36 -84.5q0 -78 -94 -136l-230 -136l-60 52zM1420 660q0 -145 -56 -273t-149 -216.5t-217.5 -139.5t-259.5 -51t-259.5 51t-217.5 139.5
t-149 216.5t-56 273t56 273t149 216.5t217.5 139.5t259.5 51t259.5 -51t217.5 -139.5t149 -216.5t56 -273zM1072 660q0 160 -36 282.5t-112.5 196t-185.5 73.5t-185.5 -73.5t-112.5 -196t-36 -282.5t36 -282.5t112.5 -196t185.5 -73.5t185.5 73.5t112.5 196t36 282.5z" />
    <glyph glyph-name="ohungarumlaut" unicode="&#x151;" horiz-adv-x="1156" 
d="M382 1358q20 74 58 109t84 35q48 0 84 -36t36 -88q0 -68 -64 -126l-196 -180l-70 40zM740 1358q20 74 58 109t84 35q48 0 84 -36t36 -88q0 -68 -64 -126l-196 -180l-70 40zM64 480q0 141 69 256t186.5 179.5t258.5 64.5t258.5 -64.5t186.5 -179.5t69 -256t-69 -256
t-186.5 -179.5t-258.5 -64.5t-258.5 64.5t-186.5 179.5t-69 256zM766 480q0 183 -49 281.5t-139 98.5t-139 -98.5t-49 -281.5t49 -281.5t139 -98.5t139 98.5t49 281.5z" />
    <glyph glyph-name="OE" unicode="&#x152;" horiz-adv-x="2076" 
d="M894 0q-391 0 -614.5 168t-223.5 468q0 151 58 277.5t164.5 216.5t263.5 140t348 50h1020l18 -474h-96q-51 183 -75 235q-41 90 -111 116q-40 15 -96 15h-276v-484h86q49 0 75 1t51 10t35 18.5t20.5 37t14.5 55t10 82.5h92v-516h-84q-7 54 -11.5 83t-16 55.5t-22 37
t-36.5 18.5t-52 9t-76 1h-86v-512h266q56 0 94 5.5t73 22.5t59.5 42t50 71.5t47 104t48.5 144.5h100l-42 -498h-1076zM946 1212h-98q-200 0 -323 -149t-123 -411q0 -264 123.5 -404t328.5 -140h92v1104z" />
    <glyph glyph-name="oe" unicode="&#x153;" horiz-adv-x="1794" 
d="M1726 238q-61 -122 -173 -190t-259 -68q-102 0 -194.5 41t-161.5 117q-70 -75 -163.5 -116.5t-196.5 -41.5q-141 0 -258.5 64.5t-186.5 179.5t-69 256t69 256t186.5 179.5t258.5 64.5q109 0 204 -43.5t166 -124.5q140 168 354 168q105 0 188 -36t134.5 -99.5t78.5 -145.5
t27 -177v-48h-626q9 -151 84 -236.5t200 -85.5q81 0 138 35t114 115zM766 480q0 183 -49 281.5t-139 98.5t-139 -98.5t-49 -281.5t49 -281.5t139 -98.5t139 98.5t49 281.5zM1294 856q-82 0 -130.5 -72t-59.5 -200h338q0 272 -148 272z" />
    <glyph glyph-name="Racute" unicode="&#x154;" horiz-adv-x="1430" 
d="M502 1482l234 250q66 72 140 72q57 0 95.5 -43t38.5 -99q0 -44 -28 -81t-86 -55l-350 -112zM692 96v-96h-656v96q75 0 109 5.5t44.5 16.5t10.5 36v1012q0 25 -10.5 36t-44.5 16.5t-109 5.5v96h722q122 0 219.5 -20.5t171 -62.5t113.5 -110.5t40 -160.5q0 -128 -91.5 -214
t-244.5 -126l296 -426q40 -58 74.5 -80t85.5 -24l60 -2v-94h-470l-320 544q-18 30 -38 41t-56 11h-70v-442q0 -25 10.5 -36t44.5 -16.5t109 -5.5zM528 704h142q58 0 109 14t94 43t68 79.5t25 117.5t-25 117.5t-68 79.5t-94 43t-109 14h-142v-508z" />
    <glyph glyph-name="racute" unicode="&#x155;" horiz-adv-x="946" 
d="M376 1124l160 274q61 102 146 102q54 0 94 -39.5t40 -90.5q0 -79 -90 -132l-292 -170zM646 88v-88h-572v88q67 0 84.5 7.5t17.5 36.5v568q0 31 -10 47.5t-36 30.5l-66 36v60l360 106h60v-260q158 260 294 260q77 0 122.5 -46t45.5 -124q0 -70 -45 -112t-97 -42
q-31 0 -56 12t-38.5 27t-30.5 27t-35 12q-34 0 -83.5 -38.5t-76.5 -85.5v-478q0 -29 28 -36.5t134 -7.5z" />
    <glyph glyph-name="uni0156" unicode="&#x156;" horiz-adv-x="1430" 
d="M692 96v-96h-656v96q75 0 109 5.5t44.5 16.5t10.5 36v1012q0 25 -10.5 36t-44.5 16.5t-109 5.5v96h722q122 0 219.5 -20.5t171 -62.5t113.5 -110.5t40 -160.5q0 -128 -91.5 -214t-244.5 -126l296 -426q40 -58 74.5 -80t85.5 -24l60 -2v-94h-470l-320 544q-18 30 -38 41
t-56 11h-70v-442q0 -25 10.5 -36t44.5 -16.5t109 -5.5zM528 704h142q58 0 109 14t94 43t68 79.5t25 117.5t-25 117.5t-68 79.5t-94 43t-109 14h-142v-508zM754 -346q0 15 -19 24.5t-41 17t-41 33t-19 67.5q0 56 44 93t104 37q74 0 120 -49t46 -127q0 -105 -94.5 -183
t-251.5 -81l-18 82q82 3 126 28t44 58z" />
    <glyph glyph-name="uni0157" unicode="&#x157;" horiz-adv-x="946" 
d="M646 88v-88h-572v88q67 0 84.5 7.5t17.5 36.5v568q0 31 -10 47.5t-36 30.5l-66 36v60l360 106h60v-260q158 260 294 260q77 0 122.5 -46t45.5 -124q0 -70 -45 -112t-97 -42q-31 0 -56 12t-38.5 27t-30.5 27t-35 12q-34 0 -83.5 -38.5t-76.5 -85.5v-478q0 -29 28 -36.5
t134 -7.5zM300 -346q0 15 -19 24.5t-41 17t-41 33t-19 67.5q0 56 44 93t104 37q74 0 120 -49t46 -127q0 -105 -94.5 -183t-251.5 -81l-18 82q82 3 126 28t44 58z" />
    <glyph glyph-name="Rcaron" unicode="&#x158;" horiz-adv-x="1430" 
d="M1046 1762l-260 -318q-51 -62 -114 -62t-114 62l-260 318l58 54l316 -174l316 174zM692 96v-96h-656v96q75 0 109 5.5t44.5 16.5t10.5 36v1012q0 25 -10.5 36t-44.5 16.5t-109 5.5v96h722q122 0 219.5 -20.5t171 -62.5t113.5 -110.5t40 -160.5q0 -128 -91.5 -214
t-244.5 -126l296 -426q40 -58 74.5 -80t85.5 -24l60 -2v-94h-470l-320 544q-18 30 -38 41t-56 11h-70v-442q0 -25 10.5 -36t44.5 -16.5t109 -5.5zM528 704h142q58 0 109 14t94 43t68 79.5t25 117.5t-25 117.5t-68 79.5t-94 43t-109 14h-142v-508z" />
    <glyph glyph-name="rcaron" unicode="&#x159;" horiz-adv-x="946" 
d="M860 1450l-228 -318q-46 -64 -113.5 -64t-114.5 64l-228 318l66 50l276 -194l276 194zM646 88v-88h-572v88q67 0 84.5 7.5t17.5 36.5v568q0 31 -10 47.5t-36 30.5l-66 36v60l360 106h60v-260q158 260 294 260q77 0 122.5 -46t45.5 -124q0 -70 -45 -112t-97 -42
q-31 0 -56 12t-38.5 27t-30.5 27t-35 12q-34 0 -83.5 -38.5t-76.5 -85.5v-478q0 -29 28 -36.5t134 -7.5z" />
    <glyph glyph-name="Sacute" unicode="&#x15a;" horiz-adv-x="1240" 
d="M448 1482l234 250q66 72 140 72q57 0 95.5 -43t38.5 -99q0 -44 -28 -81t-86 -55l-350 -112zM1058 1320l22 -472h-88q-74 179 -169 273.5t-237 94.5q-93 0 -146.5 -49.5t-53.5 -128.5q0 -44 26 -78.5t70 -58t101.5 -43.5t120.5 -39t126 -41t120.5 -53.5t101.5 -71.5
t70 -100t26 -135q0 -130 -74.5 -232.5t-188.5 -154t-241 -51.5q-117 0 -202 31.5t-166 90.5l-62 -102h-86l-46 498h100q32 -104 85 -182t116 -122.5t128 -66t131 -21.5q102 0 166 49.5t64 140.5q0 46 -25.5 81.5t-69 59.5t-100 44t-119 39t-125 40.5t-119 53.5t-100 72.5
t-69 102.5t-25.5 139q0 172 128.5 292t329.5 120q95 0 169.5 -29t152.5 -85l70 94h88z" />
    <glyph glyph-name="sacute" unicode="&#x15b;" horiz-adv-x="948" 
d="M338 1124l160 274q61 102 146 102q54 0 94 -39.5t40 -90.5q0 -79 -90 -132l-292 -170zM500 868q-58 0 -96 -32t-38 -86q0 -39 28.5 -65t74.5 -40.5t101.5 -27.5t111 -33.5t101.5 -50t74.5 -84.5t28.5 -131q0 -149 -129 -243.5t-311 -94.5q-202 0 -354 88l-24 256h96
q45 -129 118 -180.5t176 -51.5q68 0 117 33.5t49 88.5q0 35 -18 60t-48 40.5t-69.5 27.5t-83 23t-87 24t-83 35t-69.5 51.5t-48 76.5t-18 108q0 133 116.5 226.5t293.5 93.5q166 0 300 -70v-236h-88q-23 97 -81 145.5t-141 48.5z" />
    <glyph glyph-name="Scircumflex" unicode="&#x15c;" horiz-adv-x="1240" 
d="M712 1786l260 -318l-58 -54l-316 174l-316 -174l-58 54l260 318q51 62 114 62t114 -62zM1058 1320l22 -472h-88q-74 179 -169 273.5t-237 94.5q-93 0 -146.5 -49.5t-53.5 -128.5q0 -44 26 -78.5t70 -58t101.5 -43.5t120.5 -39t126 -41t120.5 -53.5t101.5 -71.5t70 -100
t26 -135q0 -130 -74.5 -232.5t-188.5 -154t-241 -51.5q-117 0 -202 31.5t-166 90.5l-62 -102h-86l-46 498h100q32 -104 85 -182t116 -122.5t128 -66t131 -21.5q102 0 166 49.5t64 140.5q0 46 -25.5 81.5t-69 59.5t-100 44t-119 39t-125 40.5t-119 53.5t-100 72.5t-69 102.5
t-25.5 139q0 172 128.5 292t329.5 120q95 0 169.5 -29t152.5 -85l70 94h88z" />
    <glyph glyph-name="scircumflex" unicode="&#x15d;" horiz-adv-x="948" 
d="M612 1436l228 -318l-66 -50l-276 194l-276 -194l-66 50l228 318q47 64 114.5 64t113.5 -64zM500 868q-58 0 -96 -32t-38 -86q0 -39 28.5 -65t74.5 -40.5t101.5 -27.5t111 -33.5t101.5 -50t74.5 -84.5t28.5 -131q0 -149 -129 -243.5t-311 -94.5q-202 0 -354 88l-24 256h96
q45 -129 118 -180.5t176 -51.5q68 0 117 33.5t49 88.5q0 35 -18 60t-48 40.5t-69.5 27.5t-83 23t-87 24t-83 35t-69.5 51.5t-48 76.5t-18 108q0 133 116.5 226.5t293.5 93.5q166 0 300 -70v-236h-88q-23 97 -81 145.5t-141 48.5z" />
    <glyph glyph-name="uni015E" unicode="&#x15e;" horiz-adv-x="1240" 
d="M782 -252q0 -79 -62.5 -135.5t-165 -72t-234.5 15.5l18 88q94 -23 165 -3.5t71 71.5q0 42 -37.5 59t-118.5 25l88 198q-115 25 -230 108l-62 -102h-86l-46 498h100q32 -104 85 -182t116 -122.5t128 -66t131 -21.5q102 0 166 49.5t64 140.5q0 46 -25.5 81.5t-69 59.5
t-100 44t-119 39t-125 40.5t-119 53.5t-100 72.5t-69 102.5t-25.5 139q0 172 128.5 292t329.5 120q95 0 169.5 -29t152.5 -85l70 94h88l22 -472h-88q-74 179 -169 273.5t-237 94.5q-93 0 -146.5 -49.5t-53.5 -128.5q0 -44 26 -78.5t70 -58t101.5 -43.5t120.5 -39t126 -41
t120.5 -53.5t101.5 -71.5t70 -100t26 -135q0 -130 -74.5 -232.5t-188.5 -154t-241 -51.5q-36 0 -54 2l-26 -64q93 -11 155.5 -55.5t62.5 -114.5z" />
    <glyph glyph-name="uni015F" unicode="&#x15f;" horiz-adv-x="948" 
d="M648 -252q0 -79 -62.5 -135.5t-165 -72t-234.5 15.5l18 88q94 -23 165 -3.5t71 71.5q0 42 -37.5 59t-118.5 25l84 188q-151 13 -276 84l-24 256h96q45 -129 118 -180.5t176 -51.5q68 0 117 33.5t49 88.5q0 35 -18 60t-48 40.5t-69.5 27.5t-83 23t-87 24t-83 35
t-69.5 51.5t-48 76.5t-18 108q0 133 116.5 226.5t293.5 93.5q166 0 300 -70v-236h-88q-23 97 -81 145.5t-141 48.5q-58 0 -96 -32t-38 -86q0 -39 28.5 -65t74.5 -40.5t101.5 -27.5t111 -33.5t101.5 -50t74.5 -84.5t28.5 -131q0 -99 -60.5 -177.5t-158 -119.5t-211.5 -41
l-26 -62q93 -11 155.5 -55.5t62.5 -114.5z" />
    <glyph glyph-name="Scaron" unicode="&#x160;" horiz-adv-x="1240" 
d="M972 1762l-260 -318q-51 -62 -114 -62t-114 62l-260 318l58 54l316 -174l316 174zM1058 1320l22 -472h-88q-74 179 -169 273.5t-237 94.5q-93 0 -146.5 -49.5t-53.5 -128.5q0 -44 26 -78.5t70 -58t101.5 -43.5t120.5 -39t126 -41t120.5 -53.5t101.5 -71.5t70 -100
t26 -135q0 -130 -74.5 -232.5t-188.5 -154t-241 -51.5q-117 0 -202 31.5t-166 90.5l-62 -102h-86l-46 498h100q32 -104 85 -182t116 -122.5t128 -66t131 -21.5q102 0 166 49.5t64 140.5q0 46 -25.5 81.5t-69 59.5t-100 44t-119 39t-125 40.5t-119 53.5t-100 72.5t-69 102.5
t-25.5 139q0 172 128.5 292t329.5 120q95 0 169.5 -29t152.5 -85l70 94h88z" />
    <glyph glyph-name="scaron" unicode="&#x161;" horiz-adv-x="948" 
d="M820 1450l-228 -318q-46 -64 -113.5 -64t-114.5 64l-228 318l66 50l276 -194l276 194zM500 868q-58 0 -96 -32t-38 -86q0 -39 28.5 -65t74.5 -40.5t101.5 -27.5t111 -33.5t101.5 -50t74.5 -84.5t28.5 -131q0 -149 -129 -243.5t-311 -94.5q-202 0 -354 88l-24 256h96
q45 -129 118 -180.5t176 -51.5q68 0 117 33.5t49 88.5q0 35 -18 60t-48 40.5t-69.5 27.5t-83 23t-87 24t-83 35t-69.5 51.5t-48 76.5t-18 108q0 133 116.5 226.5t293.5 93.5q166 0 300 -70v-236h-88q-23 97 -81 145.5t-141 48.5z" />
    <glyph glyph-name="Tcommaaccent" unicode="&#x162;" horiz-adv-x="1440" 
d="M928 -252q0 -79 -62.5 -135.5t-165 -72t-234.5 15.5l18 88q94 -23 165 -3.5t71 71.5q0 42 -37.5 59t-118.5 25l90 204h-302v96h54q68 0 100 6t41 17t9 35v1058h-124q-54 0 -92 -14t-63 -36t-46 -67.5t-35 -89.5t-36 -122q-2 -8 -3 -12.5t-3 -11.5t-4 -13h-96l18 474h1296
l18 -474h-96q-51 181 -71 228q-40 92 -106 120q-42 18 -105 18h-124v-1058q0 -24 9 -35t41 -17t100 -6h54v-96h-344l-34 -82q93 -11 155.5 -55.5t62.5 -114.5z" />
    <glyph glyph-name="tcommaaccent" unicode="&#x163;" horiz-adv-x="790" 
d="M632 -252q0 -79 -62.5 -135.5t-165 -72t-234.5 15.5l18 88q94 -23 165 -3.5t71 71.5q0 42 -37.5 59t-118.5 25l84 190q-100 18 -160 83t-60 165v608h-126v118h126v248l308 90v-338h284v-118h-284v-566q0 -63 32 -95.5t88 -32.5q40 0 76.5 19.5t83.5 66.5l70 -80
q-77 -85 -159 -129.5t-191 -44.5l-26 -62q93 -11 155.5 -55.5t62.5 -114.5z" />
    <glyph glyph-name="Tcaron" unicode="&#x164;" horiz-adv-x="1440" 
d="M1094 1762l-260 -318q-51 -62 -114 -62t-114 62l-260 318l58 54l316 -174l316 174zM1088 0h-736v96h54q68 0 100 6t41 17t9 35v1058h-124q-54 0 -92 -14t-63 -36t-46 -67.5t-35 -89.5t-36 -122q-2 -8 -3 -12.5t-3 -11.5t-4 -13h-96l18 474h1296l18 -474h-96
q-51 181 -71 228q-40 92 -106 120q-42 18 -105 18h-124v-1058q0 -24 9 -35t41 -17t100 -6h54v-96z" />
    <glyph glyph-name="tcaron" unicode="&#x165;" horiz-adv-x="790" 
d="M568 1466q3 85 43 129.5t93 44.5q48 0 83 -35t35 -93q0 -46 -22 -96l-164 -354l-80 12zM790 154q-77 -86 -161 -130t-199 -44q-131 0 -214.5 67.5t-83.5 186.5v608h-126v118h126v248l308 90v-338h284v-118h-284v-566q0 -63 32 -95.5t88 -32.5q40 0 76.5 19.5t83.5 66.5z
" />
    <glyph glyph-name="Tbar" unicode="&#x166;" horiz-adv-x="1440" 
d="M1088 96v-96h-736v96h54q68 0 100 6t41 17t9 35v460h-220v116h220v482h-124q-54 0 -92 -14t-63 -36t-46 -67.5t-35 -89.5t-36 -122q-2 -8 -3 -12.5t-3 -11.5t-4 -13h-96l18 474h1296l18 -474h-96q-51 181 -71 228q-40 92 -106 120q-42 18 -105 18h-124v-482h220v-116
h-220v-460q0 -24 9 -35t41 -17t100 -6h54z" />
    <glyph glyph-name="tbar" unicode="&#x167;" horiz-adv-x="834" 
d="M814 154q-77 -86 -161 -130t-199 -44q-131 0 -214.5 67.5t-83.5 186.5v298h-126v118h126v192h-126v118h126v248l308 90v-338h284v-118h-284v-192h284v-118h-284v-256q0 -63 32 -95.5t88 -32.5q40 0 76.5 19.5t83.5 66.5z" />
    <glyph glyph-name="Utilde" unicode="&#x168;" horiz-adv-x="1438" 
d="M666 1748q47 0 100 -28.5t101.5 -57t82.5 -28.5q44 0 73.5 26.5t70.5 91.5l88 -42q-64 -157 -127.5 -223.5t-136.5 -66.5q-47 0 -100.5 28.5t-102 57t-83.5 28.5q-43 0 -73.5 -26.5t-70.5 -91.5l-90 42q63 156 128.5 223t139.5 67zM1122 1166q0 25 -11 36t-49.5 16.5
t-123.5 5.5v96h504v-96q-85 0 -123.5 -5.5t-49.5 -16.5t-11 -36v-690q0 -153 -73 -267.5t-190 -171.5t-257 -57q-258 0 -408 130t-150 362v694q0 25 -10.5 36t-44.5 16.5t-109 5.5v96h656v-96q-75 0 -109 -5.5t-44.5 -16.5t-10.5 -36v-666q0 -194 74.5 -282t225.5 -88
q141 0 227.5 97.5t86.5 272.5v666z" />
    <glyph glyph-name="utilde" unicode="&#x169;" horiz-adv-x="1218" 
d="M474 1426q44 0 94.5 -28.5t96.5 -57t79 -28.5q41 0 69 26t67 92l82 -42q-59 -155 -118.5 -219.5t-129.5 -64.5q-45 0 -95.5 28.5t-97 57t-79.5 28.5q-40 0 -68.5 -26.5t-67.5 -91.5l-84 42q59 154 120.5 219t131.5 65zM1180 46l-360 -66h-60v176q-55 -75 -139 -125.5
t-187 -50.5q-136 0 -211 87.5t-75 226.5v470q0 64 -46 78l-76 22v74l370 26h60v-602q0 -192 144 -192q96 0 160 70v524q0 64 -46 78l-76 22v74l370 26h60v-744q0 -31 10 -47.5t36 -30.5l66 -36v-60z" />
    <glyph glyph-name="Umacron" unicode="&#x16a;" horiz-adv-x="1438" 
d="M440 1472v160h660v-160h-660zM1122 1166q0 25 -11 36t-49.5 16.5t-123.5 5.5v96h504v-96q-85 0 -123.5 -5.5t-49.5 -16.5t-11 -36v-690q0 -153 -73 -267.5t-190 -171.5t-257 -57q-258 0 -408 130t-150 362v694q0 25 -10.5 36t-44.5 16.5t-109 5.5v96h656v-96
q-75 0 -109 -5.5t-44.5 -16.5t-10.5 -36v-666q0 -194 74.5 -282t225.5 -88q141 0 227.5 97.5t86.5 272.5v666z" />
    <glyph glyph-name="umacron" unicode="&#x16b;" horiz-adv-x="1218" 
d="M318 1152v160h588v-160h-588zM1180 46l-360 -66h-60v176q-55 -75 -139 -125.5t-187 -50.5q-136 0 -211 87.5t-75 226.5v470q0 64 -46 78l-76 22v74l370 26h60v-602q0 -192 144 -192q96 0 160 70v524q0 64 -46 78l-76 22v74l370 26h60v-744q0 -31 10 -47.5t36 -30.5
l66 -36v-60z" />
    <glyph glyph-name="Ubreve" unicode="&#x16c;" horiz-adv-x="1438" 
d="M784 1610q90 0 149.5 54.5t84.5 137.5l100 -24q-21 -174 -109.5 -269t-224.5 -95t-224.5 95t-109.5 269l100 24q25 -83 84.5 -137.5t149.5 -54.5zM1122 1166q0 25 -11 36t-49.5 16.5t-123.5 5.5v96h504v-96q-85 0 -123.5 -5.5t-49.5 -16.5t-11 -36v-690
q0 -153 -73 -267.5t-190 -171.5t-257 -57q-258 0 -408 130t-150 362v694q0 25 -10.5 36t-44.5 16.5t-109 5.5v96h656v-96q-75 0 -109 -5.5t-44.5 -16.5t-10.5 -36v-666q0 -194 74.5 -282t225.5 -88q141 0 227.5 97.5t86.5 272.5v666z" />
    <glyph glyph-name="ubreve" unicode="&#x16d;" horiz-adv-x="1218" 
d="M592 1276q81 0 130 54.5t72 167.5l104 -32q-21 -193 -102 -295.5t-204 -102.5t-204 102.5t-102 295.5l104 32q23 -113 72 -167.5t130 -54.5zM1180 46l-360 -66h-60v176q-55 -75 -139 -125.5t-187 -50.5q-136 0 -211 87.5t-75 226.5v470q0 64 -46 78l-76 22v74l370 26h60
v-602q0 -192 144 -192q96 0 160 70v524q0 64 -46 78l-76 22v74l370 26h60v-744q0 -31 10 -47.5t36 -30.5l66 -36v-60z" />
    <glyph glyph-name="Uring" unicode="&#x16e;" horiz-adv-x="1438" 
d="M776 1398q-102 0 -175 73t-73 175q0 105 73 178.5t175 73.5t175 -73.5t73 -178.5q0 -102 -73 -175t-175 -73zM776 1510q53 0 92.5 40t39.5 96q0 59 -39 98.5t-93 39.5t-93 -39.5t-39 -98.5q0 -56 39.5 -96t92.5 -40zM1122 1166q0 25 -11 36t-49.5 16.5t-123.5 5.5v96h504
v-96q-85 0 -123.5 -5.5t-49.5 -16.5t-11 -36v-690q0 -153 -73 -267.5t-190 -171.5t-257 -57q-258 0 -408 130t-150 362v694q0 25 -10.5 36t-44.5 16.5t-109 5.5v96h656v-96q-75 0 -109 -5.5t-44.5 -16.5t-10.5 -36v-666q0 -194 74.5 -282t225.5 -88q141 0 227.5 97.5
t86.5 272.5v666z" />
    <glyph glyph-name="uring" unicode="&#x16f;" horiz-adv-x="1218" 
d="M592 1068q-93 0 -159.5 66.5t-66.5 159.5q0 94 66.5 161t159.5 67t159.5 -67t66.5 -161q0 -93 -66.5 -159.5t-159.5 -66.5zM592 1170q49 0 84.5 36t35.5 88q0 53 -35.5 88.5t-84.5 35.5t-84.5 -35.5t-35.5 -88.5q0 -52 35.5 -88t84.5 -36zM1180 46l-360 -66h-60v176
q-55 -75 -139 -125.5t-187 -50.5q-136 0 -211 87.5t-75 226.5v470q0 64 -46 78l-76 22v74l370 26h60v-602q0 -192 144 -192q96 0 160 70v524q0 64 -46 78l-76 22v74l370 26h60v-744q0 -31 10 -47.5t36 -30.5l66 -36v-60z" />
    <glyph glyph-name="Uhungarumlaut" unicode="&#x170;" horiz-adv-x="1438" 
d="M618 1692q55 112 146 112q50 0 86 -35.5t36 -84.5q0 -78 -94 -136l-230 -136l-60 52zM1018 1692q55 112 146 112q50 0 86 -35.5t36 -84.5q0 -78 -94 -136l-230 -136l-60 52zM1122 1166q0 25 -11 36t-49.5 16.5t-123.5 5.5v96h504v-96q-85 0 -123.5 -5.5t-49.5 -16.5
t-11 -36v-690q0 -153 -73 -267.5t-190 -171.5t-257 -57q-258 0 -408 130t-150 362v694q0 25 -10.5 36t-44.5 16.5t-109 5.5v96h656v-96q-75 0 -109 -5.5t-44.5 -16.5t-10.5 -36v-666q0 -194 74.5 -282t225.5 -88q141 0 227.5 97.5t86.5 272.5v666z" />
    <glyph glyph-name="uhungarumlaut" unicode="&#x171;" horiz-adv-x="1218" 
d="M394 1358q20 74 58 109t84 35q48 0 84 -36t36 -88q0 -68 -64 -126l-196 -180l-70 40zM752 1358q20 74 58 109t84 35q48 0 84 -36t36 -88q0 -68 -64 -126l-196 -180l-70 40zM1180 46l-360 -66h-60v176q-55 -75 -139 -125.5t-187 -50.5q-136 0 -211 87.5t-75 226.5v470
q0 64 -46 78l-76 22v74l370 26h60v-602q0 -192 144 -192q96 0 160 70v524q0 64 -46 78l-76 22v74l370 26h60v-744q0 -31 10 -47.5t36 -30.5l66 -36v-60z" />
    <glyph glyph-name="Uogonek" unicode="&#x172;" horiz-adv-x="1438" 
d="M1030 -266q-52 -64 -126.5 -109t-157.5 -45q-82 0 -134 44.5t-52 119.5q0 124 160 236q-250 5 -395 135t-145 357v694q0 25 -10.5 36t-44.5 16.5t-109 5.5v96h656v-96q-75 0 -109 -5.5t-44.5 -16.5t-10.5 -36v-666q0 -194 74.5 -282t225.5 -88q141 0 227.5 97.5
t86.5 272.5v666q0 25 -11 36t-49.5 16.5t-123.5 5.5v96h504v-96q-85 0 -123.5 -5.5t-49.5 -16.5t-11 -36v-690q0 -172 -88.5 -292t-233.5 -172q-75 -37 -129.5 -93.5t-54.5 -106.5q0 -38 22 -59t62 -21q65 0 144 70z" />
    <glyph glyph-name="uogonek" unicode="&#x173;" horiz-adv-x="1218" 
d="M714 -444q-82 0 -134 44.5t-52 119.5q0 79 63 150.5t169 129.5v156q-55 -75 -139 -125.5t-187 -50.5q-136 0 -211 87.5t-75 226.5v470q0 64 -46 78l-76 22v74l370 26h60v-602q0 -192 144 -192q96 0 160 70v524q0 64 -46 78l-76 22v74l370 26h60v-744q0 -31 10 -47.5
t36 -30.5l66 -36v-60q-218 -29 -339 -99.5t-121 -158.5q0 -38 22 -59t62 -21q65 0 144 70l50 -68q-52 -64 -126.5 -109t-157.5 -45z" />
    <glyph glyph-name="Wcircumflex" unicode="&#x174;" horiz-adv-x="2000" 
d="M1222 1786l260 -318l-58 -54l-316 174l-316 -174l-58 54l260 318q51 62 114 62t114 -62zM998 864l-284 -864h-168l-378 1164q-13 40 -42 50t-122 10v96h686v-96q-115 0 -152.5 -8t-37.5 -36q0 -11 6 -32l220 -720h8l286 892h166l266 -892h8l224 720q6 21 6 32
q0 28 -37.5 36t-152.5 8v96h496v-96q-93 0 -122 -10t-42 -50l-378 -1164h-168l-280 864h-8z" />
    <glyph glyph-name="wcircumflex" unicode="&#x175;" horiz-adv-x="1558" 
d="M942 1436l228 -318l-66 -50l-276 194l-276 -194l-66 50l228 318q46 64 114 64t114 -64zM1006 -10l-228 604h-8l-218 -604h-146l-314 830q-13 34 -27.5 41.5t-68.5 10.5v88h548v-88q-68 0 -93 -5.5t-25 -24.5q0 -20 10 -50l132 -438h8l216 606h136l224 -606h8l158 440
q12 36 12 48q0 19 -25 24.5t-93 5.5v88h350v-88q-54 -3 -68.5 -10.5t-27.5 -41.5l-314 -830h-146z" />
    <glyph glyph-name="Ycircumflex" unicode="&#x176;" horiz-adv-x="1480" 
d="M888 1786l260 -318l-58 -54l-316 174l-316 -174l-58 54l260 318q51 62 114 62t114 -62zM1104 96v-96h-736v96h54q68 0 100 6t41 17t9 35v428l-400 582q-27 39 -54 49.5t-114 10.5v96h718v-96q-110 0 -149 -8t-39 -30q0 -16 14 -38l278 -430h8l310 430q14 22 14 38
q0 22 -39 30t-149 8v96h506v-96q-61 0 -92 -6.5t-44.5 -17t-33.5 -36.5l-406 -550v-460q0 -24 9 -35t41 -17t100 -6h54z" />
    <glyph glyph-name="ycircumflex" unicode="&#x177;" horiz-adv-x="1080" 
d="M690 1436l228 -318l-66 -50l-276 194l-276 -194l-66 50l228 318q46 64 113.5 64t114.5 -64zM574 -106q-29 -65 -65 -121t-82.5 -107t-105.5 -80.5t-123 -29.5q-75 0 -128.5 43t-53.5 107q0 62 37.5 97t86.5 35q37 0 63 -17t36.5 -37t27 -37t37.5 -17q71 0 176 240
l-388 850q-16 35 -29.5 42t-66.5 10v88h554v-88q-68 0 -93 -5.5t-25 -24.5q0 -21 12 -48l186 -462h8l202 462q12 36 12 48q0 19 -25 24.5t-93 5.5v88h350v-88q-53 -3 -66.5 -10t-29.5 -42z" />
    <glyph glyph-name="Ydieresis" unicode="&#x178;" horiz-adv-x="1480" 
d="M402 1580q0 72 47 121t117 49t117 -49t47 -121t-46.5 -119t-117.5 -47t-117.5 47t-46.5 119zM830 1580q0 72 47 121t117 49t117 -49t47 -121t-46.5 -119t-117.5 -47t-117.5 47t-46.5 119zM1104 96v-96h-736v96h54q68 0 100 6t41 17t9 35v428l-400 582q-27 39 -54 49.5
t-114 10.5v96h718v-96q-110 0 -149 -8t-39 -30q0 -16 14 -38l278 -430h8l310 430q14 22 14 38q0 22 -39 30t-149 8v96h506v-96q-61 0 -92 -6.5t-44.5 -17t-33.5 -36.5l-406 -550v-460q0 -24 9 -35t41 -17t100 -6h54z" />
    <glyph glyph-name="Zacute" unicode="&#x179;" horiz-adv-x="1312" 
d="M476 1482l234 250q66 72 140 72q57 0 95.5 -43t38.5 -99q0 -44 -28 -81t-86 -55l-350 -112zM770 108q56 0 94 5.5t73 22.5t59.5 42t50 71.5t47 104t48.5 144.5h100l-42 -498h-1144v74l796 1138h-370q-66 0 -108 -16.5t-74 -71.5t-46.5 -97.5t-46.5 -156.5q-5 -16 -7 -24
h-96l18 474h1118v-72l-792 -1140h322z" />
    <glyph glyph-name="zacute" unicode="&#x17a;" horiz-adv-x="1048" 
d="M380 1124l160 274q61 102 146 102q54 0 94 -39.5t40 -90.5q0 -79 -90 -132l-292 -170zM402 862q-44 0 -69.5 -4.5t-49.5 -18.5t-39 -43.5t-28 -75.5t-26 -120h-92v360h862v-74l-526 -788h230q31 0 50.5 1t40 7.5t31.5 12.5t25 25.5t21 35.5t19.5 53.5t21 69t23.5 91.5h96
l-30 -394h-894v72l532 790h-198z" />
    <glyph glyph-name="Zdotaccent" unicode="&#x17b;" horiz-adv-x="1312" 
d="M462 1600q0 79 53 132.5t131 53.5t131 -53.5t53 -132.5t-53 -132.5t-131 -53.5t-131 53.5t-53 132.5zM770 108q56 0 94 5.5t73 22.5t59.5 42t50 71.5t47 104t48.5 144.5h100l-42 -498h-1144v74l796 1138h-370q-66 0 -108 -16.5t-74 -71.5t-46.5 -97.5t-46.5 -156.5
q-5 -16 -7 -24h-96l18 474h1118v-72l-792 -1140h322z" />
    <glyph glyph-name="zdotaccent" unicode="&#x17c;" horiz-adv-x="1048" 
d="M344 1290q0 78 51.5 130t128.5 52t128.5 -52t51.5 -130t-51.5 -130t-128.5 -52t-128.5 52t-51.5 130zM402 862q-44 0 -69.5 -4.5t-49.5 -18.5t-39 -43.5t-28 -75.5t-26 -120h-92v360h862v-74l-526 -788h230q31 0 50.5 1t40 7.5t31.5 12.5t25 25.5t21 35.5t19.5 53.5
t21 69t23.5 91.5h96l-30 -394h-894v72l532 790h-198z" />
    <glyph glyph-name="Zcaron" unicode="&#x17d;" horiz-adv-x="1312" 
d="M1020 1762l-260 -318q-51 -62 -114 -62t-114 62l-260 318l58 54l316 -174l316 174zM770 108q56 0 94 5.5t73 22.5t59.5 42t50 71.5t47 104t48.5 144.5h100l-42 -498h-1144v74l796 1138h-370q-66 0 -108 -16.5t-74 -71.5t-46.5 -97.5t-46.5 -156.5q-5 -16 -7 -24h-96
l18 474h1118v-72l-792 -1140h322z" />
    <glyph glyph-name="zcaron" unicode="&#x17e;" horiz-adv-x="1048" 
d="M866 1450l-228 -318q-46 -64 -114 -64t-114 64l-228 318l66 50l276 -194l276 194zM402 862q-44 0 -69.5 -4.5t-49.5 -18.5t-39 -43.5t-28 -75.5t-26 -120h-92v360h862v-74l-526 -788h230q31 0 50.5 1t40 7.5t31.5 12.5t25 25.5t21 35.5t19.5 53.5t21 69t23.5 91.5h96
l-30 -394h-894v72l532 790h-198z" />
    <glyph glyph-name="uni0192" unicode="&#x192;" horiz-adv-x="1178" 
d="M480 68q-56 -224 -212 -368t-368 -144q-92 0 -154 39.5t-62 106.5q0 57 35 91.5t91 34.5q39 0 68 -26t43.5 -57t37.5 -57t51 -26q30 0 52 16t49 67t54 159.5t57 279.5l74 430h-192v116h212l18 102q38 222 202.5 365t395.5 143q105 0 171.5 -40t66.5 -112q0 -50 -33.5 -84
t-90.5 -34q-32 0 -55.5 17t-36.5 41t-25 48t-29 41t-40 17q-51 0 -81.5 -50.5t-60.5 -171.5l-72 -282h212v-116h-240z" />
    <glyph glyph-name="AEacute" unicode="&#x1fc;" horiz-adv-x="2070" 
d="M1192 1482l234 250q66 72 140 72q57 0 95.5 -43t38.5 -99q0 -44 -28 -81t-86 -55l-350 -112zM508 96v-96h-504v96q61 0 91 6t43 16.5t30 37.5l658 1062q-69 6 -170 6v96h1248l18 -474h-96q-51 183 -75 235q-41 90 -111 116q-40 15 -96 15h-276v-484h86q49 0 75 1t51 10
t35 18.5t20.5 37t14.5 55t10 82.5h92v-516h-84q-7 54 -11.5 83t-16 55.5t-22 37t-36.5 18.5t-52 9t-76 1h-86v-512h266q56 0 94 5.5t73 22.5t59.5 42t50 71.5t47 104t48.5 144.5h100l-42 -498h-1188v96q75 0 109 5.5t44.5 16.5t10.5 36v320h-428l-180 -294q-18 -30 -18 -46
q0 -22 41.5 -30t152.5 -8zM580 584h360v588z" />
    <glyph glyph-name="aeacute" unicode="&#x1fd;" horiz-adv-x="1600" 
d="M696 1124l160 274q61 102 146 102q54 0 94 -39.5t40 -90.5q0 -79 -90 -132l-292 -170zM1536 238q-61 -122 -173 -190t-259 -68q-115 0 -226.5 43t-177.5 129q-161 -172 -372 -172q-116 0 -187 62t-71 156q0 57 24.5 105.5t66.5 86.5t114.5 75.5t152 67.5t194.5 67v96
q0 82 -33.5 122t-104.5 40q-51 0 -88.5 -22t-37.5 -62q0 -7 6 -31.5t6 -38.5q0 -53 -37 -89.5t-99 -36.5q-56 0 -95 35.5t-39 98.5q0 74 67.5 136.5t174.5 97t224 34.5q182 0 262 -98q135 98 288 98q104 0 186 -36t133 -99.5t78 -145.5t27 -177v-48h-626q9 -151 84 -236.5
t200 -85.5q81 0 138 35t114 115zM1104 856q-82 0 -130.5 -72t-59.5 -200h338q0 272 -148 272zM622 500q-54 -18 -92 -34.5t-77 -42.5t-59 -62.5t-20 -82.5q0 -64 35.5 -95t90.5 -31q60 0 122 48v300z" />
    <glyph glyph-name="Oslashacute" unicode="&#x1fe;" horiz-adv-x="1476" 
d="M564 1482l234 250q66 72 140 72q57 0 95.5 -43t38.5 -99q0 -44 -28 -81t-86 -55l-350 -112zM738 -20q-191 0 -352 96l-158 -204l-98 76l156 200q-108 94 -169 226t-61 286q0 145 56 273t149 216.5t217.5 139.5t259.5 51q208 0 384 -116l128 164l98 -76l-130 -166
q96 -94 149 -218.5t53 -267.5q0 -145 -56 -273t-149 -216.5t-217.5 -139.5t-259.5 -51zM404 660q0 -178 44 -304l542 696q-90 160 -252 160q-109 0 -185.5 -73.5t-112.5 -196t-36 -282.5zM1072 660q0 144 -30 258l-534 -686q89 -124 230 -124q109 0 185.5 73.5t112.5 196
t36 282.5z" />
    <glyph glyph-name="oslashacute" unicode="&#x1ff;" horiz-adv-x="1156" 
d="M418 1124l160 274q61 102 146 102q54 0 94 -39.5t40 -90.5q0 -79 -90 -132l-292 -170zM578 -20q-127 0 -238 54l-112 -152l-98 64l110 152q-83 69 -129.5 167.5t-46.5 214.5q0 141 69 256t186.5 179.5t258.5 64.5q136 0 258 -64l92 126l98 -64l-94 -130
q160 -147 160 -368q0 -141 -69 -256t-186.5 -179.5t-258.5 -64.5zM378 480q0 -104 14 -174l334 458q-51 96 -148 96q-92 0 -146 -100t-54 -280zM778 480q0 74 -10 144l-326 -448q49 -76 136 -76q92 0 146 100t54 280z" />
    <glyph glyph-name="uni0218" unicode="&#x218;" horiz-adv-x="1240" 
d="M1058 1320l22 -472h-88q-74 179 -169 273.5t-237 94.5q-93 0 -146.5 -49.5t-53.5 -128.5q0 -44 26 -78.5t70 -58t101.5 -43.5t120.5 -39t126 -41t120.5 -53.5t101.5 -71.5t70 -100t26 -135q0 -130 -74.5 -232.5t-188.5 -154t-241 -51.5q-117 0 -202 31.5t-166 90.5
l-62 -102h-86l-46 498h100q32 -104 85 -182t116 -122.5t128 -66t131 -21.5q102 0 166 49.5t64 140.5q0 46 -25.5 81.5t-69 59.5t-100 44t-119 39t-125 40.5t-119 53.5t-100 72.5t-69 102.5t-25.5 139q0 172 128.5 292t329.5 120q95 0 169.5 -29t152.5 -85l70 94h88z
M560 -346q0 15 -19 24.5t-41 17t-41 33t-19 67.5q0 56 44 93t104 37q74 0 120 -49t46 -127q0 -105 -94.5 -183t-251.5 -81l-18 82q82 3 126 28t44 58z" />
    <glyph glyph-name="uni0219" unicode="&#x219;" horiz-adv-x="948" 
d="M500 868q-58 0 -96 -32t-38 -86q0 -39 28.5 -65t74.5 -40.5t101.5 -27.5t111 -33.5t101.5 -50t74.5 -84.5t28.5 -131q0 -149 -129 -243.5t-311 -94.5q-202 0 -354 88l-24 256h96q45 -129 118 -180.5t176 -51.5q68 0 117 33.5t49 88.5q0 35 -18 60t-48 40.5t-69.5 27.5
t-83 23t-87 24t-83 35t-69.5 51.5t-48 76.5t-18 108q0 133 116.5 226.5t293.5 93.5q166 0 300 -70v-236h-88q-23 97 -81 145.5t-141 48.5zM424 -346q0 15 -19 24.5t-41 17t-41 33t-19 67.5q0 56 44 93t104 37q74 0 120 -49t46 -127q0 -105 -94.5 -183t-251.5 -81l-18 82
q82 3 126 28t44 58z" />
    <glyph glyph-name="uni021A" unicode="&#x21a;" horiz-adv-x="1440" 
d="M1088 0h-736v96h54q68 0 100 6t41 17t9 35v1058h-124q-54 0 -92 -14t-63 -36t-46 -67.5t-35 -89.5t-36 -122q-2 -8 -3 -12.5t-3 -11.5t-4 -13h-96l18 474h1296l18 -474h-96q-51 181 -71 228q-40 92 -106 120q-42 18 -105 18h-124v-1058q0 -24 9 -35t41 -17t100 -6h54v-96
zM666 -346q0 15 -19 24.5t-41 17t-41 33t-19 67.5q0 56 44 93t104 37q74 0 120 -49t46 -127q0 -105 -94.5 -183t-251.5 -81l-18 82q82 3 126 28t44 58z" />
    <glyph glyph-name="uni021B" unicode="&#x21b;" horiz-adv-x="790" 
d="M790 154q-77 -86 -161 -130t-199 -44q-131 0 -214.5 67.5t-83.5 186.5v608h-126v118h126v248l308 90v-338h284v-118h-284v-566q0 -63 32 -95.5t88 -32.5q40 0 76.5 19.5t83.5 66.5zM388 -346q0 15 -19 24.5t-41 17t-41 33t-19 67.5q0 56 44 93t104 37q74 0 120 -49
t46 -127q0 -105 -94.5 -183t-251.5 -81l-18 82q82 3 126 28t44 58z" />
    <glyph glyph-name="uni0237" unicode="&#x237;" horiz-adv-x="606" 
d="M168 700q0 31 -10 47.5t-36 30.5l-66 36v60l360 106h60v-970q0 -121 -68 -226.5t-181 -166.5t-241 -61q-88 0 -149 39.5t-61 112.5q0 53 34.5 86.5t85.5 33.5q36 0 63 -15.5t42.5 -37.5t28.5 -44t28.5 -37.5t35.5 -15.5q74 0 74 126v896z" />
    <glyph glyph-name="circumflex" unicode="&#x2c6;" horiz-adv-x="1000" 
d="M614 1436l228 -318l-66 -50l-276 194l-276 -194l-66 50l228 318q46 64 114 64t114 -64z" />
    <glyph glyph-name="caron" unicode="&#x2c7;" horiz-adv-x="1000" 
d="M842 1450l-228 -318q-46 -64 -114 -64t-114 64l-228 318l66 50l276 -194l276 194z" />
    <glyph glyph-name="breve" unicode="&#x2d8;" horiz-adv-x="1000" 
d="M500 1276q81 0 130 54.5t72 167.5l104 -32q-21 -193 -102 -295.5t-204 -102.5t-204 102.5t-102 295.5l104 32q23 -113 72 -167.5t130 -54.5z" />
    <glyph glyph-name="dotaccent" unicode="&#x2d9;" horiz-adv-x="1000" 
d="M320 1290q0 78 51.5 130t128.5 52t128.5 -52t51.5 -130t-51.5 -130t-128.5 -52t-128.5 52t-51.5 130z" />
    <glyph glyph-name="ring" unicode="&#x2da;" horiz-adv-x="1000" 
d="M500 1068q-93 0 -159.5 66.5t-66.5 159.5q0 94 66.5 161t159.5 67t159.5 -67t66.5 -161q0 -93 -66.5 -159.5t-159.5 -66.5zM500 1170q49 0 84.5 36t35.5 88q0 53 -35.5 88.5t-84.5 35.5t-84.5 -35.5t-35.5 -88.5q0 -52 35.5 -88t84.5 -36z" />
    <glyph glyph-name="ogonek" unicode="&#x2db;" horiz-adv-x="1000" 
d="M670 64l24 -62q-82 -34 -147 -96t-65 -118q0 -38 22 -59t62 -21q65 0 144 70l50 -68q-52 -64 -126.5 -109t-157.5 -45q-82 0 -134 44.5t-52 119.5q0 71 55 139.5t138.5 119t186.5 85.5z" />
    <glyph glyph-name="tilde" unicode="&#x2dc;" horiz-adv-x="1000" 
d="M382 1426q44 0 94.5 -28.5t96.5 -57t79 -28.5q41 0 69 26t67 92l82 -42q-59 -155 -118.5 -219.5t-129.5 -64.5q-45 0 -95.5 28.5t-97 57t-79.5 28.5q-40 0 -68.5 -26.5t-67.5 -91.5l-84 42q59 154 120.5 219t131.5 65z" />
    <glyph glyph-name="hungarumlaut" unicode="&#x2dd;" horiz-adv-x="1000" 
d="M224 1358q20 74 58 109t84 35q48 0 84 -36t36 -88q0 -68 -64 -126l-196 -180l-70 40zM582 1358q20 74 58 109t84 35q48 0 84 -36t36 -88q0 -68 -64 -126l-196 -180l-70 40z" />
    <glyph glyph-name="Wgrave" unicode="&#x1e80;" horiz-adv-x="2000" 
d="M986 1732l234 -250l-44 -68l-350 112q-58 18 -86 55t-28 81q0 56 38.5 99t95.5 43q74 0 140 -72zM998 864l-284 -864h-168l-378 1164q-13 40 -42 50t-122 10v96h686v-96q-115 0 -152.5 -8t-37.5 -36q0 -11 6 -32l220 -720h8l286 892h166l266 -892h8l224 720q6 21 6 32
q0 28 -37.5 36t-152.5 8v96h496v-96q-93 0 -122 -10t-42 -50l-378 -1164h-168l-280 864h-8z" />
    <glyph glyph-name="wgrave" unicode="&#x1e81;" horiz-adv-x="1558" 
d="M828 1398l160 -274l-58 -56l-292 170q-90 53 -90 132q0 51 40 90.5t94 39.5q85 0 146 -102zM1006 -10l-228 604h-8l-218 -604h-146l-314 830q-13 34 -27.5 41.5t-68.5 10.5v88h548v-88q-68 0 -93 -5.5t-25 -24.5q0 -20 10 -50l132 -438h8l216 606h136l224 -606h8l158 440
q12 36 12 48q0 19 -25 24.5t-93 5.5v88h350v-88q-54 -3 -68.5 -10.5t-27.5 -41.5l-314 -830h-146z" />
    <glyph glyph-name="Wacute" unicode="&#x1e82;" horiz-adv-x="2000" 
d="M962 1482l234 250q66 72 140 72q57 0 95.5 -43t38.5 -99q0 -44 -28 -81t-86 -55l-350 -112zM998 864l-284 -864h-168l-378 1164q-13 40 -42 50t-122 10v96h686v-96q-115 0 -152.5 -8t-37.5 -36q0 -11 6 -32l220 -720h8l286 892h166l266 -892h8l224 720q6 21 6 32
q0 28 -37.5 36t-152.5 8v96h496v-96q-93 0 -122 -10t-42 -50l-378 -1164h-168l-280 864h-8z" />
    <glyph glyph-name="wacute" unicode="&#x1e83;" horiz-adv-x="1558" 
d="M704 1124l160 274q61 102 146 102q54 0 94 -39.5t40 -90.5q0 -79 -90 -132l-292 -170zM1006 -10l-228 604h-8l-218 -604h-146l-314 830q-13 34 -27.5 41.5t-68.5 10.5v88h548v-88q-68 0 -93 -5.5t-25 -24.5q0 -20 10 -50l132 -438h8l216 606h136l224 -606h8l158 440
q12 36 12 48q0 19 -25 24.5t-93 5.5v88h350v-88q-54 -3 -68.5 -10.5t-27.5 -41.5l-314 -830h-146z" />
    <glyph glyph-name="Wdieresis" unicode="&#x1e84;" horiz-adv-x="2000" 
d="M718 1580q0 72 47 121t117 49t117 -49t47 -121t-46.5 -119t-117.5 -47t-117.5 47t-46.5 119zM1146 1580q0 72 47 121t117 49t117 -49t47 -121t-46.5 -119t-117.5 -47t-117.5 47t-46.5 119zM998 864l-284 -864h-168l-378 1164q-13 40 -42 50t-122 10v96h686v-96
q-115 0 -152.5 -8t-37.5 -36q0 -11 6 -32l220 -720h8l286 892h166l266 -892h8l224 720q6 21 6 32q0 28 -37.5 36t-152.5 8v96h496v-96q-93 0 -122 -10t-42 -50l-378 -1164h-168l-280 864h-8z" />
    <glyph glyph-name="wdieresis" unicode="&#x1e85;" horiz-adv-x="1558" 
d="M460 1250q0 72 47 121t117 49t117 -49t47 -121t-46.5 -119t-117.5 -47t-117.5 47t-46.5 119zM868 1250q0 72 47 121t117 49t117 -49t47 -121t-46.5 -119t-117.5 -47t-117.5 47t-46.5 119zM1006 -10l-228 604h-8l-218 -604h-146l-314 830q-13 34 -27.5 41.5t-68.5 10.5v88
h548v-88q-68 0 -93 -5.5t-25 -24.5q0 -20 10 -50l132 -438h8l216 606h136l224 -606h8l158 440q12 36 12 48q0 19 -25 24.5t-93 5.5v88h350v-88q-54 -3 -68.5 -10.5t-27.5 -41.5l-314 -830h-146z" />
    <glyph glyph-name="Ygrave" unicode="&#x1ef2;" horiz-adv-x="1480" 
d="M694 1732l234 -250l-44 -68l-350 112q-58 18 -86 55t-28 81q0 56 38.5 99t95.5 43q74 0 140 -72zM1104 96v-96h-736v96h54q68 0 100 6t41 17t9 35v428l-400 582q-27 39 -54 49.5t-114 10.5v96h718v-96q-110 0 -149 -8t-39 -30q0 -16 14 -38l278 -430h8l310 430
q14 22 14 38q0 22 -39 30t-149 8v96h506v-96q-61 0 -92 -6.5t-44.5 -17t-33.5 -36.5l-406 -550v-460q0 -24 9 -35t41 -17t100 -6h54z" />
    <glyph glyph-name="ygrave" unicode="&#x1ef3;" horiz-adv-x="1080" 
d="M576 1398l160 -274l-58 -56l-292 170q-90 53 -90 132q0 51 40 90.5t94 39.5q85 0 146 -102zM574 -106q-29 -65 -65 -121t-82.5 -107t-105.5 -80.5t-123 -29.5q-75 0 -128.5 43t-53.5 107q0 62 37.5 97t86.5 35q37 0 63 -17t36.5 -37t27 -37t37.5 -17q71 0 176 240
l-388 850q-16 35 -29.5 42t-66.5 10v88h554v-88q-68 0 -93 -5.5t-25 -24.5q0 -21 12 -48l186 -462h8l202 462q12 36 12 48q0 19 -25 24.5t-93 5.5v88h350v-88q-53 -3 -66.5 -10t-29.5 -42z" />
    <glyph glyph-name="endash" unicode="&#x2013;" horiz-adv-x="1232" 
d="M1116 468h-1000v156h1000v-156z" />
    <glyph glyph-name="emdash" unicode="&#x2014;" horiz-adv-x="2232" 
d="M2116 468h-2000v156h2000v-156z" />
    <glyph glyph-name="quoteleft" unicode="&#x2018;" horiz-adv-x="652" 
d="M334 1194q0 -20 15 -34.5t37 -22.5t48 -20.5t48 -27t37 -44t15 -69.5q0 -81 -54 -130.5t-132 -49.5q-90 0 -151 72.5t-61 193.5q0 73 24 142t71 129.5t123.5 105t173.5 61.5l24 -100q-116 -36 -167 -90t-51 -116z" />
    <glyph glyph-name="quoteright" unicode="&#x2019;" horiz-adv-x="652" 
d="M326 1102q0 20 -15 34.5t-37 22.5t-48 20.5t-48 27t-37 44t-15 69.5q0 81 54 130.5t132 49.5q90 0 151 -72.5t61 -193.5q0 -73 -24 -142t-71 -129.5t-123.5 -105t-173.5 -61.5l-24 100q116 36 167 90t51 116z" />
    <glyph glyph-name="quotesinglbase" unicode="&#x201a;" horiz-adv-x="652" 
d="M326 -52q0 20 -15 34.5t-37 22.5t-48 20.5t-48 27t-37 44t-15 69.5q0 81 54 130.5t132 49.5q90 0 151 -72.5t61 -193.5q0 -73 -24 -142t-71 -129.5t-123.5 -105t-173.5 -61.5l-24 100q116 36 167 90t51 116z" />
    <glyph glyph-name="quotedblleft" unicode="&#x201c;" horiz-adv-x="1200" 
d="M882 1192q0 -20 15 -34.5t37 -22.5t48 -20.5t48 -27t37 -44t15 -69.5q0 -81 -54 -130.5t-132 -49.5q-90 0 -151 72.5t-61 193.5q0 73 24 142t71 129.5t123.5 105t173.5 61.5l24 -100q-116 -36 -167 -90t-51 -116zM334 1192q0 -20 15 -34.5t37 -22.5t48 -20.5t48 -27
t37 -44t15 -69.5q0 -81 -54 -130.5t-132 -49.5q-90 0 -151 72.5t-61 193.5q0 73 24 142t71 129.5t123.5 105t173.5 61.5l24 -100q-116 -36 -167 -90t-51 -116z" />
    <glyph glyph-name="quotedblright" unicode="&#x201d;" horiz-adv-x="1200" 
d="M874 1102q0 20 -15 34.5t-37 22.5t-48 20.5t-48 27t-37 44t-15 69.5q0 81 54 130.5t132 49.5q90 0 151 -72.5t61 -193.5q0 -73 -24 -142t-71 -129.5t-123.5 -105t-173.5 -61.5l-24 100q116 36 167 90t51 116zM326 1102q0 20 -15 34.5t-37 22.5t-48 20.5t-48 27t-37 44
t-15 69.5q0 81 54 130.5t132 49.5q90 0 151 -72.5t61 -193.5q0 -73 -24 -142t-71 -129.5t-123.5 -105t-173.5 -61.5l-24 100q116 36 167 90t51 116z" />
    <glyph glyph-name="quotedblbase" unicode="&#x201e;" horiz-adv-x="1200" 
d="M874 -12q0 20 -15 34.5t-37 22.5t-48 20.5t-48 27t-37 44t-15 69.5q0 81 54 130.5t132 49.5q90 0 151 -72.5t61 -193.5q0 -73 -24 -142t-71 -129.5t-123.5 -105t-173.5 -61.5l-24 100q116 36 167 90t51 116zM326 -12q0 20 -15 34.5t-37 22.5t-48 20.5t-48 27t-37 44
t-15 69.5q0 81 54 130.5t132 49.5q90 0 151 -72.5t61 -193.5q0 -73 -24 -142t-71 -129.5t-123.5 -105t-173.5 -61.5l-24 100q116 36 167 90t51 116z" />
    <glyph glyph-name="dagger" unicode="&#x2020;" horiz-adv-x="904" 
d="M784 1086h-260v-490h-144v490h-260v144h260v250h144v-250h260v-144z" />
    <glyph glyph-name="daggerdbl" unicode="&#x2021;" horiz-adv-x="904" 
d="M784 806h-264v-210h-136v210h-264v138h264v192h-264v134h264v210h136v-210h264v-134h-264v-192h264v-138z" />
    <glyph glyph-name="bullet" unicode="&#x2022;" horiz-adv-x="980" 
d="M490 172q-154 0 -264 110.5t-110 263.5q0 156 109.5 266t264.5 110t264.5 -110t109.5 -266q0 -153 -110 -263.5t-264 -110.5z" />
    <glyph glyph-name="ellipsis" unicode="&#x2026;" horiz-adv-x="1780" 
d="M532 180q0 -83 -59 -141.5t-143 -58.5t-143 58.5t-59 141.5t59 141.5t143 58.5t143 -58.5t59 -141.5zM1092 180q0 -83 -59 -141.5t-143 -58.5t-143 58.5t-59 141.5t59 141.5t143 58.5t143 -58.5t59 -141.5zM1652 180q0 -83 -59 -141.5t-143 -58.5t-143 58.5t-59 141.5
t59 141.5t143 58.5t143 -58.5t59 -141.5z" />
    <glyph glyph-name="perthousand" unicode="&#x2030;" horiz-adv-x="2478" 
d="M392 1340q139 0 245.5 -102t106.5 -248t-106.5 -248t-245.5 -102t-245.5 102t-106.5 248t106.5 248t245.5 102zM462 0h-150l894 1320h150zM392 1260q-53 0 -82.5 -76t-29.5 -194t29.5 -194t82.5 -76t82.5 76t29.5 194t-29.5 194t-82.5 76zM2086 680q139 0 245.5 -102
t106.5 -248t-106.5 -248t-245.5 -102t-245.5 102t-106.5 248t106.5 248t245.5 102zM1280 680q139 0 245.5 -102t106.5 -248t-106.5 -248t-245.5 -102t-245.5 102t-106.5 248t106.5 248t245.5 102zM2086 600q-53 0 -82.5 -76t-29.5 -194t29.5 -194t82.5 -76t82.5 76t29.5 194
t-29.5 194t-82.5 76zM1280 600q-53 0 -82.5 -76t-29.5 -194t29.5 -194t82.5 -76t82.5 76t29.5 194t-29.5 194t-82.5 76z" />
    <glyph glyph-name="guilsinglleft" unicode="&#x2039;" horiz-adv-x="696" 
d="M90 468v20l382 400h134l-196 -410l196 -410h-134z" />
    <glyph glyph-name="guilsinglright" unicode="&#x203a;" horiz-adv-x="696" 
d="M606 488v-20l-382 -400h-134l196 410l-196 410h134z" />
    <glyph glyph-name="fraction" unicode="&#x2044;" horiz-adv-x="444" 
d="M-150 0h-150l894 1320h150z" />
    <glyph glyph-name="uni2070" unicode="&#x2070;" horiz-adv-x="954" 
d="M848 930q0 -168 -109.5 -284t-262.5 -116t-261.5 116t-108.5 284t108.5 284t261.5 116t262.5 -116t109.5 -284zM352 930q0 -308 124 -308t124 308t-124 308t-124 -308z" />
    <glyph glyph-name="uni2074" unicode="&#x2074;" horiz-adv-x="890" 
d="M760 544h-434v74q63 0 80.5 5.5t17.5 24.5v132h-344v84l428 456h152v-452h148v-88h-148v-132q0 -19 17.5 -24.5t82.5 -5.5v-74zM192 868h232v238h-6l-226 -234v-4z" />
    <glyph glyph-name="uni2075" unicode="&#x2075;" horiz-adv-x="740" 
d="M314 610q69 0 107.5 33t38.5 79q0 39 -21.5 66t-62.5 41.5t-91 20.5t-117 6l-16 10l62 454h394v-194h-360l-10 -72q73 -3 128 -10.5t110 -24t90.5 -42.5t57.5 -68.5t22 -98.5q0 -115 -99 -196.5t-235 -81.5q-100 0 -171 35t-71 101q0 33 24.5 54.5t57.5 21.5
q31 0 56.5 -21t39 -46t31 -46t35.5 -21z" />
    <glyph glyph-name="uni2076" unicode="&#x2076;" horiz-adv-x="868" 
d="M770 798q0 -107 -92.5 -187.5t-231.5 -80.5q-144 0 -244 92.5t-100 229.5q0 166 142 291t396 187l24 -70q-226 -94 -286 -276q65 34 142 34q109 0 179.5 -61.5t70.5 -158.5zM356 834q0 -111 28 -166.5t74 -55.5q36 0 58 41t22 115q0 81 -30 124.5t-86 43.5q-34 0 -58 -8
q-8 -37 -8 -94z" />
    <glyph glyph-name="uni2077" unicode="&#x2077;" horiz-adv-x="764" 
d="M284 1112q-69 0 -92 -21.5t-50 -100.5h-64l16 330h576v-70l-250 -706h-208v26l314 542h-242z" />
    <glyph glyph-name="uni2078" unicode="&#x2078;" horiz-adv-x="862" 
d="M760 778q0 -71 -48.5 -128.5t-126.5 -88.5t-167 -31q-143 0 -230.5 58t-87.5 148q0 109 160 160q-128 73 -128 198q0 90 82.5 163t215.5 73q117 0 199.5 -56.5t82.5 -137.5q0 -50 -41.5 -85t-106.5 -49q92 -38 144 -88t52 -136zM328 1164q0 -26 13.5 -47t42.5 -38.5
t55 -28.5t70 -28q7 -3 11 -4q38 54 38 128q0 51 -34.5 82.5t-85.5 31.5q-49 0 -79.5 -26t-30.5 -70zM270 752q0 -69 42.5 -109.5t107.5 -40.5q53 0 88.5 30.5t35.5 77.5q0 25 -13 44.5t-40 36t-51.5 27.5t-67 28t-66.5 28q-36 -57 -36 -122z" />
    <glyph glyph-name="uni2079" unicode="&#x2079;" horiz-adv-x="868" 
d="M774 1008q0 -166 -142 -291t-396 -187l-24 68q229 99 288 278q-62 -34 -144 -34q-109 0 -179.5 61.5t-70.5 158.5q0 107 93 187.5t233 80.5q142 0 242 -93t100 -229zM338 1092q0 -81 30.5 -125.5t85.5 -44.5q28 0 60 8q8 40 8 96q0 111 -29.5 172.5t-74.5 61.5
q-35 0 -57.5 -46t-22.5 -122z" />
    <glyph glyph-name="uni2080" unicode="&#x2080;" horiz-adv-x="954" 
d="M848 106q0 -168 -109.5 -284t-262.5 -116t-261.5 116t-108.5 284t108.5 284t261.5 116t262.5 -116t109.5 -284zM352 106q0 -308 124 -308t124 308t-124 308t-124 -308z" />
    <glyph glyph-name="uni2081" unicode="&#x2081;" horiz-adv-x="746" 
d="M658 -192v-88h-556v88h56q69 0 87.5 5t18.5 25v436h-154v90q93 0 190.5 41.5t127.5 100.5h80v-668q0 -20 18.5 -25t87.5 -5h44z" />
    <glyph glyph-name="uni2082" unicode="&#x2082;" horiz-adv-x="752" 
d="M114 252l-50 32q47 99 132 160.5t182 61.5q105 0 168.5 -60.5t63.5 -147.5q0 -37 -14 -73t-31.5 -62.5t-54.5 -61t-61.5 -54t-75 -57.5t-73.5 -56v-6h210q42 0 65.5 21t58.5 87l46 -16l-58 -300h-548v70q93 82 152 145t88.5 112.5t39.5 85t10 77.5q0 51 -32.5 85.5
t-83.5 34.5q-81 0 -134 -78z" />
    <glyph glyph-name="uni2083" unicode="&#x2083;" horiz-adv-x="778" 
d="M612 348q0 -62 -57 -106.5t-145 -69.5q54 -3 99 -15t84 -34.5t61 -61t22 -89.5q0 -75 -59.5 -138t-142.5 -95.5t-162 -32.5q-99 0 -165.5 33t-66.5 99q0 34 24 56t58 22q31 0 55.5 -20.5t37 -45.5t28 -45.5t31.5 -20.5q46 0 80 43t34 115q0 69 -46.5 105t-125.5 33
l-16 50q120 56 120 148q0 32 -22.5 54t-57.5 22q-62 0 -114 -52l-50 44q118 160 290 160q89 0 147.5 -44t58.5 -114z" />
    <glyph glyph-name="uni2084" unicode="&#x2084;" horiz-adv-x="890" 
d="M760 -280h-434v74q63 0 80.5 5.5t17.5 24.5v132h-344v84l428 456h152v-452h148v-88h-148v-132q0 -19 17.5 -24.5t82.5 -5.5v-74zM192 44h232v238h-6l-226 -234v-4z" />
    <glyph glyph-name="uni2085" unicode="&#x2085;" horiz-adv-x="740" 
d="M314 -216q69 0 107.5 33t38.5 79q0 39 -21.5 66t-62.5 41.5t-91 20.5t-117 6l-16 10l62 454h394v-194h-360l-10 -72q73 -3 128 -10.5t110 -24t90.5 -42.5t57.5 -68.5t22 -98.5q0 -115 -99 -196.5t-235 -81.5q-100 0 -171 35t-71 101q0 33 24.5 54.5t57.5 21.5
q31 0 56.5 -21t39 -46t31 -46t35.5 -21z" />
    <glyph glyph-name="uni2086" unicode="&#x2086;" horiz-adv-x="868" 
d="M770 -26q0 -107 -92.5 -187.5t-231.5 -80.5q-144 0 -244 92.5t-100 229.5q0 166 142 291t396 187l24 -70q-226 -94 -286 -276q65 34 142 34q109 0 179.5 -61.5t70.5 -158.5zM356 10q0 -111 28 -166.5t74 -55.5q36 0 58 41t22 115q0 81 -30 124.5t-86 43.5q-34 0 -58 -8
q-8 -37 -8 -94z" />
    <glyph glyph-name="uni2087" unicode="&#x2087;" horiz-adv-x="764" 
d="M284 288q-69 0 -92 -21.5t-50 -100.5h-64l16 330h576v-70l-250 -706h-208v26l314 542h-242z" />
    <glyph glyph-name="uni2088" unicode="&#x2088;" horiz-adv-x="862" 
d="M760 -46q0 -71 -48.5 -128.5t-126.5 -88.5t-167 -31q-143 0 -230.5 58t-87.5 148q0 109 160 160q-128 73 -128 198q0 90 82.5 163t215.5 73q117 0 199.5 -56.5t82.5 -137.5q0 -50 -41.5 -85t-106.5 -49q92 -38 144 -88t52 -136zM328 340q0 -60 86 -103q27 -13 106 -43
q38 54 38 128q0 51 -34.5 82.5t-85.5 31.5q-49 0 -79.5 -26t-30.5 -70zM270 -72q0 -69 42.5 -109.5t107.5 -40.5q53 0 88.5 30.5t35.5 77.5q0 25 -13 44.5t-40 36t-51.5 27.5t-67 28t-66.5 28q-36 -57 -36 -122z" />
    <glyph glyph-name="uni2089" unicode="&#x2089;" horiz-adv-x="868" 
d="M774 184q0 -166 -142 -291t-396 -187l-24 68q229 99 288 278q-62 -34 -144 -34q-109 0 -179.5 61.5t-70.5 158.5q0 107 93 187.5t233 80.5q142 0 242 -93t100 -229zM338 268q0 -81 30.5 -125.5t85.5 -44.5q28 0 60 8q8 40 8 96q0 111 -29.5 172.5t-74.5 61.5
q-35 0 -57.5 -46t-22.5 -122z" />
    <glyph glyph-name="Euro" unicode="&#x20ac;" horiz-adv-x="1268" 
d="M1256 254q-170 -274 -478 -274q-141 0 -258 58.5t-199.5 178t-108.5 285.5h-132v112h120v42q0 52 6 100h-128v112h154q65 210 236 341t384 131q168 0 274 -63t106 -149q0 -55 -37 -91.5t-95 -36.5q-41 0 -72 22.5t-51 55t-39.5 65t-48.5 55t-67 22.5q-102 0 -175.5 -95
t-100.5 -257h352l-28 -112h-338q-2 -24 -2 -76q0 -44 2 -66h302l-30 -112h-262q28 -172 109 -262t207 -90q172 0 304 174z" />
    <glyph glyph-name="trademark" unicode="&#x2122;" horiz-adv-x="1816" 
d="M646 658h-404v66q65 0 81.5 5t16.5 21v506h-38q-50 0 -78 -40.5t-54 -135.5h-52l8 240h634l8 -240h-50q-28 96 -55.5 136t-78.5 40h-36v-506q0 -16 16.5 -21t81.5 -5v-66zM1732 1320v-64q-53 0 -66.5 -4.5t-13.5 -21.5v-480q0 -17 13.5 -21.5t66.5 -4.5v-66h-362v66
q53 0 67.5 4.5t14.5 21.5v428h-8l-204 -526h-34l-196 526h-8v-428q0 -17 14.5 -21.5t71.5 -4.5v-66h-250v66q56 0 71 4.5t15 21.5v480q0 17 -15 21.5t-71 4.5v64h318l126 -356h8l136 356h306z" />
    <glyph glyph-name="uni2153" unicode="&#x2153;" horiz-adv-x="1884" 
d="M658 632v-88h-556v88h56q69 0 87.5 5t18.5 25v436h-154v90q93 0 190.5 41.5t127.5 100.5h80v-668q0 -20 18.5 -25t87.5 -5h44zM574 0h-150l894 1320h150zM1718 628q0 -62 -57 -106.5t-145 -69.5q54 -3 99 -15t84 -34.5t61 -61t22 -89.5q0 -75 -59.5 -138t-142.5 -95.5
t-162 -32.5q-99 0 -165.5 33t-66.5 99q0 34 24 56t58 22q31 0 55.5 -20.5t37 -45.5t28 -45.5t31.5 -20.5q46 0 80 43t34 115q0 69 -46.5 105t-125.5 33l-16 50q120 56 120 148q0 32 -22.5 54t-57.5 22q-62 0 -114 -52l-50 44q118 160 290 160q89 0 147.5 -44t58.5 -114z" />
    <glyph glyph-name="uni2154" unicode="&#x2154;" horiz-adv-x="1882" 
d="M114 1076l-50 32q47 99 132 160.5t182 61.5q105 0 168.5 -60.5t63.5 -147.5q0 -37 -14 -73t-31.5 -62.5t-54.5 -61t-61.5 -54t-75 -57.5t-73.5 -56v-6h210q42 0 65.5 21t58.5 87l46 -16l-58 -300h-548v70q93 82 152 145t88.5 112.5t39.5 85t10 77.5q0 51 -32.5 85.5
t-83.5 34.5q-81 0 -134 -78zM572 0h-150l894 1320h150zM1716 628q0 -62 -57 -106.5t-145 -69.5q54 -3 99 -15t84 -34.5t61 -61t22 -89.5q0 -75 -59.5 -138t-142.5 -95.5t-162 -32.5q-99 0 -165.5 33t-66.5 99q0 34 24 56t58 22q31 0 55.5 -20.5t37 -45.5t28 -45.5
t31.5 -20.5q46 0 80 43t34 115q0 69 -46.5 105t-125.5 33l-16 50q120 56 120 148q0 32 -22.5 54t-57.5 22q-62 0 -114 -52l-50 44q118 160 290 160q89 0 147.5 -44t58.5 -114z" />
    <glyph glyph-name="uni215B" unicode="&#x215b;" horiz-adv-x="1908" 
d="M658 632v-88h-556v88h56q69 0 87.5 5t18.5 25v436h-154v90q93 0 190.5 41.5t127.5 100.5h80v-668q0 -20 18.5 -25t87.5 -5h44zM574 0h-150l894 1320h150zM1806 234q0 -71 -48.5 -128.5t-126.5 -88.5t-167 -31q-143 0 -230.5 58t-87.5 148q0 109 160 160q-128 73 -128 198
q0 90 82.5 163t215.5 73q117 0 199.5 -56.5t82.5 -137.5q0 -50 -41.5 -85t-106.5 -49q92 -38 144 -88t52 -136zM1374 620q0 -26 13.5 -47t42.5 -38.5t55 -28.5t70 -28q7 -3 11 -4q38 54 38 128q0 51 -34.5 82.5t-85.5 31.5q-49 0 -79.5 -26t-30.5 -70zM1316 208
q0 -69 42.5 -109.5t107.5 -40.5q53 0 88.5 30.5t35.5 77.5q0 25 -13 44.5t-40 36t-51.5 27.5t-67 28t-66.5 28q-36 -57 -36 -122z" />
    <glyph glyph-name="uni215C" unicode="&#x215c;" horiz-adv-x="1826" 
d="M612 1172q0 -62 -57 -106.5t-145 -69.5q54 -3 99 -15t84 -34.5t61 -61t22 -89.5q0 -75 -59.5 -138t-142.5 -95.5t-162 -32.5q-99 0 -165.5 33t-66.5 99q0 34 24 56t58 22q31 0 55.5 -20.5t37 -45.5t28 -45.5t31.5 -20.5q46 0 80 43t34 115q0 69 -46.5 105t-125.5 33
l-16 50q120 56 120 148q0 32 -22.5 54t-57.5 22q-62 0 -114 -52l-50 44q118 160 290 160q89 0 147.5 -44t58.5 -114zM492 0h-150l894 1320h150zM1724 234q0 -71 -48.5 -128.5t-126.5 -88.5t-167 -31q-143 0 -230.5 58t-87.5 148q0 109 160 160q-128 73 -128 198
q0 90 82.5 163t215.5 73q117 0 199.5 -56.5t82.5 -137.5q0 -50 -41.5 -85t-106.5 -49q92 -38 144 -88t52 -136zM1292 620q0 -26 13.5 -47t42.5 -38.5t55 -28.5t70 -28q7 -3 11 -4q38 54 38 128q0 51 -34.5 82.5t-85.5 31.5q-49 0 -79.5 -26t-30.5 -70zM1234 208
q0 -69 42.5 -109.5t107.5 -40.5q53 0 88.5 30.5t35.5 77.5q0 25 -13 44.5t-40 36t-51.5 27.5t-67 28t-66.5 28q-36 -57 -36 -122z" />
    <glyph glyph-name="uni215D" unicode="&#x215d;" horiz-adv-x="1798" 
d="M464 0h-150l894 1320h150zM314 610q69 0 107.5 33t38.5 79q0 39 -21.5 66t-62.5 41.5t-91 20.5t-117 6l-16 10l62 454h394v-194h-360l-10 -72q73 -3 128 -10.5t110 -24t90.5 -42.5t57.5 -68.5t22 -98.5q0 -115 -99 -196.5t-235 -81.5q-100 0 -171 35t-71 101
q0 33 24.5 54.5t57.5 21.5q31 0 56.5 -21t39 -46t31 -46t35.5 -21zM1696 234q0 -71 -48.5 -128.5t-126.5 -88.5t-167 -31q-143 0 -230.5 58t-87.5 148q0 109 160 160q-128 73 -128 198q0 90 82.5 163t215.5 73q117 0 199.5 -56.5t82.5 -137.5q0 -50 -41.5 -85t-106.5 -49
q92 -38 144 -88t52 -136zM1264 620q0 -26 13.5 -47t42.5 -38.5t55 -28.5t70 -28q7 -3 11 -4q38 54 38 128q0 51 -34.5 82.5t-85.5 31.5q-49 0 -79.5 -26t-30.5 -70zM1206 208q0 -69 42.5 -109.5t107.5 -40.5q53 0 88.5 30.5t35.5 77.5q0 25 -13 44.5t-40 36t-51.5 27.5
t-67 28t-66.5 28q-36 -57 -36 -122z" />
    <glyph glyph-name="uni215E" unicode="&#x215e;" horiz-adv-x="1728" 
d="M394 0h-150l894 1320h150zM284 1112q-69 0 -92 -21.5t-50 -100.5h-64l16 330h576v-70l-250 -706h-208v26l314 542h-242zM1626 234q0 -71 -48.5 -128.5t-126.5 -88.5t-167 -31q-143 0 -230.5 58t-87.5 148q0 109 160 160q-128 73 -128 198q0 90 82.5 163t215.5 73
q117 0 199.5 -56.5t82.5 -137.5q0 -50 -41.5 -85t-106.5 -49q92 -38 144 -88t52 -136zM1194 620q0 -26 13.5 -47t42.5 -38.5t55 -28.5t70 -28q7 -3 11 -4q38 54 38 128q0 51 -34.5 82.5t-85.5 31.5q-49 0 -79.5 -26t-30.5 -70zM1136 208q0 -69 42.5 -109.5t107.5 -40.5
q53 0 88.5 30.5t35.5 77.5q0 25 -13 44.5t-40 36t-51.5 27.5t-67 28t-66.5 28q-36 -57 -36 -122z" />
    <glyph glyph-name="minus" unicode="&#x2212;" 
d="M60 544v140h1000v-140h-1000z" />
    <glyph glyph-name="i.dot" horiz-adv-x="634" 
d="M150 1290q0 78 51.5 130t128.5 52t128.5 -52t51.5 -130t-51.5 -130t-128.5 -52t-128.5 52t-51.5 130zM176 700q0 31 -10 47.5t-36 30.5l-66 36v60l360 106h60v-848q0 -29 17.5 -36.5t84.5 -7.5v-88h-512v88q67 0 84.5 7.5t17.5 36.5v568z" />
    <glyph glyph-name="a.ord" horiz-adv-x="870" 
d="M654 606q-55 0 -92.5 23t-71.5 73q-64 -54 -119 -75t-119 -21q-79 0 -130.5 47t-51.5 113q0 44 19.5 80.5t49 63.5t87 56.5t111 50.5t143.5 53v64q0 61 -22.5 89.5t-71.5 28.5q-34 0 -60 -15.5t-26 -46.5q0 -4 3 -22t3 -26q0 -43 -29 -72.5t-79 -29.5q-45 0 -75.5 28
t-30.5 78q0 85 113 144.5t263 59.5q126 0 197 -59.5t71 -156.5v-382q0 -16 3.5 -22t14.5 -6q33 0 66 40l50 -48q-94 -110 -216 -110zM480 994q-26 -11 -40.5 -17.5t-39.5 -22t-38.5 -30t-24.5 -38t-11 -50.5q0 -48 26.5 -73t65.5 -25q30 0 62 20v236z" />
    <glyph glyph-name="b.ord" horiz-adv-x="956" 
d="M890 1004q0 -170 -114.5 -284t-271.5 -114q-119 0 -216 100l-100 -86h-82v890q0 42 -34 62l-42 24v50l284 84h52v-512q23 45 86.5 88.5t145.5 43.5q124 0 208 -99t84 -247zM472 1198q-74 0 -106 -52v-372q18 -33 46 -49.5t56 -16.5q70 0 116 66.5t46 181.5
q0 110 -41.5 176t-116.5 66z" />
    <glyph glyph-name="c.ord" horiz-adv-x="786" 
d="M460 1260q-58 0 -98 -66.5t-40 -175.5q0 -117 52 -193.5t144 -76.5q99 0 172 94l56 -50q-99 -186 -316 -186q-93 0 -175 44t-134.5 127t-52.5 185q0 161 122.5 274.5t297.5 113.5q110 0 177 -48.5t67 -115.5q0 -42 -26.5 -65t-71.5 -23q-34 0 -56.5 16.5t-34 40.5
t-21.5 48t-25 40.5t-37 16.5z" />
    <glyph glyph-name="d.ord" horiz-adv-x="984" 
d="M926 660l-284 -54h-52v130q-28 -46 -90 -88t-142 -42q-122 0 -206 99.5t-84 246.5q0 168 110 283t260 115q38 0 70.5 -11.5t45 -20t36.5 -28.5v220q0 42 -34 62l-42 24v50l284 84h52v-936q0 -43 34 -60l42 -26v-48zM326 1002q0 -107 46 -176.5t116 -69.5q67 0 102 50v374
q-42 72 -118 72q-62 0 -104 -67.5t-42 -182.5z" />
    <glyph glyph-name="e.ord" horiz-adv-x="858" 
d="M784 806q-47 -95 -133.5 -147.5t-202.5 -52.5q-157 0 -268.5 97t-111.5 257q0 159 111.5 274.5t276.5 115.5q108 0 185 -49t113 -127t36 -176v-32h-464q9 -105 62.5 -163.5t143.5 -58.5q60 0 102 27t84 87zM450 1252q-114 0 -124 -200h222q0 200 -98 200z" />
    <glyph glyph-name="f.ord" horiz-adv-x="584" 
d="M518 686v-66h-442v66q44 0 56 6t12 28v522h-92v92h92v12q0 157 118 270.5t300 113.5q85 0 141.5 -31t56.5 -89q0 -48 -30.5 -72t-71.5 -24q-36 0 -63.5 20t-40.5 44t-30.5 44t-35.5 20q-33 0 -58.5 -37.5t-25.5 -106.5v-164h160v-92h-160v-524q0 -21 20.5 -26.5
t93.5 -5.5z" />
    <glyph glyph-name="g.ord" horiz-adv-x="914" 
d="M864 596q0 -135 -131 -219.5t-327 -84.5q-170 0 -281 52t-111 138q0 101 192 118q-58 27 -87 62.5t-29 89.5q0 58 42 102.5t98 69.5q-73 31 -110.5 82.5t-37.5 113.5q0 95 94 162.5t246 67.5q128 0 220 -54q105 120 190 120q52 0 80 -27.5t28 -74.5q0 -43 -26 -68.5
t-66 -25.5q-24 0 -41.5 10t-25.5 22t-18.5 22t-22.5 10q-22 0 -50 -22q72 -63 72 -142q0 -94 -94.5 -161t-245.5 -67q-64 0 -134 14q-54 -30 -54 -70q0 -38 64 -38h292q274 0 274 -202zM332 1120q0 -146 90 -146t90 146t-90 146t-90 -146zM532 574h-276q-56 -19 -56 -76
q0 -51 61.5 -79.5t160.5 -28.5q108 0 175 27.5t67 84.5q0 32 -32 52t-100 20z" />
    <glyph glyph-name="h.ord" horiz-adv-x="988" 
d="M456 686v-66h-398v66q45 0 57.5 6t12.5 28v790q0 42 -34 62l-44 24v50l286 84h52v-518q115 138 252 138q100 0 159 -63.5t59 -164.5v-402q0 -22 11.5 -28t56.5 -6v-66h-398v66q45 0 57.5 6t12.5 28v340q0 134 -104 134q-61 0 -106 -42v-432q0 -22 11.5 -28t56.5 -6z" />
    <glyph glyph-name="i.ord" horiz-adv-x="536" 
d="M128 1576q0 66 42.5 109t107.5 43q64 0 107 -43t43 -109q0 -64 -43.5 -107t-106.5 -43q-64 0 -107 43t-43 107zM146 1130q0 44 -34 62l-42 26v48l284 84h52v-630q0 -22 12.5 -28t57.5 -6v-66h-398v66q45 0 56.5 6t11.5 28v410z" />
    <glyph glyph-name="j.ord" horiz-adv-x="518" 
d="M124 1576q0 66 43 109t107 43q65 0 107.5 -43t42.5 -109q0 -64 -43 -107t-107 -43q-63 0 -106.5 43t-43.5 107zM144 1130q0 42 -34 62l-44 26v48l286 84h52v-724q0 -133 -118 -233.5t-274 -100.5q-72 0 -121 31.5t-49 90.5q0 42 28 69t70 27q31 0 52.5 -13t33.5 -31.5
t21.5 -37t21 -31.5t27.5 -13q48 0 48 66v680z" />
    <glyph glyph-name="k.ord" horiz-adv-x="1002" 
d="M456 686v-66h-398v66q45 0 57.5 6t12.5 28v790q0 42 -34 62l-44 24v50l286 84h52v-734l278 210q12 8 23 22t11 22q0 14 -16 17t-62 3v64h316v-64q-70 -2 -138 -52l-166 -130l262 -364q16 -23 31 -30.5t51 -7.5v-66h-430v66q64 0 64 22q0 11 -14 34l-142 210l-68 -54v-178
q0 -22 11.5 -28t56.5 -6z" />
    <glyph glyph-name="l.ord" horiz-adv-x="512" 
d="M128 1510q0 42 -34 62l-44 24v50l286 84h52v-1010q0 -22 11.5 -28t56.5 -6v-66h-398v66q45 0 57.5 6t12.5 28v790z" />
    <glyph glyph-name="m.ord" horiz-adv-x="1472" 
d="M476 686v-66h-398v66q45 0 56.5 6t11.5 28v410q0 44 -34 62l-42 26v48l284 84h52v-140q43 58 107 99t143 41q77 0 130 -37t74 -101q44 53 115.5 95.5t148.5 42.5q100 0 158 -63.5t58 -164.5v-402q0 -22 12.5 -28t57.5 -6v-66h-398v66q45 0 56.5 6t11.5 28v340
q0 59 -23 96.5t-75 37.5q-71 0 -110 -44q2 -8 2 -28v-402q0 -22 11.5 -28t56.5 -6v-66h-398v66q45 0 57.5 6t12.5 28v340q0 58 -24 96t-76 38q-69 0 -108 -44v-430q0 -22 12.5 -28t57.5 -6z" />
    <glyph glyph-name="n.ord" horiz-adv-x="1008" 
d="M476 686v-66h-398v66q45 0 56.5 6t11.5 28v410q0 44 -34 62l-42 26v48l284 84h52v-140q112 140 254 140q99 0 157.5 -63.5t58.5 -164.5v-402q0 -22 12.5 -28t57.5 -6v-66h-398v66q45 0 56.5 6t11.5 28v340q0 134 -102 134q-64 0 -108 -44v-430q0 -22 12.5 -28t57.5 -6z
" />
    <glyph glyph-name="o.ord" horiz-adv-x="932" 
d="M68 978q0 157 115.5 264.5t282.5 107.5q166 0 282 -107.5t116 -264.5q0 -158 -116 -265t-282 -107q-167 0 -282.5 107t-115.5 265zM590 978q0 134 -32.5 206t-91.5 72t-91.5 -72t-32.5 -206q0 -135 32.5 -207.5t91.5 -72.5t91.5 72.5t32.5 207.5z" />
    <glyph glyph-name="p.ord" horiz-adv-x="992" 
d="M514 372v-66h-442v66q44 0 56 6t12 28v724q0 42 -34 62l-42 26v48l284 84h52v-132q23 45 86.5 88.5t145.5 43.5q124 0 208 -99t84 -247q0 -167 -112.5 -282.5t-267.5 -115.5q-34 0 -63.5 10.5t-44.5 20.5t-36 29v-260q0 -22 20.5 -28t93.5 -6zM508 1198q-35 0 -64 -14
t-44 -38v-372q42 -72 118 -72q60 0 103 70t43 184q0 110 -41 176t-115 66z" />
    <glyph glyph-name="q.ord" horiz-adv-x="958" 
d="M920 372v-66h-442v66q73 0 92.5 6t19.5 28v328q-28 -45 -89.5 -86.5t-140.5 -41.5q-122 0 -207 94.5t-85 245.5q0 86 34 163t89 129t124 82t139 30q68 0 117 -25.5t93 -72.5l104 78h82v-924q0 -22 12.5 -28t57.5 -6zM326 998q0 -108 46.5 -175t115.5 -67t102 50v376
q-40 66 -102 66q-65 0 -113.5 -68.5t-48.5 -181.5z" />
    <glyph glyph-name="r.ord" horiz-adv-x="776" 
d="M520 686v-66h-442v66q45 0 56.5 6t11.5 28v410q0 44 -34 62l-42 26v48l284 84h52v-182q55 86 105.5 134t106.5 48q61 0 97.5 -36.5t36.5 -101.5q0 -56 -37 -90t-77 -34q-33 0 -55.5 15.5t-38 31t-32.5 15.5q-23 0 -55.5 -20.5t-50.5 -51.5v-360q0 -21 20.5 -26.5
t93.5 -5.5z" />
    <glyph glyph-name="s.ord" horiz-adv-x="772" 
d="M408 1262q-39 0 -63.5 -21t-24.5 -59q0 -32 28.5 -51.5t71 -28t92.5 -23.5t92.5 -35t71 -66t28.5 -114q0 -113 -100 -185.5t-242 -72.5q-160 0 -272 64l-18 192h76q38 -95 93 -132.5t129 -37.5q47 0 80.5 23t33.5 59q0 32 -21.5 52.5t-56 31.5t-76 20t-83 24t-76 37
t-56 64.5t-21.5 102.5q0 100 91 172t229 72q129 0 230 -52v-174h-70q-19 70 -63 104t-103 34z" />
    <glyph glyph-name="t.ord" horiz-adv-x="656" 
d="M620 738q-64 -66 -125.5 -99t-152.5 -33q-103 0 -167.5 50.5t-64.5 143.5v442h-92v92h92v186l260 76v-262h206v-92h-206v-412q0 -44 22.5 -67t59.5 -23q27 0 51.5 13.5t60.5 48.5z" />
    <glyph glyph-name="u.ord" horiz-adv-x="978" 
d="M924 660l-284 -54h-52v130q-98 -130 -246 -130q-103 0 -158.5 64t-55.5 162v352q0 52 -34 60l-52 18v56l294 20h52v-442q0 -136 98 -136q64 0 102 40v384q0 52 -34 60l-52 18v56l294 20h52v-544q0 -43 34 -60l42 -26v-48z" />
    <glyph glyph-name="v.ord" horiz-adv-x="864" 
d="M586 1334h258v-64q-35 -3 -44.5 -9t-21.5 -33l-282 -616h-128l-284 616q-13 28 -21.5 33.5t-42.5 8.5v64h438v-64q-45 0 -64.5 -5t-19.5 -19q0 -13 10 -40l126 -322h6l144 322q10 27 10 40q0 14 -19.5 19t-64.5 5v64z" />
    <glyph glyph-name="w.ord" horiz-adv-x="1226" 
d="M778 612l-168 424h-6l-160 -424h-118l-242 616q-10 27 -19.5 33t-44.5 9v64h434v-64q-45 0 -64.5 -5t-19.5 -19q0 -21 8 -42l86 -294h6l160 424h108l166 -424h6l110 296q10 27 10 40q0 14 -20 19t-66 5v64h260v-64q-35 -3 -44.5 -9t-19.5 -33l-242 -616h-120z" />
    <glyph glyph-name="x.ord" horiz-adv-x="930" 
d="M326 686v-66h-308v66q45 3 65.5 10t38.5 30l206 246l-220 258q-21 24 -34 30.5t-46 9.5v64h444v-64q-74 0 -74 -26q0 -14 22 -40l102 -120l100 120q22 25 22 40q0 26 -76 26v64h288v-64q-33 -3 -51 -10.5t-37 -29.5l-188 -212l250 -292q21 -25 33 -31t49 -9v-66h-448v66
q76 -3 76 24q0 12 -22 38l-130 152l-114 -150q-24 -27 -24 -40q0 -27 76 -24z" />
    <glyph glyph-name="y.ord" horiz-adv-x="864" 
d="M456 526q-20 -42 -46 -80.5t-61 -74.5t-79.5 -57.5t-91.5 -21.5q-58 0 -100 33.5t-42 82.5q0 51 29 78.5t69 27.5q30 0 50 -13t27.5 -28t20 -28t30.5 -13q47 0 122 158l-300 638q-13 28 -21.5 33.5t-42.5 8.5v64h438v-64q-45 0 -64.5 -5t-19.5 -19q0 -20 10 -40l128 -314
h8l140 314q10 27 10 40q0 14 -19.5 19t-64.5 5v64h258v-64q-34 -3 -43.5 -8.5t-22.5 -33.5z" />
    <glyph glyph-name="z.ord" horiz-adv-x="850" 
d="M322 1258q-54 0 -79 -11.5t-44 -52t-35 -130.5h-72v270h668v-58l-380 -578h156q31 0 48 1.5t34.5 11t26 20t20.5 40t20 58.5t23 87h76l-22 -296h-688v58l384 580h-136z" />
    <glyph glyph-name="caron.Slovak" horiz-adv-x="1000" 
d="M380 1326q3 85 43 129.5t93 44.5q48 0 83 -35t35 -93q0 -46 -22 -96l-164 -354l-80 12z" />
    <glyph glyph-name="commaturn" horiz-adv-x="1000" 
d="M512 1340q0 -15 19 -24.5t41 -17t41 -33t19 -67.5q0 -56 -44 -93t-104 -37q-74 0 -120 49t-46 127q0 105 94.5 183t251.5 81l18 -82q-82 -3 -126 -28t-44 -58z" />
    <glyph glyph-name="uni00200326" horiz-adv-x="1000" 
d="M518 -346q0 15 -19 24.5t-41 17t-41 33t-19 67.5q0 56 44 93t104 37q74 0 120 -49t46 -127q0 -105 -94.5 -183t-251.5 -81l-18 82q82 3 126 28t44 58z" />
    <glyph glyph-name="guilsinglleft.cap" horiz-adv-x="696" 
d="M90 628v20l382 400h134l-196 -410l196 -410h-134z" />
    <glyph glyph-name="guilsinglright.cap" horiz-adv-x="696" 
d="M606 648v-20l-382 -400h-134l196 410l-196 410h134z" />
    <glyph glyph-name="guillemotleft.cap" horiz-adv-x="1156" 
d="M90 628v20l382 400h134l-196 -410l196 -410h-134zM550 628v20l382 400h134l-196 -410l196 -410h-134z" />
    <glyph glyph-name="guillemotright.cap" horiz-adv-x="1156" 
d="M1066 648v-20l-382 -400h-134l196 410l-196 410h134zM606 648v-20l-382 -400h-134l196 410l-196 410h134z" />
    <glyph glyph-name="slash.cap" horiz-adv-x="894" 
d="M814 1540l-554 -1796h-180l554 1796h180z" />
    <glyph glyph-name="backslash.cap" horiz-adv-x="894" 
d="M634 -256l-554 1796h180l554 -1796h-180z" />
    <glyph glyph-name="bar.cap" horiz-adv-x="654" 
d="M414 1540v-1796h-174v1796h174z" />
    <glyph glyph-name="periodcentered.cap" horiz-adv-x="636" 
d="M520 672q0 -83 -59 -141.5t-143 -58.5t-143 58.5t-59 141.5t59 141.5t143 58.5t143 -58.5t59 -141.5z" />
    <glyph glyph-name="bullet.cap" horiz-adv-x="980" 
d="M490 292q-154 0 -264 110.5t-110 263.5q0 156 109.5 266t264.5 110t264.5 -110t109.5 -266q0 -153 -110 -263.5t-264 -110.5z" />
    <glyph glyph-name="hyphen.cap" horiz-adv-x="808" 
d="M692 574h-576v184h576v-184z" />
    <glyph glyph-name="endash.cap" horiz-adv-x="1232" 
d="M1116 588h-1000v156h1000v-156z" />
    <glyph glyph-name="emdash.cap" horiz-adv-x="2232" 
d="M2116 588h-2000v156h2000v-156z" />
    <glyph glyph-name="parenleft.cap" horiz-adv-x="810" 
d="M426 642q0 -264 91.5 -482t252.5 -372l-50 -64q-132 77 -237.5 169.5t-188.5 206t-128.5 252t-45.5 290.5t45.5 290.5t128.5 252t188.5 206t237.5 169.5l50 -64q-161 -154 -252.5 -372t-91.5 -482z" />
    <glyph glyph-name="parenright.cap" horiz-adv-x="810" 
d="M40 -212q161 154 252.5 372t91.5 482t-91.5 482t-252.5 372l50 64q132 -77 237.5 -169.5t188.5 -206t128.5 -252t45.5 -290.5t-45.5 -290.5t-128.5 -252t-188.5 -206t-237.5 -169.5z" />
    <glyph glyph-name="bracketleft.cap" horiz-adv-x="818" 
d="M758 -158v-98h-598v1796h598v-94l-202 -10q-73 -3 -96.5 -17.5t-23.5 -62.5v-1424q0 -48 23.5 -62.5t96.5 -17.5z" />
    <glyph glyph-name="bracketright.cap" horiz-adv-x="818" 
d="M60 -256v98l202 10q73 3 96.5 17.5t23.5 62.5v1424q0 48 -23.5 62.5t-96.5 17.5l-202 10v94h598v-1796h-598z" />
    <glyph glyph-name="braceleft.cap" horiz-adv-x="894" 
d="M70 614v52q107 16 161.5 69.5t54.5 160.5v256q0 90 47.5 165.5t125.5 123t175 73.5t200 26v-94q-137 -9 -197.5 -79t-60.5 -245v-218q0 -55 -35 -103.5t-89.5 -80t-112 -52t-111.5 -28.5q54 -8 111.5 -28.5t112 -52t89.5 -80t35 -103.5v-218q0 -175 60.5 -245t197.5 -79
v-94q-103 0 -200 26t-175 73.5t-125.5 123t-47.5 165.5v256q0 107 -54.5 160.5t-161.5 69.5z" />
    <glyph glyph-name="braceright.cap" horiz-adv-x="894" 
d="M824 666v-52q-107 -16 -161.5 -69.5t-54.5 -160.5v-256q0 -90 -47.5 -165.5t-125.5 -123t-175 -73.5t-200 -26v94q137 9 197.5 79t60.5 245v218q0 55 35 103.5t89.5 80t112 52t111.5 28.5q-54 8 -111.5 28.5t-112 52t-89.5 80t-35 103.5v218q0 175 -60.5 245t-197.5 79
v94q103 0 200 -26t175 -73.5t125.5 -123t47.5 -165.5v-256q0 -107 54.5 -160.5t161.5 -69.5z" />
    <glyph glyph-name="at.cap" horiz-adv-x="2100" 
d="M1352 314q43 0 99.5 26t116 77.5t110 119t82.5 160.5t32 191q0 217 -144 342.5t-424 125.5q-181 0 -349.5 -81.5t-287 -210t-190 -291.5t-71.5 -323q0 -268 178.5 -415t479.5 -147q305 0 574 156l42 -84q-114 -85 -298 -138.5t-378 -53.5q-381 0 -600.5 175t-219.5 489
q0 146 56 295.5t162 282t246.5 236t324 164t379.5 60.5q169 0 306 -43.5t228 -120.5t140.5 -183.5t49.5 -232.5q0 -121 -49.5 -233t-132.5 -195.5t-188 -146t-221 -95t-227 -32.5q-70 0 -103 27.5t-33 74.5q0 63 90 236h-8q-253 -338 -442 -338q-72 0 -116 49.5t-44 136.5
q0 116 56.5 243t144.5 227.5t201.5 166t219.5 65.5q63 0 108.5 -31t61.5 -77l64 90h238l-268 -650q-22 -57 -22 -70q0 -24 26 -24zM880 386q49 0 142.5 102t166.5 226.5t73 183.5q0 82 -74 82q-68 0 -155.5 -89t-148 -212.5t-60.5 -216.5q0 -76 56 -76z" />
    <glyph glyph-name="uni0192.lt" horiz-adv-x="1118" 
d="M452 68q-43 -224 -199.5 -368t-372.5 -144q-93 0 -158.5 40t-65.5 106q0 57 35 91.5t91 34.5q39 0 68 -26t43.5 -57t37.5 -57t51 -26q24 0 42 8t40.5 39t40 85.5t36 153t33.5 236.5l48 430h-146v116h158l12 102q24 221 193.5 364.5t404.5 143.5q105 0 171.5 -40
t66.5 -112q0 -50 -33.5 -84t-90.5 -34q-32 0 -55.5 17t-36.5 41t-25 48t-29 41t-40 17q-52 0 -85.5 -53t-56.5 -169l-54 -282h254v-116h-276z" />
    <glyph glyph-name="Euro.lt" horiz-adv-x="1118" 
d="M1094 254q-156 -274 -430 -274q-198 0 -336.5 136.5t-173.5 385.5h-110v112h100v42q0 52 6 100h-108v112h130q57 211 213 341.5t355 130.5q155 0 246.5 -62.5t91.5 -149.5q0 -55 -34.5 -91.5t-89.5 -36.5q-41 0 -69.5 22.5t-44 55t-30 65t-39.5 55t-61 22.5
q-96 0 -159.5 -94t-86.5 -258h366l-28 -112h-348q-2 -24 -2 -76q0 -44 2 -66h312l-30 -112h-272q22 -168 92 -256t180 -88q151 0 270 174z" />
    <glyph glyph-name="dollar.lt" 
d="M1074 430q0 -90 -40 -168.5t-106 -132.5t-148 -87t-168 -40v-212h-102v212q-258 11 -430 128l-20 338h110q41 -157 123.5 -242t216.5 -100v416q-45 13 -68.5 19.5t-66 20.5t-66.5 25t-59 30t-55.5 37t-44.5 44.5t-36.5 55.5t-21 66.5t-8.5 79.5q0 148 121.5 260.5
t304.5 135.5v198h102v-194q112 -3 200 -30.5t174 -75.5v-302h-104q-61 255 -270 282v-384q10 -3 29 -8q46 -12 69.5 -19t66.5 -21t67.5 -25t60.5 -29.5t56.5 -36.5t45 -44t37 -54.5t21.5 -65t9 -77.5zM330 1020q0 -66 46.5 -107t133.5 -71v352q-84 -10 -132 -57.5
t-48 -116.5zM820 314q0 76 -53 119.5t-155 78.5v-388q90 11 149 61t59 129z" />
    <glyph glyph-name="cent.lt" 
d="M1020 230q-118 -215 -350 -246v-194h-102v190q-123 7 -228.5 66.5t-172.5 168t-67 243.5q0 193 134 337.5t334 176.5v200h102v-192q139 -1 234.5 -62.5t95.5 -143.5q0 -54 -35.5 -87t-92.5 -33q-42 0 -72 25t-44.5 57t-37 67t-48.5 49v-706h24q139 0 246 146zM394 518
q0 -128 46 -217t128 -129v682q-74 -27 -124 -117.5t-50 -218.5z" />
    <glyph glyph-name="sterling.lt" 
d="M1122 392q-34 -192 -114.5 -302t-199.5 -110q-22 0 -43 2.5t-42.5 10.5t-37 13.5t-37.5 20.5t-33 21.5t-34 26t-30.5 25.5t-32.5 29t-30 27q-59 -87 -132 -131.5t-142 -44.5q-93 0 -150.5 54t-57.5 140q0 90 65 151t155 61q53 0 110 -10v58q0 56 -12 180h-160v116h150
q-8 100 -8 154q0 126 63.5 232t164.5 165t214 59q147 0 233.5 -62.5t86.5 -149.5q0 -54 -34 -91t-86 -37q-35 0 -60 23.5t-39.5 56.5t-28.5 66t-35.5 56.5t-52.5 23.5q-27 0 -46.5 -17.5t-30.5 -44.5t-17.5 -71t-8 -83.5t-1.5 -95.5v-184h226v-116h-230q-11 -171 -60 -308
q105 -34 228 -34q41 0 74 5.5t67.5 20.5t62 46t46.5 78zM124 182q0 -42 25 -67t65 -25q56 0 82 40t34 134q-42 18 -92 18q-49 0 -81.5 -27.5t-32.5 -72.5z" />
    <glyph glyph-name="yen.lt" 
d="M864 96v-96h-636v96h46q57 0 83.5 6t33.5 17t7 35v290h-274v112h274v110l-18 32h-258v112h196l-196 354q-22 39 -39.5 49.5t-66.5 10.5v96h572v-96q-91 0 -123.5 -8t-32.5 -30q0 -14 12 -38l186 -364h8l210 364q12 19 12 38q0 22 -32 30t-124 8v96h400v-96q-50 0 -69 -11
t-41 -49l-210 -354h184v-112h-252l-22 -38v-104h276v-112h-276v-290q0 -35 22 -46.5t102 -11.5h46z" />
    <glyph glyph-name="zero.op" horiz-adv-x="1278" 
d="M1194 566q0 -125 -45 -234.5t-120.5 -186.5t-177.5 -121t-213 -44t-213 44t-177 121t-119.5 186.5t-44.5 234.5t44.5 234.5t119.5 186.5t177 121t213 44t213 -44t177.5 -121t120.5 -186.5t45 -234.5zM420 566q0 -225 57 -347.5t161 -122.5q105 0 160.5 122t55.5 348
t-55.5 348t-160.5 122q-104 0 -161 -122.5t-57 -347.5z" />
    <glyph glyph-name="one.op" horiz-adv-x="942" 
d="M886 120v-120h-800v120h66q118 0 149 9t31 43v640h-236v122q338 0 452 218h112v-980q0 -34 31 -43t149 -9h46z" />
    <glyph glyph-name="two.op" horiz-adv-x="1064" 
d="M122 740l-76 48q75 167 201 265.5t275 98.5q166 0 265 -98t99 -240q0 -42 -14 -84.5t-34 -78t-56 -74.5t-66 -67.5t-78 -62.5t-79 -54.5t-82.5 -50t-74 -41.5t-66.5 -35v-8h402q65 0 101.5 33t94.5 141l66 -26l-88 -406h-862v110q48 41 118 101t107 91.5t88.5 78t78 74.5
t58 66t46 67t24.5 63.5t10 68.5q0 91 -51 141.5t-149 50.5q-77 0 -144 -47t-114 -125z" />
    <glyph glyph-name="three.op" horiz-adv-x="1024" 
d="M852 878q0 -56 -28 -107.5t-75 -91t-100 -69t-111 -50.5q63 -9 119.5 -25t111 -44.5t93 -66.5t62.5 -93t24 -121q0 -82 -35 -158.5t-95 -135t-135.5 -102.5t-161 -67t-167.5 -23q-85 0 -160.5 22t-126.5 69.5t-51 112.5q0 50 36.5 83t85.5 33q32 0 60.5 -15.5t47.5 -38
t39 -49.5t36 -49.5t37 -38t44 -15.5q108 0 172 82t64 204q0 262 -340 262l-24 64q131 93 196.5 169.5t65.5 162.5q0 65 -40 113.5t-118 48.5q-118 0 -220 -134l-80 68q186 274 466 274q135 0 221.5 -78t86.5 -196z" />
    <glyph glyph-name="four.op" horiz-adv-x="1190" 
d="M912 -276h-308v452h-568v94l678 862h198v-828h242v-128h-242v-452zM214 304h390v494h-8l-382 -486v-8z" />
    <glyph glyph-name="five.op" horiz-adv-x="982" 
d="M346 -276q-148 0 -247 50t-99 146q0 50 36 84t88 34q37 0 68.5 -20.5t53.5 -50t42 -59t44 -50t50 -20.5q111 0 187.5 66t76.5 184q0 149 -139.5 230.5t-358.5 81.5l-28 16l148 716h598v-282h-554l-38 -186q109 -5 201 -22.5t175 -52.5t140 -86t90.5 -127t33.5 -172
q0 -133 -81 -244.5t-211 -173.5t-276 -62z" />
    <glyph glyph-name="six.op" horiz-adv-x="1184" 
d="M1100 442q0 -193 -144.5 -327.5t-357.5 -134.5q-139 0 -256.5 73t-187.5 205.5t-70 295.5q0 193 96 367.5t282 307t436 195.5l38 -98q-194 -75 -329 -226t-179 -376q57 56 133 88t159 32q157 0 268.5 -111t111.5 -291zM410 522q0 -209 58.5 -319.5t149.5 -110.5
q82 0 130 88t48 218q0 142 -57.5 218t-164.5 76q-80 0 -156 -38q-8 -56 -8 -132z" />
    <glyph glyph-name="seven.op" horiz-adv-x="1054" 
d="M394 872q-49 0 -72 -1t-50 -10t-37.5 -20t-27 -41.5t-26.5 -64t-27 -97.5h-98l24 494h918v-108l-408 -1168q-23 -67 -65 -99.5t-95 -32.5q-62 0 -99 40.5t-37 107.5q0 46 30 100l496 900h-426z" />
    <glyph glyph-name="eight.op" horiz-adv-x="1148" 
d="M1072 416q0 -79 -39 -157.5t-105 -140t-161.5 -100t-200.5 -38.5q-217 0 -353.5 104t-136.5 262q0 107 81.5 181.5t220.5 128.5q-56 31 -96.5 62t-77.5 74.5t-56.5 100t-19.5 125.5q0 74 33.5 146.5t92.5 130t147 93.5t189 36q187 0 303.5 -96t116.5 -244
q0 -87 -69 -156.5t-179 -109.5q54 -27 94.5 -52t83 -61.5t70 -76.5t45 -94.5t17.5 -117.5zM382 1128q0 -37 15.5 -69.5t39.5 -56.5t62.5 -49t75.5 -43.5t87 -42.5q21 -10 32 -15q82 112 82 236q0 106 -51.5 163t-144.5 57q-86 0 -142 -51.5t-56 -128.5zM340 362
q0 -126 64 -198t162 -72q99 0 166.5 63.5t67.5 156.5q0 31 -9 58.5t-22 49t-37.5 43.5t-44.5 36.5t-56 33.5t-59 30t-65.5 30.5t-64.5 30.5q-47 -52 -74.5 -121.5t-27.5 -140.5z" />
    <glyph glyph-name="nine.op" horiz-adv-x="1184" 
d="M1100 578q0 -193 -96 -367.5t-282 -307t-436 -195.5l-38 98q194 75 329 226t179 376q-57 -56 -133 -88t-159 -32q-157 0 -268.5 111t-111.5 291q0 193 144.5 327.5t357.5 134.5q139 0 256.5 -73t187.5 -205.5t70 -295.5zM388 734q0 -142 57.5 -218t164.5 -76q80 0 156 38
q8 56 8 132q0 209 -58.5 319.5t-149.5 110.5q-82 0 -130 -88t-48 -218z" />
    <glyph glyph-name="zero.lt" 
d="M1062 660q0 -194 -67 -350.5t-181.5 -243t-253.5 -86.5t-253.5 86.5t-181.5 243t-67 350.5t67 350.5t181.5 243t253.5 86.5t253.5 -86.5t181.5 -243t67 -350.5zM392 660q0 -280 37 -419t131 -139t131 139t37 419t-37 419t-131 139t-131 -139t-37 -419z" />
    <glyph glyph-name="one.lt" 
d="M1020 132v-132h-920v132h126q118 0 149 9t31 43v810h-296v128q193 0 325 56t187 162h112v-1156q0 -34 31 -43t149 -9h106z" />
    <glyph glyph-name="two.lt" 
d="M124 918l-80 50q80 171 212 271.5t290 100.5q175 0 280.5 -104.5t105.5 -251.5q0 -51 -15 -103t-36 -94.5t-62 -93t-73 -84.5t-89 -84t-91.5 -77.5t-99.5 -79t-94 -74.5v-8h394q68 0 107.5 34.5t100.5 145.5l74 -26l-98 -440h-902v108q160 139 267.5 251t168 203.5
t85.5 164.5t25 147q0 94 -52.5 153t-149.5 59q-165 0 -268 -168z" />
    <glyph glyph-name="three.lt" 
d="M914 1072q0 -55 -22 -102.5t-63.5 -85t-83 -64t-97.5 -54.5q376 -58 376 -340q0 -78 -36.5 -149.5t-97 -124.5t-136 -92.5t-157 -59.5t-157.5 -20q-102 0 -187.5 22.5t-141 72t-55.5 117.5q0 51 37 84.5t89 33.5q39 0 72 -22t56 -53t44 -62t46 -53t52 -22q93 0 162.5 74
t69.5 198q0 122 -82.5 185t-229.5 63l-26 72q126 85 178 147.5t52 140.5q0 60 -42.5 101t-111.5 41q-121 0 -220 -130l-88 64q187 286 472 286q141 0 234.5 -74.5t93.5 -193.5z" />
    <glyph glyph-name="four.lt" horiz-adv-x="1118" 
d="M1056 0h-680v96q118 0 149 9t31 43v224h-536v94l618 854h238v-820h222v-128h-222v-224q0 -34 31 -43t149 -9v-96zM198 500h358v500h-8l-350 -492v-8z" />
    <glyph glyph-name="five.lt" horiz-adv-x="1118" 
d="M474 98q118 0 191 64t73 168q0 73 -38 125.5t-107 82t-154.5 43t-192.5 13.5l-32 16l92 710h640v-286h-582l-18 -160q662 -29 662 -428q0 -128 -75 -236t-200.5 -169t-270.5 -61q-102 0 -187.5 22.5t-141 72t-55.5 117.5q0 51 37 84.5t89 33.5q39 0 72 -22t56 -53t44 -62
t46 -53t52 -22z" />
    <glyph glyph-name="six.lt" horiz-adv-x="1118" 
d="M1068 434q0 -87 -36.5 -169.5t-100.5 -145.5t-157.5 -101t-199.5 -38q-107 0 -202.5 42t-165.5 115t-111 177t-41 222q0 195 105.5 361.5t300.5 281.5t452 161l38 -108q-93 -26 -174 -68.5t-152 -102.5t-123.5 -143t-80.5 -182q116 86 246 86q169 0 285.5 -109.5
t116.5 -278.5zM390 504q0 -196 57 -304t145 -108q53 0 90 44t52.5 110t15.5 148q0 133 -51.5 210.5t-152.5 77.5q-71 0 -146 -36q-10 -73 -10 -142z" />
    <glyph glyph-name="seven.lt" 
d="M418 1026q-49 0 -72 -1t-50 -10t-37.5 -20t-27 -41.5t-26.5 -64t-27 -97.5h-98l24 528h948v-108l-452 -1212h-310v36l552 990h-424z" />
    <glyph glyph-name="eight.lt" 
d="M1082 374q0 -100 -65.5 -190t-187 -147t-269.5 -57q-232 0 -377 98t-145 248q0 197 282 300q-103 57 -161.5 134.5t-58.5 191.5q0 70 32 138.5t89 124.5t144 90.5t187 34.5q202 0 335 -95.5t133 -234.5q0 -87 -63 -155t-171 -103q65 -34 113 -67t92.5 -78.5t67.5 -104
t23 -128.5zM382 1054q0 -24 9 -47t21 -40.5t37 -37.5t43.5 -32.5t56 -31.5t58.5 -29t65 -30q10 -4 15 -6.5t13.5 -6.5t15.5 -7q70 83 70 230q0 95 -60 152.5t-156 57.5q-89 0 -138.5 -48.5t-49.5 -123.5zM296 346q0 -117 77.5 -184.5t184.5 -67.5q100 0 157 58t57 148
q0 37 -17 69t-41 54.5t-67 47t-77.5 40t-91 40.5t-90.5 41q-92 -92 -92 -246z" />
    <glyph glyph-name="nine.lt" horiz-adv-x="1118" 
d="M1064 784q0 -195 -105.5 -361.5t-300.5 -281.5t-452 -161l-38 108q93 26 174 68.5t152 102.5t123.5 143t80.5 182q-116 -86 -246 -86q-169 0 -285.5 109.5t-116.5 278.5q0 87 36.5 169.5t100.5 145.5t157.5 101t199.5 38q107 0 202.5 -42t165.5 -115t111 -177t41 -222z
M368 926q0 -133 51.5 -210.5t152.5 -77.5q71 0 146 36q10 73 10 142q0 196 -57 304t-145 108q-53 0 -90 -44t-52.5 -110t-15.5 -148z" />
    <glyph glyph-name="zero.ot" 
d="M1058 566q0 -125 -40.5 -234.5t-108.5 -186.5t-159.5 -121t-191.5 -44t-191.5 44t-159 121t-107.5 186.5t-40 234.5t40 234.5t107.5 186.5t159 121t191.5 44t191.5 -44t159.5 -121t108.5 -186.5t40.5 -234.5zM382 566q0 -225 46 -347.5t130 -122.5q85 0 129.5 122
t44.5 348t-44.5 348t-129.5 122q-84 0 -130 -122.5t-46 -347.5z" />
    <glyph glyph-name="one.ot" 
d="M1036 120v-120h-920v120h126q118 0 149 9t31 43v640h-296v122q193 0 325 56t187 162h112v-980q0 -34 31 -43t149 -9h106z" />
    <glyph glyph-name="two.ot" 
d="M140 740l-76 48q75 167 201 265.5t275 98.5q166 0 265 -98t99 -240q0 -42 -14 -84.5t-34 -78t-56 -74.5t-66 -67.5t-78 -62.5t-79 -54.5t-82.5 -50t-74 -41.5t-66.5 -35v-8h402q65 0 101.5 33t94.5 141l66 -26l-88 -406h-862v110q48 41 118 101t107 91.5t88.5 78t78 74.5
t58 66t46 67t24.5 63.5t10 68.5q0 91 -51 141.5t-149 50.5q-77 0 -144 -47t-114 -125z" />
    <glyph glyph-name="three.ot" 
d="M880 878q0 -56 -28 -107.5t-75 -91t-100 -69t-111 -50.5q63 -9 119.5 -25t111 -44.5t93 -66.5t62.5 -93t24 -121q0 -82 -35 -158.5t-95 -135t-135.5 -102.5t-161 -67t-167.5 -23q-85 0 -160.5 22t-126.5 69.5t-51 112.5q0 50 36.5 83t85.5 33q32 0 60.5 -15.5t47.5 -38
t39 -49.5t36 -49.5t37 -38t44 -15.5q108 0 172 82t64 204q0 262 -340 262l-24 64q131 93 196.5 169.5t65.5 162.5q0 65 -40 113.5t-118 48.5q-118 0 -220 -134l-80 68q186 274 466 274q135 0 221.5 -78t86.5 -196z" />
    <glyph glyph-name="four.ot" 
d="M876 -276h-308v452h-548v94l654 862h202v-828h222v-128h-222v-452zM198 304h370v494h-8l-362 -486v-8z" />
    <glyph glyph-name="five.ot" 
d="M394 -276q-148 0 -247 50t-99 146q0 50 36 84t88 34q37 0 68.5 -20.5t53.5 -50t42 -59t44 -50t50 -20.5q111 0 187.5 66t76.5 184q0 149 -139.5 230.5t-358.5 81.5l-28 16l148 716h598v-282h-554l-38 -186q109 -5 201 -22.5t175 -52.5t140 -86t90.5 -127t33.5 -172
q0 -133 -81 -244.5t-211 -173.5t-276 -62z" />
    <glyph glyph-name="six.ot" 
d="M1068 442q0 -193 -144.5 -327.5t-357.5 -134.5q-139 0 -256.5 73t-187.5 205.5t-70 295.5q0 193 96 367.5t282 307t436 195.5l38 -98q-194 -75 -329 -226t-179 -376q57 56 133 88t159 32q157 0 268.5 -111t111.5 -291zM378 522q0 -209 58.5 -319.5t149.5 -110.5
q82 0 130 88t48 218q0 142 -57.5 218t-164.5 76q-80 0 -156 -38q-8 -56 -8 -132z" />
    <glyph glyph-name="seven.ot" 
d="M426 872q-49 0 -72 -1t-50 -10t-37.5 -20t-27 -41.5t-26.5 -64t-27 -97.5h-98l24 494h918v-108l-408 -1168q-23 -67 -65 -99.5t-95 -32.5q-62 0 -99 40.5t-37 107.5q0 46 30 100l496 900h-426z" />
    <glyph glyph-name="eight.ot" 
d="M1058 416q0 -79 -39 -157.5t-105 -140t-161.5 -100t-200.5 -38.5q-217 0 -353.5 104t-136.5 262q0 107 81.5 181.5t220.5 128.5q-56 31 -96.5 62t-77.5 74.5t-56.5 100t-19.5 125.5q0 74 33.5 146.5t92.5 130t147 93.5t189 36q187 0 303.5 -96t116.5 -244
q0 -87 -69 -156.5t-179 -109.5q54 -27 94.5 -52t83 -61.5t70 -76.5t45 -94.5t17.5 -117.5zM368 1128q0 -37 15.5 -69.5t39.5 -56.5t62.5 -49t75.5 -43.5t87 -42.5q21 -10 32 -15q82 112 82 236q0 106 -51.5 163t-144.5 57q-86 0 -142 -51.5t-56 -128.5zM326 362
q0 -126 64 -198t162 -72q99 0 166.5 63.5t67.5 156.5q0 31 -9 58.5t-22 49t-37.5 43.5t-44.5 36.5t-56 33.5t-59 30t-65.5 30.5t-64.5 30.5q-47 -52 -74.5 -121.5t-27.5 -140.5z" />
    <glyph glyph-name="nine.ot" 
d="M1068 578q0 -193 -96 -367.5t-282 -307t-436 -195.5l-38 98q194 75 329 226t179 376q-57 -56 -133 -88t-159 -32q-157 0 -268.5 111t-111.5 291q0 193 144.5 327.5t357.5 134.5q139 0 256.5 -73t187.5 -205.5t70 -295.5zM356 734q0 -142 57.5 -218t164.5 -76q80 0 156 38
q8 56 8 132q0 209 -58.5 319.5t-149.5 110.5q-82 0 -130 -88t-48 -218z" />
    <glyph glyph-name="zero.dnom" horiz-adv-x="954" 
d="M848 386q0 -168 -109.5 -284t-262.5 -116t-261.5 116t-108.5 284t108.5 284t261.5 116t262.5 -116t109.5 -284zM352 386q0 -308 124 -308t124 308t-124 308t-124 -308z" />
    <glyph glyph-name="one.dnom" horiz-adv-x="746" 
d="M658 88v-88h-556v88h56q69 0 87.5 5t18.5 25v436h-154v90q93 0 190.5 41.5t127.5 100.5h80v-668q0 -20 18.5 -25t87.5 -5h44z" />
    <glyph glyph-name="two.dnom" horiz-adv-x="752" 
d="M114 532l-50 32q47 99 132 160.5t182 61.5q105 0 168.5 -60.5t63.5 -147.5q0 -37 -14 -73t-31.5 -62.5t-54.5 -61t-61.5 -54t-75 -57.5t-73.5 -56v-6h210q42 0 65.5 21t58.5 87l46 -16l-58 -300h-548v70q93 82 152 145t88.5 112.5t39.5 85t10 77.5q0 51 -32.5 85.5
t-83.5 34.5q-81 0 -134 -78z" />
    <glyph glyph-name="three.dnom" horiz-adv-x="778" 
d="M612 628q0 -62 -57 -106.5t-145 -69.5q54 -3 99 -15t84 -34.5t61 -61t22 -89.5q0 -75 -59.5 -138t-142.5 -95.5t-162 -32.5q-99 0 -165.5 33t-66.5 99q0 34 24 56t58 22q31 0 55.5 -20.5t37 -45.5t28 -45.5t31.5 -20.5q46 0 80 43t34 115q0 69 -46.5 105t-125.5 33
l-16 50q120 56 120 148q0 32 -22.5 54t-57.5 22q-62 0 -114 -52l-50 44q118 160 290 160q89 0 147.5 -44t58.5 -114z" />
    <glyph glyph-name="four.dnom" horiz-adv-x="890" 
d="M760 0h-434v74q63 0 80.5 5.5t17.5 24.5v132h-344v84l428 456h152v-452h148v-88h-148v-132q0 -19 17.5 -24.5t82.5 -5.5v-74zM192 324h232v238h-6l-226 -234v-4z" />
    <glyph glyph-name="five.dnom" horiz-adv-x="740" 
d="M314 64q69 0 107.5 33t38.5 79q0 39 -21.5 66t-62.5 41.5t-91 20.5t-117 6l-16 10l62 454h394v-194h-360l-10 -72q73 -3 128 -10.5t110 -24t90.5 -42.5t57.5 -68.5t22 -98.5q0 -115 -99 -196.5t-235 -81.5q-100 0 -171 35t-71 101q0 33 24.5 54.5t57.5 21.5
q31 0 56.5 -21t39 -46t31 -46t35.5 -21z" />
    <glyph glyph-name="six.dnom" horiz-adv-x="868" 
d="M770 254q0 -107 -92.5 -187.5t-231.5 -80.5q-144 0 -244 92.5t-100 229.5q0 166 142 291t396 187l24 -70q-226 -94 -286 -276q65 34 142 34q109 0 179.5 -61.5t70.5 -158.5zM356 290q0 -111 28 -166.5t74 -55.5q36 0 58 41t22 115q0 81 -30 124.5t-86 43.5q-34 0 -58 -8
q-8 -37 -8 -94z" />
    <glyph glyph-name="seven.dnom" horiz-adv-x="764" 
d="M284 568q-69 0 -92 -21.5t-50 -100.5h-64l16 330h576v-70l-250 -706h-208v26l314 542h-242z" />
    <glyph glyph-name="eight.dnom" horiz-adv-x="862" 
d="M760 234q0 -71 -48.5 -128.5t-126.5 -88.5t-167 -31q-143 0 -230.5 58t-87.5 148q0 109 160 160q-128 73 -128 198q0 90 82.5 163t215.5 73q117 0 199.5 -56.5t82.5 -137.5q0 -50 -41.5 -85t-106.5 -49q92 -38 144 -88t52 -136zM328 620q0 -26 13.5 -47t42.5 -38.5
t55 -28.5t70 -28q7 -3 11 -4q38 54 38 128q0 51 -34.5 82.5t-85.5 31.5q-49 0 -79.5 -26t-30.5 -70zM270 208q0 -69 42.5 -109.5t107.5 -40.5q53 0 88.5 30.5t35.5 77.5q0 25 -13 44.5t-40 36t-51.5 27.5t-67 28t-66.5 28q-36 -57 -36 -122z" />
    <glyph glyph-name="nine.dnom" horiz-adv-x="868" 
d="M774 464q0 -166 -142 -291t-396 -187l-24 68q229 99 288 278q-62 -34 -144 -34q-109 0 -179.5 61.5t-70.5 158.5q0 107 93 187.5t233 80.5q142 0 242 -93t100 -229zM338 548q0 -81 30.5 -125.5t85.5 -44.5q28 0 60 8q8 40 8 96q0 111 -29.5 172.5t-74.5 61.5
q-35 0 -57.5 -46t-22.5 -122z" />
    <glyph glyph-name="period.tab" horiz-adv-x="560" 
d="M482 180q0 -83 -59 -141.5t-143 -58.5t-143 58.5t-59 141.5t59 141.5t143 58.5t143 -58.5t59 -141.5z" />
    <glyph glyph-name="comma.tab" horiz-adv-x="560" 
d="M280 -48q0 29 -21 48t-50.5 32t-59 29t-50.5 48.5t-21 80.5q0 83 55.5 136.5t134.5 53.5q96 0 155 -73t59 -203q0 -179 -104.5 -303.5t-297.5 -164.5l-26 106q226 65 226 210z" />
    </font>
</defs>
</svg>
