<svg width="326" height="164" viewBox="0 0 326 164" fill="none" xmlns="http://www.w3.org/2000/svg">
<g id="APPROVED 7 Line ICON">
<g id="Left">
<path id="Vector" d="M227.911 20.2436C241.504 14.0645 256.808 21.0704 266.716 30.9617C274.421 38.6571 279.573 48.6589 282.518 59.1426C289.642 84.4951 284.199 114.798 265.544 134.049C258.11 141.721 248.747 147.224 238.615 150.521C231.244 152.917 223.683 154.926 215.914 155.371C209.577 155.736 202.545 155.923 196.342 154.434" stroke="#4A5C76" stroke-miterlimit="10" stroke-linecap="round"/>
<path id="Vector_2" d="M197.427 154.976C206.585 157.018 214.692 157.383 223.823 156.321C232.811 155.277 241.829 152.951 249.477 149.701C260.316 145.095 270.395 137.359 277.511 127.91C278.053 127.19 278.582 126.457 279.094 125.714C282.267 121.084 284.711 116.258 286.569 111.514C291.991 97.573 292.319 84.7427 292.262 81.9109C292.185 77.9979 291.697 57.8036 280.085 39.7081C274.274 30.657 265.805 23.0586 256.269 18.1012C250.699 15.2092 242.602 13.405 236.292 15.3966" stroke="#4A5C76" stroke-miterlimit="10" stroke-linecap="round"/>
<path id="Vector_3" d="M244.259 11.9188C256.788 10.8142 277.957 26.252 286.024 38.6437C297.237 55.8623 298.553 75.4273 298.713 81.8876C298.827 86.4299 297.964 99.1362 292.715 112.355C290.757 117.292 288.173 122.226 284.879 126.909C276.745 138.383 264.122 148.496 247.563 153.557C238.234 156.462 228.668 158.015 218.853 158.163C211.566 158.233 203.064 156.777 196.343 154.434" stroke="#4A5C76" stroke-miterlimit="10" stroke-linecap="round"/>
<path id="Vector_4" d="M196.342 154.43C206.592 158.926 219.559 160.988 231.051 160.569C231.054 160.573 231.057 160.569 231.057 160.569C239.747 160.225 248.189 158.973 256.51 156.589C273.099 151.846 287.295 141.968 296.671 129.349C300.206 124.559 303.061 119.397 305.24 114.082C310.077 102.289 312.075 89.8575 311.844 81.8876C311.533 70.3294 308.457 52.0899 298.134 36.5684C288.859 22.6336 274.217 13.144 256.661 8.13642" stroke="#4A5C76" stroke-miterlimit="10" stroke-linecap="round"/>
<path id="Vector_5" d="M262.509 7.00838C280.002 11.8921 294.328 20.9064 304.186 35.5274C314.037 50.2187 318.01 67.7754 318.405 81.8843C318.687 91.5613 316.109 103.853 311.5 114.942C309.197 120.445 306.221 125.721 302.569 130.567C293.568 142.501 280.156 151.823 266.057 156.532C250.087 161.865 232.899 163.431 216.252 160.77C209.417 159.676 202.689 157.215 196.343 154.434" stroke="#4A5C76" stroke-miterlimit="10" stroke-linecap="round"/>
<path id="Vector_6" d="M196.342 154.434C201.999 157.319 208.905 160.318 215.111 161.493C221.4 162.685 227.456 163.404 233.852 163.481C251.637 163.692 268.889 160.583 284.587 151.95C293.772 146.899 302.047 140.101 308.464 131.786C312.24 126.889 315.349 121.496 317.763 115.806C322.171 105.426 325.307 93.2718 324.976 81.8842C324.487 65.2213 319.654 48.3275 310.241 34.483C299.828 19.1658 286.345 10.7038 268.929 5.95061" stroke="#4A5C76" stroke-miterlimit="10" stroke-linecap="round"/>
<path id="Vector_7" d="M196.342 154.43C204.63 157.717 215.077 159.488 224.232 159.347C227.656 159.297 231.071 159.056 234.395 158.665C234.398 158.668 234.401 158.668 234.405 158.665C238.107 158.233 241.722 157.624 245.3 156.837C247.489 156.398 249.879 155.689 252.031 155.073C268.607 150.172 282.013 140.174 290.77 128.13C294.184 123.397 296.905 118.346 298.974 113.218C304.022 100.716 305.441 88.1436 305.277 81.8908C305.036 72.8765 302.85 53.9743 292.072 37.6093C283.409 24.4477 269.294 14.6769 251.777 9.52878" stroke="#4A5C76" stroke-miterlimit="10" stroke-linecap="round"/>
</g>
<g id="Middle">
<g id="Group">
<g id="Group_2">
<path id="Vector_8" d="M268.925 5.94961C258.746 2.91695 247.894 1.34371 236.751 1.50772C231.435 1.58471 226.224 2.17385 222.046 2.7931C204.356 4.35629 182.85 13.2595 163.188 42.438" stroke="url(#paint0_linear_3754_10904)" stroke-linecap="round" stroke-linejoin="round"/>
<path id="Vector_9" d="M268.962 5.8423C259.22 3.50151 248.886 2.44331 238.276 3.02934C233.295 3.30059 228.417 4.12438 224.363 4.81757C206.79 7.81806 185.602 17.3486 166.583 47.6616" stroke="url(#paint1_linear_3754_10904)" stroke-linecap="round" stroke-linejoin="round"/>
<path id="Vector_10" d="M268.925 5.94972C259.623 4.29615 249.812 3.75054 239.737 4.76477C235.091 5.23339 230.532 6.16394 226.612 7.05767C209.042 11.0577 188.338 21.6951 169.978 53.4075" stroke="url(#paint2_linear_3754_10904)" stroke-linecap="round" stroke-linejoin="round"/>
<path id="Vector_11" d="M173.293 59.7742C174.133 58.2076 174.956 56.6913 175.378 55.9582C192.533 25.7923 212.021 14.0801 228.902 9.18969C232.674 8.09513 236.922 7.04742 241.23 6.39135C250.773 4.94197 260.062 4.98883 268.925 5.94951" stroke="url(#paint3_linear_3754_10904)" stroke-linecap="round" stroke-linejoin="round"/>
<path id="Vector_12" d="M268.925 5.94972C260.503 5.68193 251.73 6.12042 242.719 8.01835C238.746 8.85852 234.81 10.0234 231.188 11.3188C215.107 17.0695 197.263 29.2101 181.42 57.2907C180.972 58.0639 178.638 62.4556 178.2 63.2991C177.611 64.4505 177.099 65.4782 176.513 66.6765" stroke="url(#paint4_linear_3754_10904)" stroke-linecap="round" stroke-linejoin="round"/>
<path id="Vector_13" d="M268.925 5.94952C260.942 6.37128 252.684 7.28174 244.212 9.64829C240.574 10.6659 236.945 11.9479 233.471 13.4508C218.18 20.0517 201.993 32.6309 187.452 58.626C187.228 59.0076 184.644 63.898 184.423 64.3165C182.839 67.4261 181.279 70.7132 179.743 74.1843" stroke="url(#paint5_linear_3754_10904)" stroke-linecap="round" stroke-linejoin="round"/>
<path id="Vector_14" d="M268.925 5.94944C266.893 6.2507 264.842 6.57873 262.773 6.95697L262.766 6.95697C256.38 8.12183 249.842 9.73189 243.251 12.3026C226.277 18.9202 209.022 31.8977 193.49 59.9582L190.652 65.3407C188.054 70.4788 185.507 76.0956 183.04 82.2412" stroke="url(#paint6_linear_3754_10904)" stroke-linecap="round" stroke-linejoin="round"/>
</g>
<g id="Group_3">
<path id="Vector_15" d="M183.048 82.2593C183.048 82.2593 183.051 82.2493 183.054 82.246" stroke="url(#paint7_linear_3754_10904)" stroke-linecap="round" stroke-linejoin="round"/>
<path id="Vector_16" d="M162.726 122.206C143.077 151.334 121.641 160.134 103.96 161.694C99.7829 162.317 94.5711 162.906 89.2589 162.983C78.1124 163.144 67.3341 161.614 57.1516 158.578" stroke="url(#paint8_linear_3754_10904)" stroke-linecap="round" stroke-linejoin="round"/>
<path id="Vector_17" d="M159.298 116.884C140.289 147.133 119.228 156.566 101.678 159.562C97.6209 160.258 92.7439 161.078 87.7631 161.349C77.1555 161.935 66.896 160.917 57.152 158.574" stroke="url(#paint9_linear_3754_10904)" stroke-linecap="round" stroke-linejoin="round"/>
<path id="Vector_18" d="M155.928 111.143C137.578 142.778 116.946 153.433 99.3922 157.43C95.4759 158.323 90.9135 159.254 86.2742 159.722C76.1954 160.733 66.4548 160.228 57.1526 158.574" stroke="url(#paint10_linear_3754_10904)" stroke-linecap="round" stroke-linejoin="round"/>
<path id="Vector_19" d="M152.728 104.924C151.894 106.48 151.051 107.806 150.629 108.529C133.474 138.695 113.986 150.407 97.1054 155.297C93.3363 156.392 89.0852 157.44 84.7772 158.096C75.2341 159.545 66.0156 159.535 57.1486 158.574" stroke="url(#paint11_linear_3754_10904)" stroke-linecap="round" stroke-linejoin="round"/>
<path id="Vector_20" d="M149.528 97.8442C148.949 99.0325 148.393 100.05 147.811 101.191C147.372 102.035 145.039 106.427 144.594 107.2C128.748 135.28 110.903 147.421 94.8195 153.172C91.1977 154.467 87.2579 155.635 83.288 156.472C74.2804 158.37 65.5774 158.845 57.1523 158.578" stroke="url(#paint12_linear_3754_10904)" stroke-linecap="round" stroke-linejoin="round"/>
<path id="Vector_21" d="M146.254 90.4133C144.724 93.8778 143.161 97.0644 141.581 100.171C141.363 100.589 138.776 105.48 138.552 105.861C124.011 131.856 107.83 144.435 92.5364 151.036C89.0619 152.539 85.4334 153.825 81.7915 154.839C73.3228 157.205 65.1353 158.153 57.1486 158.574" stroke="url(#paint13_linear_3754_10904)" stroke-linecap="round" stroke-linejoin="round"/>
<path id="Vector_22" d="M142.947 82.4233C140.48 88.5622 137.949 94.0117 135.352 99.1464L132.513 104.529C114.28 137.473 93.7146 149.647 73.9889 155.137L73.9856 155.137C72.2216 155.632 70.4709 156.067 68.7203 156.466C66.8224 156.894 64.9278 157.272 63.05 157.61C61.065 157.972 59.0968 158.287 57.1453 158.574" stroke="url(#paint14_linear_3754_10904)" stroke-linecap="round" stroke-linejoin="round"/>
</g>
</g>
<g id="Group_4">
<path id="Vector_23" d="M75.0766 19.3097C97.296 9.81006 122.515 39.4772 135.365 65.5226C140.439 75.1695 144.65 87.3838 149.43 97.6065C162.374 128.777 188.741 158.457 218.408 161.945" stroke="url(#paint15_linear_3754_10904)" stroke-miterlimit="10" stroke-linecap="round"/>
<path id="Vector_24" d="M86.447 14.2954C107.214 15.0117 121.199 33.539 135.04 54.145C141.986 65.0071 147.76 79.4975 153.276 91.2031C163.763 113.443 185.591 148.763 208.744 155.686" stroke="url(#paint16_linear_3754_10904)" stroke-miterlimit="10" stroke-linecap="round"/>
<path id="Vector_25" d="M93.6002 12.0996C112.395 14.6 123.157 28.5683 137.564 48.1601C146.437 60.7895 152.583 75.8992 159.689 89.901C170.826 113.416 193.477 148.218 215.66 155.294" stroke="url(#paint17_linear_3754_10904)" stroke-miterlimit="10" stroke-linecap="round"/>
<path id="Vector_26" d="M101.426 10.2451C115.545 10.6836 132.205 30.6804 143.623 47.0587C150.746 57.0103 157.926 72.351 163.372 83.0724C169.196 94.5536 175.087 107.253 182.331 117.516C193.755 133.898 212.356 153.721 224.503 154.283" stroke="url(#paint18_linear_3754_10904)" stroke-miterlimit="10" stroke-linecap="round"/>
<path id="Vector_27" d="M110.247 9.15409C134.464 16.2571 155.111 51.1427 166.264 74.6742C173.317 88.5421 179.546 103.859 188.393 116.415C202.853 136.057 213.461 149.885 232.326 152.432" stroke="url(#paint19_linear_3754_10904)" stroke-miterlimit="10" stroke-linecap="round"/>
<path id="Vector_28" d="M117.316 8.90625C142.291 16.0628 162.204 51.1559 172.674 73.372C178.502 85.7035 183.75 99.1596 190.914 110.427C204.855 131.123 218.659 149.403 239.557 150.206" stroke="url(#paint20_linear_3754_10904)" stroke-miterlimit="10" stroke-linecap="round"/>
<path id="Vector_29" d="M129.59 10.1045C149.072 20.6519 166.863 43.7751 176.526 66.9719C181.33 77.1678 185.511 89.4289 190.592 99.0558C203.439 125.094 228.554 154.768 250.773 145.265" stroke="url(#paint21_linear_3754_10904)" stroke-miterlimit="10" stroke-linecap="round"/>
</g>
</g>
<g id="Right">
<path id="Vector_30" d="M98.0854 144.248C84.492 150.427 69.1881 143.421 59.2801 133.53C51.5746 125.834 46.4231 115.833 43.4775 105.349C36.3544 79.9963 41.7971 49.6932 60.4517 30.4428C67.886 22.7708 77.2485 17.2679 87.3808 13.9708C94.7515 11.5741 102.313 9.56572 110.082 9.12053C116.419 8.75567 123.384 8.61509 129.587 10.1046" stroke="url(#paint22_linear_3754_10904)" stroke-miterlimit="10" stroke-linecap="round"/>
<path id="Vector_31" d="M129.59 10.1045C121.902 7.62414 111.304 7.112 102.173 8.16975C93.1851 9.21411 84.1674 11.5405 76.5188 14.7907C65.6803 19.3966 55.6015 27.1322 48.4852 36.5817C47.9429 37.3013 47.414 38.0344 46.9019 38.7775C43.7286 43.4068 41.2851 48.2336 39.4273 52.9768C34.0047 66.9183 33.6767 79.7485 33.7336 82.5803C33.8106 86.4933 34.2993 106.688 45.9111 124.783C51.722 133.834 60.1907 141.433 69.7271 146.39C75.2971 149.282 83.3942 151.086 89.7039 149.095" stroke="url(#paint23_linear_3754_10904)" stroke-miterlimit="10" stroke-linecap="round"/>
<path id="Vector_32" d="M81.7373 152.573C69.2083 153.677 48.04 138.239 39.973 125.848C28.7595 108.629 27.444 89.0642 27.2833 82.6039C27.1695 78.0616 28.0331 65.3552 33.2817 52.1367C35.2399 47.1994 37.824 42.2655 41.1177 37.5826C49.2517 26.1081 61.8744 15.9959 78.4335 10.9347C87.7624 8.02927 97.329 6.47613 107.143 6.32885C114.43 6.25855 122.869 7.75814 129.59 10.1013" stroke="url(#paint24_linear_3754_10904)" stroke-miterlimit="10" stroke-linecap="round"/>
<path id="Vector_33" d="M129.59 10.1045C119.341 5.60912 106.437 3.50366 94.9457 3.92207C94.9424 3.91872 94.9391 3.92207 94.9391 3.92207C86.2495 4.26684 77.8075 5.51873 69.4861 7.90201C52.8969 12.6451 38.701 22.523 29.3252 35.1424C25.7904 39.9324 22.9352 45.0939 20.7561 50.4094C15.9192 62.202 13.9209 74.6339 14.1518 82.6038C14.4631 94.1621 17.5393 112.402 27.8624 127.923C37.1378 141.858 51.7789 151.347 69.3355 156.355" stroke="url(#paint25_linear_3754_10904)" stroke-miterlimit="10" stroke-linecap="round"/>
<path id="Vector_34" d="M63.4878 157.483C45.9948 152.599 31.6684 143.585 21.8105 128.964C11.9594 114.273 7.98618 96.7162 7.5912 82.6073C7.31003 72.9302 9.88745 60.6389 14.4967 49.5493C16.7996 44.0463 19.7754 38.771 23.4273 33.9241C32.4282 21.991 45.8409 12.6687 59.9397 7.95905C75.913 2.62345 93.1015 1.05691 109.748 3.72137C116.583 4.81594 123.247 7.32307 129.594 10.1047" stroke="url(#paint26_linear_3754_10904)" stroke-miterlimit="10" stroke-linecap="round"/>
<path id="Vector_35" d="M129.59 10.1045C123.933 7.21917 117.092 4.17647 110.886 2.99821C104.596 1.80657 98.5407 1.0869 92.144 1.00991C74.3598 0.799031 57.1078 3.90868 41.409 12.5414C32.224 17.5925 23.9494 24.3908 17.5326 32.7055C13.7569 37.6026 10.6472 42.9951 8.2338 48.6856C3.82875 59.0656 0.692328 71.2196 1.02371 82.6071C1.51242 99.27 6.34593 116.164 15.7585 130.008C26.172 145.326 39.655 153.788 57.071 158.541" stroke="url(#paint27_linear_3754_10904)" stroke-miterlimit="10" stroke-linecap="round"/>
<path id="Vector_36" d="M129.59 10.1047C121.302 6.81765 110.919 5.00341 101.764 5.144C98.3399 5.1942 94.9257 5.43521 91.6018 5.82685C91.5984 5.8235 91.5951 5.8235 91.5918 5.82685C87.8896 6.25865 84.2746 6.86786 80.6963 7.65447C78.5071 8.09297 76.1172 8.80259 73.9648 9.4185C57.389 14.3189 43.983 24.3174 35.2265 36.361C31.8122 41.094 29.0909 46.1451 27.0222 51.2732C21.9745 63.7754 20.5552 76.3478 20.7193 82.6006C20.9603 91.6149 23.146 110.517 33.9244 126.882C42.5872 140.044 56.7028 149.814 74.2192 154.963" stroke="url(#paint28_linear_3754_10904)" stroke-miterlimit="10" stroke-linecap="round"/>
</g>
</g>
<defs>
<linearGradient id="paint0_linear_3754_10904" x1="162.449" y1="21.968" x2="269.659" y2="21.968" gradientUnits="userSpaceOnUse">
<stop stop-color="white"/>
<stop offset="1" stop-color="#445670"/>
</linearGradient>
<linearGradient id="paint1_linear_3754_10904" x1="165.868" y1="25.2672" x2="269.673" y2="25.2672" gradientUnits="userSpaceOnUse">
<stop stop-color="white"/>
<stop offset="1" stop-color="#445670"/>
</linearGradient>
<linearGradient id="paint2_linear_3754_10904" x1="169.287" y1="28.8316" x2="269.612" y2="28.8316" gradientUnits="userSpaceOnUse">
<stop stop-color="white"/>
<stop offset="1" stop-color="#445670"/>
</linearGradient>
<linearGradient id="paint3_linear_3754_10904" x1="172.625" y1="32.5187" x2="269.589" y2="32.5187" gradientUnits="userSpaceOnUse">
<stop stop-color="white"/>
<stop offset="1" stop-color="#445670"/>
</linearGradient>
<linearGradient id="paint4_linear_3754_10904" x1="175.867" y1="36.2787" x2="269.567" y2="36.2788" gradientUnits="userSpaceOnUse">
<stop stop-color="white"/>
<stop offset="1" stop-color="#445670"/>
</linearGradient>
<linearGradient id="paint5_linear_3754_10904" x1="179.12" y1="40.0686" x2="269.545" y2="40.0686" gradientUnits="userSpaceOnUse">
<stop stop-color="white"/>
<stop offset="1" stop-color="#445670"/>
</linearGradient>
<linearGradient id="paint6_linear_3754_10904" x1="182.44" y1="44.0972" x2="269.522" y2="44.0972" gradientUnits="userSpaceOnUse">
<stop stop-color="white"/>
<stop offset="1" stop-color="#445670"/>
</linearGradient>
<linearGradient id="paint7_linear_3754_10904" x1="183.048" y1="82.2526" x2="183.054" y2="82.2526" gradientUnits="userSpaceOnUse">
<stop stop-color="#9C9EB2" stop-opacity="0.05"/>
<stop offset="1" stop-color="white"/>
</linearGradient>
<linearGradient id="paint8_linear_3754_10904" x1="56.414" y1="142.601" x2="163.459" y2="142.601" gradientUnits="userSpaceOnUse">
<stop stop-color="#9C9EB2" stop-opacity="0.05"/>
<stop offset="1" stop-color="white"/>
</linearGradient>
<linearGradient id="paint9_linear_3754_10904" x1="56.4384" y1="139.199" x2="160.008" y2="139.199" gradientUnits="userSpaceOnUse">
<stop stop-color="#9C9EB2" stop-opacity="0.05"/>
<stop offset="1" stop-color="white"/>
</linearGradient>
<linearGradient id="paint10_linear_3754_10904" x1="56.4625" y1="135.694" x2="156.614" y2="135.694" gradientUnits="userSpaceOnUse">
<stop stop-color="#9C9EB2" stop-opacity="0.05"/>
<stop offset="1" stop-color="white"/>
</linearGradient>
<linearGradient id="paint11_linear_3754_10904" x1="56.4808" y1="132.087" x2="153.391" y2="132.087" gradientUnits="userSpaceOnUse">
<stop stop-color="#9C9EB2" stop-opacity="0.05"/>
<stop offset="1" stop-color="white"/>
</linearGradient>
<linearGradient id="paint12_linear_3754_10904" x1="56.5069" y1="128.247" x2="150.169" y2="128.247" gradientUnits="userSpaceOnUse">
<stop stop-color="#9C9EB2" stop-opacity="0.05"/>
<stop offset="1" stop-color="white"/>
</linearGradient>
<linearGradient id="paint13_linear_3754_10904" x1="56.5261" y1="124.496" x2="146.873" y2="124.496" gradientUnits="userSpaceOnUse">
<stop stop-color="#9C9EB2" stop-opacity="0.05"/>
<stop offset="1" stop-color="white"/>
</linearGradient>
<linearGradient id="paint14_linear_3754_10904" x1="56.5459" y1="120.501" x2="143.543" y2="120.501" gradientUnits="userSpaceOnUse">
<stop stop-color="#9C9EB2" stop-opacity="0.05"/>
<stop offset="1" stop-color="white"/>
</linearGradient>
<linearGradient id="paint15_linear_3754_10904" x1="74.0752" y1="89.7243" x2="219.403" y2="89.7243" gradientUnits="userSpaceOnUse">
<stop stop-color="white"/>
<stop offset="0.484375" stop-color="#9C9EB2"/>
<stop offset="1" stop-color="#4A5C76"/>
</linearGradient>
<linearGradient id="paint16_linear_3754_10904" x1="85.5926" y1="84.9939" x2="209.593" y2="84.9939" gradientUnits="userSpaceOnUse">
<stop stop-color="white"/>
<stop offset="0.484375" stop-color="#9C9EB2"/>
<stop offset="1" stop-color="#4A5C76"/>
</linearGradient>
<linearGradient id="paint17_linear_3754_10904" x1="92.7474" y1="83.7002" x2="216.507" y2="83.7002" gradientUnits="userSpaceOnUse">
<stop stop-color="white"/>
<stop offset="0.484375" stop-color="#9C9EB2"/>
<stop offset="1" stop-color="#4A5C76"/>
</linearGradient>
<linearGradient id="paint18_linear_3754_10904" x1="100.567" y1="82.2675" x2="225.358" y2="82.2675" gradientUnits="userSpaceOnUse">
<stop stop-color="white"/>
<stop offset="0.484375" stop-color="#9C9EB2"/>
<stop offset="1" stop-color="#4A5C76"/>
</linearGradient>
<linearGradient id="paint19_linear_3754_10904" x1="109.394" y1="80.7966" x2="233.174" y2="80.7966" gradientUnits="userSpaceOnUse">
<stop stop-color="white"/>
<stop offset="0.484375" stop-color="#9C9EB2"/>
<stop offset="1" stop-color="#4A5C76"/>
</linearGradient>
<linearGradient id="paint20_linear_3754_10904" x1="116.462" y1="79.5596" x2="240.405" y2="79.5596" gradientUnits="userSpaceOnUse">
<stop stop-color="white"/>
<stop offset="0.484375" stop-color="#9C9EB2"/>
<stop offset="1" stop-color="#4A5C76"/>
</linearGradient>
<linearGradient id="paint21_linear_3754_10904" x1="128.744" y1="78.5952" x2="251.614" y2="78.5953" gradientUnits="userSpaceOnUse">
<stop stop-color="white"/>
<stop offset="0.484375" stop-color="#9C9EB2"/>
<stop offset="1" stop-color="#4A5C76"/>
</linearGradient>
<linearGradient id="paint22_linear_3754_10904" x1="39.8411" y1="77.7301" x2="130.206" y2="77.7301" gradientUnits="userSpaceOnUse">
<stop stop-color="#DEDEE6"/>
<stop offset="0.90625" stop-color="white"/>
</linearGradient>
<linearGradient id="paint23_linear_3754_10904" x1="33.0587" y1="78.7961" x2="130.256" y2="78.7961" gradientUnits="userSpaceOnUse">
<stop stop-color="#DEDEE6"/>
<stop offset="0.90625" stop-color="white"/>
</linearGradient>
<linearGradient id="paint24_linear_3754_10904" x1="26.5592" y1="79.4811" x2="130.301" y2="79.4811" gradientUnits="userSpaceOnUse">
<stop stop-color="#DEDEE6"/>
<stop offset="0.90625" stop-color="white"/>
</linearGradient>
<linearGradient id="paint25_linear_3754_10904" x1="13.3273" y1="80.1161" x2="130.392" y2="80.1162" gradientUnits="userSpaceOnUse">
<stop stop-color="#DEDEE6"/>
<stop offset="0.90625" stop-color="white"/>
</linearGradient>
<linearGradient id="paint26_linear_3754_10904" x1="6.71785" y1="79.9694" x2="130.441" y2="79.9694" gradientUnits="userSpaceOnUse">
<stop stop-color="#DEDEE6"/>
<stop offset="0.90625" stop-color="white"/>
</linearGradient>
<linearGradient id="paint27_linear_3754_10904" x1="0.101332" y1="79.7741" x2="130.483" y2="79.7742" gradientUnits="userSpaceOnUse">
<stop stop-color="#DEDEE6"/>
<stop offset="0.90625" stop-color="white"/>
</linearGradient>
<linearGradient id="paint28_linear_3754_10904" x1="19.9461" y1="80.0531" x2="130.346" y2="80.0531" gradientUnits="userSpaceOnUse">
<stop stop-color="#DEDEE6"/>
<stop offset="0.90625" stop-color="white"/>
</linearGradient>
</defs>
</svg>
