<svg width="52" height="27" viewBox="0 0 52 27" fill="none" xmlns="http://www.w3.org/2000/svg">
<path d="M37.956 0.166016C31.9817 0.166016 29.2317 2.78152 27.0684 5.43823C28.0363 6.49597 29.7334 9.93019 30.0405 10.7269C31.0851 8.82025 33.2539 5.69648 35.5487 4.03432C36.9553 3.01779 38.8526 3.00955 40.2481 4.04531C42.9159 6.02342 45.0983 9.99613 44.0208 15.4579C43.2833 19.1998 41.6656 21.2604 40.0151 22.3538C38.6113 23.2824 36.7688 23.2192 35.4336 22.1945C33.6514 20.8235 30.8466 18.0707 28.7656 12.3891C24.3403 0.317123 16.37 0.166016 14.1108 0.166016C3.93605 0.166016 0.0948185 6.80367 0.177072 13.7738C0.253841 20.1587 5.10404 26.1809 13.8421 26.1809C20.0001 26.1809 22.5417 22.8154 24.2471 20.8043C22.5308 18.4196 21.637 16.4332 21.2915 15.5706C20.1811 17.6009 18.133 20.5433 16.0108 22.1725C14.6674 23.2028 12.8084 23.2605 11.4046 22.3154C9.38121 20.9499 7.77453 18.6064 7.25634 15.3343C6.31865 9.41368 8.90689 5.71022 11.4019 3.96564C12.8797 2.93262 14.8675 3.01504 16.2411 4.18543C17.9356 5.63055 20.2057 8.22682 21.7905 12.1171C23.9592 17.4443 28.0006 26.1837 37.2541 26.126C44.7309 26.0793 51.196 21.7302 51.196 13.1007C51.196 4.47115 43.4587 0.166016 37.9587 0.166016H37.956Z" fill="#181C4B"/>
</svg>
