<svg width="1440" height="611" viewBox="0 0 1440 611" fill="none" xmlns="http://www.w3.org/2000/svg">
<mask id="mask0_1752_6277" style="mask-type:alpha" maskUnits="userSpaceOnUse" x="0" y="-23" width="1440" height="634">
<rect y="-23" width="1440" height="634" fill="#F9F4F1"/>
</mask>
<g mask="url(#mask0_1752_6277)">
<g opacity="0.2">
<g opacity="0.8">
<path d="M525.643 1412.53C406.392 1466.73 272.146 1405.28 185.255 1318.51C117.67 1251.02 72.4951 1163.25 46.6503 1071.31C-15.8414 848.921 31.9157 583.13 195.56 414.274C260.776 346.974 342.882 298.719 431.787 269.795C496.458 248.759 562.764 231.158 630.917 227.249C686.515 224.051 748.202 222.393 802.592 235.469" stroke="#B2ABA5" stroke-width="2" stroke-miterlimit="10" stroke-linecap="round"/>
<path d="M800 234.5C718.5 213.5 641.577 209.601 561.461 218.911C482.624 228.055 403.526 248.475 336.415 276.996C241.327 317.41 152.943 385.255 90.5226 468.143C85.7611 474.468 81.118 480.888 76.6408 487.426C48.8062 528.029 27.3913 570.385 11.0695 611.983C-36.4744 734.266 -39.3882 846.813 -38.867 871.639C-38.18 905.941 -33.916 1083.11 67.9706 1241.85C118.926 1321.26 193.215 1387.92 276.884 1431.39C325.731 1456.76 396.775 1472.58 452.112 1455.1" stroke="#B2ABA5" stroke-width="2" stroke-miterlimit="10" stroke-linecap="round"/>
<path d="M382.23 1485.54C272.337 1495.23 86.6619 1359.82 15.879 1251.14C-82.478 1100.1 -94.0146 928.493 -95.4359 871.828C-96.4308 831.983 -88.874 720.55 -42.8225 604.592C-25.6479 561.288 -2.97751 517.985 25.9231 476.908C97.2746 376.253 207.974 287.561 353.259 243.168C435.081 217.679 519.011 204.058 605.097 202.778C669.01 202.162 743.5 216 802.545 235.493" stroke="#B2ABA5" stroke-width="2" stroke-miterlimit="10" stroke-linecap="round"/>
<path d="M802.545 235.47C712.621 196.028 598.89 177.953 498.093 181.625C498.07 181.601 498.022 181.625 498.022 181.625C421.815 184.657 347.739 195.649 274.753 216.542C129.231 258.14 4.72135 344.795 -77.5271 455.494C-108.512 497.494 -133.575 542.812 -152.692 589.408C-195.12 692.858 -212.649 801.899 -210.612 871.829C-207.864 973.218 -180.906 1133.21 -90.3428 1269.36C-8.99461 1391.59 119.447 1474.83 273.45 1518.75" stroke="#B2ABA5" stroke-width="2" stroke-miterlimit="10" stroke-linecap="round"/>
<path d="M223.915 1529.15C69.5575 1486.44 -56.5867 1407.27 -143.454 1278.47C-229.848 1149.61 -264.719 995.604 -268.201 871.828C-270.688 786.927 -248.065 679.142 -207.628 581.851C-187.421 533.596 -161.34 487.284 -129.288 444.809C-50.3091 340.128 67.3308 258.353 191.011 217.039C331.132 170.253 481.889 156.514 627.909 179.871C687.866 189.465 747 209.5 802.544 235.446" stroke="#B2ABA5" stroke-width="2" stroke-miterlimit="10" stroke-linecap="round"/>
<path d="M802.545 235.446C752.916 210.122 692.343 183.851 637.906 173.522C582.71 163.052 529.623 156.751 473.504 156.087C317.488 154.24 166.186 181.506 28.4575 257.24C-52.109 301.562 -124.692 361.187 -180.977 434.126C-214.095 477.074 -241.385 524.405 -262.539 574.294C-301.176 665.331 -328.702 771.932 -325.789 871.852C-321.501 1018.01 -279.098 1166.21 -196.541 1287.64C-104.391 1423.17 17.7974 1498.07 172.534 1539.55" stroke="#B2ABA5" stroke-width="2" stroke-miterlimit="10" stroke-linecap="round"/>
<path d="M802.545 235.47C729.5 207 638.214 191.1 557.884 192.356C527.847 192.806 497.904 194.89 468.742 198.349C468.719 198.325 468.671 198.325 468.648 198.349C436.17 202.139 404.474 207.493 373.062 214.386C353.874 218.224 332.886 224.454 314.005 229.855C168.602 272.827 51.0095 360.524 -25.7904 466.201C-55.757 507.728 -79.6356 552.026 -97.7577 597.012C-142.033 706.669 -154.493 816.965 -153.048 871.829C-150.916 950.879 -131.752 1116.7 -37.2322 1260.26C38.7623 1375.72 162.585 1461.43 316.209 1506.58" stroke="#B2ABA5" stroke-width="2" stroke-miterlimit="10" stroke-linecap="round"/>
<path d="M1096.79 519.241C1269.17 263.707 1457.81 185.462 1612.9 171.77C1649.55 166.321 1695.27 161.157 1741.86 160.47C1839.63 159.049 1934.19 172.48 2023.5 199.131" stroke="#B2ABA5" stroke-width="2" stroke-linecap="round" stroke-linejoin="round"/>
<path d="M1126.85 565.932C1293.59 300.591 1478.96 216.755 1632.92 190.46C1668.5 184.348 1711.28 177.147 1754.96 174.778C1848.01 169.637 1938.01 178.545 2023.48 199.13" stroke="#B2ABA5" stroke-width="2" stroke-linecap="round" stroke-linejoin="round"/>
<path d="M1156.44 616.271C1317.4 338.778 1499.03 244.235 1652.98 209.175C1687.33 201.334 1727.34 193.161 1768.06 189.063C1856.47 180.18 1941.92 184.633 2023.5 199.131" stroke="#B2ABA5" stroke-width="2" stroke-linecap="round" stroke-linejoin="round"/>
<path d="M1186.12 668.576C1193.41 654.908 1199.83 644.461 1203.53 638.112C1354 373.505 1524.94 270.79 1673.02 227.865C1706.09 218.271 1743.38 209.08 1781.16 203.323C1864.86 190.602 1945.75 190.697 2023.5 199.13" stroke="#B2ABA5" stroke-width="2" stroke-linecap="round" stroke-linejoin="round"/>
<path d="M1214.07 730.405C1219.14 719.981 1223.17 712.496 1228.26 702.475C1232.1 695.084 1252.56 656.566 1256.47 649.767C1395.48 403.448 1551.99 296.966 1693.06 246.532C1724.83 235.161 1759.39 224.928 1794.24 217.56C1873.24 200.907 1949.59 196.738 2023.5 199.083" stroke="#B2ABA5" stroke-width="2" stroke-linecap="round" stroke-linejoin="round"/>
<path d="M1243.02 795.123C1256.45 764.73 1269.05 738.696 1282.91 711.43C1284.81 707.758 1307.52 664.857 1309.49 661.517C1437.03 433.486 1578.98 323.142 1713.13 265.246C1743.62 252.075 1775.45 240.799 1807.39 231.892C1881.68 211.14 1953.5 202.826 2023.53 199.106" stroke="#B2ABA5" stroke-width="2" stroke-linecap="round" stroke-linejoin="round"/>
<path d="M1271.87 865.859C1293.5 811.99 1314.72 765.441 1337.54 720.408L1362.43 673.195C1522.36 384.236 1702.77 277.422 1875.78 229.263H1875.8C1891.27 224.904 1906.64 221.09 1921.97 217.608C1938.62 213.865 1955.23 210.525 1971.69 207.563C1989.1 204.389 2006.37 201.617 2023.48 199.106" stroke="#B2ABA5" stroke-width="2" stroke-linecap="round" stroke-linejoin="round"/>
<path d="M1866.28 1420.73C1671.36 1504.04 1450.16 1243.82 1337.47 1015.36C1292.96 930.743 1256.02 823.597 1214.09 733.91C1129.13 529.393 975.5 324 793 230.5" stroke="#B2ABA5" stroke-width="2" stroke-miterlimit="10" stroke-linecap="round"/>
<path d="M1767 1465C1585.05 1458.73 1462.49 1296.34 1341.19 1115.76C1280.32 1020.56 1229.73 893.561 1181.38 790.984C1088.74 594.523 897.681 282.132 693 225" stroke="#B2ABA5" stroke-width="2" stroke-miterlimit="10" stroke-linecap="round"/>
<path d="M1702.25 1483.81C1537.38 1461.9 1444.52 1339.52 1318.14 1167.66C1240.29 1056.86 1186.4 924.347 1124.05 801.496C1026.36 595.235 825.082 289.065 630.5 227" stroke="#B2ABA5" stroke-width="2" stroke-miterlimit="10" stroke-linecap="round"/>
<path d="M1635.12 1500.23C1511.25 1496.39 1365.16 1320.97 1264.98 1177.3C1202.51 1090 1139.5 955.45 1091.76 861.381C1040.69 760.679 988.978 649.293 925.467 559.251C825.239 415.553 661.577 241.451 555 236.5" stroke="#B2ABA5" stroke-width="2" stroke-miterlimit="10" stroke-linecap="round"/>
<path d="M1558.77 1510.11C1346.35 1447.8 1164.23 1141.48 1066.39 935.078C1004.54 813.411 949.89 679.07 872.285 568.94C745.454 396.649 654.417 275.859 488.925 253.52" stroke="#B2ABA5" stroke-width="2" stroke-miterlimit="10" stroke-linecap="round"/>
<path d="M1507.06 1514.99C1282.7 1459.79 1103.58 1144.73 1010.16 946.496C959.034 838.332 912.983 720.289 850.183 621.459C727.9 439.93 606.306 280.059 423 273" stroke="#B2ABA5" stroke-width="2" stroke-miterlimit="10" stroke-linecap="round"/>
<path d="M1565.21 1558.53C1339.65 1545.69 1090.48 1276.6 976.375 1002.66C934.256 913.236 897.585 805.688 853.002 721.237C740.313 492.827 517.39 233.662 322.5 317" stroke="#B2ABA5" stroke-width="2" stroke-miterlimit="10" stroke-linecap="round"/>
<path d="M1665.04 324.469C1784.29 270.269 1918.54 331.718 2005.43 418.491C2073.01 485.981 2118.19 573.749 2144.03 665.686C2206.52 888.079 2158.77 1153.87 1995.12 1322.73C1929.91 1390.03 1847.8 1438.28 1758.9 1467.21C1694.22 1488.24 1627.92 1505.84 1559.77 1509.75C1504.17 1512.95 1442.48 1514.61 1388.09 1501.53" stroke="#B2ABA5" stroke-width="2" stroke-miterlimit="10" stroke-linecap="round"/>
<path d="M1397.66 1506.29C1477.99 1524.2 1549.11 1527.4 1629.22 1518.09C1708.06 1508.95 1787.16 1488.53 1854.27 1460C1949.36 1419.59 2037.74 1351.74 2100.16 1268.86C2104.92 1262.53 2109.56 1256.11 2114.04 1249.57C2141.88 1208.97 2163.29 1166.61 2179.61 1125.02C2227.16 1002.73 2230.07 890.187 2229.55 865.361C2228.86 831.059 2224.6 653.889 2122.71 495.148C2071.76 415.743 1997.47 349.082 1913.8 305.612C1864.95 280.241 1793.91 264.417 1738.57 281.899" stroke="#B2ABA5" stroke-width="2" stroke-miterlimit="10" stroke-linecap="round"/>
<path d="M1808.45 251.459C1918.35 241.77 2104.02 377.177 2174.8 485.862C2273.16 636.904 2284.7 808.507 2286.12 865.171C2287.11 905.016 2279.56 1016.45 2233.51 1132.41C2216.33 1175.71 2193.66 1219.01 2164.76 1260.09C2093.41 1360.75 1982.71 1449.44 1837.43 1493.83C1755.6 1519.32 1671.67 1532.94 1585.59 1534.22C1521.67 1534.84 1447.08 1522.07 1388.14 1501.51" stroke="#B2ABA5" stroke-width="2" stroke-miterlimit="10" stroke-linecap="round"/>
<path d="M1388.14 1501.51C1478.06 1540.95 1591.79 1559.02 1692.59 1555.35C1692.61 1555.38 1692.66 1555.35 1692.66 1555.35C1768.87 1552.32 1842.94 1541.33 1915.93 1520.43C2061.45 1478.84 2185.96 1392.18 2268.21 1281.48C2299.2 1239.48 2324.26 1194.17 2343.38 1147.57C2385.8 1044.12 2403.33 935.078 2401.3 865.148C2398.55 763.759 2371.59 603.763 2281.03 467.622C2199.68 345.386 2071.24 262.143 1917.23 218.224" stroke="#B2ABA5" stroke-width="2" stroke-miterlimit="10" stroke-linecap="round"/>
<path d="M1966.77 207.824C2121.13 250.535 2247.27 329.704 2334.14 458.502C2420.53 587.37 2455.4 741.373 2458.88 865.148C2461.37 950.049 2438.75 1057.83 2398.31 1155.13C2378.1 1203.38 2352.02 1249.69 2319.97 1292.17C2241.02 1396.85 2123.38 1478.62 1999.69 1519.94C1859.57 1566.72 1708.82 1580.46 1562.8 1557.1C1502.84 1547.51 1443.81 1525.93 1388.16 1501.53" stroke="#B2ABA5" stroke-width="2" stroke-miterlimit="10" stroke-linecap="round"/>
<path d="M1388.14 1501.55C1437.77 1526.88 1498.34 1553.15 1552.78 1563.48C1607.97 1573.95 1661.06 1580.25 1717.18 1580.91C1873.2 1582.76 2024.5 1555.49 2162.23 1479.76C2242.79 1435.44 2315.38 1375.81 2371.66 1302.87C2404.78 1259.93 2432.07 1212.6 2453.22 1162.71C2491.86 1071.67 2519.36 965.068 2516.47 865.148C2512.18 718.987 2469.78 570.788 2387.22 449.358C2295.07 313.833 2172.89 238.928 2018.15 197.448" stroke="#B2ABA5" stroke-width="2" stroke-miterlimit="10" stroke-linecap="round"/>
<path d="M1388.14 1501.51C1460.84 1530.34 1552.47 1545.88 1632.8 1544.62C1662.84 1544.17 1692.78 1542.09 1721.94 1538.63C1721.96 1538.65 1722.01 1538.65 1722.04 1538.63C1754.51 1534.84 1786.21 1529.48 1817.62 1522.59C1836.81 1518.75 1857.8 1512.52 1876.68 1507.12C2022.08 1464.15 2139.67 1376.45 2216.47 1270.78C2246.44 1229.25 2270.32 1184.95 2288.44 1139.96C2332.72 1030.31 2345.18 920.012 2343.73 865.148C2341.6 786.098 2322.44 620.274 2227.92 476.718C2151.92 361.258 2028.1 275.551 1874.47 230.4" stroke="#B2ABA5" stroke-width="2" stroke-miterlimit="10" stroke-linecap="round"/>
</g>
</g>
</g>
</svg>
