<svg width="1437" height="1245" viewBox="0 0 1437 1245" fill="none" xmlns="http://www.w3.org/2000/svg">
<mask id="mask0_1752_6759" style="mask-type:alpha" maskUnits="userSpaceOnUse" x="-3" y="-1" width="1440" height="1247">
<rect x="1437" y="1245" width="1440" height="1245" transform="rotate(180 1437 1245)" fill="#F9F4F1"/>
</mask>
<g mask="url(#mask0_1752_6759)">
<g opacity="0.1">
<path d="M860.942 438.459C947.485 400.362 1044.91 443.555 1107.97 504.547C1157.02 551.986 1189.8 613.678 1208.56 678.3C1253.91 834.62 1219.25 1021.44 1100.49 1140.13C1053.16 1187.44 993.576 1221.36 929.056 1241.69C882.122 1256.47 834.003 1268.84 784.542 1271.59C744.193 1273.84 699.426 1275.01 659.954 1265.81" stroke="#B2ABA5" stroke-width="2" stroke-miterlimit="10" stroke-linecap="round"/>
<path d="M666.899 1269.16C725.196 1281.75 776.806 1284 834.948 1277.45C892.162 1271.03 949.565 1256.67 998.269 1236.63C1067.28 1208.22 1131.42 1160.53 1176.72 1102.27C1180.17 1097.82 1183.54 1093.31 1186.79 1088.71C1206.99 1060.17 1222.54 1030.4 1234.38 1001.16C1268.88 915.211 1271 836.102 1270.62 818.651C1270.12 794.541 1267.03 670.008 1193.09 558.429C1156.11 502.615 1102.19 455.759 1041.47 425.205C1006.02 407.371 954.465 396.248 914.305 408.537" stroke="#B2ABA5" stroke-width="2" stroke-miterlimit="10" stroke-linecap="round"/>
<path d="M965.02 387.141C1044.77 380.33 1179.52 475.508 1230.89 551.903C1302.27 658.069 1310.64 778.689 1311.67 818.519C1312.4 846.526 1306.91 924.852 1273.49 1006.36C1261.03 1036.8 1244.57 1067.24 1223.6 1096.11C1171.82 1166.86 1091.48 1229.2 986.046 1260.4C926.666 1278.32 865.755 1287.89 803.281 1288.79C756.897 1289.23 702.761 1280.25 659.988 1265.8" stroke="#B2ABA5" stroke-width="2" stroke-miterlimit="10" stroke-linecap="round"/>
<path d="M659.988 1265.81C725.248 1293.54 807.785 1306.24 880.936 1303.66C880.953 1303.68 880.987 1303.66 880.987 1303.66C936.293 1301.53 990.052 1293.8 1043.02 1279.12C1148.63 1249.88 1238.99 1188.97 1298.68 1111.16C1321.16 1081.64 1339.35 1049.78 1353.23 1017.03C1384.02 944.316 1396.74 867.672 1395.26 818.518C1393.27 747.252 1373.7 634.791 1307.98 539.097C1248.94 453.178 1155.73 394.666 1043.96 363.795" stroke="#B2ABA5" stroke-width="2" stroke-miterlimit="10" stroke-linecap="round"/>
<path d="M1079.91 356.486C1191.93 386.508 1283.48 442.155 1346.52 532.687C1409.22 623.269 1434.53 731.517 1437.05 818.518C1438.86 878.196 1422.44 953.958 1393.09 1022.34C1378.43 1056.26 1359.5 1088.81 1336.24 1118.67C1278.92 1192.25 1193.55 1249.73 1103.79 1278.77C1002.1 1311.66 892.695 1321.31 786.726 1304.89C743.214 1298.15 700.372 1282.98 659.989 1265.83" stroke="#B2ABA5" stroke-width="2" stroke-miterlimit="10" stroke-linecap="round"/>
<path d="M659.988 1265.83C696.005 1283.63 739.964 1302.1 779.471 1309.36C819.527 1316.72 858.054 1321.15 898.781 1321.61C1012.01 1322.91 1121.81 1303.75 1221.76 1250.51C1280.23 1219.36 1332.91 1177.45 1373.75 1126.18C1397.79 1095.99 1417.59 1062.72 1432.94 1027.66C1460.98 963.666 1480.96 888.736 1478.85 818.502C1475.73 715.765 1444.96 611.596 1385.05 526.243C1318.17 430.983 1229.5 378.332 1117.2 349.176" stroke="#B2ABA5" stroke-width="2" stroke-miterlimit="10" stroke-linecap="round"/>
<path d="M659.989 1265.81C712.75 1286.08 779.248 1297 837.545 1296.12C859.344 1295.8 881.074 1294.34 902.237 1291.91C902.255 1291.92 902.289 1291.92 902.306 1291.91C925.876 1289.24 948.878 1285.48 971.675 1280.63C985.6 1277.94 1000.83 1273.56 1014.53 1269.76C1120.06 1239.56 1205.4 1177.91 1261.13 1103.63C1282.88 1074.44 1300.21 1043.31 1313.36 1011.69C1345.49 934.609 1354.53 857.082 1353.49 818.518C1351.94 762.953 1338.03 646.396 1269.44 545.491C1214.28 464.334 1124.42 404.091 1012.93 372.354" stroke="#B2ABA5" stroke-width="2" stroke-miterlimit="10" stroke-linecap="round"/>
<path d="M1122.05 350.342C1057.26 331.642 988.179 321.952 917.246 322.951C883.413 323.434 850.233 327.063 823.62 330.877C710.997 340.518 573.721 396.165 448.531 576.063" stroke="#B2ABA5" stroke-width="2" stroke-linecap="round" stroke-linejoin="round"/>
<path d="M1122.05 350.342C1060.04 335.905 994.265 329.395 926.736 333.008C895.034 334.69 863.986 339.752 838.181 344.031C726.332 362.53 591.463 422.074 470.416 608.882" stroke="#B2ABA5" stroke-width="2" stroke-linecap="round" stroke-linejoin="round"/>
<path d="M1122.05 350.341C1062.83 340.151 1000.38 336.787 936.243 343.031C906.673 345.912 877.636 351.657 852.708 357.168C740.859 381.845 608.741 448.616 491.854 644.149" stroke="#B2ABA5" stroke-width="2" stroke-linecap="round" stroke-linejoin="round"/>
<path d="M513.24 682.196C518.586 672.522 523.83 663.181 526.511 658.668C635.713 472.677 759.769 400.478 867.234 370.306C891.251 363.563 918.293 357.102 945.714 353.056C1006.45 344.114 1065.61 344.414 1122.03 350.325" stroke="#B2ABA5" stroke-width="2" stroke-linecap="round" stroke-linejoin="round"/>
<path d="M1122.05 350.342C1068.43 348.677 1012.59 351.391 955.222 363.096C929.933 368.275 904.868 375.468 881.797 383.461C779.437 418.91 665.834 493.773 564.971 666.893C562.117 671.655 547.263 698.73 544.461 703.942C540.713 711.052 537.447 717.379 533.716 724.772" stroke="#B2ABA5" stroke-width="2" stroke-linecap="round" stroke-linejoin="round"/>
<path d="M1122.05 350.341C1071.21 352.955 1018.66 358.55 964.747 373.153C941.589 379.414 918.484 387.339 896.375 396.597C799.036 437.292 695.989 514.853 603.428 675.136C602.002 677.5 585.549 707.638 584.139 710.219C574.065 729.401 564.128 749.666 554.363 771.062" stroke="#B2ABA5" stroke-width="2" stroke-linecap="round" stroke-linejoin="round"/>
<path d="M1122.05 350.341C1109.12 352.206 1096.06 354.221 1082.89 356.552L1082.84 356.552C1042.18 363.729 1000.56 373.669 958.609 389.505C850.559 430.316 740.704 510.324 641.835 683.328L623.766 716.514C607.228 748.201 590.999 782.835 575.303 820.716" stroke="#B2ABA5" stroke-width="2" stroke-linecap="round" stroke-linejoin="round"/>
<path d="M575.338 820.816C575.338 820.816 575.355 820.749 575.389 820.732" stroke="#B2ABA5" stroke-width="2" stroke-linecap="round" stroke-linejoin="round"/>
<path d="M446.452 1066.35C321.348 1245.97 184.45 1300.96 71.8959 1310.59C45.3003 1314.42 12.1203 1318.05 -21.6958 1318.53C-92.646 1319.53 -161.275 1310.09 -226.088 1291.36" stroke="#B2ABA5" stroke-width="2" stroke-linecap="round" stroke-linejoin="round"/>
<path d="M424.634 1033.53C303.622 1220.04 169.097 1278.97 57.3677 1297.45C31.5458 1301.75 0.497623 1306.81 -31.2039 1308.47C-98.7329 1312.09 -164.044 1305.83 -226.072 1291.36" stroke="#B2ABA5" stroke-width="2" stroke-linecap="round" stroke-linejoin="round"/>
<path d="M403.162 998.149C286.344 1193.2 154.536 1259.65 42.8067 1284.3C17.8787 1289.81 -11.1581 1295.55 -40.7107 1298.43C-104.87 1304.68 -166.881 1301.55 -226.089 1291.36" stroke="#B2ABA5" stroke-width="2" stroke-linecap="round" stroke-linejoin="round"/>
<path d="M381.621 961.384C376.326 970.991 371.667 978.335 368.985 982.797C259.783 1168.79 135.728 1240.99 28.2623 1271.16C4.26265 1277.9 -22.797 1284.36 -50.2178 1288.41C-110.956 1297.35 -169.666 1297.28 -226.089 1291.36" stroke="#B2ABA5" stroke-width="2" stroke-linecap="round" stroke-linejoin="round"/>
<path d="M361.335 917.925C357.656 925.251 354.733 930.513 351.037 937.556C348.252 942.752 333.398 969.826 330.562 974.605C229.681 1147.74 116.095 1222.59 13.7186 1258.04C-9.33543 1266.03 -34.4181 1273.22 -59.7071 1278.4C-117.041 1290.11 -172.45 1293.04 -226.088 1291.39" stroke="#B2ABA5" stroke-width="2" stroke-linecap="round" stroke-linejoin="round"/>
<path d="M340.327 872.434C330.579 893.797 321.433 912.097 311.376 931.262C310 933.843 293.514 963.998 292.087 966.346C199.527 1126.63 96.5138 1204.19 -0.842789 1244.88C-22.9685 1254.14 -46.0741 1262.07 -69.2486 1268.33C-123.162 1282.91 -175.287 1288.76 -226.106 1291.37" stroke="#B2ABA5" stroke-width="2" stroke-linecap="round" stroke-linejoin="round"/>
<path d="M319.387 822.714C303.691 860.578 288.287 893.298 271.732 924.951L253.663 958.137C137.602 1161.25 6.67002 1236.33 -118.881 1270.18L-118.898 1270.18C-130.124 1273.24 -141.282 1275.92 -152.405 1278.37C-164.491 1281 -176.542 1283.35 -188.49 1285.43C-201.126 1287.66 -213.659 1289.61 -226.071 1291.37" stroke="#B2ABA5" stroke-width="2" stroke-linecap="round" stroke-linejoin="round"/>
<path d="M-111.988 432.698C29.4658 374.136 190.002 557.047 271.783 717.63C304.086 777.107 330.888 852.42 361.317 915.461C443.752 1107.65 611.612 1290.64 800.445 1312.14" stroke="#B2ABA5" stroke-width="2" stroke-miterlimit="10" stroke-linecap="round"/>
<path d="M-39.9403 401.579C92.1083 405.987 181.051 520.128 269.083 647.062C313.254 713.973 349.971 803.243 385.057 875.344C452.893 1014.67 595.281 1237.33 745.293 1274.58" stroke="#B2ABA5" stroke-width="2" stroke-miterlimit="10" stroke-linecap="round"/>
<path d="M7.04741 388.356C126.702 403.758 194.093 489.777 285.811 610.581C342.303 688.457 381.414 781.603 426.663 867.955C497.561 1012.94 641.748 1227.52 782.961 1271.14" stroke="#B2ABA5" stroke-width="2" stroke-miterlimit="10" stroke-linecap="round"/>
<path d="M55.7689 376.817C145.664 379.514 251.686 502.815 324.389 603.804C369.724 665.163 415.454 759.74 450.095 825.862C487.16 896.645 524.69 974.938 570.781 1038.23C643.519 1139.23 760.887 1260.92 838.232 1264.4" stroke="#B2ABA5" stroke-width="2" stroke-miterlimit="10" stroke-linecap="round"/>
<path d="M111.177 369.874C265.335 413.666 397.505 628.98 468.507 774.06C513.395 859.58 553.056 954.008 609.376 1031.42C701.42 1152.52 767.488 1237.42 887.589 1253.13" stroke="#B2ABA5" stroke-width="2" stroke-miterlimit="10" stroke-linecap="round"/>
<path d="M148.707 366.443C311.53 405.24 441.516 626.699 509.32 766.034C546.42 842.063 579.841 925.035 625.416 994.503C714.16 1122.1 801.081 1234.19 934.11 1239.16" stroke="#B2ABA5" stroke-width="2" stroke-miterlimit="10" stroke-linecap="round"/>
<path d="M106.501 335.839C270.201 344.864 451.023 534.003 533.836 726.555C564.402 789.412 591.015 865.008 623.37 924.369C705.151 1084.92 865.704 1267.88 1007.14 1209.3" stroke="#B2ABA5" stroke-width="2" stroke-miterlimit="10" stroke-linecap="round"/>
<path d="M34.0556 1203.26C-52.4875 1241.35 -149.913 1198.16 -212.972 1137.17C-262.02 1089.73 -294.805 1028.04 -313.561 963.415C-358.913 807.095 -324.254 620.271 -205.494 501.582C-158.165 454.277 -98.5785 420.359 -34.058 400.028C12.8753 385.242 60.9949 372.87 110.455 370.123C150.804 367.875 195.572 366.709 235.044 375.901" stroke="#B2ABA5" stroke-width="2" stroke-miterlimit="10" stroke-linecap="round"/>
<path d="M228.098 372.555C169.801 359.967 118.191 357.719 60.0491 364.263C2.83508 370.69 -54.568 385.043 -103.272 405.091C-172.28 433.498 -236.422 481.186 -281.722 539.448C-285.178 543.894 -288.547 548.406 -291.796 553.002C-311.997 581.542 -327.538 611.314 -339.383 640.553C-373.887 726.505 -376.001 805.614 -375.623 823.065C-375.125 847.175 -372.03 971.708 -298.089 1083.29C-261.109 1139.1 -207.196 1185.96 -146.475 1216.51C-111.026 1234.34 -59.4676 1245.47 -19.3077 1233.18" stroke="#B2ABA5" stroke-width="2" stroke-miterlimit="10" stroke-linecap="round"/>
<path d="M-70.0233 1254.58C-149.776 1261.39 -284.524 1166.21 -335.893 1089.81C-407.273 983.647 -415.646 863.027 -416.677 823.197C-417.399 795.19 -411.915 716.864 -378.494 635.357C-366.03 604.919 -349.578 574.481 -328.604 545.608C-276.823 474.858 -196.486 412.517 -91.0488 381.313C-31.6686 363.396 29.2416 353.822 91.7163 352.923C138.1 352.49 192.236 361.465 235.009 375.918" stroke="#B2ABA5" stroke-width="2" stroke-miterlimit="10" stroke-linecap="round"/>
<path d="M235.009 375.918C169.749 348.194 87.212 335.49 14.0613 338.071C14.0441 338.054 14.0098 338.071 14.0098 338.071C-41.296 340.202 -95.0544 347.928 -148.022 362.614C-253.631 391.853 -343.99 452.763 -403.68 530.573C-426.167 560.095 -444.356 591.948 -458.229 624.701C-489.02 697.416 -501.742 774.06 -500.263 823.214C-498.269 894.48 -478.705 1006.94 -412.981 1102.63C-353.944 1188.55 -260.731 1247.07 -148.968 1277.94" stroke="#B2ABA5" stroke-width="2" stroke-miterlimit="10" stroke-linecap="round"/>
<path d="M-184.915 1285.25C-296.937 1255.22 -388.482 1199.58 -451.524 1109.05C-514.223 1018.46 -539.529 910.215 -542.056 823.214C-543.861 763.537 -527.443 687.775 -498.097 619.389C-483.432 585.471 -464.504 552.918 -441.244 523.063C-383.944 449.482 -298.57 392.003 -208.812 362.963C-107.123 330.078 2.28514 320.42 108.255 336.838C151.767 343.582 194.609 358.751 234.992 375.901" stroke="#B2ABA5" stroke-width="2" stroke-miterlimit="10" stroke-linecap="round"/>
<path d="M235.009 375.885C198.993 358.085 155.033 339.619 115.527 332.36C75.4701 325 36.9435 320.571 -3.78371 320.104C-117.008 318.806 -226.812 337.971 -326.764 391.204C-385.233 422.358 -437.909 464.269 -478.756 515.537C-502.79 545.725 -522.595 578.994 -537.947 614.061C-565.987 678.051 -585.947 752.98 -583.849 823.214C-580.737 925.951 -549.964 1030.12 -490.051 1115.47C-423.175 1210.73 -334.501 1263.38 -222.204 1292.54" stroke="#B2ABA5" stroke-width="2" stroke-miterlimit="10" stroke-linecap="round"/>
<path d="M235.009 375.918C182.248 355.654 115.75 344.731 57.4531 345.613C35.654 345.93 13.9238 347.395 -7.2392 349.826C-7.2564 349.809 -7.29085 349.809 -7.30804 349.826C-30.8779 352.49 -53.8803 356.253 -76.6766 361.099C-90.6019 363.796 -105.834 368.175 -119.535 371.972C-225.058 402.177 -310.398 463.819 -366.133 538.099C-387.881 567.288 -405.21 598.426 -418.362 630.046C-450.493 707.124 -459.536 784.651 -458.487 823.214C-456.94 878.779 -443.032 995.336 -374.437 1096.24C-319.286 1177.4 -229.425 1237.64 -117.937 1269.38" stroke="#B2ABA5" stroke-width="2" stroke-miterlimit="10" stroke-linecap="round"/>
</g>
</g>
</svg>
