<svg width="375" height="341" viewBox="0 0 375 341" fill="none" xmlns="http://www.w3.org/2000/svg">
<mask id="mask0_1756_7575" style="mask-type:alpha" maskUnits="userSpaceOnUse" x="0" y="0" width="375" height="341">
<rect width="375" height="341" fill="#F9F4F1"/>
</mask>
<g mask="url(#mask0_1756_7575)">
<g opacity="0.2">
<path d="M816.715 679.372C814.995 678.822 813.276 678.272 811.573 677.693C809.854 677.129 808.151 676.55 806.464 675.942C804.761 675.349 803.091 674.741 801.404 674.119C799.734 673.496 798.048 672.86 796.394 672.208C794.723 671.572 793.07 670.906 791.432 670.226C789.778 669.56 788.141 668.865 786.503 668.171H786.487C784.85 667.476 783.228 666.752 781.607 666.029C730.273 642.932 676.4 602.931 625.507 536.448C620.497 529.892 615.503 523.076 610.557 515.999C610.443 515.84 610.345 515.68 610.23 515.507C605.432 508.343 600.438 500.746 595.329 492.8C592.103 487.808 588.845 482.67 585.553 477.417C583.801 474.494 582.049 471.541 580.313 468.546C575.335 460.007 570.423 451.208 565.56 442.076C560.582 432.771 555.686 423.133 550.839 413.133C546.729 404.667 542.668 395.926 538.656 386.939C537.837 385.101 537.019 383.277 536.184 381.468C536.184 381.454 536.184 381.425 536.167 381.41C525.196 357.271 513.865 335.202 502.321 315.013L489.696 293.856C426.571 193.059 356.914 141.857 287.665 113.985" stroke="#B2ABA5" stroke-width="2" stroke-miterlimit="10" stroke-linecap="round"/>
<path d="M850.349 670.023H850.316C828.522 664.408 807.66 656.824 788.109 646.52C751.79 626.94 715.291 599.226 680.331 560.775C675.32 555.695 668.312 546.607 663.35 540.992C656.26 532.294 649.219 523.09 642.243 513.35C640.065 510.326 637.904 507.258 635.759 504.132C632.779 499.776 629.749 495.391 626.818 490.875L626.278 490.051C621.464 482.583 616.535 474.783 611.541 466.693C608.397 461.599 605.236 456.389 602.06 451.092C600.062 447.749 598.064 444.377 596.099 440.976C590.843 431.975 585.685 422.756 580.576 413.306C575.32 403.61 570.129 393.668 564.971 383.494C561.254 376.186 557.553 368.762 553.869 361.193C552.428 358.226 550.971 355.303 549.513 352.409C538.182 329.963 526.425 309.514 514.553 290.845C513.505 289.847 501.945 271.265 500.897 270.368C452.739 201.713 406.186 159.73 356.423 132.552C340.196 123.681 323.461 116.068 306.611 109.788" stroke="#B2ABA5" stroke-width="2" stroke-miterlimit="10" stroke-linecap="round"/>
<path d="M878.775 665.725C878.775 665.725 824.706 647.563 794.625 627.027C760.238 603.554 724.984 574.957 692.922 536.404C688.927 532.338 680.919 520.557 676.94 516.057C670.603 507.576 664.299 498.661 658.06 489.284C655.686 485.724 653.328 482.091 650.97 478.401C648.17 473.987 645.321 469.559 642.57 465.029C642.373 464.725 642.193 464.407 641.997 464.088C637.084 455.998 632.074 447.663 627.014 439.139C624.214 434.406 621.381 429.616 618.548 424.783C616.043 420.513 613.554 416.215 611.098 411.888C605.645 402.395 600.241 392.8 594.887 383.089C589.5 373.335 584.129 363.465 578.758 353.494C575.548 347.517 572.323 341.497 569.097 335.448C567.181 331.844 565.249 328.313 563.3 324.825C551.461 303.523 539.164 284.246 526.785 266.692C524.705 264.68 514.192 248.674 512.096 246.865C460.123 180.381 413.193 141.886 361.924 118.717C350.364 113.492 338.345 108.688 326.08 104.462" stroke="#B2ABA5" stroke-width="2" stroke-miterlimit="10" stroke-linecap="round"/>
<path d="M349.61 99.585C355.685 101.51 361.629 103.536 367.377 105.62C420.283 124.723 467.508 159.05 523.297 223.377C526.44 226.069 535.889 239.514 539.016 242.538C552.1 259.326 565.118 277.878 577.677 298.53C579.92 302.191 582.131 305.91 584.325 309.702C587.272 314.782 590.204 319.847 593.118 324.941C598.424 334.145 603.68 343.378 608.952 352.64C614.389 362.192 619.842 371.786 625.311 381.396C625.311 381.396 625.344 381.439 625.344 381.468C628.569 387.127 631.812 392.8 635.054 398.473C637.297 402.38 639.524 406.273 641.735 410.151C647.089 419.5 652.378 428.777 657.569 437.894C657.618 437.966 657.651 438.053 657.7 438.126C660.484 443.017 663.349 447.836 666.182 452.67C668.474 456.577 670.767 460.412 673.092 464.175C678.84 473.582 684.669 482.554 690.531 491.136C693.511 494.508 702.534 508.98 705.53 512.033C734.677 550.688 766.821 582.367 801.126 607.519C835.742 632.005 865.282 650.934 908.134 662.541H908.151" stroke="#B2ABA5" stroke-width="2" stroke-miterlimit="10" stroke-linecap="round"/>
<path d="M286.814 649.227C73.7793 588.836 77.4473 390.571 77.7256 382.134C77.4473 373.277 74.0577 175.389 285.504 114.607L287.665 113.985L301.78 109.904L303.483 109.412C308.085 108.167 312.932 106.923 317.975 105.707C324.427 104.144 331.206 102.624 338.247 101.206H338.263C346.909 99.455 355.948 97.8487 365.232 96.5028C377.955 94.6649 391.17 93.29 404.499 92.6822H404.515C420.595 91.9441 436.871 92.3204 452.689 94.2886C452.689 94.2886 452.739 94.2886 452.755 94.2886C458.191 94.9688 463.579 95.8371 468.884 96.908V96.8791" stroke="#B2ABA5" stroke-width="2" stroke-miterlimit="10" stroke-linecap="round"/>
<path d="M452.771 94.3028C452.771 94.3028 452.722 94.3028 452.705 94.3028C433.743 90.8151 413.995 89.4981 394.362 89.7007H394.346C379.592 89.8744 364.904 90.8874 350.658 92.5228H350.642C341.046 93.6081 331.647 94.9685 322.559 96.517H322.543C315.371 97.7326 308.395 99.0785 301.682 100.497C296.032 101.683 290.563 102.928 285.323 104.202H285.307C284.93 104.303 284.57 104.39 284.193 104.477C283.424 104.621 276.759 106.488 271.601 107.921C268.539 108.775 266.017 109.484 265.559 109.585C191.791 130.135 140.669 167.545 107.167 210.498C93.019 228.732 82.1298 247.763 73.8442 266.446C49.6752 321.381 48.2015 371.931 48.4635 383.089C48.8073 398.502 50.9852 478.083 102.762 549.386C136.166 595.073 190.727 635.001 268.343 656.434L268.49 656.477" stroke="#B2ABA5" stroke-width="2" stroke-miterlimit="10" stroke-linecap="round"/>
<path d="M250.15 661.817C172.256 640.949 111.735 601.368 75.7598 552.54C25.7679 484.696 19.9058 407.604 19.1853 382.148C18.6777 364.247 22.5257 314.188 45.9251 262.104C54.6528 242.654 66.1806 223.204 80.8687 204.752C117.139 159.542 171.765 122.595 245.598 102.653C246.4 102.465 248.48 101.915 251.034 101.235C255.357 100.077 260.974 98.572 263.659 97.9208H263.676C264.2 97.7906 264.609 97.7037 264.887 97.6458C269.571 96.5894 274.368 95.5619 279.281 94.5778H279.313C286.027 93.2464 292.937 92.0018 300.011 90.873C309.23 89.3969 318.711 88.1378 328.372 87.1248C343.142 85.5763 358.321 84.6356 373.582 84.5054C406.07 84.2304 438.917 87.6747 468.883 96.9078" stroke="#B2ABA5" stroke-width="2" stroke-miterlimit="10" stroke-linecap="round"/>
<path d="M468.9 96.908C431.942 83.9556 390.433 79.2668 349.611 79.8312C349.594 79.8312 349.561 79.8312 349.545 79.8312C334.284 80.0338 319.104 80.9744 304.302 82.5229C304.285 82.5085 304.269 82.5085 304.253 82.5229C294.444 83.5215 284.8 84.795 275.4 86.2711C268.687 87.3131 262.104 88.4709 255.669 89.7299C255.669 89.7299 255.669 89.7299 255.636 89.7299C252.247 90.3812 248.906 91.0613 245.599 91.7705C244.665 91.9441 243.175 92.2914 241.39 92.7256C238.001 93.536 233.563 94.6793 230.124 95.5621C228.225 96.0397 226.62 96.4593 225.654 96.6764C151.755 115.982 93.6251 152.48 54.5879 199.948C39.3594 218.602 27.2258 238.501 18.0069 258.704C-4.49195 307.966 -10.829 357.503 -10.0921 382.149C-9.01136 417.663 0.731571 492.149 48.7749 556.636C87.4028 608.503 150.331 646.998 228.422 667.288" stroke="#B2ABA5" stroke-width="2" stroke-miterlimit="10" stroke-linecap="round"/>
<path d="M468.9 96.9078C423.198 79.1942 370.455 73.362 319.219 75.0118C319.203 75.0118 319.186 75.0118 319.186 75.0118C303.237 75.5184 287.436 76.7485 272.06 78.5719H272.044C262.808 79.6718 253.72 80.9743 244.845 82.4649C238.983 83.4489 233.219 84.5054 227.554 85.6487H227.537C227.111 85.7355 226.702 85.8079 226.293 85.8947C223.853 86.3578 219.939 87.255 216.026 88.1957C212.735 88.9917 209.443 89.8021 207.036 90.381H207.02C206.545 90.4968 206.103 90.5981 205.71 90.6994C131.745 109.383 70.0947 145.418 28.2901 195.143C12.5377 214.014 -0.201809 234.362 -9.91199 255.302C-31.4774 301.772 -40.3853 350.759 -39.3537 382.163C-37.9618 427.706 -24.2562 499.573 21.773 560.731C63.1191 615.638 128.405 653.033 206.676 672.758" stroke="#B2ABA5" stroke-width="2" stroke-miterlimit="10" stroke-linecap="round"/>
<path d="M181.541 677.433H181.508C103.057 658.243 38.9338 622.686 -5.21231 564.827C-49.1292 506.94 -66.8466 437.764 -68.6151 382.163C-69.8759 344.03 -58.3809 295.607 -37.8307 251.902C-27.5637 230.223 -14.3003 209.427 1.99255 190.338C45.7293 139.354 109.23 104.144 181.508 85.7934C182.916 85.4171 184.325 85.0698 185.749 84.7225C186.077 84.6501 186.421 84.5633 186.764 84.4764C188.942 83.9699 191.431 83.391 194.002 82.7977C197.801 81.9149 201.764 81.0321 205.12 80.3664C205.775 80.2362 206.398 80.1204 207.004 80.0046C213.128 78.8179 219.35 77.7181 225.654 76.7195C239.966 74.4185 254.703 72.624 269.669 71.3939C337.002 65.8222 409.034 71.7267 468.9 96.8933" stroke="#B2ABA5" stroke-width="2" stroke-miterlimit="10" stroke-linecap="round"/>
<path d="M468.916 96.8934C443.437 85.4172 415.747 77.255 387.01 71.9438C356.176 66.2419 324.131 63.7962 292.282 64.0422C256.504 64.2882 220.971 67.9351 187.73 74.1291C181.327 75.3303 174.941 76.6472 168.588 78.0944C167.72 78.297 166.869 78.4996 166.001 78.7022C91.8399 96.1119 23.099 131.264 -24.273 185.534C-41.1061 204.825 -54.9755 226.084 -65.7337 248.501C-85.3833 289.398 -99.3673 337.286 -97.8935 382.163C-95.7157 447.822 -74.1666 514.392 -32.1983 568.937C14.6333 629.82 77.7577 663.467 156.405 682.093" stroke="#B2ABA5" stroke-width="2" stroke-miterlimit="10" stroke-linecap="round"/>
</g>
</g>
</svg>
