<svg width="374" height="563" viewBox="0 0 374 563" fill="none" xmlns="http://www.w3.org/2000/svg">
<mask id="mask0_1756_6134" style="mask-type:alpha" maskUnits="userSpaceOnUse" x="0" y="0" width="374" height="563">
<rect width="374" height="563" fill="#C4C4C4"/>
</mask>
<g mask="url(#mask0_1756_6134)">
<path d="M29.417 689.484C60.0754 697.142 92.5993 700.597 125.992 698.683C141.669 697.792 157.021 695.107 169.778 692.832C225.082 683.019 292.285 650.571 352.142 551.469" stroke="url(#paint0_linear_1756_6134)" stroke-width="2" stroke-linecap="round" stroke-linejoin="round"/>
<path d="M29.417 689.484C58.6966 694.89 89.5752 696.672 121.288 693.361C135.91 691.832 150.266 688.786 162.595 685.86C217.898 672.773 283.803 636.303 341.598 532.579" stroke="url(#paint1_linear_1756_6134)" stroke-width="2" stroke-linecap="round" stroke-linejoin="round"/>
<path d="M330.973 512.387C328.331 517.528 325.202 523.524 323.87 525.92C269.876 624.588 208.536 662.887 155.399 678.889C143.523 682.465 130.152 685.896 116.595 688.039C86.5626 692.783 57.3178 692.626 29.417 689.484" stroke="url(#paint2_linear_1756_6134)" stroke-width="2" stroke-linecap="round" stroke-linejoin="round"/>
<path d="M29.417 689.484C55.9274 690.363 83.5385 688.93 111.903 682.718C124.405 679.973 136.803 676.156 148.204 671.918C198.815 653.111 254.987 613.403 304.856 521.562C306.27 519.033 313.616 504.669 314.995 501.912C316.848 498.144 318.691 494.303 320.533 490.378" stroke="url(#paint3_linear_1756_6134)" stroke-width="2" stroke-linecap="round" stroke-linejoin="round"/>
<path d="M29.417 689.484C54.5486 688.1 80.5375 685.126 107.199 677.384C118.646 674.061 130.071 669.859 141.009 664.947C189.14 643.359 240.086 602.218 285.854 517.191C286.561 515.939 294.695 499.95 295.39 498.577C300.372 488.403 305.285 477.652 310.117 466.298" stroke="url(#paint4_linear_1756_6134)" stroke-width="2" stroke-linecap="round" stroke-linejoin="round"/>
<path d="M29.417 689.484C35.8129 688.497 42.2667 687.426 48.7784 686.185H48.8015C68.9045 682.381 89.4825 677.107 110.223 668.703C163.649 647.055 217.967 604.614 266.852 512.833L275.785 495.23C283.965 478.422 291.983 460.049 299.746 439.954" stroke="url(#paint5_linear_1756_6134)" stroke-width="2" stroke-linecap="round" stroke-linejoin="round"/>
<path d="M299.734 439.906C299.734 439.906 299.722 439.942 299.711 439.954" stroke="url(#paint6_linear_1756_6134)" stroke-width="2" stroke-linecap="round" stroke-linejoin="round"/>
<path d="M362.823 310.801C424.673 215.528 493.011 185.199 548.662 180.094C561.813 178.06 578.22 176.133 594.94 175.88C630.024 175.351 663.95 180.359 695.999 190.292" stroke="url(#paint7_linear_1756_6134)" stroke-width="2" stroke-linecap="round" stroke-linejoin="round"/>
<path d="M373.611 328.211C433.445 229.278 500.602 196.866 555.847 187.066C568.616 184.79 583.968 182.105 599.645 181.214C633.038 179.3 665.33 182.623 696 190.292" stroke="url(#paint8_linear_1756_6134)" stroke-width="2" stroke-linecap="round" stroke-linejoin="round"/>
<path d="M498.25 687.798C497.034 687.341 495.817 686.883 494.612 686.402C493.396 685.932 492.191 685.451 490.997 684.945C489.792 684.451 488.61 683.946 487.417 683.428C486.235 682.91 485.042 682.38 483.871 681.839C482.689 681.309 481.519 680.755 480.36 680.189C479.19 679.635 478.032 679.057 476.873 678.479H476.861C475.703 677.901 474.556 677.299 473.408 676.697C437.084 657.482 398.964 624.203 362.952 568.891C359.407 563.437 355.873 557.766 352.374 551.879C352.293 551.746 352.223 551.614 352.142 551.469C348.747 545.509 345.213 539.188 341.598 532.578C339.316 528.425 337.01 524.15 334.681 519.78C333.441 517.348 332.201 514.892 330.973 512.399C327.451 505.296 323.975 497.975 320.533 490.378C317.011 482.636 313.547 474.618 310.117 466.298C307.209 459.255 304.335 451.982 301.497 444.506C300.917 442.977 300.338 441.459 299.747 439.954C299.747 439.942 299.747 439.918 299.735 439.906C291.972 419.824 283.954 401.463 275.786 384.667L266.852 367.064C222.186 283.205 172.896 240.608 123.896 217.419" stroke="url(#paint9_linear_1756_6134)" stroke-width="2" stroke-miterlimit="10" stroke-linecap="round"/>
<path d="M522.049 680.02H522.026C506.604 675.349 491.842 669.04 478.008 660.467C452.309 644.177 426.482 621.12 401.744 589.13C398.199 584.904 393.24 577.343 389.729 572.671C384.712 565.435 379.729 557.778 374.793 549.675C373.252 547.159 371.723 544.606 370.205 542.006C368.096 538.381 365.953 534.733 363.879 530.977L363.496 530.291C360.09 524.078 356.602 517.588 353.068 510.858C350.844 506.62 348.608 502.286 346.36 497.879C344.946 495.098 343.533 492.292 342.142 489.463C338.423 481.974 334.773 474.304 331.158 466.442C327.439 458.376 323.766 450.104 320.116 441.64C317.486 435.56 314.867 429.383 312.26 423.086C311.24 420.618 310.209 418.186 309.178 415.778C301.16 397.104 292.841 380.091 284.44 364.56C283.699 363.729 275.519 348.27 274.777 347.523C240.701 290.405 207.76 255.477 172.548 232.866C161.065 225.485 149.224 219.152 137.301 213.927" stroke="url(#paint10_linear_1756_6134)" stroke-width="2" stroke-miterlimit="10" stroke-linecap="round"/>
<path d="M542.164 676.444C542.164 676.444 503.905 661.334 482.62 644.249C458.288 624.72 433.342 600.929 410.655 568.855C407.828 565.471 402.162 555.671 399.346 551.926C394.862 544.871 390.402 537.454 385.987 529.652C384.307 526.691 382.638 523.668 380.97 520.598C378.989 516.926 376.973 513.242 375.026 509.473C374.887 509.22 374.76 508.956 374.62 508.691C371.144 501.96 367.599 495.025 364.019 487.934C362.037 483.997 360.033 480.011 358.028 475.99C356.256 472.438 354.494 468.862 352.756 465.262C348.898 457.364 345.074 449.382 341.285 441.303C337.473 433.188 333.673 424.976 329.873 416.681C327.602 411.708 325.319 406.7 323.036 401.667C321.681 398.669 320.314 395.731 318.935 392.83C310.558 375.107 301.856 359.069 293.096 344.465C291.625 342.791 284.186 329.475 282.703 327.97C245.927 272.658 212.719 240.632 176.441 221.356C168.261 217.009 159.757 213.012 151.078 209.496" stroke="url(#paint11_linear_1756_6134)" stroke-width="2" stroke-miterlimit="10" stroke-linecap="round"/>
<path d="M167.729 205.439C172.027 207.04 176.233 208.726 180.3 210.459C217.737 226.352 251.153 254.911 290.629 308.429C292.853 310.669 299.539 321.854 301.752 324.37C311.01 338.337 320.221 353.772 329.108 370.953C330.696 373.999 332.26 377.094 333.812 380.248C335.898 384.474 337.972 388.688 340.034 392.926C343.788 400.584 347.508 408.265 351.239 415.971C355.086 423.917 358.944 431.9 362.814 439.894C362.814 439.894 362.837 439.931 362.837 439.955C365.12 444.662 367.414 449.382 369.708 454.102C371.295 457.353 372.871 460.591 374.435 463.818C378.224 471.596 381.967 479.314 385.64 486.899C385.674 486.959 385.698 487.031 385.732 487.091C387.702 491.161 389.73 495.17 391.734 499.192C393.356 502.443 394.979 505.633 396.624 508.764C400.691 516.59 404.816 524.054 408.964 531.194C411.072 533.999 417.457 546.039 419.577 548.58C440.201 580.739 462.946 607.095 487.22 628.02C511.715 648.392 532.617 664.14 562.939 673.796H562.951" stroke="url(#paint12_linear_1756_6134)" stroke-width="2" stroke-miterlimit="10" stroke-linecap="round"/>
<path d="M186.661 201.827C224.109 214.649 258.163 239.344 298.554 288.864C301.52 291.862 307.453 300.904 310.407 304.263C320.325 317.844 330.186 333.027 339.756 350.04C341.378 352.917 342.989 355.843 344.588 358.817C346.627 362.609 348.643 366.438 350.671 370.303C354.367 377.37 358.04 384.546 361.69 391.83C365.444 399.295 369.175 406.856 372.906 414.55C375.733 420.365 378.549 426.241 381.376 432.189C382.384 434.296 383.38 436.403 384.377 438.522C388.223 446.697 392.035 454.908 395.79 463.144C396.149 463.926 396.496 464.697 396.856 465.479C398.709 469.573 400.621 473.667 402.498 477.784C403.912 480.879 405.337 483.925 406.762 486.911C410.667 495.098 414.606 502.936 418.592 510.437C419.994 512.303 427.074 526.594 428.499 528.28C447.061 560.535 468.264 588.528 491.832 611.778C518.226 637.05 543.439 656.699 577.794 669.534" stroke="url(#paint13_linear_1756_6134)" stroke-width="2" stroke-miterlimit="10" stroke-linecap="round"/>
<path d="M212.325 198.648C244.258 210.327 272.877 231.939 306.479 269.323C310.187 273.068 315.377 279.966 319.062 284.168C329.826 297.617 340.532 312.8 350.972 329.993C352.443 332.425 353.903 334.893 355.363 337.397C357.53 341.118 359.685 344.898 361.828 348.751C365.478 355.265 369.093 361.959 372.674 368.834C376.323 375.805 379.938 382.969 383.542 390.325C386.717 396.827 389.891 403.485 393.055 410.3C393.53 411.335 394.016 412.371 394.491 413.406C398.211 421.497 401.895 429.757 405.534 438.185C406.345 440.075 407.156 441.977 407.967 443.88C409.728 448.009 411.501 452.163 413.25 456.377C414.328 458.954 415.405 461.506 416.495 464.023C420.353 472.956 424.258 481.505 428.209 489.704C428.915 490.631 436.702 507.162 437.42 508.005C453.908 540.356 473.582 569.987 496.431 595.548C523.602 625.395 551.839 650.402 589.218 666.668" stroke="url(#paint14_linear_1756_6134)" stroke-width="2" stroke-miterlimit="10" stroke-linecap="round"/>
<path d="M601.453 662.562H601.442C529.094 626.647 478.518 560.042 446.331 487.741L437.826 468.971C433.805 459.724 429.831 450.056 425.915 439.954C425.915 439.942 425.915 439.918 425.903 439.906C425.266 438.269 424.64 436.631 424.015 434.982C421.222 427.625 418.407 420.474 415.545 413.526C412.127 405.207 408.674 397.164 405.163 389.398C401.733 381.789 398.269 374.432 394.747 367.341C391.282 360.31 387.771 353.519 384.226 346.981C380.727 340.492 377.181 334.231 373.612 328.211C370.032 322.179 366.44 316.375 362.825 310.801C307.197 225.136 246.344 191.978 194.181 182.442" stroke="url(#paint15_linear_1756_6134)" stroke-width="2" stroke-miterlimit="10" stroke-linecap="round"/>
<path d="M123.293 662.719C-27.4496 612.476 -24.8542 447.528 -24.6572 440.508C-24.8542 433.14 -27.2526 268.504 122.367 217.936L123.896 217.418L133.884 214.023L135.089 213.614C138.345 212.578 141.774 211.543 145.343 210.532C149.908 209.231 154.705 207.967 159.687 206.787H159.699C165.817 205.33 172.213 203.994 178.782 202.874C187.785 201.345 197.136 200.201 206.567 199.696H206.579C217.957 199.081 229.474 199.395 240.667 201.032C240.667 201.032 240.702 201.032 240.713 201.032C244.56 201.598 248.372 202.32 252.126 203.211V203.187" stroke="url(#paint16_linear_1756_6134)" stroke-width="2" stroke-miterlimit="10" stroke-linecap="round"/>
<path d="M240.724 201.044C240.724 201.044 240.69 201.044 240.678 201.044C227.261 198.143 213.287 197.047 199.395 197.215H199.383C188.943 197.36 178.55 198.203 168.47 199.563H168.458C161.668 200.466 155.018 201.598 148.587 202.886H148.575C143.5 203.898 138.564 205.017 133.814 206.197C129.817 207.185 125.947 208.22 122.239 209.28H122.227C121.961 209.364 121.706 209.436 121.439 209.508C120.895 209.629 116.179 211.182 112.529 212.374C110.362 213.084 108.578 213.674 108.254 213.758C56.0555 230.855 19.8818 261.979 -3.82456 297.714C-13.8355 312.884 -21.5406 328.717 -27.4035 344.26C-44.5055 389.964 -45.5483 432.02 -45.3629 441.303C-45.1196 454.126 -43.5785 520.334 -6.94138 579.655C16.6955 617.666 55.3024 650.884 110.223 668.715L110.328 668.751" stroke="url(#paint17_linear_1756_6134)" stroke-width="2" stroke-miterlimit="10" stroke-linecap="round"/>
<path d="M97.3506 673.194C42.2327 655.832 -0.59179 622.903 -26.0478 582.28C-61.422 525.836 -65.57 461.699 -66.0798 440.52C-66.439 425.627 -63.7162 383.98 -47.1588 340.648C-40.983 324.466 -32.826 308.284 -22.4327 292.933C3.23183 255.32 41.8851 224.582 94.1295 207.991C94.6973 207.834 96.1688 207.377 97.9763 206.811C101.035 205.848 105.009 204.596 106.91 204.054H106.921C107.292 203.945 107.582 203.873 107.779 203.825C111.092 202.946 114.487 202.091 117.963 201.273H117.987C122.737 200.165 127.627 199.129 132.632 198.19C139.155 196.962 145.864 195.915 152.7 195.072C163.152 193.784 173.892 193.001 184.691 192.893C207.679 192.664 230.922 195.529 252.126 203.211" stroke="url(#paint18_linear_1756_6134)" stroke-width="2" stroke-miterlimit="10" stroke-linecap="round"/>
<path d="M252.137 203.211C225.986 192.436 196.614 188.535 167.728 189.004C167.717 189.004 167.693 189.004 167.682 189.004C156.883 189.173 146.142 189.955 135.668 191.244C135.656 191.232 135.645 191.232 135.633 191.244C128.692 192.074 121.868 193.134 115.217 194.362C110.467 195.229 105.809 196.192 101.255 197.24C101.255 197.24 101.255 197.24 101.232 197.24C98.8335 197.781 96.4699 198.347 94.1294 198.937C93.4689 199.082 92.4145 199.371 91.1516 199.732C88.7531 200.406 85.6131 201.357 83.1799 202.092C81.8358 202.489 80.7004 202.838 80.0167 203.019C27.7259 219.08 -13.4069 249.445 -41.0296 288.936C-51.8052 304.456 -60.3909 321.011 -66.9143 337.819C-82.8344 378.803 -87.3184 420.016 -86.797 440.521C-86.0323 470.067 -79.1382 532.037 -45.1428 585.687C-17.8098 628.839 26.7179 660.865 81.9749 677.745" stroke="url(#paint19_linear_1756_6134)" stroke-width="2" stroke-miterlimit="10" stroke-linecap="round"/>
<path d="M252.137 203.211C219.798 188.474 182.477 183.622 146.223 184.995C146.211 184.995 146.199 184.995 146.199 184.995C134.914 185.416 123.733 186.439 112.853 187.956H112.841C106.306 188.872 99.8758 189.955 93.5958 191.195C89.4478 192.014 85.3693 192.893 81.3603 193.844H81.3487C81.0474 193.916 80.7578 193.977 80.4681 194.049C78.7417 194.434 75.9724 195.181 73.2032 195.963C70.8743 196.625 68.5454 197.3 66.8421 197.781H66.8305C66.4945 197.877 66.1817 197.962 65.9036 198.046C13.5665 213.59 -30.0575 243.569 -59.6383 284.939C-70.7847 300.639 -79.7992 317.568 -86.6701 334.989C-101.93 373.65 -108.233 414.406 -107.503 440.532C-106.518 478.422 -96.8201 538.213 -64.2499 589.094C-34.9934 634.774 11.2028 665.886 66.5872 682.296" stroke="url(#paint20_linear_1756_6134)" stroke-width="2" stroke-miterlimit="10" stroke-linecap="round"/>
<path d="M48.8022 686.185H48.779C-6.73291 670.22 -52.1065 640.638 -83.3442 592.502C-114.42 544.342 -126.957 486.79 -128.208 440.532C-129.1 408.807 -120.966 368.521 -106.425 332.16C-99.1601 314.124 -89.7749 296.823 -78.2461 280.942C-47.298 238.525 -2.36472 209.231 48.779 193.965C49.7755 193.652 50.7719 193.363 51.78 193.074C52.0117 193.013 52.255 192.941 52.4983 192.869C54.0394 192.448 55.8005 191.966 57.6197 191.472C60.3078 190.738 63.1118 190.003 65.487 189.45C65.9505 189.341 66.3908 189.245 66.8195 189.149C71.1529 188.161 75.5559 187.246 80.0168 186.416C90.1435 184.501 100.572 183.008 111.162 181.985C158.806 177.349 209.776 182.262 252.137 203.199" stroke="url(#paint21_linear_1756_6134)" stroke-width="2" stroke-miterlimit="10" stroke-linecap="round"/>
<path d="M252.149 203.199C234.12 193.652 214.527 186.861 194.192 182.442C172.375 177.699 149.699 175.664 127.163 175.868C101.846 176.073 76.7032 179.107 53.1822 184.26C48.6518 185.26 44.133 186.355 39.6374 187.559C39.0233 187.728 38.4208 187.896 37.8067 188.065C-14.6695 202.549 -63.3105 231.794 -96.8308 276.945C-108.742 292.994 -118.556 310.681 -126.168 329.331C-140.072 363.356 -149.967 403.197 -148.925 440.533C-147.384 495.158 -132.136 550.543 -102.439 595.921C-69.3008 646.574 -24.6341 674.567 31.0169 690.063" stroke="url(#paint22_linear_1756_6134)" stroke-width="2" stroke-miterlimit="10" stroke-linecap="round"/>
</g>
<defs>
<linearGradient id="paint0_linear_1756_6134" x1="190.779" y1="551.469" x2="190.779" y2="699.202" gradientUnits="userSpaceOnUse">
<stop stop-color="#B9E9F9" stop-opacity="0"/>
<stop offset="1" stop-color="#B9E9F9"/>
</linearGradient>
<linearGradient id="paint1_linear_1756_6134" x1="185.507" y1="532.579" x2="185.507" y2="695.03" gradientUnits="userSpaceOnUse">
<stop stop-color="#B9E9F9" stop-opacity="0"/>
<stop offset="1" stop-color="#B9E9F9"/>
</linearGradient>
<linearGradient id="paint2_linear_1756_6134" x1="180.195" y1="512.387" x2="180.195" y2="691.739" gradientUnits="userSpaceOnUse">
<stop stop-color="#B9E9F9" stop-opacity="0"/>
<stop offset="1" stop-color="#B9E9F9"/>
</linearGradient>
<linearGradient id="paint3_linear_1756_6134" x1="174.975" y1="490.378" x2="174.975" y2="689.72" gradientUnits="userSpaceOnUse">
<stop stop-color="#B9E9F9" stop-opacity="0"/>
<stop offset="1" stop-color="#B9E9F9"/>
</linearGradient>
<linearGradient id="paint4_linear_1756_6134" x1="169.767" y1="466.298" x2="169.767" y2="689.484" gradientUnits="userSpaceOnUse">
<stop stop-color="#B9E9F9" stop-opacity="0"/>
<stop offset="1" stop-color="#B9E9F9"/>
</linearGradient>
<linearGradient id="paint5_linear_1756_6134" x1="164.582" y1="439.954" x2="164.582" y2="689.484" gradientUnits="userSpaceOnUse">
<stop stop-color="#B9E9F9" stop-opacity="0"/>
<stop offset="1" stop-color="#B9E9F9"/>
</linearGradient>
<linearGradient id="paint6_linear_1756_6134" x1="299.722" y1="439.906" x2="299.722" y2="439.954" gradientUnits="userSpaceOnUse">
<stop stop-color="#B9E9F9" stop-opacity="0"/>
<stop offset="1" stop-color="#B9E9F9"/>
</linearGradient>
<linearGradient id="paint7_linear_1756_6134" x1="529.411" y1="175.842" x2="529.411" y2="310.801" gradientUnits="userSpaceOnUse">
<stop stop-color="#B9E9F9" stop-opacity="0"/>
<stop offset="1" stop-color="#B9E9F9"/>
</linearGradient>
<linearGradient id="paint8_linear_1756_6134" x1="534.806" y1="180.684" x2="534.806" y2="328.211" gradientUnits="userSpaceOnUse">
<stop stop-color="#B9E9F9" stop-opacity="0"/>
<stop offset="1" stop-color="#B9E9F9"/>
</linearGradient>
<linearGradient id="paint9_linear_1756_6134" x1="311.073" y1="217.419" x2="311.073" y2="687.798" gradientUnits="userSpaceOnUse">
<stop stop-color="#B9E9F9" stop-opacity="0"/>
<stop offset="1" stop-color="#B9E9F9"/>
</linearGradient>
<linearGradient id="paint10_linear_1756_6134" x1="329.675" y1="213.927" x2="329.675" y2="680.02" gradientUnits="userSpaceOnUse">
<stop stop-color="#B9E9F9" stop-opacity="0"/>
<stop offset="1" stop-color="#B9E9F9"/>
</linearGradient>
<linearGradient id="paint11_linear_1756_6134" x1="346.621" y1="209.496" x2="346.621" y2="676.444" gradientUnits="userSpaceOnUse">
<stop stop-color="#B9E9F9" stop-opacity="0"/>
<stop offset="1" stop-color="#B9E9F9"/>
</linearGradient>
<linearGradient id="paint12_linear_1756_6134" x1="365.34" y1="205.439" x2="365.34" y2="673.796" gradientUnits="userSpaceOnUse">
<stop stop-color="#B9E9F9" stop-opacity="0"/>
<stop offset="1" stop-color="#B9E9F9"/>
</linearGradient>
<linearGradient id="paint13_linear_1756_6134" x1="382.227" y1="201.827" x2="382.227" y2="669.534" gradientUnits="userSpaceOnUse">
<stop stop-color="#B9E9F9" stop-opacity="0"/>
<stop offset="1" stop-color="#B9E9F9"/>
</linearGradient>
<linearGradient id="paint14_linear_1756_6134" x1="400.771" y1="198.648" x2="400.771" y2="666.668" gradientUnits="userSpaceOnUse">
<stop stop-color="#B9E9F9" stop-opacity="0"/>
<stop offset="1" stop-color="#B9E9F9"/>
</linearGradient>
<linearGradient id="paint15_linear_1756_6134" x1="397.817" y1="182.442" x2="397.817" y2="662.562" gradientUnits="userSpaceOnUse">
<stop stop-color="#B9E9F9" stop-opacity="0"/>
<stop offset="1" stop-color="#B9E9F9"/>
</linearGradient>
<linearGradient id="paint16_linear_1756_6134" x1="113.72" y1="199.404" x2="113.72" y2="662.719" gradientUnits="userSpaceOnUse">
<stop stop-color="#B9E9F9" stop-opacity="0"/>
<stop offset="1" stop-color="#B9E9F9"/>
</linearGradient>
<linearGradient id="paint17_linear_1756_6134" x1="97.6723" y1="197.199" x2="97.6723" y2="668.751" gradientUnits="userSpaceOnUse">
<stop stop-color="#B9E9F9" stop-opacity="0"/>
<stop offset="1" stop-color="#B9E9F9"/>
</linearGradient>
<linearGradient id="paint18_linear_1756_6134" x1="93.0082" y1="192.88" x2="93.0082" y2="673.194" gradientUnits="userSpaceOnUse">
<stop stop-color="#B9E9F9" stop-opacity="0"/>
<stop offset="1" stop-color="#B9E9F9"/>
</linearGradient>
<linearGradient id="paint19_linear_1756_6134" x1="82.6501" y1="188.967" x2="82.6501" y2="677.745" gradientUnits="userSpaceOnUse">
<stop stop-color="#B9E9F9" stop-opacity="0"/>
<stop offset="1" stop-color="#B9E9F9"/>
</linearGradient>
<linearGradient id="paint20_linear_1756_6134" x1="72.2886" y1="184.772" x2="72.2886" y2="682.296" gradientUnits="userSpaceOnUse">
<stop stop-color="#B9E9F9" stop-opacity="0"/>
<stop offset="1" stop-color="#B9E9F9"/>
</linearGradient>
<linearGradient id="paint21_linear_1756_6134" x1="61.9314" y1="180.38" x2="61.9314" y2="686.185" gradientUnits="userSpaceOnUse">
<stop stop-color="#B9E9F9" stop-opacity="0"/>
<stop offset="1" stop-color="#B9E9F9"/>
</linearGradient>
<linearGradient id="paint22_linear_1756_6134" x1="51.5746" y1="175.854" x2="51.5746" y2="690.062" gradientUnits="userSpaceOnUse">
<stop stop-color="#B9E9F9" stop-opacity="0"/>
<stop offset="1" stop-color="#B9E9F9"/>
</linearGradient>
</defs>
</svg>
