<svg width="545" height="274" viewBox="0 0 545 274" fill="none" xmlns="http://www.w3.org/2000/svg">
<path d="M163.678 241.019C140.899 251.372 115.256 239.634 98.658 223.059C85.7482 210.167 77.119 193.402 72.1822 175.84C60.2452 133.36 69.3677 82.589 100.626 50.3347C113.084 37.4791 128.767 28.2617 145.75 22.7366C158.103 18.7184 170.769 15.3563 183.787 14.6097C194.407 13.9988 206.19 13.6821 216.58 16.1799" stroke="#4A5C76" stroke-width="1.5" stroke-miterlimit="10" stroke-linecap="round"/>
<path d="M214.752 15.2704C199.408 11.8495 185.823 11.2386 170.52 13.017C155.461 14.7636 140.352 18.6642 127.532 24.1123C109.369 31.832 92.4861 44.7916 80.5627 60.6246C79.6531 61.8328 78.7662 63.0591 77.911 64.308C72.5941 72.0638 68.5035 80.1546 65.3858 88.1005C56.3041 111.459 55.7475 132.957 55.8471 137.699C55.9783 144.251 56.7928 178.094 76.2549 208.416C85.9882 223.584 100.179 236.317 116.161 244.621C125.491 249.467 139.062 252.49 149.632 249.15" stroke="#4A5C76" stroke-width="1.5" stroke-miterlimit="10" stroke-linecap="round"/>
<path d="M136.284 254.965C115.293 256.816 79.8257 230.951 66.305 210.19C47.5171 181.338 45.3135 148.559 45.042 137.735C44.8519 130.124 46.2954 108.839 55.092 86.6887C58.3726 78.417 62.7031 70.1453 68.2236 62.2989C81.8529 43.0721 102.998 26.1305 130.75 17.6506C146.38 12.7817 162.412 10.1798 178.856 9.93547C191.064 9.81782 205.313 12.2568 216.572 16.1845" stroke="#4A5C76" stroke-width="1.5" stroke-miterlimit="10" stroke-linecap="round"/>
<path d="M216.571 16.1799C199.394 8.64573 177.67 5.19315 158.416 5.89453C158.411 5.89 158.402 5.89453 158.402 5.89453C143.845 6.47373 129.695 8.57333 115.754 12.5644C87.9568 20.5103 64.1733 37.0628 48.4625 58.2082C42.5438 66.231 37.7563 74.8874 34.1046 83.7881C26.0003 103.549 22.6518 124.377 23.041 137.735C23.5659 157.102 28.7154 187.664 46.0145 213.669C61.5534 237.019 86.088 252.919 115.505 261.309" stroke="#4A5C76" stroke-width="1.5" stroke-miterlimit="10" stroke-linecap="round"/>
<path d="M106.043 263.295C76.558 255.137 52.4623 240.014 35.8691 215.412C19.3663 190.796 12.7055 161.379 12.0404 137.735C11.5652 121.518 15.8866 100.929 23.6108 82.3448C27.4706 73.1274 32.4527 64.281 38.575 56.1676C53.6614 36.1716 76.1326 20.5513 99.7577 12.6596C126.523 3.72275 155.32 1.09824 183.212 5.55991C194.665 7.39253 205.942 11.5148 216.571 16.1756" stroke="#4A5C76" stroke-width="1.5" stroke-miterlimit="10" stroke-linecap="round"/>
<path d="M216.571 16.1755C207.091 11.3382 195.521 6.32 185.122 4.34709C174.579 2.34704 164.439 1.14338 153.719 1.01668C123.917 0.663733 95.0158 5.87202 68.7074 20.3385C53.3178 28.8048 39.4532 40.1942 28.7018 54.1267C22.3758 62.3306 17.163 71.3716 13.1222 80.9012C5.74186 98.2908 0.483794 118.653 1.04037 137.74C1.8594 165.659 9.95917 193.968 25.7288 217.163C43.3311 243.05 66.6711 257.359 96.2285 265.282" stroke="#4A5C76" stroke-width="1.5" stroke-miterlimit="10" stroke-linecap="round"/>
<path d="M216.571 16.1799C202.684 10.673 185.181 7.70456 169.837 7.94439C164.099 8.03036 158.379 8.42857 152.809 9.08922C152.805 9.08469 152.796 9.08469 152.791 9.08922C146.587 9.81322 140.533 10.8359 134.533 12.1526C130.867 12.8857 126.858 14.0758 123.252 15.1075C95.4773 23.3159 73.0151 40.0674 58.345 60.2535C52.6209 68.1859 48.0597 76.6476 44.5981 85.2406C36.1408 106.187 33.7607 127.255 34.0367 137.735C34.4439 152.835 38.1047 184.51 56.1595 211.932C70.6757 233.987 94.3279 250.358 123.673 258.983" stroke="#4A5C76" stroke-width="1.5" stroke-miterlimit="10" stroke-linecap="round"/>
<path d="M94.9521 264.965C112.007 270.047 130.188 272.68 148.859 272.409C157.764 272.277 166.497 271.291 173.502 270.255C203.145 267.635 239.277 252.512 272.228 203.624" stroke="#4A5C76" stroke-width="1.5" stroke-linecap="round" stroke-linejoin="round"/>
<path d="M94.9521 264.965C111.274 268.888 128.587 270.657 146.361 269.675C154.705 269.218 162.877 267.843 169.669 266.68C199.109 261.653 234.608 245.471 266.468 194.705" stroke="#4A5C76" stroke-width="1.5" stroke-linecap="round" stroke-linejoin="round"/>
<path d="M94.9521 264.965C110.541 267.734 126.976 268.648 143.858 266.951C151.641 266.169 159.284 264.607 165.846 263.11C195.285 256.404 230.06 238.258 260.825 185.121" stroke="#4A5C76" stroke-width="1.5" stroke-linecap="round" stroke-linejoin="round"/>
<path d="M255.197 174.781C253.789 177.411 252.409 179.949 251.703 181.175C222.961 231.72 190.308 251.34 162.022 259.539C155.701 261.372 148.583 263.128 141.366 264.227C125.379 266.657 109.808 266.576 94.957 264.969" stroke="#4A5C76" stroke-width="1.5" stroke-linecap="round" stroke-linejoin="round"/>
<path d="M94.9521 264.965C109.066 265.418 123.763 264.68 138.863 261.499C145.519 260.092 152.117 258.137 158.189 255.965C185.131 246.331 215.032 225.987 241.581 178.94C242.332 177.646 246.241 170.288 246.979 168.872C247.965 166.94 248.825 165.22 249.807 163.211" stroke="#4A5C76" stroke-width="1.5" stroke-linecap="round" stroke-linejoin="round"/>
<path d="M94.9521 264.965C108.333 264.255 122.166 262.734 136.356 258.766C142.451 257.064 148.533 254.91 154.352 252.395C179.973 241.335 207.095 220.258 231.458 176.7C231.834 176.058 236.164 167.867 236.535 167.166C239.187 161.953 241.802 156.446 244.373 150.632" stroke="#4A5C76" stroke-width="1.5" stroke-linecap="round" stroke-linejoin="round"/>
<path d="M94.9521 264.965C98.355 264.458 101.794 263.911 105.26 263.277H105.274C115.975 261.327 126.93 258.625 137.971 254.322C166.411 243.231 195.326 221.489 221.349 174.474L226.105 165.455C230.458 156.844 234.73 147.432 238.861 137.138" stroke="#4A5C76" stroke-width="1.5" stroke-linecap="round" stroke-linejoin="round"/>
<path d="M238.852 137.111C238.852 137.111 238.848 137.129 238.839 137.133" stroke="#4A5C76" stroke-width="1.5" stroke-linecap="round" stroke-linejoin="round"/>
<path d="M272.776 70.385C305.705 21.5738 341.738 6.62764 371.363 4.01218C378.363 2.97143 387.096 1.98497 395.997 1.85375C414.672 1.58225 432.736 4.14793 449.795 9.23857" stroke="#4A5C76" stroke-width="1.5" stroke-linecap="round" stroke-linejoin="round"/>
<path d="M278.519 79.3038C310.37 28.6191 345.778 12.6051 375.186 7.58234C381.983 6.41489 390.155 5.03928 398.499 4.58678C416.273 3.60486 433.464 5.30626 449.79 9.23849" stroke="#4A5C76" stroke-width="1.5" stroke-linecap="round" stroke-linejoin="round"/>
<path d="M284.17 88.9194C314.917 35.9134 349.611 17.8541 379.019 11.1571C385.58 9.65931 393.223 8.09818 401.001 7.31535C417.889 5.61847 434.21 6.46918 449.794 9.23848" stroke="#4A5C76" stroke-width="1.5" stroke-linecap="round" stroke-linejoin="round"/>
<path d="M289.84 98.9107C291.234 96.2998 292.46 94.3042 293.166 93.0915C321.909 42.5471 354.561 22.9267 382.847 14.7274C389.164 12.8947 396.286 11.139 403.504 10.0395C419.49 7.60954 434.943 7.62764 449.794 9.23854" stroke="#4A5C76" stroke-width="1.5" stroke-linecap="round" stroke-linejoin="round"/>
<path d="M295.18 110.721C296.148 108.73 296.917 107.3 297.89 105.386C298.623 103.974 302.533 96.6165 303.279 95.3178C329.832 48.2668 359.729 27.9269 386.675 18.2931C392.743 16.1211 399.345 14.1663 406.002 12.759C421.093 9.57794 435.677 8.78154 449.795 9.22951" stroke="#4A5C76" stroke-width="1.5" stroke-linecap="round" stroke-linejoin="round"/>
<path d="M300.709 123.083C303.275 117.278 305.682 112.305 308.329 107.096C308.691 106.395 313.031 98.2001 313.406 97.5621C337.769 54.0043 364.883 32.9268 390.508 21.8677C396.332 19.3518 402.413 17.1979 408.513 15.4965C422.703 11.5326 436.423 9.94431 449.799 9.23389" stroke="#4A5C76" stroke-width="1.5" stroke-linecap="round" stroke-linejoin="round"/>
<path d="M306.221 136.595C310.352 126.305 314.406 117.413 318.764 108.811L323.52 99.7929C354.068 44.5968 388.531 24.1936 421.577 14.9942H421.581C424.536 14.1616 427.473 13.4331 430.401 12.7679C433.582 12.053 436.754 11.4149 439.899 10.8493C443.224 10.243 446.523 9.71354 449.79 9.23389" stroke="#4A5C76" stroke-width="1.5" stroke-linecap="round" stroke-linejoin="round"/>
<path d="M419.762 242.584C382.53 258.499 340.276 208.792 318.75 165.152C310.248 148.989 303.193 128.522 295.184 111.391C273.486 59.163 229.304 9.4331 179.602 3.59131" stroke="#4A5C76" stroke-width="1.5" stroke-miterlimit="10" stroke-linecap="round"/>
<path d="M400.707 250.983C365.914 249.784 342.479 218.737 319.284 184.212C307.645 166.012 297.971 141.731 288.726 122.119C270.853 84.2224 235.78 24.2538 196.254 14.1223" stroke="#4A5C76" stroke-width="1.5" stroke-miterlimit="10" stroke-linecap="round"/>
<path d="M388.43 254.634C356.936 250.449 339.198 227.073 315.057 194.244C300.188 173.08 289.894 147.767 277.984 124.301C259.323 84.9013 221.372 26.5875 184.203 14.7319" stroke="#4A5C76" stroke-width="1.5" stroke-miterlimit="10" stroke-linecap="round"/>
<path d="M375.607 257.77C351.945 257.037 324.04 223.529 304.903 196.085C292.971 179.411 280.934 153.708 271.816 135.74C262.061 116.504 252.182 95.2272 240.051 78.0277C220.906 50.579 190.013 17.5102 169.655 16.5645" stroke="#4A5C76" stroke-width="1.5" stroke-miterlimit="10" stroke-linecap="round"/>
<path d="M361.023 259.657C320.447 247.756 285.659 189.243 266.97 149.817C255.155 126.577 244.716 100.915 229.892 79.8785C205.665 46.968 188.276 23.895 156.664 19.6279" stroke="#4A5C76" stroke-width="1.5" stroke-miterlimit="10" stroke-linecap="round"/>
<path d="M351.145 260.589C308.289 250.046 274.075 189.863 256.228 151.998C246.463 131.337 237.667 108.789 225.671 89.9103C202.313 55.2351 179.434 24.7728 144.42 23.4243" stroke="#4A5C76" stroke-width="1.5" stroke-miterlimit="10" stroke-linecap="round"/>
<path d="M362.254 268.906C319.166 266.454 271.572 215.054 249.775 162.727C241.73 145.645 234.725 125.102 226.209 108.97C204.684 65.3397 162.425 15.6189 125.197 31.5379" stroke="#4A5C76" stroke-width="1.5" stroke-miterlimit="10" stroke-linecap="round"/>
<path d="M381.322 33.1802C404.101 22.827 429.744 34.5649 446.342 51.14C459.252 64.0318 467.881 80.7969 472.818 98.3585C484.755 140.839 475.632 191.61 444.373 223.864C431.916 236.72 416.232 245.937 399.25 251.462C386.897 255.48 374.231 258.843 361.213 259.589C350.593 260.2 338.809 260.517 328.42 258.019" stroke="#4A5C76" stroke-width="1.5" stroke-miterlimit="10" stroke-linecap="round"/>
<path d="M330.248 258.929C345.592 262.35 359.176 262.96 374.48 261.182C389.539 259.435 404.648 255.535 417.468 250.087C435.631 242.367 452.514 229.407 464.437 213.574C465.347 212.366 466.234 211.14 467.089 209.891C472.406 202.135 476.496 194.045 479.614 186.099C488.696 162.74 489.252 141.242 489.153 136.5C489.022 129.948 488.207 96.1052 468.745 65.7831C459.012 50.6152 444.821 37.8819 428.839 29.5785C419.508 24.7322 405.938 21.7095 395.367 25.0489" stroke="#4A5C76" stroke-width="1.5" stroke-miterlimit="10" stroke-linecap="round"/>
<path d="M408.716 19.2343C429.708 17.3836 465.175 43.2486 478.695 64.0093C497.483 92.8608 499.687 125.64 499.958 136.464C500.148 144.075 498.705 165.361 489.908 187.51C486.628 195.782 482.297 204.054 476.777 211.9C463.147 231.127 442.002 248.069 414.25 256.549C398.621 261.417 382.589 264.019 366.145 264.264C353.936 264.381 339.687 261.942 328.429 258.015" stroke="#4A5C76" stroke-width="1.5" stroke-miterlimit="10" stroke-linecap="round"/>
<path d="M328.429 258.015C345.606 265.549 367.33 269.001 386.584 268.3C386.589 268.305 386.598 268.3 386.598 268.3C401.155 267.721 415.304 265.621 429.246 261.63C457.043 253.684 480.827 237.132 496.537 215.986C502.456 207.963 507.244 199.307 510.895 190.406C519 170.646 522.348 149.817 521.959 136.459C521.434 117.092 516.285 86.5303 498.985 60.5251C483.447 37.176 458.912 21.2751 429.495 12.8857" stroke="#4A5C76" stroke-width="1.5" stroke-miterlimit="10" stroke-linecap="round"/>
<path d="M438.957 10.8992C468.442 19.0578 492.538 34.1804 509.131 58.7828C525.634 83.3989 532.294 112.816 532.96 136.459C533.435 152.677 529.113 173.266 521.389 191.85C517.529 201.067 512.547 209.914 506.425 218.027C491.343 238.023 468.872 253.643 445.247 261.535C418.481 270.472 389.684 273.096 361.792 268.635C350.339 266.802 339.063 262.68 328.434 258.019" stroke="#4A5C76" stroke-width="1.5" stroke-miterlimit="10" stroke-linecap="round"/>
<path d="M328.429 258.024C337.909 262.861 349.479 267.879 359.878 269.852C370.421 271.852 380.561 273.056 391.281 273.182C421.083 273.535 449.984 268.327 476.292 253.861C491.682 245.394 505.547 234.005 516.298 220.072C522.624 211.869 527.837 202.828 531.878 193.298C539.258 175.908 544.512 155.546 543.96 136.459C543.14 108.54 535.041 80.2314 519.271 57.0362C501.669 31.1486 478.329 16.8405 448.771 8.91724" stroke="#4A5C76" stroke-width="1.5" stroke-miterlimit="10" stroke-linecap="round"/>
<path d="M328.429 258.014C342.316 263.521 359.819 266.49 375.163 266.25C380.901 266.164 386.62 265.766 392.191 265.105C392.195 265.11 392.204 265.11 392.209 265.105C398.413 264.381 404.467 263.358 410.467 262.042C414.132 261.309 418.142 260.119 421.748 259.087C449.523 250.879 471.985 234.127 486.655 213.941C492.379 206.009 496.94 197.547 500.402 188.954C508.859 168.007 511.239 146.939 510.963 136.459C510.556 121.359 506.895 89.6841 488.84 62.2625C474.324 40.2076 450.672 23.8361 421.327 15.2114" stroke="#4A5C76" stroke-width="1.5" stroke-miterlimit="10" stroke-linecap="round"/>
</svg>
