<svg width="27" height="26" viewBox="0 0 27 26" fill="none" xmlns="http://www.w3.org/2000/svg">
<ellipse cx="13.7547" cy="12.951" rx="12.951" ry="12.951" fill="#4A5C76"/>
<g clip-path="url(#clip0_1774_761)">
<path d="M8.30184 11.0109H10.6063V18.4114H8.30184V11.0109ZM9.45238 7.32764C10.1876 7.32764 10.7851 7.9252 10.7851 8.6604C10.7851 9.39561 10.1876 9.99462 9.45287 9.99462C9.0992 9.99386 8.76023 9.85306 8.51011 9.60302C8.25998 9.35299 8.11906 9.01407 8.11816 8.6604C8.11816 8.48526 8.15268 8.31183 8.21975 8.15004C8.28682 7.98825 8.38512 7.84126 8.50904 7.71748C8.63295 7.5937 8.78004 7.49556 8.94191 7.42867C9.10377 7.36178 9.27724 7.32745 9.45238 7.32764ZM12.0452 11.0109H14.2513V12.0224H14.2818C14.5891 11.4408 15.3393 10.8272 16.4627 10.8272C18.7919 10.8272 19.2218 12.3602 19.2218 14.3525V18.4119H16.9231V14.812C16.9231 13.9542 16.9076 12.8492 15.728 12.8492C14.5309 12.8492 14.3468 13.7845 14.3468 14.749V18.41H12.0486V11.0095L12.0452 11.0109Z" fill="white"/>
</g>
<defs>
<clipPath id="clip0_1774_761">
<rect width="11.4274" height="11.4274" fill="white" transform="translate(8.04102 7.23682)"/>
</clipPath>
</defs>
</svg>
