<svg width="228" height="37" viewBox="0 0 228 37" fill="none" xmlns="http://www.w3.org/2000/svg">
<path d="M18.5989 22.2063V24.4907C20.1817 24.4907 20.363 24.57 20.871 24.7286C21.3765 24.8872 21.6318 25.2684 21.6318 25.8721V32.7279C21.0931 33.1398 20.4344 33.4416 19.6609 33.6335C19.0023 33.7946 18.2313 33.8842 17.3582 33.9072C17.1999 33.9123 17.0442 33.9174 16.8808 33.9174C14.2206 33.9174 12.0583 32.687 10.3938 30.2286C8.73188 27.7702 7.89962 24.5854 7.89962 20.6817C7.89962 16.7779 8.73188 13.524 10.3938 11.1117C12.0558 8.69937 14.2181 7.49449 16.8808 7.49449C16.9931 7.49449 17.1054 7.50472 17.2178 7.50984C18.9869 7.58914 20.6259 8.29263 22.1321 9.63565C23.7328 11.0631 25.2288 13.2554 26.6227 16.2075H28.7136L28.1902 4.96961H26.0994L24.7846 6.791L24.4834 7.20798C23.3729 6.28705 22.1551 5.60659 20.825 5.16147C19.5945 4.75217 18.2492 4.53729 16.8016 4.50659C14.8206 4.56799 12.8727 4.99008 10.9606 5.78054C8.88505 6.63752 7.05716 7.84495 5.4718 9.4003C3.8558 10.9556 2.62019 12.7489 1.76496 14.78C0.909736 16.8112 0.483398 18.9703 0.483398 21.2547C0.483398 23.5391 0.894418 25.5958 1.71901 27.517C2.54105 29.4381 3.73071 31.1112 5.28288 32.5412C6.77123 33.9379 8.51488 35.0097 10.5087 35.7542C12.3723 36.45 14.3483 36.8183 16.434 36.8644C18.5912 36.8183 20.8455 36.4116 23.1993 35.6365C25.7011 34.8102 27.141 33.7639 28.6293 32.4925V25.8747C28.6293 25.2735 28.8821 24.8923 29.3901 24.7312C29.8956 24.5726 29.6454 24.4933 31.2307 24.4933V22.2089H18.6015L18.5989 22.2063Z" fill="#181C4B"/>
<path d="M106.04 32.0094C105.881 31.7408 105.802 31.3673 105.802 30.8915V0.416504H104.378L96.8339 2.93882V4.36626L98.4014 5.22323C98.8124 5.44579 99.0983 5.69137 99.2566 5.96253C99.4149 6.23114 99.494 6.60462 99.494 7.08044V14.8904C98.7639 14.1613 97.9878 13.6293 97.1658 13.2941C96.3412 12.9616 95.4374 12.7953 94.4571 12.7953C92.8717 12.7953 91.3528 13.1355 89.895 13.8186C88.4373 14.5016 87.1711 15.4609 86.0938 16.699C85.0471 17.8425 84.2557 19.1753 83.717 20.6974C83.1783 22.222 82.9077 23.8234 82.9077 25.5067C82.9077 28.648 83.7936 31.2829 85.5679 33.4113C87.3421 35.5397 89.5274 36.6013 92.1263 36.6013C93.6147 36.6013 95.0392 36.1894 96.4024 35.3631C97.7631 34.5369 98.7945 33.5392 99.4915 32.3625V36.6013H100.916L108.457 35.0306V33.6031L106.89 32.7462C106.479 32.5236 106.193 32.278 106.035 32.0069L106.04 32.0094ZM99.4889 30.2699C99.4889 30.2699 98.8737 30.9734 97.9112 31.6257C96.2314 32.7666 93.4921 33.7515 91.123 30.559C89.313 28.1211 88.7871 24.4297 89.5453 21.5927C90.255 18.9374 92.2182 15.7474 95.4502 15.7474C96.3361 15.7474 97.1198 15.9546 97.8014 16.3665C98.4831 16.7783 99.0447 17.3667 99.4889 18.129V30.2699Z" fill="#181C4B"/>
<path d="M145.591 15.581V12.9717H136.516V15.5835L136.771 15.5886C138.915 15.6321 139.497 15.6884 139.497 16.0031C139.497 16.1719 139.426 16.3842 139.352 16.6093C139.321 16.7014 139.291 16.7961 139.268 16.8779L135.313 28.254L129.875 12.9717H126.569L121.341 28.1798L117.813 16.9163C117.655 16.507 117.586 16.2231 117.586 16.0031C117.586 15.6884 118.165 15.6321 120.312 15.5886L120.567 15.5835V12.9717H107.923V15.581L108.178 15.5861C110.139 15.6347 110.251 15.6782 110.578 16.5172L117.874 36.4911H121.374L126.664 21.2882L132.084 36.3197L132.145 36.4911H135.642L142.936 16.5224C143.255 15.7038 143.281 15.6347 145.338 15.5861L145.594 15.581H145.591Z" fill="#181C4B"/>
<path d="M167.852 31.9402C167.16 32.6155 166.54 32.9174 165.838 32.9174C165.136 32.9174 164.73 32.3648 164.73 31.403V19.3005C164.73 14.9082 161.807 12.4907 156.502 12.4907C150.531 12.4907 145.489 15.4351 145.489 18.9167C145.489 21.1295 147.168 22.1374 148.731 22.1374C150.612 22.1374 151.924 20.9095 151.924 19.1547C151.924 18.6891 151.812 18.3181 151.713 17.9907C151.644 17.7579 151.582 17.5584 151.582 17.3844C151.582 16.5223 152.746 15.6321 154.694 15.6321C157.018 15.6321 158.148 16.8472 158.148 19.3465V21.7333C150.107 23.8795 144.756 26.3277 144.756 31.2572C144.756 34.4779 147.255 36.7265 150.834 36.7265C153.505 36.7265 156.241 35.4934 158.554 33.25C159.499 35.4934 161.281 36.7265 163.589 36.7265C165.672 36.7265 167.722 35.693 169.358 33.8153L169.491 33.6618L168.069 31.7228L167.852 31.9351V31.9402ZM158.146 24.5139V30.9988C156.706 32.1935 155.473 32.7255 154.156 32.7255C152.417 32.7255 151.337 31.6128 151.337 29.8246C151.337 28.0365 152.167 26.1025 158.146 24.5139Z" fill="#181C4B"/>
<path d="M183.678 31.0197C182.452 32.1837 181.406 32.6799 180.172 32.6799C178.26 32.6799 177.209 31.5978 177.209 29.6358V16.1135H184.298V12.9721H177.209V5.27979L170.579 7.20094V12.9721H167.449V16.1135H170.579V30.6871C170.579 34.3018 173.415 36.732 177.632 36.732C180.729 36.732 183.325 35.5885 185.574 33.2376L185.654 33.1557L183.782 30.9225L183.68 31.0197H183.678Z" fill="#181C4B"/>
<path d="M204.262 29.1979C202.442 31.6997 200.844 32.6309 198.365 32.6309C194.385 32.6309 191.766 29.5867 191.503 24.6751H206.741V23.1274C206.741 20.114 205.889 17.5226 204.273 15.6372C202.509 13.5779 199.91 12.4907 196.754 12.4907C190.112 12.4907 184.909 17.983 184.909 24.9923C184.909 32.6974 190.819 36.729 196.655 36.729C201.061 36.729 204.821 34.5495 206.711 30.8965L206.81 30.7021L204.413 28.9856L204.26 29.1953L204.262 29.1979ZM191.62 21.7716C192.095 17.9856 193.936 15.7293 196.558 15.7293C199.18 15.7293 200.349 17.763 200.4 21.7716H191.62Z" fill="#181C4B"/>
<path d="M223.697 12.4934C222.383 12.4934 220.95 13.2557 219.436 14.7573C218.323 15.8625 217.379 17.1594 216.725 18.1597V12.4908H215.339L207.062 14.852V16.4943L209.107 17.469C209.894 17.8783 210.093 18.0957 210.093 18.9655V32.9329C210.093 33.5136 210.093 33.6338 207.568 33.6338H207.308V36.2508H220.978V33.6338H220.718C216.85 33.6338 216.728 33.5161 216.728 32.8843V21.5748C217.81 19.9401 219.656 18.1648 220.767 18.1187C221.213 18.1187 221.543 18.4001 221.959 18.7557C222.531 19.2418 223.179 19.7943 224.336 19.7943C225.977 19.7943 227.675 18.4999 227.675 16.3332C227.675 14.0334 226.077 12.4883 223.7 12.4883" fill="#181C4B"/>
<path d="M68.4142 12.6753C62.8514 12.6753 60.2908 15.1106 58.2765 17.5843C59.1777 18.5692 60.758 21.7669 61.0439 22.5088C62.0166 20.7334 64.0359 17.8248 66.1727 16.2771C67.4824 15.3306 69.249 15.323 70.5484 16.2874C73.0324 18.1292 75.0645 21.8283 74.0612 26.9139C73.3745 30.398 71.8683 32.3166 70.3314 33.3348C69.0243 34.1994 67.3088 34.1406 66.0655 33.1864C64.4061 31.9099 61.7945 29.3466 59.8568 24.0564C55.7364 12.816 48.3151 12.6753 46.2115 12.6753C36.7376 12.6753 33.1609 18.8557 33.2375 25.3457C33.309 31.2908 37.8251 36.8982 45.9613 36.8982C51.6951 36.8982 54.0617 33.7645 55.6496 31.892C54.0515 29.6715 53.2192 27.822 52.8976 27.0187C51.8636 28.9092 49.9566 31.649 47.9806 33.1659C46.7297 34.1252 44.9988 34.1789 43.6917 33.299C41.8077 32.0276 40.3117 29.8455 39.8292 26.7987C38.9561 21.286 41.366 17.8376 43.6892 16.2132C45.0652 15.2513 46.9161 15.3281 48.1951 16.4178C49.7728 17.7634 51.8866 20.1809 53.3622 23.8032C55.3815 28.7634 59.1445 36.9008 67.7606 36.8471C74.7224 36.8036 80.7422 32.7541 80.7422 24.719C80.7422 16.6839 73.5379 12.6753 68.4167 12.6753H68.4142Z" fill="#181C4B"/>
</svg>
