<svg width="126" height="594" viewBox="0 0 126 594" fill="none" xmlns="http://www.w3.org/2000/svg">
<g opacity="0.7">
<mask id="mask0_1756_6183" style="mask-type:alpha" maskUnits="userSpaceOnUse" x="0" y="0" width="157" height="594">
<rect width="157" height="594" fill="#B9E9F9"/>
</mask>
<g mask="url(#mask0_1756_6183)">
<g style="mix-blend-mode:multiply" opacity="0.2">
<path d="M41.9674 -112.652C31.0942 -74.1468 25.4596 -33.0931 26.0403 9.06073C26.3174 29.1698 28.4287 48.889 30.6455 64.6949C36.2537 131.623 69.5462 213.828 174.135 288.22" stroke="url(#paint0_linear_1756_6183)" stroke-width="2" stroke-linecap="round" stroke-linejoin="round"/>
<path d="M41.9681 -112.652C33.5756 -75.804 29.7885 -36.7139 31.8866 3.42072C32.8631 22.2625 35.8057 40.7144 38.2997 56.0469C49.0541 122.515 84.6163 203.286 193.229 275.228" stroke="url(#paint1_linear_1756_6183)" stroke-width="2" stroke-linecap="round" stroke-linejoin="round"/>
<path d="M41.9682 -112.652C36.0434 -77.4612 34.0905 -40.3486 37.7193 -2.23322C39.3951 15.3413 42.7336 32.5956 45.9401 47.4128C60.2837 113.881 100.253 193.092 213.934 262.555" stroke="url(#paint2_linear_1756_6183)" stroke-width="2" stroke-linecap="round" stroke-linejoin="round"/>
<path d="M236.062 249.785C230.428 246.61 223.857 242.85 221.231 241.248C113.092 176.353 71.1172 102.629 53.5802 38.7648C49.6611 24.4907 45.9003 8.42016 43.5515 -7.87321C38.3524 -43.9693 38.524 -79.1184 41.9681 -112.652" stroke="url(#paint3_linear_1756_6183)" stroke-width="2" stroke-linecap="round" stroke-linejoin="round"/>
<path d="M41.9675 -112.652C41.0043 -80.7895 42.5745 -47.604 49.3835 -13.5132C52.3921 1.51288 56.5751 16.4137 61.2199 30.1168C81.8315 90.9454 125.351 158.458 226.007 218.396C228.778 220.095 244.52 228.924 247.542 230.581C251.672 232.809 255.882 235.023 260.184 237.238" stroke="url(#paint4_linear_1756_6183)" stroke-width="2" stroke-linecap="round" stroke-linejoin="round"/>
<path d="M41.9689 -112.652C43.4864 -82.4467 46.7457 -51.2108 55.2305 -19.1672C58.8725 -5.40833 63.4778 8.32265 68.8616 21.4688C92.5213 79.3172 137.611 140.55 230.798 195.557C232.171 196.407 249.694 206.183 251.199 207.018C262.349 213.006 274.133 218.911 286.576 224.718" stroke="url(#paint5_linear_1756_6183)" stroke-width="2" stroke-linecap="round" stroke-linejoin="round"/>
<path d="M41.968 -112.652C43.05 -104.965 44.2244 -97.2082 45.5836 -89.3818L45.5836 -89.354C49.7534 -65.1925 55.5331 -40.46 64.7436 -15.5325C88.4693 48.6801 134.984 113.965 235.574 172.719L254.866 183.455C273.287 193.287 293.424 202.924 315.447 212.254" stroke="url(#paint6_linear_1756_6183)" stroke-width="2" stroke-linecap="round" stroke-linejoin="round"/>
<path d="M43.8153 450.835C44.3167 449.373 44.8182 447.91 45.346 446.462C45.8606 445 46.3884 443.552 46.9426 442.117C47.4837 440.669 48.0379 439.249 48.6053 437.814C49.1727 436.394 49.7533 434.959 50.3471 433.553C50.9277 432.132 51.5347 430.726 52.1549 429.333C52.7619 427.927 53.3953 426.534 54.0287 425.142L54.0287 425.128C54.6621 423.735 55.3219 422.356 55.9817 420.978C77.0419 377.32 113.515 331.503 174.135 288.222C180.113 283.96 186.328 279.713 192.781 275.507C192.926 275.41 193.071 275.326 193.229 275.229C199.761 271.148 206.689 266.901 213.933 262.556C218.486 259.813 223.17 257.041 227.96 254.242C230.626 252.752 233.318 251.262 236.049 249.786C243.835 245.552 251.858 241.375 260.184 237.239C268.669 233.005 277.457 228.841 286.575 224.719" stroke="url(#paint7_linear_1756_6183)" stroke-width="2" stroke-linecap="round" stroke-linejoin="round"/>
<path d="M52.3398 479.439L52.3398 479.412C57.4597 460.876 64.3742 443.134 73.7695 426.507C91.6232 395.619 116.893 364.578 151.954 334.846C156.585 330.585 164.872 324.625 169.992 320.405C177.923 314.375 186.315 308.387 195.196 302.454C197.954 300.602 200.751 298.764 203.601 296.94C207.573 294.405 211.571 291.829 215.688 289.336L216.441 288.877C223.25 284.782 230.362 280.591 237.738 276.343C242.383 273.669 247.134 270.982 251.963 268.28C255.011 266.581 258.086 264.882 261.187 263.211C269.395 258.741 277.8 254.354 286.417 250.009" stroke="url(#paint8_linear_1756_6183)" stroke-width="2" stroke-linecap="round" stroke-linejoin="round"/>
<path d="M56.2587 503.614C56.2587 503.614 72.8192 457.63 91.5438 432.048C112.947 402.804 139.022 372.821 174.175 345.554C177.883 342.156 188.624 335.347 192.728 331.963C200.46 326.573 208.589 321.212 217.14 315.906C220.386 313.887 223.698 311.881 227.063 309.876C231.088 307.495 235.125 305.072 239.256 302.732C239.533 302.565 239.823 302.412 240.113 302.245C247.49 298.067 255.09 293.805 262.863 289.502C267.178 287.121 271.545 284.712 275.953 282.303C279.845 280.172 283.764 278.055 287.71 275.966" stroke="url(#paint9_linear_1756_6183)" stroke-width="2" stroke-linecap="round" stroke-linejoin="round"/>
<path d="M315.514 288.054C315.514 288.054 315.474 288.082 315.448 288.082C310.288 290.826 305.116 293.583 299.943 296.34C296.38 298.248 292.83 300.142 289.294 302.022C280.77 306.576 272.311 311.074 263.998 315.489C263.932 315.53 263.853 315.558 263.787 315.6C259.327 317.967 254.933 320.404 250.525 322.814C246.962 324.763 243.466 326.713 240.035 328.69C231.458 333.578 223.276 338.536 215.451 343.522C212.377 346.056 199.181 353.729 196.397 356.278C161.151 381.066 132.266 408.403 109.332 437.577C87.005 467.017 69.7452 492.139 59.1623 528.584L59.1623 528.598" stroke="url(#paint10_linear_1756_6183)" stroke-width="2" stroke-linecap="round" stroke-linejoin="round"/>
<path d="M368.177 286.703C359.995 291.215 351.709 295.699 343.277 300.183C336.903 303.581 330.464 306.965 323.945 310.363C321.636 311.575 319.327 312.772 317.004 313.97C308.044 318.594 299.045 323.175 290.019 327.687C289.161 328.119 288.317 328.537 287.459 328.968C282.973 331.197 278.486 333.494 273.973 335.75C270.582 337.449 267.243 339.162 263.971 340.875C254.998 345.568 246.408 350.303 238.187 355.093C236.141 356.778 220.478 365.287 218.631 367C183.28 389.31 152.6 414.794 127.119 443.119C99.4215 474.843 77.8862 505.146 63.8197 546.436" stroke="url(#paint11_linear_1756_6183)" stroke-width="2" stroke-linecap="round" stroke-linejoin="round"/>
<path d="M415.392 286.871C408.253 291.257 400.916 295.602 393.381 299.905C385.741 304.292 377.89 308.637 369.827 312.968C362.701 316.784 355.404 320.599 347.936 324.401C346.801 324.972 345.666 325.557 344.531 326.128C335.664 330.598 326.611 335.027 317.375 339.399C315.303 340.374 313.218 341.349 311.133 342.324C306.607 344.441 302.054 346.571 297.436 348.674C294.612 349.969 291.815 351.264 289.057 352.573C279.266 357.211 269.897 361.904 260.91 366.652C259.894 367.502 241.777 376.86 240.853 377.724C205.396 397.54 172.922 421.186 144.908 448.648C112.196 481.305 84.7884 515.242 66.9612 560.167" stroke="url(#paint12_linear_1756_6183)" stroke-width="2" stroke-linecap="round" stroke-linejoin="round"/>
<path d="M71.4737 574.874L71.4737 574.86C110.836 487.906 183.834 427.119 263.074 388.433L283.646 378.211C293.78 373.379 304.376 368.602 315.448 363.895C315.461 363.895 315.487 363.895 315.5 363.882C317.295 363.116 319.09 362.364 320.897 361.612C328.96 358.255 336.798 354.871 344.412 351.432C353.53 347.324 362.345 343.174 370.856 338.954C379.196 334.832 387.258 330.668 395.03 326.435C402.737 322.271 410.179 318.051 417.344 313.79C424.457 309.584 431.318 305.323 437.916 301.034C444.527 296.731 450.887 292.414 456.997 288.069" stroke="url(#paint13_linear_1756_6183)" stroke-width="2" stroke-linecap="round" stroke-linejoin="round"/>
<path d="M71.3008 0.176848C126.366 -181 307.146 -177.88 314.839 -177.644C322.915 -177.88 503.352 -180.763 558.774 -0.93721L559.341 0.901016L563.062 12.9052L563.511 14.3535C564.646 18.2667 565.78 22.3888 566.889 26.678C568.314 32.1648 569.7 37.9301 570.993 43.9183L570.993 43.9322C572.589 51.2851 574.054 58.9722 575.281 66.8683C576.957 77.6887 578.211 88.927 578.765 100.263L578.765 100.277C579.438 113.952 579.095 127.794 577.3 141.247C577.3 141.247 577.3 141.289 577.3 141.302C576.68 145.926 575.888 150.508 574.912 155.02L574.938 155.02" stroke="#181C4B" stroke-width="2" stroke-miterlimit="10" stroke-linecap="round"/>
<path d="M577.288 141.316C577.288 141.316 577.288 141.274 577.288 141.26C580.469 125.134 581.669 108.339 581.485 91.642L581.485 91.6281C581.326 79.0808 580.403 66.5892 578.911 54.4737L578.911 54.4597C577.922 46.2991 576.681 38.3056 575.269 30.5767L575.269 30.5628C574.161 24.4632 572.934 18.5308 571.641 12.8211C570.559 8.01668 569.424 3.3654 568.263 -1.0909L568.263 -1.10482C568.17 -1.42512 568.091 -1.7315 568.012 -2.0518C567.88 -2.70632 566.178 -8.37419 564.871 -12.7609C564.093 -15.365 563.446 -17.5096 563.354 -17.8995C544.616 -80.636 510.505 -124.113 471.341 -152.605C454.714 -164.637 437.362 -173.898 420.326 -180.945C370.236 -201.499 324.144 -202.753 313.97 -202.53C299.916 -202.237 227.354 -200.385 162.339 -156.351C120.68 -127.942 84.2735 -81.5412 64.7308 -15.5321L64.6912 -15.4068" stroke="#181C4B" stroke-width="2" stroke-miterlimit="10" stroke-linecap="round"/>
<path d="M59.8227 -31.0038C78.8508 -97.2495 114.941 -148.72 159.463 -179.315C221.324 -221.831 291.617 -226.817 314.828 -227.429C331.151 -227.861 376.795 -224.588 424.286 -204.688C442.021 -197.266 459.756 -187.462 476.58 -174.97C517.803 -144.124 551.492 -97.6673 569.675 -34.8751C569.847 -34.1928 570.348 -32.4242 570.968 -30.2517C572.024 -26.5753 573.396 -21.7987 573.99 -19.5148L573.99 -19.5009C574.109 -19.0553 574.188 -18.7071 574.241 -18.4704C575.204 -14.4876 576.141 -10.4073 577.038 -6.22947L577.038 -6.20161C578.252 -0.491968 579.387 5.38478 580.416 11.4008C581.762 19.2411 582.91 27.3042 583.834 35.5206C585.246 48.0818 586.104 60.9911 586.223 73.9701C586.473 101.599 583.333 129.535 574.914 155.019" stroke="#181C4B" stroke-width="2" stroke-miterlimit="10" stroke-linecap="round"/>
<path d="M574.912 155.033C586.722 123.602 590.997 88.2999 590.482 53.5825C590.482 53.5685 590.482 53.5407 590.482 53.5268C590.298 40.5478 589.44 27.6384 588.028 15.0493C588.041 15.0354 588.041 15.0215 588.028 15.0076C587.117 6.6659 585.956 -1.53648 584.61 -9.52998C583.66 -15.2396 582.605 -20.8379 581.457 -26.3108C581.457 -26.3108 581.457 -26.3108 581.457 -26.3386C580.863 -29.2213 580.243 -32.0622 579.596 -34.8752C579.438 -35.669 579.121 -36.9363 578.725 -38.4542C577.986 -41.3369 576.944 -45.1108 576.139 -48.0353C575.703 -49.6507 575.321 -51.0154 575.123 -51.837C557.52 -114.685 524.24 -164.122 480.959 -197.322C463.95 -210.273 445.806 -220.592 427.384 -228.432C382.467 -247.566 337.298 -252.956 314.826 -252.329C282.444 -251.41 214.526 -243.124 155.726 -202.265C108.433 -169.414 73.3326 -115.896 54.8324 -49.4836" stroke="#181C4B" stroke-width="2" stroke-miterlimit="10" stroke-linecap="round"/>
<path d="M574.912 155.033C591.064 116.165 596.382 71.3099 594.877 27.7356C594.877 27.7217 594.877 27.7077 594.877 27.7077C594.416 14.1438 593.294 0.705298 591.631 -12.3712L591.631 -12.3851C590.628 -20.2393 589.441 -27.9682 588.082 -35.5161C587.184 -40.5016 586.221 -45.4035 585.179 -50.2219L585.179 -50.2359C585.099 -50.5979 585.034 -50.9461 584.954 -51.2942C584.532 -53.3692 583.714 -56.6975 582.856 -60.0258C582.13 -62.8249 581.392 -65.624 580.864 -67.6711L580.864 -67.6851C580.758 -68.0889 580.666 -68.4649 580.573 -68.7991C563.538 -131.703 530.681 -184.134 485.341 -219.687C468.133 -233.084 449.58 -243.918 430.486 -252.176C388.115 -270.517 343.448 -278.092 314.814 -277.215C273.287 -276.031 207.757 -264.375 151.993 -225.229C101.929 -190.066 67.831 -134.544 49.8454 -67.9775" stroke="#181C4B" stroke-width="2" stroke-miterlimit="10" stroke-linecap="round"/>
<path d="M45.5832 -89.3532L45.5832 -89.3811C63.0806 -156.1 95.5023 -210.634 148.258 -248.179C201.041 -285.528 264.116 -300.596 314.814 -302.1C349.584 -303.172 393.737 -293.396 433.587 -275.919C453.354 -267.188 472.317 -255.908 489.722 -242.051C536.21 -204.855 568.315 -150.85 585.047 -89.381C585.39 -88.1834 585.707 -86.9858 586.023 -85.7742C586.089 -85.4957 586.168 -85.2033 586.248 -84.9108C586.709 -83.0587 587.237 -80.9419 587.778 -78.7556C588.583 -75.5247 589.388 -72.1546 589.995 -69.2998C590.114 -68.7428 590.219 -68.2136 590.325 -67.6983C591.407 -62.49 592.41 -57.1982 593.32 -51.8367C595.419 -39.6654 597.055 -27.132 598.176 -14.4037C603.257 42.8598 597.873 104.12 574.926 155.033" stroke="#181C4B" stroke-width="2" stroke-miterlimit="10" stroke-linecap="round"/>
<path d="M574.925 155.048C585.389 133.379 592.832 109.83 597.674 85.39C602.873 59.1675 605.104 31.9143 604.879 4.82836C604.655 -25.5999 601.33 -55.8192 595.682 -84.0889C594.587 -89.5339 593.386 -94.965 592.066 -100.368C591.882 -101.106 591.697 -101.831 591.512 -102.569C575.638 -165.639 543.586 -224.1 494.102 -264.388C476.512 -278.704 457.128 -290.499 436.688 -299.649C399.397 -316.36 355.733 -328.253 314.813 -326.999C254.944 -325.147 194.245 -306.821 144.51 -271.128C88.9963 -231.3 58.3165 -177.616 41.3337 -110.729" stroke="#181C4B" stroke-width="2" stroke-miterlimit="10" stroke-linecap="round"/>
<path d="M559.605 575.861C504.54 757.052 323.76 753.918 316.067 753.695C307.991 753.918 127.554 756.801 72.1327 576.975L71.473 574.872L71.473 574.858L68.5831 565.528L67.3955 561.698C67.2504 561.197 67.1052 560.682 66.9601 560.166C66.3531 558.022 65.7329 555.822 65.1259 553.579C63.7535 548.441 62.3812 543.038 61.088 537.398C60.4282 534.515 59.7817 531.576 59.1615 528.596L59.1615 528.582C58.2114 523.987 57.314 519.28 56.4959 514.475C56.4959 514.475 53.0915 491.386 52.3393 479.438L52.3393 479.41C51.1253 459.83 51.9038 439.832 56.0077 421.018L55.9813 421.018L55.9813 421.004" stroke="#181C4B" stroke-width="2" stroke-miterlimit="10" stroke-linecap="round"/>
<path d="M56.0073 421.019C49.779 443.802 48.0768 468.409 49.0665 492.501L49.0665 492.543L49.0665 492.571C49.5943 505.508 50.9006 518.306 52.7084 530.575C53.8564 538.499 55.2288 546.214 56.7199 553.608C57.8151 558.984 58.9631 564.178 60.1639 569.177C60.5466 570.821 60.9425 572.436 61.3384 574.024C61.4175 574.581 62.1697 577.268 63.0406 580.346L63.0406 580.36C63.9115 583.41 64.9012 586.849 65.495 588.952L65.495 588.966C65.7589 589.899 65.9304 590.568 65.9832 590.818C85.3148 657.649 121.972 703.187 163.895 732.167C180.165 743.308 197.003 751.956 213.497 758.459C261.978 777.593 305.998 778.777 316.067 778.568C330.12 778.262 402.696 776.41 467.698 732.376C509.396 703.953 546.37 657.231 565.899 591.139" stroke="#181C4B" stroke-width="2" stroke-miterlimit="10" stroke-linecap="round"/>
<path d="M571.323 608.184C552.308 674.43 515.968 724.772 471.446 755.367C409.571 797.869 339.291 802.869 316.08 803.482C299.836 803.913 255.855 800.655 209.644 781.938C192.345 774.92 174.979 765.673 158.485 753.85C114.002 721.945 78.0972 672.174 59.8344 604.703C59.8344 604.619 59.7949 604.535 59.7817 604.438L59.7817 604.424C59.4782 603.045 58.6468 599.926 57.7759 596.639L57.7759 596.625C55.3347 587.044 53.329 577.241 52.4449 572.478C51.1253 565.431 49.9245 558.12 48.8953 550.642L48.8953 550.614C47.1271 537.816 45.8735 524.503 45.372 510.995C44.2108 480.622 46.8368 449.345 55.9945 421.019" stroke="#181C4B" stroke-width="2" stroke-miterlimit="10" stroke-linecap="round"/>
<path d="M576.76 624.769C576.76 624.769 576.76 624.783 576.747 624.797L576.747 624.811C558.233 691.21 522.46 745.452 475.18 778.317C416.38 819.162 348.462 827.448 316.08 828.367C293.674 829.008 249.746 823.646 205.791 805.375C187.687 797.855 169.82 787.968 153.061 775.49C106.784 741.079 71.9084 688.258 54.4505 621.566C54.1866 620.564 53.9359 619.575 53.6852 618.572C53.5005 617.653 53.1838 616.316 52.8143 614.743C52.2205 612.25 51.4684 609.186 50.7954 606.318L50.7954 606.29C50.0696 603.212 49.4362 600.385 49.2119 598.756C48.9216 597.293 48.6445 595.831 48.3806 594.355C48.3806 594.355 48.3674 594.355 48.3806 594.327C47.2325 588.214 46.2033 581.919 45.2928 575.513C43.5774 563.607 42.2974 551.254 41.5716 538.707C41.5716 538.707 41.5584 538.693 41.5716 538.679C41.5716 538.679 41.5584 538.679 41.5716 538.651C39.2624 499.102 42.5349 457.533 55.9945 421.033" stroke="#181C4B" stroke-width="2" stroke-miterlimit="10" stroke-linecap="round"/>
<path d="M581.682 644.099C581.629 644.308 581.563 644.517 581.51 644.726C563.458 711.027 528.82 766.23 478.914 801.267C423.149 840.427 357.62 852.083 316.093 853.267C287.498 854.144 243.649 846.596 201.925 828.827C183.042 820.778 164.674 810.236 147.651 797.145C100.252 760.715 66.5245 705.916 49.6077 640.868L49.6077 640.854C49.1326 639.058 48.684 637.247 48.2354 635.423C47.9978 634.42 47.7603 633.432 47.5228 632.429C47.2985 631.287 47.0081 629.922 46.6782 628.418C46.0844 625.675 45.3587 622.472 44.7253 619.422C44.0523 616.289 43.4585 613.309 43.1418 611.109C42.8251 609.27 42.5084 607.418 42.2049 605.566L42.2049 605.538C40.7798 596.876 39.579 587.991 38.6289 578.94L38.6289 578.926C33.1528 526.689 36.1877 469.301 55.9812 421.019" stroke="#181C4B" stroke-width="2" stroke-miterlimit="10" stroke-linecap="round"/>
<path d="M55.9809 421.004L55.9809 421.018C28.6395 482.098 26.6074 557.896 37.0847 623.46C37.1903 624.226 37.3222 625.02 37.4542 625.827C38.114 629.908 39.0245 634.573 39.9086 638.946C39.9086 638.959 39.9086 638.959 39.9086 638.973C40.4232 641.578 40.9379 644.07 41.3733 646.285C41.4657 646.73 41.5712 647.162 41.6636 647.607L41.6636 647.635C42.1255 649.71 42.6005 651.785 43.1019 653.846C43.4978 655.517 43.9069 657.175 44.3291 658.832C44.6854 660.266 45.0549 661.701 45.4507 663.135C62.1036 725.649 94.644 780.99 142.227 818.785C159.553 832.475 178.41 843.671 198.071 852.249C237.579 869.504 281.336 879.21 316.093 878.138C366.791 876.634 429.866 861.566 482.648 824.216C534.731 787.132 567.971 731.776 585.614 666.157C585.851 665.307 586.075 664.472 586.3 663.622" stroke="#181C4B" stroke-width="2" stroke-miterlimit="10" stroke-linecap="round"/>
<path d="M55.9813 421.004L55.9813 421.018C55.3215 422.383 54.6749 423.748 54.0284 425.126L54.0284 425.14C53.395 426.533 52.7616 427.926 52.1546 429.332C51.5344 430.725 50.9406 432.131 50.3468 433.552C49.753 434.958 49.1724 436.393 48.605 437.813C48.0376 439.247 47.4833 440.682 46.9423 442.116C46.4013 443.564 45.8603 445.013 45.3457 446.461C44.8178 447.909 44.3164 449.371 43.815 450.834C41.8224 456.697 40.0146 462.657 38.3784 468.687C37.9957 470.107 37.613 471.542 37.2435 472.976C36.7949 474.731 36.3594 476.485 35.9504 478.254C35.6469 479.479 35.3697 480.691 35.0926 481.916C34.8155 483.156 34.5384 484.409 34.2745 485.649C34.103 486.401 33.9446 487.139 33.7995 487.891C33.6015 488.838 33.4036 489.785 33.2321 490.732C33.0473 491.609 32.8758 492.486 32.7174 493.364C32.2688 495.648 31.8597 497.945 31.477 500.257C31.3583 500.911 31.2527 501.566 31.1471 502.234C31.0152 502.973 30.8964 503.711 30.7909 504.463C30.6589 505.242 30.5402 506.036 30.4214 506.83C29.8672 510.479 29.3657 514.141 28.9303 517.818C28.8115 518.765 28.706 519.698 28.5872 520.645C28.4684 521.773 28.3497 522.887 28.2309 524.015C28.0858 525.393 27.9406 526.772 27.8219 528.165C27.7427 528.944 27.6767 529.738 27.6107 530.518C27.5184 531.437 27.4392 532.356 27.3732 533.275C27.3204 533.958 27.2544 534.64 27.2148 535.322C27.0829 536.938 26.9773 538.567 26.8718 540.197C26.7926 541.366 26.7266 542.536 26.6606 543.706C26.5683 545.307 26.4891 546.909 26.4231 548.51C26.344 550.098 26.2912 551.699 26.2384 553.287C26.1856 554.888 26.146 556.49 26.1064 558.091C26.0008 562.938 25.9745 567.784 26.0404 572.63C26.0272 573.145 26.0404 573.647 26.0404 574.148C26.0536 575.485 26.08 576.822 26.1196 578.159C26.1064 578.173 26.1064 578.187 26.1196 578.201C26.1196 578.869 26.146 579.551 26.1724 580.22C26.1724 580.415 26.1724 580.61 26.1856 580.805C26.212 582.128 26.2648 583.437 26.3044 584.746C26.3308 585.275 26.3439 585.79 26.3703 586.319C26.4099 587.406 26.4627 588.506 26.5287 589.592C26.6078 591.43 26.7002 593.268 26.819 595.093C26.9114 596.652 27.0037 598.212 27.1225 599.772C27.2413 601.568 27.3732 603.351 27.5316 605.133C27.6239 606.401 27.7295 607.668 27.8482 608.935C28.1913 612.82 28.5872 616.692 29.0227 620.549C29.4581 624.393 29.9463 628.236 30.4742 632.038C30.7381 633.96 31.0152 635.854 31.2923 637.748C31.8597 641.536 32.4799 645.296 33.1265 649.028C33.7863 652.76 34.4725 656.464 35.2114 660.141C49.1988 730.174 82.4913 796.239 136.791 840.44C154.381 854.756 173.765 866.551 194.205 875.701C231.496 892.398 275.161 904.291 316.08 903.023C375.949 901.185 436.649 882.845 486.383 847.166C541.897 807.338 572.577 753.654 589.56 686.753" stroke="#181C4B" stroke-width="2" stroke-miterlimit="10" stroke-linecap="round"/>
</g>
</g>
</g>
<defs>
<linearGradient id="paint0_linear_1756_6183" x1="100.071" y1="291.021" x2="100.071" y2="-115.436" gradientUnits="userSpaceOnUse">
<stop stop-color="white"/>
<stop offset="0.03" stop-color="#DDDEE5"/>
<stop offset="0.07" stop-color="#B4B6C4"/>
<stop offset="0.12" stop-color="#8F90A7"/>
<stop offset="0.18" stop-color="#6E718D"/>
<stop offset="0.24" stop-color="#535678"/>
<stop offset="0.31" stop-color="#3D4067"/>
<stop offset="0.39" stop-color="#2C305A"/>
<stop offset="0.48" stop-color="#202450"/>
<stop offset="0.62" stop-color="#191D4B"/>
<stop offset="1" stop-color="#181C4A"/>
</linearGradient>
<linearGradient id="paint1_linear_1756_6183" x1="112.278" y1="277.937" x2="112.278" y2="-115.345" gradientUnits="userSpaceOnUse">
<stop stop-color="white"/>
<stop offset="0.03" stop-color="#DDDEE5"/>
<stop offset="0.07" stop-color="#B4B6C4"/>
<stop offset="0.12" stop-color="#8F90A7"/>
<stop offset="0.18" stop-color="#6E718D"/>
<stop offset="0.24" stop-color="#535678"/>
<stop offset="0.31" stop-color="#3D4067"/>
<stop offset="0.39" stop-color="#2C305A"/>
<stop offset="0.48" stop-color="#202450"/>
<stop offset="0.62" stop-color="#191D4B"/>
<stop offset="1" stop-color="#181C4A"/>
</linearGradient>
<linearGradient id="paint2_linear_1756_6183" x1="124.916" y1="265.176" x2="124.916" y2="-115.257" gradientUnits="userSpaceOnUse">
<stop stop-color="white"/>
<stop offset="0.03" stop-color="#DDDEE5"/>
<stop offset="0.07" stop-color="#B4B6C4"/>
<stop offset="0.12" stop-color="#8F90A7"/>
<stop offset="0.18" stop-color="#6E718D"/>
<stop offset="0.24" stop-color="#535678"/>
<stop offset="0.31" stop-color="#3D4067"/>
<stop offset="0.39" stop-color="#2C305A"/>
<stop offset="0.48" stop-color="#202450"/>
<stop offset="0.62" stop-color="#191D4B"/>
<stop offset="1" stop-color="#181C4A"/>
</linearGradient>
<linearGradient id="paint3_linear_1756_6183" x1="137.784" y1="252.317" x2="137.784" y2="-115.169" gradientUnits="userSpaceOnUse">
<stop stop-color="white"/>
<stop offset="0.03" stop-color="#DDDEE5"/>
<stop offset="0.07" stop-color="#B4B6C4"/>
<stop offset="0.12" stop-color="#8F90A7"/>
<stop offset="0.18" stop-color="#6E718D"/>
<stop offset="0.24" stop-color="#535678"/>
<stop offset="0.31" stop-color="#3D4067"/>
<stop offset="0.39" stop-color="#2C305A"/>
<stop offset="0.48" stop-color="#202450"/>
<stop offset="0.62" stop-color="#191D4B"/>
<stop offset="1" stop-color="#181C4A"/>
</linearGradient>
<linearGradient id="paint4_linear_1756_6183" x1="150.952" y1="239.682" x2="150.952" y2="-115.082" gradientUnits="userSpaceOnUse">
<stop stop-color="white"/>
<stop offset="0.03" stop-color="#DDDEE5"/>
<stop offset="0.07" stop-color="#B4B6C4"/>
<stop offset="0.12" stop-color="#8F90A7"/>
<stop offset="0.18" stop-color="#6E718D"/>
<stop offset="0.24" stop-color="#535678"/>
<stop offset="0.31" stop-color="#3D4067"/>
<stop offset="0.39" stop-color="#2C305A"/>
<stop offset="0.48" stop-color="#202450"/>
<stop offset="0.62" stop-color="#191D4B"/>
<stop offset="1" stop-color="#181C4A"/>
</linearGradient>
<linearGradient id="paint5_linear_1756_6183" x1="164.278" y1="227.075" x2="164.278" y2="-114.995" gradientUnits="userSpaceOnUse">
<stop stop-color="white"/>
<stop offset="0.03" stop-color="#DDDEE5"/>
<stop offset="0.07" stop-color="#B4B6C4"/>
<stop offset="0.12" stop-color="#8F90A7"/>
<stop offset="0.18" stop-color="#6E718D"/>
<stop offset="0.24" stop-color="#535678"/>
<stop offset="0.31" stop-color="#3D4067"/>
<stop offset="0.39" stop-color="#2C305A"/>
<stop offset="0.48" stop-color="#202450"/>
<stop offset="0.62" stop-color="#191D4B"/>
<stop offset="1" stop-color="#181C4A"/>
</linearGradient>
<linearGradient id="paint6_linear_1756_6183" x1="178.714" y1="214.524" x2="178.714" y2="-114.908" gradientUnits="userSpaceOnUse">
<stop stop-color="white"/>
<stop offset="0.03" stop-color="#DDDEE5"/>
<stop offset="0.07" stop-color="#B4B6C4"/>
<stop offset="0.12" stop-color="#8F90A7"/>
<stop offset="0.18" stop-color="#6E718D"/>
<stop offset="0.24" stop-color="#535678"/>
<stop offset="0.31" stop-color="#3D4067"/>
<stop offset="0.39" stop-color="#2C305A"/>
<stop offset="0.48" stop-color="#202450"/>
<stop offset="0.62" stop-color="#191D4B"/>
<stop offset="1" stop-color="#181C4A"/>
</linearGradient>
<linearGradient id="paint7_linear_1756_6183" x1="42.3259" y1="337.783" x2="288.074" y2="337.783" gradientUnits="userSpaceOnUse">
<stop stop-color="white"/>
<stop offset="0.03" stop-color="#DDDEE5"/>
<stop offset="0.07" stop-color="#B4B6C4"/>
<stop offset="0.12" stop-color="#8F90A7"/>
<stop offset="0.18" stop-color="#6E718D"/>
<stop offset="0.24" stop-color="#535678"/>
<stop offset="0.31" stop-color="#3D4067"/>
<stop offset="0.39" stop-color="#2C305A"/>
<stop offset="0.48" stop-color="#202450"/>
<stop offset="0.62" stop-color="#191D4B"/>
<stop offset="1" stop-color="#181C4A"/>
</linearGradient>
<linearGradient id="paint8_linear_1756_6183" x1="50.9037" y1="364.73" x2="287.862" y2="364.73" gradientUnits="userSpaceOnUse">
<stop stop-color="white"/>
<stop offset="0.03" stop-color="#DDDEE5"/>
<stop offset="0.07" stop-color="#B4B6C4"/>
<stop offset="0.12" stop-color="#8F90A7"/>
<stop offset="0.18" stop-color="#6E718D"/>
<stop offset="0.24" stop-color="#535678"/>
<stop offset="0.31" stop-color="#3D4067"/>
<stop offset="0.39" stop-color="#2C305A"/>
<stop offset="0.48" stop-color="#202450"/>
<stop offset="0.62" stop-color="#191D4B"/>
<stop offset="1" stop-color="#181C4A"/>
</linearGradient>
<linearGradient id="paint9_linear_1756_6183" x1="54.8387" y1="389.796" x2="289.139" y2="389.796" gradientUnits="userSpaceOnUse">
<stop stop-color="white"/>
<stop offset="0.03" stop-color="#DDDEE5"/>
<stop offset="0.07" stop-color="#B4B6C4"/>
<stop offset="0.12" stop-color="#8F90A7"/>
<stop offset="0.18" stop-color="#6E718D"/>
<stop offset="0.24" stop-color="#535678"/>
<stop offset="0.31" stop-color="#3D4067"/>
<stop offset="0.39" stop-color="#2C305A"/>
<stop offset="0.48" stop-color="#202450"/>
<stop offset="0.62" stop-color="#191D4B"/>
<stop offset="1" stop-color="#181C4A"/>
</linearGradient>
<linearGradient id="paint10_linear_1756_6183" x1="57.5895" y1="408.332" x2="317.096" y2="408.332" gradientUnits="userSpaceOnUse">
<stop stop-color="white"/>
<stop offset="0.03" stop-color="#DDDEE5"/>
<stop offset="0.07" stop-color="#B4B6C4"/>
<stop offset="0.12" stop-color="#8F90A7"/>
<stop offset="0.18" stop-color="#6E718D"/>
<stop offset="0.24" stop-color="#535678"/>
<stop offset="0.31" stop-color="#3D4067"/>
<stop offset="0.39" stop-color="#2C305A"/>
<stop offset="0.48" stop-color="#202450"/>
<stop offset="0.62" stop-color="#191D4B"/>
<stop offset="1" stop-color="#181C4A"/>
</linearGradient>
<linearGradient id="paint11_linear_1756_6183" x1="61.9524" y1="416.576" x2="370.056" y2="416.576" gradientUnits="userSpaceOnUse">
<stop stop-color="white"/>
<stop offset="0.03" stop-color="#DDDEE5"/>
<stop offset="0.07" stop-color="#B4B6C4"/>
<stop offset="0.12" stop-color="#8F90A7"/>
<stop offset="0.18" stop-color="#6E718D"/>
<stop offset="0.24" stop-color="#535678"/>
<stop offset="0.31" stop-color="#3D4067"/>
<stop offset="0.39" stop-color="#2C305A"/>
<stop offset="0.48" stop-color="#202450"/>
<stop offset="0.62" stop-color="#191D4B"/>
<stop offset="1" stop-color="#181C4A"/>
</linearGradient>
<linearGradient id="paint12_linear_1756_6183" x1="64.8235" y1="423.526" x2="417.542" y2="423.526" gradientUnits="userSpaceOnUse">
<stop stop-color="white"/>
<stop offset="0.03" stop-color="#DDDEE5"/>
<stop offset="0.07" stop-color="#B4B6C4"/>
<stop offset="0.12" stop-color="#8F90A7"/>
<stop offset="0.18" stop-color="#6E718D"/>
<stop offset="0.24" stop-color="#535678"/>
<stop offset="0.31" stop-color="#3D4067"/>
<stop offset="0.39" stop-color="#2C305A"/>
<stop offset="0.48" stop-color="#202450"/>
<stop offset="0.62" stop-color="#191D4B"/>
<stop offset="1" stop-color="#181C4A"/>
</linearGradient>
<linearGradient id="paint13_linear_1756_6183" x1="69.1084" y1="431.478" x2="459.377" y2="431.478" gradientUnits="userSpaceOnUse">
<stop stop-color="white"/>
<stop offset="0.03" stop-color="#DDDEE5"/>
<stop offset="0.07" stop-color="#B4B6C4"/>
<stop offset="0.12" stop-color="#8F90A7"/>
<stop offset="0.18" stop-color="#6E718D"/>
<stop offset="0.24" stop-color="#535678"/>
<stop offset="0.31" stop-color="#3D4067"/>
<stop offset="0.39" stop-color="#2C305A"/>
<stop offset="0.48" stop-color="#202450"/>
<stop offset="0.62" stop-color="#191D4B"/>
<stop offset="1" stop-color="#181C4A"/>
</linearGradient>
</defs>
</svg>
