<svg width="27" height="26" viewBox="0 0 27 26" fill="none" xmlns="http://www.w3.org/2000/svg">
<ellipse cx="13.8529" cy="12.951" rx="12.951" ry="12.951" fill="#4A5C76"/>
<g clip-path="url(#clip0_1774_753)">
<path fill-rule="evenodd" clip-rule="evenodd" d="M19.2513 8.21243C18.7979 8.49682 18.297 8.70364 17.7615 8.81431C17.3349 8.33193 16.7253 8.03052 16.0504 8.03052C14.7567 8.03052 13.7068 9.14283 13.7068 10.5146C13.7068 10.7095 13.727 10.8983 13.7673 11.0802C11.8188 10.9765 10.0916 9.98873 8.93459 8.48389C8.7326 8.85214 8.61727 9.27935 8.61727 9.7343C8.61727 10.5956 9.031 11.3561 9.66045 11.8016C9.27662 11.7896 8.91445 11.6767 8.59774 11.492V11.5223C8.59774 12.7263 9.40599 13.7308 10.4794 13.9581C10.2829 14.0164 10.0754 14.0458 9.86152 14.0458C9.71049 14.0458 9.56312 14.0306 9.42033 14.0016C9.71873 14.9881 10.584 15.7067 11.6101 15.7259C10.808 16.3924 9.79653 16.7897 8.69843 16.7897C8.50926 16.7897 8.32223 16.7783 8.13916 16.7556C9.17654 17.4593 10.4095 17.8707 11.7331 17.8707C16.0458 17.8707 18.4034 14.0861 18.4034 10.8031C18.4034 10.695 18.4016 10.5871 18.3976 10.4812C18.8556 10.1309 19.2535 9.69362 19.5665 9.19548C19.1467 9.39285 18.6945 9.52653 18.2204 9.58643C18.7046 9.27935 19.0762 8.79255 19.2513 8.21243Z" fill="white"/>
</g>
<defs>
<clipPath id="clip0_1774_753">
<rect width="11.4274" height="9.84023" fill="white" transform="translate(8.13916 8.03052)"/>
</clipPath>
</defs>
</svg>
